<?xml version="1.0" encoding="UTF-8" standalone="no"?><svg xmlns="http://www.w3.org/2000/svg" xmlns:xlink="http://www.w3.org/1999/xlink" contentScriptType="application/ecmascript" contentStyleType="text/css" height="601px" preserveAspectRatio="none" style="width:1829px;height:601px;background:#FFFFFF;" version="1.1" viewBox="0 0 1829 601" width="1829px" zoomAndPan="magnify"><defs/><g><polygon fill="#FFFFFF" points="127.5,94.2969,127.5,94.3669,129.5,94.1588,131.5,94.3613,133.5,94.4301,135.5,94.0591,137.5,94.2969,137.4223,94.2969,137.0735,104.4018,137.1165,114.5066,137.4318,124.6115,136.8086,134.7164,138.0536,144.8213,136.8697,154.9262,137.3022,165.0311,137.9319,175.1359,137.4142,185.2408,137.5682,195.3457,137.4681,205.4506,137.6785,215.5555,137.7391,225.6604,138.0857,235.7652,138.1711,245.8701,138.1793,255.975,137.7546,266.0799,137.9636,276.1848,138.2022,286.2896,136.7788,296.3945,138.1785,306.4994,137.2035,316.6043,138.0338,326.7092,137.005,336.8141,137.4315,346.9189,138.2416,357.0238,137.4513,367.1287,137.6053,377.2336,137.8386,387.3385,137.9162,397.4434,137.4961,407.5482,137.7872,417.6531,136.9276,427.758,137.7844,437.8629,138.0482,447.9678,137.9445,458.0727,138.113,468.1775,137.0169,478.2824,136.8478,488.3873,137.5,498.4922,137.5,498.2851,135.5,498.4726,133.5,498.4267,131.5,498.7193,129.5,498.434,127.5,498.4922,127.1569,498.4922,127.7283,488.3873,126.8332,478.2824,126.9809,468.1775,128.149,458.0727,127.9357,447.9678,128.2345,437.8629,127.1782,427.758,127.8192,417.6531,128.0904,407.5482,127.0276,397.4434,127.4041,387.3385,127.626,377.2336,128.1518,367.1287,127.4958,357.0238,127.9626,346.9189,126.9462,336.8141,126.8227,326.7092,128.0036,316.6043,126.7831,306.4994,128.009,296.3945,127.7066,286.2896,127.2321,276.1848,127.1462,266.0799,127.9588,255.975,127.2007,245.8701,128.0919,235.7652,126.9473,225.6604,128.1174,215.5555,127.9843,205.4506,127.745,195.3457,127.5472,185.2408,128.2266,175.1359,128.1136,165.0311,127.6693,154.9262,127.7682,144.8213,127.3697,134.7164,128.2165,124.6115,127.6549,114.5066,127.6726,104.4018,127.5,94.2969" style="stroke:#383838;stroke-width:1.0;"/><polygon fill="#FFFFFF" points="362.5,115.4297,362.5,115.4997,364.5,115.2916,366.5,115.4941,368.5,115.5629,370.5,115.1919,372.5,115.4297,372.4223,115.4297,372.0735,125.5103,372.1165,135.5909,372.4318,145.6715,371.8086,155.7521,373.0536,165.8326,371.8697,175.9132,372.3022,185.9938,372.9319,196.0744,372.4142,206.155,372.5682,216.2356,372.4681,226.3162,372.6785,236.3968,372.7391,246.4774,373.0857,256.558,373.1711,266.6386,373.1793,276.7192,372.7546,286.7998,372.9636,296.8803,373.2022,306.9609,371.7788,317.0415,373.1785,327.1221,372.2035,337.2027,373.0338,347.2833,372.005,357.3639,372.4315,367.4445,373.2416,377.5251,372.4513,387.6057,372.6053,397.6863,372.8386,407.7669,372.9162,417.8475,372.4961,427.928,372.7872,438.0086,371.9276,448.0892,372.7844,458.1698,373.0482,468.2504,372.9445,478.331,373.113,488.4116,372.5,498.4922,372.5,498.3312,370.5,498.2748,368.5,498.2851,366.5,498.4726,364.5,498.4267,362.5,498.4922,363.1814,498.4922,362.3253,488.4116,362.1569,478.331,362.7283,468.2504,361.8332,458.1698,361.9809,448.0892,363.149,438.0086,362.9357,427.928,363.2345,417.8475,362.1782,407.7669,362.8192,397.6863,363.0904,387.6057,362.0276,377.5251,362.4041,367.4445,362.626,357.3639,363.1518,347.2833,362.4958,337.2027,362.9626,327.1221,361.9462,317.0415,361.8227,306.9609,363.0036,296.8803,361.7831,286.7998,363.009,276.7192,362.7066,266.6386,362.2321,256.558,362.1462,246.4774,362.9588,236.3968,362.2007,226.3162,363.0919,216.2356,361.9473,206.155,363.1174,196.0744,362.9843,185.9938,362.745,175.9132,362.5472,165.8326,363.2266,155.7521,363.1136,145.6715,362.6693,135.5909,362.7682,125.5103,362.5,115.4297" style="stroke:#383838;stroke-width:1.0;"/><polygon fill="#FFFFFF" points="597.5,144.5625,597.5,144.6326,599.5,144.4244,601.5,144.6269,603.5,144.6957,605.5,144.3247,607.5,144.5625,607.4223,144.5625,607.0735,154.6748,607.1165,164.7871,607.4318,174.8993,606.8086,185.0116,608.0536,195.1239,606.8697,205.2362,607.3022,215.3484,607.9319,225.4607,607.4142,235.573,607.5682,245.6853,607.4681,255.7975,607.6785,265.9098,607.7391,276.0221,608.0857,286.1344,608.1711,296.2467,608.1793,306.3589,607.7546,316.4712,607.9636,326.5835,608.2022,336.6958,606.7788,346.808,608.1785,356.9203,607.2035,367.0326,608.0338,377.1449,607.005,387.2571,607.4315,397.3694,608.2416,407.4817,607.4513,417.594,607.6053,427.7063,607.8386,437.8185,607.9162,447.9308,607.4961,458.0431,607.7872,468.1554,606.9276,478.2676,607.7844,488.3799,607.5,498.4922,607.5,498.6749,605.5,498.6404,603.5,498.6965,601.5,498.3312,599.5,498.2748,597.5,498.4922,596.8786,498.4922,597.4411,488.3799,597.3035,478.2676,598.1814,468.1554,597.3253,458.0431,597.1569,447.9308,597.7283,437.8185,596.8332,427.7063,596.9809,417.594,598.149,407.4817,597.9357,397.3694,598.2345,387.2571,597.1782,377.1449,597.8192,367.0326,598.0904,356.9203,597.0276,346.808,597.4041,336.6958,597.626,326.5835,598.1518,316.4712,597.4958,306.3589,597.9626,296.2467,596.9462,286.1344,596.8227,276.0221,598.0036,265.9098,596.7831,255.7975,598.009,245.6853,597.7066,235.573,597.2321,225.4607,597.1462,215.3484,597.9588,205.2362,597.2007,195.1239,598.0919,185.0116,596.9473,174.8993,598.1174,164.7871,597.9843,154.6748,597.5,144.5625" style="stroke:#383838;stroke-width:1.0;"/><polygon fill="#FFFFFF" points="826,173.6953,826,173.7654,828,173.5572,830,173.7597,832,173.8285,834,173.4575,836,173.6953,835.9741,173.6953,835.8578,179.6953,835.8722,185.6953,835.9773,191.6953,835.7695,197.6953,836,203.6953,836,203.8799,834,203.4852,832,203.6294,830,203.8393,828,203.6667,826,203.6953,826.0227,203.6953,825.9894,197.6953,826.0595,191.6953,826.0797,185.6953,826.1952,179.6953,826,173.6953" style="stroke:#383838;stroke-width:1.0;"/><polygon fill="#FFFFFF" points="1005.5,351.0938,1005.5,351.1638,1007.5,350.9556,1009.5,351.1582,1011.5,351.227,1013.5,350.856,1015.5,351.0938,1015.4223,351.0938,1015.0735,360.901,1015.1165,370.7083,1015.4318,380.5156,1014.8086,390.3229,1016.0536,400.1302,1014.8697,409.9375,1015.3022,419.7448,1015.9319,429.5521,1015.5,439.3594,1015.5,439.3308,1013.5,439.3821,1011.5,439.3487,1009.5,439.4189,1007.5,439.4391,1005.5,439.3594,1006.0857,439.3594,1006.1711,429.5521,1006.1793,419.7448,1005.7546,409.9375,1005.9636,400.1302,1006.2022,390.3229,1004.7788,380.5156,1006.1785,370.7083,1005.2035,360.901,1005.5,351.0938" style="stroke:#383838;stroke-width:1.0;"/><polygon fill="#FFFFFF" points="1167.5,380.2266,1167.5,380.2966,1169.5,380.0885,1171.5,380.291,1173.5,380.3598,1175.5,379.9888,1177.5,380.2266,1177.4223,380.2266,1177.0735,390.082,1177.1165,399.9375,1177.4318,409.793,1176.8086,419.6484,1178.0536,429.5039,1177.5,439.3594,1177.5,439.1493,1175.5,439.2935,1173.5,439.5034,1171.5,439.3308,1169.5,439.3821,1167.5,439.3594,1167.4681,439.3594,1167.6785,429.5039,1167.7391,419.6484,1168.0857,409.793,1168.1711,399.9375,1168.1793,390.082,1167.5,380.2266" style="stroke:#383838;stroke-width:1.0;"/><polygon fill="#FFFFFF" points="1302,291.9609,1302,292.031,1304,291.8228,1306,292.0254,1308,292.0942,1310,291.7231,1312,291.9609,1311.9741,291.9609,1311.8578,297.9609,1311.8722,303.9609,1311.9773,309.9609,1311.7695,315.9609,1312,321.9609,1312,322.1455,1310,321.7508,1308,321.895,1306,322.1049,1304,321.9323,1302,321.9609,1302.0227,321.9609,1301.9894,315.9609,1302.0595,309.9609,1302.0797,303.9609,1302.1952,297.9609,1302,291.9609" style="stroke:#383838;stroke-width:1.0;"/><polygon fill="#FFFFFF" points="1581,232.8281,1581,232.8982,1583,232.69,1585,232.8926,1587,232.9614,1589,232.5903,1591,232.8281,1590.9741,232.8281,1590.8578,238.8281,1590.8722,244.8281,1590.9773,250.8281,1590.7695,256.8281,1591,262.8281,1591,263.0127,1589,262.618,1587,262.7622,1585,262.9721,1583,262.7995,1581,262.8281,1581.0227,262.8281,1580.9894,256.8281,1581.0595,250.8281,1581.0797,244.8281,1581.1952,238.8281,1581,232.8281" style="stroke:#383838;stroke-width:1.0;"/><polygon fill="#FFFFFF" points="1736.5,409.3594,1736.5,409.4294,1738.5,409.2213,1740.5,409.4238,1742.5,409.4926,1744.5,409.1216,1746.5,409.3594,1746.4741,409.3594,1746.3578,415.3594,1746.3722,421.3594,1746.4773,427.3594,1746.2695,433.3594,1746.5,439.3594,1746.5,439.5439,1744.5,439.1493,1742.5,439.2935,1740.5,439.5034,1738.5,439.3308,1736.5,439.3594,1736.5227,439.3594,1736.4894,433.3594,1736.5595,427.3594,1736.5797,421.3594,1736.6952,415.3594,1736.5,409.3594" style="stroke:#383838;stroke-width:1.0;"/><polygon fill="#FFFFFF" points="1736.5,468.4922,1736.5,468.5622,1738.5,468.3541,1740.5,468.5566,1742.5,468.6254,1744.5,468.2544,1746.5,468.4922,1746.4741,468.4922,1746.3578,474.4922,1746.3722,480.4922,1746.4773,486.4922,1746.2695,492.4922,1746.5,498.4922,1746.5,498.6767,1744.5,498.2821,1742.5,498.4263,1740.5,498.6362,1738.5,498.4636,1736.5,498.4922,1736.5227,498.4922,1736.4894,492.4922,1736.5595,486.4922,1736.5797,480.4922,1736.6952,474.4922,1736.5,468.4922" style="stroke:#383838;stroke-width:1.0;"/><path d="M132,84.2969 L132.2802,84.2969 L131.4476,94.3479 L132.2577,104.399 L132.5329,114.45 L131.0488,124.5011 L131.8964,134.5521 L131.4313,144.6032 L131.4887,154.6543 L131.9091,164.7053 L131.0782,174.7564 L132.7382,184.8074 L131.1596,194.8585 L131.7363,204.9095 L132.5759,214.9606 L131.8856,225.0116 L132.091,235.0627 L131.9574,245.1137 L132.238,255.1648 L132.3188,265.2158 L132.7809,275.2669 L132.8947,285.318 L132.9057,295.369 L132.3395,305.4201 L132.6181,315.4711 L132.9363,325.5222 L131.0384,335.5732 L132.9047,345.6243 L131.6047,355.6753 L132.7117,365.7264 L131.34,375.7774 L131.9087,385.8285 L132.9888,395.8795 L131.935,405.9306 L132.1404,415.9816 L132.4515,426.0327 L132.555,436.0838 L131.9948,446.1348 L132.383,456.1859 L131.2368,466.2369 L132.3792,476.288 L132.7309,486.339 L132.5927,496.3901 L132.8174,506.4411 L132,516.4922 " fill="none" style="stroke:#383838;stroke-width:1.0;stroke-dasharray:5.0,5.0;"/><path d="M367,84.2969 L367.2802,84.2969 L366.4476,94.3479 L367.2577,104.399 L367.5329,114.45 L366.0488,124.5011 L366.8964,134.5521 L366.4313,144.6032 L366.4887,154.6543 L366.9091,164.7053 L366.0782,174.7564 L367.7382,184.8074 L366.1596,194.8585 L366.7363,204.9095 L367.5759,214.9606 L366.8856,225.0116 L367.091,235.0627 L366.9574,245.1137 L367.238,255.1648 L367.3188,265.2158 L367.7809,275.2669 L367.8947,285.318 L367.9057,295.369 L367.3395,305.4201 L367.6181,315.4711 L367.9363,325.5222 L366.0384,335.5732 L367.9047,345.6243 L366.6047,355.6753 L367.7117,365.7264 L366.34,375.7774 L366.9087,385.8285 L367.9888,395.8795 L366.935,405.9306 L367.1404,415.9816 L367.4515,426.0327 L367.555,436.0838 L366.9948,446.1348 L367.383,456.1859 L366.2368,466.2369 L367.3792,476.288 L367.7309,486.339 L367.5927,496.3901 L367.8174,506.4411 L367,516.4922 " fill="none" style="stroke:#383838;stroke-width:1.0;stroke-dasharray:5.0,5.0;"/><path d="M602,84.2969 L602.2802,84.2969 L601.4476,94.3479 L602.2577,104.399 L602.5329,114.45 L601.0488,124.5011 L601.8964,134.5521 L601.4313,144.6032 L601.4887,154.6543 L601.9091,164.7053 L601.0782,174.7564 L602.7382,184.8074 L601.1596,194.8585 L601.7363,204.9095 L602.5759,214.9606 L601.8856,225.0116 L602.091,235.0627 L601.9574,245.1137 L602.238,255.1648 L602.3188,265.2158 L602.7809,275.2669 L602.8947,285.318 L602.9057,295.369 L602.3395,305.4201 L602.6181,315.4711 L602.9363,325.5222 L601.0384,335.5732 L602.9047,345.6243 L601.6047,355.6753 L602.7117,365.7264 L601.34,375.7774 L601.9087,385.8285 L602.9888,395.8795 L601.935,405.9306 L602.1404,415.9816 L602.4515,426.0327 L602.555,436.0838 L601.9948,446.1348 L602.383,456.1859 L601.2368,466.2369 L602.3792,476.288 L602.7309,486.339 L602.5927,496.3901 L602.8174,506.4411 L602,516.4922 " fill="none" style="stroke:#383838;stroke-width:1.0;stroke-dasharray:5.0,5.0;"/><path d="M831,84.2969 L831.2802,84.2969 L830.4476,94.3479 L831.2577,104.399 L831.5329,114.45 L830.0488,124.5011 L830.8964,134.5521 L830.4313,144.6032 L830.4887,154.6543 L830.9091,164.7053 L830.0782,174.7564 L831.7382,184.8074 L830.1596,194.8585 L830.7363,204.9095 L831.5759,214.9606 L830.8856,225.0116 L831.091,235.0627 L830.9574,245.1137 L831.238,255.1648 L831.3188,265.2158 L831.7809,275.2669 L831.8947,285.318 L831.9057,295.369 L831.3395,305.4201 L831.6181,315.4711 L831.9363,325.5222 L830.0384,335.5732 L831.9047,345.6243 L830.6047,355.6753 L831.7117,365.7264 L830.34,375.7774 L830.9087,385.8285 L831.9888,395.8795 L830.935,405.9306 L831.1404,415.9816 L831.4515,426.0327 L831.555,436.0838 L830.9948,446.1348 L831.383,456.1859 L830.2368,466.2369 L831.3792,476.288 L831.7309,486.339 L831.5927,496.3901 L831.8174,506.4411 L831,516.4922 " fill="none" style="stroke:#383838;stroke-width:1.0;stroke-dasharray:5.0,5.0;"/><path d="M1010,84.2969 L1010.2802,84.2969 L1009.4476,94.3479 L1010.2577,104.399 L1010.5329,114.45 L1009.0488,124.5011 L1009.8964,134.5521 L1009.4313,144.6032 L1009.4887,154.6543 L1009.9091,164.7053 L1009.0782,174.7564 L1010.7382,184.8074 L1009.1596,194.8585 L1009.7363,204.9095 L1010.5759,214.9606 L1009.8856,225.0116 L1010.091,235.0627 L1009.9574,245.1137 L1010.238,255.1648 L1010.3188,265.2158 L1010.7809,275.2669 L1010.8947,285.318 L1010.9057,295.369 L1010.3395,305.4201 L1010.6181,315.4711 L1010.9363,325.5222 L1009.0384,335.5732 L1010.9047,345.6243 L1009.6047,355.6753 L1010.7117,365.7264 L1009.34,375.7774 L1009.9087,385.8285 L1010.9888,395.8795 L1009.935,405.9306 L1010.1404,415.9816 L1010.4515,426.0327 L1010.555,436.0838 L1009.9948,446.1348 L1010.383,456.1859 L1009.2368,466.2369 L1010.3792,476.288 L1010.7309,486.339 L1010.5927,496.3901 L1010.8174,506.4411 L1010,516.4922 " fill="none" style="stroke:#383838;stroke-width:1.0;stroke-dasharray:5.0,5.0;"/><path d="M1172,84.2969 L1172.2802,84.2969 L1171.4476,94.3479 L1172.2577,104.399 L1172.5329,114.45 L1171.0488,124.5011 L1171.8964,134.5521 L1171.4313,144.6032 L1171.4887,154.6543 L1171.9091,164.7053 L1171.0782,174.7564 L1172.7382,184.8074 L1171.1596,194.8585 L1171.7363,204.9095 L1172.5759,214.9606 L1171.8856,225.0116 L1172.091,235.0627 L1171.9574,245.1137 L1172.238,255.1648 L1172.3188,265.2158 L1172.7809,275.2669 L1172.8947,285.318 L1172.9057,295.369 L1172.3395,305.4201 L1172.6181,315.4711 L1172.9363,325.5222 L1171.0384,335.5732 L1172.9047,345.6243 L1171.6047,355.6753 L1172.7117,365.7264 L1171.34,375.7774 L1171.9087,385.8285 L1172.9888,395.8795 L1171.935,405.9306 L1172.1404,415.9816 L1172.4515,426.0327 L1172.555,436.0838 L1171.9948,446.1348 L1172.383,456.1859 L1171.2368,466.2369 L1172.3792,476.288 L1172.7309,486.339 L1172.5927,496.3901 L1172.8174,506.4411 L1172,516.4922 " fill="none" style="stroke:#383838;stroke-width:1.0;stroke-dasharray:5.0,5.0;"/><path d="M1307,84.2969 L1307.2802,84.2969 L1306.4476,94.3479 L1307.2577,104.399 L1307.5329,114.45 L1306.0488,124.5011 L1306.8964,134.5521 L1306.4313,144.6032 L1306.4887,154.6543 L1306.9091,164.7053 L1306.0782,174.7564 L1307.7382,184.8074 L1306.1596,194.8585 L1306.7363,204.9095 L1307.5759,214.9606 L1306.8856,225.0116 L1307.091,235.0627 L1306.9574,245.1137 L1307.238,255.1648 L1307.3188,265.2158 L1307.7809,275.2669 L1307.8947,285.318 L1307.9057,295.369 L1307.3395,305.4201 L1307.6181,315.4711 L1307.9363,325.5222 L1306.0384,335.5732 L1307.9047,345.6243 L1306.6047,355.6753 L1307.7117,365.7264 L1306.34,375.7774 L1306.9087,385.8285 L1307.9888,395.8795 L1306.935,405.9306 L1307.1404,415.9816 L1307.4515,426.0327 L1307.555,436.0838 L1306.9948,446.1348 L1307.383,456.1859 L1306.2368,466.2369 L1307.3792,476.288 L1307.7309,486.339 L1307.5927,496.3901 L1307.8174,506.4411 L1307,516.4922 " fill="none" style="stroke:#383838;stroke-width:1.0;stroke-dasharray:5.0,5.0;"/><path d="M1442,84.2969 L1442.2802,84.2969 L1441.4476,94.3479 L1442.2577,104.399 L1442.5329,114.45 L1441.0488,124.5011 L1441.8964,134.5521 L1441.4313,144.6032 L1441.4887,154.6543 L1441.9091,164.7053 L1441.0782,174.7564 L1442.7382,184.8074 L1441.1596,194.8585 L1441.7363,204.9095 L1442.5759,214.9606 L1441.8856,225.0116 L1442.091,235.0627 L1441.9574,245.1137 L1442.238,255.1648 L1442.3188,265.2158 L1442.7809,275.2669 L1442.8947,285.318 L1442.9057,295.369 L1442.3395,305.4201 L1442.6181,315.4711 L1442.9363,325.5222 L1441.0384,335.5732 L1442.9047,345.6243 L1441.6047,355.6753 L1442.7117,365.7264 L1441.34,375.7774 L1441.9087,385.8285 L1442.9888,395.8795 L1441.935,405.9306 L1442.1404,415.9816 L1442.4515,426.0327 L1442.555,436.0838 L1441.9948,446.1348 L1442.383,456.1859 L1441.2368,466.2369 L1442.3792,476.288 L1442.7309,486.339 L1442.5927,496.3901 L1442.8174,506.4411 L1442,516.4922 " fill="none" style="stroke:#383838;stroke-width:1.0;stroke-dasharray:5.0,5.0;"/><path d="M1586,84.2969 L1586.2802,84.2969 L1585.4476,94.3479 L1586.2577,104.399 L1586.5329,114.45 L1585.0488,124.5011 L1585.8964,134.5521 L1585.4313,144.6032 L1585.4887,154.6543 L1585.9091,164.7053 L1585.0782,174.7564 L1586.7382,184.8074 L1585.1596,194.8585 L1585.7363,204.9095 L1586.5759,214.9606 L1585.8856,225.0116 L1586.091,235.0627 L1585.9574,245.1137 L1586.238,255.1648 L1586.3188,265.2158 L1586.7809,275.2669 L1586.8947,285.318 L1586.9057,295.369 L1586.3395,305.4201 L1586.6181,315.4711 L1586.9363,325.5222 L1585.0384,335.5732 L1586.9047,345.6243 L1585.6047,355.6753 L1586.7117,365.7264 L1585.34,375.7774 L1585.9087,385.8285 L1586.9888,395.8795 L1585.935,405.9306 L1586.1404,415.9816 L1586.4515,426.0327 L1586.555,436.0838 L1585.9948,446.1348 L1586.383,456.1859 L1585.2368,466.2369 L1586.3792,476.288 L1586.7309,486.339 L1586.5927,496.3901 L1586.8174,506.4411 L1586,516.4922 " fill="none" style="stroke:#383838;stroke-width:1.0;stroke-dasharray:5.0,5.0;"/><path d="M1741,84.2969 L1741.2802,84.2969 L1740.4476,94.3479 L1741.2577,104.399 L1741.5329,114.45 L1740.0488,124.5011 L1740.8964,134.5521 L1740.4313,144.6032 L1740.4887,154.6543 L1740.9091,164.7053 L1740.0782,174.7564 L1741.7382,184.8074 L1740.1596,194.8585 L1740.7363,204.9095 L1741.5759,214.9606 L1740.8856,225.0116 L1741.091,235.0627 L1740.9574,245.1137 L1741.238,255.1648 L1741.3188,265.2158 L1741.7809,275.2669 L1741.8947,285.318 L1741.9057,295.369 L1741.3395,305.4201 L1741.6181,315.4711 L1741.9363,325.5222 L1740.0384,335.5732 L1741.9047,345.6243 L1740.6047,355.6753 L1741.7117,365.7264 L1740.34,375.7774 L1740.9087,385.8285 L1741.9888,395.8795 L1740.935,405.9306 L1741.1404,415.9816 L1741.4515,426.0327 L1741.555,436.0838 L1740.9948,446.1348 L1741.383,456.1859 L1740.2368,466.2369 L1741.3792,476.288 L1741.7309,486.339 L1741.5927,496.3901 L1741.8174,506.4411 L1741,516.4922 " fill="none" style="stroke:#383838;stroke-width:1.0;stroke-dasharray:5.0,5.0;"/><text fill="#000000" font-family="FG Virgil" font-size="14" lengthAdjust="spacing" textLength="249" x="5" y="80.9951">Responsavel de Recursos Humanos</text><polygon fill="#F8F8F8" points="140.5442,16.9459,139.3715,18.5482,137.9845,20.8951,136.0008,22.4767,133.9163,23.3415,132.2542,23.4166,130.118,22.3349,128.1023,21.6283,126.5724,20.1936,125.7699,18.5511,125.2939,17.2433,124.8277,15.5351,124.0709,14.0651,124.6525,12.6298,125.162,11.0576,127.074,9.8142,128.4192,8.2008,130.0843,7.665,132.0637,7.2037,134.6021,7.4778,135.9924,8.1335,137.6089,8.4307,139.5743,10.4443,140.2595,12.5701,140.5571,14.0206,140.22,16.4108" style="stroke:#383838;stroke-width:2.0;"/><path d="M132.5,23 L132.6868,23 L132.1317,28.4 L132.6718,33.8 L132.8553,39.2 L131.8659,44.6 L132.5,50 M119.5,31 L119.5,30.9309 L124.7,30.6209 L129.9,30.6591 L135.1,30.9394 L140.3,30.3854 L145.5,31 M132.5,50 L132.8719,50.3223 L129.4766,52.6331 L127.1672,55.8849 L124.9901,59.2515 L122.0424,61.9501 L119.5,65 M132.5,50 L132.5458,50.0397 L135.0785,52.9814 L137.8199,56.1039 L140.4606,59.1392 L143.2934,62.341 L145.5,65 " fill="none" style="stroke:#383838;stroke-width:2.0;"/><text fill="#000000" font-family="FG Virgil" font-size="14" lengthAdjust="spacing" textLength="249" x="5" y="528.4873">Responsavel de Recursos Humanos</text><polygon fill="#F8F8F8" points="140.5442,543.735,139.3715,545.3373,137.9845,547.6841,136.0008,549.2657,133.9163,550.1306,132.2542,550.2057,130.118,549.124,128.1023,548.4174,126.5724,546.9826,125.7699,545.3402,125.2939,544.0324,124.8277,542.3241,124.0709,540.8541,124.6525,539.4189,125.162,537.8467,127.074,536.6032,128.4192,534.9899,130.0843,534.4541,132.0637,533.9927,134.6021,534.2669,135.9924,534.9225,137.6089,535.2197,139.5743,537.2334,140.2595,539.3592,140.5571,540.8097,140.22,543.1999" style="stroke:#383838;stroke-width:2.0;"/><path d="M132.5,549.7891 L132.6868,549.7891 L132.1317,555.1891 L132.6718,560.5891 L132.8553,565.9891 L131.8659,571.3891 L132.5,576.7891 M119.5,557.7891 L119.5,557.72 L124.7,557.41 L129.9,557.4482 L135.1,557.7285 L140.3,557.1745 L145.5,557.7891 M132.5,576.7891 L132.8719,577.1114 L129.4766,579.4221 L127.1672,582.6739 L124.9901,586.0405 L122.0424,588.7391 L119.5,591.7891 M132.5,576.7891 L132.5458,576.8288 L135.0785,579.7705 L137.8199,582.893 L140.4606,585.9283 L143.2934,589.13 L145.5,591.7891 " fill="none" style="stroke:#383838;stroke-width:2.0;"/><polygon fill="#F8F8F8" points="270,36.7031,270,36.9133,279.75,36.2888,289.5,36.8964,299.25,37.1028,309,35.9897,318.75,36.6254,328.5,36.2766,338.25,36.3196,348,36.635,357.75,36.0118,367.5,37.2568,377.25,36.0728,387,36.5054,396.75,37.1351,406.5,36.6173,416.25,36.7714,426,36.6712,435.75,36.8817,445.5,36.9423,455.25,37.2888,465,36.7031,465.6711,36.7031,465.6793,46.0219,465.2546,55.3406,465.4636,64.6594,465.7022,73.9781,465,83.2969,465,82.5757,455.25,83.9754,445.5,83.0004,435.75,83.8307,426,82.8019,416.25,83.2284,406.5,84.0385,396.75,83.2481,387,83.4022,377.25,83.6355,367.5,83.7131,357.75,83.293,348,83.5841,338.25,82.7245,328.5,83.5813,318.75,83.8451,309,83.7414,299.25,83.9099,289.5,82.8138,279.75,82.6447,270,83.2969,269.3786,83.2969,269.9411,73.9781,269.8035,64.6594,270.6814,55.3406,269.8253,46.0219,270,36.7031" style="stroke:#383838;stroke-width:1.5;"/><text fill="#000000" font-family="FG Virgil" font-size="14" font-style="italic" lengthAdjust="spacing" textLength="108" x="313.5" y="56.6982">«presentation»</text><text fill="#000000" font-family="FG Virgil" font-size="14" lengthAdjust="spacing" textLength="181" x="277" y="72.9951">LerFicheiroColaboradorUI</text><polygon fill="#F8F8F8" points="270,515.4922,270,515.7024,279.75,515.0779,289.5,515.6855,299.25,515.8919,309,514.7788,318.75,515.4145,328.5,515.0657,338.25,515.1087,348,515.424,357.75,514.8008,367.5,516.0458,377.25,514.8619,387,515.2944,396.75,515.9241,406.5,515.4064,416.25,515.5604,426,515.4602,435.75,515.6707,445.5,515.7313,455.25,516.0779,465,515.4922,465.6711,515.4922,465.6793,524.8109,465.2546,534.1297,465.4636,543.4484,465.7022,552.7672,465,562.0859,465,561.3648,455.25,562.7644,445.5,561.7894,435.75,562.6197,426,561.5909,416.25,562.0174,406.5,562.8275,396.75,562.0372,387,562.1912,377.25,562.4246,367.5,562.5022,357.75,562.082,348,562.3732,338.25,561.5135,328.5,562.3703,318.75,562.6341,309,562.5305,299.25,562.699,289.5,561.6029,279.75,561.4338,270,562.0859,269.3786,562.0859,269.9411,552.7672,269.8035,543.4484,270.6814,534.1297,269.8253,524.8109,270,515.4922" style="stroke:#383838;stroke-width:1.5;"/><text fill="#000000" font-family="FG Virgil" font-size="14" font-style="italic" lengthAdjust="spacing" textLength="108" x="313.5" y="535.4873">«presentation»</text><text fill="#000000" font-family="FG Virgil" font-size="14" lengthAdjust="spacing" textLength="181" x="277" y="551.7842">LerFicheiroColaboradorUI</text><polygon fill="#F8F8F8" points="475,36.7031,475,36.9133,484.8077,36.2888,494.6154,36.8964,504.4231,37.1028,514.2308,35.9897,524.0385,36.6254,533.8462,36.2766,543.6538,36.3196,553.4615,36.635,563.2692,36.0118,573.0769,37.2568,582.8846,36.0728,592.6923,36.5054,602.5,37.1351,612.3077,36.6173,622.1154,36.7714,631.9231,36.6712,641.7308,36.8817,651.5385,36.9423,661.3462,37.2888,671.1538,37.3742,680.9615,37.3824,690.7692,36.9578,700.5769,37.1667,710.3846,37.4054,720.1923,35.9819,730,36.7031,730.6785,36.7031,729.7035,46.0219,730.5338,55.3406,729.505,64.6594,729.9315,73.9781,730,83.2969,730,84.0385,720.1923,83.2481,710.3846,83.4022,700.5769,83.6355,690.7692,83.7131,680.9615,83.293,671.1538,83.5841,661.3462,82.7245,651.5385,83.5813,641.7308,83.8451,631.9231,83.7414,622.1154,83.9099,612.3077,82.8138,602.5,82.6447,592.6923,82.6755,582.8846,83.238,573.0769,83.1003,563.2692,83.9783,553.4615,83.1222,543.6538,82.9538,533.8462,83.5251,524.0385,82.63,514.2308,82.7777,504.4231,83.9458,494.6154,83.7325,484.8077,84.0314,475,83.2969,474.6782,83.2969,475.3192,73.9781,475.5904,64.6594,474.5276,55.3406,474.9041,46.0219,475,36.7031" style="stroke:#383838;stroke-width:1.5;"/><text fill="#000000" font-family="FG Virgil" font-size="14" font-style="italic" lengthAdjust="spacing" textLength="97" x="554" y="56.6982">«application»</text><text fill="#000000" font-family="FG Virgil" font-size="14" lengthAdjust="spacing" textLength="241" x="482" y="72.9951">LerFicheiroColaboradorController</text><polygon fill="#F8F8F8" points="475,515.4922,475,515.7024,484.8077,515.0779,494.6154,515.6855,504.4231,515.8919,514.2308,514.7788,524.0385,515.4145,533.8462,515.0657,543.6538,515.1087,553.4615,515.424,563.2692,514.8008,573.0769,516.0458,582.8846,514.8619,592.6923,515.2944,602.5,515.9241,612.3077,515.4064,622.1154,515.5604,631.9231,515.4602,641.7308,515.6707,651.5385,515.7313,661.3462,516.0779,671.1538,516.1632,680.9615,516.1714,690.7692,515.7468,700.5769,515.9558,710.3846,516.1944,720.1923,514.771,730,515.4922,730.6785,515.4922,729.7035,524.8109,730.5338,534.1297,729.505,543.4484,729.9315,552.7672,730,562.0859,730,562.8275,720.1923,562.0372,710.3846,562.1912,700.5769,562.4246,690.7692,562.5022,680.9615,562.082,671.1538,562.3732,661.3462,561.5135,651.5385,562.3703,641.7308,562.6341,631.9231,562.5305,622.1154,562.699,612.3077,561.6029,602.5,561.4338,592.6923,561.4645,582.8846,562.0271,573.0769,561.8894,563.2692,562.7673,553.4615,561.9113,543.6538,561.7429,533.8462,562.3142,524.0385,561.4191,514.2308,561.5668,504.4231,562.7349,494.6154,562.5216,484.8077,562.8204,475,562.0859,474.6782,562.0859,475.3192,552.7672,475.5904,543.4484,474.5276,534.1297,474.9041,524.8109,475,515.4922" style="stroke:#383838;stroke-width:1.5;"/><text fill="#000000" font-family="FG Virgil" font-size="14" font-style="italic" lengthAdjust="spacing" textLength="97" x="554" y="535.4873">«application»</text><text fill="#000000" font-family="FG Virgil" font-size="14" lengthAdjust="spacing" textLength="241" x="482" y="551.7842">LerFicheiroColaboradorController</text><polygon fill="#F8F8F8" points="740,36.7031,740,36.9133,750.1111,36.2888,760.2222,36.8964,770.3333,37.1028,780.4444,35.9897,790.5556,36.6254,800.6667,36.2766,810.7778,36.3196,820.8889,36.635,831,36.0118,841.1111,37.2568,851.2222,36.0728,861.3333,36.5054,871.4444,37.1351,881.5556,36.6173,891.6667,36.7714,901.7778,36.6712,911.8889,36.8817,922,36.7031,922.2391,36.7031,922.5857,46.0219,922.6711,55.3406,922.6793,64.6594,922.2546,73.9781,922,83.2969,922,83.7605,911.8889,83.9991,901.7778,82.5757,891.6667,83.9754,881.5556,83.0004,871.4444,83.8307,861.3333,82.8019,851.2222,83.2284,841.1111,84.0385,831,83.2481,820.8889,83.4022,810.7778,83.6355,800.6667,83.7131,790.5556,83.293,780.4444,83.5841,770.3333,82.7245,760.2222,83.5813,750.1111,83.8451,740,83.2969,740.4445,83.2969,740.613,73.9781,739.5169,64.6594,739.3478,55.3406,739.3786,46.0219,740,36.7031" style="stroke:#383838;stroke-width:1.5;"/><text fill="#000000" font-family="FG Virgil" font-size="14" font-style="italic" lengthAdjust="spacing" textLength="47" x="807.5" y="56.6982">«utils»</text><text fill="#000000" font-family="FG Virgil" font-size="14" lengthAdjust="spacing" textLength="168" x="747" y="72.9951">LerFicheiroColaborador</text><polygon fill="#F8F8F8" points="740,515.4922,740,515.7024,750.1111,515.0779,760.2222,515.6855,770.3333,515.8919,780.4444,514.7788,790.5556,515.4145,800.6667,515.0657,810.7778,515.1087,820.8889,515.424,831,514.8008,841.1111,516.0458,851.2222,514.8619,861.3333,515.2944,871.4444,515.9241,881.5556,515.4064,891.6667,515.5604,901.7778,515.4602,911.8889,515.6707,922,515.4922,922.2391,515.4922,922.5857,524.8109,922.6711,534.1297,922.6793,543.4484,922.2546,552.7672,922,562.0859,922,562.5495,911.8889,562.7882,901.7778,561.3648,891.6667,562.7644,881.5556,561.7894,871.4444,562.6197,861.3333,561.5909,851.2222,562.0174,841.1111,562.8275,831,562.0372,820.8889,562.1912,810.7778,562.4246,800.6667,562.5022,790.5556,562.082,780.4444,562.3732,770.3333,561.5135,760.2222,562.3703,750.1111,562.6341,740,562.0859,740.4445,562.0859,740.613,552.7672,739.5169,543.4484,739.3478,534.1297,739.3786,524.8109,740,515.4922" style="stroke:#383838;stroke-width:1.5;"/><text fill="#000000" font-family="FG Virgil" font-size="14" font-style="italic" lengthAdjust="spacing" textLength="47" x="807.5" y="535.4873">«utils»</text><text fill="#000000" font-family="FG Virgil" font-size="14" lengthAdjust="spacing" textLength="168" x="747" y="551.7842">LerFicheiroColaborador</text><polygon fill="#F8F8F8" points="932,36.7031,932,36.9133,941.8125,36.2888,951.625,36.8964,961.4375,37.1028,971.25,35.9897,981.0625,36.6254,990.875,36.2766,1000.6875,36.3196,1010.5,36.635,1020.3125,36.0118,1030.125,37.2568,1039.9375,36.0728,1049.75,36.5054,1059.5625,37.1351,1069.375,36.6173,1079.1875,36.7714,1089,36.7031,1088.9681,36.7031,1089.1785,46.0219,1089.2391,55.3406,1089.5857,64.6594,1089.6711,73.9781,1089,83.2969,1089,83.9761,1079.1875,83.5515,1069.375,83.7605,1059.5625,83.9991,1049.75,82.5757,1039.9375,83.9754,1030.125,83.0004,1020.3125,83.8307,1010.5,82.8019,1000.6875,83.2284,990.875,84.0385,981.0625,83.2481,971.25,83.4022,961.4375,83.6355,951.625,83.7131,941.8125,83.293,932,83.2969,932.2872,83.2969,931.4276,73.9781,932.2844,64.6594,932.5482,55.3406,932.4445,46.0219,932,36.7031" style="stroke:#383838;stroke-width:1.5;"/><text fill="#000000" font-family="FG Virgil" font-size="14" font-style="italic" lengthAdjust="spacing" textLength="100" x="960.5" y="56.6982">«persistence»</text><text fill="#000000" font-family="FG Virgil" font-size="14" lengthAdjust="spacing" textLength="143" x="939" y="72.9951">PersistenceContext</text><polygon fill="#F8F8F8" points="932,515.4922,932,515.7024,941.8125,515.0779,951.625,515.6855,961.4375,515.8919,971.25,514.7788,981.0625,515.4145,990.875,515.0657,1000.6875,515.1087,1010.5,515.424,1020.3125,514.8008,1030.125,516.0458,1039.9375,514.8619,1049.75,515.2944,1059.5625,515.9241,1069.375,515.4064,1079.1875,515.5604,1089,515.4922,1088.9681,515.4922,1089.1785,524.8109,1089.2391,534.1297,1089.5857,543.4484,1089.6711,552.7672,1089,562.0859,1089,562.7652,1079.1875,562.3406,1069.375,562.5495,1059.5625,562.7882,1049.75,561.3648,1039.9375,562.7644,1030.125,561.7894,1020.3125,562.6197,1010.5,561.5909,1000.6875,562.0174,990.875,562.8275,981.0625,562.0372,971.25,562.1912,961.4375,562.4246,951.625,562.5022,941.8125,562.082,932,562.0859,932.2872,562.0859,931.4276,552.7672,932.2844,543.4484,932.5482,534.1297,932.4445,524.8109,932,515.4922" style="stroke:#383838;stroke-width:1.5;"/><text fill="#000000" font-family="FG Virgil" font-size="14" font-style="italic" lengthAdjust="spacing" textLength="100" x="960.5" y="535.4873">«persistence»</text><text fill="#000000" font-family="FG Virgil" font-size="14" lengthAdjust="spacing" textLength="143" x="939" y="551.7842">PersistenceContext</text><polygon fill="#F8F8F8" points="1099,36.7031,1099,36.9133,1108.8,36.2888,1118.6,36.8964,1128.4,37.1028,1138.2,35.9897,1148,36.6254,1157.8,36.2766,1167.6,36.3196,1177.4,36.635,1187.2,36.0118,1197,37.2568,1206.8,36.0728,1216.6,36.5054,1226.4,37.1351,1236.2,36.6173,1246,36.7031,1246.0682,36.7031,1245.9681,46.0219,1246.1785,55.3406,1246.2391,64.6594,1246.5857,73.9781,1246,83.2969,1246,83.9679,1236.2,83.9761,1226.4,83.5515,1216.6,83.7605,1206.8,83.9991,1197,82.5757,1187.2,83.9754,1177.4,83.0004,1167.6,83.8307,1157.8,82.8019,1148,83.2284,1138.2,84.0385,1128.4,83.2481,1118.6,83.4022,1108.8,83.6355,1099,83.2969,1099.4162,83.2969,1098.9961,73.9781,1099.2872,64.6594,1098.4276,55.3406,1099.2844,46.0219,1099,36.7031" style="stroke:#383838;stroke-width:1.5;"/><text fill="#000000" font-family="FG Virgil" font-size="14" font-style="italic" lengthAdjust="spacing" textLength="68" x="1138.5" y="56.6982">«factory»</text><text fill="#000000" font-family="FG Virgil" font-size="14" lengthAdjust="spacing" textLength="133" x="1106" y="72.9951">RepositoryFactory</text><polygon fill="#F8F8F8" points="1099,515.4922,1099,515.7024,1108.8,515.0779,1118.6,515.6855,1128.4,515.8919,1138.2,514.7788,1148,515.4145,1157.8,515.0657,1167.6,515.1087,1177.4,515.424,1187.2,514.8008,1197,516.0458,1206.8,514.8619,1216.6,515.2944,1226.4,515.9241,1236.2,515.4064,1246,515.4922,1246.0682,515.4922,1245.9681,524.8109,1246.1785,534.1297,1246.2391,543.4484,1246.5857,552.7672,1246,562.0859,1246,562.757,1236.2,562.7652,1226.4,562.3406,1216.6,562.5495,1206.8,562.7882,1197,561.3648,1187.2,562.7644,1177.4,561.7894,1167.6,562.6197,1157.8,561.5909,1148,562.0174,1138.2,562.8275,1128.4,562.0372,1118.6,562.1912,1108.8,562.4246,1099,562.0859,1099.4162,562.0859,1098.9961,552.7672,1099.2872,543.4484,1098.4276,534.1297,1099.2844,524.8109,1099,515.4922" style="stroke:#383838;stroke-width:1.5;"/><text fill="#000000" font-family="FG Virgil" font-size="14" font-style="italic" lengthAdjust="spacing" textLength="68" x="1138.5" y="535.4873">«factory»</text><text fill="#000000" font-family="FG Virgil" font-size="14" lengthAdjust="spacing" textLength="133" x="1106" y="551.7842">RepositoryFactory</text><polygon fill="#F8F8F8" points="1256,36.7031,1256,36.9133,1266.2,36.2888,1276.4,36.8964,1286.6,37.1028,1296.8,35.9897,1307,36.6254,1317.2,36.2766,1327.4,36.3196,1337.6,36.635,1347.8,36.0118,1358,36.7031,1358.5536,36.7031,1357.3697,46.0219,1357.8022,55.3406,1358.4319,64.6594,1357.9142,73.9781,1358,83.2969,1358,83.3651,1347.8,83.2649,1337.6,83.4754,1327.4,83.536,1317.2,83.8826,1307,83.9679,1296.8,83.9761,1286.6,83.5515,1276.4,83.7605,1266.2,83.9991,1256,83.2969,1255.2788,83.2969,1256.6785,73.9781,1255.7035,64.6594,1256.5338,55.3406,1255.505,46.0219,1256,36.7031" style="stroke:#383838;stroke-width:1.5;"/><text fill="#000000" font-family="FG Virgil" font-size="14" font-style="italic" lengthAdjust="spacing" textLength="74" x="1270" y="56.6982">«Domain»</text><text fill="#000000" font-family="FG Virgil" font-size="14" lengthAdjust="spacing" textLength="88" x="1263" y="72.9951">Colaborador</text><polygon fill="#F8F8F8" points="1256,515.4922,1256,515.7024,1266.2,515.0779,1276.4,515.6855,1286.6,515.8919,1296.8,514.7788,1307,515.4145,1317.2,515.0657,1327.4,515.1087,1337.6,515.424,1347.8,514.8008,1358,515.4922,1358.5536,515.4922,1357.3697,524.8109,1357.8022,534.1297,1358.4319,543.4484,1357.9142,552.7672,1358,562.0859,1358,562.1542,1347.8,562.054,1337.6,562.2645,1327.4,562.3251,1317.2,562.6716,1307,562.757,1296.8,562.7652,1286.6,562.3406,1276.4,562.5495,1266.2,562.7882,1256,562.0859,1255.2788,562.0859,1256.6785,552.7672,1255.7035,543.4484,1256.5338,534.1297,1255.505,524.8109,1256,515.4922" style="stroke:#383838;stroke-width:1.5;"/><text fill="#000000" font-family="FG Virgil" font-size="14" font-style="italic" lengthAdjust="spacing" textLength="74" x="1270" y="535.4873">«Domain»</text><text fill="#000000" font-family="FG Virgil" font-size="14" lengthAdjust="spacing" textLength="88" x="1263" y="551.7842">Colaborador</text><polygon fill="#F8F8F8" points="1368,36.7031,1368,36.9133,1377.9333,36.2888,1387.8667,36.8964,1397.8,37.1028,1407.7333,35.9897,1417.6667,36.6254,1427.6,36.2766,1437.5333,36.3196,1447.4667,36.635,1457.4,36.0118,1467.3333,37.2568,1477.2667,36.0728,1487.2,36.5054,1497.1333,37.1351,1507.0667,36.6173,1517,36.7031,1517.0682,36.7031,1516.9681,46.0219,1517.1785,55.3406,1517.2391,64.6594,1517.5857,73.9781,1517,83.2969,1517,83.9679,1507.0667,83.9761,1497.1333,83.5515,1487.2,83.7605,1477.2667,83.9991,1467.3333,82.5757,1457.4,83.9754,1447.4667,83.0004,1437.5333,83.8307,1427.6,82.8019,1417.6667,83.2284,1407.7333,84.0385,1397.8,83.2481,1387.8667,83.4022,1377.9333,83.6355,1368,83.2969,1368.4162,83.2969,1367.9961,73.9781,1368.2872,64.6594,1367.4276,55.3406,1368.2844,46.0219,1368,36.7031" style="stroke:#383838;stroke-width:1.5;"/><text fill="#000000" font-family="FG Virgil" font-size="14" font-style="italic" lengthAdjust="spacing" textLength="74" x="1405.5" y="56.6982">«Domain»</text><text fill="#000000" font-family="FG Virgil" font-size="14" lengthAdjust="spacing" textLength="135" x="1375" y="72.9951">SystemUserBuilder</text><polygon fill="#F8F8F8" points="1368,515.4922,1368,515.7024,1377.9333,515.0779,1387.8667,515.6855,1397.8,515.8919,1407.7333,514.7788,1417.6667,515.4145,1427.6,515.0657,1437.5333,515.1087,1447.4667,515.424,1457.4,514.8008,1467.3333,516.0458,1477.2667,514.8619,1487.2,515.2944,1497.1333,515.9241,1507.0667,515.4064,1517,515.4922,1517.0682,515.4922,1516.9681,524.8109,1517.1785,534.1297,1517.2391,543.4484,1517.5857,552.7672,1517,562.0859,1517,562.757,1507.0667,562.7652,1497.1333,562.3406,1487.2,562.5495,1477.2667,562.7882,1467.3333,561.3648,1457.4,562.7644,1447.4667,561.7894,1437.5333,562.6197,1427.6,561.5909,1417.6667,562.0174,1407.7333,562.8275,1397.8,562.0372,1387.8667,562.1912,1377.9333,562.4246,1368,562.0859,1368.4162,562.0859,1367.9961,552.7672,1368.2872,543.4484,1367.4276,534.1297,1368.2844,524.8109,1368,515.4922" style="stroke:#383838;stroke-width:1.5;"/><text fill="#000000" font-family="FG Virgil" font-size="14" font-style="italic" lengthAdjust="spacing" textLength="74" x="1405.5" y="535.4873">«Domain»</text><text fill="#000000" font-family="FG Virgil" font-size="14" lengthAdjust="spacing" textLength="135" x="1375" y="551.7842">SystemUserBuilder</text><polygon fill="#F8F8F8" points="1527,36.7031,1527,36.9133,1536.8333,36.2888,1546.6667,36.8964,1556.5,37.1028,1566.3333,35.9897,1576.1667,36.6254,1586,36.2766,1595.8333,36.3196,1605.6667,36.635,1615.5,36.0118,1625.3333,37.2568,1635.1667,36.0728,1645,36.7031,1644.8022,36.7031,1645.4319,46.0219,1644.9142,55.3406,1645.0682,64.6594,1644.9681,73.9781,1645,83.2969,1645,83.4754,1635.1667,83.536,1625.3333,83.8826,1615.5,83.9679,1605.6667,83.9761,1595.8333,83.5515,1586,83.7605,1576.1667,83.9991,1566.3333,82.5757,1556.5,83.9754,1546.6667,83.0004,1536.8333,83.8307,1527,83.2969,1526.505,83.2969,1526.9315,73.9781,1527.7416,64.6594,1526.9513,55.3406,1527.1053,46.0219,1527,36.7031" style="stroke:#383838;stroke-width:1.5;"/><text fill="#000000" font-family="FG Virgil" font-size="14" font-style="italic" lengthAdjust="spacing" textLength="74" x="1549" y="56.6982">«Domain»</text><text fill="#000000" font-family="FG Virgil" font-size="14" lengthAdjust="spacing" textLength="104" x="1534" y="72.9951">UserController</text><polygon fill="#F8F8F8" points="1527,515.4922,1527,515.7024,1536.8333,515.0779,1546.6667,515.6855,1556.5,515.8919,1566.3333,514.7788,1576.1667,515.4145,1586,515.0657,1595.8333,515.1087,1605.6667,515.424,1615.5,514.8008,1625.3333,516.0458,1635.1667,514.8619,1645,515.4922,1644.8022,515.4922,1645.4319,524.8109,1644.9142,534.1297,1645.0682,543.4484,1644.9681,552.7672,1645,562.0859,1645,562.2645,1635.1667,562.3251,1625.3333,562.6716,1615.5,562.757,1605.6667,562.7652,1595.8333,562.3406,1586,562.5495,1576.1667,562.7882,1566.3333,561.3648,1556.5,562.7644,1546.6667,561.7894,1536.8333,562.6197,1527,562.0859,1526.505,562.0859,1526.9315,552.7672,1527.7416,543.4484,1526.9513,534.1297,1527.1053,524.8109,1527,515.4922" style="stroke:#383838;stroke-width:1.5;"/><text fill="#000000" font-family="FG Virgil" font-size="14" font-style="italic" lengthAdjust="spacing" textLength="74" x="1549" y="535.4873">«Domain»</text><text fill="#000000" font-family="FG Virgil" font-size="14" lengthAdjust="spacing" textLength="104" x="1534" y="551.7842">UserController</text><text fill="#000000" font-family="FG Virgil" font-size="14" font-style="italic" lengthAdjust="spacing" textLength="90" x="1693.5" y="64.6982">«repository»</text><text fill="#000000" font-family="FG Virgil" font-size="14" lengthAdjust="spacing" textLength="167" x="1655" y="80.9951">ColaboradorRepository</text><path d="M1723.5,15.7031 L1723.5,15.7031 L1723.5651,15.7701 L1725.1716,13.8211 L1727.1599,12.2647 L1729.0238,10.5805 L1730.479,8.4758 L1732.5,6.9531 L1732.4952,6.9189 L1734.2739,6.5154 L1736.0766,6.2843 L1737.8958,6.1731 L1739.6577,5.6488 L1741.5,5.7031 L1741.5,5.7031 L1741.5339,5.9468 L1743.2615,5.6757 L1745.0879,6.1161 L1746.9264,6.6433 L1748.6948,6.6654 L1750.5,6.9531 L1750.5211,6.9749 L1752.2901,8.6929 L1754.1553,10.51 L1755.9741,12.2793 L1757.8815,14.1398 L1759.5,15.7031 L1760.0965,15.7031 L1760.1038,20.9031 L1759.7263,26.1031 L1759.9121,31.3031 L1760.1242,36.5031 L1759.5,41.7031 L1759.5,41.7031 L1759.2766,41.4733 L1757.9102,43.6693 L1755.8081,45.1086 L1754.2654,47.1232 L1752.1466,48.5454 L1750.5,50.4531 L1750.4958,50.423 L1748.7453,51.0296 L1746.897,50.9317 L1745.1064,51.2495 L1743.3207,51.6022 L1741.5,51.7031 L1741.5,51.7031 L1741.5254,51.8864 L1739.6998,51.4514 L1737.9176,51.3296 L1736.065,50.7011 L1734.3174,50.8283 L1732.5,50.4531 L1732.6698,50.6278 L1730.8377,48.8448 L1729.0899,47.1485 L1726.9503,45.0492 L1725.0979,43.2453 L1723.5,41.7031 L1722.9476,41.7031 L1723.4477,36.5031 L1723.3253,31.3031 L1724.1057,26.1031 L1723.3447,20.9031 L1723.5,15.7031 " fill="#F8F8F8" style="stroke:#000000;stroke-width:1.5;"/><path d="M1723.5,15.7031 L1723.5,15.7031 L1723.5651,15.7701 L1725.1716,17.3211 L1727.1599,19.2647 L1729.0238,21.0805 L1730.479,22.4758 L1732.5,24.4531 L1732.4952,24.4189 L1734.2739,24.5154 L1736.0766,24.7843 L1737.8958,25.1731 L1739.6577,25.1488 L1741.5,25.7031 L1741.5,25.7031 L1741.5339,25.9468 L1743.2615,25.1757 L1745.0879,25.1161 L1746.9264,25.1433 L1748.6948,24.6654 L1750.5,24.4531 L1750.5211,24.4749 L1752.2901,22.6929 L1754.1553,21.01 L1755.9741,19.2793 L1757.8815,17.6398 L1759.5,15.7031 " fill="none" style="stroke:#000000;stroke-width:1.5;"/><text fill="#000000" font-family="FG Virgil" font-size="14" font-style="italic" lengthAdjust="spacing" textLength="90" x="1693.5" y="528.4873">«repository»</text><text fill="#000000" font-family="FG Virgil" font-size="14" lengthAdjust="spacing" textLength="167" x="1655" y="544.7842">ColaboradorRepository</text><path d="M1723.5,558.0859 L1723.5,558.0859 L1723.5651,558.1529 L1725.1716,556.2039 L1727.1599,554.6475 L1729.0238,552.9633 L1730.479,550.8586 L1732.5,549.3359 L1732.4952,549.3017 L1734.2739,548.8982 L1736.0766,548.6671 L1737.8958,548.5559 L1739.6577,548.0316 L1741.5,548.0859 L1741.5,548.0859 L1741.5339,548.3297 L1743.2615,548.0585 L1745.0879,548.4989 L1746.9264,549.0261 L1748.6948,549.0482 L1750.5,549.3359 L1750.5211,549.3577 L1752.2901,551.0758 L1754.1553,552.8928 L1755.9741,554.6621 L1757.8815,556.5226 L1759.5,558.0859 L1760.0965,558.0859 L1760.1038,563.2859 L1759.7263,568.4859 L1759.9121,573.6859 L1760.1242,578.8859 L1759.5,584.0859 L1759.5,584.0859 L1759.2766,583.8561 L1757.9102,586.0522 L1755.8081,587.4915 L1754.2654,589.506 L1752.1466,590.9282 L1750.5,592.8359 L1750.4958,592.8058 L1748.7453,593.4124 L1746.897,593.3145 L1745.1064,593.6323 L1743.3207,593.985 L1741.5,594.0859 L1741.5,594.0859 L1741.5254,594.2692 L1739.6998,593.8342 L1737.9176,593.7124 L1736.065,593.0839 L1734.3174,593.2111 L1732.5,592.8359 L1732.6698,593.0106 L1730.8377,591.2276 L1729.0899,589.5313 L1726.9503,587.432 L1725.0979,585.6281 L1723.5,584.0859 L1722.9476,584.0859 L1723.4477,578.8859 L1723.3253,573.6859 L1724.1057,568.4859 L1723.3447,563.2859 L1723.5,558.0859 " fill="#F8F8F8" style="stroke:#000000;stroke-width:1.5;"/><path d="M1723.5,558.0859 L1723.5,558.0859 L1723.5651,558.1529 L1725.1716,559.7039 L1727.1599,561.6475 L1729.0238,563.4633 L1730.479,564.8586 L1732.5,566.8359 L1732.4952,566.8017 L1734.2739,566.8982 L1736.0766,567.1671 L1737.8958,567.5559 L1739.6577,567.5316 L1741.5,568.0859 L1741.5,568.0859 L1741.5339,568.3297 L1743.2615,567.5585 L1745.0879,567.4989 L1746.9264,567.5261 L1748.6948,567.0482 L1750.5,566.8359 L1750.5211,566.8577 L1752.2901,565.0758 L1754.1553,563.3928 L1755.9741,561.6621 L1757.8815,560.0226 L1759.5,558.0859 " fill="none" style="stroke:#000000;stroke-width:1.5;"/><polygon fill="#FFFFFF" points="127.5,94.2969,127.5,94.3669,129.5,94.1588,131.5,94.3613,133.5,94.4301,135.5,94.0591,137.5,94.2969,137.4223,94.2969,137.0735,104.4018,137.1165,114.5066,137.4318,124.6115,136.8086,134.7164,138.0536,144.8213,136.8697,154.9262,137.3022,165.0311,137.9319,175.1359,137.4142,185.2408,137.5682,195.3457,137.4681,205.4506,137.6785,215.5555,137.7391,225.6604,138.0857,235.7652,138.1711,245.8701,138.1793,255.975,137.7546,266.0799,137.9636,276.1848,138.2022,286.2896,136.7788,296.3945,138.1785,306.4994,137.2035,316.6043,138.0338,326.7092,137.005,336.8141,137.4315,346.9189,138.2416,357.0238,137.4513,367.1287,137.6053,377.2336,137.8386,387.3385,137.9162,397.4434,137.4961,407.5482,137.7872,417.6531,136.9276,427.758,137.7844,437.8629,138.0482,447.9678,137.9445,458.0727,138.113,468.1775,137.0169,478.2824,136.8478,488.3873,137.5,498.4922,137.5,498.2851,135.5,498.4726,133.5,498.4267,131.5,498.7193,129.5,498.434,127.5,498.4922,127.1569,498.4922,127.7283,488.3873,126.8332,478.2824,126.9809,468.1775,128.149,458.0727,127.9357,447.9678,128.2345,437.8629,127.1782,427.758,127.8192,417.6531,128.0904,407.5482,127.0276,397.4434,127.4041,387.3385,127.626,377.2336,128.1518,367.1287,127.4958,357.0238,127.9626,346.9189,126.9462,336.8141,126.8227,326.7092,128.0036,316.6043,126.7831,306.4994,128.009,296.3945,127.7066,286.2896,127.2321,276.1848,127.1462,266.0799,127.9588,255.975,127.2007,245.8701,128.0919,235.7652,126.9473,225.6604,128.1174,215.5555,127.9843,205.4506,127.745,195.3457,127.5472,185.2408,128.2266,175.1359,128.1136,165.0311,127.6693,154.9262,127.7682,144.8213,127.3697,134.7164,128.2165,124.6115,127.6549,114.5066,127.6726,104.4018,127.5,94.2969" style="stroke:#383838;stroke-width:1.0;"/><polygon fill="#FFFFFF" points="362.5,115.4297,362.5,115.4997,364.5,115.2916,366.5,115.4941,368.5,115.5629,370.5,115.1919,372.5,115.4297,372.4223,115.4297,372.0735,125.5103,372.1165,135.5909,372.4318,145.6715,371.8086,155.7521,373.0536,165.8326,371.8697,175.9132,372.3022,185.9938,372.9319,196.0744,372.4142,206.155,372.5682,216.2356,372.4681,226.3162,372.6785,236.3968,372.7391,246.4774,373.0857,256.558,373.1711,266.6386,373.1793,276.7192,372.7546,286.7998,372.9636,296.8803,373.2022,306.9609,371.7788,317.0415,373.1785,327.1221,372.2035,337.2027,373.0338,347.2833,372.005,357.3639,372.4315,367.4445,373.2416,377.5251,372.4513,387.6057,372.6053,397.6863,372.8386,407.7669,372.9162,417.8475,372.4961,427.928,372.7872,438.0086,371.9276,448.0892,372.7844,458.1698,373.0482,468.2504,372.9445,478.331,373.113,488.4116,372.5,498.4922,372.5,498.3312,370.5,498.2748,368.5,498.2851,366.5,498.4726,364.5,498.4267,362.5,498.4922,363.1814,498.4922,362.3253,488.4116,362.1569,478.331,362.7283,468.2504,361.8332,458.1698,361.9809,448.0892,363.149,438.0086,362.9357,427.928,363.2345,417.8475,362.1782,407.7669,362.8192,397.6863,363.0904,387.6057,362.0276,377.5251,362.4041,367.4445,362.626,357.3639,363.1518,347.2833,362.4958,337.2027,362.9626,327.1221,361.9462,317.0415,361.8227,306.9609,363.0036,296.8803,361.7831,286.7998,363.009,276.7192,362.7066,266.6386,362.2321,256.558,362.1462,246.4774,362.9588,236.3968,362.2007,226.3162,363.0919,216.2356,361.9473,206.155,363.1174,196.0744,362.9843,185.9938,362.745,175.9132,362.5472,165.8326,363.2266,155.7521,363.1136,145.6715,362.6693,135.5909,362.7682,125.5103,362.5,115.4297" style="stroke:#383838;stroke-width:1.0;"/><polygon fill="#FFFFFF" points="597.5,144.5625,597.5,144.6326,599.5,144.4244,601.5,144.6269,603.5,144.6957,605.5,144.3247,607.5,144.5625,607.4223,144.5625,607.0735,154.6748,607.1165,164.7871,607.4318,174.8993,606.8086,185.0116,608.0536,195.1239,606.8697,205.2362,607.3022,215.3484,607.9319,225.4607,607.4142,235.573,607.5682,245.6853,607.4681,255.7975,607.6785,265.9098,607.7391,276.0221,608.0857,286.1344,608.1711,296.2467,608.1793,306.3589,607.7546,316.4712,607.9636,326.5835,608.2022,336.6958,606.7788,346.808,608.1785,356.9203,607.2035,367.0326,608.0338,377.1449,607.005,387.2571,607.4315,397.3694,608.2416,407.4817,607.4513,417.594,607.6053,427.7063,607.8386,437.8185,607.9162,447.9308,607.4961,458.0431,607.7872,468.1554,606.9276,478.2676,607.7844,488.3799,607.5,498.4922,607.5,498.6749,605.5,498.6404,603.5,498.6965,601.5,498.3312,599.5,498.2748,597.5,498.4922,596.8786,498.4922,597.4411,488.3799,597.3035,478.2676,598.1814,468.1554,597.3253,458.0431,597.1569,447.9308,597.7283,437.8185,596.8332,427.7063,596.9809,417.594,598.149,407.4817,597.9357,397.3694,598.2345,387.2571,597.1782,377.1449,597.8192,367.0326,598.0904,356.9203,597.0276,346.808,597.4041,336.6958,597.626,326.5835,598.1518,316.4712,597.4958,306.3589,597.9626,296.2467,596.9462,286.1344,596.8227,276.0221,598.0036,265.9098,596.7831,255.7975,598.009,245.6853,597.7066,235.573,597.2321,225.4607,597.1462,215.3484,597.9588,205.2362,597.2007,195.1239,598.0919,185.0116,596.9473,174.8993,598.1174,164.7871,597.9843,154.6748,597.5,144.5625" style="stroke:#383838;stroke-width:1.0;"/><polygon fill="#FFFFFF" points="826,173.6953,826,173.7654,828,173.5572,830,173.7597,832,173.8285,834,173.4575,836,173.6953,835.9741,173.6953,835.8578,179.6953,835.8722,185.6953,835.9773,191.6953,835.7695,197.6953,836,203.6953,836,203.8799,834,203.4852,832,203.6294,830,203.8393,828,203.6667,826,203.6953,826.0227,203.6953,825.9894,197.6953,826.0595,191.6953,826.0797,185.6953,826.1952,179.6953,826,173.6953" style="stroke:#383838;stroke-width:1.0;"/><polygon fill="#FFFFFF" points="1005.5,351.0938,1005.5,351.1638,1007.5,350.9556,1009.5,351.1582,1011.5,351.227,1013.5,350.856,1015.5,351.0938,1015.4223,351.0938,1015.0735,360.901,1015.1165,370.7083,1015.4318,380.5156,1014.8086,390.3229,1016.0536,400.1302,1014.8697,409.9375,1015.3022,419.7448,1015.9319,429.5521,1015.5,439.3594,1015.5,439.3308,1013.5,439.3821,1011.5,439.3487,1009.5,439.4189,1007.5,439.4391,1005.5,439.3594,1006.0857,439.3594,1006.1711,429.5521,1006.1793,419.7448,1005.7546,409.9375,1005.9636,400.1302,1006.2022,390.3229,1004.7788,380.5156,1006.1785,370.7083,1005.2035,360.901,1005.5,351.0938" style="stroke:#383838;stroke-width:1.0;"/><polygon fill="#FFFFFF" points="1167.5,380.2266,1167.5,380.2966,1169.5,380.0885,1171.5,380.291,1173.5,380.3598,1175.5,379.9888,1177.5,380.2266,1177.4223,380.2266,1177.0735,390.082,1177.1165,399.9375,1177.4318,409.793,1176.8086,419.6484,1178.0536,429.5039,1177.5,439.3594,1177.5,439.1493,1175.5,439.2935,1173.5,439.5034,1171.5,439.3308,1169.5,439.3821,1167.5,439.3594,1167.4681,439.3594,1167.6785,429.5039,1167.7391,419.6484,1168.0857,409.793,1168.1711,399.9375,1168.1793,390.082,1167.5,380.2266" style="stroke:#383838;stroke-width:1.0;"/><polygon fill="#FFFFFF" points="1302,291.9609,1302,292.031,1304,291.8228,1306,292.0254,1308,292.0942,1310,291.7231,1312,291.9609,1311.9741,291.9609,1311.8578,297.9609,1311.8722,303.9609,1311.9773,309.9609,1311.7695,315.9609,1312,321.9609,1312,322.1455,1310,321.7508,1308,321.895,1306,322.1049,1304,321.9323,1302,321.9609,1302.0227,321.9609,1301.9894,315.9609,1302.0595,309.9609,1302.0797,303.9609,1302.1952,297.9609,1302,291.9609" style="stroke:#383838;stroke-width:1.0;"/><polygon fill="#FFFFFF" points="1581,232.8281,1581,232.8982,1583,232.69,1585,232.8926,1587,232.9614,1589,232.5903,1591,232.8281,1590.9741,232.8281,1590.8578,238.8281,1590.8722,244.8281,1590.9773,250.8281,1590.7695,256.8281,1591,262.8281,1591,263.0127,1589,262.618,1587,262.7622,1585,262.9721,1583,262.7995,1581,262.8281,1581.0227,262.8281,1580.9894,256.8281,1581.0595,250.8281,1581.0797,244.8281,1581.1952,238.8281,1581,232.8281" style="stroke:#383838;stroke-width:1.0;"/><polygon fill="#FFFFFF" points="1736.5,409.3594,1736.5,409.4294,1738.5,409.2213,1740.5,409.4238,1742.5,409.4926,1744.5,409.1216,1746.5,409.3594,1746.4741,409.3594,1746.3578,415.3594,1746.3722,421.3594,1746.4773,427.3594,1746.2695,433.3594,1746.5,439.3594,1746.5,439.5439,1744.5,439.1493,1742.5,439.2935,1740.5,439.5034,1738.5,439.3308,1736.5,439.3594,1736.5227,439.3594,1736.4894,433.3594,1736.5595,427.3594,1736.5797,421.3594,1736.6952,415.3594,1736.5,409.3594" style="stroke:#383838;stroke-width:1.0;"/><polygon fill="#FFFFFF" points="1736.5,468.4922,1736.5,468.5622,1738.5,468.3541,1740.5,468.5566,1742.5,468.6254,1744.5,468.2544,1746.5,468.4922,1746.4741,468.4922,1746.3578,474.4922,1746.3722,480.4922,1746.4773,486.4922,1746.2695,492.4922,1746.5,498.4922,1746.5,498.6767,1744.5,498.2821,1742.5,498.4263,1740.5,498.6362,1738.5,498.4636,1736.5,498.4922,1736.5227,498.4922,1736.4894,492.4922,1736.5595,486.4922,1736.5797,480.4922,1736.6952,474.4922,1736.5,468.4922" style="stroke:#383838;stroke-width:1.0;"/><polygon fill="#383838" points="350.5,111.4297,350.526,111.4947,352.4487,112.1015,354.5239,113.0895,356.5495,113.9534,358.4117,114.4089,360.5,115.4297,360.4904,115.4056,358.4472,116.0977,356.4525,116.911,354.4916,117.8086,352.4144,118.4157,350.5,119.4297,350.6305,119.5602,351.1514,118.4811,352.0534,117.7831,353.0018,117.1315,353.6798,116.2095,354.5,115.4297,354.5161,115.4458,353.6925,114.6222,352.9421,113.8718,352.1564,113.0861,351.438,112.3677,350.5,111.4297" style="stroke:#383838;stroke-width:1.0;"/><path d="M137.5,115.4297 L137.5,115.7099 L147.4545,114.8773 L157.4091,115.6874 L167.3636,115.9626 L177.3182,114.4785 L187.2727,115.3261 L197.2273,114.861 L207.1818,114.9184 L217.1364,115.3388 L227.0909,114.5079 L237.0455,116.1679 L247,114.5893 L256.9545,115.166 L266.9091,116.0056 L276.8636,115.3153 L286.8182,115.5207 L296.7727,115.3871 L306.7273,115.6677 L316.6818,115.7485 L326.6364,116.2106 L336.5909,116.3244 L346.5455,116.3354 L356.5,115.4297 " fill="none" style="stroke:#383838;stroke-width:1.0;"/><text fill="#000000" font-family="FG Virgil" font-size="13" lengthAdjust="spacing" textLength="102" x="144.5" y="110.3638">Insere o ficheiro</text><polygon fill="#383838" points="585.5,140.5625,585.526,140.6275,587.4487,141.2343,589.5239,142.2223,591.5495,143.0862,593.4117,143.5417,595.5,144.5625,595.4904,144.5384,593.4472,145.2305,591.4525,146.0438,589.4916,146.9414,587.4144,147.5485,585.5,148.5625,585.6305,148.693,586.1514,147.6139,587.0534,146.9159,588.0018,146.2643,588.6798,145.3423,589.5,144.5625,589.5161,144.5786,588.6925,143.755,587.9421,143.0046,587.1564,142.2189,586.438,141.5005,585.5,140.5625" style="stroke:#383838;stroke-width:1.0;"/><path d="M372.5,144.5625 L372.5,144.8427 L382.4545,144.0101 L392.4091,144.8202 L402.3636,145.0954 L412.3182,143.6113 L422.2727,144.4589 L432.2273,143.9938 L442.1818,144.0512 L452.1364,144.4716 L462.0909,143.6407 L472.0455,145.3007 L482,143.7221 L491.9545,144.2988 L501.9091,145.1384 L511.8636,144.4481 L521.8182,144.6535 L531.7727,144.5199 L541.7273,144.8005 L551.6818,144.8813 L561.6364,145.3434 L571.5909,145.4572 L581.5455,145.4682 L591.5,144.5625 " fill="none" style="stroke:#383838;stroke-width:1.0;"/><text fill="#000000" font-family="FG Virgil" font-size="13" lengthAdjust="spacing" textLength="41" x="379.5" y="139.4966">create</text><polygon fill="#383838" points="814,169.6953,814.026,169.7604,815.9487,170.3671,818.0239,171.3551,820.0495,172.219,821.9117,172.6745,824,173.6953,823.9904,173.6713,821.9472,174.3633,819.9525,175.1766,817.9916,176.0742,815.9144,176.6813,814,177.6953,814.1305,177.8258,814.6514,176.7468,815.5534,176.0487,816.5018,175.3971,817.1798,174.4751,818,173.6953,818.0161,173.7114,817.1925,172.8878,816.4421,172.1374,815.6564,171.3517,814.938,170.6334,814,169.6953" style="stroke:#383838;stroke-width:1.0;"/><path d="M607.5,173.6953 L607.5,173.9756 L617.619,173.1429 L627.7381,173.953 L637.8571,174.2282 L647.9762,172.7441 L658.0952,173.5917 L668.2143,173.1267 L678.3333,173.184 L688.4524,173.6044 L698.5714,172.7735 L708.6905,174.4335 L718.8095,172.8549 L728.9286,173.4316 L739.0476,174.2712 L749.1667,173.5809 L759.2857,173.7863 L769.4048,173.6527 L779.5238,173.9333 L789.6429,174.0142 L799.7619,174.4762 L809.881,174.5901 L820,173.6953 " fill="none" style="stroke:#383838;stroke-width:1.0;"/><text fill="#000000" font-family="FG Virgil" font-size="13" lengthAdjust="spacing" textLength="67" x="614.5" y="168.6294">lerDados()</text><polygon fill="#383838" points="1569,228.8281,1569.026,228.8932,1570.9487,229.4999,1573.0239,230.4879,1575.0495,231.3518,1576.9117,231.8073,1579,232.8281,1578.9904,232.8041,1576.9472,233.4961,1574.9525,234.3094,1572.9916,235.207,1570.9144,235.8142,1569,236.8281,1569.1305,236.9586,1569.6514,235.8796,1570.5534,235.1815,1571.5018,234.5299,1572.1798,233.6079,1573,232.8281,1573.0161,232.8442,1572.1925,232.0206,1571.4421,231.2702,1570.6564,230.4845,1569.938,229.7662,1569,228.8281" style="stroke:#383838;stroke-width:1.0;"/><path d="M607.5,232.8281 L607.5,233.1084 L617.4742,232.2757 L627.4485,233.0858 L637.4227,233.361 L647.3969,231.8769 L657.3711,232.7245 L667.3454,232.2595 L677.3196,232.3168 L687.2938,232.7372 L697.268,231.9063 L707.2423,233.5663 L717.2165,231.9878 L727.1907,232.5644 L737.1649,233.4041 L747.1392,232.7138 L757.1134,232.9191 L767.0876,232.7855 L777.0619,233.0662 L787.0361,233.147 L797.0103,233.609 L806.9845,233.7229 L816.9588,233.7338 L826.933,233.1676 L836.9072,233.4462 L846.8814,233.7644 L856.8557,231.8665 L866.8299,233.7328 L876.8041,232.4328 L886.7784,233.5399 L896.7526,232.1681 L906.7268,232.7368 L916.701,233.8169 L926.6753,232.7631 L936.6495,232.9685 L946.6237,233.2796 L956.5979,233.3831 L966.5722,232.8229 L976.5464,233.2111 L986.5206,232.0649 L996.4948,233.2073 L1006.4691,233.5591 L1016.4433,233.4208 L1026.4175,233.6455 L1036.3918,232.184 L1046.366,231.9585 L1056.3402,231.9996 L1066.3144,232.7496 L1076.2887,232.5661 L1086.2629,233.7367 L1096.2371,232.5952 L1106.2113,232.3707 L1116.1856,233.1325 L1126.1598,231.939 L1136.134,232.136 L1146.1082,233.6934 L1156.0825,233.409 L1166.0567,233.8074 L1176.0309,232.3991 L1186.0052,233.2537 L1195.9794,233.6154 L1205.9536,232.1983 L1215.9278,232.7003 L1225.9021,232.9961 L1235.8763,233.6971 L1245.8505,232.8225 L1255.8247,233.4449 L1265.799,232.0897 L1275.7732,231.9251 L1285.7474,233.4996 L1295.7216,231.8722 L1305.6959,233.5067 L1315.6701,233.1036 L1325.6443,232.4709 L1335.6186,232.3564 L1345.5928,233.4398 L1355.567,232.429 L1365.5412,233.6173 L1375.5155,232.0911 L1385.4897,233.6514 L1395.4639,233.4739 L1405.4381,233.1547 L1415.4124,232.8911 L1425.3866,233.7969 L1435.3608,233.6462 L1445.3351,233.0538 L1455.3093,233.1857 L1465.2835,232.6544 L1475.2577,233.7834 L1485.232,233.0346 L1495.2062,233.0582 L1505.1804,232.017 L1515.1546,232.2878 L1525.1289,233.5358 L1535.1031,233.4011 L1545.0773,232.7709 L1555.0515,232.3986 L1565.0258,232.5362 L1575,232.8281 " fill="none" style="stroke:#383838;stroke-width:1.0;"/><text fill="#000000" font-family="FG Virgil" font-size="13" lengthAdjust="spacing" textLength="434" x="614.5" y="227.7622">addUser(username, password, firstName, lastName, endereco, set)</text><polygon fill="#383838" points="1290,287.9609,1290.026,288.026,1291.9487,288.6327,1294.0239,289.6208,1296.0495,290.4846,1297.9117,290.9401,1300,291.9609,1299.9904,291.9369,1297.9472,292.6289,1295.9525,293.4422,1293.9916,294.3398,1291.9144,294.947,1290,295.9609,1290.1305,296.0914,1290.6514,295.0124,1291.5534,294.3143,1292.5018,293.6627,1293.1798,292.7407,1294,291.9609,1294.0161,291.977,1293.1925,291.1534,1292.4421,290.403,1291.6564,289.6173,1290.938,288.899,1290,287.9609" style="stroke:#383838;stroke-width:1.0;"/><path d="M607.5,291.9609 L607.5,292.2412 L617.4783,291.4085 L627.4565,292.2187 L637.4348,292.4938 L647.413,291.0097 L657.3913,291.8573 L667.3696,291.3923 L677.3478,291.4496 L687.3261,291.8701 L697.3043,291.0391 L707.2826,292.6991 L717.2609,291.1206 L727.2391,291.6972 L737.2174,292.5369 L747.1957,291.8466 L757.1739,292.0519 L767.1522,291.9183 L777.1304,292.199 L787.1087,292.2798 L797.087,292.7419 L807.0652,292.8557 L817.0435,292.8666 L827.0217,292.3004 L837,292.5791 L846.9783,292.8972 L856.9565,290.9994 L866.9348,292.8656 L876.913,291.5656 L886.8913,292.6727 L896.8696,291.3009 L906.8478,291.8696 L916.8261,292.9497 L926.8043,291.896 L936.7826,292.1013 L946.7609,292.4124 L956.7391,292.5159 L966.7174,291.9557 L976.6957,292.3439 L986.6739,291.1977 L996.6522,292.3401 L1006.6304,292.6919 L1016.6087,292.5536 L1026.587,292.7783 L1036.5652,291.3168 L1046.5435,291.0914 L1056.5217,291.1324 L1066.5,291.8824 L1076.4783,291.6989 L1086.4565,292.8695 L1096.4348,291.728 L1106.413,291.5035 L1116.3913,292.2653 L1126.3696,291.0718 L1136.3478,291.2688 L1146.3261,292.8262 L1156.3043,292.5418 L1166.2826,292.9403 L1176.2609,291.5319 L1186.2391,292.3865 L1196.2174,292.7482 L1206.1957,291.3311 L1216.1739,291.8331 L1226.1522,292.1289 L1236.1304,292.83 L1246.1087,291.9553 L1256.087,292.5777 L1266.0652,291.2226 L1276.0435,291.0579 L1286.0217,292.6324 L1296,291.9609 " fill="none" style="stroke:#383838;stroke-width:1.0;"/><text fill="#000000" font-family="FG Virgil" font-size="13" lengthAdjust="spacing" textLength="171" x="614.5" y="286.895">colab = new Colaborador()</text><polygon fill="#383838" points="993.5,347.0938,993.526,347.1588,995.4487,347.7655,997.5239,348.7536,999.5495,349.6174,1001.4117,350.073,1003.5,351.0938,1003.4904,351.0697,1001.4472,351.7618,999.4525,352.5751,997.4916,353.4727,995.4144,354.0798,993.5,355.0938,993.6305,355.2242,994.1514,354.1452,995.0534,353.4471,996.0018,352.7956,996.6798,351.8735,997.5,351.0938,997.5161,351.1098,996.6925,350.2862,995.9421,349.5358,995.1564,348.7501,994.438,348.0318,993.5,347.0938" style="stroke:#383838;stroke-width:1.0;"/><path d="M607.5,351.0938 L607.5,351.374 L617.5513,350.5413 L627.6026,351.3515 L637.6538,351.6267 L647.7051,350.1426 L657.7564,350.9901 L667.8077,350.5251 L677.859,350.5824 L687.9103,351.0029 L697.9615,350.1719 L708.0128,351.8319 L718.0641,350.2534 L728.1154,350.8301 L738.1667,351.6697 L748.2179,350.9794 L758.2692,351.1847 L768.3205,351.0512 L778.3718,351.3318 L788.4231,351.4126 L798.4744,351.8747 L808.5256,351.9885 L818.5769,351.9994 L828.6282,351.4333 L838.6795,351.7119 L848.7308,352.0301 L858.7821,350.1322 L868.8333,351.9984 L878.8846,350.6984 L888.9359,351.8055 L898.9872,350.4337 L909.0385,351.0024 L919.0897,352.0826 L929.141,351.0288 L939.1923,351.2342 L949.2436,351.5453 L959.2949,351.6487 L969.3462,351.0885 L979.3974,351.4767 L989.4487,350.3305 L999.5,351.0938 " fill="none" style="stroke:#383838;stroke-width:1.0;"/><text fill="#000000" font-family="FG Virgil" font-size="13" lengthAdjust="spacing" textLength="85" x="614.5" y="346.0278">repositories()</text><polygon fill="#383838" points="1155.5,376.2266,1155.526,376.2916,1157.4487,376.8983,1159.5239,377.8864,1161.5495,378.7503,1163.4117,379.2058,1165.5,380.2266,1165.4904,380.2025,1163.4472,380.8946,1161.4525,381.7079,1159.4916,382.6055,1157.4144,383.2126,1155.5,384.2266,1155.6305,384.3571,1156.1514,383.278,1157.0534,382.5799,1158.0018,381.9284,1158.6798,381.0063,1159.5,380.2266,1159.5161,380.2426,1158.6925,379.419,1157.9421,378.6686,1157.1564,377.8829,1156.438,377.1646,1155.5,376.2266" style="stroke:#383838;stroke-width:1.0;"/><path d="M1015.5,380.2266 L1015.5,380.5068 L1025.2333,379.6741 L1034.9667,380.4843 L1044.7,380.7595 L1054.4333,379.2754 L1064.1667,380.1229 L1073.9,379.6579 L1083.6333,379.7152 L1093.3667,380.1357 L1103.1,379.3047 L1112.8333,380.9648 L1122.5667,379.3862 L1132.3,379.9629 L1142.0333,380.8025 L1151.7667,380.1122 L1161.5,380.2266 " fill="none" style="stroke:#383838;stroke-width:1.0;"/><text fill="#000000" font-family="FG Virgil" font-size="13" lengthAdjust="spacing" textLength="41" x="1022.5" y="375.1606">create</text><polygon fill="#383838" points="1724.5,405.3594,1724.526,405.4244,1726.4487,406.0311,1728.5239,407.0192,1730.5495,407.8831,1732.4117,408.3386,1734.5,409.3594,1734.4904,409.3353,1732.4472,410.0274,1730.4525,410.8407,1728.4916,411.7383,1726.4144,412.3454,1724.5,413.3594,1724.6305,413.4899,1725.1514,412.4108,1726.0534,411.7128,1727.0018,411.0612,1727.6798,410.1392,1728.5,409.3594,1728.5161,409.3755,1727.6925,408.5518,1726.9421,407.8015,1726.1564,407.0157,1725.438,406.2974,1724.5,405.3594" style="stroke:#383838;stroke-width:1.0;"/><path d="M1177.5,409.3594 L1177.5,409.6396 L1187.5545,408.8069 L1197.6091,409.6171 L1207.6636,409.8923 L1217.7182,408.4082 L1227.7727,409.2558 L1237.8273,408.7907 L1247.8818,408.848 L1257.9364,409.2685 L1267.9909,408.4375 L1278.0455,410.0976 L1288.1,408.519 L1298.1545,409.0957 L1308.2091,409.9353 L1318.2636,409.245 L1328.3182,409.4504 L1338.3727,409.3168 L1348.4273,409.5974 L1358.4818,409.6782 L1368.5364,410.1403 L1378.5909,410.2541 L1388.6455,410.2651 L1398.7,409.6989 L1408.7545,409.9775 L1418.8091,410.2957 L1428.8636,408.3978 L1438.9182,410.2641 L1448.9727,408.964 L1459.0273,410.0711 L1469.0818,408.6993 L1479.1364,409.268 L1489.1909,410.3482 L1499.2455,409.2944 L1509.3,409.4998 L1519.3545,409.8109 L1529.4091,409.9144 L1539.4636,409.3542 L1549.5182,409.7423 L1559.5727,408.5962 L1569.6273,409.7386 L1579.6818,410.0903 L1589.7364,409.9521 L1599.7909,410.1767 L1609.8455,408.7153 L1619.9,408.4898 L1629.9545,408.5308 L1640.0091,409.2809 L1650.0636,409.0973 L1660.1182,410.2679 L1670.1727,409.1265 L1680.2273,408.902 L1690.2818,409.6637 L1700.3364,408.4703 L1710.3909,408.6672 L1720.4455,410.2246 L1730.5,409.3594 " fill="none" style="stroke:#383838;stroke-width:1.0;"/><text fill="#000000" font-family="FG Virgil" font-size="13" lengthAdjust="spacing" textLength="41" x="1184.5" y="404.2935">create</text><polygon fill="#383838" points="1724.5,464.4922,1724.526,464.5572,1726.4487,465.164,1728.5239,466.152,1730.5495,467.0159,1732.4117,467.4714,1734.5,468.4922,1734.4904,468.4681,1732.4472,469.1602,1730.4525,469.9735,1728.4916,470.8711,1726.4144,471.4782,1724.5,472.4922,1724.6305,472.6227,1725.1514,471.5436,1726.0534,470.8456,1727.0018,470.194,1727.6798,469.272,1728.5,468.4922,1728.5161,468.5083,1727.6925,467.6847,1726.9421,466.9343,1726.1564,466.1486,1725.438,465.4302,1724.5,464.4922" style="stroke:#383838;stroke-width:1.0;"/><path d="M607.5,468.4922 L607.5,468.7724 L617.5268,467.9398 L627.5536,468.7499 L637.5804,469.0251 L647.6071,467.541 L657.6339,468.3886 L667.6607,467.9235 L677.6875,467.9809 L687.7143,468.4013 L697.7411,467.5704 L707.7679,469.2304 L717.7946,467.6518 L727.8214,468.2285 L737.8482,469.0681 L747.875,468.3778 L757.9018,468.5832 L767.9286,468.4496 L777.9554,468.7302 L787.9821,468.811 L798.0089,469.2731 L808.0357,469.3869 L818.0625,469.3979 L828.0893,468.8317 L838.1161,469.1103 L848.1429,469.4285 L858.1696,467.5306 L868.1964,469.3969 L878.2232,468.0968 L888.25,469.2039 L898.2768,467.8322 L908.3036,468.4009 L918.3304,469.481 L928.3571,468.4272 L938.3839,468.6326 L948.4107,468.9437 L958.4375,469.0472 L968.4643,468.487 L978.4911,468.8751 L988.5179,467.729 L998.5446,468.8714 L1008.5714,469.2231 L1018.5982,469.0849 L1028.625,469.3096 L1038.6518,467.8481 L1048.6786,467.6226 L1058.7054,467.6637 L1068.7321,468.4137 L1078.7589,468.2301 L1088.7857,469.4007 L1098.8125,468.2593 L1108.8393,468.0348 L1118.8661,468.7965 L1128.8929,467.6031 L1138.9196,467.8 L1148.9464,469.3575 L1158.9732,469.0731 L1169,469.4715 L1179.0268,468.0631 L1189.0536,468.9178 L1199.0804,469.2794 L1209.1071,467.8623 L1219.1339,468.3644 L1229.1607,468.6602 L1239.1875,469.3612 L1249.2143,468.4866 L1259.2411,469.1089 L1269.2679,467.7538 L1279.2946,467.5892 L1289.3214,469.1637 L1299.3482,467.5363 L1309.375,469.1708 L1319.4018,468.7677 L1329.4286,468.135 L1339.4554,468.0205 L1349.4821,469.1039 L1359.5089,468.0931 L1369.5357,469.2813 L1379.5625,467.7552 L1389.5893,469.3154 L1399.6161,469.1379 L1409.6429,468.8188 L1419.6696,468.5551 L1429.6964,469.461 L1439.7232,469.3103 L1449.75,468.7179 L1459.7768,468.8498 L1469.8036,468.3185 L1479.8304,469.4475 L1489.8571,468.6987 L1499.8839,468.7223 L1509.9107,467.6811 L1519.9375,467.9519 L1529.9643,469.1999 L1539.9911,469.0652 L1550.0179,468.4349 L1560.0446,468.0626 L1570.0714,468.2003 L1580.0982,467.5773 L1590.125,469.0452 L1600.1518,469.4783 L1610.1786,469.194 L1620.2054,469.4188 L1630.2321,468.3099 L1640.2589,468.6085 L1650.2857,467.9754 L1660.3125,468.8709 L1670.3393,468.8212 L1680.3661,469.2287 L1690.3929,468.186 L1700.4196,468.313 L1710.4464,469.0835 L1720.4732,469.2486 L1730.5,468.4922 " fill="none" style="stroke:#383838;stroke-width:1.0;"/><text fill="#000000" font-family="FG Virgil" font-size="13" lengthAdjust="spacing" textLength="75" x="614.5" y="463.4263">save(colab)</text><!--MD5=[fff88287ccd3457002ad6d39bee52dd4]
@startuml
'http://plantuml.com/skinparam.html
skinparam handwritten true
skinparam monochrome true
skinparam packageStyle rect
skinparam defaultFontName FG Virgil
skinparam shadowing false

Actor "Responsavel de Recursos Humanos" as Actor
participant LerFicheiroColaboradorUI as UI <<presentation>>
participant LerFicheiroColaboradorController as Controller <<application>>
participant LerFicheiroColaborador as LerFicheiroColaborador <<utils>>
participant PersistenceContext as Persistence <<persistence>>
participant RepositoryFactory as Factory <<factory>>
participant Colaborador as Colaborador <<Domain>>
participant SystemUserBuilder as SystemUserBuilder <<Domain>>
participant UserController as UserController <<Domain>>
database ColaboradorRepository as CRepository <<repository>>


activate Actor
      Actor -> UI: Insere o ficheiro
    activate UI
      UI -> Controller: create
    activate Controller
      Controller -> LerFicheiroColaborador: lerDados()
    activate LerFicheiroColaborador
    deactivate
      Controller -> UserController: addUser(username, password, firstName, lastName, endereco, set)
    activate UserController
    deactivate UserController
      Controller -> Colaborador: colab = new Colaborador()
    activate Colaborador
    deactivate Colaborador
      Controller -> Persistence: repositories()
    activate Persistence
      Persistence -> Factory: create
    activate Factory
      Factory -> CRepository: create
    activate CRepository
    deactivate CRepository
    deactivate Factory
    deactivate Persistence
      Controller -> CRepository: save(colab)
    activate CRepository
    deactivate CRepository
    deactivate LerFicheiroColaborador
    deactivate Controller
    deactivate UI

deactivate Actor
@enduml

@startuml
skinparam handwritten true
skinparam monochrome true
skinparam packageStyle rect
skinparam defaultFontName FG Virgil
skinparam shadowing false

Actor "Responsavel de Recursos Humanos" as Actor
participant LerFicheiroColaboradorUI as UI <<presentation>>
participant LerFicheiroColaboradorController as Controller <<application>>
participant LerFicheiroColaborador as LerFicheiroColaborador <<utils>>
participant PersistenceContext as Persistence <<persistence>>
participant RepositoryFactory as Factory <<factory>>
participant Colaborador as Colaborador <<Domain>>
participant SystemUserBuilder as SystemUserBuilder <<Domain>>
participant UserController as UserController <<Domain>>
database ColaboradorRepository as CRepository <<repository>>


activate Actor
      Actor -> UI: Insere o ficheiro
    activate UI
      UI -> Controller: create
    activate Controller
      Controller -> LerFicheiroColaborador: lerDados()
    activate LerFicheiroColaborador
    deactivate
      Controller -> UserController: addUser(username, password, firstName, lastName, endereco, set)
    activate UserController
    deactivate UserController
      Controller -> Colaborador: colab = new Colaborador()
    activate Colaborador
    deactivate Colaborador
      Controller -> Persistence: repositories()
    activate Persistence
      Persistence -> Factory: create
    activate Factory
      Factory -> CRepository: create
    activate CRepository
    deactivate CRepository
    deactivate Factory
    deactivate Persistence
      Controller -> CRepository: save(colab)
    activate CRepository
    deactivate CRepository
    deactivate LerFicheiroColaborador
    deactivate Controller
    deactivate UI

deactivate Actor
@enduml

PlantUML version 1.2021.6beta6(Unknown compile time)
(GPL source distribution)
Java Runtime: Java(TM) SE Runtime Environment
JVM: Java HotSpot(TM) 64-Bit Server VM
Default Encoding: UTF-8
Language: en
Country: US
--></g></svg>