<?xml version="1.0" encoding="UTF-8" standalone="no"?><svg xmlns="http://www.w3.org/2000/svg" xmlns:xlink="http://www.w3.org/1999/xlink" contentScriptType="application/ecmascript" contentStyleType="text/css" height="708px" preserveAspectRatio="none" style="width:1227px;height:708px;background:#FFFFFF;" version="1.1" viewBox="0 0 1227 708" width="1227px" zoomAndPan="magnify"><defs><filter height="300%" id="f5ay4l3svn4r4" width="300%" x="-1" y="-1"><feGaussianBlur result="blurOut" stdDeviation="2.0"/><feColorMatrix in="blurOut" result="blurOut2" type="matrix" values="0 0 0 0 0 0 0 0 0 0 0 0 0 0 0 0 0 0 .4 0"/><feOffset dx="4.0" dy="4.0" in="blurOut2" result="blurOut3"/><feBlend in="SourceGraphic" in2="blurOut3" mode="normal"/></filter></defs><g><ellipse cx="1011.5" cy="16" fill="#000000" filter="url(#f5ay4l3svn4r4)" rx="10" ry="10" style="stroke:none;stroke-width:1.0;"/><g id="MotorDaemon"><rect fill="#F8F8F8" filter="url(#f5ay4l3svn4r4)" height="50" rx="12.5" ry="12.5" style="stroke:#383838;stroke-width:1.5;" width="123" x="950" y="103"/><line style="stroke:#383838;stroke-width:1.5;" x1="950" x2="1073" y1="129.2969" y2="129.2969"/><text fill="#000000" font-family="sans-serif" font-size="14" lengthAdjust="spacing" textLength="103" x="960" y="120.9951">MotorDaemon</text></g><g id="MotorServer"><rect fill="#F8F8F8" filter="url(#f5ay4l3svn4r4)" height="50" rx="12.5" ry="12.5" style="stroke:#383838;stroke-width:1.5;" width="110" x="956.5" y="230"/><line style="stroke:#383838;stroke-width:1.5;" x1="956.5" x2="1066.5" y1="256.2969" y2="256.2969"/><text fill="#000000" font-family="sans-serif" font-size="14" lengthAdjust="spacing" textLength="90" x="966.5" y="247.9951">MotorServer</text></g><g id="ServerSocket"><rect fill="#F8F8F8" filter="url(#f5ay4l3svn4r4)" height="50" rx="12.5" ry="12.5" style="stroke:#383838;stroke-width:1.5;" width="118" x="952.5" y="357"/><line style="stroke:#383838;stroke-width:1.5;" x1="952.5" x2="1070.5" y1="383.2969" y2="383.2969"/><text fill="#000000" font-family="sans-serif" font-size="14" lengthAdjust="spacing" textLength="98" x="962.5" y="374.9951">ServerSocket</text></g><ellipse cx="1052.5" cy="669" filter="url(#f5ay4l3svn4r4)" rx="10" ry="10" style="stroke:#000000;stroke-width:1.0;fill:none;"/><ellipse cx="1053" cy="669.5" fill="#000000" rx="6" ry="6" style="stroke:none;stroke-width:1.0;"/><g id="ClientHandler"><rect fill="#F8F8F8" filter="url(#f5ay4l3svn4r4)" height="50" rx="12.5" ry="12.5" style="stroke:#383838;stroke-width:1.5;" width="118" x="764.5" y="357"/><line style="stroke:#383838;stroke-width:1.5;" x1="764.5" x2="882.5" y1="383.2969" y2="383.2969"/><text fill="#000000" font-family="sans-serif" font-size="14" lengthAdjust="spacing" textLength="98" x="774.5" y="374.9951">ClientHandler</text></g><g id="AplicacoesMessageParser"><rect fill="#F8F8F8" filter="url(#f5ay4l3svn4r4)" height="50" rx="12.5" ry="12.5" style="stroke:#383838;stroke-width:1.5;" width="203" x="505" y="517"/><line style="stroke:#383838;stroke-width:1.5;" x1="505" x2="708" y1="543.2969" y2="543.2969"/><text fill="#000000" font-family="sans-serif" font-size="14" lengthAdjust="spacing" textLength="183" x="515" y="534.9951">AplicacoesMessageParser</text></g><g id="NumeroTarefasPendentesRequest"><rect fill="#F8F8F8" filter="url(#f5ay4l3svn4r4)" height="50" rx="12.5" ry="12.5" style="stroke:#383838;stroke-width:1.5;" width="265" x="7" y="644"/><line style="stroke:#383838;stroke-width:1.5;" x1="7" x2="272" y1="670.2969" y2="670.2969"/><text fill="#000000" font-family="sans-serif" font-size="14" lengthAdjust="spacing" textLength="245" x="17" y="661.9951">NumeroTarefasPendentesRequest</text></g><g id="EstadoFluxoRequest"><rect fill="#F8F8F8" filter="url(#f5ay4l3svn4r4)" height="50" rx="12.5" ry="12.5" style="stroke:#383838;stroke-width:1.5;" width="165" x="495" y="644"/><line style="stroke:#383838;stroke-width:1.5;" x1="495" x2="660" y1="670.2969" y2="670.2969"/><text fill="#000000" font-family="sans-serif" font-size="14" lengthAdjust="spacing" textLength="145" x="505" y="661.9951">EstadoFluxoRequest</text></g><g id="TcpChatCliConn"><rect fill="#F8F8F8" filter="url(#f5ay4l3svn4r4)" height="50" rx="12.5" ry="12.5" style="stroke:#383838;stroke-width:1.5;" width="136" x="890.5" y="437"/><line style="stroke:#383838;stroke-width:1.5;" x1="890.5" x2="1026.5" y1="463.2969" y2="463.2969"/><text fill="#000000" font-family="sans-serif" font-size="14" lengthAdjust="spacing" textLength="116" x="900.5" y="454.9951">TcpChatCliConn</text></g><!--MD5=[0b71467bb7b72859fc421662ae57f6b9]
link *start to MotorDaemon--><path d="M1011.5,26.002 C1011.5,41.458 1011.5,73.685 1011.5,97.6 " fill="none" id="*start-to-MotorDaemon" style="stroke:#383838;stroke-width:1.0;"/><polygon fill="#383838" points="1011.5,102.873,1015.5,93.873,1011.5,97.873,1007.5,93.873,1011.5,102.873" style="stroke:#383838;stroke-width:1.0;"/><text fill="#000000" font-family="sans-serif" font-size="13" lengthAdjust="spacing" textLength="140" x="1012.5" y="69.0669">encontra novo pedido</text><!--MD5=[f1b631f160d645850b0cd8ed1b9e54c2]
link MotorDaemon to MotorServer--><path d="M1011.5,153.101 C1011.5,173.593 1011.5,203.076 1011.5,224.884 " fill="none" id="MotorDaemon-to-MotorServer" style="stroke:#383838;stroke-width:1.0;"/><polygon fill="#383838" points="1011.5,229.973,1015.5,220.973,1011.5,224.973,1007.5,220.973,1011.5,229.973" style="stroke:#383838;stroke-width:1.0;"/><text fill="#000000" font-family="sans-serif" font-size="13" lengthAdjust="spacing" textLength="41" x="1012.5" y="196.0669">create</text><!--MD5=[925fbe16f4cb514520d2a07a7c50e8fb]
link MotorServer to ServerSocket--><path d="M1011.5,280.101 C1011.5,300.593 1011.5,330.076 1011.5,351.884 " fill="none" id="MotorServer-to-ServerSocket" style="stroke:#383838;stroke-width:1.0;"/><polygon fill="#383838" points="1011.5,356.973,1015.5,347.973,1011.5,351.973,1007.5,347.973,1011.5,356.973" style="stroke:#383838;stroke-width:1.0;"/><text fill="#000000" font-family="sans-serif" font-size="13" lengthAdjust="spacing" textLength="68" x="1012.5" y="323.0669">port valida</text><!--MD5=[dc9f0e21f479bc7797bd14662330e128]
link MotorServer to *end--><path d="M1061.53,280.062 C1072.73,287.958 1083.16,297.891 1089.5,310 C1152.86,430.931 1081.11,606.2223 1058.73,654.9872 " fill="none" id="MotorServer-to-*end" style="stroke:#383838;stroke-width:1.0;"/><polygon fill="#383838" points="1056.61,659.5564,1064.0341,653.0847,1058.7198,655.0233,1056.7812,649.709,1056.61,659.5564" style="stroke:#383838;stroke-width:1.0;"/><text fill="#000000" font-family="sans-serif" font-size="13" lengthAdjust="spacing" textLength="104" x="1115.5" y="466.5669">porta nao valida</text><!--MD5=[a380fc0b7389c5177f80728c9055a9df]
link MotorServer to ClientHandler--><path d="M956.441,263.856 C923.725,271.026 883.324,284.579 855.5,310 C843.304,321.143 835.46,337.824 830.592,352.217 " fill="none" id="MotorServer-to-ClientHandler" style="stroke:#383838;stroke-width:1.0;"/><polygon fill="#383838" points="829.053,356.999,835.6172,349.6566,830.5843,352.2393,828.0016,347.2064,829.053,356.999" style="stroke:#383838;stroke-width:1.0;"/><text fill="#000000" font-family="sans-serif" font-size="13" lengthAdjust="spacing" textLength="146" x="856.5" y="323.0669">aceita um novo cliente</text><!--MD5=[1e0eee5457c8711f05543c819ee0fb4a]
link ClientHandler to AplicacoesMessageParser--><path d="M783.081,407.104 C768.487,416.139 752.035,426.714 737.5,437 C702.85,461.521 665.058,491.948 639.01,513.541 " fill="none" id="ClientHandler-to-AplicacoesMessageParser" style="stroke:#383838;stroke-width:1.0;"/><polygon fill="#383838" points="634.932,516.929,644.4115,514.2572,638.7788,513.735,639.3011,508.1023,634.932,516.929" style="stroke:#383838;stroke-width:1.0;"/><text fill="#000000" font-family="sans-serif" font-size="13" lengthAdjust="spacing" textLength="133" x="738.5" y="466.5669">parse da mensagem</text><!--MD5=[3d8c4157146a9eb2af0a8530f3906cc2]
link AplicacoesMessageParser to NumeroTarefasPendentesRequest--><path d="M504.811,543.607 C391.491,546.295 217.458,557.061 166.5,597 C153.631,607.0862 146.894,624.0564 143.368,638.8767 " fill="none" id="AplicacoesMessageParser-to-NumeroTarefasPendentesRequest" style="stroke:#383838;stroke-width:1.0;"/><polygon fill="#383838" points="142.291,643.8073,148.1194,635.8682,143.358,638.9225,140.3037,634.161,142.291,643.8073" style="stroke:#383838;stroke-width:1.0;"/><text fill="#000000" font-family="sans-serif" font-size="13" lengthAdjust="spacing" textLength="396" x="167.5" y="610.0669">codigo equivalente a pedido de numero de tarefas pendentes</text><!--MD5=[1b3de343c8aec48d465ff70220a24a25]
link AplicacoesMessageParser to EstadoFluxoRequest--><path d="M588.542,567.01 C582.893,575.951 577.38,586.49 574.5,597 C570.815,610.4455 570.968,625.8548 572.288,638.8744 " fill="none" id="AplicacoesMessageParser-to-EstadoFluxoRequest" style="stroke:#383838;stroke-width:1.0;"/><polygon fill="#383838" points="572.87,643.9227,575.8139,634.5241,572.2979,638.9555,567.8664,635.4395,572.87,643.9227" style="stroke:#383838;stroke-width:1.0;"/><text fill="#000000" font-family="sans-serif" font-size="13" lengthAdjust="spacing" textLength="304" x="575.5" y="610.0669">codigo equivalente a pedido de estado do fluxo</text><!--MD5=[159a44b693ddc5aa5360bfbddd329a6c]
link AplicacoesMessageParser to *end--><path d="M708.085,556.498 C761.418,565.137 827.38,578.292 884.5,597 C901.315,602.5075 904.306,606.8699 920.5,614 C963.235,632.8159 1014.64,653.2142 1038.75,662.6526 " fill="none" id="AplicacoesMessageParser-to-*end" style="stroke:#383838;stroke-width:1.0;"/><polygon fill="#383838" points="1043.47,664.4958,1036.5544,657.4833,1038.8159,662.6685,1033.6307,664.9299,1043.47,664.4958" style="stroke:#383838;stroke-width:1.0;"/><text fill="#000000" font-family="sans-serif" font-size="13" lengthAdjust="spacing" textLength="104" x="921.5" y="610.0669">codigo diferente</text><!--MD5=[cae80414c814102cc049283b84f2b8f0]
link ClientHandler to TcpChatCliConn--><path d="M865.106,407.039 C879.991,415.639 896.855,425.383 912.118,434.201 " fill="none" id="ClientHandler-to-TcpChatCliConn" style="stroke:#383838;stroke-width:1.0;"/><polygon fill="#383838" points="916.799,436.906,911.0068,428.9404,912.4695,434.4049,907.005,435.8676,916.799,436.906" style="stroke:#383838;stroke-width:1.0;"/><!--MD5=[06d886a753a952d47e9573463f639363]
link TcpChatCliConn to *end--><path d="M973.228,487.002 C988.921,513.295 1013.76,557.053 1030.5,597 C1038.58,616.2926 1045.25,639.6188 1049.05,654.136 " fill="none" id="TcpChatCliConn-to-*end" style="stroke:#383838;stroke-width:1.0;"/><polygon fill="#383838" points="1050.32,659.0621,1051.9486,649.3488,1049.0728,654.2201,1044.2015,651.3443,1050.32,659.0621" style="stroke:#383838;stroke-width:1.0;"/><!--MD5=[c8377317d1c1be73cba0e171ac35d261]
@startuml
'scale 350 width
skinparam monochrome true

[*] - -> MotorDaemon : encontra novo pedido

MotorDaemon - -> MotorServer : create
MotorServer - -> ServerSocket : port valida
MotorServer - -> [*] : porta nao valida
MotorServer - -> ClientHandler : aceita um novo cliente
ClientHandler - -> AplicacoesMessageParser : parse da mensagem
AplicacoesMessageParser - -> NumeroTarefasPendentesRequest : codigo equivalente a pedido de numero de tarefas pendentes
AplicacoesMessageParser - -> EstadoFluxoRequest : codigo equivalente a pedido de estado do fluxo
AplicacoesMessageParser - -> [*] : codigo diferente
ClientHandler -> TcpChatCliConn : envia mensagem que acabou a execucao
TcpChatCliConn - -> [*]
@enduml

@startuml
skinparam monochrome true

[*] - -> MotorDaemon : encontra novo pedido

MotorDaemon - -> MotorServer : create
MotorServer - -> ServerSocket : port valida
MotorServer - -> [*] : porta nao valida
MotorServer - -> ClientHandler : aceita um novo cliente
ClientHandler - -> AplicacoesMessageParser : parse da mensagem
AplicacoesMessageParser - -> NumeroTarefasPendentesRequest : codigo equivalente a pedido de numero de tarefas pendentes
AplicacoesMessageParser - -> EstadoFluxoRequest : codigo equivalente a pedido de estado do fluxo
AplicacoesMessageParser - -> [*] : codigo diferente
ClientHandler -> TcpChatCliConn : envia mensagem que acabou a execucao
TcpChatCliConn - -> [*]
@enduml

PlantUML version 1.2021.7(Sun May 23 12:40:07 UTC 2021)
(GPL source distribution)
Java Runtime: Java(TM) SE Runtime Environment
JVM: Java HotSpot(TM) 64-Bit Server VM
Default Encoding: UTF-8
Language: en
Country: US
--></g></svg>