<?xml version="1.0" encoding="UTF-8" standalone="no"?><svg xmlns="http://www.w3.org/2000/svg" xmlns:xlink="http://www.w3.org/1999/xlink" contentScriptType="application/ecmascript" contentStyleType="text/css" height="613px" preserveAspectRatio="none" style="width:379px;height:613px;background:#FFFFFF;" version="1.1" viewBox="0 0 379 613" width="379px" zoomAndPan="magnify"><defs/><g><!--MD5=[afdac0f740b27b59a461bf6006ee1289]
class ConsultarTarefasUI--><polygon fill="#F8F8F8" points="82.5,7,82.5,7.2102,92.2895,6.5857,102.0789,7.1933,111.8684,7.3997,121.6579,6.2866,131.4474,6.9223,141.2368,6.5735,151.0263,6.6165,160.8158,6.9318,170.6053,6.3086,180.3947,7.5536,190.1842,6.3697,199.9737,6.8022,209.7632,7.4319,219.5526,6.9142,229.3421,7.0682,239.1316,6.9681,248.9211,7.1785,258.7105,7.2391,268.5,7,269.0857,7,269.1711,16.8301,269.1793,26.6602,268.7546,36.4902,268.9636,46.3203,269.2022,56.1504,267.7788,65.9805,269.1785,75.8105,268.2035,85.6406,269.0338,95.4707,268.005,105.3008,268.4315,115.1309,268.5,124.9609,268.5,125.7025,258.7105,124.9122,248.9211,125.0662,239.1316,125.2996,229.3421,125.3772,219.5526,124.957,209.7632,125.2482,199.9737,124.3885,190.1842,125.2453,180.3947,125.5091,170.6053,125.4055,160.8158,125.574,151.0263,124.4779,141.2368,124.3088,131.4474,124.3395,121.6579,124.9021,111.8684,124.7644,102.0789,125.6423,92.2895,124.7863,82.5,124.9609,82.1569,124.9609,82.7283,115.1309,81.8332,105.3008,81.9809,95.4707,83.149,85.6406,82.9357,75.8105,83.2345,65.9805,82.1782,56.1504,82.8192,46.3203,83.0904,36.4902,82.0276,26.6602,82.4041,16.8301,82.5,7" style="stroke:#383838;stroke-width:1.5;"/><polygon fill="#C2C2C2" points="127.0108,28.6444,125.3984,30.8475,123.4912,34.0745,120.7636,36.2491,117.8974,37.4384,115.612,37.5416,112.6747,36.0543,109.9032,35.0827,107.7995,33.1099,106.6961,30.8515,106.0417,29.0533,105.4006,26.7045,104.36,24.6832,105.1596,22.7098,105.8602,20.548,108.4893,18.8382,110.339,16.6198,112.6284,15.8832,115.3501,15.2488,118.8404,15.6257,120.7521,16.5273,122.9747,16.9359,125.6772,19.7047,126.6193,22.6277,127.0286,24.6221,126.565,27.9086" style="stroke:#383838;stroke-width:1.0;"/><path d="M118.2938,21.6406 C117.3563,21.2031 116.7625,21.0625 115.8875,21.0625 C113.2625,21.0625 111.2625,23.1406 111.2625,25.8594 L111.2625,26.9844 C111.2625,29.5625 113.3719,31.4531 116.2625,31.4531 C117.4813,31.4531 118.6375,31.1563 119.3875,30.6094 C119.9656,30.2031 120.2938,29.75 120.2938,29.3594 C120.2938,28.9063 119.9031,28.5156 119.4344,28.5156 C119.2156,28.5156 119.0125,28.5938 118.825,28.7813 C118.3719,29.2656 118.3719,29.2656 118.1844,29.3594 C117.7625,29.625 117.075,29.75 116.3094,29.75 C114.2625,29.75 112.9656,28.6563 112.9656,26.9531 L112.9656,25.8594 C112.9656,24.0781 114.2156,22.7656 115.95,22.7656 C116.5281,22.7656 117.1375,22.9219 117.6063,23.1719 C118.0906,23.4531 118.2625,23.6719 118.3563,24.0781 C118.4188,24.4844 118.45,24.6094 118.5906,24.7344 C118.7313,24.875 118.9656,24.9844 119.1844,24.9844 C119.45,24.9844 119.7156,24.8438 119.8875,24.625 C119.9969,24.4688 120.0281,24.2813 120.0281,23.8594 L120.0281,22.4375 C120.0281,22 120.0125,21.875 119.9188,21.7188 C119.7625,21.4531 119.4813,21.3125 119.1844,21.3125 C118.8875,21.3125 118.6844,21.4063 118.4656,21.7188 L118.2938,21.6406 Z " fill="#000000"/><text fill="#000000" font-family="FG Virgil" font-size="12" font-style="italic" lengthAdjust="spacing" textLength="90" x="145.55" y="23.1387">«presentation»</text><text fill="#000000" font-family="FG Virgil" font-size="12" lengthAdjust="spacing" textLength="113" x="134.05" y="37.1074">ConsultarTarefasUI</text><path d="M83.5,44.9375 L83.5,45.2177 L93.7222,44.3851 L103.9444,45.1952 L114.1667,45.4704 L124.3889,43.9863 L134.6111,44.8339 L144.8333,44.3688 L155.0556,44.4262 L165.2778,44.8466 L175.5,44.0157 L185.7222,45.6757 L195.9444,44.0971 L206.1667,44.6738 L216.3889,45.5134 L226.6111,44.8231 L236.8333,45.0285 L247.0556,44.8949 L257.2778,45.1755 L267.5,44.9375 " fill="#F8F8F8" style="stroke:#383838;stroke-width:1.5;"/><path d="M83.5,52.9375 L83.5,53.2177 L93.7222,52.3851 L103.9444,53.1952 L114.1667,53.4704 L124.3889,51.9863 L134.6111,52.8339 L144.8333,52.3688 L155.0556,52.4262 L165.2778,52.8466 L175.5,52.0157 L185.7222,53.6757 L195.9444,52.0971 L206.1667,52.6738 L216.3889,53.5134 L226.6111,52.8231 L236.8333,53.0285 L247.0556,52.8949 L257.2778,53.1755 L267.5,52.9375 " fill="#F8F8F8" style="stroke:#383838;stroke-width:1.5;"/><text fill="#000000" font-family="FG Virgil" font-size="11" lengthAdjust="spacing" textLength="53" x="88.5" y="67.1479">doShow()</text><text fill="#000000" font-family="FG Virgil" font-size="11" lengthAdjust="spacing" textLength="73" x="88.5" y="79.9526">listServicos()</text><text fill="#000000" font-family="FG Virgil" font-size="11" lengthAdjust="spacing" textLength="174" x="88.5" y="92.7573">tarefasPendentes(fluxo, colab)</text><text fill="#000000" font-family="FG Virgil" font-size="11" lengthAdjust="spacing" textLength="57" x="88.5" y="105.562">getFluxo()</text><text fill="#000000" font-family="FG Virgil" font-size="11" lengthAdjust="spacing" textLength="53" x="88.5" y="118.3667">getUser()</text><!--MD5=[d3c8e35004c6548e2936e691f162b2fb]
class ConsultarTarefasController--><polygon fill="#F8F8F8" points="79.5,185,79.5,185.2102,89.6053,184.5857,99.7105,185.1933,109.8158,185.3997,119.9211,184.2866,130.0263,184.9223,140.1316,184.5735,150.2368,184.6165,160.3421,184.9318,170.4474,184.3086,180.5526,185.5536,190.6579,184.3697,200.7632,184.8022,210.8684,185.4319,220.9737,184.9142,231.0789,185.0682,241.1842,184.9681,251.2895,185.1785,261.3947,185.2391,271.5,185,272.0857,185,272.1711,194.9434,272.1793,204.8867,271.7546,214.8301,271.9636,224.7734,272.2022,234.7168,270.7788,244.6602,272.1785,254.6035,271.5,264.5469,271.5,264.2504,261.3947,265.0807,251.2895,264.0519,241.1842,264.4784,231.0789,265.2885,220.9737,264.4981,210.8684,264.6522,200.7632,264.8855,190.6579,264.9631,180.5526,264.543,170.4474,264.8341,160.3421,263.9745,150.2368,264.8313,140.1316,265.0951,130.0263,264.9914,119.9211,265.1599,109.8158,264.0638,99.7105,263.8947,89.6053,263.9255,79.5,264.5469,79.4411,264.5469,79.3035,254.6035,80.1814,244.6602,79.3253,234.7168,79.1569,224.7734,79.7283,214.8301,78.8332,204.8867,78.9809,194.9434,79.5,185" style="stroke:#383838;stroke-width:1.5;"/><polygon fill="#C2C2C2" points="105.5608,206.6444,103.9484,208.8475,102.0412,212.0745,99.3136,214.2491,96.4474,215.4384,94.162,215.5416,91.2247,214.0543,88.4532,213.0827,86.3495,211.1099,85.2461,208.8515,84.5917,207.0533,83.9506,204.7045,82.91,202.6832,83.7096,200.7098,84.4102,198.548,87.0393,196.8382,88.889,194.6198,91.1784,193.8832,93.9001,193.2488,97.3904,193.6257,99.3021,194.5273,101.5247,194.9359,104.2272,197.7047,105.1693,200.6277,105.5786,202.6221,105.115,205.9086" style="stroke:#383838;stroke-width:1.0;"/><path d="M96.8438,199.6406 C95.9063,199.2031 95.3125,199.0625 94.4375,199.0625 C91.8125,199.0625 89.8125,201.1406 89.8125,203.8594 L89.8125,204.9844 C89.8125,207.5625 91.9219,209.4531 94.8125,209.4531 C96.0313,209.4531 97.1875,209.1563 97.9375,208.6094 C98.5156,208.2031 98.8438,207.75 98.8438,207.3594 C98.8438,206.9063 98.4531,206.5156 97.9844,206.5156 C97.7656,206.5156 97.5625,206.5938 97.375,206.7813 C96.9219,207.2656 96.9219,207.2656 96.7344,207.3594 C96.3125,207.625 95.625,207.75 94.8594,207.75 C92.8125,207.75 91.5156,206.6563 91.5156,204.9531 L91.5156,203.8594 C91.5156,202.0781 92.7656,200.7656 94.5,200.7656 C95.0781,200.7656 95.6875,200.9219 96.1563,201.1719 C96.6406,201.4531 96.8125,201.6719 96.9063,202.0781 C96.9688,202.4844 97,202.6094 97.1406,202.7344 C97.2813,202.875 97.5156,202.9844 97.7344,202.9844 C98,202.9844 98.2656,202.8438 98.4375,202.625 C98.5469,202.4688 98.5781,202.2813 98.5781,201.8594 L98.5781,200.4375 C98.5781,200 98.5625,199.875 98.4688,199.7188 C98.3125,199.4531 98.0313,199.3125 97.7344,199.3125 C97.4375,199.3125 97.2344,199.4063 97.0156,199.7188 L96.8438,199.6406 Z " fill="#000000"/><text fill="#000000" font-family="FG Virgil" font-size="12" font-style="italic" lengthAdjust="spacing" textLength="80" x="148.5" y="201.1387">«application»</text><text fill="#000000" font-family="FG Virgil" font-size="12" lengthAdjust="spacing" textLength="160" x="108.5" y="215.1074">ConsultarTarefasController</text><path d="M80.5,222.9375 L80.5,223.2177 L90.5,222.3851 L100.5,223.1952 L110.5,223.4704 L120.5,221.9863 L130.5,222.8339 L140.5,222.3688 L150.5,222.4262 L160.5,222.8466 L170.5,222.0157 L180.5,223.6757 L190.5,222.0971 L200.5,222.6738 L210.5,223.5134 L220.5,222.8231 L230.5,223.0285 L240.5,222.8949 L250.5,223.1755 L260.5,223.2563 L270.5,222.9375 " fill="#F8F8F8" style="stroke:#383838;stroke-width:1.5;"/><path d="M80.5,230.9375 L80.5,231.2177 L90.5,230.3851 L100.5,231.1952 L110.5,231.4704 L120.5,229.9863 L130.5,230.8339 L140.5,230.3688 L150.5,230.4262 L160.5,230.8466 L170.5,230.0157 L180.5,231.6757 L190.5,230.0971 L200.5,230.6738 L210.5,231.5134 L220.5,230.8231 L230.5,231.0285 L240.5,230.8949 L250.5,231.1755 L260.5,231.2563 L270.5,230.9375 " fill="#F8F8F8" style="stroke:#383838;stroke-width:1.5;"/><text fill="#000000" font-family="FG Virgil" font-size="11" lengthAdjust="spacing" textLength="174" x="85.5" y="245.1479">tarefasPendentes(fluxo, colab)</text><text fill="#000000" font-family="FG Virgil" font-size="11" lengthAdjust="spacing" textLength="98" x="85.5" y="257.9526">getFluxo(servico)</text><!--MD5=[e8c189551b7885b999ad7cefb30fc2a3]
class PersistenceContext--><polygon fill="#F8F8F8" points="101.5,325,101.5,325.2102,111.3667,324.5857,121.2333,325.1933,131.1,325.3997,140.9667,324.2866,150.8333,324.9223,160.7,324.5735,170.5667,324.6165,180.4333,324.9318,190.3,324.3086,200.1667,325.5536,210.0333,324.3697,219.9,324.8022,229.7667,325.4319,239.6333,324.9142,249.5,325,249.5682,325,249.4681,335.7875,249.6785,346.575,249.7391,357.3625,250.0857,368.15,249.5,378.9375,249.5,379.6086,239.6333,379.6168,229.7667,379.1921,219.9,379.4011,210.0333,379.6397,200.1667,378.2163,190.3,379.616,180.4333,378.641,170.5667,379.4713,160.7,378.4425,150.8333,378.869,140.9667,379.6791,131.1,378.8888,121.2333,379.0428,111.3667,379.2761,101.5,378.9375,101.9162,378.9375,101.4961,368.15,101.7872,357.3625,100.9276,346.575,101.7844,335.7875,101.5,325" style="stroke:#383838;stroke-width:1.5;"/><polygon fill="#C2C2C2" points="127.5608,346.6444,125.9484,348.8475,124.0412,352.0745,121.3136,354.2491,118.4474,355.4384,116.162,355.5416,113.2247,354.0543,110.4532,353.0827,108.3495,351.1099,107.2461,348.8515,106.5917,347.0533,105.9506,344.7045,104.91,342.6832,105.7096,340.7098,106.4102,338.548,109.0393,336.8382,110.889,334.6198,113.1784,333.8832,115.9001,333.2488,119.3904,333.6257,121.3021,334.5273,123.5247,334.9359,126.2272,337.7047,127.1693,340.6277,127.5786,342.6221,127.115,345.9086" style="stroke:#383838;stroke-width:1.0;"/><path d="M118.8438,339.6406 C117.9063,339.2031 117.3125,339.0625 116.4375,339.0625 C113.8125,339.0625 111.8125,341.1406 111.8125,343.8594 L111.8125,344.9844 C111.8125,347.5625 113.9219,349.4531 116.8125,349.4531 C118.0313,349.4531 119.1875,349.1563 119.9375,348.6094 C120.5156,348.2031 120.8438,347.75 120.8438,347.3594 C120.8438,346.9063 120.4531,346.5156 119.9844,346.5156 C119.7656,346.5156 119.5625,346.5938 119.375,346.7813 C118.9219,347.2656 118.9219,347.2656 118.7344,347.3594 C118.3125,347.625 117.625,347.75 116.8594,347.75 C114.8125,347.75 113.5156,346.6563 113.5156,344.9531 L113.5156,343.8594 C113.5156,342.0781 114.7656,340.7656 116.5,340.7656 C117.0781,340.7656 117.6875,340.9219 118.1563,341.1719 C118.6406,341.4531 118.8125,341.6719 118.9063,342.0781 C118.9688,342.4844 119,342.6094 119.1406,342.7344 C119.2813,342.875 119.5156,342.9844 119.7344,342.9844 C120,342.9844 120.2656,342.8438 120.4375,342.625 C120.5469,342.4688 120.5781,342.2813 120.5781,341.8594 L120.5781,340.4375 C120.5781,340 120.5625,339.875 120.4688,339.7188 C120.3125,339.4531 120.0313,339.3125 119.7344,339.3125 C119.4375,339.3125 119.2344,339.4063 119.0156,339.7188 L118.8438,339.6406 Z " fill="#000000"/><text fill="#000000" font-family="FG Virgil" font-size="12" font-style="italic" lengthAdjust="spacing" textLength="83" x="147" y="341.1387">«persistence»</text><text fill="#000000" font-family="FG Virgil" font-size="12" lengthAdjust="spacing" textLength="116" x="130.5" y="355.1074">PersistenceContext</text><path d="M102.5,362.9375 L102.5,363.2177 L112.2333,362.3851 L121.9667,363.1952 L131.7,363.4704 L141.4333,361.9863 L151.1667,362.8339 L160.9,362.3688 L170.6333,362.4262 L180.3667,362.8466 L190.1,362.0157 L199.8333,363.6757 L209.5667,362.0971 L219.3,362.6738 L229.0333,363.5134 L238.7667,362.8231 L248.5,362.9375 " fill="#F8F8F8" style="stroke:#383838;stroke-width:1.5;"/><path d="M102.5,370.9375 L102.5,371.2177 L112.2333,370.3851 L121.9667,371.1952 L131.7,371.4704 L141.4333,369.9863 L151.1667,370.8339 L160.9,370.3688 L170.6333,370.4262 L180.3667,370.8466 L190.1,370.0157 L199.8333,371.6757 L209.5667,370.0971 L219.3,370.6738 L229.0333,371.5134 L238.7667,370.8231 L248.5,370.9375 " fill="#F8F8F8" style="stroke:#383838;stroke-width:1.5;"/><!--MD5=[48590afff58a68e2fcba47824d6f8a11]
class RepositoryFactory--><polygon fill="#F8F8F8" points="104.5,439,104.5,439.2102,114.6429,438.5857,124.7857,439.1933,134.9286,439.3997,145.0714,438.2866,155.2143,438.9223,165.3571,438.5735,175.5,438.6165,185.6429,438.9318,195.7857,438.3086,205.9286,439.5536,216.0714,438.3697,226.2143,438.8022,236.3571,439.4319,246.5,439,246.4142,439,246.5682,449.7875,246.4681,460.575,246.6785,471.3625,246.7391,482.15,246.5,492.9375,246.5,493.5232,236.3571,493.6086,226.2143,493.6168,216.0714,493.1921,205.9286,493.4011,195.7857,493.6397,185.6429,492.2163,175.5,493.616,165.3571,492.641,155.2143,493.4713,145.0714,492.4425,134.9286,492.869,124.7857,493.6791,114.6429,492.8888,104.5,492.9375,104.6053,492.9375,104.8386,482.15,104.9162,471.3625,104.4961,460.575,104.7872,449.7875,104.5,439" style="stroke:#383838;stroke-width:1.5;"/><polygon fill="#C2C2C2" points="130.5608,460.6444,128.9484,462.8475,127.0412,466.0745,124.3136,468.2491,121.4474,469.4384,119.162,469.5416,116.2247,468.0543,113.4532,467.0827,111.3495,465.1099,110.2461,462.8515,109.5917,461.0533,108.9506,458.7045,107.91,456.6832,108.7096,454.7098,109.4102,452.548,112.0393,450.8382,113.889,448.6198,116.1784,447.8832,118.9001,447.2488,122.3904,447.6257,124.3021,448.5273,126.5247,448.9359,129.2272,451.7047,130.1693,454.6277,130.5786,456.6221,130.115,459.9086" style="stroke:#383838;stroke-width:1.0;"/><path d="M121.8438,453.6406 C120.9063,453.2031 120.3125,453.0625 119.4375,453.0625 C116.8125,453.0625 114.8125,455.1406 114.8125,457.8594 L114.8125,458.9844 C114.8125,461.5625 116.9219,463.4531 119.8125,463.4531 C121.0313,463.4531 122.1875,463.1563 122.9375,462.6094 C123.5156,462.2031 123.8438,461.75 123.8438,461.3594 C123.8438,460.9063 123.4531,460.5156 122.9844,460.5156 C122.7656,460.5156 122.5625,460.5938 122.375,460.7813 C121.9219,461.2656 121.9219,461.2656 121.7344,461.3594 C121.3125,461.625 120.625,461.75 119.8594,461.75 C117.8125,461.75 116.5156,460.6563 116.5156,458.9531 L116.5156,457.8594 C116.5156,456.0781 117.7656,454.7656 119.5,454.7656 C120.0781,454.7656 120.6875,454.9219 121.1563,455.1719 C121.6406,455.4531 121.8125,455.6719 121.9063,456.0781 C121.9688,456.4844 122,456.6094 122.1406,456.7344 C122.2813,456.875 122.5156,456.9844 122.7344,456.9844 C123,456.9844 123.2656,456.8438 123.4375,456.625 C123.5469,456.4688 123.5781,456.2813 123.5781,455.8594 L123.5781,454.4375 C123.5781,454 123.5625,453.875 123.4688,453.7188 C123.3125,453.4531 123.0313,453.3125 122.7344,453.3125 C122.4375,453.3125 122.2344,453.4063 122.0156,453.7188 L121.8438,453.6406 Z " fill="#000000"/><text fill="#000000" font-family="FG Virgil" font-size="12" font-style="italic" lengthAdjust="spacing" textLength="56" x="160.5" y="455.1387">«factory»</text><text fill="#000000" font-family="FG Virgil" font-size="12" lengthAdjust="spacing" textLength="110" x="133.5" y="469.1074">RepositoryFactory</text><path d="M105.5,476.9375 L105.5,477.2177 L115.5,476.3851 L125.5,477.1952 L135.5,477.4704 L145.5,475.9863 L155.5,476.8339 L165.5,476.3688 L175.5,476.4262 L185.5,476.8466 L195.5,476.0157 L205.5,477.6757 L215.5,476.0971 L225.5,476.6738 L235.5,477.5134 L245.5,476.9375 " fill="#F8F8F8" style="stroke:#383838;stroke-width:1.5;"/><path d="M105.5,484.9375 L105.5,485.2177 L115.5,484.3851 L125.5,485.1952 L135.5,485.4704 L145.5,483.9863 L155.5,484.8339 L165.5,484.3688 L175.5,484.4262 L185.5,484.8466 L195.5,484.0157 L205.5,485.6757 L215.5,484.0971 L225.5,484.6738 L235.5,485.5134 L245.5,484.9375 " fill="#F8F8F8" style="stroke:#383838;stroke-width:1.5;"/><!--MD5=[51865f8cbfe0824679c335d6e733f291]
class ServicoRepository--><polygon fill="#F8F8F8" points="7,553,7,553.2102,17.2143,552.5857,27.4286,553.1933,37.6429,553.3997,47.8571,552.2866,58.0714,552.9223,68.2857,552.5735,78.5,552.6165,88.7143,552.9318,98.9286,552.3086,109.1429,553.5536,119.3571,552.3697,129.5714,552.8022,139.7857,553.4319,150,553,149.9142,553,150.0682,563.7875,149.9681,574.575,150.1785,585.3625,150.2391,596.15,150,606.9375,150,607.5232,139.7857,607.6086,129.5714,607.6168,119.3571,607.1921,109.1429,607.4011,98.9286,607.6397,88.7143,606.2163,78.5,607.616,68.2857,606.641,58.0714,607.4713,47.8571,606.4425,37.6429,606.869,27.4286,607.6791,17.2143,606.8888,7,606.9375,7.1053,606.9375,7.3386,596.15,7.4162,585.3625,6.9961,574.575,7.2872,563.7875,7,553" style="stroke:#383838;stroke-width:1.5;"/><polygon fill="#C2C2C2" points="33.0608,574.6444,31.4484,576.8475,29.5412,580.0745,26.8136,582.2491,23.9474,583.4384,21.662,583.5416,18.7247,582.0543,15.9532,581.0827,13.8495,579.1099,12.7461,576.8515,12.0917,575.0533,11.4506,572.7045,10.41,570.6832,11.2096,568.7098,11.9102,566.548,14.5393,564.8382,16.389,562.6198,18.6784,561.8832,21.4001,561.2488,24.8904,561.6257,26.8021,562.5273,29.0247,562.9359,31.7272,565.7047,32.6693,568.6277,33.0786,570.6221,32.615,573.9086" style="stroke:#383838;stroke-width:1.0;"/><path d="M24.3438,567.6406 C23.4063,567.2031 22.8125,567.0625 21.9375,567.0625 C19.3125,567.0625 17.3125,569.1406 17.3125,571.8594 L17.3125,572.9844 C17.3125,575.5625 19.4219,577.4531 22.3125,577.4531 C23.5313,577.4531 24.6875,577.1563 25.4375,576.6094 C26.0156,576.2031 26.3438,575.75 26.3438,575.3594 C26.3438,574.9063 25.9531,574.5156 25.4844,574.5156 C25.2656,574.5156 25.0625,574.5938 24.875,574.7813 C24.4219,575.2656 24.4219,575.2656 24.2344,575.3594 C23.8125,575.625 23.125,575.75 22.3594,575.75 C20.3125,575.75 19.0156,574.6563 19.0156,572.9531 L19.0156,571.8594 C19.0156,570.0781 20.2656,568.7656 22,568.7656 C22.5781,568.7656 23.1875,568.9219 23.6563,569.1719 C24.1406,569.4531 24.3125,569.6719 24.4063,570.0781 C24.4688,570.4844 24.5,570.6094 24.6406,570.7344 C24.7813,570.875 25.0156,570.9844 25.2344,570.9844 C25.5,570.9844 25.7656,570.8438 25.9375,570.625 C26.0469,570.4688 26.0781,570.2813 26.0781,569.8594 L26.0781,568.4375 C26.0781,568 26.0625,567.875 25.9688,567.7188 C25.8125,567.4531 25.5313,567.3125 25.2344,567.3125 C24.9375,567.3125 24.7344,567.4063 24.5156,567.7188 L24.3438,567.6406 Z " fill="#000000"/><text fill="#000000" font-family="FG Virgil" font-size="12" font-style="italic" lengthAdjust="spacing" textLength="74" x="54.5" y="569.1387">«repository»</text><text fill="#000000" font-family="FG Virgil" font-size="12" lengthAdjust="spacing" textLength="111" x="36" y="583.1074">ServicoRepository</text><path d="M8,590.9375 L8,591.2177 L18.0714,590.3851 L28.1429,591.1952 L38.2143,591.4704 L48.2857,589.9863 L58.3571,590.8339 L68.4286,590.3688 L78.5,590.4262 L88.5714,590.8466 L98.6429,590.0157 L108.7143,591.6757 L118.7857,590.0971 L128.8571,590.6738 L138.9286,591.5134 L149,590.9375 " fill="#F8F8F8" style="stroke:#383838;stroke-width:1.5;"/><path d="M8,598.9375 L8,599.2177 L18.0714,598.3851 L28.1429,599.1952 L38.2143,599.4704 L48.2857,597.9863 L58.3571,598.8339 L68.4286,598.3688 L78.5,598.4262 L88.5714,598.8466 L98.6429,598.0157 L108.7143,599.6757 L118.7857,598.0971 L128.8571,598.6738 L138.9286,599.5134 L149,598.9375 " fill="#F8F8F8" style="stroke:#383838;stroke-width:1.5;"/><!--MD5=[9a0e8f7957502662f95e783c1c3d84fe]
class ColaboradorRepository--><polygon fill="#F8F8F8" points="200.5,553,200.5,553.2102,210.6176,552.5857,220.7353,553.1933,230.8529,553.3997,240.9706,552.2866,251.0882,552.9223,261.2059,552.5735,271.3235,552.6165,281.4412,552.9318,291.5588,552.3086,301.6765,553.5536,311.7941,552.3697,321.9118,552.8022,332.0294,553.4319,342.1471,552.9142,352.2647,553.0682,362.3824,552.9681,372.5,553,372.6785,553,372.7391,563.7875,373.0857,574.575,373.1711,585.3625,373.1793,596.15,372.5,606.9375,372.5,607.1921,362.3824,607.4011,352.2647,607.6397,342.1471,606.2163,332.0294,607.616,321.9118,606.641,311.7941,607.4713,301.6765,606.4425,291.5588,606.869,281.4412,607.6791,271.3235,606.8888,261.2059,607.0428,251.0882,607.2761,240.9706,607.3537,230.8529,606.9336,220.7353,607.2247,210.6176,606.3651,200.5,606.9375,200.7844,606.9375,201.0482,596.15,200.9445,585.3625,201.113,574.575,200.0169,563.7875,200.5,553" style="stroke:#383838;stroke-width:1.5;"/><polygon fill="#C2C2C2" points="226.5608,574.6444,224.9484,576.8475,223.0412,580.0745,220.3136,582.2491,217.4474,583.4384,215.162,583.5416,212.2247,582.0543,209.4532,581.0827,207.3495,579.1099,206.2461,576.8515,205.5917,575.0533,204.9506,572.7045,203.91,570.6832,204.7096,568.7098,205.4102,566.548,208.0393,564.8382,209.889,562.6198,212.1784,561.8832,214.9001,561.2488,218.3904,561.6257,220.3021,562.5273,222.5247,562.9359,225.2272,565.7047,226.1693,568.6277,226.5786,570.6221,226.115,573.9086" style="stroke:#383838;stroke-width:1.0;"/><path d="M217.8438,567.6406 C216.9063,567.2031 216.3125,567.0625 215.4375,567.0625 C212.8125,567.0625 210.8125,569.1406 210.8125,571.8594 L210.8125,572.9844 C210.8125,575.5625 212.9219,577.4531 215.8125,577.4531 C217.0313,577.4531 218.1875,577.1563 218.9375,576.6094 C219.5156,576.2031 219.8438,575.75 219.8438,575.3594 C219.8438,574.9063 219.4531,574.5156 218.9844,574.5156 C218.7656,574.5156 218.5625,574.5938 218.375,574.7813 C217.9219,575.2656 217.9219,575.2656 217.7344,575.3594 C217.3125,575.625 216.625,575.75 215.8594,575.75 C213.8125,575.75 212.5156,574.6563 212.5156,572.9531 L212.5156,571.8594 C212.5156,570.0781 213.7656,568.7656 215.5,568.7656 C216.0781,568.7656 216.6875,568.9219 217.1563,569.1719 C217.6406,569.4531 217.8125,569.6719 217.9063,570.0781 C217.9688,570.4844 218,570.6094 218.1406,570.7344 C218.2813,570.875 218.5156,570.9844 218.7344,570.9844 C219,570.9844 219.2656,570.8438 219.4375,570.625 C219.5469,570.4688 219.5781,570.2813 219.5781,569.8594 L219.5781,568.4375 C219.5781,568 219.5625,567.875 219.4688,567.7188 C219.3125,567.4531 219.0313,567.3125 218.7344,567.3125 C218.4375,567.3125 218.2344,567.4063 218.0156,567.7188 L217.8438,567.6406 Z " fill="#000000"/><text fill="#000000" font-family="FG Virgil" font-size="12" font-style="italic" lengthAdjust="spacing" textLength="74" x="262.5" y="569.1387">«repository»</text><text fill="#000000" font-family="FG Virgil" font-size="12" lengthAdjust="spacing" textLength="140" x="229.5" y="583.1074">ColaboradorRepository</text><path d="M201.5,590.9375 L201.5,591.2177 L211.5,590.3851 L221.5,591.1952 L231.5,591.4704 L241.5,589.9863 L251.5,590.8339 L261.5,590.3688 L271.5,590.4262 L281.5,590.8466 L291.5,590.0157 L301.5,591.6757 L311.5,590.0971 L321.5,590.6738 L331.5,591.5134 L341.5,590.8231 L351.5,591.0285 L361.5,590.8949 L371.5,590.9375 " fill="#F8F8F8" style="stroke:#383838;stroke-width:1.5;"/><path d="M201.5,598.9375 L201.5,599.2177 L211.5,598.3851 L221.5,599.1952 L231.5,599.4704 L241.5,597.9863 L251.5,598.8339 L261.5,598.3688 L271.5,598.4262 L281.5,598.8466 L291.5,598.0157 L301.5,599.6757 L311.5,598.0971 L321.5,598.6738 L331.5,599.5134 L341.5,598.8231 L351.5,599.0285 L361.5,598.8949 L371.5,598.9375 " fill="#F8F8F8" style="stroke:#383838;stroke-width:1.5;"/><!--MD5=[2c5ed8deb50efb8fddb80fdc673eca6d]
link ConsultarTarefasUI to ConsultarTarefasController--><path d="M175.5,125.015 L175.7802,125.015 L174.9476,135.9376 L175.7577,146.8602 L176.0329,157.7828 L174.5488,168.7054 L175.5,179.628 " fill="none" style="stroke:#383838;stroke-width:1.0;"/><polygon fill="#383838" points="175.5,184.803,175.564,184.8315,176.1738,182.9469,177.1589,181.2292,178.0217,179.4571,178.4827,177.5064,179.5,175.803,179.4817,175.7847,178.5995,176.5025,177.8096,177.3126,177.0839,178.1869,176.137,178.84,175.5,179.803,175.6305,179.9335,174.5514,178.8544,173.8534,178.1564,173.2018,177.5048,172.2798,176.5828,171.5,175.803,171.5208,175.8122,172.2903,177.5987,173.1544,179.4272,173.9728,181.2354,174.8784,183.0823,175.5,184.803" style="stroke:#383838;stroke-width:1.0;"/><!--MD5=[16dd1f1f9d0f885e96ec787893a8c2b3]
link ConsultarTarefasController to ServicoRepository--><path d="M126.388,265.333 L126.4555,265.3976 L123.7508,267.8232 L121.4418,270.6273 L119.004,273.3082 L116.1424,275.5837 L113.8674,278.4204 L113.8406,278.3985 L111.3588,281.1876 L109.0116,284.087 L106.7582,287.0631 L104.1819,289.775 L102.0579,292.8569 L102.2628,292.9931 L99.7513,295.82 L97.8381,299.0447 L95.9979,302.318 L93.733,305.3088 L91.6915,308.4482 L91.7186,308.4617 L90.0404,311.7523 L88.486,315.1041 L86.8718,318.4264 L85.3716,321.8051 L83.5,325 L83.7802,325.1021 L82.7382,327.9722 L81.5155,330.7764 L80.5573,333.677 L79.6116,336.5821 L78.2729,339.3441 L77.9653,339.254 L77.6967,342.3845 L76.4152,345.2184 L75.9037,348.2778 L74.5992,351.1049 L73.9447,354.1224 L73.9151,354.1155 L73.5673,357.2181 L72.5265,360.1605 L71.8947,363.1974 L71.2972,366.2422 L70.452,369.2298 L70.6342,369.2621 L69.9062,372.2957 L69.4894,375.3846 L68.5691,378.384 L68.3999,381.5168 L67.7313,384.561 L67.9729,384.5925 L67.5248,387.6765 L67.1966,390.7762 L66.3112,393.8033 L65.8342,396.8835 L65.7192,400.011 L65.4441,399.9867 L65.4198,403.1014 L65.0855,406.1887 L65.2008,409.3158 L64.5484,412.375 L64.3523,415.4745 L64.2001,415.4667 L64.2966,418.5541 L63.7423,421.6082 L63.6509,424.6859 L64.0123,427.7868 L63.5673,430.8465 L63.7609,430.8499 L63.8403,433.8873 L63.3176,436.9141 L63.5491,439.9541 L63.6162,442.9913 L63.3005,446.0217 L63.0906,446.019 L63.2956,448.9958 L63.4318,451.9717 L63.7031,454.9494 L63.4493,457.9203 L63.4888,460.895 L63.6942,460.9032 L63.3588,463.7784 L63.4199,466.6695 L64.0603,469.5837 L63.6342,472.4553 L64.0685,475.3613 L64.2943,475.376 L64.3418,478.158 L64.3129,480.9352 L64.4564,483.7235 L64.9983,486.5377 L64.9764,489.3153 L64.8439,489.3037 L65.473,492.0057 L65.2008,494.6284 L65.9533,497.3413 L66.1289,500.0035 L66.149,502.652 L66.2573,502.6637 L66.4447,505.1771 L67.0196,507.7326 L67.2445,510.25 L67.3229,512.7514 L67.5229,515.2661 L67.6411,515.2812 L67.7678,517.616 L68.4434,520.0211 L68.4982,522.3467 L68.8084,524.705 L69.0347,527.0525 L68.7671,527.0134 L69.1737,529.1972 L69.9025,531.428 L70.1754,533.5922 L70.2847,535.7326 L70.6209,537.9061 L70.4795,537.8831 L70.8443,539.8535 L70.9587,541.7833 L71.7611,543.825 L72.2231,545.8113 L72.2181,547.7216 " fill="none" style="stroke:#383838;stroke-width:1.0;"/><polygon fill="#383838" points="73.1292,552.9233,73.1972,552.9403,73.4726,550.9788,74.1466,549.1168,74.6907,547.2225,74.8082,545.2215,75.5163,543.3681,75.4951,543.3532,74.75,544.2125,74.1118,545.1467,73.5478,546.1332,72.7278,546.9399,72.2665,547.9983,72.3725,548.1493,71.2198,547.1764,70.3765,546.6444,69.5711,546.1662,68.5459,545.375,67.6363,544.7485,67.6552,544.7611,68.726,546.3775,69.8829,548.0516,70.9982,549.6978,72.1927,551.3972,73.1292,552.9233" style="stroke:#383838;stroke-width:1.0;"/><!--MD5=[ee6da19fa4d67061923e3e4dcb4293c0]
link ConsultarTarefasController to ColaboradorRepository--><path d="M222.911,265.243 L222.9788,265.3073 L225.2755,267.7517 L227.9697,270.5729 L230.5345,273.2715 L232.6736,275.5665 L235.4019,278.4201 L235.3752,278.3982 L237.6363,281.1991 L240.032,284.1106 L242.5213,287.0989 L244.6881,289.8225 L247.3065,292.9169 L247.51,293.0552 L249.1957,295.8792 L251.4754,299.1071 L253.8277,302.3843 L255.7582,305.3747 L257.9106,308.516 L257.9375,308.53 L259.6159,311.8062 L261.4167,315.1463 L263.1585,318.4555 L265.013,321.8235 L266.5,325 L266.7771,325.1104 L267.915,327.9592 L268.8742,330.7369 L270.095,333.6188 L271.3281,336.5055 L272.1727,339.2375 L271.8685,339.1366 L273.4336,342.2707 L273.9969,345.0726 L275.3218,348.127 L275.8624,350.9213 L277.0459,353.9288 L277.0165,353.9208 L278.1888,357.0237 L278.6752,359.9385 L279.5663,362.9643 L280.4914,365.9995 L281.1714,368.9673 L281.3519,369.0079 L281.8556,372.0228 L282.6678,375.107 L282.981,378.0791 L284.0385,381.2183 L284.6011,384.2465 L284.8408,384.2898 L285.3527,387.3643 L285.9835,390.4602 L286.0613,393.4562 L286.5445,396.5255 L287.3869,399.6597 L287.1135,399.6208 L287.7997,402.7441 L288.1779,405.8237 L289.003,408.9667 L289.0651,412.0013 L289.5807,415.1003 L289.4291,415.084 L290.0123,418.1835 L289.9475,421.2133 L290.3435,424.2926 L291.1904,427.4205 L291.2344,430.4619 L291.4275,430.4768 L291.793,433.5221 L291.558,436.5214 L292.0751,439.5784 L292.4284,442.6228 L292.3999,445.6379 L292.1902,445.6276 L292.5032,448.6125 L292.7475,451.5941 L293.1267,454.5823 L292.9813,457.5447 L293.129,460.5216 L293.3346,460.5264 L292.9519,463.4127 L292.966,466.3084 L293.5596,469.2178 L293.0863,472.1019 L293.4738,475.0065 L293.7,475.0066 L293.568,477.8024 L293.3596,480.5982 L293.3238,483.394 L293.6874,486.1902 L293.4859,488.986 L293.3529,488.9833 L293.6953,491.6648 L293.1329,494.3281 L293.5992,497.012 L293.4864,499.6843 L293.2175,502.3535 L293.3263,502.3578 L293.139,504.8842 L293.3413,507.4258 L293.1916,509.9537 L292.8949,512.4757 L292.7203,515.0026 L292.8393,515.0094 L292.5276,517.3641 L292.7685,519.7503 L292.3845,522.1009 L292.2576,524.4661 L292.0462,526.8265 L291.7765,526.8068 L291.7068,528.9918 L291.9618,531.2007 L291.7572,533.3759 L291.3879,535.539 L291.2471,537.7188 L291.1045,537.7062 L290.9758,539.6811 L290.5945,541.6336 L290.9075,543.6475 L290.8768,545.6311 L290.375,547.5729 " fill="none" style="stroke:#383838;stroke-width:1.0;"/><polygon fill="#383838" points="289.853,552.7964,289.9139,552.8311,290.708,551.0165,291.859,549.4052,292.8937,547.7277,293.5463,545.8325,294.728,544.2387,294.7115,544.2186,293.7623,544.8451,292.8959,545.5727,292.0868,546.3706,291.0797,546.9263,290.3501,547.8212,290.4929,547.938,289.471,546.8125,288.8661,546.0283,288.312,545.2856,287.462,544.3008,286.7676,543.4433,286.7892,543.4504,287.3746,545.3106,288.0583,547.2032,288.6945,549.0801,289.4213,550.9869,289.853,552.7964" style="stroke:#383838;stroke-width:1.0;"/><!--MD5=[92d8ac77eb240e73ca9456b3298e77b8]
link ConsultarTarefasController to PersistenceContext--><path d="M175.5,265.208 L175.7802,265.208 L174.9476,276.1574 L175.7577,287.1068 L176.0329,298.0562 L174.5488,309.0056 L175.5,319.955 " fill="none" style="stroke:#383838;stroke-width:1.0;"/><polygon fill="#383838" points="175.5,324.958,175.564,324.9865,176.1738,323.1019,177.1589,321.3842,178.0217,319.6121,178.4827,317.6614,179.5,315.958,179.4817,315.9397,178.5995,316.6575,177.8096,317.4676,177.0839,318.3419,176.137,318.995,175.5,319.958,175.6305,320.0885,174.5514,319.0094,173.8534,318.3114,173.2018,317.6598,172.2798,316.7378,171.5,315.958,171.5208,315.9672,172.2903,317.7537,173.1544,319.5822,173.9728,321.3904,174.8784,323.2373,175.5,324.958" style="stroke:#383838;stroke-width:1.0;"/><!--MD5=[754b775031405e096442b27febffa290]
link PersistenceContext to RepositoryFactory--><path d="M175.5,379.259 L175.7802,379.259 L174.9476,390.1506 L175.7577,401.0422 L176.0329,411.9338 L174.5488,422.8254 L175.5,433.717 " fill="none" style="stroke:#383838;stroke-width:1.0;"/><polygon fill="#383838" points="175.5,438.905,175.564,438.9335,176.1738,437.0489,177.1589,435.3312,178.0217,433.5591,178.4827,431.6084,179.5,429.905,179.4817,429.8867,178.5995,430.6045,177.8096,431.4146,177.0839,432.2889,176.137,432.942,175.5,433.905,175.6305,434.0355,174.5514,432.9564,173.8534,432.2584,173.2018,431.6068,172.2798,430.6848,171.5,429.905,171.5208,429.9142,172.2903,431.7007,173.1544,433.5292,173.9728,435.3374,174.8784,437.1843,175.5,438.905" style="stroke:#383838;stroke-width:1.0;"/><!--MD5=[4c2782ef650e763910e10e8b58df1401]
link RepositoryFactory to ServicoRepository--><path d="M152.758,493.259 L152.9698,493.4425 L145.439,500.866 L139.1499,509.365 L132.4565,517.5139 L124.4332,524.5109 L118.1725,533.0345 L110.9195,540.6987 L104.4479,549.0396 " fill="none" style="stroke:#383838;stroke-width:1.0;"/><polygon fill="#383838" points="101.0997,552.9055,101.1295,552.9689,102.8242,551.9436,104.6934,551.29,106.5057,550.5154,108.1313,549.3427,110.0154,548.7211,110.0136,548.6952,108.8768,548.6602,107.7494,548.7555,106.6284,548.9413,105.4851,548.8151,104.3731,549.126,104.5572,549.1392,104.0826,547.9825,104.1454,546.8643,104.2738,545.7509,104.0206,544.61,103.9682,543.4836,103.9899,543.4902,103.3843,545.3649,102.8777,547.2697,102.3233,549.16,101.8602,551.078,101.0997,552.9055" style="stroke:#383838;stroke-width:1.0;"/><!--MD5=[f69c8ab88bf9359224da8c715bf10dd8]
link RepositoryFactory to ColaboradorRepository--><path d="M201.525,493.259 L201.724,493.4563 L208.0429,499.8427 L215.5285,507.3856 L222.6343,514.5519 L228.4904,520.4797 L236.0027,528.0489 L242.5826,534.6942 L249.5336,541.7071 L256.807,549.0396 " fill="none" style="stroke:#383838;stroke-width:1.0;"/><polygon fill="#383838" points="260.638,552.9055,260.7035,552.9304,259.81,551.0149,259.3005,549.2451,258.666,547.4279,257.6203,545.4546,257.1437,543.6973,257.1178,543.6972,256.9965,544.8281,257.0057,545.9595,257.1058,547.0913,256.893,548.2218,257.1184,549.3541,257.1192,549.5387,255.9861,549.139,254.8553,549.2781,253.7249,549.4829,252.5928,549.3053,251.4616,549.3288,251.4698,549.35,253.293,550.0342,255.1537,550.8149,256.9964,551.5491,258.8736,552.3721,260.638,552.9055" style="stroke:#383838;stroke-width:1.0;"/><!--MD5=[599e323965edaaa8310f697e94127057]
@startuml
'http://plantuml.com/skinparam.html
skinparam handwritten true
skinparam monochrome true
skinparam packageStyle rect
skinparam defaultFontName FG Virgil
skinparam shadowing false

class ConsultarTarefasUI <<presentation>>
class ConsultarTarefasController <<application>>
class PersistenceContext <<persistence>>
class RepositoryFactory <<factory>>
class ServicoRepository <<repository>>
class ColaboradorRepository <<repository>>


ConsultarTarefasUI - -> ConsultarTarefasController
ConsultarTarefasUI : doShow()
ConsultarTarefasUI : listServicos()
ConsultarTarefasUI : tarefasPendentes(fluxo, colab)
ConsultarTarefasUI : getFluxo()
ConsultarTarefasUI : getUser()

ConsultarTarefasController : tarefasPendentes(fluxo, colab)
ConsultarTarefasController : getFluxo(servico)

ConsultarTarefasController - -> ServicoRepository
ConsultarTarefasController - -> ColaboradorRepository
ConsultarTarefasController - -> PersistenceContext
PersistenceContext - -> RepositoryFactory

RepositoryFactory - -> ServicoRepository
RepositoryFactory - -> ColaboradorRepository
@enduml

@startuml
skinparam handwritten true
skinparam monochrome true
skinparam packageStyle rect
skinparam defaultFontName FG Virgil
skinparam shadowing false

class ConsultarTarefasUI <<presentation>>
class ConsultarTarefasController <<application>>
class PersistenceContext <<persistence>>
class RepositoryFactory <<factory>>
class ServicoRepository <<repository>>
class ColaboradorRepository <<repository>>


ConsultarTarefasUI - -> ConsultarTarefasController
ConsultarTarefasUI : doShow()
ConsultarTarefasUI : listServicos()
ConsultarTarefasUI : tarefasPendentes(fluxo, colab)
ConsultarTarefasUI : getFluxo()
ConsultarTarefasUI : getUser()

ConsultarTarefasController : tarefasPendentes(fluxo, colab)
ConsultarTarefasController : getFluxo(servico)

ConsultarTarefasController - -> ServicoRepository
ConsultarTarefasController - -> ColaboradorRepository
ConsultarTarefasController - -> PersistenceContext
PersistenceContext - -> RepositoryFactory

RepositoryFactory - -> ServicoRepository
RepositoryFactory - -> ColaboradorRepository
@enduml

PlantUML version 1.2021.7beta2(Unknown compile time)
(GPL source distribution)
Java Runtime: Java(TM) SE Runtime Environment
JVM: Java HotSpot(TM) 64-Bit Server VM
Default Encoding: UTF-8
Language: en
Country: US
--></g></svg>