<?xml version="1.0" encoding="UTF-8" standalone="no"?><svg xmlns="http://www.w3.org/2000/svg" xmlns:xlink="http://www.w3.org/1999/xlink" contentScriptType="application/ecmascript" contentStyleType="text/css" height="574px" preserveAspectRatio="none" style="width:394px;height:574px;background:#FFFFFF;" version="1.1" viewBox="0 0 394 574" width="394px" zoomAndPan="magnify"><defs/><g><!--MD5=[afdac0f740b27b59a461bf6006ee1289]
class ConsultarTarefasUI--><polygon fill="#F8F8F8" points="135.5,7,135.5,7.2102,145.1667,6.5857,154.8333,7.1933,164.5,7.3997,174.1667,6.2866,183.8333,6.9223,193.5,6.5735,203.1667,6.6165,212.8333,6.9318,222.5,6.3086,232.1667,7.5536,241.8333,6.3697,251.5,6.8022,261.1667,7.4319,270.8333,6.9142,280.5,7,280.5682,7,280.4681,17.2613,280.6785,27.5226,280.7391,37.7839,281.0857,48.0451,281.1711,58.3064,281.1793,68.5677,280.7546,78.829,280.9636,89.0903,280.5,99.3516,280.5,100.0538,270.8333,98.6304,261.1667,100.0301,251.5,99.0551,241.8333,99.8854,232.1667,98.8565,222.5,99.2831,212.8333,100.0932,203.1667,99.3028,193.5,99.4569,183.8333,99.6902,174.1667,99.7678,164.5,99.3477,154.8333,99.6388,145.1667,98.7791,135.5,99.3516,135.7844,99.3516,136.0482,89.0903,135.9445,78.829,136.113,68.5677,135.0169,58.3064,134.8478,48.0451,134.8786,37.7839,135.4411,27.5226,135.3035,17.2613,135.5,7" style="stroke:#383838;stroke-width:1.5;"/><polygon fill="#C2C2C2" points="161.5608,28.6444,159.9484,30.8475,158.0412,34.0745,155.3136,36.2491,152.4474,37.4384,150.162,37.5416,147.2247,36.0543,144.4532,35.0827,142.3495,33.1099,141.2461,30.8515,140.5917,29.0533,139.9506,26.7045,138.91,24.6832,139.7096,22.7098,140.4102,20.548,143.0393,18.8382,144.889,16.6198,147.1784,15.8832,149.9001,15.2488,153.3904,15.6257,155.3021,16.5273,157.5247,16.9359,160.2272,19.7047,161.1693,22.6277,161.5786,24.6221,161.115,27.9086" style="stroke:#383838;stroke-width:1.0;"/><path d="M152.8438,21.6406 C151.9063,21.2031 151.3125,21.0625 150.4375,21.0625 C147.8125,21.0625 145.8125,23.1406 145.8125,25.8594 L145.8125,26.9844 C145.8125,29.5625 147.9219,31.4531 150.8125,31.4531 C152.0313,31.4531 153.1875,31.1563 153.9375,30.6094 C154.5156,30.2031 154.8438,29.75 154.8438,29.3594 C154.8438,28.9063 154.4531,28.5156 153.9844,28.5156 C153.7656,28.5156 153.5625,28.5938 153.375,28.7813 C152.9219,29.2656 152.9219,29.2656 152.7344,29.3594 C152.3125,29.625 151.625,29.75 150.8594,29.75 C148.8125,29.75 147.5156,28.6563 147.5156,26.9531 L147.5156,25.8594 C147.5156,24.0781 148.7656,22.7656 150.5,22.7656 C151.0781,22.7656 151.6875,22.9219 152.1563,23.1719 C152.6406,23.4531 152.8125,23.6719 152.9063,24.0781 C152.9688,24.4844 153,24.6094 153.1406,24.7344 C153.2813,24.875 153.5156,24.9844 153.7344,24.9844 C154,24.9844 154.2656,24.8438 154.4375,24.625 C154.5469,24.4688 154.5781,24.2813 154.5781,23.8594 L154.5781,22.4375 C154.5781,22 154.5625,21.875 154.4688,21.7188 C154.3125,21.4531 154.0313,21.3125 153.7344,21.3125 C153.4375,21.3125 153.2344,21.4063 153.0156,21.7188 L152.8438,21.6406 Z " fill="#000000"/><text fill="#000000" font-family="FG Virgil" font-size="12" font-style="italic" lengthAdjust="spacing" textLength="90" x="176" y="23.1387">«presentation»</text><text fill="#000000" font-family="FG Virgil" font-size="12" lengthAdjust="spacing" textLength="113" x="164.5" y="37.1074">ConsultarTarefasUI</text><path d="M136.5,44.9375 L136.5,45.2177 L146.7143,44.3851 L156.9286,45.1952 L167.1429,45.4704 L177.3571,43.9863 L187.5714,44.8339 L197.7857,44.3688 L208,44.4262 L218.2143,44.8466 L228.4286,44.0157 L238.6429,45.6757 L248.8571,44.0971 L259.0714,44.6738 L269.2857,45.5134 L279.5,44.9375 " fill="#F8F8F8" style="stroke:#383838;stroke-width:1.5;"/><path d="M136.5,52.9375 L136.5,53.2177 L146.7143,52.3851 L156.9286,53.1952 L167.1429,53.4704 L177.3571,51.9863 L187.5714,52.8339 L197.7857,52.3688 L208,52.4262 L218.2143,52.8466 L228.4286,52.0157 L238.6429,53.6757 L248.8571,52.0971 L259.0714,52.6738 L269.2857,53.5134 L279.5,52.9375 " fill="#F8F8F8" style="stroke:#383838;stroke-width:1.5;"/><text fill="#000000" font-family="FG Virgil" font-size="11" lengthAdjust="spacing" textLength="53" x="141.5" y="67.1479">doShow()</text><text fill="#000000" font-family="FG Virgil" font-size="11" lengthAdjust="spacing" textLength="73" x="141.5" y="79.9526">listServicos()</text><text fill="#000000" font-family="FG Virgil" font-size="11" lengthAdjust="spacing" textLength="67" x="141.5" y="92.7573">listTarefas()</text><!--MD5=[d3c8e35004c6548e2936e691f162b2fb]
class ConsultarTarefasController--><polygon fill="#F8F8F8" points="112,159,112,159.2102,122.1053,158.5857,132.2105,159.1933,142.3158,159.3997,152.4211,158.2866,162.5263,158.9223,172.6316,158.5735,182.7368,158.6165,192.8421,158.9318,202.9474,158.3086,213.0526,159.5536,223.1579,158.3697,233.2632,158.8022,243.3684,159.4319,253.4737,158.9142,263.5789,159.0682,273.6842,158.9681,283.7895,159.1785,293.8947,159.2391,304,159,304.5857,159,304.6711,168.5346,304.6793,178.0692,304.2546,187.6038,304.4636,197.1384,304.7022,206.673,303.2788,216.2076,304,225.7422,304,226.4207,293.8947,225.4457,283.7895,226.276,273.6842,225.2472,263.5789,225.6737,253.4737,226.4838,243.3684,225.6935,233.2632,225.8475,223.1579,226.0808,213.0526,226.1584,202.9474,225.7383,192.8421,226.0294,182.7368,225.1698,172.6316,226.0266,162.5263,226.2904,152.4211,226.1867,142.3158,226.3552,132.2105,225.2591,122.1053,225.09,112,225.7422,111.3786,225.7422,111.9411,216.2076,111.8035,206.673,112.6814,197.1384,111.8253,187.6038,111.6569,178.0692,112.2283,168.5346,112,159" style="stroke:#383838;stroke-width:1.5;"/><polygon fill="#C2C2C2" points="138.0608,180.6444,136.4484,182.8475,134.5412,186.0745,131.8136,188.2491,128.9474,189.4384,126.662,189.5416,123.7247,188.0543,120.9532,187.0827,118.8495,185.1099,117.7461,182.8515,117.0917,181.0533,116.4506,178.7045,115.41,176.6832,116.2096,174.7098,116.9102,172.548,119.5393,170.8382,121.389,168.6198,123.6784,167.8832,126.4001,167.2488,129.8904,167.6257,131.8021,168.5273,134.0247,168.9359,136.7272,171.7047,137.6693,174.6277,138.0786,176.6221,137.615,179.9086" style="stroke:#383838;stroke-width:1.0;"/><path d="M129.3438,173.6406 C128.4063,173.2031 127.8125,173.0625 126.9375,173.0625 C124.3125,173.0625 122.3125,175.1406 122.3125,177.8594 L122.3125,178.9844 C122.3125,181.5625 124.4219,183.4531 127.3125,183.4531 C128.5313,183.4531 129.6875,183.1563 130.4375,182.6094 C131.0156,182.2031 131.3438,181.75 131.3438,181.3594 C131.3438,180.9063 130.9531,180.5156 130.4844,180.5156 C130.2656,180.5156 130.0625,180.5938 129.875,180.7813 C129.4219,181.2656 129.4219,181.2656 129.2344,181.3594 C128.8125,181.625 128.125,181.75 127.3594,181.75 C125.3125,181.75 124.0156,180.6563 124.0156,178.9531 L124.0156,177.8594 C124.0156,176.0781 125.2656,174.7656 127,174.7656 C127.5781,174.7656 128.1875,174.9219 128.6563,175.1719 C129.1406,175.4531 129.3125,175.6719 129.4063,176.0781 C129.4688,176.4844 129.5,176.6094 129.6406,176.7344 C129.7813,176.875 130.0156,176.9844 130.2344,176.9844 C130.5,176.9844 130.7656,176.8438 130.9375,176.625 C131.0469,176.4688 131.0781,176.2813 131.0781,175.8594 L131.0781,174.4375 C131.0781,174 131.0625,173.875 130.9688,173.7188 C130.8125,173.4531 130.5313,173.3125 130.2344,173.3125 C129.9375,173.3125 129.7344,173.4063 129.5156,173.7188 L129.3438,173.6406 Z " fill="#000000"/><text fill="#000000" font-family="FG Virgil" font-size="12" font-style="italic" lengthAdjust="spacing" textLength="80" x="181" y="175.1387">«application»</text><text fill="#000000" font-family="FG Virgil" font-size="12" lengthAdjust="spacing" textLength="160" x="141" y="189.1074">ConsultarTarefasController</text><path d="M113,196.9375 L113,197.2177 L123,196.3851 L133,197.1952 L143,197.4704 L153,195.9863 L163,196.8339 L173,196.3688 L183,196.4262 L193,196.8466 L203,196.0157 L213,197.6757 L223,196.0971 L233,196.6738 L243,197.5134 L253,196.8231 L263,197.0285 L273,196.8949 L283,197.1755 L293,197.2563 L303,196.9375 " fill="#F8F8F8" style="stroke:#383838;stroke-width:1.5;"/><path d="M113,204.9375 L113,205.2177 L123,204.3851 L133,205.1952 L143,205.4704 L153,203.9863 L163,204.8339 L173,204.3688 L183,204.4262 L193,204.8466 L203,204.0157 L213,205.6757 L223,204.0971 L233,204.6738 L243,205.5134 L253,204.8231 L263,205.0285 L273,204.8949 L283,205.1755 L293,205.2563 L303,204.9375 " fill="#F8F8F8" style="stroke:#383838;stroke-width:1.5;"/><text fill="#000000" font-family="FG Virgil" font-size="11" lengthAdjust="spacing" textLength="174" x="118" y="219.1479">tarefasPendentes(listServicos)</text><!--MD5=[e8c189551b7885b999ad7cefb30fc2a3]
class PersistenceContext--><polygon fill="#F8F8F8" points="7,286,7,286.2102,16.8667,285.5857,26.7333,286.1933,36.6,286.3997,46.4667,285.2866,56.3333,285.9223,66.2,285.5735,76.0667,285.6165,85.9333,285.9318,95.8,285.3086,105.6667,286.5536,115.5333,285.3697,125.4,285.8022,135.2667,286.4319,145.1333,285.9142,155,286,155.0682,286,154.9681,296.7875,155.1785,307.575,155.2391,318.3625,155.5857,329.15,155,339.9375,155,340.6086,145.1333,340.6168,135.2667,340.1921,125.4,340.4011,115.5333,340.6397,105.6667,339.2163,95.8,340.616,85.9333,339.641,76.0667,340.4713,66.2,339.4425,56.3333,339.869,46.4667,340.6791,36.6,339.8888,26.7333,340.0428,16.8667,340.2761,7,339.9375,7.4162,339.9375,6.9961,329.15,7.2872,318.3625,6.4276,307.575,7.2844,296.7875,7,286" style="stroke:#383838;stroke-width:1.5;"/><polygon fill="#C2C2C2" points="33.0608,307.6444,31.4484,309.8475,29.5412,313.0745,26.8136,315.2491,23.9474,316.4384,21.662,316.5416,18.7247,315.0543,15.9532,314.0827,13.8495,312.1099,12.7461,309.8515,12.0917,308.0533,11.4506,305.7045,10.41,303.6832,11.2096,301.7098,11.9102,299.548,14.5393,297.8382,16.389,295.6198,18.6784,294.8832,21.4001,294.2488,24.8904,294.6257,26.8021,295.5273,29.0247,295.9359,31.7272,298.7047,32.6693,301.6277,33.0786,303.6221,32.615,306.9086" style="stroke:#383838;stroke-width:1.0;"/><path d="M24.3438,300.6406 C23.4063,300.2031 22.8125,300.0625 21.9375,300.0625 C19.3125,300.0625 17.3125,302.1406 17.3125,304.8594 L17.3125,305.9844 C17.3125,308.5625 19.4219,310.4531 22.3125,310.4531 C23.5313,310.4531 24.6875,310.1563 25.4375,309.6094 C26.0156,309.2031 26.3438,308.75 26.3438,308.3594 C26.3438,307.9063 25.9531,307.5156 25.4844,307.5156 C25.2656,307.5156 25.0625,307.5938 24.875,307.7813 C24.4219,308.2656 24.4219,308.2656 24.2344,308.3594 C23.8125,308.625 23.125,308.75 22.3594,308.75 C20.3125,308.75 19.0156,307.6563 19.0156,305.9531 L19.0156,304.8594 C19.0156,303.0781 20.2656,301.7656 22,301.7656 C22.5781,301.7656 23.1875,301.9219 23.6563,302.1719 C24.1406,302.4531 24.3125,302.6719 24.4063,303.0781 C24.4688,303.4844 24.5,303.6094 24.6406,303.7344 C24.7813,303.875 25.0156,303.9844 25.2344,303.9844 C25.5,303.9844 25.7656,303.8438 25.9375,303.625 C26.0469,303.4688 26.0781,303.2813 26.0781,302.8594 L26.0781,301.4375 C26.0781,301 26.0625,300.875 25.9688,300.7188 C25.8125,300.4531 25.5313,300.3125 25.2344,300.3125 C24.9375,300.3125 24.7344,300.4063 24.5156,300.7188 L24.3438,300.6406 Z " fill="#000000"/><text fill="#000000" font-family="FG Virgil" font-size="12" font-style="italic" lengthAdjust="spacing" textLength="83" x="52.5" y="302.1387">«persistence»</text><text fill="#000000" font-family="FG Virgil" font-size="12" lengthAdjust="spacing" textLength="116" x="36" y="316.1074">PersistenceContext</text><path d="M8,323.9375 L8,324.2177 L17.7333,323.3851 L27.4667,324.1952 L37.2,324.4704 L46.9333,322.9863 L56.6667,323.8339 L66.4,323.3688 L76.1333,323.4262 L85.8667,323.8466 L95.6,323.0157 L105.3333,324.6757 L115.0667,323.0971 L124.8,323.6738 L134.5333,324.5134 L144.2667,323.8231 L154,323.9375 " fill="#F8F8F8" style="stroke:#383838;stroke-width:1.5;"/><path d="M8,331.9375 L8,332.2177 L17.7333,331.3851 L27.4667,332.1952 L37.2,332.4704 L46.9333,330.9863 L56.6667,331.8339 L66.4,331.3688 L76.1333,331.4262 L85.8667,331.8466 L95.6,331.0157 L105.3333,332.6757 L115.0667,331.0971 L124.8,331.6738 L134.5333,332.5134 L144.2667,331.8231 L154,331.9375 " fill="#F8F8F8" style="stroke:#383838;stroke-width:1.5;"/><!--MD5=[48590afff58a68e2fcba47824d6f8a11]
class RepositoryFactory--><polygon fill="#F8F8F8" points="11,400,11,400.2102,21.1429,399.5857,31.2857,400.1933,41.4286,400.3997,51.5714,399.2866,61.7143,399.9223,71.8571,399.5735,82,399.6165,92.1429,399.9318,102.2857,399.3086,112.4286,400.5536,122.5714,399.3697,132.7143,399.8022,142.8571,400.4319,153,400,152.9142,400,153.0682,410.7875,152.9681,421.575,153.1785,432.3625,153.2391,443.15,153,453.9375,153,454.5232,142.8571,454.6086,132.7143,454.6168,122.5714,454.1921,112.4286,454.4011,102.2857,454.6397,92.1429,453.2163,82,454.616,71.8571,453.641,61.7143,454.4713,51.5714,453.4425,41.4286,453.869,31.2857,454.6791,21.1429,453.8888,11,453.9375,11.1053,453.9375,11.3386,443.15,11.4162,432.3625,10.9961,421.575,11.2872,410.7875,11,400" style="stroke:#383838;stroke-width:1.5;"/><polygon fill="#C2C2C2" points="37.0608,421.6444,35.4484,423.8475,33.5412,427.0745,30.8136,429.2491,27.9474,430.4384,25.662,430.5416,22.7247,429.0543,19.9532,428.0827,17.8495,426.1099,16.7461,423.8515,16.0917,422.0533,15.4506,419.7045,14.41,417.6832,15.2096,415.7098,15.9102,413.548,18.5393,411.8382,20.389,409.6198,22.6784,408.8832,25.4001,408.2488,28.8904,408.6257,30.8021,409.5273,33.0247,409.9359,35.7272,412.7047,36.6693,415.6277,37.0786,417.6221,36.615,420.9086" style="stroke:#383838;stroke-width:1.0;"/><path d="M28.3438,414.6406 C27.4063,414.2031 26.8125,414.0625 25.9375,414.0625 C23.3125,414.0625 21.3125,416.1406 21.3125,418.8594 L21.3125,419.9844 C21.3125,422.5625 23.4219,424.4531 26.3125,424.4531 C27.5313,424.4531 28.6875,424.1563 29.4375,423.6094 C30.0156,423.2031 30.3438,422.75 30.3438,422.3594 C30.3438,421.9063 29.9531,421.5156 29.4844,421.5156 C29.2656,421.5156 29.0625,421.5938 28.875,421.7813 C28.4219,422.2656 28.4219,422.2656 28.2344,422.3594 C27.8125,422.625 27.125,422.75 26.3594,422.75 C24.3125,422.75 23.0156,421.6563 23.0156,419.9531 L23.0156,418.8594 C23.0156,417.0781 24.2656,415.7656 26,415.7656 C26.5781,415.7656 27.1875,415.9219 27.6563,416.1719 C28.1406,416.4531 28.3125,416.6719 28.4063,417.0781 C28.4688,417.4844 28.5,417.6094 28.6406,417.7344 C28.7813,417.875 29.0156,417.9844 29.2344,417.9844 C29.5,417.9844 29.7656,417.8438 29.9375,417.625 C30.0469,417.4688 30.0781,417.2813 30.0781,416.8594 L30.0781,415.4375 C30.0781,415 30.0625,414.875 29.9688,414.7188 C29.8125,414.4531 29.5313,414.3125 29.2344,414.3125 C28.9375,414.3125 28.7344,414.4063 28.5156,414.7188 L28.3438,414.6406 Z " fill="#000000"/><text fill="#000000" font-family="FG Virgil" font-size="12" font-style="italic" lengthAdjust="spacing" textLength="56" x="67" y="416.1387">«factory»</text><text fill="#000000" font-family="FG Virgil" font-size="12" lengthAdjust="spacing" textLength="110" x="40" y="430.1074">RepositoryFactory</text><path d="M12,437.9375 L12,438.2177 L22,437.3851 L32,438.1952 L42,438.4704 L52,436.9863 L62,437.8339 L72,437.3688 L82,437.4262 L92,437.8466 L102,437.0157 L112,438.6757 L122,437.0971 L132,437.6738 L142,438.5134 L152,437.9375 " fill="#F8F8F8" style="stroke:#383838;stroke-width:1.5;"/><path d="M12,445.9375 L12,446.2177 L22,445.3851 L32,446.1952 L42,446.4704 L52,444.9863 L62,445.8339 L72,445.3688 L82,445.4262 L92,445.8466 L102,445.0157 L112,446.6757 L122,445.0971 L132,445.6738 L142,446.5134 L152,445.9375 " fill="#F8F8F8" style="stroke:#383838;stroke-width:1.5;"/><!--MD5=[51865f8cbfe0824679c335d6e733f291]
class ServicoRepository--><polygon fill="#F8F8F8" points="73.5,514,73.5,514.2102,83.7143,513.5857,93.9286,514.1933,104.1429,514.3997,114.3571,513.2866,124.5714,513.9223,134.7857,513.5735,145,513.6165,155.2143,513.9318,165.4286,513.3086,175.6429,514.5536,185.8571,513.3697,196.0714,513.8022,206.2857,514.4319,216.5,514,216.4142,514,216.5682,524.7875,216.4681,535.575,216.6785,546.3625,216.7391,557.15,216.5,567.9375,216.5,568.5232,206.2857,568.6086,196.0714,568.6168,185.8571,568.1921,175.6429,568.4011,165.4286,568.6397,155.2143,567.2163,145,568.616,134.7857,567.641,124.5714,568.4713,114.3571,567.4425,104.1429,567.869,93.9286,568.6791,83.7143,567.8888,73.5,567.9375,73.6053,567.9375,73.8386,557.15,73.9162,546.3625,73.4961,535.575,73.7872,524.7875,73.5,514" style="stroke:#383838;stroke-width:1.5;"/><polygon fill="#C2C2C2" points="99.5608,535.6444,97.9484,537.8475,96.0412,541.0745,93.3136,543.2491,90.4474,544.4384,88.162,544.5416,85.2247,543.0543,82.4532,542.0827,80.3495,540.1099,79.2461,537.8515,78.5917,536.0533,77.9506,533.7045,76.91,531.6832,77.7096,529.7098,78.4102,527.548,81.0393,525.8382,82.889,523.6198,85.1784,522.8832,87.9001,522.2488,91.3904,522.6257,93.3021,523.5273,95.5247,523.9359,98.2272,526.7047,99.1693,529.6277,99.5786,531.6221,99.115,534.9086" style="stroke:#383838;stroke-width:1.0;"/><path d="M90.8438,528.6406 C89.9063,528.2031 89.3125,528.0625 88.4375,528.0625 C85.8125,528.0625 83.8125,530.1406 83.8125,532.8594 L83.8125,533.9844 C83.8125,536.5625 85.9219,538.4531 88.8125,538.4531 C90.0313,538.4531 91.1875,538.1563 91.9375,537.6094 C92.5156,537.2031 92.8438,536.75 92.8438,536.3594 C92.8438,535.9063 92.4531,535.5156 91.9844,535.5156 C91.7656,535.5156 91.5625,535.5938 91.375,535.7813 C90.9219,536.2656 90.9219,536.2656 90.7344,536.3594 C90.3125,536.625 89.625,536.75 88.8594,536.75 C86.8125,536.75 85.5156,535.6563 85.5156,533.9531 L85.5156,532.8594 C85.5156,531.0781 86.7656,529.7656 88.5,529.7656 C89.0781,529.7656 89.6875,529.9219 90.1563,530.1719 C90.6406,530.4531 90.8125,530.6719 90.9063,531.0781 C90.9688,531.4844 91,531.6094 91.1406,531.7344 C91.2813,531.875 91.5156,531.9844 91.7344,531.9844 C92,531.9844 92.2656,531.8438 92.4375,531.625 C92.5469,531.4688 92.5781,531.2813 92.5781,530.8594 L92.5781,529.4375 C92.5781,529 92.5625,528.875 92.4688,528.7188 C92.3125,528.4531 92.0313,528.3125 91.7344,528.3125 C91.4375,528.3125 91.2344,528.4063 91.0156,528.7188 L90.8438,528.6406 Z " fill="#000000"/><text fill="#000000" font-family="FG Virgil" font-size="12" font-style="italic" lengthAdjust="spacing" textLength="74" x="121" y="530.1387">«repository»</text><text fill="#000000" font-family="FG Virgil" font-size="12" lengthAdjust="spacing" textLength="111" x="102.5" y="544.1074">ServicoRepository</text><path d="M74.5,551.9375 L74.5,552.2177 L84.5714,551.3851 L94.6429,552.1952 L104.7143,552.4704 L114.7857,550.9863 L124.8571,551.8339 L134.9286,551.3688 L145,551.4262 L155.0714,551.8466 L165.1429,551.0157 L175.2143,552.6757 L185.2857,551.0971 L195.3571,551.6738 L205.4286,552.5134 L215.5,551.9375 " fill="#F8F8F8" style="stroke:#383838;stroke-width:1.5;"/><path d="M74.5,559.9375 L74.5,560.2177 L84.5714,559.3851 L94.6429,560.1952 L104.7143,560.4704 L114.7857,558.9863 L124.8571,559.8339 L134.9286,559.3688 L145,559.4262 L155.0714,559.8466 L165.1429,559.0157 L175.2143,560.6757 L185.2857,559.0971 L195.3571,559.6738 L205.4286,560.5134 L215.5,559.9375 " fill="#F8F8F8" style="stroke:#383838;stroke-width:1.5;"/><!--MD5=[093c210125347143eef5bb9199eae634]
class UserRepository--><polygon fill="#F8F8F8" points="261,286,261,286.2102,270.6923,285.5857,280.3846,286.1933,290.0769,286.3997,299.7692,285.2866,309.4615,285.9223,319.1538,285.5735,328.8462,285.6165,338.5385,285.9318,348.2308,285.3086,357.9231,286.5536,367.6154,285.3697,377.3077,285.8022,387,286,387.4319,286,386.9142,296.7875,387.0682,307.575,386.9681,318.3625,387.1785,329.15,387,339.9375,387,340.1766,377.3077,340.5232,367.6154,340.6086,357.9231,340.6168,348.2308,340.1921,338.5385,340.4011,328.8462,340.6397,319.1538,339.2163,309.4615,340.616,299.7692,339.641,290.0769,340.4713,280.3846,339.4425,270.6923,339.869,261,339.9375,261.7416,339.9375,260.9513,329.15,261.1053,318.3625,261.3386,307.575,261.4162,296.7875,261,286" style="stroke:#383838;stroke-width:1.5;"/><polygon fill="#C2C2C2" points="287.0608,307.6444,285.4484,309.8475,283.5412,313.0745,280.8136,315.2491,277.9474,316.4384,275.662,316.5416,272.7247,315.0543,269.9532,314.0827,267.8495,312.1099,266.7461,309.8515,266.0917,308.0533,265.4506,305.7045,264.41,303.6832,265.2096,301.7098,265.9102,299.548,268.5393,297.8382,270.389,295.6198,272.6784,294.8832,275.4001,294.2488,278.8904,294.6257,280.8021,295.5273,283.0247,295.9359,285.7272,298.7047,286.6693,301.6277,287.0786,303.6221,286.615,306.9086" style="stroke:#383838;stroke-width:1.0;"/><path d="M278.3438,300.6406 C277.4063,300.2031 276.8125,300.0625 275.9375,300.0625 C273.3125,300.0625 271.3125,302.1406 271.3125,304.8594 L271.3125,305.9844 C271.3125,308.5625 273.4219,310.4531 276.3125,310.4531 C277.5313,310.4531 278.6875,310.1563 279.4375,309.6094 C280.0156,309.2031 280.3438,308.75 280.3438,308.3594 C280.3438,307.9063 279.9531,307.5156 279.4844,307.5156 C279.2656,307.5156 279.0625,307.5938 278.875,307.7813 C278.4219,308.2656 278.4219,308.2656 278.2344,308.3594 C277.8125,308.625 277.125,308.75 276.3594,308.75 C274.3125,308.75 273.0156,307.6563 273.0156,305.9531 L273.0156,304.8594 C273.0156,303.0781 274.2656,301.7656 276,301.7656 C276.5781,301.7656 277.1875,301.9219 277.6563,302.1719 C278.1406,302.4531 278.3125,302.6719 278.4063,303.0781 C278.4688,303.4844 278.5,303.6094 278.6406,303.7344 C278.7813,303.875 279.0156,303.9844 279.2344,303.9844 C279.5,303.9844 279.7656,303.8438 279.9375,303.625 C280.0469,303.4688 280.0781,303.2813 280.0781,302.8594 L280.0781,301.4375 C280.0781,301 280.0625,300.875 279.9688,300.7188 C279.8125,300.4531 279.5313,300.3125 279.2344,300.3125 C278.9375,300.3125 278.7344,300.4063 278.5156,300.7188 L278.3438,300.6406 Z " fill="#000000"/><text fill="#000000" font-family="FG Virgil" font-size="12" font-style="italic" lengthAdjust="spacing" textLength="74" x="300" y="302.1387">«repository»</text><text fill="#000000" font-family="FG Virgil" font-size="12" lengthAdjust="spacing" textLength="94" x="290" y="316.1074">UserRepository</text><path d="M262,323.9375 L262,324.2177 L272.3333,323.3851 L282.6667,324.1952 L293,324.4704 L303.3333,322.9863 L313.6667,323.8339 L324,323.3688 L334.3333,323.4262 L344.6667,323.8466 L355,323.0157 L365.3333,324.6757 L375.6667,323.0971 L386,323.9375 " fill="#F8F8F8" style="stroke:#383838;stroke-width:1.5;"/><path d="M262,331.9375 L262,332.2177 L272.3333,331.3851 L282.6667,332.1952 L293,332.4704 L303.3333,330.9863 L313.6667,331.8339 L324,331.3688 L334.3333,331.4262 L344.6667,331.8466 L355,331.0157 L365.3333,332.6757 L375.6667,331.0971 L386,331.9375 " fill="#F8F8F8" style="stroke:#383838;stroke-width:1.5;"/><!--MD5=[2c5ed8deb50efb8fddb80fdc673eca6d]
link ConsultarTarefasUI to ConsultarTarefasController--><path d="M208,99.023 L208.2802,99.023 L207.4476,109.9102 L208.2577,120.7974 L208.5329,131.6846 L207.0488,142.5718 L208,153.459 " fill="none" style="stroke:#383838;stroke-width:1.0;"/><polygon fill="#383838" points="208,158.587,208.064,158.6155,208.6738,156.7309,209.6589,155.0132,210.5217,153.2411,210.9827,151.2904,212,149.587,211.9817,149.5687,211.0995,150.2865,210.3096,151.0966,209.5839,151.9709,208.637,152.624,208,153.587,208.1305,153.7175,207.0514,152.6384,206.3534,151.9404,205.7018,151.2888,204.7798,150.3668,204,149.587,204.0208,149.5962,204.7903,151.3827,205.6544,153.2112,206.4728,155.0194,207.3784,156.8663,208,158.587" style="stroke:#383838;stroke-width:1.0;"/><!--MD5=[16dd1f1f9d0f885e96ec787893a8c2b3]
link ConsultarTarefasController to ServicoRepository--><path d="M204.965,226.276 L205.0579,226.2856 L204.3517,230.4015 L204.1902,234.5739 L203.8514,238.7279 L202.9292,242.8214 L202.8145,246.9986 L202.7802,246.9948 L202.079,251.8626 L201.551,256.7498 L201.1432,261.6504 L200.3208,266.5046 L200.0791,271.4239 L200.3234,271.4536 L199.1356,276.8667 L198.6611,282.3664 L198.2735,287.8767 L197.3796,293.3255 L196.7521,298.8066 L196.7821,298.8106 L195.9528,304.7238 L195.2604,310.6551 L194.502,316.5776 L193.8696,322.5169 L192.8264,328.4016 L193.1215,328.4447 L192.2189,334.6576 L191.1259,340.8428 L190.3116,347.0686 L189.5103,353.2963 L188.2952,359.4637 L187.9788,359.4125 L187.5642,365.8686 L186.1077,372.1562 L185.4433,378.5719 L183.9632,384.8556 L183.1517,391.2475 L183.1217,391.2423 L182.9156,394.4906 L182.0089,397.6157 L181.5156,400.8135 L181.0571,404.0174 L180.3481,407.1773 L180.53,407.2113 L179.7546,410.3431 L179.2899,413.5331 L178.3225,416.629 L178.105,419.8651 L177.3889,423.0081 L177.6278,423.0557 L176.9595,426.1744 L176.4098,429.3167 L175.3089,432.3493 L174.612,435.4623 L174.2731,438.6467 L174.003,438.5891 L173.5929,441.7119 L172.8785,444.7698 L172.6055,447.9218 L171.5787,450.9131 L171,454 L170.8517,453.9644 L170.4207,456.8474 L169.3559,459.5783 L168.7417,462.4173 L168.5686,465.3622 L167.6101,468.1186 L167.797,468.1694 L167.1514,471.0531 L165.9245,473.7789 L165.4256,476.7025 L164.7682,479.583 L163.7411,482.3631 L163.5398,482.3036 L162.883,485.115 L162.1603,487.9068 L161.5671,490.737 L160.4703,493.4183 L159.6548,496.1828 L159.8509,496.2445 L158.6117,498.6777 L157.751,501.2301 L157.4432,503.9565 L156.1174,506.3625 L155.613,509.027 " fill="none" style="stroke:#383838;stroke-width:1.0;"/><polygon fill="#383838" points="154.016,513.927,154.0681,513.9739,155.2319,512.3711,156.7009,511.0433,158.0705,509.6259,159.1133,507.9142,160.6085,506.6099,160.5967,506.5869,159.5355,506.9959,158.5334,507.5213,157.5725,508.1277,156.4698,508.4551,155.5657,509.1732,155.7302,509.2568,154.8658,508.0695,154.4816,507.1262,154.1561,506.2128,153.4896,505.126,153.0024,504.1304,153.025,504.1328,153.1945,506.0887,153.467,508.0552,153.6899,510.0166,154.0075,511.9878,154.016,513.927" style="stroke:#383838;stroke-width:1.0;"/><!--MD5=[2ecfda7ec952e9de715e731b3e39ce73]
link ConsultarTarefasController to UserRepository--><path d="M240.005,226.194 L240.2053,226.39 L246.4384,232.7829 L253.8454,240.325 L260.8702,247.4929 L266.6378,253.4301 L274.0716,260.9984 L280.5674,267.6485 L287.4365,274.6639 L294.63,281.997 " fill="none" style="stroke:#383838;stroke-width:1.0;"/><polygon fill="#383838" points="298.336,285.783,298.4017,285.8074,297.5192,283.8889,297.0216,282.1136,296.3987,280.2917,295.3636,278.3163,294.8991,276.5533,294.8732,276.553,294.7448,277.6831,294.747,278.8145,294.84,279.947,294.6202,281.0761,294.8385,282.2098,294.8405,282.3944,293.705,281.9876,292.5752,282.1197,291.4461,282.3175,290.313,282.1328,289.182,282.1493,289.1904,282.1704,291.0089,282.8661,292.8655,283.6581,294.7038,284.4036,296.5772,285.2377,298.336,285.783" style="stroke:#383838;stroke-width:1.0;"/><!--MD5=[92d8ac77eb240e73ca9456b3298e77b8]
link ConsultarTarefasController to PersistenceContext--><path d="M172.961,226.194 L173.1522,226.3989 L165.1084,232.7655 L158.1853,240.3332 L150.8973,247.5098 L142.4091,253.4 L135.5116,260.9951 L127.7186,267.6305 L120.2819,274.6478 L113.155,281.997 " fill="none" style="stroke:#383838;stroke-width:1.0;"/><polygon fill="#383838" points="109.098,285.783,109.1209,285.8492,110.9147,285.0093,112.8427,284.5576,114.7269,283.9794,116.4676,282.9855,118.407,282.5671,118.4061,282.5412,117.2714,282.386,116.1412,282.3612,115.0142,282.4272,113.8763,282.1805,112.7536,282.3717,112.938,282.3781,112.5827,281.2338,112.7658,280.108,113.0147,278.9846,112.8813,277.8479,112.949,276.7182,112.9699,276.7271,112.169,278.527,111.4634,280.3674,110.7118,282.1883,110.0479,284.0464,109.098,285.783" style="stroke:#383838;stroke-width:1.0;"/><!--MD5=[754b775031405e096442b27febffa290]
link PersistenceContext to RepositoryFactory--><path d="M81.2345,340.259 L81.5147,340.2615 L80.7793,351.1457 L81.6867,362.0445 L82.0591,372.9386 L80.6723,383.8169 L81.7207,394.717 " fill="none" style="stroke:#383838;stroke-width:1.0;"/><polygon fill="#383838" points="81.767,399.905,81.8313,399.9329,82.4243,398.043,83.3942,396.3166,84.2413,394.537,84.685,392.5823,85.6871,390.8699,85.6687,390.8518,84.7928,391.5773,84.0102,392.3944,83.2923,393.2752,82.3512,393.9366,81.7227,394.9052,81.852,395.0368,80.7684,393.9624,80.0624,393.2724,79.4025,392.6293,78.4745,391.7133,77.6874,390.9408,77.7081,390.9502,78.4937,392.7292,79.3734,394.5511,80.2077,396.3523,81.1288,398.193,81.767,399.905" style="stroke:#383838;stroke-width:1.0;"/><!--MD5=[4c2782ef650e763910e10e8b58df1401]
link RepositoryFactory to ServicoRepository--><path d="M96.7707,454.259 L97.015,454.3964 L101.4361,463.1383 L107.2891,472.6855 L112.6758,481.9705 L116.5292,490.393 L122.4148,499.9586 L127.652,509.1595 " fill="none" style="stroke:#383838;stroke-width:1.0;"/><polygon fill="#383838" points="130.322,513.9055,130.3918,513.9121,129.9994,511.9315,130.0159,509.9894,129.8993,508.0349,129.3448,506.0389,129.3964,504.1002,129.3715,504.0932,128.9544,505.1513,128.6631,506.2447,128.4592,507.3625,127.9541,508.3959,127.8709,509.5475,127.9207,509.7252,126.7248,509.0401,125.6742,508.8738,124.6414,508.7708,123.5054,508.2996,122.4236,508.022,122.4372,508.0402,123.9969,509.1902,125.6185,510.4231,127.2103,511.616,128.859,512.8854,130.322,513.9055" style="stroke:#383838;stroke-width:1.0;"/><!--MD5=[2be70d524908760548c200a8ebb289e4]
@startuml
'http://plantuml.com/skinparam.html
skinparam handwritten true
skinparam monochrome true
skinparam packageStyle rect
skinparam defaultFontName FG Virgil
skinparam shadowing false

class ConsultarTarefasUI <<presentation>>
class ConsultarTarefasController <<application>>
class PersistenceContext <<persistence>>
class RepositoryFactory <<factory>>
class ServicoRepository <<repository>>
class UserRepository <<repository>>


ConsultarTarefasUI - -> ConsultarTarefasController
ConsultarTarefasUI : doShow()
ConsultarTarefasUI : listServicos()
ConsultarTarefasUI : listTarefas()

ConsultarTarefasController : tarefasPendentes(listServicos)

ConsultarTarefasController - -> ServicoRepository
ConsultarTarefasController - -> UserRepository
ConsultarTarefasController - -> PersistenceContext
PersistenceContext - -> RepositoryFactory

RepositoryFactory - -> ServicoRepository
@enduml

@startuml
skinparam handwritten true
skinparam monochrome true
skinparam packageStyle rect
skinparam defaultFontName FG Virgil
skinparam shadowing false

class ConsultarTarefasUI <<presentation>>
class ConsultarTarefasController <<application>>
class PersistenceContext <<persistence>>
class RepositoryFactory <<factory>>
class ServicoRepository <<repository>>
class UserRepository <<repository>>


ConsultarTarefasUI - -> ConsultarTarefasController
ConsultarTarefasUI : doShow()
ConsultarTarefasUI : listServicos()
ConsultarTarefasUI : listTarefas()

ConsultarTarefasController : tarefasPendentes(listServicos)

ConsultarTarefasController - -> ServicoRepository
ConsultarTarefasController - -> UserRepository
ConsultarTarefasController - -> PersistenceContext
PersistenceContext - -> RepositoryFactory

RepositoryFactory - -> ServicoRepository
@enduml

PlantUML version 1.2021.7beta2(Unknown compile time)
(GPL source distribution)
Java Runtime: Java(TM) SE Runtime Environment
JVM: Java HotSpot(TM) 64-Bit Server VM
Default Encoding: UTF-8
Language: en
Country: US
--></g></svg>