<?xml version="1.0" encoding="UTF-8" standalone="no"?><svg xmlns="http://www.w3.org/2000/svg" xmlns:xlink="http://www.w3.org/1999/xlink" contentScriptType="application/ecmascript" contentStyleType="text/css" height="638px" preserveAspectRatio="none" style="width:375px;height:638px;background:#FFFFFF;" version="1.1" viewBox="0 0 375 638" width="375px" zoomAndPan="magnify"><defs/><g><!--MD5=[afdac0f740b27b59a461bf6006ee1289]
class ConsultarTarefasUI--><polygon fill="#F8F8F8" points="72,7,72,7.2102,81.9,6.5857,91.8,7.1933,101.7,7.3997,111.6,6.2866,121.5,6.9223,131.4,6.5735,141.3,6.6165,151.2,6.9318,161.1,6.3086,171,7.5536,180.9,6.3697,190.8,6.8022,200.7,7.4319,210.6,6.9142,220.5,7.0682,230.4,6.9681,240.3,7.1785,250.2,7.2391,260.1,7.5857,270,7,270.6711,7,270.6793,16.8301,270.2546,26.6602,270.4636,36.4902,270.7022,46.3203,269.2788,56.1504,270.6785,65.9805,269.7035,75.8105,270.5338,85.6406,269.505,95.4707,269.9315,105.3008,270.7416,115.1309,270,124.9609,270,124.9122,260.1,125.0662,250.2,125.2996,240.3,125.3772,230.4,124.957,220.5,125.2482,210.6,124.3885,200.7,125.2453,190.8,125.5091,180.9,125.4055,171,125.574,161.1,124.4779,151.2,124.3088,141.3,124.3395,131.4,124.9021,121.5,124.7644,111.6,125.6423,101.7,124.7863,91.8,124.6179,81.9,125.1892,72,124.9609,71.3332,124.9609,71.4809,115.1309,72.649,105.3008,72.4357,95.4707,72.7345,85.6406,71.6782,75.8105,72.3192,65.9805,72.5904,56.1504,71.5276,46.3203,71.9041,36.4902,72.126,26.6602,72.6518,16.8301,72,7" style="stroke:#383838;stroke-width:1.5;"/><polygon fill="#C2C2C2" points="121.9108,28.6444,120.2984,30.8475,118.3912,34.0745,115.6636,36.2491,112.7974,37.4384,110.512,37.5416,107.5747,36.0543,104.8032,35.0827,102.6995,33.1099,101.5961,30.8515,100.9417,29.0533,100.3006,26.7045,99.26,24.6832,100.0596,22.7098,100.7602,20.548,103.3893,18.8382,105.239,16.6198,107.5284,15.8832,110.2501,15.2488,113.7404,15.6257,115.6521,16.5273,117.8747,16.9359,120.5772,19.7047,121.5193,22.6277,121.9286,24.6221,121.465,27.9086" style="stroke:#383838;stroke-width:1.0;"/><path d="M113.1938,21.6406 C112.2563,21.2031 111.6625,21.0625 110.7875,21.0625 C108.1625,21.0625 106.1625,23.1406 106.1625,25.8594 L106.1625,26.9844 C106.1625,29.5625 108.2719,31.4531 111.1625,31.4531 C112.3813,31.4531 113.5375,31.1563 114.2875,30.6094 C114.8656,30.2031 115.1938,29.75 115.1938,29.3594 C115.1938,28.9063 114.8031,28.5156 114.3344,28.5156 C114.1156,28.5156 113.9125,28.5938 113.725,28.7813 C113.2719,29.2656 113.2719,29.2656 113.0844,29.3594 C112.6625,29.625 111.975,29.75 111.2094,29.75 C109.1625,29.75 107.8656,28.6563 107.8656,26.9531 L107.8656,25.8594 C107.8656,24.0781 109.1156,22.7656 110.85,22.7656 C111.4281,22.7656 112.0375,22.9219 112.5063,23.1719 C112.9906,23.4531 113.1625,23.6719 113.2563,24.0781 C113.3188,24.4844 113.35,24.6094 113.4906,24.7344 C113.6313,24.875 113.8656,24.9844 114.0844,24.9844 C114.35,24.9844 114.6156,24.8438 114.7875,24.625 C114.8969,24.4688 114.9281,24.2813 114.9281,23.8594 L114.9281,22.4375 C114.9281,22 114.9125,21.875 114.8188,21.7188 C114.6625,21.4531 114.3813,21.3125 114.0844,21.3125 C113.7875,21.3125 113.5844,21.4063 113.3656,21.7188 L113.1938,21.6406 Z " fill="#000000"/><text fill="#000000" font-family="FG Virgil" font-size="12" font-style="italic" lengthAdjust="spacing" textLength="90" x="141.65" y="23.1387">«presentation»</text><text fill="#000000" font-family="FG Virgil" font-size="12" lengthAdjust="spacing" textLength="113" x="130.15" y="37.1074">ConsultarTarefasUI</text><path d="M73,44.9375 L73,45.2177 L82.8,44.3851 L92.6,45.1952 L102.4,45.4704 L112.2,43.9863 L122,44.8339 L131.8,44.3688 L141.6,44.4262 L151.4,44.8466 L161.2,44.0157 L171,45.6757 L180.8,44.0971 L190.6,44.6738 L200.4,45.5134 L210.2,44.8231 L220,45.0285 L229.8,44.8949 L239.6,45.1755 L249.4,45.2563 L259.2,45.7184 L269,44.9375 " fill="#F8F8F8" style="stroke:#383838;stroke-width:1.5;"/><path d="M73,52.9375 L73,53.2177 L82.8,52.3851 L92.6,53.1952 L102.4,53.4704 L112.2,51.9863 L122,52.8339 L131.8,52.3688 L141.6,52.4262 L151.4,52.8466 L161.2,52.0157 L171,53.6757 L180.8,52.0971 L190.6,52.6738 L200.4,53.5134 L210.2,52.8231 L220,53.0285 L229.8,52.8949 L239.6,53.1755 L249.4,53.2563 L259.2,53.7184 L269,52.9375 " fill="#F8F8F8" style="stroke:#383838;stroke-width:1.5;"/><text fill="#000000" font-family="FG Virgil" font-size="11" lengthAdjust="spacing" textLength="53" x="78" y="67.1479">doShow()</text><text fill="#000000" font-family="FG Virgil" font-size="11" lengthAdjust="spacing" textLength="53" x="78" y="79.9526">getUser()</text><text fill="#000000" font-family="FG Virgil" font-size="11" lengthAdjust="spacing" textLength="139" x="78" y="92.7573">tarefasPendentes(colab)</text><text fill="#000000" font-family="FG Virgil" font-size="11" lengthAdjust="spacing" textLength="171" x="78" y="105.562">filtrarTarefasPendentes(colab)</text><text fill="#000000" font-family="FG Virgil" font-size="11" lengthAdjust="spacing" textLength="186" x="78" y="118.3667">ordenarTarefasPendentes(colab)</text><!--MD5=[d3c8e35004c6548e2936e691f162b2fb]
class ConsultarTarefasController--><polygon fill="#F8F8F8" points="72,185,72,185.2102,81.9,184.5857,91.8,185.1933,101.7,185.3997,111.6,184.2866,121.5,184.9223,131.4,184.5735,141.3,184.6165,151.2,184.9318,161.1,184.3086,171,185.5536,180.9,184.3697,190.8,184.8022,200.7,185.4319,210.6,184.9142,220.5,185.0682,230.4,184.9681,240.3,185.1785,250.2,185.2391,260.1,185.5857,270,185,270.6711,185,270.6793,194.5597,270.2546,204.1193,270.4636,213.679,270.7022,223.2386,269.2788,232.7983,270.6785,242.358,269.7035,251.9176,270.5338,261.4773,269.505,271.0369,269.9315,280.5966,270,290.1563,270,290.8979,260.1,290.1075,250.2,290.2616,240.3,290.4949,230.4,290.5725,220.5,290.1523,210.6,290.4435,200.7,289.5838,190.8,290.4406,180.9,290.7044,171,290.6008,161.1,290.7693,151.2,289.6732,141.3,289.5041,131.4,289.5348,121.5,290.0974,111.6,289.9597,101.7,290.8377,91.8,289.9816,81.9,289.8132,72,290.1563,72.2283,290.1563,71.3332,280.5966,71.4809,271.0369,72.649,261.4773,72.4357,251.9176,72.7345,242.358,71.6782,232.7983,72.3192,223.2386,72.5904,213.679,71.5276,204.1193,71.9041,194.5597,72,185" style="stroke:#383838;stroke-width:1.5;"/><polygon fill="#C2C2C2" points="100.7608,206.6444,99.1484,208.8475,97.2412,212.0745,94.5136,214.2491,91.6474,215.4384,89.362,215.5416,86.4247,214.0543,83.6532,213.0827,81.5495,211.1099,80.4461,208.8515,79.7917,207.0533,79.1506,204.7045,78.11,202.6832,78.9096,200.7098,79.6102,198.548,82.2393,196.8382,84.089,194.6198,86.3784,193.8832,89.1001,193.2488,92.5904,193.6257,94.5021,194.5273,96.7247,194.9359,99.4272,197.7047,100.3693,200.6277,100.7786,202.6221,100.315,205.9086" style="stroke:#383838;stroke-width:1.0;"/><path d="M92.0438,199.6406 C91.1063,199.2031 90.5125,199.0625 89.6375,199.0625 C87.0125,199.0625 85.0125,201.1406 85.0125,203.8594 L85.0125,204.9844 C85.0125,207.5625 87.1219,209.4531 90.0125,209.4531 C91.2313,209.4531 92.3875,209.1563 93.1375,208.6094 C93.7156,208.2031 94.0438,207.75 94.0438,207.3594 C94.0438,206.9063 93.6531,206.5156 93.1844,206.5156 C92.9656,206.5156 92.7625,206.5938 92.575,206.7813 C92.1219,207.2656 92.1219,207.2656 91.9344,207.3594 C91.5125,207.625 90.825,207.75 90.0594,207.75 C88.0125,207.75 86.7156,206.6563 86.7156,204.9531 L86.7156,203.8594 C86.7156,202.0781 87.9656,200.7656 89.7,200.7656 C90.2781,200.7656 90.8875,200.9219 91.3563,201.1719 C91.8406,201.4531 92.0125,201.6719 92.1063,202.0781 C92.1688,202.4844 92.2,202.6094 92.3406,202.7344 C92.4813,202.875 92.7156,202.9844 92.9344,202.9844 C93.2,202.9844 93.4656,202.8438 93.6375,202.625 C93.7469,202.4688 93.7781,202.2813 93.7781,201.8594 L93.7781,200.4375 C93.7781,200 93.7625,199.875 93.6688,199.7188 C93.5125,199.4531 93.2313,199.3125 92.9344,199.3125 C92.6375,199.3125 92.4344,199.4063 92.2156,199.7188 L92.0438,199.6406 Z " fill="#000000"/><text fill="#000000" font-family="FG Virgil" font-size="12" font-style="italic" lengthAdjust="spacing" textLength="80" x="144.3" y="201.1387">«application»</text><text fill="#000000" font-family="FG Virgil" font-size="12" lengthAdjust="spacing" textLength="160" x="104.3" y="215.1074">ConsultarTarefasController</text><path d="M73,222.9375 L73,223.2177 L82.8,222.3851 L92.6,223.1952 L102.4,223.4704 L112.2,221.9863 L122,222.8339 L131.8,222.3688 L141.6,222.4262 L151.4,222.8466 L161.2,222.0157 L171,223.6757 L180.8,222.0971 L190.6,222.6738 L200.4,223.5134 L210.2,222.8231 L220,223.0285 L229.8,222.8949 L239.6,223.1755 L249.4,223.2563 L259.2,223.7184 L269,222.9375 " fill="#F8F8F8" style="stroke:#383838;stroke-width:1.5;"/><path d="M73,230.9375 L73,231.2177 L82.8,230.3851 L92.6,231.1952 L102.4,231.4704 L112.2,229.9863 L122,230.8339 L131.8,230.3688 L141.6,230.4262 L151.4,230.8466 L161.2,230.0157 L171,231.6757 L180.8,230.0971 L190.6,230.6738 L200.4,231.5134 L210.2,230.8231 L220,231.0285 L229.8,230.8949 L239.6,231.1755 L249.4,231.2563 L259.2,231.7184 L269,230.9375 " fill="#F8F8F8" style="stroke:#383838;stroke-width:1.5;"/><text fill="#000000" font-family="FG Virgil" font-size="11" lengthAdjust="spacing" textLength="53" x="78" y="245.1479">getUser()</text><text fill="#000000" font-family="FG Virgil" font-size="11" lengthAdjust="spacing" textLength="139" x="78" y="257.9526">tarefasPendentes(colab)</text><text fill="#000000" font-family="FG Virgil" font-size="11" lengthAdjust="spacing" textLength="171" x="78" y="270.7573">filtrarTarefasPendentes(colab)</text><text fill="#000000" font-family="FG Virgil" font-size="11" lengthAdjust="spacing" textLength="186" x="78" y="283.562">ordenarTarefasPendentes(colab)</text><!--MD5=[e8c189551b7885b999ad7cefb30fc2a3]
class PersistenceContext--><polygon fill="#F8F8F8" points="97,350,97,350.2102,106.8667,349.5857,116.7333,350.1933,126.6,350.3997,136.4667,349.2866,146.3333,349.9223,156.2,349.5735,166.0667,349.6165,175.9333,349.9318,185.8,349.3086,195.6667,350.5536,205.5333,349.3697,215.4,349.8022,225.2667,350.4319,235.1333,349.9142,245,350,245.0682,350,244.9681,360.7875,245.1785,371.575,245.2391,382.3625,245.5857,393.15,245,403.9375,245,404.6086,235.1333,404.6168,225.2667,404.1921,215.4,404.4011,205.5333,404.6397,195.6667,403.2163,185.8,404.616,175.9333,403.641,166.0667,404.4713,156.2,403.4425,146.3333,403.869,136.4667,404.6791,126.6,403.8888,116.7333,404.0428,106.8667,404.2761,97,403.9375,97.4162,403.9375,96.9961,393.15,97.2872,382.3625,96.4276,371.575,97.2844,360.7875,97,350" style="stroke:#383838;stroke-width:1.5;"/><polygon fill="#C2C2C2" points="123.0608,371.6444,121.4484,373.8475,119.5412,377.0745,116.8136,379.2491,113.9474,380.4384,111.662,380.5416,108.7247,379.0543,105.9532,378.0827,103.8495,376.1099,102.7461,373.8515,102.0917,372.0533,101.4506,369.7045,100.41,367.6832,101.2096,365.7098,101.9102,363.548,104.5393,361.8382,106.389,359.6198,108.6784,358.8832,111.4001,358.2488,114.8904,358.6257,116.8021,359.5273,119.0247,359.9359,121.7272,362.7047,122.6693,365.6277,123.0786,367.6221,122.615,370.9086" style="stroke:#383838;stroke-width:1.0;"/><path d="M114.3438,364.6406 C113.4063,364.2031 112.8125,364.0625 111.9375,364.0625 C109.3125,364.0625 107.3125,366.1406 107.3125,368.8594 L107.3125,369.9844 C107.3125,372.5625 109.4219,374.4531 112.3125,374.4531 C113.5313,374.4531 114.6875,374.1563 115.4375,373.6094 C116.0156,373.2031 116.3438,372.75 116.3438,372.3594 C116.3438,371.9063 115.9531,371.5156 115.4844,371.5156 C115.2656,371.5156 115.0625,371.5938 114.875,371.7813 C114.4219,372.2656 114.4219,372.2656 114.2344,372.3594 C113.8125,372.625 113.125,372.75 112.3594,372.75 C110.3125,372.75 109.0156,371.6563 109.0156,369.9531 L109.0156,368.8594 C109.0156,367.0781 110.2656,365.7656 112,365.7656 C112.5781,365.7656 113.1875,365.9219 113.6563,366.1719 C114.1406,366.4531 114.3125,366.6719 114.4063,367.0781 C114.4688,367.4844 114.5,367.6094 114.6406,367.7344 C114.7813,367.875 115.0156,367.9844 115.2344,367.9844 C115.5,367.9844 115.7656,367.8438 115.9375,367.625 C116.0469,367.4688 116.0781,367.2813 116.0781,366.8594 L116.0781,365.4375 C116.0781,365 116.0625,364.875 115.9688,364.7188 C115.8125,364.4531 115.5313,364.3125 115.2344,364.3125 C114.9375,364.3125 114.7344,364.4063 114.5156,364.7188 L114.3438,364.6406 Z " fill="#000000"/><text fill="#000000" font-family="FG Virgil" font-size="12" font-style="italic" lengthAdjust="spacing" textLength="83" x="142.5" y="366.1387">«persistence»</text><text fill="#000000" font-family="FG Virgil" font-size="12" lengthAdjust="spacing" textLength="116" x="126" y="380.1074">PersistenceContext</text><path d="M98,387.9375 L98,388.2177 L107.7333,387.3851 L117.4667,388.1952 L127.2,388.4704 L136.9333,386.9863 L146.6667,387.8339 L156.4,387.3688 L166.1333,387.4262 L175.8667,387.8466 L185.6,387.0157 L195.3333,388.6757 L205.0667,387.0971 L214.8,387.6738 L224.5333,388.5134 L234.2667,387.8231 L244,387.9375 " fill="#F8F8F8" style="stroke:#383838;stroke-width:1.5;"/><path d="M98,395.9375 L98,396.2177 L107.7333,395.3851 L117.4667,396.1952 L127.2,396.4704 L136.9333,394.9863 L146.6667,395.8339 L156.4,395.3688 L166.1333,395.4262 L175.8667,395.8466 L185.6,395.0157 L195.3333,396.6757 L205.0667,395.0971 L214.8,395.6738 L224.5333,396.5134 L234.2667,395.8231 L244,395.9375 " fill="#F8F8F8" style="stroke:#383838;stroke-width:1.5;"/><!--MD5=[48590afff58a68e2fcba47824d6f8a11]
class RepositoryFactory--><polygon fill="#F8F8F8" points="100,464,100,464.2102,110.1429,463.5857,120.2857,464.1933,130.4286,464.3997,140.5714,463.2866,150.7143,463.9223,160.8571,463.5735,171,463.6165,181.1429,463.9318,191.2857,463.3086,201.4286,464.5536,211.5714,463.3697,221.7143,463.8022,231.8571,464.4319,242,464,241.9142,464,242.0682,474.7875,241.9681,485.575,242.1785,496.3625,242.2391,507.15,242,517.9375,242,518.5232,231.8571,518.6086,221.7143,518.6168,211.5714,518.1921,201.4286,518.4011,191.2857,518.6397,181.1429,517.2163,171,518.616,160.8571,517.641,150.7143,518.4713,140.5714,517.4425,130.4286,517.869,120.2857,518.6791,110.1429,517.8888,100,517.9375,100.1053,517.9375,100.3386,507.15,100.4162,496.3625,99.9961,485.575,100.2872,474.7875,100,464" style="stroke:#383838;stroke-width:1.5;"/><polygon fill="#C2C2C2" points="126.0608,485.6444,124.4484,487.8475,122.5412,491.0745,119.8136,493.2491,116.9474,494.4384,114.662,494.5416,111.7247,493.0543,108.9532,492.0827,106.8495,490.1099,105.7461,487.8515,105.0917,486.0533,104.4506,483.7045,103.41,481.6832,104.2096,479.7098,104.9102,477.548,107.5393,475.8382,109.389,473.6198,111.6784,472.8832,114.4001,472.2488,117.8904,472.6257,119.8021,473.5273,122.0247,473.9359,124.7272,476.7047,125.6693,479.6277,126.0786,481.6221,125.615,484.9086" style="stroke:#383838;stroke-width:1.0;"/><path d="M117.3438,478.6406 C116.4063,478.2031 115.8125,478.0625 114.9375,478.0625 C112.3125,478.0625 110.3125,480.1406 110.3125,482.8594 L110.3125,483.9844 C110.3125,486.5625 112.4219,488.4531 115.3125,488.4531 C116.5313,488.4531 117.6875,488.1563 118.4375,487.6094 C119.0156,487.2031 119.3438,486.75 119.3438,486.3594 C119.3438,485.9063 118.9531,485.5156 118.4844,485.5156 C118.2656,485.5156 118.0625,485.5938 117.875,485.7813 C117.4219,486.2656 117.4219,486.2656 117.2344,486.3594 C116.8125,486.625 116.125,486.75 115.3594,486.75 C113.3125,486.75 112.0156,485.6563 112.0156,483.9531 L112.0156,482.8594 C112.0156,481.0781 113.2656,479.7656 115,479.7656 C115.5781,479.7656 116.1875,479.9219 116.6563,480.1719 C117.1406,480.4531 117.3125,480.6719 117.4063,481.0781 C117.4688,481.4844 117.5,481.6094 117.6406,481.7344 C117.7813,481.875 118.0156,481.9844 118.2344,481.9844 C118.5,481.9844 118.7656,481.8438 118.9375,481.625 C119.0469,481.4688 119.0781,481.2813 119.0781,480.8594 L119.0781,479.4375 C119.0781,479 119.0625,478.875 118.9688,478.7188 C118.8125,478.4531 118.5313,478.3125 118.2344,478.3125 C117.9375,478.3125 117.7344,478.4063 117.5156,478.7188 L117.3438,478.6406 Z " fill="#000000"/><text fill="#000000" font-family="FG Virgil" font-size="12" font-style="italic" lengthAdjust="spacing" textLength="56" x="156" y="480.1387">«factory»</text><text fill="#000000" font-family="FG Virgil" font-size="12" lengthAdjust="spacing" textLength="110" x="129" y="494.1074">RepositoryFactory</text><path d="M101,501.9375 L101,502.2177 L111,501.3851 L121,502.1952 L131,502.4704 L141,500.9863 L151,501.8339 L161,501.3688 L171,501.4262 L181,501.8466 L191,501.0157 L201,502.6757 L211,501.0971 L221,501.6738 L231,502.5134 L241,501.9375 " fill="#F8F8F8" style="stroke:#383838;stroke-width:1.5;"/><path d="M101,509.9375 L101,510.2177 L111,509.3851 L121,510.1952 L131,510.4704 L141,508.9863 L151,509.8339 L161,509.3688 L171,509.4262 L181,509.8466 L191,509.0157 L201,510.6757 L211,509.0971 L221,509.6738 L231,510.5134 L241,509.9375 " fill="#F8F8F8" style="stroke:#383838;stroke-width:1.5;"/><!--MD5=[9d9dca655b7d777fd61537967bcfba5b]
class PedidoRepository--><polygon fill="#F8F8F8" points="7,578,7,578.2102,16.8571,577.5857,26.7143,578.1933,36.5714,578.3997,46.4286,577.2866,56.2857,577.9223,66.1429,577.5735,76,577.6165,85.8571,577.9318,95.7143,577.3086,105.5714,578.5536,115.4286,577.3697,125.2857,577.8022,135.1429,578.4319,145,578,144.9142,578,145.0682,588.7875,144.9681,599.575,145.1785,610.3625,145.2391,621.15,145,631.9375,145,632.5232,135.1429,632.6086,125.2857,632.6168,115.4286,632.1921,105.5714,632.4011,95.7143,632.6397,85.8571,631.2163,76,632.616,66.1429,631.641,56.2857,632.4713,46.4286,631.4425,36.5714,631.869,26.7143,632.6791,16.8571,631.8888,7,631.9375,7.1053,631.9375,7.3386,621.15,7.4162,610.3625,6.9961,599.575,7.2872,588.7875,7,578" style="stroke:#383838;stroke-width:1.5;"/><polygon fill="#C2C2C2" points="33.0608,599.6444,31.4484,601.8475,29.5412,605.0745,26.8136,607.2491,23.9474,608.4384,21.662,608.5416,18.7247,607.0543,15.9532,606.0827,13.8495,604.1099,12.7461,601.8515,12.0917,600.0533,11.4506,597.7045,10.41,595.6832,11.2096,593.7098,11.9102,591.548,14.5393,589.8382,16.389,587.6198,18.6784,586.8832,21.4001,586.2488,24.8904,586.6257,26.8021,587.5273,29.0247,587.9359,31.7272,590.7047,32.6693,593.6277,33.0786,595.6221,32.615,598.9086" style="stroke:#383838;stroke-width:1.0;"/><path d="M24.3438,592.6406 C23.4063,592.2031 22.8125,592.0625 21.9375,592.0625 C19.3125,592.0625 17.3125,594.1406 17.3125,596.8594 L17.3125,597.9844 C17.3125,600.5625 19.4219,602.4531 22.3125,602.4531 C23.5313,602.4531 24.6875,602.1563 25.4375,601.6094 C26.0156,601.2031 26.3438,600.75 26.3438,600.3594 C26.3438,599.9063 25.9531,599.5156 25.4844,599.5156 C25.2656,599.5156 25.0625,599.5938 24.875,599.7813 C24.4219,600.2656 24.4219,600.2656 24.2344,600.3594 C23.8125,600.625 23.125,600.75 22.3594,600.75 C20.3125,600.75 19.0156,599.6563 19.0156,597.9531 L19.0156,596.8594 C19.0156,595.0781 20.2656,593.7656 22,593.7656 C22.5781,593.7656 23.1875,593.9219 23.6563,594.1719 C24.1406,594.4531 24.3125,594.6719 24.4063,595.0781 C24.4688,595.4844 24.5,595.6094 24.6406,595.7344 C24.7813,595.875 25.0156,595.9844 25.2344,595.9844 C25.5,595.9844 25.7656,595.8438 25.9375,595.625 C26.0469,595.4688 26.0781,595.2813 26.0781,594.8594 L26.0781,593.4375 C26.0781,593 26.0625,592.875 25.9688,592.7188 C25.8125,592.4531 25.5313,592.3125 25.2344,592.3125 C24.9375,592.3125 24.7344,592.4063 24.5156,592.7188 L24.3438,592.6406 Z " fill="#000000"/><text fill="#000000" font-family="FG Virgil" font-size="12" font-style="italic" lengthAdjust="spacing" textLength="74" x="52" y="594.1387">«repository»</text><text fill="#000000" font-family="FG Virgil" font-size="12" lengthAdjust="spacing" textLength="106" x="36" y="608.1074">PedidoRepository</text><path d="M8,615.9375 L8,616.2177 L17.7143,615.3851 L27.4286,616.1952 L37.1429,616.4704 L46.8571,614.9863 L56.5714,615.8339 L66.2857,615.3688 L76,615.4262 L85.7143,615.8466 L95.4286,615.0157 L105.1429,616.6757 L114.8571,615.0971 L124.5714,615.6738 L134.2857,616.5134 L144,615.9375 " fill="#F8F8F8" style="stroke:#383838;stroke-width:1.5;"/><path d="M8,623.9375 L8,624.2177 L17.7143,623.3851 L27.4286,624.1952 L37.1429,624.4704 L46.8571,622.9863 L56.5714,623.8339 L66.2857,623.3688 L76,623.4262 L85.7143,623.8466 L95.4286,623.0157 L105.1429,624.6757 L114.8571,623.0971 L124.5714,623.6738 L134.2857,624.5134 L144,623.9375 " fill="#F8F8F8" style="stroke:#383838;stroke-width:1.5;"/><!--MD5=[9a0e8f7957502662f95e783c1c3d84fe]
class ColaboradorRepository--><polygon fill="#F8F8F8" points="196,578,196,578.2102,206.1176,577.5857,216.2353,578.1933,226.3529,578.3997,236.4706,577.2866,246.5882,577.9223,256.7059,577.5735,266.8235,577.6165,276.9412,577.9318,287.0588,577.3086,297.1765,578.5536,307.2941,577.3697,317.4118,577.8022,327.5294,578.4319,337.6471,577.9142,347.7647,578.0682,357.8824,577.9681,368,578,368.1785,578,368.2391,588.7875,368.5857,599.575,368.6711,610.3625,368.6793,621.15,368,631.9375,368,632.1921,357.8824,632.4011,347.7647,632.6397,337.6471,631.2163,327.5294,632.616,317.4118,631.641,307.2941,632.4713,297.1765,631.4425,287.0588,631.869,276.9412,632.6791,266.8235,631.8888,256.7059,632.0428,246.5882,632.2761,236.4706,632.3537,226.3529,631.9336,216.2353,632.2247,206.1176,631.3651,196,631.9375,196.2844,631.9375,196.5482,621.15,196.4445,610.3625,196.613,599.575,195.5169,588.7875,196,578" style="stroke:#383838;stroke-width:1.5;"/><polygon fill="#C2C2C2" points="222.0608,599.6444,220.4484,601.8475,218.5412,605.0745,215.8136,607.2491,212.9474,608.4384,210.662,608.5416,207.7247,607.0543,204.9532,606.0827,202.8495,604.1099,201.7461,601.8515,201.0917,600.0533,200.4506,597.7045,199.41,595.6832,200.2096,593.7098,200.9102,591.548,203.5393,589.8382,205.389,587.6198,207.6784,586.8832,210.4001,586.2488,213.8904,586.6257,215.8021,587.5273,218.0247,587.9359,220.7272,590.7047,221.6693,593.6277,222.0786,595.6221,221.615,598.9086" style="stroke:#383838;stroke-width:1.0;"/><path d="M213.3438,592.6406 C212.4063,592.2031 211.8125,592.0625 210.9375,592.0625 C208.3125,592.0625 206.3125,594.1406 206.3125,596.8594 L206.3125,597.9844 C206.3125,600.5625 208.4219,602.4531 211.3125,602.4531 C212.5313,602.4531 213.6875,602.1563 214.4375,601.6094 C215.0156,601.2031 215.3438,600.75 215.3438,600.3594 C215.3438,599.9063 214.9531,599.5156 214.4844,599.5156 C214.2656,599.5156 214.0625,599.5938 213.875,599.7813 C213.4219,600.2656 213.4219,600.2656 213.2344,600.3594 C212.8125,600.625 212.125,600.75 211.3594,600.75 C209.3125,600.75 208.0156,599.6563 208.0156,597.9531 L208.0156,596.8594 C208.0156,595.0781 209.2656,593.7656 211,593.7656 C211.5781,593.7656 212.1875,593.9219 212.6563,594.1719 C213.1406,594.4531 213.3125,594.6719 213.4063,595.0781 C213.4688,595.4844 213.5,595.6094 213.6406,595.7344 C213.7813,595.875 214.0156,595.9844 214.2344,595.9844 C214.5,595.9844 214.7656,595.8438 214.9375,595.625 C215.0469,595.4688 215.0781,595.2813 215.0781,594.8594 L215.0781,593.4375 C215.0781,593 215.0625,592.875 214.9688,592.7188 C214.8125,592.4531 214.5313,592.3125 214.2344,592.3125 C213.9375,592.3125 213.7344,592.4063 213.5156,592.7188 L213.3438,592.6406 Z " fill="#000000"/><text fill="#000000" font-family="FG Virgil" font-size="12" font-style="italic" lengthAdjust="spacing" textLength="74" x="258" y="594.1387">«repository»</text><text fill="#000000" font-family="FG Virgil" font-size="12" lengthAdjust="spacing" textLength="140" x="225" y="608.1074">ColaboradorRepository</text><path d="M197,615.9375 L197,616.2177 L207,615.3851 L217,616.1952 L227,616.4704 L237,614.9863 L247,615.8339 L257,615.3688 L267,615.4262 L277,615.8466 L287,615.0157 L297,616.6757 L307,615.0971 L317,615.6738 L327,616.5134 L337,615.8231 L347,616.0285 L357,615.8949 L367,615.9375 " fill="#F8F8F8" style="stroke:#383838;stroke-width:1.5;"/><path d="M197,623.9375 L197,624.2177 L207,623.3851 L217,624.1952 L227,624.4704 L237,622.9863 L247,623.8339 L257,623.3688 L267,623.4262 L277,623.8466 L287,623.0157 L297,624.6757 L307,623.0971 L317,623.6738 L327,624.5134 L337,623.8231 L347,624.0285 L357,623.8949 L367,623.9375 " fill="#F8F8F8" style="stroke:#383838;stroke-width:1.5;"/><!--MD5=[2c5ed8deb50efb8fddb80fdc673eca6d]
link ConsultarTarefasUI to ConsultarTarefasController--><path d="M171,125.332 L171.2802,125.332 L170.4476,136.1678 L171.2577,147.0036 L171.5329,157.8394 L170.0488,168.6752 L171,179.511 " fill="none" style="stroke:#383838;stroke-width:1.0;"/><polygon fill="#383838" points="171,184.864,171.064,184.8925,171.6738,183.0079,172.6589,181.2902,173.5217,179.5181,173.9827,177.5674,175,175.864,174.9817,175.8457,174.0995,176.5635,173.3096,177.3736,172.5839,178.2479,171.637,178.901,171,179.864,171.1305,179.9945,170.0514,178.9154,169.3534,178.2174,168.7018,177.5658,167.7798,176.6438,167,175.864,167.0208,175.8732,167.7903,177.6597,168.6544,179.4882,169.4728,181.2964,170.3784,183.1433,171,184.864" style="stroke:#383838;stroke-width:1.0;"/><!--MD5=[f0315e309c2c2e445cdfa86ba7bfab94]
link ConsultarTarefasController to PedidoRepository--><path d="M116.758,290.281 L116.8311,290.3392 L114.4436,292.8927 L112.4846,295.7872 L110.3861,298.5707 L107.8288,300.989 L105.9066,303.9128 L105.8781,303.8932 L103.7333,306.7298 L101.7318,309.6653 L99.83,312.6695 L97.5848,315.4368 L95.8205,318.5359 L96.0342,318.6579 L93.8159,321.4821 L92.2215,324.6624 L90.7032,327.8863 L88.742,330.8573 L87.0137,333.9612 L87.0415,333.9734 L85.598,337.1633 L84.2809,340.4085 L82.9029,343.6271 L81.6412,346.8965 L80,350 L80.2833,350.0933 L79.3331,352.9893 L78.2002,355.8251 L77.3348,358.749 L76.4819,361.677 L75.2318,364.4742 L74.922,364.3921 L74.7346,367.5266 L73.527,370.3907 L73.095,373.4604 L71.8643,376.3184 L71.2883,379.3499 L71.2585,379.3436 L70.9755,382.4524 L69.9963,385.4154 L69.4279,388.4644 L68.8939,391.5206 L68.1112,394.5248 L68.2939,394.5541 L67.6157,397.5989 L67.2497,400.6938 L66.3787,403.7077 L66.261,406.8425 L65.6424,409.8968 L65.8844,409.9253 L65.4749,413.0133 L65.1855,416.1155 L64.3379,419.152 L63.8995,422.2367 L63.8236,425.3639 L63.5483,425.3421 L63.5522,428.4539 L63.2458,431.541 L63.3894,434.6639 L62.7647,437.7258 L62.5967,440.824 L62.4444,440.8171 L62.5594,443.8987 L62.0234,446.9509 L61.9503,450.0241 L62.3303,453.1176 L61.9035,456.1748 L62.0971,456.1776 L62.1864,459.2074 L61.6734,462.2286 L61.9147,465.2606 L61.9917,468.2902 L61.6858,471.3143 L61.4758,471.3115 L61.6831,474.279 L61.8216,477.2455 L62.0951,480.2139 L61.8435,483.1752 L61.8853,486.1405 L62.0907,486.1484 L61.7511,489.013 L61.808,491.893 L62.4442,494.7955 L62.0138,497.6566 L62.444,500.551 L62.6697,500.565 L62.7075,503.3353 L62.6689,506.1008 L62.8028,508.8771 L63.3351,511.678 L63.3035,514.444 L63.1709,514.4329 L63.7861,517.1204 L63.4996,519.7329 L64.2384,522.4306 L64.3999,525.0803 L64.4058,527.7171 L64.5141,527.7282 L64.684,530.2295 L65.2418,532.7706 L65.4492,535.2757 L65.5101,537.7658 L65.6926,540.2684 L65.8109,540.2826 L65.9177,542.6069 L66.574,544.9974 L66.6088,547.313 L66.8992,549.6594 L67.1057,551.9956 L66.8379,551.9589 L67.2235,554.1314 L67.9319,556.3481 L68.1837,558.5023 L68.2718,560.634 L68.587,562.7968 L68.4454,562.7752 L68.789,564.7367 L68.882,566.66 L69.6639,568.6883 L70.1049,570.6647 L70.0782,572.5697 " fill="none" style="stroke:#383838;stroke-width:1.0;"/><polygon fill="#383838" points="70.9291,577.7522,70.9969,577.7699,71.2932,575.8115,71.987,573.9568,72.5513,572.0684,72.6901,570.0688,73.418,568.223,73.3969,568.2079,72.6427,569.0591,71.9945,569.9866,71.4201,570.9669,70.5915,571.7648,70.1189,572.8183,70.2266,572.9682,69.0774,571.9878,68.2424,571.4451,67.4458,570.9558,66.4261,570.1558,65.5237,569.5193,65.5427,569.5317,66.5959,571.16,67.7356,572.8451,68.8336,574.5028,70.0112,576.2128,70.9291,577.7522" style="stroke:#383838;stroke-width:1.0;"/><!--MD5=[ee6da19fa4d67061923e3e4dcb4293c0]
link ConsultarTarefasController to ColaboradorRepository--><path d="M224.808,290.209 L224.8807,290.2677 L226.876,292.8292 L229.2973,295.735 L231.5798,298.5286 L233.4063,300.9536 L235.8642,303.8889 L235.836,303.869 L237.7868,306.7108 L239.8797,309.6534 L242.0714,312.6659 L243.9227,315.4372 L246.2507,318.5464 L246.462,318.6725 L247.8529,321.4901 L249.8606,324.6759 L251.9435,327.9067 L253.5886,330.876 L255.464,333.9829 L255.4914,333.9958 L256.9583,337.1803 L258.5502,340.4235 L260.0818,343.6384 L261.7283,346.9074 L263,350 L263.2799,350.103 L264.3428,352.9819 L265.2252,355.7942 L266.3718,358.7038 L267.5308,361.618 L268.2974,364.3877 L267.991,364.2935 L269.4966,367.4391 L269.9933,370.2746 L271.257,373.3458 L271.7308,376.1742 L272.852,379.2016 L272.8225,379.1941 L273.9434,382.3102 L274.375,385.2505 L275.2134,388.2945 L276.0858,391.3473 L276.712,394.3372 L276.893,394.3751 L277.353,397.4073 L278.1223,400.5044 L278.391,403.4966 L279.4064,406.6451 L279.9253,409.6898 L280.1656,409.7304 L280.6431,412.8157 L281.2399,415.9212 L281.2825,418.933 L281.7314,422.0135 L282.5402,425.1548 L282.2664,425.1183 L282.9271,428.2459 L283.2793,431.3324 L284.079,434.4786 L284.1147,437.5229 L284.6046,440.6278 L284.4529,440.6123 L285.0179,443.7133 L284.9345,446.7483 L285.3122,449.8302 L286.1411,452.9579 L286.1666,456.004 L286.3597,456.0181 L286.7137,459.0627 L286.4671,462.0635 L286.9728,465.1193 L287.3145,468.163 L287.2744,471.1789 L287.0647,471.169 L287.3721,474.1507 L287.6109,477.1292 L287.9847,480.114 L287.8338,483.0741 L287.976,486.048 L288.1815,486.0529 L287.7986,488.9339 L287.8124,491.8243 L288.4058,494.7285 L287.9322,497.6073 L288.3195,500.5066 L288.5457,500.5072 L288.418,503.2956 L288.2138,506.0838 L288.1823,508.8724 L288.5501,511.662 L288.3529,514.4502 L288.2199,514.4479 L288.5703,517.1195 L288.0159,519.7756 L288.4902,522.4493 L288.3854,525.1131 L288.1245,527.7742 L288.2333,527.778 L288.057,530.2949 L288.2703,532.8255 L288.1316,535.3437 L287.8458,537.8567 L287.6822,540.374 L287.8012,540.3802 L287.5027,542.7252 L287.7569,545.0988 L287.3861,547.4402 L287.2723,549.7948 L287.0741,552.145 L286.8043,552.127 L286.7493,554.3005 L287.0192,556.4958 L286.8292,558.6604 L286.4745,560.8139 L286.3484,562.9827 L286.2056,562.9711 L286.0923,564.9348 L285.7262,566.8779 L286.0549,568.8774 L286.0397,570.849 L285.553,572.7824 " fill="none" style="stroke:#383838;stroke-width:1.0;"/><polygon fill="#383838" points="285.076,577.9751,285.1372,578.0093,285.9167,576.1884,287.0547,574.5679,288.076,572.8822,288.7134,570.9818,289.8822,569.3786,289.8656,569.3586,288.9215,569.9928,288.0608,570.7273,287.2583,571.5316,286.2556,572.0954,285.5332,572.996,285.6751,573.1141,284.6482,571.9919,284.0355,571.2143,283.4734,570.4787,282.6172,569.4986,281.9157,568.6471,281.9372,568.6544,282.5377,570.5092,283.2362,572.3974,283.8874,574.2695,284.6288,576.1721,285.076,577.9751" style="stroke:#383838;stroke-width:1.0;"/><!--MD5=[92d8ac77eb240e73ca9456b3298e77b8]
link ConsultarTarefasController to PersistenceContext--><path d="M171,290.091 L171.2802,290.091 L170.4476,301.006 L171.2577,311.921 L171.5329,322.836 L170.0488,333.751 L171,344.666 " fill="none" style="stroke:#383838;stroke-width:1.0;"/><polygon fill="#383838" points="171,349.978,171.064,350.0065,171.6738,348.1219,172.6589,346.4042,173.5217,344.6321,173.9827,342.6814,175,340.978,174.9817,340.9597,174.0995,341.6775,173.3096,342.4876,172.5839,343.3619,171.637,344.015,171,344.978,171.1305,345.1085,170.0514,344.0294,169.3534,343.3314,168.7018,342.6798,167.7798,341.7578,167,340.978,167.0208,340.9872,167.7903,342.7737,168.6544,344.6022,169.4728,346.4104,170.3784,348.2573,171,349.978" style="stroke:#383838;stroke-width:1.0;"/><!--MD5=[754b775031405e096442b27febffa290]
link PersistenceContext to RepositoryFactory--><path d="M171,404.259 L171.2802,404.259 L170.4476,415.1506 L171.2577,426.0422 L171.5329,436.9338 L170.0488,447.8254 L171,458.717 " fill="none" style="stroke:#383838;stroke-width:1.0;"/><polygon fill="#383838" points="171,463.905,171.064,463.9335,171.6738,462.0489,172.6589,460.3312,173.5217,458.5591,173.9827,456.6084,175,454.905,174.9817,454.8867,174.0995,455.6045,173.3096,456.4146,172.5839,457.2889,171.637,457.942,171,458.905,171.1305,459.0355,170.0514,457.9564,169.3534,457.2584,168.7018,456.6068,167.7798,455.6848,167,454.905,167.0208,454.9142,167.7903,456.7007,168.6544,458.5292,169.4728,460.3374,170.3784,462.1843,171,463.905" style="stroke:#383838;stroke-width:1.0;"/><!--MD5=[72c4dac676244702e0f69dd587b16d7e]
link RepositoryFactory to PedidoRepository--><path d="M148.727,518.259 L148.9407,518.4403 L141.5466,525.8703 L135.4052,534.363 L128.8559,542.5097 L120.965,549.5183 L114.8522,558.0353 L107.7384,565.7031 L101.4129,574.0396 " fill="none" style="stroke:#383838;stroke-width:1.0;"/><polygon fill="#383838" points="98.1337,577.9055,98.1641,577.9686,99.8482,576.9259,101.7105,576.2531,103.5149,575.4599,105.1282,574.2705,107.0059,573.6295,107.0038,573.6037,105.8667,573.5804,104.7403,573.6873,103.6213,573.8846,102.4767,573.7702,101.368,574.0925,101.5519,574.1076,101.066,572.9477,101.1171,571.8319,101.2337,570.7215,100.9691,569.5798,100.905,568.4546,100.9269,568.461,100.3406,570.3418,99.8536,572.2517,99.3187,574.1476,98.8753,576.0703,98.1337,577.9055" style="stroke:#383838;stroke-width:1.0;"/><!--MD5=[f69c8ab88bf9359224da8c715bf10dd8]
link RepositoryFactory to ColaboradorRepository--><path d="M197.025,518.259 L197.224,518.4563 L203.5429,524.8427 L211.0285,532.3856 L218.1343,539.5519 L223.9904,545.4797 L231.5027,553.0489 L238.0826,559.6942 L245.0336,566.7071 L252.307,574.0396 " fill="none" style="stroke:#383838;stroke-width:1.0;"/><polygon fill="#383838" points="256.138,577.9055,256.2035,577.9304,255.31,576.0149,254.8005,574.2451,254.166,572.4279,253.1203,570.4546,252.6437,568.6973,252.6178,568.6972,252.4965,569.8281,252.5057,570.9595,252.6058,572.0913,252.393,573.2218,252.6184,574.3541,252.6192,574.5387,251.4861,574.139,250.3553,574.2781,249.2249,574.4829,248.0928,574.3053,246.9616,574.3288,246.9698,574.35,248.793,575.0342,250.6537,575.8149,252.4964,576.5491,254.3736,577.3721,256.138,577.9055" style="stroke:#383838;stroke-width:1.0;"/><!--MD5=[49cb47cb91deb1c23979c433ac03d358]
@startuml
'http://plantuml.com/skinparam.html
skinparam handwritten true
skinparam monochrome true
skinparam packageStyle rect
skinparam defaultFontName FG Virgil
skinparam shadowing false

class ConsultarTarefasUI <<presentation>>
class ConsultarTarefasController <<application>>
class PersistenceContext <<persistence>>
class RepositoryFactory <<factory>>
class PedidoRepository <<repository>>
class ColaboradorRepository <<repository>>


ConsultarTarefasUI - -> ConsultarTarefasController
ConsultarTarefasUI : doShow()
ConsultarTarefasUI : getUser()
ConsultarTarefasUI : tarefasPendentes(colab)
ConsultarTarefasUI : filtrarTarefasPendentes(colab)
ConsultarTarefasUI : ordenarTarefasPendentes(colab)

ConsultarTarefasController : getUser()
ConsultarTarefasController : tarefasPendentes(colab)
ConsultarTarefasController : filtrarTarefasPendentes(colab)
ConsultarTarefasController : ordenarTarefasPendentes(colab)

ConsultarTarefasController - -> PedidoRepository
ConsultarTarefasController - -> ColaboradorRepository
ConsultarTarefasController - -> PersistenceContext
PersistenceContext - -> RepositoryFactory

RepositoryFactory - -> PedidoRepository
RepositoryFactory - -> ColaboradorRepository
@enduml

@startuml
skinparam handwritten true
skinparam monochrome true
skinparam packageStyle rect
skinparam defaultFontName FG Virgil
skinparam shadowing false

class ConsultarTarefasUI <<presentation>>
class ConsultarTarefasController <<application>>
class PersistenceContext <<persistence>>
class RepositoryFactory <<factory>>
class PedidoRepository <<repository>>
class ColaboradorRepository <<repository>>


ConsultarTarefasUI - -> ConsultarTarefasController
ConsultarTarefasUI : doShow()
ConsultarTarefasUI : getUser()
ConsultarTarefasUI : tarefasPendentes(colab)
ConsultarTarefasUI : filtrarTarefasPendentes(colab)
ConsultarTarefasUI : ordenarTarefasPendentes(colab)

ConsultarTarefasController : getUser()
ConsultarTarefasController : tarefasPendentes(colab)
ConsultarTarefasController : filtrarTarefasPendentes(colab)
ConsultarTarefasController : ordenarTarefasPendentes(colab)

ConsultarTarefasController - -> PedidoRepository
ConsultarTarefasController - -> ColaboradorRepository
ConsultarTarefasController - -> PersistenceContext
PersistenceContext - -> RepositoryFactory

RepositoryFactory - -> PedidoRepository
RepositoryFactory - -> ColaboradorRepository
@enduml

PlantUML version 1.2021.7(Sun May 23 12:40:07 UTC 2021)
(GPL source distribution)
Java Runtime: Java(TM) SE Runtime Environment
JVM: Java HotSpot(TM) 64-Bit Server VM
Default Encoding: UTF-8
Language: en
Country: US
--></g></svg>