<?xml version="1.0" encoding="UTF-8" standalone="no"?><svg xmlns="http://www.w3.org/2000/svg" xmlns:xlink="http://www.w3.org/1999/xlink" contentScriptType="application/ecmascript" contentStyleType="text/css" height="671px" preserveAspectRatio="none" style="width:1077px;height:671px;background:#FFFFFF;" version="1.1" viewBox="0 0 1077 671" width="1077px" zoomAndPan="magnify"><defs/><g><polygon fill="#FFFFFF" points="89,93.5938,89,93.6638,91,93.4556,93,93.6582,95,93.727,97,93.356,99,93.5938,98.9223,93.5938,98.5735,103.6714,98.6165,113.749,98.9318,123.8267,98.3086,133.9043,99.5536,143.9819,98.3697,154.0596,98.8022,164.1372,99.4319,174.2148,98.9142,184.2925,99.0682,194.3701,98.9681,204.4478,99.1785,214.5254,99.2391,224.603,99.5857,234.6807,99.6711,244.7583,99.6793,254.8359,99.2546,264.9136,99.4636,274.9912,99.7022,285.0688,98.2788,295.1465,99.6785,305.2241,98.7035,315.3018,99.5338,325.3794,98.505,335.457,98.9315,345.5347,99.7416,355.6123,98.9513,365.6899,99.1053,375.7676,99.3386,385.8452,99.4162,395.9229,98.9961,406.0005,99.2872,416.0781,98.4276,426.1558,99.2844,436.2334,99.5482,446.311,99.4445,456.3887,99.613,466.4663,98.5169,476.5439,98.3478,486.6216,98.3786,496.6992,98.9411,506.7769,98.8035,516.8545,99.6814,526.9321,98.8253,537.0098,98.6569,547.0874,99.2283,557.165,98.3332,567.2427,99,577.3203,99,577.1473,97,577.5366,95,577.4655,93,577.5651,91,577.213,89,577.3203,89.3192,577.3203,89.5904,567.2427,88.5276,557.165,88.9041,547.0874,89.126,537.0098,89.6518,526.9321,88.9958,516.8545,89.4626,506.7769,88.4462,496.6992,88.3227,486.6216,89.5036,476.5439,88.2831,466.4663,89.509,456.3887,89.2066,446.311,88.7321,436.2334,88.6462,426.1558,89.4588,416.0781,88.7007,406.0005,89.5919,395.9229,88.4473,385.8452,89.6174,375.7676,89.4843,365.6899,89.245,355.6123,89.0472,345.5347,89.7266,335.457,89.6136,325.3794,89.1693,315.3018,89.2682,305.2241,88.8697,295.1465,89.7165,285.0688,89.1549,274.9912,89.1726,264.9136,88.3916,254.8359,88.5948,244.7583,89.5307,234.6807,89.4298,224.603,88.9571,214.5254,88.6778,204.4478,88.7811,194.3701,88.3138,184.2925,89.4147,174.2148,89.7396,164.1372,89.5264,154.0596,89.6949,143.9819,88.8633,133.9043,89.0872,123.8267,88.6124,113.749,89.284,103.6714,89,93.5938" style="stroke:#383838;stroke-width:1.0;"/><polygon fill="#FFFFFF" points="316,156.8594,316,156.9294,318,156.7213,320,156.9238,322,156.9926,324,156.6216,326,156.8594,325.9741,156.8594,325.8578,162.6859,325.8722,168.5125,325.9773,174.3391,325.7695,180.1656,326,185.9922,326,186.1767,324,185.7821,322,185.9263,320,186.1362,318,185.9636,316,185.9922,316.0227,185.9922,315.9894,180.1656,316.0595,174.3391,316.0797,168.5125,316.1952,162.6859,316,156.8594" style="stroke:#383838;stroke-width:1.0;"/><polygon fill="#FFFFFF" points="316,215.125,316,215.1951,318,214.9869,320,215.1894,322,215.2582,324,214.8872,326,215.125,325.9223,215.125,325.5735,224.9323,325.6165,234.7396,325.9318,244.5469,325.3086,254.3542,326.5536,264.1615,325.3697,273.9688,325.8022,283.776,326.4319,293.5833,326,303.3906,326,303.362,324,303.4134,322,303.38,320,303.4501,318,303.4703,316,303.3906,316.5857,303.3906,316.6711,293.5833,316.6793,283.776,316.2546,273.9688,316.4636,264.1615,316.7022,254.3542,315.2788,244.5469,316.6785,234.7396,315.7035,224.9323,316,215.125" style="stroke:#383838;stroke-width:1.0;"/><polygon fill="#FFFFFF" points="316,356.6563,316,356.7263,318,356.5181,320,356.7207,322,356.7895,324,356.4185,326,356.6563,325.9223,356.6563,325.5735,366.4635,325.6165,376.2708,325.9318,386.0781,325.3086,395.8854,326.5536,405.6927,325.3697,415.5,325.8022,425.3073,326.4319,435.1146,326,444.9219,326,444.8933,324,444.9446,322,444.9112,320,444.9814,318,445.0016,316,444.9219,316.5857,444.9219,316.6711,435.1146,316.6793,425.3073,316.2546,415.5,316.4636,405.6927,316.7022,395.8854,315.2788,386.0781,316.6785,376.2708,315.7035,366.4635,316,356.6563" style="stroke:#383838;stroke-width:1.0;"/><polygon fill="#FFFFFF" points="316,474.0547,316,474.1247,318,473.9166,320,474.1191,322,474.1879,324,473.8169,326,474.0547,325.9223,474.0547,325.5735,483.862,325.6165,493.6693,325.9318,503.4766,325.3086,513.2839,326.5536,523.0911,325.3697,532.8984,325.8022,542.7057,326.4319,552.513,326,562.3203,326,562.2917,324,562.3431,322,562.3097,320,562.3798,318,562.4,316,562.3203,316.5857,562.3203,316.6711,552.513,316.6793,542.7057,316.2546,532.8984,316.4636,523.0911,316.7022,513.2839,315.2788,503.4766,316.6785,493.6693,315.7035,483.862,316,474.0547" style="stroke:#383838;stroke-width:1.0;"/><polygon fill="#FFFFFF" points="819,385.7891,819,385.8591,821,385.651,823,385.8535,825,385.9223,827,385.5513,829,385.7891,828.9741,385.7891,828.8578,391.7891,828.8722,397.7891,828.9773,403.7891,828.7695,409.7891,829,415.7891,829,415.9736,827,415.579,825,415.7231,823,415.933,821,415.7605,819,415.7891,819.0227,415.7891,818.9894,409.7891,819.0595,403.7891,819.0797,397.7891,819.1952,391.7891,819,385.7891" style="stroke:#383838;stroke-width:1.0;"/><polygon fill="#FFFFFF" points="819,503.1875,819,503.2576,821,503.0494,823,503.2519,825,503.3207,827,502.9497,829,503.1875,828.9741,503.1875,828.8578,509.1875,828.8722,515.1875,828.9773,521.1875,828.7695,527.1875,829,533.1875,829,533.372,827,532.9774,825,533.1216,823,533.3315,821,533.1589,819,533.1875,819.0227,533.1875,818.9894,527.1875,819.0595,521.1875,819.0797,515.1875,819.1952,509.1875,819,503.1875" style="stroke:#383838;stroke-width:1.0;"/><polygon fill="#FFFFFF" points="984.5,244.2578,984.5,244.3279,986.5,244.1197,988.5,244.3222,990.5,244.391,992.5,244.02,994.5,244.2578,994.4741,244.2578,994.3578,250.2578,994.3722,256.2578,994.4773,262.2578,994.2695,268.2578,994.5,274.2578,994.5,274.4424,992.5,274.0477,990.5,274.1919,988.5,274.4018,986.5,274.2292,984.5,274.2578,984.5227,274.2578,984.4894,268.2578,984.5595,262.2578,984.5797,256.2578,984.6952,250.2578,984.5,244.2578" style="stroke:#383838;stroke-width:1.0;"/><polygon fill="#FFFFFF" points="10,318.3906,10,318.6008,20.0337,317.9763,30.0674,318.5839,40.1011,318.7903,50.1348,317.6772,60.1685,318.3129,70.2022,317.9641,80.236,318.0071,90.2697,318.3225,100.3034,317.6993,110.3371,318.9443,120.3708,317.7603,130.4045,318.1929,140.4382,318.8226,150.4719,318.3048,160.5056,318.4589,170.5393,318.3587,180.573,318.5692,190.6067,318.6298,200.6404,318.9763,210.6742,319.0617,220.7079,319.0699,230.7416,318.6453,240.7753,318.8542,250.809,319.0929,260.8427,317.6694,270.8764,319.0691,280.9101,318.0941,290.9438,318.9244,300.9775,317.8956,311.0112,318.3221,321.0449,319.1322,331.0787,318.3419,341.1124,318.4959,351.1461,318.7293,361.1798,318.8069,371.2135,318.3867,381.2472,318.6778,391.2809,317.8182,401.3146,318.675,411.3483,318.9388,421.382,318.8352,431.4157,319.0036,441.4494,317.9075,451.4831,317.7384,461.5169,317.7692,471.5506,318.3317,481.5843,318.1941,491.618,319.072,501.6517,318.2159,511.6854,318.0476,521.7191,318.6189,531.7528,317.7238,541.7865,317.8715,551.8202,319.0396,561.8539,318.8263,571.8876,319.1251,581.9213,318.0688,591.9551,318.7098,601.9888,318.981,612.0225,317.9182,622.0562,318.2948,632.0899,318.5166,642.1236,319.0424,652.1573,318.3864,662.191,318.8532,672.2247,317.8368,682.2584,317.7134,692.2921,318.8942,702.3258,317.6737,712.3596,318.8996,722.3933,318.5973,732.427,318.1227,742.4607,318.0369,752.4944,318.8494,762.5281,318.0913,772.5618,318.9825,782.5955,317.8379,792.6292,319.0081,802.6629,318.8749,812.6966,318.6356,822.7303,318.4378,832.764,319.1172,842.7978,319.0042,852.8315,318.5599,862.8652,318.6588,872.8989,318.2604,882.9326,319.1071,892.9663,318.5455,903,318.3906,903.1726,318.3906,902.3916,328.4678,902.5948,338.545,903.5307,348.6222,903.4298,358.6994,902.9571,368.7766,902.6778,378.8538,902.7811,388.9309,902.3138,399.0081,903.4147,409.0853,903.7396,419.1625,903.5264,429.2397,903.6949,439.3169,902.8633,449.3941,903.0872,459.4713,902.6124,469.5484,903.284,479.6256,903.2468,489.7028,903.5524,499.78,902.7703,509.8572,902.8656,519.9344,903.4435,530.0116,903.5673,540.0888,902.4875,550.1659,902.8061,560.2431,903,570.3203,903,570.4696,892.9663,569.7095,882.9326,570.6737,872.8989,570.5783,862.8652,570.2196,852.8315,570.4626,842.7978,571.049,832.764,570.0074,822.7303,570.6353,812.6966,570.606,802.6629,570.4361,792.6292,570.4612,782.5955,570.4338,772.5618,569.6962,762.5281,569.9195,752.4944,569.8588,742.4607,570.3841,732.427,570.4084,722.3933,570.4821,712.3596,570.0293,702.3258,570.2528,692.2921,570.2001,682.2584,570.8972,672.2247,570.7469,662.191,569.8348,652.1573,570.2474,642.1236,569.7431,632.0899,570.6087,622.0562,570.9288,612.0225,570.8649,601.9888,569.8848,591.9551,570.7843,581.9213,569.5775,571.8876,570.5205,561.8539,570.021,551.8202,570.417,541.7865,570.5606,531.7528,570.7924,521.7191,569.6004,511.6854,570.7958,501.6517,570.4985,491.618,570.6756,481.5843,571.0681,471.5506,570.3258,461.5169,570.4956,451.4831,570.5338,441.4494,570.5175,431.4157,570.3195,421.382,571.031,411.3483,569.7106,401.3146,570.8856,391.2809,569.6963,381.2472,569.78,371.2135,570.3603,361.1798,570.3486,351.1461,569.8275,341.1124,570.734,331.0787,570.4292,321.0449,571.047,311.0112,570.9874,300.9775,569.8721,290.9438,569.9224,280.9101,570.1911,270.8764,570.6758,260.8427,570.7233,250.809,570.6215,240.7753,569.9784,230.7416,570.9567,220.7079,570.9541,210.6742,570.273,200.6404,570.0813,190.6067,569.9189,180.573,570.1057,170.5393,570.4577,160.5056,570.2519,150.4719,569.9025,140.4382,570.8077,130.4045,569.8614,120.3708,570.8227,110.3371,570.7476,100.3034,570.6922,90.2697,571.0128,80.236,570.0744,70.2022,570.0197,60.1685,570.8392,50.1348,569.7234,40.1011,570.0863,30.0674,570.4358,20.0337,570.389,10,570.3203,9.6415,570.3203,9.957,560.2431,10.7446,550.1659,10.6485,540.0888,9.4037,530.0116,10.0785,519.9344,9.4861,509.8572,9.9737,499.78,10.293,489.7028,10.4199,479.6256,9.3353,469.5484,10.4005,459.4713,10.0084,449.3941,9.4447,439.3169,9.5289,429.2397,10.3266,419.1625,10.2499,409.0853,9.9836,399.0081,9.3279,388.9309,10.6581,378.8538,9.6882,368.7766,9.4719,358.6994,9.9327,348.6222,10.5897,338.545,10.6154,328.4678,10,318.3906" style="stroke:#000000;stroke-width:2.0;"/><path d="M94,83.5938 L94.2802,83.5938 L93.4476,93.6683 L94.2577,103.7428 L94.5329,113.8173 L93.0488,123.8919 L93.8964,133.9664 L93.4313,144.0409 L93.4887,154.1155 L93.9091,164.19 L93.0782,174.2645 L94.7382,184.3391 L93.1596,194.4136 L93.7363,204.4881 L94.5759,214.5627 L93.8856,224.6372 L94.091,234.7117 L93.9574,244.7863 L94.238,254.8608 L94.3188,264.9353 L94.7809,275.0098 L94.8947,285.0844 L94.9057,295.1589 L94.3395,305.2334 L94.6181,315.308 L94.9363,325.3825 L93.0384,335.457 L94.9047,345.5316 L93.6047,355.6061 L94.7117,365.6806 L93.34,375.7552 L93.9087,385.8297 L94.9888,395.9042 L93.935,405.9788 L94.1404,416.0533 L94.4515,426.1278 L94.555,436.2023 L93.9948,446.2769 L94.383,456.3514 L93.2368,466.4259 L94.3792,476.5005 L94.7309,486.575 L94.5927,496.6495 L94.8174,506.7241 L93.3559,516.7986 L93.1304,526.8731 L93.1715,536.9477 L93.9215,547.0222 L93.738,557.0967 L94.9085,567.1713 L93.7671,577.2458 L94,587.3203 " fill="none" style="stroke:#383838;stroke-width:1.0;stroke-dasharray:5.0,5.0;"/><path d="M321,83.5938 L321.2802,83.5938 L320.4476,93.6683 L321.2577,103.7428 L321.5329,113.8173 L320.0488,123.8919 L320.8964,133.9664 L320.4313,144.0409 L320.4887,154.1155 L320.9091,164.19 L320.0782,174.2645 L321.7382,184.3391 L320.1596,194.4136 L320.7363,204.4881 L321.5759,214.5627 L320.8856,224.6372 L321.091,234.7117 L320.9574,244.7863 L321.238,254.8608 L321.3188,264.9353 L321.7809,275.0098 L321.8947,285.0844 L321.9057,295.1589 L321.3395,305.2334 L321.6181,315.308 L321.9363,325.3825 L320.0384,335.457 L321.9047,345.5316 L320.6047,355.6061 L321.7117,365.6806 L320.34,375.7552 L320.9087,385.8297 L321.9888,395.9042 L320.935,405.9788 L321.1404,416.0533 L321.4515,426.1278 L321.555,436.2023 L320.9948,446.2769 L321.383,456.3514 L320.2368,466.4259 L321.3792,476.5005 L321.7309,486.575 L321.5927,496.6495 L321.8174,506.7241 L320.3559,516.7986 L320.1304,526.8731 L320.1715,536.9477 L320.9215,547.0222 L320.738,557.0967 L321.9085,567.1713 L320.7671,577.2458 L321,587.3203 " fill="none" style="stroke:#383838;stroke-width:1.0;stroke-dasharray:5.0,5.0;"/><path d="M509,83.5938 L509.2802,83.5938 L508.4476,93.6683 L509.2577,103.7428 L509.5329,113.8173 L508.0488,123.8919 L508.8964,133.9664 L508.4313,144.0409 L508.4887,154.1155 L508.9091,164.19 L508.0782,174.2645 L509.7382,184.3391 L508.1596,194.4136 L508.7363,204.4881 L509.5759,214.5627 L508.8856,224.6372 L509.091,234.7117 L508.9574,244.7863 L509.238,254.8608 L509.3188,264.9353 L509.7809,275.0098 L509.8947,285.0844 L509.9057,295.1589 L509.3395,305.2334 L509.6181,315.308 L509.9363,325.3825 L508.0384,335.457 L509.9047,345.5316 L508.6047,355.6061 L509.7117,365.6806 L508.34,375.7552 L508.9087,385.8297 L509.9888,395.9042 L508.935,405.9788 L509.1404,416.0533 L509.4515,426.1278 L509.555,436.2023 L508.9948,446.2769 L509.383,456.3514 L508.2368,466.4259 L509.3792,476.5005 L509.7309,486.575 L509.5927,496.6495 L509.8174,506.7241 L508.3559,516.7986 L508.1304,526.8731 L508.1715,536.9477 L508.9215,547.0222 L508.738,557.0967 L509.9085,567.1713 L508.7671,577.2458 L509,587.3203 " fill="none" style="stroke:#383838;stroke-width:1.0;stroke-dasharray:5.0,5.0;"/><path d="M671,83.5938 L671.2802,83.5938 L670.4476,93.6683 L671.2577,103.7428 L671.5329,113.8173 L670.0488,123.8919 L670.8964,133.9664 L670.4313,144.0409 L670.4887,154.1155 L670.9091,164.19 L670.0782,174.2645 L671.7382,184.3391 L670.1596,194.4136 L670.7363,204.4881 L671.5759,214.5627 L670.8856,224.6372 L671.091,234.7117 L670.9574,244.7863 L671.238,254.8608 L671.3188,264.9353 L671.7809,275.0098 L671.8947,285.0844 L671.9057,295.1589 L671.3395,305.2334 L671.6181,315.308 L671.9363,325.3825 L670.0384,335.457 L671.9047,345.5316 L670.6047,355.6061 L671.7117,365.6806 L670.34,375.7552 L670.9087,385.8297 L671.9888,395.9042 L670.935,405.9788 L671.1404,416.0533 L671.4515,426.1278 L671.555,436.2023 L670.9948,446.2769 L671.383,456.3514 L670.2368,466.4259 L671.3792,476.5005 L671.7309,486.575 L671.5927,496.6495 L671.8174,506.7241 L670.3559,516.7986 L670.1304,526.8731 L670.1715,536.9477 L670.9215,547.0222 L670.738,557.0967 L671.9085,567.1713 L670.7671,577.2458 L671,587.3203 " fill="none" style="stroke:#383838;stroke-width:1.0;stroke-dasharray:5.0,5.0;"/><path d="M824,83.5938 L824.2802,83.5938 L823.4476,93.6683 L824.2577,103.7428 L824.5329,113.8173 L823.0488,123.8919 L823.8964,133.9664 L823.4313,144.0409 L823.4887,154.1155 L823.9091,164.19 L823.0782,174.2645 L824.7382,184.3391 L823.1596,194.4136 L823.7363,204.4881 L824.5759,214.5627 L823.8856,224.6372 L824.091,234.7117 L823.9574,244.7863 L824.238,254.8608 L824.3188,264.9353 L824.7809,275.0098 L824.8947,285.0844 L824.9057,295.1589 L824.3395,305.2334 L824.6181,315.308 L824.9363,325.3825 L823.0384,335.457 L824.9047,345.5316 L823.6047,355.6061 L824.7117,365.6806 L823.34,375.7552 L823.9087,385.8297 L824.9888,395.9042 L823.935,405.9788 L824.1404,416.0533 L824.4515,426.1278 L824.555,436.2023 L823.9948,446.2769 L824.383,456.3514 L823.2368,466.4259 L824.3792,476.5005 L824.7309,486.575 L824.5927,496.6495 L824.8174,506.7241 L823.3559,516.7986 L823.1304,526.8731 L823.1715,536.9477 L823.9215,547.0222 L823.738,557.0967 L824.9085,567.1713 L823.7671,577.2458 L824,587.3203 " fill="none" style="stroke:#383838;stroke-width:1.0;stroke-dasharray:5.0,5.0;"/><path d="M989,83.5938 L989.2802,83.5938 L988.4476,93.6683 L989.2577,103.7428 L989.5329,113.8173 L988.0488,123.8919 L988.8964,133.9664 L988.4313,144.0409 L988.4887,154.1155 L988.9091,164.19 L988.0782,174.2645 L989.7382,184.3391 L988.1596,194.4136 L988.7363,204.4881 L989.5759,214.5627 L988.8856,224.6372 L989.091,234.7117 L988.9574,244.7863 L989.238,254.8608 L989.3188,264.9353 L989.7809,275.0098 L989.8947,285.0844 L989.9057,295.1589 L989.3395,305.2334 L989.6181,315.308 L989.9363,325.3825 L988.0384,335.457 L989.9047,345.5316 L988.6047,355.6061 L989.7117,365.6806 L988.34,375.7552 L988.9087,385.8297 L989.9888,395.9042 L988.935,405.9788 L989.1404,416.0533 L989.4515,426.1278 L989.555,436.2023 L988.9948,446.2769 L989.383,456.3514 L988.2368,466.4259 L989.3792,476.5005 L989.7309,486.575 L989.5927,496.6495 L989.8174,506.7241 L988.3559,516.7986 L988.1304,526.8731 L988.1715,536.9477 L988.9215,547.0222 L988.738,557.0967 L989.9085,567.1713 L988.7671,577.2458 L989,587.3203 " fill="none" style="stroke:#383838;stroke-width:1.0;stroke-dasharray:5.0,5.0;"/><polygon fill="#F8F8F8" points="20,36,20,36.2102,29.8667,35.5857,39.7333,36.1933,49.6,36.3997,59.4667,35.2866,69.3333,35.9223,79.2,35.5735,89.0667,35.6165,98.9333,35.9318,108.8,35.3086,118.6667,36.5536,128.5333,35.3697,138.4,35.8022,148.2667,36.4319,158.1333,35.9142,168,36,168.0682,36,167.9681,45.3188,168.1785,54.6375,168.2391,63.9563,168.5857,73.275,168,82.5938,168,83.2648,158.1333,83.273,148.2667,82.8484,138.4,83.0573,128.5333,83.296,118.6667,81.8726,108.8,83.2723,98.9333,82.2972,89.0667,83.1276,79.2,82.0987,69.3333,82.5253,59.4667,83.3354,49.6,82.545,39.7333,82.6991,29.8667,82.9324,20,82.5938,20.4162,82.5938,19.9961,73.275,20.2872,63.9563,19.4276,54.6375,20.2844,45.3188,20,36" style="stroke:#383838;stroke-width:1.5;"/><text fill="#000000" font-family="FG Virgil" font-size="14" font-style="italic" lengthAdjust="spacing" textLength="108" x="40" y="55.9951">«presentation»</text><text fill="#000000" font-family="FG Virgil" font-size="14" lengthAdjust="spacing" textLength="134" x="27" y="72.292">ConsultarTarefasUI</text><polygon fill="#F8F8F8" points="20,586.3203,20,586.5305,29.8667,585.906,39.7333,586.5136,49.6,586.72,59.4667,585.6069,69.3333,586.2426,79.2,585.8938,89.0667,585.9368,98.9333,586.2522,108.8,585.6289,118.6667,586.874,128.5333,585.69,138.4,586.1225,148.2667,586.7523,158.1333,586.2345,168,586.3203,168.0682,586.3203,167.9681,595.6391,168.1785,604.9578,168.2391,614.2766,168.5857,623.5953,168,632.9141,168,633.5851,158.1333,633.5933,148.2667,633.1687,138.4,633.3776,128.5333,633.6163,118.6667,632.1929,108.8,633.5926,98.9333,632.6176,89.0667,633.4479,79.2,632.419,69.3333,632.8456,59.4667,633.6557,49.6,632.8653,39.7333,633.0194,29.8667,633.2527,20,632.9141,20.4162,632.9141,19.9961,623.5953,20.2872,614.2766,19.4276,604.9578,20.2844,595.6391,20,586.3203" style="stroke:#383838;stroke-width:1.5;"/><text fill="#000000" font-family="FG Virgil" font-size="14" font-style="italic" lengthAdjust="spacing" textLength="108" x="40" y="606.3154">«presentation»</text><text fill="#000000" font-family="FG Virgil" font-size="14" lengthAdjust="spacing" textLength="134" x="27" y="622.6123">ConsultarTarefasUI</text><text fill="#000000" font-family="FG Virgil" font-size="14" font-style="italic" lengthAdjust="spacing" textLength="97" x="269.5" y="63.9951">«application»</text><text fill="#000000" font-family="FG Virgil" font-size="14" lengthAdjust="spacing" textLength="194" x="221" y="80.292">ConsultarTarefasController</text><polygon fill="#F8F8F8" points="333.0663,37.9189,331.3073,40.3223,329.2268,43.8426,326.2512,46.215,323.1244,47.5123,320.6313,47.6249,317.4269,46.0024,314.4035,44.9425,312.1086,42.7904,310.9048,40.3267,310.1909,38.3649,309.4915,35.8026,308.3564,33.5976,309.2287,31.4447,309.9929,29.0864,312.8611,27.2212,314.8789,24.8012,317.3764,23.9976,320.3456,23.3055,324.1532,23.7167,326.2386,24.7002,328.6633,25.146,331.6115,28.1665,332.6392,31.3552,333.0857,33.5309,332.58,37.1162" style="stroke:#383838;stroke-width:2.0;"/><polygon fill="#383838" points="317,23,317.0449,23.0538,318.1116,21.8939,319.4412,21.0495,320.6853,20.1023,321.6478,18.8173,323,18,322.9759,17.9904,322.468,18.9472,322.0813,19.9525,321.7789,20.9916,321.186,21.9144,321,23,321.1713,23.0685,321.2049,23.922,321.7388,24.9755,322.3337,26.0535,322.5735,26.9894,323,28,323.0146,28.0175,321.7932,26.9918,320.6381,26.0457,319.451,25.0612,318.325,24.15,317,23" style="stroke:#383838;stroke-width:1.0;"/><text fill="#000000" font-family="FG Virgil" font-size="14" font-style="italic" lengthAdjust="spacing" textLength="97" x="269.5" y="599.3154">«application»</text><text fill="#000000" font-family="FG Virgil" font-size="14" lengthAdjust="spacing" textLength="194" x="221" y="615.6123">ConsultarTarefasController</text><polygon fill="#F8F8F8" points="333.0663,637.8329,331.3073,640.2364,329.2268,643.7567,326.2512,646.129,323.1244,647.4264,320.6313,647.539,317.4269,645.9165,314.4035,644.8565,312.1086,642.7044,310.9048,640.2407,310.1909,638.279,309.4915,635.7166,308.3564,633.5117,309.2287,631.3588,309.9929,629.0005,312.8611,627.1353,314.8789,624.7153,317.3764,623.9116,320.3456,623.2196,324.1532,623.6308,326.2386,624.6143,328.6633,625.0601,331.6115,628.0806,332.6392,631.2693,333.0857,633.445,332.58,637.0303" style="stroke:#383838;stroke-width:2.0;"/><polygon fill="#383838" points="317,622.9141,317.0449,622.9679,318.1116,621.808,319.4412,620.9636,320.6853,620.0164,321.6478,618.7314,323,617.9141,322.9759,617.9044,322.468,618.8613,322.0813,619.8666,321.7789,620.9056,321.186,621.8285,321,622.9141,321.1713,622.9826,321.2049,623.836,321.7388,624.8896,322.3337,625.9675,322.5735,626.9034,323,627.9141,323.0146,627.9315,321.7932,626.9059,320.6381,625.9598,319.451,624.9753,318.325,624.064,317,622.9141" style="stroke:#383838;stroke-width:1.0;"/><polygon fill="#F8F8F8" points="431,36,431,36.2102,440.8125,35.5857,450.625,36.1933,460.4375,36.3997,470.25,35.2866,480.0625,35.9223,489.875,35.5735,499.6875,35.6165,509.5,35.9318,519.3125,35.3086,529.125,36.5536,538.9375,35.3697,548.75,35.8022,558.5625,36.4319,568.375,35.9142,578.1875,36.0682,588,36,587.9681,36,588.1785,45.3188,588.2391,54.6375,588.5857,63.9563,588.6711,73.275,588,82.5938,588,83.273,578.1875,82.8484,568.375,83.0573,558.5625,83.296,548.75,81.8726,538.9375,83.2723,529.125,82.2972,519.3125,83.1276,509.5,82.0987,499.6875,82.5253,489.875,83.3354,480.0625,82.545,470.25,82.6991,460.4375,82.9324,450.625,83.01,440.8125,82.5898,431,82.5938,431.2872,82.5938,430.4276,73.275,431.2844,63.9563,431.5482,54.6375,431.4445,45.3188,431,36" style="stroke:#383838;stroke-width:1.5;"/><text fill="#000000" font-family="FG Virgil" font-size="14" font-style="italic" lengthAdjust="spacing" textLength="100" x="459.5" y="55.9951">«persistence»</text><text fill="#000000" font-family="FG Virgil" font-size="14" lengthAdjust="spacing" textLength="143" x="438" y="72.292">PersistenceContext</text><polygon fill="#F8F8F8" points="431,586.3203,431,586.5305,440.8125,585.906,450.625,586.5136,460.4375,586.72,470.25,585.6069,480.0625,586.2426,489.875,585.8938,499.6875,585.9368,509.5,586.2522,519.3125,585.6289,529.125,586.874,538.9375,585.69,548.75,586.1225,558.5625,586.7523,568.375,586.2345,578.1875,586.3886,588,586.3203,587.9681,586.3203,588.1785,595.6391,588.2391,604.9578,588.5857,614.2766,588.6711,623.5953,588,632.9141,588,633.5933,578.1875,633.1687,568.375,633.3776,558.5625,633.6163,548.75,632.1929,538.9375,633.5926,529.125,632.6176,519.3125,633.4479,509.5,632.419,499.6875,632.8456,489.875,633.6557,480.0625,632.8653,470.25,633.0194,460.4375,633.2527,450.625,633.3303,440.8125,632.9102,431,632.9141,431.2872,632.9141,430.4276,623.5953,431.2844,614.2766,431.5482,604.9578,431.4445,595.6391,431,586.3203" style="stroke:#383838;stroke-width:1.5;"/><text fill="#000000" font-family="FG Virgil" font-size="14" font-style="italic" lengthAdjust="spacing" textLength="100" x="459.5" y="606.3154">«persistence»</text><text fill="#000000" font-family="FG Virgil" font-size="14" lengthAdjust="spacing" textLength="143" x="438" y="622.6123">PersistenceContext</text><polygon fill="#F8F8F8" points="598,36,598,36.2102,607.8,35.5857,617.6,36.1933,627.4,36.3997,637.2,35.2866,647,35.9223,656.8,35.5735,666.6,35.6165,676.4,35.9318,686.2,35.3086,696,36.5536,705.8,35.3697,715.6,35.8022,725.4,36.4319,735.2,35.9142,745,36,745.0682,36,744.9681,45.3188,745.1785,54.6375,745.2391,63.9563,745.5857,73.275,745,82.5938,745,83.2648,735.2,83.273,725.4,82.8484,715.6,83.0573,705.8,83.296,696,81.8726,686.2,83.2723,676.4,82.2972,666.6,83.1276,656.8,82.0987,647,82.5253,637.2,83.3354,627.4,82.545,617.6,82.6991,607.8,82.9324,598,82.5938,598.4162,82.5938,597.9961,73.275,598.2872,63.9563,597.4276,54.6375,598.2844,45.3188,598,36" style="stroke:#383838;stroke-width:1.5;"/><text fill="#000000" font-family="FG Virgil" font-size="14" font-style="italic" lengthAdjust="spacing" textLength="68" x="637.5" y="55.9951">«factory»</text><text fill="#000000" font-family="FG Virgil" font-size="14" lengthAdjust="spacing" textLength="133" x="605" y="72.292">RepositoryFactory</text><polygon fill="#F8F8F8" points="598,586.3203,598,586.5305,607.8,585.906,617.6,586.5136,627.4,586.72,637.2,585.6069,647,586.2426,656.8,585.8938,666.6,585.9368,676.4,586.2522,686.2,585.6289,696,586.874,705.8,585.69,715.6,586.1225,725.4,586.7523,735.2,586.2345,745,586.3203,745.0682,586.3203,744.9681,595.6391,745.1785,604.9578,745.2391,614.2766,745.5857,623.5953,745,632.9141,745,633.5851,735.2,633.5933,725.4,633.1687,715.6,633.3776,705.8,633.6163,696,632.1929,686.2,633.5926,676.4,632.6176,666.6,633.4479,656.8,632.419,647,632.8456,637.2,633.6557,627.4,632.8653,617.6,633.0194,607.8,633.2527,598,632.9141,598.4162,632.9141,597.9961,623.5953,598.2872,614.2766,597.4276,604.9578,598.2844,595.6391,598,586.3203" style="stroke:#383838;stroke-width:1.5;"/><text fill="#000000" font-family="FG Virgil" font-size="14" font-style="italic" lengthAdjust="spacing" textLength="68" x="637.5" y="606.3154">«factory»</text><text fill="#000000" font-family="FG Virgil" font-size="14" lengthAdjust="spacing" textLength="133" x="605" y="622.6123">RepositoryFactory</text><text fill="#000000" font-family="FG Virgil" font-size="14" font-style="italic" lengthAdjust="spacing" textLength="90" x="776" y="63.9951">«repository»</text><text fill="#000000" font-family="FG Virgil" font-size="14" lengthAdjust="spacing" textLength="132" x="755" y="80.292">ServicoRepository</text><path d="M806,15 L806,15 L806.0651,15.067 L807.6716,13.118 L809.6599,11.5616 L811.5238,9.8774 L812.979,7.7727 L815,6.25 L814.9952,6.2158 L816.7739,5.8122 L818.5766,5.5812 L820.3958,5.47 L822.1577,4.9456 L824,5 L824,5 L824.0339,5.2437 L825.7615,4.9725 L827.5879,5.4129 L829.4264,5.9402 L831.1948,5.9622 L833,6.25 L833.0211,6.2717 L834.7901,7.9898 L836.6553,9.8069 L838.4741,11.5762 L840.3815,13.4366 L842,15 L842.5965,15 L842.6038,20.2 L842.2263,25.4 L842.4121,30.6 L842.6242,35.8 L842,41 L842,41 L841.7766,40.7702 L840.4102,42.9662 L838.3081,44.4055 L836.7654,46.4201 L834.6466,47.8423 L833,49.75 L832.9958,49.7198 L831.2453,50.3265 L829.397,50.2285 L827.6064,50.5464 L825.8207,50.8991 L824,51 L824,51 L824.0254,51.1832 L822.1998,50.7483 L820.4176,50.6264 L818.565,49.998 L816.8174,50.1252 L815,49.75 L815.1698,49.9247 L813.3377,48.1417 L811.5899,46.4453 L809.4503,44.3461 L807.5979,42.5422 L806,41 L805.4476,41 L805.9477,35.8 L805.8253,30.6 L806.6057,25.4 L805.8447,20.2 L806,15 " fill="#F8F8F8" style="stroke:#000000;stroke-width:1.5;"/><path d="M806,15 L806,15 L806.0651,15.067 L807.6716,16.618 L809.6599,18.5616 L811.5238,20.3774 L812.979,21.7727 L815,23.75 L814.9952,23.7158 L816.7739,23.8122 L818.5766,24.0812 L820.3958,24.47 L822.1577,24.4456 L824,25 L824,25 L824.0339,25.2437 L825.7615,24.4725 L827.5879,24.4129 L829.4264,24.4402 L831.1948,23.9622 L833,23.75 L833.0211,23.7717 L834.7901,21.9898 L836.6553,20.3069 L838.4741,18.5762 L840.3815,16.9366 L842,15 " fill="none" style="stroke:#000000;stroke-width:1.5;"/><text fill="#000000" font-family="FG Virgil" font-size="14" font-style="italic" lengthAdjust="spacing" textLength="90" x="776" y="599.3154">«repository»</text><text fill="#000000" font-family="FG Virgil" font-size="14" lengthAdjust="spacing" textLength="132" x="755" y="615.6123">ServicoRepository</text><path d="M806,628.9141 L806,628.9141 L806.0651,628.981 L807.6716,627.032 L809.6599,625.4757 L811.5238,623.7914 L812.979,621.6867 L815,620.1641 L814.9952,620.1299 L816.7739,619.7263 L818.5766,619.4952 L820.3958,619.3841 L822.1577,618.8597 L824,618.9141 L824,618.9141 L824.0339,619.1578 L825.7615,618.8866 L827.5879,619.327 L829.4264,619.8542 L831.1948,619.8763 L833,620.1641 L833.0211,620.1858 L834.7901,621.9039 L836.6553,623.721 L838.4741,625.4903 L840.3815,627.3507 L842,628.9141 L842.5965,628.9141 L842.6038,634.1141 L842.2263,639.3141 L842.4121,644.5141 L842.6242,649.7141 L842,654.9141 L842,654.9141 L841.7766,654.6842 L840.4102,656.8803 L838.3081,658.3196 L836.7654,660.3342 L834.6466,661.7563 L833,663.6641 L832.9958,663.6339 L831.2453,664.2405 L829.397,664.1426 L827.6064,664.4604 L825.8207,664.8131 L824,664.9141 L824,664.9141 L824.0254,665.0973 L822.1998,664.6623 L820.4176,664.5405 L818.565,663.9121 L816.8174,664.0393 L815,663.6641 L815.1698,663.8388 L813.3377,662.0557 L811.5899,660.3594 L809.4503,658.2601 L807.5979,656.4562 L806,654.9141 L805.4476,654.9141 L805.9477,649.7141 L805.8253,644.5141 L806.6057,639.3141 L805.8447,634.1141 L806,628.9141 " fill="#F8F8F8" style="stroke:#000000;stroke-width:1.5;"/><path d="M806,628.9141 L806,628.9141 L806.0651,628.981 L807.6716,630.532 L809.6599,632.4757 L811.5238,634.2914 L812.979,635.6867 L815,637.6641 L814.9952,637.6299 L816.7739,637.7263 L818.5766,637.9952 L820.3958,638.3841 L822.1577,638.3597 L824,638.9141 L824,638.9141 L824.0339,639.1578 L825.7615,638.3866 L827.5879,638.327 L829.4264,638.3542 L831.1948,637.8763 L833,637.6641 L833.0211,637.6858 L834.7901,635.9039 L836.6553,634.221 L838.4741,632.4903 L840.3815,630.8507 L842,628.9141 " fill="none" style="stroke:#000000;stroke-width:1.5;"/><text fill="#000000" font-family="FG Virgil" font-size="14" font-style="italic" lengthAdjust="spacing" textLength="90" x="941.5" y="63.9951">«repository»</text><text fill="#000000" font-family="FG Virgil" font-size="14" lengthAdjust="spacing" textLength="167" x="903" y="80.292">ColaboradorRepository</text><path d="M971.5,15 L971.5,15 L971.5651,15.067 L973.1716,13.118 L975.1599,11.5616 L977.0238,9.8774 L978.479,7.7727 L980.5,6.25 L980.4952,6.2158 L982.2739,5.8122 L984.0766,5.5812 L985.8958,5.47 L987.6577,4.9456 L989.5,5 L989.5,5 L989.5339,5.2437 L991.2615,4.9725 L993.0879,5.4129 L994.9264,5.9402 L996.6948,5.9622 L998.5,6.25 L998.5211,6.2717 L1000.2901,7.9898 L1002.1553,9.8069 L1003.9741,11.5762 L1005.8815,13.4366 L1007.5,15 L1008.0965,15 L1008.1038,20.2 L1007.7263,25.4 L1007.9121,30.6 L1008.1242,35.8 L1007.5,41 L1007.5,41 L1007.2766,40.7702 L1005.9102,42.9662 L1003.8081,44.4055 L1002.2654,46.4201 L1000.1466,47.8423 L998.5,49.75 L998.4958,49.7198 L996.7453,50.3265 L994.897,50.2285 L993.1064,50.5464 L991.3207,50.8991 L989.5,51 L989.5,51 L989.5254,51.1832 L987.6998,50.7483 L985.9176,50.6264 L984.065,49.998 L982.3174,50.1252 L980.5,49.75 L980.6698,49.9247 L978.8377,48.1417 L977.0899,46.4453 L974.9503,44.3461 L973.0979,42.5422 L971.5,41 L970.9476,41 L971.4477,35.8 L971.3253,30.6 L972.1057,25.4 L971.3447,20.2 L971.5,15 " fill="#F8F8F8" style="stroke:#000000;stroke-width:1.5;"/><path d="M971.5,15 L971.5,15 L971.5651,15.067 L973.1716,16.618 L975.1599,18.5616 L977.0238,20.3774 L978.479,21.7727 L980.5,23.75 L980.4952,23.7158 L982.2739,23.8122 L984.0766,24.0812 L985.8958,24.47 L987.6577,24.4456 L989.5,25 L989.5,25 L989.5339,25.2437 L991.2615,24.4725 L993.0879,24.4129 L994.9264,24.4402 L996.6948,23.9622 L998.5,23.75 L998.5211,23.7717 L1000.2901,21.9898 L1002.1553,20.3069 L1003.9741,18.5762 L1005.8815,16.9366 L1007.5,15 " fill="none" style="stroke:#000000;stroke-width:1.5;"/><text fill="#000000" font-family="FG Virgil" font-size="14" font-style="italic" lengthAdjust="spacing" textLength="90" x="941.5" y="599.3154">«repository»</text><text fill="#000000" font-family="FG Virgil" font-size="14" lengthAdjust="spacing" textLength="167" x="903" y="615.6123">ColaboradorRepository</text><path d="M971.5,628.9141 L971.5,628.9141 L971.5651,628.981 L973.1716,627.032 L975.1599,625.4757 L977.0238,623.7914 L978.479,621.6867 L980.5,620.1641 L980.4952,620.1299 L982.2739,619.7263 L984.0766,619.4952 L985.8958,619.3841 L987.6577,618.8597 L989.5,618.9141 L989.5,618.9141 L989.5339,619.1578 L991.2615,618.8866 L993.0879,619.327 L994.9264,619.8542 L996.6948,619.8763 L998.5,620.1641 L998.5211,620.1858 L1000.2901,621.9039 L1002.1553,623.721 L1003.9741,625.4903 L1005.8815,627.3507 L1007.5,628.9141 L1008.0965,628.9141 L1008.1038,634.1141 L1007.7263,639.3141 L1007.9121,644.5141 L1008.1242,649.7141 L1007.5,654.9141 L1007.5,654.9141 L1007.2766,654.6842 L1005.9102,656.8803 L1003.8081,658.3196 L1002.2654,660.3342 L1000.1466,661.7563 L998.5,663.6641 L998.4958,663.6339 L996.7453,664.2405 L994.897,664.1426 L993.1064,664.4604 L991.3207,664.8131 L989.5,664.9141 L989.5,664.9141 L989.5254,665.0973 L987.6998,664.6623 L985.9176,664.5405 L984.065,663.9121 L982.3174,664.0393 L980.5,663.6641 L980.6698,663.8388 L978.8377,662.0557 L977.0899,660.3594 L974.9503,658.2601 L973.0979,656.4562 L971.5,654.9141 L970.9476,654.9141 L971.4477,649.7141 L971.3253,644.5141 L972.1057,639.3141 L971.3447,634.1141 L971.5,628.9141 " fill="#F8F8F8" style="stroke:#000000;stroke-width:1.5;"/><path d="M971.5,628.9141 L971.5,628.9141 L971.5651,628.981 L973.1716,630.532 L975.1599,632.4757 L977.0238,634.2914 L978.479,635.6867 L980.5,637.6641 L980.4952,637.6299 L982.2739,637.7263 L984.0766,637.9952 L985.8958,638.3841 L987.6577,638.3597 L989.5,638.9141 L989.5,638.9141 L989.5339,639.1578 L991.2615,638.3866 L993.0879,638.327 L994.9264,638.3542 L996.6948,637.8763 L998.5,637.6641 L998.5211,637.6858 L1000.2901,635.9039 L1002.1553,634.221 L1003.9741,632.4903 L1005.8815,630.8507 L1007.5,628.9141 " fill="none" style="stroke:#000000;stroke-width:1.5;"/><polygon fill="#FFFFFF" points="89,93.5938,89,93.6638,91,93.4556,93,93.6582,95,93.727,97,93.356,99,93.5938,98.9223,93.5938,98.5735,103.6714,98.6165,113.749,98.9318,123.8267,98.3086,133.9043,99.5536,143.9819,98.3697,154.0596,98.8022,164.1372,99.4319,174.2148,98.9142,184.2925,99.0682,194.3701,98.9681,204.4478,99.1785,214.5254,99.2391,224.603,99.5857,234.6807,99.6711,244.7583,99.6793,254.8359,99.2546,264.9136,99.4636,274.9912,99.7022,285.0688,98.2788,295.1465,99.6785,305.2241,98.7035,315.3018,99.5338,325.3794,98.505,335.457,98.9315,345.5347,99.7416,355.6123,98.9513,365.6899,99.1053,375.7676,99.3386,385.8452,99.4162,395.9229,98.9961,406.0005,99.2872,416.0781,98.4276,426.1558,99.2844,436.2334,99.5482,446.311,99.4445,456.3887,99.613,466.4663,98.5169,476.5439,98.3478,486.6216,98.3786,496.6992,98.9411,506.7769,98.8035,516.8545,99.6814,526.9321,98.8253,537.0098,98.6569,547.0874,99.2283,557.165,98.3332,567.2427,99,577.3203,99,577.1473,97,577.5366,95,577.4655,93,577.5651,91,577.213,89,577.3203,89.3192,577.3203,89.5904,567.2427,88.5276,557.165,88.9041,547.0874,89.126,537.0098,89.6518,526.9321,88.9958,516.8545,89.4626,506.7769,88.4462,496.6992,88.3227,486.6216,89.5036,476.5439,88.2831,466.4663,89.509,456.3887,89.2066,446.311,88.7321,436.2334,88.6462,426.1558,89.4588,416.0781,88.7007,406.0005,89.5919,395.9229,88.4473,385.8452,89.6174,375.7676,89.4843,365.6899,89.245,355.6123,89.0472,345.5347,89.7266,335.457,89.6136,325.3794,89.1693,315.3018,89.2682,305.2241,88.8697,295.1465,89.7165,285.0688,89.1549,274.9912,89.1726,264.9136,88.3916,254.8359,88.5948,244.7583,89.5307,234.6807,89.4298,224.603,88.9571,214.5254,88.6778,204.4478,88.7811,194.3701,88.3138,184.2925,89.4147,174.2148,89.7396,164.1372,89.5264,154.0596,89.6949,143.9819,88.8633,133.9043,89.0872,123.8267,88.6124,113.749,89.284,103.6714,89,93.5938" style="stroke:#383838;stroke-width:1.0;"/><polygon fill="#FFFFFF" points="316,156.8594,316,156.9294,318,156.7213,320,156.9238,322,156.9926,324,156.6216,326,156.8594,325.9741,156.8594,325.8578,162.6859,325.8722,168.5125,325.9773,174.3391,325.7695,180.1656,326,185.9922,326,186.1767,324,185.7821,322,185.9263,320,186.1362,318,185.9636,316,185.9922,316.0227,185.9922,315.9894,180.1656,316.0595,174.3391,316.0797,168.5125,316.1952,162.6859,316,156.8594" style="stroke:#383838;stroke-width:1.0;"/><polygon fill="#FFFFFF" points="316,215.125,316,215.1951,318,214.9869,320,215.1894,322,215.2582,324,214.8872,326,215.125,325.9223,215.125,325.5735,224.9323,325.6165,234.7396,325.9318,244.5469,325.3086,254.3542,326.5536,264.1615,325.3697,273.9688,325.8022,283.776,326.4319,293.5833,326,303.3906,326,303.362,324,303.4134,322,303.38,320,303.4501,318,303.4703,316,303.3906,316.5857,303.3906,316.6711,293.5833,316.6793,283.776,316.2546,273.9688,316.4636,264.1615,316.7022,254.3542,315.2788,244.5469,316.6785,234.7396,315.7035,224.9323,316,215.125" style="stroke:#383838;stroke-width:1.0;"/><polygon fill="#FFFFFF" points="316,356.6563,316,356.7263,318,356.5181,320,356.7207,322,356.7895,324,356.4185,326,356.6563,325.9223,356.6563,325.5735,366.4635,325.6165,376.2708,325.9318,386.0781,325.3086,395.8854,326.5536,405.6927,325.3697,415.5,325.8022,425.3073,326.4319,435.1146,326,444.9219,326,444.8933,324,444.9446,322,444.9112,320,444.9814,318,445.0016,316,444.9219,316.5857,444.9219,316.6711,435.1146,316.6793,425.3073,316.2546,415.5,316.4636,405.6927,316.7022,395.8854,315.2788,386.0781,316.6785,376.2708,315.7035,366.4635,316,356.6563" style="stroke:#383838;stroke-width:1.0;"/><polygon fill="#FFFFFF" points="316,474.0547,316,474.1247,318,473.9166,320,474.1191,322,474.1879,324,473.8169,326,474.0547,325.9223,474.0547,325.5735,483.862,325.6165,493.6693,325.9318,503.4766,325.3086,513.2839,326.5536,523.0911,325.3697,532.8984,325.8022,542.7057,326.4319,552.513,326,562.3203,326,562.2917,324,562.3431,322,562.3097,320,562.3798,318,562.4,316,562.3203,316.5857,562.3203,316.6711,552.513,316.6793,542.7057,316.2546,532.8984,316.4636,523.0911,316.7022,513.2839,315.2788,503.4766,316.6785,493.6693,315.7035,483.862,316,474.0547" style="stroke:#383838;stroke-width:1.0;"/><polygon fill="#FFFFFF" points="819,385.7891,819,385.8591,821,385.651,823,385.8535,825,385.9223,827,385.5513,829,385.7891,828.9741,385.7891,828.8578,391.7891,828.8722,397.7891,828.9773,403.7891,828.7695,409.7891,829,415.7891,829,415.9736,827,415.579,825,415.7231,823,415.933,821,415.7605,819,415.7891,819.0227,415.7891,818.9894,409.7891,819.0595,403.7891,819.0797,397.7891,819.1952,391.7891,819,385.7891" style="stroke:#383838;stroke-width:1.0;"/><polygon fill="#FFFFFF" points="819,503.1875,819,503.2576,821,503.0494,823,503.2519,825,503.3207,827,502.9497,829,503.1875,828.9741,503.1875,828.8578,509.1875,828.8722,515.1875,828.9773,521.1875,828.7695,527.1875,829,533.1875,829,533.372,827,532.9774,825,533.1216,823,533.3315,821,533.1589,819,533.1875,819.0227,533.1875,818.9894,527.1875,819.0595,521.1875,819.0797,515.1875,819.1952,509.1875,819,503.1875" style="stroke:#383838;stroke-width:1.0;"/><polygon fill="#FFFFFF" points="984.5,244.2578,984.5,244.3279,986.5,244.1197,988.5,244.3222,990.5,244.391,992.5,244.02,994.5,244.2578,994.4741,244.2578,994.3578,250.2578,994.3722,256.2578,994.4773,262.2578,994.2695,268.2578,994.5,274.2578,994.5,274.4424,992.5,274.0477,990.5,274.1919,988.5,274.4018,986.5,274.2292,984.5,274.2578,984.5227,274.2578,984.4894,268.2578,984.5595,262.2578,984.5797,256.2578,984.6952,250.2578,984.5,244.2578" style="stroke:#383838;stroke-width:1.0;"/><path d="M99,114.7266 L99,114.82 L107.4,114.5424 L115.8,114.8125 L124.2,114.9042 L132.6,114.4095 L141,114.7266 " fill="none" style="stroke:#383838;stroke-width:1.0;"/><path d="M141,114.7266 L141.0934,114.7266 L140.8159,117.3266 L141.0859,119.9266 L141.1776,122.5266 L140.6829,125.1266 L141,127.7266 " fill="none" style="stroke:#383838;stroke-width:1.0;"/><path d="M100,127.7266 L100,127.82 L108.2,127.5424 L116.4,127.8125 L124.6,127.9042 L132.8,127.4095 L141,127.7266 " fill="none" style="stroke:#383838;stroke-width:1.0;"/><polygon fill="#383838" points="110,123.7266,110.026,123.7916,107.9487,124.3983,106.0239,125.3864,104.0495,126.2503,101.9117,126.7058,100,127.7266,99.9904,127.7025,101.9472,128.3946,103.9525,129.2079,105.9916,130.1055,107.9144,130.7126,110,131.7266,110.1305,131.8571,109.0514,130.778,108.3534,130.0799,107.7018,129.4284,106.7798,128.5063,106,127.7266,106.0161,127.7426,106.7925,126.919,107.6421,126.1686,108.4564,125.3829,109.338,124.6646,110,123.7266" style="stroke:#383838;stroke-width:1.0;"/><text fill="#000000" font-family="FG Virgil" font-size="13" lengthAdjust="spacing" textLength="61" x="106" y="109.6606">doShow()</text><polygon fill="#383838" points="304,152.8594,304.026,152.9244,305.9487,153.5311,308.0239,154.5192,310.0495,155.3831,311.9117,155.8386,314,156.8594,313.9904,156.8353,311.9472,157.5274,309.9525,158.3407,307.9916,159.2383,305.9144,159.8454,304,160.8594,304.1305,160.9899,304.6514,159.9108,305.5534,159.2128,306.5018,158.5612,307.1798,157.6392,308,156.8594,308.0161,156.8755,307.1925,156.0518,306.4421,155.3015,305.6564,154.5157,304.938,153.7974,304,152.8594" style="stroke:#383838;stroke-width:1.0;"/><path d="M99,156.8594 L99,157.1396 L109.0476,156.3069 L119.0952,157.1171 L129.1429,157.3923 L139.1905,155.9082 L149.2381,156.7558 L159.2857,156.2907 L169.3333,156.348 L179.381,156.7685 L189.4286,155.9375 L199.4762,157.5976 L209.5238,156.019 L219.5714,156.5957 L229.619,157.4353 L239.6667,156.745 L249.7143,156.9504 L259.7619,156.8168 L269.8095,157.0974 L279.8571,157.1782 L289.9048,157.6403 L299.9524,157.7541 L310,156.8594 " fill="none" style="stroke:#383838;stroke-width:1.0;"/><text fill="#000000" font-family="FG Virgil" font-size="13" lengthAdjust="spacing" textLength="82" x="106" y="151.7935">listServicos()</text><polygon fill="#383838" points="110,181.9922,110.026,182.0572,107.9487,182.664,106.0239,183.652,104.0495,184.5159,101.9117,184.9714,100,185.9922,99.9904,185.9681,101.9472,186.6602,103.9525,187.4735,105.9916,188.3711,107.9144,188.9782,110,189.9922,110.1305,190.1227,109.0514,189.0436,108.3534,188.3456,107.7018,187.694,106.7798,186.772,106,185.9922,106.0161,186.0083,106.7925,185.1847,107.6421,184.4343,108.4564,183.6486,109.338,182.9302,110,181.9922" style="stroke:#383838;stroke-width:1.0;"/><path d="M104,185.9922 L104,186.2724 L113.8182,185.4398 L123.6364,186.2499 L133.4545,186.5251 L143.2727,185.041 L153.0909,185.8886 L162.9091,185.4235 L172.7273,185.4809 L182.5455,185.9013 L192.3636,185.0704 L202.1818,186.7304 L212,185.1518 L221.8182,185.7285 L231.6364,186.5681 L241.4545,185.8778 L251.2727,186.0832 L261.0909,185.9496 L270.9091,186.2302 L280.7273,186.311 L290.5455,186.7731 L300.3636,186.8869 L310.1818,186.8979 L320,185.9922 " fill="none" style="stroke:#383838;stroke-width:1.0;"/><text fill="#000000" font-family="FG Virgil" font-size="13" lengthAdjust="spacing" textLength="80" x="116" y="180.9263">listaServicos</text><polygon fill="#383838" points="304,211.125,304.026,211.19,305.9487,211.7968,308.0239,212.7848,310.0495,213.6487,311.9117,214.1042,314,215.125,313.9904,215.1009,311.9472,215.793,309.9525,216.6063,307.9916,217.5039,305.9144,218.111,304,219.125,304.1305,219.2555,304.6514,218.1764,305.5534,217.4784,306.5018,216.8268,307.1798,215.9048,308,215.125,308.0161,215.1411,307.1925,214.3175,306.4421,213.5671,305.6564,212.7814,304.938,212.063,304,211.125" style="stroke:#383838;stroke-width:1.0;"/><path d="M99,215.125 L99,215.4052 L109.0476,214.5726 L119.0952,215.3827 L129.1429,215.6579 L139.1905,214.1738 L149.2381,215.0214 L159.2857,214.5563 L169.3333,214.6137 L179.381,215.0341 L189.4286,214.2032 L199.4762,215.8632 L209.5238,214.2846 L219.5714,214.8613 L229.619,215.7009 L239.6667,215.0106 L249.7143,215.216 L259.7619,215.0824 L269.8095,215.363 L279.8571,215.4438 L289.9048,215.9059 L299.9524,216.0197 L310,215.125 " fill="none" style="stroke:#383838;stroke-width:1.0;"/><text fill="#000000" font-family="FG Virgil" font-size="13" lengthAdjust="spacing" textLength="60" x="106" y="210.0591">getUser()</text><polygon fill="#383838" points="972.5,240.2578,972.526,240.3229,974.4487,240.9296,976.5239,241.9176,978.5495,242.7815,980.4117,243.237,982.5,244.2578,982.4904,244.2338,980.4472,244.9258,978.4525,245.7391,976.4916,246.6367,974.4144,247.2438,972.5,248.2578,972.6305,248.3883,973.1514,247.3093,974.0534,246.6112,975.0018,245.9596,975.6798,245.0376,976.5,244.2578,976.5161,244.2739,975.6925,243.4503,974.9421,242.6999,974.1564,241.9142,973.438,241.1959,972.5,240.2578" style="stroke:#383838;stroke-width:1.0;"/><path d="M326,244.2578 L326,244.5381 L336.0385,243.7054 L346.0769,244.5155 L356.1154,244.7907 L366.1538,243.3066 L376.1923,244.1542 L386.2308,243.6892 L396.2692,243.7465 L406.3077,244.1669 L416.3462,243.336 L426.3846,244.996 L436.4231,243.4174 L446.4615,243.9941 L456.5,244.8337 L466.5385,244.1434 L476.5769,244.3488 L486.6154,244.2152 L496.6538,244.4958 L506.6923,244.5767 L516.7308,245.0387 L526.7692,245.1526 L536.8077,245.1635 L546.8462,244.5973 L556.8846,244.8759 L566.9231,245.1941 L576.9615,243.2962 L587,245.1625 L597.0385,243.8625 L607.0769,244.9696 L617.1154,243.5978 L627.1538,244.1665 L637.1923,245.2466 L647.2308,244.1928 L657.2692,244.3982 L667.3077,244.7093 L677.3462,244.8128 L687.3846,244.2526 L697.4231,244.6408 L707.4615,243.4946 L717.5,244.637 L727.5385,244.9887 L737.5769,244.8505 L747.6154,245.0752 L757.6538,243.6137 L767.6923,243.3882 L777.7308,243.4293 L787.7692,244.1793 L797.8077,243.9958 L807.8462,245.1664 L817.8846,244.0249 L827.9231,243.8004 L837.9615,244.5622 L848,243.3687 L858.0385,243.5656 L868.0769,245.1231 L878.1154,244.8387 L888.1538,245.2371 L898.1923,243.8288 L908.2308,244.6834 L918.2692,245.045 L928.3077,243.6279 L938.3462,244.13 L948.3846,244.4258 L958.4231,245.1268 L968.4615,244.2522 L978.5,244.2578 " fill="none" style="stroke:#383838;stroke-width:1.0;"/><text fill="#000000" font-family="FG Virgil" font-size="13" lengthAdjust="spacing" textLength="60" x="333" y="239.1919">getUser()</text><polygon fill="#383838" points="110,299.3906,110.026,299.4557,107.9487,300.0624,106.0239,301.0504,104.0495,301.9143,101.9117,302.3698,100,303.3906,99.9904,303.3666,101.9472,304.0586,103.9525,304.8719,105.9916,305.7695,107.9144,306.3767,110,307.3906,110.1305,307.5211,109.0514,306.4421,108.3534,305.744,107.7018,305.0924,106.7798,304.1704,106,303.3906,106.0161,303.4067,106.7925,302.5831,107.6421,301.8327,108.4564,301.047,109.338,300.3287,110,299.3906" style="stroke:#383838;stroke-width:1.0;"/><path d="M104,303.3906 L104,303.6709 L113.8182,302.8382 L123.6364,303.6483 L133.4545,303.9235 L143.2727,302.4394 L153.0909,303.287 L162.9091,302.822 L172.7273,302.8793 L182.5455,303.2997 L192.3636,302.4688 L202.1818,304.1288 L212,302.5503 L221.8182,303.1269 L231.6364,303.9666 L241.4545,303.2763 L251.2727,303.4816 L261.0909,303.348 L270.9091,303.6287 L280.7273,303.7095 L290.5455,304.1715 L300.3636,304.2854 L310.1818,304.2963 L320,303.3906 " fill="none" style="stroke:#383838;stroke-width:1.0;"/><text fill="#000000" font-family="FG Virgil" font-size="13" lengthAdjust="spacing" textLength="34" x="116" y="298.3247">colab</text><path d="M10,318.3906 L10,318.9511 L19.75,317.2858 L29.5,318.9061 L39.25,319.4564 L49,316.4882 L58.75,318.1834 L68.5,317.2533 L78.25,317.368 L88,318.3906 L87.9394,318.3906 L87.3854,319.7906 L88.4921,321.1906 L87.4398,322.5906 L87.8242,323.9906 L88,325.3906 L88.2715,325.6621 L85.9461,327.3367 L84.0429,329.4335 L81.9799,331.3705 L80.1122,333.5028 L78,335.3906 L78,336.0283 L68.2857,336.9525 L58.5714,337.1801 L48.8571,337.202 L39.1429,336.0696 L29.4286,336.6269 L19.7143,337.2632 L10,335.3906 L9.3589,335.3906 L10.6031,331.9906 L9.7364,328.5906 L10.4745,325.1906 L9.56,321.7906 L10,318.3906 " fill="#EEEEEE" style="stroke:#000000;stroke-width:1.0;"/><polygon fill="none" points="10,318.3906,10,318.6008,20.0337,317.9763,30.0674,318.5839,40.1011,318.7903,50.1348,317.6772,60.1685,318.3129,70.2022,317.9641,80.236,318.0071,90.2697,318.3225,100.3034,317.6993,110.3371,318.9443,120.3708,317.7603,130.4045,318.1929,140.4382,318.8226,150.4719,318.3048,160.5056,318.4589,170.5393,318.3587,180.573,318.5692,190.6067,318.6298,200.6404,318.9763,210.6742,319.0617,220.7079,319.0699,230.7416,318.6453,240.7753,318.8542,250.809,319.0929,260.8427,317.6694,270.8764,319.0691,280.9101,318.0941,290.9438,318.9244,300.9775,317.8956,311.0112,318.3221,321.0449,319.1322,331.0787,318.3419,341.1124,318.4959,351.1461,318.7293,361.1798,318.8069,371.2135,318.3867,381.2472,318.6778,391.2809,317.8182,401.3146,318.675,411.3483,318.9388,421.382,318.8352,431.4157,319.0036,441.4494,317.9075,451.4831,317.7384,461.5169,317.7692,471.5506,318.3317,481.5843,318.1941,491.618,319.072,501.6517,318.2159,511.6854,318.0476,521.7191,318.6189,531.7528,317.7238,541.7865,317.8715,551.8202,319.0396,561.8539,318.8263,571.8876,319.1251,581.9213,318.0688,591.9551,318.7098,601.9888,318.981,612.0225,317.9182,622.0562,318.2948,632.0899,318.5166,642.1236,319.0424,652.1573,318.3864,662.191,318.8532,672.2247,317.8368,682.2584,317.7134,692.2921,318.8942,702.3258,317.6737,712.3596,318.8996,722.3933,318.5973,732.427,318.1227,742.4607,318.0369,752.4944,318.8494,762.5281,318.0913,772.5618,318.9825,782.5955,317.8379,792.6292,319.0081,802.6629,318.8749,812.6966,318.6356,822.7303,318.4378,832.764,319.1172,842.7978,319.0042,852.8315,318.5599,862.8652,318.6588,872.8989,318.2604,882.9326,319.1071,892.9663,318.5455,903,318.3906,903.1726,318.3906,902.3916,328.4678,902.5948,338.545,903.5307,348.6222,903.4298,358.6994,902.9571,368.7766,902.6778,378.8538,902.7811,388.9309,902.3138,399.0081,903.4147,409.0853,903.7396,419.1625,903.5264,429.2397,903.6949,439.3169,902.8633,449.3941,903.0872,459.4713,902.6124,469.5484,903.284,479.6256,903.2468,489.7028,903.5524,499.78,902.7703,509.8572,902.8656,519.9344,903.4435,530.0116,903.5673,540.0888,902.4875,550.1659,902.8061,560.2431,903,570.3203,903,570.4696,892.9663,569.7095,882.9326,570.6737,872.8989,570.5783,862.8652,570.2196,852.8315,570.4626,842.7978,571.049,832.764,570.0074,822.7303,570.6353,812.6966,570.606,802.6629,570.4361,792.6292,570.4612,782.5955,570.4338,772.5618,569.6962,762.5281,569.9195,752.4944,569.8588,742.4607,570.3841,732.427,570.4084,722.3933,570.4821,712.3596,570.0293,702.3258,570.2528,692.2921,570.2001,682.2584,570.8972,672.2247,570.7469,662.191,569.8348,652.1573,570.2474,642.1236,569.7431,632.0899,570.6087,622.0562,570.9288,612.0225,570.8649,601.9888,569.8848,591.9551,570.7843,581.9213,569.5775,571.8876,570.5205,561.8539,570.021,551.8202,570.417,541.7865,570.5606,531.7528,570.7924,521.7191,569.6004,511.6854,570.7958,501.6517,570.4985,491.618,570.6756,481.5843,571.0681,471.5506,570.3258,461.5169,570.4956,451.4831,570.5338,441.4494,570.5175,431.4157,570.3195,421.382,571.031,411.3483,569.7106,401.3146,570.8856,391.2809,569.6963,381.2472,569.78,371.2135,570.3603,361.1798,570.3486,351.1461,569.8275,341.1124,570.734,331.0787,570.4292,321.0449,571.047,311.0112,570.9874,300.9775,569.8721,290.9438,569.9224,280.9101,570.1911,270.8764,570.6758,260.8427,570.7233,250.809,570.6215,240.7753,569.9784,230.7416,570.9567,220.7079,570.9541,210.6742,570.273,200.6404,570.0813,190.6067,569.9189,180.573,570.1057,170.5393,570.4577,160.5056,570.2519,150.4719,569.9025,140.4382,570.8077,130.4045,569.8614,120.3708,570.8227,110.3371,570.7476,100.3034,570.6922,90.2697,571.0128,80.236,570.0744,70.2022,570.0197,60.1685,570.8392,50.1348,569.7234,40.1011,570.0863,30.0674,570.4358,20.0337,570.389,10,570.3203,9.6415,570.3203,9.957,560.2431,10.7446,550.1659,10.6485,540.0888,9.4037,530.0116,10.0785,519.9344,9.4861,509.8572,9.9737,499.78,10.293,489.7028,10.4199,479.6256,9.3353,469.5484,10.4005,459.4713,10.0084,449.3941,9.4447,439.3169,9.5289,429.2397,10.3266,419.1625,10.2499,409.0853,9.9836,399.0081,9.3279,388.9309,10.6581,378.8538,9.6882,368.7766,9.4719,358.6994,9.9327,348.6222,10.5897,338.545,10.6154,328.4678,10,318.3906" style="stroke:#000000;stroke-width:2.0;"/><text fill="#000000" font-family="FG Virgil" font-size="13" font-weight="bold" lengthAdjust="spacing" textLength="33" x="25" y="331.4575">loop</text><polygon fill="#383838" points="304,352.6563,304.026,352.7213,305.9487,353.328,308.0239,354.3161,310.0495,355.1799,311.9117,355.6355,314,356.6563,313.9904,356.6322,311.9472,357.3243,309.9525,358.1376,307.9916,359.0352,305.9144,359.6423,304,360.6563,304.1305,360.7867,304.6514,359.7077,305.5534,359.0096,306.5018,358.3581,307.1798,357.436,308,356.6563,308.0161,356.6723,307.1925,355.8487,306.4421,355.0983,305.6564,354.3126,304.938,353.5943,304,352.6563" style="stroke:#383838;stroke-width:1.0;"/><path d="M99,356.6563 L99,356.9365 L109.0476,356.1038 L119.0952,356.914 L129.1429,357.1892 L139.1905,355.7051 L149.2381,356.5526 L159.2857,356.0876 L169.3333,356.1449 L179.381,356.5654 L189.4286,355.7344 L199.4762,357.3944 L209.5238,355.8159 L219.5714,356.3926 L229.619,357.2322 L239.6667,356.5419 L249.7143,356.7472 L259.7619,356.6137 L269.8095,356.8943 L279.8571,356.9751 L289.9048,357.4372 L299.9524,357.551 L310,356.6563 " fill="none" style="stroke:#383838;stroke-width:1.0;"/><text fill="#000000" font-family="FG Virgil" font-size="13" lengthAdjust="spacing" textLength="65" x="106" y="351.5903">getFluxo()</text><polygon fill="#383838" points="807,381.7891,807.026,381.8541,808.9487,382.4608,811.0239,383.4489,813.0495,384.3128,814.9117,384.7683,817,385.7891,816.9904,385.765,814.9472,386.4571,812.9525,387.2704,810.9916,388.168,808.9144,388.7751,807,389.7891,807.1305,389.9196,807.6514,388.8405,808.5534,388.1424,809.5018,387.4909,810.1798,386.5688,811,385.7891,811.0161,385.8051,810.1925,384.9815,809.4421,384.2311,808.6564,383.4454,807.938,382.7271,807,381.7891" style="stroke:#383838;stroke-width:1.0;"/><path d="M326,385.7891 L326,386.0693 L335.9388,385.2366 L345.8776,386.0468 L355.8163,386.322 L365.7551,384.8379 L375.6939,385.6854 L385.6327,385.2204 L395.5714,385.2777 L405.5102,385.6982 L415.449,384.8672 L425.3878,386.5273 L435.3265,384.9487 L445.2653,385.5254 L455.2041,386.365 L465.1429,385.6747 L475.0816,385.88 L485.0204,385.7465 L494.9592,386.0271 L504.898,386.1079 L514.8367,386.57 L524.7755,386.6838 L534.7143,386.6947 L544.6531,386.1286 L554.5918,386.4072 L564.5306,386.7254 L574.4694,384.8275 L584.4082,386.6937 L594.3469,385.3937 L604.2857,386.5008 L614.2245,385.129 L624.1633,385.6977 L634.102,386.7779 L644.0408,385.7241 L653.9796,385.9295 L663.9184,386.2406 L673.8571,386.344 L683.7959,385.7839 L693.7347,386.172 L703.6735,385.0258 L713.6122,386.1682 L723.551,386.52 L733.4898,386.3818 L743.4286,386.6064 L753.3673,385.145 L763.3061,384.9195 L773.2449,384.9605 L783.1837,385.7106 L793.1224,385.527 L803.0612,386.6976 L813,385.7891 " fill="none" style="stroke:#383838;stroke-width:1.0;"/><text fill="#000000" font-family="FG Virgil" font-size="13" lengthAdjust="spacing" textLength="111" x="333" y="380.7231">getFluxo(servico)</text><polygon fill="#383838" points="110,440.9219,110.026,440.9869,107.9487,441.5936,106.0239,442.5817,104.0495,443.4456,101.9117,443.9011,100,444.9219,99.9904,444.8978,101.9472,445.5899,103.9525,446.4032,105.9916,447.3008,107.9144,447.9079,110,448.9219,110.1305,449.0524,109.0514,447.9733,108.3534,447.2753,107.7018,446.6237,106.7798,445.7017,106,444.9219,106.0161,444.938,106.7925,444.1143,107.6421,443.364,108.4564,442.5782,109.338,441.8599,110,440.9219" style="stroke:#383838;stroke-width:1.0;"/><path d="M104,444.9219 L104,445.2021 L113.8182,444.3694 L123.6364,445.1796 L133.4545,445.4548 L143.2727,443.9707 L153.0909,444.8183 L162.9091,444.3532 L172.7273,444.4105 L182.5455,444.831 L192.3636,444 L202.1818,445.6601 L212,444.0815 L221.8182,444.6582 L231.6364,445.4978 L241.4545,444.8075 L251.2727,445.0129 L261.0909,444.8793 L270.9091,445.1599 L280.7273,445.2407 L290.5455,445.7028 L300.3636,445.8166 L310.1818,445.8276 L320,444.9219 " fill="none" style="stroke:#383838;stroke-width:1.0;"/><text fill="#000000" font-family="FG Virgil" font-size="13" lengthAdjust="spacing" textLength="32" x="116" y="439.856">fluxo</text><polygon fill="#383838" points="304,470.0547,304.026,470.1197,305.9487,470.7265,308.0239,471.7145,310.0495,472.5784,311.9117,473.0339,314,474.0547,313.9904,474.0306,311.9472,474.7227,309.9525,475.536,307.9916,476.4336,305.9144,477.0407,304,478.0547,304.1305,478.1852,304.6514,477.1061,305.5534,476.4081,306.5018,475.7565,307.1798,474.8345,308,474.0547,308.0161,474.0708,307.1925,473.2472,306.4421,472.4968,305.6564,471.7111,304.938,470.9927,304,470.0547" style="stroke:#383838;stroke-width:1.0;"/><path d="M99,474.0547 L99,474.3349 L109.0476,473.5023 L119.0952,474.3124 L129.1429,474.5876 L139.1905,473.1035 L149.2381,473.9511 L159.2857,473.486 L169.3333,473.5434 L179.381,473.9638 L189.4286,473.1329 L199.4762,474.7929 L209.5238,473.2143 L219.5714,473.791 L229.619,474.6306 L239.6667,473.9403 L249.7143,474.1457 L259.7619,474.0121 L269.8095,474.2927 L279.8571,474.3735 L289.9048,474.8356 L299.9524,474.9494 L310,474.0547 " fill="none" style="stroke:#383838;stroke-width:1.0;"/><text fill="#000000" font-family="FG Virgil" font-size="13" lengthAdjust="spacing" textLength="198" x="106" y="468.9888">tarefasPendentes(fluxo, colab)</text><polygon fill="#383838" points="807,499.1875,807.026,499.2525,808.9487,499.8593,811.0239,500.8473,813.0495,501.7112,814.9117,502.1667,817,503.1875,816.9904,503.1634,814.9472,503.8555,812.9525,504.6688,810.9916,505.5664,808.9144,506.1735,807,507.1875,807.1305,507.318,807.6514,506.2389,808.5534,505.5409,809.5018,504.8893,810.1798,503.9673,811,503.1875,811.0161,503.2036,810.1925,502.38,809.4421,501.6296,808.6564,500.8439,807.938,500.1255,807,499.1875" style="stroke:#383838;stroke-width:1.0;"/><path d="M326,503.1875 L326,503.4677 L335.9388,502.6351 L345.8776,503.4452 L355.8163,503.7204 L365.7551,502.2363 L375.6939,503.0839 L385.6327,502.6188 L395.5714,502.6762 L405.5102,503.0966 L415.449,502.2657 L425.3878,503.9257 L435.3265,502.3471 L445.2653,502.9238 L455.2041,503.7634 L465.1429,503.0731 L475.0816,503.2785 L485.0204,503.1449 L494.9592,503.4255 L504.898,503.5063 L514.8367,503.9684 L524.7755,504.0822 L534.7143,504.0932 L544.6531,503.527 L554.5918,503.8056 L564.5306,504.1238 L574.4694,502.2259 L584.4082,504.0922 L594.3469,502.7922 L604.2857,503.8992 L614.2245,502.5275 L624.1633,503.0962 L634.102,504.1763 L644.0408,503.1225 L653.9796,503.3279 L663.9184,503.639 L673.8571,503.7425 L683.7959,503.1823 L693.7347,503.5705 L703.6735,502.4243 L713.6122,503.5667 L723.551,503.9184 L733.4898,503.7802 L743.4286,504.0049 L753.3673,502.5434 L763.3061,502.3179 L773.2449,502.359 L783.1837,503.109 L793.1224,502.9255 L803.0612,504.096 L813,503.1875 " fill="none" style="stroke:#383838;stroke-width:1.0;"/><text fill="#000000" font-family="FG Virgil" font-size="13" lengthAdjust="spacing" textLength="198" x="333" y="498.1216">tarefasPendentes(fluxo, colab)</text><polygon fill="#383838" points="110,558.3203,110.026,558.3854,107.9487,558.9921,106.0239,559.9801,104.0495,560.844,101.9117,561.2995,100,562.3203,99.9904,562.2963,101.9472,562.9883,103.9525,563.8016,105.9916,564.6992,107.9144,565.3063,110,566.3203,110.1305,566.4508,109.0514,565.3718,108.3534,564.6737,107.7018,564.0221,106.7798,563.1001,106,562.3203,106.0161,562.3364,106.7925,561.5128,107.6421,560.7624,108.4564,559.9767,109.338,559.2584,110,558.3203" style="stroke:#383838;stroke-width:1.0;"/><path d="M104,562.3203 L104,562.6006 L113.8182,561.7679 L123.6364,562.578 L133.4545,562.8532 L143.2727,561.3691 L153.0909,562.2167 L162.9091,561.7517 L172.7273,561.809 L182.5455,562.2294 L192.3636,561.3985 L202.1818,563.0585 L212,561.4799 L221.8182,562.0566 L231.6364,562.8962 L241.4545,562.2059 L251.2727,562.4113 L261.0909,562.2777 L270.9091,562.5583 L280.7273,562.6392 L290.5455,563.1012 L300.3636,563.2151 L310.1818,563.226 L320,562.3203 " fill="none" style="stroke:#383838;stroke-width:1.0;"/><text fill="#000000" font-family="FG Virgil" font-size="13" lengthAdjust="spacing" textLength="75" x="116" y="557.2544">listaTarefas</text><!--MD5=[39b2e4510bf6001de937bed6fd9d68a9]
@startuml
'http://plantuml.com/skinparam.html
skinparam handwritten true
skinparam monochrome true
skinparam packageStyle rect
skinparam defaultFontName FG Virgil
skinparam shadowing false

participant ConsultarTarefasUI as UI <<presentation>>
control ConsultarTarefasController as CTRL <<application>>
participant PersistenceContext as Persistence <<persistence>>
participant RepositoryFactory as Factory <<factory>>
database ServicoRepository as SRepository <<repository>>
database ColaboradorRepository as CRepository <<repository>>

activate UI

UI -> UI : doShow()

UI -> CTRL: listServicos()
    activate CTRL
      CTRL -> UI: listaServicos
    deactivate CTRL

UI -> CTRL: getUser()
    activate CTRL
    CTRL -> CRepository: getUser()
      activate CRepository
      deactivate CRepository
      CTRL -> UI: colab
    deactivate CTRL
    
loop
UI -> CTRL: getFluxo()
    activate CTRL
    CTRL -> SRepository: getFluxo(servico)
      activate SRepository
      deactivate SRepository
      CTRL -> UI: fluxo
    deactivate CTRL
    
UI -> CTRL: tarefasPendentes(fluxo, colab)
    activate CTRL
      CTRL -> SRepository: tarefasPendentes(fluxo, colab)
      activate SRepository
      deactivate SRepository
      CTRL -> UI: listaTarefas
    deactivate CTRL
end
deactivate UI
@enduml

@startuml
skinparam handwritten true
skinparam monochrome true
skinparam packageStyle rect
skinparam defaultFontName FG Virgil
skinparam shadowing false

participant ConsultarTarefasUI as UI <<presentation>>
control ConsultarTarefasController as CTRL <<application>>
participant PersistenceContext as Persistence <<persistence>>
participant RepositoryFactory as Factory <<factory>>
database ServicoRepository as SRepository <<repository>>
database ColaboradorRepository as CRepository <<repository>>

activate UI

UI -> UI : doShow()

UI -> CTRL: listServicos()
    activate CTRL
      CTRL -> UI: listaServicos
    deactivate CTRL

UI -> CTRL: getUser()
    activate CTRL
    CTRL -> CRepository: getUser()
      activate CRepository
      deactivate CRepository
      CTRL -> UI: colab
    deactivate CTRL
    
loop
UI -> CTRL: getFluxo()
    activate CTRL
    CTRL -> SRepository: getFluxo(servico)
      activate SRepository
      deactivate SRepository
      CTRL -> UI: fluxo
    deactivate CTRL
    
UI -> CTRL: tarefasPendentes(fluxo, colab)
    activate CTRL
      CTRL -> SRepository: tarefasPendentes(fluxo, colab)
      activate SRepository
      deactivate SRepository
      CTRL -> UI: listaTarefas
    deactivate CTRL
end
deactivate UI
@enduml

PlantUML version 1.2021.7beta2(Unknown compile time)
(GPL source distribution)
Java Runtime: Java(TM) SE Runtime Environment
JVM: Java HotSpot(TM) 64-Bit Server VM
Default Encoding: UTF-8
Language: en
Country: US
--></g></svg>