<?xml version="1.0" encoding="UTF-8" standalone="no"?><svg xmlns="http://www.w3.org/2000/svg" xmlns:xlink="http://www.w3.org/1999/xlink" contentScriptType="application/ecmascript" contentStyleType="text/css" height="405px" preserveAspectRatio="none" style="width:836px;height:405px;background:#FFFFFF;" version="1.1" viewBox="0 0 836 405" width="836px" zoomAndPan="magnify"><defs/><g><polygon fill="#FFFFFF" points="74,93.5938,74,93.6638,76,93.4556,78,93.6582,80,93.727,82,93.356,84,93.5938,83.9223,93.5938,83.5735,103.5841,83.6165,113.5744,83.9318,123.5647,83.3086,133.5551,84.5536,143.5454,83.3697,153.5357,83.8022,163.526,84.4319,173.5164,83.9142,183.5067,84.0682,193.497,83.9681,203.4874,84.1785,213.4777,84.2391,223.468,84.5857,233.4583,84.6711,243.4487,84.6793,253.439,84.2546,263.4293,84.4636,273.4196,84.7022,283.41,83.2788,293.4003,84,303.3906,84,303.6168,82,303.2918,80,303.5686,78,303.2256,76,303.3678,74,303.3906,74.7416,303.3906,73.9513,293.4003,74.1053,283.41,74.3386,273.4196,74.4162,263.4293,73.9961,253.439,74.2872,243.4487,73.4276,233.4583,74.2844,223.468,74.5482,213.4777,74.4445,203.4874,74.613,193.497,73.5169,183.5067,73.3478,173.5164,73.3786,163.526,73.9411,153.5357,73.8035,143.5454,74.6814,133.5551,73.8253,123.5647,73.6569,113.5744,74.2283,103.5841,74,93.5938" style="stroke:#383838;stroke-width:1.0;"/><polygon fill="#FFFFFF" points="258,156.8594,258,156.9294,260,156.7213,262,156.9238,264,156.9926,266,156.6216,268,156.8594,267.9741,156.8594,267.8578,162.6859,267.8722,168.5125,267.9773,174.3391,267.7695,180.1656,268,185.9922,268,186.1767,266,185.7821,264,185.9263,262,186.1362,260,185.9636,258,185.9922,258.0227,185.9922,257.9894,180.1656,258.0595,174.3391,258.0797,168.5125,258.1952,162.6859,258,156.8594" style="stroke:#383838;stroke-width:1.0;"/><polygon fill="#FFFFFF" points="258,215.125,258,215.1951,260,214.9869,262,215.1894,264,215.2582,266,214.8872,268,215.125,267.9223,215.125,267.5735,224.9323,267.6165,234.7396,267.9318,244.5469,267.3086,254.3542,268.5536,264.1615,267.3697,273.9688,267.8022,283.776,268.4319,293.5833,268,303.3906,268,303.362,266,303.4134,264,303.38,262,303.4501,260,303.4703,258,303.3906,258.5857,303.3906,258.6711,293.5833,258.6793,283.776,258.2546,273.9688,258.4636,264.1615,258.7022,254.3542,257.2788,244.5469,258.6785,234.7396,257.7035,224.9323,258,215.125" style="stroke:#383838;stroke-width:1.0;"/><polygon fill="#FFFFFF" points="761,244.2578,761,244.3279,763,244.1197,765,244.3222,767,244.391,769,244.02,771,244.2578,770.9741,244.2578,770.8578,250.2578,770.8722,256.2578,770.9773,262.2578,770.7695,268.2578,771,274.2578,771,274.4424,769,274.0477,767,274.1919,765,274.4018,763,274.2292,761,274.2578,761.0227,274.2578,760.9894,268.2578,761.0595,262.2578,761.0797,256.2578,761.1952,250.2578,761,244.2578" style="stroke:#383838;stroke-width:1.0;"/><path d="M79,83.5938 L79.2802,83.5938 L78.4476,93.502 L79.2577,103.4102 L79.5329,113.3184 L78.0488,123.2266 L78.8964,133.1348 L78.4313,143.043 L78.4887,152.9512 L78.9091,162.8594 L78.0782,172.7676 L79.7382,182.6758 L78.1596,192.584 L78.7363,202.4922 L79.5759,212.4004 L78.8856,222.3086 L79.091,232.2168 L78.9574,242.125 L79.238,252.0332 L79.3188,261.9414 L79.7809,271.8496 L79.8947,281.7578 L79.9057,291.666 L79.3395,301.5742 L79.6181,311.4824 L79,321.3906 " fill="none" style="stroke:#383838;stroke-width:1.0;stroke-dasharray:5.0,5.0;"/><path d="M263,83.5938 L263.2802,83.5938 L262.4476,93.502 L263.2577,103.4102 L263.5329,113.3184 L262.0488,123.2266 L262.8964,133.1348 L262.4313,143.043 L262.4887,152.9512 L262.9091,162.8594 L262.0782,172.7676 L263.7382,182.6758 L262.1596,192.584 L262.7363,202.4922 L263.5759,212.4004 L262.8856,222.3086 L263.091,232.2168 L262.9574,242.125 L263.238,252.0332 L263.3188,261.9414 L263.7809,271.8496 L263.8947,281.7578 L263.9057,291.666 L263.3395,301.5742 L263.6181,311.4824 L263,321.3906 " fill="none" style="stroke:#383838;stroke-width:1.0;stroke-dasharray:5.0,5.0;"/><path d="M451,83.5938 L451.2802,83.5938 L450.4476,93.502 L451.2577,103.4102 L451.5329,113.3184 L450.0488,123.2266 L450.8964,133.1348 L450.4313,143.043 L450.4887,152.9512 L450.9091,162.8594 L450.0782,172.7676 L451.7382,182.6758 L450.1596,192.584 L450.7363,202.4922 L451.5759,212.4004 L450.8856,222.3086 L451.091,232.2168 L450.9574,242.125 L451.238,252.0332 L451.3188,261.9414 L451.7809,271.8496 L451.8947,281.7578 L451.9057,291.666 L451.3395,301.5742 L451.6181,311.4824 L451,321.3906 " fill="none" style="stroke:#383838;stroke-width:1.0;stroke-dasharray:5.0,5.0;"/><path d="M613,83.5938 L613.2802,83.5938 L612.4476,93.502 L613.2577,103.4102 L613.5329,113.3184 L612.0488,123.2266 L612.8964,133.1348 L612.4313,143.043 L612.4887,152.9512 L612.9091,162.8594 L612.0782,172.7676 L613.7382,182.6758 L612.1596,192.584 L612.7363,202.4922 L613.5759,212.4004 L612.8856,222.3086 L613.091,232.2168 L612.9574,242.125 L613.238,252.0332 L613.3188,261.9414 L613.7809,271.8496 L613.8947,281.7578 L613.9057,291.666 L613.3395,301.5742 L613.6181,311.4824 L613,321.3906 " fill="none" style="stroke:#383838;stroke-width:1.0;stroke-dasharray:5.0,5.0;"/><path d="M766,83.5938 L766.2802,83.5938 L765.4476,93.502 L766.2577,103.4102 L766.5329,113.3184 L765.0488,123.2266 L765.8964,133.1348 L765.4313,143.043 L765.4887,152.9512 L765.9091,162.8594 L765.0782,172.7676 L766.7382,182.6758 L765.1596,192.584 L765.7363,202.4922 L766.5759,212.4004 L765.8856,222.3086 L766.091,232.2168 L765.9574,242.125 L766.238,252.0332 L766.3188,261.9414 L766.7809,271.8496 L766.8947,281.7578 L766.9057,291.666 L766.3395,301.5742 L766.6181,311.4824 L766,321.3906 " fill="none" style="stroke:#383838;stroke-width:1.0;stroke-dasharray:5.0,5.0;"/><polygon fill="#F8F8F8" points="5,36,5,36.2102,14.8667,35.5857,24.7333,36.1933,34.6,36.3997,44.4667,35.2866,54.3333,35.9223,64.2,35.5735,74.0667,35.6165,83.9333,35.9318,93.8,35.3086,103.6667,36.5536,113.5333,35.3697,123.4,35.8022,133.2667,36.4319,143.1333,35.9142,153,36,153.0682,36,152.9681,45.3188,153.1785,54.6375,153.2391,63.9563,153.5857,73.275,153,82.5938,153,83.2648,143.1333,83.273,133.2667,82.8484,123.4,83.0573,113.5333,83.296,103.6667,81.8726,93.8,83.2723,83.9333,82.2972,74.0667,83.1276,64.2,82.0987,54.3333,82.5253,44.4667,83.3354,34.6,82.545,24.7333,82.6991,14.8667,82.9324,5,82.5938,5.4162,82.5938,4.9961,73.275,5.2872,63.9563,4.4276,54.6375,5.2844,45.3188,5,36" style="stroke:#383838;stroke-width:1.5;"/><text fill="#000000" font-family="FG Virgil" font-size="14" font-style="italic" lengthAdjust="spacing" textLength="108" x="25" y="55.9951">«presentation»</text><text fill="#000000" font-family="FG Virgil" font-size="14" lengthAdjust="spacing" textLength="134" x="12" y="72.292">ConsultarTarefasUI</text><polygon fill="#F8F8F8" points="5,320.3906,5,320.6008,14.8667,319.9763,24.7333,320.5839,34.6,320.7903,44.4667,319.6772,54.3333,320.3129,64.2,319.9641,74.0667,320.0071,83.9333,320.3225,93.8,319.6993,103.6667,320.9443,113.5333,319.7603,123.4,320.1929,133.2667,320.8226,143.1333,320.3048,153,320.3906,153.0682,320.3906,152.9681,329.7094,153.1785,339.0281,153.2391,348.3469,153.5857,357.6656,153,366.9844,153,367.6554,143.1333,367.6636,133.2667,367.239,123.4,367.448,113.5333,367.6866,103.6667,366.2632,93.8,367.6629,83.9333,366.6879,74.0667,367.5182,64.2,366.4894,54.3333,366.9159,44.4667,367.726,34.6,366.9356,24.7333,367.0897,14.8667,367.323,5,366.9844,5.4162,366.9844,4.9961,357.6656,5.2872,348.3469,4.4276,339.0281,5.2844,329.7094,5,320.3906" style="stroke:#383838;stroke-width:1.5;"/><text fill="#000000" font-family="FG Virgil" font-size="14" font-style="italic" lengthAdjust="spacing" textLength="108" x="25" y="340.3857">«presentation»</text><text fill="#000000" font-family="FG Virgil" font-size="14" lengthAdjust="spacing" textLength="134" x="12" y="356.6826">ConsultarTarefasUI</text><text fill="#000000" font-family="FG Virgil" font-size="14" font-style="italic" lengthAdjust="spacing" textLength="97" x="211.5" y="63.9951">«application»</text><text fill="#000000" font-family="FG Virgil" font-size="14" lengthAdjust="spacing" textLength="194" x="163" y="80.292">ConsultarTarefasController</text><polygon fill="#F8F8F8" points="275.0663,37.9189,273.3073,40.3223,271.2268,43.8426,268.2512,46.215,265.1244,47.5123,262.6313,47.6249,259.4269,46.0024,256.4035,44.9425,254.1086,42.7904,252.9048,40.3267,252.1909,38.3649,251.4915,35.8026,250.3564,33.5976,251.2287,31.4447,251.9929,29.0864,254.8611,27.2212,256.8789,24.8012,259.3764,23.9976,262.3456,23.3055,266.1532,23.7167,268.2386,24.7002,270.6633,25.146,273.6115,28.1665,274.6392,31.3552,275.0857,33.5309,274.58,37.1162" style="stroke:#383838;stroke-width:2.0;"/><polygon fill="#383838" points="259,23,259.0449,23.0538,260.1116,21.8939,261.4412,21.0495,262.6853,20.1023,263.6478,18.8173,265,18,264.9759,17.9904,264.468,18.9472,264.0813,19.9525,263.7789,20.9916,263.186,21.9144,263,23,263.1713,23.0685,263.2049,23.922,263.7388,24.9755,264.3337,26.0535,264.5735,26.9894,265,28,265.0146,28.0175,263.7932,26.9918,262.6381,26.0457,261.451,25.0612,260.325,24.15,259,23" style="stroke:#383838;stroke-width:1.0;"/><text fill="#000000" font-family="FG Virgil" font-size="14" font-style="italic" lengthAdjust="spacing" textLength="97" x="211.5" y="333.3857">«application»</text><text fill="#000000" font-family="FG Virgil" font-size="14" lengthAdjust="spacing" textLength="194" x="163" y="349.6826">ConsultarTarefasController</text><polygon fill="#F8F8F8" points="275.0663,371.9032,273.3073,374.3067,271.2268,377.827,268.2512,380.1994,265.1244,381.4967,262.6313,381.6093,259.4269,379.9868,256.4035,378.9268,254.1086,376.7748,252.9048,374.311,252.1909,372.3493,251.4915,369.787,250.3564,367.582,251.2287,365.4291,251.9929,363.0708,254.8611,361.2056,256.8789,358.7856,259.3764,357.9819,262.3456,357.2899,266.1532,357.7011,268.2386,358.6846,270.6633,359.1304,273.6115,362.1509,274.6392,365.3396,275.0857,367.5153,274.58,371.1006" style="stroke:#383838;stroke-width:2.0;"/><polygon fill="#383838" points="259,356.9844,259.0449,357.0382,260.1116,355.8783,261.4412,355.0339,262.6853,354.0867,263.6478,352.8017,265,351.9844,264.9759,351.9748,264.468,352.9316,264.0813,353.9369,263.7789,354.9759,263.186,355.8988,263,356.9844,263.1713,357.0529,263.2049,357.9063,263.7388,358.9599,264.3337,360.0378,264.5735,360.9738,265,361.9844,265.0146,362.0018,263.7932,360.9762,262.6381,360.0301,261.451,359.0456,260.325,358.1344,259,356.9844" style="stroke:#383838;stroke-width:1.0;"/><polygon fill="#F8F8F8" points="373,36,373,36.2102,382.8125,35.5857,392.625,36.1933,402.4375,36.3997,412.25,35.2866,422.0625,35.9223,431.875,35.5735,441.6875,35.6165,451.5,35.9318,461.3125,35.3086,471.125,36.5536,480.9375,35.3697,490.75,35.8022,500.5625,36.4319,510.375,35.9142,520.1875,36.0682,530,36,529.9681,36,530.1785,45.3188,530.2391,54.6375,530.5857,63.9563,530.6711,73.275,530,82.5938,530,83.273,520.1875,82.8484,510.375,83.0573,500.5625,83.296,490.75,81.8726,480.9375,83.2723,471.125,82.2972,461.3125,83.1276,451.5,82.0987,441.6875,82.5253,431.875,83.3354,422.0625,82.545,412.25,82.6991,402.4375,82.9324,392.625,83.01,382.8125,82.5898,373,82.5938,373.2872,82.5938,372.4276,73.275,373.2844,63.9563,373.5482,54.6375,373.4445,45.3188,373,36" style="stroke:#383838;stroke-width:1.5;"/><text fill="#000000" font-family="FG Virgil" font-size="14" font-style="italic" lengthAdjust="spacing" textLength="100" x="401.5" y="55.9951">«persistence»</text><text fill="#000000" font-family="FG Virgil" font-size="14" lengthAdjust="spacing" textLength="143" x="380" y="72.292">PersistenceContext</text><polygon fill="#F8F8F8" points="373,320.3906,373,320.6008,382.8125,319.9763,392.625,320.5839,402.4375,320.7903,412.25,319.6772,422.0625,320.3129,431.875,319.9641,441.6875,320.0071,451.5,320.3225,461.3125,319.6993,471.125,320.9443,480.9375,319.7603,490.75,320.1929,500.5625,320.8226,510.375,320.3048,520.1875,320.4589,530,320.3906,529.9681,320.3906,530.1785,329.7094,530.2391,339.0281,530.5857,348.3469,530.6711,357.6656,530,366.9844,530,367.6636,520.1875,367.239,510.375,367.448,500.5625,367.6866,490.75,366.2632,480.9375,367.6629,471.125,366.6879,461.3125,367.5182,451.5,366.4894,441.6875,366.9159,431.875,367.726,422.0625,366.9356,412.25,367.0897,402.4375,367.323,392.625,367.4006,382.8125,366.9805,373,366.9844,373.2872,366.9844,372.4276,357.6656,373.2844,348.3469,373.5482,339.0281,373.4445,329.7094,373,320.3906" style="stroke:#383838;stroke-width:1.5;"/><text fill="#000000" font-family="FG Virgil" font-size="14" font-style="italic" lengthAdjust="spacing" textLength="100" x="401.5" y="340.3857">«persistence»</text><text fill="#000000" font-family="FG Virgil" font-size="14" lengthAdjust="spacing" textLength="143" x="380" y="356.6826">PersistenceContext</text><polygon fill="#F8F8F8" points="540,36,540,36.2102,549.8,35.5857,559.6,36.1933,569.4,36.3997,579.2,35.2866,589,35.9223,598.8,35.5735,608.6,35.6165,618.4,35.9318,628.2,35.3086,638,36.5536,647.8,35.3697,657.6,35.8022,667.4,36.4319,677.2,35.9142,687,36,687.0682,36,686.9681,45.3188,687.1785,54.6375,687.2391,63.9563,687.5857,73.275,687,82.5938,687,83.2648,677.2,83.273,667.4,82.8484,657.6,83.0573,647.8,83.296,638,81.8726,628.2,83.2723,618.4,82.2972,608.6,83.1276,598.8,82.0987,589,82.5253,579.2,83.3354,569.4,82.545,559.6,82.6991,549.8,82.9324,540,82.5938,540.4162,82.5938,539.9961,73.275,540.2872,63.9563,539.4276,54.6375,540.2844,45.3188,540,36" style="stroke:#383838;stroke-width:1.5;"/><text fill="#000000" font-family="FG Virgil" font-size="14" font-style="italic" lengthAdjust="spacing" textLength="68" x="579.5" y="55.9951">«factory»</text><text fill="#000000" font-family="FG Virgil" font-size="14" lengthAdjust="spacing" textLength="133" x="547" y="72.292">RepositoryFactory</text><polygon fill="#F8F8F8" points="540,320.3906,540,320.6008,549.8,319.9763,559.6,320.5839,569.4,320.7903,579.2,319.6772,589,320.3129,598.8,319.9641,608.6,320.0071,618.4,320.3225,628.2,319.6993,638,320.9443,647.8,319.7603,657.6,320.1929,667.4,320.8226,677.2,320.3048,687,320.3906,687.0682,320.3906,686.9681,329.7094,687.1785,339.0281,687.2391,348.3469,687.5857,357.6656,687,366.9844,687,367.6554,677.2,367.6636,667.4,367.239,657.6,367.448,647.8,367.6866,638,366.2632,628.2,367.6629,618.4,366.6879,608.6,367.5182,598.8,366.4894,589,366.9159,579.2,367.726,569.4,366.9356,559.6,367.0897,549.8,367.323,540,366.9844,540.4162,366.9844,539.9961,357.6656,540.2872,348.3469,539.4276,339.0281,540.2844,329.7094,540,320.3906" style="stroke:#383838;stroke-width:1.5;"/><text fill="#000000" font-family="FG Virgil" font-size="14" font-style="italic" lengthAdjust="spacing" textLength="68" x="579.5" y="340.3857">«factory»</text><text fill="#000000" font-family="FG Virgil" font-size="14" lengthAdjust="spacing" textLength="133" x="547" y="356.6826">RepositoryFactory</text><text fill="#000000" font-family="FG Virgil" font-size="14" font-style="italic" lengthAdjust="spacing" textLength="90" x="718" y="63.9951">«repository»</text><text fill="#000000" font-family="FG Virgil" font-size="14" lengthAdjust="spacing" textLength="132" x="697" y="80.292">ServicoRepository</text><path d="M748,15 L748,15 L748.0651,15.067 L749.6716,13.118 L751.6599,11.5616 L753.5238,9.8774 L754.979,7.7727 L757,6.25 L756.9952,6.2158 L758.7739,5.8122 L760.5766,5.5812 L762.3958,5.47 L764.1577,4.9456 L766,5 L766,5 L766.0339,5.2437 L767.7615,4.9725 L769.5879,5.4129 L771.4264,5.9402 L773.1948,5.9622 L775,6.25 L775.0211,6.2717 L776.7901,7.9898 L778.6553,9.8069 L780.4741,11.5762 L782.3815,13.4366 L784,15 L784.5965,15 L784.6038,20.2 L784.2263,25.4 L784.4121,30.6 L784.6242,35.8 L784,41 L784,41 L783.7766,40.7702 L782.4102,42.9662 L780.3081,44.4055 L778.7654,46.4201 L776.6466,47.8423 L775,49.75 L774.9958,49.7198 L773.2453,50.3265 L771.397,50.2285 L769.6064,50.5464 L767.8207,50.8991 L766,51 L766,51 L766.0254,51.1832 L764.1998,50.7483 L762.4176,50.6264 L760.565,49.998 L758.8174,50.1252 L757,49.75 L757.1698,49.9247 L755.3377,48.1417 L753.5899,46.4453 L751.4503,44.3461 L749.5979,42.5422 L748,41 L747.4476,41 L747.9477,35.8 L747.8253,30.6 L748.6057,25.4 L747.8447,20.2 L748,15 " fill="#F8F8F8" style="stroke:#000000;stroke-width:1.5;"/><path d="M748,15 L748,15 L748.0651,15.067 L749.6716,16.618 L751.6599,18.5616 L753.5238,20.3774 L754.979,21.7727 L757,23.75 L756.9952,23.7158 L758.7739,23.8122 L760.5766,24.0812 L762.3958,24.47 L764.1577,24.4456 L766,25 L766,25 L766.0339,25.2437 L767.7615,24.4725 L769.5879,24.4129 L771.4264,24.4402 L773.1948,23.9622 L775,23.75 L775.0211,23.7717 L776.7901,21.9898 L778.6553,20.3069 L780.4741,18.5762 L782.3815,16.9366 L784,15 " fill="none" style="stroke:#000000;stroke-width:1.5;"/><text fill="#000000" font-family="FG Virgil" font-size="14" font-style="italic" lengthAdjust="spacing" textLength="90" x="718" y="333.3857">«repository»</text><text fill="#000000" font-family="FG Virgil" font-size="14" lengthAdjust="spacing" textLength="132" x="697" y="349.6826">ServicoRepository</text><path d="M748,362.9844 L748,362.9844 L748.0651,363.0514 L749.6716,361.1023 L751.6599,359.546 L753.5238,357.8617 L754.979,355.757 L757,354.2344 L756.9952,354.2002 L758.7739,353.7966 L760.5766,353.5656 L762.3958,353.4544 L764.1577,352.93 L766,352.9844 L766,352.9844 L766.0339,353.2281 L767.7615,352.9569 L769.5879,353.3973 L771.4264,353.9245 L773.1948,353.9466 L775,354.2344 L775.0211,354.2561 L776.7901,355.9742 L778.6553,357.7913 L780.4741,359.5606 L782.3815,361.421 L784,362.9844 L784.5965,362.9844 L784.6038,368.1844 L784.2263,373.3844 L784.4121,378.5844 L784.6242,383.7844 L784,388.9844 L784,388.9844 L783.7766,388.7546 L782.4102,390.9506 L780.3081,392.3899 L778.7654,394.4045 L776.6466,395.8266 L775,397.7344 L774.9958,397.7042 L773.2453,398.3108 L771.397,398.2129 L769.6064,398.5307 L767.8207,398.8834 L766,398.9844 L766,398.9844 L766.0254,399.1676 L764.1998,398.7327 L762.4176,398.6108 L760.565,397.9824 L758.8174,398.1096 L757,397.7344 L757.1698,397.9091 L755.3377,396.126 L753.5899,394.4297 L751.4503,392.3304 L749.5979,390.5265 L748,388.9844 L747.4476,388.9844 L747.9477,383.7844 L747.8253,378.5844 L748.6057,373.3844 L747.8447,368.1844 L748,362.9844 " fill="#F8F8F8" style="stroke:#000000;stroke-width:1.5;"/><path d="M748,362.9844 L748,362.9844 L748.0651,363.0514 L749.6716,364.6023 L751.6599,366.546 L753.5238,368.3617 L754.979,369.757 L757,371.7344 L756.9952,371.7002 L758.7739,371.7966 L760.5766,372.0656 L762.3958,372.4544 L764.1577,372.43 L766,372.9844 L766,372.9844 L766.0339,373.2281 L767.7615,372.4569 L769.5879,372.3973 L771.4264,372.4245 L773.1948,371.9466 L775,371.7344 L775.0211,371.7561 L776.7901,369.9742 L778.6553,368.2913 L780.4741,366.5606 L782.3815,364.921 L784,362.9844 " fill="none" style="stroke:#000000;stroke-width:1.5;"/><polygon fill="#FFFFFF" points="74,93.5938,74,93.6638,76,93.4556,78,93.6582,80,93.727,82,93.356,84,93.5938,83.9223,93.5938,83.5735,103.5841,83.6165,113.5744,83.9318,123.5647,83.3086,133.5551,84.5536,143.5454,83.3697,153.5357,83.8022,163.526,84.4319,173.5164,83.9142,183.5067,84.0682,193.497,83.9681,203.4874,84.1785,213.4777,84.2391,223.468,84.5857,233.4583,84.6711,243.4487,84.6793,253.439,84.2546,263.4293,84.4636,273.4196,84.7022,283.41,83.2788,293.4003,84,303.3906,84,303.6168,82,303.2918,80,303.5686,78,303.2256,76,303.3678,74,303.3906,74.7416,303.3906,73.9513,293.4003,74.1053,283.41,74.3386,273.4196,74.4162,263.4293,73.9961,253.439,74.2872,243.4487,73.4276,233.4583,74.2844,223.468,74.5482,213.4777,74.4445,203.4874,74.613,193.497,73.5169,183.5067,73.3478,173.5164,73.3786,163.526,73.9411,153.5357,73.8035,143.5454,74.6814,133.5551,73.8253,123.5647,73.6569,113.5744,74.2283,103.5841,74,93.5938" style="stroke:#383838;stroke-width:1.0;"/><polygon fill="#FFFFFF" points="258,156.8594,258,156.9294,260,156.7213,262,156.9238,264,156.9926,266,156.6216,268,156.8594,267.9741,156.8594,267.8578,162.6859,267.8722,168.5125,267.9773,174.3391,267.7695,180.1656,268,185.9922,268,186.1767,266,185.7821,264,185.9263,262,186.1362,260,185.9636,258,185.9922,258.0227,185.9922,257.9894,180.1656,258.0595,174.3391,258.0797,168.5125,258.1952,162.6859,258,156.8594" style="stroke:#383838;stroke-width:1.0;"/><polygon fill="#FFFFFF" points="258,215.125,258,215.1951,260,214.9869,262,215.1894,264,215.2582,266,214.8872,268,215.125,267.9223,215.125,267.5735,224.9323,267.6165,234.7396,267.9318,244.5469,267.3086,254.3542,268.5536,264.1615,267.3697,273.9688,267.8022,283.776,268.4319,293.5833,268,303.3906,268,303.362,266,303.4134,264,303.38,262,303.4501,260,303.4703,258,303.3906,258.5857,303.3906,258.6711,293.5833,258.6793,283.776,258.2546,273.9688,258.4636,264.1615,258.7022,254.3542,257.2788,244.5469,258.6785,234.7396,257.7035,224.9323,258,215.125" style="stroke:#383838;stroke-width:1.0;"/><polygon fill="#FFFFFF" points="761,244.2578,761,244.3279,763,244.1197,765,244.3222,767,244.391,769,244.02,771,244.2578,770.9741,244.2578,770.8578,250.2578,770.8722,256.2578,770.9773,262.2578,770.7695,268.2578,771,274.2578,771,274.4424,769,274.0477,767,274.1919,765,274.4018,763,274.2292,761,274.2578,761.0227,274.2578,760.9894,268.2578,761.0595,262.2578,761.0797,256.2578,761.1952,250.2578,761,244.2578" style="stroke:#383838;stroke-width:1.0;"/><path d="M84,114.7266 L84,114.82 L92.4,114.5424 L100.8,114.8125 L109.2,114.9042 L117.6,114.4095 L126,114.7266 " fill="none" style="stroke:#383838;stroke-width:1.0;"/><path d="M126,114.7266 L126.0934,114.7266 L125.8159,117.3266 L126.0859,119.9266 L126.1776,122.5266 L125.6829,125.1266 L126,127.7266 " fill="none" style="stroke:#383838;stroke-width:1.0;"/><path d="M85,127.7266 L85,127.82 L93.2,127.5424 L101.4,127.8125 L109.6,127.9042 L117.8,127.4095 L126,127.7266 " fill="none" style="stroke:#383838;stroke-width:1.0;"/><polygon fill="#383838" points="95,123.7266,95.026,123.7916,92.9487,124.3983,91.0239,125.3864,89.0495,126.2503,86.9117,126.7058,85,127.7266,84.9904,127.7025,86.9472,128.3946,88.9525,129.2079,90.9916,130.1055,92.9144,130.7126,95,131.7266,95.1305,131.8571,94.0514,130.778,93.3534,130.0799,92.7018,129.4284,91.7798,128.5063,91,127.7266,91.0161,127.7426,91.7925,126.919,92.6421,126.1686,93.4564,125.3829,94.338,124.6646,95,123.7266" style="stroke:#383838;stroke-width:1.0;"/><text fill="#000000" font-family="FG Virgil" font-size="13" lengthAdjust="spacing" textLength="61" x="91" y="109.6606">doShow()</text><polygon fill="#383838" points="246,152.8594,246.026,152.9244,247.9487,153.5311,250.0239,154.5192,252.0495,155.3831,253.9117,155.8386,256,156.8594,255.9904,156.8353,253.9472,157.5274,251.9525,158.3407,249.9916,159.2383,247.9144,159.8454,246,160.8594,246.1305,160.9899,246.6514,159.9108,247.5534,159.2128,248.5018,158.5612,249.1798,157.6392,250,156.8594,250.0161,156.8755,249.1925,156.0518,248.4421,155.3015,247.6564,154.5157,246.938,153.7974,246,152.8594" style="stroke:#383838;stroke-width:1.0;"/><path d="M84,156.8594 L84,157.1396 L93.8824,156.3069 L103.7647,157.1171 L113.6471,157.3923 L123.5294,155.9082 L133.4118,156.7558 L143.2941,156.2907 L153.1765,156.348 L163.0588,156.7685 L172.9412,155.9375 L182.8235,157.5976 L192.7059,156.019 L202.5882,156.5957 L212.4706,157.4353 L222.3529,156.745 L232.2353,156.9504 L242.1176,156.8168 L252,156.8594 " fill="none" style="stroke:#383838;stroke-width:1.0;"/><text fill="#000000" font-family="FG Virgil" font-size="13" lengthAdjust="spacing" textLength="82" x="91" y="151.7935">listServicos()</text><polygon fill="#383838" points="95,181.9922,95.026,182.0572,92.9487,182.664,91.0239,183.652,89.0495,184.5159,86.9117,184.9714,85,185.9922,84.9904,185.9681,86.9472,186.6602,88.9525,187.4735,90.9916,188.3711,92.9144,188.9782,95,189.9922,95.1305,190.1227,94.0514,189.0436,93.3534,188.3456,92.7018,187.694,91.7798,186.772,91,185.9922,91.0161,186.0083,91.7925,185.1847,92.6421,184.4343,93.4564,183.6486,94.338,182.9302,95,181.9922" style="stroke:#383838;stroke-width:1.0;"/><path d="M89,185.9922 L89,186.2724 L99.1765,185.4398 L109.3529,186.2499 L119.5294,186.5251 L129.7059,185.041 L139.8824,185.8886 L150.0588,185.4235 L160.2353,185.4809 L170.4118,185.9013 L180.5882,185.0704 L190.7647,186.7304 L200.9412,185.1518 L211.1176,185.7285 L221.2941,186.5681 L231.4706,185.8778 L241.6471,186.0832 L251.8235,185.9496 L262,185.9922 " fill="none" style="stroke:#383838;stroke-width:1.0;"/><text fill="#000000" font-family="FG Virgil" font-size="13" lengthAdjust="spacing" textLength="80" x="101" y="180.9263">listaServicos</text><polygon fill="#383838" points="246,211.125,246.026,211.19,247.9487,211.7968,250.0239,212.7848,252.0495,213.6487,253.9117,214.1042,256,215.125,255.9904,215.1009,253.9472,215.793,251.9525,216.6063,249.9916,217.5039,247.9144,218.111,246,219.125,246.1305,219.2555,246.6514,218.1764,247.5534,217.4784,248.5018,216.8268,249.1798,215.9048,250,215.125,250.0161,215.1411,249.1925,214.3175,248.4421,213.5671,247.6564,212.7814,246.938,212.063,246,211.125" style="stroke:#383838;stroke-width:1.0;"/><path d="M84,215.125 L84,215.4052 L93.8824,214.5726 L103.7647,215.3827 L113.6471,215.6579 L123.5294,214.1738 L133.4118,215.0214 L143.2941,214.5563 L153.1765,214.6137 L163.0588,215.0341 L172.9412,214.2032 L182.8235,215.8632 L192.7059,214.2846 L202.5882,214.8613 L212.4706,215.7009 L222.3529,215.0106 L232.2353,215.216 L242.1176,215.0824 L252,215.125 " fill="none" style="stroke:#383838;stroke-width:1.0;"/><text fill="#000000" font-family="FG Virgil" font-size="13" lengthAdjust="spacing" textLength="77" x="91" y="210.0591">listTarefas()</text><polygon fill="#383838" points="749,240.2578,749.026,240.3229,750.9487,240.9296,753.0239,241.9176,755.0495,242.7815,756.9117,243.237,759,244.2578,758.9904,244.2338,756.9472,244.9258,754.9525,245.7391,752.9916,246.6367,750.9144,247.2438,749,248.2578,749.1305,248.3883,749.6514,247.3093,750.5534,246.6112,751.5018,245.9596,752.1798,245.0376,753,244.2578,753.0161,244.2739,752.1925,243.4503,751.4421,242.6999,750.6564,241.9142,749.938,241.1959,749,240.2578" style="stroke:#383838;stroke-width:1.0;"/><path d="M268,244.2578 L268,244.5381 L277.9388,243.7054 L287.8776,244.5155 L297.8163,244.7907 L307.7551,243.3066 L317.6939,244.1542 L327.6327,243.6892 L337.5714,243.7465 L347.5102,244.1669 L357.449,243.336 L367.3878,244.996 L377.3265,243.4174 L387.2653,243.9941 L397.2041,244.8337 L407.1429,244.1434 L417.0816,244.3488 L427.0204,244.2152 L436.9592,244.4958 L446.898,244.5767 L456.8367,245.0387 L466.7755,245.1526 L476.7143,245.1635 L486.6531,244.5973 L496.5918,244.8759 L506.5306,245.1941 L516.4694,243.2962 L526.4082,245.1625 L536.3469,243.8625 L546.2857,244.9696 L556.2245,243.5978 L566.1633,244.1665 L576.102,245.2466 L586.0408,244.1928 L595.9796,244.3982 L605.9184,244.7093 L615.8571,244.8128 L625.7959,244.2526 L635.7347,244.6408 L645.6735,243.4946 L655.6122,244.637 L665.551,244.9887 L675.4898,244.8505 L685.4286,245.0752 L695.3673,243.6137 L705.3061,243.3882 L715.2449,243.4293 L725.1837,244.1793 L735.1224,243.9958 L745.0612,245.1664 L755,244.2578 " fill="none" style="stroke:#383838;stroke-width:1.0;"/><text fill="#000000" font-family="FG Virgil" font-size="13" lengthAdjust="spacing" textLength="196" x="275" y="239.1919">tarefasPendentes(listServicos)</text><polygon fill="#383838" points="90,299.3906,90.026,299.4557,87.9487,300.0624,86.0239,301.0504,84.0495,301.9143,81.9117,302.3698,80,303.3906,79.9904,303.3666,81.9472,304.0586,83.9525,304.8719,85.9916,305.7695,87.9144,306.3767,90,307.3906,90.1305,307.5211,89.0514,306.4421,88.3534,305.744,87.7018,305.0924,86.7798,304.1704,86,303.3906,86.0161,303.4067,86.7925,302.5831,87.6421,301.8327,88.4564,301.047,89.338,300.3287,90,299.3906" style="stroke:#383838;stroke-width:1.0;"/><path d="M84,303.3906 L84,303.6709 L93.8889,302.8382 L103.7778,303.6483 L113.6667,303.9235 L123.5556,302.4394 L133.4444,303.287 L143.3333,302.822 L153.2222,302.8793 L163.1111,303.2997 L173,302.4688 L182.8889,304.1288 L192.7778,302.5503 L202.6667,303.1269 L212.5556,303.9666 L222.4444,303.2763 L232.3333,303.4816 L242.2222,303.348 L252.1111,303.6287 L262,303.3906 " fill="none" style="stroke:#383838;stroke-width:1.0;"/><text fill="#000000" font-family="FG Virgil" font-size="13" lengthAdjust="spacing" textLength="75" x="96" y="298.3247">listaTarefas</text><!--MD5=[e32fd3d994b5c18518f632a00d5a3fa3]
@startuml
'http://plantuml.com/skinparam.html
skinparam handwritten true
skinparam monochrome true
skinparam packageStyle rect
skinparam defaultFontName FG Virgil
skinparam shadowing false

participant ConsultarTarefasUI as UI <<presentation>>
control ConsultarTarefasController as CTRL <<application>>
participant PersistenceContext as Persistence <<persistence>>
participant RepositoryFactory as Factory <<factory>>
database ServicoRepository as SRepository <<repository>>

activate UI

UI -> UI : doShow()

UI -> CTRL: listServicos()
    activate CTRL
      CTRL -> UI: listaServicos
    deactivate CTRL

UI -> CTRL: listTarefas()
    activate CTRL
      CTRL -> SRepository: tarefasPendentes(listServicos)
      activate SRepository
      deactivate SRepository
      CTRL -> UI: listaTarefas
    deactivate CTRL
    
deactivate UI
@enduml

@startuml
skinparam handwritten true
skinparam monochrome true
skinparam packageStyle rect
skinparam defaultFontName FG Virgil
skinparam shadowing false

participant ConsultarTarefasUI as UI <<presentation>>
control ConsultarTarefasController as CTRL <<application>>
participant PersistenceContext as Persistence <<persistence>>
participant RepositoryFactory as Factory <<factory>>
database ServicoRepository as SRepository <<repository>>

activate UI

UI -> UI : doShow()

UI -> CTRL: listServicos()
    activate CTRL
      CTRL -> UI: listaServicos
    deactivate CTRL

UI -> CTRL: listTarefas()
    activate CTRL
      CTRL -> SRepository: tarefasPendentes(listServicos)
      activate SRepository
      deactivate SRepository
      CTRL -> UI: listaTarefas
    deactivate CTRL
    
deactivate UI
@enduml

PlantUML version 1.2021.7beta2(Unknown compile time)
(GPL source distribution)
Java Runtime: Java(TM) SE Runtime Environment
JVM: Java HotSpot(TM) 64-Bit Server VM
Default Encoding: UTF-8
Language: en
Country: US
--></g></svg>