<?xml version="1.0" encoding="UTF-8" standalone="no"?><svg xmlns="http://www.w3.org/2000/svg" xmlns:xlink="http://www.w3.org/1999/xlink" contentScriptType="application/ecmascript" contentStyleType="text/css" height="194px" preserveAspectRatio="none" style="width:848px;height:194px;background:#FFFFFF;" version="1.1" viewBox="0 0 848 194" width="848px" zoomAndPan="magnify"><defs/><g><!--MD5=[0d4e5460865fab64524af805768c65c5]
class EspecificarServicoController--><polygon fill="#F8F8F8" points="252.5,7,252.5,7.2102,262.65,6.5857,272.8,7.1933,282.95,7.3997,293.1,6.2866,303.25,6.9223,313.4,6.5735,323.55,6.6165,333.7,6.9318,343.85,6.3086,354,7.5536,364.15,6.3697,374.3,6.8022,384.45,7.4319,394.6,6.9142,404.75,7.0682,414.9,6.9681,425.05,7.1785,435.2,7.2391,445.35,7.5857,455.5,7,456.1711,7,456.1793,17.7875,455.7546,28.575,455.9636,39.3625,456.2022,50.15,455.5,60.9375,455.5,60.2163,445.35,61.616,435.2,60.641,425.05,61.4713,414.9,60.4425,404.75,60.869,394.6,61.6791,384.45,60.8888,374.3,61.0428,364.15,61.2761,354,61.3537,343.85,60.9336,333.7,61.2247,323.55,60.3651,313.4,61.2219,303.25,61.4857,293.1,61.382,282.95,61.5505,272.8,60.4544,262.65,60.2853,252.5,60.9375,251.8786,60.9375,252.4411,50.15,252.3035,39.3625,253.1814,28.575,252.3253,17.7875,252.5,7" style="stroke:#383838;stroke-width:1.5;"/><polygon fill="#C2C2C2" points="278.5608,28.6444,276.9484,30.8475,275.0412,34.0745,272.3136,36.2491,269.4474,37.4384,267.162,37.5416,264.2247,36.0543,261.4532,35.0827,259.3495,33.1099,258.2461,30.8515,257.5917,29.0533,256.9506,26.7045,255.91,24.6832,256.7096,22.7098,257.4102,20.548,260.0393,18.8382,261.889,16.6198,264.1784,15.8832,266.9001,15.2488,270.3904,15.6257,272.3021,16.5273,274.5247,16.9359,277.2272,19.7047,278.1693,22.6277,278.5786,24.6221,278.115,27.9086" style="stroke:#383838;stroke-width:1.0;"/><path d="M269.8438,21.6406 C268.9063,21.2031 268.3125,21.0625 267.4375,21.0625 C264.8125,21.0625 262.8125,23.1406 262.8125,25.8594 L262.8125,26.9844 C262.8125,29.5625 264.9219,31.4531 267.8125,31.4531 C269.0313,31.4531 270.1875,31.1563 270.9375,30.6094 C271.5156,30.2031 271.8438,29.75 271.8438,29.3594 C271.8438,28.9063 271.4531,28.5156 270.9844,28.5156 C270.7656,28.5156 270.5625,28.5938 270.375,28.7813 C269.9219,29.2656 269.9219,29.2656 269.7344,29.3594 C269.3125,29.625 268.625,29.75 267.8594,29.75 C265.8125,29.75 264.5156,28.6563 264.5156,26.9531 L264.5156,25.8594 C264.5156,24.0781 265.7656,22.7656 267.5,22.7656 C268.0781,22.7656 268.6875,22.9219 269.1563,23.1719 C269.6406,23.4531 269.8125,23.6719 269.9063,24.0781 C269.9688,24.4844 270,24.6094 270.1406,24.7344 C270.2813,24.875 270.5156,24.9844 270.7344,24.9844 C271,24.9844 271.2656,24.8438 271.4375,24.625 C271.5469,24.4688 271.5781,24.2813 271.5781,23.8594 L271.5781,22.4375 C271.5781,22 271.5625,21.875 271.4688,21.7188 C271.3125,21.4531 271.0313,21.3125 270.7344,21.3125 C270.4375,21.3125 270.2344,21.4063 270.0156,21.7188 L269.8438,21.6406 Z " fill="#000000"/><text fill="#000000" font-family="FG Virgil" font-size="12" font-style="italic" lengthAdjust="spacing" textLength="80" x="327" y="23.1387">«application»</text><text fill="#000000" font-family="FG Virgil" font-size="12" lengthAdjust="spacing" textLength="171" x="281.5" y="37.1074">EspecificarServicoController</text><path d="M253.5,44.9375 L253.5,45.2177 L263.55,44.3851 L273.6,45.1952 L283.65,45.4704 L293.7,43.9863 L303.75,44.8339 L313.8,44.3688 L323.85,44.4262 L333.9,44.8466 L343.95,44.0157 L354,45.6757 L364.05,44.0971 L374.1,44.6738 L384.15,45.5134 L394.2,44.8231 L404.25,45.0285 L414.3,44.8949 L424.35,45.1755 L434.4,45.2563 L444.45,45.7184 L454.5,44.9375 " fill="#F8F8F8" style="stroke:#383838;stroke-width:1.5;"/><path d="M253.5,52.9375 L253.5,53.2177 L263.55,52.3851 L273.6,53.1952 L283.65,53.4704 L293.7,51.9863 L303.75,52.8339 L313.8,52.3688 L323.85,52.4262 L333.9,52.8466 L343.95,52.0157 L354,53.6757 L364.05,52.0971 L374.1,52.6738 L384.15,53.5134 L394.2,52.8231 L404.25,53.0285 L414.3,52.8949 L424.35,53.1755 L434.4,53.2563 L444.45,53.7184 L454.5,52.9375 " fill="#F8F8F8" style="stroke:#383838;stroke-width:1.5;"/><!--MD5=[9c7960ba7d2d8dd12deee446cc70d994]
class Criticidade--><polygon fill="#F8F8F8" points="7,121,7,121.2102,17.1538,120.5857,27.3077,121.1933,37.4615,121.3997,47.6154,120.2866,57.7692,120.9223,67.9231,120.5735,78.0769,120.6165,88.2308,120.9318,98.3846,120.3086,108.5385,121.5536,118.6923,120.3697,128.8462,120.8022,139,121,139.4319,121,138.9142,130.5346,139.0682,140.0692,138.9681,149.6038,139.1785,159.1384,139.2391,168.673,139.5857,178.2076,139,187.7422,139,188.4132,128.8462,188.4214,118.6923,187.9968,108.5385,188.2058,98.3846,188.4444,88.2308,187.021,78.0769,188.4207,67.9231,187.4457,57.7692,188.276,47.6154,187.2472,37.4615,187.6737,27.3077,188.4838,17.1538,187.6935,7,187.7422,7.1053,187.7422,7.3386,178.2076,7.4162,168.673,6.9961,159.1384,7.2872,149.6038,6.4276,140.0692,7.2844,130.5346,7,121" style="stroke:#383838;stroke-width:1.5;"/><polygon fill="#C2C2C2" points="49.2608,142.6444,47.6484,144.8475,45.7412,148.0745,43.0136,150.2491,40.1474,151.4384,37.862,151.5416,34.9247,150.0543,32.1532,149.0827,30.0495,147.1099,28.9461,144.8515,28.2917,143.0533,27.6506,140.7045,26.61,138.6832,27.4096,136.7098,28.1102,134.548,30.7393,132.8382,32.589,130.6198,34.8784,129.8832,37.6001,129.2488,41.0904,129.6257,43.0021,130.5273,45.2247,130.9359,47.9272,133.7047,48.8693,136.6277,49.2786,138.6221,48.815,141.9086" style="stroke:#383838;stroke-width:1.0;"/><path d="M40.5438,135.6406 C39.6063,135.2031 39.0125,135.0625 38.1375,135.0625 C35.5125,135.0625 33.5125,137.1406 33.5125,139.8594 L33.5125,140.9844 C33.5125,143.5625 35.6219,145.4531 38.5125,145.4531 C39.7313,145.4531 40.8875,145.1563 41.6375,144.6094 C42.2156,144.2031 42.5438,143.75 42.5438,143.3594 C42.5438,142.9063 42.1531,142.5156 41.6844,142.5156 C41.4656,142.5156 41.2625,142.5938 41.075,142.7813 C40.6219,143.2656 40.6219,143.2656 40.4344,143.3594 C40.0125,143.625 39.325,143.75 38.5594,143.75 C36.5125,143.75 35.2156,142.6563 35.2156,140.9531 L35.2156,139.8594 C35.2156,138.0781 36.4656,136.7656 38.2,136.7656 C38.7781,136.7656 39.3875,136.9219 39.8563,137.1719 C40.3406,137.4531 40.5125,137.6719 40.6063,138.0781 C40.6688,138.4844 40.7,138.6094 40.8406,138.7344 C40.9813,138.875 41.2156,138.9844 41.4344,138.9844 C41.7,138.9844 41.9656,138.8438 42.1375,138.625 C42.2469,138.4688 42.2781,138.2813 42.2781,137.8594 L42.2781,136.4375 C42.2781,136 42.2625,135.875 42.1688,135.7188 C42.0125,135.4531 41.7313,135.3125 41.4344,135.3125 C41.1375,135.3125 40.9344,135.4063 40.7156,135.7188 L40.5438,135.6406 Z " fill="#000000"/><text fill="#000000" font-family="FG Virgil" font-size="12" font-style="italic" lengthAdjust="spacing" textLength="59" x="58.3" y="137.1387">«domain»</text><text fill="#000000" font-family="FG Virgil" font-size="12" lengthAdjust="spacing" textLength="64" x="55.8" y="151.1074">Criticidade</text><path d="M8,158.9375 L8,159.2177 L18,158.3851 L28,159.1952 L38,159.4704 L48,157.9863 L58,158.8339 L68,158.3688 L78,158.4262 L88,158.8466 L98,158.0157 L108,159.6757 L118,158.0971 L128,158.6738 L138,158.9375 " fill="#F8F8F8" style="stroke:#383838;stroke-width:1.5;"/><path d="M8,166.9375 L8,167.2177 L18,166.3851 L28,167.1952 L38,167.4704 L48,165.9863 L58,166.8339 L68,166.3688 L78,166.4262 L88,166.8466 L98,166.0157 L108,167.6757 L118,166.0971 L128,166.6738 L138,166.9375 " fill="#F8F8F8" style="stroke:#383838;stroke-width:1.5;"/><text fill="#000000" font-family="FG Virgil" font-size="11" lengthAdjust="spacing" textLength="120" x="13" y="181.1479">criticidade = create()</text><!--MD5=[707f6e11070e923409c8fe8b66df636b]
class Prioridade--><polygon fill="#F8F8F8" points="174.5,121,174.5,121.2102,184,120.5857,193.5,121.1933,203,121.3997,212.5,120.2866,222,120.9223,231.5,120.5735,241,120.6165,250.5,120.9318,260,120.3086,269.5,121,270.0536,121,268.8697,130.5346,269.3022,140.0692,269.9319,149.6038,269.4142,159.1384,269.5682,168.673,269.4681,178.2076,269.5,187.7422,269.5,187.9207,260,187.9813,250.5,188.3279,241,188.4132,231.5,188.4214,222,187.9968,212.5,188.2058,203,188.4444,193.5,187.021,184,188.4207,174.5,187.7422,174.2035,187.7422,175.0338,178.2076,174.005,168.673,174.4315,159.1384,175.2416,149.6038,174.4513,140.0692,174.6053,130.5346,174.5,121" style="stroke:#383838;stroke-width:1.5;"/><polygon fill="#C2C2C2" points="201.4608,142.6444,199.8484,144.8475,197.9412,148.0745,195.2136,150.2491,192.3474,151.4384,190.062,151.5416,187.1247,150.0543,184.3532,149.0827,182.2495,147.1099,181.1461,144.8515,180.4917,143.0533,179.8506,140.7045,178.81,138.6832,179.6096,136.7098,180.3102,134.548,182.9393,132.8382,184.789,130.6198,187.0784,129.8832,189.8001,129.2488,193.2904,129.6257,195.2021,130.5273,197.4247,130.9359,200.1272,133.7047,201.0693,136.6277,201.4786,138.6221,201.015,141.9086" style="stroke:#383838;stroke-width:1.0;"/><path d="M192.7438,135.6406 C191.8063,135.2031 191.2125,135.0625 190.3375,135.0625 C187.7125,135.0625 185.7125,137.1406 185.7125,139.8594 L185.7125,140.9844 C185.7125,143.5625 187.8219,145.4531 190.7125,145.4531 C191.9313,145.4531 193.0875,145.1563 193.8375,144.6094 C194.4156,144.2031 194.7438,143.75 194.7438,143.3594 C194.7438,142.9063 194.3531,142.5156 193.8844,142.5156 C193.6656,142.5156 193.4625,142.5938 193.275,142.7813 C192.8219,143.2656 192.8219,143.2656 192.6344,143.3594 C192.2125,143.625 191.525,143.75 190.7594,143.75 C188.7125,143.75 187.4156,142.6563 187.4156,140.9531 L187.4156,139.8594 C187.4156,138.0781 188.6656,136.7656 190.4,136.7656 C190.9781,136.7656 191.5875,136.9219 192.0563,137.1719 C192.5406,137.4531 192.7125,137.6719 192.8063,138.0781 C192.8688,138.4844 192.9,138.6094 193.0406,138.7344 C193.1813,138.875 193.4156,138.9844 193.6344,138.9844 C193.9,138.9844 194.1656,138.8438 194.3375,138.625 C194.4469,138.4688 194.4781,138.2813 194.4781,137.8594 L194.4781,136.4375 C194.4781,136 194.4625,135.875 194.3688,135.7188 C194.2125,135.4531 193.9313,135.3125 193.6344,135.3125 C193.3375,135.3125 193.1344,135.4063 192.9156,135.7188 L192.7438,135.6406 Z " fill="#000000"/><text fill="#000000" font-family="FG Virgil" font-size="12" font-style="italic" lengthAdjust="spacing" textLength="59" x="205.6" y="137.1387">«domain»</text><text fill="#000000" font-family="FG Virgil" font-size="12" lengthAdjust="spacing" textLength="61" x="204.6" y="151.1074">Prioridade</text><path d="M175.5,158.9375 L175.5,159.2177 L185.8333,158.3851 L196.1667,159.1952 L206.5,159.4704 L216.8333,157.9863 L227.1667,158.8339 L237.5,158.3688 L247.8333,158.4262 L258.1667,158.8466 L268.5,158.9375 " fill="#F8F8F8" style="stroke:#383838;stroke-width:1.5;"/><path d="M175.5,166.9375 L175.5,167.2177 L185.8333,166.3851 L196.1667,167.1952 L206.5,167.4704 L216.8333,165.9863 L227.1667,166.8339 L237.5,166.3688 L247.8333,166.4262 L258.1667,166.8466 L268.5,166.9375 " fill="#F8F8F8" style="stroke:#383838;stroke-width:1.5;"/><text fill="#000000" font-family="FG Virgil" font-size="11" lengthAdjust="spacing" textLength="83" x="180.5" y="181.1479">prio = create()</text><!--MD5=[2d0b5f36fb0ccee6641319e26ec56913]
class DataLimite--><polygon fill="#F8F8F8" points="304.5,121,304.5,121.2102,314.4,120.5857,324.3,121.1933,334.2,121.3997,344.1,120.2866,354,120.9223,363.9,120.5735,373.8,120.6165,383.7,120.9318,393.6,120.3086,403.5,121,404.0536,121,402.8697,130.5346,403.3022,140.0692,403.9319,149.6038,403.4142,159.1384,403.5682,168.673,403.4681,178.2076,403.5,187.7422,403.5,187.9207,393.6,187.9813,383.7,188.3279,373.8,188.4132,363.9,188.4214,354,187.9968,344.1,188.2058,334.2,188.4444,324.3,187.021,314.4,188.4207,304.5,187.7422,304.2035,187.7422,305.0338,178.2076,304.005,168.673,304.4315,159.1384,305.2416,149.6038,304.4513,140.0692,304.6053,130.5346,304.5,121" style="stroke:#383838;stroke-width:1.5;"/><polygon fill="#C2C2C2" points="335.9608,142.6444,334.3484,144.8475,332.4412,148.0745,329.7136,150.2491,326.8474,151.4384,324.562,151.5416,321.6247,150.0543,318.8532,149.0827,316.7495,147.1099,315.6461,144.8515,314.9917,143.0533,314.3506,140.7045,313.31,138.6832,314.1096,136.7098,314.8102,134.548,317.4393,132.8382,319.289,130.6198,321.5784,129.8832,324.3001,129.2488,327.7904,129.6257,329.7021,130.5273,331.9247,130.9359,334.6272,133.7047,335.5693,136.6277,335.9786,138.6221,335.515,141.9086" style="stroke:#383838;stroke-width:1.0;"/><path d="M327.2438,135.6406 C326.3063,135.2031 325.7125,135.0625 324.8375,135.0625 C322.2125,135.0625 320.2125,137.1406 320.2125,139.8594 L320.2125,140.9844 C320.2125,143.5625 322.3219,145.4531 325.2125,145.4531 C326.4313,145.4531 327.5875,145.1563 328.3375,144.6094 C328.9156,144.2031 329.2438,143.75 329.2438,143.3594 C329.2438,142.9063 328.8531,142.5156 328.3844,142.5156 C328.1656,142.5156 327.9625,142.5938 327.775,142.7813 C327.3219,143.2656 327.3219,143.2656 327.1344,143.3594 C326.7125,143.625 326.025,143.75 325.2594,143.75 C323.2125,143.75 321.9156,142.6563 321.9156,140.9531 L321.9156,139.8594 C321.9156,138.0781 323.1656,136.7656 324.9,136.7656 C325.4781,136.7656 326.0875,136.9219 326.5563,137.1719 C327.0406,137.4531 327.2125,137.6719 327.3063,138.0781 C327.3688,138.4844 327.4,138.6094 327.5406,138.7344 C327.6813,138.875 327.9156,138.9844 328.1344,138.9844 C328.4,138.9844 328.6656,138.8438 328.8375,138.625 C328.9469,138.4688 328.9781,138.2813 328.9781,137.8594 L328.9781,136.4375 C328.9781,136 328.9625,135.875 328.8688,135.7188 C328.7125,135.4531 328.4313,135.3125 328.1344,135.3125 C327.8375,135.3125 327.6344,135.4063 327.4156,135.7188 L327.2438,135.6406 Z " fill="#000000"/><text fill="#000000" font-family="FG Virgil" font-size="12" font-style="italic" lengthAdjust="spacing" textLength="59" x="338.1" y="137.1387">«domain»</text><text fill="#000000" font-family="FG Virgil" font-size="12" lengthAdjust="spacing" textLength="27" x="354.1" y="151.1074">Data</text><path d="M305.5,158.9375 L305.5,159.2177 L315.2,158.3851 L324.9,159.1952 L334.6,159.4704 L344.3,157.9863 L354,158.8339 L363.7,158.3688 L373.4,158.4262 L383.1,158.8466 L392.8,158.0157 L402.5,158.9375 " fill="#F8F8F8" style="stroke:#383838;stroke-width:1.5;"/><path d="M305.5,166.9375 L305.5,167.2177 L315.2,166.3851 L324.9,167.1952 L334.6,167.4704 L344.3,165.9863 L354,166.8339 L363.7,166.3688 L373.4,166.4262 L383.1,166.8466 L392.8,166.0157 L402.5,166.9375 " fill="#F8F8F8" style="stroke:#383838;stroke-width:1.5;"/><text fill="#000000" font-family="FG Virgil" font-size="11" lengthAdjust="spacing" textLength="87" x="310.5" y="181.1479">data = create()</text><!--MD5=[8389ca4fa7aa9c9ef7ae55469c98a907]
class EstadoAtividade--><polygon fill="#F8F8F8" points="438.5,121,438.5,121.2102,448.4231,120.5857,458.3462,121.1933,468.2692,121.3997,478.1923,120.2866,488.1154,120.9223,498.0385,120.5735,507.9615,120.6165,517.8846,120.9318,527.8077,120.3086,537.7308,121.5536,547.6538,120.3697,557.5769,120.8022,567.5,121,567.9319,121,567.4142,130.5346,567.5682,140.0692,567.4681,149.6038,567.6785,159.1384,567.7391,168.673,568.0857,178.2076,567.5,187.7422,567.5,188.4132,557.5769,188.4214,547.6538,187.9968,537.7308,188.2058,527.8077,188.4444,517.8846,187.021,507.9615,188.4207,498.0385,187.4457,488.1154,188.276,478.1923,187.2472,468.2692,187.6737,458.3462,188.4838,448.4231,187.6935,438.5,187.7422,438.6053,187.7422,438.8386,178.2076,438.9162,168.673,438.4961,159.1384,438.7872,149.6038,437.9276,140.0692,438.7844,130.5346,438.5,121" style="stroke:#383838;stroke-width:1.5;"/><polygon fill="#C2C2C2" points="464.5608,142.6444,462.9484,144.8475,461.0412,148.0745,458.3136,150.2491,455.4474,151.4384,453.162,151.5416,450.2247,150.0543,447.4532,149.0827,445.3495,147.1099,444.2461,144.8515,443.5917,143.0533,442.9506,140.7045,441.91,138.6832,442.7096,136.7098,443.4102,134.548,446.0393,132.8382,447.889,130.6198,450.1784,129.8832,452.9001,129.2488,456.3904,129.6257,458.3021,130.5273,460.5247,130.9359,463.2272,133.7047,464.1693,136.6277,464.5786,138.6221,464.115,141.9086" style="stroke:#383838;stroke-width:1.0;"/><path d="M455.8438,135.6406 C454.9063,135.2031 454.3125,135.0625 453.4375,135.0625 C450.8125,135.0625 448.8125,137.1406 448.8125,139.8594 L448.8125,140.9844 C448.8125,143.5625 450.9219,145.4531 453.8125,145.4531 C455.0313,145.4531 456.1875,145.1563 456.9375,144.6094 C457.5156,144.2031 457.8438,143.75 457.8438,143.3594 C457.8438,142.9063 457.4531,142.5156 456.9844,142.5156 C456.7656,142.5156 456.5625,142.5938 456.375,142.7813 C455.9219,143.2656 455.9219,143.2656 455.7344,143.3594 C455.3125,143.625 454.625,143.75 453.8594,143.75 C451.8125,143.75 450.5156,142.6563 450.5156,140.9531 L450.5156,139.8594 C450.5156,138.0781 451.7656,136.7656 453.5,136.7656 C454.0781,136.7656 454.6875,136.9219 455.1563,137.1719 C455.6406,137.4531 455.8125,137.6719 455.9063,138.0781 C455.9688,138.4844 456,138.6094 456.1406,138.7344 C456.2813,138.875 456.5156,138.9844 456.7344,138.9844 C457,138.9844 457.2656,138.8438 457.4375,138.625 C457.5469,138.4688 457.5781,138.2813 457.5781,137.8594 L457.5781,136.4375 C457.5781,136 457.5625,135.875 457.4688,135.7188 C457.3125,135.4531 457.0313,135.3125 456.7344,135.3125 C456.4375,135.3125 456.2344,135.4063 456.0156,135.7188 L455.8438,135.6406 Z " fill="#000000"/><text fill="#000000" font-family="FG Virgil" font-size="12" font-style="italic" lengthAdjust="spacing" textLength="59" x="486.5" y="137.1387">«domain»</text><text fill="#000000" font-family="FG Virgil" font-size="12" lengthAdjust="spacing" textLength="97" x="467.5" y="151.1074">EstadoAtividade</text><path d="M439.5,158.9375 L439.5,159.2177 L449.2692,158.3851 L459.0385,159.1952 L468.8077,159.4704 L478.5769,157.9863 L488.3462,158.8339 L498.1154,158.3688 L507.8846,158.4262 L517.6538,158.8466 L527.4231,158.0157 L537.1923,159.6757 L546.9615,158.0971 L556.7308,158.6738 L566.5,158.9375 " fill="#F8F8F8" style="stroke:#383838;stroke-width:1.5;"/><path d="M439.5,166.9375 L439.5,167.2177 L449.2692,166.3851 L459.0385,167.1952 L468.8077,167.4704 L478.5769,165.9863 L488.3462,166.8339 L498.1154,166.3688 L507.8846,166.4262 L517.6538,166.8466 L527.4231,166.0157 L537.1923,167.6757 L546.9615,166.0971 L556.7308,166.6738 L566.5,166.9375 " fill="#F8F8F8" style="stroke:#383838;stroke-width:1.5;"/><text fill="#000000" font-family="FG Virgil" font-size="11" lengthAdjust="spacing" textLength="101" x="444.5" y="181.1479">estado = create()</text><!--MD5=[c7803b082b9f852abe3d7efa63a8f0de]
class AtividadeAutomatica--><polygon fill="#F8F8F8" points="603,121,603,121.2102,612.9167,120.5857,622.8333,121.1933,632.75,121.3997,642.6667,120.2866,652.5833,120.9223,662.5,120.5735,672.4167,120.6165,682.3333,120.9318,692.25,120.3086,702.1667,121.5536,712.0833,120.3697,722,120.8022,731.9167,121.4319,741.8333,120.9142,751.75,121.0682,761.6667,120.9681,771.5833,121.1785,781.5,121.2391,791.4167,121.5857,801.3333,121.6711,811.25,121.6793,821.1667,121.2546,831.0833,121.4636,841,121,841.7022,121,840.2788,130.5346,841.6785,140.0692,840.7035,149.6038,841.5338,159.1384,840.505,168.673,840.9315,178.2076,841,187.7422,841,188.4838,831.0833,187.6935,821.1667,187.8475,811.25,188.0808,801.3333,188.1584,791.4167,187.7383,781.5,188.0294,771.5833,187.1698,761.6667,188.0266,751.75,188.2904,741.8333,188.1867,731.9167,188.3552,722,187.2591,712.0833,187.09,702.1667,187.1208,692.25,187.6833,682.3333,187.5457,672.4167,188.4236,662.5,187.5675,652.5833,187.3991,642.6667,187.9705,632.75,187.0753,622.8333,187.2231,612.9167,188.3911,603,187.7422,603.4357,187.7422,603.7345,178.2076,602.6782,168.673,603.3192,159.1384,603.5904,149.6038,602.5276,140.0692,602.9041,130.5346,603,121" style="stroke:#383838;stroke-width:1.5;"/><polygon fill="#C2C2C2" points="667.8108,142.6444,666.1984,144.8475,664.2912,148.0745,661.5636,150.2491,658.6974,151.4384,656.412,151.5416,653.4747,150.0543,650.7032,149.0827,648.5995,147.1099,647.4961,144.8515,646.8417,143.0533,646.2006,140.7045,645.16,138.6832,645.9596,136.7098,646.6602,134.548,649.2893,132.8382,651.139,130.6198,653.4284,129.8832,656.1501,129.2488,659.6404,129.6257,661.5521,130.5273,663.7747,130.9359,666.4772,133.7047,667.4193,136.6277,667.8286,138.6221,667.365,141.9086" style="stroke:#383838;stroke-width:1.0;"/><path d="M659.0938,135.6406 C658.1563,135.2031 657.5625,135.0625 656.6875,135.0625 C654.0625,135.0625 652.0625,137.1406 652.0625,139.8594 L652.0625,140.9844 C652.0625,143.5625 654.1719,145.4531 657.0625,145.4531 C658.2813,145.4531 659.4375,145.1563 660.1875,144.6094 C660.7656,144.2031 661.0938,143.75 661.0938,143.3594 C661.0938,142.9063 660.7031,142.5156 660.2344,142.5156 C660.0156,142.5156 659.8125,142.5938 659.625,142.7813 C659.1719,143.2656 659.1719,143.2656 658.9844,143.3594 C658.5625,143.625 657.875,143.75 657.1094,143.75 C655.0625,143.75 653.7656,142.6563 653.7656,140.9531 L653.7656,139.8594 C653.7656,138.0781 655.0156,136.7656 656.75,136.7656 C657.3281,136.7656 657.9375,136.9219 658.4063,137.1719 C658.8906,137.4531 659.0625,137.6719 659.1563,138.0781 C659.2188,138.4844 659.25,138.6094 659.3906,138.7344 C659.5313,138.875 659.7656,138.9844 659.9844,138.9844 C660.25,138.9844 660.5156,138.8438 660.6875,138.625 C660.7969,138.4688 660.8281,138.2813 660.8281,137.8594 L660.8281,136.4375 C660.8281,136 660.8125,135.875 660.7188,135.7188 C660.5625,135.4531 660.2813,135.3125 659.9844,135.3125 C659.6875,135.3125 659.4844,135.4063 659.2656,135.7188 L659.0938,135.6406 Z " fill="#000000"/><text fill="#000000" font-family="FG Virgil" font-size="12" font-style="italic" lengthAdjust="spacing" textLength="59" x="708.75" y="137.1387">«domain»</text><text fill="#000000" font-family="FG Virgil" font-size="12" lengthAdjust="spacing" textLength="122" x="677.25" y="151.1074">AtividadeAutomatica</text><path d="M604,158.9375 L604,159.2177 L613.8333,158.3851 L623.6667,159.1952 L633.5,159.4704 L643.3333,157.9863 L653.1667,158.8339 L663,158.3688 L672.8333,158.4262 L682.6667,158.8466 L692.5,158.0157 L702.3333,159.6757 L712.1667,158.0971 L722,158.6738 L731.8333,159.5134 L741.6667,158.8231 L751.5,159.0285 L761.3333,158.8949 L771.1667,159.1755 L781,159.2563 L790.8333,159.7184 L800.6667,159.8322 L810.5,159.8432 L820.3333,159.277 L830.1667,159.5556 L840,158.9375 " fill="#F8F8F8" style="stroke:#383838;stroke-width:1.5;"/><path d="M604,166.9375 L604,167.2177 L613.8333,166.3851 L623.6667,167.1952 L633.5,167.4704 L643.3333,165.9863 L653.1667,166.8339 L663,166.3688 L672.8333,166.4262 L682.6667,166.8466 L692.5,166.0157 L702.3333,167.6757 L712.1667,166.0971 L722,166.6738 L731.8333,167.5134 L741.6667,166.8231 L751.5,167.0285 L761.3333,166.8949 L771.1667,167.1755 L781,167.2563 L790.8333,167.7184 L800.6667,167.8322 L810.5,167.8432 L820.3333,167.277 L830.1667,167.5556 L840,166.9375 " fill="#F8F8F8" style="stroke:#383838;stroke-width:1.5;"/><text fill="#000000" font-family="FG Virgil" font-size="11" lengthAdjust="spacing" textLength="226" x="609" y="181.1479">create = (criticidade, prio, data, estado)</text><!--MD5=[10f67ece893151733f958c80ef72eb68]
link EspecificarServicoController to Criticidade--><path d="M292.333,61.005 L292.4419,61.2632 L282.853,64.4033 L273.9025,69.057 L264.7441,73.2179 L254.9021,75.7577 L245.9662,80.4459 L236.5202,83.9247 L227.2771,87.8848 L218.1752,92.1795 L208.587,95.3211 L199.9667,100.758 L190.088,103.2108 L181.0468,107.6494 L172.1077,112.3303 L162.5742,115.6016 L153.3887,119.6981 L144.088,123.5215 " fill="none" style="stroke:#383838;stroke-width:1.0;"/><polygon fill="#383838" points="139.426,125.4875,139.4273,125.5575,141.3928,125.3871,143.3661,125.6273,145.3368,125.7338,147.2991,125.4006,149.2731,125.6761,149.2633,125.6521,148.1715,125.1181,147.1289,124.7051,146.1205,124.3762,144.9943,123.7575,144.0331,123.5447,144.204,123.6142,144.2648,122.4175,144.8246,121.4238,145.4453,120.4549,145.7117,119.3419,146.1645,118.3047,146.1811,118.3203,144.809,119.734,143.5125,121.2185,142.1795,122.6689,140.9161,124.1845,139.426,125.4875" style="stroke:#383838;stroke-width:1.0;"/><!--MD5=[b39040c8f9e9665879d59bc21ca93b24]
link EspecificarServicoController to Prioridade--><path d="M325.032,61.005 L325.2192,61.2135 L316.8082,67.6453 L309.4947,75.2996 L301.8237,82.5558 L292.9776,88.5028 L285.689,96.185 L277.5236,102.8903 L269.7072,109.9844 L262.194,117.4163 " fill="none" style="stroke:#383838;stroke-width:1.0;"/><polygon fill="#383838" points="258.456,120.7725,258.4776,120.8392,260.2873,120.034,262.2236,119.6196,264.1187,119.078,265.8782,118.1179,267.8254,117.737,267.824,117.7112,266.688,117.5342,265.5591,117.4876,264.435,117.5316,263.2941,117.2632,262.1768,117.4325,262.361,117.4424,262.0279,116.2914,262.2328,115.1694,262.5033,114.051,262.3919,112.912,262.4813,111.7838,262.5021,111.7931,261.6666,113.5772,260.9255,115.4036,260.1389,117.2096,259.4392,119.0546,258.456,120.7725" style="stroke:#383838;stroke-width:1.0;"/><!--MD5=[7facd5b4a58dd475b4d711b01aea8e2d]
link EspecificarServicoController to DataLimite--><path d="M354,61.005 L354.2802,61.005 L353.4476,71.8766 L354.2577,82.7483 L354.5329,93.6199 L353.0488,104.4916 L354,115.3632 " fill="none" style="stroke:#383838;stroke-width:1.0;"/><polygon fill="#383838" points="354,120.7725,354.064,120.801,354.6738,118.9164,355.6589,117.1987,356.5217,115.4266,356.9827,113.4759,358,111.7725,357.9817,111.7542,357.0995,112.472,356.3096,113.2821,355.5839,114.1564,354.637,114.8095,354,115.7725,354.1305,115.903,353.0514,114.8239,352.3534,114.1259,351.7018,113.4743,350.7798,112.5523,350,111.7725,350.0208,111.7817,350.7903,113.5682,351.6544,115.3967,352.4728,117.2049,353.3784,119.0518,354,120.7725" style="stroke:#383838;stroke-width:1.0;"/><!--MD5=[780ea08aed17fc29860a6c006675d00c]
link EspecificarServicoController to EstadoAtividade--><path d="M386.699,61.005 L386.8734,61.2243 L394.2975,66.8893 L402.7441,73.84 L410.8577,80.372 L417.8763,85.5271 L426.3462,92.5071 L433.999,98.4597 L441.9771,104.8212 L450.1811,111.4669 L458.18,117.8547 " fill="none" style="stroke:#383838;stroke-width:1.0;"/><polygon fill="#383838" points="462.124,120.9914,462.1861,121.0238,461.0905,119.1811,460.359,117.5284,459.509,115.8138,458.269,113.8957,457.5688,112.2593,457.543,112.2564,457.5558,113.3672,457.6984,114.4929,457.9311,115.6289,457.853,116.7294,458.2103,117.8796,458.2312,118.063,457.0624,117.7992,455.9547,118.0708,454.8544,118.4076,453.7108,118.3645,452.5899,118.5212,452.5957,118.5432,454.4941,119.0049,456.4185,119.5669,458.3304,120.0805,460.2662,120.6863,462.124,120.9914" style="stroke:#383838;stroke-width:1.0;"/><!--MD5=[03fa4d9006663ecbfa4d7d18095f98d1]
link EspecificarServicoController to AtividadeAutomatica--><path d="M434.759,61.005 L434.8449,61.2718 L444.1395,63.5543 L453.9376,67.4006 L463.5717,70.7377 L472.6666,72.4002 L482.4762,76.2821 L491.8834,78.9146 L501.4508,82.0443 L511.1295,85.5196 L520.4246,87.8038 L530.4832,92.4591 L539.5491,94.0316 L549.2756,97.6557 L559.0828,101.5301 L568.421,103.9481 L578.0337,107.2187 L587.5426,110.1667 L597.1784,113.509 L606.7529,116.6611 L616.205,119.4327 " fill="none" style="stroke:#383838;stroke-width:1.0;"/><polygon fill="#383838" points="621.045,120.9914,621.0917,121.0436,619.4848,119.5752,618.1518,118.4128,616.7296,117.1508,615.0141,115.561,613.7046,114.425,613.6815,114.4131,614.0943,115.3668,614.6233,116.3801,615.2331,117.4348,615.5644,118.3467,616.2857,119.4586,616.37,119.6228,615.1832,119.7879,614.2422,120.4324,613.3313,121.1354,612.2458,121.4981,611.2521,122.0398,611.2545,122.0624,613.2095,121.8195,615.1756,121.6796,617.1363,121.49,619.1072,121.3952,621.045,120.9914" style="stroke:#383838;stroke-width:1.0;"/><!--MD5=[50e086e632158181599dccc30f7508af]
@startuml
'http://plantuml.com/skinparam.html
skinparam handwritten true
skinparam monochrome true
skinparam packageStyle rect
skinparam defaultFontName FG Virgil
skinparam shadowing false

class EspecificarServicoController <<application>>
class "Criticidade" as Criticidade <<domain>>
class "Prioridade" as Prioridade <<domain>>
class "Data" as DataLimite <<domain>>
class "EstadoAtividade" as EstadoAtividade <<domain>>
class "AtividadeAutomatica" as AtividadeAutomatica <<domain>>


EspecificarServicoController - -> Criticidade
EspecificarServicoController - -> Prioridade
EspecificarServicoController - -> DataLimite
EspecificarServicoController - -> EstadoAtividade
EspecificarServicoController - -> AtividadeAutomatica


Criticidade : criticidade = create()
Prioridade : prio = create()
DataLimite : data = create()
EstadoAtividade : estado = create()
AtividadeAutomatica : create = (criticidade, prio, data, estado)
@enduml

@startuml
skinparam handwritten true
skinparam monochrome true
skinparam packageStyle rect
skinparam defaultFontName FG Virgil
skinparam shadowing false

class EspecificarServicoController <<application>>
class "Criticidade" as Criticidade <<domain>>
class "Prioridade" as Prioridade <<domain>>
class "Data" as DataLimite <<domain>>
class "EstadoAtividade" as EstadoAtividade <<domain>>
class "AtividadeAutomatica" as AtividadeAutomatica <<domain>>


EspecificarServicoController - -> Criticidade
EspecificarServicoController - -> Prioridade
EspecificarServicoController - -> DataLimite
EspecificarServicoController - -> EstadoAtividade
EspecificarServicoController - -> AtividadeAutomatica


Criticidade : criticidade = create()
Prioridade : prio = create()
DataLimite : data = create()
EstadoAtividade : estado = create()
AtividadeAutomatica : create = (criticidade, prio, data, estado)
@enduml

PlantUML version 1.2021.7beta2(Unknown compile time)
(GPL source distribution)
Java Runtime: Java(TM) SE Runtime Environment
JVM: Java HotSpot(TM) 64-Bit Server VM
Default Encoding: UTF-8
Language: en
Country: US
--></g></svg>