<?xml version="1.0" encoding="UTF-8" standalone="no"?><svg xmlns="http://www.w3.org/2000/svg" xmlns:xlink="http://www.w3.org/1999/xlink" contentScriptType="application/ecmascript" contentStyleType="text/css" height="485px" preserveAspectRatio="none" style="width:833px;height:485px;background:#FFFFFF;" version="1.1" viewBox="0 0 833 485" width="833px" zoomAndPan="magnify"><defs/><g><text fill="#000000" font-family="FG Virgil" font-size="18" lengthAdjust="spacing" textLength="693" x="69.75" y="28.708">SD - Desenvolver a componente representativa de uma tarefa automática</text><polygon fill="#FFFFFF" points="267.5,135.6797,267.5,135.7497,269.5,135.5416,271.5,135.7441,273.5,135.8129,275.5,135.4419,277.5,135.6797,277.4741,135.6797,277.3578,141.6797,277.3722,147.6797,277.4773,153.6797,277.2695,159.6797,277.5,165.6797,277.5,165.8642,275.5,165.4696,273.5,165.6138,271.5,165.8237,269.5,165.6511,267.5,165.6797,267.5227,165.6797,267.4894,159.6797,267.5595,153.6797,267.5797,147.6797,267.6952,141.6797,267.5,135.6797" style="stroke:#383838;stroke-width:1.0;"/><polygon fill="#FFFFFF" points="367,194.8125,367,194.8826,369,194.6744,371,194.8769,373,194.9457,375,194.5747,377,194.8125,376.9741,194.8125,376.8578,200.8125,376.8722,206.8125,376.9773,212.8125,376.7695,218.8125,377,224.8125,377,224.997,375,224.6024,373,224.7466,371,224.9565,369,224.7839,367,224.8125,367.0227,224.8125,366.9894,218.8125,367.0595,212.8125,367.0797,206.8125,367.1952,200.8125,367,194.8125" style="stroke:#383838;stroke-width:1.0;"/><polygon fill="#FFFFFF" points="463.5,253.9453,463.5,254.0154,465.5,253.8072,467.5,254.0097,469.5,254.0785,471.5,253.7075,473.5,253.9453,473.4741,253.9453,473.3578,259.9453,473.3722,265.9453,473.4773,271.9453,473.2695,277.9453,473.5,283.9453,473.5,284.1299,471.5,283.7352,469.5,283.8794,467.5,284.0893,465.5,283.9167,463.5,283.9453,463.5227,283.9453,463.4894,277.9453,463.5595,271.9453,463.5797,265.9453,463.6952,259.9453,463.5,253.9453" style="stroke:#383838;stroke-width:1.0;"/><polygon fill="#FFFFFF" points="582,313.0781,582,313.1482,584,312.94,586,313.1426,588,313.2114,590,312.8403,592,313.0781,591.9741,313.0781,591.8578,319.0781,591.8722,325.0781,591.9773,331.0781,591.7695,337.0781,592,343.0781,592,343.2627,590,342.868,588,343.0122,586,343.2221,584,343.0495,582,343.0781,582.0227,343.0781,581.9894,337.0781,582.0595,331.0781,582.0797,325.0781,582.1952,319.0781,582,313.0781" style="stroke:#383838;stroke-width:1.0;"/><polygon fill="#FFFFFF" points="740,372.2109,740,372.281,742,372.0728,744,372.2754,746,372.3442,748,371.9731,750,372.2109,749.9741,372.2109,749.8578,378.2109,749.8722,384.2109,749.9773,390.2109,749.7695,396.2109,750,402.2109,750,402.3955,748,402.0008,746,402.145,744,402.3549,742,402.1823,740,402.2109,740.0227,402.2109,739.9894,396.2109,740.0595,390.2109,740.0797,384.2109,740.1952,378.2109,740,372.2109" style="stroke:#383838;stroke-width:1.0;"/><path d="M110,104.5469 L110.2802,104.5469 L109.4476,114.4114 L110.2577,124.2759 L110.5329,134.1404 L109.0488,144.0049 L109.8964,153.8694 L109.4313,163.7339 L109.4887,173.5984 L109.9091,183.4629 L109.0782,193.3274 L110.7382,203.1919 L109.1596,213.0564 L109.7363,222.9209 L110.5759,232.7854 L109.8856,242.6499 L110.091,252.5144 L109.9574,262.3789 L110.238,272.2434 L110.3188,282.1079 L110.7809,291.9724 L110.8947,301.8369 L110.9057,311.7014 L110.3395,321.5659 L110.6181,331.4304 L110.9363,341.2949 L109.0384,351.1594 L110.9047,361.0239 L109.6047,370.8884 L110.7117,380.7529 L109.34,390.6174 L109.9087,400.4819 L110.9888,410.3464 L110,420.2109 " fill="none" style="stroke:#383838;stroke-width:1.0;stroke-dasharray:5.0,5.0;"/><path d="M272.5,104.5469 L272.7802,104.5469 L271.9476,114.4114 L272.7577,124.2759 L273.0329,134.1404 L271.5488,144.0049 L272.3964,153.8694 L271.9313,163.7339 L271.9887,173.5984 L272.4091,183.4629 L271.5782,193.3274 L273.2382,203.1919 L271.6596,213.0564 L272.2363,222.9209 L273.0759,232.7854 L272.3856,242.6499 L272.591,252.5144 L272.4574,262.3789 L272.738,272.2434 L272.8188,282.1079 L273.2809,291.9724 L273.3947,301.8369 L273.4057,311.7014 L272.8395,321.5659 L273.1181,331.4304 L273.4363,341.2949 L271.5384,351.1594 L273.4047,361.0239 L272.1047,370.8884 L273.2117,380.7529 L271.84,390.6174 L272.4087,400.4819 L273.4888,410.3464 L272.5,420.2109 " fill="none" style="stroke:#383838;stroke-width:1.0;stroke-dasharray:5.0,5.0;"/><path d="M371.5,104.5469 L371.7802,104.5469 L370.9476,114.4114 L371.7577,124.2759 L372.0329,134.1404 L370.5488,144.0049 L371.3964,153.8694 L370.9313,163.7339 L370.9887,173.5984 L371.4091,183.4629 L370.5782,193.3274 L372.2382,203.1919 L370.6596,213.0564 L371.2363,222.9209 L372.0759,232.7854 L371.3856,242.6499 L371.591,252.5144 L371.4574,262.3789 L371.738,272.2434 L371.8188,282.1079 L372.2809,291.9724 L372.3947,301.8369 L372.4057,311.7014 L371.8395,321.5659 L372.1181,331.4304 L372.4363,341.2949 L370.5384,351.1594 L372.4047,361.0239 L371.1047,370.8884 L372.2117,380.7529 L370.84,390.6174 L371.4087,400.4819 L372.4888,410.3464 L371.5,420.2109 " fill="none" style="stroke:#383838;stroke-width:1.0;stroke-dasharray:5.0,5.0;"/><path d="M468.5,104.5469 L468.7802,104.5469 L467.9476,114.4114 L468.7577,124.2759 L469.0329,134.1404 L467.5488,144.0049 L468.3964,153.8694 L467.9313,163.7339 L467.9887,173.5984 L468.4091,183.4629 L467.5782,193.3274 L469.2382,203.1919 L467.6596,213.0564 L468.2363,222.9209 L469.0759,232.7854 L468.3856,242.6499 L468.591,252.5144 L468.4574,262.3789 L468.738,272.2434 L468.8188,282.1079 L469.2809,291.9724 L469.3947,301.8369 L469.4057,311.7014 L468.8395,321.5659 L469.1181,331.4304 L469.4363,341.2949 L467.5384,351.1594 L469.4047,361.0239 L468.1047,370.8884 L469.2117,380.7529 L467.84,390.6174 L468.4087,400.4819 L469.4888,410.3464 L468.5,420.2109 " fill="none" style="stroke:#383838;stroke-width:1.0;stroke-dasharray:5.0,5.0;"/><path d="M586.5,104.5469 L586.7802,104.5469 L585.9476,114.4114 L586.7577,124.2759 L587.0329,134.1404 L585.5488,144.0049 L586.3964,153.8694 L585.9313,163.7339 L585.9887,173.5984 L586.4091,183.4629 L585.5782,193.3274 L587.2382,203.1919 L585.6596,213.0564 L586.2363,222.9209 L587.0759,232.7854 L586.3856,242.6499 L586.591,252.5144 L586.4574,262.3789 L586.738,272.2434 L586.8188,282.1079 L587.2809,291.9724 L587.3947,301.8369 L587.4057,311.7014 L586.8395,321.5659 L587.1181,331.4304 L587.4363,341.2949 L585.5384,351.1594 L587.4047,361.0239 L586.1047,370.8884 L587.2117,380.7529 L585.84,390.6174 L586.4087,400.4819 L587.4888,410.3464 L586.5,420.2109 " fill="none" style="stroke:#383838;stroke-width:1.0;stroke-dasharray:5.0,5.0;"/><path d="M744.5,104.5469 L744.7802,104.5469 L743.9476,114.4114 L744.7577,124.2759 L745.0329,134.1404 L743.5488,144.0049 L744.3964,153.8694 L743.9313,163.7339 L743.9887,173.5984 L744.4091,183.4629 L743.5782,193.3274 L745.2382,203.1919 L743.6596,213.0564 L744.2363,222.9209 L745.0759,232.7854 L744.3856,242.6499 L744.591,252.5144 L744.4574,262.3789 L744.738,272.2434 L744.8188,282.1079 L745.2809,291.9724 L745.3947,301.8369 L745.4057,311.7014 L744.8395,321.5659 L745.1181,331.4304 L745.4363,341.2949 L743.5384,351.1594 L745.4047,361.0239 L744.1047,370.8884 L745.2117,380.7529 L743.84,390.6174 L744.4087,400.4819 L745.4888,410.3464 L744.5,420.2109 " fill="none" style="stroke:#383838;stroke-width:1.0;stroke-dasharray:5.0,5.0;"/><text fill="#000000" font-family="FG Virgil" font-size="14" font-style="italic" lengthAdjust="spacing" textLength="97" x="59" y="84.9482">«application»</text><text fill="#000000" font-family="FG Virgil" font-size="14" lengthAdjust="spacing" textLength="205" x="5" y="101.2451">EspecificarServicoController</text><polygon fill="#F8F8F8" points="122.5663,58.872,120.8073,61.2754,118.7268,64.7957,115.7512,67.1681,112.6244,68.4654,110.1313,68.578,106.9269,66.9555,103.9035,65.8956,101.6086,63.7435,100.4048,61.2798,99.6909,59.3181,98.9915,56.7557,97.8564,54.5507,98.7287,52.3979,99.4929,50.0396,102.3611,48.1744,104.3789,45.7543,106.8764,44.9507,109.8456,44.2586,113.6532,44.6698,115.7386,45.6533,118.1633,46.0991,121.1115,49.1196,122.1392,52.3083,122.5857,54.4841,122.08,58.0694" style="stroke:#383838;stroke-width:2.0;"/><polygon fill="#383838" points="106.5,43.9531,106.5449,44.0069,107.6116,42.847,108.9412,42.0026,110.1853,41.0555,111.1478,39.7704,112.5,38.9531,112.4759,38.9435,111.968,39.9003,111.5813,40.9056,111.2789,41.9447,110.686,42.8675,110.5,43.9531,110.6713,44.0217,110.7049,44.8751,111.2388,45.9286,111.8337,47.0066,112.0735,47.9425,112.5,48.9531,112.5146,48.9706,111.2932,47.9449,110.1381,46.9988,108.951,46.0144,107.825,45.1031,106.5,43.9531" style="stroke:#383838;stroke-width:1.0;"/><text fill="#000000" font-family="FG Virgil" font-size="14" font-style="italic" lengthAdjust="spacing" textLength="97" x="59" y="432.2061">«application»</text><text fill="#000000" font-family="FG Virgil" font-size="14" lengthAdjust="spacing" textLength="205" x="5" y="448.5029">EspecificarServicoController</text><polygon fill="#F8F8F8" points="122.5663,470.7236,120.8073,473.127,118.7268,476.6473,115.7512,479.0197,112.6244,480.317,110.1313,480.4296,106.9269,478.8071,103.9035,477.7471,101.6086,475.5951,100.4048,473.1314,99.6909,471.1696,98.9915,468.6073,97.8564,466.4023,98.7287,464.2494,99.4929,461.8911,102.3611,460.0259,104.3789,457.6059,106.8764,456.8023,109.8456,456.1102,113.6532,456.5214,115.7386,457.5049,118.1633,457.9507,121.1115,460.9712,122.1392,464.1599,122.5857,466.3356,122.08,469.9209" style="stroke:#383838;stroke-width:2.0;"/><polygon fill="#383838" points="106.5,455.8047,106.5449,455.8585,107.6116,454.6986,108.9412,453.8542,110.1853,452.907,111.1478,451.622,112.5,450.8047,112.4759,450.7951,111.968,451.7519,111.5813,452.7572,111.2789,453.7962,110.686,454.7191,110.5,455.8047,110.6713,455.8732,110.7049,456.7267,111.2388,457.7802,111.8337,458.8582,112.0735,459.7941,112.5,460.8047,112.5146,460.8222,111.2932,459.7965,110.1381,458.8504,108.951,457.8659,107.825,456.9547,106.5,455.8047" style="stroke:#383838;stroke-width:1.0;"/><polygon fill="#F8F8F8" points="226.5,56.9531,226.5,57.1633,236.7222,56.5388,246.9444,57.1464,257.1667,57.3528,267.3889,56.2397,277.6111,56.8754,287.8333,56.5266,298.0556,56.5696,308.2778,56.885,318.5,56.9531,317.8086,56.9531,319.0536,66.2719,317.8697,75.5906,318.3022,84.9094,318.9319,94.2281,318.5,103.5469,318.5,103.4611,308.2778,103.6151,298.0556,103.5149,287.8333,103.7254,277.6111,103.786,267.3889,104.1326,257.1667,104.2179,246.9444,104.2261,236.7222,103.8015,226.5,103.5469,226.9636,103.5469,227.2022,94.2281,225.7788,84.9094,227.1785,75.5906,226.2035,66.2719,226.5,56.9531" style="stroke:#383838;stroke-width:1.5;"/><text fill="#000000" font-family="FG Virgil" font-size="14" font-style="italic" lengthAdjust="spacing" textLength="72" x="236.5" y="76.9482">«domain»</text><text fill="#000000" font-family="FG Virgil" font-size="14" lengthAdjust="spacing" textLength="78" x="233.5" y="93.2451">Criticidade</text><polygon fill="#F8F8F8" points="226.5,419.2109,226.5,419.4211,236.7222,418.7966,246.9444,419.4042,257.1667,419.6106,267.3889,418.4975,277.6111,419.1332,287.8333,418.7844,298.0556,418.8274,308.2778,419.1428,318.5,419.2109,317.8086,419.2109,319.0536,428.5297,317.8697,437.8484,318.3022,447.1672,318.9319,456.4859,318.5,465.8047,318.5,465.7189,308.2778,465.8729,298.0556,465.7727,287.8333,465.9832,277.6111,466.0438,267.3889,466.3904,257.1667,466.4757,246.9444,466.4839,236.7222,466.0593,226.5,465.8047,226.9636,465.8047,227.2022,456.4859,225.7788,447.1672,227.1785,437.8484,226.2035,428.5297,226.5,419.2109" style="stroke:#383838;stroke-width:1.5;"/><text fill="#000000" font-family="FG Virgil" font-size="14" font-style="italic" lengthAdjust="spacing" textLength="72" x="236.5" y="439.2061">«domain»</text><text fill="#000000" font-family="FG Virgil" font-size="14" lengthAdjust="spacing" textLength="78" x="233.5" y="455.5029">Criticidade</text><polygon fill="#F8F8F8" points="328.5,56.9531,328.5,57.1633,338.1667,56.5388,347.8333,57.1464,357.5,57.3528,367.1667,56.2397,376.8333,56.8754,386.5,56.5266,396.1667,56.5696,405.8333,56.885,415.5,56.9531,414.8086,56.9531,416.0536,66.2719,414.8697,75.5906,415.3022,84.9094,415.9319,94.2281,415.5,103.5469,415.5,103.4611,405.8333,103.6151,396.1667,103.5149,386.5,103.7254,376.8333,103.786,367.1667,104.1326,357.5,104.2179,347.8333,104.2261,338.1667,103.8015,328.5,103.5469,328.9636,103.5469,329.2022,94.2281,327.7788,84.9094,329.1785,75.5906,328.2035,66.2719,328.5,56.9531" style="stroke:#383838;stroke-width:1.5;"/><text fill="#000000" font-family="FG Virgil" font-size="14" font-style="italic" lengthAdjust="spacing" textLength="72" x="336" y="76.9482">«domain»</text><text fill="#000000" font-family="FG Virgil" font-size="14" lengthAdjust="spacing" textLength="73" x="335.5" y="93.2451">Prioridade</text><polygon fill="#F8F8F8" points="328.5,419.2109,328.5,419.4211,338.1667,418.7966,347.8333,419.4042,357.5,419.6106,367.1667,418.4975,376.8333,419.1332,386.5,418.7844,396.1667,418.8274,405.8333,419.1428,415.5,419.2109,414.8086,419.2109,416.0536,428.5297,414.8697,437.8484,415.3022,447.1672,415.9319,456.4859,415.5,465.8047,415.5,465.7189,405.8333,465.8729,396.1667,465.7727,386.5,465.9832,376.8333,466.0438,367.1667,466.3904,357.5,466.4757,347.8333,466.4839,338.1667,466.0593,328.5,465.8047,328.9636,465.8047,329.2022,456.4859,327.7788,447.1672,329.1785,437.8484,328.2035,428.5297,328.5,419.2109" style="stroke:#383838;stroke-width:1.5;"/><text fill="#000000" font-family="FG Virgil" font-size="14" font-style="italic" lengthAdjust="spacing" textLength="72" x="336" y="439.2061">«domain»</text><text fill="#000000" font-family="FG Virgil" font-size="14" lengthAdjust="spacing" textLength="73" x="335.5" y="455.5029">Prioridade</text><polygon fill="#F8F8F8" points="425.5,56.9531,425.5,57.1633,435.0556,56.5388,444.6111,57.1464,454.1667,57.3528,463.7222,56.2397,473.2778,56.8754,482.8333,56.5266,492.3889,56.5696,501.9444,56.885,511.5,56.9531,510.8086,56.9531,512.0536,66.2719,510.8697,75.5906,511.3022,84.9094,511.9319,94.2281,511.5,103.5469,511.5,103.4611,501.9444,103.6151,492.3889,103.5149,482.8333,103.7254,473.2778,103.786,463.7222,104.1326,454.1667,104.2179,444.6111,104.2261,435.0556,103.8015,425.5,103.5469,425.9636,103.5469,426.2022,94.2281,424.7788,84.9094,426.1785,75.5906,425.2035,66.2719,425.5,56.9531" style="stroke:#383838;stroke-width:1.5;"/><text fill="#000000" font-family="FG Virgil" font-size="14" font-style="italic" lengthAdjust="spacing" textLength="72" x="432.5" y="76.9482">«domain»</text><text fill="#000000" font-family="FG Virgil" font-size="14" lengthAdjust="spacing" textLength="34" x="451.5" y="93.2451">Data</text><polygon fill="#F8F8F8" points="425.5,419.2109,425.5,419.4211,435.0556,418.7966,444.6111,419.4042,454.1667,419.6106,463.7222,418.4975,473.2778,419.1332,482.8333,418.7844,492.3889,418.8274,501.9444,419.1428,511.5,419.2109,510.8086,419.2109,512.0536,428.5297,510.8697,437.8484,511.3022,447.1672,511.9319,456.4859,511.5,465.8047,511.5,465.7189,501.9444,465.8729,492.3889,465.7727,482.8333,465.9832,473.2778,466.0438,463.7222,466.3904,454.1667,466.4757,444.6111,466.4839,435.0556,466.0593,425.5,465.8047,425.9636,465.8047,426.2022,456.4859,424.7788,447.1672,426.1785,437.8484,425.2035,428.5297,425.5,419.2109" style="stroke:#383838;stroke-width:1.5;"/><text fill="#000000" font-family="FG Virgil" font-size="14" font-style="italic" lengthAdjust="spacing" textLength="72" x="432.5" y="439.2061">«domain»</text><text fill="#000000" font-family="FG Virgil" font-size="14" lengthAdjust="spacing" textLength="34" x="451.5" y="455.5029">Data</text><polygon fill="#F8F8F8" points="521.5,56.9531,521.5,57.1633,531.5769,56.5388,541.6538,57.1464,551.7308,57.3528,561.8077,56.2397,571.8846,56.8754,581.9615,56.5266,592.0385,56.5696,602.1154,56.885,612.1923,56.2618,622.2692,57.5068,632.3462,56.3228,642.4231,56.7554,652.5,56.9531,652.9319,56.9531,652.4142,66.2719,652.5682,75.5906,652.4681,84.9094,652.6785,94.2281,652.5,103.5469,652.5,103.786,642.4231,104.1326,632.3462,104.2179,622.2692,104.2261,612.1923,103.8015,602.1154,104.0105,592.0385,104.2491,581.9615,102.8257,571.8846,104.2254,561.8077,103.2504,551.7308,104.0807,541.6538,103.0519,531.5769,103.4784,521.5,103.5469,522.2416,103.5469,521.4513,94.2281,521.6053,84.9094,521.8386,75.5906,521.9162,66.2719,521.5,56.9531" style="stroke:#383838;stroke-width:1.5;"/><text fill="#000000" font-family="FG Virgil" font-size="14" font-style="italic" lengthAdjust="spacing" textLength="72" x="551" y="76.9482">«domain»</text><text fill="#000000" font-family="FG Virgil" font-size="14" lengthAdjust="spacing" textLength="117" x="528.5" y="93.2451">EstadoAtividade</text><polygon fill="#F8F8F8" points="521.5,419.2109,521.5,419.4211,531.5769,418.7966,541.6538,419.4042,551.7308,419.6106,561.8077,418.4975,571.8846,419.1332,581.9615,418.7844,592.0385,418.8274,602.1154,419.1428,612.1923,418.5196,622.2692,419.7646,632.3462,418.5807,642.4231,419.0132,652.5,419.2109,652.9319,419.2109,652.4142,428.5297,652.5682,437.8484,652.4681,447.1672,652.6785,456.4859,652.5,465.8047,652.5,466.0438,642.4231,466.3904,632.3462,466.4757,622.2692,466.4839,612.1923,466.0593,602.1154,466.2683,592.0385,466.5069,581.9615,465.0835,571.8846,466.4832,561.8077,465.5082,551.7308,466.3385,541.6538,465.3097,531.5769,465.7362,521.5,465.8047,522.2416,465.8047,521.4513,456.4859,521.6053,447.1672,521.8386,437.8484,521.9162,428.5297,521.5,419.2109" style="stroke:#383838;stroke-width:1.5;"/><text fill="#000000" font-family="FG Virgil" font-size="14" font-style="italic" lengthAdjust="spacing" textLength="72" x="551" y="439.2061">«domain»</text><text fill="#000000" font-family="FG Virgil" font-size="14" lengthAdjust="spacing" textLength="117" x="528.5" y="455.5029">EstadoAtividade</text><polygon fill="#F8F8F8" points="662.5,56.9531,662.5,57.1633,672.2059,56.5388,681.9118,57.1464,691.6176,57.3528,701.3235,56.2397,711.0294,56.8754,720.7353,56.5266,730.4412,56.5696,740.1471,56.885,749.8529,56.2618,759.5588,57.5068,769.2647,56.3228,778.9706,56.7554,788.6765,57.3851,798.3824,56.8673,808.0882,57.0214,817.7941,56.9212,827.5,56.9531,827.6785,56.9531,827.7391,66.2719,828.0857,75.5906,828.1711,84.9094,828.1793,94.2281,827.5,103.5469,827.5,103.8015,817.7941,104.0105,808.0882,104.2491,798.3824,102.8257,788.6765,104.2254,778.9706,103.2504,769.2647,104.0807,759.5588,103.0519,749.8529,103.4784,740.1471,104.2885,730.4412,103.4981,720.7353,103.6522,711.0294,103.8855,701.3235,103.9631,691.6176,103.543,681.9118,103.8341,672.2059,102.9745,662.5,103.5469,662.7844,103.5469,663.0482,94.2281,662.9445,84.9094,663.113,75.5906,662.0169,66.2719,662.5,56.9531" style="stroke:#383838;stroke-width:1.5;"/><text fill="#000000" font-family="FG Virgil" font-size="14" font-style="italic" lengthAdjust="spacing" textLength="72" x="709" y="76.9482">«domain»</text><text fill="#000000" font-family="FG Virgil" font-size="14" lengthAdjust="spacing" textLength="151" x="669.5" y="93.2451">AtividadeAutomatica</text><polygon fill="#F8F8F8" points="662.5,419.2109,662.5,419.4211,672.2059,418.7966,681.9118,419.4042,691.6176,419.6106,701.3235,418.4975,711.0294,419.1332,720.7353,418.7844,730.4412,418.8274,740.1471,419.1428,749.8529,418.5196,759.5588,419.7646,769.2647,418.5807,778.9706,419.0132,788.6765,419.6429,798.3824,419.1252,808.0882,419.2792,817.7941,419.179,827.5,419.2109,827.6785,419.2109,827.7391,428.5297,828.0857,437.8484,828.1711,447.1672,828.1793,456.4859,827.5,465.8047,827.5,466.0593,817.7941,466.2683,808.0882,466.5069,798.3824,465.0835,788.6765,466.4832,778.9706,465.5082,769.2647,466.3385,759.5588,465.3097,749.8529,465.7362,740.1471,466.5463,730.4412,465.756,720.7353,465.91,711.0294,466.1433,701.3235,466.2209,691.6176,465.8008,681.9118,466.0919,672.2059,465.2323,662.5,465.8047,662.7844,465.8047,663.0482,456.4859,662.9445,447.1672,663.113,437.8484,662.0169,428.5297,662.5,419.2109" style="stroke:#383838;stroke-width:1.5;"/><text fill="#000000" font-family="FG Virgil" font-size="14" font-style="italic" lengthAdjust="spacing" textLength="72" x="709" y="439.2061">«domain»</text><text fill="#000000" font-family="FG Virgil" font-size="14" lengthAdjust="spacing" textLength="151" x="669.5" y="455.5029">AtividadeAutomatica</text><polygon fill="#FFFFFF" points="267.5,135.6797,267.5,135.7497,269.5,135.5416,271.5,135.7441,273.5,135.8129,275.5,135.4419,277.5,135.6797,277.4741,135.6797,277.3578,141.6797,277.3722,147.6797,277.4773,153.6797,277.2695,159.6797,277.5,165.6797,277.5,165.8642,275.5,165.4696,273.5,165.6138,271.5,165.8237,269.5,165.6511,267.5,165.6797,267.5227,165.6797,267.4894,159.6797,267.5595,153.6797,267.5797,147.6797,267.6952,141.6797,267.5,135.6797" style="stroke:#383838;stroke-width:1.0;"/><polygon fill="#FFFFFF" points="367,194.8125,367,194.8826,369,194.6744,371,194.8769,373,194.9457,375,194.5747,377,194.8125,376.9741,194.8125,376.8578,200.8125,376.8722,206.8125,376.9773,212.8125,376.7695,218.8125,377,224.8125,377,224.997,375,224.6024,373,224.7466,371,224.9565,369,224.7839,367,224.8125,367.0227,224.8125,366.9894,218.8125,367.0595,212.8125,367.0797,206.8125,367.1952,200.8125,367,194.8125" style="stroke:#383838;stroke-width:1.0;"/><polygon fill="#FFFFFF" points="463.5,253.9453,463.5,254.0154,465.5,253.8072,467.5,254.0097,469.5,254.0785,471.5,253.7075,473.5,253.9453,473.4741,253.9453,473.3578,259.9453,473.3722,265.9453,473.4773,271.9453,473.2695,277.9453,473.5,283.9453,473.5,284.1299,471.5,283.7352,469.5,283.8794,467.5,284.0893,465.5,283.9167,463.5,283.9453,463.5227,283.9453,463.4894,277.9453,463.5595,271.9453,463.5797,265.9453,463.6952,259.9453,463.5,253.9453" style="stroke:#383838;stroke-width:1.0;"/><polygon fill="#FFFFFF" points="582,313.0781,582,313.1482,584,312.94,586,313.1426,588,313.2114,590,312.8403,592,313.0781,591.9741,313.0781,591.8578,319.0781,591.8722,325.0781,591.9773,331.0781,591.7695,337.0781,592,343.0781,592,343.2627,590,342.868,588,343.0122,586,343.2221,584,343.0495,582,343.0781,582.0227,343.0781,581.9894,337.0781,582.0595,331.0781,582.0797,325.0781,582.1952,319.0781,582,313.0781" style="stroke:#383838;stroke-width:1.0;"/><polygon fill="#FFFFFF" points="740,372.2109,740,372.281,742,372.0728,744,372.2754,746,372.3442,748,371.9731,750,372.2109,749.9741,372.2109,749.8578,378.2109,749.8722,384.2109,749.9773,390.2109,749.7695,396.2109,750,402.2109,750,402.3955,748,402.0008,746,402.145,744,402.3549,742,402.1823,740,402.2109,740.0227,402.2109,739.9894,396.2109,740.0595,390.2109,740.0797,384.2109,740.1952,378.2109,740,372.2109" style="stroke:#383838;stroke-width:1.0;"/><polygon fill="#383838" points="255.5,131.6797,255.526,131.7447,257.4487,132.3515,259.5239,133.3395,261.5495,134.2034,263.4117,134.6589,265.5,135.6797,265.4904,135.6556,263.4472,136.3477,261.4525,137.161,259.4916,138.0586,257.4144,138.6657,255.5,139.6797,255.6305,139.8102,256.1514,138.7311,257.0534,138.0331,258.0018,137.3815,258.6798,136.4595,259.5,135.6797,259.5161,135.6958,258.6925,134.8722,257.9421,134.1218,257.1564,133.3361,256.438,132.6177,255.5,131.6797" style="stroke:#383838;stroke-width:1.0;"/><path d="M110.5,135.6797 L110.5,135.9599 L120.5667,135.1273 L130.6333,135.9374 L140.7,136.2126 L150.7667,134.7285 L160.8333,135.5761 L170.9,135.111 L180.9667,135.1684 L191.0333,135.5888 L201.1,134.7579 L211.1667,136.4179 L221.2333,134.8393 L231.3,135.416 L241.3667,136.2556 L251.4333,135.5653 L261.5,135.6797 " fill="none" style="stroke:#383838;stroke-width:1.0;"/><text fill="#000000" font-family="FG Virgil" font-size="13" lengthAdjust="spacing" textLength="138" x="117.5" y="130.6138">criticidade  = create()</text><polygon fill="#383838" points="355,190.8125,355.026,190.8775,356.9487,191.4843,359.0239,192.4723,361.0495,193.3362,362.9117,193.7917,365,194.8125,364.9904,194.7884,362.9472,195.4805,360.9525,196.2938,358.9916,197.1914,356.9144,197.7985,355,198.8125,355.1305,198.943,355.6514,197.8639,356.5534,197.1659,357.5018,196.5143,358.1798,195.5923,359,194.8125,359.0161,194.8286,358.1925,194.005,357.4421,193.2546,356.6564,192.4689,355.938,191.7505,355,190.8125" style="stroke:#383838;stroke-width:1.0;"/><path d="M110.5,194.8125 L110.5,195.0927 L120.52,194.2601 L130.54,195.0702 L140.56,195.3454 L150.58,193.8613 L160.6,194.7089 L170.62,194.2438 L180.64,194.3012 L190.66,194.7216 L200.68,193.8907 L210.7,195.5507 L220.72,193.9721 L230.74,194.5488 L240.76,195.3884 L250.78,194.6981 L260.8,194.9035 L270.82,194.7699 L280.84,195.0505 L290.86,195.1313 L300.88,195.5934 L310.9,195.7072 L320.92,195.7182 L330.94,195.152 L340.96,195.4306 L350.98,195.7488 L361,194.8125 " fill="none" style="stroke:#383838;stroke-width:1.0;"/><text fill="#000000" font-family="FG Virgil" font-size="13" lengthAdjust="spacing" textLength="97" x="117.5" y="189.7466">prio  = create()</text><polygon fill="#383838" points="451.5,249.9453,451.526,250.0104,453.4487,250.6171,455.5239,251.6051,457.5495,252.469,459.4117,252.9245,461.5,253.9453,461.4904,253.9213,459.4472,254.6133,457.4525,255.4266,455.4916,256.3242,453.4144,256.9313,451.5,257.9453,451.6305,258.0758,452.1514,256.9968,453.0534,256.2987,454.0018,255.6471,454.6798,254.7251,455.5,253.9453,455.5161,253.9614,454.6925,253.1378,453.9421,252.3874,453.1564,251.6017,452.438,250.8834,451.5,249.9453" style="stroke:#383838;stroke-width:1.0;"/><path d="M110.5,253.9453 L110.5,254.2256 L120.4143,253.3929 L130.3286,254.203 L140.2429,254.4782 L150.1571,252.9941 L160.0714,253.8417 L169.9857,253.3767 L179.9,253.434 L189.8143,253.8544 L199.7286,253.0235 L209.6429,254.6835 L219.5571,253.1049 L229.4714,253.6816 L239.3857,254.5212 L249.3,253.8309 L259.2143,254.0363 L269.1286,253.9027 L279.0429,254.1833 L288.9571,254.2642 L298.8714,254.7262 L308.7857,254.8401 L318.7,254.851 L328.6143,254.2848 L338.5286,254.5634 L348.4429,254.8816 L358.3571,252.9837 L368.2714,254.85 L378.1857,253.55 L388.1,254.6571 L398.0143,253.2853 L407.9286,253.854 L417.8429,254.9341 L427.7571,253.8803 L437.6714,254.0857 L447.5857,254.3968 L457.5,253.9453 " fill="none" style="stroke:#383838;stroke-width:1.0;"/><text fill="#000000" font-family="FG Virgil" font-size="13" lengthAdjust="spacing" textLength="102" x="117.5" y="248.8794">data  = create()</text><polygon fill="#383838" points="570,309.0781,570.026,309.1432,571.9487,309.7499,574.0239,310.7379,576.0495,311.6018,577.9117,312.0573,580,313.0781,579.9904,313.0541,577.9472,313.7461,575.9525,314.5594,573.9916,315.457,571.9144,316.0642,570,317.0781,570.1305,317.2086,570.6514,316.1296,571.5534,315.4315,572.5018,314.7799,573.1798,313.8579,574,313.0781,574.0161,313.0942,573.1925,312.2706,572.4421,311.5202,571.6564,310.7345,570.938,310.0162,570,309.0781" style="stroke:#383838;stroke-width:1.0;"/><path d="M110.5,313.0781 L110.5,313.3584 L120.4043,312.5257 L130.3085,313.3358 L140.2128,313.611 L150.117,312.1269 L160.0213,312.9745 L169.9255,312.5095 L179.8298,312.5668 L189.734,312.9872 L199.6383,312.1563 L209.5426,313.8163 L219.4468,312.2378 L229.3511,312.8144 L239.2553,313.6541 L249.1596,312.9638 L259.0638,313.1691 L268.9681,313.0355 L278.8723,313.3162 L288.7766,313.397 L298.6809,313.859 L308.5851,313.9729 L318.4894,313.9838 L328.3936,313.4176 L338.2979,313.6962 L348.2021,314.0144 L358.1064,312.1165 L368.0106,313.9828 L377.9149,312.6828 L387.8191,313.7899 L397.7234,312.4181 L407.6277,312.9868 L417.5319,314.0669 L427.4362,313.0131 L437.3404,313.2185 L447.2447,313.5296 L457.1489,313.6331 L467.0532,313.0729 L476.9574,313.4611 L486.8617,312.3149 L496.766,313.4573 L506.6702,313.8091 L516.5745,313.6708 L526.4787,313.8955 L536.383,312.434 L546.2872,312.2085 L556.1915,312.2496 L566.0957,312.9996 L576,313.0781 " fill="none" style="stroke:#383838;stroke-width:1.0;"/><text fill="#000000" font-family="FG Virgil" font-size="13" lengthAdjust="spacing" textLength="117" x="117.5" y="308.0122">estado  = create()</text><polygon fill="#383838" points="728,368.2109,728.026,368.276,729.9487,368.8827,732.0239,369.8708,734.0495,370.7346,735.9117,371.1901,738,372.2109,737.9904,372.1869,735.9472,372.8789,733.9525,373.6922,731.9916,374.5898,729.9144,375.197,728,376.2109,728.1305,376.3414,728.6514,375.2624,729.5534,374.5643,730.5018,373.9127,731.1798,372.9907,732,372.2109,732.0161,372.227,731.1925,371.4034,730.4421,370.653,729.6564,369.8673,728.938,369.149,728,368.2109" style="stroke:#383838;stroke-width:1.0;"/><path d="M110.5,372.2109 L110.5,372.4912 L120.5565,371.6585 L130.6129,372.4687 L140.6694,372.7438 L150.7258,371.2597 L160.7823,372.1073 L170.8387,371.6423 L180.8952,371.6996 L190.9516,372.1201 L201.0081,371.2891 L211.0645,372.9491 L221.121,371.3706 L231.1774,371.9472 L241.2339,372.7869 L251.2903,372.0966 L261.3468,372.3019 L271.4032,372.1683 L281.4597,372.449 L291.5161,372.5298 L301.5726,372.9919 L311.629,373.1057 L321.6855,373.1166 L331.7419,372.5504 L341.7984,372.8291 L351.8548,373.1472 L361.9113,371.2494 L371.9677,373.1156 L382.0242,371.8156 L392.0806,372.9227 L402.1371,371.5509 L412.1935,372.1196 L422.25,373.1997 L432.3065,372.146 L442.3629,372.3513 L452.4194,372.6624 L462.4758,372.7659 L472.5323,372.2057 L482.5887,372.5939 L492.6452,371.4477 L502.7016,372.5901 L512.7581,372.9419 L522.8145,372.8036 L532.871,373.0283 L542.9274,371.5668 L552.9839,371.3414 L563.0403,371.3824 L573.0968,372.1324 L583.1532,371.9489 L593.2097,373.1195 L603.2661,371.978 L613.3226,371.7535 L623.379,372.5153 L633.4355,371.3218 L643.4919,371.5188 L653.5484,373.0762 L663.6048,372.7918 L673.6613,373.1903 L683.7177,371.7819 L693.7742,372.6365 L703.8306,372.9982 L713.8871,371.5811 L723.9435,372.0831 L734,372.2109 " fill="none" style="stroke:#383838;stroke-width:1.0;"/><text fill="#000000" font-family="FG Virgil" font-size="13" lengthAdjust="spacing" textLength="275" x="117.5" y="367.145">aa  = create(criticidade, prio, data, estado)</text><!--MD5=[e34dc55eb484b1dfbe6e3b0f7b98412e]
@startuml
title SD - Desenvolver a componente representativa de uma tarefa automática


'http://plantuml.com/skinparam.html
skinparam handwritten true
skinparam monochrome true
skinparam packageStyle rect
skinparam defaultFontName FG Virgil
skinparam shadowing false


control EspecificarServicoController as Controller <<application>>
participant "Criticidade" as Criticidade <<domain>>
participant "Prioridade" as Prioridade <<domain>>
participant "Data" as DataLimite <<domain>>
participant "EstadoAtividade" as EstadoAtividade <<domain>>
participant "AtividadeAutomatica" as AtividadeAutomatica <<domain>>

Controller -> Criticidade: criticidade  = create()
    activate Criticidade
    deactivate Criticidade
Controller -> Prioridade: prio  = create()
    activate Prioridade
    deactivate Prioridade
Controller -> DataLimite: data  = create()
    activate DataLimite
    deactivate DataLimite
Controller -> EstadoAtividade: estado  = create()
    activate EstadoAtividade
    deactivate EstadoAtividade
Controller -> AtividadeAutomatica: aa  = create(criticidade, prio, data, estado)
    activate AtividadeAutomatica
    deactivate AtividadeAutomatica
deactivate Controller
@enduml

@startuml
title SD - Desenvolver a componente representativa de uma tarefa automática


skinparam handwritten true
skinparam monochrome true
skinparam packageStyle rect
skinparam defaultFontName FG Virgil
skinparam shadowing false


control EspecificarServicoController as Controller <<application>>
participant "Criticidade" as Criticidade <<domain>>
participant "Prioridade" as Prioridade <<domain>>
participant "Data" as DataLimite <<domain>>
participant "EstadoAtividade" as EstadoAtividade <<domain>>
participant "AtividadeAutomatica" as AtividadeAutomatica <<domain>>

Controller -> Criticidade: criticidade  = create()
    activate Criticidade
    deactivate Criticidade
Controller -> Prioridade: prio  = create()
    activate Prioridade
    deactivate Prioridade
Controller -> DataLimite: data  = create()
    activate DataLimite
    deactivate DataLimite
Controller -> EstadoAtividade: estado  = create()
    activate EstadoAtividade
    deactivate EstadoAtividade
Controller -> AtividadeAutomatica: aa  = create(criticidade, prio, data, estado)
    activate AtividadeAutomatica
    deactivate AtividadeAutomatica
deactivate Controller
@enduml

PlantUML version 1.2021.7beta2(Unknown compile time)
(GPL source distribution)
Java Runtime: Java(TM) SE Runtime Environment
JVM: Java HotSpot(TM) 64-Bit Server VM
Default Encoding: UTF-8
Language: en
Country: US
--></g></svg>