<?xml version="1.0" encoding="UTF-8" standalone="no"?><svg xmlns="http://www.w3.org/2000/svg" xmlns:xlink="http://www.w3.org/1999/xlink" contentScriptType="application/ecmascript" contentStyleType="text/css" height="360px" preserveAspectRatio="none" style="width:387px;height:360px;background:#FFFFFF;" version="1.1" viewBox="0 0 387 360" width="387px" zoomAndPan="magnify"><defs/><g><!--MD5=[767091b43c211c8175e73860401cc2d6]
class ConsultarReivindicarTarefaUI--><polygon fill="#F8F8F8" points="109,7,109,7.2102,119.15,6.5857,129.3,7.1933,139.45,7.3997,149.6,6.2866,159.75,6.9223,169.9,6.5735,180.05,6.6165,190.2,6.9318,200.35,6.3086,210.5,7.5536,220.65,6.3697,230.8,6.8022,240.95,7.4319,251.1,6.9142,261.25,7.0682,271.4,6.9681,281.55,7.1785,291.7,7.2391,301.85,7.5857,312,7,312.6711,7,312.6793,17.7875,312.2546,28.575,312.4636,39.3625,312.7022,50.15,312,60.9375,312,60.2163,301.85,61.616,291.7,60.641,281.55,61.4713,271.4,60.4425,261.25,60.869,251.1,61.6791,240.95,60.8888,230.8,61.0428,220.65,61.2761,210.5,61.3537,200.35,60.9336,190.2,61.2247,180.05,60.3651,169.9,61.2219,159.75,61.4857,149.6,61.382,139.45,61.5505,129.3,60.4544,119.15,60.2853,109,60.9375,108.3786,60.9375,108.9411,50.15,108.8035,39.3625,109.6814,28.575,108.8253,17.7875,109,7" style="stroke:#383838;stroke-width:1.5;"/><polygon fill="#C2C2C2" points="135.0608,28.6444,133.4484,30.8475,131.5412,34.0745,128.8136,36.2491,125.9474,37.4384,123.662,37.5416,120.7247,36.0543,117.9532,35.0827,115.8495,33.1099,114.7461,30.8515,114.0917,29.0533,113.4506,26.7045,112.41,24.6832,113.2096,22.7098,113.9102,20.548,116.5393,18.8382,118.389,16.6198,120.6784,15.8832,123.4001,15.2488,126.8904,15.6257,128.8021,16.5273,131.0247,16.9359,133.7272,19.7047,134.6693,22.6277,135.0786,24.6221,134.615,27.9086" style="stroke:#383838;stroke-width:1.0;"/><path d="M126.3438,21.6406 C125.4063,21.2031 124.8125,21.0625 123.9375,21.0625 C121.3125,21.0625 119.3125,23.1406 119.3125,25.8594 L119.3125,26.9844 C119.3125,29.5625 121.4219,31.4531 124.3125,31.4531 C125.5313,31.4531 126.6875,31.1563 127.4375,30.6094 C128.0156,30.2031 128.3438,29.75 128.3438,29.3594 C128.3438,28.9063 127.9531,28.5156 127.4844,28.5156 C127.2656,28.5156 127.0625,28.5938 126.875,28.7813 C126.4219,29.2656 126.4219,29.2656 126.2344,29.3594 C125.8125,29.625 125.125,29.75 124.3594,29.75 C122.3125,29.75 121.0156,28.6563 121.0156,26.9531 L121.0156,25.8594 C121.0156,24.0781 122.2656,22.7656 124,22.7656 C124.5781,22.7656 125.1875,22.9219 125.6563,23.1719 C126.1406,23.4531 126.3125,23.6719 126.4063,24.0781 C126.4688,24.4844 126.5,24.6094 126.6406,24.7344 C126.7813,24.875 127.0156,24.9844 127.2344,24.9844 C127.5,24.9844 127.7656,24.8438 127.9375,24.625 C128.0469,24.4688 128.0781,24.2813 128.0781,23.8594 L128.0781,22.4375 C128.0781,22 128.0625,21.875 127.9688,21.7188 C127.8125,21.4531 127.5313,21.3125 127.2344,21.3125 C126.9375,21.3125 126.7344,21.4063 126.5156,21.7188 L126.3438,21.6406 Z " fill="#000000"/><text fill="#000000" font-family="FG Virgil" font-size="12" font-style="italic" lengthAdjust="spacing" textLength="90" x="178.5" y="23.1387">«presentation»</text><text fill="#000000" font-family="FG Virgil" font-size="12" lengthAdjust="spacing" textLength="171" x="138" y="37.1074">ConsultarReivindicarTarefaUI</text><path d="M110,44.9375 L110,45.2177 L120.05,44.3851 L130.1,45.1952 L140.15,45.4704 L150.2,43.9863 L160.25,44.8339 L170.3,44.3688 L180.35,44.4262 L190.4,44.8466 L200.45,44.0157 L210.5,45.6757 L220.55,44.0971 L230.6,44.6738 L240.65,45.5134 L250.7,44.8231 L260.75,45.0285 L270.8,44.8949 L280.85,45.1755 L290.9,45.2563 L300.95,45.7184 L311,44.9375 " fill="#F8F8F8" style="stroke:#383838;stroke-width:1.5;"/><path d="M110,52.9375 L110,53.2177 L120.05,52.3851 L130.1,53.1952 L140.15,53.4704 L150.2,51.9863 L160.25,52.8339 L170.3,52.3688 L180.35,52.4262 L190.4,52.8466 L200.45,52.0157 L210.5,53.6757 L220.55,52.0971 L230.6,52.6738 L240.65,53.5134 L250.7,52.8231 L260.75,53.0285 L270.8,52.8949 L280.85,53.1755 L290.9,53.2563 L300.95,53.7184 L311,52.9375 " fill="#F8F8F8" style="stroke:#383838;stroke-width:1.5;"/><!--MD5=[88ccee2f5c3306b2c442c84a53a345e8]
class ConsultarReivindicarTarefaController--><polygon fill="#F8F8F8" points="85.5,121,85.5,121.2102,95.5,120.5857,105.5,121.1933,115.5,121.3997,125.5,120.2866,135.5,120.9223,145.5,120.5735,155.5,120.6165,165.5,120.9318,175.5,120.3086,185.5,121.5536,195.5,120.3697,205.5,120.8022,215.5,121.4319,225.5,120.9142,235.5,121.0682,245.5,120.9681,255.5,121.1785,265.5,121.2391,275.5,121.5857,285.5,121.6711,295.5,121.6793,305.5,121.2546,315.5,121.4636,325.5,121.7022,335.5,121,334.7788,121,336.1785,130.9434,335.2035,140.8867,336.0338,150.8301,335.005,160.7734,335.4315,170.7168,336.2416,180.6602,335.4513,190.6035,335.5,200.5469,335.5,200.6522,325.5,200.8855,315.5,200.9631,305.5,200.543,295.5,200.8341,285.5,199.9745,275.5,200.8313,265.5,201.0951,255.5,200.9914,245.5,201.1599,235.5,200.0638,225.5,199.8947,215.5,199.9255,205.5,200.488,195.5,200.3503,185.5,201.2283,175.5,200.3722,165.5,200.2038,155.5,200.7751,145.5,199.88,135.5,200.0277,125.5,201.1958,115.5,200.9825,105.5,201.2814,95.5,200.2251,85.5,200.5469,85.8192,200.5469,86.0904,190.6035,85.0276,180.6602,85.4041,170.7168,85.626,160.7734,86.1518,150.8301,85.4958,140.8867,85.9626,130.9434,85.5,121" style="stroke:#383838;stroke-width:1.5;"/><polygon fill="#C2C2C2" points="111.5608,142.6444,109.9484,144.8475,108.0412,148.0745,105.3136,150.2491,102.4474,151.4384,100.162,151.5416,97.2247,150.0543,94.4532,149.0827,92.3495,147.1099,91.2461,144.8515,90.5917,143.0533,89.9506,140.7045,88.91,138.6832,89.7096,136.7098,90.4102,134.548,93.0393,132.8382,94.889,130.6198,97.1784,129.8832,99.9001,129.2488,103.3904,129.6257,105.3021,130.5273,107.5247,130.9359,110.2272,133.7047,111.1693,136.6277,111.5786,138.6221,111.115,141.9086" style="stroke:#383838;stroke-width:1.0;"/><path d="M102.8438,135.6406 C101.9063,135.2031 101.3125,135.0625 100.4375,135.0625 C97.8125,135.0625 95.8125,137.1406 95.8125,139.8594 L95.8125,140.9844 C95.8125,143.5625 97.9219,145.4531 100.8125,145.4531 C102.0313,145.4531 103.1875,145.1563 103.9375,144.6094 C104.5156,144.2031 104.8438,143.75 104.8438,143.3594 C104.8438,142.9063 104.4531,142.5156 103.9844,142.5156 C103.7656,142.5156 103.5625,142.5938 103.375,142.7813 C102.9219,143.2656 102.9219,143.2656 102.7344,143.3594 C102.3125,143.625 101.625,143.75 100.8594,143.75 C98.8125,143.75 97.5156,142.6563 97.5156,140.9531 L97.5156,139.8594 C97.5156,138.0781 98.7656,136.7656 100.5,136.7656 C101.0781,136.7656 101.6875,136.9219 102.1563,137.1719 C102.6406,137.4531 102.8125,137.6719 102.9063,138.0781 C102.9688,138.4844 103,138.6094 103.1406,138.7344 C103.2813,138.875 103.5156,138.9844 103.7344,138.9844 C104,138.9844 104.2656,138.8438 104.4375,138.625 C104.5469,138.4688 104.5781,138.2813 104.5781,137.8594 L104.5781,136.4375 C104.5781,136 104.5625,135.875 104.4688,135.7188 C104.3125,135.4531 104.0313,135.3125 103.7344,135.3125 C103.4375,135.3125 103.2344,135.4063 103.0156,135.7188 L102.8438,135.6406 Z " fill="#000000"/><text fill="#000000" font-family="FG Virgil" font-size="12" font-style="italic" lengthAdjust="spacing" textLength="80" x="183.5" y="137.1387">«application»</text><text fill="#000000" font-family="FG Virgil" font-size="12" lengthAdjust="spacing" textLength="218" x="114.5" y="151.1074">ConsultarReivindicarTarefaController</text><path d="M86.5,158.9375 L86.5,159.2177 L96.42,158.3851 L106.34,159.1952 L116.26,159.4704 L126.18,157.9863 L136.1,158.8339 L146.02,158.3688 L155.94,158.4262 L165.86,158.8466 L175.78,158.0157 L185.7,159.6757 L195.62,158.0971 L205.54,158.6738 L215.46,159.5134 L225.38,158.8231 L235.3,159.0285 L245.22,158.8949 L255.14,159.1755 L265.06,159.2563 L274.98,159.7184 L284.9,159.8322 L294.82,159.8432 L304.74,159.277 L314.66,159.5556 L324.58,159.8738 L334.5,158.9375 " fill="#F8F8F8" style="stroke:#383838;stroke-width:1.5;"/><path d="M86.5,166.9375 L86.5,167.2177 L96.42,166.3851 L106.34,167.1952 L116.26,167.4704 L126.18,165.9863 L136.1,166.8339 L146.02,166.3688 L155.94,166.4262 L165.86,166.8466 L175.78,166.0157 L185.7,167.6757 L195.62,166.0971 L205.54,166.6738 L215.46,167.5134 L225.38,166.8231 L235.3,167.0285 L245.22,166.8949 L255.14,167.1755 L265.06,167.2563 L274.98,167.7184 L284.9,167.8322 L294.82,167.8432 L304.74,167.277 L314.66,167.5556 L324.58,167.8738 L334.5,166.9375 " fill="#F8F8F8" style="stroke:#383838;stroke-width:1.5;"/><text fill="#000000" font-family="FG Virgil" font-size="11" lengthAdjust="spacing" textLength="157" x="91.5" y="181.1479">getListaTarefasPendentes()</text><text fill="#000000" font-family="FG Virgil" font-size="11" lengthAdjust="spacing" textLength="123" x="91.5" y="193.9526">adicionaColaborador()</text><!--MD5=[51865f8cbfe0824679c335d6e733f291]
class ServicoRepository--><polygon fill="#F8F8F8" points="7,261,7,261.2102,17.15,260.5857,27.3,261.1933,37.45,261.3997,47.6,260.2866,57.75,260.9223,67.9,260.5735,78.05,260.6165,88.2,260.9318,98.35,260.3086,108.5,261.5536,118.65,260.3697,128.8,260.8022,138.95,261.4319,149.1,260.9142,159.25,261.0682,169.4,260.9681,179.55,261.1785,189.7,261.2391,199.85,261.5857,210,261,210.6711,261,210.6793,271.2613,210.2546,281.5226,210.4636,291.7839,210.7022,302.0451,209.2788,312.3064,210.6785,322.5677,209.7035,332.829,210.5338,343.0903,210,353.3516,210,352.8565,199.85,353.2831,189.7,354.0932,179.55,353.3028,169.4,353.4569,159.25,353.6902,149.1,353.7678,138.95,353.3477,128.8,353.6388,118.65,352.7791,108.5,353.6359,98.35,353.8998,88.2,353.7961,78.05,353.9646,67.9,352.8685,57.75,352.6994,47.6,352.7302,37.45,353.2927,27.3,353.155,17.15,354.033,7,353.3516,6.8253,353.3516,6.6569,343.0903,7.2283,332.829,6.3332,322.5677,6.4809,312.3064,7.649,302.0451,7.4357,291.7839,7.7345,281.5226,6.6782,271.2613,7,261" style="stroke:#383838;stroke-width:1.5;"/><polygon fill="#C2C2C2" points="60.0608,282.6444,58.4484,284.8475,56.5412,288.0745,53.8136,290.2491,50.9474,291.4384,48.662,291.5416,45.7247,290.0543,42.9532,289.0827,40.8495,287.1099,39.7461,284.8515,39.0917,283.0533,38.4506,280.7045,37.41,278.6832,38.2096,276.7098,38.9102,274.548,41.5393,272.8382,43.389,270.6198,45.6784,269.8832,48.4001,269.2488,51.8904,269.6257,53.8021,270.5273,56.0247,270.9359,58.7272,273.7047,59.6693,276.6277,60.0786,278.6221,59.615,281.9086" style="stroke:#383838;stroke-width:1.0;"/><path d="M51.3438,275.6406 C50.4063,275.2031 49.8125,275.0625 48.9375,275.0625 C46.3125,275.0625 44.3125,277.1406 44.3125,279.8594 L44.3125,280.9844 C44.3125,283.5625 46.4219,285.4531 49.3125,285.4531 C50.5313,285.4531 51.6875,285.1563 52.4375,284.6094 C53.0156,284.2031 53.3438,283.75 53.3438,283.3594 C53.3438,282.9063 52.9531,282.5156 52.4844,282.5156 C52.2656,282.5156 52.0625,282.5938 51.875,282.7813 C51.4219,283.2656 51.4219,283.2656 51.2344,283.3594 C50.8125,283.625 50.125,283.75 49.3594,283.75 C47.3125,283.75 46.0156,282.6563 46.0156,280.9531 L46.0156,279.8594 C46.0156,278.0781 47.2656,276.7656 49,276.7656 C49.5781,276.7656 50.1875,276.9219 50.6563,277.1719 C51.1406,277.4531 51.3125,277.6719 51.4063,278.0781 C51.4688,278.4844 51.5,278.6094 51.6406,278.7344 C51.7813,278.875 52.0156,278.9844 52.2344,278.9844 C52.5,278.9844 52.7656,278.8438 52.9375,278.625 C53.0469,278.4688 53.0781,278.2813 53.0781,277.8594 L53.0781,276.4375 C53.0781,276 53.0625,275.875 52.9688,275.7188 C52.8125,275.4531 52.5313,275.3125 52.2344,275.3125 C51.9375,275.3125 51.7344,275.4063 51.5156,275.7188 L51.3438,275.6406 Z " fill="#000000"/><text fill="#000000" font-family="FG Virgil" font-size="12" font-style="italic" lengthAdjust="spacing" textLength="74" x="87.5" y="277.1387">«repository»</text><text fill="#000000" font-family="FG Virgil" font-size="12" lengthAdjust="spacing" textLength="111" x="69" y="291.1074">ServicoRepository</text><path d="M8,298.9375 L8,299.2177 L18.05,298.3851 L28.1,299.1952 L38.15,299.4704 L48.2,297.9863 L58.25,298.8339 L68.3,298.3688 L78.35,298.4262 L88.4,298.8466 L98.45,298.0157 L108.5,299.6757 L118.55,298.0971 L128.6,298.6738 L138.65,299.5134 L148.7,298.8231 L158.75,299.0285 L168.8,298.8949 L178.85,299.1755 L188.9,299.2563 L198.95,299.7184 L209,298.9375 " fill="#F8F8F8" style="stroke:#383838;stroke-width:1.5;"/><path d="M8,306.9375 L8,307.2177 L18.05,306.3851 L28.1,307.1952 L38.15,307.4704 L48.2,305.9863 L58.25,306.8339 L68.3,306.3688 L78.35,306.4262 L88.4,306.8466 L98.45,306.0157 L108.5,307.6757 L118.55,306.0971 L128.6,306.6738 L138.65,307.5134 L148.7,306.8231 L158.75,307.0285 L168.8,306.8949 L178.85,307.1755 L188.9,307.2563 L198.95,307.7184 L209,306.9375 " fill="#F8F8F8" style="stroke:#383838;stroke-width:1.5;"/><text fill="#000000" font-family="FG Virgil" font-size="11" lengthAdjust="spacing" textLength="157" x="13" y="321.1479">getListaTarefasPendentes()</text><text fill="#000000" font-family="FG Virgil" font-size="11" lengthAdjust="spacing" textLength="191" x="13" y="333.9526">ser = getServicoByTarefa(tarefa)</text><text fill="#000000" font-family="FG Virgil" font-size="11" lengthAdjust="spacing" textLength="54" x="13" y="346.7573">save(ser)</text><!--MD5=[faf4d635eea35b16677487bac6ad9bf5]
class Servico--><polygon fill="#F8F8F8" points="245,273.5,245,273.7102,254.6429,273.0857,264.2857,273.6933,273.9286,273.8997,283.5714,272.7866,293.2143,273.4223,302.8571,273.0735,312.5,273.1165,322.1429,273.4318,331.7857,272.8086,341.4286,274.0536,351.0714,272.8697,360.7143,273.3022,370.3571,273.9319,380,273.5,379.9142,273.5,380.0682,283.0346,379.9681,292.5692,380.1785,302.1038,380.2391,311.6384,380.5857,321.173,380.6711,330.7076,380,340.2422,380,340.9214,370.3571,340.4968,360.7143,340.7058,351.0714,340.9444,341.4286,339.521,331.7857,340.9207,322.1429,339.9457,312.5,340.776,302.8571,339.7472,293.2143,340.1737,283.5714,340.9838,273.9286,340.1935,264.2857,340.3475,254.6429,340.5808,245,340.2422,245.4162,340.2422,244.9961,330.7076,245.2872,321.173,244.4276,311.6384,245.2844,302.1038,245.5482,292.5692,245.4445,283.0346,245,273.5" style="stroke:#383838;stroke-width:1.5;"/><polygon fill="#C2C2C2" points="292.6608,295.1444,291.0484,297.3475,289.1412,300.5745,286.4136,302.7491,283.5474,303.9384,281.262,304.0416,278.3247,302.5543,275.5532,301.5827,273.4495,299.6099,272.3461,297.3515,271.6917,295.5533,271.0506,293.2045,270.01,291.1832,270.8096,289.2098,271.5102,287.048,274.1393,285.3382,275.989,283.1198,278.2784,282.3832,281.0001,281.7488,284.4904,282.1257,286.4021,283.0273,288.6247,283.4359,291.3272,286.2047,292.2693,289.1277,292.6786,291.1221,292.215,294.4086" style="stroke:#383838;stroke-width:1.0;"/><path d="M283.9438,288.1406 C283.0063,287.7031 282.4125,287.5625 281.5375,287.5625 C278.9125,287.5625 276.9125,289.6406 276.9125,292.3594 L276.9125,293.4844 C276.9125,296.0625 279.0219,297.9531 281.9125,297.9531 C283.1313,297.9531 284.2875,297.6563 285.0375,297.1094 C285.6156,296.7031 285.9438,296.25 285.9438,295.8594 C285.9438,295.4063 285.5531,295.0156 285.0844,295.0156 C284.8656,295.0156 284.6625,295.0938 284.475,295.2813 C284.0219,295.7656 284.0219,295.7656 283.8344,295.8594 C283.4125,296.125 282.725,296.25 281.9594,296.25 C279.9125,296.25 278.6156,295.1563 278.6156,293.4531 L278.6156,292.3594 C278.6156,290.5781 279.8656,289.2656 281.6,289.2656 C282.1781,289.2656 282.7875,289.4219 283.2563,289.6719 C283.7406,289.9531 283.9125,290.1719 284.0063,290.5781 C284.0688,290.9844 284.1,291.1094 284.2406,291.2344 C284.3813,291.375 284.6156,291.4844 284.8344,291.4844 C285.1,291.4844 285.3656,291.3438 285.5375,291.125 C285.6469,290.9688 285.6781,290.7813 285.6781,290.3594 L285.6781,288.9375 C285.6781,288.5 285.6625,288.375 285.5688,288.2188 C285.4125,287.9531 285.1313,287.8125 284.8344,287.8125 C284.5375,287.8125 284.3344,287.9063 284.1156,288.2188 L283.9438,288.1406 Z " fill="#000000"/><text fill="#000000" font-family="FG Virgil" font-size="12" font-style="italic" lengthAdjust="spacing" textLength="59" x="298.4" y="289.6387">«domain»</text><text fill="#000000" font-family="FG Virgil" font-size="12" lengthAdjust="spacing" textLength="46" x="304.9" y="303.6074">Servico</text><path d="M246,311.4375 L246,311.7177 L256.2308,310.8851 L266.4615,311.6952 L276.6923,311.9704 L286.9231,310.4863 L297.1538,311.3339 L307.3846,310.8688 L317.6154,310.9262 L327.8462,311.3466 L338.0769,310.5157 L348.3077,312.1757 L358.5385,310.5971 L368.7692,311.1738 L379,311.4375 " fill="#F8F8F8" style="stroke:#383838;stroke-width:1.5;"/><path d="M246,319.4375 L246,319.7177 L256.2308,318.8851 L266.4615,319.6952 L276.6923,319.9704 L286.9231,318.4863 L297.1538,319.3339 L307.3846,318.8688 L317.6154,318.9262 L327.8462,319.3466 L338.0769,318.5157 L348.3077,320.1757 L358.5385,318.5971 L368.7692,319.1738 L379,319.4375 " fill="#F8F8F8" style="stroke:#383838;stroke-width:1.5;"/><text fill="#000000" font-family="FG Virgil" font-size="11" lengthAdjust="spacing" textLength="123" x="251" y="333.6479">adicionaColaborador()</text><!--MD5=[771c90288469fdaf1cc689c82d15d952]
link ConsultarReivindicarTarefaUI to ConsultarReivindicarTarefaController--><path d="M210.5,61.204 L210.7802,61.204 L209.9476,72.056 L210.7577,82.908 L211.0329,93.76 L209.5488,104.612 L210.5,115.464 " fill="none" style="stroke:#383838;stroke-width:1.0;"/><polygon fill="#383838" points="210.5,120.524,210.564,120.5525,211.1738,118.6679,212.1589,116.9502,213.0217,115.1781,213.4827,113.2274,214.5,111.524,214.4817,111.5057,213.5995,112.2235,212.8096,113.0336,212.0839,113.9079,211.137,114.561,210.5,115.524,210.6305,115.6545,209.5514,114.5754,208.8534,113.8774,208.2018,113.2258,207.2798,112.3038,206.5,111.524,206.5208,111.5332,207.2903,113.3197,208.1544,115.1482,208.9728,116.9564,209.8784,118.8033,210.5,120.524" style="stroke:#383838;stroke-width:1.0;"/><!--MD5=[3daee416aabd43676baf795bb86d7815]
link ConsultarReivindicarTarefaController to ServicoRepository--><path d="M182.628,201.349 L182.8567,201.511 L176.6143,208.8831 L171.7126,217.2047 L166.3743,225.2172 L159.6004,232.2127 L154.7292,240.556 L148.7868,248.1406 L143.688,256.3227 " fill="none" style="stroke:#383838;stroke-width:1.0;"/><polygon fill="#383838" points="140.485,260.8449,140.5208,260.9051,142.1077,259.7198,143.9045,258.8875,145.6329,257.9403,147.1366,256.6149,148.9514,255.8129,148.947,255.7874,147.8122,255.8632,146.6994,256.0677,145.6018,256.3617,144.4516,256.3473,143.3752,256.7648,143.5571,256.7959,142.9777,255.6143,142.9294,254.5233,142.946,253.4434,142.5855,252.2991,142.4233,251.1887,142.4456,251.1931,142.0252,253.1178,141.7063,255.0629,141.3385,256.9981,141.0641,258.9521,140.485,260.8449" style="stroke:#383838;stroke-width:1.0;"/><!--MD5=[b9d96cf8ace2254ced57e36ee26f6212]
link ConsultarReivindicarTarefaController to Servico--><path d="M238.372,201.349 L238.6007,201.511 L243.8846,209.4485 L250.5091,218.3356 L256.697,226.9135 L261.4493,234.4745 L268.1043,243.3832 L273.6882,251.5333 L279.6984,259.9852 L286.079,268.6996 " fill="none" style="stroke:#383838;stroke-width:1.0;"/><polygon fill="#383838" points="289.147,273.0312,289.2157,273.045,288.6239,271.0728,288.4349,269.1814,288.1147,267.2637,287.3632,265.2594,287.2087,263.375,287.1832,263.3706,286.8782,264.4663,286.7019,265.5839,286.6152,266.7168,286.22,267.7971,286.2568,268.9511,286.2879,269.1331,285.1062,268.5537,284.0152,268.5054,282.9353,268.5219,281.7911,268.1614,280.6806,267.9992,280.6923,268.0188,282.3685,268.9965,284.0976,270.0632,285.8012,271.0869,287.5535,272.1926,289.147,273.0312" style="stroke:#383838;stroke-width:1.0;"/><!--MD5=[60c965ff62b3f4e62dd14e84ceb2dc2b]
@startuml
'http://plantuml.com/skinparam.html
skinparam handwritten true
skinparam monochrome true
skinparam packageStyle rect
skinparam defaultFontName FG Virgil
skinparam shadowing false

class ConsultarReivindicarTarefaUI <<presentation>>
class ConsultarReivindicarTarefaController <<application>>
class "ServicoRepository" as ServicoRepository <<repository>>
class "Servico" as Servico <<domain>>

ConsultarReivindicarTarefaUI - -> ConsultarReivindicarTarefaController
ConsultarReivindicarTarefaController - -> ServicoRepository
ConsultarReivindicarTarefaController - -> Servico

ConsultarReivindicarTarefaController : getListaTarefasPendentes()
ConsultarReivindicarTarefaController : adicionaColaborador()
ServicoRepository : getListaTarefasPendentes()
ServicoRepository : ser = getServicoByTarefa(tarefa)
ServicoRepository : save(ser)
Servico : adicionaColaborador()
@enduml

@startuml
skinparam handwritten true
skinparam monochrome true
skinparam packageStyle rect
skinparam defaultFontName FG Virgil
skinparam shadowing false

class ConsultarReivindicarTarefaUI <<presentation>>
class ConsultarReivindicarTarefaController <<application>>
class "ServicoRepository" as ServicoRepository <<repository>>
class "Servico" as Servico <<domain>>

ConsultarReivindicarTarefaUI - -> ConsultarReivindicarTarefaController
ConsultarReivindicarTarefaController - -> ServicoRepository
ConsultarReivindicarTarefaController - -> Servico

ConsultarReivindicarTarefaController : getListaTarefasPendentes()
ConsultarReivindicarTarefaController : adicionaColaborador()
ServicoRepository : getListaTarefasPendentes()
ServicoRepository : ser = getServicoByTarefa(tarefa)
ServicoRepository : save(ser)
Servico : adicionaColaborador()
@enduml

PlantUML version 1.2021.7beta2(Unknown compile time)
(GPL source distribution)
Java Runtime: Java(TM) SE Runtime Environment
JVM: Java HotSpot(TM) 64-Bit Server VM
Default Encoding: UTF-8
Language: en
Country: US
--></g></svg>