<?xml version="1.0" encoding="UTF-8" standalone="no"?><svg xmlns="http://www.w3.org/2000/svg" xmlns:xlink="http://www.w3.org/1999/xlink" contentScriptType="application/ecmascript" contentStyleType="text/css" height="462px" preserveAspectRatio="none" style="width:669px;height:462px;background:#FFFFFF;" version="1.1" viewBox="0 0 669 462" width="669px" zoomAndPan="magnify"><defs/><g><!--MD5=[767091b43c211c8175e73860401cc2d6]
class ConsultarReivindicarTarefaUI--><polygon fill="#F8F8F8" points="226,7,226,7.2102,236.15,6.5857,246.3,7.1933,256.45,7.3997,266.6,6.2866,276.75,6.9223,286.9,6.5735,297.05,6.6165,307.2,6.9318,317.35,6.3086,327.5,7.5536,337.65,6.3697,347.8,6.8022,357.95,7.4319,368.1,6.9142,378.25,7.0682,388.4,6.9681,398.55,7.1785,408.7,7.2391,418.85,7.5857,429,7,429.6711,7,429.6793,16.5346,429.2546,26.0692,429.4636,35.6038,429.7022,45.1384,428.2788,54.673,429.6785,64.2076,429,73.7422,429,73.4457,418.85,74.276,408.7,73.2472,398.55,73.6737,388.4,74.4838,378.25,73.6935,368.1,73.8475,357.95,74.0808,347.8,74.1584,337.65,73.7383,327.5,74.0294,317.35,73.1698,307.2,74.0266,297.05,74.2904,286.9,74.1867,276.75,74.3552,266.6,73.2591,256.45,73.09,246.3,73.1208,236.15,73.6833,226,73.7422,225.8035,73.7422,226.6814,64.2076,225.8253,54.673,225.6569,45.1384,226.2283,35.6038,225.3332,26.0692,225.4809,16.5346,226,7" style="stroke:#383838;stroke-width:1.5;"/><polygon fill="#C2C2C2" points="252.0608,28.6444,250.4484,30.8475,248.5412,34.0745,245.8136,36.2491,242.9474,37.4384,240.662,37.5416,237.7247,36.0543,234.9532,35.0827,232.8495,33.1099,231.7461,30.8515,231.0917,29.0533,230.4506,26.7045,229.41,24.6832,230.2096,22.7098,230.9102,20.548,233.5393,18.8382,235.389,16.6198,237.6784,15.8832,240.4001,15.2488,243.8904,15.6257,245.8021,16.5273,248.0247,16.9359,250.7272,19.7047,251.6693,22.6277,252.0786,24.6221,251.615,27.9086" style="stroke:#383838;stroke-width:1.0;"/><path d="M243.3438,21.6406 C242.4063,21.2031 241.8125,21.0625 240.9375,21.0625 C238.3125,21.0625 236.3125,23.1406 236.3125,25.8594 L236.3125,26.9844 C236.3125,29.5625 238.4219,31.4531 241.3125,31.4531 C242.5313,31.4531 243.6875,31.1563 244.4375,30.6094 C245.0156,30.2031 245.3438,29.75 245.3438,29.3594 C245.3438,28.9063 244.9531,28.5156 244.4844,28.5156 C244.2656,28.5156 244.0625,28.5938 243.875,28.7813 C243.4219,29.2656 243.4219,29.2656 243.2344,29.3594 C242.8125,29.625 242.125,29.75 241.3594,29.75 C239.3125,29.75 238.0156,28.6563 238.0156,26.9531 L238.0156,25.8594 C238.0156,24.0781 239.2656,22.7656 241,22.7656 C241.5781,22.7656 242.1875,22.9219 242.6563,23.1719 C243.1406,23.4531 243.3125,23.6719 243.4063,24.0781 C243.4688,24.4844 243.5,24.6094 243.6406,24.7344 C243.7813,24.875 244.0156,24.9844 244.2344,24.9844 C244.5,24.9844 244.7656,24.8438 244.9375,24.625 C245.0469,24.4688 245.0781,24.2813 245.0781,23.8594 L245.0781,22.4375 C245.0781,22 245.0625,21.875 244.9688,21.7188 C244.8125,21.4531 244.5313,21.3125 244.2344,21.3125 C243.9375,21.3125 243.7344,21.4063 243.5156,21.7188 L243.3438,21.6406 Z " fill="#000000"/><text fill="#000000" font-family="FG Virgil" font-size="12" font-style="italic" lengthAdjust="spacing" textLength="90" x="295.5" y="23.1387">«presentation»</text><text fill="#000000" font-family="FG Virgil" font-size="12" lengthAdjust="spacing" textLength="171" x="255" y="37.1074">ConsultarReivindicarTarefaUI</text><path d="M227,44.9375 L227,45.2177 L237.05,44.3851 L247.1,45.1952 L257.15,45.4704 L267.2,43.9863 L277.25,44.8339 L287.3,44.3688 L297.35,44.4262 L307.4,44.8466 L317.45,44.0157 L327.5,45.6757 L337.55,44.0971 L347.6,44.6738 L357.65,45.5134 L367.7,44.8231 L377.75,45.0285 L387.8,44.8949 L397.85,45.1755 L407.9,45.2563 L417.95,45.7184 L428,44.9375 " fill="#F8F8F8" style="stroke:#383838;stroke-width:1.5;"/><path d="M227,52.9375 L227,53.2177 L237.05,52.3851 L247.1,53.1952 L257.15,53.4704 L267.2,51.9863 L277.25,52.8339 L287.3,52.3688 L297.35,52.4262 L307.4,52.8466 L317.45,52.0157 L327.5,53.6757 L337.55,52.0971 L347.6,52.6738 L357.65,53.5134 L367.7,52.8231 L377.75,53.0285 L387.8,52.8949 L397.85,53.1755 L407.9,53.2563 L417.95,53.7184 L428,52.9375 " fill="#F8F8F8" style="stroke:#383838;stroke-width:1.5;"/><text fill="#000000" font-family="FG Virgil" font-size="11" lengthAdjust="spacing" textLength="53" x="232" y="67.1479">doShow()</text><!--MD5=[88ccee2f5c3306b2c442c84a53a345e8]
class ConsultarReivindicarTarefaController--><polygon fill="#F8F8F8" points="197.5,134,197.5,134.2102,207.5,133.5857,217.5,134.1933,227.5,134.3997,237.5,133.2866,247.5,133.9223,257.5,133.5735,267.5,133.6165,277.5,133.9318,287.5,133.3086,297.5,134.5536,307.5,133.3697,317.5,133.8022,327.5,134.4319,337.5,133.9142,347.5,134.0682,357.5,133.9681,367.5,134.1785,377.5,134.2391,387.5,134.5857,397.5,134.6711,407.5,134.6793,417.5,134.2546,427.5,134.4636,437.5,134.7022,447.5,133.2788,457.5,134,458.1785,134,457.2035,144.255,458.0338,154.51,457.005,164.7651,457.4315,175.0201,458.2416,185.2751,457.4513,195.5301,457.6053,205.7852,457.8386,216.0402,457.9162,226.2952,457.4961,236.5502,457.7872,246.8052,456.9276,257.0603,457.7844,267.3153,457.5,277.5703,457.5,278.1185,447.5,278.0148,437.5,278.1833,427.5,277.0872,417.5,276.9181,407.5,276.9489,397.5,277.5114,387.5,277.3738,377.5,278.2517,367.5,277.3956,357.5,277.2273,347.5,277.7986,337.5,276.9035,327.5,277.0512,317.5,278.2193,307.5,278.006,297.5,278.3048,287.5,277.2485,277.5,277.8895,267.5,278.1607,257.5,277.0979,247.5,277.4745,237.5,277.6963,227.5,278.2221,217.5,277.5661,207.5,278.0329,197.5,277.5703,196.9462,277.5703,196.8227,267.3153,198.0036,257.0603,196.7831,246.8052,198.009,236.5502,197.7066,226.2952,197.2321,216.0402,197.1462,205.7852,197.9588,195.5301,197.2007,185.2751,198.0919,175.0201,196.9473,164.7651,198.1174,154.51,197.9843,144.255,197.5,134" style="stroke:#383838;stroke-width:1.5;"/><polygon fill="#C2C2C2" points="228.0608,155.6444,226.4484,157.8475,224.5412,161.0745,221.8136,163.2491,218.9474,164.4384,216.662,164.5416,213.7247,163.0543,210.9532,162.0827,208.8495,160.1099,207.7461,157.8515,207.0917,156.0533,206.4506,153.7045,205.41,151.6832,206.2096,149.7098,206.9102,147.548,209.5393,145.8382,211.389,143.6198,213.6784,142.8832,216.4001,142.2488,219.8904,142.6257,221.8021,143.5273,224.0247,143.9359,226.7272,146.7047,227.6693,149.6277,228.0786,151.6221,227.615,154.9086" style="stroke:#383838;stroke-width:1.0;"/><path d="M219.3438,148.6406 C218.4063,148.2031 217.8125,148.0625 216.9375,148.0625 C214.3125,148.0625 212.3125,150.1406 212.3125,152.8594 L212.3125,153.9844 C212.3125,156.5625 214.4219,158.4531 217.3125,158.4531 C218.5313,158.4531 219.6875,158.1563 220.4375,157.6094 C221.0156,157.2031 221.3438,156.75 221.3438,156.3594 C221.3438,155.9063 220.9531,155.5156 220.4844,155.5156 C220.2656,155.5156 220.0625,155.5938 219.875,155.7813 C219.4219,156.2656 219.4219,156.2656 219.2344,156.3594 C218.8125,156.625 218.125,156.75 217.3594,156.75 C215.3125,156.75 214.0156,155.6563 214.0156,153.9531 L214.0156,152.8594 C214.0156,151.0781 215.2656,149.7656 217,149.7656 C217.5781,149.7656 218.1875,149.9219 218.6563,150.1719 C219.1406,150.4531 219.3125,150.6719 219.4063,151.0781 C219.4688,151.4844 219.5,151.6094 219.6406,151.7344 C219.7813,151.875 220.0156,151.9844 220.2344,151.9844 C220.5,151.9844 220.7656,151.8438 220.9375,151.625 C221.0469,151.4688 221.0781,151.2813 221.0781,150.8594 L221.0781,149.4375 C221.0781,149 221.0625,148.875 220.9688,148.7188 C220.8125,148.4531 220.5313,148.3125 220.2344,148.3125 C219.9375,148.3125 219.7344,148.4063 219.5156,148.7188 L219.3438,148.6406 Z " fill="#000000"/><text fill="#000000" font-family="FG Virgil" font-size="12" font-style="italic" lengthAdjust="spacing" textLength="80" x="301" y="150.1387">«application»</text><text fill="#000000" font-family="FG Virgil" font-size="12" lengthAdjust="spacing" textLength="218" x="232" y="164.1074">ConsultarReivindicarTarefaController</text><path d="M198.5,171.9375 L198.5,172.2177 L208.4231,171.3851 L218.3462,172.1952 L228.2692,172.4704 L238.1923,170.9863 L248.1154,171.8339 L258.0385,171.3688 L267.9615,171.4262 L277.8846,171.8466 L287.8077,171.0157 L297.7308,172.6757 L307.6538,171.0971 L317.5769,171.6738 L327.5,172.5134 L337.4231,171.8231 L347.3462,172.0285 L357.2692,171.8949 L367.1923,172.1755 L377.1154,172.2563 L387.0385,172.7184 L396.9615,172.8322 L406.8846,172.8432 L416.8077,172.277 L426.7308,172.5556 L436.6538,172.8738 L446.5769,170.9759 L456.5,171.9375 " fill="#F8F8F8" style="stroke:#383838;stroke-width:1.5;"/><path d="M198.5,179.9375 L198.5,180.2177 L208.4231,179.3851 L218.3462,180.1952 L228.2692,180.4704 L238.1923,178.9863 L248.1154,179.8339 L258.0385,179.3688 L267.9615,179.4262 L277.8846,179.8466 L287.8077,179.0157 L297.7308,180.6757 L307.6538,179.0971 L317.5769,179.6738 L327.5,180.5134 L337.4231,179.8231 L347.3462,180.0285 L357.2692,179.8949 L367.1923,180.1755 L377.1154,180.2563 L387.0385,180.7184 L396.9615,180.8322 L406.8846,180.8432 L416.8077,180.277 L426.7308,180.5556 L436.6538,180.8738 L446.5769,178.9759 L456.5,179.9375 " fill="#F8F8F8" style="stroke:#383838;stroke-width:1.5;"/><text fill="#000000" font-family="FG Virgil" font-size="11" lengthAdjust="spacing" textLength="53" x="203.5" y="194.1479">getUser()</text><text fill="#000000" font-family="FG Virgil" font-size="11" lengthAdjust="spacing" textLength="139" x="203.5" y="206.9526">tarefasPendentes(colab)</text><text fill="#000000" font-family="FG Virgil" font-size="11" lengthAdjust="spacing" textLength="171" x="203.5" y="219.7573">filtrarTarefasPendentes(colab)</text><text fill="#000000" font-family="FG Virgil" font-size="11" lengthAdjust="spacing" textLength="186" x="203.5" y="232.562">ordenarTarefasPendentes(colab)</text><text fill="#000000" font-family="FG Virgil" font-size="11" lengthAdjust="spacing" textLength="153" x="203.5" y="245.3667">getTarefaById(idAtividade)</text><text fill="#000000" font-family="FG Virgil" font-size="11" lengthAdjust="spacing" textLength="181" x="203.5" y="258.1714">getPedidoByTarefa(idAtividade)</text><text fill="#000000" font-family="FG Virgil" font-size="11" lengthAdjust="spacing" textLength="248" x="203.5" y="270.9761">adicionaColaborador(pedido, colab, manual)</text><!--MD5=[9d9dca655b7d777fd61537967bcfba5b]
class PedidoRepository--><polygon fill="#F8F8F8" points="7,338,7,338.2102,16.95,337.5857,26.9,338.1933,36.85,338.3997,46.8,337.2866,56.75,337.9223,66.7,337.5735,76.65,337.6165,86.6,337.9318,96.55,337.3086,106.5,338.5536,116.45,337.3697,126.4,337.8022,136.35,338.4319,146.3,337.9142,156.25,338.0682,166.2,337.9681,176.15,338.1785,186.1,338.2391,196.05,338.5857,206,338,206.6711,338,206.6793,347.8301,206.2546,357.6602,206.4636,367.4902,206.7022,377.3203,205.2788,387.1504,206.6785,396.9805,205.7035,406.8105,206.5338,416.6406,205.505,426.4707,205.9315,436.3008,206.7416,446.1309,206,455.9609,206,455.9122,196.05,456.0662,186.1,456.2996,176.15,456.3772,166.2,455.957,156.25,456.2482,146.3,455.3885,136.35,456.2453,126.4,456.5091,116.45,456.4055,106.5,456.574,96.55,455.4779,86.6,455.3088,76.65,455.3395,66.7,455.9021,56.75,455.7644,46.8,456.6423,36.85,455.7863,26.9,455.6179,16.95,456.1892,7,455.9609,6.3332,455.9609,6.4809,446.1309,7.649,436.3008,7.4357,426.4707,7.7345,416.6406,6.6782,406.8105,7.3192,396.9805,7.5904,387.1504,6.5276,377.3203,6.9041,367.4902,7.126,357.6602,7.6518,347.8301,7,338" style="stroke:#383838;stroke-width:1.5;"/><polygon fill="#C2C2C2" points="60.5108,359.6444,58.8984,361.8475,56.9912,365.0745,54.2636,367.2491,51.3974,368.4384,49.112,368.5416,46.1747,367.0543,43.4032,366.0827,41.2995,364.1099,40.1961,361.8515,39.5417,360.0533,38.9006,357.7045,37.86,355.6832,38.6596,353.7098,39.3602,351.548,41.9893,349.8382,43.839,347.6198,46.1284,346.8832,48.8501,346.2488,52.3404,346.6257,54.2521,347.5273,56.4747,347.9359,59.1772,350.7047,60.1193,353.6277,60.5286,355.6221,60.065,358.9086" style="stroke:#383838;stroke-width:1.0;"/><path d="M51.7938,352.6406 C50.8563,352.2031 50.2625,352.0625 49.3875,352.0625 C46.7625,352.0625 44.7625,354.1406 44.7625,356.8594 L44.7625,357.9844 C44.7625,360.5625 46.8719,362.4531 49.7625,362.4531 C50.9813,362.4531 52.1375,362.1563 52.8875,361.6094 C53.4656,361.2031 53.7938,360.75 53.7938,360.3594 C53.7938,359.9063 53.4031,359.5156 52.9344,359.5156 C52.7156,359.5156 52.5125,359.5938 52.325,359.7813 C51.8719,360.2656 51.8719,360.2656 51.6844,360.3594 C51.2625,360.625 50.575,360.75 49.8094,360.75 C47.7625,360.75 46.4656,359.6563 46.4656,357.9531 L46.4656,356.8594 C46.4656,355.0781 47.7156,353.7656 49.45,353.7656 C50.0281,353.7656 50.6375,353.9219 51.1063,354.1719 C51.5906,354.4531 51.7625,354.6719 51.8563,355.0781 C51.9188,355.4844 51.95,355.6094 52.0906,355.7344 C52.2313,355.875 52.4656,355.9844 52.6844,355.9844 C52.95,355.9844 53.2156,355.8438 53.3875,355.625 C53.4969,355.4688 53.5281,355.2813 53.5281,354.8594 L53.5281,353.4375 C53.5281,353 53.5125,352.875 53.4188,352.7188 C53.2625,352.4531 52.9813,352.3125 52.6844,352.3125 C52.3875,352.3125 52.1844,352.4063 51.9656,352.7188 L51.7938,352.6406 Z " fill="#000000"/><text fill="#000000" font-family="FG Virgil" font-size="12" font-style="italic" lengthAdjust="spacing" textLength="74" x="85.55" y="354.1387">«repository»</text><text fill="#000000" font-family="FG Virgil" font-size="12" lengthAdjust="spacing" textLength="106" x="69.55" y="368.1074">PedidoRepository</text><path d="M8,375.9375 L8,376.2177 L17.85,375.3851 L27.7,376.1952 L37.55,376.4704 L47.4,374.9863 L57.25,375.8339 L67.1,375.3688 L76.95,375.4262 L86.8,375.8466 L96.65,375.0157 L106.5,376.6757 L116.35,375.0971 L126.2,375.6738 L136.05,376.5134 L145.9,375.8231 L155.75,376.0285 L165.6,375.8949 L175.45,376.1755 L185.3,376.2563 L195.15,376.7184 L205,375.9375 " fill="#F8F8F8" style="stroke:#383838;stroke-width:1.5;"/><path d="M8,383.9375 L8,384.2177 L17.85,383.3851 L27.7,384.1952 L37.55,384.4704 L47.4,382.9863 L57.25,383.8339 L67.1,383.3688 L76.95,383.4262 L86.8,383.8466 L96.65,383.0157 L106.5,384.6757 L116.35,383.0971 L126.2,383.6738 L136.05,384.5134 L145.9,383.8231 L155.75,384.0285 L165.6,383.8949 L175.45,384.1755 L185.3,384.2563 L195.15,384.7184 L205,383.9375 " fill="#F8F8F8" style="stroke:#383838;stroke-width:1.5;"/><text fill="#000000" font-family="FG Virgil" font-size="11" lengthAdjust="spacing" textLength="187" x="13" y="398.1479">getListaTarefasPendentes(colab)</text><text fill="#000000" font-family="FG Virgil" font-size="11" lengthAdjust="spacing" textLength="171" x="13" y="410.9526">filtrarTarefasPendentes(colab)</text><text fill="#000000" font-family="FG Virgil" font-size="11" lengthAdjust="spacing" textLength="186" x="13" y="423.7573">ordenarTarefasPendentes(colab)</text><text fill="#000000" font-family="FG Virgil" font-size="11" lengthAdjust="spacing" textLength="153" x="13" y="436.562">getTarefaById(idAtividade)</text><text fill="#000000" font-family="FG Virgil" font-size="11" lengthAdjust="spacing" textLength="181" x="13" y="449.3667">getPedidoByTarefa(idAtividade)</text><!--MD5=[9a0e8f7957502662f95e783c1c3d84fe]
class ColaboradorRepository--><polygon fill="#F8F8F8" points="241.5,363.5,241.5,363.7102,251.6176,363.0857,261.7353,363.6933,271.8529,363.8997,281.9706,362.7866,292.0882,363.4223,302.2059,363.0735,312.3235,363.1165,322.4412,363.4318,332.5588,362.8086,342.6765,364.0536,352.7941,362.8697,362.9118,363.3022,373.0294,363.9319,383.1471,363.4142,393.2647,363.5682,403.3824,363.4681,413.5,363.5,413.6785,363.5,413.7391,373.0346,414.0857,382.5692,414.1711,392.1038,414.1793,401.6384,413.7546,411.173,413.9636,420.7076,413.5,430.2422,413.5,430.9444,403.3824,429.521,393.2647,430.9207,383.1471,429.9457,373.0294,430.776,362.9118,429.7472,352.7941,430.1737,342.6765,430.9838,332.5588,430.1935,322.4412,430.3475,312.3235,430.5808,302.2059,430.6584,292.0882,430.2383,281.9706,430.5294,271.8529,429.6698,261.7353,430.5266,251.6176,430.7904,241.5,430.2422,241.9445,430.2422,242.113,420.7076,241.0169,411.173,240.8478,401.6384,240.8786,392.1038,241.4411,382.5692,241.3035,373.0346,241.5,363.5" style="stroke:#383838;stroke-width:1.5;"/><polygon fill="#C2C2C2" points="267.5608,385.1444,265.9484,387.3475,264.0412,390.5745,261.3136,392.7491,258.4474,393.9384,256.162,394.0416,253.2247,392.5543,250.4532,391.5827,248.3495,389.6099,247.2461,387.3515,246.5917,385.5533,245.9506,383.2045,244.91,381.1832,245.7096,379.2098,246.4102,377.048,249.0393,375.3382,250.889,373.1198,253.1784,372.3832,255.9001,371.7488,259.3904,372.1257,261.3021,373.0273,263.5247,373.4359,266.2272,376.2047,267.1693,379.1277,267.5786,381.1221,267.115,384.4086" style="stroke:#383838;stroke-width:1.0;"/><path d="M258.8438,378.1406 C257.9063,377.7031 257.3125,377.5625 256.4375,377.5625 C253.8125,377.5625 251.8125,379.6406 251.8125,382.3594 L251.8125,383.4844 C251.8125,386.0625 253.9219,387.9531 256.8125,387.9531 C258.0313,387.9531 259.1875,387.6563 259.9375,387.1094 C260.5156,386.7031 260.8438,386.25 260.8438,385.8594 C260.8438,385.4063 260.4531,385.0156 259.9844,385.0156 C259.7656,385.0156 259.5625,385.0938 259.375,385.2813 C258.9219,385.7656 258.9219,385.7656 258.7344,385.8594 C258.3125,386.125 257.625,386.25 256.8594,386.25 C254.8125,386.25 253.5156,385.1563 253.5156,383.4531 L253.5156,382.3594 C253.5156,380.5781 254.7656,379.2656 256.5,379.2656 C257.0781,379.2656 257.6875,379.4219 258.1563,379.6719 C258.6406,379.9531 258.8125,380.1719 258.9063,380.5781 C258.9688,380.9844 259,381.1094 259.1406,381.2344 C259.2813,381.375 259.5156,381.4844 259.7344,381.4844 C260,381.4844 260.2656,381.3438 260.4375,381.125 C260.5469,380.9688 260.5781,380.7813 260.5781,380.3594 L260.5781,378.9375 C260.5781,378.5 260.5625,378.375 260.4688,378.2188 C260.3125,377.9531 260.0313,377.8125 259.7344,377.8125 C259.4375,377.8125 259.2344,377.9063 259.0156,378.2188 L258.8438,378.1406 Z " fill="#000000"/><text fill="#000000" font-family="FG Virgil" font-size="12" font-style="italic" lengthAdjust="spacing" textLength="74" x="303.5" y="379.6387">«repository»</text><text fill="#000000" font-family="FG Virgil" font-size="12" lengthAdjust="spacing" textLength="140" x="270.5" y="393.6074">ColaboradorRepository</text><path d="M242.5,401.4375 L242.5,401.7177 L252.5,400.8851 L262.5,401.6952 L272.5,401.9704 L282.5,400.4863 L292.5,401.3339 L302.5,400.8688 L312.5,400.9262 L322.5,401.3466 L332.5,400.5157 L342.5,402.1757 L352.5,400.5971 L362.5,401.1738 L372.5,402.0134 L382.5,401.3231 L392.5,401.5285 L402.5,401.3949 L412.5,401.4375 " fill="#F8F8F8" style="stroke:#383838;stroke-width:1.5;"/><path d="M242.5,409.4375 L242.5,409.7177 L252.5,408.8851 L262.5,409.6952 L272.5,409.9704 L282.5,408.4863 L292.5,409.3339 L302.5,408.8688 L312.5,408.9262 L322.5,409.3466 L332.5,408.5157 L342.5,410.1757 L352.5,408.5971 L362.5,409.1738 L372.5,410.0134 L382.5,409.3231 L392.5,409.5285 L402.5,409.3949 L412.5,409.4375 " fill="#F8F8F8" style="stroke:#383838;stroke-width:1.5;"/><text fill="#000000" font-family="FG Virgil" font-size="11" lengthAdjust="spacing" textLength="53" x="247.5" y="423.6479">getUser()</text><!--MD5=[a26d7a8585b446db7fc8ab4626d8ca8a]
class Pedido--><polygon fill="#F8F8F8" points="448.5,363.5,448.5,363.7102,458.6905,363.0857,468.881,363.6933,479.0714,363.8997,489.2619,362.7866,499.4524,363.4223,509.6429,363.0735,519.8333,363.1165,530.0238,363.4318,540.2143,362.8086,550.4048,364.0536,560.5952,362.8697,570.7857,363.3022,580.9762,363.9319,591.1667,363.4142,601.3571,363.5682,611.5476,363.4681,621.7381,363.6785,631.9286,363.7391,642.119,364.0857,652.3095,364.1711,662.5,363.5,663.1793,363.5,662.7546,373.0346,662.9636,382.5692,663.2022,392.1038,661.7788,401.6384,663.1785,411.173,662.2035,420.7076,662.5,430.2422,662.5,430.776,652.3095,429.7472,642.119,430.1737,631.9286,430.9838,621.7381,430.1935,611.5476,430.3475,601.3571,430.5808,591.1667,430.6584,580.9762,430.2383,570.7857,430.5294,560.5952,429.6698,550.4048,430.5266,540.2143,430.7904,530.0238,430.6867,519.8333,430.8552,509.6429,429.7591,499.4524,429.59,489.2619,429.6208,479.0714,430.1833,468.881,430.0457,458.6905,430.9236,448.5,430.2422,448.3253,430.2422,448.1569,420.7076,448.7283,411.173,447.8332,401.6384,447.9809,392.1038,449.149,382.5692,448.9357,373.0346,448.5,363.5" style="stroke:#383838;stroke-width:1.5;"/><polygon fill="#C2C2C2" points="534.8108,385.1444,533.1984,387.3475,531.2912,390.5745,528.5636,392.7491,525.6974,393.9384,523.412,394.0416,520.4747,392.5543,517.7032,391.5827,515.5995,389.6099,514.4961,387.3515,513.8417,385.5533,513.2006,383.2045,512.16,381.1832,512.9596,379.2098,513.6602,377.048,516.2893,375.3382,518.139,373.1198,520.4284,372.3832,523.1501,371.7488,526.6404,372.1257,528.5521,373.0273,530.7747,373.4359,533.4772,376.2047,534.4193,379.1277,534.8286,381.1221,534.365,384.4086" style="stroke:#383838;stroke-width:1.0;"/><path d="M526.0938,378.1406 C525.1563,377.7031 524.5625,377.5625 523.6875,377.5625 C521.0625,377.5625 519.0625,379.6406 519.0625,382.3594 L519.0625,383.4844 C519.0625,386.0625 521.1719,387.9531 524.0625,387.9531 C525.2813,387.9531 526.4375,387.6563 527.1875,387.1094 C527.7656,386.7031 528.0938,386.25 528.0938,385.8594 C528.0938,385.4063 527.7031,385.0156 527.2344,385.0156 C527.0156,385.0156 526.8125,385.0938 526.625,385.2813 C526.1719,385.7656 526.1719,385.7656 525.9844,385.8594 C525.5625,386.125 524.875,386.25 524.1094,386.25 C522.0625,386.25 520.7656,385.1563 520.7656,383.4531 L520.7656,382.3594 C520.7656,380.5781 522.0156,379.2656 523.75,379.2656 C524.3281,379.2656 524.9375,379.4219 525.4063,379.6719 C525.8906,379.9531 526.0625,380.1719 526.1563,380.5781 C526.2188,380.9844 526.25,381.1094 526.3906,381.2344 C526.5313,381.375 526.7656,381.4844 526.9844,381.4844 C527.25,381.4844 527.5156,381.3438 527.6875,381.125 C527.7969,380.9688 527.8281,380.7813 527.8281,380.3594 L527.8281,378.9375 C527.8281,378.5 527.8125,378.375 527.7188,378.2188 C527.5625,377.9531 527.2813,377.8125 526.9844,377.8125 C526.6875,377.8125 526.4844,377.9063 526.2656,378.2188 L526.0938,378.1406 Z " fill="#000000"/><text fill="#000000" font-family="FG Virgil" font-size="12" font-style="italic" lengthAdjust="spacing" textLength="59" x="542.25" y="379.6387">«domain»</text><text fill="#000000" font-family="FG Virgil" font-size="12" lengthAdjust="spacing" textLength="41" x="551.25" y="393.6074">Pedido</text><path d="M449.5,401.4375 L449.5,401.7177 L459.5952,400.8851 L469.6905,401.6952 L479.7857,401.9704 L489.881,400.4863 L499.9762,401.3339 L510.0714,400.8688 L520.1667,400.9262 L530.2619,401.3466 L540.3571,400.5157 L550.4524,402.1757 L560.5476,400.5971 L570.6429,401.1738 L580.7381,402.0134 L590.8333,401.3231 L600.9286,401.5285 L611.0238,401.3949 L621.119,401.6755 L631.2143,401.7563 L641.3095,402.2184 L651.4048,402.3322 L661.5,401.4375 " fill="#F8F8F8" style="stroke:#383838;stroke-width:1.5;"/><path d="M449.5,409.4375 L449.5,409.7177 L459.5952,408.8851 L469.6905,409.6952 L479.7857,409.9704 L489.881,408.4863 L499.9762,409.3339 L510.0714,408.8688 L520.1667,408.9262 L530.2619,409.3466 L540.3571,408.5157 L550.4524,410.1757 L560.5476,408.5971 L570.6429,409.1738 L580.7381,410.0134 L590.8333,409.3231 L600.9286,409.5285 L611.0238,409.3949 L621.119,409.6755 L631.2143,409.7563 L641.3095,410.2184 L651.4048,410.3322 L661.5,409.4375 " fill="#F8F8F8" style="stroke:#383838;stroke-width:1.5;"/><text fill="#000000" font-family="FG Virgil" font-size="11" lengthAdjust="spacing" textLength="202" x="454.5" y="423.6479">adicionaColaborador(colab, manual)</text><!--MD5=[771c90288469fdaf1cc689c82d15d952]
link ConsultarReivindicarTarefaUI to ConsultarReivindicarTarefaController--><path d="M327.5,74.194 L327.7802,74.194 L326.9476,85.0488 L327.7577,95.9036 L328.0329,106.7584 L326.5488,117.6132 L327.5,128.468 " fill="none" style="stroke:#383838;stroke-width:1.0;"/><polygon fill="#383838" points="327.5,133.844,327.564,133.8725,328.1738,131.9879,329.1589,130.2702,330.0217,128.4981,330.4827,126.5474,331.5,124.844,331.4817,124.8257,330.5995,125.5435,329.8096,126.3536,329.0839,127.2279,328.137,127.881,327.5,128.844,327.6305,128.9745,326.5514,127.8954,325.8534,127.1974,325.2018,126.5458,324.2798,125.6238,323.5,124.844,323.5208,124.8532,324.2903,126.6397,325.1544,128.4682,325.9728,130.2764,326.8784,132.1233,327.5,133.844" style="stroke:#383838;stroke-width:1.0;"/><!--MD5=[7f611cbca63461c2ab16c7bf29ff30a6]
link ConsultarReivindicarTarefaController to PedidoRepository--><path d="M244.264,278.183 L244.4461,278.396 L236.5918,284.0175 L229.8053,290.8875 L222.671,297.351 L214.3933,302.4774 L207.6311,309.3759 L200.0157,315.2768 L192.7399,321.5747 L185.7,328.1486 L178.446,334.472 " fill="none" style="stroke:#383838;stroke-width:1.0;"/><polygon fill="#383838" points="174.547,337.806,174.567,337.8732,176.3957,337.1121,178.3414,336.7446,180.2491,336.249,182.0313,335.3318,183.9871,334.9982,183.9851,334.9724,182.8481,334.7682,181.7213,334.6943,180.6016,334.7108,179.4575,334.4155,178.3475,334.557,178.5315,334.5714,178.2263,333.4127,178.4583,332.296,178.7558,331.1844,178.672,330.0431,178.7887,328.9174,178.8092,328.9272,177.9308,330.6905,177.1457,332.4984,176.3156,334.2849,175.5715,336.1124,174.547,337.806" style="stroke:#383838;stroke-width:1.0;"/><!--MD5=[d423b7d09bfa39863eed642f46328ff8]
link ConsultarReivindicarTarefaController to ColaboradorRepository--><path d="M327.5,278.183 L327.7802,278.183 L326.9476,288.201 L327.7577,298.219 L328.0329,308.237 L326.5488,318.255 L327.3964,328.273 L326.9313,338.291 L326.9887,348.309 L327.5,358.327 " fill="none" style="stroke:#383838;stroke-width:1.0;"/><polygon fill="#383838" points="327.5,363.3988,327.564,363.4273,328.1738,361.5427,329.1589,359.825,330.0217,358.0529,330.4827,356.1022,331.5,354.3988,331.4817,354.3805,330.5995,355.0983,329.8096,355.9084,329.0839,356.7827,328.137,357.4358,327.5,358.3988,327.6305,358.5293,326.5514,357.4502,325.8534,356.7522,325.2018,356.1006,324.2798,355.1786,323.5,354.3988,323.5208,354.408,324.2903,356.1945,325.1544,358.023,325.9728,359.8312,326.8784,361.6781,327.5,363.3988" style="stroke:#383838;stroke-width:1.0;"/><!--MD5=[254a06c4295f55ca2f1ddbcbb8f9c099]
link ConsultarReivindicarTarefaController to Pedido--><path d="M413.372,278.183 L413.5508,278.3988 L420.616,284.0548 L428.7295,290.9757 L436.5017,297.4847 L443.1511,302.6393 L451.2886,309.589 L458.5883,315.5281 L466.2214,321.8694 L474.0863,328.4902 L481.1525,334.1476 L489.8085,341.7228 L496.3976,346.8046 L504.3622,353.5457 L512.127,360.0459 " fill="none" style="stroke:#383838;stroke-width:1.0;"/><polygon fill="#383838" points="516.172,363.3988,516.2348,363.4299,515.1732,361.5727,514.4795,359.898,513.666,358.1639,512.4585,356.2343,511.7965,354.5753,511.7707,354.5729,511.7602,355.6885,511.8797,356.8163,512.0897,357.9525,511.9881,359.0597,512.3228,360.2076,512.34,360.3913,511.1768,360.1037,510.0638,360.3525,508.9568,360.6668,507.8143,360.6002,506.6905,360.7339,506.6967,360.7558,508.5839,361.2567,510.4992,361.8572,512.401,362.4096,514.3285,363.0538,516.172,363.3988" style="stroke:#383838;stroke-width:1.0;"/><!--MD5=[2387f50b591c23ca205c51db8e13953c]
@startuml
'http://plantuml.com/skinparam.html
skinparam handwritten true
skinparam monochrome true
skinparam packageStyle rect
skinparam defaultFontName FG Virgil
skinparam shadowing false

class ConsultarReivindicarTarefaUI <<presentation>>
class ConsultarReivindicarTarefaController <<application>>
class PedidoRepository <<repository>>
class ColaboradorRepository <<repository>>
class Pedido <<domain>>

ConsultarReivindicarTarefaUI - -> ConsultarReivindicarTarefaController
ConsultarReivindicarTarefaUI : doShow()

ConsultarReivindicarTarefaController : getUser()
ConsultarReivindicarTarefaController : tarefasPendentes(colab)
ConsultarReivindicarTarefaController : filtrarTarefasPendentes(colab)
ConsultarReivindicarTarefaController : ordenarTarefasPendentes(colab)
ConsultarReivindicarTarefaController : getTarefaById(idAtividade)
ConsultarReivindicarTarefaController : getPedidoByTarefa(idAtividade)
ConsultarReivindicarTarefaController : adicionaColaborador(pedido, colab, manual)

Pedido : adicionaColaborador(colab, manual)

ConsultarReivindicarTarefaController - -> PedidoRepository
ConsultarReivindicarTarefaController - -> ColaboradorRepository
ConsultarReivindicarTarefaController - -> Pedido

ColaboradorRepository : getUser()

PedidoRepository : getListaTarefasPendentes(colab)
PedidoRepository : filtrarTarefasPendentes(colab)
PedidoRepository : ordenarTarefasPendentes(colab)
PedidoRepository : getTarefaById(idAtividade)
PedidoRepository : getPedidoByTarefa(idAtividade)
@enduml

@startuml
skinparam handwritten true
skinparam monochrome true
skinparam packageStyle rect
skinparam defaultFontName FG Virgil
skinparam shadowing false

class ConsultarReivindicarTarefaUI <<presentation>>
class ConsultarReivindicarTarefaController <<application>>
class PedidoRepository <<repository>>
class ColaboradorRepository <<repository>>
class Pedido <<domain>>

ConsultarReivindicarTarefaUI - -> ConsultarReivindicarTarefaController
ConsultarReivindicarTarefaUI : doShow()

ConsultarReivindicarTarefaController : getUser()
ConsultarReivindicarTarefaController : tarefasPendentes(colab)
ConsultarReivindicarTarefaController : filtrarTarefasPendentes(colab)
ConsultarReivindicarTarefaController : ordenarTarefasPendentes(colab)
ConsultarReivindicarTarefaController : getTarefaById(idAtividade)
ConsultarReivindicarTarefaController : getPedidoByTarefa(idAtividade)
ConsultarReivindicarTarefaController : adicionaColaborador(pedido, colab, manual)

Pedido : adicionaColaborador(colab, manual)

ConsultarReivindicarTarefaController - -> PedidoRepository
ConsultarReivindicarTarefaController - -> ColaboradorRepository
ConsultarReivindicarTarefaController - -> Pedido

ColaboradorRepository : getUser()

PedidoRepository : getListaTarefasPendentes(colab)
PedidoRepository : filtrarTarefasPendentes(colab)
PedidoRepository : ordenarTarefasPendentes(colab)
PedidoRepository : getTarefaById(idAtividade)
PedidoRepository : getPedidoByTarefa(idAtividade)
@enduml

PlantUML version 1.2021.7(Sun May 23 12:40:07 UTC 2021)
(GPL source distribution)
Java Runtime: Java(TM) SE Runtime Environment
JVM: Java HotSpot(TM) 64-Bit Server VM
Default Encoding: UTF-8
Language: en
Country: US
--></g></svg>