<?xml version="1.0" encoding="UTF-8" standalone="no"?><svg xmlns="http://www.w3.org/2000/svg" xmlns:xlink="http://www.w3.org/1999/xlink" contentScriptType="application/ecmascript" contentStyleType="text/css" height="635px" preserveAspectRatio="none" style="width:1141px;height:635px;background:#FFFFFF;" version="1.1" viewBox="0 0 1141 635" width="1141px" zoomAndPan="magnify"><defs/><g><text fill="#000000" font-family="FG Virgil" font-size="18" lengthAdjust="spacing" textLength="636" x="252" y="28.708">SD - Consultar tarefas pendentes que um utilizador pode reivindicar</text><polygon fill="#FFFFFF" points="37,129.25,37,129.3201,39,129.1119,41,129.3144,43,129.3832,45,129.0122,47,129.25,46.9223,129.25,46.5735,139.3332,46.6165,149.4164,46.9318,159.4996,46.3086,169.5828,47.5536,179.666,46.3697,189.7492,46.8022,199.8324,47.4319,209.9156,46.9142,219.9988,47.0682,230.082,46.9681,240.1652,47.1785,250.2484,47.2391,260.3316,47.5857,270.4148,47.6711,280.498,47.6793,290.5813,47.2546,300.6645,47.4636,310.7477,47.7022,320.8309,46.2788,330.9141,47.6785,340.9973,46.7035,351.0805,47.5338,361.1637,46.505,371.2469,46.9315,381.3301,47.7416,391.4133,46.9513,401.4965,47.1053,411.5797,47.3386,421.6629,47.4162,431.7461,46.9961,441.8293,47.2872,451.9125,46.4276,461.9957,47.2844,472.0789,47.5482,482.1621,47.4445,492.2453,47.613,502.3285,46.5169,512.4117,46.3478,522.4949,47,532.5781,47,532.371,45,532.5585,43,532.5126,41,532.8053,39,532.5199,37,532.5781,36.6569,532.5781,37.2283,522.4949,36.3332,512.4117,36.4809,502.3285,37.649,492.2453,37.4357,482.1621,37.7345,472.0789,36.6782,461.9957,37.3192,451.9125,37.5904,441.8293,36.5276,431.7461,36.9041,421.6629,37.126,411.5797,37.6518,401.4965,36.9958,391.4133,37.4626,381.3301,36.4462,371.2469,36.3227,361.1637,37.5036,351.0805,36.2831,340.9973,37.509,330.9141,37.2066,320.8309,36.7321,310.7477,36.6462,300.6645,37.4588,290.5812,36.7007,280.498,37.5919,270.4148,36.4473,260.3316,37.6174,250.2484,37.4843,240.1652,37.245,230.082,37.0472,219.9988,37.7266,209.9156,37.6136,199.8324,37.1693,189.7492,37.2682,179.666,36.8697,169.5828,37.7165,159.4996,37.1549,149.4164,37.1726,139.3332,37,129.25" style="stroke:#383838;stroke-width:1.0;"/><polygon fill="#FFFFFF" points="467,150.3828,467,150.4529,469,150.2447,471,150.4472,473,150.516,475,150.145,477,150.3828,476.9223,150.3828,476.5735,160.166,476.6165,169.9492,476.9318,179.7324,476.3086,189.5156,477.5536,199.2988,476.3697,209.082,476.8022,218.8652,477.4319,228.6484,476.9142,238.4316,477.0682,248.2148,476.9681,257.998,477,267.7813,477,267.8408,475,267.861,473,267.9765,471,268.0049,469,268.0077,467,267.7813,467.2546,267.7813,467.4636,257.998,467.7022,248.2148,466.2788,238.4316,467.6785,228.6484,466.7035,218.8652,467.5338,209.082,466.505,199.2988,466.9315,189.5156,467.7416,179.7324,466.9513,169.9492,467.1053,160.166,467,150.3828" style="stroke:#383838;stroke-width:1.0;"/><polygon fill="#FFFFFF" points="467,296.9141,467,296.9841,469,296.776,471,296.9785,473,297.0473,475,296.6763,477,296.9141,476.9223,296.9141,476.5735,306.7334,476.6165,316.5527,476.9318,326.3721,476.3086,336.1914,477.5536,346.0107,476.3697,355.8301,476.8022,365.6494,477.4319,375.4688,476.9142,385.2881,477.0682,395.1074,476.9681,404.9268,477.1785,414.7461,477.2391,424.5654,477.5857,434.3848,477.6711,444.2041,477.6793,454.0234,477.2546,463.8428,477.4636,473.6621,477.7022,483.4814,476.2788,493.3008,477.6785,503.1201,476.7035,512.9395,477.5338,522.7588,477,532.5781,477,532.4131,475,532.5553,473,532.8253,471,532.5619,469,532.6132,467,532.5781,467.3386,532.5781,467.4162,522.7588,466.9961,512.9395,467.2872,503.1201,466.4276,493.3008,467.2844,483.4814,467.5482,473.6621,467.4445,463.8428,467.613,454.0234,466.5169,444.2041,466.3478,434.3848,466.3786,424.5654,466.9411,414.7461,466.8035,404.9268,467.6814,395.1074,466.8253,385.2881,466.6569,375.4688,467.2283,365.6494,466.3332,355.8301,466.4809,346.0107,467.649,336.1914,467.4357,326.3721,467.7345,316.5527,466.6782,306.7334,467,296.9141" style="stroke:#383838;stroke-width:1.0;"/><polygon fill="#FFFFFF" points="723,179.5156,723,179.5857,725,179.3775,727,179.5801,729,179.6489,731,179.2778,733,179.5156,732.9223,179.5156,732.5735,189.3711,732.6165,199.2266,732.9318,209.082,732.3086,218.9375,733.5536,228.793,733,238.6484,733,238.4383,731,238.5825,729,238.7924,727,238.6198,725,238.6712,723,238.6484,722.9681,238.6484,723.1785,228.793,723.2391,218.9375,723.5857,209.082,723.6711,199.2266,723.6793,189.3711,723,179.5156" style="stroke:#383838;stroke-width:1.0;"/><polygon fill="#FFFFFF" points="723,326.0469,723,326.1169,725,325.9088,727,326.1113,729,326.1801,731,325.8091,733,326.0469,732.9223,326.0469,732.5735,335.9023,732.6165,345.7578,732.9318,355.6133,732.3086,365.4688,733.5536,375.3242,732.3697,385.1797,732.8022,395.0352,733.4319,404.8906,732.9142,414.7461,733.0682,424.6016,732.9681,434.457,733.1785,444.3125,733.2391,454.168,733.5857,464.0234,733.6711,473.8789,733.6793,483.7344,733.2546,493.5898,733,503.4453,733,503.5998,731,503.6794,729,503.2049,727,503.6715,725,503.3465,723,503.4453,723.5338,503.4453,722.505,493.5898,722.9315,483.7344,723.7416,473.8789,722.9513,464.0234,723.1053,454.168,723.3386,444.3125,723.4162,434.457,722.9961,424.6016,723.2872,414.7461,722.4276,404.8906,723.2844,395.0352,723.5482,385.1797,723.4445,375.3242,723.613,365.4688,722.5169,355.6133,722.3478,345.7578,722.3786,335.9023,723,326.0469" style="stroke:#383838;stroke-width:1.0;"/><polygon fill="#FFFFFF" points="965,208.6484,965,208.7185,967,208.5103,969,208.7129,971,208.7817,973,208.4106,975,208.6484,974.9741,208.6484,974.8578,214.6484,974.8722,220.6484,974.9773,226.6484,974.7695,232.6484,975,238.6484,975,238.833,973,238.4383,971,238.5825,969,238.7924,967,238.6198,965,238.6484,965.0227,238.6484,964.9894,232.6484,965.0595,226.6484,965.0797,220.6484,965.1952,214.6484,965,208.6484" style="stroke:#383838;stroke-width:1.0;"/><polygon fill="#FFFFFF" points="965,355.1797,965,355.2497,967,355.0416,969,355.2441,971,355.3129,973,354.9419,975,355.1797,974.9741,355.1797,974.8578,361.1797,974.8722,367.1797,974.9773,373.1797,974.7695,379.1797,975,385.1797,975,385.3642,973,384.9696,971,385.1138,969,385.3237,967,385.1511,965,385.1797,965.0227,385.1797,964.9894,379.1797,965.0595,373.1797,965.0797,367.1797,965.1952,361.1797,965,355.1797" style="stroke:#383838;stroke-width:1.0;"/><polygon fill="#FFFFFF" points="965,473.4453,965,473.5154,967,473.3072,969,473.5097,971,473.5785,973,473.2075,975,473.4453,974.9741,473.4453,974.8578,479.4453,974.8722,485.4453,974.9773,491.4453,974.7695,497.4453,975,503.4453,975,503.6299,973,503.2352,971,503.3794,969,503.5893,967,503.4167,965,503.4453,965.0227,503.4453,964.9894,497.4453,965.0595,491.4453,965.0797,485.4453,965.1952,479.4453,965,473.4453" style="stroke:#383838;stroke-width:1.0;"/><polygon fill="#FFFFFF" points="1087,414.3125,1087,414.3826,1089,414.1744,1091,414.3769,1093,414.4457,1095,414.0747,1097,414.3125,1096.9741,414.3125,1096.8578,420.3125,1096.8722,426.3125,1096.9773,432.3125,1096.7695,438.3125,1097,444.3125,1097,444.497,1095,444.1024,1093,444.2466,1091,444.4565,1089,444.2839,1087,444.3125,1087.0227,444.3125,1086.9894,438.3125,1087.0595,432.3125,1087.0797,426.3125,1087.1952,420.3125,1087,414.3125" style="stroke:#383838;stroke-width:1.0;"/><path d="M42,119.25 L42.2802,119.25 L41.4476,129.2809 L42.2577,139.3118 L42.5329,149.3427 L41.0488,159.3735 L41.8964,169.4044 L41.4313,179.4353 L41.4887,189.4662 L41.9091,199.4971 L41.0782,209.528 L42.7382,219.5589 L41.1596,229.5898 L41.7363,239.6206 L42.5759,249.6515 L41.8856,259.6824 L42.091,269.7133 L41.9574,279.7442 L42.238,289.7751 L42.3188,299.806 L42.7809,309.8368 L42.8947,319.8677 L42.9057,329.8986 L42.3395,339.9295 L42.6181,349.9604 L42.9363,359.9913 L41.0384,370.0222 L42.9047,380.0531 L41.6047,390.0839 L42.7117,400.1148 L41.34,410.1457 L41.9087,420.1766 L42.9888,430.2075 L41.935,440.2384 L42.1404,450.2693 L42.4515,460.3001 L42.555,470.331 L41.9948,480.3619 L42.383,490.3928 L41.2368,500.4237 L42.3792,510.4546 L42.7309,520.4855 L42.5927,530.5164 L42.8174,540.5472 L42,550.5781 " fill="none" style="stroke:#383838;stroke-width:1.0;stroke-dasharray:5.0,5.0;"/><path d="M472,119.25 L472.2802,119.25 L471.4476,129.2809 L472.2577,139.3118 L472.5329,149.3427 L471.0488,159.3735 L471.8964,169.4044 L471.4313,179.4353 L471.4887,189.4662 L471.9091,199.4971 L471.0782,209.528 L472.7382,219.5589 L471.1596,229.5898 L471.7363,239.6206 L472.5759,249.6515 L471.8856,259.6824 L472.091,269.7133 L471.9574,279.7442 L472.238,289.7751 L472.3188,299.806 L472.7809,309.8368 L472.8947,319.8677 L472.9057,329.8986 L472.3395,339.9295 L472.6181,349.9604 L472.9363,359.9913 L471.0384,370.0222 L472.9047,380.0531 L471.6047,390.0839 L472.7117,400.1148 L471.34,410.1457 L471.9087,420.1766 L472.9888,430.2075 L471.935,440.2384 L472.1404,450.2693 L472.4515,460.3001 L472.555,470.331 L471.9948,480.3619 L472.383,490.3928 L471.2368,500.4237 L472.3792,510.4546 L472.7309,520.4855 L472.5927,530.5164 L472.8174,540.5472 L472,550.5781 " fill="none" style="stroke:#383838;stroke-width:1.0;stroke-dasharray:5.0,5.0;"/><path d="M728,119.25 L728.2802,119.25 L727.4476,129.2809 L728.2577,139.3118 L728.5329,149.3427 L727.0488,159.3735 L727.8964,169.4044 L727.4313,179.4353 L727.4887,189.4662 L727.9091,199.4971 L727.0782,209.528 L728.7382,219.5589 L727.1596,229.5898 L727.7363,239.6206 L728.5759,249.6515 L727.8856,259.6824 L728.091,269.7133 L727.9574,279.7442 L728.238,289.7751 L728.3188,299.806 L728.7809,309.8368 L728.8947,319.8677 L728.9057,329.8986 L728.3395,339.9295 L728.6181,349.9604 L728.9363,359.9913 L727.0384,370.0222 L728.9047,380.0531 L727.6047,390.0839 L728.7117,400.1148 L727.34,410.1457 L727.9087,420.1766 L728.9888,430.2075 L727.935,440.2384 L728.1404,450.2693 L728.4515,460.3001 L728.555,470.331 L727.9948,480.3619 L728.383,490.3928 L727.2368,500.4237 L728.3792,510.4546 L728.7309,520.4855 L728.5927,530.5164 L728.8174,540.5472 L728,550.5781 " fill="none" style="stroke:#383838;stroke-width:1.0;stroke-dasharray:5.0,5.0;"/><path d="M970,119.25 L970.2802,119.25 L969.4476,129.2809 L970.2577,139.3118 L970.5329,149.3427 L969.0488,159.3735 L969.8964,169.4044 L969.4313,179.4353 L969.4887,189.4662 L969.9091,199.4971 L969.0782,209.528 L970.7382,219.5589 L969.1596,229.5898 L969.7363,239.6206 L970.5759,249.6515 L969.8856,259.6824 L970.091,269.7133 L969.9574,279.7442 L970.238,289.7751 L970.3188,299.806 L970.7809,309.8368 L970.8947,319.8677 L970.9057,329.8986 L970.3395,339.9295 L970.6181,349.9604 L970.9363,359.9913 L969.0384,370.0222 L970.9047,380.0531 L969.6047,390.0839 L970.7117,400.1148 L969.34,410.1457 L969.9087,420.1766 L970.9888,430.2075 L969.935,440.2384 L970.1404,450.2693 L970.4515,460.3001 L970.555,470.331 L969.9948,480.3619 L970.383,490.3928 L969.2368,500.4237 L970.3792,510.4546 L970.7309,520.4855 L970.5927,530.5164 L970.8174,540.5472 L970,550.5781 " fill="none" style="stroke:#383838;stroke-width:1.0;stroke-dasharray:5.0,5.0;"/><path d="M1092,119.25 L1092.2802,119.25 L1091.4476,129.2809 L1092.2577,139.3118 L1092.5329,149.3427 L1091.0488,159.3735 L1091.8964,169.4044 L1091.4313,179.4353 L1091.4887,189.4662 L1091.9091,199.4971 L1091.0782,209.528 L1092.7382,219.5589 L1091.1596,229.5898 L1091.7363,239.6206 L1092.5759,249.6515 L1091.8856,259.6824 L1092.091,269.7133 L1091.9574,279.7442 L1092.238,289.7751 L1092.3188,299.806 L1092.7809,309.8368 L1092.8947,319.8677 L1092.9057,329.8986 L1092.3395,339.9295 L1092.6181,349.9604 L1092.9363,359.9913 L1091.0384,370.0222 L1092.9047,380.0531 L1091.6047,390.0839 L1092.7117,400.1148 L1091.34,410.1457 L1091.9087,420.1766 L1092.9888,430.2075 L1091.935,440.2384 L1092.1404,450.2693 L1092.4515,460.3001 L1092.555,470.331 L1091.9948,480.3619 L1092.383,490.3928 L1091.2368,500.4237 L1092.3792,510.4546 L1092.7309,520.4855 L1092.5927,530.5164 L1092.8174,540.5472 L1092,550.5781 " fill="none" style="stroke:#383838;stroke-width:1.0;stroke-dasharray:5.0,5.0;"/><text fill="#000000" font-family="FG Virgil" font-size="14" lengthAdjust="spacing" textLength="68" x="5" y="115.9482">Utilizador</text><polygon fill="#F8F8F8" points="50.0442,51.899,48.8715,53.5013,47.4845,55.8482,45.5008,57.4298,43.4163,58.2947,41.7542,58.3697,39.618,57.2881,37.6023,56.5814,36.0724,55.1467,35.2699,53.5042,34.7939,52.1964,34.3277,50.4882,33.5709,49.0182,34.1525,47.5829,34.662,46.0107,36.574,44.7673,37.9192,43.1539,39.5843,42.6182,41.5637,42.1568,44.1021,42.4309,45.4924,43.0866,47.1089,43.3838,49.0743,45.3975,49.7595,47.5233,50.0571,48.9737,49.72,51.3639" style="stroke:#383838;stroke-width:2.0;"/><path d="M42,57.9531 L42.1868,57.9531 L41.6317,63.3531 L42.1718,68.7531 L42.3553,74.1531 L41.3659,79.5531 L42,84.9531 M29,65.9531 L29,65.884 L34.2,65.574 L39.4,65.6122 L44.6,65.8925 L49.8,65.3386 L55,65.9531 M42,84.9531 L42.3719,85.2754 L38.9766,87.5862 L36.6672,90.838 L34.4901,94.2046 L31.5424,96.9032 L29,99.9531 M42,84.9531 L42.0458,84.9929 L44.5785,87.9345 L47.3199,91.0571 L49.9606,94.0923 L52.7934,97.2941 L55,99.9531 " fill="none" style="stroke:#383838;stroke-width:2.0;"/><text fill="#000000" font-family="FG Virgil" font-size="14" lengthAdjust="spacing" textLength="68" x="5" y="562.5732">Utilizador</text><polygon fill="#F8F8F8" points="50.0442,577.8209,48.8715,579.4232,47.4845,581.7701,45.5008,583.3517,43.4163,584.2165,41.7542,584.2916,39.618,583.2099,37.6023,582.5033,36.0724,581.0686,35.2699,579.4261,34.7939,578.1183,34.3277,576.4101,33.5709,574.9401,34.1525,573.5048,34.662,571.9326,36.574,570.6892,37.9192,569.0758,39.5843,568.54,41.5637,568.0787,44.1021,568.3528,45.4924,569.0085,47.1089,569.3057,49.0743,571.3193,49.7595,573.4451,50.0571,574.8956,49.72,577.2858" style="stroke:#383838;stroke-width:2.0;"/><path d="M42,583.875 L42.1868,583.875 L41.6317,589.275 L42.1718,594.675 L42.3553,600.075 L41.3659,605.475 L42,610.875 M29,591.875 L29,591.8059 L34.2,591.4959 L39.4,591.5341 L44.6,591.8144 L49.8,591.2604 L55,591.875 M42,610.875 L42.3719,611.1973 L38.9766,613.5081 L36.6672,616.7599 L34.4901,620.1265 L31.5424,622.8251 L29,625.875 M42,610.875 L42.0458,610.9147 L44.5785,613.8564 L47.3199,616.9789 L49.9606,620.0142 L52.7934,623.216 L55,625.875 " fill="none" style="stroke:#383838;stroke-width:2.0;"/><polygon fill="#F8F8F8" points="362,71.6563,362,71.8664,372,71.2419,382,71.8495,392,72.0559,402,70.9429,412,71.5785,422,71.2298,432,71.2728,442,71.5881,452,70.9649,462,72.2099,472,71.026,482,71.4585,492,72.0882,502,71.5705,512,71.7245,522,71.6243,532,71.8348,542,71.8954,552,72.2419,562,72.3273,572,72.3355,582,71.6563,582.2546,71.6563,582.4636,80.975,582.7022,90.2938,581.2788,99.6125,582.6785,108.9313,582,118.25,582,117.9535,572,118.7838,562,117.755,552,118.1815,542,118.9916,532,118.2013,522,118.3553,512,118.5886,502,118.6662,492,118.2461,482,118.5372,472,117.6776,462,118.5344,452,118.7982,442,118.6945,432,118.863,422,117.7669,412,117.5978,402,117.6286,392,118.1911,382,118.0535,372,118.9314,362,118.25,361.8253,118.25,361.6569,108.9313,362.2283,99.6125,361.3332,90.2938,361.4809,80.975,362,71.6563" style="stroke:#383838;stroke-width:1.5;"/><text fill="#000000" font-family="FG Virgil" font-size="14" font-style="italic" lengthAdjust="spacing" textLength="108" x="418" y="91.6514">«presentation»</text><text fill="#000000" font-family="FG Virgil" font-size="14" lengthAdjust="spacing" textLength="206" x="369" y="107.9482">ConsultarReivindicarTarefaUI</text><polygon fill="#F8F8F8" points="362,549.5781,362,549.7883,372,549.1638,382,549.7714,392,549.9778,402,548.8647,412,549.5004,422,549.1516,432,549.1946,442,549.51,452,548.8868,462,550.1318,472,548.9478,482,549.3804,492,550.0101,502,549.4923,512,549.6464,522,549.5462,532,549.7567,542,549.8173,552,550.1638,562,550.2492,572,550.2574,582,549.5781,582.2546,549.5781,582.4636,558.8969,582.7022,568.2156,581.2788,577.5344,582.6785,586.8531,582,596.1719,582,595.8754,572,596.7057,562,595.6769,552,596.1034,542,596.9135,532,596.1231,522,596.2772,512,596.5105,502,596.5881,492,596.168,482,596.4591,472,595.5995,462,596.4563,452,596.7201,442,596.6164,432,596.7849,422,595.6888,412,595.5197,402,595.5505,392,596.113,382,595.9753,372,596.8533,362,596.1719,361.8253,596.1719,361.6569,586.8531,362.2283,577.5344,361.3332,568.2156,361.4809,558.8969,362,549.5781" style="stroke:#383838;stroke-width:1.5;"/><text fill="#000000" font-family="FG Virgil" font-size="14" font-style="italic" lengthAdjust="spacing" textLength="108" x="418" y="569.5732">«presentation»</text><text fill="#000000" font-family="FG Virgil" font-size="14" lengthAdjust="spacing" textLength="206" x="369" y="585.8701">ConsultarReivindicarTarefaUI</text><text fill="#000000" font-family="FG Virgil" font-size="14" font-style="italic" lengthAdjust="spacing" textLength="97" x="676.5" y="99.6514">«application»</text><text fill="#000000" font-family="FG Virgil" font-size="14" lengthAdjust="spacing" textLength="266" x="592" y="115.9482">ConsultarReivindicarTarefaController</text><polygon fill="#F8F8F8" points="740.0663,73.5751,738.3073,75.9786,736.2268,79.4988,733.2512,81.8712,730.1244,83.1686,727.6313,83.2811,724.4269,81.6587,721.4035,80.5987,719.1086,78.4466,717.9048,75.9829,717.1909,74.0212,716.4915,71.4588,715.3564,69.2539,716.2287,67.101,716.9929,64.7427,719.8611,62.8775,721.8789,60.4574,724.3764,59.6538,727.3456,58.9618,731.1532,59.3729,733.2386,60.3565,735.6633,60.8023,738.6115,63.8228,739.6392,67.0115,740.0857,69.1872,739.58,72.7725" style="stroke:#383838;stroke-width:2.0;"/><polygon fill="#383838" points="724,58.6563,724.0449,58.7101,725.1116,57.5502,726.4412,56.7057,727.6853,55.7586,728.6478,54.4736,730,53.6563,729.9759,53.6466,729.468,54.6035,729.0813,55.6088,728.7789,56.6478,728.186,57.5707,728,58.6563,728.1713,58.7248,728.2049,59.5782,728.7388,60.6318,729.3337,61.7097,729.5735,62.6456,730,63.6563,730.0146,63.6737,728.7932,62.6481,727.6381,61.702,726.451,60.7175,725.325,59.8062,724,58.6563" style="stroke:#383838;stroke-width:1.0;"/><text fill="#000000" font-family="FG Virgil" font-size="14" font-style="italic" lengthAdjust="spacing" textLength="97" x="676.5" y="562.5732">«application»</text><text fill="#000000" font-family="FG Virgil" font-size="14" lengthAdjust="spacing" textLength="266" x="592" y="578.8701">ConsultarReivindicarTarefaController</text><polygon fill="#F8F8F8" points="740.0663,601.0907,738.3073,603.4942,736.2268,607.0145,733.2512,609.3869,730.1244,610.6842,727.6313,610.7968,724.4269,609.1743,721.4035,608.1143,719.1086,605.9623,717.9048,603.4985,717.1909,601.5368,716.4915,598.9745,715.3564,596.7695,716.2287,594.6166,716.9929,592.2583,719.8611,590.3931,721.8789,587.9731,724.3764,587.1694,727.3456,586.4774,731.1532,586.8886,733.2386,587.8721,735.6633,588.3179,738.6115,591.3384,739.6392,594.5271,740.0857,596.7028,739.58,600.2881" style="stroke:#383838;stroke-width:2.0;"/><polygon fill="#383838" points="724,586.1719,724.0449,586.2257,725.1116,585.0658,726.4412,584.2214,727.6853,583.2742,728.6478,581.9892,730,581.1719,729.9759,581.1623,729.468,582.1191,729.0813,583.1244,728.7789,584.1634,728.186,585.0863,728,586.1719,728.1713,586.2404,728.2049,587.0938,728.7388,588.1474,729.3337,589.2253,729.5735,590.1613,730,591.1719,730.0146,591.1893,728.7932,590.1637,727.6381,589.2176,726.451,588.2331,725.325,587.3219,724,586.1719" style="stroke:#383838;stroke-width:1.0;"/><text fill="#000000" font-family="FG Virgil" font-size="14" font-style="italic" lengthAdjust="spacing" textLength="90" x="922" y="99.6514">«repository»</text><text fill="#000000" font-family="FG Virgil" font-size="14" lengthAdjust="spacing" textLength="132" x="901" y="115.9482">ServicoRepository</text><path d="M952,50.6563 L952,50.6563 L952.0651,50.7232 L953.6716,48.7742 L955.6599,47.2178 L957.5238,45.5336 L958.979,43.4289 L961,41.9063 L960.9952,41.872 L962.7739,41.4685 L964.5766,41.2374 L966.3958,41.1262 L968.1577,40.6019 L970,40.6563 L970,40.6563 L970.0339,40.9 L971.7615,40.6288 L973.5879,41.0692 L975.4264,41.5964 L977.1948,41.6185 L979,41.9063 L979.0211,41.928 L980.7901,43.6461 L982.6553,45.4631 L984.4741,47.2325 L986.3815,49.0929 L988,50.6563 L988.5965,50.6563 L988.6038,55.8563 L988.2263,61.0563 L988.4121,66.2563 L988.6242,71.4563 L988,76.6563 L988,76.6563 L987.7766,76.4264 L986.4102,78.6225 L984.3081,80.0618 L982.7654,82.0764 L980.6466,83.4985 L979,85.4063 L978.9958,85.3761 L977.2453,85.9827 L975.397,85.8848 L973.6064,86.2026 L971.8207,86.5553 L970,86.6563 L970,86.6563 L970.0254,86.8395 L968.1998,86.4045 L966.4176,86.2827 L964.565,85.6543 L962.8174,85.7814 L961,85.4063 L961.1698,85.5809 L959.3377,83.7979 L957.5899,82.1016 L955.4503,80.0023 L953.5979,78.1984 L952,76.6563 L951.4476,76.6563 L951.9477,71.4563 L951.8253,66.2563 L952.6057,61.0563 L951.8447,55.8563 L952,50.6563 " fill="#F8F8F8" style="stroke:#000000;stroke-width:1.5;"/><path d="M952,50.6563 L952,50.6563 L952.0651,50.7232 L953.6716,52.2742 L955.6599,54.2178 L957.5238,56.0336 L958.979,57.4289 L961,59.4063 L960.9952,59.372 L962.7739,59.4685 L964.5766,59.7374 L966.3958,60.1262 L968.1577,60.1019 L970,60.6563 L970,60.6563 L970.0339,60.9 L971.7615,60.1288 L973.5879,60.0692 L975.4264,60.0964 L977.1948,59.6185 L979,59.4063 L979.0211,59.428 L980.7901,57.6461 L982.6553,55.9631 L984.4741,54.2325 L986.3815,52.5929 L988,50.6563 " fill="none" style="stroke:#000000;stroke-width:1.5;"/><text fill="#000000" font-family="FG Virgil" font-size="14" font-style="italic" lengthAdjust="spacing" textLength="90" x="922" y="562.5732">«repository»</text><text fill="#000000" font-family="FG Virgil" font-size="14" lengthAdjust="spacing" textLength="132" x="901" y="578.8701">ServicoRepository</text><path d="M952,592.1719 L952,592.1719 L952.0651,592.2389 L953.6716,590.2898 L955.6599,588.7335 L957.5238,587.0492 L958.979,584.9445 L961,583.4219 L960.9952,583.3877 L962.7739,582.9841 L964.5766,582.7531 L966.3958,582.6419 L968.1577,582.1175 L970,582.1719 L970,582.1719 L970.0339,582.4156 L971.7615,582.1444 L973.5879,582.5848 L975.4264,583.112 L977.1948,583.1341 L979,583.4219 L979.0211,583.4436 L980.7901,585.1617 L982.6553,586.9788 L984.4741,588.7481 L986.3815,590.6085 L988,592.1719 L988.5965,592.1719 L988.6038,597.3719 L988.2263,602.5719 L988.4121,607.7719 L988.6242,612.9719 L988,618.1719 L988,618.1719 L987.7766,617.9421 L986.4102,620.1381 L984.3081,621.5774 L982.7654,623.592 L980.6466,625.0141 L979,626.9219 L978.9958,626.8917 L977.2453,627.4983 L975.397,627.4004 L973.6064,627.7182 L971.8207,628.0709 L970,628.1719 L970,628.1719 L970.0254,628.3551 L968.1998,627.9202 L966.4176,627.7983 L964.565,627.1699 L962.8174,627.2971 L961,626.9219 L961.1698,627.0966 L959.3377,625.3135 L957.5899,623.6172 L955.4503,621.5179 L953.5979,619.714 L952,618.1719 L951.4476,618.1719 L951.9477,612.9719 L951.8253,607.7719 L952.6057,602.5719 L951.8447,597.3719 L952,592.1719 " fill="#F8F8F8" style="stroke:#000000;stroke-width:1.5;"/><path d="M952,592.1719 L952,592.1719 L952.0651,592.2389 L953.6716,593.7898 L955.6599,595.7335 L957.5238,597.5492 L958.979,598.9445 L961,600.9219 L960.9952,600.8877 L962.7739,600.9841 L964.5766,601.2531 L966.3958,601.6419 L968.1577,601.6175 L970,602.1719 L970,602.1719 L970.0339,602.4156 L971.7615,601.6444 L973.5879,601.5848 L975.4264,601.612 L977.1948,601.1341 L979,600.9219 L979.0211,600.9436 L980.7901,599.1617 L982.6553,597.4788 L984.4741,595.7481 L986.3815,594.1085 L988,592.1719 " fill="none" style="stroke:#000000;stroke-width:1.5;"/><polygon fill="#F8F8F8" points="1049,71.6563,1049,71.8664,1058.5556,71.2419,1068.1111,71.8495,1077.6667,72.0559,1087.2222,70.9429,1096.7778,71.5785,1106.3333,71.2298,1115.8889,71.2728,1125.4444,71.5881,1135,71.6563,1134.3086,71.6563,1135.5536,80.975,1134.3697,90.2938,1134.8022,99.6125,1135.4319,108.9313,1135,118.25,1135,118.1642,1125.4444,118.3182,1115.8889,118.2181,1106.3333,118.4285,1096.7778,118.4891,1087.2222,118.8357,1077.6667,118.9211,1068.1111,118.9293,1058.5556,118.5046,1049,118.25,1049.4636,118.25,1049.7022,108.9313,1048.2788,99.6125,1049.6785,90.2938,1048.7035,80.975,1049,71.6563" style="stroke:#383838;stroke-width:1.5;"/><text fill="#000000" font-family="FG Virgil" font-size="14" font-style="italic" lengthAdjust="spacing" textLength="72" x="1056" y="91.6514">«domain»</text><text fill="#000000" font-family="FG Virgil" font-size="14" lengthAdjust="spacing" textLength="53" x="1065.5" y="107.9482">Servico</text><polygon fill="#F8F8F8" points="1049,549.5781,1049,549.7883,1058.5556,549.1638,1068.1111,549.7714,1077.6667,549.9778,1087.2222,548.8647,1096.7778,549.5004,1106.3333,549.1516,1115.8889,549.1946,1125.4444,549.51,1135,549.5781,1134.3086,549.5781,1135.5536,558.8969,1134.3697,568.2156,1134.8022,577.5344,1135.4319,586.8531,1135,596.1719,1135,596.0861,1125.4444,596.2401,1115.8889,596.1399,1106.3333,596.3504,1096.7778,596.411,1087.2222,596.7576,1077.6667,596.8429,1068.1111,596.8511,1058.5556,596.4265,1049,596.1719,1049.4636,596.1719,1049.7022,586.8531,1048.2788,577.5344,1049.6785,568.2156,1048.7035,558.8969,1049,549.5781" style="stroke:#383838;stroke-width:1.5;"/><text fill="#000000" font-family="FG Virgil" font-size="14" font-style="italic" lengthAdjust="spacing" textLength="72" x="1056" y="569.5732">«domain»</text><text fill="#000000" font-family="FG Virgil" font-size="14" lengthAdjust="spacing" textLength="53" x="1065.5" y="585.8701">Servico</text><polygon fill="#FFFFFF" points="37,129.25,37,129.3201,39,129.1119,41,129.3144,43,129.3832,45,129.0122,47,129.25,46.9223,129.25,46.5735,139.3332,46.6165,149.4164,46.9318,159.4996,46.3086,169.5828,47.5536,179.666,46.3697,189.7492,46.8022,199.8324,47.4319,209.9156,46.9142,219.9988,47.0682,230.082,46.9681,240.1652,47.1785,250.2484,47.2391,260.3316,47.5857,270.4148,47.6711,280.498,47.6793,290.5813,47.2546,300.6645,47.4636,310.7477,47.7022,320.8309,46.2788,330.9141,47.6785,340.9973,46.7035,351.0805,47.5338,361.1637,46.505,371.2469,46.9315,381.3301,47.7416,391.4133,46.9513,401.4965,47.1053,411.5797,47.3386,421.6629,47.4162,431.7461,46.9961,441.8293,47.2872,451.9125,46.4276,461.9957,47.2844,472.0789,47.5482,482.1621,47.4445,492.2453,47.613,502.3285,46.5169,512.4117,46.3478,522.4949,47,532.5781,47,532.371,45,532.5585,43,532.5126,41,532.8053,39,532.5199,37,532.5781,36.6569,532.5781,37.2283,522.4949,36.3332,512.4117,36.4809,502.3285,37.649,492.2453,37.4357,482.1621,37.7345,472.0789,36.6782,461.9957,37.3192,451.9125,37.5904,441.8293,36.5276,431.7461,36.9041,421.6629,37.126,411.5797,37.6518,401.4965,36.9958,391.4133,37.4626,381.3301,36.4462,371.2469,36.3227,361.1637,37.5036,351.0805,36.2831,340.9973,37.509,330.9141,37.2066,320.8309,36.7321,310.7477,36.6462,300.6645,37.4588,290.5812,36.7007,280.498,37.5919,270.4148,36.4473,260.3316,37.6174,250.2484,37.4843,240.1652,37.245,230.082,37.0472,219.9988,37.7266,209.9156,37.6136,199.8324,37.1693,189.7492,37.2682,179.666,36.8697,169.5828,37.7165,159.4996,37.1549,149.4164,37.1726,139.3332,37,129.25" style="stroke:#383838;stroke-width:1.0;"/><polygon fill="#FFFFFF" points="467,150.3828,467,150.4529,469,150.2447,471,150.4472,473,150.516,475,150.145,477,150.3828,476.9223,150.3828,476.5735,160.166,476.6165,169.9492,476.9318,179.7324,476.3086,189.5156,477.5536,199.2988,476.3697,209.082,476.8022,218.8652,477.4319,228.6484,476.9142,238.4316,477.0682,248.2148,476.9681,257.998,477,267.7813,477,267.8408,475,267.861,473,267.9765,471,268.0049,469,268.0077,467,267.7813,467.2546,267.7813,467.4636,257.998,467.7022,248.2148,466.2788,238.4316,467.6785,228.6484,466.7035,218.8652,467.5338,209.082,466.505,199.2988,466.9315,189.5156,467.7416,179.7324,466.9513,169.9492,467.1053,160.166,467,150.3828" style="stroke:#383838;stroke-width:1.0;"/><polygon fill="#FFFFFF" points="467,296.9141,467,296.9841,469,296.776,471,296.9785,473,297.0473,475,296.6763,477,296.9141,476.9223,296.9141,476.5735,306.7334,476.6165,316.5527,476.9318,326.3721,476.3086,336.1914,477.5536,346.0107,476.3697,355.8301,476.8022,365.6494,477.4319,375.4688,476.9142,385.2881,477.0682,395.1074,476.9681,404.9268,477.1785,414.7461,477.2391,424.5654,477.5857,434.3848,477.6711,444.2041,477.6793,454.0234,477.2546,463.8428,477.4636,473.6621,477.7022,483.4814,476.2788,493.3008,477.6785,503.1201,476.7035,512.9395,477.5338,522.7588,477,532.5781,477,532.4131,475,532.5553,473,532.8253,471,532.5619,469,532.6132,467,532.5781,467.3386,532.5781,467.4162,522.7588,466.9961,512.9395,467.2872,503.1201,466.4276,493.3008,467.2844,483.4814,467.5482,473.6621,467.4445,463.8428,467.613,454.0234,466.5169,444.2041,466.3478,434.3848,466.3786,424.5654,466.9411,414.7461,466.8035,404.9268,467.6814,395.1074,466.8253,385.2881,466.6569,375.4688,467.2283,365.6494,466.3332,355.8301,466.4809,346.0107,467.649,336.1914,467.4357,326.3721,467.7345,316.5527,466.6782,306.7334,467,296.9141" style="stroke:#383838;stroke-width:1.0;"/><polygon fill="#FFFFFF" points="723,179.5156,723,179.5857,725,179.3775,727,179.5801,729,179.6489,731,179.2778,733,179.5156,732.9223,179.5156,732.5735,189.3711,732.6165,199.2266,732.9318,209.082,732.3086,218.9375,733.5536,228.793,733,238.6484,733,238.4383,731,238.5825,729,238.7924,727,238.6198,725,238.6712,723,238.6484,722.9681,238.6484,723.1785,228.793,723.2391,218.9375,723.5857,209.082,723.6711,199.2266,723.6793,189.3711,723,179.5156" style="stroke:#383838;stroke-width:1.0;"/><polygon fill="#FFFFFF" points="723,326.0469,723,326.1169,725,325.9088,727,326.1113,729,326.1801,731,325.8091,733,326.0469,732.9223,326.0469,732.5735,335.9023,732.6165,345.7578,732.9318,355.6133,732.3086,365.4688,733.5536,375.3242,732.3697,385.1797,732.8022,395.0352,733.4319,404.8906,732.9142,414.7461,733.0682,424.6016,732.9681,434.457,733.1785,444.3125,733.2391,454.168,733.5857,464.0234,733.6711,473.8789,733.6793,483.7344,733.2546,493.5898,733,503.4453,733,503.5998,731,503.6794,729,503.2049,727,503.6715,725,503.3465,723,503.4453,723.5338,503.4453,722.505,493.5898,722.9315,483.7344,723.7416,473.8789,722.9513,464.0234,723.1053,454.168,723.3386,444.3125,723.4162,434.457,722.9961,424.6016,723.2872,414.7461,722.4276,404.8906,723.2844,395.0352,723.5482,385.1797,723.4445,375.3242,723.613,365.4688,722.5169,355.6133,722.3478,345.7578,722.3786,335.9023,723,326.0469" style="stroke:#383838;stroke-width:1.0;"/><polygon fill="#FFFFFF" points="965,208.6484,965,208.7185,967,208.5103,969,208.7129,971,208.7817,973,208.4106,975,208.6484,974.9741,208.6484,974.8578,214.6484,974.8722,220.6484,974.9773,226.6484,974.7695,232.6484,975,238.6484,975,238.833,973,238.4383,971,238.5825,969,238.7924,967,238.6198,965,238.6484,965.0227,238.6484,964.9894,232.6484,965.0595,226.6484,965.0797,220.6484,965.1952,214.6484,965,208.6484" style="stroke:#383838;stroke-width:1.0;"/><polygon fill="#FFFFFF" points="965,355.1797,965,355.2497,967,355.0416,969,355.2441,971,355.3129,973,354.9419,975,355.1797,974.9741,355.1797,974.8578,361.1797,974.8722,367.1797,974.9773,373.1797,974.7695,379.1797,975,385.1797,975,385.3642,973,384.9696,971,385.1138,969,385.3237,967,385.1511,965,385.1797,965.0227,385.1797,964.9894,379.1797,965.0595,373.1797,965.0797,367.1797,965.1952,361.1797,965,355.1797" style="stroke:#383838;stroke-width:1.0;"/><polygon fill="#FFFFFF" points="965,473.4453,965,473.5154,967,473.3072,969,473.5097,971,473.5785,973,473.2075,975,473.4453,974.9741,473.4453,974.8578,479.4453,974.8722,485.4453,974.9773,491.4453,974.7695,497.4453,975,503.4453,975,503.6299,973,503.2352,971,503.3794,969,503.5893,967,503.4167,965,503.4453,965.0227,503.4453,964.9894,497.4453,965.0595,491.4453,965.0797,485.4453,965.1952,479.4453,965,473.4453" style="stroke:#383838;stroke-width:1.0;"/><polygon fill="#FFFFFF" points="1087,414.3125,1087,414.3826,1089,414.1744,1091,414.3769,1093,414.4457,1095,414.0747,1097,414.3125,1096.9741,414.3125,1096.8578,420.3125,1096.8722,426.3125,1096.9773,432.3125,1096.7695,438.3125,1097,444.3125,1097,444.497,1095,444.1024,1093,444.2466,1091,444.4565,1089,444.2839,1087,444.3125,1087.0227,444.3125,1086.9894,438.3125,1087.0595,432.3125,1087.0797,426.3125,1087.1952,420.3125,1087,414.3125" style="stroke:#383838;stroke-width:1.0;"/><polygon fill="#383838" points="455,146.3828,455.026,146.4479,456.9487,147.0546,459.0239,148.0426,461.0495,148.9065,462.9117,149.362,465,150.3828,464.9904,150.3588,462.9472,151.0508,460.9525,151.8641,458.9916,152.7617,456.9144,153.3688,455,154.3828,455.1305,154.5133,455.6514,153.4343,456.5534,152.7362,457.5018,152.0846,458.1798,151.1626,459,150.3828,459.0161,150.3989,458.1925,149.5753,457.4421,148.8249,456.6564,148.0392,455.938,147.3209,455,146.3828" style="stroke:#383838;stroke-width:1.0;"/><path d="M47,150.3828 L47,150.6631 L57.0976,149.8304 L67.1951,150.6405 L77.2927,150.9157 L87.3902,149.4316 L97.4878,150.2792 L107.5854,149.8142 L117.6829,149.8715 L127.7805,150.2919 L137.878,149.461 L147.9756,151.121 L158.0732,149.5424 L168.1707,150.1191 L178.2683,150.9587 L188.3659,150.2684 L198.4634,150.4738 L208.561,150.3402 L218.6585,150.6208 L228.7561,150.7017 L238.8537,151.1637 L248.9512,151.2776 L259.0488,151.2885 L269.1463,150.7223 L279.2439,151.0009 L289.3415,151.3191 L299.439,149.4212 L309.5366,151.2875 L319.6341,149.9875 L329.7317,151.0946 L339.8293,149.7228 L349.9268,150.2915 L360.0244,151.3716 L370.122,150.3178 L380.2195,150.5232 L390.3171,150.8343 L400.4146,150.9378 L410.5122,150.3776 L420.6098,150.7658 L430.7073,149.6196 L440.8049,150.762 L450.9024,151.1137 L461,150.3828 " fill="none" style="stroke:#383838;stroke-width:1.0;"/><text fill="#000000" font-family="FG Virgil" font-size="13" lengthAdjust="spacing" textLength="377" x="54" y="145.3169">pretende consultar tarefas pendentes que pode reivindicar</text><polygon fill="#383838" points="711,175.5156,711.026,175.5807,712.9487,176.1874,715.0239,177.1754,717.0495,178.0393,718.9117,178.4948,721,179.5156,720.9904,179.4916,718.9472,180.1836,716.9525,180.9969,714.9916,181.8945,712.9144,182.5017,711,183.5156,711.1305,183.6461,711.6514,182.5671,712.5534,181.869,713.5018,181.2174,714.1798,180.2954,715,179.5156,715.0161,179.5317,714.1925,178.7081,713.4421,177.9577,712.6564,177.172,711.938,176.4537,711,175.5156" style="stroke:#383838;stroke-width:1.0;"/><path d="M477,179.5156 L477,179.7959 L487,178.9632 L497,179.7733 L507,180.0485 L517,178.5644 L527,179.412 L537,178.947 L547,179.0043 L557,179.4247 L567,178.5938 L577,180.2538 L587,178.6753 L597,179.2519 L607,180.0916 L617,179.4013 L627,179.6066 L637,179.473 L647,179.7537 L657,179.8345 L667,180.2965 L677,180.4104 L687,180.4213 L697,179.8551 L707,180.1337 L717,179.5156 " fill="none" style="stroke:#383838;stroke-width:1.0;"/><text fill="#000000" font-family="FG Virgil" font-size="13" lengthAdjust="spacing" textLength="178" x="484" y="174.4497">getListaTarefasPendentes()</text><polygon fill="#383838" points="953,204.6484,953.026,204.7135,954.9487,205.3202,957.0239,206.3083,959.0495,207.1721,960.9117,207.6276,963,208.6484,962.9904,208.6244,960.9472,209.3164,958.9525,210.1297,956.9916,211.0273,954.9144,211.6345,953,212.6484,953.1305,212.7789,953.6514,211.6999,954.5534,211.0018,955.5018,210.3502,956.1798,209.4282,957,208.6484,957.0161,208.6645,956.1925,207.8409,955.4421,207.0905,954.6564,206.3048,953.938,205.5865,953,204.6484" style="stroke:#383838;stroke-width:1.0;"/><path d="M733,208.6484 L733,208.9287 L742.8261,208.096 L752.6522,208.9062 L762.4783,209.1813 L772.3043,207.6972 L782.1304,208.5448 L791.9565,208.0798 L801.7826,208.1371 L811.6087,208.5576 L821.4348,207.7266 L831.2609,209.3866 L841.087,207.8081 L850.913,208.3847 L860.7391,209.2244 L870.5652,208.5341 L880.3913,208.7394 L890.2174,208.6058 L900.0435,208.8865 L909.8696,208.9673 L919.6957,209.4294 L929.5217,209.5432 L939.3478,209.5541 L949.1739,208.9879 L959,208.6484 " fill="none" style="stroke:#383838;stroke-width:1.0;"/><text fill="#000000" font-family="FG Virgil" font-size="13" lengthAdjust="spacing" textLength="178" x="740" y="203.5825">getListaTarefasPendentes()</text><polygon fill="#383838" points="58,263.7813,58.026,263.8463,55.9487,264.453,54.0239,265.4411,52.0495,266.3049,49.9117,266.7605,48,267.7813,47.9904,267.7572,49.9472,268.4493,51.9525,269.2626,53.9916,270.1602,55.9144,270.7673,58,271.7813,58.1305,271.9117,57.0514,270.8327,56.3534,270.1346,55.7018,269.4831,54.7798,268.561,54,267.7813,54.0161,267.7973,54.7925,266.9737,55.6421,266.2233,56.4564,265.4376,57.338,264.7193,58,263.7813" style="stroke:#383838;stroke-width:1.0;"/><path d="M52,267.7813 L52,268.0615 L61.9762,267.2288 L71.9524,268.039 L81.9286,268.3142 L91.9048,266.8301 L101.881,267.6776 L111.8571,267.2126 L121.8333,267.2699 L131.8095,267.6904 L141.7857,266.8594 L151.7619,268.5194 L161.7381,266.9409 L171.7143,267.5176 L181.6905,268.3572 L191.6667,267.6669 L201.6429,267.8722 L211.619,267.7387 L221.5952,268.0193 L231.5714,268.1001 L241.5476,268.5622 L251.5238,268.676 L261.5,268.6869 L271.4762,268.1208 L281.4524,268.3994 L291.4286,268.7176 L301.4048,266.8197 L311.381,268.6859 L321.3571,267.3859 L331.3333,268.493 L341.3095,267.1212 L351.2857,267.6899 L361.2619,268.7701 L371.2381,267.7163 L381.2143,267.9217 L391.1905,268.2328 L401.1667,268.3362 L411.1429,267.776 L421.119,268.1642 L431.0952,267.018 L441.0714,268.1604 L451.0476,268.5122 L461.0238,268.374 L471,267.7813 " fill="none" style="stroke:#383838;stroke-width:1.0;stroke-dasharray:2.0,2.0;"/><text fill="#000000" font-family="FG Virgil" font-size="13" lengthAdjust="spacing" textLength="396" x="64" y="262.7153">mostra lista de tarefas pendentes e solicita a escolha de uma</text><polygon fill="#383838" points="455,292.9141,455.026,292.9791,456.9487,293.5858,459.0239,294.5739,461.0495,295.4378,462.9117,295.8933,465,296.9141,464.9904,296.89,462.9472,297.5821,460.9525,298.3954,458.9916,299.293,456.9144,299.9001,455,300.9141,455.1305,301.0446,455.6514,299.9655,456.5534,299.2674,457.5018,298.6159,458.1798,297.6938,459,296.9141,459.0161,296.9301,458.1925,296.1065,457.4421,295.3561,456.6564,294.5704,455.938,293.8521,455,292.9141" style="stroke:#383838;stroke-width:1.0;"/><path d="M47,296.9141 L47,297.1943 L57.0976,296.3616 L67.1951,297.1718 L77.2927,297.447 L87.3902,295.9629 L97.4878,296.8104 L107.5854,296.3454 L117.6829,296.4027 L127.7805,296.8232 L137.878,295.9922 L147.9756,297.6523 L158.0732,296.0737 L168.1707,296.6504 L178.2683,297.49 L188.3659,296.7997 L198.4634,297.005 L208.561,296.8715 L218.6585,297.1521 L228.7561,297.2329 L238.8537,297.695 L248.9512,297.8088 L259.0488,297.8197 L269.1463,297.2536 L279.2439,297.5322 L289.3415,297.8504 L299.439,295.9525 L309.5366,297.8187 L319.6341,296.5187 L329.7317,297.6258 L339.8293,296.254 L349.9268,296.8227 L360.0244,297.9029 L370.122,296.8491 L380.2195,297.0545 L390.3171,297.3656 L400.4146,297.469 L410.5122,296.9089 L420.6098,297.297 L430.7073,296.1508 L440.8049,297.2932 L450.9024,297.645 L461,296.9141 " fill="none" style="stroke:#383838;stroke-width:1.0;"/><text fill="#000000" font-family="FG Virgil" font-size="13" lengthAdjust="spacing" textLength="172" x="54" y="291.8481">insere os dados solicitados</text><polygon fill="#383838" points="711,322.0469,711.026,322.1119,712.9487,322.7186,715.0239,323.7067,717.0495,324.5706,718.9117,325.0261,721,326.0469,720.9904,326.0228,718.9472,326.7149,716.9525,327.5282,714.9916,328.4258,712.9144,329.0329,711,330.0469,711.1305,330.1774,711.6514,329.0983,712.5534,328.4003,713.5018,327.7487,714.1798,326.8267,715,326.0469,715.0161,326.063,714.1925,325.2393,713.4421,324.489,712.6564,323.7032,711.938,322.9849,711,322.0469" style="stroke:#383838;stroke-width:1.0;"/><path d="M477,326.0469 L477,326.3271 L487,325.4944 L497,326.3046 L507,326.5798 L517,325.0957 L527,325.9433 L537,325.4782 L547,325.5355 L557,325.956 L567,325.125 L577,326.7851 L587,325.2065 L597,325.7832 L607,326.6228 L617,325.9325 L627,326.1379 L637,326.0043 L647,326.2849 L657,326.3657 L667,326.8278 L677,326.9416 L687,326.9526 L697,326.3864 L707,326.665 L717,326.0469 " fill="none" style="stroke:#383838;stroke-width:1.0;"/><text fill="#000000" font-family="FG Virgil" font-size="13" lengthAdjust="spacing" textLength="141" x="484" y="320.981">adicionaColaborador()</text><polygon fill="#383838" points="953,351.1797,953.026,351.2447,954.9487,351.8515,957.0239,352.8395,959.0495,353.7034,960.9117,354.1589,963,355.1797,962.9904,355.1556,960.9472,355.8477,958.9525,356.661,956.9916,357.5586,954.9144,358.1657,953,359.1797,953.1305,359.3102,953.6514,358.2311,954.5534,357.5331,955.5018,356.8815,956.1798,355.9595,957,355.1797,957.0161,355.1958,956.1925,354.3722,955.4421,353.6218,954.6564,352.8361,953.938,352.1177,953,351.1797" style="stroke:#383838;stroke-width:1.0;"/><path d="M733,355.1797 L733,355.4599 L742.8261,354.6273 L752.6522,355.4374 L762.4783,355.7126 L772.3043,354.2285 L782.1304,355.0761 L791.9565,354.611 L801.7826,354.6684 L811.6087,355.0888 L821.4348,354.2579 L831.2609,355.9179 L841.087,354.3393 L850.913,354.916 L860.7391,355.7556 L870.5652,355.0653 L880.3913,355.2707 L890.2174,355.1371 L900.0435,355.4177 L909.8696,355.4985 L919.6957,355.9606 L929.5217,356.0744 L939.3478,356.0854 L949.1739,355.5192 L959,355.1797 " fill="none" style="stroke:#383838;stroke-width:1.0;"/><text fill="#000000" font-family="FG Virgil" font-size="13" lengthAdjust="spacing" textLength="213" x="740" y="350.1138">ser = getServicoByTarefa(tarefa)</text><polygon fill="#383838" points="1075,410.3125,1075.026,410.3775,1076.9487,410.9843,1079.0239,411.9723,1081.0495,412.8362,1082.9117,413.2917,1085,414.3125,1084.9904,414.2884,1082.9472,414.9805,1080.9525,415.7938,1078.9916,416.6914,1076.9144,417.2985,1075,418.3125,1075.1305,418.443,1075.6514,417.3639,1076.5534,416.6659,1077.5018,416.0143,1078.1798,415.0923,1079,414.3125,1079.0161,414.3286,1078.1925,413.505,1077.4421,412.7546,1076.6564,411.9689,1075.938,411.2505,1075,410.3125" style="stroke:#383838;stroke-width:1.0;"/><path d="M733,414.3125 L733,414.5927 L742.9429,413.7601 L752.8857,414.5702 L762.8286,414.8454 L772.7714,413.3613 L782.7143,414.2089 L792.6571,413.7438 L802.6,413.8012 L812.5429,414.2216 L822.4857,413.3907 L832.4286,415.0507 L842.3714,413.4721 L852.3143,414.0488 L862.2571,414.8884 L872.2,414.1981 L882.1429,414.4035 L892.0857,414.2699 L902.0286,414.5505 L911.9714,414.6313 L921.9143,415.0934 L931.8571,415.2072 L941.8,415.2182 L951.7429,414.652 L961.6857,414.9306 L971.6286,415.2488 L981.5714,413.3509 L991.5143,415.2172 L1001.4571,413.9172 L1011.4,415.0242 L1021.3429,413.6525 L1031.2857,414.2212 L1041.2286,415.3013 L1051.1714,414.2475 L1061.1143,414.4529 L1071.0571,414.764 L1081,414.3125 " fill="none" style="stroke:#383838;stroke-width:1.0;"/><text fill="#000000" font-family="FG Virgil" font-size="13" lengthAdjust="spacing" textLength="141" x="740" y="409.2466">adicionaColaborador()</text><polygon fill="#383838" points="953,469.4453,953.026,469.5104,954.9487,470.1171,957.0239,471.1051,959.0495,471.969,960.9117,472.4245,963,473.4453,962.9904,473.4213,960.9472,474.1133,958.9525,474.9266,956.9916,475.8242,954.9144,476.4313,953,477.4453,953.1305,477.5758,953.6514,476.4968,954.5534,475.7987,955.5018,475.1471,956.1798,474.2251,957,473.4453,957.0161,473.4614,956.1925,472.6378,955.4421,471.8874,954.6564,471.1017,953.938,470.3834,953,469.4453" style="stroke:#383838;stroke-width:1.0;"/><path d="M733,473.4453 L733,473.7256 L742.8261,472.8929 L752.6522,473.703 L762.4783,473.9782 L772.3043,472.4941 L782.1304,473.3417 L791.9565,472.8767 L801.7826,472.934 L811.6087,473.3544 L821.4348,472.5235 L831.2609,474.1835 L841.087,472.6049 L850.913,473.1816 L860.7391,474.0212 L870.5652,473.3309 L880.3913,473.5363 L890.2174,473.4027 L900.0435,473.6833 L909.8696,473.7642 L919.6957,474.2262 L929.5217,474.3401 L939.3478,474.351 L949.1739,473.7848 L959,473.4453 " fill="none" style="stroke:#383838;stroke-width:1.0;"/><text fill="#000000" font-family="FG Virgil" font-size="13" lengthAdjust="spacing" textLength="61" x="740" y="468.3794">save(ser)</text><polygon fill="#383838" points="53,528.5781,53.026,528.6432,50.9487,529.2499,49.0239,530.2379,47.0495,531.1018,44.9117,531.5573,43,532.5781,42.9904,532.5541,44.9472,533.2461,46.9525,534.0594,48.9916,534.957,50.9144,535.5642,53,536.5781,53.1305,536.7086,52.0514,535.6296,51.3534,534.9315,50.7018,534.2799,49.7798,533.3579,49,532.5781,49.0161,532.5942,49.7925,531.7706,50.6421,531.0202,51.4564,530.2345,52.338,529.5162,53,528.5781" style="stroke:#383838;stroke-width:1.0;"/><path d="M47,532.5781 L47,532.8584 L57.0952,532.0257 L67.1905,532.8358 L77.2857,533.111 L87.381,531.6269 L97.4762,532.4745 L107.5714,532.0095 L117.6667,532.0668 L127.7619,532.4872 L137.8571,531.6563 L147.9524,533.3163 L158.0476,531.7378 L168.1429,532.3144 L178.2381,533.1541 L188.3333,532.4638 L198.4286,532.6691 L208.5238,532.5355 L218.619,532.8162 L228.7143,532.897 L238.8095,533.359 L248.9048,533.4729 L259,533.4838 L269.0952,532.9176 L279.1905,533.1962 L289.2857,533.5144 L299.381,531.6165 L309.4762,533.4828 L319.5714,532.1828 L329.6667,533.2899 L339.7619,531.9181 L349.8571,532.4868 L359.9524,533.5669 L370.0476,532.5131 L380.1429,532.7185 L390.2381,533.0296 L400.3333,533.1331 L410.4286,532.5729 L420.5238,532.9611 L430.619,531.8149 L440.7143,532.9573 L450.8095,533.3091 L460.9048,533.1708 L471,532.5781 " fill="none" style="stroke:#383838;stroke-width:1.0;stroke-dasharray:2.0,2.0;"/><text fill="#000000" font-family="FG Virgil" font-size="13" lengthAdjust="spacing" textLength="190" x="59" y="527.5122">informa sucesso da operação</text><!--MD5=[4919e7c569e32ccd9cbf35fe6deec591]
@startuml
title SD - Consultar tarefas pendentes que um utilizador pode reivindicar


'http://plantuml.com/skinparam.html
skinparam handwritten true
skinparam monochrome true
skinparam packageStyle rect
skinparam defaultFontName FG Virgil
skinparam shadowing false

actor Utilizador as Actor
participant ConsultarReivindicarTarefaUI as UI <<presentation>>
control ConsultarReivindicarTarefaController as Controller <<application>>
database ServicoRepository as SRepository <<repository>>
participant "Servico" as Servico <<domain>>


activate Actor
Actor -> UI: pretende consultar tarefas pendentes que pode reivindicar
activate UI
UI -> Controller: getListaTarefasPendentes()
    activate Controller
    Controller -> SRepository: getListaTarefasPendentes()
        activate SRepository
        deactivate SRepository
    deactivate Controller
UI - -> Actor: mostra lista de tarefas pendentes e solicita a escolha de uma
deactivate UI

Actor -> UI: insere os dados solicitados
activate UI
UI -> Controller:  adicionaColaborador()
    activate Controller
    Controller -> SRepository: ser = getServicoByTarefa(tarefa)
        activate SRepository
        deactivate SRepository
    Controller -> Servico: adicionaColaborador()
        activate Servico
        deactivate Servico
    Controller -> SRepository: save(ser)
        activate SRepository
        deactivate SRepository
    deactivate Controller
UI - -> Actor: informa sucesso da operação
deactivate UI
deactivate Actor
@enduml

@startuml
title SD - Consultar tarefas pendentes que um utilizador pode reivindicar


skinparam handwritten true
skinparam monochrome true
skinparam packageStyle rect
skinparam defaultFontName FG Virgil
skinparam shadowing false

actor Utilizador as Actor
participant ConsultarReivindicarTarefaUI as UI <<presentation>>
control ConsultarReivindicarTarefaController as Controller <<application>>
database ServicoRepository as SRepository <<repository>>
participant "Servico" as Servico <<domain>>


activate Actor
Actor -> UI: pretende consultar tarefas pendentes que pode reivindicar
activate UI
UI -> Controller: getListaTarefasPendentes()
    activate Controller
    Controller -> SRepository: getListaTarefasPendentes()
        activate SRepository
        deactivate SRepository
    deactivate Controller
UI - -> Actor: mostra lista de tarefas pendentes e solicita a escolha de uma
deactivate UI

Actor -> UI: insere os dados solicitados
activate UI
UI -> Controller:  adicionaColaborador()
    activate Controller
    Controller -> SRepository: ser = getServicoByTarefa(tarefa)
        activate SRepository
        deactivate SRepository
    Controller -> Servico: adicionaColaborador()
        activate Servico
        deactivate Servico
    Controller -> SRepository: save(ser)
        activate SRepository
        deactivate SRepository
    deactivate Controller
UI - -> Actor: informa sucesso da operação
deactivate UI
deactivate Actor
@enduml

PlantUML version 1.2021.7beta2(Unknown compile time)
(GPL source distribution)
Java Runtime: Java(TM) SE Runtime Environment
JVM: Java HotSpot(TM) 64-Bit Server VM
Default Encoding: UTF-8
Language: en
Country: US
--></g></svg>