<?xml version="1.0" encoding="UTF-8" standalone="no"?><svg xmlns="http://www.w3.org/2000/svg" xmlns:xlink="http://www.w3.org/1999/xlink" contentScriptType="application/ecmascript" contentStyleType="text/css" height="303px" preserveAspectRatio="none" style="width:512px;height:303px;background:#FFFFFF;" version="1.1" viewBox="0 0 512 303" width="512px" zoomAndPan="magnify"><defs/><g><polygon fill="#FFFFFF" points="37,94.2969,37,94.3669,39,94.1588,41,94.3613,43,94.4301,45,94.0591,47,94.2969,46.9223,94.2969,46.5735,104.1634,46.6165,114.0298,46.9318,123.8963,46.3086,133.7628,47.5536,143.6293,46.3697,153.4957,46.8022,163.3622,47.4319,173.2287,46.9142,183.0952,47.0682,192.9616,47,202.8281,47,202.8175,45,202.8876,43,202.9078,41,203.0234,39,203.0518,37,202.8281,37.6793,202.8281,37.2546,192.9616,37.4636,183.0952,37.7022,173.2287,36.2788,163.3622,37.6785,153.4957,36.7035,143.6293,37.5338,133.7628,36.505,123.8963,36.9315,114.0298,37.7416,104.1634,37,94.2969" style="stroke:#383838;stroke-width:1.0;"/><polygon fill="#FFFFFF" points="467,115.4297,467,115.4997,469,115.2916,471,115.4941,473,115.5629,475,115.1919,477,115.4297,476.9741,115.4297,476.8578,121.2563,476.8722,127.0828,476.9773,132.9094,476.7695,138.7359,477,144.5625,477,144.747,475,144.3524,473,144.4966,471,144.7065,469,144.5339,467,144.5625,467.0227,144.5625,466.9894,138.7359,467.0595,132.9094,467.0797,127.0828,467.1952,121.2563,467,115.4297" style="stroke:#383838;stroke-width:1.0;"/><polygon fill="#FFFFFF" points="467,173.6953,467,173.7654,469,173.5572,471,173.7597,473,173.8285,475,173.4575,477,173.6953,476.9741,173.6953,476.8578,179.5219,476.8722,185.3484,476.9773,191.175,476.7695,197.0016,477,202.8281,477,203.0127,475,202.618,473,202.7622,471,202.9721,469,202.7995,467,202.8281,467.0227,202.8281,466.9894,197.0016,467.0595,191.175,467.0797,185.3484,467.1952,179.5219,467,173.6953" style="stroke:#383838;stroke-width:1.0;"/><path d="M42,84.2969 L42.2802,84.2969 L41.4476,94.0491 L42.2577,103.8013 L42.5329,113.5536 L41.0488,123.3058 L41.8964,133.058 L41.4313,142.8103 L41.4887,152.5625 L41.9091,162.3147 L41.0782,172.067 L42.7382,181.8192 L41.1596,191.5714 L41.7363,201.3237 L42.5759,211.0759 L42,220.8281 " fill="none" style="stroke:#383838;stroke-width:1.0;stroke-dasharray:5.0,5.0;"/><path d="M472,84.2969 L472.2802,84.2969 L471.4476,94.0491 L472.2577,103.8013 L472.5329,113.5536 L471.0488,123.3058 L471.8964,133.058 L471.4313,142.8103 L471.4887,152.5625 L471.9091,162.3147 L471.0782,172.067 L472.7382,181.8192 L471.1596,191.5714 L471.7363,201.3237 L472.5759,211.0759 L472,220.8281 " fill="none" style="stroke:#383838;stroke-width:1.0;stroke-dasharray:5.0,5.0;"/><text fill="#000000" font-family="FG Virgil" font-size="14" lengthAdjust="spacing" textLength="68" x="5" y="80.9951">Utilizador</text><polygon fill="#F8F8F8" points="50.0442,16.9459,48.8715,18.5482,47.4845,20.8951,45.5008,22.4767,43.4163,23.3415,41.7542,23.4166,39.618,22.3349,37.6023,21.6283,36.0724,20.1936,35.2699,18.5511,34.7939,17.2433,34.3277,15.5351,33.5709,14.0651,34.1525,12.6298,34.662,11.0576,36.574,9.8142,37.9192,8.2008,39.5843,7.665,41.5637,7.2037,44.1021,7.4778,45.4924,8.1335,47.1089,8.4307,49.0743,10.4443,49.7595,12.5701,50.0571,14.0206,49.72,16.4108" style="stroke:#383838;stroke-width:2.0;"/><path d="M42,23 L42.1868,23 L41.6317,28.4 L42.1718,33.8 L42.3553,39.2 L41.3659,44.6 L42,50 M29,31 L29,30.9309 L34.2,30.6209 L39.4,30.6591 L44.6,30.9394 L49.8,30.3854 L55,31 M42,50 L42.3719,50.3223 L38.9766,52.6331 L36.6672,55.8849 L34.4901,59.2515 L31.5424,61.9501 L29,65 M42,50 L42.0458,50.0397 L44.5785,52.9814 L47.3199,56.1039 L49.9606,59.1392 L52.7934,62.341 L55,65 " fill="none" style="stroke:#383838;stroke-width:2.0;"/><text fill="#000000" font-family="FG Virgil" font-size="14" lengthAdjust="spacing" textLength="68" x="5" y="232.8232">Utilizador</text><polygon fill="#F8F8F8" points="50.0442,248.0709,48.8715,249.6732,47.4845,252.0201,45.5008,253.6017,43.4163,254.4665,41.7542,254.5416,39.618,253.4599,37.6023,252.7533,36.0724,251.3186,35.2699,249.6761,34.7939,248.3683,34.3277,246.6601,33.5709,245.1901,34.1525,243.7548,34.662,242.1826,36.574,240.9392,37.9192,239.3258,39.5843,238.79,41.5637,238.3287,44.1021,238.6028,45.4924,239.2585,47.1089,239.5557,49.0743,241.5693,49.7595,243.6951,50.0571,245.1456,49.72,247.5358" style="stroke:#383838;stroke-width:2.0;"/><path d="M42,254.125 L42.1868,254.125 L41.6317,259.525 L42.1718,264.925 L42.3553,270.325 L41.3659,275.725 L42,281.125 M29,262.125 L29,262.0559 L34.2,261.7459 L39.4,261.7841 L44.6,262.0644 L49.8,261.5104 L55,262.125 M42,281.125 L42.3719,281.4473 L38.9766,283.7581 L36.6672,287.0099 L34.4901,290.3765 L31.5424,293.0751 L29,296.125 M42,281.125 L42.0458,281.1647 L44.5785,284.1064 L47.3199,287.2289 L49.9606,290.2642 L52.7934,293.466 L55,296.125 " fill="none" style="stroke:#383838;stroke-width:2.0;"/><polygon fill="#F8F8F8" points="438,53,438,53.2102,447.7143,52.5857,457.4286,53.1933,467.1429,53.3997,476.8571,52.2866,486.5714,52.9223,496.2857,52.5735,506,53,505.8722,53,505.9773,59.0594,505.7695,65.1188,506.1845,71.1781,505.7899,77.2375,506,83.2969,506,83.0991,496.2857,83.7288,486.5714,83.2111,476.8571,83.3651,467.1429,83.2649,457.4286,83.4754,447.7143,83.536,438,83.2969,438.1952,83.2969,438.2237,77.2375,438.2264,71.1781,438.0849,65.1188,438.1545,59.0594,438,53" style="stroke:#383838;stroke-width:1.5;"/><text fill="#000000" font-family="FG Virgil" font-size="14" lengthAdjust="spacing" textLength="54" x="445" y="72.9951">System</text><polygon fill="#F8F8F8" points="438,219.8281,438,220.0383,447.7143,219.4138,457.4286,220.0214,467.1429,220.2278,476.8571,219.1147,486.5714,219.7504,496.2857,219.4016,506,219.8281,505.8722,219.8281,505.9773,225.8875,505.7695,231.9469,506.1845,238.0063,505.7899,244.0656,506,250.125,506,249.9272,496.2857,250.5569,486.5714,250.0392,476.8571,250.1932,467.1429,250.0931,457.4286,250.3035,447.7143,250.3641,438,250.125,438.1952,250.125,438.2237,244.0656,438.2264,238.0063,438.0849,231.9469,438.1545,225.8875,438,219.8281" style="stroke:#383838;stroke-width:1.5;"/><text fill="#000000" font-family="FG Virgil" font-size="14" lengthAdjust="spacing" textLength="54" x="445" y="239.8232">System</text><polygon fill="#FFFFFF" points="37,94.2969,37,94.3669,39,94.1588,41,94.3613,43,94.4301,45,94.0591,47,94.2969,46.9223,94.2969,46.5735,104.1634,46.6165,114.0298,46.9318,123.8963,46.3086,133.7628,47.5536,143.6293,46.3697,153.4957,46.8022,163.3622,47.4319,173.2287,46.9142,183.0952,47.0682,192.9616,47,202.8281,47,202.8175,45,202.8876,43,202.9078,41,203.0234,39,203.0518,37,202.8281,37.6793,202.8281,37.2546,192.9616,37.4636,183.0952,37.7022,173.2287,36.2788,163.3622,37.6785,153.4957,36.7035,143.6293,37.5338,133.7628,36.505,123.8963,36.9315,114.0298,37.7416,104.1634,37,94.2969" style="stroke:#383838;stroke-width:1.0;"/><polygon fill="#FFFFFF" points="467,115.4297,467,115.4997,469,115.2916,471,115.4941,473,115.5629,475,115.1919,477,115.4297,476.9741,115.4297,476.8578,121.2563,476.8722,127.0828,476.9773,132.9094,476.7695,138.7359,477,144.5625,477,144.747,475,144.3524,473,144.4966,471,144.7065,469,144.5339,467,144.5625,467.0227,144.5625,466.9894,138.7359,467.0595,132.9094,467.0797,127.0828,467.1952,121.2563,467,115.4297" style="stroke:#383838;stroke-width:1.0;"/><polygon fill="#FFFFFF" points="467,173.6953,467,173.7654,469,173.5572,471,173.7597,473,173.8285,475,173.4575,477,173.6953,476.9741,173.6953,476.8578,179.5219,476.8722,185.3484,476.9773,191.175,476.7695,197.0016,477,202.8281,477,203.0127,475,202.618,473,202.7622,471,202.9721,469,202.7995,467,202.8281,467.0227,202.8281,466.9894,197.0016,467.0595,191.175,467.0797,185.3484,467.1952,179.5219,467,173.6953" style="stroke:#383838;stroke-width:1.0;"/><polygon fill="#383838" points="455,111.4297,455.026,111.4947,456.9487,112.1015,459.0239,113.0895,461.0495,113.9534,462.9117,114.4089,465,115.4297,464.9904,115.4056,462.9472,116.0977,460.9525,116.911,458.9916,117.8086,456.9144,118.4157,455,119.4297,455.1305,119.5602,455.6514,118.4811,456.5534,117.7831,457.5018,117.1315,458.1798,116.2095,459,115.4297,459.0161,115.4458,458.1925,114.6222,457.4421,113.8718,456.6564,113.0861,455.938,112.3677,455,111.4297" style="stroke:#383838;stroke-width:1.0;"/><path d="M47,115.4297 L47,115.7099 L57.0976,114.8773 L67.1951,115.6874 L77.2927,115.9626 L87.3902,114.4785 L97.4878,115.3261 L107.5854,114.861 L117.6829,114.9184 L127.7805,115.3388 L137.878,114.5079 L147.9756,116.1679 L158.0732,114.5893 L168.1707,115.166 L178.2683,116.0056 L188.3659,115.3153 L198.4634,115.5207 L208.561,115.3871 L218.6585,115.6677 L228.7561,115.7485 L238.8537,116.2106 L248.9512,116.3244 L259.0488,116.3354 L269.1463,115.7692 L279.2439,116.0478 L289.3415,116.366 L299.439,114.4681 L309.5366,116.3344 L319.6341,115.0343 L329.7317,116.1414 L339.8293,114.7697 L349.9268,115.3384 L360.0244,116.4185 L370.122,115.3647 L380.2195,115.5701 L390.3171,115.8812 L400.4146,115.9847 L410.5122,115.4245 L420.6098,115.8126 L430.7073,114.6665 L440.8049,115.8089 L450.9024,116.1606 L461,115.4297 " fill="none" style="stroke:#383838;stroke-width:1.0;"/><text fill="#000000" font-family="FG Virgil" font-size="13" lengthAdjust="spacing" textLength="377" x="54" y="110.3638">pretende consultar tarefas pendentes que pode reivindicar</text><polygon fill="#383838" points="58,140.5625,58.026,140.6275,55.9487,141.2343,54.0239,142.2223,52.0495,143.0862,49.9117,143.5417,48,144.5625,47.9904,144.5384,49.9472,145.2305,51.9525,146.0438,53.9916,146.9414,55.9144,147.5485,58,148.5625,58.1305,148.693,57.0514,147.6139,56.3534,146.9159,55.7018,146.2643,54.7798,145.3423,54,144.5625,54.0161,144.5786,54.7925,143.755,55.6421,143.0046,56.4564,142.2189,57.338,141.5005,58,140.5625" style="stroke:#383838;stroke-width:1.0;"/><path d="M52,144.5625 L52,144.8427 L61.9762,144.0101 L71.9524,144.8202 L81.9286,145.0954 L91.9048,143.6113 L101.881,144.4589 L111.8571,143.9938 L121.8333,144.0512 L131.8095,144.4716 L141.7857,143.6407 L151.7619,145.3007 L161.7381,143.7221 L171.7143,144.2988 L181.6905,145.1384 L191.6667,144.4481 L201.6429,144.6535 L211.619,144.5199 L221.5952,144.8005 L231.5714,144.8813 L241.5476,145.3434 L251.5238,145.4572 L261.5,145.4682 L271.4762,144.902 L281.4524,145.1806 L291.4286,145.4988 L301.4048,143.6009 L311.381,145.4672 L321.3571,144.1672 L331.3333,145.2742 L341.3095,143.9025 L351.2857,144.4712 L361.2619,145.5513 L371.2381,144.4975 L381.2143,144.7029 L391.1905,145.014 L401.1667,145.1175 L411.1429,144.5573 L421.119,144.9455 L431.0952,143.7993 L441.0714,144.9417 L451.0476,145.2934 L461.0238,145.1552 L471,144.5625 " fill="none" style="stroke:#383838;stroke-width:1.0;stroke-dasharray:2.0,2.0;"/><text fill="#000000" font-family="FG Virgil" font-size="13" lengthAdjust="spacing" textLength="396" x="64" y="139.4966">mostra lista de tarefas pendentes e solicita a escolha de uma</text><polygon fill="#383838" points="455,169.6953,455.026,169.7604,456.9487,170.3671,459.0239,171.3551,461.0495,172.219,462.9117,172.6745,465,173.6953,464.9904,173.6713,462.9472,174.3633,460.9525,175.1766,458.9916,176.0742,456.9144,176.6813,455,177.6953,455.1305,177.8258,455.6514,176.7468,456.5534,176.0487,457.5018,175.3971,458.1798,174.4751,459,173.6953,459.0161,173.7114,458.1925,172.8878,457.4421,172.1374,456.6564,171.3517,455.938,170.6334,455,169.6953" style="stroke:#383838;stroke-width:1.0;"/><path d="M47,173.6953 L47,173.9756 L57.0976,173.1429 L67.1951,173.953 L77.2927,174.2282 L87.3902,172.7441 L97.4878,173.5917 L107.5854,173.1267 L117.6829,173.184 L127.7805,173.6044 L137.878,172.7735 L147.9756,174.4335 L158.0732,172.8549 L168.1707,173.4316 L178.2683,174.2712 L188.3659,173.5809 L198.4634,173.7863 L208.561,173.6527 L218.6585,173.9333 L228.7561,174.0142 L238.8537,174.4762 L248.9512,174.5901 L259.0488,174.601 L269.1463,174.0348 L279.2439,174.3134 L289.3415,174.6316 L299.439,172.7337 L309.5366,174.6 L319.6341,173.3 L329.7317,174.4071 L339.8293,173.0353 L349.9268,173.604 L360.0244,174.6841 L370.122,173.6303 L380.2195,173.8357 L390.3171,174.1468 L400.4146,174.2503 L410.5122,173.6901 L420.6098,174.0783 L430.7073,172.9321 L440.8049,174.0745 L450.9024,174.4262 L461,173.6953 " fill="none" style="stroke:#383838;stroke-width:1.0;"/><text fill="#000000" font-family="FG Virgil" font-size="13" lengthAdjust="spacing" textLength="172" x="54" y="168.6294">insere os dados solicitados</text><polygon fill="#383838" points="53,198.8281,53.026,198.8932,50.9487,199.4999,49.0239,200.4879,47.0495,201.3518,44.9117,201.8073,43,202.8281,42.9904,202.8041,44.9472,203.4961,46.9525,204.3094,48.9916,205.207,50.9144,205.8142,53,206.8281,53.1305,206.9586,52.0514,205.8796,51.3534,205.1815,50.7018,204.5299,49.7798,203.6079,49,202.8281,49.0161,202.8442,49.7925,202.0206,50.6421,201.2702,51.4564,200.4845,52.338,199.7662,53,198.8281" style="stroke:#383838;stroke-width:1.0;"/><path d="M47,202.8281 L47,203.1084 L57.0952,202.2757 L67.1905,203.0858 L77.2857,203.361 L87.381,201.8769 L97.4762,202.7245 L107.5714,202.2595 L117.6667,202.3168 L127.7619,202.7372 L137.8571,201.9063 L147.9524,203.5663 L158.0476,201.9878 L168.1429,202.5644 L178.2381,203.4041 L188.3333,202.7138 L198.4286,202.9191 L208.5238,202.7855 L218.619,203.0662 L228.7143,203.147 L238.8095,203.609 L248.9048,203.7229 L259,203.7338 L269.0952,203.1676 L279.1905,203.4462 L289.2857,203.7644 L299.381,201.8665 L309.4762,203.7328 L319.5714,202.4328 L329.6667,203.5399 L339.7619,202.1681 L349.8571,202.7368 L359.9524,203.8169 L370.0476,202.7631 L380.1429,202.9685 L390.2381,203.2796 L400.3333,203.3831 L410.4286,202.8229 L420.5238,203.2111 L430.619,202.0649 L440.7143,203.2073 L450.8095,203.5591 L460.9048,203.4208 L471,202.8281 " fill="none" style="stroke:#383838;stroke-width:1.0;stroke-dasharray:2.0,2.0;"/><text fill="#000000" font-family="FG Virgil" font-size="13" lengthAdjust="spacing" textLength="190" x="59" y="197.7622">informa sucesso da operação</text><!--MD5=[53e9e55151022867ca4c1caa46523fdb]
@startuml
'http://plantuml.com/skinparam.html
skinparam handwritten true
skinparam monochrome true
skinparam packageStyle rect
skinparam defaultFontName FG Virgil
skinparam shadowing false

actor Utilizador as Actor
participant System as System
activate Actor
Actor -> System: pretende consultar tarefas pendentes que pode reivindicar
activate System
System - -> Actor: mostra lista de tarefas pendentes e solicita a escolha de uma
deactivate System

Actor -> System: insere os dados solicitados
activate System
System - -> Actor: informa sucesso da operação
deactivate System
deactivate Actor
@enduml

@startuml
skinparam handwritten true
skinparam monochrome true
skinparam packageStyle rect
skinparam defaultFontName FG Virgil
skinparam shadowing false

actor Utilizador as Actor
participant System as System
activate Actor
Actor -> System: pretende consultar tarefas pendentes que pode reivindicar
activate System
System - -> Actor: mostra lista de tarefas pendentes e solicita a escolha de uma
deactivate System

Actor -> System: insere os dados solicitados
activate System
System - -> Actor: informa sucesso da operação
deactivate System
deactivate Actor
@enduml

PlantUML version 1.2021.7beta2(Unknown compile time)
(GPL source distribution)
Java Runtime: Java(TM) SE Runtime Environment
JVM: Java HotSpot(TM) 64-Bit Server VM
Default Encoding: UTF-8
Language: en
Country: US
--></g></svg>