<?xml version="1.0" encoding="UTF-8" standalone="no"?><svg xmlns="http://www.w3.org/2000/svg" xmlns:xlink="http://www.w3.org/1999/xlink" contentScriptType="application/ecmascript" contentStyleType="text/css" height="141px" preserveAspectRatio="none" style="width:1239px;height:141px;background:#FFFFFF;" version="1.1" viewBox="0 0 1239 141" width="1239px" zoomAndPan="magnify"><defs/><g><!--MD5=[a8d192d33def16c012ce1a98d6300525]
class FluxoAtividade--><polygon fill="#F8F8F8" points="1112,74.059,1112,74.2692,1122,73.6447,1132,74.2523,1142,74.4587,1152,73.3456,1162,73.9813,1172,73.6325,1182,73.6755,1192,73.9908,1202,73.3676,1212,74.6126,1222,73.4287,1232,74.059,1231.8022,74.059,1232.4319,84.1931,1231.9142,94.3272,1232.0682,104.4613,1231.9681,114.5955,1232.1785,124.7296,1232,134.8637,1232,135.1028,1222,135.4494,1212,135.5347,1202,135.5429,1192,135.1183,1182,135.3273,1172,135.5659,1162,134.1425,1152,135.5422,1142,134.5672,1132,135.3975,1122,134.3687,1112,134.8637,1111.9315,134.8637,1112.7416,124.7296,1111.9513,114.5955,1112.1053,104.4613,1112.3386,94.3272,1112.4162,84.1931,1112,74.059" style="stroke:#383838;stroke-width:1.5;"/><polygon fill="#C2C2C2" points="1138.0608,92.7346,1136.4484,94.9378,1134.5412,98.1647,1131.8136,100.3394,1128.9474,101.5286,1126.662,101.6318,1123.7247,100.1445,1120.9532,99.1729,1118.8495,97.2002,1117.7461,94.9418,1117.0917,93.1435,1116.4506,90.7947,1115.41,88.7735,1116.2096,86.8,1116.9102,84.6382,1119.5393,82.9285,1121.389,80.7101,1123.6784,79.9734,1126.4001,79.3391,1129.8904,79.716,1131.8021,80.6175,1134.0247,81.0262,1136.7272,83.795,1137.6693,86.718,1138.0786,88.7124,1137.615,91.9989" style="stroke:#383838;stroke-width:1.0;"/><path d="M1129.3438,85.7309 C1128.4063,85.2934 1127.8125,85.1528 1126.9375,85.1528 C1124.3125,85.1528 1122.3125,87.2309 1122.3125,89.9496 L1122.3125,91.0746 C1122.3125,93.6528 1124.4219,95.5434 1127.3125,95.5434 C1128.5313,95.5434 1129.6875,95.2465 1130.4375,94.6996 C1131.0156,94.2934 1131.3438,93.8403 1131.3438,93.4496 C1131.3438,92.9965 1130.9531,92.6059 1130.4844,92.6059 C1130.2656,92.6059 1130.0625,92.684 1129.875,92.8715 C1129.4219,93.3559 1129.4219,93.3559 1129.2344,93.4496 C1128.8125,93.7153 1128.125,93.8403 1127.3594,93.8403 C1125.3125,93.8403 1124.0156,92.7465 1124.0156,91.0434 L1124.0156,89.9496 C1124.0156,88.1684 1125.2656,86.8559 1127,86.8559 C1127.5781,86.8559 1128.1875,87.0121 1128.6563,87.2621 C1129.1406,87.5434 1129.3125,87.7621 1129.4063,88.1684 C1129.4688,88.5746 1129.5,88.6996 1129.6406,88.8246 C1129.7813,88.9653 1130.0156,89.0746 1130.2344,89.0746 C1130.5,89.0746 1130.7656,88.934 1130.9375,88.7153 C1131.0469,88.559 1131.0781,88.3715 1131.0781,87.9496 L1131.0781,86.5278 C1131.0781,86.0903 1131.0625,85.9653 1130.9688,85.809 C1130.8125,85.5434 1130.5313,85.4028 1130.2344,85.4028 C1129.9375,85.4028 1129.7344,85.4965 1129.5156,85.809 L1129.3438,85.7309 Z " fill="#000000"/><text fill="#000000" font-family="FG Virgil" font-size="12" lengthAdjust="spacing" textLength="88" x="1141" y="94.2133">FluxoAtividade</text><path d="M1113,106.059 L1113,106.3392 L1122.8333,105.5066 L1132.6667,106.3167 L1142.5,106.5919 L1152.3333,105.1078 L1162.1667,105.9554 L1172,105.4903 L1181.8333,105.5477 L1191.6667,105.9681 L1201.5,105.1372 L1211.3333,106.7972 L1221.1667,105.2186 L1231,106.059 " fill="#F8F8F8" style="stroke:#383838;stroke-width:1.5;"/><path d="M1113,114.059 L1113,114.3392 L1122.8333,113.5066 L1132.6667,114.3167 L1142.5,114.5919 L1152.3333,113.1078 L1162.1667,113.9554 L1172,113.4903 L1181.8333,113.5477 L1191.6667,113.9681 L1201.5,113.1372 L1211.3333,114.7972 L1221.1667,113.2186 L1231,114.059 " fill="#F8F8F8" style="stroke:#383838;stroke-width:1.5;"/><text fill="#000000" font-family="FG Virgil" font-size="11" lengthAdjust="spacing" textLength="45" x="1118" y="128.2694">create()</text><!--MD5=[37de35b2239f3e75f2a4e341603fb23d]
class CatalogoRepository--><polygon fill="#F8F8F8" points="927,74.059,927,74.2692,937,73.6447,947,74.2523,957,74.4587,967,73.3456,977,73.9813,987,73.6325,997,73.6755,1007,73.9908,1017,73.3676,1027,74.6126,1037,73.4287,1047,73.8612,1057,74.4909,1067,73.9732,1077,74.059,1077.0682,74.059,1076.9681,84.1931,1077.1785,94.3272,1077.2391,104.4613,1077.5857,114.5955,1077.6711,124.7296,1077,134.8637,1077,135.5429,1067,135.1183,1057,135.3273,1047,135.5659,1037,134.1425,1027,135.5422,1017,134.5672,1007,135.3975,997,134.3687,987,134.7952,977,135.6053,967,134.815,957,134.969,947,135.2023,937,135.2799,927,134.8637,926.9961,134.8637,927.2872,124.7296,926.4276,114.5955,927.2844,104.4613,927.5482,94.3272,927.4445,84.1931,927,74.059" style="stroke:#383838;stroke-width:1.5;"/><polygon fill="#C2C2C2" points="953.0608,92.7346,951.4484,94.9378,949.5412,98.1647,946.8136,100.3394,943.9474,101.5286,941.662,101.6318,938.7247,100.1445,935.9532,99.1729,933.8495,97.2002,932.7461,94.9418,932.0917,93.1435,931.4506,90.7947,930.41,88.7735,931.2096,86.8,931.9102,84.6382,934.5393,82.9285,936.389,80.7101,938.6784,79.9734,941.4001,79.3391,944.8904,79.716,946.8021,80.6175,949.0247,81.0262,951.7272,83.795,952.6693,86.718,953.0786,88.7124,952.615,91.9989" style="stroke:#383838;stroke-width:1.0;"/><path d="M944.3438,85.7309 C943.4063,85.2934 942.8125,85.1528 941.9375,85.1528 C939.3125,85.1528 937.3125,87.2309 937.3125,89.9496 L937.3125,91.0746 C937.3125,93.6528 939.4219,95.5434 942.3125,95.5434 C943.5313,95.5434 944.6875,95.2465 945.4375,94.6996 C946.0156,94.2934 946.3438,93.8403 946.3438,93.4496 C946.3438,92.9965 945.9531,92.6059 945.4844,92.6059 C945.2656,92.6059 945.0625,92.684 944.875,92.8715 C944.4219,93.3559 944.4219,93.3559 944.2344,93.4496 C943.8125,93.7153 943.125,93.8403 942.3594,93.8403 C940.3125,93.8403 939.0156,92.7465 939.0156,91.0434 L939.0156,89.9496 C939.0156,88.1684 940.2656,86.8559 942,86.8559 C942.5781,86.8559 943.1875,87.0121 943.6563,87.2621 C944.1406,87.5434 944.3125,87.7621 944.4063,88.1684 C944.4688,88.5746 944.5,88.6996 944.6406,88.8246 C944.7813,88.9653 945.0156,89.0746 945.2344,89.0746 C945.5,89.0746 945.7656,88.934 945.9375,88.7153 C946.0469,88.559 946.0781,88.3715 946.0781,87.9496 L946.0781,86.5278 C946.0781,86.0903 946.0625,85.9653 945.9688,85.809 C945.8125,85.5434 945.5313,85.4028 945.2344,85.4028 C944.9375,85.4028 944.7344,85.4965 944.5156,85.809 L944.3438,85.7309 Z " fill="#000000"/><text fill="#000000" font-family="FG Virgil" font-size="12" lengthAdjust="spacing" textLength="118" x="956" y="94.2133">CatalogoRepository</text><path d="M928,106.059 L928,106.3392 L937.8667,105.5066 L947.7333,106.3167 L957.6,106.5919 L967.4667,105.1078 L977.3333,105.9554 L987.2,105.4903 L997.0667,105.5477 L1006.9333,105.9681 L1016.8,105.1372 L1026.6667,106.7972 L1036.5333,105.2186 L1046.4,105.7953 L1056.2667,106.6349 L1066.1333,105.9446 L1076,106.059 " fill="#F8F8F8" style="stroke:#383838;stroke-width:1.5;"/><path d="M928,114.059 L928,114.3392 L937.8667,113.5066 L947.7333,114.3167 L957.6,114.5919 L967.4667,113.1078 L977.3333,113.9554 L987.2,113.4903 L997.0667,113.5477 L1006.9333,113.9681 L1016.8,113.1372 L1026.6667,114.7972 L1036.5333,113.2186 L1046.4,113.7953 L1056.2667,114.6349 L1066.1333,113.9446 L1076,114.059 " fill="#F8F8F8" style="stroke:#383838;stroke-width:1.5;"/><text fill="#000000" font-family="FG Virgil" font-size="11" lengthAdjust="spacing" textLength="77" x="933" y="128.2694">getCatalogo()</text><!--MD5=[571dfd84f94b451ef35da58f48b34c72]
class FormularioRepository--><polygon fill="#F8F8F8" points="730.5,74.059,730.5,74.2692,740.5625,73.6447,750.625,74.2523,760.6875,74.4587,770.75,73.3456,780.8125,73.9813,790.875,73.6325,800.9375,73.6755,811,73.9908,821.0625,73.3676,831.125,74.6126,841.1875,73.4287,851.25,73.8612,861.3125,74.4909,871.375,73.9732,881.4375,74.1272,891.5,74.059,891.4681,74.059,891.6785,84.1931,891.7391,94.3272,892.0857,104.4613,892.1711,114.5955,892.1793,124.7296,891.5,134.8637,891.5,135.1183,881.4375,135.3273,871.375,135.5659,861.3125,134.1425,851.25,135.5422,841.1875,134.5672,831.125,135.3975,821.0625,134.3687,811,134.7952,800.9375,135.6053,790.875,134.815,780.8125,134.969,770.75,135.2023,760.6875,135.2799,750.625,134.8598,740.5625,135.1509,730.5,134.8637,729.9276,134.8637,730.7844,124.7296,731.0482,114.5955,730.9445,104.4613,731.113,94.3272,730.0169,84.1931,730.5,74.059" style="stroke:#383838;stroke-width:1.5;"/><polygon fill="#C2C2C2" points="756.5608,92.7346,754.9484,94.9378,753.0412,98.1647,750.3136,100.3394,747.4474,101.5286,745.162,101.6318,742.2247,100.1445,739.4532,99.1729,737.3495,97.2002,736.2461,94.9418,735.5917,93.1435,734.9506,90.7947,733.91,88.7735,734.7096,86.8,735.4102,84.6382,738.0393,82.9285,739.889,80.7101,742.1784,79.9734,744.9001,79.3391,748.3904,79.716,750.3021,80.6175,752.5247,81.0262,755.2272,83.795,756.1693,86.718,756.5786,88.7124,756.115,91.9989" style="stroke:#383838;stroke-width:1.0;"/><path d="M747.8438,85.7309 C746.9063,85.2934 746.3125,85.1528 745.4375,85.1528 C742.8125,85.1528 740.8125,87.2309 740.8125,89.9496 L740.8125,91.0746 C740.8125,93.6528 742.9219,95.5434 745.8125,95.5434 C747.0313,95.5434 748.1875,95.2465 748.9375,94.6996 C749.5156,94.2934 749.8438,93.8403 749.8438,93.4496 C749.8438,92.9965 749.4531,92.6059 748.9844,92.6059 C748.7656,92.6059 748.5625,92.684 748.375,92.8715 C747.9219,93.3559 747.9219,93.3559 747.7344,93.4496 C747.3125,93.7153 746.625,93.8403 745.8594,93.8403 C743.8125,93.8403 742.5156,92.7465 742.5156,91.0434 L742.5156,89.9496 C742.5156,88.1684 743.7656,86.8559 745.5,86.8559 C746.0781,86.8559 746.6875,87.0121 747.1563,87.2621 C747.6406,87.5434 747.8125,87.7621 747.9063,88.1684 C747.9688,88.5746 748,88.6996 748.1406,88.8246 C748.2813,88.9653 748.5156,89.0746 748.7344,89.0746 C749,89.0746 749.2656,88.934 749.4375,88.7153 C749.5469,88.559 749.5781,88.3715 749.5781,87.9496 L749.5781,86.5278 C749.5781,86.0903 749.5625,85.9653 749.4688,85.809 C749.3125,85.5434 749.0313,85.4028 748.7344,85.4028 C748.4375,85.4028 748.2344,85.4965 748.0156,85.809 L747.8438,85.7309 Z " fill="#000000"/><text fill="#000000" font-family="FG Virgil" font-size="12" lengthAdjust="spacing" textLength="129" x="759.5" y="94.2133">FormularioRepository</text><path d="M731.5,106.059 L731.5,106.3392 L741.4375,105.5066 L751.375,106.3167 L761.3125,106.5919 L771.25,105.1078 L781.1875,105.9554 L791.125,105.4903 L801.0625,105.5477 L811,105.9681 L820.9375,105.1372 L830.875,106.7972 L840.8125,105.2186 L850.75,105.7953 L860.6875,106.6349 L870.625,105.9446 L880.5625,106.15 L890.5,106.059 " fill="#F8F8F8" style="stroke:#383838;stroke-width:1.5;"/><path d="M731.5,114.059 L731.5,114.3392 L741.4375,113.5066 L751.375,114.3167 L761.3125,114.5919 L771.25,113.1078 L781.1875,113.9554 L791.125,113.4903 L801.0625,113.5477 L811,113.9681 L820.9375,113.1372 L830.875,114.7972 L840.8125,113.2186 L850.75,113.7953 L860.6875,114.6349 L870.625,113.9446 L880.5625,114.15 L890.5,114.059 " fill="#F8F8F8" style="stroke:#383838;stroke-width:1.5;"/><text fill="#000000" font-family="FG Virgil" font-size="11" lengthAdjust="spacing" textLength="86" x="736.5" y="128.2694">getFormulario()</text><!--MD5=[3c53b7d4816e778f4776984cb196eb7b]
class ServicoBootstrapper--><polygon fill="#F8F8F8" points="7,80.559,7,80.7692,16.875,80.1447,26.75,80.7523,36.625,80.9587,46.5,79.8456,56.375,80.4813,66.25,80.1325,76.125,80.1755,86,80.4908,95.875,79.8676,105.75,81.1126,115.625,79.9287,125.5,80.3612,135.375,80.9909,145.25,80.4732,155.125,80.6272,165,80.559,164.9681,80.559,165.1785,90.159,165.2391,99.759,165.5857,109.359,165.6711,118.959,165,128.559,165,129.2383,155.125,128.8136,145.25,129.0226,135.375,129.2612,125.5,127.8378,115.625,129.2375,105.75,128.2625,95.875,129.0928,86,128.064,76.125,128.4905,66.25,129.3006,56.375,128.5103,46.5,128.6643,36.625,128.8976,26.75,128.9752,16.875,128.5551,7,128.559,7.2872,128.559,6.4276,118.959,7.2844,109.359,7.5482,99.759,7.4445,90.159,7,80.559" style="stroke:#383838;stroke-width:1.5;"/><polygon fill="#C2C2C2" points="33.0608,99.2346,31.4484,101.4378,29.5412,104.6647,26.8136,106.8394,23.9474,108.0286,21.662,108.1318,18.7247,106.6445,15.9532,105.6729,13.8495,103.7002,12.7461,101.4418,12.0917,99.6435,11.4506,97.2947,10.41,95.2735,11.2096,93.3,11.9102,91.1382,14.5393,89.4285,16.389,87.2101,18.6784,86.4734,21.4001,85.8391,24.8904,86.216,26.8021,87.1175,29.0247,87.5262,31.7272,90.295,32.6693,93.218,33.0786,95.2124,32.615,98.4989" style="stroke:#383838;stroke-width:1.0;"/><path d="M24.3438,92.2309 C23.4063,91.7934 22.8125,91.6528 21.9375,91.6528 C19.3125,91.6528 17.3125,93.7309 17.3125,96.4496 L17.3125,97.5746 C17.3125,100.1528 19.4219,102.0434 22.3125,102.0434 C23.5313,102.0434 24.6875,101.7465 25.4375,101.1996 C26.0156,100.7934 26.3438,100.3403 26.3438,99.9496 C26.3438,99.4965 25.9531,99.1059 25.4844,99.1059 C25.2656,99.1059 25.0625,99.184 24.875,99.3715 C24.4219,99.8559 24.4219,99.8559 24.2344,99.9496 C23.8125,100.2153 23.125,100.3403 22.3594,100.3403 C20.3125,100.3403 19.0156,99.2465 19.0156,97.5434 L19.0156,96.4496 C19.0156,94.6684 20.2656,93.3559 22,93.3559 C22.5781,93.3559 23.1875,93.5121 23.6563,93.7621 C24.1406,94.0434 24.3125,94.2621 24.4063,94.6684 C24.4688,95.0746 24.5,95.1996 24.6406,95.3246 C24.7813,95.4653 25.0156,95.5746 25.2344,95.5746 C25.5,95.5746 25.7656,95.434 25.9375,95.2153 C26.0469,95.059 26.0781,94.8715 26.0781,94.4496 L26.0781,93.0278 C26.0781,92.5903 26.0625,92.4653 25.9688,92.309 C25.8125,92.0434 25.5313,91.9028 25.2344,91.9028 C24.9375,91.9028 24.7344,91.9965 24.5156,92.309 L24.3438,92.2309 Z " fill="#000000"/><text fill="#000000" font-family="FG Virgil" font-size="12" lengthAdjust="spacing" textLength="126" x="36" y="100.7133">ServicoBootstrapper</text><path d="M8,112.559 L8,112.8392 L17.75,112.0066 L27.5,112.8167 L37.25,113.0919 L47,111.6078 L56.75,112.4554 L66.5,111.9903 L76.25,112.0477 L86,112.4681 L95.75,111.6372 L105.5,113.2972 L115.25,111.7186 L125,112.2953 L134.75,113.1349 L144.5,112.4446 L154.25,112.65 L164,112.559 " fill="#F8F8F8" style="stroke:#383838;stroke-width:1.5;"/><path d="M8,120.559 L8,120.8392 L17.75,120.0066 L27.5,120.8167 L37.25,121.0919 L47,119.6078 L56.75,120.4554 L66.5,119.9903 L76.25,120.0477 L86,120.4681 L95.75,119.6372 L105.5,121.2972 L115.25,119.7186 L125,120.2953 L134.75,121.1349 L144.5,120.4446 L154.25,120.65 L164,120.559 " fill="#F8F8F8" style="stroke:#383838;stroke-width:1.5;"/><!--MD5=[0d4e5460865fab64524af805768c65c5]
class EspecificarServicoController--><polygon fill="#F8F8F8" points="200.5,74.059,200.5,74.2692,210.65,73.6447,220.8,74.2523,230.95,74.4587,241.1,73.3456,251.25,73.9813,261.4,73.6325,271.55,73.6755,281.7,73.9908,291.85,73.3676,302,74.6126,312.15,73.4287,322.3,73.8612,332.45,74.4909,342.6,73.9732,352.75,74.1272,362.9,74.0271,373.05,74.2375,383.2,74.2981,393.35,74.6447,403.5,74.059,404.1711,74.059,404.1793,84.1931,403.7546,94.3272,403.9636,104.4613,404.2022,114.5955,402.7788,124.7296,403.5,134.8637,403.5,135.5422,393.35,134.5672,383.2,135.3975,373.05,134.3687,362.9,134.7952,352.75,135.6053,342.6,134.815,332.45,134.969,322.3,135.2023,312.15,135.2799,302,134.8598,291.85,135.1509,281.7,134.2913,271.55,135.1481,261.4,135.4119,251.25,135.3082,241.1,135.4767,230.95,134.3806,220.8,134.2115,210.65,134.2423,200.5,134.8637,200.4411,134.8637,200.3035,124.7296,201.1814,114.5955,200.3253,104.4613,200.1569,94.3272,200.7283,84.1931,200.5,74.059" style="stroke:#383838;stroke-width:1.5;"/><polygon fill="#C2C2C2" points="226.5608,92.7346,224.9484,94.9378,223.0412,98.1647,220.3136,100.3394,217.4474,101.5286,215.162,101.6318,212.2247,100.1445,209.4532,99.1729,207.3495,97.2002,206.2461,94.9418,205.5917,93.1435,204.9506,90.7947,203.91,88.7735,204.7096,86.8,205.4102,84.6382,208.0393,82.9285,209.889,80.7101,212.1784,79.9734,214.9001,79.3391,218.3904,79.716,220.3021,80.6175,222.5247,81.0262,225.2272,83.795,226.1693,86.718,226.5786,88.7124,226.115,91.9989" style="stroke:#383838;stroke-width:1.0;"/><path d="M217.8438,85.7309 C216.9063,85.2934 216.3125,85.1528 215.4375,85.1528 C212.8125,85.1528 210.8125,87.2309 210.8125,89.9496 L210.8125,91.0746 C210.8125,93.6528 212.9219,95.5434 215.8125,95.5434 C217.0313,95.5434 218.1875,95.2465 218.9375,94.6996 C219.5156,94.2934 219.8438,93.8403 219.8438,93.4496 C219.8438,92.9965 219.4531,92.6059 218.9844,92.6059 C218.7656,92.6059 218.5625,92.684 218.375,92.8715 C217.9219,93.3559 217.9219,93.3559 217.7344,93.4496 C217.3125,93.7153 216.625,93.8403 215.8594,93.8403 C213.8125,93.8403 212.5156,92.7465 212.5156,91.0434 L212.5156,89.9496 C212.5156,88.1684 213.7656,86.8559 215.5,86.8559 C216.0781,86.8559 216.6875,87.0121 217.1563,87.2621 C217.6406,87.5434 217.8125,87.7621 217.9063,88.1684 C217.9688,88.5746 218,88.6996 218.1406,88.8246 C218.2813,88.9653 218.5156,89.0746 218.7344,89.0746 C219,89.0746 219.2656,88.934 219.4375,88.7153 C219.5469,88.559 219.5781,88.3715 219.5781,87.9496 L219.5781,86.5278 C219.5781,86.0903 219.5625,85.9653 219.4688,85.809 C219.3125,85.5434 219.0313,85.4028 218.7344,85.4028 C218.4375,85.4028 218.2344,85.4965 218.0156,85.809 L217.8438,85.7309 Z " fill="#000000"/><text fill="#000000" font-family="FG Virgil" font-size="12" lengthAdjust="spacing" textLength="171" x="229.5" y="94.2133">EspecificarServicoController</text><path d="M201.5,106.059 L201.5,106.3392 L211.55,105.5066 L221.6,106.3167 L231.65,106.5919 L241.7,105.1078 L251.75,105.9554 L261.8,105.4903 L271.85,105.5477 L281.9,105.9681 L291.95,105.1372 L302,106.7972 L312.05,105.2186 L322.1,105.7953 L332.15,106.6349 L342.2,105.9446 L352.25,106.15 L362.3,106.0164 L372.35,106.297 L382.4,106.3778 L392.45,106.8399 L402.5,106.059 " fill="#F8F8F8" style="stroke:#383838;stroke-width:1.5;"/><path d="M201.5,114.059 L201.5,114.3392 L211.55,113.5066 L221.6,114.3167 L231.65,114.5919 L241.7,113.1078 L251.75,113.9554 L261.8,113.4903 L271.85,113.5477 L281.9,113.9681 L291.95,113.1372 L302,114.7972 L312.05,113.2186 L322.1,113.7953 L332.15,114.6349 L342.2,113.9446 L352.25,114.15 L362.3,114.0164 L372.35,114.297 L382.4,114.3778 L392.45,114.8399 L402.5,114.059 " fill="#F8F8F8" style="stroke:#383838;stroke-width:1.5;"/><text fill="#000000" font-family="FG Virgil" font-size="11" lengthAdjust="spacing" textLength="113" x="206.5" y="128.2694">especificarServico()</text><!--MD5=[51865f8cbfe0824679c335d6e733f291]
class ServicoRepository--><polygon fill="#F8F8F8" points="438.5,74.059,438.5,74.2692,448.7143,73.6447,458.9286,74.2523,469.1429,74.4587,479.3571,73.3456,489.5714,73.9813,499.7857,73.6325,510,73.6755,520.2143,73.9908,530.4286,73.3676,540.6429,74.6126,550.8571,73.4287,561.0714,73.8612,571.2857,74.4909,581.5,74.059,581.4142,74.059,581.5682,84.1931,581.4681,94.3272,581.6785,104.4613,581.7391,114.5955,582.0857,124.7296,581.5,134.8637,581.5,135.5347,571.2857,135.5429,561.0714,135.1183,550.8571,135.3273,540.6429,135.5659,530.4286,134.1425,520.2143,135.5422,510,134.5672,499.7857,135.3975,489.5714,134.3687,479.3571,134.7952,469.1429,135.6053,458.9286,134.815,448.7143,134.969,438.5,134.8637,438.8386,134.8637,438.9162,124.7296,438.4961,114.5955,438.7872,104.4613,437.9276,94.3272,438.7844,84.1931,438.5,74.059" style="stroke:#383838;stroke-width:1.5;"/><polygon fill="#C2C2C2" points="464.5608,92.7346,462.9484,94.9378,461.0412,98.1647,458.3136,100.3394,455.4474,101.5286,453.162,101.6318,450.2247,100.1445,447.4532,99.1729,445.3495,97.2002,444.2461,94.9418,443.5917,93.1435,442.9506,90.7947,441.91,88.7735,442.7096,86.8,443.4102,84.6382,446.0393,82.9285,447.889,80.7101,450.1784,79.9734,452.9001,79.3391,456.3904,79.716,458.3021,80.6175,460.5247,81.0262,463.2272,83.795,464.1693,86.718,464.5786,88.7124,464.115,91.9989" style="stroke:#383838;stroke-width:1.0;"/><path d="M455.8438,85.7309 C454.9063,85.2934 454.3125,85.1528 453.4375,85.1528 C450.8125,85.1528 448.8125,87.2309 448.8125,89.9496 L448.8125,91.0746 C448.8125,93.6528 450.9219,95.5434 453.8125,95.5434 C455.0313,95.5434 456.1875,95.2465 456.9375,94.6996 C457.5156,94.2934 457.8438,93.8403 457.8438,93.4496 C457.8438,92.9965 457.4531,92.6059 456.9844,92.6059 C456.7656,92.6059 456.5625,92.684 456.375,92.8715 C455.9219,93.3559 455.9219,93.3559 455.7344,93.4496 C455.3125,93.7153 454.625,93.8403 453.8594,93.8403 C451.8125,93.8403 450.5156,92.7465 450.5156,91.0434 L450.5156,89.9496 C450.5156,88.1684 451.7656,86.8559 453.5,86.8559 C454.0781,86.8559 454.6875,87.0121 455.1563,87.2621 C455.6406,87.5434 455.8125,87.7621 455.9063,88.1684 C455.9688,88.5746 456,88.6996 456.1406,88.8246 C456.2813,88.9653 456.5156,89.0746 456.7344,89.0746 C457,89.0746 457.2656,88.934 457.4375,88.7153 C457.5469,88.559 457.5781,88.3715 457.5781,87.9496 L457.5781,86.5278 C457.5781,86.0903 457.5625,85.9653 457.4688,85.809 C457.3125,85.5434 457.0313,85.4028 456.7344,85.4028 C456.4375,85.4028 456.2344,85.4965 456.0156,85.809 L455.8438,85.7309 Z " fill="#000000"/><text fill="#000000" font-family="FG Virgil" font-size="12" lengthAdjust="spacing" textLength="111" x="467.5" y="94.2133">ServicoRepository</text><path d="M439.5,106.059 L439.5,106.3392 L449.5714,105.5066 L459.6429,106.3167 L469.7143,106.5919 L479.7857,105.1078 L489.8571,105.9554 L499.9286,105.4903 L510,105.5477 L520.0714,105.9681 L530.1429,105.1372 L540.2143,106.7972 L550.2857,105.2186 L560.3571,105.7953 L570.4286,106.6349 L580.5,106.059 " fill="#F8F8F8" style="stroke:#383838;stroke-width:1.5;"/><path d="M439.5,114.059 L439.5,114.3392 L449.5714,113.5066 L459.6429,114.3167 L469.7143,114.5919 L479.7857,113.1078 L489.8571,113.9554 L499.9286,113.4903 L510,113.5477 L520.0714,113.9681 L530.1429,113.1372 L540.2143,114.7972 L550.2857,113.2186 L560.3571,113.7953 L570.4286,114.6349 L580.5,114.059 " fill="#F8F8F8" style="stroke:#383838;stroke-width:1.5;"/><text fill="#000000" font-family="FG Virgil" font-size="11" lengthAdjust="spacing" textLength="77" x="444.5" y="128.2694">save(servico)</text><!--MD5=[faf4d635eea35b16677487bac6ad9bf5]
class Servico--><polygon fill="#F8F8F8" points="617,74.059,617,74.2692,626.75,73.6447,636.5,74.2523,646.25,74.4587,656,73.3456,665.75,73.9813,675.5,73.6325,685.25,73.6755,695,74.059,694.9318,74.059,694.3086,84.1931,695.5536,94.3272,694.3697,104.4613,694.8022,114.5955,695.4319,124.7296,695,134.8637,695,134.7779,685.25,134.9319,675.5,134.8317,665.75,135.0422,656,135.1028,646.25,135.4494,636.5,135.5347,626.75,135.5429,617,134.8637,617.2546,134.8637,617.4636,124.7296,617.7022,114.5955,616.2788,104.4613,617.6785,94.3272,616.7035,84.1931,617,74.059" style="stroke:#383838;stroke-width:1.5;"/><polygon fill="#C2C2C2" points="643.0608,92.7346,641.4484,94.9378,639.5412,98.1647,636.8136,100.3394,633.9474,101.5286,631.662,101.6318,628.7247,100.1445,625.9532,99.1729,623.8495,97.2002,622.7461,94.9418,622.0917,93.1435,621.4506,90.7947,620.41,88.7735,621.2096,86.8,621.9102,84.6382,624.5393,82.9285,626.389,80.7101,628.6784,79.9734,631.4001,79.3391,634.8904,79.716,636.8021,80.6175,639.0247,81.0262,641.7272,83.795,642.6693,86.718,643.0786,88.7124,642.615,91.9989" style="stroke:#383838;stroke-width:1.0;"/><path d="M634.3438,85.7309 C633.4063,85.2934 632.8125,85.1528 631.9375,85.1528 C629.3125,85.1528 627.3125,87.2309 627.3125,89.9496 L627.3125,91.0746 C627.3125,93.6528 629.4219,95.5434 632.3125,95.5434 C633.5313,95.5434 634.6875,95.2465 635.4375,94.6996 C636.0156,94.2934 636.3438,93.8403 636.3438,93.4496 C636.3438,92.9965 635.9531,92.6059 635.4844,92.6059 C635.2656,92.6059 635.0625,92.684 634.875,92.8715 C634.4219,93.3559 634.4219,93.3559 634.2344,93.4496 C633.8125,93.7153 633.125,93.8403 632.3594,93.8403 C630.3125,93.8403 629.0156,92.7465 629.0156,91.0434 L629.0156,89.9496 C629.0156,88.1684 630.2656,86.8559 632,86.8559 C632.5781,86.8559 633.1875,87.0121 633.6563,87.2621 C634.1406,87.5434 634.3125,87.7621 634.4063,88.1684 C634.4688,88.5746 634.5,88.6996 634.6406,88.8246 C634.7813,88.9653 635.0156,89.0746 635.2344,89.0746 C635.5,89.0746 635.7656,88.934 635.9375,88.7153 C636.0469,88.559 636.0781,88.3715 636.0781,87.9496 L636.0781,86.5278 C636.0781,86.0903 636.0625,85.9653 635.9688,85.809 C635.8125,85.5434 635.5313,85.4028 635.2344,85.4028 C634.9375,85.4028 634.7344,85.4965 634.5156,85.809 L634.3438,85.7309 Z " fill="#000000"/><text fill="#000000" font-family="FG Virgil" font-size="12" lengthAdjust="spacing" textLength="46" x="646" y="94.2133">Servico</text><path d="M618,106.059 L618,106.3392 L627.5,105.5066 L637,106.3167 L646.5,106.5919 L656,105.1078 L665.5,105.9554 L675,105.4903 L684.5,105.5477 L694,106.059 " fill="#F8F8F8" style="stroke:#383838;stroke-width:1.5;"/><path d="M618,114.059 L618,114.3392 L627.5,113.5066 L637,114.3167 L646.5,114.5919 L656,113.1078 L665.5,113.9554 L675,113.4903 L684.5,113.5477 L694,114.059 " fill="#F8F8F8" style="stroke:#383838;stroke-width:1.5;"/><text fill="#000000" font-family="FG Virgil" font-size="11" lengthAdjust="spacing" textLength="45" x="623" y="128.2694">create()</text><!--MD5=[85fcf35cc8fc398959cd56f9a3e44bb3]
link ServicoBootstrapper to FluxoAtividade--><path d="M120.791,80.4421 L120.8396,80.5219 L122.3981,79.2483 L124.2414,78.4424 L125.992,77.4842 L127.4376,76.0251 L129.3053,75.2594 L129.2881,75.2295 L131.035,74.045 L132.8688,73.0114 L134.763,72.0827 L136.449,70.7924 L138.4266,70.0086 L138.5434,70.2252 L140.22,68.7232 L142.2376,67.8535 L144.2967,67.061 L146.1139,65.8197 L148.0583,64.8144 L148.0719,64.8415 L150.0611,63.7991 L152.1121,62.8802 L154.1333,61.9018 L156.2112,61.037 L158.1041,59.8015 L158.2275,60.0731 L160.3017,59.1351 L162.2963,58.0219 L164.4074,57.1651 L166.524,56.3203 L168.4676,55.0948 L168.3476,54.7976 L170.6975,54.5193 L172.6522,53.2623 L174.9073,52.7493 L176.853,51.4702 L179.0524,50.819 L179.0424,50.7902 L181.3024,50.3863 L183.3291,49.3105 L185.4935,48.6311 L187.6694,47.985 L189.762,47.0988 L189.8123,47.2768 L191.9091,46.4892 L194.0919,46.0057 L196.1355,45.0301 L198.3868,44.7886 L200.5,44.059 L200.5484,44.2978 L202.6536,43.8244 L204.7828,43.4697 L206.8004,42.564 L208.8999,42.0621 L211.0717,41.918 L211.0318,41.6448 L213.8352,41.4873 L216.5936,41.0219 L219.4173,41.0031 L222.1295,40.2217 L224.908,39.8937 L224.8909,39.7422 L228.2959,39.6134 L231.6279,38.8369 L235.0118,38.521 L238.4466,38.6558 L241.7909,37.988 L241.8083,38.1809 L245.7626,37.9562 L249.6627,37.1317 L253.6307,37.0585 L257.5839,36.8216 L261.5026,36.2033 L261.487,35.9939 L265.964,35.8285 L270.4358,35.5945 L274.9177,35.4952 L279.3606,34.8721 L283.8253,34.5416 L283.838,34.7468 L288.7532,33.9887 L293.6929,33.6266 L298.6686,33.8431 L303.5782,32.9944 L308.5411,33.0052 L308.5529,33.2311 L313.9241,32.815 L319.2913,32.3226 L324.6675,32.0027 L330.0647,32.0815 L335.4322,31.596 L335.4263,31.4631 L341.2136,31.6029 L346.9608,30.8388 L352.7535,31.1024 L358.5206,30.7874 L364.2808,30.3164 L364.2849,30.4252 L370.3992,30.1078 L376.5282,30.18 L382.6439,29.9002 L388.7542,29.4732 L394.869,29.1685 L394.8728,29.2876 L401.2892,28.9078 L407.723,29.0811 L414.1372,28.6288 L420.5594,28.4338 L426.979,28.1543 L426.9719,27.8841 L433.657,27.7987 L440.3507,28.0389 L447.0323,27.8184 L453.7096,27.4327 L460.3929,27.2762 L460.3898,27.133 L467.2908,27.0309 L474.1864,26.6753 L481.0968,27.0165 L487.9999,27.0128 L494.8929,26.5362 L494.8969,26.7701 L501.9718,26.725 L509.0392,26.2355 L516.1145,26.2151 L523.1846,25.8841 L530.2612,25.9364 L530.2628,26.0626 L537.4663,25.9546 L544.6718,25.999 L551.8711,25.56 L559.0754,25.5108 L566.2799,25.4791 L566.2837,26.0704 L576.7301,26.1671 L587.166,24.659 L597.6141,25.0154 L608.0625,25.4046 L618.5011,24.3227 L628.9549,25.5399 L639.3971,25.0004 L639.3972,25.115 L646.7297,24.9522 L654.0623,25.0568 L661.395,25.314 L668.7274,24.8476 L676.06,24.9833 L676.0605,25.1233 L683.3489,25.137 L690.637,25.0883 L697.9254,25.1263 L705.2138,25.1409 L712.502,25.1172 L712.4998,24.8398 L719.7012,24.9965 L726.9016,25.027 L734.1041,25.3179 L741.3048,25.3861 L748.5052,25.4044 L748.5061,25.4763 L755.5728,25.3636 L762.6434,25.5514 L769.7124,25.6165 L776.7856,26.0148 L783.8517,25.8469 L783.855,26.0365 L790.7424,25.7512 L797.64,26.0545 L804.5305,25.9504 L811.4316,26.4551 L818.3238,26.4469 L818.33,26.7173 L825.0053,26.8409 L831.6713,26.5573 L838.3564,27.1089 L845.0201,26.7247 L851.7036,27.2066 L851.7061,27.2956 L858.1137,27.258 L864.5327,27.6182 L870.9484,27.8663 L877.3653,28.1536 L883.7732,28.1282 L883.7619,27.8084 L889.8891,28.5564 L895.9927,28.6415 L902.1038,28.9373 L908.2184,29.3287 L914.3149,29.2136 L914.315,29.2161 L920.0774,29.5418 L925.8373,29.8091 L931.5962,30.0522 L937.3515,30.2146 L943.1107,30.4653 L943.1274,30.7807 L948.4628,30.4786 L953.8569,31.2841 L959.1954,31.0402 L964.5638,31.3614 L969.9429,31.8851 L969.944,31.9029 L974.8738,32.2158 L979.7891,32.3027 L984.7451,33.0228 L989.6666,33.2057 L994.5936,33.4755 L994.6191,33.7974 L999.0673,34.1236 L1003.4784,33.982 L1007.9304,34.3569 L1012.3901,34.8286 L1016.8449,35.2384 L1016.8604,35.3956 L1020.7893,35.8042 L1024.7117,36.1466 L1028.6105,36.2497 L1032.58,37.07 L1036.4791,37.176 L1036.5142,37.4555 L1039.8363,37.5781 L1043.1854,37.9164 L1046.5363,38.2678 L1049.9064,38.7731 L1053.2782,39.2906 L1053.2882,39.3508 L1056.0224,39.7193 L1058.7461,40.0249 L1061.5616,40.8804 L1064.2416,40.9243 L1067.0244,41.5842 L1067.0758,41.8015 L1069.1632,42.264 L1071.2527,42.735 L1073.3805,43.3686 L1075.3798,43.4577 L1077.5,44.059 L1077.4552,43.9331 L1080.3816,45.2745 L1083.0196,45.8056 L1085.878,46.9558 L1088.7343,48.1004 L1091.5214,49.0503 L1091.5344,49.0779 L1094.1922,50.1904 L1096.9902,51.6017 L1099.8773,53.2029 L1102.5977,54.4486 L1105.2138,55.472 L1105.0834,55.2413 L1107.852,56.9831 L1110.3436,58.2346 L1113.0713,59.904 L1115.7622,61.5083 L1118.3192,62.8757 L1118.4206,63.0323 L1120.6108,64.2151 L1123.3203,66.1999 L1125.6777,67.641 L1127.9937,69.0181 L1130.58,70.8127 " fill="none" style="stroke:#383838;stroke-width:1.0;"/><polygon fill="#383838" points="1134.92,73.8436,1134.98,73.8799,1133.7826,72.0866,1132.9367,70.5058,1131.9763,68.8558,1130.6396,66.9783,1129.8238,65.4157,1129.7983,65.4112,1129.8827,66.5045,1130.0957,67.6208,1130.398,68.753,1130.3924,69.8303,1130.8181,70.9845,1130.8505,71.1662,1129.6674,70.9766,1128.579,71.3173,1127.5021,71.7228,1126.358,71.7518,1125.2493,71.9788,1125.2536,72.0011,1127.1814,72.3413,1129.1288,72.7832,1131.0668,73.1759,1133.0228,73.6623,1134.92,73.8436" style="stroke:#383838;stroke-width:1.0;"/><!--MD5=[c3d753a1cf35b149a827515fe72e7964]
link ServicoBootstrapper to CatalogoRepository--><path d="M120.791,80.4421 L120.8396,80.5219 L122.3981,79.2483 L124.2414,78.4424 L125.992,77.4842 L127.4376,76.0251 L129.3053,75.2594 L129.2881,75.2295 L131.035,74.045 L132.8688,73.0114 L134.763,72.0827 L136.449,70.7924 L138.4266,70.0086 L138.5434,70.2252 L140.22,68.7232 L142.2376,67.8535 L144.2967,67.061 L146.1139,65.8197 L148.0583,64.8144 L148.0719,64.8415 L150.0611,63.7991 L152.1121,62.8802 L154.1333,61.9018 L156.2112,61.037 L158.1041,59.8015 L158.2275,60.0731 L160.3017,59.1351 L162.2963,58.0219 L164.4074,57.1651 L166.524,56.3203 L168.4676,55.0948 L168.3476,54.7976 L170.6975,54.5193 L172.6522,53.2623 L174.9073,52.7493 L176.853,51.4702 L179.0524,50.819 L179.0424,50.7902 L181.3024,50.3863 L183.3291,49.3105 L185.4935,48.6311 L187.6694,47.985 L189.762,47.0988 L189.8123,47.2768 L191.9091,46.4892 L194.0919,46.0057 L196.1355,45.0301 L198.3868,44.7886 L200.5,44.059 L200.5544,44.2965 L203.4787,43.5797 L206.43,42.9808 L209.2559,41.8341 L212.1738,41.0889 L215.1731,40.6996 L215.1198,40.4286 L218.3709,40.0442 L221.5619,39.3544 L224.84,39.1075 L227.9694,38.1044 L231.1872,37.5509 L231.1617,37.4006 L234.6574,37.0634 L238.0439,36.0837 L241.5081,35.561 L245.0483,35.4853 L248.4531,34.6134 L248.4814,34.805 L252.1865,34.3912 L255.8034,33.3817 L259.5307,33.1184 L263.2339,32.6926 L266.8811,31.8879 L266.8543,31.6796 L270.7758,31.343 L274.6886,30.9382 L278.6186,30.6673 L282.4815,29.8756 L286.3819,29.3748 L286.4048,29.5791 L290.4512,28.6702 L294.5419,28.1557 L298.6973,28.2172 L302.7335,27.2181 L306.8659,27.0748 L306.8879,27.2999 L311.1504,26.749 L315.4055,26.1218 L319.6773,25.6666 L323.988,25.6087 L328.2437,24.9885 L328.2325,24.856 L332.7023,24.8763 L337.0959,23.9949 L341.5761,24.1388 L346.0076,23.7054 L350.4259,23.1166 L350.4338,23.2252 L355.0068,22.8061 L359.608,22.7758 L364.1838,22.3943 L368.749,21.866 L373.323,21.4595 L373.3303,21.5785 L378.0239,21.1134 L382.7514,21.2007 L387.4407,20.6633 L392.1456,20.3828 L396.8454,20.018 L396.8317,19.748 L401.648,19.593 L406.4808,19.7634 L411.2902,19.4735 L416.0912,19.0186 L420.9039,18.7926 L420.898,18.6495 L425.8009,18.4936 L430.6933,18.0844 L435.6144,18.3716 L440.5213,18.3141 L445.4088,17.7839 L445.4163,18.0178 L450.391,17.9344 L455.3517,17.4067 L460.3272,17.3479 L465.2929,16.9787 L470.2708,16.9926 L470.2737,17.1188 L475.2992,16.9876 L480.3282,17.0087 L485.3462,16.5465 L490.373,16.4742 L495.4003,16.4192 L495.4031,16.6163 L500.4654,16.6004 L505.5202,16.0495 L510.5837,16.1202 L515.6474,16.2017 L520.708,16.0644 L520.7065,15.7929 L525.7881,16.1943 L530.8671,16.1248 L535.9455,15.9382 L541.0253,16.0191 L546.1043,15.9287 L546.1053,16.2526 L551.1829,15.8065 L556.2629,16.1024 L561.342,16.1062 L566.4208,16.0475 L571.4997,16.0129 L571.5005,16.0755 L576.5614,16.1242 L581.6185,15.8573 L586.6807,16.0174 L591.7414,16.0513 L596.8049,16.3173 L596.8055,16.3457 L601.8308,16.4616 L606.8566,16.5994 L611.8775,16.5033 L616.9047,16.7077 L621.9304,16.8428 L621.9288,16.7894 L626.9094,17.2485 L631.8786,17.3311 L636.8377,17.0753 L641.8144,17.4081 L646.7867,17.5899 L646.7765,17.3335 L651.6912,17.9118 L656.5964,18.2478 L661.4948,18.4132 L666.3771,18.1718 L671.2843,18.5591 L671.2945,18.7651 L676.0778,18.4678 L680.9085,19.1248 L685.7074,19.1415 L690.526,19.5557 L695.3337,19.7511 L695.3402,19.8578 L700.0487,20.2437 L704.7193,19.9979 L709.4536,20.8114 L714.148,20.9626 L718.8456,21.1666 L718.8569,21.3241 L723.4463,21.826 L727.9997,21.8248 L732.5821,22.228 L737.1603,22.5728 L741.7305,22.8061 L741.7378,22.8934 L746.1641,23.1785 L750.6243,23.8665 L755.0088,23.6545 L759.4862,24.5477 L763.8988,24.6701 L763.8718,24.3941 L768.1479,24.849 L772.4455,25.5236 L776.7174,25.9362 L780.9674,26.1236 L785.2612,26.7595 L785.2818,26.9422 L789.36,27.2706 L793.4842,28.0064 L797.5746,28.4431 L801.6123,28.4136 L805.7281,29.0746 L805.7052,28.8992 L809.6171,29.526 L813.5413,30.2479 L817.4405,30.7771 L821.331,31.2406 L825.2101,31.6162 L825.1875,31.4659 L828.9337,32.4496 L832.6151,33.0022 L836.2516,33.2566 L839.9204,33.726 L843.6178,34.3848 L843.5872,34.209 L847.0502,34.8901 L850.5258,35.6435 L853.9589,36.1526 L857.3811,36.5989 L860.8616,37.3811 L860.9044,37.5934 L864.0194,37.826 L867.302,38.8898 L870.4935,39.5019 L873.6867,40.1227 L876.8522,40.6056 L876.9228,40.9052 L879.7567,41.1899 L882.6806,41.8569 L885.6938,42.9021 L888.5096,43.1101 L891.5,44.059 L891.4691,43.9597 L894.7534,45.1151 L897.9853,46.1024 L901.167,46.9282 L904.4468,48.0692 L907.6906,49.0946 L907.8156,49.401 L910.9927,50.6637 L913.977,51.4536 L917.2835,53.0336 L920.3773,54.092 L923.6568,55.6057 L923.6516,55.5952 L926.7933,57.2263 L929.8975,58.7805 L932.7655,59.8509 L936.0527,61.7799 L939.054,63.1235 L939.0558,63.1268 L941.8309,64.5189 L944.7459,66.1628 L947.815,68.0838 L950.6952,69.6651 L953.538,71.1792 " fill="none" style="stroke:#383838;stroke-width:1.0;"/><polygon fill="#383838" points="958.18,73.949,958.2372,73.9894,956.9312,72.2601,955.9607,70.7677,954.881,69.1982,953.4419,67.375,952.5002,65.9029,952.4751,65.8965,952.6396,66.9649,952.9306,68.0653,953.3097,69.188,953.3855,70.234,953.8861,71.3873,953.9313,71.5663,952.7377,71.4608,951.6761,71.8778,950.6306,72.3584,949.4915,72.4683,948.4016,72.7732,948.4043,72.7958,950.356,72.9978,952.3201,73.3026,954.2781,73.5578,956.2476,73.9077,958.18,73.949" style="stroke:#383838;stroke-width:1.0;"/><!--MD5=[c5e00339c37aa1eb6a44425ba435b25a]
link ServicoBootstrapper to FormularioRepository--><path d="M120.791,80.4421 L120.8396,80.5219 L122.3981,79.2483 L124.2414,78.4424 L125.992,77.4842 L127.4376,76.0251 L129.3053,75.2594 L129.2881,75.2295 L131.035,74.045 L132.8688,73.0114 L134.763,72.0827 L136.449,70.7924 L138.4266,70.0086 L138.5434,70.2252 L140.22,68.7232 L142.2376,67.8535 L144.2967,67.061 L146.1139,65.8197 L148.0583,64.8144 L148.0719,64.8415 L150.0611,63.7991 L152.1121,62.8802 L154.1333,61.9018 L156.2112,61.037 L158.1041,59.8015 L158.2275,60.0731 L160.3017,59.1351 L162.2963,58.0219 L164.4074,57.1651 L166.524,56.3203 L168.4676,55.0948 L168.3476,54.7976 L170.6975,54.5193 L172.6522,53.2623 L174.9073,52.7493 L176.853,51.4702 L179.0524,50.819 L179.0424,50.7902 L181.3024,50.3863 L183.3291,49.3105 L185.4935,48.6311 L187.6694,47.985 L189.762,47.0988 L189.8123,47.2768 L191.9091,46.4892 L194.0919,46.0057 L196.1355,45.0301 L198.3868,44.7886 L200.5,44.059 L200.5543,44.2965 L202.6461,43.7708 L204.7649,43.3631 L206.7584,42.4075 L208.8437,41.8534 L211.0104,41.6553 L210.9573,41.3842 L213.2994,41.1801 L215.5816,40.6705 L217.9506,40.6039 L220.1714,39.781 L222.4802,39.4076 L222.4548,39.2573 L224.9702,39.0894 L227.3769,38.2788 L229.8609,37.9252 L232.4206,38.0188 L234.8455,37.3161 L234.8736,37.5076 L237.5323,37.2519 L240.1035,36.4003 L242.7842,36.295 L245.441,36.0271 L248.0423,35.3804 L248.0157,35.1721 L250.8298,34.9821 L253.6351,34.724 L256.4575,34.5998 L259.2135,33.9546 L262.0066,33.6005 L262.0292,33.8049 L264.9131,33.0311 L267.8407,32.6517 L270.832,32.8485 L273.7059,31.9845 L276.6745,31.9764 L276.6961,32.2016 L279.7448,31.7741 L282.7862,31.2704 L285.8441,30.9387 L288.9401,31.0045 L291.9821,30.5078 L291.9711,30.3753 L295.1804,30.5074 L298.3152,29.7378 L301.5347,29.9935 L304.7064,29.6719 L307.8654,29.1948 L307.873,29.3034 L311.1458,28.9842 L314.4461,29.0539 L317.7216,28.7722 L320.9867,28.3437 L324.2604,28.0372 L324.2674,28.1561 L327.6255,27.7789 L331.0164,27.9541 L334.3701,27.5044 L337.7392,27.3118 L341.1032,27.0348 L341.0899,26.7647 L344.5396,26.6855 L348.0054,26.9315 L351.4485,26.7173 L354.8835,26.338 L358.3298,26.1876 L358.3242,26.0445 L361.8353,25.952 L365.3364,25.6061 L368.865,25.9566 L372.38,25.9624 L375.8763,25.4955 L375.8834,25.7294 L379.4461,25.6968 L382.9955,25.2199 L386.559,25.212 L390.1131,24.8937 L393.6788,24.9584 L393.6815,25.0846 L397.28,24.9916 L400.8818,25.051 L404.4733,24.627 L408.0731,24.5929 L411.6733,24.5762 L411.6758,24.7733 L415.3009,24.7828 L418.9194,24.2574 L422.5457,24.3535 L426.1721,24.4605 L429.7958,24.3487 L429.7947,24.0772 L433.4337,24.4912 L437.0709,24.4342 L440.7076,24.2602 L444.3453,24.3537 L447.9824,24.2759 L447.9838,24.5997 L451.6191,24.1532 L455.2577,24.4486 L458.895,24.4519 L462.532,24.3927 L466.1691,24.3576 L466.1699,24.4202 L469.7943,24.4553 L473.4147,24.1747 L477.0405,24.3212 L480.6648,24.3415 L484.292,24.5938 L484.2926,24.6222 L487.8919,24.7111 L491.4916,24.8219 L495.0863,24.6988 L498.6875,24.8762 L502.2872,24.9843 L502.2855,24.9309 L505.8557,25.3495 L509.4144,25.3917 L512.9626,25.0955 L516.5289,25.3878 L520.0906,25.5291 L520.0804,25.2728 L523.6053,25.797 L527.1205,26.0789 L530.6289,26.1903 L534.1211,25.8948 L537.6384,26.228 L537.6486,26.434 L541.0677,26.0689 L544.534,26.658 L547.9687,26.6069 L551.423,26.9533 L554.8665,27.081 L554.8729,27.1876 L558.248,27.4918 L561.5853,27.1643 L564.9859,27.896 L568.3469,27.9655 L571.7111,28.0878 L571.7223,28.2454 L575.014,28.6515 L578.2701,28.5545 L581.5549,28.8619 L584.8355,29.111 L588.1082,29.2485 L588.1154,29.3359 L591.2853,29.511 L594.4885,30.0891 L597.6172,29.7671 L600.8374,30.5504 L603.9938,30.5629 L603.9673,30.2869 L607.0329,30.6175 L610.1196,31.1678 L613.1811,31.4562 L616.221,31.5193 L619.304,32.0309 L619.3242,32.2137 L622.2435,32.4033 L625.2078,33.0006 L628.139,33.2985 L631.0187,33.1301 L633.9748,33.6525 L633.9525,33.477 L636.7611,33.9505 L639.5817,34.5192 L642.3779,34.8951 L645.1657,35.2052 L647.9423,35.4274 L647.9203,35.277 L650.6232,36.0929 L653.2631,36.4774 L655.8594,36.5635 L658.4871,36.8648 L661.1425,37.3556 L661.1129,37.1797 L663.6005,37.6778 L666.1002,38.2484 L668.5588,38.5745 L671.0069,38.8376 L673.5115,39.437 L673.5529,39.6496 L675.7673,39.6837 L678.1437,40.55 L680.4321,40.9641 L682.7221,41.3868 L684.9853,41.6715 L685.0535,41.9717 L687.064,42.0424 L689.1616,42.4962 L691.3452,43.3289 L693.3383,43.3228 L695.5,44.059 L695.4702,43.9594 L698.9072,45.1237 L702.2936,46.1192 L705.6317,46.9528 L709.0643,48.1026 L712.4622,49.1364 L712.5831,49.4445 L715.9203,50.7202 L719.0711,51.5206 L722.5335,53.1153 L725.7901,54.1856 L729.2264,55.7137 L729.2214,55.7031 L732.5196,57.3508 L735.7814,58.921 L738.8146,60.0037 L742.2536,61.9515 L745.4158,63.3095 L745.4176,63.3128 L748.3472,64.7183 L751.4125,66.3779 L754.6271,68.3172 L757.6587,69.9137 L760.654,71.4423 " fill="none" style="stroke:#383838;stroke-width:1.0;"/><polygon fill="#383838" points="765.019,73.9356,765.0755,73.9771,763.7415,72.2664,762.7385,70.7989,761.6278,69.2521,760.1626,67.445,759.188,65.9984,759.163,65.9915,759.3487,67.0524,759.6604,68.1476,760.0597,69.2668,760.1572,70.3035,760.6774,71.4556,760.726,71.6337,759.5306,71.5508,758.4771,71.9878,757.4409,72.4882,756.304,72.6195,755.2201,72.945,755.2224,72.9676,757.1788,73.1325,759.1456,73.4004,761.1075,73.6187,763.0789,73.9317,765.019,73.9356" style="stroke:#383838;stroke-width:1.0;"/><!--MD5=[59df0b78ff33e094c8d75273997a7b63]
link ServicoBootstrapper to EspecificarServicoController--><path d="M165.312,104.559 L165.312,104.6524 L171.2684,104.3749 L177.2248,104.6449 L183.1812,104.7366 L189.1376,104.2419 L195.094,104.559 " fill="none" style="stroke:#383838;stroke-width:1.0;"/><polygon fill="#383838" points="200.285,104.559,200.3135,104.623,198.4289,103.6328,196.7112,103.0179,194.9391,102.2807,192.9884,101.1417,191.285,100.559,191.2667,100.5407,191.9845,101.2585,192.7946,102.0686,193.6689,102.9429,194.322,103.596,195.285,104.559,195.4155,104.6895,194.3364,105.2104,193.6384,106.1124,192.9868,107.0608,192.0648,107.7388,191.285,108.559,191.2942,108.5798,193.0807,107.7493,194.9092,107.0134,196.7174,106.2318,198.5643,105.5374,200.285,104.559" style="stroke:#383838;stroke-width:1.0;"/><!--MD5=[3b4e9fec8f9a906b2809fbf725460666]
link EspecificarServicoController to Servico--><path d="M356.675,74.0529 L356.7152,74.1372 L358.4619,72.9962 L360.4444,72.3495 L362.3501,71.5418 L364.0032,70.2049 L366.0059,69.6006 L365.9917,69.5691 L367.8752,68.5471 L369.8304,67.6838 L371.8355,66.9307 L373.6687,65.7975 L375.7427,65.1968 L375.839,65.4232 L377.6467,64.0831 L379.7355,63.4042 L381.8585,62.8059 L383.7821,61.7383 L385.8106,60.9176 L385.8217,60.9458 L387.8702,60.0887 L389.9694,59.3601 L392.0441,58.5695 L394.1655,57.897 L396.1348,56.8393 L396.2362,57.1197 L398.3386,56.3629 L400.3756,55.4252 L402.5083,54.7523 L404.6456,54.0918 L406.6405,53.0381 L406.5415,52.7332 L408.8562,52.6353 L410.8449,51.5336 L413.0814,51.195 L415.0626,50.0705 L417.2532,49.5902 L417.2449,49.5609 L419.472,49.3036 L421.5051,48.3619 L423.6528,47.8241 L425.81,47.3202 L427.8979,46.5717 L427.9406,46.7517 L430.0179,46.0675 L432.1682,45.6908 L434.2005,44.8165 L436.4087,44.6845 L438.5,44.059 L438.5514,44.2972 L442.8497,43.322 L447.1734,42.465 L451.3786,41.0587 L455.6707,40.055 L460.0398,39.4082 L459.9833,39.1379 L463.7569,38.6043 L467.4669,37.7662 L471.2693,37.3699 L474.914,36.2193 L478.6524,35.517 L478.6266,35.3667 L481.9946,35.0476 L485.2525,34.0861 L488.5887,33.5814 L492.0014,33.5237 L495.2778,32.67 L495.2966,32.8628 L498.4251,32.6913 L501.4952,31.9204 L504.6385,31.9003 L507.7659,31.7167 L510.8561,31.1519 L510.8548,30.9419 L513.9501,31.1283 L517.045,31.246 L520.1407,31.4987 L523.2332,31.2262 L526.3275,31.2471 L526.3524,31.4512 L529.5585,31.4014 L532.8127,31.7456 L536.1372,32.6652 L539.3323,32.5254 L542.6318,33.2403 L542.6827,33.4607 L546.268,34.1649 L549.836,34.7946 L553.4429,35.5926 L557.1397,36.7796 L560.7093,37.4161 L560.6711,37.2886 L562.7843,38.2671 L564.6378,38.3789 L566.7865,39.4761 L568.769,40.0185 L570.7068,40.4114 L570.7416,40.5145 L572.8721,41.1608 L575.1274,42.1764 L577.27,42.8583 L579.3654,43.4007 L581.5,44.059 L581.5473,44.1684 L583.7667,44.9966 L586.2058,46.3327 L588.3963,47.0943 L590.6891,48.0922 L592.9483,49.0125 L592.8133,48.7783 L595.0515,50.1202 L597.4524,51.7443 L599.6231,52.969 L601.7113,54.0507 L603.914,55.3309 L603.8317,55.2137 L605.924,56.7035 L607.8705,57.9859 L610.2178,59.8384 L612.3668,61.4088 L614.2437,62.5921 L614.3916,62.7734 L616.347,64.388 L618.0214,65.658 L619.9924,67.2917 L621.767,68.6846 L623.784,70.3746 " fill="none" style="stroke:#383838;stroke-width:1.0;"/><polygon fill="#383838" points="627.798,73.9516,627.8618,73.9805,626.8607,72.0998,626.2339,70.3884,625.4851,68.6218,624.3356,66.6741,623.7409,64.9772,623.715,64.9757,623.6639,66.0985,623.7431,67.2289,623.9129,68.3644,623.7705,69.482,624.0654,70.6247,624.076,70.809,622.9239,70.4799,621.8027,70.6887,620.6852,70.9632,619.5458,70.8558,618.4179,70.9493,618.4248,70.9709,620.2907,71.5396,622.1881,72.2069,624.0703,72.8266,625.9815,73.5371,627.798,73.9516" style="stroke:#383838;stroke-width:1.0;"/><!--MD5=[940c857166f2eb81e7b5e98b55ae5065]
link EspecificarServicoController to ServicoRepository--><path d="M403.562,104.559 L403.562,104.6524 L409.5102,104.3749 L415.4584,104.6449 L421.4066,104.7366 L427.3548,104.2419 L433.303,104.559 " fill="none" style="stroke:#383838;stroke-width:1.0;"/><polygon fill="#383838" points="438.487,104.559,438.5155,104.623,436.6309,103.6328,434.9132,103.0179,433.1411,102.2807,431.1904,101.1417,429.487,100.559,429.4687,100.5407,430.1865,101.2585,430.9966,102.0686,431.8709,102.9429,432.524,103.596,433.487,104.559,433.6175,104.6895,432.5384,105.2104,431.8404,106.1124,431.1888,107.0608,430.2668,107.7388,429.487,108.559,429.4962,108.5798,431.2827,107.7493,433.1112,107.0134,434.9194,106.2318,436.7663,105.5374,438.487,104.559" style="stroke:#383838;stroke-width:1.0;"/><!--MD5=[e5e6873ea1252ff92188b2ccb28e8611]
@startuml
'http://plantuml.com/skinparam.html
skinparam handwritten true
skinparam monochrome true
skinparam packageStyle rect
skinparam defaultFontName FG Virgil
skinparam shadowing false

class FluxoAtividade
class CatalogoRepository
class FormularioRepository
class ServicoBootstrapper
class EspecificarServicoController
class ServicoRepository
class Servico

ServicoBootstrapper -> FluxoAtividade
ServicoBootstrapper -> CatalogoRepository
ServicoBootstrapper -> FormularioRepository
ServicoBootstrapper -> EspecificarServicoController

EspecificarServicoController -> Servico
EspecificarServicoController -> ServicoRepository

CatalogoRepository : getCatalogo()
FormularioRepository : getFormulario()
FluxoAtividade : create()
EspecificarServicoController : especificarServico()
Servico : create()
ServicoRepository : save(servico)
@enduml

@startuml
skinparam handwritten true
skinparam monochrome true
skinparam packageStyle rect
skinparam defaultFontName FG Virgil
skinparam shadowing false

class FluxoAtividade
class CatalogoRepository
class FormularioRepository
class ServicoBootstrapper
class EspecificarServicoController
class ServicoRepository
class Servico

ServicoBootstrapper -> FluxoAtividade
ServicoBootstrapper -> CatalogoRepository
ServicoBootstrapper -> FormularioRepository
ServicoBootstrapper -> EspecificarServicoController

EspecificarServicoController -> Servico
EspecificarServicoController -> ServicoRepository

CatalogoRepository : getCatalogo()
FormularioRepository : getFormulario()
FluxoAtividade : create()
EspecificarServicoController : especificarServico()
Servico : create()
ServicoRepository : save(servico)
@enduml

PlantUML version 1.2021.7(Sun May 23 12:40:07 UTC 2021)
(GPL source distribution)
Java Runtime: Java(TM) SE Runtime Environment
JVM: Java HotSpot(TM) 64-Bit Server VM
Default Encoding: UTF-8
Language: en
Country: US
--></g></svg>