<?xml version="1.0" encoding="UTF-8" standalone="no"?><svg xmlns="http://www.w3.org/2000/svg" xmlns:xlink="http://www.w3.org/1999/xlink" contentScriptType="application/ecmascript" contentStyleType="text/css" height="138px" preserveAspectRatio="none" style="width:1173px;height:138px;background:#FFFFFF;" version="1.1" viewBox="0 0 1173 138" width="1173px" zoomAndPan="magnify"><defs/><g><!--MD5=[a8d192d33def16c012ce1a98d6300525]
class FluxoAtividade--><polygon fill="#F8F8F8" points="1046,70.738,1046,70.9482,1056,70.3237,1066,70.9313,1076,71.1377,1086,70.0246,1096,70.6603,1106,70.3115,1116,70.3545,1126,70.6698,1136,70.0466,1146,71.2916,1156,70.1077,1166,70.738,1165.8022,70.738,1166.4319,80.8721,1165.9142,91.0062,1166.0682,101.1403,1165.9681,111.2745,1166.1785,121.4086,1166,131.5427,1166,131.7818,1156,132.1284,1146,132.2137,1136,132.2219,1126,131.7973,1116,132.0063,1106,132.2449,1096,130.8215,1086,132.2212,1076,131.2462,1066,132.0765,1056,131.0477,1046,131.5427,1045.9315,131.5427,1046.7416,121.4086,1045.9513,111.2745,1046.1053,101.1403,1046.3386,91.0062,1046.4162,80.8721,1046,70.738" style="stroke:#383838;stroke-width:1.5;"/><polygon fill="#C2C2C2" points="1072.0608,89.4136,1070.4484,91.6168,1068.5412,94.8437,1065.8136,97.0184,1062.9474,98.2076,1060.662,98.3108,1057.7247,96.8235,1054.9532,95.8519,1052.8495,93.8792,1051.7461,91.6208,1051.0917,89.8225,1050.4506,87.4737,1049.41,85.4525,1050.2096,83.479,1050.9102,81.3172,1053.5393,79.6075,1055.389,77.3891,1057.6784,76.6524,1060.4001,76.0181,1063.8904,76.395,1065.8021,77.2965,1068.0247,77.7052,1070.7272,80.474,1071.6693,83.397,1072.0786,85.3914,1071.615,88.6779" style="stroke:#383838;stroke-width:1.0;"/><path d="M1063.3438,82.4099 C1062.4063,81.9724 1061.8125,81.8318 1060.9375,81.8318 C1058.3125,81.8318 1056.3125,83.9099 1056.3125,86.6286 L1056.3125,87.7536 C1056.3125,90.3318 1058.4219,92.2224 1061.3125,92.2224 C1062.5313,92.2224 1063.6875,91.9255 1064.4375,91.3786 C1065.0156,90.9724 1065.3438,90.5193 1065.3438,90.1286 C1065.3438,89.6755 1064.9531,89.2849 1064.4844,89.2849 C1064.2656,89.2849 1064.0625,89.363 1063.875,89.5505 C1063.4219,90.0349 1063.4219,90.0349 1063.2344,90.1286 C1062.8125,90.3943 1062.125,90.5193 1061.3594,90.5193 C1059.3125,90.5193 1058.0156,89.4255 1058.0156,87.7224 L1058.0156,86.6286 C1058.0156,84.8474 1059.2656,83.5349 1061,83.5349 C1061.5781,83.5349 1062.1875,83.6911 1062.6563,83.9411 C1063.1406,84.2224 1063.3125,84.4411 1063.4063,84.8474 C1063.4688,85.2536 1063.5,85.3786 1063.6406,85.5036 C1063.7813,85.6443 1064.0156,85.7536 1064.2344,85.7536 C1064.5,85.7536 1064.7656,85.613 1064.9375,85.3943 C1065.0469,85.238 1065.0781,85.0505 1065.0781,84.6286 L1065.0781,83.2068 C1065.0781,82.7693 1065.0625,82.6443 1064.9688,82.488 C1064.8125,82.2224 1064.5313,82.0818 1064.2344,82.0818 C1063.9375,82.0818 1063.7344,82.1755 1063.5156,82.488 L1063.3438,82.4099 Z " fill="#000000"/><text fill="#000000" font-family="FG Virgil" font-size="12" lengthAdjust="spacing" textLength="88" x="1075" y="90.8923">FluxoAtividade</text><path d="M1047,102.738 L1047,103.0182 L1056.8333,102.1856 L1066.6667,102.9957 L1076.5,103.2709 L1086.3333,101.7868 L1096.1667,102.6344 L1106,102.1693 L1115.8333,102.2267 L1125.6667,102.6471 L1135.5,101.8162 L1145.3333,103.4762 L1155.1667,101.8976 L1165,102.738 " fill="#F8F8F8" style="stroke:#383838;stroke-width:1.5;"/><path d="M1047,110.738 L1047,111.0182 L1056.8333,110.1856 L1066.6667,110.9957 L1076.5,111.2709 L1086.3333,109.7868 L1096.1667,110.6344 L1106,110.1693 L1115.8333,110.2267 L1125.6667,110.6471 L1135.5,109.8162 L1145.3333,111.4762 L1155.1667,109.8976 L1165,110.738 " fill="#F8F8F8" style="stroke:#383838;stroke-width:1.5;"/><text fill="#000000" font-family="FG Virgil" font-size="11" lengthAdjust="spacing" textLength="45" x="1052" y="124.9484">create()</text><!--MD5=[37de35b2239f3e75f2a4e341603fb23d]
class CatalogoRepository--><polygon fill="#F8F8F8" points="861,70.738,861,70.9482,871,70.3237,881,70.9313,891,71.1377,901,70.0246,911,70.6603,921,70.3115,931,70.3545,941,70.6698,951,70.0466,961,71.2916,971,70.1077,981,70.5402,991,71.1699,1001,70.6522,1011,70.738,1011.0682,70.738,1010.9681,80.8721,1011.1785,91.0062,1011.2391,101.1403,1011.5857,111.2745,1011.6711,121.4086,1011,131.5427,1011,132.2219,1001,131.7973,991,132.0063,981,132.2449,971,130.8215,961,132.2212,951,131.2462,941,132.0765,931,131.0477,921,131.4742,911,132.2843,901,131.494,891,131.648,881,131.8813,871,131.9589,861,131.5427,860.9961,131.5427,861.2872,121.4086,860.4276,111.2745,861.2844,101.1403,861.5482,91.0062,861.4445,80.8721,861,70.738" style="stroke:#383838;stroke-width:1.5;"/><polygon fill="#C2C2C2" points="887.0608,89.4136,885.4484,91.6168,883.5412,94.8437,880.8136,97.0184,877.9474,98.2076,875.662,98.3108,872.7247,96.8235,869.9532,95.8519,867.8495,93.8792,866.7461,91.6208,866.0917,89.8225,865.4506,87.4737,864.41,85.4525,865.2096,83.479,865.9102,81.3172,868.5393,79.6075,870.389,77.3891,872.6784,76.6524,875.4001,76.0181,878.8904,76.395,880.8021,77.2965,883.0247,77.7052,885.7272,80.474,886.6693,83.397,887.0786,85.3914,886.615,88.6779" style="stroke:#383838;stroke-width:1.0;"/><path d="M878.3438,82.4099 C877.4063,81.9724 876.8125,81.8318 875.9375,81.8318 C873.3125,81.8318 871.3125,83.9099 871.3125,86.6286 L871.3125,87.7536 C871.3125,90.3318 873.4219,92.2224 876.3125,92.2224 C877.5313,92.2224 878.6875,91.9255 879.4375,91.3786 C880.0156,90.9724 880.3438,90.5193 880.3438,90.1286 C880.3438,89.6755 879.9531,89.2849 879.4844,89.2849 C879.2656,89.2849 879.0625,89.363 878.875,89.5505 C878.4219,90.0349 878.4219,90.0349 878.2344,90.1286 C877.8125,90.3943 877.125,90.5193 876.3594,90.5193 C874.3125,90.5193 873.0156,89.4255 873.0156,87.7224 L873.0156,86.6286 C873.0156,84.8474 874.2656,83.5349 876,83.5349 C876.5781,83.5349 877.1875,83.6911 877.6563,83.9411 C878.1406,84.2224 878.3125,84.4411 878.4063,84.8474 C878.4688,85.2536 878.5,85.3786 878.6406,85.5036 C878.7813,85.6443 879.0156,85.7536 879.2344,85.7536 C879.5,85.7536 879.7656,85.613 879.9375,85.3943 C880.0469,85.238 880.0781,85.0505 880.0781,84.6286 L880.0781,83.2068 C880.0781,82.7693 880.0625,82.6443 879.9688,82.488 C879.8125,82.2224 879.5313,82.0818 879.2344,82.0818 C878.9375,82.0818 878.7344,82.1755 878.5156,82.488 L878.3438,82.4099 Z " fill="#000000"/><text fill="#000000" font-family="FG Virgil" font-size="12" lengthAdjust="spacing" textLength="118" x="890" y="90.8923">CatalogoRepository</text><path d="M862,102.738 L862,103.0182 L871.8667,102.1856 L881.7333,102.9957 L891.6,103.2709 L901.4667,101.7868 L911.3333,102.6344 L921.2,102.1693 L931.0667,102.2267 L940.9333,102.6471 L950.8,101.8162 L960.6667,103.4762 L970.5333,101.8976 L980.4,102.4743 L990.2667,103.3139 L1000.1333,102.6236 L1010,102.738 " fill="#F8F8F8" style="stroke:#383838;stroke-width:1.5;"/><path d="M862,110.738 L862,111.0182 L871.8667,110.1856 L881.7333,110.9957 L891.6,111.2709 L901.4667,109.7868 L911.3333,110.6344 L921.2,110.1693 L931.0667,110.2267 L940.9333,110.6471 L950.8,109.8162 L960.6667,111.4762 L970.5333,109.8976 L980.4,110.4743 L990.2667,111.3139 L1000.1333,110.6236 L1010,110.738 " fill="#F8F8F8" style="stroke:#383838;stroke-width:1.5;"/><text fill="#000000" font-family="FG Virgil" font-size="11" lengthAdjust="spacing" textLength="77" x="867" y="124.9484">getCatalogo()</text><!--MD5=[76acc874f09693b2f2def29d0cdf8ced]
class Formulario--><polygon fill="#F8F8F8" points="730,70.738,730,70.9482,739.6,70.3237,749.2,70.9313,758.8,71.1377,768.4,70.0246,778,70.6603,787.6,70.3115,797.2,70.3545,806.8,70.6698,816.4,70.0466,826,70.738,826.5536,70.738,825.3697,80.8721,825.8022,91.0062,826.4319,101.1403,825.9142,111.2745,826.0682,121.4086,826,131.5427,826,131.5107,816.4,131.7212,806.8,131.7818,797.2,132.1284,787.6,132.2137,778,132.2219,768.4,131.7973,758.8,132.0063,749.2,132.2449,739.6,130.8215,730,131.5427,730.6785,131.5427,729.7035,121.4086,730.5338,111.2745,729.505,101.1403,729.9315,91.0062,730.7416,80.8721,730,70.738" style="stroke:#383838;stroke-width:1.5;"/><polygon fill="#C2C2C2" points="756.0608,89.4136,754.4484,91.6168,752.5412,94.8437,749.8136,97.0184,746.9474,98.2076,744.662,98.3108,741.7247,96.8235,738.9532,95.8519,736.8495,93.8792,735.7461,91.6208,735.0917,89.8225,734.4506,87.4737,733.41,85.4525,734.2096,83.479,734.9102,81.3172,737.5393,79.6075,739.389,77.3891,741.6784,76.6524,744.4001,76.0181,747.8904,76.395,749.8021,77.2965,752.0247,77.7052,754.7272,80.474,755.6693,83.397,756.0786,85.3914,755.615,88.6779" style="stroke:#383838;stroke-width:1.0;"/><path d="M747.3438,82.4099 C746.4063,81.9724 745.8125,81.8318 744.9375,81.8318 C742.3125,81.8318 740.3125,83.9099 740.3125,86.6286 L740.3125,87.7536 C740.3125,90.3318 742.4219,92.2224 745.3125,92.2224 C746.5313,92.2224 747.6875,91.9255 748.4375,91.3786 C749.0156,90.9724 749.3438,90.5193 749.3438,90.1286 C749.3438,89.6755 748.9531,89.2849 748.4844,89.2849 C748.2656,89.2849 748.0625,89.363 747.875,89.5505 C747.4219,90.0349 747.4219,90.0349 747.2344,90.1286 C746.8125,90.3943 746.125,90.5193 745.3594,90.5193 C743.3125,90.5193 742.0156,89.4255 742.0156,87.7224 L742.0156,86.6286 C742.0156,84.8474 743.2656,83.5349 745,83.5349 C745.5781,83.5349 746.1875,83.6911 746.6563,83.9411 C747.1406,84.2224 747.3125,84.4411 747.4063,84.8474 C747.4688,85.2536 747.5,85.3786 747.6406,85.5036 C747.7813,85.6443 748.0156,85.7536 748.2344,85.7536 C748.5,85.7536 748.7656,85.613 748.9375,85.3943 C749.0469,85.238 749.0781,85.0505 749.0781,84.6286 L749.0781,83.2068 C749.0781,82.7693 749.0625,82.6443 748.9688,82.488 C748.8125,82.2224 748.5313,82.0818 748.2344,82.0818 C747.9375,82.0818 747.7344,82.1755 747.5156,82.488 L747.3438,82.4099 Z " fill="#000000"/><text fill="#000000" font-family="FG Virgil" font-size="12" lengthAdjust="spacing" textLength="64" x="759" y="90.8923">Formulario</text><path d="M731,102.738 L731,103.0182 L741.4444,102.1856 L751.8889,102.9957 L762.3333,103.2709 L772.7778,101.7868 L783.2222,102.6344 L793.6667,102.1693 L804.1111,102.2267 L814.5556,102.6471 L825,102.738 " fill="#F8F8F8" style="stroke:#383838;stroke-width:1.5;"/><path d="M731,110.738 L731,111.0182 L741.4444,110.1856 L751.8889,110.9957 L762.3333,111.2709 L772.7778,109.7868 L783.2222,110.6344 L793.6667,110.1693 L804.1111,110.2267 L814.5556,110.6471 L825,110.738 " fill="#F8F8F8" style="stroke:#383838;stroke-width:1.5;"/><text fill="#000000" font-family="FG Virgil" font-size="11" lengthAdjust="spacing" textLength="45" x="736" y="124.9484">create()</text><!--MD5=[3c53b7d4816e778f4776984cb196eb7b]
class ServicoBootstrapper--><polygon fill="#F8F8F8" points="7,77.238,7,77.4482,16.875,76.8237,26.75,77.4313,36.625,77.6377,46.5,76.5246,56.375,77.1603,66.25,76.8115,76.125,76.8545,86,77.1698,95.875,76.5466,105.75,77.7916,115.625,76.6077,125.5,77.0402,135.375,77.6699,145.25,77.1522,155.125,77.3062,165,77.238,164.9681,77.238,165.1785,86.838,165.2391,96.438,165.5857,106.038,165.6711,115.638,165,125.238,165,125.9173,155.125,125.4926,145.25,125.7016,135.375,125.9402,125.5,124.5168,115.625,125.9165,105.75,124.9415,95.875,125.7718,86,124.743,76.125,125.1695,66.25,125.9796,56.375,125.1893,46.5,125.3433,36.625,125.5766,26.75,125.6542,16.875,125.2341,7,125.238,7.2872,125.238,6.4276,115.638,7.2844,106.038,7.5482,96.438,7.4445,86.838,7,77.238" style="stroke:#383838;stroke-width:1.5;"/><polygon fill="#C2C2C2" points="33.0608,95.9136,31.4484,98.1168,29.5412,101.3437,26.8136,103.5184,23.9474,104.7076,21.662,104.8108,18.7247,103.3235,15.9532,102.3519,13.8495,100.3792,12.7461,98.1208,12.0917,96.3225,11.4506,93.9737,10.41,91.9525,11.2096,89.979,11.9102,87.8172,14.5393,86.1075,16.389,83.8891,18.6784,83.1524,21.4001,82.5181,24.8904,82.895,26.8021,83.7965,29.0247,84.2052,31.7272,86.974,32.6693,89.897,33.0786,91.8914,32.615,95.1779" style="stroke:#383838;stroke-width:1.0;"/><path d="M24.3438,88.9099 C23.4063,88.4724 22.8125,88.3318 21.9375,88.3318 C19.3125,88.3318 17.3125,90.4099 17.3125,93.1286 L17.3125,94.2536 C17.3125,96.8318 19.4219,98.7224 22.3125,98.7224 C23.5313,98.7224 24.6875,98.4255 25.4375,97.8786 C26.0156,97.4724 26.3438,97.0193 26.3438,96.6286 C26.3438,96.1755 25.9531,95.7849 25.4844,95.7849 C25.2656,95.7849 25.0625,95.863 24.875,96.0505 C24.4219,96.5349 24.4219,96.5349 24.2344,96.6286 C23.8125,96.8943 23.125,97.0193 22.3594,97.0193 C20.3125,97.0193 19.0156,95.9255 19.0156,94.2224 L19.0156,93.1286 C19.0156,91.3474 20.2656,90.0349 22,90.0349 C22.5781,90.0349 23.1875,90.1911 23.6563,90.4411 C24.1406,90.7224 24.3125,90.9411 24.4063,91.3474 C24.4688,91.7536 24.5,91.8786 24.6406,92.0036 C24.7813,92.1443 25.0156,92.2536 25.2344,92.2536 C25.5,92.2536 25.7656,92.113 25.9375,91.8943 C26.0469,91.738 26.0781,91.5505 26.0781,91.1286 L26.0781,89.7068 C26.0781,89.2693 26.0625,89.1443 25.9688,88.988 C25.8125,88.7224 25.5313,88.5818 25.2344,88.5818 C24.9375,88.5818 24.7344,88.6755 24.5156,88.988 L24.3438,88.9099 Z " fill="#000000"/><text fill="#000000" font-family="FG Virgil" font-size="12" lengthAdjust="spacing" textLength="126" x="36" y="97.3923">ServicoBootstrapper</text><path d="M8,109.238 L8,109.5182 L17.75,108.6856 L27.5,109.4957 L37.25,109.7709 L47,108.2868 L56.75,109.1344 L66.5,108.6693 L76.25,108.7267 L86,109.1471 L95.75,108.3162 L105.5,109.9762 L115.25,108.3976 L125,108.9743 L134.75,109.8139 L144.5,109.1236 L154.25,109.329 L164,109.238 " fill="#F8F8F8" style="stroke:#383838;stroke-width:1.5;"/><path d="M8,117.238 L8,117.5182 L17.75,116.6856 L27.5,117.4957 L37.25,117.7709 L47,116.2868 L56.75,117.1344 L66.5,116.6693 L76.25,116.7267 L86,117.1471 L95.75,116.3162 L105.5,117.9762 L115.25,116.3976 L125,116.9743 L134.75,117.8139 L144.5,117.1236 L154.25,117.329 L164,117.238 " fill="#F8F8F8" style="stroke:#383838;stroke-width:1.5;"/><!--MD5=[0d4e5460865fab64524af805768c65c5]
class EspecificarServicoController--><polygon fill="#F8F8F8" points="200.5,70.738,200.5,70.9482,210.65,70.3237,220.8,70.9313,230.95,71.1377,241.1,70.0246,251.25,70.6603,261.4,70.3115,271.55,70.3545,281.7,70.6698,291.85,70.0466,302,71.2916,312.15,70.1077,322.3,70.5402,332.45,71.1699,342.6,70.6522,352.75,70.8062,362.9,70.7061,373.05,70.9165,383.2,70.9771,393.35,71.3237,403.5,70.738,404.1711,70.738,404.1793,80.8721,403.7546,91.0062,403.9636,101.1403,404.2022,111.2745,402.7788,121.4086,403.5,131.5427,403.5,132.2212,393.35,131.2462,383.2,132.0765,373.05,131.0477,362.9,131.4742,352.75,132.2843,342.6,131.494,332.45,131.648,322.3,131.8813,312.15,131.9589,302,131.5388,291.85,131.8299,281.7,130.9703,271.55,131.8271,261.4,132.0909,251.25,131.9872,241.1,132.1557,230.95,131.0596,220.8,130.8905,210.65,130.9213,200.5,131.5427,200.4411,131.5427,200.3035,121.4086,201.1814,111.2745,200.3253,101.1403,200.1569,91.0062,200.7283,80.8721,200.5,70.738" style="stroke:#383838;stroke-width:1.5;"/><polygon fill="#C2C2C2" points="226.5608,89.4136,224.9484,91.6168,223.0412,94.8437,220.3136,97.0184,217.4474,98.2076,215.162,98.3108,212.2247,96.8235,209.4532,95.8519,207.3495,93.8792,206.2461,91.6208,205.5917,89.8225,204.9506,87.4737,203.91,85.4525,204.7096,83.479,205.4102,81.3172,208.0393,79.6075,209.889,77.3891,212.1784,76.6524,214.9001,76.0181,218.3904,76.395,220.3021,77.2965,222.5247,77.7052,225.2272,80.474,226.1693,83.397,226.5786,85.3914,226.115,88.6779" style="stroke:#383838;stroke-width:1.0;"/><path d="M217.8438,82.4099 C216.9063,81.9724 216.3125,81.8318 215.4375,81.8318 C212.8125,81.8318 210.8125,83.9099 210.8125,86.6286 L210.8125,87.7536 C210.8125,90.3318 212.9219,92.2224 215.8125,92.2224 C217.0313,92.2224 218.1875,91.9255 218.9375,91.3786 C219.5156,90.9724 219.8438,90.5193 219.8438,90.1286 C219.8438,89.6755 219.4531,89.2849 218.9844,89.2849 C218.7656,89.2849 218.5625,89.363 218.375,89.5505 C217.9219,90.0349 217.9219,90.0349 217.7344,90.1286 C217.3125,90.3943 216.625,90.5193 215.8594,90.5193 C213.8125,90.5193 212.5156,89.4255 212.5156,87.7224 L212.5156,86.6286 C212.5156,84.8474 213.7656,83.5349 215.5,83.5349 C216.0781,83.5349 216.6875,83.6911 217.1563,83.9411 C217.6406,84.2224 217.8125,84.4411 217.9063,84.8474 C217.9688,85.2536 218,85.3786 218.1406,85.5036 C218.2813,85.6443 218.5156,85.7536 218.7344,85.7536 C219,85.7536 219.2656,85.613 219.4375,85.3943 C219.5469,85.238 219.5781,85.0505 219.5781,84.6286 L219.5781,83.2068 C219.5781,82.7693 219.5625,82.6443 219.4688,82.488 C219.3125,82.2224 219.0313,82.0818 218.7344,82.0818 C218.4375,82.0818 218.2344,82.1755 218.0156,82.488 L217.8438,82.4099 Z " fill="#000000"/><text fill="#000000" font-family="FG Virgil" font-size="12" lengthAdjust="spacing" textLength="171" x="229.5" y="90.8923">EspecificarServicoController</text><path d="M201.5,102.738 L201.5,103.0182 L211.55,102.1856 L221.6,102.9957 L231.65,103.2709 L241.7,101.7868 L251.75,102.6344 L261.8,102.1693 L271.85,102.2267 L281.9,102.6471 L291.95,101.8162 L302,103.4762 L312.05,101.8976 L322.1,102.4743 L332.15,103.3139 L342.2,102.6236 L352.25,102.829 L362.3,102.6954 L372.35,102.976 L382.4,103.0568 L392.45,103.5189 L402.5,102.738 " fill="#F8F8F8" style="stroke:#383838;stroke-width:1.5;"/><path d="M201.5,110.738 L201.5,111.0182 L211.55,110.1856 L221.6,110.9957 L231.65,111.2709 L241.7,109.7868 L251.75,110.6344 L261.8,110.1693 L271.85,110.2267 L281.9,110.6471 L291.95,109.8162 L302,111.4762 L312.05,109.8976 L322.1,110.4743 L332.15,111.3139 L342.2,110.6236 L352.25,110.829 L362.3,110.6954 L372.35,110.976 L382.4,111.0568 L392.45,111.5189 L402.5,110.738 " fill="#F8F8F8" style="stroke:#383838;stroke-width:1.5;"/><text fill="#000000" font-family="FG Virgil" font-size="11" lengthAdjust="spacing" textLength="113" x="206.5" y="124.9484">especificarServico()</text><!--MD5=[51865f8cbfe0824679c335d6e733f291]
class ServicoRepository--><polygon fill="#F8F8F8" points="438.5,70.738,438.5,70.9482,448.7143,70.3237,458.9286,70.9313,469.1429,71.1377,479.3571,70.0246,489.5714,70.6603,499.7857,70.3115,510,70.3545,520.2143,70.6698,530.4286,70.0466,540.6429,71.2916,550.8571,70.1077,561.0714,70.5402,571.2857,71.1699,581.5,70.738,581.4142,70.738,581.5682,80.8721,581.4681,91.0062,581.6785,101.1403,581.7391,111.2745,582.0857,121.4086,581.5,131.5427,581.5,132.2137,571.2857,132.2219,561.0714,131.7973,550.8571,132.0063,540.6429,132.2449,530.4286,130.8215,520.2143,132.2212,510,131.2462,499.7857,132.0765,489.5714,131.0477,479.3571,131.4742,469.1429,132.2843,458.9286,131.494,448.7143,131.648,438.5,131.5427,438.8386,131.5427,438.9162,121.4086,438.4961,111.2745,438.7872,101.1403,437.9276,91.0062,438.7844,80.8721,438.5,70.738" style="stroke:#383838;stroke-width:1.5;"/><polygon fill="#C2C2C2" points="464.5608,89.4136,462.9484,91.6168,461.0412,94.8437,458.3136,97.0184,455.4474,98.2076,453.162,98.3108,450.2247,96.8235,447.4532,95.8519,445.3495,93.8792,444.2461,91.6208,443.5917,89.8225,442.9506,87.4737,441.91,85.4525,442.7096,83.479,443.4102,81.3172,446.0393,79.6075,447.889,77.3891,450.1784,76.6524,452.9001,76.0181,456.3904,76.395,458.3021,77.2965,460.5247,77.7052,463.2272,80.474,464.1693,83.397,464.5786,85.3914,464.115,88.6779" style="stroke:#383838;stroke-width:1.0;"/><path d="M455.8438,82.4099 C454.9063,81.9724 454.3125,81.8318 453.4375,81.8318 C450.8125,81.8318 448.8125,83.9099 448.8125,86.6286 L448.8125,87.7536 C448.8125,90.3318 450.9219,92.2224 453.8125,92.2224 C455.0313,92.2224 456.1875,91.9255 456.9375,91.3786 C457.5156,90.9724 457.8438,90.5193 457.8438,90.1286 C457.8438,89.6755 457.4531,89.2849 456.9844,89.2849 C456.7656,89.2849 456.5625,89.363 456.375,89.5505 C455.9219,90.0349 455.9219,90.0349 455.7344,90.1286 C455.3125,90.3943 454.625,90.5193 453.8594,90.5193 C451.8125,90.5193 450.5156,89.4255 450.5156,87.7224 L450.5156,86.6286 C450.5156,84.8474 451.7656,83.5349 453.5,83.5349 C454.0781,83.5349 454.6875,83.6911 455.1563,83.9411 C455.6406,84.2224 455.8125,84.4411 455.9063,84.8474 C455.9688,85.2536 456,85.3786 456.1406,85.5036 C456.2813,85.6443 456.5156,85.7536 456.7344,85.7536 C457,85.7536 457.2656,85.613 457.4375,85.3943 C457.5469,85.238 457.5781,85.0505 457.5781,84.6286 L457.5781,83.2068 C457.5781,82.7693 457.5625,82.6443 457.4688,82.488 C457.3125,82.2224 457.0313,82.0818 456.7344,82.0818 C456.4375,82.0818 456.2344,82.1755 456.0156,82.488 L455.8438,82.4099 Z " fill="#000000"/><text fill="#000000" font-family="FG Virgil" font-size="12" lengthAdjust="spacing" textLength="111" x="467.5" y="90.8923">ServicoRepository</text><path d="M439.5,102.738 L439.5,103.0182 L449.5714,102.1856 L459.6429,102.9957 L469.7143,103.2709 L479.7857,101.7868 L489.8571,102.6344 L499.9286,102.1693 L510,102.2267 L520.0714,102.6471 L530.1429,101.8162 L540.2143,103.4762 L550.2857,101.8976 L560.3571,102.4743 L570.4286,103.3139 L580.5,102.738 " fill="#F8F8F8" style="stroke:#383838;stroke-width:1.5;"/><path d="M439.5,110.738 L439.5,111.0182 L449.5714,110.1856 L459.6429,110.9957 L469.7143,111.2709 L479.7857,109.7868 L489.8571,110.6344 L499.9286,110.1693 L510,110.2267 L520.0714,110.6471 L530.1429,109.8162 L540.2143,111.4762 L550.2857,109.8976 L560.3571,110.4743 L570.4286,111.3139 L580.5,110.738 " fill="#F8F8F8" style="stroke:#383838;stroke-width:1.5;"/><text fill="#000000" font-family="FG Virgil" font-size="11" lengthAdjust="spacing" textLength="77" x="444.5" y="124.9484">save(servico)</text><!--MD5=[faf4d635eea35b16677487bac6ad9bf5]
class Servico--><polygon fill="#F8F8F8" points="617,70.738,617,70.9482,626.75,70.3237,636.5,70.9313,646.25,71.1377,656,70.0246,665.75,70.6603,675.5,70.3115,685.25,70.3545,695,70.738,694.9318,70.738,694.3086,80.8721,695.5536,91.0062,694.3697,101.1403,694.8022,111.2745,695.4319,121.4086,695,131.5427,695,131.4569,685.25,131.6109,675.5,131.5107,665.75,131.7212,656,131.7818,646.25,132.1284,636.5,132.2137,626.75,132.2219,617,131.5427,617.2546,131.5427,617.4636,121.4086,617.7022,111.2745,616.2788,101.1403,617.6785,91.0062,616.7035,80.8721,617,70.738" style="stroke:#383838;stroke-width:1.5;"/><polygon fill="#C2C2C2" points="643.0608,89.4136,641.4484,91.6168,639.5412,94.8437,636.8136,97.0184,633.9474,98.2076,631.662,98.3108,628.7247,96.8235,625.9532,95.8519,623.8495,93.8792,622.7461,91.6208,622.0917,89.8225,621.4506,87.4737,620.41,85.4525,621.2096,83.479,621.9102,81.3172,624.5393,79.6075,626.389,77.3891,628.6784,76.6524,631.4001,76.0181,634.8904,76.395,636.8021,77.2965,639.0247,77.7052,641.7272,80.474,642.6693,83.397,643.0786,85.3914,642.615,88.6779" style="stroke:#383838;stroke-width:1.0;"/><path d="M634.3438,82.4099 C633.4063,81.9724 632.8125,81.8318 631.9375,81.8318 C629.3125,81.8318 627.3125,83.9099 627.3125,86.6286 L627.3125,87.7536 C627.3125,90.3318 629.4219,92.2224 632.3125,92.2224 C633.5313,92.2224 634.6875,91.9255 635.4375,91.3786 C636.0156,90.9724 636.3438,90.5193 636.3438,90.1286 C636.3438,89.6755 635.9531,89.2849 635.4844,89.2849 C635.2656,89.2849 635.0625,89.363 634.875,89.5505 C634.4219,90.0349 634.4219,90.0349 634.2344,90.1286 C633.8125,90.3943 633.125,90.5193 632.3594,90.5193 C630.3125,90.5193 629.0156,89.4255 629.0156,87.7224 L629.0156,86.6286 C629.0156,84.8474 630.2656,83.5349 632,83.5349 C632.5781,83.5349 633.1875,83.6911 633.6563,83.9411 C634.1406,84.2224 634.3125,84.4411 634.4063,84.8474 C634.4688,85.2536 634.5,85.3786 634.6406,85.5036 C634.7813,85.6443 635.0156,85.7536 635.2344,85.7536 C635.5,85.7536 635.7656,85.613 635.9375,85.3943 C636.0469,85.238 636.0781,85.0505 636.0781,84.6286 L636.0781,83.2068 C636.0781,82.7693 636.0625,82.6443 635.9688,82.488 C635.8125,82.2224 635.5313,82.0818 635.2344,82.0818 C634.9375,82.0818 634.7344,82.1755 634.5156,82.488 L634.3438,82.4099 Z " fill="#000000"/><text fill="#000000" font-family="FG Virgil" font-size="12" lengthAdjust="spacing" textLength="46" x="646" y="90.8923">Servico</text><path d="M618,102.738 L618,103.0182 L627.5,102.1856 L637,102.9957 L646.5,103.2709 L656,101.7868 L665.5,102.6344 L675,102.1693 L684.5,102.2267 L694,102.738 " fill="#F8F8F8" style="stroke:#383838;stroke-width:1.5;"/><path d="M618,110.738 L618,111.0182 L627.5,110.1856 L637,110.9957 L646.5,111.2709 L656,109.7868 L665.5,110.6344 L675,110.1693 L684.5,110.2267 L694,110.738 " fill="#F8F8F8" style="stroke:#383838;stroke-width:1.5;"/><text fill="#000000" font-family="FG Virgil" font-size="11" lengthAdjust="spacing" textLength="45" x="623" y="124.9484">create()</text><!--MD5=[85fcf35cc8fc398959cd56f9a3e44bb3]
link ServicoBootstrapper to FluxoAtividade--><path d="M120.791,77.1211 L120.8396,77.2009 L122.3981,75.9273 L124.2414,75.1214 L125.992,74.1632 L127.4376,72.7041 L129.3053,71.9384 L129.2881,71.9085 L131.035,70.724 L132.8688,69.6904 L134.763,68.7617 L136.449,67.4714 L138.4266,66.6876 L138.5434,66.9042 L140.22,65.4022 L142.2376,64.5325 L144.2967,63.74 L146.1139,62.4987 L148.0583,61.4934 L148.0719,61.5205 L150.0611,60.4781 L152.1121,59.5592 L154.1333,58.5808 L156.2112,57.716 L158.1041,56.4805 L158.2275,56.7521 L160.3017,55.8141 L162.2963,54.7009 L164.4074,53.8441 L166.524,52.9993 L168.4676,51.7738 L168.3476,51.4766 L170.6975,51.1983 L172.6522,49.9413 L174.9073,49.4283 L176.853,48.1492 L179.0524,47.498 L179.0424,47.4692 L181.3024,47.0653 L183.3291,45.9895 L185.4935,45.3101 L187.6694,44.664 L189.762,43.7778 L189.8123,43.9558 L191.9091,43.1682 L194.0919,42.6847 L196.1355,41.7091 L198.3868,41.4676 L200.5,40.738 L200.5484,40.9768 L202.4945,40.5357 L204.4646,40.2131 L206.3231,39.3397 L208.2634,38.8701 L210.2762,38.7582 L210.2362,38.4849 L212.8314,38.3579 L215.3816,37.923 L217.9971,37.9346 L220.501,37.1838 L223.0712,36.8862 L223.0541,36.7347 L226.2051,36.6345 L229.283,35.8868 L232.4128,35.5996 L235.5935,35.763 L238.6836,35.124 L238.7011,35.3168 L242.3587,35.119 L245.9621,34.3214 L249.6334,34.275 L253.2899,34.065 L256.9119,33.4736 L256.8964,33.2642 L261.0373,33.1237 L265.1732,32.9147 L269.3191,32.8405 L273.426,32.2424 L277.5547,31.9369 L277.5675,32.1421 L282.1106,31.4071 L286.6784,31.0682 L291.2821,31.3078 L295.8196,30.4822 L300.4106,30.5161 L300.4224,30.742 L305.3889,30.3472 L310.3513,29.876 L315.3228,29.5772 L320.3152,29.6773 L325.278,29.213 L325.2721,29.0801 L330.6251,29.2392 L335.9381,28.4943 L341.2967,28.7772 L346.6296,28.4814 L351.9555,28.0297 L351.9596,28.1385 L357.6136,27.8384 L363.2821,27.9278 L368.9375,27.6653 L374.5873,27.2556 L380.2418,26.9682 L380.2455,27.0873 L386.1786,26.7227 L392.1292,26.9113 L398.06,26.4743 L403.999,26.2946 L409.9353,26.0304 L409.9282,25.7601 L416.1104,25.6879 L422.3012,25.9413 L428.4799,25.7341 L434.6542,25.3616 L440.8346,25.2183 L440.8315,25.0751 L447.2132,24.9841 L453.5895,24.6397 L459.9807,24.992 L466.3645,24.9994 L472.7382,24.534 L472.7486,25.2357 L482.1826,25.3208 L491.5968,24.0724 L501.0319,24.2313 L510.4532,23.4586 L519.8971,24.2144 L529.327,24.0251 L538.7528,23.5564 L538.7576,24.2929 L548.4101,23.187 L558.0701,23.2508 L567.7344,23.958 L577.3947,24.0599 L587.0445,22.5569 L596.7066,22.9185 L606.3675,23.1137 L606.3678,23.3128 L616.0238,22.3147 L625.6835,23.6158 L635.3408,23.5041 L644.9977,23.0412 L654.6558,23.3806 L664.3146,24.1779 L673.9707,23.2218 L673.9696,23.0828 L680.6305,23.4149 L687.2892,23.455 L693.9473,23.4326 L700.6061,23.4969 L707.2644,23.4874 L707.265,23.5378 L713.7982,23.2918 L720.3367,23.4729 L726.8737,23.5278 L733.4139,23.8431 L739.9508,23.8966 L739.9515,23.9357 L746.3277,24.0794 L752.6997,23.9892 L759.077,24.1995 L765.4522,24.287 L771.8287,24.4514 L771.8345,24.7078 L778.0065,24.7815 L784.1708,24.5167 L790.3485,24.8406 L796.517,24.757 L802.6964,25.154 L802.7001,25.2821 L808.6354,25.5947 L814.5658,25.7368 L820.4845,25.4718 L826.4272,26.0418 L832.3525,26.0061 L832.3408,25.6762 L838.0043,26.2958 L843.6451,26.2747 L849.3,26.6514 L854.9509,26.9159 L860.5957,27.0099 L860.6048,27.2195 L865.9076,26.9217 L871.2564,27.684 L876.5764,27.7835 L881.9056,28.0936 L887.2245,28.1673 L887.242,28.4992 L892.1872,28.4324 L897.1537,28.7703 L902.1172,29.0499 L907.0794,29.3053 L912.0373,29.4803 L912.0373,29.48 L916.6168,30.0897 L921.1381,29.7982 L925.7308,30.6134 L930.2559,30.3801 L934.8329,30.951 L934.8139,30.7116 L938.9496,31.2948 L943.0646,31.6156 L947.1616,31.7108 L951.3088,32.4385 L955.4096,32.5812 L955.4144,32.6294 L959.0726,33.261 L962.7013,33.593 L966.284,33.4581 L969.9175,33.8387 L973.5662,34.3731 L973.559,34.3161 L976.6929,34.9209 L979.8025,35.3329 L982.9038,35.6791 L985.9751,35.7866 L989.101,36.3285 L989.1476,36.6074 L991.6897,37.0305 L994.1823,37.1561 L996.7106,37.4963 L999.2411,37.8493 L1001.8128,38.4494 L1001.7909,38.3566 L1003.7643,38.9666 L1005.6807,39.3353 L1007.5824,39.6419 L1009.6124,40.4911 L1011.5,40.738 L1011.4316,40.5458 L1014.3792,41.9466 L1017.1722,42.9134 L1019.9683,43.8885 L1022.8203,45.021 L1025.5214,45.7293 L1025.475,45.6303 L1028.2031,46.8926 L1031.0963,48.5068 L1033.6242,49.3421 L1036.4311,50.7725 L1039.2138,52.151 L1039.239,52.1957 L1041.8499,53.6583 L1044.3776,54.9738 L1047.0676,56.5766 L1049.8609,58.3621 L1052.3192,59.5547 L1052.4758,59.7966 L1054.6274,60.9196 L1057.2425,62.7588 L1059.5516,64.1252 L1062.1215,65.8945 L1064.58,67.4917 " fill="none" style="stroke:#383838;stroke-width:1.0;"/><polygon fill="#383838" points="1068.92,70.5226,1068.98,70.5589,1067.7826,68.7656,1066.9367,67.1848,1065.9763,65.5348,1064.6396,63.6573,1063.8238,62.0947,1063.7983,62.0902,1063.8827,63.1835,1064.0957,64.2998,1064.398,65.432,1064.3924,66.5093,1064.8181,67.6635,1064.8505,67.8452,1063.6674,67.6556,1062.579,67.9963,1061.5021,68.4018,1060.358,68.4308,1059.2493,68.6578,1059.2536,68.6801,1061.1814,69.0203,1063.1288,69.4622,1065.0668,69.8549,1067.0228,70.3413,1068.92,70.5226" style="stroke:#383838;stroke-width:1.0;"/><!--MD5=[c3d753a1cf35b149a827515fe72e7964]
link ServicoBootstrapper to CatalogoRepository--><path d="M120.791,77.1211 L120.8396,77.2009 L122.3981,75.9273 L124.2414,75.1214 L125.992,74.1632 L127.4376,72.7041 L129.3053,71.9384 L129.2881,71.9085 L131.035,70.724 L132.8688,69.6904 L134.763,68.7617 L136.449,67.4714 L138.4266,66.6876 L138.5434,66.9042 L140.22,65.4022 L142.2376,64.5325 L144.2967,63.74 L146.1139,62.4987 L148.0583,61.4934 L148.0719,61.5205 L150.0611,60.4781 L152.1121,59.5592 L154.1333,58.5808 L156.2112,57.716 L158.1041,56.4805 L158.2275,56.7521 L160.3017,55.8141 L162.2963,54.7009 L164.4074,53.8441 L166.524,52.9993 L168.4676,51.7738 L168.3476,51.4766 L170.6975,51.1983 L172.6522,49.9413 L174.9073,49.4283 L176.853,48.1492 L179.0524,47.498 L179.0424,47.4692 L181.3024,47.0653 L183.3291,45.9895 L185.4935,45.3101 L187.6694,44.664 L189.762,43.7778 L189.8123,43.9558 L191.9091,43.1682 L194.0919,42.6847 L196.1355,41.7091 L198.3868,41.4676 L200.5,40.738 L200.5544,40.9755 L203.2027,40.3218 L205.878,39.7859 L208.4279,38.7022 L211.0697,38.0201 L213.793,37.6939 L213.7397,37.4229 L216.6896,37.0972 L219.5795,36.4663 L222.5565,36.2782 L225.3847,35.3339 L228.3013,34.8392 L228.2757,34.6889 L231.4469,34.4063 L234.5086,33.4812 L237.6481,33.013 L240.8638,32.9919 L243.9439,32.1747 L243.9722,32.3662 L247.3308,32.0029 L250.6012,31.0438 L253.9821,30.8308 L257.3389,30.4554 L260.6396,29.7011 L260.6127,29.4928 L264.1676,29.2024 L267.7138,28.8438 L271.2773,28.6191 L274.7735,27.8736 L278.3073,27.419 L278.3303,27.6233 L281.9915,26.7564 L285.6971,26.2839 L289.4676,26.3875 L293.1187,25.4305 L296.8661,25.3292 L296.8881,25.5543 L300.7487,25.0412 L304.6019,24.4519 L308.4719,24.0345 L312.3808,24.0146 L316.2347,23.4323 L316.2235,23.2997 L320.2764,23.3537 L324.2529,22.5062 L328.3163,22.6838 L332.3308,22.2841 L336.3322,21.729 L336.3401,21.8376 L340.4827,21.4482 L344.6537,21.4475 L348.7991,21.0956 L352.9338,20.5969 L357.0773,20.2201 L357.0847,20.339 L361.3362,19.8995 L365.6217,20.0123 L369.8687,19.5004 L374.1315,19.2455 L378.3892,18.9062 L378.3753,18.6361 L382.7394,18.5026 L387.1202,18.6944 L391.4774,18.426 L395.8261,17.9925 L400.1866,17.7879 L400.1807,17.6449 L404.6229,17.5064 L409.0547,17.1145 L413.5154,17.419 L417.9618,17.3789 L422.3885,16.8661 L422.396,17.0999 L426.9035,17.0299 L431.3967,16.5155 L435.9049,16.47 L440.4032,16.1142 L444.9138,16.1414 L444.9167,16.2676 L449.4699,16.1456 L454.0265,16.176 L458.572,15.7232 L463.1265,15.6601 L467.6814,15.6144 L467.6842,15.8115 L472.2708,15.8009 L476.8497,15.2553 L481.4375,15.3312 L486.0254,15.418 L490.6103,15.2859 L490.6087,15.0145 L495.2129,15.4171 L499.8145,15.3489 L504.4154,15.1636 L509.0178,15.2457 L513.6193,15.1566 L513.6202,15.4805 L518.2204,15.0317 L522.8229,15.3248 L527.4245,15.3259 L532.0259,15.2645 L536.6273,15.2272 L536.6281,15.2898 L541.2131,15.3318 L545.7945,15.0582 L550.3808,15.2117 L554.9657,15.2389 L559.5534,15.4982 L559.554,15.5266 L564.1068,15.6319 L568.66,15.759 L573.2085,15.6523 L577.7631,15.8461 L582.3163,15.9706 L582.3147,15.9172 L586.8278,16.3617 L591.3295,16.4298 L595.8211,16.1594 L600.3304,16.4776 L604.8351,16.6448 L604.825,16.3885 L609.2789,16.9483 L613.7232,17.2658 L618.1608,17.4128 L622.5823,17.1529 L627.0286,17.5217 L627.0388,17.7276 L631.3697,17.408 L635.7479,18.0426 L640.0943,18.0369 L644.4605,18.4288 L648.8158,18.6019 L648.8222,18.7085 L653.0883,19.0681 L657.3164,18.7961 L661.6083,19.5833 L665.8603,19.7082 L670.1155,19.886 L670.1268,20.0436 L674.2856,20.5153 L678.4082,20.484 L682.5598,20.8571 L686.7073,21.1718 L690.8467,21.3749 L690.8541,21.4623 L694.863,21.7134 L698.9059,22.3674 L702.8729,22.1214 L706.9331,22.9807 L710.9283,23.0692 L710.9012,22.7932 L714.7751,23.2103 L718.6705,23.847 L722.5401,24.2219 L726.3877,24.3715 L730.2793,24.9695 L730.3,25.1522 L733.9926,25.439 L737.7314,26.1333 L741.4363,26.5284 L745.0881,26.4573 L748.8185,27.0767 L748.7955,26.9013 L752.3403,27.4826 L755.8975,28.1592 L759.4296,28.643 L762.9529,29.061 L766.4648,29.3912 L766.4421,29.241 L769.8416,30.1754 L773.1759,30.6788 L776.4651,30.8841 L779.7868,31.3044 L783.1372,31.914 L783.1065,31.7382 L786.2442,32.3663 L789.3947,33.0668 L792.5024,33.523 L795.5991,33.9163 L798.7546,34.6455 L798.7977,34.8578 L801.6102,35.0339 L804.5915,36.0408 L807.4812,36.5963 L810.3725,37.1604 L813.2359,37.5867 L813.307,37.8861 L815.8634,38.1106 L818.5106,38.7172 L821.2477,39.7018 L823.7859,39.8496 L826.5,40.738 L826.4689,40.6388 L829.7284,41.7944 L832.9353,42.782 L836.0916,43.6083 L839.3466,44.7496 L842.5654,45.7752 L842.6913,46.0813 L845.8418,47.3442 L848.7982,48.135 L852.0791,49.7148 L855.1457,50.7737 L858.3994,52.2873 L858.3942,52.2768 L861.5095,53.9078 L864.587,55.462 L867.4266,56.5332 L870.6884,58.4615 L873.6624,59.8055 L873.6642,59.8087 L876.4121,61.2014 L879.301,62.8452 L882.345,64.7654 L885.1988,66.3468 L888.015,67.8611 " fill="none" style="stroke:#383838;stroke-width:1.0;"/><polygon fill="#383838" points="892.613,70.6309,892.6704,70.6711,891.3707,68.9377,890.4076,67.4397,889.3349,65.8651,887.9018,64.0384,886.9675,62.5607,886.9424,62.5544,887.1021,63.6245,887.3885,64.726,887.763,65.8494,887.8338,66.8974,888.33,68.051,888.3745,68.2301,887.1813,68.1196,886.118,68.532,885.0705,69.0082,883.9309,69.1132,882.8397,69.4135,882.8425,69.436,884.793,69.6464,886.7564,69.9595,888.7135,70.223,890.6825,70.5811,892.613,70.6309" style="stroke:#383838;stroke-width:1.0;"/><!--MD5=[019a826d86a093ebd51bd9fd918da5ce]
link ServicoBootstrapper to Formulario--><path d="M120.791,77.1211 L120.8396,77.2009 L122.3981,75.9273 L124.2414,75.1214 L125.992,74.1632 L127.4376,72.7041 L129.3053,71.9384 L129.2881,71.9085 L131.035,70.724 L132.8688,69.6904 L134.763,68.7617 L136.449,67.4714 L138.4266,66.6876 L138.5434,66.9042 L140.22,65.4022 L142.2376,64.5325 L144.2967,63.74 L146.1139,62.4987 L148.0583,61.4934 L148.0719,61.5205 L150.0611,60.4781 L152.1121,59.5592 L154.1333,58.5808 L156.2112,57.716 L158.1041,56.4805 L158.2275,56.7521 L160.3017,55.8141 L162.2963,54.7009 L164.4074,53.8441 L166.524,52.9993 L168.4676,51.7738 L168.3476,51.4766 L170.6975,51.1983 L172.6522,49.9413 L174.9073,49.4283 L176.853,48.1492 L179.0524,47.498 L179.0424,47.4692 L181.3024,47.0653 L183.3291,45.9895 L185.4935,45.3101 L187.6694,44.664 L189.762,43.7778 L189.8123,43.9558 L191.9091,43.1682 L194.0919,42.6847 L196.1355,41.7091 L198.3868,41.4676 L200.5,40.738 L200.5548,40.9754 L202.6478,40.4453 L204.768,40.033 L206.7619,39.073 L208.8483,38.5145 L211.0169,38.3117 L210.9624,38.041 L213.3094,37.8236 L215.595,37.3012 L217.9696,37.2212 L220.1922,36.3857 L222.5052,35.9994 L222.4786,35.8493 L225.0018,35.6605 L227.4114,34.8299 L229.9018,34.4557 L232.4712,34.5281 L234.8998,33.8053 L234.9298,33.9966 L237.5975,33.7135 L240.172,32.8353 L242.8632,32.7024 L245.529,32.4072 L248.1355,31.7336 L248.1067,31.5257 L250.932,31.3025 L253.7478,31.0111 L256.5823,30.8536 L259.3445,30.1759 L262.1471,29.7887 L262.1722,29.9928 L265.0614,29.1817 L267.9992,28.7644 L271.0078,28.9225 L273.8859,28.0213 L276.8693,27.9748 L276.8939,28.1997 L279.9528,27.7304 L283.0035,27.185 L286.0729,26.8113 L289.1856,26.8345 L292.237,26.2961 L292.2242,26.1637 L295.4519,26.2501 L298.5926,25.4359 L301.8322,25.6458 L305.0161,25.279 L308.185,24.757 L308.1942,24.8654 L311.4794,24.4988 L314.7975,24.5206 L318.0859,24.1914 L321.3618,23.7156 L324.6481,23.3615 L324.6568,23.4804 L328.0264,23.0543 L331.4366,23.1801 L334.8009,22.6817 L338.184,22.4401 L341.561,22.1141 L341.5439,21.8443 L345.0091,21.7154 L348.4949,21.9115 L351.9516,21.6477 L355.3979,21.219 L358.8586,21.019 L358.851,20.876 L362.3768,20.7342 L365.8892,20.3391 L369.4386,20.64 L372.9697,20.5964 L376.4757,20.0805 L376.4858,20.3142 L380.0634,20.2335 L383.6216,19.7086 L387.2002,19.6525 L390.7653,19.2861 L394.347,19.3027 L394.3513,19.4288 L397.9628,19.2897 L401.5795,19.3029 L405.1798,18.833 L408.7933,18.7528 L412.4075,18.6899 L412.4123,18.887 L416.0505,18.8533 L419.6756,18.2848 L423.3159,18.3377 L426.9565,18.4015 L430.5918,18.2465 L430.5877,17.975 L434.2427,18.3496 L437.8907,18.2532 L441.5369,18.0398 L445.1871,18.0938 L448.8347,17.9766 L448.8364,18.3005 L452.4813,17.8192 L456.13,18.0798 L459.7773,18.0484 L463.4242,17.9544 L467.0712,17.8846 L467.0715,17.9472 L470.7044,17.953 L474.3357,17.6432 L477.9692,17.7605 L481.602,17.7515 L485.236,17.9746 L485.2364,18.003 L488.8421,18.0691 L492.4482,18.1571 L496.0507,18.0111 L499.6578,18.1657 L503.2638,18.251 L503.2624,18.1976 L506.8356,18.6007 L510.399,18.6273 L513.9536,18.3155 L517.5235,18.5922 L521.0895,18.718 L521.0798,18.4616 L524.606,18.9784 L528.123,19.2529 L531.6336,19.3569 L535.1289,19.054 L538.6479,19.3798 L538.6582,19.5857 L542.0766,19.2223 L545.5427,19.813 L548.9768,19.7635 L552.4307,20.1115 L555.8737,20.2407 L555.8805,20.3473 L559.2526,20.663 L562.5848,20.3471 L565.984,21.0902 L569.3413,21.1712 L572.7019,21.305 L572.7141,21.4625 L576.0007,21.8908 L579.2482,21.8163 L582.5271,22.1459 L585.8014,22.4172 L589.0671,22.577 L589.0753,22.6643 L592.2345,22.8734 L595.4314,23.485 L598.5441,23.1975 L601.7603,24.0142 L604.9042,24.0608 L604.8735,23.7852 L607.9264,24.1621 L611.0037,24.7585 L614.0519,25.0933 L617.075,25.2031 L620.148,25.7608 L620.172,25.9431 L623.0714,26.1928 L626.0243,26.8491 L628.9379,27.2069 L631.7903,27.0995 L634.7333,27.6811 L634.7063,27.5064 L637.4969,28.0534 L640.3021,28.6953 L643.0776,29.1451 L645.843,29.5294 L648.5949,29.8262 L648.5677,29.6766 L651.2599,30.5792 L653.8743,31.0529 L656.4347,31.2299 L659.034,31.6208 L661.6675,32.2001 L661.6303,32.0256 L664.0913,32.6283 L666.5677,33.3027 L668.9923,33.7346 L671.4036,34.1042 L673.8861,34.8072 L673.939,35.0173 L676.0961,35.1783 L678.4603,36.1616 L680.712,36.6981 L682.9658,37.2431 L685.1853,37.6518 L685.2735,37.9466 L687.2169,38.1643 L689.2729,38.7582 L691.4402,39.7244 L693.361,39.8666 L695.5,40.738 L695.4615,40.6414 L698.0142,41.7806 L700.5017,42.7563 L702.9266,43.5749 L705.4738,44.7001 L707.9761,45.7128 L708.1307,46.0053 L710.5222,47.2418 L712.6751,48.027 L715.2267,49.5664 L717.5151,50.6078 L720.0333,52.084 L720.0269,52.0742 L722.392,53.6602 L724.711,55.1743 L726.7394,56.235 L729.2834,58.1002 L731.4758,59.4169 L731.478,59.4199 L733.4555,60.7904 L735.6042,62.3924 L737.9414,64.2494 L740.0476,65.7939 L742.108,67.2765 " fill="none" style="stroke:#383838;stroke-width:1.0;"/><polygon fill="#383838" points="746.224,70.5805,746.2863,70.6126,745.1983,68.7666,744.4754,67.1088,743.6336,65.3897,742.401,63.4689,741.7094,61.8273,741.6837,61.8245,741.6912,62.9365,741.8285,64.0627,742.0561,65.1988,741.9726,66.3009,742.3248,67.4506,742.3449,67.634,741.1773,67.3648,740.0683,67.6312,738.9665,67.963,737.8231,67.9145,736.7015,68.066,736.7073,68.088,738.6033,68.5586,740.5257,69.1293,742.4354,69.6518,744.3694,70.2664,746.224,70.5805" style="stroke:#383838;stroke-width:1.0;"/><!--MD5=[59df0b78ff33e094c8d75273997a7b63]
link ServicoBootstrapper to EspecificarServicoController--><path d="M165.312,101.238 L165.312,101.3314 L171.2684,101.0539 L177.2248,101.3239 L183.1812,101.4156 L189.1376,100.9209 L195.094,101.238 " fill="none" style="stroke:#383838;stroke-width:1.0;"/><polygon fill="#383838" points="200.285,101.238,200.3135,101.302,198.4289,100.3118,196.7112,99.6969,194.9391,98.9597,192.9884,97.8207,191.285,97.238,191.2667,97.2197,191.9845,97.9375,192.7946,98.7476,193.6689,99.6219,194.322,100.275,195.285,101.238,195.4155,101.3685,194.3364,101.8894,193.6384,102.7914,192.9868,103.7398,192.0648,104.4178,191.285,105.238,191.2942,105.2588,193.0807,104.4283,194.9092,103.6924,196.7174,102.9108,198.5643,102.2164,200.285,101.238" style="stroke:#383838;stroke-width:1.0;"/><!--MD5=[3b4e9fec8f9a906b2809fbf725460666]
link EspecificarServicoController to Servico--><path d="M356.675,70.7319 L356.7152,70.8162 L358.4619,69.6752 L360.4444,69.0285 L362.3501,68.2208 L364.0032,66.8839 L366.0059,66.2796 L365.9917,66.2481 L367.8752,65.2261 L369.8304,64.3628 L371.8355,63.6097 L373.6687,62.4765 L375.7427,61.8758 L375.839,62.1022 L377.6467,60.7621 L379.7355,60.0832 L381.8585,59.4849 L383.7821,58.4173 L385.8106,57.5966 L385.8217,57.6248 L387.8702,56.7677 L389.9694,56.0391 L392.0441,55.2485 L394.1655,54.576 L396.1348,53.5183 L396.2362,53.7987 L398.3386,53.0419 L400.3756,52.1042 L402.5083,51.4313 L404.6456,50.7708 L406.6405,49.7171 L406.5415,49.4122 L408.8562,49.3143 L410.8449,48.2126 L413.0814,47.874 L415.0626,46.7495 L417.2532,46.2692 L417.2449,46.2399 L419.472,45.9826 L421.5051,45.0409 L423.6528,44.5031 L425.81,43.9992 L427.8979,43.2507 L427.9406,43.4307 L430.0179,42.7465 L432.1682,42.3698 L434.2005,41.4955 L436.4087,41.3635 L438.5,40.738 L438.5514,40.9762 L442.8497,40.001 L447.1734,39.144 L451.3786,37.7377 L455.6707,36.734 L460.0398,36.0872 L459.9833,35.8169 L463.7569,35.2833 L467.4669,34.4452 L471.2693,34.0489 L474.914,32.8983 L478.6524,32.196 L478.6266,32.0457 L481.9946,31.7266 L485.2525,30.7651 L488.5887,30.2604 L492.0014,30.2027 L495.2778,29.349 L495.2966,29.5418 L498.4251,29.3703 L501.4952,28.5994 L504.6385,28.5793 L507.7659,28.3957 L510.8561,27.8309 L510.8548,27.6209 L513.9501,27.8073 L517.045,27.925 L520.1407,28.1777 L523.2332,27.9052 L526.3275,27.9261 L526.3524,28.1302 L529.5585,28.0804 L532.8127,28.4246 L536.1372,29.3442 L539.3323,29.2044 L542.6318,29.9193 L542.6827,30.1397 L546.268,30.8439 L549.836,31.4736 L553.4429,32.2716 L557.1397,33.4586 L560.7093,34.0951 L560.6711,33.9676 L562.7843,34.9461 L564.6378,35.0579 L566.7865,36.1551 L568.769,36.6975 L570.7068,37.0904 L570.7416,37.1935 L572.8721,37.8398 L575.1274,38.8554 L577.27,39.5373 L579.3654,40.0797 L581.5,40.738 L581.5473,40.8474 L583.7667,41.6756 L586.2058,43.0117 L588.3963,43.7733 L590.6891,44.7712 L592.9483,45.6915 L592.8133,45.4573 L595.0515,46.7992 L597.4524,48.4233 L599.6231,49.648 L601.7113,50.7297 L603.914,52.0099 L603.8317,51.8927 L605.924,53.3825 L607.8705,54.6649 L610.2178,56.5174 L612.3668,58.0878 L614.2437,59.2711 L614.3916,59.4524 L616.347,61.067 L618.0214,62.337 L619.9924,63.9707 L621.767,65.3636 L623.784,67.0536 " fill="none" style="stroke:#383838;stroke-width:1.0;"/><polygon fill="#383838" points="627.798,70.6306,627.8618,70.6595,626.8607,68.7788,626.2339,67.0674,625.4851,65.3008,624.3356,63.3531,623.7409,61.6562,623.715,61.6547,623.6639,62.7775,623.7431,63.9079,623.9129,65.0434,623.7705,66.161,624.0654,67.3037,624.076,67.488,622.9239,67.1589,621.8027,67.3677,620.6852,67.6422,619.5458,67.5348,618.4179,67.6283,618.4248,67.6499,620.2907,68.2186,622.1881,68.8859,624.0703,69.5056,625.9815,70.2161,627.798,70.6306" style="stroke:#383838;stroke-width:1.0;"/><!--MD5=[940c857166f2eb81e7b5e98b55ae5065]
link EspecificarServicoController to ServicoRepository--><path d="M403.562,101.238 L403.562,101.3314 L409.5102,101.0539 L415.4584,101.3239 L421.4066,101.4156 L427.3548,100.9209 L433.303,101.238 " fill="none" style="stroke:#383838;stroke-width:1.0;"/><polygon fill="#383838" points="438.487,101.238,438.5155,101.302,436.6309,100.3118,434.9132,99.6969,433.1411,98.9597,431.1904,97.8207,429.487,97.238,429.4687,97.2197,430.1865,97.9375,430.9966,98.7476,431.8709,99.6219,432.524,100.275,433.487,101.238,433.6175,101.3685,432.5384,101.8894,431.8404,102.7914,431.1888,103.7398,430.2668,104.4178,429.487,105.238,429.4962,105.2588,431.2827,104.4283,433.1112,103.6924,434.9194,102.9108,436.7663,102.2164,438.487,101.238" style="stroke:#383838;stroke-width:1.0;"/><!--MD5=[1302abdc0afb4a01f23f71ec45062285]
@startuml
'http://plantuml.com/skinparam.html
skinparam handwritten true
skinparam monochrome true
skinparam packageStyle rect
skinparam defaultFontName FG Virgil
skinparam shadowing false

class FluxoAtividade
class CatalogoRepository
class Formulario
class ServicoBootstrapper
class EspecificarServicoController
class ServicoRepository
class Servico

ServicoBootstrapper -> FluxoAtividade
ServicoBootstrapper -> CatalogoRepository
ServicoBootstrapper -> Formulario
ServicoBootstrapper -> EspecificarServicoController

EspecificarServicoController -> Servico
EspecificarServicoController -> ServicoRepository

CatalogoRepository : getCatalogo()
Formulario : create()
FluxoAtividade : create()
EspecificarServicoController : especificarServico()
Servico : create()
ServicoRepository : save(servico)
@enduml

@startuml
skinparam handwritten true
skinparam monochrome true
skinparam packageStyle rect
skinparam defaultFontName FG Virgil
skinparam shadowing false

class FluxoAtividade
class CatalogoRepository
class Formulario
class ServicoBootstrapper
class EspecificarServicoController
class ServicoRepository
class Servico

ServicoBootstrapper -> FluxoAtividade
ServicoBootstrapper -> CatalogoRepository
ServicoBootstrapper -> Formulario
ServicoBootstrapper -> EspecificarServicoController

EspecificarServicoController -> Servico
EspecificarServicoController -> ServicoRepository

CatalogoRepository : getCatalogo()
Formulario : create()
FluxoAtividade : create()
EspecificarServicoController : especificarServico()
Servico : create()
ServicoRepository : save(servico)
@enduml

PlantUML version 1.2021.7(Sun May 23 12:40:07 UTC 2021)
(GPL source distribution)
Java Runtime: Java(TM) SE Runtime Environment
JVM: Java HotSpot(TM) 64-Bit Server VM
Default Encoding: UTF-8
Language: en
Country: US
--></g></svg>