<?xml version="1.0" encoding="UTF-8" standalone="no"?><svg xmlns="http://www.w3.org/2000/svg" xmlns:xlink="http://www.w3.org/1999/xlink" contentScriptType="application/ecmascript" contentStyleType="text/css" height="149px" preserveAspectRatio="none" style="width:1109px;height:149px;background:#FFFFFF;" version="1.1" viewBox="0 0 1109 149" width="1109px" zoomAndPan="magnify"><defs/><g><!--MD5=[a8d192d33def16c012ce1a98d6300525]
class FluxoAtividade--><polygon fill="#F8F8F8" points="982,81.264,982,81.4742,992,80.8497,1002,81.4573,1012,81.6637,1022,80.5506,1032,81.1863,1042,80.8375,1052,80.8805,1062,81.1958,1072,80.5726,1082,81.8176,1092,80.6337,1102,81.264,1101.8022,81.264,1102.4319,91.3981,1101.9142,101.5322,1102.0682,111.6663,1101.9681,121.8005,1102.1785,131.9346,1102,142.0687,1102,142.3078,1092,142.6544,1082,142.7397,1072,142.7479,1062,142.3233,1052,142.5323,1042,142.7709,1032,141.3475,1022,142.7472,1012,141.7722,1002,142.6025,992,141.5737,982,142.0687,981.9315,142.0687,982.7416,131.9346,981.9513,121.8005,982.1053,111.6663,982.3386,101.5322,982.4162,91.3981,982,81.264" style="stroke:#383838;stroke-width:1.5;"/><polygon fill="#C2C2C2" points="1008.0608,99.9396,1006.4484,102.1428,1004.5412,105.3697,1001.8136,107.5444,998.9474,108.7336,996.662,108.8368,993.7247,107.3495,990.9532,106.3779,988.8495,104.4052,987.7461,102.1468,987.0917,100.3485,986.4506,97.9997,985.41,95.9785,986.2096,94.005,986.9102,91.8432,989.5393,90.1335,991.389,87.9151,993.6784,87.1784,996.4001,86.5441,999.8904,86.921,1001.8021,87.8225,1004.0247,88.2312,1006.7272,91,1007.6693,93.923,1008.0786,95.9174,1007.615,99.2039" style="stroke:#383838;stroke-width:1.0;"/><path d="M999.3438,92.9359 C998.4063,92.4984 997.8125,92.3578 996.9375,92.3578 C994.3125,92.3578 992.3125,94.4359 992.3125,97.1546 L992.3125,98.2796 C992.3125,100.8578 994.4219,102.7484 997.3125,102.7484 C998.5313,102.7484 999.6875,102.4515 1000.4375,101.9046 C1001.0156,101.4984 1001.3438,101.0453 1001.3438,100.6546 C1001.3438,100.2015 1000.9531,99.8109 1000.4844,99.8109 C1000.2656,99.8109 1000.0625,99.889 999.875,100.0765 C999.4219,100.5609 999.4219,100.5609 999.2344,100.6546 C998.8125,100.9203 998.125,101.0453 997.3594,101.0453 C995.3125,101.0453 994.0156,99.9515 994.0156,98.2484 L994.0156,97.1546 C994.0156,95.3734 995.2656,94.0609 997,94.0609 C997.5781,94.0609 998.1875,94.2171 998.6563,94.4671 C999.1406,94.7484 999.3125,94.9671 999.4063,95.3734 C999.4688,95.7796 999.5,95.9046 999.6406,96.0296 C999.7813,96.1703 1000.0156,96.2796 1000.2344,96.2796 C1000.5,96.2796 1000.7656,96.139 1000.9375,95.9203 C1001.0469,95.764 1001.0781,95.5765 1001.0781,95.1546 L1001.0781,93.7328 C1001.0781,93.2953 1001.0625,93.1703 1000.9688,93.014 C1000.8125,92.7484 1000.5313,92.6078 1000.2344,92.6078 C999.9375,92.6078 999.7344,92.7015 999.5156,93.014 L999.3438,92.9359 Z " fill="#000000"/><text fill="#000000" font-family="FG Virgil" font-size="12" lengthAdjust="spacing" textLength="88" x="1011" y="101.4183">FluxoAtividade</text><path d="M983,113.264 L983,113.5442 L992.8333,112.7116 L1002.6667,113.5217 L1012.5,113.7969 L1022.3333,112.3128 L1032.1667,113.1604 L1042,112.6953 L1051.8333,112.7527 L1061.6667,113.1731 L1071.5,112.3422 L1081.3333,114.0022 L1091.1667,112.4236 L1101,113.264 " fill="#F8F8F8" style="stroke:#383838;stroke-width:1.5;"/><path d="M983,121.264 L983,121.5442 L992.8333,120.7116 L1002.6667,121.5217 L1012.5,121.7969 L1022.3333,120.3128 L1032.1667,121.1604 L1042,120.6953 L1051.8333,120.7527 L1061.6667,121.1731 L1071.5,120.3422 L1081.3333,122.0022 L1091.1667,120.4236 L1101,121.264 " fill="#F8F8F8" style="stroke:#383838;stroke-width:1.5;"/><text fill="#000000" font-family="FG Virgil" font-size="11" lengthAdjust="spacing" textLength="45" x="988" y="135.4744">create()</text><!--MD5=[28183b5fe251cf9d4adbbaa3c2129d6e]
class Catalogo--><polygon fill="#F8F8F8" points="861.5,81.264,861.5,81.4742,870.9444,80.8497,880.3889,81.4573,889.8333,81.6637,899.2778,80.5506,908.7222,81.1863,918.1667,80.8375,927.6111,80.8805,937.0556,81.1958,946.5,81.264,945.8086,81.264,947.0536,91.3981,945.8697,101.5322,946.3022,111.6663,946.9319,121.8005,946.4142,131.9346,946.5,142.0687,946.5,142.1369,937.0556,142.0367,927.6111,142.2472,918.1667,142.3078,908.7222,142.6544,899.2778,142.7397,889.8333,142.7479,880.3889,142.3233,870.9444,142.5323,861.5,142.0687,862.2022,142.0687,860.7788,131.9346,862.1785,121.8005,861.2035,111.6663,862.0338,101.5322,861.005,91.3981,861.5,81.264" style="stroke:#383838;stroke-width:1.5;"/><polygon fill="#C2C2C2" points="887.5608,99.9396,885.9484,102.1428,884.0412,105.3697,881.3136,107.5444,878.4474,108.7336,876.162,108.8368,873.2247,107.3495,870.4532,106.3779,868.3495,104.4052,867.2461,102.1468,866.5917,100.3485,865.9506,97.9997,864.91,95.9785,865.7096,94.005,866.4102,91.8432,869.0393,90.1335,870.889,87.9151,873.1784,87.1784,875.9001,86.5441,879.3904,86.921,881.3021,87.8225,883.5247,88.2312,886.2272,91,887.1693,93.923,887.5786,95.9174,887.115,99.2039" style="stroke:#383838;stroke-width:1.0;"/><path d="M878.8438,92.9359 C877.9063,92.4984 877.3125,92.3578 876.4375,92.3578 C873.8125,92.3578 871.8125,94.4359 871.8125,97.1546 L871.8125,98.2796 C871.8125,100.8578 873.9219,102.7484 876.8125,102.7484 C878.0313,102.7484 879.1875,102.4515 879.9375,101.9046 C880.5156,101.4984 880.8438,101.0453 880.8438,100.6546 C880.8438,100.2015 880.4531,99.8109 879.9844,99.8109 C879.7656,99.8109 879.5625,99.889 879.375,100.0765 C878.9219,100.5609 878.9219,100.5609 878.7344,100.6546 C878.3125,100.9203 877.625,101.0453 876.8594,101.0453 C874.8125,101.0453 873.5156,99.9515 873.5156,98.2484 L873.5156,97.1546 C873.5156,95.3734 874.7656,94.0609 876.5,94.0609 C877.0781,94.0609 877.6875,94.2171 878.1563,94.4671 C878.6406,94.7484 878.8125,94.9671 878.9063,95.3734 C878.9688,95.7796 879,95.9046 879.1406,96.0296 C879.2813,96.1703 879.5156,96.2796 879.7344,96.2796 C880,96.2796 880.2656,96.139 880.4375,95.9203 C880.5469,95.764 880.5781,95.5765 880.5781,95.1546 L880.5781,93.7328 C880.5781,93.2953 880.5625,93.1703 880.4688,93.014 C880.3125,92.7484 880.0313,92.6078 879.7344,92.6078 C879.4375,92.6078 879.2344,92.7015 879.0156,93.014 L878.8438,92.9359 Z " fill="#000000"/><text fill="#000000" font-family="FG Virgil" font-size="12" lengthAdjust="spacing" textLength="53" x="890.5" y="101.4183">Catalogo</text><path d="M862.5,113.264 L862.5,113.5442 L872.875,112.7116 L883.25,113.5217 L893.625,113.7969 L904,112.3128 L914.375,113.1604 L924.75,112.6953 L935.125,112.7527 L945.5,113.264 " fill="#F8F8F8" style="stroke:#383838;stroke-width:1.5;"/><path d="M862.5,121.264 L862.5,121.5442 L872.875,120.7116 L883.25,121.5217 L893.625,121.7969 L904,120.3128 L914.375,121.1604 L924.75,120.6953 L935.125,120.7527 L945.5,121.264 " fill="#F8F8F8" style="stroke:#383838;stroke-width:1.5;"/><text fill="#000000" font-family="FG Virgil" font-size="11" lengthAdjust="spacing" textLength="45" x="867.5" y="135.4744">create()</text><!--MD5=[76acc874f09693b2f2def29d0cdf8ced]
class Formulario--><polygon fill="#F8F8F8" points="730,81.264,730,81.4742,739.6,80.8497,749.2,81.4573,758.8,81.6637,768.4,80.5506,778,81.1863,787.6,80.8375,797.2,80.8805,806.8,81.1958,816.4,80.5726,826,81.264,826.5536,81.264,825.3697,91.3981,825.8022,101.5322,826.4319,111.6663,825.9142,121.8005,826.0682,131.9346,826,142.0687,826,142.0367,816.4,142.2472,806.8,142.3078,797.2,142.6544,787.6,142.7397,778,142.7479,768.4,142.3233,758.8,142.5323,749.2,142.7709,739.6,141.3475,730,142.0687,730.6785,142.0687,729.7035,131.9346,730.5338,121.8005,729.505,111.6663,729.9315,101.5322,730.7416,91.3981,730,81.264" style="stroke:#383838;stroke-width:1.5;"/><polygon fill="#C2C2C2" points="756.0608,99.9396,754.4484,102.1428,752.5412,105.3697,749.8136,107.5444,746.9474,108.7336,744.662,108.8368,741.7247,107.3495,738.9532,106.3779,736.8495,104.4052,735.7461,102.1468,735.0917,100.3485,734.4506,97.9997,733.41,95.9785,734.2096,94.005,734.9102,91.8432,737.5393,90.1335,739.389,87.9151,741.6784,87.1784,744.4001,86.5441,747.8904,86.921,749.8021,87.8225,752.0247,88.2312,754.7272,91,755.6693,93.923,756.0786,95.9174,755.615,99.2039" style="stroke:#383838;stroke-width:1.0;"/><path d="M747.3438,92.9359 C746.4063,92.4984 745.8125,92.3578 744.9375,92.3578 C742.3125,92.3578 740.3125,94.4359 740.3125,97.1546 L740.3125,98.2796 C740.3125,100.8578 742.4219,102.7484 745.3125,102.7484 C746.5313,102.7484 747.6875,102.4515 748.4375,101.9046 C749.0156,101.4984 749.3438,101.0453 749.3438,100.6546 C749.3438,100.2015 748.9531,99.8109 748.4844,99.8109 C748.2656,99.8109 748.0625,99.889 747.875,100.0765 C747.4219,100.5609 747.4219,100.5609 747.2344,100.6546 C746.8125,100.9203 746.125,101.0453 745.3594,101.0453 C743.3125,101.0453 742.0156,99.9515 742.0156,98.2484 L742.0156,97.1546 C742.0156,95.3734 743.2656,94.0609 745,94.0609 C745.5781,94.0609 746.1875,94.2171 746.6563,94.4671 C747.1406,94.7484 747.3125,94.9671 747.4063,95.3734 C747.4688,95.7796 747.5,95.9046 747.6406,96.0296 C747.7813,96.1703 748.0156,96.2796 748.2344,96.2796 C748.5,96.2796 748.7656,96.139 748.9375,95.9203 C749.0469,95.764 749.0781,95.5765 749.0781,95.1546 L749.0781,93.7328 C749.0781,93.2953 749.0625,93.1703 748.9688,93.014 C748.8125,92.7484 748.5313,92.6078 748.2344,92.6078 C747.9375,92.6078 747.7344,92.7015 747.5156,93.014 L747.3438,92.9359 Z " fill="#000000"/><text fill="#000000" font-family="FG Virgil" font-size="12" lengthAdjust="spacing" textLength="64" x="759" y="101.4183">Formulario</text><path d="M731,113.264 L731,113.5442 L741.4444,112.7116 L751.8889,113.5217 L762.3333,113.7969 L772.7778,112.3128 L783.2222,113.1604 L793.6667,112.6953 L804.1111,112.7527 L814.5556,113.1731 L825,113.264 " fill="#F8F8F8" style="stroke:#383838;stroke-width:1.5;"/><path d="M731,121.264 L731,121.5442 L741.4444,120.7116 L751.8889,121.5217 L762.3333,121.7969 L772.7778,120.3128 L783.2222,121.1604 L793.6667,120.6953 L804.1111,120.7527 L814.5556,121.1731 L825,121.264 " fill="#F8F8F8" style="stroke:#383838;stroke-width:1.5;"/><text fill="#000000" font-family="FG Virgil" font-size="11" lengthAdjust="spacing" textLength="45" x="736" y="135.4744">create()</text><!--MD5=[3c53b7d4816e778f4776984cb196eb7b]
class ServicoBootstrapper--><polygon fill="#F8F8F8" points="7,87.764,7,87.9742,16.875,87.3497,26.75,87.9573,36.625,88.1637,46.5,87.0506,56.375,87.6863,66.25,87.3375,76.125,87.3805,86,87.6958,95.875,87.0726,105.75,88.3176,115.625,87.1337,125.5,87.5662,135.375,88.1959,145.25,87.6782,155.125,87.8322,165,87.764,164.9681,87.764,165.1785,97.364,165.2391,106.964,165.5857,116.564,165.6711,126.164,165,135.764,165,136.4433,155.125,136.0186,145.25,136.2276,135.375,136.4662,125.5,135.0428,115.625,136.4425,105.75,135.4675,95.875,136.2978,86,135.269,76.125,135.6955,66.25,136.5056,56.375,135.7153,46.5,135.8693,36.625,136.1026,26.75,136.1802,16.875,135.7601,7,135.764,7.2872,135.764,6.4276,126.164,7.2844,116.564,7.5482,106.964,7.4445,97.364,7,87.764" style="stroke:#383838;stroke-width:1.5;"/><polygon fill="#C2C2C2" points="33.0608,106.4396,31.4484,108.6428,29.5412,111.8697,26.8136,114.0444,23.9474,115.2336,21.662,115.3368,18.7247,113.8495,15.9532,112.8779,13.8495,110.9052,12.7461,108.6468,12.0917,106.8485,11.4506,104.4997,10.41,102.4785,11.2096,100.505,11.9102,98.3432,14.5393,96.6335,16.389,94.4151,18.6784,93.6784,21.4001,93.0441,24.8904,93.421,26.8021,94.3225,29.0247,94.7312,31.7272,97.5,32.6693,100.423,33.0786,102.4174,32.615,105.7039" style="stroke:#383838;stroke-width:1.0;"/><path d="M24.3438,99.4359 C23.4063,98.9984 22.8125,98.8578 21.9375,98.8578 C19.3125,98.8578 17.3125,100.9359 17.3125,103.6546 L17.3125,104.7796 C17.3125,107.3578 19.4219,109.2484 22.3125,109.2484 C23.5313,109.2484 24.6875,108.9515 25.4375,108.4046 C26.0156,107.9984 26.3438,107.5453 26.3438,107.1546 C26.3438,106.7015 25.9531,106.3109 25.4844,106.3109 C25.2656,106.3109 25.0625,106.389 24.875,106.5765 C24.4219,107.0609 24.4219,107.0609 24.2344,107.1546 C23.8125,107.4203 23.125,107.5453 22.3594,107.5453 C20.3125,107.5453 19.0156,106.4515 19.0156,104.7484 L19.0156,103.6546 C19.0156,101.8734 20.2656,100.5609 22,100.5609 C22.5781,100.5609 23.1875,100.7171 23.6563,100.9671 C24.1406,101.2484 24.3125,101.4671 24.4063,101.8734 C24.4688,102.2796 24.5,102.4046 24.6406,102.5296 C24.7813,102.6703 25.0156,102.7796 25.2344,102.7796 C25.5,102.7796 25.7656,102.639 25.9375,102.4203 C26.0469,102.264 26.0781,102.0765 26.0781,101.6546 L26.0781,100.2328 C26.0781,99.7953 26.0625,99.6703 25.9688,99.514 C25.8125,99.2484 25.5313,99.1078 25.2344,99.1078 C24.9375,99.1078 24.7344,99.2015 24.5156,99.514 L24.3438,99.4359 Z " fill="#000000"/><text fill="#000000" font-family="FG Virgil" font-size="12" lengthAdjust="spacing" textLength="126" x="36" y="107.9183">ServicoBootstrapper</text><path d="M8,119.764 L8,120.0442 L17.75,119.2116 L27.5,120.0217 L37.25,120.2969 L47,118.8128 L56.75,119.6604 L66.5,119.1953 L76.25,119.2527 L86,119.6731 L95.75,118.8422 L105.5,120.5022 L115.25,118.9236 L125,119.5003 L134.75,120.3399 L144.5,119.6496 L154.25,119.855 L164,119.764 " fill="#F8F8F8" style="stroke:#383838;stroke-width:1.5;"/><path d="M8,127.764 L8,128.0442 L17.75,127.2116 L27.5,128.0217 L37.25,128.2969 L47,126.8128 L56.75,127.6604 L66.5,127.1953 L76.25,127.2527 L86,127.6731 L95.75,126.8422 L105.5,128.5022 L115.25,126.9236 L125,127.5003 L134.75,128.3399 L144.5,127.6496 L154.25,127.855 L164,127.764 " fill="#F8F8F8" style="stroke:#383838;stroke-width:1.5;"/><!--MD5=[0d4e5460865fab64524af805768c65c5]
class EspecificarServicoController--><polygon fill="#F8F8F8" points="200.5,81.264,200.5,81.4742,210.65,80.8497,220.8,81.4573,230.95,81.6637,241.1,80.5506,251.25,81.1863,261.4,80.8375,271.55,80.8805,281.7,81.1958,291.85,80.5726,302,81.8176,312.15,80.6337,322.3,81.0662,332.45,81.6959,342.6,81.1782,352.75,81.3322,362.9,81.2321,373.05,81.4425,383.2,81.5031,393.35,81.8497,403.5,81.264,404.1711,81.264,404.1793,91.3981,403.7546,101.5322,403.9636,111.6663,404.2022,121.8005,402.7788,131.9346,403.5,142.0687,403.5,142.7472,393.35,141.7722,383.2,142.6025,373.05,141.5737,362.9,142.0002,352.75,142.8103,342.6,142.02,332.45,142.174,322.3,142.4073,312.15,142.4849,302,142.0648,291.85,142.3559,281.7,141.4963,271.55,142.3531,261.4,142.6169,251.25,142.5132,241.1,142.6817,230.95,141.5856,220.8,141.4165,210.65,141.4473,200.5,142.0687,200.4411,142.0687,200.3035,131.9346,201.1814,121.8005,200.3253,111.6663,200.1569,101.5322,200.7283,91.3981,200.5,81.264" style="stroke:#383838;stroke-width:1.5;"/><polygon fill="#C2C2C2" points="226.5608,99.9396,224.9484,102.1428,223.0412,105.3697,220.3136,107.5444,217.4474,108.7336,215.162,108.8368,212.2247,107.3495,209.4532,106.3779,207.3495,104.4052,206.2461,102.1468,205.5917,100.3485,204.9506,97.9997,203.91,95.9785,204.7096,94.005,205.4102,91.8432,208.0393,90.1335,209.889,87.9151,212.1784,87.1784,214.9001,86.5441,218.3904,86.921,220.3021,87.8225,222.5247,88.2312,225.2272,91,226.1693,93.923,226.5786,95.9174,226.115,99.2039" style="stroke:#383838;stroke-width:1.0;"/><path d="M217.8438,92.9359 C216.9063,92.4984 216.3125,92.3578 215.4375,92.3578 C212.8125,92.3578 210.8125,94.4359 210.8125,97.1546 L210.8125,98.2796 C210.8125,100.8578 212.9219,102.7484 215.8125,102.7484 C217.0313,102.7484 218.1875,102.4515 218.9375,101.9046 C219.5156,101.4984 219.8438,101.0453 219.8438,100.6546 C219.8438,100.2015 219.4531,99.8109 218.9844,99.8109 C218.7656,99.8109 218.5625,99.889 218.375,100.0765 C217.9219,100.5609 217.9219,100.5609 217.7344,100.6546 C217.3125,100.9203 216.625,101.0453 215.8594,101.0453 C213.8125,101.0453 212.5156,99.9515 212.5156,98.2484 L212.5156,97.1546 C212.5156,95.3734 213.7656,94.0609 215.5,94.0609 C216.0781,94.0609 216.6875,94.2171 217.1563,94.4671 C217.6406,94.7484 217.8125,94.9671 217.9063,95.3734 C217.9688,95.7796 218,95.9046 218.1406,96.0296 C218.2813,96.1703 218.5156,96.2796 218.7344,96.2796 C219,96.2796 219.2656,96.139 219.4375,95.9203 C219.5469,95.764 219.5781,95.5765 219.5781,95.1546 L219.5781,93.7328 C219.5781,93.2953 219.5625,93.1703 219.4688,93.014 C219.3125,92.7484 219.0313,92.6078 218.7344,92.6078 C218.4375,92.6078 218.2344,92.7015 218.0156,93.014 L217.8438,92.9359 Z " fill="#000000"/><text fill="#000000" font-family="FG Virgil" font-size="12" lengthAdjust="spacing" textLength="171" x="229.5" y="101.4183">EspecificarServicoController</text><path d="M201.5,113.264 L201.5,113.5442 L211.55,112.7116 L221.6,113.5217 L231.65,113.7969 L241.7,112.3128 L251.75,113.1604 L261.8,112.6953 L271.85,112.7527 L281.9,113.1731 L291.95,112.3422 L302,114.0022 L312.05,112.4236 L322.1,113.0003 L332.15,113.8399 L342.2,113.1496 L352.25,113.355 L362.3,113.2214 L372.35,113.502 L382.4,113.5828 L392.45,114.0449 L402.5,113.264 " fill="#F8F8F8" style="stroke:#383838;stroke-width:1.5;"/><path d="M201.5,121.264 L201.5,121.5442 L211.55,120.7116 L221.6,121.5217 L231.65,121.7969 L241.7,120.3128 L251.75,121.1604 L261.8,120.6953 L271.85,120.7527 L281.9,121.1731 L291.95,120.3422 L302,122.0022 L312.05,120.4236 L322.1,121.0003 L332.15,121.8399 L342.2,121.1496 L352.25,121.355 L362.3,121.2214 L372.35,121.502 L382.4,121.5828 L392.45,122.0449 L402.5,121.264 " fill="#F8F8F8" style="stroke:#383838;stroke-width:1.5;"/><text fill="#000000" font-family="FG Virgil" font-size="11" lengthAdjust="spacing" textLength="113" x="206.5" y="135.4744">especificarServico()</text><!--MD5=[51865f8cbfe0824679c335d6e733f291]
class ServicoRepository--><polygon fill="#F8F8F8" points="438.5,81.264,438.5,81.4742,448.7143,80.8497,458.9286,81.4573,469.1429,81.6637,479.3571,80.5506,489.5714,81.1863,499.7857,80.8375,510,80.8805,520.2143,81.1958,530.4286,80.5726,540.6429,81.8176,550.8571,80.6337,561.0714,81.0662,571.2857,81.6959,581.5,81.264,581.4142,81.264,581.5682,91.3981,581.4681,101.5322,581.6785,111.6663,581.7391,121.8005,582.0857,131.9346,581.5,142.0687,581.5,142.7397,571.2857,142.7479,561.0714,142.3233,550.8571,142.5323,540.6429,142.7709,530.4286,141.3475,520.2143,142.7472,510,141.7722,499.7857,142.6025,489.5714,141.5737,479.3571,142.0002,469.1429,142.8103,458.9286,142.02,448.7143,142.174,438.5,142.0687,438.8386,142.0687,438.9162,131.9346,438.4961,121.8005,438.7872,111.6663,437.9276,101.5322,438.7844,91.3981,438.5,81.264" style="stroke:#383838;stroke-width:1.5;"/><polygon fill="#C2C2C2" points="464.5608,99.9396,462.9484,102.1428,461.0412,105.3697,458.3136,107.5444,455.4474,108.7336,453.162,108.8368,450.2247,107.3495,447.4532,106.3779,445.3495,104.4052,444.2461,102.1468,443.5917,100.3485,442.9506,97.9997,441.91,95.9785,442.7096,94.005,443.4102,91.8432,446.0393,90.1335,447.889,87.9151,450.1784,87.1784,452.9001,86.5441,456.3904,86.921,458.3021,87.8225,460.5247,88.2312,463.2272,91,464.1693,93.923,464.5786,95.9174,464.115,99.2039" style="stroke:#383838;stroke-width:1.0;"/><path d="M455.8438,92.9359 C454.9063,92.4984 454.3125,92.3578 453.4375,92.3578 C450.8125,92.3578 448.8125,94.4359 448.8125,97.1546 L448.8125,98.2796 C448.8125,100.8578 450.9219,102.7484 453.8125,102.7484 C455.0313,102.7484 456.1875,102.4515 456.9375,101.9046 C457.5156,101.4984 457.8438,101.0453 457.8438,100.6546 C457.8438,100.2015 457.4531,99.8109 456.9844,99.8109 C456.7656,99.8109 456.5625,99.889 456.375,100.0765 C455.9219,100.5609 455.9219,100.5609 455.7344,100.6546 C455.3125,100.9203 454.625,101.0453 453.8594,101.0453 C451.8125,101.0453 450.5156,99.9515 450.5156,98.2484 L450.5156,97.1546 C450.5156,95.3734 451.7656,94.0609 453.5,94.0609 C454.0781,94.0609 454.6875,94.2171 455.1563,94.4671 C455.6406,94.7484 455.8125,94.9671 455.9063,95.3734 C455.9688,95.7796 456,95.9046 456.1406,96.0296 C456.2813,96.1703 456.5156,96.2796 456.7344,96.2796 C457,96.2796 457.2656,96.139 457.4375,95.9203 C457.5469,95.764 457.5781,95.5765 457.5781,95.1546 L457.5781,93.7328 C457.5781,93.2953 457.5625,93.1703 457.4688,93.014 C457.3125,92.7484 457.0313,92.6078 456.7344,92.6078 C456.4375,92.6078 456.2344,92.7015 456.0156,93.014 L455.8438,92.9359 Z " fill="#000000"/><text fill="#000000" font-family="FG Virgil" font-size="12" lengthAdjust="spacing" textLength="111" x="467.5" y="101.4183">ServicoRepository</text><path d="M439.5,113.264 L439.5,113.5442 L449.5714,112.7116 L459.6429,113.5217 L469.7143,113.7969 L479.7857,112.3128 L489.8571,113.1604 L499.9286,112.6953 L510,112.7527 L520.0714,113.1731 L530.1429,112.3422 L540.2143,114.0022 L550.2857,112.4236 L560.3571,113.0003 L570.4286,113.8399 L580.5,113.264 " fill="#F8F8F8" style="stroke:#383838;stroke-width:1.5;"/><path d="M439.5,121.264 L439.5,121.5442 L449.5714,120.7116 L459.6429,121.5217 L469.7143,121.7969 L479.7857,120.3128 L489.8571,121.1604 L499.9286,120.6953 L510,120.7527 L520.0714,121.1731 L530.1429,120.3422 L540.2143,122.0022 L550.2857,120.4236 L560.3571,121.0003 L570.4286,121.8399 L580.5,121.264 " fill="#F8F8F8" style="stroke:#383838;stroke-width:1.5;"/><text fill="#000000" font-family="FG Virgil" font-size="11" lengthAdjust="spacing" textLength="77" x="444.5" y="135.4744">save(servico)</text><!--MD5=[faf4d635eea35b16677487bac6ad9bf5]
class Servico--><polygon fill="#F8F8F8" points="617,81.264,617,81.4742,626.75,80.8497,636.5,81.4573,646.25,81.6637,656,80.5506,665.75,81.1863,675.5,80.8375,685.25,80.8805,695,81.264,694.9318,81.264,694.3086,91.3981,695.5536,101.5322,694.3697,111.6663,694.8022,121.8005,695.4319,131.9346,695,142.0687,695,141.9829,685.25,142.1369,675.5,142.0367,665.75,142.2472,656,142.3078,646.25,142.6544,636.5,142.7397,626.75,142.7479,617,142.0687,617.2546,142.0687,617.4636,131.9346,617.7022,121.8005,616.2788,111.6663,617.6785,101.5322,616.7035,91.3981,617,81.264" style="stroke:#383838;stroke-width:1.5;"/><polygon fill="#C2C2C2" points="643.0608,99.9396,641.4484,102.1428,639.5412,105.3697,636.8136,107.5444,633.9474,108.7336,631.662,108.8368,628.7247,107.3495,625.9532,106.3779,623.8495,104.4052,622.7461,102.1468,622.0917,100.3485,621.4506,97.9997,620.41,95.9785,621.2096,94.005,621.9102,91.8432,624.5393,90.1335,626.389,87.9151,628.6784,87.1784,631.4001,86.5441,634.8904,86.921,636.8021,87.8225,639.0247,88.2312,641.7272,91,642.6693,93.923,643.0786,95.9174,642.615,99.2039" style="stroke:#383838;stroke-width:1.0;"/><path d="M634.3438,92.9359 C633.4063,92.4984 632.8125,92.3578 631.9375,92.3578 C629.3125,92.3578 627.3125,94.4359 627.3125,97.1546 L627.3125,98.2796 C627.3125,100.8578 629.4219,102.7484 632.3125,102.7484 C633.5313,102.7484 634.6875,102.4515 635.4375,101.9046 C636.0156,101.4984 636.3438,101.0453 636.3438,100.6546 C636.3438,100.2015 635.9531,99.8109 635.4844,99.8109 C635.2656,99.8109 635.0625,99.889 634.875,100.0765 C634.4219,100.5609 634.4219,100.5609 634.2344,100.6546 C633.8125,100.9203 633.125,101.0453 632.3594,101.0453 C630.3125,101.0453 629.0156,99.9515 629.0156,98.2484 L629.0156,97.1546 C629.0156,95.3734 630.2656,94.0609 632,94.0609 C632.5781,94.0609 633.1875,94.2171 633.6563,94.4671 C634.1406,94.7484 634.3125,94.9671 634.4063,95.3734 C634.4688,95.7796 634.5,95.9046 634.6406,96.0296 C634.7813,96.1703 635.0156,96.2796 635.2344,96.2796 C635.5,96.2796 635.7656,96.139 635.9375,95.9203 C636.0469,95.764 636.0781,95.5765 636.0781,95.1546 L636.0781,93.7328 C636.0781,93.2953 636.0625,93.1703 635.9688,93.014 C635.8125,92.7484 635.5313,92.6078 635.2344,92.6078 C634.9375,92.6078 634.7344,92.7015 634.5156,93.014 L634.3438,92.9359 Z " fill="#000000"/><text fill="#000000" font-family="FG Virgil" font-size="12" lengthAdjust="spacing" textLength="46" x="646" y="101.4183">Servico</text><path d="M618,113.264 L618,113.5442 L627.5,112.7116 L637,113.5217 L646.5,113.7969 L656,112.3128 L665.5,113.1604 L675,112.6953 L684.5,112.7527 L694,113.264 " fill="#F8F8F8" style="stroke:#383838;stroke-width:1.5;"/><path d="M618,121.264 L618,121.5442 L627.5,120.7116 L637,121.5217 L646.5,121.7969 L656,120.3128 L665.5,121.1604 L675,120.6953 L684.5,120.7527 L694,121.264 " fill="#F8F8F8" style="stroke:#383838;stroke-width:1.5;"/><text fill="#000000" font-family="FG Virgil" font-size="11" lengthAdjust="spacing" textLength="45" x="623" y="135.4744">create()</text><!--MD5=[85fcf35cc8fc398959cd56f9a3e44bb3]
link ServicoBootstrapper to FluxoAtividade--><path d="M120.791,87.6471 L120.8396,87.7269 L122.3981,86.4533 L124.2414,85.6474 L125.992,84.6892 L127.4376,83.2301 L129.3053,82.4644 L129.2881,82.4345 L131.035,81.25 L132.8688,80.2164 L134.763,79.2877 L136.449,77.9974 L138.4266,77.2136 L138.5434,77.4302 L140.22,75.9282 L142.2376,75.0585 L144.2967,74.266 L146.1139,73.0247 L148.0583,72.0194 L148.0719,72.0465 L150.0611,71.0041 L152.1121,70.0852 L154.1333,69.1068 L156.2112,68.242 L158.1041,67.0065 L158.2275,67.2781 L160.3017,66.3401 L162.2963,65.2269 L164.4074,64.3701 L166.524,63.5253 L168.4676,62.2998 L168.3476,62.0026 L170.6975,61.7243 L172.6522,60.4673 L174.9073,59.9543 L176.853,58.6752 L179.0524,58.024 L179.0424,57.9952 L181.3024,57.5913 L183.3291,56.5155 L185.4935,55.8361 L187.6694,55.19 L189.762,54.3038 L189.8123,54.4818 L191.9091,53.6942 L194.0919,53.2107 L196.1355,52.2351 L198.3868,51.9936 L200.5,51.264 L200.5483,51.5028 L202.3377,51.0935 L204.1511,50.8028 L205.8529,49.9612 L207.6365,49.5234 L209.4925,49.4434 L209.4526,49.1701 L211.8425,49.0734 L214.1875,48.6688 L216.5978,48.7108 L218.8965,47.9902 L221.2616,47.723 L221.2445,47.5714 L224.145,47.5001 L226.9725,46.781 L229.852,46.5226 L232.7822,46.7147 L235.622,46.1044 L235.6394,46.2973 L239.0046,46.1266 L242.3157,45.356 L245.6946,45.3368 L249.0587,45.1539 L252.3884,44.5895 L252.3728,44.3801 L256.1826,44.2651 L259.9874,44.0816 L263.8021,44.0327 L267.578,43.46 L271.3755,43.18 L271.3882,43.3852 L275.5648,42.6738 L279.766,42.3586 L284.003,42.6219 L288.1739,41.82 L292.3982,41.8775 L292.41,42.1034 L296.9775,41.7305 L301.5411,41.2812 L306.1137,41.0044 L310.7071,41.1263 L315.2711,40.6839 L315.2652,40.551 L320.1902,40.7301 L325.0753,40.0053 L330.0058,40.3082 L334.9108,40.0325 L339.8089,39.6008 L339.8129,39.7096 L345.0132,39.4277 L350.2279,39.5352 L355.4295,39.2909 L360.6257,38.8994 L365.8264,38.63 L365.8301,38.7492 L371.2869,38.4008 L376.7611,38.6056 L382.2157,38.1848 L387.6783,38.0213 L393.1383,37.7732 L393.1191,36.9623 L402.7532,37.0056 L412.4103,38.0258 L422.0348,37.6637 L431.6476,36.8062 L441.2665,36.2066 L450.9043,36.4086 L450.9,36.1167 L461.0109,35.3458 L471.1525,36.6655 L481.2789,36.9506 L491.3948,36.5184 L501.5181,36.5951 L511.6246,35.5206 L511.6235,35.3383 L521.9908,35.5707 L532.3522,34.8714 L542.7234,35.7006 L553.0885,35.5847 L563.4565,35.926 L573.8173,35.1233 L573.8167,34.817 L584.1807,34.9619 L594.5458,35.7502 L604.9099,35.9332 L615.2712,34.5112 L625.6357,34.9539 L636,35.2303 L636.002,35.4293 L646.1067,34.5201 L656.235,35.9099 L666.3488,35.8869 L676.459,35.5128 L686.5774,35.941 L696.6906,35.8555 L696.6962,36.1793 L702.5527,35.8188 L708.4221,36.2 L714.2864,36.2892 L720.1496,36.316 L726.0132,36.3668 L726.0146,36.4294 L731.6931,36.5465 L737.3644,36.3479 L743.0454,36.5763 L748.7236,36.6786 L754.407,37.0129 L754.4078,37.0412 L759.864,37.2085 L765.3209,37.3977 L770.7711,37.3531 L776.2299,37.6088 L781.6867,37.7953 L781.6848,37.7419 L786.8918,38.2357 L792.0855,38.3531 L797.2672,38.1321 L802.4698,38.4995 L807.667,38.716 L807.6559,38.4597 L812.5717,39.0562 L817.477,39.4105 L822.3749,39.5942 L827.2552,39.3711 L832.1627,39.7766 L832.1735,39.9826 L836.7105,39.6874 L841.2977,40.3464 L845.8512,40.3652 L850.4256,40.7814 L854.9885,40.9789 L854.9953,41.0855 L859.196,41.4574 L863.3562,41.1979 L867.5844,41.9972 L871.77,42.1345 L875.9591,42.3246 L875.9715,42.482 L879.7712,42.954 L883.5313,42.9233 L887.3233,43.2967 L891.1106,43.6117 L894.8892,43.8153 L894.8978,43.9026 L898.2301,44.1425 L901.6018,44.7847 L904.8855,44.5282 L908.2773,45.3754 L911.5937,45.4529 L911.5593,45.1777 L914.4226,45.5719 L917.3133,46.185 L920.1713,46.5371 L923.0013,46.6645 L925.8871,47.2391 L925.9172,47.4205 L928.2345,47.6741 L930.6188,48.3323 L932.9539,48.6935 L935.2123,48.5917 L937.5843,49.1755 L937.544,49.0033 L939.3544,49.5373 L941.1866,50.1648 L942.9746,50.603 L944.7474,50.9766 L946.5,51.264 L946.4494,51.1207 L949.4224,52.5285 L952.2504,53.5252 L954.978,54.2376 L957.778,55.155 L960.6417,56.2529 L960.5666,56.0912 L963.3657,57.4505 L966.1957,58.8765 L968.9213,60.0776 L971.62,61.2209 L974.4624,62.6733 L974.5681,62.8624 L977.0102,63.9759 L979.8661,65.8294 L982.4972,67.2809 L985.1326,68.7401 L987.6993,70.0764 L987.8653,70.3356 L990.1185,71.5718 L992.5835,73.1387 L995.2581,75.0329 L997.4688,76.2027 L1000.09,78.0135 " fill="none" style="stroke:#383838;stroke-width:1.0;"/><polygon fill="#383838" points="1004.476,81.0445,1004.5358,81.081,1003.3321,79.2911,1002.4791,77.7151,1001.5118,76.0694,1000.1692,74.1947,999.3462,72.6371,999.3207,72.6324,999.4096,73.7245,999.627,74.84,999.9337,75.9718,999.9327,77.0475,1000.3627,78.2018,1000.3959,78.3834,999.212,78.1985,998.1249,78.5436,997.0497,78.9534,995.9057,78.9869,994.7979,79.2183,994.8021,79.2407,996.7316,79.5731,998.6802,80.0073,1000.6196,80.3924,1002.5766,80.8711,1004.476,81.0445" style="stroke:#383838;stroke-width:1.0;"/><!--MD5=[a365e684cf63e045887cf422de0e31fb]
link ServicoBootstrapper to Catalogo--><path d="M120.791,87.6471 L120.8396,87.7269 L122.3981,86.4533 L124.2414,85.6474 L125.992,84.6892 L127.4376,83.2301 L129.3053,82.4644 L129.2881,82.4345 L131.035,81.25 L132.8688,80.2164 L134.763,79.2877 L136.449,77.9974 L138.4266,77.2136 L138.5434,77.4302 L140.22,75.9282 L142.2376,75.0585 L144.2967,74.266 L146.1139,73.0247 L148.0583,72.0194 L148.0719,72.0465 L150.0611,71.0041 L152.1121,70.0852 L154.1333,69.1068 L156.2112,68.242 L158.1041,67.0065 L158.2275,67.2781 L160.3017,66.3401 L162.2963,65.2269 L164.4074,64.3701 L166.524,63.5253 L168.4676,62.2998 L168.3476,62.0026 L170.6975,61.7243 L172.6522,60.4673 L174.9073,59.9543 L176.853,58.6752 L179.0524,58.024 L179.0424,57.9952 L181.3024,57.5913 L183.3291,56.5155 L185.4935,55.8361 L187.6694,55.19 L189.762,54.3038 L189.8123,54.4818 L191.9091,53.6942 L194.0919,53.2107 L196.1355,52.2351 L198.3868,51.9936 L200.5,51.264 L200.5549,51.5014 L203.2049,50.8417 L205.8821,50.2999 L208.4328,49.2104 L211.0763,48.5224 L213.802,48.19 L213.7472,47.9193 L216.7036,47.5762 L219.5983,46.9282 L222.5825,46.7226 L225.4138,45.7615 L228.3361,45.2495 L228.3093,45.0995 L231.4906,44.7893 L234.5573,43.8376 L237.7055,43.3422 L240.9335,43.2932 L244.0194,42.4492 L244.0497,42.6404 L247.4205,42.2408 L250.697,41.2464 L254.0915,40.997 L257.4604,40.5853 L260.7693,39.7953 L260.74,39.5874 L264.31,39.253 L267.8705,38.8504 L271.4498,38.5817 L274.9558,37.7928 L278.5028,37.2945 L278.5284,37.4985 L282.199,36.582 L285.919,36.0593 L289.7113,36.1118 L293.3705,35.1053 L297.1371,34.9532 L297.1622,35.178 L301.0378,34.6093 L304.9048,33.9647 L308.791,33.4917 L312.7216,33.4155 L316.5894,32.7778 L316.5763,32.6454 L320.6529,32.6389 L324.6402,31.7321 L328.729,31.8491 L332.7607,31.3896 L336.777,30.7748 L336.7864,30.8833 L340.9468,30.4309 L345.1411,30.3669 L349.3047,29.952 L353.4554,29.3905 L357.6168,28.9507 L357.6259,29.0696 L361.8943,28.5653 L366.2049,28.6128 L370.4678,28.0362 L374.7502,27.7163 L379.0263,27.3121 L379.0084,27.0423 L383.3936,26.843 L387.8003,26.9687 L392.1766,26.6345 L396.5419,26.1355 L400.9224,25.8652 L400.9144,25.7223 L405.377,25.5184 L409.8254,25.0613 L414.3128,25.3001 L418.7809,25.1946 L423.2225,24.6167 L423.2333,24.8504 L427.761,24.7165 L432.2681,24.1385 L436.797,24.0292 L441.3115,23.6097 L445.8436,23.573 L445.8482,23.6991 L450.4195,23.5161 L454.9963,23.4854 L459.5556,22.9715 L464.129,22.8473 L468.703,22.7406 L468.7083,22.9376 L473.3127,22.8697 L477.9029,22.267 L482.5097,22.2856 L487.1167,22.3151 L491.7179,22.1259 L491.7133,21.8544 L496.3381,22.2048 L500.9548,22.0843 L505.5696,21.8468 L510.1889,21.8767 L514.8054,21.7354 L514.8076,22.0592 L519.4199,21.5644 L524.0373,21.8115 L528.6526,21.7665 L533.2676,21.659 L537.8827,21.5756 L537.8829,21.6382 L542.4797,21.6415 L547.0754,21.3291 L551.6726,21.4439 L556.2694,21.4324 L560.8669,21.653 L560.8673,21.6813 L565.4291,21.7563 L569.9913,21.8533 L574.5501,21.7163 L579.1132,21.8798 L583.6753,21.974 L583.674,21.9206 L588.1918,22.3445 L592.7,22.392 L597.1997,22.1009 L601.7143,22.3985 L606.2251,22.5451 L606.2155,22.2888 L610.6715,22.8387 L615.1185,23.1465 L619.5591,23.2836 L623.9845,23.0139 L628.4334,23.3728 L628.4437,23.5788 L632.7737,23.2613 L637.1514,23.898 L641.4971,23.8945 L645.8627,24.2884 L650.2173,24.4636 L650.2242,24.5702 L654.4861,24.9451 L658.7077,24.6884 L662.9969,25.4907 L667.2439,25.6309 L671.4942,25.8239 L671.5067,25.9814 L675.6578,26.4825 L679.7692,26.4809 L683.9125,26.8834 L688.0512,27.2276 L692.1811,27.4603 L692.1895,27.5475 L696.1839,27.8437 L700.2169,28.5422 L704.1637,28.3418 L708.2164,29.2454 L712.1953,29.3791 L712.1637,29.1035 L716.0196,29.582 L719.9007,30.2798 L723.7518,30.7162 L727.5772,30.9277 L731.4538,31.5868 L731.4786,31.769 L735.1444,32.1354 L738.8654,32.9081 L742.5458,33.3825 L746.1631,33.392 L749.874,34.09 L749.846,33.9154 L753.3647,34.5944 L756.8986,35.3681 L760.4017,35.9499 L763.8943,36.4663 L767.3729,36.8951 L767.3447,36.7458 L770.7244,37.7957 L774.0231,38.4173 L777.266,38.7426 L780.5491,39.2815 L783.8678,40.0086 L783.8291,39.8345 L786.9287,40.6012 L790.0443,41.4395 L793.106,42.0359 L796.1539,42.57 L799.2758,43.4369 L799.331,43.6464 L802.0716,43.9896 L805.028,45.1527 L807.8672,45.8703 L810.7086,46.5965 L813.5142,47.1866 L813.6064,47.4802 L816.0786,47.8978 L818.6685,48.6901 L821.3748,49.853 L823.8234,50.1954 L826.5,51.264 L826.4598,51.1681 L828.8984,52.3097 L831.2689,53.2889 L833.574,54.1122 L836.0068,55.2398 L838.3928,56.2558 L838.5541,56.5447 L840.819,57.7837 L842.8351,58.5769 L845.267,60.1151 L847.4244,61.1614 L849.8215,62.6371 L849.8149,62.6275 L852.0533,64.2123 L854.2435,65.7263 L856.131,66.7951 L858.5558,68.6541 L860.6142,69.9743 L860.6165,69.9773 L862.4585,71.3523 L864.4786,72.9536 L866.6949,74.804 L868.6707,76.3491 L870.599,77.8337 " fill="none" style="stroke:#383838;stroke-width:1.0;"/><polygon fill="#383838" points="874.454,81.1365,874.5173,81.1666,873.4828,79.2986,872.8191,77.607,872.0347,75.858,870.8532,73.9199,870.2214,72.2435,870.1955,72.2415,870.1667,73.3606,870.2681,74.4897,870.46,75.6258,870.34,76.7378,870.6568,77.8836,870.671,78.0676,869.5126,77.7612,868.3957,77.992,867.2839,78.2884,866.1426,78.2034,865.0167,78.319,865.0232,78.3408,866.9011,78.8723,868.8087,79.503,870.7019,80.0859,872.6224,80.7601,874.454,81.1365" style="stroke:#383838;stroke-width:1.0;"/><!--MD5=[019a826d86a093ebd51bd9fd918da5ce]
link ServicoBootstrapper to Formulario--><path d="M120.791,87.6471 L120.8396,87.7269 L122.3981,86.4533 L124.2414,85.6474 L125.992,84.6892 L127.4376,83.2301 L129.3053,82.4644 L129.2881,82.4345 L131.035,81.25 L132.8688,80.2164 L134.763,79.2877 L136.449,77.9974 L138.4266,77.2136 L138.5434,77.4302 L140.22,75.9282 L142.2376,75.0585 L144.2967,74.266 L146.1139,73.0247 L148.0583,72.0194 L148.0719,72.0465 L150.0611,71.0041 L152.1121,70.0852 L154.1333,69.1068 L156.2112,68.242 L158.1041,67.0065 L158.2275,67.2781 L160.3017,66.3401 L162.2963,65.2269 L164.4074,64.3701 L166.524,63.5253 L168.4676,62.2998 L168.3476,62.0026 L170.6975,61.7243 L172.6522,60.4673 L174.9073,59.9543 L176.853,58.6752 L179.0524,58.024 L179.0424,57.9952 L181.3024,57.5913 L183.3291,56.5155 L185.4935,55.8361 L187.6694,55.19 L189.762,54.3038 L189.8123,54.4818 L191.9091,53.6942 L194.0919,53.2107 L196.1355,52.2351 L198.3868,51.9936 L200.5,51.264 L200.5548,51.5014 L202.6478,50.9713 L204.768,50.559 L206.7619,49.599 L208.8483,49.0405 L211.0169,48.8377 L210.9624,48.567 L213.3094,48.3496 L215.595,47.8272 L217.9696,47.7472 L220.1922,46.9117 L222.5052,46.5254 L222.4786,46.3753 L225.0018,46.1865 L227.4114,45.3559 L229.9018,44.9817 L232.4712,45.0541 L234.8998,44.3313 L234.9298,44.5226 L237.5975,44.2395 L240.172,43.3613 L242.8632,43.2284 L245.529,42.9332 L248.1355,42.2596 L248.1067,42.0517 L250.932,41.8285 L253.7478,41.5371 L256.5823,41.3796 L259.3445,40.7019 L262.1471,40.3147 L262.1722,40.5188 L265.0614,39.7077 L267.9992,39.2904 L271.0078,39.4485 L273.8859,38.5473 L276.8693,38.5008 L276.8939,38.7257 L279.9528,38.2564 L283.0035,37.711 L286.0729,37.3373 L289.1856,37.3605 L292.237,36.8221 L292.2242,36.6897 L295.4519,36.7761 L298.5926,35.9619 L301.8322,36.1718 L305.0161,35.805 L308.185,35.283 L308.1942,35.3914 L311.4794,35.0248 L314.7975,35.0466 L318.0859,34.7174 L321.3618,34.2416 L324.6481,33.8875 L324.6568,34.0064 L328.0264,33.5803 L331.4366,33.7061 L334.8009,33.2077 L338.184,32.9661 L341.561,32.6401 L341.5439,32.3703 L345.0091,32.2414 L348.4949,32.4375 L351.9516,32.1737 L355.3979,31.745 L358.8586,31.545 L358.851,31.402 L362.3768,31.2602 L365.8892,30.8651 L369.4386,31.166 L372.9697,31.1224 L376.4757,30.6065 L376.4858,30.8402 L380.0634,30.7595 L383.6216,30.2346 L387.2002,30.1785 L390.7653,29.8121 L394.347,29.8287 L394.3513,29.9548 L397.9628,29.8157 L401.5795,29.8289 L405.1798,29.359 L408.7933,29.2788 L412.4075,29.2159 L412.4123,29.413 L416.0505,29.3793 L419.6756,28.8108 L423.3159,28.8637 L426.9565,28.9275 L430.5918,28.7725 L430.5877,28.501 L434.2427,28.8756 L437.8907,28.7792 L441.5369,28.5658 L445.1871,28.6198 L448.8347,28.5026 L448.8364,28.8265 L452.4813,28.3452 L456.13,28.6058 L459.7773,28.5744 L463.4242,28.4804 L467.0712,28.4106 L467.0715,28.4732 L470.7044,28.479 L474.3357,28.1692 L477.9692,28.2865 L481.602,28.2775 L485.236,28.5006 L485.2364,28.529 L488.8421,28.5951 L492.4482,28.6831 L496.0507,28.5371 L499.6578,28.6917 L503.2638,28.777 L503.2624,28.7236 L506.8356,29.1267 L510.399,29.1533 L513.9536,28.8415 L517.5235,29.1182 L521.0895,29.244 L521.0798,28.9876 L524.606,29.5044 L528.123,29.7789 L531.6336,29.8829 L535.1289,29.58 L538.6479,29.9058 L538.6582,30.1117 L542.0766,29.7483 L545.5427,30.339 L548.9768,30.2895 L552.4307,30.6375 L555.8737,30.7667 L555.8805,30.8733 L559.2526,31.189 L562.5848,30.8731 L565.984,31.6162 L569.3413,31.6972 L572.7019,31.831 L572.7141,31.9885 L576.0007,32.4168 L579.2482,32.3423 L582.5271,32.6719 L585.8014,32.9432 L589.0671,33.103 L589.0753,33.1903 L592.2345,33.3994 L595.4314,34.011 L598.5441,33.7235 L601.7603,34.5402 L604.9042,34.5868 L604.8735,34.3112 L607.9264,34.6881 L611.0037,35.2845 L614.0519,35.6193 L617.075,35.7291 L620.148,36.2868 L620.172,36.4691 L623.0714,36.7188 L626.0243,37.3751 L628.9379,37.7329 L631.7903,37.6255 L634.7333,38.2071 L634.7063,38.0324 L637.4969,38.5794 L640.3021,39.2213 L643.0776,39.6711 L645.843,40.0554 L648.5949,40.3522 L648.5677,40.2026 L651.2599,41.1052 L653.8743,41.5789 L656.4347,41.7559 L659.034,42.1468 L661.6675,42.7261 L661.6303,42.5516 L664.0913,43.1543 L666.5677,43.8287 L668.9923,44.2606 L671.4036,44.6302 L673.8861,45.3332 L673.939,45.5433 L676.0961,45.7043 L678.4603,46.6876 L680.712,47.2241 L682.9658,47.7691 L685.1853,48.1778 L685.2735,48.4726 L687.2169,48.6903 L689.2729,49.2842 L691.4402,50.2504 L693.361,50.3926 L695.5,51.264 L695.4615,51.1674 L698.0142,52.3066 L700.5017,53.2823 L702.9266,54.1009 L705.4738,55.2261 L707.9761,56.2388 L708.1307,56.5313 L710.5222,57.7678 L712.6751,58.553 L715.2267,60.0924 L717.5151,61.1338 L720.0333,62.61 L720.0269,62.6002 L722.392,64.1862 L724.711,65.7003 L726.7394,66.761 L729.2834,68.6262 L731.4758,69.9429 L731.478,69.9459 L733.4555,71.3164 L735.6042,72.9184 L737.9414,74.7754 L740.0476,76.3199 L742.108,77.8025 " fill="none" style="stroke:#383838;stroke-width:1.0;"/><polygon fill="#383838" points="746.224,81.1065,746.2863,81.1386,745.1983,79.2926,744.4754,77.6348,743.6336,75.9157,742.401,73.9949,741.7094,72.3533,741.6837,72.3505,741.6912,73.4625,741.8285,74.5887,742.0561,75.7248,741.9726,76.8269,742.3248,77.9766,742.3449,78.16,741.1773,77.8908,740.0683,78.1572,738.9665,78.489,737.8231,78.4405,736.7015,78.592,736.7073,78.614,738.6033,79.0846,740.5257,79.6553,742.4354,80.1778,744.3694,80.7924,746.224,81.1065" style="stroke:#383838;stroke-width:1.0;"/><!--MD5=[59df0b78ff33e094c8d75273997a7b63]
link ServicoBootstrapper to EspecificarServicoController--><path d="M165.312,111.764 L165.312,111.8574 L171.2684,111.5799 L177.2248,111.8499 L183.1812,111.9416 L189.1376,111.4469 L195.094,111.764 " fill="none" style="stroke:#383838;stroke-width:1.0;"/><polygon fill="#383838" points="200.285,111.764,200.3135,111.828,198.4289,110.8378,196.7112,110.2229,194.9391,109.4857,192.9884,108.3467,191.285,107.764,191.2667,107.7457,191.9845,108.4635,192.7946,109.2736,193.6689,110.1479,194.322,110.801,195.285,111.764,195.4155,111.8945,194.3364,112.4154,193.6384,113.3174,192.9868,114.2658,192.0648,114.9438,191.285,115.764,191.2942,115.7848,193.0807,114.9543,194.9092,114.2184,196.7174,113.4368,198.5643,112.7424,200.285,111.764" style="stroke:#383838;stroke-width:1.0;"/><!--MD5=[3b4e9fec8f9a906b2809fbf725460666]
link EspecificarServicoController to Servico--><path d="M356.675,81.2579 L356.7152,81.3422 L358.4619,80.2012 L360.4444,79.5545 L362.3501,78.7468 L364.0032,77.4099 L366.0059,76.8056 L365.9917,76.7741 L367.8752,75.7521 L369.8304,74.8888 L371.8355,74.1357 L373.6687,73.0025 L375.7427,72.4018 L375.839,72.6282 L377.6467,71.2881 L379.7355,70.6092 L381.8585,70.0109 L383.7821,68.9433 L385.8106,68.1226 L385.8217,68.1508 L387.8702,67.2937 L389.9694,66.5651 L392.0441,65.7745 L394.1655,65.102 L396.1348,64.0443 L396.2362,64.3247 L398.3386,63.5679 L400.3756,62.6302 L402.5083,61.9573 L404.6456,61.2968 L406.6405,60.2431 L406.5415,59.9382 L408.8562,59.8403 L410.8449,58.7386 L413.0814,58.4 L415.0626,57.2755 L417.2532,56.7952 L417.2449,56.7659 L419.472,56.5086 L421.5051,55.5669 L423.6528,55.0291 L425.81,54.5252 L427.8979,53.7767 L427.9406,53.9567 L430.0179,53.2725 L432.1682,52.8958 L434.2005,52.0215 L436.4087,51.8895 L438.5,51.264 L438.5514,51.5022 L442.8497,50.527 L447.1734,49.67 L451.3786,48.2637 L455.6707,47.26 L460.0398,46.6132 L459.9833,46.3429 L463.7569,45.8093 L467.4669,44.9712 L471.2693,44.5749 L474.914,43.4243 L478.6524,42.722 L478.6266,42.5717 L481.9946,42.2526 L485.2525,41.2911 L488.5887,40.7864 L492.0014,40.7287 L495.2778,39.875 L495.2966,40.0678 L498.4251,39.8963 L501.4952,39.1254 L504.6385,39.1053 L507.7659,38.9217 L510.8561,38.3569 L510.8548,38.1469 L513.9501,38.3333 L517.045,38.451 L520.1407,38.7037 L523.2332,38.4312 L526.3275,38.4521 L526.3524,38.6562 L529.5585,38.6064 L532.8127,38.9506 L536.1372,39.8702 L539.3323,39.7304 L542.6318,40.4453 L542.6827,40.6657 L546.268,41.3699 L549.836,41.9996 L553.4429,42.7976 L557.1397,43.9846 L560.7093,44.6211 L560.6711,44.4936 L562.7843,45.4721 L564.6378,45.5839 L566.7865,46.6811 L568.769,47.2235 L570.7068,47.6164 L570.7416,47.7195 L572.8721,48.3658 L575.1274,49.3814 L577.27,50.0633 L579.3654,50.6057 L581.5,51.264 L581.5473,51.3734 L583.7667,52.2016 L586.2058,53.5377 L588.3963,54.2993 L590.6891,55.2972 L592.9483,56.2175 L592.8133,55.9833 L595.0515,57.3252 L597.4524,58.9493 L599.6231,60.174 L601.7113,61.2557 L603.914,62.5359 L603.8317,62.4187 L605.924,63.9085 L607.8705,65.1909 L610.2178,67.0434 L612.3668,68.6138 L614.2437,69.7971 L614.3916,69.9784 L616.347,71.593 L618.0214,72.863 L619.9924,74.4967 L621.767,75.8896 L623.784,77.5796 " fill="none" style="stroke:#383838;stroke-width:1.0;"/><polygon fill="#383838" points="627.798,81.1566,627.8618,81.1855,626.8607,79.3048,626.2339,77.5934,625.4851,75.8268,624.3356,73.8791,623.7409,72.1822,623.715,72.1807,623.6639,73.3035,623.7431,74.4339,623.9129,75.5694,623.7705,76.687,624.0654,77.8297,624.076,78.014,622.9239,77.6849,621.8027,77.8937,620.6852,78.1682,619.5458,78.0608,618.4179,78.1543,618.4248,78.1759,620.2907,78.7446,622.1881,79.4119,624.0703,80.0316,625.9815,80.7421,627.798,81.1566" style="stroke:#383838;stroke-width:1.0;"/><!--MD5=[940c857166f2eb81e7b5e98b55ae5065]
link EspecificarServicoController to ServicoRepository--><path d="M403.562,111.764 L403.562,111.8574 L409.5102,111.5799 L415.4584,111.8499 L421.4066,111.9416 L427.3548,111.4469 L433.303,111.764 " fill="none" style="stroke:#383838;stroke-width:1.0;"/><polygon fill="#383838" points="438.487,111.764,438.5155,111.828,436.6309,110.8378,434.9132,110.2229,433.1411,109.4857,431.1904,108.3467,429.487,107.764,429.4687,107.7457,430.1865,108.4635,430.9966,109.2736,431.8709,110.1479,432.524,110.801,433.487,111.764,433.6175,111.8945,432.5384,112.4154,431.8404,113.3174,431.1888,114.2658,430.2668,114.9438,429.487,115.764,429.4962,115.7848,431.2827,114.9543,433.1112,114.2184,434.9194,113.4368,436.7663,112.7424,438.487,111.764" style="stroke:#383838;stroke-width:1.0;"/><!--MD5=[84a77e96fd58e195d31c98d4da1c0038]
@startuml
'http://plantuml.com/skinparam.html
skinparam handwritten true
skinparam monochrome true
skinparam packageStyle rect
skinparam defaultFontName FG Virgil
skinparam shadowing false

class FluxoAtividade
class Catalogo
class Formulario
class ServicoBootstrapper
class EspecificarServicoController
class ServicoRepository
class Servico

ServicoBootstrapper -> FluxoAtividade
ServicoBootstrapper -> Catalogo
ServicoBootstrapper -> Formulario
ServicoBootstrapper -> EspecificarServicoController

EspecificarServicoController -> Servico
EspecificarServicoController -> ServicoRepository

Catalogo : create()
Formulario : create()
FluxoAtividade : create()
EspecificarServicoController : especificarServico()
Servico : create()
ServicoRepository : save(servico)
@enduml

@startuml
skinparam handwritten true
skinparam monochrome true
skinparam packageStyle rect
skinparam defaultFontName FG Virgil
skinparam shadowing false

class FluxoAtividade
class Catalogo
class Formulario
class ServicoBootstrapper
class EspecificarServicoController
class ServicoRepository
class Servico

ServicoBootstrapper -> FluxoAtividade
ServicoBootstrapper -> Catalogo
ServicoBootstrapper -> Formulario
ServicoBootstrapper -> EspecificarServicoController

EspecificarServicoController -> Servico
EspecificarServicoController -> ServicoRepository

Catalogo : create()
Formulario : create()
FluxoAtividade : create()
EspecificarServicoController : especificarServico()
Servico : create()
ServicoRepository : save(servico)
@enduml

PlantUML version 1.2021.7(Sun May 23 12:40:07 UTC 2021)
(GPL source distribution)
Java Runtime: Java(TM) SE Runtime Environment
JVM: Java HotSpot(TM) 64-Bit Server VM
Default Encoding: UTF-8
Language: en
Country: US
--></g></svg>