<?xml version="1.0" encoding="UTF-8" standalone="no"?><svg xmlns="http://www.w3.org/2000/svg" xmlns:xlink="http://www.w3.org/1999/xlink" contentScriptType="application/ecmascript" contentStyleType="text/css" height="416px" preserveAspectRatio="none" style="width:1164px;height:416px;background:#FFFFFF;" version="1.1" viewBox="0 0 1164 416" width="1164px" zoomAndPan="magnify"><defs/><g><polygon fill="#FFFFFF" points="82.5,46.2969,82.5,46.3669,84.5,46.1588,86.5,46.3613,88.5,46.4301,90.5,46.0591,92.5,46.2969,92.4223,46.2969,92.0735,56.1968,92.1165,66.0967,92.4318,75.9966,91.8086,85.8965,93.0536,95.7964,91.8697,105.6963,92.3022,115.5962,92.9319,125.4961,92.4142,135.396,92.5682,145.2959,92.4681,155.1958,92.6785,165.0957,92.7391,174.9956,93.0857,184.8955,93.1711,194.7954,93.1793,204.6953,92.7546,214.5952,92.9636,224.4951,93.2022,234.395,91.7788,244.2949,93.1785,254.1948,92.2035,264.0947,93.0338,273.9946,92.005,283.8945,92.4315,293.7944,93.2416,303.6943,92.4513,313.5942,92.6053,323.4941,92.8386,333.394,92.9162,343.2939,92.4961,353.1938,92.5,363.0938,92.5,363.1895,90.5,362.9029,88.5,363.1885,86.5,363.2765,84.5,363.2419,82.5,363.0938,83.113,363.0938,82.0169,353.1938,81.8478,343.2939,81.8786,333.394,82.4411,323.4941,82.3035,313.5942,83.1814,303.6943,82.3253,293.7944,82.1569,283.8945,82.7283,273.9946,81.8332,264.0947,81.9809,254.1948,83.149,244.2949,82.9357,234.395,83.2345,224.4951,82.1782,214.5952,82.8192,204.6953,83.0904,194.7954,82.0276,184.8955,82.4041,174.9956,82.626,165.0957,83.1518,155.1958,82.4958,145.2959,82.9626,135.396,81.9462,125.4961,81.8227,115.5962,83.0036,105.6963,81.7831,95.7964,83.009,85.8965,82.7066,75.9966,82.2321,66.0967,82.1462,56.1968,82.5,46.2969" style="stroke:#383838;stroke-width:1.0;"/><polygon fill="#FFFFFF" points="234.5,185.6953,234.5,185.7654,236.5,185.5572,238.5,185.7597,240.5,185.8285,242.5,185.4575,244.5,185.6953,244.4741,185.6953,244.3578,191.6953,244.3722,197.6953,244.4773,203.6953,244.2695,209.6953,244.5,215.6953,244.5,215.8799,242.5,215.4852,240.5,215.6294,238.5,215.8393,236.5,215.6667,234.5,215.6953,234.5227,215.6953,234.4894,209.6953,234.5595,203.6953,234.5797,197.6953,234.6952,191.6953,234.5,185.6953" style="stroke:#383838;stroke-width:1.0;"/><polygon fill="#FFFFFF" points="343,67.4297,343,67.4997,345,67.2916,347,67.4941,349,67.5629,351,67.1919,353,67.4297,352.9741,67.4297,352.8578,73.4297,352.8722,79.4297,352.9773,85.4297,352.7695,91.4297,353,97.4297,353,97.6142,351,97.2196,349,97.3638,347,97.5737,345,97.4011,343,97.4297,343.0227,97.4297,342.9894,91.4297,343.0595,85.4297,343.0797,79.4297,343.1952,73.4297,343,67.4297" style="stroke:#383838;stroke-width:1.0;"/><polygon fill="#FFFFFF" points="437,126.5625,437,126.6326,439,126.4244,441,126.6269,443,126.6957,445,126.3247,447,126.5625,446.9741,126.5625,446.8578,132.5625,446.8722,138.5625,446.9773,144.5625,446.7695,150.5625,447,156.5625,447,156.747,445,156.3524,443,156.4966,441,156.7065,439,156.5339,437,156.5625,437.0227,156.5625,436.9894,150.5625,437.0595,144.5625,437.0797,138.5625,437.1952,132.5625,437,126.5625" style="stroke:#383838;stroke-width:1.0;"/><polygon fill="#FFFFFF" points="810.5,244.8281,810.5,244.8982,812.5,244.69,814.5,244.8926,816.5,244.9614,818.5,244.5903,820.5,244.8281,820.4223,244.8281,820.0735,254.6836,820.1165,264.5391,820.4318,274.3945,819.8086,284.25,821.0536,294.1055,819.8697,303.9609,820.3022,313.8164,820.9319,323.6719,820.4142,333.5273,820.5682,343.3828,820.4681,353.2383,820.5,363.0938,820.5,363.1533,818.5,363.1735,816.5,363.289,814.5,363.3174,812.5,363.3202,810.5,363.0938,810.7546,363.0938,810.9636,353.2383,811.2022,343.3828,809.7788,333.5273,811.1785,323.6719,810.2035,313.8164,811.0338,303.9609,810.005,294.1055,810.4315,284.25,811.2416,274.3945,810.4513,264.5391,810.6053,254.6836,810.5,244.8281" style="stroke:#383838;stroke-width:1.0;"/><polygon fill="#FFFFFF" points="963.5,273.9609,963.5,274.031,965.5,273.8228,967.5,274.0254,969.5,274.0942,971.5,273.7231,973.5,273.9609,973.4741,273.9609,973.3578,279.9609,973.3722,285.9609,973.4773,291.9609,973.2695,297.9609,973.5,303.9609,973.5,304.1455,971.5,303.7508,969.5,303.895,967.5,304.1049,965.5,303.9323,963.5,303.9609,963.5227,303.9609,963.4894,297.9609,963.5595,291.9609,963.5797,285.9609,963.6952,279.9609,963.5,273.9609" style="stroke:#383838;stroke-width:1.0;"/><polygon fill="#FFFFFF" points="1080,333.0938,1080,333.1638,1082,332.9556,1084,333.1582,1086,333.227,1088,332.856,1090,333.0938,1089.9741,333.0938,1089.8578,339.0938,1089.8722,345.0938,1089.9773,351.0938,1089.7695,357.0938,1090,363.0938,1090,363.2783,1088,362.8837,1086,363.0278,1084,363.2377,1082,363.0652,1080,363.0938,1080.0227,363.0938,1079.9894,357.0938,1080.0595,351.0938,1080.0797,345.0938,1080.1952,339.0938,1080,333.0938" style="stroke:#383838;stroke-width:1.0;"/><path d="M87,36.2969 L87.2802,36.2969 L86.4476,46.438 L87.2577,56.579 L87.5329,66.7201 L86.0488,76.8612 L86.8964,87.0023 L86.4313,97.1434 L86.4887,107.2845 L86.9091,117.4256 L86.0782,127.5666 L87.7382,137.7077 L86.1596,147.8488 L86.7363,157.9899 L87.5759,168.131 L86.8856,178.2721 L87.091,188.4131 L86.9574,198.5542 L87.238,208.6953 L87.3188,218.8364 L87.7809,228.9775 L87.8947,239.1186 L87.9057,249.2597 L87.3395,259.4007 L87.6181,269.5418 L87.9363,279.6829 L86.0384,289.824 L87.9047,299.9651 L86.6047,310.1062 L87.7117,320.2472 L86.34,330.3883 L86.9087,340.5294 L87.9888,350.6705 L86.935,360.8116 L87.1404,370.9527 L87,381.0938 " fill="none" style="stroke:#383838;stroke-width:1.0;stroke-dasharray:5.0,5.0;"/><path d="M239,36.2969 L239.2802,36.2969 L238.4476,46.438 L239.2577,56.579 L239.5329,66.7201 L238.0488,76.8612 L238.8964,87.0023 L238.4313,97.1434 L238.4887,107.2845 L238.9091,117.4256 L238.0782,127.5666 L239.7382,137.7077 L238.1596,147.8488 L238.7363,157.9899 L239.5759,168.131 L238.8856,178.2721 L239.091,188.4131 L238.9574,198.5542 L239.238,208.6953 L239.3188,218.8364 L239.7809,228.9775 L239.8947,239.1186 L239.9057,249.2597 L239.3395,259.4007 L239.6181,269.5418 L239.9363,279.6829 L238.0384,289.824 L239.9047,299.9651 L238.6047,310.1062 L239.7117,320.2472 L238.34,330.3883 L238.9087,340.5294 L239.9888,350.6705 L238.935,360.8116 L239.1404,370.9527 L239,381.0938 " fill="none" style="stroke:#383838;stroke-width:1.0;stroke-dasharray:5.0,5.0;"/><path d="M348,36.2969 L348.2802,36.2969 L347.4476,46.438 L348.2577,56.579 L348.5329,66.7201 L347.0488,76.8612 L347.8964,87.0023 L347.4313,97.1434 L347.4887,107.2845 L347.9091,117.4256 L347.0782,127.5666 L348.7382,137.7077 L347.1596,147.8488 L347.7363,157.9899 L348.5759,168.131 L347.8856,178.2721 L348.091,188.4131 L347.9574,198.5542 L348.238,208.6953 L348.3188,218.8364 L348.7809,228.9775 L348.8947,239.1186 L348.9057,249.2597 L348.3395,259.4007 L348.6181,269.5418 L348.9363,279.6829 L347.0384,289.824 L348.9047,299.9651 L347.6047,310.1062 L348.7117,320.2472 L347.34,330.3883 L347.9087,340.5294 L348.9888,350.6705 L347.935,360.8116 L348.1404,370.9527 L348,381.0938 " fill="none" style="stroke:#383838;stroke-width:1.0;stroke-dasharray:5.0,5.0;"/><path d="M442,36.2969 L442.2802,36.2969 L441.4476,46.438 L442.2577,56.579 L442.5329,66.7201 L441.0488,76.8612 L441.8964,87.0023 L441.4313,97.1434 L441.4887,107.2845 L441.9091,117.4256 L441.0782,127.5666 L442.7382,137.7077 L441.1596,147.8488 L441.7363,157.9899 L442.5759,168.131 L441.8856,178.2721 L442.091,188.4131 L441.9574,198.5542 L442.238,208.6953 L442.3188,218.8364 L442.7809,228.9775 L442.8947,239.1186 L442.9057,249.2597 L442.3395,259.4007 L442.6181,269.5418 L442.9363,279.6829 L441.0384,289.824 L442.9047,299.9651 L441.6047,310.1062 L442.7117,320.2472 L441.34,330.3883 L441.9087,340.5294 L442.9888,350.6705 L441.935,360.8116 L442.1404,370.9527 L442,381.0938 " fill="none" style="stroke:#383838;stroke-width:1.0;stroke-dasharray:5.0,5.0;"/><path d="M815,36.2969 L815.2802,36.2969 L814.4476,46.438 L815.2577,56.579 L815.5329,66.7201 L814.0488,76.8612 L814.8964,87.0023 L814.4313,97.1434 L814.4887,107.2845 L814.9091,117.4256 L814.0782,127.5666 L815.7382,137.7077 L814.1596,147.8488 L814.7363,157.9899 L815.5759,168.131 L814.8856,178.2721 L815.091,188.4131 L814.9574,198.5542 L815.238,208.6953 L815.3188,218.8364 L815.7809,228.9775 L815.8947,239.1186 L815.9057,249.2597 L815.3395,259.4007 L815.6181,269.5418 L815.9363,279.6829 L814.0384,289.824 L815.9047,299.9651 L814.6047,310.1062 L815.7117,320.2472 L814.34,330.3883 L814.9087,340.5294 L815.9888,350.6705 L814.935,360.8116 L815.1404,370.9527 L815,381.0938 " fill="none" style="stroke:#383838;stroke-width:1.0;stroke-dasharray:5.0,5.0;"/><path d="M968,36.2969 L968.2802,36.2969 L967.4476,46.438 L968.2577,56.579 L968.5329,66.7201 L967.0488,76.8612 L967.8964,87.0023 L967.4313,97.1434 L967.4887,107.2845 L967.9091,117.4256 L967.0782,127.5666 L968.7382,137.7077 L967.1596,147.8488 L967.7363,157.9899 L968.5759,168.131 L967.8856,178.2721 L968.091,188.4131 L967.9574,198.5542 L968.238,208.6953 L968.3188,218.8364 L968.7809,228.9775 L968.8947,239.1186 L968.9057,249.2597 L968.3395,259.4007 L968.6181,269.5418 L968.9363,279.6829 L967.0384,289.824 L968.9047,299.9651 L967.6047,310.1062 L968.7117,320.2472 L967.34,330.3883 L967.9087,340.5294 L968.9888,350.6705 L967.935,360.8116 L968.1404,370.9527 L968,381.0938 " fill="none" style="stroke:#383838;stroke-width:1.0;stroke-dasharray:5.0,5.0;"/><path d="M1085,36.2969 L1085.2802,36.2969 L1084.4476,46.438 L1085.2577,56.579 L1085.5329,66.7201 L1084.0488,76.8612 L1084.8964,87.0023 L1084.4313,97.1434 L1084.4887,107.2845 L1084.9091,117.4256 L1084.0782,127.5666 L1085.7382,137.7077 L1084.1596,147.8488 L1084.7363,157.9899 L1085.5759,168.131 L1084.8856,178.2721 L1085.091,188.4131 L1084.9574,198.5542 L1085.238,208.6953 L1085.3188,218.8364 L1085.7809,228.9775 L1085.8947,239.1186 L1085.9057,249.2597 L1085.3395,259.4007 L1085.6181,269.5418 L1085.9363,279.6829 L1084.0384,289.824 L1085.9047,299.9651 L1084.6047,310.1062 L1085.7117,320.2472 L1084.34,330.3883 L1084.9087,340.5294 L1085.9888,350.6705 L1084.935,360.8116 L1085.1404,370.9527 L1085,381.0938 " fill="none" style="stroke:#383838;stroke-width:1.0;stroke-dasharray:5.0,5.0;"/><polygon fill="#F8F8F8" points="5,5,5,5.2102,14.7059,4.5857,24.4118,5.1933,34.1176,5.3997,43.8235,4.2866,53.5294,4.9223,63.2353,4.5735,72.9412,4.6165,82.6471,4.9318,92.3529,4.3086,102.0588,5.5536,111.7647,4.3697,121.4706,4.8022,131.1765,5.4319,140.8824,4.9142,150.5882,5.0682,160.2941,4.9681,170,5,170.0595,5,170.0797,11.0594,170.1952,17.1188,170.2237,23.1781,170.2264,29.2375,170,35.2969,170,35.5515,160.2941,35.7605,150.5882,35.9991,140.8824,34.5757,131.1765,35.9754,121.4706,35.0004,111.7647,35.8307,102.0588,34.8019,92.3529,35.2284,82.6471,36.0385,72.9412,35.2481,63.2353,35.4022,53.5294,35.6355,43.8235,35.7131,34.1176,35.293,24.4118,35.5841,14.7059,34.7245,5,35.2969,5.0948,35.2969,5.1827,29.2375,5.1482,23.1781,5.2043,17.1188,4.839,11.0594,5,5" style="stroke:#383838;stroke-width:1.5;"/><text fill="#000000" font-family="FG Virgil" font-size="14" lengthAdjust="spacing" textLength="151" x="12" y="24.9951">ServicoBootstrapper</text><polygon fill="#F8F8F8" points="5,380.0938,5,380.3039,14.7059,379.6794,24.4118,380.287,34.1176,380.4934,43.8235,379.3804,53.5294,380.016,63.2353,379.6673,72.9412,379.7103,82.6471,380.0256,92.3529,379.4024,102.0588,380.6474,111.7647,379.4635,121.4706,379.896,131.1765,380.5257,140.8824,380.008,150.5882,380.162,160.2941,380.0618,170,380.0938,170.0595,380.0938,170.0797,386.1531,170.1952,392.2125,170.2237,398.2719,170.2264,404.3313,170,410.3906,170,410.6453,160.2941,410.8542,150.5882,411.0929,140.8824,409.6694,131.1765,411.0691,121.4706,410.0941,111.7647,410.9244,102.0588,409.8956,92.3529,410.3221,82.6471,411.1322,72.9412,410.3419,63.2353,410.4959,53.5294,410.7293,43.8235,410.8069,34.1176,410.3867,24.4118,410.6778,14.7059,409.8182,5,410.3906,5.0948,410.3906,5.1827,404.3313,5.1482,398.2719,5.2043,392.2125,4.839,386.1531,5,380.0938" style="stroke:#383838;stroke-width:1.5;"/><text fill="#000000" font-family="FG Virgil" font-size="14" lengthAdjust="spacing" textLength="151" x="12" y="400.0889">ServicoBootstrapper</text><polygon fill="#F8F8F8" points="180,5,180,5.2102,189.9167,4.5857,199.8333,5.1933,209.75,5.3997,219.6667,4.2866,229.5833,4.9223,239.5,4.5735,249.4167,4.6165,259.3333,4.9318,269.25,4.3086,279.1667,5.5536,289.0833,4.3697,299,5,298.9341,5,299.144,11.0594,298.9714,17.1188,299.0227,23.1781,298.9894,29.2375,299,35.2969,299,35.4754,289.0833,35.536,279.1667,35.8826,269.25,35.9679,259.3333,35.9761,249.4167,35.5515,239.5,35.7605,229.5833,35.9991,219.6667,34.5757,209.75,35.9754,199.8333,35.0004,189.9167,35.8307,180,35.2969,179.835,35.2969,179.9772,29.2375,180.2472,23.1781,179.9838,17.1188,180.0351,11.0594,180,5" style="stroke:#383838;stroke-width:1.5;"/><text fill="#000000" font-family="FG Virgil" font-size="14" lengthAdjust="spacing" textLength="105" x="187" y="24.9951">FluxoAtividade</text><polygon fill="#F8F8F8" points="180,380.0938,180,380.3039,189.9167,379.6794,199.8333,380.287,209.75,380.4934,219.6667,379.3804,229.5833,380.016,239.5,379.6673,249.4167,379.7103,259.3333,380.0256,269.25,379.4024,279.1667,380.6474,289.0833,379.4635,299,380.0938,298.9341,380.0938,299.144,386.1531,298.9714,392.2125,299.0227,398.2719,298.9894,404.3313,299,410.3906,299,410.5692,289.0833,410.6298,279.1667,410.9763,269.25,411.0617,259.3333,411.0699,249.4167,410.6453,239.5,410.8542,229.5833,411.0929,219.6667,409.6694,209.75,411.0691,199.8333,410.0941,189.9167,410.9244,180,410.3906,179.835,410.3906,179.9772,404.3313,180.2472,398.2719,179.9838,392.2125,180.0351,386.1531,180,380.0938" style="stroke:#383838;stroke-width:1.5;"/><text fill="#000000" font-family="FG Virgil" font-size="14" lengthAdjust="spacing" textLength="105" x="187" y="400.0889">FluxoAtividade</text><polygon fill="#F8F8F8" points="309,5,309,5.2102,318.75,4.5857,328.5,5.1933,338.25,5.3997,348,4.2866,357.75,4.9223,367.5,4.5735,377.25,4.6165,387,5,386.9773,5,386.7695,11.0594,387.1845,17.1188,386.7899,23.1781,386.9341,29.2375,387,35.2969,387,35.7288,377.25,35.2111,367.5,35.3651,357.75,35.2649,348,35.4754,338.25,35.536,328.5,35.8826,318.75,35.9679,309,35.2969,309.2264,35.2969,309.0849,29.2375,309.1545,23.1781,309.2341,17.1188,308.7596,11.0594,309,5" style="stroke:#383838;stroke-width:1.5;"/><text fill="#000000" font-family="FG Virgil" font-size="14" lengthAdjust="spacing" textLength="64" x="316" y="24.9951">Catalogo</text><polygon fill="#F8F8F8" points="309,380.0938,309,380.3039,318.75,379.6794,328.5,380.287,338.25,380.4934,348,379.3804,357.75,380.016,367.5,379.6673,377.25,379.7103,387,380.0938,386.9773,380.0938,386.7695,386.1531,387.1845,392.2125,386.7899,398.2719,386.9341,404.3313,387,410.3906,387,410.8226,377.25,410.3048,367.5,410.4589,357.75,410.3587,348,410.5692,338.25,410.6298,328.5,410.9763,318.75,411.0617,309,410.3906,309.2264,410.3906,309.0849,404.3313,309.1545,398.2719,309.2341,392.2125,308.7596,386.1531,309,380.0938" style="stroke:#383838;stroke-width:1.5;"/><text fill="#000000" font-family="FG Virgil" font-size="14" lengthAdjust="spacing" textLength="64" x="316" y="400.0889">Catalogo</text><polygon fill="#F8F8F8" points="397,5,397,5.2102,407,4.5857,417,5.1933,427,5.3997,437,4.2866,447,4.9223,457,4.5735,467,4.6165,477,4.9318,487,5,486.7695,5,487.1845,11.0594,486.7899,17.1188,486.9341,23.1781,487.144,29.2375,487,35.2969,487,35.2111,477,35.3651,467,35.2649,457,35.4754,447,35.536,437,35.8826,427,35.9679,417,35.9761,407,35.5515,397,35.2969,397.1545,35.2969,397.2341,29.2375,396.7596,23.1781,397.2262,17.1188,396.9012,11.0594,397,5" style="stroke:#383838;stroke-width:1.5;"/><text fill="#000000" font-family="FG Virgil" font-size="14" lengthAdjust="spacing" textLength="76" x="404" y="24.9951">Formulario</text><polygon fill="#F8F8F8" points="397,380.0938,397,380.3039,407,379.6794,417,380.287,427,380.4934,437,379.3804,447,380.016,457,379.6673,467,379.7103,477,380.0256,487,380.0938,486.7695,380.0938,487.1845,386.1531,486.7899,392.2125,486.9341,398.2719,487.144,404.3313,487,410.3906,487,410.3048,477,410.4589,467,410.3587,457,410.5692,447,410.6298,437,410.9763,427,411.0617,417,411.0699,407,410.6453,397,410.3906,397.1545,410.3906,397.2341,404.3313,396.7596,398.2719,397.2262,392.2125,396.9012,386.1531,397,380.0938" style="stroke:#383838;stroke-width:1.5;"/><text fill="#000000" font-family="FG Virgil" font-size="14" lengthAdjust="spacing" textLength="76" x="404" y="400.0889">Formulario</text><polygon fill="#F8F8F8" points="706,5,706,5.2102,715.9545,4.5857,725.9091,5.1933,735.8636,5.3997,745.8182,4.2866,755.7727,4.9223,765.7273,4.5735,775.6818,4.6165,785.6364,4.9318,795.5909,4.3086,805.5455,5.5536,815.5,4.3697,825.4545,4.8022,835.4091,5.4319,845.3636,4.9142,855.3182,5.0682,865.2727,4.9681,875.2273,5.1785,885.1818,5.2391,895.1364,5.5857,905.0909,5.6711,915.0455,5.6793,925,5,925.0849,5,925.1545,11.0594,925.2341,17.1188,924.7596,23.1781,925.2262,29.2375,925,35.2969,925,35.0004,915.0455,35.8307,905.0909,34.8019,895.1364,35.2284,885.1818,36.0385,875.2273,35.2481,865.2727,35.4022,855.3182,35.6355,845.3636,35.7131,835.4091,35.293,825.4545,35.5841,815.5,34.7245,805.5455,35.5813,795.5909,35.8451,785.6364,35.7414,775.6818,35.9099,765.7273,34.8138,755.7727,34.6447,745.8182,34.6755,735.8636,35.238,725.9091,35.1003,715.9545,35.9783,706,35.2969,705.9418,35.2969,705.8856,29.2375,706.0761,23.1781,705.7777,17.1188,705.827,11.0594,706,5" style="stroke:#383838;stroke-width:1.5;"/><text fill="#000000" font-family="FG Virgil" font-size="14" lengthAdjust="spacing" textLength="205" x="713" y="24.9951">EspecificarServicoController</text><polygon fill="#F8F8F8" points="706,380.0938,706,380.3039,715.9545,379.6794,725.9091,380.287,735.8636,380.4934,745.8182,379.3804,755.7727,380.016,765.7273,379.6673,775.6818,379.7103,785.6364,380.0256,795.5909,379.4024,805.5455,380.6474,815.5,379.4635,825.4545,379.896,835.4091,380.5257,845.3636,380.008,855.3182,380.162,865.2727,380.0618,875.2273,380.2723,885.1818,380.3329,895.1364,380.6794,905.0909,380.7648,915.0455,380.773,925,380.0938,925.0849,380.0938,925.1545,386.1531,925.2341,392.2125,924.7596,398.2719,925.2262,404.3313,925,410.3906,925,410.0941,915.0455,410.9244,905.0909,409.8956,895.1364,410.3221,885.1818,411.1322,875.2273,410.3419,865.2727,410.4959,855.3182,410.7293,845.3636,410.8069,835.4091,410.3867,825.4545,410.6778,815.5,409.8182,805.5455,410.675,795.5909,410.9388,785.6364,410.8352,775.6818,411.0036,765.7273,409.9075,755.7727,409.7384,745.8182,409.7692,735.8636,410.3317,725.9091,410.1941,715.9545,411.072,706,410.3906,705.9418,410.3906,705.8856,404.3313,706.0761,398.2719,705.7777,392.2125,705.827,386.1531,706,380.0938" style="stroke:#383838;stroke-width:1.5;"/><text fill="#000000" font-family="FG Virgil" font-size="14" lengthAdjust="spacing" textLength="205" x="713" y="400.0889">EspecificarServicoController</text><polygon fill="#F8F8F8" points="935,5,935,5.2102,944.5714,4.5857,954.1429,5.1933,963.7143,5.3997,973.2857,4.2866,982.8571,4.9223,992.4286,4.5735,1002,5,1001.8722,5,1001.9773,11.0594,1001.7695,17.1188,1002.1845,23.1781,1001.7899,29.2375,1002,35.2969,1002,35.0991,992.4286,35.7288,982.8571,35.2111,973.2857,35.3651,963.7143,35.2649,954.1429,35.4754,944.5714,35.536,935,35.2969,935.1952,35.2969,935.2237,29.2375,935.2264,23.1781,935.0849,17.1188,935.1545,11.0594,935,5" style="stroke:#383838;stroke-width:1.5;"/><text fill="#000000" font-family="FG Virgil" font-size="14" lengthAdjust="spacing" textLength="53" x="942" y="24.9951">Servico</text><polygon fill="#F8F8F8" points="935,380.0938,935,380.3039,944.5714,379.6794,954.1429,380.287,963.7143,380.4934,973.2857,379.3804,982.8571,380.016,992.4286,379.6673,1002,380.0938,1001.8722,380.0938,1001.9773,386.1531,1001.7695,392.2125,1002.1845,398.2719,1001.7899,404.3313,1002,410.3906,1002,410.1929,992.4286,410.8226,982.8571,410.3048,973.2857,410.4589,963.7143,410.3587,954.1429,410.5692,944.5714,410.6298,935,410.3906,935.1952,410.3906,935.2237,404.3313,935.2264,398.2719,935.0849,392.2125,935.1545,386.1531,935,380.0938" style="stroke:#383838;stroke-width:1.5;"/><text fill="#000000" font-family="FG Virgil" font-size="14" lengthAdjust="spacing" textLength="53" x="942" y="400.0889">Servico</text><polygon fill="#F8F8F8" points="1012,5,1012,5.2102,1021.7333,4.5857,1031.4667,5.1933,1041.2,5.3997,1050.9333,4.2866,1060.6667,4.9223,1070.4,4.5735,1080.1333,4.6165,1089.8667,4.9318,1099.6,4.3086,1109.3333,5.5536,1119.0667,4.3697,1128.8,4.8022,1138.5333,5.4319,1148.2667,4.9142,1158,5,1158.0227,5,1157.9894,11.0594,1158.0595,17.1188,1158.0797,23.1781,1158.1952,29.2375,1158,35.2969,1158,35.9679,1148.2667,35.9761,1138.5333,35.5515,1128.8,35.7605,1119.0667,35.9991,1109.3333,34.5757,1099.6,35.9754,1089.8667,35.0004,1080.1333,35.8307,1070.4,34.8019,1060.6667,35.2284,1050.9333,36.0385,1041.2,35.2481,1031.4667,35.4022,1021.7333,35.6355,1012,35.2969,1012.1387,35.2969,1011.9987,29.2375,1012.0957,23.1781,1011.8092,17.1188,1012.0948,11.0594,1012,5" style="stroke:#383838;stroke-width:1.5;"/><text fill="#000000" font-family="FG Virgil" font-size="14" lengthAdjust="spacing" textLength="132" x="1019" y="24.9951">ServicoRepository</text><polygon fill="#F8F8F8" points="1012,380.0938,1012,380.3039,1021.7333,379.6794,1031.4667,380.287,1041.2,380.4934,1050.9333,379.3804,1060.6667,380.016,1070.4,379.6673,1080.1333,379.7103,1089.8667,380.0256,1099.6,379.4024,1109.3333,380.6474,1119.0667,379.4635,1128.8,379.896,1138.5333,380.5257,1148.2667,380.008,1158,380.0938,1158.0227,380.0938,1157.9894,386.1531,1158.0595,392.2125,1158.0797,398.2719,1158.1952,404.3313,1158,410.3906,1158,411.0617,1148.2667,411.0699,1138.5333,410.6453,1128.8,410.8542,1119.0667,411.0929,1109.3333,409.6694,1099.6,411.0691,1089.8667,410.0941,1080.1333,410.9244,1070.4,409.8956,1060.6667,410.3221,1050.9333,411.1322,1041.2,410.3419,1031.4667,410.4959,1021.7333,410.7293,1012,410.3906,1012.1387,410.3906,1011.9987,404.3313,1012.0957,398.2719,1011.8092,392.2125,1012.0948,386.1531,1012,380.0938" style="stroke:#383838;stroke-width:1.5;"/><text fill="#000000" font-family="FG Virgil" font-size="14" lengthAdjust="spacing" textLength="132" x="1019" y="400.0889">ServicoRepository</text><polygon fill="#FFFFFF" points="82.5,46.2969,82.5,46.3669,84.5,46.1588,86.5,46.3613,88.5,46.4301,90.5,46.0591,92.5,46.2969,92.4223,46.2969,92.0735,56.1968,92.1165,66.0967,92.4318,75.9966,91.8086,85.8965,93.0536,95.7964,91.8697,105.6963,92.3022,115.5962,92.9319,125.4961,92.4142,135.396,92.5682,145.2959,92.4681,155.1958,92.6785,165.0957,92.7391,174.9956,93.0857,184.8955,93.1711,194.7954,93.1793,204.6953,92.7546,214.5952,92.9636,224.4951,93.2022,234.395,91.7788,244.2949,93.1785,254.1948,92.2035,264.0947,93.0338,273.9946,92.005,283.8945,92.4315,293.7944,93.2416,303.6943,92.4513,313.5942,92.6053,323.4941,92.8386,333.394,92.9162,343.2939,92.4961,353.1938,92.5,363.0938,92.5,363.1895,90.5,362.9029,88.5,363.1885,86.5,363.2765,84.5,363.2419,82.5,363.0938,83.113,363.0938,82.0169,353.1938,81.8478,343.2939,81.8786,333.394,82.4411,323.4941,82.3035,313.5942,83.1814,303.6943,82.3253,293.7944,82.1569,283.8945,82.7283,273.9946,81.8332,264.0947,81.9809,254.1948,83.149,244.2949,82.9357,234.395,83.2345,224.4951,82.1782,214.5952,82.8192,204.6953,83.0904,194.7954,82.0276,184.8955,82.4041,174.9956,82.626,165.0957,83.1518,155.1958,82.4958,145.2959,82.9626,135.396,81.9462,125.4961,81.8227,115.5962,83.0036,105.6963,81.7831,95.7964,83.009,85.8965,82.7066,75.9966,82.2321,66.0967,82.1462,56.1968,82.5,46.2969" style="stroke:#383838;stroke-width:1.0;"/><polygon fill="#FFFFFF" points="234.5,185.6953,234.5,185.7654,236.5,185.5572,238.5,185.7597,240.5,185.8285,242.5,185.4575,244.5,185.6953,244.4741,185.6953,244.3578,191.6953,244.3722,197.6953,244.4773,203.6953,244.2695,209.6953,244.5,215.6953,244.5,215.8799,242.5,215.4852,240.5,215.6294,238.5,215.8393,236.5,215.6667,234.5,215.6953,234.5227,215.6953,234.4894,209.6953,234.5595,203.6953,234.5797,197.6953,234.6952,191.6953,234.5,185.6953" style="stroke:#383838;stroke-width:1.0;"/><polygon fill="#FFFFFF" points="343,67.4297,343,67.4997,345,67.2916,347,67.4941,349,67.5629,351,67.1919,353,67.4297,352.9741,67.4297,352.8578,73.4297,352.8722,79.4297,352.9773,85.4297,352.7695,91.4297,353,97.4297,353,97.6142,351,97.2196,349,97.3638,347,97.5737,345,97.4011,343,97.4297,343.0227,97.4297,342.9894,91.4297,343.0595,85.4297,343.0797,79.4297,343.1952,73.4297,343,67.4297" style="stroke:#383838;stroke-width:1.0;"/><polygon fill="#FFFFFF" points="437,126.5625,437,126.6326,439,126.4244,441,126.6269,443,126.6957,445,126.3247,447,126.5625,446.9741,126.5625,446.8578,132.5625,446.8722,138.5625,446.9773,144.5625,446.7695,150.5625,447,156.5625,447,156.747,445,156.3524,443,156.4966,441,156.7065,439,156.5339,437,156.5625,437.0227,156.5625,436.9894,150.5625,437.0595,144.5625,437.0797,138.5625,437.1952,132.5625,437,126.5625" style="stroke:#383838;stroke-width:1.0;"/><polygon fill="#FFFFFF" points="810.5,244.8281,810.5,244.8982,812.5,244.69,814.5,244.8926,816.5,244.9614,818.5,244.5903,820.5,244.8281,820.4223,244.8281,820.0735,254.6836,820.1165,264.5391,820.4318,274.3945,819.8086,284.25,821.0536,294.1055,819.8697,303.9609,820.3022,313.8164,820.9319,323.6719,820.4142,333.5273,820.5682,343.3828,820.4681,353.2383,820.5,363.0938,820.5,363.1533,818.5,363.1735,816.5,363.289,814.5,363.3174,812.5,363.3202,810.5,363.0938,810.7546,363.0938,810.9636,353.2383,811.2022,343.3828,809.7788,333.5273,811.1785,323.6719,810.2035,313.8164,811.0338,303.9609,810.005,294.1055,810.4315,284.25,811.2416,274.3945,810.4513,264.5391,810.6053,254.6836,810.5,244.8281" style="stroke:#383838;stroke-width:1.0;"/><polygon fill="#FFFFFF" points="963.5,273.9609,963.5,274.031,965.5,273.8228,967.5,274.0254,969.5,274.0942,971.5,273.7231,973.5,273.9609,973.4741,273.9609,973.3578,279.9609,973.3722,285.9609,973.4773,291.9609,973.2695,297.9609,973.5,303.9609,973.5,304.1455,971.5,303.7508,969.5,303.895,967.5,304.1049,965.5,303.9323,963.5,303.9609,963.5227,303.9609,963.4894,297.9609,963.5595,291.9609,963.5797,285.9609,963.6952,279.9609,963.5,273.9609" style="stroke:#383838;stroke-width:1.0;"/><polygon fill="#FFFFFF" points="1080,333.0938,1080,333.1638,1082,332.9556,1084,333.1582,1086,333.227,1088,332.856,1090,333.0938,1089.9741,333.0938,1089.8578,339.0938,1089.8722,345.0938,1089.9773,351.0938,1089.7695,357.0938,1090,363.0938,1090,363.2783,1088,362.8837,1086,363.0278,1084,363.2377,1082,363.0652,1080,363.0938,1080.0227,363.0938,1079.9894,357.0938,1080.0595,351.0938,1080.0797,345.0938,1080.1952,339.0938,1080,333.0938" style="stroke:#383838;stroke-width:1.0;"/><polygon fill="#383838" points="331,63.4297,331.026,63.4947,332.9487,64.1015,335.0239,65.0895,337.0495,65.9534,338.9117,66.4089,341,67.4297,340.9904,67.4056,338.9472,68.0977,336.9525,68.911,334.9916,69.8086,332.9144,70.4157,331,71.4297,331.1305,71.5602,331.6514,70.4811,332.5534,69.7831,333.5018,69.1315,334.1798,68.2095,335,67.4297,335.0161,67.4458,334.1925,66.6222,333.4421,65.8718,332.6564,65.0861,331.938,64.3677,331,63.4297" style="stroke:#383838;stroke-width:1.0;"/><path d="M92.5,67.4297 L92.5,67.7099 L102.6875,66.8773 L112.875,67.6874 L123.0625,67.9626 L133.25,66.4785 L143.4375,67.3261 L153.625,66.861 L163.8125,66.9184 L174,67.3388 L184.1875,66.5079 L194.375,68.1679 L204.5625,66.5893 L214.75,67.166 L224.9375,68.0056 L235.125,67.3153 L245.3125,67.5207 L255.5,67.3871 L265.6875,67.6677 L275.875,67.7485 L286.0625,68.2106 L296.25,68.3244 L306.4375,68.3354 L316.625,67.7692 L326.8125,68.0478 L337,67.4297 " fill="none" style="stroke:#383838;stroke-width:1.0;"/><text fill="#000000" font-family="FG Virgil" font-size="13" lengthAdjust="spacing" textLength="116" x="99.5" y="62.3638">catalogo=create()</text><polygon fill="#383838" points="425,122.5625,425.026,122.6275,426.9487,123.2343,429.0239,124.2223,431.0495,125.0862,432.9117,125.5417,435,126.5625,434.9904,126.5384,432.9472,127.2305,430.9525,128.0438,428.9916,128.9414,426.9144,129.5485,425,130.5625,425.1305,130.693,425.6514,129.6139,426.5534,128.9159,427.5018,128.2643,428.1798,127.3423,429,126.5625,429.0161,126.5786,428.1925,125.755,427.4421,125.0046,426.6564,124.2189,425.938,123.5005,425,122.5625" style="stroke:#383838;stroke-width:1.0;"/><path d="M92.5,126.5625 L92.5,126.8427 L102.4559,126.0101 L112.4118,126.8202 L122.3676,127.0954 L132.3235,125.6113 L142.2794,126.4589 L152.2353,125.9938 L162.1912,126.0512 L172.1471,126.4716 L182.1029,125.6407 L192.0588,127.3007 L202.0147,125.7221 L211.9706,126.2988 L221.9265,127.1384 L231.8824,126.4481 L241.8382,126.6535 L251.7941,126.5199 L261.75,126.8005 L271.7059,126.8813 L281.6618,127.3434 L291.6176,127.4572 L301.5735,127.4682 L311.5294,126.902 L321.4853,127.1806 L331.4412,127.4988 L341.3971,125.6009 L351.3529,127.4672 L361.3088,126.1672 L371.2647,127.2742 L381.2206,125.9025 L391.1765,126.4712 L401.1324,127.5513 L411.0882,126.4975 L421.0441,126.7029 L431,126.5625 " fill="none" style="stroke:#383838;stroke-width:1.0;"/><text fill="#000000" font-family="FG Virgil" font-size="13" lengthAdjust="spacing" textLength="127" x="99.5" y="121.4966">formulario=create()</text><polygon fill="#383838" points="222.5,181.6953,222.526,181.7604,224.4487,182.3671,226.5239,183.3551,228.5495,184.219,230.4117,184.6745,232.5,185.6953,232.4904,185.6713,230.4472,186.3633,228.4525,187.1766,226.4916,188.0742,224.4144,188.6813,222.5,189.6953,222.6305,189.8258,223.1514,188.7468,224.0534,188.0487,225.0018,187.3971,225.6798,186.4751,226.5,185.6953,226.5161,185.7114,225.6925,184.8878,224.9421,184.1374,224.1564,183.3517,223.438,182.6334,222.5,181.6953" style="stroke:#383838;stroke-width:1.0;"/><path d="M92.5,185.6953 L92.5,185.9756 L102.2143,185.1429 L111.9286,185.953 L121.6429,186.2282 L131.3571,184.7441 L141.0714,185.5917 L150.7857,185.1267 L160.5,185.184 L170.2143,185.6044 L179.9286,184.7735 L189.6429,186.4335 L199.3571,184.8549 L209.0714,185.4316 L218.7857,186.2712 L228.5,185.6953 " fill="none" style="stroke:#383838;stroke-width:1.0;"/><text fill="#000000" font-family="FG Virgil" font-size="13" lengthAdjust="spacing" textLength="93" x="99.5" y="180.6294">fluxo=create()</text><polygon fill="#383838" points="798.5,240.8281,798.526,240.8932,800.4487,241.4999,802.5239,242.4879,804.5495,243.3518,806.4117,243.8073,808.5,244.8281,808.4904,244.8041,806.4472,245.4961,804.4525,246.3094,802.4916,247.207,800.4144,247.8142,798.5,248.8281,798.6305,248.9586,799.1514,247.8796,800.0534,247.1815,801.0018,246.5299,801.6798,245.6079,802.5,244.8281,802.5161,244.8442,801.6925,244.0206,800.9421,243.2702,800.1564,242.4845,799.438,241.7662,798.5,240.8281" style="stroke:#383838;stroke-width:1.0;"/><path d="M92.5,244.8281 L92.5,245.1084 L102.5282,244.2757 L112.5563,245.0858 L122.5845,245.361 L132.6127,243.8769 L142.6408,244.7245 L152.669,244.2595 L162.6972,244.3168 L172.7254,244.7372 L182.7535,243.9063 L192.7817,245.5663 L202.8099,243.9878 L212.838,244.5644 L222.8662,245.4041 L232.8944,244.7138 L242.9225,244.9191 L252.9507,244.7855 L262.9789,245.0662 L273.007,245.147 L283.0352,245.609 L293.0634,245.7229 L303.0915,245.7338 L313.1197,245.1676 L323.1479,245.4462 L333.1761,245.7644 L343.2042,243.8665 L353.2324,245.7328 L363.2606,244.4328 L373.2887,245.5399 L383.3169,244.1681 L393.3451,244.7368 L403.3732,245.8169 L413.4014,244.7631 L423.4296,244.9685 L433.4577,245.2796 L443.4859,245.3831 L453.5141,244.8229 L463.5423,245.2111 L473.5704,244.0649 L483.5986,245.2073 L493.6268,245.5591 L503.6549,245.4208 L513.6831,245.6455 L523.7113,244.184 L533.7394,243.9585 L543.7676,243.9996 L553.7958,244.7496 L563.8239,244.5661 L573.8521,245.7367 L583.8803,244.5952 L593.9085,244.3707 L603.9366,245.1325 L613.9648,243.939 L623.993,244.136 L634.0211,245.6934 L644.0493,245.409 L654.0775,245.8074 L664.1056,244.3991 L674.1338,245.2537 L684.162,245.6154 L694.1901,244.1983 L704.2183,244.7003 L714.2465,244.9961 L724.2746,245.6971 L734.3028,244.8225 L744.331,245.4449 L754.3592,244.0897 L764.3873,243.9251 L774.4155,245.4996 L784.4437,243.8722 L794.4718,245.5067 L804.5,244.8281 " fill="none" style="stroke:#383838;stroke-width:1.0;"/><text fill="#000000" font-family="FG Virgil" font-size="13" lengthAdjust="spacing" textLength="699" x="99.5" y="239.7622">especificarServico(codigoUnico,titulo,descricaoBreve,descricaoCompleta,formulario,keywords,catalogo,fluxo)</text><polygon fill="#383838" points="951.5,269.9609,951.526,270.026,953.4487,270.6327,955.5239,271.6208,957.5495,272.4846,959.4117,272.9401,961.5,273.9609,961.4904,273.9369,959.4472,274.6289,957.4525,275.4422,955.4916,276.3398,953.4144,276.947,951.5,277.9609,951.6305,278.0914,952.1514,277.0124,953.0534,276.3143,954.0018,275.6627,954.6798,274.7407,955.5,273.9609,955.5161,273.977,954.6925,273.1534,953.9421,272.403,953.1564,271.6173,952.438,270.899,951.5,269.9609" style="stroke:#383838;stroke-width:1.0;"/><path d="M820.5,273.9609 L820.5,274.2412 L830.2857,273.4085 L840.0714,274.2187 L849.8571,274.4938 L859.6429,273.0097 L869.4286,273.8573 L879.2143,273.3923 L889,273.4496 L898.7857,273.8701 L908.5714,273.0391 L918.3571,274.6991 L928.1429,273.1206 L937.9286,273.6972 L947.7143,274.5369 L957.5,273.9609 " fill="none" style="stroke:#383838;stroke-width:1.0;"/><text fill="#000000" font-family="FG Virgil" font-size="13" lengthAdjust="spacing" textLength="107" x="827.5" y="268.895">servico=create()</text><polygon fill="#383838" points="1068,329.0938,1068.026,329.1588,1069.9487,329.7655,1072.0239,330.7536,1074.0495,331.6174,1075.9117,332.073,1078,333.0938,1077.9904,333.0697,1075.9472,333.7618,1073.9525,334.5751,1071.9916,335.4727,1069.9144,336.0798,1068,337.0938,1068.1305,337.2242,1068.6514,336.1452,1069.5534,335.4471,1070.5018,334.7956,1071.1798,333.8735,1072,333.0938,1072.0161,333.1098,1071.1925,332.2862,1070.4421,331.5358,1069.6564,330.7501,1068.938,330.0318,1068,329.0938" style="stroke:#383838;stroke-width:1.0;"/><path d="M820.5,333.0938 L820.5,333.374 L830.64,332.5413 L840.78,333.3515 L850.92,333.6267 L861.06,332.1426 L871.2,332.9901 L881.34,332.5251 L891.48,332.5824 L901.62,333.0029 L911.76,332.1719 L921.9,333.8319 L932.04,332.2534 L942.18,332.8301 L952.32,333.6697 L962.46,332.9794 L972.6,333.1847 L982.74,333.0512 L992.88,333.3318 L1003.02,333.4126 L1013.16,333.8747 L1023.3,333.9885 L1033.44,333.9994 L1043.58,333.4333 L1053.72,333.7119 L1063.86,334.0301 L1074,333.0938 " fill="none" style="stroke:#383838;stroke-width:1.0;"/><text fill="#000000" font-family="FG Virgil" font-size="13" lengthAdjust="spacing" textLength="87" x="827.5" y="328.0278">save(servico)</text><!--MD5=[8b626d2d9be39a804e5ca824e314cc76]
@startuml
'http://plantuml.com/skinparam.html
skinparam handwritten true
skinparam monochrome true
skinparam packageStyle rect
skinparam defaultFontName FG Virgil
skinparam shadowing false

participant ServicoBootstrapper as Bootstrapper

participant FluxoAtividade as FluxoAtividade
participant Catalogo as Catalogo 
participant Formulario as Formulario 
participant EspecificarServicoController as Controller
participant Servico as Servico
participant ServicoRepository as SRepository

activate Bootstrapper

Bootstrapper -> Catalogo : catalogo=create()
activate Catalogo
deactivate Catalogo

Bootstrapper -> Formulario : formulario=create()
activate Formulario
deactivate Formulario

Bootstrapper -> FluxoAtividade : fluxo=create()
activate FluxoAtividade
deactivate FluxoAtividade

Bootstrapper -> Controller : especificarServico(codigoUnico,titulo,descricaoBreve,descricaoCompleta,formulario,keywords,catalogo,fluxo)
activate Controller
Controller -> Servico : servico=create()
activate Servico
deactivate Servico
Controller -> SRepository : save(servico)
activate SRepository
deactivate SRepository
deactivate Controller

deactivate Bootstrapper
@enduml

@startuml
skinparam handwritten true
skinparam monochrome true
skinparam packageStyle rect
skinparam defaultFontName FG Virgil
skinparam shadowing false

participant ServicoBootstrapper as Bootstrapper

participant FluxoAtividade as FluxoAtividade
participant Catalogo as Catalogo 
participant Formulario as Formulario 
participant EspecificarServicoController as Controller
participant Servico as Servico
participant ServicoRepository as SRepository

activate Bootstrapper

Bootstrapper -> Catalogo : catalogo=create()
activate Catalogo
deactivate Catalogo

Bootstrapper -> Formulario : formulario=create()
activate Formulario
deactivate Formulario

Bootstrapper -> FluxoAtividade : fluxo=create()
activate FluxoAtividade
deactivate FluxoAtividade

Bootstrapper -> Controller : especificarServico(codigoUnico,titulo,descricaoBreve,descricaoCompleta,formulario,keywords,catalogo,fluxo)
activate Controller
Controller -> Servico : servico=create()
activate Servico
deactivate Servico
Controller -> SRepository : save(servico)
activate SRepository
deactivate SRepository
deactivate Controller

deactivate Bootstrapper
@enduml

PlantUML version 1.2021.7(Sun May 23 12:40:07 UTC 2021)
(GPL source distribution)
Java Runtime: Java(TM) SE Runtime Environment
JVM: Java HotSpot(TM) 64-Bit Server VM
Default Encoding: UTF-8
Language: en
Country: US
--></g></svg>