<?xml version="1.0" encoding="UTF-8" standalone="no"?><svg xmlns="http://www.w3.org/2000/svg" xmlns:xlink="http://www.w3.org/1999/xlink" contentScriptType="application/ecmascript" contentStyleType="text/css" height="416px" preserveAspectRatio="none" style="width:1164px;height:416px;background:#FFFFFF;" version="1.1" viewBox="0 0 1164 416" width="1164px" zoomAndPan="magnify"><defs/><g><polygon fill="#FFFFFF" points="82.5,46.2969,82.5,46.3669,84.5,46.1588,86.5,46.3613,88.5,46.4301,90.5,46.0591,92.5,46.2969,92.4223,46.2969,92.0735,56.1968,92.1165,66.0967,92.4318,75.9966,91.8086,85.8965,93.0536,95.7964,91.8697,105.6963,92.3022,115.5962,92.9319,125.4961,92.4142,135.396,92.5682,145.2959,92.4681,155.1958,92.6785,165.0957,92.7391,174.9956,93.0857,184.8955,93.1711,194.7954,93.1793,204.6953,92.7546,214.5952,92.9636,224.4951,93.2022,234.395,91.7788,244.2949,93.1785,254.1948,92.2035,264.0947,93.0338,273.9946,92.005,283.8945,92.4315,293.7944,93.2416,303.6943,92.4513,313.5942,92.6053,323.4941,92.8386,333.394,92.9162,343.2939,92.4961,353.1938,92.5,363.0938,92.5,363.1895,90.5,362.9029,88.5,363.1885,86.5,363.2765,84.5,363.2419,82.5,363.0938,83.113,363.0938,82.0169,353.1938,81.8478,343.2939,81.8786,333.394,82.4411,323.4941,82.3035,313.5942,83.1814,303.6943,82.3253,293.7944,82.1569,283.8945,82.7283,273.9946,81.8332,264.0947,81.9809,254.1948,83.149,244.2949,82.9357,234.395,83.2345,224.4951,82.1782,214.5952,82.8192,204.6953,83.0904,194.7954,82.0276,184.8955,82.4041,174.9956,82.626,165.0957,83.1518,155.1958,82.4958,145.2959,82.9626,135.396,81.9462,125.4961,81.8227,115.5962,83.0036,105.6963,81.7831,95.7964,83.009,85.8965,82.7066,75.9966,82.2321,66.0967,82.1462,56.1968,82.5,46.2969" style="stroke:#383838;stroke-width:1.0;"/><polygon fill="#FFFFFF" points="234.5,185.6953,234.5,185.7654,236.5,185.5572,238.5,185.7597,240.5,185.8285,242.5,185.4575,244.5,185.6953,244.4741,185.6953,244.3578,191.6953,244.3722,197.6953,244.4773,203.6953,244.2695,209.6953,244.5,215.6953,244.5,215.8799,242.5,215.4852,240.5,215.6294,238.5,215.8393,236.5,215.6667,234.5,215.6953,234.5227,215.6953,234.4894,209.6953,234.5595,203.6953,234.5797,197.6953,234.6952,191.6953,234.5,185.6953" style="stroke:#383838;stroke-width:1.0;"/><polygon fill="#FFFFFF" points="382.5,67.4297,382.5,67.4997,384.5,67.2916,386.5,67.4941,388.5,67.5629,390.5,67.1919,392.5,67.4297,392.4741,67.4297,392.3578,73.4297,392.3722,79.4297,392.4773,85.4297,392.2695,91.4297,392.5,97.4297,392.5,97.6142,390.5,97.2196,388.5,97.3638,386.5,97.5737,384.5,97.4011,382.5,97.4297,382.5227,97.4297,382.4894,91.4297,382.5595,85.4297,382.5797,79.4297,382.6952,73.4297,382.5,67.4297" style="stroke:#383838;stroke-width:1.0;"/><polygon fill="#FFFFFF" points="555.5,126.5625,555.5,126.6326,557.5,126.4244,559.5,126.6269,561.5,126.6957,563.5,126.3247,565.5,126.5625,565.4741,126.5625,565.3578,132.5625,565.3722,138.5625,565.4773,144.5625,565.2695,150.5625,565.5,156.5625,565.5,156.747,563.5,156.3524,561.5,156.4966,559.5,156.7065,557.5,156.5339,555.5,156.5625,555.5227,156.5625,555.4894,150.5625,555.5595,144.5625,555.5797,138.5625,555.6952,132.5625,555.5,126.5625" style="stroke:#383838;stroke-width:1.0;"/><polygon fill="#FFFFFF" points="810.5,244.8281,810.5,244.8982,812.5,244.69,814.5,244.8926,816.5,244.9614,818.5,244.5903,820.5,244.8281,820.4223,244.8281,820.0735,254.6836,820.1165,264.5391,820.4318,274.3945,819.8086,284.25,821.0536,294.1055,819.8697,303.9609,820.3022,313.8164,820.9319,323.6719,820.4142,333.5273,820.5682,343.3828,820.4681,353.2383,820.5,363.0938,820.5,363.1533,818.5,363.1735,816.5,363.289,814.5,363.3174,812.5,363.3202,810.5,363.0938,810.7546,363.0938,810.9636,353.2383,811.2022,343.3828,809.7788,333.5273,811.1785,323.6719,810.2035,313.8164,811.0338,303.9609,810.005,294.1055,810.4315,284.25,811.2416,274.3945,810.4513,264.5391,810.6053,254.6836,810.5,244.8281" style="stroke:#383838;stroke-width:1.0;"/><polygon fill="#FFFFFF" points="1003,333.0938,1003,333.1638,1005,332.9556,1007,333.1582,1009,333.227,1011,332.856,1013,333.0938,1012.9741,333.0938,1012.8578,339.0938,1012.8722,345.0938,1012.9773,351.0938,1012.7695,357.0938,1013,363.0938,1013,363.2783,1011,362.8837,1009,363.0278,1007,363.2377,1005,363.0652,1003,363.0938,1003.0227,363.0938,1002.9894,357.0938,1003.0595,351.0938,1003.0797,345.0938,1003.1952,339.0938,1003,333.0938" style="stroke:#383838;stroke-width:1.0;"/><polygon fill="#FFFFFF" points="1119.5,273.9609,1119.5,274.031,1121.5,273.8228,1123.5,274.0254,1125.5,274.0942,1127.5,273.7231,1129.5,273.9609,1129.4741,273.9609,1129.3578,279.9609,1129.3722,285.9609,1129.4773,291.9609,1129.2695,297.9609,1129.5,303.9609,1129.5,304.1455,1127.5,303.7508,1125.5,303.895,1123.5,304.1049,1121.5,303.9323,1119.5,303.9609,1119.5227,303.9609,1119.4894,297.9609,1119.5595,291.9609,1119.5797,285.9609,1119.6952,279.9609,1119.5,273.9609" style="stroke:#383838;stroke-width:1.0;"/><path d="M87,36.2969 L87.2802,36.2969 L86.4476,46.438 L87.2577,56.579 L87.5329,66.7201 L86.0488,76.8612 L86.8964,87.0023 L86.4313,97.1434 L86.4887,107.2845 L86.9091,117.4256 L86.0782,127.5666 L87.7382,137.7077 L86.1596,147.8488 L86.7363,157.9899 L87.5759,168.131 L86.8856,178.2721 L87.091,188.4131 L86.9574,198.5542 L87.238,208.6953 L87.3188,218.8364 L87.7809,228.9775 L87.8947,239.1186 L87.9057,249.2597 L87.3395,259.4007 L87.6181,269.5418 L87.9363,279.6829 L86.0384,289.824 L87.9047,299.9651 L86.6047,310.1062 L87.7117,320.2472 L86.34,330.3883 L86.9087,340.5294 L87.9888,350.6705 L86.935,360.8116 L87.1404,370.9527 L87,381.0938 " fill="none" style="stroke:#383838;stroke-width:1.0;stroke-dasharray:5.0,5.0;"/><path d="M239,36.2969 L239.2802,36.2969 L238.4476,46.438 L239.2577,56.579 L239.5329,66.7201 L238.0488,76.8612 L238.8964,87.0023 L238.4313,97.1434 L238.4887,107.2845 L238.9091,117.4256 L238.0782,127.5666 L239.7382,137.7077 L238.1596,147.8488 L238.7363,157.9899 L239.5759,168.131 L238.8856,178.2721 L239.091,188.4131 L238.9574,198.5542 L239.238,208.6953 L239.3188,218.8364 L239.7809,228.9775 L239.8947,239.1186 L239.9057,249.2597 L239.3395,259.4007 L239.6181,269.5418 L239.9363,279.6829 L238.0384,289.824 L239.9047,299.9651 L238.6047,310.1062 L239.7117,320.2472 L238.34,330.3883 L238.9087,340.5294 L239.9888,350.6705 L238.935,360.8116 L239.1404,370.9527 L239,381.0938 " fill="none" style="stroke:#383838;stroke-width:1.0;stroke-dasharray:5.0,5.0;"/><path d="M387,36.2969 L387.2802,36.2969 L386.4476,46.438 L387.2577,56.579 L387.5329,66.7201 L386.0488,76.8612 L386.8964,87.0023 L386.4313,97.1434 L386.4887,107.2845 L386.9091,117.4256 L386.0782,127.5666 L387.7382,137.7077 L386.1596,147.8488 L386.7363,157.9899 L387.5759,168.131 L386.8856,178.2721 L387.091,188.4131 L386.9574,198.5542 L387.238,208.6953 L387.3188,218.8364 L387.7809,228.9775 L387.8947,239.1186 L387.9057,249.2597 L387.3395,259.4007 L387.6181,269.5418 L387.9363,279.6829 L386.0384,289.824 L387.9047,299.9651 L386.6047,310.1062 L387.7117,320.2472 L386.34,330.3883 L386.9087,340.5294 L387.9888,350.6705 L386.935,360.8116 L387.1404,370.9527 L387,381.0938 " fill="none" style="stroke:#383838;stroke-width:1.0;stroke-dasharray:5.0,5.0;"/><path d="M560,36.2969 L560.2802,36.2969 L559.4476,46.438 L560.2577,56.579 L560.5329,66.7201 L559.0488,76.8612 L559.8964,87.0023 L559.4313,97.1434 L559.4887,107.2845 L559.9091,117.4256 L559.0782,127.5666 L560.7382,137.7077 L559.1596,147.8488 L559.7363,157.9899 L560.5759,168.131 L559.8856,178.2721 L560.091,188.4131 L559.9574,198.5542 L560.238,208.6953 L560.3188,218.8364 L560.7809,228.9775 L560.8947,239.1186 L560.9057,249.2597 L560.3395,259.4007 L560.6181,269.5418 L560.9363,279.6829 L559.0384,289.824 L560.9047,299.9651 L559.6047,310.1062 L560.7117,320.2472 L559.34,330.3883 L559.9087,340.5294 L560.9888,350.6705 L559.935,360.8116 L560.1404,370.9527 L560,381.0938 " fill="none" style="stroke:#383838;stroke-width:1.0;stroke-dasharray:5.0,5.0;"/><path d="M815,36.2969 L815.2802,36.2969 L814.4476,46.438 L815.2577,56.579 L815.5329,66.7201 L814.0488,76.8612 L814.8964,87.0023 L814.4313,97.1434 L814.4887,107.2845 L814.9091,117.4256 L814.0782,127.5666 L815.7382,137.7077 L814.1596,147.8488 L814.7363,157.9899 L815.5759,168.131 L814.8856,178.2721 L815.091,188.4131 L814.9574,198.5542 L815.238,208.6953 L815.3188,218.8364 L815.7809,228.9775 L815.8947,239.1186 L815.9057,249.2597 L815.3395,259.4007 L815.6181,269.5418 L815.9363,279.6829 L814.0384,289.824 L815.9047,299.9651 L814.6047,310.1062 L815.7117,320.2472 L814.34,330.3883 L814.9087,340.5294 L815.9888,350.6705 L814.935,360.8116 L815.1404,370.9527 L815,381.0938 " fill="none" style="stroke:#383838;stroke-width:1.0;stroke-dasharray:5.0,5.0;"/><path d="M1008,36.2969 L1008.2802,36.2969 L1007.4476,46.438 L1008.2577,56.579 L1008.5329,66.7201 L1007.0488,76.8612 L1007.8964,87.0023 L1007.4313,97.1434 L1007.4887,107.2845 L1007.9091,117.4256 L1007.0782,127.5666 L1008.7382,137.7077 L1007.1596,147.8488 L1007.7363,157.9899 L1008.5759,168.131 L1007.8856,178.2721 L1008.091,188.4131 L1007.9574,198.5542 L1008.238,208.6953 L1008.3188,218.8364 L1008.7809,228.9775 L1008.8947,239.1186 L1008.9057,249.2597 L1008.3395,259.4007 L1008.6181,269.5418 L1008.9363,279.6829 L1007.0384,289.824 L1008.9047,299.9651 L1007.6047,310.1062 L1008.7117,320.2472 L1007.34,330.3883 L1007.9087,340.5294 L1008.9888,350.6705 L1007.935,360.8116 L1008.1404,370.9527 L1008,381.0938 " fill="none" style="stroke:#383838;stroke-width:1.0;stroke-dasharray:5.0,5.0;"/><path d="M1124,36.2969 L1124.2802,36.2969 L1123.4476,46.438 L1124.2577,56.579 L1124.5329,66.7201 L1123.0488,76.8612 L1123.8964,87.0023 L1123.4313,97.1434 L1123.4887,107.2845 L1123.9091,117.4256 L1123.0782,127.5666 L1124.7382,137.7077 L1123.1596,147.8488 L1123.7363,157.9899 L1124.5759,168.131 L1123.8856,178.2721 L1124.091,188.4131 L1123.9574,198.5542 L1124.238,208.6953 L1124.3188,218.8364 L1124.7809,228.9775 L1124.8947,239.1186 L1124.9057,249.2597 L1124.3395,259.4007 L1124.6181,269.5418 L1124.9363,279.6829 L1123.0384,289.824 L1124.9047,299.9651 L1123.6047,310.1062 L1124.7117,320.2472 L1123.34,330.3883 L1123.9087,340.5294 L1124.9888,350.6705 L1123.935,360.8116 L1124.1404,370.9527 L1124,381.0938 " fill="none" style="stroke:#383838;stroke-width:1.0;stroke-dasharray:5.0,5.0;"/><polygon fill="#F8F8F8" points="5,5,5,5.2102,14.7059,4.5857,24.4118,5.1933,34.1176,5.3997,43.8235,4.2866,53.5294,4.9223,63.2353,4.5735,72.9412,4.6165,82.6471,4.9318,92.3529,4.3086,102.0588,5.5536,111.7647,4.3697,121.4706,4.8022,131.1765,5.4319,140.8824,4.9142,150.5882,5.0682,160.2941,4.9681,170,5,170.0595,5,170.0797,11.0594,170.1952,17.1188,170.2237,23.1781,170.2264,29.2375,170,35.2969,170,35.5515,160.2941,35.7605,150.5882,35.9991,140.8824,34.5757,131.1765,35.9754,121.4706,35.0004,111.7647,35.8307,102.0588,34.8019,92.3529,35.2284,82.6471,36.0385,72.9412,35.2481,63.2353,35.4022,53.5294,35.6355,43.8235,35.7131,34.1176,35.293,24.4118,35.5841,14.7059,34.7245,5,35.2969,5.0948,35.2969,5.1827,29.2375,5.1482,23.1781,5.2043,17.1188,4.839,11.0594,5,5" style="stroke:#383838;stroke-width:1.5;"/><text fill="#000000" font-family="FG Virgil" font-size="14" lengthAdjust="spacing" textLength="151" x="12" y="24.9951">ServicoBootstrapper</text><polygon fill="#F8F8F8" points="5,380.0938,5,380.3039,14.7059,379.6794,24.4118,380.287,34.1176,380.4934,43.8235,379.3804,53.5294,380.016,63.2353,379.6673,72.9412,379.7103,82.6471,380.0256,92.3529,379.4024,102.0588,380.6474,111.7647,379.4635,121.4706,379.896,131.1765,380.5257,140.8824,380.008,150.5882,380.162,160.2941,380.0618,170,380.0938,170.0595,380.0938,170.0797,386.1531,170.1952,392.2125,170.2237,398.2719,170.2264,404.3313,170,410.3906,170,410.6453,160.2941,410.8542,150.5882,411.0929,140.8824,409.6694,131.1765,411.0691,121.4706,410.0941,111.7647,410.9244,102.0588,409.8956,92.3529,410.3221,82.6471,411.1322,72.9412,410.3419,63.2353,410.4959,53.5294,410.7293,43.8235,410.8069,34.1176,410.3867,24.4118,410.6778,14.7059,409.8182,5,410.3906,5.0948,410.3906,5.1827,404.3313,5.1482,398.2719,5.2043,392.2125,4.839,386.1531,5,380.0938" style="stroke:#383838;stroke-width:1.5;"/><text fill="#000000" font-family="FG Virgil" font-size="14" lengthAdjust="spacing" textLength="151" x="12" y="400.0889">ServicoBootstrapper</text><polygon fill="#F8F8F8" points="180,5,180,5.2102,189.9167,4.5857,199.8333,5.1933,209.75,5.3997,219.6667,4.2866,229.5833,4.9223,239.5,4.5735,249.4167,4.6165,259.3333,4.9318,269.25,4.3086,279.1667,5.5536,289.0833,4.3697,299,5,298.9341,5,299.144,11.0594,298.9714,17.1188,299.0227,23.1781,298.9894,29.2375,299,35.2969,299,35.4754,289.0833,35.536,279.1667,35.8826,269.25,35.9679,259.3333,35.9761,249.4167,35.5515,239.5,35.7605,229.5833,35.9991,219.6667,34.5757,209.75,35.9754,199.8333,35.0004,189.9167,35.8307,180,35.2969,179.835,35.2969,179.9772,29.2375,180.2472,23.1781,179.9838,17.1188,180.0351,11.0594,180,5" style="stroke:#383838;stroke-width:1.5;"/><text fill="#000000" font-family="FG Virgil" font-size="14" lengthAdjust="spacing" textLength="105" x="187" y="24.9951">FluxoAtividade</text><polygon fill="#F8F8F8" points="180,380.0938,180,380.3039,189.9167,379.6794,199.8333,380.287,209.75,380.4934,219.6667,379.3804,229.5833,380.016,239.5,379.6673,249.4167,379.7103,259.3333,380.0256,269.25,379.4024,279.1667,380.6474,289.0833,379.4635,299,380.0938,298.9341,380.0938,299.144,386.1531,298.9714,392.2125,299.0227,398.2719,298.9894,404.3313,299,410.3906,299,410.5692,289.0833,410.6298,279.1667,410.9763,269.25,411.0617,259.3333,411.0699,249.4167,410.6453,239.5,410.8542,229.5833,411.0929,219.6667,409.6694,209.75,411.0691,199.8333,410.0941,189.9167,410.9244,180,410.3906,179.835,410.3906,179.9772,404.3313,180.2472,398.2719,179.9838,392.2125,180.0351,386.1531,180,380.0938" style="stroke:#383838;stroke-width:1.5;"/><text fill="#000000" font-family="FG Virgil" font-size="14" lengthAdjust="spacing" textLength="105" x="187" y="400.0889">FluxoAtividade</text><polygon fill="#F8F8F8" points="309,5,309,5.2102,318.8125,4.5857,328.625,5.1933,338.4375,5.3997,348.25,4.2866,358.0625,4.9223,367.875,4.5735,377.6875,4.6165,387.5,4.9318,397.3125,4.3086,407.125,5.5536,416.9375,4.3697,426.75,4.8022,436.5625,5.4319,446.375,4.9142,456.1875,5.0682,466,5,465.9894,5,466.0595,11.0594,466.0797,17.1188,466.1952,23.1781,466.2237,29.2375,466,35.2969,466,35.9761,456.1875,35.5515,446.375,35.7605,436.5625,35.9991,426.75,34.5757,416.9375,35.9754,407.125,35.0004,397.3125,35.8307,387.5,34.8019,377.6875,35.2284,367.875,36.0385,358.0625,35.2481,348.25,35.4022,338.4375,35.6355,328.625,35.7131,318.8125,35.293,309,35.2969,309.0957,35.2969,308.8092,29.2375,309.0948,23.1781,309.1827,17.1188,309.1482,11.0594,309,5" style="stroke:#383838;stroke-width:1.5;"/><text fill="#000000" font-family="FG Virgil" font-size="14" lengthAdjust="spacing" textLength="143" x="316" y="24.9951">CatalogoRepository</text><polygon fill="#F8F8F8" points="309,380.0938,309,380.3039,318.8125,379.6794,328.625,380.287,338.4375,380.4934,348.25,379.3804,358.0625,380.016,367.875,379.6673,377.6875,379.7103,387.5,380.0256,397.3125,379.4024,407.125,380.6474,416.9375,379.4635,426.75,379.896,436.5625,380.5257,446.375,380.008,456.1875,380.162,466,380.0938,465.9894,380.0938,466.0595,386.1531,466.0797,392.2125,466.1952,398.2719,466.2237,404.3313,466,410.3906,466,411.0699,456.1875,410.6453,446.375,410.8542,436.5625,411.0929,426.75,409.6694,416.9375,411.0691,407.125,410.0941,397.3125,410.9244,387.5,409.8956,377.6875,410.3221,367.875,411.1322,358.0625,410.3419,348.25,410.4959,338.4375,410.7293,328.625,410.8069,318.8125,410.3867,309,410.3906,309.0957,410.3906,308.8092,404.3313,309.0948,398.2719,309.1827,392.2125,309.1482,386.1531,309,380.0938" style="stroke:#383838;stroke-width:1.5;"/><text fill="#000000" font-family="FG Virgil" font-size="14" lengthAdjust="spacing" textLength="143" x="316" y="400.0889">CatalogoRepository</text><polygon fill="#F8F8F8" points="476,5,476,5.2102,485.9412,4.5857,495.8824,5.1933,505.8235,5.3997,515.7647,4.2866,525.7059,4.9223,535.6471,4.5735,545.5882,4.6165,555.5294,4.9318,565.4706,4.3086,575.4118,5.5536,585.3529,4.3697,595.2941,4.8022,605.2353,5.4319,615.1765,4.9142,625.1176,5.0682,635.0588,4.9681,645,5,645.0595,5,645.0797,11.0594,645.1952,17.1188,645.2237,23.1781,645.2264,29.2375,645,35.2969,645,35.5515,635.0588,35.7605,625.1176,35.9991,615.1765,34.5757,605.2353,35.9754,595.2941,35.0004,585.3529,35.8307,575.4118,34.8019,565.4706,35.2284,555.5294,36.0385,545.5882,35.2481,535.6471,35.4022,525.7059,35.6355,515.7647,35.7131,505.8235,35.293,495.8824,35.5841,485.9412,34.7245,476,35.2969,476.0948,35.2969,476.1827,29.2375,476.1482,23.1781,476.2043,17.1188,475.839,11.0594,476,5" style="stroke:#383838;stroke-width:1.5;"/><text fill="#000000" font-family="FG Virgil" font-size="14" lengthAdjust="spacing" textLength="155" x="483" y="24.9951">FormularioRepository</text><polygon fill="#F8F8F8" points="476,380.0938,476,380.3039,485.9412,379.6794,495.8824,380.287,505.8235,380.4934,515.7647,379.3804,525.7059,380.016,535.6471,379.6673,545.5882,379.7103,555.5294,380.0256,565.4706,379.4024,575.4118,380.6474,585.3529,379.4635,595.2941,379.896,605.2353,380.5257,615.1765,380.008,625.1176,380.162,635.0588,380.0618,645,380.0938,645.0595,380.0938,645.0797,386.1531,645.1952,392.2125,645.2237,398.2719,645.2264,404.3313,645,410.3906,645,410.6453,635.0588,410.8542,625.1176,411.0929,615.1765,409.6694,605.2353,411.0691,595.2941,410.0941,585.3529,410.9244,575.4118,409.8956,565.4706,410.3221,555.5294,411.1322,545.5882,410.3419,535.6471,410.4959,525.7059,410.7293,515.7647,410.8069,505.8235,410.3867,495.8824,410.6778,485.9412,409.8182,476,410.3906,476.0948,410.3906,476.1827,404.3313,476.1482,398.2719,476.2043,392.2125,475.839,386.1531,476,380.0938" style="stroke:#383838;stroke-width:1.5;"/><text fill="#000000" font-family="FG Virgil" font-size="14" lengthAdjust="spacing" textLength="155" x="483" y="400.0889">FormularioRepository</text><polygon fill="#F8F8F8" points="706,5,706,5.2102,715.9545,4.5857,725.9091,5.1933,735.8636,5.3997,745.8182,4.2866,755.7727,4.9223,765.7273,4.5735,775.6818,4.6165,785.6364,4.9318,795.5909,4.3086,805.5455,5.5536,815.5,4.3697,825.4545,4.8022,835.4091,5.4319,845.3636,4.9142,855.3182,5.0682,865.2727,4.9681,875.2273,5.1785,885.1818,5.2391,895.1364,5.5857,905.0909,5.6711,915.0455,5.6793,925,5,925.0849,5,925.1545,11.0594,925.2341,17.1188,924.7596,23.1781,925.2262,29.2375,925,35.2969,925,35.0004,915.0455,35.8307,905.0909,34.8019,895.1364,35.2284,885.1818,36.0385,875.2273,35.2481,865.2727,35.4022,855.3182,35.6355,845.3636,35.7131,835.4091,35.293,825.4545,35.5841,815.5,34.7245,805.5455,35.5813,795.5909,35.8451,785.6364,35.7414,775.6818,35.9099,765.7273,34.8138,755.7727,34.6447,745.8182,34.6755,735.8636,35.238,725.9091,35.1003,715.9545,35.9783,706,35.2969,705.9418,35.2969,705.8856,29.2375,706.0761,23.1781,705.7777,17.1188,705.827,11.0594,706,5" style="stroke:#383838;stroke-width:1.5;"/><text fill="#000000" font-family="FG Virgil" font-size="14" lengthAdjust="spacing" textLength="205" x="713" y="24.9951">EspecificarServicoController</text><polygon fill="#F8F8F8" points="706,380.0938,706,380.3039,715.9545,379.6794,725.9091,380.287,735.8636,380.4934,745.8182,379.3804,755.7727,380.016,765.7273,379.6673,775.6818,379.7103,785.6364,380.0256,795.5909,379.4024,805.5455,380.6474,815.5,379.4635,825.4545,379.896,835.4091,380.5257,845.3636,380.008,855.3182,380.162,865.2727,380.0618,875.2273,380.2723,885.1818,380.3329,895.1364,380.6794,905.0909,380.7648,915.0455,380.773,925,380.0938,925.0849,380.0938,925.1545,386.1531,925.2341,392.2125,924.7596,398.2719,925.2262,404.3313,925,410.3906,925,410.0941,915.0455,410.9244,905.0909,409.8956,895.1364,410.3221,885.1818,411.1322,875.2273,410.3419,865.2727,410.4959,855.3182,410.7293,845.3636,410.8069,835.4091,410.3867,825.4545,410.6778,815.5,409.8182,805.5455,410.675,795.5909,410.9388,785.6364,410.8352,775.6818,411.0036,765.7273,409.9075,755.7727,409.7384,745.8182,409.7692,735.8636,410.3317,725.9091,410.1941,715.9545,411.072,706,410.3906,705.9418,410.3906,705.8856,404.3313,706.0761,398.2719,705.7777,392.2125,705.827,386.1531,706,380.0938" style="stroke:#383838;stroke-width:1.5;"/><text fill="#000000" font-family="FG Virgil" font-size="14" lengthAdjust="spacing" textLength="205" x="713" y="400.0889">EspecificarServicoController</text><polygon fill="#F8F8F8" points="935,5,935,5.2102,944.7333,4.5857,954.4667,5.1933,964.2,5.3997,973.9333,4.2866,983.6667,4.9223,993.4,4.5735,1003.1333,4.6165,1012.8667,4.9318,1022.6,4.3086,1032.3333,5.5536,1042.0667,4.3697,1051.8,4.8022,1061.5333,5.4319,1071.2667,4.9142,1081,5,1081.0227,5,1080.9894,11.0594,1081.0595,17.1188,1081.0797,23.1781,1081.1952,29.2375,1081,35.2969,1081,35.9679,1071.2667,35.9761,1061.5333,35.5515,1051.8,35.7605,1042.0667,35.9991,1032.3333,34.5757,1022.6,35.9754,1012.8667,35.0004,1003.1333,35.8307,993.4,34.8019,983.6667,35.2284,973.9333,36.0385,964.2,35.2481,954.4667,35.4022,944.7333,35.6355,935,35.2969,935.1387,35.2969,934.9987,29.2375,935.0957,23.1781,934.8092,17.1188,935.0948,11.0594,935,5" style="stroke:#383838;stroke-width:1.5;"/><text fill="#000000" font-family="FG Virgil" font-size="14" lengthAdjust="spacing" textLength="132" x="942" y="24.9951">ServicoRepository</text><polygon fill="#F8F8F8" points="935,380.0938,935,380.3039,944.7333,379.6794,954.4667,380.287,964.2,380.4934,973.9333,379.3804,983.6667,380.016,993.4,379.6673,1003.1333,379.7103,1012.8667,380.0256,1022.6,379.4024,1032.3333,380.6474,1042.0667,379.4635,1051.8,379.896,1061.5333,380.5257,1071.2667,380.008,1081,380.0938,1081.0227,380.0938,1080.9894,386.1531,1081.0595,392.2125,1081.0797,398.2719,1081.1952,404.3313,1081,410.3906,1081,411.0617,1071.2667,411.0699,1061.5333,410.6453,1051.8,410.8542,1042.0667,411.0929,1032.3333,409.6694,1022.6,411.0691,1012.8667,410.0941,1003.1333,410.9244,993.4,409.8956,983.6667,410.3221,973.9333,411.1322,964.2,410.3419,954.4667,410.4959,944.7333,410.7293,935,410.3906,935.1387,410.3906,934.9987,404.3313,935.0957,398.2719,934.8092,392.2125,935.0948,386.1531,935,380.0938" style="stroke:#383838;stroke-width:1.5;"/><text fill="#000000" font-family="FG Virgil" font-size="14" lengthAdjust="spacing" textLength="132" x="942" y="400.0889">ServicoRepository</text><polygon fill="#F8F8F8" points="1091,5,1091,5.2102,1100.5714,4.5857,1110.1429,5.1933,1119.7143,5.3997,1129.2857,4.2866,1138.8571,4.9223,1148.4286,4.5735,1158,5,1157.8722,5,1157.9773,11.0594,1157.7695,17.1188,1158.1845,23.1781,1157.7899,29.2375,1158,35.2969,1158,35.0991,1148.4286,35.7288,1138.8571,35.2111,1129.2857,35.3651,1119.7143,35.2649,1110.1429,35.4754,1100.5714,35.536,1091,35.2969,1091.1952,35.2969,1091.2237,29.2375,1091.2264,23.1781,1091.0849,17.1188,1091.1545,11.0594,1091,5" style="stroke:#383838;stroke-width:1.5;"/><text fill="#000000" font-family="FG Virgil" font-size="14" lengthAdjust="spacing" textLength="53" x="1098" y="24.9951">Servico</text><polygon fill="#F8F8F8" points="1091,380.0938,1091,380.3039,1100.5714,379.6794,1110.1429,380.287,1119.7143,380.4934,1129.2857,379.3804,1138.8571,380.016,1148.4286,379.6673,1158,380.0938,1157.8722,380.0938,1157.9773,386.1531,1157.7695,392.2125,1158.1845,398.2719,1157.7899,404.3313,1158,410.3906,1158,410.1929,1148.4286,410.8226,1138.8571,410.3048,1129.2857,410.4589,1119.7143,410.3587,1110.1429,410.5692,1100.5714,410.6298,1091,410.3906,1091.1952,410.3906,1091.2237,404.3313,1091.2264,398.2719,1091.0849,392.2125,1091.1545,386.1531,1091,380.0938" style="stroke:#383838;stroke-width:1.5;"/><text fill="#000000" font-family="FG Virgil" font-size="14" lengthAdjust="spacing" textLength="53" x="1098" y="400.0889">Servico</text><polygon fill="#FFFFFF" points="82.5,46.2969,82.5,46.3669,84.5,46.1588,86.5,46.3613,88.5,46.4301,90.5,46.0591,92.5,46.2969,92.4223,46.2969,92.0735,56.1968,92.1165,66.0967,92.4318,75.9966,91.8086,85.8965,93.0536,95.7964,91.8697,105.6963,92.3022,115.5962,92.9319,125.4961,92.4142,135.396,92.5682,145.2959,92.4681,155.1958,92.6785,165.0957,92.7391,174.9956,93.0857,184.8955,93.1711,194.7954,93.1793,204.6953,92.7546,214.5952,92.9636,224.4951,93.2022,234.395,91.7788,244.2949,93.1785,254.1948,92.2035,264.0947,93.0338,273.9946,92.005,283.8945,92.4315,293.7944,93.2416,303.6943,92.4513,313.5942,92.6053,323.4941,92.8386,333.394,92.9162,343.2939,92.4961,353.1938,92.5,363.0938,92.5,363.1895,90.5,362.9029,88.5,363.1885,86.5,363.2765,84.5,363.2419,82.5,363.0938,83.113,363.0938,82.0169,353.1938,81.8478,343.2939,81.8786,333.394,82.4411,323.4941,82.3035,313.5942,83.1814,303.6943,82.3253,293.7944,82.1569,283.8945,82.7283,273.9946,81.8332,264.0947,81.9809,254.1948,83.149,244.2949,82.9357,234.395,83.2345,224.4951,82.1782,214.5952,82.8192,204.6953,83.0904,194.7954,82.0276,184.8955,82.4041,174.9956,82.626,165.0957,83.1518,155.1958,82.4958,145.2959,82.9626,135.396,81.9462,125.4961,81.8227,115.5962,83.0036,105.6963,81.7831,95.7964,83.009,85.8965,82.7066,75.9966,82.2321,66.0967,82.1462,56.1968,82.5,46.2969" style="stroke:#383838;stroke-width:1.0;"/><polygon fill="#FFFFFF" points="234.5,185.6953,234.5,185.7654,236.5,185.5572,238.5,185.7597,240.5,185.8285,242.5,185.4575,244.5,185.6953,244.4741,185.6953,244.3578,191.6953,244.3722,197.6953,244.4773,203.6953,244.2695,209.6953,244.5,215.6953,244.5,215.8799,242.5,215.4852,240.5,215.6294,238.5,215.8393,236.5,215.6667,234.5,215.6953,234.5227,215.6953,234.4894,209.6953,234.5595,203.6953,234.5797,197.6953,234.6952,191.6953,234.5,185.6953" style="stroke:#383838;stroke-width:1.0;"/><polygon fill="#FFFFFF" points="382.5,67.4297,382.5,67.4997,384.5,67.2916,386.5,67.4941,388.5,67.5629,390.5,67.1919,392.5,67.4297,392.4741,67.4297,392.3578,73.4297,392.3722,79.4297,392.4773,85.4297,392.2695,91.4297,392.5,97.4297,392.5,97.6142,390.5,97.2196,388.5,97.3638,386.5,97.5737,384.5,97.4011,382.5,97.4297,382.5227,97.4297,382.4894,91.4297,382.5595,85.4297,382.5797,79.4297,382.6952,73.4297,382.5,67.4297" style="stroke:#383838;stroke-width:1.0;"/><polygon fill="#FFFFFF" points="555.5,126.5625,555.5,126.6326,557.5,126.4244,559.5,126.6269,561.5,126.6957,563.5,126.3247,565.5,126.5625,565.4741,126.5625,565.3578,132.5625,565.3722,138.5625,565.4773,144.5625,565.2695,150.5625,565.5,156.5625,565.5,156.747,563.5,156.3524,561.5,156.4966,559.5,156.7065,557.5,156.5339,555.5,156.5625,555.5227,156.5625,555.4894,150.5625,555.5595,144.5625,555.5797,138.5625,555.6952,132.5625,555.5,126.5625" style="stroke:#383838;stroke-width:1.0;"/><polygon fill="#FFFFFF" points="810.5,244.8281,810.5,244.8982,812.5,244.69,814.5,244.8926,816.5,244.9614,818.5,244.5903,820.5,244.8281,820.4223,244.8281,820.0735,254.6836,820.1165,264.5391,820.4318,274.3945,819.8086,284.25,821.0536,294.1055,819.8697,303.9609,820.3022,313.8164,820.9319,323.6719,820.4142,333.5273,820.5682,343.3828,820.4681,353.2383,820.5,363.0938,820.5,363.1533,818.5,363.1735,816.5,363.289,814.5,363.3174,812.5,363.3202,810.5,363.0938,810.7546,363.0938,810.9636,353.2383,811.2022,343.3828,809.7788,333.5273,811.1785,323.6719,810.2035,313.8164,811.0338,303.9609,810.005,294.1055,810.4315,284.25,811.2416,274.3945,810.4513,264.5391,810.6053,254.6836,810.5,244.8281" style="stroke:#383838;stroke-width:1.0;"/><polygon fill="#FFFFFF" points="1003,333.0938,1003,333.1638,1005,332.9556,1007,333.1582,1009,333.227,1011,332.856,1013,333.0938,1012.9741,333.0938,1012.8578,339.0938,1012.8722,345.0938,1012.9773,351.0938,1012.7695,357.0938,1013,363.0938,1013,363.2783,1011,362.8837,1009,363.0278,1007,363.2377,1005,363.0652,1003,363.0938,1003.0227,363.0938,1002.9894,357.0938,1003.0595,351.0938,1003.0797,345.0938,1003.1952,339.0938,1003,333.0938" style="stroke:#383838;stroke-width:1.0;"/><polygon fill="#FFFFFF" points="1119.5,273.9609,1119.5,274.031,1121.5,273.8228,1123.5,274.0254,1125.5,274.0942,1127.5,273.7231,1129.5,273.9609,1129.4741,273.9609,1129.3578,279.9609,1129.3722,285.9609,1129.4773,291.9609,1129.2695,297.9609,1129.5,303.9609,1129.5,304.1455,1127.5,303.7508,1125.5,303.895,1123.5,304.1049,1121.5,303.9323,1119.5,303.9609,1119.5227,303.9609,1119.4894,297.9609,1119.5595,291.9609,1119.5797,285.9609,1119.6952,279.9609,1119.5,273.9609" style="stroke:#383838;stroke-width:1.0;"/><polygon fill="#383838" points="370.5,63.4297,370.526,63.4947,372.4487,64.1015,374.5239,65.0895,376.5495,65.9534,378.4117,66.4089,380.5,67.4297,380.4904,67.4056,378.4472,68.0977,376.4525,68.911,374.4916,69.8086,372.4144,70.4157,370.5,71.4297,370.6305,71.5602,371.1514,70.4811,372.0534,69.7831,373.0018,69.1315,373.6798,68.2095,374.5,67.4297,374.5161,67.4458,373.6925,66.6222,372.9421,65.8718,372.1564,65.0861,371.438,64.3677,370.5,63.4297" style="stroke:#383838;stroke-width:1.0;"/><path d="M92.5,67.4297 L92.5,67.7099 L102.6429,66.8773 L112.7857,67.6874 L122.9286,67.9626 L133.0714,66.4785 L143.2143,67.3261 L153.3571,66.861 L163.5,66.9184 L173.6429,67.3388 L183.7857,66.5079 L193.9286,68.1679 L204.0714,66.5893 L214.2143,67.166 L224.3571,68.0056 L234.5,67.3153 L244.6429,67.5207 L254.7857,67.3871 L264.9286,67.6677 L275.0714,67.7485 L285.2143,68.2106 L295.3571,68.3244 L305.5,68.3354 L315.6429,67.7692 L325.7857,68.0478 L335.9286,68.366 L346.0714,66.4681 L356.2143,68.3344 L366.3571,67.0343 L376.5,67.4297 " fill="none" style="stroke:#383838;stroke-width:1.0;"/><text fill="#000000" font-family="FG Virgil" font-size="13" lengthAdjust="spacing" textLength="153" x="99.5" y="62.3638">catalogo=getCatalogo()</text><polygon fill="#383838" points="543.5,122.5625,543.526,122.6275,545.4487,123.2343,547.5239,124.2223,549.5495,125.0862,551.4117,125.5417,553.5,126.5625,553.4904,126.5384,551.4472,127.2305,549.4525,128.0438,547.4916,128.9414,545.4144,129.5485,543.5,130.5625,543.6305,130.693,544.1514,129.6139,545.0534,128.9159,546.0018,128.2643,546.6798,127.3423,547.5,126.5625,547.5161,126.5786,546.6925,125.755,545.9421,125.0046,545.1564,124.2189,544.438,123.5005,543.5,122.5625" style="stroke:#383838;stroke-width:1.0;"/><path d="M92.5,126.5625 L92.5,126.8427 L102.4348,126.0101 L112.3696,126.8202 L122.3043,127.0954 L132.2391,125.6113 L142.1739,126.4589 L152.1087,125.9938 L162.0435,126.0512 L171.9783,126.4716 L181.913,125.6407 L191.8478,127.3007 L201.7826,125.7221 L211.7174,126.2988 L221.6522,127.1384 L231.587,126.4481 L241.5217,126.6535 L251.4565,126.5199 L261.3913,126.8005 L271.3261,126.8813 L281.2609,127.3434 L291.1957,127.4572 L301.1304,127.4682 L311.0652,126.902 L321,127.1806 L330.9348,127.4988 L340.8696,125.6009 L350.8043,127.4672 L360.7391,126.1672 L370.6739,127.2742 L380.6087,125.9025 L390.5435,126.4712 L400.4783,127.5513 L410.413,126.4975 L420.3478,126.7029 L430.2826,127.014 L440.2174,127.1175 L450.1522,126.5573 L460.087,126.9455 L470.0217,125.7993 L479.9565,126.9417 L489.8913,127.2934 L499.8261,127.1552 L509.7609,127.3799 L519.6957,125.9184 L529.6304,125.6929 L539.5652,125.734 L549.5,126.5625 " fill="none" style="stroke:#383838;stroke-width:1.0;"/><text fill="#000000" font-family="FG Virgil" font-size="13" lengthAdjust="spacing" textLength="175" x="99.5" y="121.4966">formulario=getFormulario()</text><polygon fill="#383838" points="222.5,181.6953,222.526,181.7604,224.4487,182.3671,226.5239,183.3551,228.5495,184.219,230.4117,184.6745,232.5,185.6953,232.4904,185.6713,230.4472,186.3633,228.4525,187.1766,226.4916,188.0742,224.4144,188.6813,222.5,189.6953,222.6305,189.8258,223.1514,188.7468,224.0534,188.0487,225.0018,187.3971,225.6798,186.4751,226.5,185.6953,226.5161,185.7114,225.6925,184.8878,224.9421,184.1374,224.1564,183.3517,223.438,182.6334,222.5,181.6953" style="stroke:#383838;stroke-width:1.0;"/><path d="M92.5,185.6953 L92.5,185.9756 L102.2143,185.1429 L111.9286,185.953 L121.6429,186.2282 L131.3571,184.7441 L141.0714,185.5917 L150.7857,185.1267 L160.5,185.184 L170.2143,185.6044 L179.9286,184.7735 L189.6429,186.4335 L199.3571,184.8549 L209.0714,185.4316 L218.7857,186.2712 L228.5,185.6953 " fill="none" style="stroke:#383838;stroke-width:1.0;"/><text fill="#000000" font-family="FG Virgil" font-size="13" lengthAdjust="spacing" textLength="93" x="99.5" y="180.6294">fluxo=create()</text><polygon fill="#383838" points="798.5,240.8281,798.526,240.8932,800.4487,241.4999,802.5239,242.4879,804.5495,243.3518,806.4117,243.8073,808.5,244.8281,808.4904,244.8041,806.4472,245.4961,804.4525,246.3094,802.4916,247.207,800.4144,247.8142,798.5,248.8281,798.6305,248.9586,799.1514,247.8796,800.0534,247.1815,801.0018,246.5299,801.6798,245.6079,802.5,244.8281,802.5161,244.8442,801.6925,244.0206,800.9421,243.2702,800.1564,242.4845,799.438,241.7662,798.5,240.8281" style="stroke:#383838;stroke-width:1.0;"/><path d="M92.5,244.8281 L92.5,245.1084 L102.5282,244.2757 L112.5563,245.0858 L122.5845,245.361 L132.6127,243.8769 L142.6408,244.7245 L152.669,244.2595 L162.6972,244.3168 L172.7254,244.7372 L182.7535,243.9063 L192.7817,245.5663 L202.8099,243.9878 L212.838,244.5644 L222.8662,245.4041 L232.8944,244.7138 L242.9225,244.9191 L252.9507,244.7855 L262.9789,245.0662 L273.007,245.147 L283.0352,245.609 L293.0634,245.7229 L303.0915,245.7338 L313.1197,245.1676 L323.1479,245.4462 L333.1761,245.7644 L343.2042,243.8665 L353.2324,245.7328 L363.2606,244.4328 L373.2887,245.5399 L383.3169,244.1681 L393.3451,244.7368 L403.3732,245.8169 L413.4014,244.7631 L423.4296,244.9685 L433.4577,245.2796 L443.4859,245.3831 L453.5141,244.8229 L463.5423,245.2111 L473.5704,244.0649 L483.5986,245.2073 L493.6268,245.5591 L503.6549,245.4208 L513.6831,245.6455 L523.7113,244.184 L533.7394,243.9585 L543.7676,243.9996 L553.7958,244.7496 L563.8239,244.5661 L573.8521,245.7367 L583.8803,244.5952 L593.9085,244.3707 L603.9366,245.1325 L613.9648,243.939 L623.993,244.136 L634.0211,245.6934 L644.0493,245.409 L654.0775,245.8074 L664.1056,244.3991 L674.1338,245.2537 L684.162,245.6154 L694.1901,244.1983 L704.2183,244.7003 L714.2465,244.9961 L724.2746,245.6971 L734.3028,244.8225 L744.331,245.4449 L754.3592,244.0897 L764.3873,243.9251 L774.4155,245.4996 L784.4437,243.8722 L794.4718,245.5067 L804.5,244.8281 " fill="none" style="stroke:#383838;stroke-width:1.0;"/><text fill="#000000" font-family="FG Virgil" font-size="13" lengthAdjust="spacing" textLength="699" x="99.5" y="239.7622">especificarServico(codigoUnico,titulo,descricaoBreve,descricaoCompleta,formulario,keywords,catalogo,fluxo)</text><polygon fill="#383838" points="1107.5,269.9609,1107.526,270.026,1109.4487,270.6327,1111.5239,271.6208,1113.5495,272.4846,1115.4117,272.9401,1117.5,273.9609,1117.4904,273.9369,1115.4472,274.6289,1113.4525,275.4422,1111.4916,276.3398,1109.4144,276.947,1107.5,277.9609,1107.6305,278.0914,1108.1514,277.0124,1109.0534,276.3143,1110.0018,275.6627,1110.6798,274.7407,1111.5,273.9609,1111.5161,273.977,1110.6925,273.1534,1109.9421,272.403,1109.1564,271.6173,1108.438,270.899,1107.5,269.9609" style="stroke:#383838;stroke-width:1.0;"/><path d="M820.5,273.9609 L820.5,274.2412 L830.6034,273.4085 L840.7069,274.2187 L850.8103,274.4938 L860.9138,273.0097 L871.0172,273.8573 L881.1207,273.3923 L891.2241,273.4496 L901.3276,273.8701 L911.431,273.0391 L921.5345,274.6991 L931.6379,273.1206 L941.7414,273.6972 L951.8448,274.5369 L961.9483,273.8466 L972.0517,274.0519 L982.1552,273.9183 L992.2586,274.199 L1002.3621,274.2798 L1012.4655,274.7419 L1022.569,274.8557 L1032.6724,274.8666 L1042.7759,274.3004 L1052.8793,274.5791 L1062.9828,274.8972 L1073.0862,272.9994 L1083.1897,274.8656 L1093.2931,273.5656 L1103.3966,274.6727 L1113.5,273.9609 " fill="none" style="stroke:#383838;stroke-width:1.0;"/><text fill="#000000" font-family="FG Virgil" font-size="13" lengthAdjust="spacing" textLength="107" x="827.5" y="268.895">servico=create()</text><polygon fill="#383838" points="991,329.0938,991.026,329.1588,992.9487,329.7655,995.0239,330.7536,997.0495,331.6174,998.9117,332.073,1001,333.0938,1000.9904,333.0697,998.9472,333.7618,996.9525,334.5751,994.9916,335.4727,992.9144,336.0798,991,337.0938,991.1305,337.2242,991.6514,336.1452,992.5534,335.4471,993.5018,334.7956,994.1798,333.8735,995,333.0938,995.0161,333.1098,994.1925,332.2862,993.4421,331.5358,992.6564,330.7501,991.938,330.0318,991,329.0938" style="stroke:#383838;stroke-width:1.0;"/><path d="M820.5,333.0938 L820.5,333.374 L830.3056,332.5413 L840.1111,333.3515 L849.9167,333.6267 L859.7222,332.1426 L869.5278,332.9901 L879.3333,332.5251 L889.1389,332.5824 L898.9444,333.0029 L908.75,332.1719 L918.5556,333.8319 L928.3611,332.2534 L938.1667,332.8301 L947.9722,333.6697 L957.7778,332.9794 L967.5833,333.1847 L977.3889,333.0512 L987.1944,333.3318 L997,333.0938 " fill="none" style="stroke:#383838;stroke-width:1.0;"/><text fill="#000000" font-family="FG Virgil" font-size="13" lengthAdjust="spacing" textLength="87" x="827.5" y="328.0278">save(servico)</text><!--MD5=[46f0dbb4e1095922c2754a00f5cc5f6b]
@startuml
'http://plantuml.com/skinparam.html
skinparam handwritten true
skinparam monochrome true
skinparam packageStyle rect
skinparam defaultFontName FG Virgil
skinparam shadowing false

participant ServicoBootstrapper as Bootstrapper

participant FluxoAtividade as FluxoAtividade
participant CatalogoRepository as CRepository 
participant FormularioRepository as FRepository 
participant EspecificarServicoController as Controller
participant ServicoRepository as SRepository 
participant Servico as Servico

activate Bootstrapper

Bootstrapper -> CRepository : catalogo=getCatalogo()
activate CRepository
deactivate CRepository

Bootstrapper -> FRepository : formulario=getFormulario()
activate FRepository
deactivate FRepository

Bootstrapper -> FluxoAtividade : fluxo=create()
activate FluxoAtividade
deactivate FluxoAtividade

Bootstrapper -> Controller : especificarServico(codigoUnico,titulo,descricaoBreve,descricaoCompleta,formulario,keywords,catalogo,fluxo)
activate Controller
Controller -> Servico : servico=create()
activate Servico
deactivate Servico
Controller -> SRepository : save(servico)
activate SRepository
deactivate SRepository
deactivate Controller

deactivate Bootstrapper
@enduml

@startuml
skinparam handwritten true
skinparam monochrome true
skinparam packageStyle rect
skinparam defaultFontName FG Virgil
skinparam shadowing false

participant ServicoBootstrapper as Bootstrapper

participant FluxoAtividade as FluxoAtividade
participant CatalogoRepository as CRepository 
participant FormularioRepository as FRepository 
participant EspecificarServicoController as Controller
participant ServicoRepository as SRepository 
participant Servico as Servico

activate Bootstrapper

Bootstrapper -> CRepository : catalogo=getCatalogo()
activate CRepository
deactivate CRepository

Bootstrapper -> FRepository : formulario=getFormulario()
activate FRepository
deactivate FRepository

Bootstrapper -> FluxoAtividade : fluxo=create()
activate FluxoAtividade
deactivate FluxoAtividade

Bootstrapper -> Controller : especificarServico(codigoUnico,titulo,descricaoBreve,descricaoCompleta,formulario,keywords,catalogo,fluxo)
activate Controller
Controller -> Servico : servico=create()
activate Servico
deactivate Servico
Controller -> SRepository : save(servico)
activate SRepository
deactivate SRepository
deactivate Controller

deactivate Bootstrapper
@enduml

PlantUML version 1.2021.7(Sun May 23 12:40:07 UTC 2021)
(GPL source distribution)
Java Runtime: Java(TM) SE Runtime Environment
JVM: Java HotSpot(TM) 64-Bit Server VM
Default Encoding: UTF-8
Language: en
Country: US
--></g></svg>