<?xml version="1.0" encoding="UTF-8" standalone="no"?><svg xmlns="http://www.w3.org/2000/svg" xmlns:xlink="http://www.w3.org/1999/xlink" contentScriptType="application/ecmascript" contentStyleType="text/css" height="425px" preserveAspectRatio="none" style="width:798px;height:425px;background:#FFFFFF;" version="1.1" viewBox="0 0 798 425" width="798px" zoomAndPan="magnify"><defs><filter height="300%" id="f1wi51ycz3qgwm" width="300%" x="-1" y="-1"><feGaussianBlur result="blurOut" stdDeviation="2.0"/><feColorMatrix in="blurOut" result="blurOut2" type="matrix" values="0 0 0 0 0 0 0 0 0 0 0 0 0 0 0 0 0 0 .4 0"/><feOffset dx="4.0" dy="4.0" in="blurOut2" result="blurOut3"/><feBlend in="SourceGraphic" in2="blurOut3" mode="normal"/></filter></defs><g><rect fill="#FFFFFF" filter="url(#f1wi51ycz3qgwm)" height="85.2656" style="stroke:#A80036;stroke-width:1.0;" width="10" x="323.5" y="140.9922"/><rect fill="#FFFFFF" filter="url(#f1wi51ycz3qgwm)" height="150.5313" style="stroke:#A80036;stroke-width:1.0;" width="10" x="455" y="197.125"/><rect fill="#FFFFFF" filter="url(#f1wi51ycz3qgwm)" height="131.5313" style="stroke:#000000;stroke-width:2.0;" width="515" x="10" y="102.7266"/><line style="stroke:#A80036;stroke-width:1.0;stroke-dasharray:5.0,5.0;" x1="58" x2="58" y1="56.5938" y2="365.6563"/><line style="stroke:#A80036;stroke-width:1.0;stroke-dasharray:5.0,5.0;" x1="179" x2="179" y1="56.5938" y2="365.6563"/><line style="stroke:#A80036;stroke-width:1.0;stroke-dasharray:5.0,5.0;" x1="328" x2="328" y1="56.5938" y2="365.6563"/><line style="stroke:#A80036;stroke-width:1.0;stroke-dasharray:5.0,5.0;" x1="460" x2="460" y1="56.5938" y2="365.6563"/><line style="stroke:#A80036;stroke-width:1.0;stroke-dasharray:5.0,5.0;" x1="587" x2="587" y1="56.5938" y2="365.6563"/><line style="stroke:#A80036;stroke-width:1.0;stroke-dasharray:5.0,5.0;" x1="723" x2="723" y1="56.5938" y2="365.6563"/><rect fill="#FEFECE" filter="url(#f1wi51ycz3qgwm)" height="46.5938" style="stroke:#A80036;stroke-width:1.5;" width="72" x="20" y="5"/><text fill="#000000" font-family="sans-serif" font-size="14" font-style="italic" lengthAdjust="spacing" textLength="57" x="27.5" y="24.9951">«client»</text><text fill="#000000" font-family="sans-serif" font-size="14" lengthAdjust="spacing" textLength="58" x="27" y="41.292">Sistema</text><rect fill="#FEFECE" filter="url(#f1wi51ycz3qgwm)" height="46.5938" style="stroke:#A80036;stroke-width:1.5;" width="72" x="20" y="364.6563"/><text fill="#000000" font-family="sans-serif" font-size="14" font-style="italic" lengthAdjust="spacing" textLength="57" x="27.5" y="384.6514">«client»</text><text fill="#000000" font-family="sans-serif" font-size="14" lengthAdjust="spacing" textLength="58" x="27" y="400.9482">Sistema</text><rect fill="#FEFECE" filter="url(#f1wi51ycz3qgwm)" height="30.2969" style="stroke:#A80036;stroke-width:1.5;" width="142" x="106" y="21.2969"/><text fill="#000000" font-family="sans-serif" font-size="14" lengthAdjust="spacing" textLength="128" x="113" y="41.292">ValidacaoDaemon</text><rect fill="#FEFECE" filter="url(#f1wi51ycz3qgwm)" height="30.2969" style="stroke:#A80036;stroke-width:1.5;" width="142" x="106" y="364.6563"/><text fill="#000000" font-family="sans-serif" font-size="14" lengthAdjust="spacing" textLength="128" x="113" y="384.6514">ValidacaoDaemon</text><rect fill="#FEFECE" filter="url(#f1wi51ycz3qgwm)" height="30.2969" style="stroke:#A80036;stroke-width:1.5;" width="129" x="262" y="21.2969"/><text fill="#000000" font-family="sans-serif" font-size="14" lengthAdjust="spacing" textLength="115" x="269" y="41.292">ValidacaoServer</text><rect fill="#FEFECE" filter="url(#f1wi51ycz3qgwm)" height="30.2969" style="stroke:#A80036;stroke-width:1.5;" width="129" x="262" y="364.6563"/><text fill="#000000" font-family="sans-serif" font-size="14" lengthAdjust="spacing" textLength="115" x="269" y="384.6514">ValidacaoServer</text><rect fill="#FEFECE" filter="url(#f1wi51ycz3qgwm)" height="46.5938" style="stroke:#A80036;stroke-width:1.5;" width="106" x="405" y="5"/><text fill="#000000" font-family="sans-serif" font-size="14" font-style="italic" lengthAdjust="spacing" textLength="65" x="425.5" y="24.9951">«thread»</text><text fill="#000000" font-family="sans-serif" font-size="14" lengthAdjust="spacing" textLength="92" x="412" y="41.292">HandleClient</text><rect fill="#FEFECE" filter="url(#f1wi51ycz3qgwm)" height="46.5938" style="stroke:#A80036;stroke-width:1.5;" width="106" x="405" y="364.6563"/><text fill="#000000" font-family="sans-serif" font-size="14" font-style="italic" lengthAdjust="spacing" textLength="65" x="425.5" y="384.6514">«thread»</text><text fill="#000000" font-family="sans-serif" font-size="14" lengthAdjust="spacing" textLength="92" x="412" y="400.9482">HandleClient</text><rect fill="#FEFECE" filter="url(#f1wi51ycz3qgwm)" height="30.2969" style="stroke:#A80036;stroke-width:1.5;" width="120" x="525" y="21.2969"/><text fill="#000000" font-family="sans-serif" font-size="14" lengthAdjust="spacing" textLength="106" x="532" y="41.292">MessageParser</text><rect fill="#FEFECE" filter="url(#f1wi51ycz3qgwm)" height="30.2969" style="stroke:#A80036;stroke-width:1.5;" width="120" x="525" y="364.6563"/><text fill="#000000" font-family="sans-serif" font-size="14" lengthAdjust="spacing" textLength="106" x="532" y="384.6514">MessageParser</text><rect fill="#FEFECE" filter="url(#f1wi51ycz3qgwm)" height="30.2969" style="stroke:#A80036;stroke-width:1.5;" width="125" x="659" y="21.2969"/><text fill="#000000" font-family="sans-serif" font-size="14" lengthAdjust="spacing" textLength="111" x="666" y="41.292">MessageBuilder</text><rect fill="#FEFECE" filter="url(#f1wi51ycz3qgwm)" height="30.2969" style="stroke:#A80036;stroke-width:1.5;" width="125" x="659" y="364.6563"/><text fill="#000000" font-family="sans-serif" font-size="14" lengthAdjust="spacing" textLength="111" x="666" y="384.6514">MessageBuilder</text><rect fill="#FFFFFF" filter="url(#f1wi51ycz3qgwm)" height="85.2656" style="stroke:#A80036;stroke-width:1.0;" width="10" x="323.5" y="140.9922"/><rect fill="#FFFFFF" filter="url(#f1wi51ycz3qgwm)" height="150.5313" style="stroke:#A80036;stroke-width:1.0;" width="10" x="455" y="197.125"/><polygon fill="#A80036" points="316.5,83.7266,326.5,87.7266,316.5,91.7266,320.5,87.7266" style="stroke:#A80036;stroke-width:1.0;"/><line style="stroke:#A80036;stroke-width:1.0;" x1="179" x2="322.5" y1="87.7266" y2="87.7266"/><text fill="#000000" font-family="sans-serif" font-size="13" lengthAdjust="spacing" textLength="27" x="186" y="82.6606">new</text><path d="M10,102.7266 L88,102.7266 L88,109.7266 L78,119.7266 L10,119.7266 L10,102.7266 " fill="#EEEEEE" style="stroke:#000000;stroke-width:1.0;"/><rect fill="none" height="131.5313" style="stroke:#000000;stroke-width:2.0;" width="515" x="10" y="102.7266"/><text fill="#000000" font-family="sans-serif" font-size="13" font-weight="bold" lengthAdjust="spacing" textLength="33" x="25" y="115.7935">loop</text><text fill="#000000" font-family="sans-serif" font-size="11" font-weight="bold" lengthAdjust="spacing" textLength="39" x="103" y="114.937">[true]</text><polygon fill="#A80036" points="311.5,136.9922,321.5,140.9922,311.5,144.9922,315.5,140.9922" style="stroke:#A80036;stroke-width:1.0;"/><line style="stroke:#A80036;stroke-width:1.0;" x1="179" x2="317.5" y1="140.9922" y2="140.9922"/><text fill="#000000" font-family="sans-serif" font-size="13" lengthAdjust="spacing" textLength="30" x="186" y="135.9263">start</text><line style="stroke:#A80036;stroke-width:1.0;" x1="333.5" x2="375.5" y1="170.125" y2="170.125"/><line style="stroke:#A80036;stroke-width:1.0;" x1="375.5" x2="375.5" y1="170.125" y2="183.125"/><line style="stroke:#A80036;stroke-width:1.0;" x1="334.5" x2="375.5" y1="183.125" y2="183.125"/><polygon fill="#A80036" points="344.5,179.125,334.5,183.125,344.5,187.125,340.5,183.125" style="stroke:#A80036;stroke-width:1.0;"/><text fill="#000000" font-family="sans-serif" font-size="13" lengthAdjust="spacing" textLength="43" x="340.5" y="165.0591">accept</text><polygon fill="#A80036" points="311.5,193.125,321.5,197.125,311.5,201.125,315.5,197.125" style="stroke:#A80036;stroke-width:1.0;"/><line style="stroke:#A80036;stroke-width:1.0;stroke-dasharray:2.0,2.0;" x1="58" x2="317.5" y1="197.125" y2="197.125"/><polygon fill="#A80036" points="443,222.2578,453,226.2578,443,226.2578" style="stroke:#A80036;stroke-width:1.0;"/><line style="stroke:#A80036;stroke-width:1.0;" x1="328.5" x2="454" y1="226.2578" y2="226.2578"/><text fill="#000000" font-family="sans-serif" font-size="13" lengthAdjust="spacing" textLength="30" x="335.5" y="221.1919">start</text><polygon fill="#A80036" points="575,258.3906,585,262.3906,575,266.3906,579,262.3906" style="stroke:#A80036;stroke-width:1.0;"/><line style="stroke:#A80036;stroke-width:1.0;" x1="465" x2="581" y1="262.3906" y2="262.3906"/><text fill="#000000" font-family="sans-serif" font-size="13" lengthAdjust="spacing" textLength="36" x="472" y="257.3247">parse</text><line style="stroke:#A80036;stroke-width:1.0;" x1="465" x2="507" y1="291.5234" y2="291.5234"/><line style="stroke:#A80036;stroke-width:1.0;" x1="507" x2="507" y1="291.5234" y2="304.5234"/><line style="stroke:#A80036;stroke-width:1.0;" x1="466" x2="507" y1="304.5234" y2="304.5234"/><polygon fill="#A80036" points="476,300.5234,466,304.5234,476,308.5234,472,304.5234" style="stroke:#A80036;stroke-width:1.0;"/><text fill="#000000" font-family="sans-serif" font-size="13" lengthAdjust="spacing" textLength="52" x="472" y="286.4575">execute</text><polygon fill="#A80036" points="711.5,329.6563,721.5,333.6563,711.5,337.6563,715.5,333.6563" style="stroke:#A80036;stroke-width:1.0;"/><line style="stroke:#A80036;stroke-width:1.0;" x1="465" x2="717.5" y1="333.6563" y2="333.6563"/><text fill="#000000" font-family="sans-serif" font-size="13" lengthAdjust="spacing" textLength="30" x="472" y="328.5903">build</text><polygon fill="#A80036" points="69,343.6563,59,347.6563,69,351.6563,65,347.6563" style="stroke:#A80036;stroke-width:1.0;"/><line style="stroke:#A80036;stroke-width:1.0;stroke-dasharray:2.0,2.0;" x1="63" x2="459" y1="347.6563" y2="347.6563"/><!--MD5=[cdcca052a87b77f152a711d8c4e5161c]
@startuml
participant Sistema <<client>>

ValidacaoDaemon -> ValidacaoServer : new
loop true
ValidacaoDaemon -> ValidacaoServer: start
Activate ValidacaoServer
ValidacaoServer -> ValidacaoServer: accept

Sistema - -> ValidacaoServer

participant HandleClient <<thread>>
activate HandleClient
ValidacaoServer -\ HandleClient: start
deactivate ValidacaoServer
end

HandleClient -> MessageParser:parse
HandleClient -> HandleClient: execute
HandleClient -> MessageBuilder:build

HandleClient - -> Sistema
deactivate HandleClient
@enduml

PlantUML version 1.2021.6beta6(Unknown compile time)
(GPL source distribution)
Java Runtime: Java(TM) SE Runtime Environment
JVM: Java HotSpot(TM) 64-Bit Server VM
Default Encoding: UTF-8
Language: en
Country: US
--></g></svg>