<?xml version="1.0" encoding="UTF-8" standalone="no"?><svg xmlns="http://www.w3.org/2000/svg" xmlns:xlink="http://www.w3.org/1999/xlink" contentScriptType="application/ecmascript" contentStyleType="text/css" height="482px" preserveAspectRatio="none" style="width:303px;height:482px;background:#FFFFFF;" version="1.1" viewBox="0 0 303 482" width="303px" zoomAndPan="magnify"><defs/><g><!--MD5=[e4381c76bc805a63ed90da338136522b]
class Sistema--><polygon fill="#F8F8F8" points="38.5,17,38.5,17.2102,48.5,16.5857,58.5,17.1933,68.5,17.3997,78.5,16.2866,88.5,16.9223,98.5,16.5735,108.5,16.6165,118.5,17,118.4318,17,117.8086,27.7875,119.0536,38.575,117.8697,49.3625,118.3022,60.15,118.5,70.9375,118.5,71.3694,108.5,70.8517,98.5,71.0057,88.5,70.9056,78.5,71.116,68.5,71.1766,58.5,71.5232,48.5,71.6086,38.5,70.9375,39.1793,70.9375,38.7546,60.15,38.9636,49.3625,39.2022,38.575,37.7788,27.7875,38.5,17" style="stroke:#383838;stroke-width:1.5;"/><polygon fill="#C2C2C2" points="64.5608,38.6444,62.9484,40.8475,61.0412,44.0745,58.3136,46.2491,55.4474,47.4384,53.162,47.5416,50.2247,46.0543,47.4532,45.0827,45.3495,43.1099,44.2461,40.8515,43.5917,39.0533,42.9506,36.7045,41.91,34.6832,42.7096,32.7098,43.4102,30.548,46.0393,28.8382,47.889,26.6198,50.1784,25.8832,52.9001,25.2488,56.3904,25.6257,58.3021,26.5273,60.5247,26.9359,63.2272,29.7047,64.1693,32.6277,64.5786,34.6221,64.115,37.9086" style="stroke:#383838;stroke-width:1.0;"/><path d="M55.8438,31.6406 C54.9063,31.2031 54.3125,31.0625 53.4375,31.0625 C50.8125,31.0625 48.8125,33.1406 48.8125,35.8594 L48.8125,36.9844 C48.8125,39.5625 50.9219,41.4531 53.8125,41.4531 C55.0313,41.4531 56.1875,41.1563 56.9375,40.6094 C57.5156,40.2031 57.8438,39.75 57.8438,39.3594 C57.8438,38.9063 57.4531,38.5156 56.9844,38.5156 C56.7656,38.5156 56.5625,38.5938 56.375,38.7813 C55.9219,39.2656 55.9219,39.2656 55.7344,39.3594 C55.3125,39.625 54.625,39.75 53.8594,39.75 C51.8125,39.75 50.5156,38.6563 50.5156,36.9531 L50.5156,35.8594 C50.5156,34.0781 51.7656,32.7656 53.5,32.7656 C54.0781,32.7656 54.6875,32.9219 55.1563,33.1719 C55.6406,33.4531 55.8125,33.6719 55.9063,34.0781 C55.9688,34.4844 56,34.6094 56.1406,34.7344 C56.2813,34.875 56.5156,34.9844 56.7344,34.9844 C57,34.9844 57.2656,34.8438 57.4375,34.625 C57.5469,34.4688 57.5781,34.2813 57.5781,33.8594 L57.5781,32.4375 C57.5781,32 57.5625,31.875 57.4688,31.7188 C57.3125,31.4531 57.0313,31.3125 56.7344,31.3125 C56.4375,31.3125 56.2344,31.4063 56.0156,31.7188 L55.8438,31.6406 Z " fill="#000000"/><text fill="#000000" font-family="FG Virgil" font-size="12" font-style="italic" lengthAdjust="spacing" textLength="47" x="68" y="33.1387">«client»</text><text fill="#000000" font-family="FG Virgil" font-size="12" lengthAdjust="spacing" textLength="48" x="67.5" y="47.1074">Sistema</text><path d="M39.5,54.9375 L39.5,55.2177 L49.25,54.3851 L59,55.1952 L68.75,55.4704 L78.5,53.9863 L88.25,54.8339 L98,54.3688 L107.75,54.4262 L117.5,54.9375 " fill="#F8F8F8" style="stroke:#383838;stroke-width:1.5;"/><path d="M39.5,62.9375 L39.5,63.2177 L49.25,62.3851 L59,63.1952 L68.75,63.4704 L78.5,61.9863 L88.25,62.8339 L98,62.3688 L107.75,62.4262 L117.5,62.9375 " fill="#F8F8F8" style="stroke:#383838;stroke-width:1.5;"/><!--MD5=[27c5a087f597ec16967669a0bf52d1cd]
class ValidacaoServer--><polygon fill="#F8F8F8" points="85,141,85,141.2102,95.0769,140.5857,105.1538,141.1933,115.2308,141.3997,125.3077,140.2866,135.3846,140.9223,145.4615,140.5735,155.5385,140.6165,165.6154,140.9318,175.6923,140.3086,185.7692,141.5536,195.8462,140.3697,205.9231,140.8022,216,141,216.4319,141,215.9142,151.5156,216.0682,162.0313,215.9681,172.5469,216.1785,183.0625,216.2391,193.5781,216.5857,204.0938,216,214.6094,216,215.2804,205.9231,215.2886,195.8462,214.864,185.7692,215.073,175.6923,215.3116,165.6154,213.8882,155.5385,215.2879,145.4615,214.3129,135.3846,215.1432,125.3077,214.1144,115.2308,214.5409,105.1538,215.351,95.0769,214.5606,85,214.6094,85.1053,214.6094,85.3386,204.0938,85.4162,193.5781,84.9961,183.0625,85.2872,172.5469,84.4276,162.0313,85.2844,151.5156,85,141" style="stroke:#383838;stroke-width:1.5;"/><polygon fill="#C2C2C2" points="111.0608,159.6756,109.4484,161.8788,107.5412,165.1057,104.8136,167.2804,101.9474,168.4696,99.662,168.5728,96.7247,167.0855,93.9532,166.1139,91.8495,164.1412,90.7461,161.8828,90.0917,160.0845,89.4506,157.7357,88.41,155.7145,89.2096,153.741,89.9102,151.5792,92.5393,149.8695,94.389,147.6511,96.6784,146.9144,99.4001,146.2801,102.8904,146.657,104.8021,147.5585,107.0247,147.9672,109.7272,150.736,110.6693,153.659,111.0786,155.6534,110.615,158.9399" style="stroke:#383838;stroke-width:1.0;"/><path d="M102.3438,152.6719 C101.4063,152.2344 100.8125,152.0938 99.9375,152.0938 C97.3125,152.0938 95.3125,154.1719 95.3125,156.8906 L95.3125,158.0156 C95.3125,160.5938 97.4219,162.4844 100.3125,162.4844 C101.5313,162.4844 102.6875,162.1875 103.4375,161.6406 C104.0156,161.2344 104.3438,160.7813 104.3438,160.3906 C104.3438,159.9375 103.9531,159.5469 103.4844,159.5469 C103.2656,159.5469 103.0625,159.625 102.875,159.8125 C102.4219,160.2969 102.4219,160.2969 102.2344,160.3906 C101.8125,160.6563 101.125,160.7813 100.3594,160.7813 C98.3125,160.7813 97.0156,159.6875 97.0156,157.9844 L97.0156,156.8906 C97.0156,155.1094 98.2656,153.7969 100,153.7969 C100.5781,153.7969 101.1875,153.9531 101.6563,154.2031 C102.1406,154.4844 102.3125,154.7031 102.4063,155.1094 C102.4688,155.5156 102.5,155.6406 102.6406,155.7656 C102.7813,155.9063 103.0156,156.0156 103.2344,156.0156 C103.5,156.0156 103.7656,155.875 103.9375,155.6563 C104.0469,155.5 104.0781,155.3125 104.0781,154.8906 L104.0781,153.4688 C104.0781,153.0313 104.0625,152.9063 103.9688,152.75 C103.8125,152.4844 103.5313,152.3438 103.2344,152.3438 C102.9375,152.3438 102.7344,152.4375 102.5156,152.75 L102.3438,152.6719 Z " fill="#000000"/><text fill="#000000" font-family="FG Virgil" font-size="12" lengthAdjust="spacing" textLength="99" x="114" y="161.1543">ValidacaoServer</text><path d="M86,173 L86,173.2802 L95.9231,172.4476 L105.8462,173.2577 L115.7692,173.5329 L125.6923,172.0488 L135.6154,172.8964 L145.5385,172.4313 L155.4615,172.4887 L165.3846,172.9091 L175.3077,172.0782 L185.2308,173.7382 L195.1538,172.1596 L205.0769,172.7363 L215,173 " fill="#F8F8F8" style="stroke:#383838;stroke-width:1.5;"/><path d="M86,181 L86,181.2802 L95.9231,180.4476 L105.8462,181.2577 L115.7692,181.5329 L125.6923,180.0488 L135.6154,180.8964 L145.5385,180.4313 L155.4615,180.4887 L165.3846,180.9091 L175.3077,180.0782 L185.2308,181.7382 L195.1538,180.1596 L205.0769,180.7363 L215,181 " fill="#F8F8F8" style="stroke:#383838;stroke-width:1.5;"/><text fill="#000000" font-family="FG Virgil" font-size="11" lengthAdjust="spacing" textLength="46" x="91" y="195.2104">accept()</text><text fill="#000000" font-family="FG Virgil" font-size="11" lengthAdjust="spacing" textLength="33" x="91" y="208.0151">start()</text><!--MD5=[7f5543089e151c7310e46715a1775f3f]
class ValidacaoDeamon--><polygon fill="#F8F8F8" points="153.5,7,153.5,7.2102,163.5,6.5857,173.5,7.1933,183.5,7.3997,193.5,6.2866,203.5,6.9223,213.5,6.5735,223.5,6.6165,233.5,6.9318,243.5,6.3086,253.5,7.5536,263.5,6.3697,273.5,6.8022,283.5,7.4319,293.5,7,293.4142,7,293.5682,17.5156,293.4681,28.0313,293.6785,38.5469,293.7391,49.0625,294.0857,59.5781,294.1711,70.0938,293.5,80.6094,293.5,81.2886,283.5,80.864,273.5,81.073,263.5,81.3116,253.5,79.8882,243.5,81.2879,233.5,80.3129,223.5,81.1432,213.5,80.1144,203.5,80.5409,193.5,81.351,183.5,80.5606,173.5,80.7147,163.5,80.948,153.5,80.6094,153.9162,80.6094,153.4961,70.0938,153.7872,59.5781,152.9276,49.0625,153.7844,38.5469,154.0482,28.0313,153.9445,17.5156,153.5,7" style="stroke:#383838;stroke-width:1.5;"/><polygon fill="#C2C2C2" points="179.5608,25.6756,177.9484,27.8788,176.0412,31.1057,173.3136,33.2804,170.4474,34.4696,168.162,34.5728,165.2247,33.0855,162.4532,32.1139,160.3495,30.1412,159.2461,27.8828,158.5917,26.0845,157.9506,23.7357,156.91,21.7145,157.7096,19.741,158.4102,17.5792,161.0393,15.8695,162.889,13.6511,165.1784,12.9144,167.9001,12.2801,171.3904,12.657,173.3021,13.5585,175.5247,13.9672,178.2272,16.736,179.1693,19.659,179.5786,21.6534,179.115,24.9399" style="stroke:#383838;stroke-width:1.0;"/><path d="M170.8438,18.6719 C169.9063,18.2344 169.3125,18.0938 168.4375,18.0938 C165.8125,18.0938 163.8125,20.1719 163.8125,22.8906 L163.8125,24.0156 C163.8125,26.5938 165.9219,28.4844 168.8125,28.4844 C170.0313,28.4844 171.1875,28.1875 171.9375,27.6406 C172.5156,27.2344 172.8438,26.7813 172.8438,26.3906 C172.8438,25.9375 172.4531,25.5469 171.9844,25.5469 C171.7656,25.5469 171.5625,25.625 171.375,25.8125 C170.9219,26.2969 170.9219,26.2969 170.7344,26.3906 C170.3125,26.6563 169.625,26.7813 168.8594,26.7813 C166.8125,26.7813 165.5156,25.6875 165.5156,23.9844 L165.5156,22.8906 C165.5156,21.1094 166.7656,19.7969 168.5,19.7969 C169.0781,19.7969 169.6875,19.9531 170.1563,20.2031 C170.6406,20.4844 170.8125,20.7031 170.9063,21.1094 C170.9688,21.5156 171,21.6406 171.1406,21.7656 C171.2813,21.9063 171.5156,22.0156 171.7344,22.0156 C172,22.0156 172.2656,21.875 172.4375,21.6563 C172.5469,21.5 172.5781,21.3125 172.5781,20.8906 L172.5781,19.4688 C172.5781,19.0313 172.5625,18.9063 172.4688,18.75 C172.3125,18.4844 172.0313,18.3438 171.7344,18.3438 C171.4375,18.3438 171.2344,18.4375 171.0156,18.75 L170.8438,18.6719 Z " fill="#000000"/><text fill="#000000" font-family="FG Virgil" font-size="12" lengthAdjust="spacing" textLength="108" x="182.5" y="27.1543">ValidacaoDeamon</text><path d="M154.5,39 L154.5,39.2802 L164.3571,38.4476 L174.2143,39.2577 L184.0714,39.5329 L193.9286,38.0488 L203.7857,38.8964 L213.6429,38.4313 L223.5,38.4887 L233.3571,38.9091 L243.2143,38.0782 L253.0714,39.7382 L262.9286,38.1596 L272.7857,38.7363 L282.6429,39.5759 L292.5,39 " fill="#F8F8F8" style="stroke:#383838;stroke-width:1.5;"/><path d="M154.5,47 L154.5,47.2802 L164.3571,46.4476 L174.2143,47.2577 L184.0714,47.5329 L193.9286,46.0488 L203.7857,46.8964 L213.6429,46.4313 L223.5,46.4887 L233.3571,46.9091 L243.2143,46.0782 L253.0714,47.7382 L262.9286,46.1596 L272.7857,46.7363 L282.6429,47.5759 L292.5,47 " fill="#F8F8F8" style="stroke:#383838;stroke-width:1.5;"/><text fill="#000000" font-family="FG Virgil" font-size="11" lengthAdjust="spacing" textLength="32" x="159.5" y="61.2104">new()</text><text fill="#000000" font-family="FG Virgil" font-size="11" lengthAdjust="spacing" textLength="33" x="159.5" y="74.0151">start()</text><!--MD5=[d4dabd6c437e6705834d60091b41e499]
class MessageParser--><polygon fill="#F8F8F8" points="7,427,7,427.2102,16.6154,426.5857,26.2308,427.1933,35.8462,427.3997,45.4615,426.2866,55.0769,426.9223,64.6923,426.5735,74.3077,426.6165,83.9231,426.9318,93.5385,426.3086,103.1538,427.5536,112.7692,426.3697,122.3846,426.8022,132,427,132.4319,427,131.9142,436.6,132.0682,446.2,131.9681,455.8,132.1785,465.4,132,475,132,475.2391,122.3846,475.5857,112.7692,475.6711,103.1538,475.6793,93.5385,475.2546,83.9231,475.4636,74.3077,475.7022,64.6923,474.2788,55.0769,475.6785,45.4615,474.7035,35.8462,475.5338,26.2308,474.505,16.6154,474.9315,7,475,7.7416,475,6.9513,465.4,7.1053,455.8,7.3386,446.2,7.4162,436.6,7,427" style="stroke:#383838;stroke-width:1.5;"/><polygon fill="#C2C2C2" points="33.0608,445.6756,31.4484,447.8788,29.5412,451.1057,26.8136,453.2804,23.9474,454.4696,21.662,454.5728,18.7247,453.0855,15.9532,452.1139,13.8495,450.1412,12.7461,447.8828,12.0917,446.0845,11.4506,443.7357,10.41,441.7145,11.2096,439.741,11.9102,437.5792,14.5393,435.8695,16.389,433.6511,18.6784,432.9144,21.4001,432.2801,24.8904,432.657,26.8021,433.5585,29.0247,433.9672,31.7272,436.736,32.6693,439.659,33.0786,441.6534,32.615,444.9399" style="stroke:#383838;stroke-width:1.0;"/><path d="M24.3438,438.6719 C23.4063,438.2344 22.8125,438.0938 21.9375,438.0938 C19.3125,438.0938 17.3125,440.1719 17.3125,442.8906 L17.3125,444.0156 C17.3125,446.5938 19.4219,448.4844 22.3125,448.4844 C23.5313,448.4844 24.6875,448.1875 25.4375,447.6406 C26.0156,447.2344 26.3438,446.7813 26.3438,446.3906 C26.3438,445.9375 25.9531,445.5469 25.4844,445.5469 C25.2656,445.5469 25.0625,445.625 24.875,445.8125 C24.4219,446.2969 24.4219,446.2969 24.2344,446.3906 C23.8125,446.6563 23.125,446.7813 22.3594,446.7813 C20.3125,446.7813 19.0156,445.6875 19.0156,443.9844 L19.0156,442.8906 C19.0156,441.1094 20.2656,439.7969 22,439.7969 C22.5781,439.7969 23.1875,439.9531 23.6563,440.2031 C24.1406,440.4844 24.3125,440.7031 24.4063,441.1094 C24.4688,441.5156 24.5,441.6406 24.6406,441.7656 C24.7813,441.9063 25.0156,442.0156 25.2344,442.0156 C25.5,442.0156 25.7656,441.875 25.9375,441.6563 C26.0469,441.5 26.0781,441.3125 26.0781,440.8906 L26.0781,439.4688 C26.0781,439.0313 26.0625,438.9063 25.9688,438.75 C25.8125,438.4844 25.5313,438.3438 25.2344,438.3438 C24.9375,438.3438 24.7344,438.4375 24.5156,438.75 L24.3438,438.6719 Z " fill="#000000"/><text fill="#000000" font-family="FG Virgil" font-size="12" lengthAdjust="spacing" textLength="93" x="36" y="447.1543">MessageParser</text><path d="M8,459 L8,459.2802 L18.25,458.4476 L28.5,459.2577 L38.75,459.5329 L49,458.0488 L59.25,458.8964 L69.5,458.4313 L79.75,458.4887 L90,458.9091 L100.25,458.0782 L110.5,459.7382 L120.75,458.1596 L131,459 " fill="#F8F8F8" style="stroke:#383838;stroke-width:1.5;"/><path d="M8,467 L8,467.2802 L18.25,466.4476 L28.5,467.2577 L38.75,467.5329 L49,466.0488 L59.25,466.8964 L69.5,466.4313 L79.75,466.4887 L90,466.9091 L100.25,466.0782 L110.5,467.7382 L120.75,466.1596 L131,467 " fill="#F8F8F8" style="stroke:#383838;stroke-width:1.5;"/><!--MD5=[936d7ea627ea3281879b52d63e4d9347]
class MessageBuilder--><polygon fill="#F8F8F8" points="167,427,167,427.2102,176.9231,426.5857,186.8462,427.1933,196.7692,427.3997,206.6923,426.2866,216.6154,426.9223,226.5385,426.5735,236.4615,426.6165,246.3846,426.9318,256.3077,426.3086,266.2308,427.5536,276.1538,426.3697,286.0769,426.8022,296,427,296.4319,427,295.9142,436.6,296.0682,446.2,295.9681,455.8,296.1785,465.4,296,475,296,475.2391,286.0769,475.5857,276.1538,475.6711,266.2308,475.6793,256.3077,475.2546,246.3846,475.4636,236.4615,475.7022,226.5385,474.2788,216.6154,475.6785,206.6923,474.7035,196.7692,475.5338,186.8462,474.505,176.9231,474.9315,167,475,167.7416,475,166.9513,465.4,167.1053,455.8,167.3386,446.2,167.4162,436.6,167,427" style="stroke:#383838;stroke-width:1.5;"/><polygon fill="#C2C2C2" points="193.0608,445.6756,191.4484,447.8788,189.5412,451.1057,186.8136,453.2804,183.9474,454.4696,181.662,454.5728,178.7247,453.0855,175.9532,452.1139,173.8495,450.1412,172.7461,447.8828,172.0917,446.0845,171.4506,443.7357,170.41,441.7145,171.2096,439.741,171.9102,437.5792,174.5393,435.8695,176.389,433.6511,178.6784,432.9144,181.4001,432.2801,184.8904,432.657,186.8021,433.5585,189.0247,433.9672,191.7272,436.736,192.6693,439.659,193.0786,441.6534,192.615,444.9399" style="stroke:#383838;stroke-width:1.0;"/><path d="M184.3438,438.6719 C183.4063,438.2344 182.8125,438.0938 181.9375,438.0938 C179.3125,438.0938 177.3125,440.1719 177.3125,442.8906 L177.3125,444.0156 C177.3125,446.5938 179.4219,448.4844 182.3125,448.4844 C183.5313,448.4844 184.6875,448.1875 185.4375,447.6406 C186.0156,447.2344 186.3438,446.7813 186.3438,446.3906 C186.3438,445.9375 185.9531,445.5469 185.4844,445.5469 C185.2656,445.5469 185.0625,445.625 184.875,445.8125 C184.4219,446.2969 184.4219,446.2969 184.2344,446.3906 C183.8125,446.6563 183.125,446.7813 182.3594,446.7813 C180.3125,446.7813 179.0156,445.6875 179.0156,443.9844 L179.0156,442.8906 C179.0156,441.1094 180.2656,439.7969 182,439.7969 C182.5781,439.7969 183.1875,439.9531 183.6563,440.2031 C184.1406,440.4844 184.3125,440.7031 184.4063,441.1094 C184.4688,441.5156 184.5,441.6406 184.6406,441.7656 C184.7813,441.9063 185.0156,442.0156 185.2344,442.0156 C185.5,442.0156 185.7656,441.875 185.9375,441.6563 C186.0469,441.5 186.0781,441.3125 186.0781,440.8906 L186.0781,439.4688 C186.0781,439.0313 186.0625,438.9063 185.9688,438.75 C185.8125,438.4844 185.5313,438.3438 185.2344,438.3438 C184.9375,438.3438 184.7344,438.4375 184.5156,438.75 L184.3438,438.6719 Z " fill="#000000"/><text fill="#000000" font-family="FG Virgil" font-size="12" lengthAdjust="spacing" textLength="97" x="196" y="447.1543">MessageBuilder</text><path d="M168,459 L168,459.2802 L177.7692,458.4476 L187.5385,459.2577 L197.3077,459.5329 L207.0769,458.0488 L216.8462,458.8964 L226.6154,458.4313 L236.3846,458.4887 L246.1538,458.9091 L255.9231,458.0782 L265.6923,459.7382 L275.4615,458.1596 L285.2308,458.7363 L295,459 " fill="#F8F8F8" style="stroke:#383838;stroke-width:1.5;"/><path d="M168,467 L168,467.2802 L177.7692,466.4476 L187.5385,467.2577 L197.3077,467.5329 L207.0769,466.0488 L216.8462,466.8964 L226.6154,466.4313 L236.3846,466.4887 L246.1538,466.9091 L255.9231,466.0782 L265.6923,467.7382 L275.4615,466.1596 L285.2308,466.7363 L295,467 " fill="#F8F8F8" style="stroke:#383838;stroke-width:1.5;"/><!--MD5=[67ceb26fbc29f223044bd7048cfe5761]
class HandleClient--><polygon fill="#F8F8F8" points="97,275,97,275.2102,106.7273,274.5857,116.4545,275.1933,126.1818,275.3997,135.9091,274.2866,145.6364,274.9223,155.3636,274.5735,165.0909,274.6165,174.8182,274.9318,184.5455,274.3086,194.2727,275.5536,204,275,203.3697,275,203.8022,285.2613,204.4319,295.5226,203.9142,305.7839,204.0682,316.0451,203.9681,326.3064,204.1785,336.5677,204.2391,346.829,204.5857,357.0903,204,367.3516,204,368.0226,194.2727,368.0308,184.5455,367.6062,174.8182,367.8151,165.0909,368.0538,155.3636,366.6304,145.6364,368.0301,135.9091,367.0551,126.1818,367.8854,116.4545,366.8565,106.7273,367.2831,97,367.3516,97.7416,367.3516,96.9513,357.0903,97.1053,346.829,97.3386,336.5677,97.4162,326.3064,96.9961,316.0451,97.2872,305.7839,96.4276,295.5226,97.2844,285.2613,97,275" style="stroke:#383838;stroke-width:1.5;"/><polygon fill="#C2C2C2" points="123.0608,296.6444,121.4484,298.8475,119.5412,302.0745,116.8136,304.2491,113.9474,305.4384,111.662,305.5416,108.7247,304.0543,105.9532,303.0827,103.8495,301.1099,102.7461,298.8515,102.0917,297.0533,101.4506,294.7045,100.41,292.6832,101.2096,290.7098,101.9102,288.548,104.5393,286.8382,106.389,284.6198,108.6784,283.8832,111.4001,283.2488,114.8904,283.6257,116.8021,284.5273,119.0247,284.9359,121.7272,287.7047,122.6693,290.6277,123.0786,292.6221,122.615,295.9086" style="stroke:#383838;stroke-width:1.0;"/><path d="M114.3438,289.6406 C113.4063,289.2031 112.8125,289.0625 111.9375,289.0625 C109.3125,289.0625 107.3125,291.1406 107.3125,293.8594 L107.3125,294.9844 C107.3125,297.5625 109.4219,299.4531 112.3125,299.4531 C113.5313,299.4531 114.6875,299.1563 115.4375,298.6094 C116.0156,298.2031 116.3438,297.75 116.3438,297.3594 C116.3438,296.9063 115.9531,296.5156 115.4844,296.5156 C115.2656,296.5156 115.0625,296.5938 114.875,296.7813 C114.4219,297.2656 114.4219,297.2656 114.2344,297.3594 C113.8125,297.625 113.125,297.75 112.3594,297.75 C110.3125,297.75 109.0156,296.6563 109.0156,294.9531 L109.0156,293.8594 C109.0156,292.0781 110.2656,290.7656 112,290.7656 C112.5781,290.7656 113.1875,290.9219 113.6563,291.1719 C114.1406,291.4531 114.3125,291.6719 114.4063,292.0781 C114.4688,292.4844 114.5,292.6094 114.6406,292.7344 C114.7813,292.875 115.0156,292.9844 115.2344,292.9844 C115.5,292.9844 115.7656,292.8438 115.9375,292.625 C116.0469,292.4688 116.0781,292.2813 116.0781,291.8594 L116.0781,290.4375 C116.0781,290 116.0625,289.875 115.9688,289.7188 C115.8125,289.4531 115.5313,289.3125 115.2344,289.3125 C114.9375,289.3125 114.7344,289.4063 114.5156,289.7188 L114.3438,289.6406 Z " fill="#000000"/><text fill="#000000" font-family="FG Virgil" font-size="12" font-style="italic" lengthAdjust="spacing" textLength="54" x="136.5" y="291.1387">«thread»</text><text fill="#000000" font-family="FG Virgil" font-size="12" lengthAdjust="spacing" textLength="75" x="126" y="305.1074">HandleClient</text><path d="M98,312.9375 L98,313.2177 L107.5455,312.3851 L117.0909,313.1952 L126.6364,313.4704 L136.1818,311.9863 L145.7273,312.8339 L155.2727,312.3688 L164.8182,312.4262 L174.3636,312.8466 L183.9091,312.0157 L193.4545,313.6757 L203,312.9375 " fill="#F8F8F8" style="stroke:#383838;stroke-width:1.5;"/><path d="M98,320.9375 L98,321.2177 L107.5455,320.3851 L117.0909,321.1952 L126.6364,321.4704 L136.1818,319.9863 L145.7273,320.8339 L155.2727,320.3688 L164.8182,320.4262 L174.3636,320.8466 L183.9091,320.0157 L193.4545,321.6757 L203,320.9375 " fill="#F8F8F8" style="stroke:#383838;stroke-width:1.5;"/><text fill="#000000" font-family="FG Virgil" font-size="11" lengthAdjust="spacing" textLength="40" x="103" y="335.1479">parse()</text><text fill="#000000" font-family="FG Virgil" font-size="11" lengthAdjust="spacing" textLength="56" x="103" y="347.9526">execute()</text><text fill="#000000" font-family="FG Virgil" font-size="11" lengthAdjust="spacing" textLength="35" x="103" y="360.7573">build()</text><!--MD5=[773334d467dcd38104784918364b10de]
link ValidacaoDeamon to ValidacaoServer--><path d="M203.552,81.07 L203.7972,81.2056 L197.9559,90.0477 L193.5522,99.6847 L188.6803,109.0629 L182.2689,117.5897 L177.898,127.2449 L172.876,136.54 " fill="none" style="stroke:#383838;stroke-width:1.0;"/><polygon fill="#383838" points="170.423,140.974,170.4653,141.0299,171.9106,139.6755,173.6037,138.6486,175.2161,137.5151,176.5632,136.0309,178.2776,135.0321,178.2704,135.0072,177.1511,135.2087,176.0679,135.5356,175.0098,135.9498,173.8651,136.0634,172.8417,136.598,173.0191,136.6491,172.3267,135.4526,172.1521,134.4054,172.0406,133.3763,171.5616,132.2414,171.2759,131.1621,171.2986,131.1641,171.0947,133.1236,170.994,135.092,170.8436,137.0562,170.7881,139.0285,170.423,140.974" style="stroke:#383838;stroke-width:1.0;"/><!--MD5=[e4f86f771215cfeb85fb43b790abf95b]
link ValidacaoServer to HandleClient--><path d="M150.5,215.311 L150.7802,215.311 L149.9476,226.2396 L150.7577,237.1682 L151.0329,248.0968 L149.5488,259.0254 L150.5,269.954 " fill="none" style="stroke:#383838;stroke-width:1.0;"/><polygon fill="#383838" points="150.5,274.982,150.564,275.0105,151.1738,273.1259,152.1589,271.4082,153.0217,269.6361,153.4827,267.6854,154.5,265.982,154.4817,265.9637,153.5995,266.6815,152.8096,267.4916,152.0839,268.3659,151.137,269.019,150.5,269.982,150.6305,270.1125,149.5514,269.0334,148.8534,268.3354,148.2018,267.6838,147.2798,266.7618,146.5,265.982,146.5208,265.9912,147.2903,267.7777,148.1544,269.6062,148.9728,271.4144,149.8784,273.2613,150.5,274.982" style="stroke:#383838;stroke-width:1.0;"/><!--MD5=[cb9372e91937c6711252f8bbf05115f7]
link HandleClient to MessageParser--><path d="M121.942,367.128 L122.1788,367.2779 L116.4811,374.7246 L112.1716,383.0497 L107.4101,391.0888 L101.1619,398.1872 L96.8841,406.5324 L91.497,414.1757 L86.9835,422.3717 " fill="none" style="stroke:#383838;stroke-width:1.0;"/><polygon fill="#383838" points="84.189,426.7877,84.2279,426.846,85.7509,425.5796,87.5019,424.6549,89.1786,423.6189,90.6113,422.217,92.3818,421.3216,92.3761,421.2963,91.2468,421.4311,90.1461,421.6933,89.0654,422.0441,87.916,422.0896,86.8627,422.5626,87.0428,422.6031,86.4096,421.4127,86.302,420.3406,86.2586,419.2828,85.842,418.1411,85.6217,417.0436,85.6442,417.0469,85.3246,418.9909,85.1075,420.9499,84.8409,422.9017,84.6687,424.8673,84.189,426.7877" style="stroke:#383838;stroke-width:1.0;"/><!--MD5=[342ec5fcf29d903767ed94c019592d02]
link HandleClient to MessageBuilder--><path d="M179.058,367.128 L179.2948,367.2779 L183.5852,374.7246 L189.2638,383.0497 L194.4903,391.0888 L198.2302,398.1872 L203.9404,406.5324 L208.5415,414.1757 L214.016,422.3717 " fill="none" style="stroke:#383838;stroke-width:1.0;"/><polygon fill="#383838" points="216.811,426.7877,216.8803,426.7979,216.388,424.8188,216.302,422.8994,216.0836,420.9605,215.4302,418.9578,215.379,417.0435,215.3538,417.0378,214.992,418.1161,214.7577,419.223,214.612,420.3499,214.161,421.4081,214.1376,422.5624,214.1781,422.7425,212.9877,422.1092,211.9155,422.0015,210.8578,421.958,209.7161,421.5414,208.6186,421.321,208.6313,421.3399,210.2512,422.4055,211.9286,423.5572,213.5783,424.6673,215.2809,425.8567,216.811,426.7877" style="stroke:#383838;stroke-width:1.0;"/><!--MD5=[5ff9cf2391fd2978581c7004382e9e28]
link Sistema to ValidacaoServer--><path d="M92.7249,71.079 L92.9709,71.2132 L97.3382,80.1612 L103.1477,89.8958 L108.4876,99.3743 L112.2831,108.0104 L118.1254,117.763 L122.8155,126.887 L128.413,136.506 " fill="none" style="stroke:#383838;stroke-width:1.0;"/><polygon fill="#383838" points="130.854,140.982,130.9238,140.9877,130.5568,139.0075,130.5992,137.0606,130.5082,135.1029,129.9789,133.1095,130.0564,131.1655,130.0315,131.1582,129.6007,132.2108,129.2952,133.3002,129.0767,134.4152,128.5581,135.442,128.4599,136.5924,128.512,136.7695,127.3153,136.0716,126.2706,135.8906,125.2444,135.7727,124.1103,135.2878,123.033,134.996,123.0468,135.0141,124.5907,136.1847,126.1976,137.4377,127.7741,138.6509,129.4085,139.9398,130.854,140.982" style="stroke:#383838;stroke-width:1.0;"/><!--MD5=[27a713086a999fbab6065e29a66c367f]
@startuml
'http://plantuml.com/skinparam.html
skinparam handwritten true
skinparam monochrome true
skinparam packageStyle rect
skinparam defaultFontName FG Virgil
skinparam shadowing false

class Sistema <<client>>
class ValidacaoServer
class ValidacaoDeamon
class MessageParser
class MessageBuilder
class HandleClient <<thread>>


ValidacaoDeamon - -> ValidacaoServer
ValidacaoDeamon : new()
ValidacaoDeamon : start()

ValidacaoServer - -> HandleClient
ValidacaoServer : accept()
ValidacaoServer : start()

HandleClient - -> MessageParser
HandleClient - -> MessageBuilder
HandleClient : parse()
HandleClient : execute()
HandleClient : build()

Sistema - -> ValidacaoServer
@enduml

@startuml
skinparam handwritten true
skinparam monochrome true
skinparam packageStyle rect
skinparam defaultFontName FG Virgil
skinparam shadowing false

class Sistema <<client>>
class ValidacaoServer
class ValidacaoDeamon
class MessageParser
class MessageBuilder
class HandleClient <<thread>>


ValidacaoDeamon - -> ValidacaoServer
ValidacaoDeamon : new()
ValidacaoDeamon : start()

ValidacaoServer - -> HandleClient
ValidacaoServer : accept()
ValidacaoServer : start()

HandleClient - -> MessageParser
HandleClient - -> MessageBuilder
HandleClient : parse()
HandleClient : execute()
HandleClient : build()

Sistema - -> ValidacaoServer
@enduml

PlantUML version 1.2021.6beta6(Unknown compile time)
(GPL source distribution)
Java Runtime: Java(TM) SE Runtime Environment
JVM: Java HotSpot(TM) 64-Bit Server VM
Default Encoding: UTF-8
Language: en
Country: US
--></g></svg>