<?xml version="1.0" encoding="UTF-8" standalone="no"?><svg xmlns="http://www.w3.org/2000/svg" xmlns:xlink="http://www.w3.org/1999/xlink" contentScriptType="application/ecmascript" contentStyleType="text/css" height="309px" preserveAspectRatio="none" style="width:466px;height:309px;background:#FFFFFF;" version="1.1" viewBox="0 0 466 309" width="466px" zoomAndPan="magnify"><defs><filter height="300%" id="f10gss220ix030" width="300%" x="-1" y="-1"><feGaussianBlur result="blurOut" stdDeviation="2.0"/><feColorMatrix in="blurOut" result="blurOut2" type="matrix" values="0 0 0 0 0 0 0 0 0 0 0 0 0 0 0 0 0 0 .4 0"/><feOffset dx="4.0" dy="4.0" in="blurOut2" result="blurOut3"/><feBlend in="SourceGraphic" in2="blurOut3" mode="normal"/></filter></defs><g><rect fill="#FFFFFF" filter="url(#f10gss220ix030)" height="108.5313" style="stroke:#A80036;stroke-width:1.0;" width="10" x="32" y="98.2969"/><rect fill="#FFFFFF" filter="url(#f10gss220ix030)" height="29.1328" style="stroke:#A80036;stroke-width:1.0;" width="10" x="411" y="119.4297"/><rect fill="#FFFFFF" filter="url(#f10gss220ix030)" height="29.1328" style="stroke:#A80036;stroke-width:1.0;" width="10" x="411" y="177.6953"/><line style="stroke:#A80036;stroke-width:1.0;stroke-dasharray:5.0,5.0;" x1="37" x2="37" y1="88.2969" y2="224.8281"/><line style="stroke:#A80036;stroke-width:1.0;stroke-dasharray:5.0,5.0;" x1="415.5" x2="415.5" y1="88.2969" y2="224.8281"/><text fill="#000000" font-family="sans-serif" font-size="14" lengthAdjust="spacing" textLength="58" x="5" y="84.9951">Sistema</text><ellipse cx="37" cy="15" fill="#FEFECE" filter="url(#f10gss220ix030)" rx="8" ry="8" style="stroke:#A80036;stroke-width:2.0;"/><path d="M37,23 L37,50 M24,31 L50,31 M37,50 L24,65 M37,50 L50,65 " fill="none" filter="url(#f10gss220ix030)" style="stroke:#A80036;stroke-width:2.0;"/><text fill="#000000" font-family="sans-serif" font-size="14" lengthAdjust="spacing" textLength="58" x="5" y="236.8232">Sistema</text><ellipse cx="37" cy="250.125" fill="#FEFECE" filter="url(#f10gss220ix030)" rx="8" ry="8" style="stroke:#A80036;stroke-width:2.0;"/><path d="M37,258.125 L37,285.125 M24,266.125 L50,266.125 M37,285.125 L24,300.125 M37,285.125 L50,300.125 " fill="none" filter="url(#f10gss220ix030)" style="stroke:#A80036;stroke-width:2.0;"/><rect fill="#FEFECE" filter="url(#f10gss220ix030)" height="30.2969" style="stroke:#A80036;stroke-width:1.5;" width="77" x="375.5" y="53"/><text fill="#000000" font-family="sans-serif" font-size="14" lengthAdjust="spacing" textLength="63" x="382.5" y="72.9951">:Sistema</text><rect fill="#FEFECE" filter="url(#f10gss220ix030)" height="30.2969" style="stroke:#A80036;stroke-width:1.5;" width="77" x="375.5" y="223.8281"/><text fill="#000000" font-family="sans-serif" font-size="14" lengthAdjust="spacing" textLength="63" x="382.5" y="243.8232">:Sistema</text><rect fill="#FFFFFF" filter="url(#f10gss220ix030)" height="108.5313" style="stroke:#A80036;stroke-width:1.0;" width="10" x="32" y="98.2969"/><rect fill="#FFFFFF" filter="url(#f10gss220ix030)" height="29.1328" style="stroke:#A80036;stroke-width:1.0;" width="10" x="411" y="119.4297"/><rect fill="#FFFFFF" filter="url(#f10gss220ix030)" height="29.1328" style="stroke:#A80036;stroke-width:1.0;" width="10" x="411" y="177.6953"/><polygon fill="#A80036" points="399,115.4297,409,119.4297,399,123.4297,403,119.4297" style="stroke:#A80036;stroke-width:1.0;"/><line style="stroke:#A80036;stroke-width:1.0;" x1="42" x2="405" y1="119.4297" y2="119.4297"/><text fill="#000000" font-family="sans-serif" font-size="13" font-weight="bold" lengthAdjust="spacing" textLength="9" x="49" y="114.3638">1</text><text fill="#000000" font-family="sans-serif" font-size="13" lengthAdjust="spacing" textLength="264" x="62" y="114.3638">pretende validar formularios e atividades</text><polygon fill="#A80036" points="53,144.5625,43,148.5625,53,152.5625,49,148.5625" style="stroke:#A80036;stroke-width:1.0;"/><line style="stroke:#A80036;stroke-width:1.0;stroke-dasharray:2.0,2.0;" x1="47" x2="415" y1="148.5625" y2="148.5625"/><text fill="#000000" font-family="sans-serif" font-size="13" font-weight="bold" lengthAdjust="spacing" textLength="9" x="59" y="143.4966">2</text><text fill="#000000" font-family="sans-serif" font-size="13" lengthAdjust="spacing" textLength="332" x="72" y="143.4966">faz a validacao aplicando a gramatica desenvolvida</text><polygon fill="#A80036" points="399,173.6953,409,177.6953,399,181.6953,403,177.6953" style="stroke:#A80036;stroke-width:1.0;"/><line style="stroke:#A80036;stroke-width:1.0;" x1="42" x2="405" y1="177.6953" y2="177.6953"/><text fill="#000000" font-family="sans-serif" font-size="13" font-weight="bold" lengthAdjust="spacing" textLength="8" x="49" y="172.6294">3</text><text fill="#000000" font-family="sans-serif" font-size="13" lengthAdjust="spacing" textLength="210" x="61" y="172.6294">envia os resultados da validacao</text><polygon fill="#A80036" points="48,202.8281,38,206.8281,48,210.8281,44,206.8281" style="stroke:#A80036;stroke-width:1.0;"/><line style="stroke:#A80036;stroke-width:1.0;stroke-dasharray:2.0,2.0;" x1="42" x2="415" y1="206.8281" y2="206.8281"/><text fill="#000000" font-family="sans-serif" font-size="13" font-weight="bold" lengthAdjust="spacing" textLength="9" x="54" y="201.7622">4</text><text fill="#000000" font-family="sans-serif" font-size="13" lengthAdjust="spacing" textLength="154" x="67" y="201.7622">operacao bem sucedida</text><!--MD5=[d9347930e18db2891c1f16aa4d5ea00b]
@startuml
autonumber
actor "Sistema" as USR

activate USR
USR -> ":Sistema" : pretende validar formularios e atividades
activate ":Sistema"
":Sistema" - -> USR : faz a validacao aplicando a gramatica desenvolvida
deactivate ":Sistema"

USR -> ":Sistema" : envia os resultados da validacao
activate ":Sistema"
":Sistema" - -> USR : operacao bem sucedida
deactivate ":Sistema"

deactivate USR
@enduml

PlantUML version 1.2021.6beta6(Unknown compile time)
(GPL source distribution)
Java Runtime: Java(TM) SE Runtime Environment
JVM: Java HotSpot(TM) 64-Bit Server VM
Default Encoding: UTF-8
Language: en
Country: US
--></g></svg>