<?xml version="1.0" encoding="UTF-8" standalone="no"?><svg xmlns="http://www.w3.org/2000/svg" xmlns:xlink="http://www.w3.org/1999/xlink" contentScriptType="application/ecmascript" contentStyleType="text/css" height="625px" preserveAspectRatio="none" style="width:394px;height:625px;background:#FFFFFF;" version="1.1" viewBox="0 0 394 625" width="394px" zoomAndPan="magnify"><defs/><g><!--MD5=[afdac0f740b27b59a461bf6006ee1289]
class ConsultarTarefasUI--><polygon fill="#F8F8F8" points="135.5,7,135.5,7.2102,145.1667,6.5857,154.8333,7.1933,164.5,7.3997,174.1667,6.2866,183.8333,6.9223,193.5,6.5735,203.1667,6.6165,212.8333,6.9318,222.5,6.3086,232.1667,7.5536,241.8333,6.3697,251.5,6.8022,261.1667,7.4319,270.8333,6.9142,280.5,7,280.5682,7,280.4681,17.2613,280.6785,27.5226,280.7391,37.7839,281.0857,48.0451,281.1711,58.3064,281.1793,68.5677,280.7546,78.829,280.9636,89.0903,280.5,99.3516,280.5,100.0538,270.8333,98.6304,261.1667,100.0301,251.5,99.0551,241.8333,99.8854,232.1667,98.8565,222.5,99.2831,212.8333,100.0932,203.1667,99.3028,193.5,99.4569,183.8333,99.6902,174.1667,99.7678,164.5,99.3477,154.8333,99.6388,145.1667,98.7791,135.5,99.3516,135.7844,99.3516,136.0482,89.0903,135.9445,78.829,136.113,68.5677,135.0169,58.3064,134.8478,48.0451,134.8786,37.7839,135.4411,27.5226,135.3035,17.2613,135.5,7" style="stroke:#383838;stroke-width:1.5;"/><polygon fill="#C2C2C2" points="161.5608,28.6444,159.9484,30.8475,158.0412,34.0745,155.3136,36.2491,152.4474,37.4384,150.162,37.5416,147.2247,36.0543,144.4532,35.0827,142.3495,33.1099,141.2461,30.8515,140.5917,29.0533,139.9506,26.7045,138.91,24.6832,139.7096,22.7098,140.4102,20.548,143.0393,18.8382,144.889,16.6198,147.1784,15.8832,149.9001,15.2488,153.3904,15.6257,155.3021,16.5273,157.5247,16.9359,160.2272,19.7047,161.1693,22.6277,161.5786,24.6221,161.115,27.9086" style="stroke:#383838;stroke-width:1.0;"/><path d="M152.8438,21.6406 C151.9063,21.2031 151.3125,21.0625 150.4375,21.0625 C147.8125,21.0625 145.8125,23.1406 145.8125,25.8594 L145.8125,26.9844 C145.8125,29.5625 147.9219,31.4531 150.8125,31.4531 C152.0313,31.4531 153.1875,31.1563 153.9375,30.6094 C154.5156,30.2031 154.8438,29.75 154.8438,29.3594 C154.8438,28.9063 154.4531,28.5156 153.9844,28.5156 C153.7656,28.5156 153.5625,28.5938 153.375,28.7813 C152.9219,29.2656 152.9219,29.2656 152.7344,29.3594 C152.3125,29.625 151.625,29.75 150.8594,29.75 C148.8125,29.75 147.5156,28.6563 147.5156,26.9531 L147.5156,25.8594 C147.5156,24.0781 148.7656,22.7656 150.5,22.7656 C151.0781,22.7656 151.6875,22.9219 152.1563,23.1719 C152.6406,23.4531 152.8125,23.6719 152.9063,24.0781 C152.9688,24.4844 153,24.6094 153.1406,24.7344 C153.2813,24.875 153.5156,24.9844 153.7344,24.9844 C154,24.9844 154.2656,24.8438 154.4375,24.625 C154.5469,24.4688 154.5781,24.2813 154.5781,23.8594 L154.5781,22.4375 C154.5781,22 154.5625,21.875 154.4688,21.7188 C154.3125,21.4531 154.0313,21.3125 153.7344,21.3125 C153.4375,21.3125 153.2344,21.4063 153.0156,21.7188 L152.8438,21.6406 Z " fill="#000000"/><text fill="#000000" font-family="FG Virgil" font-size="12" font-style="italic" lengthAdjust="spacing" textLength="90" x="176" y="23.1387">«presentation»</text><text fill="#000000" font-family="FG Virgil" font-size="12" lengthAdjust="spacing" textLength="113" x="164.5" y="37.1074">ConsultarTarefasUI</text><path d="M136.5,44.9375 L136.5,45.2177 L146.7143,44.3851 L156.9286,45.1952 L167.1429,45.4704 L177.3571,43.9863 L187.5714,44.8339 L197.7857,44.3688 L208,44.4262 L218.2143,44.8466 L228.4286,44.0157 L238.6429,45.6757 L248.8571,44.0971 L259.0714,44.6738 L269.2857,45.5134 L279.5,44.9375 " fill="#F8F8F8" style="stroke:#383838;stroke-width:1.5;"/><path d="M136.5,52.9375 L136.5,53.2177 L146.7143,52.3851 L156.9286,53.1952 L167.1429,53.4704 L177.3571,51.9863 L187.5714,52.8339 L197.7857,52.3688 L208,52.4262 L218.2143,52.8466 L228.4286,52.0157 L238.6429,53.6757 L248.8571,52.0971 L259.0714,52.6738 L269.2857,53.5134 L279.5,52.9375 " fill="#F8F8F8" style="stroke:#383838;stroke-width:1.5;"/><text fill="#000000" font-family="FG Virgil" font-size="11" lengthAdjust="spacing" textLength="53" x="141.5" y="67.1479">doShow()</text><text fill="#000000" font-family="FG Virgil" font-size="11" lengthAdjust="spacing" textLength="73" x="141.5" y="79.9526">listServicos()</text><text fill="#000000" font-family="FG Virgil" font-size="11" lengthAdjust="spacing" textLength="67" x="141.5" y="92.7573">listTarefas()</text><!--MD5=[d3c8e35004c6548e2936e691f162b2fb]
class ConsultarTarefasController--><polygon fill="#F8F8F8" points="112,159,112,159.2102,122.1053,158.5857,132.2105,159.1933,142.3158,159.3997,152.4211,158.2866,162.5263,158.9223,172.6316,158.5735,182.7368,158.6165,192.8421,158.9318,202.9474,158.3086,213.0526,159.5536,223.1579,158.3697,233.2632,158.8022,243.3684,159.4319,253.4737,158.9142,263.5789,159.0682,273.6842,158.9681,283.7895,159.1785,293.8947,159.2391,304,159,304.5857,159,304.6711,169.2613,304.6793,179.5226,304.2546,189.7839,304.4636,200.0451,304.7022,210.3064,303.2788,220.5677,304.6785,230.829,303.7035,241.0903,304,251.3516,304,251.8854,293.8947,250.8565,283.7895,251.2831,273.6842,252.0932,263.5789,251.3028,253.4737,251.4569,243.3684,251.6902,233.2632,251.7678,223.1579,251.3477,213.0526,251.6388,202.9474,250.7791,192.8421,251.6359,182.7368,251.8998,172.6316,251.7961,162.5263,251.9646,152.4211,250.8685,142.3158,250.6994,132.2105,250.7302,122.1053,251.2927,112,251.3516,111.8035,251.3516,112.6814,241.0903,111.8253,230.829,111.6569,220.5677,112.2283,210.3064,111.3332,200.0451,111.4809,189.7839,112.649,179.5226,112.4357,169.2613,112,159" style="stroke:#383838;stroke-width:1.5;"/><polygon fill="#C2C2C2" points="138.0608,180.6444,136.4484,182.8475,134.5412,186.0745,131.8136,188.2491,128.9474,189.4384,126.662,189.5416,123.7247,188.0543,120.9532,187.0827,118.8495,185.1099,117.7461,182.8515,117.0917,181.0533,116.4506,178.7045,115.41,176.6832,116.2096,174.7098,116.9102,172.548,119.5393,170.8382,121.389,168.6198,123.6784,167.8832,126.4001,167.2488,129.8904,167.6257,131.8021,168.5273,134.0247,168.9359,136.7272,171.7047,137.6693,174.6277,138.0786,176.6221,137.615,179.9086" style="stroke:#383838;stroke-width:1.0;"/><path d="M129.3438,173.6406 C128.4063,173.2031 127.8125,173.0625 126.9375,173.0625 C124.3125,173.0625 122.3125,175.1406 122.3125,177.8594 L122.3125,178.9844 C122.3125,181.5625 124.4219,183.4531 127.3125,183.4531 C128.5313,183.4531 129.6875,183.1563 130.4375,182.6094 C131.0156,182.2031 131.3438,181.75 131.3438,181.3594 C131.3438,180.9063 130.9531,180.5156 130.4844,180.5156 C130.2656,180.5156 130.0625,180.5938 129.875,180.7813 C129.4219,181.2656 129.4219,181.2656 129.2344,181.3594 C128.8125,181.625 128.125,181.75 127.3594,181.75 C125.3125,181.75 124.0156,180.6563 124.0156,178.9531 L124.0156,177.8594 C124.0156,176.0781 125.2656,174.7656 127,174.7656 C127.5781,174.7656 128.1875,174.9219 128.6563,175.1719 C129.1406,175.4531 129.3125,175.6719 129.4063,176.0781 C129.4688,176.4844 129.5,176.6094 129.6406,176.7344 C129.7813,176.875 130.0156,176.9844 130.2344,176.9844 C130.5,176.9844 130.7656,176.8438 130.9375,176.625 C131.0469,176.4688 131.0781,176.2813 131.0781,175.8594 L131.0781,174.4375 C131.0781,174 131.0625,173.875 130.9688,173.7188 C130.8125,173.4531 130.5313,173.3125 130.2344,173.3125 C129.9375,173.3125 129.7344,173.4063 129.5156,173.7188 L129.3438,173.6406 Z " fill="#000000"/><text fill="#000000" font-family="FG Virgil" font-size="12" font-style="italic" lengthAdjust="spacing" textLength="80" x="181" y="175.1387">«application»</text><text fill="#000000" font-family="FG Virgil" font-size="12" lengthAdjust="spacing" textLength="160" x="141" y="189.1074">ConsultarTarefasController</text><path d="M113,196.9375 L113,197.2177 L123,196.3851 L133,197.1952 L143,197.4704 L153,195.9863 L163,196.8339 L173,196.3688 L183,196.4262 L193,196.8466 L203,196.0157 L213,197.6757 L223,196.0971 L233,196.6738 L243,197.5134 L253,196.8231 L263,197.0285 L273,196.8949 L283,197.1755 L293,197.2563 L303,196.9375 " fill="#F8F8F8" style="stroke:#383838;stroke-width:1.5;"/><path d="M113,204.9375 L113,205.2177 L123,204.3851 L133,205.1952 L143,205.4704 L153,203.9863 L163,204.8339 L173,204.3688 L183,204.4262 L193,204.8466 L203,204.0157 L213,205.6757 L223,204.0971 L233,204.6738 L243,205.5134 L253,204.8231 L263,205.0285 L273,204.8949 L283,205.1755 L293,205.2563 L303,204.9375 " fill="#F8F8F8" style="stroke:#383838;stroke-width:1.5;"/><text fill="#000000" font-family="FG Virgil" font-size="11" lengthAdjust="spacing" textLength="75" x="118" y="219.1479">repositories()</text><text fill="#000000" font-family="FG Virgil" font-size="11" lengthAdjust="spacing" textLength="43" x="118" y="231.9526">findAll()</text><text fill="#000000" font-family="FG Virgil" font-size="11" lengthAdjust="spacing" textLength="174" x="118" y="244.7573">tarefasPendentes(listServicos)</text><!--MD5=[e8c189551b7885b999ad7cefb30fc2a3]
class PersistenceContext--><polygon fill="#F8F8F8" points="7,311,7,311.2102,16.8667,310.5857,26.7333,311.1933,36.6,311.3997,46.4667,310.2866,56.3333,310.9223,66.2,310.5735,76.0667,310.6165,85.9333,310.9318,95.8,310.3086,105.6667,311.5536,115.5333,310.3697,125.4,310.8022,135.2667,311.4319,145.1333,310.9142,155,311,155.0682,311,154.9681,320.5346,155.1785,330.0692,155.2391,339.6038,155.5857,349.1384,155.6711,358.673,155.6793,368.2076,155,377.7422,155,377.9968,145.1333,378.2058,135.2667,378.4444,125.4,377.021,115.5333,378.4207,105.6667,377.4457,95.8,378.276,85.9333,377.2472,76.0667,377.6737,66.2,378.4838,56.3333,377.6935,46.4667,377.8475,36.6,378.0808,26.7333,378.1584,16.8667,377.7383,7,377.7422,7.2872,377.7422,6.4276,368.2076,7.2844,358.673,7.5482,349.1384,7.4445,339.6038,7.613,330.0692,6.5169,320.5346,7,311" style="stroke:#383838;stroke-width:1.5;"/><polygon fill="#C2C2C2" points="33.0608,332.6444,31.4484,334.8475,29.5412,338.0745,26.8136,340.2491,23.9474,341.4384,21.662,341.5416,18.7247,340.0543,15.9532,339.0827,13.8495,337.1099,12.7461,334.8515,12.0917,333.0533,11.4506,330.7045,10.41,328.6832,11.2096,326.7098,11.9102,324.548,14.5393,322.8382,16.389,320.6198,18.6784,319.8832,21.4001,319.2488,24.8904,319.6257,26.8021,320.5273,29.0247,320.9359,31.7272,323.7047,32.6693,326.6277,33.0786,328.6221,32.615,331.9086" style="stroke:#383838;stroke-width:1.0;"/><path d="M24.3438,325.6406 C23.4063,325.2031 22.8125,325.0625 21.9375,325.0625 C19.3125,325.0625 17.3125,327.1406 17.3125,329.8594 L17.3125,330.9844 C17.3125,333.5625 19.4219,335.4531 22.3125,335.4531 C23.5313,335.4531 24.6875,335.1563 25.4375,334.6094 C26.0156,334.2031 26.3438,333.75 26.3438,333.3594 C26.3438,332.9063 25.9531,332.5156 25.4844,332.5156 C25.2656,332.5156 25.0625,332.5938 24.875,332.7813 C24.4219,333.2656 24.4219,333.2656 24.2344,333.3594 C23.8125,333.625 23.125,333.75 22.3594,333.75 C20.3125,333.75 19.0156,332.6563 19.0156,330.9531 L19.0156,329.8594 C19.0156,328.0781 20.2656,326.7656 22,326.7656 C22.5781,326.7656 23.1875,326.9219 23.6563,327.1719 C24.1406,327.4531 24.3125,327.6719 24.4063,328.0781 C24.4688,328.4844 24.5,328.6094 24.6406,328.7344 C24.7813,328.875 25.0156,328.9844 25.2344,328.9844 C25.5,328.9844 25.7656,328.8438 25.9375,328.625 C26.0469,328.4688 26.0781,328.2813 26.0781,327.8594 L26.0781,326.4375 C26.0781,326 26.0625,325.875 25.9688,325.7188 C25.8125,325.4531 25.5313,325.3125 25.2344,325.3125 C24.9375,325.3125 24.7344,325.4063 24.5156,325.7188 L24.3438,325.6406 Z " fill="#000000"/><text fill="#000000" font-family="FG Virgil" font-size="12" font-style="italic" lengthAdjust="spacing" textLength="83" x="52.5" y="327.1387">«persistence»</text><text fill="#000000" font-family="FG Virgil" font-size="12" lengthAdjust="spacing" textLength="116" x="36" y="341.1074">PersistenceContext</text><path d="M8,348.9375 L8,349.2177 L17.7333,348.3851 L27.4667,349.1952 L37.2,349.4704 L46.9333,347.9863 L56.6667,348.8339 L66.4,348.3688 L76.1333,348.4262 L85.8667,348.8466 L95.6,348.0157 L105.3333,349.6757 L115.0667,348.0971 L124.8,348.6738 L134.5333,349.5134 L144.2667,348.8231 L154,348.9375 " fill="#F8F8F8" style="stroke:#383838;stroke-width:1.5;"/><path d="M8,356.9375 L8,357.2177 L17.7333,356.3851 L27.4667,357.1952 L37.2,357.4704 L46.9333,355.9863 L56.6667,356.8339 L66.4,356.3688 L76.1333,356.4262 L85.8667,356.8466 L95.6,356.0157 L105.3333,357.6757 L115.0667,356.0971 L124.8,356.6738 L134.5333,357.5134 L144.2667,356.8231 L154,356.9375 " fill="#F8F8F8" style="stroke:#383838;stroke-width:1.5;"/><text fill="#000000" font-family="FG Virgil" font-size="11" lengthAdjust="spacing" textLength="45" x="13" y="371.1479">create()</text><!--MD5=[48590afff58a68e2fcba47824d6f8a11]
class RepositoryFactory--><polygon fill="#F8F8F8" points="11,438,11,438.2102,21.1429,437.5857,31.2857,438.1933,41.4286,438.3997,51.5714,437.2866,61.7143,437.9223,71.8571,437.5735,82,437.6165,92.1429,437.9318,102.2857,437.3086,112.4286,438.5536,122.5714,437.3697,132.7143,437.8022,142.8571,438.4319,153,438,152.9142,438,153.0682,447.5346,152.9681,457.0692,153.1785,466.6038,153.2391,476.1384,153.5857,485.673,153.6711,495.2076,153,504.7422,153,505.4214,142.8571,504.9968,132.7143,505.2058,122.5714,505.4444,112.4286,504.021,102.2857,505.4207,92.1429,504.4457,82,505.276,71.8571,504.2472,61.7143,504.6737,51.5714,505.4838,41.4286,504.6935,31.2857,504.8475,21.1429,505.0808,11,504.7422,11.4162,504.7422,10.9961,495.2076,11.2872,485.673,10.4276,476.1384,11.2844,466.6038,11.5482,457.0692,11.4445,447.5346,11,438" style="stroke:#383838;stroke-width:1.5;"/><polygon fill="#C2C2C2" points="37.0608,459.6444,35.4484,461.8475,33.5412,465.0745,30.8136,467.2491,27.9474,468.4384,25.662,468.5416,22.7247,467.0543,19.9532,466.0827,17.8495,464.1099,16.7461,461.8515,16.0917,460.0533,15.4506,457.7045,14.41,455.6832,15.2096,453.7098,15.9102,451.548,18.5393,449.8382,20.389,447.6198,22.6784,446.8832,25.4001,446.2488,28.8904,446.6257,30.8021,447.5273,33.0247,447.9359,35.7272,450.7047,36.6693,453.6277,37.0786,455.6221,36.615,458.9086" style="stroke:#383838;stroke-width:1.0;"/><path d="M28.3438,452.6406 C27.4063,452.2031 26.8125,452.0625 25.9375,452.0625 C23.3125,452.0625 21.3125,454.1406 21.3125,456.8594 L21.3125,457.9844 C21.3125,460.5625 23.4219,462.4531 26.3125,462.4531 C27.5313,462.4531 28.6875,462.1563 29.4375,461.6094 C30.0156,461.2031 30.3438,460.75 30.3438,460.3594 C30.3438,459.9063 29.9531,459.5156 29.4844,459.5156 C29.2656,459.5156 29.0625,459.5938 28.875,459.7813 C28.4219,460.2656 28.4219,460.2656 28.2344,460.3594 C27.8125,460.625 27.125,460.75 26.3594,460.75 C24.3125,460.75 23.0156,459.6563 23.0156,457.9531 L23.0156,456.8594 C23.0156,455.0781 24.2656,453.7656 26,453.7656 C26.5781,453.7656 27.1875,453.9219 27.6563,454.1719 C28.1406,454.4531 28.3125,454.6719 28.4063,455.0781 C28.4688,455.4844 28.5,455.6094 28.6406,455.7344 C28.7813,455.875 29.0156,455.9844 29.2344,455.9844 C29.5,455.9844 29.7656,455.8438 29.9375,455.625 C30.0469,455.4688 30.0781,455.2813 30.0781,454.8594 L30.0781,453.4375 C30.0781,453 30.0625,452.875 29.9688,452.7188 C29.8125,452.4531 29.5313,452.3125 29.2344,452.3125 C28.9375,452.3125 28.7344,452.4063 28.5156,452.7188 L28.3438,452.6406 Z " fill="#000000"/><text fill="#000000" font-family="FG Virgil" font-size="12" font-style="italic" lengthAdjust="spacing" textLength="56" x="67" y="454.1387">«factory»</text><text fill="#000000" font-family="FG Virgil" font-size="12" lengthAdjust="spacing" textLength="110" x="40" y="468.1074">RepositoryFactory</text><path d="M12,475.9375 L12,476.2177 L22,475.3851 L32,476.1952 L42,476.4704 L52,474.9863 L62,475.8339 L72,475.3688 L82,475.4262 L92,475.8466 L102,475.0157 L112,476.6757 L122,475.0971 L132,475.6738 L142,476.5134 L152,475.9375 " fill="#F8F8F8" style="stroke:#383838;stroke-width:1.5;"/><path d="M12,483.9375 L12,484.2177 L22,483.3851 L32,484.1952 L42,484.4704 L52,482.9863 L62,483.8339 L72,483.3688 L82,483.4262 L92,483.8466 L102,483.0157 L112,484.6757 L122,483.0971 L132,483.6738 L142,484.5134 L152,483.9375 " fill="#F8F8F8" style="stroke:#383838;stroke-width:1.5;"/><text fill="#000000" font-family="FG Virgil" font-size="11" lengthAdjust="spacing" textLength="45" x="17" y="498.1479">create()</text><!--MD5=[51865f8cbfe0824679c335d6e733f291]
class ServicoRepository--><polygon fill="#F8F8F8" points="73.5,565,73.5,565.2102,83.7143,564.5857,93.9286,565.1933,104.1429,565.3997,114.3571,564.2866,124.5714,564.9223,134.7857,564.5735,145,564.6165,155.2143,564.9318,165.4286,564.3086,175.6429,565.5536,185.8571,564.3697,196.0714,564.8022,206.2857,565.4319,216.5,565,216.4142,565,216.5682,575.7875,216.4681,586.575,216.6785,597.3625,216.7391,608.15,216.5,618.9375,216.5,619.5232,206.2857,619.6086,196.0714,619.6168,185.8571,619.1921,175.6429,619.4011,165.4286,619.6397,155.2143,618.2163,145,619.616,134.7857,618.641,124.5714,619.4713,114.3571,618.4425,104.1429,618.869,93.9286,619.6791,83.7143,618.8888,73.5,618.9375,73.6053,618.9375,73.8386,608.15,73.9162,597.3625,73.4961,586.575,73.7872,575.7875,73.5,565" style="stroke:#383838;stroke-width:1.5;"/><polygon fill="#C2C2C2" points="99.5608,586.6444,97.9484,588.8475,96.0412,592.0745,93.3136,594.2491,90.4474,595.4384,88.162,595.5416,85.2247,594.0543,82.4532,593.0827,80.3495,591.1099,79.2461,588.8515,78.5917,587.0533,77.9506,584.7045,76.91,582.6832,77.7096,580.7098,78.4102,578.548,81.0393,576.8382,82.889,574.6198,85.1784,573.8832,87.9001,573.2488,91.3904,573.6257,93.3021,574.5273,95.5247,574.9359,98.2272,577.7047,99.1693,580.6277,99.5786,582.6221,99.115,585.9086" style="stroke:#383838;stroke-width:1.0;"/><path d="M90.8438,579.6406 C89.9063,579.2031 89.3125,579.0625 88.4375,579.0625 C85.8125,579.0625 83.8125,581.1406 83.8125,583.8594 L83.8125,584.9844 C83.8125,587.5625 85.9219,589.4531 88.8125,589.4531 C90.0313,589.4531 91.1875,589.1563 91.9375,588.6094 C92.5156,588.2031 92.8438,587.75 92.8438,587.3594 C92.8438,586.9063 92.4531,586.5156 91.9844,586.5156 C91.7656,586.5156 91.5625,586.5938 91.375,586.7813 C90.9219,587.2656 90.9219,587.2656 90.7344,587.3594 C90.3125,587.625 89.625,587.75 88.8594,587.75 C86.8125,587.75 85.5156,586.6563 85.5156,584.9531 L85.5156,583.8594 C85.5156,582.0781 86.7656,580.7656 88.5,580.7656 C89.0781,580.7656 89.6875,580.9219 90.1563,581.1719 C90.6406,581.4531 90.8125,581.6719 90.9063,582.0781 C90.9688,582.4844 91,582.6094 91.1406,582.7344 C91.2813,582.875 91.5156,582.9844 91.7344,582.9844 C92,582.9844 92.2656,582.8438 92.4375,582.625 C92.5469,582.4688 92.5781,582.2813 92.5781,581.8594 L92.5781,580.4375 C92.5781,580 92.5625,579.875 92.4688,579.7188 C92.3125,579.4531 92.0313,579.3125 91.7344,579.3125 C91.4375,579.3125 91.2344,579.4063 91.0156,579.7188 L90.8438,579.6406 Z " fill="#000000"/><text fill="#000000" font-family="FG Virgil" font-size="12" font-style="italic" lengthAdjust="spacing" textLength="74" x="121" y="581.1387">«repository»</text><text fill="#000000" font-family="FG Virgil" font-size="12" lengthAdjust="spacing" textLength="111" x="102.5" y="595.1074">ServicoRepository</text><path d="M74.5,602.9375 L74.5,603.2177 L84.5714,602.3851 L94.6429,603.1952 L104.7143,603.4704 L114.7857,601.9863 L124.8571,602.8339 L134.9286,602.3688 L145,602.4262 L155.0714,602.8466 L165.1429,602.0157 L175.2143,603.6757 L185.2857,602.0971 L195.3571,602.6738 L205.4286,603.5134 L215.5,602.9375 " fill="#F8F8F8" style="stroke:#383838;stroke-width:1.5;"/><path d="M74.5,610.9375 L74.5,611.2177 L84.5714,610.3851 L94.6429,611.1952 L104.7143,611.4704 L114.7857,609.9863 L124.8571,610.8339 L134.9286,610.3688 L145,610.4262 L155.0714,610.8466 L165.1429,610.0157 L175.2143,611.6757 L185.2857,610.0971 L195.3571,610.6738 L205.4286,611.5134 L215.5,610.9375 " fill="#F8F8F8" style="stroke:#383838;stroke-width:1.5;"/><!--MD5=[093c210125347143eef5bb9199eae634]
class UserRepository--><polygon fill="#F8F8F8" points="261,317.5,261,317.7102,270.6923,317.0857,280.3846,317.6933,290.0769,317.8997,299.7692,316.7866,309.4615,317.4223,319.1538,317.0735,328.8462,317.1165,338.5385,317.4318,348.2308,316.8086,357.9231,318.0536,367.6154,316.8697,377.3077,317.3022,387,317.5,387.4319,317.5,386.9142,328.2875,387.0682,339.075,386.9681,349.8625,387.1785,360.65,387,371.4375,387,371.6766,377.3077,372.0232,367.6154,372.1086,357.9231,372.1168,348.2308,371.6921,338.5385,371.9011,328.8462,372.1397,319.1538,370.7163,309.4615,372.116,299.7692,371.141,290.0769,371.9713,280.3846,370.9425,270.6923,371.369,261,371.4375,261.7416,371.4375,260.9513,360.65,261.1053,349.8625,261.3386,339.075,261.4162,328.2875,261,317.5" style="stroke:#383838;stroke-width:1.5;"/><polygon fill="#C2C2C2" points="287.0608,339.1444,285.4484,341.3475,283.5412,344.5745,280.8136,346.7491,277.9474,347.9384,275.662,348.0416,272.7247,346.5543,269.9532,345.5827,267.8495,343.6099,266.7461,341.3515,266.0917,339.5533,265.4506,337.2045,264.41,335.1832,265.2096,333.2098,265.9102,331.048,268.5393,329.3382,270.389,327.1198,272.6784,326.3832,275.4001,325.7488,278.8904,326.1257,280.8021,327.0273,283.0247,327.4359,285.7272,330.2047,286.6693,333.1277,287.0786,335.1221,286.615,338.4086" style="stroke:#383838;stroke-width:1.0;"/><path d="M278.3438,332.1406 C277.4063,331.7031 276.8125,331.5625 275.9375,331.5625 C273.3125,331.5625 271.3125,333.6406 271.3125,336.3594 L271.3125,337.4844 C271.3125,340.0625 273.4219,341.9531 276.3125,341.9531 C277.5313,341.9531 278.6875,341.6563 279.4375,341.1094 C280.0156,340.7031 280.3438,340.25 280.3438,339.8594 C280.3438,339.4063 279.9531,339.0156 279.4844,339.0156 C279.2656,339.0156 279.0625,339.0938 278.875,339.2813 C278.4219,339.7656 278.4219,339.7656 278.2344,339.8594 C277.8125,340.125 277.125,340.25 276.3594,340.25 C274.3125,340.25 273.0156,339.1563 273.0156,337.4531 L273.0156,336.3594 C273.0156,334.5781 274.2656,333.2656 276,333.2656 C276.5781,333.2656 277.1875,333.4219 277.6563,333.6719 C278.1406,333.9531 278.3125,334.1719 278.4063,334.5781 C278.4688,334.9844 278.5,335.1094 278.6406,335.2344 C278.7813,335.375 279.0156,335.4844 279.2344,335.4844 C279.5,335.4844 279.7656,335.3438 279.9375,335.125 C280.0469,334.9688 280.0781,334.7813 280.0781,334.3594 L280.0781,332.9375 C280.0781,332.5 280.0625,332.375 279.9688,332.2188 C279.8125,331.9531 279.5313,331.8125 279.2344,331.8125 C278.9375,331.8125 278.7344,331.9063 278.5156,332.2188 L278.3438,332.1406 Z " fill="#000000"/><text fill="#000000" font-family="FG Virgil" font-size="12" font-style="italic" lengthAdjust="spacing" textLength="74" x="300" y="333.6387">«repository»</text><text fill="#000000" font-family="FG Virgil" font-size="12" lengthAdjust="spacing" textLength="94" x="290" y="347.6074">UserRepository</text><path d="M262,355.4375 L262,355.7177 L272.3333,354.8851 L282.6667,355.6952 L293,355.9704 L303.3333,354.4863 L313.6667,355.3339 L324,354.8688 L334.3333,354.9262 L344.6667,355.3466 L355,354.5157 L365.3333,356.1757 L375.6667,354.5971 L386,355.4375 " fill="#F8F8F8" style="stroke:#383838;stroke-width:1.5;"/><path d="M262,363.4375 L262,363.7177 L272.3333,362.8851 L282.6667,363.6952 L293,363.9704 L303.3333,362.4863 L313.6667,363.3339 L324,362.8688 L334.3333,362.9262 L344.6667,363.3466 L355,362.5157 L365.3333,364.1757 L375.6667,362.5971 L386,363.4375 " fill="#F8F8F8" style="stroke:#383838;stroke-width:1.5;"/><!--MD5=[2c5ed8deb50efb8fddb80fdc673eca6d]
link ConsultarTarefasUI to ConsultarTarefasController--><path d="M208,99.005 L208.2802,99.005 L207.4476,109.8782 L208.2577,120.7514 L208.5329,131.6246 L207.0488,142.4978 L208,153.371 " fill="none" style="stroke:#383838;stroke-width:1.0;"/><polygon fill="#383838" points="208,158.768,208.064,158.7965,208.6738,156.9119,209.6589,155.1942,210.5217,153.4221,210.9827,151.4714,212,149.768,211.9817,149.7497,211.0995,150.4675,210.3096,151.2776,209.5839,152.1519,208.637,152.805,208,153.768,208.1305,153.8985,207.0514,152.8194,206.3534,152.1214,205.7018,151.4698,204.7798,150.5478,204,149.768,204.0208,149.7772,204.7903,151.5637,205.6544,153.3922,206.4728,155.2004,207.3784,157.0473,208,158.768" style="stroke:#383838;stroke-width:1.0;"/><!--MD5=[16dd1f1f9d0f885e96ec787893a8c2b3]
link ConsultarTarefasController to ServicoRepository--><path d="M204.818,251.226 L204.9111,251.2338 L204.2286,256.0445 L204.0917,260.901 L203.7772,265.7426 L202.8782,270.5351 L202.7882,275.3956 L202.7539,275.3924 L202.0813,280.9439 L201.5821,286.5115 L201.2035,292.0904 L200.4095,297.6306 L200.1973,303.2249 L200.442,303.2503 L199.2815,309.3437 L198.8356,315.5111 L198.4769,321.6876 L197.6109,327.8115 L197.0117,333.963 L197.0419,333.9665 L196.235,340.5406 L195.5652,347.1305 L194.8293,353.7128 L194.2196,360.3097 L193.1984,366.8589 L193.4941,366.8975 L192.6028,373.7584 L191.5208,380.5946 L190.718,387.4671 L189.9282,394.3413 L188.7238,401.1615 L188.4065,401.1161 L188.5232,404.693 L187.5951,408.1205 L187.4613,411.6616 L186.5095,415.0857 L186.2282,418.6057 L186.1981,418.6011 L186.0194,422.1582 L185.1374,425.6081 L184.6704,429.1213 L184.2383,432.6398 L183.5548,436.1199 L183.7374,436.1497 L182.982,439.6177 L182.5386,443.1366 L181.5905,446.5732 L181.3953,450.1326 L180.6994,453.6103 L180.9394,453.6523 L180.2858,457.1189 L179.7512,460.6064 L178.6631,463.9969 L177.9807,467.4585 L177.658,470.9831 L177.3866,470.9319 L176.9859,474.4105 L176.2794,477.8314 L176.0165,481.3358 L174.9963,484.6976 L174.4262,488.1442 L174.2768,488.1139 L173.8404,491.5356 L172.7653,494.8275 L172.1444,498.2117 L171.9679,501.6863 L171,505 L171.1886,505.0439 L170.6593,507.902 L169.5434,510.6234 L169.1622,513.5159 L168.621,516.3712 L167.7068,519.1396 L167.504,519.0852 L166.9015,521.9795 L166.2325,524.856 L165.694,527.7675 L164.6483,530.543 L163.8859,533.3945 L164.0831,533.4526 L162.8346,536.0892 L161.9667,538.8381 L161.6549,541.7509 L160.3194,544.3618 L159.8098,547.2163 L160.0255,547.2845 L159.0856,549.8121 L158.0727,552.3166 L157.2246,554.8732 L156.7572,557.5502 L155.751,560.0568 " fill="none" style="stroke:#383838;stroke-width:1.0;"/><polygon fill="#383838" points="154.141,564.954,154.1929,565.001,155.3609,563.4013,156.8333,562.0772,158.2065,560.6634,159.2538,558.9543,160.7523,557.6539,160.7406,557.6308,159.6783,558.0371,158.6749,558.5599,157.7124,559.1638,156.6089,559.4885,155.7029,560.2042,155.8677,560.2874,155.0053,559.0996,154.624,558.1548,154.3013,557.2395,153.6372,556.1518,153.1526,555.1549,153.1753,555.1571,153.3397,557.1136,153.6072,559.0805,153.825,561.0423,154.1376,563.0138,154.141,564.954" style="stroke:#383838;stroke-width:1.0;"/><!--MD5=[2ecfda7ec952e9de715e731b3e39ce73]
link ConsultarTarefasController to UserRepository--><path d="M245.983,251.023 L246.1972,251.2037 L252.1186,258.4402 L259.2957,266.7359 L266.0639,274.6868 L271.4875,281.5032 L278.6932,289.8231 L284.8956,297.2966 L291.4973,305.1069 L298.446,313.21 " fill="none" style="stroke:#383838;stroke-width:1.0;"/><polygon fill="#383838" points="301.857,317.253,301.9243,317.2725,301.1751,315.3229,300.8202,313.4877,300.337,311.6153,299.4313,309.6202,299.1104,307.7949,299.0846,307.7927,298.8732,308.9102,298.7919,310.0387,298.8011,311.1749,298.4986,312.2847,298.6327,313.4315,298.6483,313.6154,297.4876,313.1266,296.3724,313.1747,295.2628,313.2884,294.1209,313.0209,292.996,312.9538,293.006,312.9743,294.7636,313.8041,296.5664,314.727,298.3474,315.605,300.17,316.5688,301.857,317.253" style="stroke:#383838;stroke-width:1.0;"/><!--MD5=[92d8ac77eb240e73ca9456b3298e77b8]
link ConsultarTarefasController to PersistenceContext--><path d="M166.415,251.023 L166.6209,251.2131 L159.5739,257.6154 L153.7338,265.1324 L147.5007,272.2863 L139.9753,278.2466 L134.1626,285.7889 L127.3858,292.4407 L120.9926,299.4468 L114.933,306.761 " fill="none" style="stroke:#383838;stroke-width:1.0;"/><polygon fill="#383838" points="111.399,310.587,111.4267,310.6513,113.1532,309.6805,115.0423,309.0868,116.8784,308.3702,118.5404,307.2498,120.4434,306.6885,120.4424,306.6626,119.3073,306.5915,118.1774,306.6508,117.0511,306.8008,115.9124,306.6383,114.7911,306.9136,114.9755,306.9209,114.5361,305.7748,114.6351,304.65,114.7999,303.5279,114.5824,302.3905,114.566,301.2612,114.5875,301.2685,113.9225,303.1229,113.3555,305.0107,112.7413,306.8823,112.2173,308.7846,111.399,310.587" style="stroke:#383838;stroke-width:1.0;"/><!--MD5=[754b775031405e096442b27febffa290]
link PersistenceContext to RepositoryFactory--><path d="M81.2601,378.016 L81.5403,378.0182 L80.7948,388.8928 L81.6919,399.7805 L82.0542,410.6639 L80.6572,421.5332 L81.6954,432.422 " fill="none" style="stroke:#383838;stroke-width:1.0;"/><polygon fill="#383838" points="81.7377,437.713,81.8019,437.7409,82.3966,435.8516,83.3679,434.126,84.2166,432.3471,84.6619,430.3928,85.6656,428.6813,85.6471,428.6631,84.7707,429.3879,83.9873,430.2044,83.2687,431.0845,82.327,431.7451,81.6977,432.7132,81.8271,432.8447,80.744,431.7698,80.0387,431.079,79.3796,430.4351,78.4521,429.5185,77.6658,428.7453,77.6865,428.7547,78.4705,430.5344,79.3488,432.357,80.1815,434.1589,81.1011,436.0002,81.7377,437.713" style="stroke:#383838;stroke-width:1.0;"/><!--MD5=[4c2782ef650e763910e10e8b58df1401]
link RepositoryFactory to ServicoRepository--><path d="M99.3818,505.194 L99.6292,505.3256 L103.7622,514.0915 L109.3458,523.6286 L114.4569,532.9146 L118.0147,541.3747 L123.6313,550.9294 L128.591,560.1349 " fill="none" style="stroke:#383838;stroke-width:1.0;"/><polygon fill="#383838" points="131.062,564.7826,131.1319,564.7875,130.7858,562.808,130.8494,560.8573,130.7796,558.8973,130.271,556.9063,130.3698,554.9581,130.345,554.9505,129.903,555.9984,129.5857,557.0845,129.3553,558.1971,128.8258,559.2183,128.7152,560.3676,128.7692,560.544,127.5719,559.8357,126.5321,559.6427,125.5117,559.5125,124.3793,559.0165,123.3058,558.713,123.3198,558.7309,124.8504,559.9185,126.4449,561.1877,128.0086,562.4175,129.6311,563.7224,131.062,564.7826" style="stroke:#383838;stroke-width:1.0;"/><!--MD5=[ecc5f11d0ba52545306d86a037b83c7b]
@startuml
'http://plantuml.com/skinparam.html
skinparam handwritten true
skinparam monochrome true
skinparam packageStyle rect
skinparam defaultFontName FG Virgil
skinparam shadowing false

class ConsultarTarefasUI <<presentation>>
class ConsultarTarefasController <<application>>
class PersistenceContext <<persistence>>
class RepositoryFactory <<factory>>
class ServicoRepository <<repository>>
class UserRepository <<repository>>


ConsultarTarefasUI - -> ConsultarTarefasController
ConsultarTarefasUI : doShow()
ConsultarTarefasUI : listServicos()
ConsultarTarefasUI : listTarefas()

ConsultarTarefasController : repositories()
ConsultarTarefasController : findAll()
ConsultarTarefasController : tarefasPendentes(listServicos)

ConsultarTarefasController - -> ServicoRepository
ConsultarTarefasController - -> UserRepository
ConsultarTarefasController - -> PersistenceContext
PersistenceContext - -> RepositoryFactory

RepositoryFactory - -> ServicoRepository
RepositoryFactory : create()

PersistenceContext : create()
@enduml

@startuml
skinparam handwritten true
skinparam monochrome true
skinparam packageStyle rect
skinparam defaultFontName FG Virgil
skinparam shadowing false

class ConsultarTarefasUI <<presentation>>
class ConsultarTarefasController <<application>>
class PersistenceContext <<persistence>>
class RepositoryFactory <<factory>>
class ServicoRepository <<repository>>
class UserRepository <<repository>>


ConsultarTarefasUI - -> ConsultarTarefasController
ConsultarTarefasUI : doShow()
ConsultarTarefasUI : listServicos()
ConsultarTarefasUI : listTarefas()

ConsultarTarefasController : repositories()
ConsultarTarefasController : findAll()
ConsultarTarefasController : tarefasPendentes(listServicos)

ConsultarTarefasController - -> ServicoRepository
ConsultarTarefasController - -> UserRepository
ConsultarTarefasController - -> PersistenceContext
PersistenceContext - -> RepositoryFactory

RepositoryFactory - -> ServicoRepository
RepositoryFactory : create()

PersistenceContext : create()
@enduml

PlantUML version 1.2021.6beta6(Unknown compile time)
(GPL source distribution)
Java Runtime: Java(TM) SE Runtime Environment
JVM: Java HotSpot(TM) 64-Bit Server VM
Default Encoding: UTF-8
Language: en
Country: US
--></g></svg>