<?xml version="1.0" encoding="UTF-8" standalone="no"?><svg xmlns="http://www.w3.org/2000/svg" xmlns:xlink="http://www.w3.org/1999/xlink" contentScriptType="application/ecmascript" contentStyleType="text/css" height="582px" preserveAspectRatio="none" style="width:962px;height:582px;background:#FFFFFF;" version="1.1" viewBox="0 0 962 582" width="962px" zoomAndPan="magnify"><defs/><g><polygon fill="#FFFFFF" points="74,93.5938,74,93.6638,76,93.4556,78,93.6582,80,93.727,82,93.356,84,93.5938,83.9223,93.5938,83.5735,103.4996,83.6165,113.4054,83.9318,123.3113,83.3086,133.2171,84.5536,143.123,83.3697,153.0288,83.8022,162.9347,84.4319,172.8405,83.9142,182.7464,84.0682,192.6522,83.9681,202.5581,84.1785,212.4639,84.2391,222.3698,84.5857,232.2756,84.6711,242.1815,84.6793,252.0873,84.2546,261.9932,84.4636,271.899,84.7022,281.8049,83.2788,291.7107,84.6785,301.6166,83.7035,311.5224,84.5338,321.4283,83.505,331.3341,83.9315,341.24,84.7416,351.1458,83.9513,361.0517,84.1053,370.9575,84.3386,380.8634,84.4162,390.7692,83.9961,400.6751,84.2872,410.5809,83.4276,420.4868,84.2844,430.3926,84.5482,440.2985,84.4445,450.2043,84.613,460.1102,83.5169,470.016,84,479.9219,84,479.7045,82,479.7147,80,479.9022,78,479.8564,76,480.149,74,479.9219,73.8253,479.9219,73.6569,470.016,74.2283,460.1102,73.3332,450.2043,73.4809,440.2985,74.649,430.3926,74.4357,420.4868,74.7345,410.5809,73.6782,400.6751,74.3192,390.7692,74.5904,380.8634,73.5276,370.9575,73.9041,361.0517,74.126,351.1458,74.6518,341.24,73.9958,331.3341,74.4626,321.4283,73.4462,311.5224,73.3227,301.6166,74.5036,291.7107,73.2831,281.8049,74.509,271.899,74.2066,261.9932,73.7321,252.0873,73.6462,242.1815,74.4588,232.2756,73.7007,222.3698,74.5919,212.4639,73.4473,202.5581,74.6174,192.6522,74.4843,182.7464,74.245,172.8405,74.0472,162.9347,74.7266,153.0288,74.6136,143.123,74.1693,133.2171,74.2682,123.3113,73.8697,113.4054,74.7165,103.4996,74,93.5938" style="stroke:#383838;stroke-width:1.0;"/><polygon fill="#FFFFFF" points="258,156.8594,258,156.9294,260,156.7213,262,156.9238,264,156.9926,266,156.6216,268,156.8594,267.9223,156.8594,267.5735,166.6529,267.6165,176.4464,267.9318,186.24,267.3086,196.0335,268.5536,205.827,267.3697,215.6205,267.8022,225.4141,268.4319,235.2076,267.9142,245.0011,268.0682,254.7946,267.9681,264.5882,268.1785,274.3817,268.2391,284.1752,268.5857,293.9688,268.6711,303.7623,268.6793,313.5558,268.2546,323.3493,268.4636,333.1429,268.7022,342.9364,267.2788,352.7299,268,362.5234,268,362.7496,266,362.4246,264,362.7014,262,362.3584,260,362.5006,258,362.5234,258.7416,362.5234,257.9513,352.7299,258.1053,342.9364,258.3386,333.1429,258.4162,323.3493,257.9961,313.5558,258.2872,303.7623,257.4276,293.9688,258.2844,284.1752,258.5482,274.3817,258.4445,264.5882,258.613,254.7946,257.5169,245.0011,257.3478,235.2076,257.3786,225.4141,257.9411,215.6205,257.8035,205.827,258.6814,196.0335,257.8253,186.24,257.6569,176.4464,258.2283,166.6529,258,156.8594" style="stroke:#383838;stroke-width:1.0;"/><polygon fill="#FFFFFF" points="258,391.6563,258,391.7263,260,391.5181,262,391.7207,264,391.7895,266,391.4185,268,391.6563,267.9223,391.6563,267.5735,401.4635,267.6165,411.2708,267.9318,421.0781,267.3086,430.8854,268.5536,440.6927,267.3697,450.5,267.8022,460.3073,268.4319,470.1146,268,479.9219,268,479.8933,266,479.9446,264,479.9112,262,479.9814,260,480.0016,258,479.9219,258.5857,479.9219,258.6711,470.1146,258.6793,460.3073,258.2546,450.5,258.4636,440.6927,258.7022,430.8854,257.2788,421.0781,258.6785,411.2708,257.7035,401.4635,258,391.6563" style="stroke:#383838;stroke-width:1.0;"/><polygon fill="#FFFFFF" points="446.5,185.9922,446.5,186.0622,448.5,185.8541,450.5,186.0566,452.5,186.1254,454.5,185.7544,456.5,185.9922,456.4223,185.9922,456.0735,195.7995,456.1165,205.6068,456.4318,215.4141,455.8086,225.2214,457.0536,235.0286,455.8697,244.8359,456.3022,254.6432,456.9319,264.4505,456.5,274.2578,456.5,274.2292,454.5,274.2806,452.5,274.2472,450.5,274.3173,448.5,274.3375,446.5,274.2578,447.0857,274.2578,447.1711,264.4505,447.1793,254.6432,446.7546,244.8359,446.9636,235.0286,447.2022,225.2214,445.7788,215.4141,447.1785,205.6068,446.2035,195.7995,446.5,185.9922" style="stroke:#383838;stroke-width:1.0;"/><polygon fill="#FFFFFF" points="608.5,215.125,608.5,215.1951,610.5,214.9869,612.5,215.1894,614.5,215.2582,616.5,214.8872,618.5,215.125,618.4223,215.125,618.0735,224.9805,618.1165,234.8359,618.4318,244.6914,617.8086,254.5469,619.0536,264.4023,618.5,274.2578,618.5,274.0477,616.5,274.1919,614.5,274.4018,612.5,274.2292,610.5,274.2806,608.5,274.2578,608.4681,274.2578,608.6785,264.4023,608.7391,254.5469,609.0857,244.6914,609.1711,234.8359,609.1793,224.9805,608.5,215.125" style="stroke:#383838;stroke-width:1.0;"/><polygon fill="#FFFFFF" points="887,244.2578,887,244.3279,889,244.1197,891,244.3222,893,244.391,895,244.02,897,244.2578,896.9741,244.2578,896.8578,250.2578,896.8722,256.2578,896.9773,262.2578,896.7695,268.2578,897,274.2578,897,274.4424,895,274.0477,893,274.1919,891,274.4018,889,274.2292,887,274.2578,887.0227,274.2578,886.9894,268.2578,887.0595,262.2578,887.0797,256.2578,887.1952,250.2578,887,244.2578" style="stroke:#383838;stroke-width:1.0;"/><polygon fill="#FFFFFF" points="887,303.3906,887,303.4607,889,303.2525,891,303.4551,893,303.5239,895,303.1528,897,303.3906,896.9741,303.3906,896.8578,309.3906,896.8722,315.3906,896.9773,321.3906,896.7695,327.3906,897,333.3906,897,333.5752,895,333.1805,893,333.3247,891,333.5346,889,333.362,887,333.3906,887.0227,333.3906,886.9894,327.3906,887.0595,321.3906,887.0797,315.3906,887.1952,309.3906,887,303.3906" style="stroke:#383838;stroke-width:1.0;"/><polygon fill="#FFFFFF" points="887,420.7891,887,420.8591,889,420.651,891,420.8535,893,420.9223,895,420.5513,897,420.7891,896.9741,420.7891,896.8578,426.7891,896.8722,432.7891,896.9773,438.7891,896.7695,444.7891,897,450.7891,897,450.9736,895,450.579,893,450.7231,891,450.933,889,450.7605,887,450.7891,887.0227,450.7891,886.9894,444.7891,887.0595,438.7891,887.0797,432.7891,887.1952,426.7891,887,420.7891" style="stroke:#383838;stroke-width:1.0;"/><path d="M79,83.5938 L79.2802,83.5938 L78.4476,93.6993 L79.2577,103.8049 L79.5329,113.9104 L78.0488,124.016 L78.8964,134.1216 L78.4313,144.2271 L78.4887,154.3327 L78.9091,164.4383 L78.0782,174.5438 L79.7382,184.6494 L78.1596,194.755 L78.7363,204.8605 L79.5759,214.9661 L78.8856,225.0716 L79.091,235.1772 L78.9574,245.2828 L79.238,255.3883 L79.3188,265.4939 L79.7809,275.5995 L79.8947,285.705 L79.9057,295.8106 L79.3395,305.9162 L79.6181,316.0217 L79.9363,326.1273 L78.0384,336.2329 L79.9047,346.3384 L78.6047,356.444 L79.7117,366.5495 L78.34,376.6551 L78.9087,386.7607 L79.9888,396.8662 L78.935,406.9718 L79.1404,417.0774 L79.4515,427.1829 L79.555,437.2885 L78.9948,447.3941 L79.383,457.4996 L78.2368,467.6052 L79.3792,477.7107 L79.7309,487.8163 L79,497.9219 " fill="none" style="stroke:#383838;stroke-width:1.0;stroke-dasharray:5.0,5.0;"/><path d="M263,83.5938 L263.2802,83.5938 L262.4476,93.6993 L263.2577,103.8049 L263.5329,113.9104 L262.0488,124.016 L262.8964,134.1216 L262.4313,144.2271 L262.4887,154.3327 L262.9091,164.4383 L262.0782,174.5438 L263.7382,184.6494 L262.1596,194.755 L262.7363,204.8605 L263.5759,214.9661 L262.8856,225.0716 L263.091,235.1772 L262.9574,245.2828 L263.238,255.3883 L263.3188,265.4939 L263.7809,275.5995 L263.8947,285.705 L263.9057,295.8106 L263.3395,305.9162 L263.6181,316.0217 L263.9363,326.1273 L262.0384,336.2329 L263.9047,346.3384 L262.6047,356.444 L263.7117,366.5495 L262.34,376.6551 L262.9087,386.7607 L263.9888,396.8662 L262.935,406.9718 L263.1404,417.0774 L263.4515,427.1829 L263.555,437.2885 L262.9948,447.3941 L263.383,457.4996 L262.2368,467.6052 L263.3792,477.7107 L263.7309,487.8163 L263,497.9219 " fill="none" style="stroke:#383838;stroke-width:1.0;stroke-dasharray:5.0,5.0;"/><path d="M451,83.5938 L451.2802,83.5938 L450.4476,93.6993 L451.2577,103.8049 L451.5329,113.9104 L450.0488,124.016 L450.8964,134.1216 L450.4313,144.2271 L450.4887,154.3327 L450.9091,164.4383 L450.0782,174.5438 L451.7382,184.6494 L450.1596,194.755 L450.7363,204.8605 L451.5759,214.9661 L450.8856,225.0716 L451.091,235.1772 L450.9574,245.2828 L451.238,255.3883 L451.3188,265.4939 L451.7809,275.5995 L451.8947,285.705 L451.9057,295.8106 L451.3395,305.9162 L451.6181,316.0217 L451.9363,326.1273 L450.0384,336.2329 L451.9047,346.3384 L450.6047,356.444 L451.7117,366.5495 L450.34,376.6551 L450.9087,386.7607 L451.9888,396.8662 L450.935,406.9718 L451.1404,417.0774 L451.4515,427.1829 L451.555,437.2885 L450.9948,447.3941 L451.383,457.4996 L450.2368,467.6052 L451.3792,477.7107 L451.7309,487.8163 L451,497.9219 " fill="none" style="stroke:#383838;stroke-width:1.0;stroke-dasharray:5.0,5.0;"/><path d="M613,83.5938 L613.2802,83.5938 L612.4476,93.6993 L613.2577,103.8049 L613.5329,113.9104 L612.0488,124.016 L612.8964,134.1216 L612.4313,144.2271 L612.4887,154.3327 L612.9091,164.4383 L612.0782,174.5438 L613.7382,184.6494 L612.1596,194.755 L612.7363,204.8605 L613.5759,214.9661 L612.8856,225.0716 L613.091,235.1772 L612.9574,245.2828 L613.238,255.3883 L613.3188,265.4939 L613.7809,275.5995 L613.8947,285.705 L613.9057,295.8106 L613.3395,305.9162 L613.6181,316.0217 L613.9363,326.1273 L612.0384,336.2329 L613.9047,346.3384 L612.6047,356.444 L613.7117,366.5495 L612.34,376.6551 L612.9087,386.7607 L613.9888,396.8662 L612.935,406.9718 L613.1404,417.0774 L613.4515,427.1829 L613.555,437.2885 L612.9948,447.3941 L613.383,457.4996 L612.2368,467.6052 L613.3792,477.7107 L613.7309,487.8163 L613,497.9219 " fill="none" style="stroke:#383838;stroke-width:1.0;stroke-dasharray:5.0,5.0;"/><path d="M755,83.5938 L755.2802,83.5938 L754.4476,93.6993 L755.2577,103.8049 L755.5329,113.9104 L754.0488,124.016 L754.8964,134.1216 L754.4313,144.2271 L754.4887,154.3327 L754.9091,164.4383 L754.0782,174.5438 L755.7382,184.6494 L754.1596,194.755 L754.7363,204.8605 L755.5759,214.9661 L754.8856,225.0716 L755.091,235.1772 L754.9574,245.2828 L755.238,255.3883 L755.3188,265.4939 L755.7809,275.5995 L755.8947,285.705 L755.9057,295.8106 L755.3395,305.9162 L755.6181,316.0217 L755.9363,326.1273 L754.0384,336.2329 L755.9047,346.3384 L754.6047,356.444 L755.7117,366.5495 L754.34,376.6551 L754.9087,386.7607 L755.9888,396.8662 L754.935,406.9718 L755.1404,417.0774 L755.4515,427.1829 L755.555,437.2885 L754.9948,447.3941 L755.383,457.4996 L754.2368,467.6052 L755.3792,477.7107 L755.7309,487.8163 L755,497.9219 " fill="none" style="stroke:#383838;stroke-width:1.0;stroke-dasharray:5.0,5.0;"/><path d="M892,83.5938 L892.2802,83.5938 L891.4476,93.6993 L892.2577,103.8049 L892.5329,113.9104 L891.0488,124.016 L891.8964,134.1216 L891.4313,144.2271 L891.4887,154.3327 L891.9091,164.4383 L891.0782,174.5438 L892.7382,184.6494 L891.1596,194.755 L891.7363,204.8605 L892.5759,214.9661 L891.8856,225.0716 L892.091,235.1772 L891.9574,245.2828 L892.238,255.3883 L892.3188,265.4939 L892.7809,275.5995 L892.8947,285.705 L892.9057,295.8106 L892.3395,305.9162 L892.6181,316.0217 L892.9363,326.1273 L891.0384,336.2329 L892.9047,346.3384 L891.6047,356.444 L892.7117,366.5495 L891.34,376.6551 L891.9087,386.7607 L892.9888,396.8662 L891.935,406.9718 L892.1404,417.0774 L892.4515,427.1829 L892.555,437.2885 L891.9948,447.3941 L892.383,457.4996 L891.2368,467.6052 L892.3792,477.7107 L892.7309,487.8163 L892,497.9219 " fill="none" style="stroke:#383838;stroke-width:1.0;stroke-dasharray:5.0,5.0;"/><polygon fill="#F8F8F8" points="5,36,5,36.2102,14.8667,35.5857,24.7333,36.1933,34.6,36.3997,44.4667,35.2866,54.3333,35.9223,64.2,35.5735,74.0667,35.6165,83.9333,35.9318,93.8,35.3086,103.6667,36.5536,113.5333,35.3697,123.4,35.8022,133.2667,36.4319,143.1333,35.9142,153,36,153.0682,36,152.9681,45.3188,153.1785,54.6375,153.2391,63.9563,153.5857,73.275,153,82.5938,153,83.2648,143.1333,83.273,133.2667,82.8484,123.4,83.0573,113.5333,83.296,103.6667,81.8726,93.8,83.2723,83.9333,82.2972,74.0667,83.1276,64.2,82.0987,54.3333,82.5253,44.4667,83.3354,34.6,82.545,24.7333,82.6991,14.8667,82.9324,5,82.5938,5.4162,82.5938,4.9961,73.275,5.2872,63.9563,4.4276,54.6375,5.2844,45.3188,5,36" style="stroke:#383838;stroke-width:1.5;"/><text fill="#000000" font-family="FG Virgil" font-size="14" font-style="italic" lengthAdjust="spacing" textLength="108" x="25" y="55.9951">«presentation»</text><text fill="#000000" font-family="FG Virgil" font-size="14" lengthAdjust="spacing" textLength="134" x="12" y="72.292">ConsultarTarefasUI</text><polygon fill="#F8F8F8" points="5,496.9219,5,497.1321,14.8667,496.5076,24.7333,497.1152,34.6,497.3216,44.4667,496.2085,54.3333,496.8442,64.2,496.4954,74.0667,496.5384,83.9333,496.8537,93.8,496.2305,103.6667,497.4755,113.5333,496.2916,123.4,496.7241,133.2667,497.3538,143.1333,496.8361,153,496.9219,153.0682,496.9219,152.9681,506.2406,153.1785,515.5594,153.2391,524.8781,153.5857,534.1969,153,543.5156,153,544.1867,143.1333,544.1949,133.2667,543.7703,123.4,543.9792,113.5333,544.2179,103.6667,542.7944,93.8,544.1941,83.9333,543.2191,74.0667,544.0494,64.2,543.0206,54.3333,543.4471,44.4667,544.2572,34.6,543.4669,24.7333,543.6209,14.8667,543.8543,5,543.5156,5.4162,543.5156,4.9961,534.1969,5.2872,524.8781,4.4276,515.5594,5.2844,506.2406,5,496.9219" style="stroke:#383838;stroke-width:1.5;"/><text fill="#000000" font-family="FG Virgil" font-size="14" font-style="italic" lengthAdjust="spacing" textLength="108" x="25" y="516.917">«presentation»</text><text fill="#000000" font-family="FG Virgil" font-size="14" lengthAdjust="spacing" textLength="134" x="12" y="533.2139">ConsultarTarefasUI</text><text fill="#000000" font-family="FG Virgil" font-size="14" font-style="italic" lengthAdjust="spacing" textLength="97" x="211.5" y="63.9951">«application»</text><text fill="#000000" font-family="FG Virgil" font-size="14" lengthAdjust="spacing" textLength="194" x="163" y="80.292">ConsultarTarefasController</text><polygon fill="#F8F8F8" points="275.0663,37.9189,273.3073,40.3223,271.2268,43.8426,268.2512,46.215,265.1244,47.5123,262.6313,47.6249,259.4269,46.0024,256.4035,44.9425,254.1086,42.7904,252.9048,40.3267,252.1909,38.3649,251.4915,35.8026,250.3564,33.5976,251.2287,31.4447,251.9929,29.0864,254.8611,27.2212,256.8789,24.8012,259.3764,23.9976,262.3456,23.3055,266.1532,23.7167,268.2386,24.7002,270.6633,25.146,273.6115,28.1665,274.6392,31.3552,275.0857,33.5309,274.58,37.1162" style="stroke:#383838;stroke-width:2.0;"/><polygon fill="#383838" points="259,23,259.0449,23.0538,260.1116,21.8939,261.4412,21.0495,262.6853,20.1023,263.6478,18.8173,265,18,264.9759,17.9904,264.468,18.9472,264.0813,19.9525,263.7789,20.9916,263.186,21.9144,263,23,263.1713,23.0685,263.2049,23.922,263.7388,24.9755,264.3337,26.0535,264.5735,26.9894,265,28,265.0146,28.0175,263.7932,26.9918,262.6381,26.0457,261.451,25.0612,260.325,24.15,259,23" style="stroke:#383838;stroke-width:1.0;"/><text fill="#000000" font-family="FG Virgil" font-size="14" font-style="italic" lengthAdjust="spacing" textLength="97" x="211.5" y="509.917">«application»</text><text fill="#000000" font-family="FG Virgil" font-size="14" lengthAdjust="spacing" textLength="194" x="163" y="526.2139">ConsultarTarefasController</text><polygon fill="#F8F8F8" points="275.0663,548.4345,273.3073,550.8379,271.2268,554.3582,268.2512,556.7306,265.1244,558.0279,262.6313,558.1405,259.4269,556.518,256.4035,555.4581,254.1086,553.306,252.9048,550.8423,252.1909,548.8806,251.4915,546.3182,250.3564,544.1132,251.2287,541.9604,251.9929,539.6021,254.8611,537.7369,256.8789,535.3168,259.3764,534.5132,262.3456,533.8211,266.1532,534.2323,268.2386,535.2158,270.6633,535.6616,273.6115,538.6821,274.6392,541.8708,275.0857,544.0466,274.58,547.6319" style="stroke:#383838;stroke-width:2.0;"/><polygon fill="#383838" points="259,533.5156,259.0449,533.5694,260.1116,532.4095,261.4412,531.5651,262.6853,530.618,263.6478,529.3329,265,528.5156,264.9759,528.506,264.468,529.4628,264.0813,530.4681,263.7789,531.5072,263.186,532.43,263,533.5156,263.1713,533.5842,263.2049,534.4376,263.7388,535.4911,264.3337,536.5691,264.5735,537.505,265,538.5156,265.0146,538.5331,263.7932,537.5074,262.6381,536.5613,261.451,535.5769,260.325,534.6656,259,533.5156" style="stroke:#383838;stroke-width:1.0;"/><polygon fill="#F8F8F8" points="373,36,373,36.2102,382.8125,35.5857,392.625,36.1933,402.4375,36.3997,412.25,35.2866,422.0625,35.9223,431.875,35.5735,441.6875,35.6165,451.5,35.9318,461.3125,35.3086,471.125,36.5536,480.9375,35.3697,490.75,35.8022,500.5625,36.4319,510.375,35.9142,520.1875,36.0682,530,36,529.9681,36,530.1785,45.3188,530.2391,54.6375,530.5857,63.9563,530.6711,73.275,530,82.5938,530,83.273,520.1875,82.8484,510.375,83.0573,500.5625,83.296,490.75,81.8726,480.9375,83.2723,471.125,82.2972,461.3125,83.1276,451.5,82.0987,441.6875,82.5253,431.875,83.3354,422.0625,82.545,412.25,82.6991,402.4375,82.9324,392.625,83.01,382.8125,82.5898,373,82.5938,373.2872,82.5938,372.4276,73.275,373.2844,63.9563,373.5482,54.6375,373.4445,45.3188,373,36" style="stroke:#383838;stroke-width:1.5;"/><text fill="#000000" font-family="FG Virgil" font-size="14" font-style="italic" lengthAdjust="spacing" textLength="100" x="401.5" y="55.9951">«persistence»</text><text fill="#000000" font-family="FG Virgil" font-size="14" lengthAdjust="spacing" textLength="143" x="380" y="72.292">PersistenceContext</text><polygon fill="#F8F8F8" points="373,496.9219,373,497.1321,382.8125,496.5076,392.625,497.1152,402.4375,497.3216,412.25,496.2085,422.0625,496.8442,431.875,496.4954,441.6875,496.5384,451.5,496.8537,461.3125,496.2305,471.125,497.4755,480.9375,496.2916,490.75,496.7241,500.5625,497.3538,510.375,496.8361,520.1875,496.9901,530,496.9219,529.9681,496.9219,530.1785,506.2406,530.2391,515.5594,530.5857,524.8781,530.6711,534.1969,530,543.5156,530,544.1949,520.1875,543.7703,510.375,543.9792,500.5625,544.2179,490.75,542.7944,480.9375,544.1941,471.125,543.2191,461.3125,544.0494,451.5,543.0206,441.6875,543.4471,431.875,544.2572,422.0625,543.4669,412.25,543.6209,402.4375,543.8543,392.625,543.9319,382.8125,543.5117,373,543.5156,373.2872,543.5156,372.4276,534.1969,373.2844,524.8781,373.5482,515.5594,373.4445,506.2406,373,496.9219" style="stroke:#383838;stroke-width:1.5;"/><text fill="#000000" font-family="FG Virgil" font-size="14" font-style="italic" lengthAdjust="spacing" textLength="100" x="401.5" y="516.917">«persistence»</text><text fill="#000000" font-family="FG Virgil" font-size="14" lengthAdjust="spacing" textLength="143" x="380" y="533.2139">PersistenceContext</text><polygon fill="#F8F8F8" points="540,36,540,36.2102,549.8,35.5857,559.6,36.1933,569.4,36.3997,579.2,35.2866,589,35.9223,598.8,35.5735,608.6,35.6165,618.4,35.9318,628.2,35.3086,638,36.5536,647.8,35.3697,657.6,35.8022,667.4,36.4319,677.2,35.9142,687,36,687.0682,36,686.9681,45.3188,687.1785,54.6375,687.2391,63.9563,687.5857,73.275,687,82.5938,687,83.2648,677.2,83.273,667.4,82.8484,657.6,83.0573,647.8,83.296,638,81.8726,628.2,83.2723,618.4,82.2972,608.6,83.1276,598.8,82.0987,589,82.5253,579.2,83.3354,569.4,82.545,559.6,82.6991,549.8,82.9324,540,82.5938,540.4162,82.5938,539.9961,73.275,540.2872,63.9563,539.4276,54.6375,540.2844,45.3188,540,36" style="stroke:#383838;stroke-width:1.5;"/><text fill="#000000" font-family="FG Virgil" font-size="14" font-style="italic" lengthAdjust="spacing" textLength="68" x="579.5" y="55.9951">«factory»</text><text fill="#000000" font-family="FG Virgil" font-size="14" lengthAdjust="spacing" textLength="133" x="547" y="72.292">RepositoryFactory</text><polygon fill="#F8F8F8" points="540,496.9219,540,497.1321,549.8,496.5076,559.6,497.1152,569.4,497.3216,579.2,496.2085,589,496.8442,598.8,496.4954,608.6,496.5384,618.4,496.8537,628.2,496.2305,638,497.4755,647.8,496.2916,657.6,496.7241,667.4,497.3538,677.2,496.8361,687,496.9219,687.0682,496.9219,686.9681,506.2406,687.1785,515.5594,687.2391,524.8781,687.5857,534.1969,687,543.5156,687,544.1867,677.2,544.1949,667.4,543.7703,657.6,543.9792,647.8,544.2179,638,542.7944,628.2,544.1941,618.4,543.2191,608.6,544.0494,598.8,543.0206,589,543.4471,579.2,544.2572,569.4,543.4669,559.6,543.6209,549.8,543.8543,540,543.5156,540.4162,543.5156,539.9961,534.1969,540.2872,524.8781,539.4276,515.5594,540.2844,506.2406,540,496.9219" style="stroke:#383838;stroke-width:1.5;"/><text fill="#000000" font-family="FG Virgil" font-size="14" font-style="italic" lengthAdjust="spacing" textLength="68" x="579.5" y="516.917">«factory»</text><text fill="#000000" font-family="FG Virgil" font-size="14" lengthAdjust="spacing" textLength="133" x="547" y="533.2139">RepositoryFactory</text><text fill="#000000" font-family="FG Virgil" font-size="14" font-style="italic" lengthAdjust="spacing" textLength="90" x="707" y="63.9951">«repository»</text><text fill="#000000" font-family="FG Virgil" font-size="14" lengthAdjust="spacing" textLength="110" x="697" y="80.292">UserRepository</text><path d="M737,15 L737,15 L737.0651,15.067 L738.6716,13.118 L740.6599,11.5616 L742.5238,9.8774 L743.979,7.7727 L746,6.25 L745.9952,6.2158 L747.7739,5.8122 L749.5766,5.5812 L751.3958,5.47 L753.1577,4.9456 L755,5 L755,5 L755.0339,5.2437 L756.7615,4.9725 L758.5879,5.4129 L760.4264,5.9402 L762.1948,5.9622 L764,6.25 L764.0211,6.2717 L765.7901,7.9898 L767.6553,9.8069 L769.4741,11.5762 L771.3815,13.4366 L773,15 L773.5965,15 L773.6038,20.2 L773.2263,25.4 L773.4121,30.6 L773.6242,35.8 L773,41 L773,41 L772.7766,40.7702 L771.4102,42.9662 L769.3081,44.4055 L767.7654,46.4201 L765.6466,47.8423 L764,49.75 L763.9958,49.7198 L762.2453,50.3265 L760.397,50.2285 L758.6064,50.5464 L756.8207,50.8991 L755,51 L755,51 L755.0254,51.1832 L753.1998,50.7483 L751.4176,50.6264 L749.565,49.998 L747.8174,50.1252 L746,49.75 L746.1698,49.9247 L744.3377,48.1417 L742.5899,46.4453 L740.4503,44.3461 L738.5979,42.5422 L737,41 L736.4476,41 L736.9477,35.8 L736.8253,30.6 L737.6057,25.4 L736.8447,20.2 L737,15 " fill="#F8F8F8" style="stroke:#000000;stroke-width:1.5;"/><path d="M737,15 L737,15 L737.0651,15.067 L738.6716,16.618 L740.6599,18.5616 L742.5238,20.3774 L743.979,21.7727 L746,23.75 L745.9952,23.7158 L747.7739,23.8122 L749.5766,24.0812 L751.3958,24.47 L753.1577,24.4456 L755,25 L755,25 L755.0339,25.2437 L756.7615,24.4725 L758.5879,24.4129 L760.4264,24.4402 L762.1948,23.9622 L764,23.75 L764.0211,23.7717 L765.7901,21.9898 L767.6553,20.3069 L769.4741,18.5762 L771.3815,16.9366 L773,15 " fill="none" style="stroke:#000000;stroke-width:1.5;"/><text fill="#000000" font-family="FG Virgil" font-size="14" font-style="italic" lengthAdjust="spacing" textLength="90" x="707" y="509.917">«repository»</text><text fill="#000000" font-family="FG Virgil" font-size="14" lengthAdjust="spacing" textLength="110" x="697" y="526.2139">UserRepository</text><path d="M737,539.5156 L737,539.5156 L737.0651,539.5826 L738.6716,537.6336 L740.6599,536.0772 L742.5238,534.393 L743.979,532.2883 L746,530.7656 L745.9952,530.7314 L747.7739,530.3279 L749.5766,530.0968 L751.3958,529.9856 L753.1577,529.4613 L755,529.5156 L755,529.5156 L755.0339,529.7593 L756.7615,529.4882 L758.5879,529.9286 L760.4264,530.4558 L762.1948,530.4779 L764,530.7656 L764.0211,530.7874 L765.7901,532.5054 L767.6553,534.3225 L769.4741,536.0918 L771.3815,537.9523 L773,539.5156 L773.5965,539.5156 L773.6038,544.7156 L773.2263,549.9156 L773.4121,555.1156 L773.6242,560.3156 L773,565.5156 L773,565.5156 L772.7766,565.2858 L771.4102,567.4818 L769.3081,568.9211 L767.7654,570.9357 L765.6466,572.3579 L764,574.2656 L763.9958,574.2355 L762.2453,574.8421 L760.397,574.7442 L758.6064,575.062 L756.8207,575.4147 L755,575.5156 L755,575.5156 L755.0254,575.6989 L753.1998,575.2639 L751.4176,575.1421 L749.565,574.5136 L747.8174,574.6408 L746,574.2656 L746.1698,574.4403 L744.3377,572.6573 L742.5899,570.961 L740.4503,568.8617 L738.5979,567.0578 L737,565.5156 L736.4476,565.5156 L736.9477,560.3156 L736.8253,555.1156 L737.6057,549.9156 L736.8447,544.7156 L737,539.5156 " fill="#F8F8F8" style="stroke:#000000;stroke-width:1.5;"/><path d="M737,539.5156 L737,539.5156 L737.0651,539.5826 L738.6716,541.1336 L740.6599,543.0772 L742.5238,544.893 L743.979,546.2883 L746,548.2656 L745.9952,548.2314 L747.7739,548.3279 L749.5766,548.5968 L751.3958,548.9856 L753.1577,548.9613 L755,549.5156 L755,549.5156 L755.0339,549.7593 L756.7615,548.9882 L758.5879,548.9286 L760.4264,548.9558 L762.1948,548.4779 L764,548.2656 L764.0211,548.2874 L765.7901,546.5054 L767.6553,544.8225 L769.4741,543.0918 L771.3815,541.4523 L773,539.5156 " fill="none" style="stroke:#000000;stroke-width:1.5;"/><text fill="#000000" font-family="FG Virgil" font-size="14" font-style="italic" lengthAdjust="spacing" textLength="90" x="844" y="63.9951">«repository»</text><text fill="#000000" font-family="FG Virgil" font-size="14" lengthAdjust="spacing" textLength="132" x="823" y="80.292">ServicoRepository</text><path d="M874,15 L874,15 L874.0651,15.067 L875.6716,13.118 L877.6599,11.5616 L879.5238,9.8774 L880.979,7.7727 L883,6.25 L882.9952,6.2158 L884.7739,5.8122 L886.5766,5.5812 L888.3958,5.47 L890.1577,4.9456 L892,5 L892,5 L892.0339,5.2437 L893.7615,4.9725 L895.5879,5.4129 L897.4264,5.9402 L899.1948,5.9622 L901,6.25 L901.0211,6.2717 L902.7901,7.9898 L904.6553,9.8069 L906.4741,11.5762 L908.3815,13.4366 L910,15 L910.5965,15 L910.6038,20.2 L910.2263,25.4 L910.4121,30.6 L910.6242,35.8 L910,41 L910,41 L909.7766,40.7702 L908.4102,42.9662 L906.3081,44.4055 L904.7654,46.4201 L902.6466,47.8423 L901,49.75 L900.9958,49.7198 L899.2453,50.3265 L897.397,50.2285 L895.6064,50.5464 L893.8207,50.8991 L892,51 L892,51 L892.0254,51.1832 L890.1998,50.7483 L888.4176,50.6264 L886.565,49.998 L884.8174,50.1252 L883,49.75 L883.1698,49.9247 L881.3377,48.1417 L879.5899,46.4453 L877.4503,44.3461 L875.5979,42.5422 L874,41 L873.4476,41 L873.9477,35.8 L873.8253,30.6 L874.6057,25.4 L873.8447,20.2 L874,15 " fill="#F8F8F8" style="stroke:#000000;stroke-width:1.5;"/><path d="M874,15 L874,15 L874.0651,15.067 L875.6716,16.618 L877.6599,18.5616 L879.5238,20.3774 L880.979,21.7727 L883,23.75 L882.9952,23.7158 L884.7739,23.8122 L886.5766,24.0812 L888.3958,24.47 L890.1577,24.4456 L892,25 L892,25 L892.0339,25.2437 L893.7615,24.4725 L895.5879,24.4129 L897.4264,24.4402 L899.1948,23.9622 L901,23.75 L901.0211,23.7717 L902.7901,21.9898 L904.6553,20.3069 L906.4741,18.5762 L908.3815,16.9366 L910,15 " fill="none" style="stroke:#000000;stroke-width:1.5;"/><text fill="#000000" font-family="FG Virgil" font-size="14" font-style="italic" lengthAdjust="spacing" textLength="90" x="844" y="509.917">«repository»</text><text fill="#000000" font-family="FG Virgil" font-size="14" lengthAdjust="spacing" textLength="132" x="823" y="526.2139">ServicoRepository</text><path d="M874,539.5156 L874,539.5156 L874.0651,539.5826 L875.6716,537.6336 L877.6599,536.0772 L879.5238,534.393 L880.979,532.2883 L883,530.7656 L882.9952,530.7314 L884.7739,530.3279 L886.5766,530.0968 L888.3958,529.9856 L890.1577,529.4613 L892,529.5156 L892,529.5156 L892.0339,529.7593 L893.7615,529.4882 L895.5879,529.9286 L897.4264,530.4558 L899.1948,530.4779 L901,530.7656 L901.0211,530.7874 L902.7901,532.5054 L904.6553,534.3225 L906.4741,536.0918 L908.3815,537.9523 L910,539.5156 L910.5965,539.5156 L910.6038,544.7156 L910.2263,549.9156 L910.4121,555.1156 L910.6242,560.3156 L910,565.5156 L910,565.5156 L909.7766,565.2858 L908.4102,567.4818 L906.3081,568.9211 L904.7654,570.9357 L902.6466,572.3579 L901,574.2656 L900.9958,574.2355 L899.2453,574.8421 L897.397,574.7442 L895.6064,575.062 L893.8207,575.4147 L892,575.5156 L892,575.5156 L892.0254,575.6989 L890.1998,575.2639 L888.4176,575.1421 L886.565,574.5136 L884.8174,574.6408 L883,574.2656 L883.1698,574.4403 L881.3377,572.6573 L879.5899,570.961 L877.4503,568.8617 L875.5979,567.0578 L874,565.5156 L873.4476,565.5156 L873.9477,560.3156 L873.8253,555.1156 L874.6057,549.9156 L873.8447,544.7156 L874,539.5156 " fill="#F8F8F8" style="stroke:#000000;stroke-width:1.5;"/><path d="M874,539.5156 L874,539.5156 L874.0651,539.5826 L875.6716,541.1336 L877.6599,543.0772 L879.5238,544.893 L880.979,546.2883 L883,548.2656 L882.9952,548.2314 L884.7739,548.3279 L886.5766,548.5968 L888.3958,548.9856 L890.1577,548.9613 L892,549.5156 L892,549.5156 L892.0339,549.7593 L893.7615,548.9882 L895.5879,548.9286 L897.4264,548.9558 L899.1948,548.4779 L901,548.2656 L901.0211,548.2874 L902.7901,546.5054 L904.6553,544.8225 L906.4741,543.0918 L908.3815,541.4523 L910,539.5156 " fill="none" style="stroke:#000000;stroke-width:1.5;"/><polygon fill="#FFFFFF" points="74,93.5938,74,93.6638,76,93.4556,78,93.6582,80,93.727,82,93.356,84,93.5938,83.9223,93.5938,83.5735,103.4996,83.6165,113.4054,83.9318,123.3113,83.3086,133.2171,84.5536,143.123,83.3697,153.0288,83.8022,162.9347,84.4319,172.8405,83.9142,182.7464,84.0682,192.6522,83.9681,202.5581,84.1785,212.4639,84.2391,222.3698,84.5857,232.2756,84.6711,242.1815,84.6793,252.0873,84.2546,261.9932,84.4636,271.899,84.7022,281.8049,83.2788,291.7107,84.6785,301.6166,83.7035,311.5224,84.5338,321.4283,83.505,331.3341,83.9315,341.24,84.7416,351.1458,83.9513,361.0517,84.1053,370.9575,84.3386,380.8634,84.4162,390.7692,83.9961,400.6751,84.2872,410.5809,83.4276,420.4868,84.2844,430.3926,84.5482,440.2985,84.4445,450.2043,84.613,460.1102,83.5169,470.016,84,479.9219,84,479.7045,82,479.7147,80,479.9022,78,479.8564,76,480.149,74,479.9219,73.8253,479.9219,73.6569,470.016,74.2283,460.1102,73.3332,450.2043,73.4809,440.2985,74.649,430.3926,74.4357,420.4868,74.7345,410.5809,73.6782,400.6751,74.3192,390.7692,74.5904,380.8634,73.5276,370.9575,73.9041,361.0517,74.126,351.1458,74.6518,341.24,73.9958,331.3341,74.4626,321.4283,73.4462,311.5224,73.3227,301.6166,74.5036,291.7107,73.2831,281.8049,74.509,271.899,74.2066,261.9932,73.7321,252.0873,73.6462,242.1815,74.4588,232.2756,73.7007,222.3698,74.5919,212.4639,73.4473,202.5581,74.6174,192.6522,74.4843,182.7464,74.245,172.8405,74.0472,162.9347,74.7266,153.0288,74.6136,143.123,74.1693,133.2171,74.2682,123.3113,73.8697,113.4054,74.7165,103.4996,74,93.5938" style="stroke:#383838;stroke-width:1.0;"/><polygon fill="#FFFFFF" points="258,156.8594,258,156.9294,260,156.7213,262,156.9238,264,156.9926,266,156.6216,268,156.8594,267.9223,156.8594,267.5735,166.6529,267.6165,176.4464,267.9318,186.24,267.3086,196.0335,268.5536,205.827,267.3697,215.6205,267.8022,225.4141,268.4319,235.2076,267.9142,245.0011,268.0682,254.7946,267.9681,264.5882,268.1785,274.3817,268.2391,284.1752,268.5857,293.9688,268.6711,303.7623,268.6793,313.5558,268.2546,323.3493,268.4636,333.1429,268.7022,342.9364,267.2788,352.7299,268,362.5234,268,362.7496,266,362.4246,264,362.7014,262,362.3584,260,362.5006,258,362.5234,258.7416,362.5234,257.9513,352.7299,258.1053,342.9364,258.3386,333.1429,258.4162,323.3493,257.9961,313.5558,258.2872,303.7623,257.4276,293.9688,258.2844,284.1752,258.5482,274.3817,258.4445,264.5882,258.613,254.7946,257.5169,245.0011,257.3478,235.2076,257.3786,225.4141,257.9411,215.6205,257.8035,205.827,258.6814,196.0335,257.8253,186.24,257.6569,176.4464,258.2283,166.6529,258,156.8594" style="stroke:#383838;stroke-width:1.0;"/><polygon fill="#FFFFFF" points="258,391.6563,258,391.7263,260,391.5181,262,391.7207,264,391.7895,266,391.4185,268,391.6563,267.9223,391.6563,267.5735,401.4635,267.6165,411.2708,267.9318,421.0781,267.3086,430.8854,268.5536,440.6927,267.3697,450.5,267.8022,460.3073,268.4319,470.1146,268,479.9219,268,479.8933,266,479.9446,264,479.9112,262,479.9814,260,480.0016,258,479.9219,258.5857,479.9219,258.6711,470.1146,258.6793,460.3073,258.2546,450.5,258.4636,440.6927,258.7022,430.8854,257.2788,421.0781,258.6785,411.2708,257.7035,401.4635,258,391.6563" style="stroke:#383838;stroke-width:1.0;"/><polygon fill="#FFFFFF" points="446.5,185.9922,446.5,186.0622,448.5,185.8541,450.5,186.0566,452.5,186.1254,454.5,185.7544,456.5,185.9922,456.4223,185.9922,456.0735,195.7995,456.1165,205.6068,456.4318,215.4141,455.8086,225.2214,457.0536,235.0286,455.8697,244.8359,456.3022,254.6432,456.9319,264.4505,456.5,274.2578,456.5,274.2292,454.5,274.2806,452.5,274.2472,450.5,274.3173,448.5,274.3375,446.5,274.2578,447.0857,274.2578,447.1711,264.4505,447.1793,254.6432,446.7546,244.8359,446.9636,235.0286,447.2022,225.2214,445.7788,215.4141,447.1785,205.6068,446.2035,195.7995,446.5,185.9922" style="stroke:#383838;stroke-width:1.0;"/><polygon fill="#FFFFFF" points="608.5,215.125,608.5,215.1951,610.5,214.9869,612.5,215.1894,614.5,215.2582,616.5,214.8872,618.5,215.125,618.4223,215.125,618.0735,224.9805,618.1165,234.8359,618.4318,244.6914,617.8086,254.5469,619.0536,264.4023,618.5,274.2578,618.5,274.0477,616.5,274.1919,614.5,274.4018,612.5,274.2292,610.5,274.2806,608.5,274.2578,608.4681,274.2578,608.6785,264.4023,608.7391,254.5469,609.0857,244.6914,609.1711,234.8359,609.1793,224.9805,608.5,215.125" style="stroke:#383838;stroke-width:1.0;"/><polygon fill="#FFFFFF" points="887,244.2578,887,244.3279,889,244.1197,891,244.3222,893,244.391,895,244.02,897,244.2578,896.9741,244.2578,896.8578,250.2578,896.8722,256.2578,896.9773,262.2578,896.7695,268.2578,897,274.2578,897,274.4424,895,274.0477,893,274.1919,891,274.4018,889,274.2292,887,274.2578,887.0227,274.2578,886.9894,268.2578,887.0595,262.2578,887.0797,256.2578,887.1952,250.2578,887,244.2578" style="stroke:#383838;stroke-width:1.0;"/><polygon fill="#FFFFFF" points="887,303.3906,887,303.4607,889,303.2525,891,303.4551,893,303.5239,895,303.1528,897,303.3906,896.9741,303.3906,896.8578,309.3906,896.8722,315.3906,896.9773,321.3906,896.7695,327.3906,897,333.3906,897,333.5752,895,333.1805,893,333.3247,891,333.5346,889,333.362,887,333.3906,887.0227,333.3906,886.9894,327.3906,887.0595,321.3906,887.0797,315.3906,887.1952,309.3906,887,303.3906" style="stroke:#383838;stroke-width:1.0;"/><polygon fill="#FFFFFF" points="887,420.7891,887,420.8591,889,420.651,891,420.8535,893,420.9223,895,420.5513,897,420.7891,896.9741,420.7891,896.8578,426.7891,896.8722,432.7891,896.9773,438.7891,896.7695,444.7891,897,450.7891,897,450.9736,895,450.579,893,450.7231,891,450.933,889,450.7605,887,450.7891,887.0227,450.7891,886.9894,444.7891,887.0595,438.7891,887.0797,432.7891,887.1952,426.7891,887,420.7891" style="stroke:#383838;stroke-width:1.0;"/><path d="M84,114.7266 L84,114.82 L92.4,114.5424 L100.8,114.8125 L109.2,114.9042 L117.6,114.4095 L126,114.7266 " fill="none" style="stroke:#383838;stroke-width:1.0;"/><path d="M126,114.7266 L126.0934,114.7266 L125.8159,117.3266 L126.0859,119.9266 L126.1776,122.5266 L125.6829,125.1266 L126,127.7266 " fill="none" style="stroke:#383838;stroke-width:1.0;"/><path d="M85,127.7266 L85,127.82 L93.2,127.5424 L101.4,127.8125 L109.6,127.9042 L117.8,127.4095 L126,127.7266 " fill="none" style="stroke:#383838;stroke-width:1.0;"/><polygon fill="#383838" points="95,123.7266,95.026,123.7916,92.9487,124.3983,91.0239,125.3864,89.0495,126.2503,86.9117,126.7058,85,127.7266,84.9904,127.7025,86.9472,128.3946,88.9525,129.2079,90.9916,130.1055,92.9144,130.7126,95,131.7266,95.1305,131.8571,94.0514,130.778,93.3534,130.0799,92.7018,129.4284,91.7798,128.5063,91,127.7266,91.0161,127.7426,91.7925,126.919,92.6421,126.1686,93.4564,125.3829,94.338,124.6646,95,123.7266" style="stroke:#383838;stroke-width:1.0;"/><text fill="#000000" font-family="FG Virgil" font-size="13" lengthAdjust="spacing" textLength="61" x="91" y="109.6606">doShow()</text><polygon fill="#383838" points="246,152.8594,246.026,152.9244,247.9487,153.5311,250.0239,154.5192,252.0495,155.3831,253.9117,155.8386,256,156.8594,255.9904,156.8353,253.9472,157.5274,251.9525,158.3407,249.9916,159.2383,247.9144,159.8454,246,160.8594,246.1305,160.9899,246.6514,159.9108,247.5534,159.2128,248.5018,158.5612,249.1798,157.6392,250,156.8594,250.0161,156.8755,249.1925,156.0518,248.4421,155.3015,247.6564,154.5157,246.938,153.7974,246,152.8594" style="stroke:#383838;stroke-width:1.0;"/><path d="M84,156.8594 L84,157.1396 L93.8824,156.3069 L103.7647,157.1171 L113.6471,157.3923 L123.5294,155.9082 L133.4118,156.7558 L143.2941,156.2907 L153.1765,156.348 L163.0588,156.7685 L172.9412,155.9375 L182.8235,157.5976 L192.7059,156.019 L202.5882,156.5957 L212.4706,157.4353 L222.3529,156.745 L232.2353,156.9504 L242.1176,156.8168 L252,156.8594 " fill="none" style="stroke:#383838;stroke-width:1.0;"/><text fill="#000000" font-family="FG Virgil" font-size="13" lengthAdjust="spacing" textLength="82" x="91" y="151.7935">listServicos()</text><polygon fill="#383838" points="434.5,181.9922,434.526,182.0572,436.4487,182.664,438.5239,183.652,440.5495,184.5159,442.4117,184.9714,444.5,185.9922,444.4904,185.9681,442.4472,186.6602,440.4525,187.4735,438.4916,188.3711,436.4144,188.9782,434.5,189.9922,434.6305,190.1227,435.1514,189.0436,436.0534,188.3456,437.0018,187.694,437.6798,186.772,438.5,185.9922,438.5161,186.0083,437.6925,185.1847,436.9421,184.4343,436.1564,183.6486,435.438,182.9302,434.5,181.9922" style="stroke:#383838;stroke-width:1.0;"/><path d="M268,185.9922 L268,186.2724 L278.1471,185.4398 L288.2941,186.2499 L298.4412,186.5251 L308.5882,185.041 L318.7353,185.8886 L328.8824,185.4235 L339.0294,185.4809 L349.1765,185.9013 L359.3235,185.0704 L369.4706,186.7304 L379.6176,185.1518 L389.7647,185.7285 L399.9118,186.5681 L410.0588,185.8778 L420.2059,186.0832 L430.3529,185.9496 L440.5,185.9922 " fill="none" style="stroke:#383838;stroke-width:1.0;"/><text fill="#000000" font-family="FG Virgil" font-size="13" lengthAdjust="spacing" textLength="85" x="275" y="180.9263">repositories()</text><polygon fill="#383838" points="596.5,211.125,596.526,211.19,598.4487,211.7968,600.5239,212.7848,602.5495,213.6487,604.4117,214.1042,606.5,215.125,606.4904,215.1009,604.4472,215.793,602.4525,216.6063,600.4916,217.5039,598.4144,218.111,596.5,219.125,596.6305,219.2555,597.1514,218.1764,598.0534,217.4784,599.0018,216.8268,599.6798,215.9048,600.5,215.125,600.5161,215.1411,599.6925,214.3175,598.9421,213.5671,598.1564,212.7814,597.438,212.063,596.5,211.125" style="stroke:#383838;stroke-width:1.0;"/><path d="M456.5,215.125 L456.5,215.4052 L466.2333,214.5726 L475.9667,215.3827 L485.7,215.6579 L495.4333,214.1738 L505.1667,215.0214 L514.9,214.5563 L524.6333,214.6137 L534.3667,215.0341 L544.1,214.2032 L553.8333,215.8632 L563.5667,214.2846 L573.3,214.8613 L583.0333,215.7009 L592.7667,215.0106 L602.5,215.125 " fill="none" style="stroke:#383838;stroke-width:1.0;"/><text fill="#000000" font-family="FG Virgil" font-size="13" lengthAdjust="spacing" textLength="51" x="463.5" y="210.0591">create()</text><polygon fill="#383838" points="875,240.2578,875.026,240.3229,876.9487,240.9296,879.0239,241.9176,881.0495,242.7815,882.9117,243.237,885,244.2578,884.9904,244.2338,882.9472,244.9258,880.9525,245.7391,878.9916,246.6367,876.9144,247.2438,875,248.2578,875.1305,248.3883,875.6514,247.3093,876.5534,246.6112,877.5018,245.9596,878.1798,245.0376,879,244.2578,879.0161,244.2739,878.1925,243.4503,877.4421,242.6999,876.6564,241.9142,875.938,241.1959,875,240.2578" style="stroke:#383838;stroke-width:1.0;"/><path d="M618.5,244.2578 L618.5,244.5381 L628.5962,243.7054 L638.6923,244.5155 L648.7885,244.7907 L658.8846,243.3066 L668.9808,244.1542 L679.0769,243.6892 L689.1731,243.7465 L699.2692,244.1669 L709.3654,243.336 L719.4615,244.996 L729.5577,243.4174 L739.6538,243.9941 L749.75,244.8337 L759.8462,244.1434 L769.9423,244.3488 L780.0385,244.2152 L790.1346,244.4958 L800.2308,244.5767 L810.3269,245.0387 L820.4231,245.1526 L830.5192,245.1635 L840.6154,244.5973 L850.7115,244.8759 L860.8077,245.1941 L870.9038,243.2962 L881,244.2578 " fill="none" style="stroke:#383838;stroke-width:1.0;"/><text fill="#000000" font-family="FG Virgil" font-size="13" lengthAdjust="spacing" textLength="51" x="625.5" y="239.1919">create()</text><polygon fill="#383838" points="875,299.3906,875.026,299.4557,876.9487,300.0624,879.0239,301.0504,881.0495,301.9143,882.9117,302.3698,885,303.3906,884.9904,303.3666,882.9472,304.0586,880.9525,304.8719,878.9916,305.7695,876.9144,306.3767,875,307.3906,875.1305,307.5211,875.6514,306.4421,876.5534,305.744,877.5018,305.0924,878.1798,304.1704,879,303.3906,879.0161,303.4067,878.1925,302.5831,877.4421,301.8327,876.6564,301.047,875.938,300.3287,875,299.3906" style="stroke:#383838;stroke-width:1.0;"/><path d="M268,303.3906 L268,303.6709 L278.0492,302.8382 L288.0984,303.6483 L298.1475,303.9235 L308.1967,302.4394 L318.2459,303.287 L328.2951,302.822 L338.3443,302.8793 L348.3934,303.2997 L358.4426,302.4688 L368.4918,304.1288 L378.541,302.5503 L388.5902,303.1269 L398.6393,303.9666 L408.6885,303.2763 L418.7377,303.4816 L428.7869,303.348 L438.8361,303.6287 L448.8852,303.7095 L458.9344,304.1715 L468.9836,304.2854 L479.0328,304.2963 L489.082,303.7301 L499.1311,304.0087 L509.1803,304.3269 L519.2295,302.429 L529.2787,304.2953 L539.3279,302.9953 L549.377,304.1024 L559.4262,302.7306 L569.4754,303.2993 L579.5246,304.3794 L589.5738,303.3256 L599.623,303.531 L609.6721,303.8421 L619.7213,303.9456 L629.7705,303.3854 L639.8197,303.7736 L649.8689,302.6274 L659.918,303.7698 L669.9672,304.1216 L680.0164,303.9833 L690.0656,304.208 L700.1148,302.7465 L710.1639,302.521 L720.2131,302.5621 L730.2623,303.3121 L740.3115,303.1286 L750.3607,304.2992 L760.4098,303.1577 L770.459,302.9332 L780.5082,303.695 L790.5574,302.5015 L800.6066,302.6985 L810.6557,304.2559 L820.7049,303.9715 L830.7541,304.3699 L840.8033,302.9616 L850.8525,303.8162 L860.9016,304.1779 L870.9508,302.7608 L881,303.3906 " fill="none" style="stroke:#383838;stroke-width:1.0;"/><text fill="#000000" font-family="FG Virgil" font-size="13" lengthAdjust="spacing" textLength="49" x="275" y="298.3247">findAll()</text><polygon fill="#383838" points="95,358.5234,95.026,358.5885,92.9487,359.1952,91.0239,360.1833,89.0495,361.0471,86.9117,361.5026,85,362.5234,84.9904,362.4994,86.9472,363.1914,88.9525,364.0047,90.9916,364.9023,92.9144,365.5095,95,366.5234,95.1305,366.6539,94.0514,365.5749,93.3534,364.8768,92.7018,364.2252,91.7798,363.3032,91,362.5234,91.0161,362.5395,91.7925,361.7159,92.6421,360.9655,93.4564,360.1798,94.338,359.4615,95,358.5234" style="stroke:#383838;stroke-width:1.0;"/><path d="M89,362.5234 L89,362.8037 L99.1765,361.971 L109.3529,362.7812 L119.5294,363.0563 L129.7059,361.5722 L139.8824,362.4198 L150.0588,361.9548 L160.2353,362.0121 L170.4118,362.4326 L180.5882,361.6016 L190.7647,363.2616 L200.9412,361.6831 L211.1176,362.2597 L221.2941,363.0994 L231.4706,362.4091 L241.6471,362.6144 L251.8235,362.4808 L262,362.5234 " fill="none" style="stroke:#383838;stroke-width:1.0;"/><text fill="#000000" font-family="FG Virgil" font-size="13" lengthAdjust="spacing" textLength="80" x="101" y="357.4575">listaServicos</text><polygon fill="#383838" points="246,387.6563,246.026,387.7213,247.9487,388.328,250.0239,389.3161,252.0495,390.1799,253.9117,390.6355,256,391.6563,255.9904,391.6322,253.9472,392.3243,251.9525,393.1376,249.9916,394.0352,247.9144,394.6423,246,395.6563,246.1305,395.7867,246.6514,394.7077,247.5534,394.0096,248.5018,393.3581,249.1798,392.436,250,391.6563,250.0161,391.6723,249.1925,390.8487,248.4421,390.0983,247.6564,389.3126,246.938,388.5943,246,387.6563" style="stroke:#383838;stroke-width:1.0;"/><path d="M84,391.6563 L84,391.9365 L93.8824,391.1038 L103.7647,391.914 L113.6471,392.1892 L123.5294,390.7051 L133.4118,391.5526 L143.2941,391.0876 L153.1765,391.1449 L163.0588,391.5654 L172.9412,390.7344 L182.8235,392.3944 L192.7059,390.8159 L202.5882,391.3926 L212.4706,392.2322 L222.3529,391.5419 L232.2353,391.7472 L242.1176,391.6137 L252,391.6563 " fill="none" style="stroke:#383838;stroke-width:1.0;"/><text fill="#000000" font-family="FG Virgil" font-size="13" lengthAdjust="spacing" textLength="77" x="91" y="386.5903">listTarefas()</text><polygon fill="#383838" points="875,416.7891,875.026,416.8541,876.9487,417.4608,879.0239,418.4489,881.0495,419.3128,882.9117,419.7683,885,420.7891,884.9904,420.765,882.9472,421.4571,880.9525,422.2704,878.9916,423.168,876.9144,423.7751,875,424.7891,875.1305,424.9196,875.6514,423.8405,876.5534,423.1424,877.5018,422.4909,878.1798,421.5688,879,420.7891,879.0161,420.8051,878.1925,419.9815,877.4421,419.2311,876.6564,418.4454,875.938,417.7271,875,416.7891" style="stroke:#383838;stroke-width:1.0;"/><path d="M268,420.7891 L268,421.0693 L278.0492,420.2366 L288.0984,421.0468 L298.1475,421.322 L308.1967,419.8379 L318.2459,420.6854 L328.2951,420.2204 L338.3443,420.2777 L348.3934,420.6982 L358.4426,419.8672 L368.4918,421.5273 L378.541,419.9487 L388.5902,420.5254 L398.6393,421.365 L408.6885,420.6747 L418.7377,420.88 L428.7869,420.7465 L438.8361,421.0271 L448.8852,421.1079 L458.9344,421.57 L468.9836,421.6838 L479.0328,421.6947 L489.082,421.1286 L499.1311,421.4072 L509.1803,421.7254 L519.2295,419.8275 L529.2787,421.6937 L539.3279,420.3937 L549.377,421.5008 L559.4262,420.129 L569.4754,420.6977 L579.5246,421.7779 L589.5738,420.7241 L599.623,420.9295 L609.6721,421.2406 L619.7213,421.344 L629.7705,420.7839 L639.8197,421.172 L649.8689,420.0258 L659.918,421.1682 L669.9672,421.52 L680.0164,421.3818 L690.0656,421.6064 L700.1148,420.145 L710.1639,419.9195 L720.2131,419.9605 L730.2623,420.7106 L740.3115,420.527 L750.3607,421.6976 L760.4098,420.5562 L770.459,420.3317 L780.5082,421.0934 L790.5574,419.8999 L800.6066,420.0969 L810.6557,421.6543 L820.7049,421.37 L830.7541,421.7684 L840.8033,420.36 L850.8525,421.2147 L860.9016,421.5763 L870.9508,420.1592 L881,420.7891 " fill="none" style="stroke:#383838;stroke-width:1.0;"/><text fill="#000000" font-family="FG Virgil" font-size="13" lengthAdjust="spacing" textLength="196" x="275" y="415.7231">tarefasPendentes(listServicos)</text><polygon fill="#383838" points="90,475.9219,90.026,475.9869,87.9487,476.5936,86.0239,477.5817,84.0495,478.4456,81.9117,478.9011,80,479.9219,79.9904,479.8978,81.9472,480.5899,83.9525,481.4032,85.9916,482.3008,87.9144,482.9079,90,483.9219,90.1305,484.0524,89.0514,482.9733,88.3534,482.2753,87.7018,481.6237,86.7798,480.7017,86,479.9219,86.0161,479.938,86.7925,479.1143,87.6421,478.364,88.4564,477.5782,89.338,476.8599,90,475.9219" style="stroke:#383838;stroke-width:1.0;"/><path d="M84,479.9219 L84,480.2021 L93.8889,479.3694 L103.7778,480.1796 L113.6667,480.4548 L123.5556,478.9707 L133.4444,479.8183 L143.3333,479.3532 L153.2222,479.4105 L163.1111,479.831 L173,479 L182.8889,480.6601 L192.7778,479.0815 L202.6667,479.6582 L212.5556,480.4978 L222.4444,479.8075 L232.3333,480.0129 L242.2222,479.8793 L252.1111,480.1599 L262,479.9219 " fill="none" style="stroke:#383838;stroke-width:1.0;"/><text fill="#000000" font-family="FG Virgil" font-size="13" lengthAdjust="spacing" textLength="75" x="96" y="474.856">listaTarefas</text><!--MD5=[ee411a08c5af418503ce9ffaa93b0299]
@startuml
'http://plantuml.com/skinparam.html
skinparam handwritten true
skinparam monochrome true
skinparam packageStyle rect
skinparam defaultFontName FG Virgil
skinparam shadowing false

participant ConsultarTarefasUI as UI <<presentation>>
control ConsultarTarefasController as CTRL <<application>>
participant PersistenceContext as Persistence <<persistence>>
participant RepositoryFactory as Factory <<factory>>
database UserRepository as URepository <<repository>>
database ServicoRepository as SRepository <<repository>>

activate UI

UI -> UI : doShow()

UI -> CTRL: listServicos()
    activate CTRL
      CTRL -> Persistence: repositories()
    activate Persistence
      Persistence -> Factory: create()
    activate Factory
      Factory -> SRepository: create()
    activate SRepository
    deactivate Factory
    deactivate Persistence
        deactivate SRepository
      CTRL -> SRepository: findAll()
      activate SRepository
      deactivate SRepository
      CTRL -> UI: listaServicos
    deactivate CTRL

UI -> CTRL: listTarefas()
    activate CTRL
      CTRL -> SRepository: tarefasPendentes(listServicos)
      activate SRepository
      deactivate SRepository
      CTRL -> UI: listaTarefas
    deactivate CTRL
    
deactivate UI
@enduml

@startuml
skinparam handwritten true
skinparam monochrome true
skinparam packageStyle rect
skinparam defaultFontName FG Virgil
skinparam shadowing false

participant ConsultarTarefasUI as UI <<presentation>>
control ConsultarTarefasController as CTRL <<application>>
participant PersistenceContext as Persistence <<persistence>>
participant RepositoryFactory as Factory <<factory>>
database UserRepository as URepository <<repository>>
database ServicoRepository as SRepository <<repository>>

activate UI

UI -> UI : doShow()

UI -> CTRL: listServicos()
    activate CTRL
      CTRL -> Persistence: repositories()
    activate Persistence
      Persistence -> Factory: create()
    activate Factory
      Factory -> SRepository: create()
    activate SRepository
    deactivate Factory
    deactivate Persistence
        deactivate SRepository
      CTRL -> SRepository: findAll()
      activate SRepository
      deactivate SRepository
      CTRL -> UI: listaServicos
    deactivate CTRL

UI -> CTRL: listTarefas()
    activate CTRL
      CTRL -> SRepository: tarefasPendentes(listServicos)
      activate SRepository
      deactivate SRepository
      CTRL -> UI: listaTarefas
    deactivate CTRL
    
deactivate UI
@enduml

PlantUML version 1.2021.6beta6(Unknown compile time)
(GPL source distribution)
Java Runtime: Java(TM) SE Runtime Environment
JVM: Java HotSpot(TM) 64-Bit Server VM
Default Encoding: UTF-8
Language: en
Country: US
--></g></svg>