<?xml version="1.0" encoding="UTF-8" standalone="no"?><svg xmlns="http://www.w3.org/2000/svg" xmlns:xlink="http://www.w3.org/1999/xlink" contentScriptType="application/ecmascript" contentStyleType="text/css" height="250px" preserveAspectRatio="none" style="width:410px;height:250px;background:#FFFFFF;" version="1.1" viewBox="0 0 410 250" width="410px" zoomAndPan="magnify"><defs><filter height="300%" id="f10shf23tj2qpn" width="300%" x="-1" y="-1"><feGaussianBlur result="blurOut" stdDeviation="2.0"/><feColorMatrix in="blurOut" result="blurOut2" type="matrix" values="0 0 0 0 0 0 0 0 0 0 0 0 0 0 0 0 0 0 .4 0"/><feOffset dx="4.0" dy="4.0" in="blurOut2" result="blurOut3"/><feBlend in="SourceGraphic" in2="blurOut3" mode="normal"/></filter></defs><g><rect fill="#FFFFFF" filter="url(#f10shf23tj2qpn)" height="50.2656" style="stroke:#A80036;stroke-width:1.0;" width="10" x="37" y="98.2969"/><rect fill="#FFFFFF" filter="url(#f10shf23tj2qpn)" height="29.1328" style="stroke:#A80036;stroke-width:1.0;" width="10" x="355" y="119.4297"/><line style="stroke:#A80036;stroke-width:1.0;stroke-dasharray:5.0,5.0;" x1="42" x2="42" y1="88.2969" y2="166.5625"/><line style="stroke:#A80036;stroke-width:1.0;stroke-dasharray:5.0,5.0;" x1="359.5" x2="359.5" y1="88.2969" y2="166.5625"/><text fill="#000000" font-family="sans-serif" font-size="14" lengthAdjust="spacing" textLength="68" x="5" y="84.9951">Utilizador</text><ellipse cx="42" cy="15" fill="#FEFECE" filter="url(#f10shf23tj2qpn)" rx="8" ry="8" style="stroke:#A80036;stroke-width:2.0;"/><path d="M42,23 L42,50 M29,31 L55,31 M42,50 L29,65 M42,50 L55,65 " fill="none" filter="url(#f10shf23tj2qpn)" style="stroke:#A80036;stroke-width:2.0;"/><text fill="#000000" font-family="sans-serif" font-size="14" lengthAdjust="spacing" textLength="68" x="5" y="178.5576">Utilizador</text><ellipse cx="42" cy="191.8594" fill="#FEFECE" filter="url(#f10shf23tj2qpn)" rx="8" ry="8" style="stroke:#A80036;stroke-width:2.0;"/><path d="M42,199.8594 L42,226.8594 M29,207.8594 L55,207.8594 M42,226.8594 L29,241.8594 M42,226.8594 L55,241.8594 " fill="none" filter="url(#f10shf23tj2qpn)" style="stroke:#A80036;stroke-width:2.0;"/><rect fill="#FEFECE" filter="url(#f10shf23tj2qpn)" height="30.2969" style="stroke:#A80036;stroke-width:1.5;" width="77" x="319.5" y="53"/><text fill="#000000" font-family="sans-serif" font-size="14" lengthAdjust="spacing" textLength="63" x="326.5" y="72.9951">:Sistema</text><rect fill="#FEFECE" filter="url(#f10shf23tj2qpn)" height="30.2969" style="stroke:#A80036;stroke-width:1.5;" width="77" x="319.5" y="165.5625"/><text fill="#000000" font-family="sans-serif" font-size="14" lengthAdjust="spacing" textLength="63" x="326.5" y="185.5576">:Sistema</text><rect fill="#FFFFFF" filter="url(#f10shf23tj2qpn)" height="50.2656" style="stroke:#A80036;stroke-width:1.0;" width="10" x="37" y="98.2969"/><rect fill="#FFFFFF" filter="url(#f10shf23tj2qpn)" height="29.1328" style="stroke:#A80036;stroke-width:1.0;" width="10" x="355" y="119.4297"/><polygon fill="#A80036" points="343,115.4297,353,119.4297,343,123.4297,347,119.4297" style="stroke:#A80036;stroke-width:1.0;"/><line style="stroke:#A80036;stroke-width:1.0;" x1="47" x2="349" y1="119.4297" y2="119.4297"/><text fill="#000000" font-family="sans-serif" font-size="13" font-weight="bold" lengthAdjust="spacing" textLength="9" x="54" y="114.3638">1</text><text fill="#000000" font-family="sans-serif" font-size="13" lengthAdjust="spacing" textLength="247" x="67" y="114.3638">pretende consultar tarefas assignadas</text><polygon fill="#A80036" points="53,144.5625,43,148.5625,53,152.5625,49,148.5625" style="stroke:#A80036;stroke-width:1.0;"/><line style="stroke:#A80036;stroke-width:1.0;stroke-dasharray:2.0,2.0;" x1="47" x2="359" y1="148.5625" y2="148.5625"/><text fill="#000000" font-family="sans-serif" font-size="13" font-weight="bold" lengthAdjust="spacing" textLength="9" x="59" y="143.4966">2</text><text fill="#000000" font-family="sans-serif" font-size="13" lengthAdjust="spacing" textLength="271" x="72" y="143.4966">devolve a lista de tarefas coorespondente</text><!--MD5=[d891391aa5bef2702e83a30d88bad821]
@startuml
autonumber
actor "Utilizador" as USR

activate USR
USR -> ":Sistema" : pretende consultar tarefas assignadas
activate ":Sistema"
":Sistema" - -> USR : devolve a lista de tarefas coorespondente
deactivate ":Sistema"

deactivate USR
@enduml

PlantUML version 1.2021.6beta6(Unknown compile time)
(GPL source distribution)
Java Runtime: Java(TM) SE Runtime Environment
JVM: Java HotSpot(TM) 64-Bit Server VM
Default Encoding: UTF-8
Language: en
Country: US
--></g></svg>