<?xml version="1.0" encoding="UTF-8" standalone="no"?><svg xmlns="http://www.w3.org/2000/svg" xmlns:xlink="http://www.w3.org/1999/xlink" contentScriptType="application/ecmascript" contentStyleType="text/css" height="367px" preserveAspectRatio="none" style="width:482px;height:367px;" version="1.1" viewBox="0 0 482 367" width="482px" zoomAndPan="magnify"><defs><filter height="300%" id="f1q3nq7czznrqh" width="300%" x="-1" y="-1"><feGaussianBlur result="blurOut" stdDeviation="2.0"/><feColorMatrix in="blurOut" result="blurOut2" type="matrix" values="0 0 0 0 0 0 0 0 0 0 0 0 0 0 0 0 0 0 .4 0"/><feOffset dx="4.0" dy="4.0" in="blurOut2" result="blurOut3"/><feBlend in="SourceGraphic" in2="blurOut3" mode="normal"/></filter></defs><g><rect fill="#FFFFFF" filter="url(#f1q3nq7czznrqh)" height="166.7969" style="stroke:#A80036;stroke-width:1.0;" width="10" x="127.5" y="98.2969"/><rect fill="#FFFFFF" filter="url(#f1q3nq7czznrqh)" height="29.1328" style="stroke:#A80036;stroke-width:1.0;" width="10" x="426.5" y="119.4297"/><rect fill="#FFFFFF" filter="url(#f1q3nq7czznrqh)" height="29.1328" style="stroke:#A80036;stroke-width:1.0;" width="10" x="426.5" y="177.6953"/><rect fill="#FFFFFF" filter="url(#f1q3nq7czznrqh)" height="29.1328" style="stroke:#A80036;stroke-width:1.0;" width="10" x="426.5" y="235.9609"/><line style="stroke:#A80036;stroke-width:1.0;stroke-dasharray:5.0,5.0;" x1="132" x2="132" y1="88.2969" y2="283.0938"/><line style="stroke:#A80036;stroke-width:1.0;stroke-dasharray:5.0,5.0;" x1="431" x2="431" y1="88.2969" y2="283.0938"/><text fill="#000000" font-family="sans-serif" font-size="14" lengthAdjust="spacing" textLength="249" x="5" y="84.9951">Responsável de Recursos Humanos</text><ellipse cx="132.5" cy="15" fill="#FEFECE" filter="url(#f1q3nq7czznrqh)" rx="8" ry="8" style="stroke:#A80036;stroke-width:2.0;"/><path d="M132.5,23 L132.5,50 M119.5,31 L145.5,31 M132.5,50 L119.5,65 M132.5,50 L145.5,65 " fill="none" filter="url(#f1q3nq7czznrqh)" style="stroke:#A80036;stroke-width:2.0;"/><text fill="#000000" font-family="sans-serif" font-size="14" lengthAdjust="spacing" textLength="249" x="5" y="295.0889">Responsável de Recursos Humanos</text><ellipse cx="132.5" cy="308.3906" fill="#FEFECE" filter="url(#f1q3nq7czznrqh)" rx="8" ry="8" style="stroke:#A80036;stroke-width:2.0;"/><path d="M132.5,316.3906 L132.5,343.3906 M119.5,324.3906 L145.5,324.3906 M132.5,343.3906 L119.5,358.3906 M132.5,343.3906 L145.5,358.3906 " fill="none" filter="url(#f1q3nq7czznrqh)" style="stroke:#A80036;stroke-width:2.0;"/><rect fill="#FEFECE" filter="url(#f1q3nq7czznrqh)" height="30.2969" style="stroke:#A80036;stroke-width:1.5;" width="77" x="391" y="53"/><text fill="#000000" font-family="sans-serif" font-size="14" lengthAdjust="spacing" textLength="63" x="398" y="72.9951">:Sistema</text><rect fill="#FEFECE" filter="url(#f1q3nq7czznrqh)" height="30.2969" style="stroke:#A80036;stroke-width:1.5;" width="77" x="391" y="282.0938"/><text fill="#000000" font-family="sans-serif" font-size="14" lengthAdjust="spacing" textLength="63" x="398" y="302.0889">:Sistema</text><rect fill="#FFFFFF" filter="url(#f1q3nq7czznrqh)" height="166.7969" style="stroke:#A80036;stroke-width:1.0;" width="10" x="127.5" y="98.2969"/><rect fill="#FFFFFF" filter="url(#f1q3nq7czznrqh)" height="29.1328" style="stroke:#A80036;stroke-width:1.0;" width="10" x="426.5" y="119.4297"/><rect fill="#FFFFFF" filter="url(#f1q3nq7czznrqh)" height="29.1328" style="stroke:#A80036;stroke-width:1.0;" width="10" x="426.5" y="177.6953"/><rect fill="#FFFFFF" filter="url(#f1q3nq7czznrqh)" height="29.1328" style="stroke:#A80036;stroke-width:1.0;" width="10" x="426.5" y="235.9609"/><polygon fill="#A80036" points="414.5,115.4297,424.5,119.4297,414.5,123.4297,418.5,119.4297" style="stroke:#A80036;stroke-width:1.0;"/><line style="stroke:#A80036;stroke-width:1.0;" x1="137.5" x2="420.5" y1="119.4297" y2="119.4297"/><text fill="#000000" font-family="sans-serif" font-size="13" font-weight="bold" lengthAdjust="spacing" textLength="9" x="144.5" y="114.3638">1</text><text fill="#000000" font-family="sans-serif" font-size="13" lengthAdjust="spacing" textLength="170" x="157.5" y="114.3638">pretende criar uma equipa</text><polygon fill="#A80036" points="148.5,144.5625,138.5,148.5625,148.5,152.5625,144.5,148.5625" style="stroke:#A80036;stroke-width:1.0;"/><line style="stroke:#A80036;stroke-width:1.0;stroke-dasharray:2.0,2.0;" x1="142.5" x2="430.5" y1="148.5625" y2="148.5625"/><text fill="#000000" font-family="sans-serif" font-size="13" font-weight="bold" lengthAdjust="spacing" textLength="9" x="154.5" y="143.4966">2</text><text fill="#000000" font-family="sans-serif" font-size="13" lengthAdjust="spacing" textLength="154" x="167.5" y="143.4966">solicita dados da equipa</text><polygon fill="#A80036" points="414.5,173.6953,424.5,177.6953,414.5,181.6953,418.5,177.6953" style="stroke:#A80036;stroke-width:1.0;"/><line style="stroke:#A80036;stroke-width:1.0;" x1="137.5" x2="420.5" y1="177.6953" y2="177.6953"/><text fill="#000000" font-family="sans-serif" font-size="13" font-weight="bold" lengthAdjust="spacing" textLength="8" x="144.5" y="172.6294">3</text><text fill="#000000" font-family="sans-serif" font-size="13" lengthAdjust="spacing" textLength="185" x="156.5" y="172.6294">introduz os dados solicitados</text><polygon fill="#A80036" points="148.5,202.8281,138.5,206.8281,148.5,210.8281,144.5,206.8281" style="stroke:#A80036;stroke-width:1.0;"/><line style="stroke:#A80036;stroke-width:1.0;stroke-dasharray:2.0,2.0;" x1="142.5" x2="430.5" y1="206.8281" y2="206.8281"/><text fill="#000000" font-family="sans-serif" font-size="13" font-weight="bold" lengthAdjust="spacing" textLength="9" x="154.5" y="201.7622">4</text><text fill="#000000" font-family="sans-serif" font-size="13" lengthAdjust="spacing" textLength="252" x="167.5" y="201.7622">apresenta dados e solicita confirmação</text><polygon fill="#A80036" points="414.5,231.9609,424.5,235.9609,414.5,239.9609,418.5,235.9609" style="stroke:#A80036;stroke-width:1.0;"/><line style="stroke:#A80036;stroke-width:1.0;" x1="137.5" x2="420.5" y1="235.9609" y2="235.9609"/><text fill="#000000" font-family="sans-serif" font-size="13" font-weight="bold" lengthAdjust="spacing" textLength="9" x="144.5" y="230.895">5</text><text fill="#000000" font-family="sans-serif" font-size="13" lengthAdjust="spacing" textLength="57" x="157.5" y="230.895">confirma</text><polygon fill="#A80036" points="143.5,261.0938,133.5,265.0938,143.5,269.0938,139.5,265.0938" style="stroke:#A80036;stroke-width:1.0;"/><line style="stroke:#A80036;stroke-width:1.0;stroke-dasharray:2.0,2.0;" x1="137.5" x2="430.5" y1="265.0938" y2="265.0938"/><text fill="#000000" font-family="sans-serif" font-size="13" font-weight="bold" lengthAdjust="spacing" textLength="9" x="149.5" y="260.0278">6</text><text fill="#000000" font-family="sans-serif" font-size="13" lengthAdjust="spacing" textLength="154" x="162.5" y="260.0278">operação bem sucedida</text><!--MD5=[57065129cff1bfdca10d6dab12735fd9]
@startuml
autonumber
actor "Responsável de Recursos Humanos" as RRH

activate RRH
RRH -> ":Sistema" : pretende criar uma equipa
activate ":Sistema"
":Sistema" - -> RRH : solicita dados da equipa
deactivate ":Sistema"

RRH -> ":Sistema" : introduz os dados solicitados
activate ":Sistema"
":Sistema" - -> RRH : apresenta dados e solicita confirmação
deactivate ":Sistema"

RRH -> ":Sistema" : confirma
activate ":Sistema"
":Sistema" - -> RRH : operação bem sucedida
deactivate ":Sistema"

deactivate RRH
@enduml

PlantUML version 1.2021.5beta3(Unknown compile time)
(GPL source distribution)
Java Runtime: Java(TM) SE Runtime Environment
JVM: Java HotSpot(TM) 64-Bit Server VM
Default Encoding: UTF-8
Language: en
Country: US
--></g></svg>