<?xml version="1.0" encoding="UTF-8" standalone="no"?><svg xmlns="http://www.w3.org/2000/svg" xmlns:xlink="http://www.w3.org/1999/xlink" contentScriptType="application/ecmascript" contentStyleType="text/css" height="690px" preserveAspectRatio="none" style="width:639px;height:690px;background:#FFFFFF;" version="1.1" viewBox="0 0 639 690" width="639px" zoomAndPan="magnify"><defs/><g><!--MD5=[b2fc5e602213dd4a6c2260d65fee8179]
class CriarEquipaUI--><polygon fill="#F8F8F8" points="126,7,126,7.2102,135.9333,6.5857,145.8667,7.1933,155.8,7.3997,165.7333,6.2866,175.6667,6.9223,185.6,6.5735,195.5333,6.6165,205.4667,6.9318,215.4,6.3086,225.3333,7.5536,235.2667,6.3697,245.2,6.8022,255.1333,7.4319,265.0667,6.9142,275,7.0682,284.9333,6.9681,294.8667,7.1785,304.8,7.2391,314.7333,7.5857,324.6667,7.6711,334.6,7.6793,344.5333,7.2546,354.4667,7.4636,364.4,7.7022,374.3333,6.2788,384.2667,7.6785,394.2,6.7035,404.1333,7.5338,414.0667,6.505,424,7,423.9315,7,424.7416,16.5597,423.9513,26.1193,424.1053,35.679,424.3386,45.2386,424.4162,54.7983,423.9961,64.358,424.2872,73.9176,423.4276,83.4773,424.2844,93.0369,424.5482,102.5966,424,112.1563,424,112.6008,414.0667,112.7693,404.1333,111.6732,394.2,111.5041,384.2667,111.5348,374.3333,112.0974,364.4,111.9597,354.4667,112.8377,344.5333,111.9816,334.6,111.8132,324.6667,112.3845,314.7333,111.4894,304.8,111.6371,294.8667,112.8052,284.9333,112.5919,275,112.8907,265.0667,111.8345,255.1333,112.4754,245.2,112.7467,235.2667,111.6838,225.3333,112.0604,215.4,112.2822,205.4667,112.808,195.5333,112.1521,185.6,112.6188,175.6667,111.6025,165.7333,111.479,155.8,112.6599,145.8667,111.4393,135.9333,112.6652,126,112.1563,126.2066,112.1563,125.7321,102.5966,125.6462,93.0369,126.4588,83.4773,125.7007,73.9176,126.5919,64.358,125.4473,54.7983,126.6174,45.2386,126.4843,35.679,126.245,26.1193,126.0472,16.5597,126,7" style="stroke:#383838;stroke-width:1.5;"/><polygon fill="#C2C2C2" points="238.8108,28.6444,237.1984,30.8475,235.2912,34.0745,232.5636,36.2491,229.6974,37.4384,227.412,37.5416,224.4747,36.0543,221.7032,35.0827,219.5995,33.1099,218.4961,30.8515,217.8417,29.0533,217.2006,26.7045,216.16,24.6832,216.9596,22.7098,217.6602,20.548,220.2893,18.8382,222.139,16.6198,224.4284,15.8832,227.1501,15.2488,230.6404,15.6257,232.5521,16.5273,234.7747,16.9359,237.4772,19.7047,238.4193,22.6277,238.8286,24.6221,238.365,27.9086" style="stroke:#383838;stroke-width:1.0;"/><path d="M230.0938,21.6406 C229.1563,21.2031 228.5625,21.0625 227.6875,21.0625 C225.0625,21.0625 223.0625,23.1406 223.0625,25.8594 L223.0625,26.9844 C223.0625,29.5625 225.1719,31.4531 228.0625,31.4531 C229.2813,31.4531 230.4375,31.1563 231.1875,30.6094 C231.7656,30.2031 232.0938,29.75 232.0938,29.3594 C232.0938,28.9063 231.7031,28.5156 231.2344,28.5156 C231.0156,28.5156 230.8125,28.5938 230.625,28.7813 C230.1719,29.2656 230.1719,29.2656 229.9844,29.3594 C229.5625,29.625 228.875,29.75 228.1094,29.75 C226.0625,29.75 224.7656,28.6563 224.7656,26.9531 L224.7656,25.8594 C224.7656,24.0781 226.0156,22.7656 227.75,22.7656 C228.3281,22.7656 228.9375,22.9219 229.4063,23.1719 C229.8906,23.4531 230.0625,23.6719 230.1563,24.0781 C230.2188,24.4844 230.25,24.6094 230.3906,24.7344 C230.5313,24.875 230.7656,24.9844 230.9844,24.9844 C231.25,24.9844 231.5156,24.8438 231.6875,24.625 C231.7969,24.4688 231.8281,24.2813 231.8281,23.8594 L231.8281,22.4375 C231.8281,22 231.8125,21.875 231.7188,21.7188 C231.5625,21.4531 231.2813,21.3125 230.9844,21.3125 C230.6875,21.3125 230.4844,21.4063 230.2656,21.7188 L230.0938,21.6406 Z " fill="#000000"/><text fill="#000000" font-family="FG Virgil" font-size="12" font-style="italic" lengthAdjust="spacing" textLength="90" x="246.25" y="23.1387">«presentation»</text><text fill="#000000" font-family="FG Virgil" font-size="12" lengthAdjust="spacing" textLength="80" x="251.25" y="37.1074">CriarEquipaUI</text><path d="M127,44.9375 L127,45.2177 L136.8667,44.3851 L146.7333,45.1952 L156.6,45.4704 L166.4667,43.9863 L176.3333,44.8339 L186.2,44.3688 L196.0667,44.4262 L205.9333,44.8466 L215.8,44.0157 L225.6667,45.6757 L235.5333,44.0971 L245.4,44.6738 L255.2667,45.5134 L265.1333,44.8231 L275,45.0285 L284.8667,44.8949 L294.7333,45.1755 L304.6,45.2563 L314.4667,45.7184 L324.3333,45.8322 L334.2,45.8432 L344.0667,45.277 L353.9333,45.5556 L363.8,45.8738 L373.6667,43.9759 L383.5333,45.8422 L393.4,44.5422 L403.2667,45.6492 L413.1333,44.2775 L423,44.9375 " fill="#F8F8F8" style="stroke:#383838;stroke-width:1.5;"/><path d="M127,52.9375 L127,53.2177 L136.8667,52.3851 L146.7333,53.1952 L156.6,53.4704 L166.4667,51.9863 L176.3333,52.8339 L186.2,52.3688 L196.0667,52.4262 L205.9333,52.8466 L215.8,52.0157 L225.6667,53.6757 L235.5333,52.0971 L245.4,52.6738 L255.2667,53.5134 L265.1333,52.8231 L275,53.0285 L284.8667,52.8949 L294.7333,53.1755 L304.6,53.2563 L314.4667,53.7184 L324.3333,53.8322 L334.2,53.8432 L344.0667,53.277 L353.9333,53.5556 L363.8,53.8738 L373.6667,51.9759 L383.5333,53.8422 L393.4,52.5422 L403.2667,53.6492 L413.1333,52.2775 L423,52.9375 " fill="#F8F8F8" style="stroke:#383838;stroke-width:1.5;"/><text fill="#000000" font-family="FG Virgil" font-size="11" lengthAdjust="spacing" textLength="53" x="132" y="67.1479">doShow()</text><text fill="#000000" font-family="FG Virgil" font-size="11" lengthAdjust="spacing" textLength="54" x="132" y="79.9526">listTipos()</text><text fill="#000000" font-family="FG Virgil" font-size="11" lengthAdjust="spacing" textLength="56" x="132" y="92.7573">listColab()</text><text fill="#000000" font-family="FG Virgil" font-size="11" lengthAdjust="spacing" textLength="286" x="132" y="105.562">novaEquipa(cod,acronimo,desig,tipo,responsaveis)</text><!--MD5=[ce96b3a97af628d6ebe090b2bbef2caa]
class CriarEquipaController--><polygon fill="#F8F8F8" points="140.5,172,140.5,172.2102,150.463,171.5857,160.4259,172.1933,170.3889,172.3997,180.3519,171.2866,190.3148,171.9223,200.2778,171.5735,210.2407,171.6165,220.2037,171.9318,230.1667,171.3086,240.1296,172.5536,250.0926,171.3697,260.0556,171.8022,270.0185,172.4319,279.9815,171.9142,289.9444,172.0682,299.9074,171.9681,309.8704,172.1785,319.8333,172.2391,329.7963,172.5857,339.7593,172.6711,349.7222,172.6793,359.6852,172.2546,369.6481,172.4636,379.6111,172.7022,389.5741,171.2788,399.537,172.6785,409.5,172,409.2035,172,410.0338,182.255,409.005,192.51,409.4315,202.7651,410.2416,213.0201,409.4513,223.2751,409.6053,233.5301,409.8386,243.7852,409.9162,254.0402,409.4961,264.2952,409.7872,274.5502,408.9276,284.8052,409.7844,295.0603,410.0482,305.3153,409.5,315.5703,409.5,316.0148,399.537,316.1833,389.5741,315.0872,379.6111,314.9181,369.6481,314.9489,359.6852,315.5114,349.7222,315.3738,339.7593,316.2517,329.7963,315.3956,319.8333,315.2273,309.8704,315.7986,299.9074,314.9035,289.9444,315.0512,279.9815,316.2193,270.0185,316.006,260.0556,316.3048,250.0926,315.2485,240.1296,315.8895,230.1667,316.1607,220.2037,315.0979,210.2407,315.4745,200.2778,315.6963,190.3148,316.2221,180.3519,315.5661,170.3889,316.0329,160.4259,315.0165,150.463,314.8931,140.5,315.5703,141.0036,315.5703,139.7831,305.3153,141.009,295.0603,140.7066,284.8052,140.2321,274.5502,140.1462,264.2952,140.9588,254.0402,140.2007,243.7852,141.0919,233.5301,139.9473,223.2751,141.1174,213.0201,140.9843,202.7651,140.745,192.51,140.5472,182.255,140.5,172" style="stroke:#383838;stroke-width:1.5;"/><polygon fill="#C2C2C2" points="218.3108,193.6444,216.6984,195.8475,214.7912,199.0745,212.0636,201.2491,209.1974,202.4384,206.912,202.5416,203.9747,201.0543,201.2032,200.0827,199.0995,198.1099,197.9961,195.8515,197.3417,194.0533,196.7006,191.7045,195.66,189.6832,196.4596,187.7098,197.1602,185.548,199.7893,183.8382,201.639,181.6198,203.9284,180.8832,206.6501,180.2488,210.1404,180.6257,212.0521,181.5273,214.2747,181.9359,216.9772,184.7047,217.9193,187.6277,218.3286,189.6221,217.865,192.9086" style="stroke:#383838;stroke-width:1.0;"/><path d="M209.5938,186.6406 C208.6563,186.2031 208.0625,186.0625 207.1875,186.0625 C204.5625,186.0625 202.5625,188.1406 202.5625,190.8594 L202.5625,191.9844 C202.5625,194.5625 204.6719,196.4531 207.5625,196.4531 C208.7813,196.4531 209.9375,196.1563 210.6875,195.6094 C211.2656,195.2031 211.5938,194.75 211.5938,194.3594 C211.5938,193.9063 211.2031,193.5156 210.7344,193.5156 C210.5156,193.5156 210.3125,193.5938 210.125,193.7813 C209.6719,194.2656 209.6719,194.2656 209.4844,194.3594 C209.0625,194.625 208.375,194.75 207.6094,194.75 C205.5625,194.75 204.2656,193.6563 204.2656,191.9531 L204.2656,190.8594 C204.2656,189.0781 205.5156,187.7656 207.25,187.7656 C207.8281,187.7656 208.4375,187.9219 208.9063,188.1719 C209.3906,188.4531 209.5625,188.6719 209.6563,189.0781 C209.7188,189.4844 209.75,189.6094 209.8906,189.7344 C210.0313,189.875 210.2656,189.9844 210.4844,189.9844 C210.75,189.9844 211.0156,189.8438 211.1875,189.625 C211.2969,189.4688 211.3281,189.2813 211.3281,188.8594 L211.3281,187.4375 C211.3281,187 211.3125,186.875 211.2188,186.7188 C211.0625,186.4531 210.7813,186.3125 210.4844,186.3125 C210.1875,186.3125 209.9844,186.4063 209.7656,186.7188 L209.5938,186.6406 Z " fill="#000000"/><text fill="#000000" font-family="FG Virgil" font-size="12" font-style="italic" lengthAdjust="spacing" textLength="80" x="251.25" y="188.1387">«application»</text><text fill="#000000" font-family="FG Virgil" font-size="12" lengthAdjust="spacing" textLength="127" x="227.75" y="202.1074">CriarEquipaController</text><path d="M141.5,209.9375 L141.5,210.2177 L151.3889,209.3851 L161.2778,210.1952 L171.1667,210.4704 L181.0556,208.9863 L190.9444,209.8339 L200.8333,209.3688 L210.7222,209.4262 L220.6111,209.8466 L230.5,209.0157 L240.3889,210.6757 L250.2778,209.0971 L260.1667,209.6738 L270.0556,210.5134 L279.9444,209.8231 L289.8333,210.0285 L299.7222,209.8949 L309.6111,210.1755 L319.5,210.2563 L329.3889,210.7184 L339.2778,210.8322 L349.1667,210.8432 L359.0556,210.277 L368.9444,210.5556 L378.8333,210.8738 L388.7222,208.9759 L398.6111,210.8422 L408.5,209.9375 " fill="#F8F8F8" style="stroke:#383838;stroke-width:1.5;"/><path d="M141.5,217.9375 L141.5,218.2177 L151.3889,217.3851 L161.2778,218.1952 L171.1667,218.4704 L181.0556,216.9863 L190.9444,217.8339 L200.8333,217.3688 L210.7222,217.4262 L220.6111,217.8466 L230.5,217.0157 L240.3889,218.6757 L250.2778,217.0971 L260.1667,217.6738 L270.0556,218.5134 L279.9444,217.8231 L289.8333,218.0285 L299.7222,217.8949 L309.6111,218.1755 L319.5,218.2563 L329.3889,218.7184 L339.2778,218.8322 L349.1667,218.8432 L359.0556,218.277 L368.9444,218.5556 L378.8333,218.8738 L388.7222,216.9759 L398.6111,218.8422 L408.5,217.9375 " fill="#F8F8F8" style="stroke:#383838;stroke-width:1.5;"/><text fill="#000000" font-family="FG Virgil" font-size="11" lengthAdjust="spacing" textLength="75" x="146.5" y="232.1479">repositories()</text><text fill="#000000" font-family="FG Virgil" font-size="11" lengthAdjust="spacing" textLength="43" x="146.5" y="244.9526">findAll()</text><text fill="#000000" font-family="FG Virgil" font-size="11" lengthAdjust="spacing" textLength="65" x="146.5" y="257.7573">create(cod)</text><text fill="#000000" font-family="FG Virgil" font-size="11" lengthAdjust="spacing" textLength="97" x="146.5" y="270.562">create(acronimo)</text><text fill="#000000" font-family="FG Virgil" font-size="11" lengthAdjust="spacing" textLength="76" x="146.5" y="283.3667">create(desig)</text><text fill="#000000" font-family="FG Virgil" font-size="11" lengthAdjust="spacing" textLength="257" x="146.5" y="296.1714">create(cod,acronimo,desig,tipo,responsaveis)</text><text fill="#000000" font-family="FG Virgil" font-size="11" lengthAdjust="spacing" textLength="102" x="146.5" y="308.9761">save(novaEquipa)</text><!--MD5=[e8c189551b7885b999ad7cefb30fc2a3]
class PersistenceContext--><polygon fill="#F8F8F8" points="7,376,7,376.2102,16.8667,375.5857,26.7333,376.1933,36.6,376.3997,46.4667,375.2866,56.3333,375.9223,66.2,375.5735,76.0667,375.6165,85.9333,375.9318,95.8,375.3086,105.6667,376.5536,115.5333,375.3697,125.4,375.8022,135.2667,376.4319,145.1333,375.9142,155,376,155.0682,376,154.9681,385.5346,155.1785,395.0692,155.2391,404.6038,155.5857,414.1384,155.6711,423.673,155.6793,433.2076,155,442.7422,155,442.9968,145.1333,443.2058,135.2667,443.4444,125.4,442.021,115.5333,443.4207,105.6667,442.4457,95.8,443.276,85.9333,442.2472,76.0667,442.6737,66.2,443.4838,56.3333,442.6935,46.4667,442.8475,36.6,443.0808,26.7333,443.1584,16.8667,442.7383,7,442.7422,7.2872,442.7422,6.4276,433.2076,7.2844,423.673,7.5482,414.1384,7.4445,404.6038,7.613,395.0692,6.5169,385.5346,7,376" style="stroke:#383838;stroke-width:1.5;"/><polygon fill="#C2C2C2" points="33.0608,397.6444,31.4484,399.8475,29.5412,403.0745,26.8136,405.2491,23.9474,406.4384,21.662,406.5416,18.7247,405.0543,15.9532,404.0827,13.8495,402.1099,12.7461,399.8515,12.0917,398.0533,11.4506,395.7045,10.41,393.6832,11.2096,391.7098,11.9102,389.548,14.5393,387.8382,16.389,385.6198,18.6784,384.8832,21.4001,384.2488,24.8904,384.6257,26.8021,385.5273,29.0247,385.9359,31.7272,388.7047,32.6693,391.6277,33.0786,393.6221,32.615,396.9086" style="stroke:#383838;stroke-width:1.0;"/><path d="M24.3438,390.6406 C23.4063,390.2031 22.8125,390.0625 21.9375,390.0625 C19.3125,390.0625 17.3125,392.1406 17.3125,394.8594 L17.3125,395.9844 C17.3125,398.5625 19.4219,400.4531 22.3125,400.4531 C23.5313,400.4531 24.6875,400.1563 25.4375,399.6094 C26.0156,399.2031 26.3438,398.75 26.3438,398.3594 C26.3438,397.9063 25.9531,397.5156 25.4844,397.5156 C25.2656,397.5156 25.0625,397.5938 24.875,397.7813 C24.4219,398.2656 24.4219,398.2656 24.2344,398.3594 C23.8125,398.625 23.125,398.75 22.3594,398.75 C20.3125,398.75 19.0156,397.6563 19.0156,395.9531 L19.0156,394.8594 C19.0156,393.0781 20.2656,391.7656 22,391.7656 C22.5781,391.7656 23.1875,391.9219 23.6563,392.1719 C24.1406,392.4531 24.3125,392.6719 24.4063,393.0781 C24.4688,393.4844 24.5,393.6094 24.6406,393.7344 C24.7813,393.875 25.0156,393.9844 25.2344,393.9844 C25.5,393.9844 25.7656,393.8438 25.9375,393.625 C26.0469,393.4688 26.0781,393.2813 26.0781,392.8594 L26.0781,391.4375 C26.0781,391 26.0625,390.875 25.9688,390.7188 C25.8125,390.4531 25.5313,390.3125 25.2344,390.3125 C24.9375,390.3125 24.7344,390.4063 24.5156,390.7188 L24.3438,390.6406 Z " fill="#000000"/><text fill="#000000" font-family="FG Virgil" font-size="12" font-style="italic" lengthAdjust="spacing" textLength="83" x="52.5" y="392.1387">«persistence»</text><text fill="#000000" font-family="FG Virgil" font-size="12" lengthAdjust="spacing" textLength="116" x="36" y="406.1074">PersistenceContext</text><path d="M8,413.9375 L8,414.2177 L17.7333,413.3851 L27.4667,414.1952 L37.2,414.4704 L46.9333,412.9863 L56.6667,413.8339 L66.4,413.3688 L76.1333,413.4262 L85.8667,413.8466 L95.6,413.0157 L105.3333,414.6757 L115.0667,413.0971 L124.8,413.6738 L134.5333,414.5134 L144.2667,413.8231 L154,413.9375 " fill="#F8F8F8" style="stroke:#383838;stroke-width:1.5;"/><path d="M8,421.9375 L8,422.2177 L17.7333,421.3851 L27.4667,422.1952 L37.2,422.4704 L46.9333,420.9863 L56.6667,421.8339 L66.4,421.3688 L76.1333,421.4262 L85.8667,421.8466 L95.6,421.0157 L105.3333,422.6757 L115.0667,421.0971 L124.8,421.6738 L134.5333,422.5134 L144.2667,421.8231 L154,421.9375 " fill="#F8F8F8" style="stroke:#383838;stroke-width:1.5;"/><text fill="#000000" font-family="FG Virgil" font-size="11" lengthAdjust="spacing" textLength="45" x="13" y="436.1479">create()</text><!--MD5=[48590afff58a68e2fcba47824d6f8a11]
class RepositoryFactory--><polygon fill="#F8F8F8" points="11,503,11,503.2102,21.1429,502.5857,31.2857,503.1933,41.4286,503.3997,51.5714,502.2866,61.7143,502.9223,71.8571,502.5735,82,502.6165,92.1429,502.9318,102.2857,502.3086,112.4286,503.5536,122.5714,502.3697,132.7143,502.8022,142.8571,503.4319,153,503,152.9142,503,153.0682,512.5346,152.9681,522.0692,153.1785,531.6038,153.2391,541.1384,153.5857,550.673,153.6711,560.2076,153,569.7422,153,570.4214,142.8571,569.9968,132.7143,570.2058,122.5714,570.4444,112.4286,569.021,102.2857,570.4207,92.1429,569.4457,82,570.276,71.8571,569.2472,61.7143,569.6737,51.5714,570.4838,41.4286,569.6935,31.2857,569.8475,21.1429,570.0808,11,569.7422,11.4162,569.7422,10.9961,560.2076,11.2872,550.673,10.4276,541.1384,11.2844,531.6038,11.5482,522.0692,11.4445,512.5346,11,503" style="stroke:#383838;stroke-width:1.5;"/><polygon fill="#C2C2C2" points="37.0608,524.6444,35.4484,526.8475,33.5412,530.0745,30.8136,532.2491,27.9474,533.4384,25.662,533.5416,22.7247,532.0543,19.9532,531.0827,17.8495,529.1099,16.7461,526.8515,16.0917,525.0533,15.4506,522.7045,14.41,520.6832,15.2096,518.7098,15.9102,516.548,18.5393,514.8382,20.389,512.6198,22.6784,511.8832,25.4001,511.2488,28.8904,511.6257,30.8021,512.5273,33.0247,512.9359,35.7272,515.7047,36.6693,518.6277,37.0786,520.6221,36.615,523.9086" style="stroke:#383838;stroke-width:1.0;"/><path d="M28.3438,517.6406 C27.4063,517.2031 26.8125,517.0625 25.9375,517.0625 C23.3125,517.0625 21.3125,519.1406 21.3125,521.8594 L21.3125,522.9844 C21.3125,525.5625 23.4219,527.4531 26.3125,527.4531 C27.5313,527.4531 28.6875,527.1563 29.4375,526.6094 C30.0156,526.2031 30.3438,525.75 30.3438,525.3594 C30.3438,524.9063 29.9531,524.5156 29.4844,524.5156 C29.2656,524.5156 29.0625,524.5938 28.875,524.7813 C28.4219,525.2656 28.4219,525.2656 28.2344,525.3594 C27.8125,525.625 27.125,525.75 26.3594,525.75 C24.3125,525.75 23.0156,524.6563 23.0156,522.9531 L23.0156,521.8594 C23.0156,520.0781 24.2656,518.7656 26,518.7656 C26.5781,518.7656 27.1875,518.9219 27.6563,519.1719 C28.1406,519.4531 28.3125,519.6719 28.4063,520.0781 C28.4688,520.4844 28.5,520.6094 28.6406,520.7344 C28.7813,520.875 29.0156,520.9844 29.2344,520.9844 C29.5,520.9844 29.7656,520.8438 29.9375,520.625 C30.0469,520.4688 30.0781,520.2813 30.0781,519.8594 L30.0781,518.4375 C30.0781,518 30.0625,517.875 29.9688,517.7188 C29.8125,517.4531 29.5313,517.3125 29.2344,517.3125 C28.9375,517.3125 28.7344,517.4063 28.5156,517.7188 L28.3438,517.6406 Z " fill="#000000"/><text fill="#000000" font-family="FG Virgil" font-size="12" font-style="italic" lengthAdjust="spacing" textLength="56" x="67" y="519.1387">«factory»</text><text fill="#000000" font-family="FG Virgil" font-size="12" lengthAdjust="spacing" textLength="110" x="40" y="533.1074">RepositoryFactory</text><path d="M12,540.9375 L12,541.2177 L22,540.3851 L32,541.1952 L42,541.4704 L52,539.9863 L62,540.8339 L72,540.3688 L82,540.4262 L92,540.8466 L102,540.0157 L112,541.6757 L122,540.0971 L132,540.6738 L142,541.5134 L152,540.9375 " fill="#F8F8F8" style="stroke:#383838;stroke-width:1.5;"/><path d="M12,548.9375 L12,549.2177 L22,548.3851 L32,549.1952 L42,549.4704 L52,547.9863 L62,548.8339 L72,548.3688 L82,548.4262 L92,548.8466 L102,548.0157 L112,549.6757 L122,548.0971 L132,548.6738 L142,549.5134 L152,548.9375 " fill="#F8F8F8" style="stroke:#383838;stroke-width:1.5;"/><text fill="#000000" font-family="FG Virgil" font-size="11" lengthAdjust="spacing" textLength="45" x="17" y="563.1479">create()</text><!--MD5=[e3d99162b7328c3f1201e3bd1b8bcde6]
class EquipaRepository--><polygon fill="#F8F8F8" points="76.5,630,76.5,630.2102,86.2857,629.5857,96.0714,630.1933,105.8571,630.3997,115.6429,629.2866,125.4286,629.9223,135.2143,629.5735,145,629.6165,154.7857,629.9318,164.5714,629.3086,174.3571,630.5536,184.1429,629.3697,193.9286,629.8022,203.7143,630.4319,213.5,630,213.4142,630,213.5682,640.7875,213.4681,651.575,213.6785,662.3625,213.7391,673.15,213.5,683.9375,213.5,684.5232,203.7143,684.6086,193.9286,684.6168,184.1429,684.1921,174.3571,684.4011,164.5714,684.6397,154.7857,683.2163,145,684.616,135.2143,683.641,125.4286,684.4713,115.6429,683.4425,105.8571,683.869,96.0714,684.6791,86.2857,683.8888,76.5,683.9375,76.6053,683.9375,76.8386,673.15,76.9162,662.3625,76.4961,651.575,76.7872,640.7875,76.5,630" style="stroke:#383838;stroke-width:1.5;"/><polygon fill="#C2C2C2" points="102.5608,651.6444,100.9484,653.8475,99.0412,657.0745,96.3136,659.2491,93.4474,660.4384,91.162,660.5416,88.2247,659.0543,85.4532,658.0827,83.3495,656.1099,82.2461,653.8515,81.5917,652.0533,80.9506,649.7045,79.91,647.6832,80.7096,645.7098,81.4102,643.548,84.0393,641.8382,85.889,639.6198,88.1784,638.8832,90.9001,638.2488,94.3904,638.6257,96.3021,639.5273,98.5247,639.9359,101.2272,642.7047,102.1693,645.6277,102.5786,647.6221,102.115,650.9086" style="stroke:#383838;stroke-width:1.0;"/><path d="M93.8438,644.6406 C92.9063,644.2031 92.3125,644.0625 91.4375,644.0625 C88.8125,644.0625 86.8125,646.1406 86.8125,648.8594 L86.8125,649.9844 C86.8125,652.5625 88.9219,654.4531 91.8125,654.4531 C93.0313,654.4531 94.1875,654.1563 94.9375,653.6094 C95.5156,653.2031 95.8438,652.75 95.8438,652.3594 C95.8438,651.9063 95.4531,651.5156 94.9844,651.5156 C94.7656,651.5156 94.5625,651.5938 94.375,651.7813 C93.9219,652.2656 93.9219,652.2656 93.7344,652.3594 C93.3125,652.625 92.625,652.75 91.8594,652.75 C89.8125,652.75 88.5156,651.6563 88.5156,649.9531 L88.5156,648.8594 C88.5156,647.0781 89.7656,645.7656 91.5,645.7656 C92.0781,645.7656 92.6875,645.9219 93.1563,646.1719 C93.6406,646.4531 93.8125,646.6719 93.9063,647.0781 C93.9688,647.4844 94,647.6094 94.1406,647.7344 C94.2813,647.875 94.5156,647.9844 94.7344,647.9844 C95,647.9844 95.2656,647.8438 95.4375,647.625 C95.5469,647.4688 95.5781,647.2813 95.5781,646.8594 L95.5781,645.4375 C95.5781,645 95.5625,644.875 95.4688,644.7188 C95.3125,644.4531 95.0313,644.3125 94.7344,644.3125 C94.4375,644.3125 94.2344,644.4063 94.0156,644.7188 L93.8438,644.6406 Z " fill="#000000"/><text fill="#000000" font-family="FG Virgil" font-size="12" font-style="italic" lengthAdjust="spacing" textLength="74" x="121" y="646.1387">«repository»</text><text fill="#000000" font-family="FG Virgil" font-size="12" lengthAdjust="spacing" textLength="105" x="105.5" y="660.1074">EquipaRepository</text><path d="M77.5,667.9375 L77.5,668.2177 L87.1429,667.3851 L96.7857,668.1952 L106.4286,668.4704 L116.0714,666.9863 L125.7143,667.8339 L135.3571,667.3688 L145,667.4262 L154.6429,667.8466 L164.2857,667.0157 L173.9286,668.6757 L183.5714,667.0971 L193.2143,667.6738 L202.8571,668.5134 L212.5,667.9375 " fill="#F8F8F8" style="stroke:#383838;stroke-width:1.5;"/><path d="M77.5,675.9375 L77.5,676.2177 L87.1429,675.3851 L96.7857,676.1952 L106.4286,676.4704 L116.0714,674.9863 L125.7143,675.8339 L135.3571,675.3688 L145,675.4262 L154.6429,675.8466 L164.2857,675.0157 L173.9286,676.6757 L183.5714,675.0971 L193.2143,675.6738 L202.8571,676.5134 L212.5,675.9375 " fill="#F8F8F8" style="stroke:#383838;stroke-width:1.5;"/><!--MD5=[7ebe7a091837043f239f88bb431abcb2]
class TipoEquipaRepository--><polygon fill="#F8F8F8" points="261.5,382.5,261.5,382.7102,271.6875,382.0857,281.875,382.6933,292.0625,382.8997,302.25,381.7866,312.4375,382.4223,322.625,382.0735,332.8125,382.1165,343,382.4318,353.1875,381.8086,363.375,383.0536,373.5625,381.8697,383.75,382.3022,393.9375,382.9319,404.125,382.4142,414.3125,382.5682,424.5,382.5,424.4681,382.5,424.6785,393.2875,424.7391,404.075,425.0857,414.8625,425.1711,425.65,424.5,436.4375,424.5,437.1168,414.3125,436.6921,404.125,436.9011,393.9375,437.1397,383.75,435.7163,373.5625,437.116,363.375,436.141,353.1875,436.9713,343,435.9425,332.8125,436.369,322.625,437.1791,312.4375,436.3888,302.25,436.5428,292.0625,436.7761,281.875,436.8537,271.6875,436.4336,261.5,436.4375,261.7872,436.4375,260.9276,425.65,261.7844,414.8625,262.0482,404.075,261.9445,393.2875,261.5,382.5" style="stroke:#383838;stroke-width:1.5;"/><polygon fill="#C2C2C2" points="287.5608,404.1444,285.9484,406.3475,284.0412,409.5745,281.3136,411.7491,278.4474,412.9384,276.162,413.0416,273.2247,411.5543,270.4532,410.5827,268.3495,408.6099,267.2461,406.3515,266.5917,404.5533,265.9506,402.2045,264.91,400.1832,265.7096,398.2098,266.4102,396.048,269.0393,394.3382,270.889,392.1198,273.1784,391.3832,275.9001,390.7488,279.3904,391.1257,281.3021,392.0273,283.5247,392.4359,286.2272,395.2047,287.1693,398.1277,287.5786,400.1221,287.115,403.4086" style="stroke:#383838;stroke-width:1.0;"/><path d="M278.8438,397.1406 C277.9063,396.7031 277.3125,396.5625 276.4375,396.5625 C273.8125,396.5625 271.8125,398.6406 271.8125,401.3594 L271.8125,402.4844 C271.8125,405.0625 273.9219,406.9531 276.8125,406.9531 C278.0313,406.9531 279.1875,406.6563 279.9375,406.1094 C280.5156,405.7031 280.8438,405.25 280.8438,404.8594 C280.8438,404.4063 280.4531,404.0156 279.9844,404.0156 C279.7656,404.0156 279.5625,404.0938 279.375,404.2813 C278.9219,404.7656 278.9219,404.7656 278.7344,404.8594 C278.3125,405.125 277.625,405.25 276.8594,405.25 C274.8125,405.25 273.5156,404.1563 273.5156,402.4531 L273.5156,401.3594 C273.5156,399.5781 274.7656,398.2656 276.5,398.2656 C277.0781,398.2656 277.6875,398.4219 278.1563,398.6719 C278.6406,398.9531 278.8125,399.1719 278.9063,399.5781 C278.9688,399.9844 279,400.1094 279.1406,400.2344 C279.2813,400.375 279.5156,400.4844 279.7344,400.4844 C280,400.4844 280.2656,400.3438 280.4375,400.125 C280.5469,399.9688 280.5781,399.7813 280.5781,399.3594 L280.5781,397.9375 C280.5781,397.5 280.5625,397.375 280.4688,397.2188 C280.3125,396.9531 280.0313,396.8125 279.7344,396.8125 C279.4375,396.8125 279.2344,396.9063 279.0156,397.2188 L278.8438,397.1406 Z " fill="#000000"/><text fill="#000000" font-family="FG Virgil" font-size="12" font-style="italic" lengthAdjust="spacing" textLength="74" x="319" y="398.6387">«repository»</text><text fill="#000000" font-family="FG Virgil" font-size="12" lengthAdjust="spacing" textLength="131" x="290.5" y="412.6074">TipoEquipaRepository</text><path d="M262.5,420.4375 L262.5,420.7177 L272.5625,419.8851 L282.625,420.6952 L292.6875,420.9704 L302.75,419.4863 L312.8125,420.3339 L322.875,419.8688 L332.9375,419.9262 L343,420.3466 L353.0625,419.5157 L363.125,421.1757 L373.1875,419.5971 L383.25,420.1738 L393.3125,421.0134 L403.375,420.3231 L413.4375,420.5285 L423.5,420.4375 " fill="#F8F8F8" style="stroke:#383838;stroke-width:1.5;"/><path d="M262.5,428.4375 L262.5,428.7177 L272.5625,427.8851 L282.625,428.6952 L292.6875,428.9704 L302.75,427.4863 L312.8125,428.3339 L322.875,427.8688 L332.9375,427.9262 L343,428.3466 L353.0625,427.5157 L363.125,429.1757 L373.1875,427.5971 L383.25,428.1738 L393.3125,429.0134 L403.375,428.3231 L413.4375,428.5285 L423.5,428.4375 " fill="#F8F8F8" style="stroke:#383838;stroke-width:1.5;"/><!--MD5=[9a0e8f7957502662f95e783c1c3d84fe]
class ColaboradorRepository--><polygon fill="#F8F8F8" points="460,382.5,460,382.7102,470.1176,382.0857,480.2353,382.6933,490.3529,382.8997,500.4706,381.7866,510.5882,382.4223,520.7059,382.0735,530.8235,382.1165,540.9412,382.4318,551.0588,381.8086,561.1765,383.0536,571.2941,381.8697,581.4118,382.3022,591.5294,382.9319,601.6471,382.4142,611.7647,382.5682,621.8824,382.4681,632,382.5,632.1785,382.5,632.2391,393.2875,632.5857,404.075,632.6711,414.8625,632.6793,425.65,632,436.4375,632,436.6921,621.8824,436.9011,611.7647,437.1397,601.6471,435.7163,591.5294,437.116,581.4118,436.141,571.2941,436.9713,561.1765,435.9425,551.0588,436.369,540.9412,437.1791,530.8235,436.3888,520.7059,436.5428,510.5882,436.7761,500.4706,436.8537,490.3529,436.4336,480.2353,436.7247,470.1176,435.8651,460,436.4375,460.2844,436.4375,460.5482,425.65,460.4445,414.8625,460.613,404.075,459.5169,393.2875,460,382.5" style="stroke:#383838;stroke-width:1.5;"/><polygon fill="#C2C2C2" points="486.0608,404.1444,484.4484,406.3475,482.5412,409.5745,479.8136,411.7491,476.9474,412.9384,474.662,413.0416,471.7247,411.5543,468.9532,410.5827,466.8495,408.6099,465.7461,406.3515,465.0917,404.5533,464.4506,402.2045,463.41,400.1832,464.2096,398.2098,464.9102,396.048,467.5393,394.3382,469.389,392.1198,471.6784,391.3832,474.4001,390.7488,477.8904,391.1257,479.8021,392.0273,482.0247,392.4359,484.7272,395.2047,485.6693,398.1277,486.0786,400.1221,485.615,403.4086" style="stroke:#383838;stroke-width:1.0;"/><path d="M477.3438,397.1406 C476.4063,396.7031 475.8125,396.5625 474.9375,396.5625 C472.3125,396.5625 470.3125,398.6406 470.3125,401.3594 L470.3125,402.4844 C470.3125,405.0625 472.4219,406.9531 475.3125,406.9531 C476.5313,406.9531 477.6875,406.6563 478.4375,406.1094 C479.0156,405.7031 479.3438,405.25 479.3438,404.8594 C479.3438,404.4063 478.9531,404.0156 478.4844,404.0156 C478.2656,404.0156 478.0625,404.0938 477.875,404.2813 C477.4219,404.7656 477.4219,404.7656 477.2344,404.8594 C476.8125,405.125 476.125,405.25 475.3594,405.25 C473.3125,405.25 472.0156,404.1563 472.0156,402.4531 L472.0156,401.3594 C472.0156,399.5781 473.2656,398.2656 475,398.2656 C475.5781,398.2656 476.1875,398.4219 476.6563,398.6719 C477.1406,398.9531 477.3125,399.1719 477.4063,399.5781 C477.4688,399.9844 477.5,400.1094 477.6406,400.2344 C477.7813,400.375 478.0156,400.4844 478.2344,400.4844 C478.5,400.4844 478.7656,400.3438 478.9375,400.125 C479.0469,399.9688 479.0781,399.7813 479.0781,399.3594 L479.0781,397.9375 C479.0781,397.5 479.0625,397.375 478.9688,397.2188 C478.8125,396.9531 478.5313,396.8125 478.2344,396.8125 C477.9375,396.8125 477.7344,396.9063 477.5156,397.2188 L477.3438,397.1406 Z " fill="#000000"/><text fill="#000000" font-family="FG Virgil" font-size="12" font-style="italic" lengthAdjust="spacing" textLength="74" x="522" y="398.6387">«repository»</text><text fill="#000000" font-family="FG Virgil" font-size="12" lengthAdjust="spacing" textLength="140" x="489" y="412.6074">ColaboradorRepository</text><path d="M461,420.4375 L461,420.7177 L471,419.8851 L481,420.6952 L491,420.9704 L501,419.4863 L511,420.3339 L521,419.8688 L531,419.9262 L541,420.3466 L551,419.5157 L561,421.1757 L571,419.5971 L581,420.1738 L591,421.0134 L601,420.3231 L611,420.5285 L621,420.3949 L631,420.4375 " fill="#F8F8F8" style="stroke:#383838;stroke-width:1.5;"/><path d="M461,428.4375 L461,428.7177 L471,427.8851 L481,428.6952 L491,428.9704 L501,427.4863 L511,428.3339 L521,427.8688 L531,427.9262 L541,428.3466 L551,427.5157 L561,429.1757 L571,427.5971 L581,428.1738 L591,429.0134 L601,428.3231 L611,428.5285 L621,428.3949 L631,428.4375 " fill="#F8F8F8" style="stroke:#383838;stroke-width:1.5;"/><!--MD5=[df2642184b5a8c35330a65fd73d5bebf]
link CriarEquipaUI to CriarEquipaController--><path d="M275,112.309 L275.2802,112.309 L274.4476,123.213 L275.2577,134.117 L275.5329,145.021 L274.0488,155.925 L275,166.829 " fill="none" style="stroke:#383838;stroke-width:1.0;"/><polygon fill="#383838" points="275,171.984,275.064,172.0125,275.6738,170.1279,276.6589,168.4102,277.5217,166.6381,277.9827,164.6874,279,162.984,278.9817,162.9657,278.0995,163.6835,277.3096,164.4936,276.5839,165.3679,275.637,166.021,275,166.984,275.1305,167.1145,274.0514,166.0354,273.3534,165.3374,272.7018,164.6858,271.7798,163.7638,271,162.984,271.0208,162.9932,271.7903,164.7797,272.6544,166.6082,273.4728,168.4164,274.3784,170.2633,275,171.984" style="stroke:#383838;stroke-width:1.0;"/><!--MD5=[d3111215554d8369be01ac5161f4d857]
link CriarEquipaController to EquipaRepository--><path d="M252.504,316.122 L252.7712,316.2065 L248.9248,325.6061 L246.6447,335.5011 L243.8545,345.2347 L239.387,354.4378 L237.1426,364.3441 L233.6466,373.8545 L230.6488,383.5225 L227.9971,393.3 L224.1523,402.7 L222.6825,412.8513 L218.1249,422.026 L215.6222,431.8505 L213.3702,441.7544 L209.6595,451.1969 L206.8028,460.9095 L203.6229,470.5199 L200.8379,480.2552 L197.8624,489.9302 L195.2505,499.7203 L192.3065,509.4053 L189.2644,519.0592 L185.672,528.5392 L182.8851,538.2739 L180.136,548.0205 L175.2739,557.0988 L174.0007,567.3123 L169.7087,576.5709 L167.7117,586.5555 L163.3513,595.7924 L160.841,605.6146 L158.8183,615.591 L154.823,624.9435 " fill="none" style="stroke:#383838;stroke-width:1.0;"/><polygon fill="#383838" points="153.267,629.864,153.3195,629.9104,154.4692,628.2976,155.9265,626.9569,157.2836,625.5276,158.3115,623.8068,159.7952,622.4895,159.7832,622.4665,158.7256,622.8848,157.7282,623.419,156.7726,624.0337,155.6728,624.3708,154.775,625.0968,154.9388,625.1819,154.0671,623.996,153.6736,623.0584,153.3384,622.1511,152.6638,621.0675,152.1677,620.0767,152.1903,620.0792,152.377,622.033,152.6665,623.9983,152.9065,625.958,153.2411,627.9283,153.267,629.864" style="stroke:#383838;stroke-width:1.0;"/><!--MD5=[488c2abad121373bd9099b1e5410f669]
link CriarEquipaController to TipoEquipaRepository--><path d="M304.628,316.238 L304.8868,316.3456 L307.7495,324.7576 L312.1291,333.8004 L316.0148,342.6378 L318.276,350.7996 L322.6902,359.8568 L325.8924,368.4099 L330.049,377.36 " fill="none" style="stroke:#383838;stroke-width:1.0;"/><polygon fill="#383838" points="332.027,382.117,332.097,382.1187,331.9365,380.1445,332.1865,378.1802,332.3028,376.2126,331.9794,374.2345,332.2647,372.271,332.2407,372.2611,331.7018,373.2626,331.2835,374.314,330.9492,375.3999,330.3256,376.3665,330.1072,377.5003,330.1776,377.6709,328.9812,376.8745,327.9903,376.5763,327.0245,376.3388,325.9129,375.7478,324.8779,375.3427,324.8936,375.3593,326.3004,376.6899,327.7785,378.0956,329.2222,379.4652,330.7315,380.9039,332.027,382.117" style="stroke:#383838;stroke-width:1.0;"/><!--MD5=[8f2d546d629a434db851de33fc8581a1]
link CriarEquipaController to ColaboradorRepository--><path d="M392.682,316 L392.8268,316.24 L401.1862,320.83 L410.3943,326.8267 L419.326,332.3653 L427.349,336.3976 L436.5764,342.4263 L445.1257,347.3311 L453.9449,352.6832 L462.9517,358.3462 L471.312,362.9377 L480.9592,369.6621 L488.9333,373.6134 L498.157,379.636 " fill="none" style="stroke:#383838;stroke-width:1.0;"/><polygon fill="#383838" points="502.784,382.427,502.8414,382.4671,501.543,380.733,500.5813,379.234,499.5099,377.6584,498.0779,375.831,497.1451,374.3522,497.12,374.346,497.2787,375.4163,497.5642,376.5181,497.9379,377.6416,498.0078,378.69,498.5031,379.8436,498.5474,380.0228,497.3544,379.9113,496.2907,380.3228,495.2428,380.7982,494.1031,380.9022,493.0117,381.2016,493.0145,381.2242,494.9648,381.4361,496.928,381.7508,498.885,382.0159,500.8538,382.3756,502.784,382.427" style="stroke:#383838;stroke-width:1.0;"/><!--MD5=[79bd67021e09c8818cf7c4a583c20881]
link CriarEquipaController to PersistenceContext--><path d="M190.755,316 L190.9356,316.2143 L182.9393,321.8645 L176.0017,328.7708 L168.7194,335.2682 L160.3033,340.4202 L153.3899,347.3552 L145.6305,353.2865 L138.2078,359.6172 L131.0191,366.2256 L123.618,372.582 " fill="none" style="stroke:#383838;stroke-width:1.0;"/><polygon fill="#383838" points="119.73,375.859,119.7495,375.9263,121.5834,375.1778,123.5316,374.8238,125.4426,374.3413,127.2312,373.4364,129.1892,373.1162,129.187,373.0904,128.0499,372.8786,126.9238,372.7968,125.8054,372.8056,124.6605,372.5026,123.5528,372.6362,123.7367,372.6519,123.4394,371.4911,123.6791,370.376,123.9842,369.2666,123.9083,368.1246,124.0328,366.9998,124.0532,367.0097,123.1626,368.767,122.3652,370.5695,121.5228,372.3501,120.7662,374.1724,119.73,375.859" style="stroke:#383838;stroke-width:1.0;"/><!--MD5=[754b775031405e096442b27febffa290]
link PersistenceContext to RepositoryFactory--><path d="M81.2601,443.016 L81.5403,443.0182 L80.7948,453.8928 L81.6919,464.7805 L82.0542,475.6639 L80.6572,486.5332 L81.6954,497.422 " fill="none" style="stroke:#383838;stroke-width:1.0;"/><polygon fill="#383838" points="81.7377,502.713,81.8019,502.7409,82.3966,500.8516,83.3679,499.126,84.2166,497.3471,84.6619,495.3928,85.6656,493.6813,85.6471,493.6631,84.7707,494.3879,83.9873,495.2044,83.2687,496.0845,82.327,496.7451,81.6977,497.7132,81.8271,497.8447,80.744,496.7698,80.0387,496.079,79.3796,495.4351,78.4521,494.5185,77.6658,493.7453,77.6865,493.7547,78.4705,495.5344,79.3488,497.357,80.1815,499.1589,81.1011,501.0002,81.7377,502.713" style="stroke:#383838;stroke-width:1.0;"/><!--MD5=[2778d99b3c12bc11ad4233191bb1c898]
link RepositoryFactory to EquipaRepository--><path d="M99.3818,570.194 L99.6292,570.3256 L103.7622,579.0915 L109.3458,588.6286 L114.4569,597.9146 L118.0147,606.3747 L123.6313,615.9294 L128.591,625.1349 " fill="none" style="stroke:#383838;stroke-width:1.0;"/><polygon fill="#383838" points="131.062,629.7826,131.1319,629.7875,130.7858,627.808,130.8494,625.8573,130.7796,623.8973,130.271,621.9063,130.3698,619.9581,130.345,619.9505,129.903,620.9984,129.5857,622.0845,129.3553,623.1971,128.8258,624.2183,128.7152,625.3676,128.7692,625.544,127.5719,624.8357,126.5321,624.6427,125.5117,624.5125,124.3793,624.0165,123.3058,623.713,123.3198,623.7309,124.8504,624.9185,126.4449,626.1877,128.0086,627.4175,129.6311,628.7224,131.062,629.7826" style="stroke:#383838;stroke-width:1.0;"/><!--MD5=[271e7e590695cacbc94f8b8f71573f97]
@startuml
'http://plantuml.com/skinparam.html
skinparam handwritten true
skinparam monochrome true
skinparam packageStyle rect
skinparam defaultFontName FG Virgil
skinparam shadowing false

class CriarEquipaUI <<presentation>>
class CriarEquipaController <<application>>
class PersistenceContext <<persistence>>
class RepositoryFactory <<factory>>
class EquipaRepository <<repository>>
class TipoEquipaRepository <<repository>>
class ColaboradorRepository <<repository>>


CriarEquipaUI - -> CriarEquipaController
CriarEquipaUI : doShow()
CriarEquipaUI : listTipos()
CriarEquipaUI : listColab()
CriarEquipaUI : novaEquipa(cod,acronimo,desig,tipo,responsaveis)

CriarEquipaController : repositories()
CriarEquipaController : findAll()
CriarEquipaController : create(cod)
CriarEquipaController : create(acronimo)
CriarEquipaController : create(desig)
CriarEquipaController : create(cod,acronimo,desig,tipo,responsaveis)
CriarEquipaController : save(novaEquipa)

CriarEquipaController - -> EquipaRepository
CriarEquipaController - -> TipoEquipaRepository
CriarEquipaController - -> ColaboradorRepository
CriarEquipaController - -> PersistenceContext
PersistenceContext - -> RepositoryFactory

RepositoryFactory - -> EquipaRepository
RepositoryFactory : create()

PersistenceContext : create()
@enduml

@startuml
skinparam handwritten true
skinparam monochrome true
skinparam packageStyle rect
skinparam defaultFontName FG Virgil
skinparam shadowing false

class CriarEquipaUI <<presentation>>
class CriarEquipaController <<application>>
class PersistenceContext <<persistence>>
class RepositoryFactory <<factory>>
class EquipaRepository <<repository>>
class TipoEquipaRepository <<repository>>
class ColaboradorRepository <<repository>>


CriarEquipaUI - -> CriarEquipaController
CriarEquipaUI : doShow()
CriarEquipaUI : listTipos()
CriarEquipaUI : listColab()
CriarEquipaUI : novaEquipa(cod,acronimo,desig,tipo,responsaveis)

CriarEquipaController : repositories()
CriarEquipaController : findAll()
CriarEquipaController : create(cod)
CriarEquipaController : create(acronimo)
CriarEquipaController : create(desig)
CriarEquipaController : create(cod,acronimo,desig,tipo,responsaveis)
CriarEquipaController : save(novaEquipa)

CriarEquipaController - -> EquipaRepository
CriarEquipaController - -> TipoEquipaRepository
CriarEquipaController - -> ColaboradorRepository
CriarEquipaController - -> PersistenceContext
PersistenceContext - -> RepositoryFactory

RepositoryFactory - -> EquipaRepository
RepositoryFactory : create()

PersistenceContext : create()
@enduml

PlantUML version 1.2021.6beta6(Unknown compile time)
(GPL source distribution)
Java Runtime: Java(TM) SE Runtime Environment
JVM: Java HotSpot(TM) 64-Bit Server VM
Default Encoding: UTF-8
Language: en
Country: US
--></g></svg>