<?xml version="1.0" encoding="UTF-8" standalone="no"?><svg xmlns="http://www.w3.org/2000/svg" xmlns:xlink="http://www.w3.org/1999/xlink" contentScriptType="application/ecmascript" contentStyleType="text/css" height="354px" preserveAspectRatio="none" style="width:511px;height:354px;" version="1.1" viewBox="0 0 511 354" width="511px" zoomAndPan="magnify"><defs><filter height="300%" id="f10msnonaowcng" width="300%" x="-1" y="-1"><feGaussianBlur result="blurOut" stdDeviation="2.0"/><feColorMatrix in="blurOut" result="blurOut2" type="matrix" values="0 0 0 0 0 0 0 0 0 0 0 0 0 0 0 0 0 0 .4 0"/><feOffset dx="4.0" dy="4.0" in="blurOut2" result="blurOut3"/><feBlend in="SourceGraphic" in2="blurOut3" mode="normal"/></filter></defs><g><!--MD5=[18826ddc68954886090dcda6a3a893a2]
class Bootstrap--><rect codeLine="1" fill="#FEFECE" filter="url(#f10msnonaowcng)" height="48" id="Bootstrap" style="stroke:#A80036;stroke-width:1.5;" width="91" x="36.5" y="7"/><ellipse cx="51.5" cy="23" fill="#ADD1B2" rx="11" ry="11" style="stroke:#A80036;stroke-width:1.0;"/><path d="M53.8438,18.6719 C52.9063,18.2344 52.3125,18.0938 51.4375,18.0938 C48.8125,18.0938 46.8125,20.1719 46.8125,22.8906 L46.8125,24.0156 C46.8125,26.5938 48.9219,28.4844 51.8125,28.4844 C53.0313,28.4844 54.1875,28.1875 54.9375,27.6406 C55.5156,27.2344 55.8438,26.7813 55.8438,26.3906 C55.8438,25.9375 55.4531,25.5469 54.9844,25.5469 C54.7656,25.5469 54.5625,25.625 54.375,25.8125 C53.9219,26.2969 53.9219,26.2969 53.7344,26.3906 C53.3125,26.6563 52.625,26.7813 51.8594,26.7813 C49.8125,26.7813 48.5156,25.6875 48.5156,23.9844 L48.5156,22.8906 C48.5156,21.1094 49.7656,19.7969 51.5,19.7969 C52.0781,19.7969 52.6875,19.9531 53.1563,20.2031 C53.6406,20.4844 53.8125,20.7031 53.9063,21.1094 C53.9688,21.5156 54,21.6406 54.1406,21.7656 C54.2813,21.9063 54.5156,22.0156 54.7344,22.0156 C55,22.0156 55.2656,21.875 55.4375,21.6563 C55.5469,21.5 55.5781,21.3125 55.5781,20.8906 L55.5781,19.4688 C55.5781,19.0313 55.5625,18.9063 55.4688,18.75 C55.3125,18.4844 55.0313,18.3438 54.7344,18.3438 C54.4375,18.3438 54.2344,18.4375 54.0156,18.75 L53.8438,18.6719 Z " fill="#000000"/><text fill="#000000" font-family="sans-serif" font-size="12" lengthAdjust="spacing" textLength="59" x="65.5" y="27.1543">Bootstrap</text><line style="stroke:#A80036;stroke-width:1.5;" x1="37.5" x2="126.5" y1="39" y2="39"/><line style="stroke:#A80036;stroke-width:1.5;" x1="37.5" x2="126.5" y1="47" y2="47"/><!--MD5=[4dd24902fd1a6df998d37e6b816acd0d]
class BootstrapController--><rect codeLine="4" fill="#FEFECE" filter="url(#f10msnonaowcng)" height="60.8047" id="BootstrapController" style="stroke:#A80036;stroke-width:1.5;" width="150" x="7" y="116"/><ellipse cx="22" cy="132" fill="#ADD1B2" rx="11" ry="11" style="stroke:#A80036;stroke-width:1.0;"/><path d="M24.3438,127.6719 C23.4063,127.2344 22.8125,127.0938 21.9375,127.0938 C19.3125,127.0938 17.3125,129.1719 17.3125,131.8906 L17.3125,133.0156 C17.3125,135.5938 19.4219,137.4844 22.3125,137.4844 C23.5313,137.4844 24.6875,137.1875 25.4375,136.6406 C26.0156,136.2344 26.3438,135.7813 26.3438,135.3906 C26.3438,134.9375 25.9531,134.5469 25.4844,134.5469 C25.2656,134.5469 25.0625,134.625 24.875,134.8125 C24.4219,135.2969 24.4219,135.2969 24.2344,135.3906 C23.8125,135.6563 23.125,135.7813 22.3594,135.7813 C20.3125,135.7813 19.0156,134.6875 19.0156,132.9844 L19.0156,131.8906 C19.0156,130.1094 20.2656,128.7969 22,128.7969 C22.5781,128.7969 23.1875,128.9531 23.6563,129.2031 C24.1406,129.4844 24.3125,129.7031 24.4063,130.1094 C24.4688,130.5156 24.5,130.6406 24.6406,130.7656 C24.7813,130.9063 25.0156,131.0156 25.2344,131.0156 C25.5,131.0156 25.7656,130.875 25.9375,130.6563 C26.0469,130.5 26.0781,130.3125 26.0781,129.8906 L26.0781,128.4688 C26.0781,128.0313 26.0625,127.9063 25.9688,127.75 C25.8125,127.4844 25.5313,127.3438 25.2344,127.3438 C24.9375,127.3438 24.7344,127.4375 24.5156,127.75 L24.3438,127.6719 Z " fill="#000000"/><text fill="#000000" font-family="sans-serif" font-size="12" lengthAdjust="spacing" textLength="118" x="36" y="136.1543">BootstrapController</text><line style="stroke:#A80036;stroke-width:1.5;" x1="8" x2="156" y1="148" y2="148"/><line style="stroke:#A80036;stroke-width:1.5;" x1="8" x2="156" y1="156" y2="156"/><text fill="#000000" font-family="sans-serif" font-size="11" lengthAdjust="spacing" textLength="47" x="13" y="170.2104">initiate()</text><!--MD5=[5dd1d6732c071e710b9290b531f2fa3b]
class Utilizador--><rect codeLine="8" fill="#FEFECE" filter="url(#f10msnonaowcng)" height="60.8047" id="Utilizador" style="stroke:#A80036;stroke-width:1.5;" width="89" x="37.5" y="266.5"/><ellipse cx="52.5" cy="282.5" fill="#ADD1B2" rx="11" ry="11" style="stroke:#A80036;stroke-width:1.0;"/><path d="M54.8438,278.1719 C53.9063,277.7344 53.3125,277.5938 52.4375,277.5938 C49.8125,277.5938 47.8125,279.6719 47.8125,282.3906 L47.8125,283.5156 C47.8125,286.0938 49.9219,287.9844 52.8125,287.9844 C54.0313,287.9844 55.1875,287.6875 55.9375,287.1406 C56.5156,286.7344 56.8438,286.2813 56.8438,285.8906 C56.8438,285.4375 56.4531,285.0469 55.9844,285.0469 C55.7656,285.0469 55.5625,285.125 55.375,285.3125 C54.9219,285.7969 54.9219,285.7969 54.7344,285.8906 C54.3125,286.1563 53.625,286.2813 52.8594,286.2813 C50.8125,286.2813 49.5156,285.1875 49.5156,283.4844 L49.5156,282.3906 C49.5156,280.6094 50.7656,279.2969 52.5,279.2969 C53.0781,279.2969 53.6875,279.4531 54.1563,279.7031 C54.6406,279.9844 54.8125,280.2031 54.9063,280.6094 C54.9688,281.0156 55,281.1406 55.1406,281.2656 C55.2813,281.4063 55.5156,281.5156 55.7344,281.5156 C56,281.5156 56.2656,281.375 56.4375,281.1563 C56.5469,281 56.5781,280.8125 56.5781,280.3906 L56.5781,278.9688 C56.5781,278.5313 56.5625,278.4063 56.4688,278.25 C56.3125,277.9844 56.0313,277.8438 55.7344,277.8438 C55.4375,277.8438 55.2344,277.9375 55.0156,278.25 L54.8438,278.1719 Z " fill="#000000"/><text fill="#000000" font-family="sans-serif" font-size="12" lengthAdjust="spacing" textLength="57" x="66.5" y="286.6543">Utilizador</text><line style="stroke:#A80036;stroke-width:1.5;" x1="38.5" x2="125.5" y1="298.5" y2="298.5"/><line style="stroke:#A80036;stroke-width:1.5;" x1="38.5" x2="125.5" y1="306.5" y2="306.5"/><text fill="#000000" font-family="sans-serif" font-size="11" lengthAdjust="spacing" textLength="48" x="43.5" y="320.7104">default()</text><!--MD5=[2dbf4b1febc76ed6f925c5ff8b55dc39]
class UtilizadorRep--><rect codeLine="12" fill="#FEFECE" filter="url(#f10msnonaowcng)" height="60.8047" id="UtilizadorRep" style="stroke:#A80036;stroke-width:1.5;" width="112" x="385" y="266.5"/><ellipse cx="400" cy="282.5" fill="#ADD1B2" rx="11" ry="11" style="stroke:#A80036;stroke-width:1.0;"/><path d="M402.3438,278.1719 C401.4063,277.7344 400.8125,277.5938 399.9375,277.5938 C397.3125,277.5938 395.3125,279.6719 395.3125,282.3906 L395.3125,283.5156 C395.3125,286.0938 397.4219,287.9844 400.3125,287.9844 C401.5313,287.9844 402.6875,287.6875 403.4375,287.1406 C404.0156,286.7344 404.3438,286.2813 404.3438,285.8906 C404.3438,285.4375 403.9531,285.0469 403.4844,285.0469 C403.2656,285.0469 403.0625,285.125 402.875,285.3125 C402.4219,285.7969 402.4219,285.7969 402.2344,285.8906 C401.8125,286.1563 401.125,286.2813 400.3594,286.2813 C398.3125,286.2813 397.0156,285.1875 397.0156,283.4844 L397.0156,282.3906 C397.0156,280.6094 398.2656,279.2969 400,279.2969 C400.5781,279.2969 401.1875,279.4531 401.6563,279.7031 C402.1406,279.9844 402.3125,280.2031 402.4063,280.6094 C402.4688,281.0156 402.5,281.1406 402.6406,281.2656 C402.7813,281.4063 403.0156,281.5156 403.2344,281.5156 C403.5,281.5156 403.7656,281.375 403.9375,281.1563 C404.0469,281 404.0781,280.8125 404.0781,280.3906 L404.0781,278.9688 C404.0781,278.5313 404.0625,278.4063 403.9688,278.25 C403.8125,277.9844 403.5313,277.8438 403.2344,277.8438 C402.9375,277.8438 402.7344,277.9375 402.5156,278.25 L402.3438,278.1719 Z " fill="#000000"/><text fill="#000000" font-family="sans-serif" font-size="12" lengthAdjust="spacing" textLength="80" x="414" y="286.6543">UtilizadorRep</text><line style="stroke:#A80036;stroke-width:1.5;" x1="386" x2="496" y1="298.5" y2="298.5"/><line style="stroke:#A80036;stroke-width:1.5;" x1="386" x2="496" y1="306.5" y2="306.5"/><text fill="#000000" font-family="sans-serif" font-size="11" lengthAdjust="spacing" textLength="29" x="391" y="320.7104">add()</text><!--MD5=[37b7e16676c50c8ae3c6acc332ed66c7]
class TipoUtilizador--><rect codeLine="16" fill="#FEFECE" filter="url(#f10msnonaowcng)" height="86.4141" id="TipoUtilizador" style="stroke:#A80036;stroke-width:1.5;" width="116" x="234" y="254"/><ellipse cx="250.35" cy="270" fill="#B4A7E5" rx="11" ry="11" style="stroke:#A80036;stroke-width:1.0;"/><path d="M251.3031,266.7813 L253.0219,266.7813 C253.4125,266.7813 253.6,266.75 253.725,266.6719 C253.9906,266.5156 254.1313,266.2344 254.1313,265.9375 C254.1313,265.6719 254.0219,265.4063 253.7875,265.2344 C253.6156,265.125 253.475,265.0938 253.0219,265.0938 L247.8813,265.0938 C247.4438,265.0938 247.3188,265.1094 247.1625,265.2031 C246.9125,265.3594 246.7563,265.6563 246.7563,265.9375 C246.7563,266.2188 246.8969,266.4688 247.1156,266.6406 C247.2719,266.75 247.4594,266.7813 247.8813,266.7813 L249.6,266.7813 L249.6,273.2969 L247.8813,273.2969 C247.4438,273.2969 247.3188,273.3125 247.1625,273.4219 C246.9125,273.5781 246.7563,273.8594 246.7563,274.1563 C246.7563,274.4063 246.8969,274.6719 247.1156,274.8281 C247.2719,274.9531 247.475,275 247.8813,275 L253.0219,275 C253.7719,275 254.1313,274.7188 254.1313,274.1563 C254.1313,273.875 254.0219,273.625 253.7875,273.4531 C253.6156,273.3281 253.475,273.2969 253.0219,273.2969 L251.3031,273.2969 L251.3031,266.7813 Z " fill="#000000"/><text fill="#000000" font-family="sans-serif" font-size="12" font-style="italic" lengthAdjust="spacing" textLength="81" x="264.65" y="274.1543">TipoUtilizador</text><line style="stroke:#A80036;stroke-width:1.5;" x1="235" x2="349" y1="286" y2="286"/><text fill="#000000" font-family="sans-serif" font-size="11" lengthAdjust="spacing" textLength="95" x="240" y="300.2104">ADMINISTRADOR</text><text fill="#000000" font-family="sans-serif" font-size="11" lengthAdjust="spacing" textLength="103" x="240" y="313.0151">GESTOR_SERVIÇO</text><text fill="#000000" font-family="sans-serif" font-size="11" lengthAdjust="spacing" textLength="104" x="240" y="325.8198">RESPONSAVELRRH</text><line style="stroke:#A80036;stroke-width:1.5;" x1="235" x2="349" y1="332.4141" y2="332.4141"/><!--MD5=[6e688c033dd101193defa57e629de3ee]
link Bootstrap to BootstrapController--><path codeLine="22" d="M82,55.242 C82,71.112 82,92.427 82,110.359 " fill="none" id="Bootstrap-to-BootstrapController" style="stroke:#A80036;stroke-width:1.0;stroke-dasharray:7.0,7.0;"/><polygon fill="#A80036" points="82,115.805,86,106.805,82,110.805,78,106.805,82,115.805" style="stroke:#A80036;stroke-width:1.0;"/><!--MD5=[9e4afad226ad8bd7a8623217e138d404]
link BootstrapController to Utilizador--><path codeLine="23" d="M82,177.194 C82,201.374 82,235.559 82,261.0551 " fill="none" id="BootstrapController-to-Utilizador" style="stroke:#A80036;stroke-width:1.0;stroke-dasharray:7.0,7.0;"/><polygon fill="#A80036" points="82,266.3572,86,257.3572,82,261.3572,78,257.3572,82,266.3572" style="stroke:#A80036;stroke-width:1.0;"/><!--MD5=[f6bbcbd56eac356dee257d98a1e862a9]
link Utilizador to UtilizadorRep--><path codeLine="24" d="M109.426,266.4917 C127.076,249.2266 151.595,229.281 178,220 C210.286,208.652 299.383,209.641 332,220 C359.12,228.613 385.305,246.6832 405.211,263.1547 " fill="none" id="Utilizador-to-UtilizadorRep" style="stroke:#A80036;stroke-width:1.0;"/><polygon fill="#A80036" points="409.106,266.4244,404.7856,257.5738,405.2768,263.2092,399.6413,263.7005,409.106,266.4244" style="stroke:#A80036;stroke-width:1.0;"/><text fill="#000000" font-family="sans-serif" font-size="13" lengthAdjust="spacing" textLength="152" x="179" y="220.0669">armazena informação&gt;</text><!--MD5=[33cd33d81986996a49e34b2b6a59338f]
link Utilizador to TipoUtilizador--><path codeLine="25" d="M126.536,297 C156.249,297 195.763,297 228.725,297 " fill="none" id="Utilizador-to-TipoUtilizador" style="stroke:#A80036;stroke-width:1.0;"/><polygon fill="#A80036" points="233.956,297,224.956,293,228.956,297,224.956,301,233.956,297" style="stroke:#A80036;stroke-width:1.0;"/><polygon fill="#000000" points="153.75,285.5664,144.7049,282.6275,144.7049,288.5053,153.75,285.5664" style="stroke:#000000;stroke-width:1.0;"/><text fill="#000000" font-family="sans-serif" font-size="13" lengthAdjust="spacing" textLength="58" x="157.75" y="290.0669">recorre a</text><!--MD5=[4671bceb7f1a48d5e4882a49f6e477ec]
@startuml
class Bootstrap {
}

class BootstrapController {
   initiate()
}

class Utilizador {
  default()
}

class UtilizadorRep {
  add()
}

interface TipoUtilizador{
    ADMINISTRADOR
    GESTOR_SERVIÇO
    RESPONSAVELRRH
}

Bootstrap .-> BootstrapController
BootstrapController .-> Utilizador
Utilizador ->UtilizadorRep : armazena informação>
Utilizador -> TipoUtilizador : recorre a >
@enduml

PlantUML version 1.2021.6beta4(Unknown compile time)
(GPL source distribution)
Java Runtime: Java(TM) SE Runtime Environment
JVM: Java HotSpot(TM) 64-Bit Server VM
Default Encoding: UTF-8
Language: en
Country: US
--></g></svg>