<?xml version="1.0" encoding="UTF-8" standalone="no"?><svg xmlns="http://www.w3.org/2000/svg" xmlns:xlink="http://www.w3.org/1999/xlink" contentScriptType="application/ecmascript" contentStyleType="text/css" height="449px" preserveAspectRatio="none" style="width:726px;height:449px;" version="1.1" viewBox="0 0 726 449" width="726px" zoomAndPan="magnify"><defs><filter height="300%" id="favbgdn22lqro" width="300%" x="-1" y="-1"><feGaussianBlur result="blurOut" stdDeviation="2.0"/><feColorMatrix in="blurOut" result="blurOut2" type="matrix" values="0 0 0 0 0 0 0 0 0 0 0 0 0 0 0 0 0 0 .4 0"/><feOffset dx="4.0" dy="4.0" in="blurOut2" result="blurOut3"/><feBlend in="SourceGraphic" in2="blurOut3" mode="normal"/></filter></defs><g><rect fill="#FFFFFF" filter="url(#favbgdn22lqro)" height="334.0625" style="stroke:#A80036;stroke-width:1.0;" width="10" x="39.5" y="98.2969"/><rect fill="#FFFFFF" filter="url(#favbgdn22lqro)" height="312.9297" style="stroke:#A80036;stroke-width:1.0;" width="10" x="165" y="119.4297"/><rect fill="#FFFFFF" filter="url(#favbgdn22lqro)" height="268.7969" style="stroke:#A80036;stroke-width:1.0;" width="10" x="288" y="148.5625"/><rect fill="#FFFFFF" filter="url(#favbgdn22lqro)" height="30" style="stroke:#A80036;stroke-width:1.0;" width="10" x="522" y="201.8281"/><rect fill="#FFFFFF" filter="url(#favbgdn22lqro)" height="30" style="stroke:#A80036;stroke-width:1.0;" width="10" x="641" y="387.3594"/><rect fill="#FFFFFF" filter="url(#favbgdn22lqro)" height="261.7969" style="stroke:#000000;stroke-width:2.0;" width="466" x="246" y="163.5625"/><line style="stroke:#A80036;stroke-width:1.0;stroke-dasharray:5.0,5.0;" x1="44" x2="44" y1="88.2969" y2="442.3594"/><line style="stroke:#A80036;stroke-width:1.0;stroke-dasharray:5.0,5.0;" x1="170" x2="170" y1="88.2969" y2="442.3594"/><line style="stroke:#A80036;stroke-width:1.0;stroke-dasharray:5.0,5.0;" x1="293" x2="293" y1="88.2969" y2="442.3594"/><line style="stroke:#A80036;stroke-width:1.0;stroke-dasharray:5.0,5.0;" x1="527" x2="527" y1="88.2969" y2="442.3594"/><line style="stroke:#A80036;stroke-width:1.0;stroke-dasharray:5.0,5.0;" x1="646" x2="646" y1="88.2969" y2="442.3594"/><text fill="#000000" font-family="sans-serif" font-size="14" lengthAdjust="spacing" textLength="73" x="5" y="84.9951">Bootstrap</text><ellipse cx="44.5" cy="15" fill="#FEFECE" filter="url(#favbgdn22lqro)" rx="8" ry="8" style="stroke:#A80036;stroke-width:2.0;"/><path d="M44.5,23 L44.5,50 M31.5,31 L57.5,31 M44.5,50 L31.5,65 M44.5,50 L57.5,65 " fill="none" filter="url(#favbgdn22lqro)" style="stroke:#A80036;stroke-width:2.0;"/><text fill="#000000" font-family="sans-serif" font-size="14" lengthAdjust="spacing" textLength="146" x="94" y="84.9951">BootstrapController</text><ellipse cx="170" cy="15" fill="#FEFECE" filter="url(#favbgdn22lqro)" rx="8" ry="8" style="stroke:#A80036;stroke-width:2.0;"/><path d="M170,23 L170,50 M157,31 L183,31 M170,50 L157,65 M170,50 L183,65 " fill="none" filter="url(#favbgdn22lqro)" style="stroke:#A80036;stroke-width:2.0;"/><text fill="#000000" font-family="sans-serif" font-size="14" lengthAdjust="spacing" textLength="68" x="256" y="84.9951">Utilizador</text><ellipse cx="293" cy="15" fill="#FEFECE" filter="url(#favbgdn22lqro)" rx="8" ry="8" style="stroke:#A80036;stroke-width:2.0;"/><path d="M293,23 L293,50 M280,31 L306,31 M293,50 L280,65 M293,50 L306,65 " fill="none" filter="url(#favbgdn22lqro)" style="stroke:#A80036;stroke-width:2.0;"/><text fill="#000000" font-family="sans-serif" font-size="14" lengthAdjust="spacing" textLength="100" x="474" y="84.9951">TipoUtilizador</text><ellipse cx="527" cy="15" fill="#FEFECE" filter="url(#favbgdn22lqro)" rx="8" ry="8" style="stroke:#A80036;stroke-width:2.0;"/><path d="M527,23 L527,50 M514,31 L540,31 M527,50 L514,65 M527,50 L540,65 " fill="none" filter="url(#favbgdn22lqro)" style="stroke:#A80036;stroke-width:2.0;"/><text fill="#000000" font-family="sans-serif" font-size="14" lengthAdjust="spacing" textLength="106" x="590" y="84.9951">UtilizadorRepo</text><ellipse cx="646" cy="15" fill="#FEFECE" filter="url(#favbgdn22lqro)" rx="8" ry="8" style="stroke:#A80036;stroke-width:2.0;"/><path d="M646,23 L646,50 M633,31 L659,31 M646,50 L633,65 M646,50 L659,65 " fill="none" filter="url(#favbgdn22lqro)" style="stroke:#A80036;stroke-width:2.0;"/><rect fill="#FFFFFF" filter="url(#favbgdn22lqro)" height="334.0625" style="stroke:#A80036;stroke-width:1.0;" width="10" x="39.5" y="98.2969"/><rect fill="#FFFFFF" filter="url(#favbgdn22lqro)" height="312.9297" style="stroke:#A80036;stroke-width:1.0;" width="10" x="165" y="119.4297"/><rect fill="#FFFFFF" filter="url(#favbgdn22lqro)" height="268.7969" style="stroke:#A80036;stroke-width:1.0;" width="10" x="288" y="148.5625"/><rect fill="#FFFFFF" filter="url(#favbgdn22lqro)" height="30" style="stroke:#A80036;stroke-width:1.0;" width="10" x="522" y="201.8281"/><rect fill="#FFFFFF" filter="url(#favbgdn22lqro)" height="30" style="stroke:#A80036;stroke-width:1.0;" width="10" x="641" y="387.3594"/><polygon fill="#A80036" points="153,115.4297,163,119.4297,153,123.4297,157,119.4297" style="stroke:#A80036;stroke-width:1.0;"/><line style="stroke:#A80036;stroke-width:1.0;" x1="49.5" x2="159" y1="119.4297" y2="119.4297"/><text fill="#000000" font-family="sans-serif" font-size="13" lengthAdjust="spacing" textLength="53" x="56.5" y="114.3638">initiate()</text><polygon fill="#A80036" points="276,144.5625,286,148.5625,276,152.5625,280,148.5625" style="stroke:#A80036;stroke-width:1.0;"/><line style="stroke:#A80036;stroke-width:1.0;" x1="175" x2="282" y1="148.5625" y2="148.5625"/><text fill="#000000" font-family="sans-serif" font-size="13" lengthAdjust="spacing" textLength="69" x="182" y="143.4966">defaultUt()</text><path d="M246,163.5625 L324,163.5625 L324,170.5625 L314,180.5625 L246,180.5625 L246,163.5625 " fill="#EEEEEE" style="stroke:#000000;stroke-width:1.0;"/><rect fill="none" height="261.7969" style="stroke:#000000;stroke-width:2.0;" width="466" x="246" y="163.5625"/><text fill="#000000" font-family="sans-serif" font-size="13" font-weight="bold" lengthAdjust="spacing" textLength="33" x="261" y="176.6294">loop</text><text fill="#000000" font-family="sans-serif" font-size="11" font-weight="bold" lengthAdjust="spacing" textLength="101" x="339" y="175.7729">[for each type]</text><polygon fill="#A80036" points="510,197.8281,520,201.8281,510,205.8281,514,201.8281" style="stroke:#A80036;stroke-width:1.0;"/><line style="stroke:#A80036;stroke-width:1.0;" x1="298" x2="516" y1="201.8281" y2="201.8281"/><text fill="#000000" font-family="sans-serif" font-size="13" lengthAdjust="spacing" textLength="88" x="305" y="196.7622">type = ADMIN</text><line style="stroke:#A80036;stroke-width:1.0;" x1="298" x2="340" y1="260.9609" y2="260.9609"/><line style="stroke:#A80036;stroke-width:1.0;" x1="340" x2="340" y1="260.9609" y2="273.9609"/><line style="stroke:#A80036;stroke-width:1.0;" x1="299" x2="340" y1="273.9609" y2="273.9609"/><polygon fill="#A80036" points="309,269.9609,299,273.9609,309,277.9609,305,273.9609" style="stroke:#A80036;stroke-width:1.0;"/><text fill="#000000" font-family="sans-serif" font-size="13" lengthAdjust="spacing" textLength="37" x="305" y="255.895">id = 1</text><line style="stroke:#A80036;stroke-width:1.0;" x1="298" x2="340" y1="303.0938" y2="303.0938"/><line style="stroke:#A80036;stroke-width:1.0;" x1="340" x2="340" y1="303.0938" y2="316.0938"/><line style="stroke:#A80036;stroke-width:1.0;" x1="299" x2="340" y1="316.0938" y2="316.0938"/><polygon fill="#A80036" points="309,312.0938,299,316.0938,309,320.0938,305,316.0938" style="stroke:#A80036;stroke-width:1.0;"/><text fill="#000000" font-family="sans-serif" font-size="13" lengthAdjust="spacing" textLength="210" x="305" y="298.0278">email = example@example.com</text><line style="stroke:#A80036;stroke-width:1.0;" x1="298" x2="340" y1="345.2266" y2="345.2266"/><line style="stroke:#A80036;stroke-width:1.0;" x1="340" x2="340" y1="345.2266" y2="358.2266"/><line style="stroke:#A80036;stroke-width:1.0;" x1="299" x2="340" y1="358.2266" y2="358.2266"/><polygon fill="#A80036" points="309,354.2266,299,358.2266,309,362.2266,305,358.2266" style="stroke:#A80036;stroke-width:1.0;"/><text fill="#000000" font-family="sans-serif" font-size="13" lengthAdjust="spacing" textLength="136" x="305" y="340.1606">password = example</text><polygon fill="#A80036" points="629,383.3594,639,387.3594,629,391.3594,633,387.3594" style="stroke:#A80036;stroke-width:1.0;"/><line style="stroke:#A80036;stroke-width:1.0;" x1="298" x2="635" y1="387.3594" y2="387.3594"/><text fill="#000000" font-family="sans-serif" font-size="13" lengthAdjust="spacing" textLength="62" x="305" y="382.2935">add(user)</text><!--MD5=[f02c55f24cb12b0814060593eb118fc3]
@startuml
hide footbox

actor Bootstrap as act
actor BootstrapController as ct
actor Utilizador as ut
actor TipoUtilizador as tp
actor UtilizadorRepo as utRep

activate act
act->ct :initiate()
activate ct
ct -> ut : defaultUt()
loop for each type
activate ut
ut->tp: type = ADMIN
activate tp
deactivate tp
ut->ut: id = 1
ut->ut: email = example@example.com
ut->ut: password = example
ut->utRep: add(user)
activate utRep
deactivate utRep
deactivate ut

end loop
deactivate ct
deactivate act
@enduml

PlantUML version 1.2021.6beta4(Unknown compile time)
(GPL source distribution)
Java Runtime: Java(TM) SE Runtime Environment
JVM: Java HotSpot(TM) 64-Bit Server VM
Default Encoding: UTF-8
Language: en
Country: US
--></g></svg>