<?xml version="1.0" encoding="UTF-8" standalone="no"?><svg xmlns="http://www.w3.org/2000/svg" xmlns:xlink="http://www.w3.org/1999/xlink" contentScriptType="application/ecmascript" contentStyleType="text/css" height="250px" preserveAspectRatio="none" style="width:1861px;height:250px;" version="1.1" viewBox="0 0 1861 250" width="1861px" zoomAndPan="magnify"><defs/><g><!--MD5=[f9bd503d3928501ed3f084703009b21a]
class NovoCatalogoUI--><polygon fill="#F8F8F8" points="204,7,204,7.2102,214.0769,6.5857,224.1538,7.1933,234.2308,7.3997,244.3077,6.2866,254.3846,6.9223,264.4615,6.5735,274.5385,6.6165,284.6154,6.9318,294.6923,6.3086,304.7692,7.5536,314.8462,6.3697,324.9231,6.8022,335,7,335.4319,7,334.9142,17.7875,335.0682,28.575,334.9681,39.3625,335.1785,50.15,335,60.9375,335,61.1766,324.9231,61.5232,314.8462,61.6086,304.7692,61.6168,294.6923,61.1921,284.6154,61.4011,274.5385,61.6397,264.4615,60.2163,254.3846,61.616,244.3077,60.641,234.2308,61.4713,224.1538,60.4425,214.0769,60.869,204,60.9375,204.7416,60.9375,203.9513,50.15,204.1053,39.3625,204.3386,28.575,204.4162,17.7875,204,7" style="stroke:#383838;stroke-width:1.5;"/><polygon fill="#C2C2C2" points="230.0608,28.6444,228.4484,30.8475,226.5412,34.0745,223.8136,36.2491,220.9474,37.4384,218.662,37.5416,215.7247,36.0543,212.9532,35.0827,210.8495,33.1099,209.7461,30.8515,209.0917,29.0533,208.4506,26.7045,207.41,24.6832,208.2096,22.7098,208.9102,20.548,211.5393,18.8382,213.389,16.6198,215.6784,15.8832,218.4001,15.2488,221.8904,15.6257,223.8021,16.5273,226.0247,16.9359,228.7272,19.7047,229.6693,22.6277,230.0786,24.6221,229.615,27.9086" style="stroke:#383838;stroke-width:1.0;"/><path d="M221.9688,31.6094 Q221.3906,31.9063 220.75,32.0469 Q220.1094,32.2031 219.4063,32.2031 Q216.9063,32.2031 215.5781,30.5625 Q214.2656,28.9063 214.2656,25.7813 Q214.2656,22.6563 215.5781,21 Q216.9063,19.3438 219.4063,19.3438 Q220.1094,19.3438 220.75,19.5 Q221.4063,19.6563 221.9688,19.9531 L221.9688,22.6719 Q221.3438,22.0938 220.75,21.8281 Q220.1563,21.5469 219.5313,21.5469 Q218.1875,21.5469 217.5,22.625 Q216.8125,23.6875 216.8125,25.7813 Q216.8125,27.875 217.5,28.9531 Q218.1875,30.0156 219.5313,30.0156 Q220.1563,30.0156 220.75,29.75 Q221.3438,29.4688 221.9688,28.8906 L221.9688,31.6094 Z " fill="#000000"/><text fill="#000000" font-family="FG Virgil" font-size="12" font-style="italic" lengthAdjust="spacingAndGlyphs" textLength="95" x="235" y="23.1387">«presentation»</text><text fill="#000000" font-family="FG Virgil" font-size="12" lengthAdjust="spacingAndGlyphs" textLength="99" x="233" y="37.1074">NovoCatalogoUI</text><path d="M205,44.9375 L205,45.2177 L214.9231,44.3851 L224.8462,45.1952 L234.7692,45.4704 L244.6923,43.9863 L254.6154,44.8339 L264.5385,44.3688 L274.4615,44.4262 L284.3846,44.8466 L294.3077,44.0157 L304.2308,45.6757 L314.1538,44.0971 L324.0769,44.6738 L334,44.9375 " fill="#F8F8F8" style="stroke:#383838;stroke-width:1.5;"/><path d="M205,52.9375 L205,53.2177 L214.9231,52.3851 L224.8462,53.1952 L234.7692,53.4704 L244.6923,51.9863 L254.6154,52.8339 L264.5385,52.3688 L274.4615,52.4262 L284.3846,52.8466 L294.3077,52.0157 L304.2308,53.6757 L314.1538,52.0971 L324.0769,52.6738 L334,52.9375 " fill="#F8F8F8" style="stroke:#383838;stroke-width:1.5;"/><!--MD5=[2d3184c806c3f64baa12a46caa287f2a]
class NovoCatalogoController--><polygon fill="#F8F8F8" points="7,138,7,138.2102,16.9057,137.5857,26.8113,138.1933,36.717,138.3997,46.6226,137.2866,56.5283,137.9223,66.434,137.5735,76.3396,137.6165,86.2453,137.9318,96.1509,137.3086,106.0566,138.5536,115.9623,137.3697,125.8679,137.8022,135.7736,138.4319,145.6792,137.9142,155.5849,138.0682,165.4906,137.9681,175.3962,138.1785,185.3019,138.2391,195.2075,138.5857,205.1132,138.6711,215.0189,138.6793,224.9245,138.2546,234.8302,138.4636,244.7358,138.7022,254.6415,137.2788,264.5472,138.6785,274.4528,137.7035,284.3585,138.5338,294.2642,137.505,304.1698,137.9315,314.0755,138.7416,323.9811,137.9513,333.8868,138.1053,343.7925,138.3386,353.6981,138.4162,363.6038,137.9961,373.5094,138.2872,383.4151,137.4276,393.3208,138.2844,403.2264,138.5482,413.1321,138.4445,423.0377,138.613,432.9434,137.5169,442.8491,137.3478,452.7547,137.3786,462.6604,137.9411,472.566,137.8035,482.4717,138.6814,492.3774,137.8253,502.283,137.6569,512.1887,138.2283,522.0943,137.3332,532,138,531.4809,138,532.649,147.5597,532.4357,157.1193,532.7345,166.679,531.6782,176.2386,532.3192,185.7983,532.5904,195.358,531.5276,204.9176,531.9041,214.4773,532.126,224.0369,532.6518,233.5966,532,243.1563,532,243.1521,522.0943,243.6188,512.1887,242.6025,502.283,242.479,492.3774,243.6599,482.4717,242.4393,472.566,243.6652,462.6604,243.3629,452.7547,242.8883,442.8491,242.8025,432.9434,243.615,423.0377,242.8569,413.1321,243.7481,403.2264,242.6035,393.3208,243.7737,383.4151,243.6406,373.5094,243.4012,363.6038,243.2035,353.6981,243.8829,343.7925,243.7698,333.8868,243.3255,323.9811,243.4244,314.0755,243.026,304.1698,243.8727,294.2642,243.3111,284.3585,243.3288,274.4528,242.5479,264.5472,242.751,254.6415,243.687,244.7358,243.586,234.8302,243.1133,224.9245,242.8341,215.0189,242.9373,205.1132,242.4701,195.2075,243.571,185.3019,243.8958,175.3962,243.6826,165.4906,243.8512,155.5849,243.0195,145.6792,243.2435,135.7736,242.7687,125.8679,243.4403,115.9623,243.403,106.0566,243.7086,96.1509,242.9266,86.2453,243.0218,76.3396,243.5997,66.434,243.7236,56.5283,242.6437,46.6226,242.9624,36.717,243.3055,26.8113,242.5454,16.9057,243.5096,7,243.1563,7.258,243.1563,6.8992,233.5966,7.1422,224.0369,7.7287,214.4773,6.6871,204.9176,7.315,195.358,7.2856,185.7983,7.1158,176.2386,7.1409,166.679,7.1135,157.1193,6.3758,147.5597,7,138" style="stroke:#383838;stroke-width:1.5;"/><polygon fill="#C2C2C2" points="202.3108,159.6444,200.6984,161.8475,198.7912,165.0745,196.0636,167.2491,193.1974,168.4384,190.912,168.5416,187.9747,167.0543,185.2032,166.0827,183.0995,164.1099,181.9961,161.8515,181.3417,160.0533,180.7006,157.7045,179.66,155.6832,180.4596,153.7098,181.1602,151.548,183.7893,149.8382,185.639,147.6198,187.9284,146.8832,190.6501,146.2488,194.1404,146.6257,196.0521,147.5273,198.2747,147.9359,200.9772,150.7047,201.9193,153.6277,202.3286,155.6221,201.865,158.9086" style="stroke:#383838;stroke-width:1.0;"/><path d="M194.2188,162.6094 Q193.6406,162.9063 193,163.0469 Q192.3594,163.2031 191.6563,163.2031 Q189.1563,163.2031 187.8281,161.5625 Q186.5156,159.9063 186.5156,156.7813 Q186.5156,153.6563 187.8281,152 Q189.1563,150.3438 191.6563,150.3438 Q192.3594,150.3438 193,150.5 Q193.6563,150.6563 194.2188,150.9531 L194.2188,153.6719 Q193.5938,153.0938 193,152.8281 Q192.4063,152.5469 191.7813,152.5469 Q190.4375,152.5469 189.75,153.625 Q189.0625,154.6875 189.0625,156.7813 Q189.0625,158.875 189.75,159.9531 Q190.4375,161.0156 191.7813,161.0156 Q192.4063,161.0156 193,160.75 Q193.5938,160.4688 194.2188,159.8906 L194.2188,162.6094 Z " fill="#000000"/><text fill="#000000" font-family="FG Virgil" font-size="12" font-style="italic" lengthAdjust="spacingAndGlyphs" textLength="83" x="244.25" y="154.1387">«application»</text><text fill="#000000" font-family="FG Virgil" font-size="12" lengthAdjust="spacingAndGlyphs" textLength="148" x="211.75" y="168.1074">NovoCatalogoController</text><path d="M8,175.9375 L8,176.2177 L18.0577,175.3851 L28.1154,176.1952 L38.1731,176.4704 L48.2308,174.9863 L58.2885,175.8339 L68.3462,175.3688 L78.4038,175.4262 L88.4615,175.8466 L98.5192,175.0157 L108.5769,176.6757 L118.6346,175.0971 L128.6923,175.6738 L138.75,176.5134 L148.8077,175.8231 L158.8654,176.0285 L168.9231,175.8949 L178.9808,176.1755 L189.0385,176.2563 L199.0962,176.7184 L209.1538,176.8322 L219.2115,176.8432 L229.2692,176.277 L239.3269,176.5556 L249.3846,176.8738 L259.4423,174.9759 L269.5,176.8422 L279.5577,175.5422 L289.6154,176.6492 L299.6731,175.2775 L309.7308,175.8462 L319.7885,176.9263 L329.8462,175.8725 L339.9038,176.0779 L349.9615,176.389 L360.0192,176.4925 L370.0769,175.9323 L380.1346,176.3205 L390.1923,175.1743 L400.25,176.3167 L410.3077,176.6684 L420.3654,176.5302 L430.4231,176.7549 L440.4808,175.2934 L450.5385,175.0679 L460.5962,175.109 L470.6538,175.859 L480.7115,175.6755 L490.7692,176.846 L500.8269,175.7046 L510.8846,175.4801 L520.9423,176.2419 L531,175.9375 " fill="#F8F8F8" style="stroke:#383838;stroke-width:1.5;"/><path d="M8,183.9375 L8,184.2177 L18.0577,183.3851 L28.1154,184.1952 L38.1731,184.4704 L48.2308,182.9863 L58.2885,183.8339 L68.3462,183.3688 L78.4038,183.4262 L88.4615,183.8466 L98.5192,183.0157 L108.5769,184.6757 L118.6346,183.0971 L128.6923,183.6738 L138.75,184.5134 L148.8077,183.8231 L158.8654,184.0285 L168.9231,183.8949 L178.9808,184.1755 L189.0385,184.2563 L199.0962,184.7184 L209.1538,184.8322 L219.2115,184.8432 L229.2692,184.277 L239.3269,184.5556 L249.3846,184.8738 L259.4423,182.9759 L269.5,184.8422 L279.5577,183.5422 L289.6154,184.6492 L299.6731,183.2775 L309.7308,183.8462 L319.7885,184.9263 L329.8462,183.8725 L339.9038,184.0779 L349.9615,184.389 L360.0192,184.4925 L370.0769,183.9323 L380.1346,184.3205 L390.1923,183.1743 L400.25,184.3167 L410.3077,184.6684 L420.3654,184.5302 L430.4231,184.7549 L440.4808,183.2934 L450.5385,183.0679 L460.5962,183.109 L470.6538,183.859 L480.7115,183.6755 L490.7692,184.846 L500.8269,183.7046 L510.8846,183.4801 L520.9423,184.2419 L531,183.9375 " fill="#F8F8F8" style="stroke:#383838;stroke-width:1.5;"/><text fill="#000000" font-family="FG Virgil" font-size="11" lengthAdjust="spacingAndGlyphs" textLength="75" x="13" y="198.1479">getEquipas ()</text><text fill="#000000" font-family="FG Virgil" font-size="11" lengthAdjust="spacingAndGlyphs" textLength="212" x="13" y="210.9526">novoObjetivo(tempoMax,tempoMedio)</text><text fill="#000000" font-family="FG Virgil" font-size="11" lengthAdjust="spacingAndGlyphs" textLength="513" x="13" y="223.7573">novoCatalogo(identificador,titulo,descricaoBreve,descricaoCompleta,icone,listEquipas,obj)</text><text fill="#000000" font-family="FG Virgil" font-size="11" lengthAdjust="spacingAndGlyphs" textLength="492" x="13" y="236.562">novoCatalogo(identificador,titulo,descricaoBreve,descricaoCompleta,icone,listEquipas)</text><!--MD5=[28183b5fe251cf9d4adbbaa3c2129d6e]
class Catalogo--><polygon fill="#F8F8F8" points="799.5,150.5,799.5,150.7102,809.46,150.0857,819.42,150.6933,829.38,150.8997,839.34,149.7866,849.3,150.4223,859.26,150.0735,869.22,150.1165,879.18,150.4318,889.14,149.8086,899.1,151.0536,909.06,149.8697,919.02,150.3022,928.98,150.9319,938.94,150.4142,948.9,150.5682,958.86,150.4681,968.82,150.6785,978.78,150.7391,988.74,151.0857,998.7,151.1711,1008.66,151.1793,1018.62,150.7546,1028.58,150.9636,1038.54,151.2022,1048.5,149.7788,1058.46,151.1785,1068.42,150.2035,1078.38,151.0338,1088.34,150.005,1098.3,150.4315,1108.26,151.2416,1118.22,150.4513,1128.18,150.6053,1138.14,150.8386,1148.1,150.9162,1158.06,150.4961,1168.02,150.7872,1177.98,149.9276,1187.94,150.7844,1197.9,151.0482,1207.86,150.9445,1217.82,151.113,1227.78,150.0169,1237.74,149.8478,1247.7,149.8786,1257.66,150.4411,1267.62,150.3035,1277.58,151.1814,1287.54,150.3253,1297.5,150.5,1297.1569,150.5,1297.7283,160.4434,1296.8332,170.3867,1296.9809,180.3301,1298.149,190.2734,1297.9357,200.2168,1298.2345,210.1602,1297.1782,220.1035,1297.5,230.0469,1297.5,230.3661,1287.54,230.6373,1277.58,229.5745,1267.62,229.951,1257.66,230.1729,1247.7,230.6986,1237.74,230.0427,1227.78,230.5094,1217.82,229.4931,1207.86,229.3696,1197.9,230.5505,1187.94,229.3299,1177.98,230.5558,1168.02,230.2535,1158.06,229.779,1148.1,229.6931,1138.14,230.5056,1128.18,229.7475,1118.22,230.6387,1108.26,229.4941,1098.3,230.6643,1088.34,230.5312,1078.38,230.2918,1068.42,230.0941,1058.46,230.7735,1048.5,230.6605,1038.54,230.2161,1028.58,230.3151,1018.62,229.9166,1008.66,230.7633,998.7,230.2017,988.74,230.2194,978.78,229.4385,968.82,229.6417,958.86,230.5776,948.9,230.4766,938.94,230.0039,928.98,229.7247,919.02,229.8279,909.06,229.3607,899.1,230.4616,889.14,230.7864,879.18,230.5733,869.22,230.7418,859.26,229.9101,849.3,230.1341,839.34,229.6593,829.38,230.3309,819.42,230.2936,809.46,230.5993,799.5,230.0469,799.2703,230.0469,799.3656,220.1035,799.9435,210.1602,800.0673,200.2168,798.9875,190.2734,799.3061,180.3301,799.6493,170.3867,798.8892,160.4434,799.5,150.5" style="stroke:#383838;stroke-width:1.5;"/><polygon fill="#C2C2C2" points="1027.3108,172.1444,1025.6984,174.3475,1023.7912,177.5745,1021.0636,179.7491,1018.1974,180.9384,1015.912,181.0416,1012.9747,179.5543,1010.2032,178.5827,1008.0995,176.6099,1006.9961,174.3515,1006.3417,172.5533,1005.7006,170.2045,1004.66,168.1832,1005.4596,166.2098,1006.1602,164.048,1008.7893,162.3382,1010.639,160.1198,1012.9284,159.3832,1015.6501,158.7488,1019.1404,159.1257,1021.0521,160.0273,1023.2747,160.4359,1025.9772,163.2047,1026.9193,166.1277,1027.3286,168.1221,1026.865,171.4086" style="stroke:#383838;stroke-width:1.0;"/><path d="M1019.2188,175.1094 Q1018.6406,175.4063 1018,175.5469 Q1017.3594,175.7031 1016.6563,175.7031 Q1014.1563,175.7031 1012.8281,174.0625 Q1011.5156,172.4063 1011.5156,169.2813 Q1011.5156,166.1563 1012.8281,164.5 Q1014.1563,162.8438 1016.6563,162.8438 Q1017.3594,162.8438 1018,163 Q1018.6563,163.1563 1019.2188,163.4531 L1019.2188,166.1719 Q1018.5938,165.5938 1018,165.3281 Q1017.4063,165.0469 1016.7813,165.0469 Q1015.4375,165.0469 1014.75,166.125 Q1014.0625,167.1875 1014.0625,169.2813 Q1014.0625,171.375 1014.75,172.4531 Q1015.4375,173.5156 1016.7813,173.5156 Q1017.4063,173.5156 1018,173.25 Q1018.5938,172.9688 1019.2188,172.3906 L1019.2188,175.1094 Z " fill="#000000"/><text fill="#000000" font-family="FG Virgil" font-size="12" font-style="italic" lengthAdjust="spacingAndGlyphs" textLength="60" x="1034.75" y="166.6387">«domain»</text><text fill="#000000" font-family="FG Virgil" font-size="12" lengthAdjust="spacingAndGlyphs" textLength="56" x="1036.75" y="180.6074">Catalogo</text><path d="M800.5,188.4375 L800.5,188.7177 L810.42,187.8851 L820.34,188.6952 L830.26,188.9704 L840.18,187.4863 L850.1,188.3339 L860.02,187.8688 L869.94,187.9262 L879.86,188.3466 L889.78,187.5157 L899.7,189.1757 L909.62,187.5971 L919.54,188.1738 L929.46,189.0134 L939.38,188.3231 L949.3,188.5285 L959.22,188.3949 L969.14,188.6755 L979.06,188.7563 L988.98,189.2184 L998.9,189.3322 L1008.82,189.3432 L1018.74,188.777 L1028.66,189.0556 L1038.58,189.3738 L1048.5,187.4759 L1058.42,189.3422 L1068.34,188.0422 L1078.26,189.1492 L1088.18,187.7775 L1098.1,188.3462 L1108.02,189.4263 L1117.94,188.3725 L1127.86,188.5779 L1137.78,188.889 L1147.7,188.9925 L1157.62,188.4323 L1167.54,188.8205 L1177.46,187.6743 L1187.38,188.8167 L1197.3,189.1684 L1207.22,189.0302 L1217.14,189.2549 L1227.06,187.7934 L1236.98,187.5679 L1246.9,187.609 L1256.82,188.359 L1266.74,188.1755 L1276.66,189.346 L1286.58,188.2046 L1296.5,188.4375 " fill="#F8F8F8" style="stroke:#383838;stroke-width:1.5;"/><path d="M800.5,196.4375 L800.5,196.7177 L810.42,195.8851 L820.34,196.6952 L830.26,196.9704 L840.18,195.4863 L850.1,196.3339 L860.02,195.8688 L869.94,195.9262 L879.86,196.3466 L889.78,195.5157 L899.7,197.1757 L909.62,195.5971 L919.54,196.1738 L929.46,197.0134 L939.38,196.3231 L949.3,196.5285 L959.22,196.3949 L969.14,196.6755 L979.06,196.7563 L988.98,197.2184 L998.9,197.3322 L1008.82,197.3432 L1018.74,196.777 L1028.66,197.0556 L1038.58,197.3738 L1048.5,195.4759 L1058.42,197.3422 L1068.34,196.0422 L1078.26,197.1492 L1088.18,195.7775 L1098.1,196.3462 L1108.02,197.4263 L1117.94,196.3725 L1127.86,196.5779 L1137.78,196.889 L1147.7,196.9925 L1157.62,196.4323 L1167.54,196.8205 L1177.46,195.6743 L1187.38,196.8167 L1197.3,197.1684 L1207.22,197.0302 L1217.14,197.2549 L1227.06,195.7934 L1236.98,195.5679 L1246.9,195.609 L1256.82,196.359 L1266.74,196.1755 L1276.66,197.346 L1286.58,196.2046 L1296.5,196.4375 " fill="#F8F8F8" style="stroke:#383838;stroke-width:1.5;"/><text fill="#000000" font-family="FG Virgil" font-size="11" lengthAdjust="spacingAndGlyphs" textLength="465" x="805.5" y="210.6479">Catalogo(identificador,titulo,descricaoBreve,descricaoCompleta,icone,listEquipas)</text><text fill="#000000" font-family="FG Virgil" font-size="11" lengthAdjust="spacingAndGlyphs" textLength="486" x="805.5" y="223.4526">Catalogo(identificador,titulo,descricaoBreve,descricaoCompleta,icone,listEquipas,obj)</text><!--MD5=[6fa8d92e41e8fcfab0f3791a7c2bd7d7]
class Objetivo--><polygon fill="#F8F8F8" points="567,157,567,157.2102,576.85,156.5857,586.7,157.1933,596.55,157.3997,606.4,156.2866,616.25,156.9223,626.1,156.5735,635.95,156.6165,645.8,156.9318,655.65,156.3086,665.5,157.5536,675.35,156.3697,685.2,156.8022,695.05,157.4319,704.9,156.9142,714.75,157.0682,724.6,156.9681,734.45,157.1785,744.3,157.2391,754.15,157.5857,764,157,764.6711,157,764.6793,166.5346,764.2546,176.0692,764.4636,185.6038,764.7022,195.1384,763.2788,204.673,764.6785,214.2076,764,223.7422,764,223.4457,754.15,224.276,744.3,223.2472,734.45,223.6737,724.6,224.4838,714.75,223.6935,704.9,223.8475,695.05,224.0808,685.2,224.1584,675.35,223.7383,665.5,224.0294,655.65,223.1698,645.8,224.0266,635.95,224.2904,626.1,224.1867,616.25,224.3552,606.4,223.2591,596.55,223.09,586.7,223.1208,576.85,223.6833,567,223.7422,566.8035,223.7422,567.6814,214.2076,566.8253,204.673,566.6569,195.1384,567.2283,185.6038,566.3332,176.0692,566.4809,166.5346,567,157" style="stroke:#383838;stroke-width:1.5;"/><polygon fill="#C2C2C2" points="644.3108,178.6444,642.6984,180.8475,640.7912,184.0745,638.0636,186.2491,635.1974,187.4384,632.912,187.5416,629.9747,186.0543,627.2032,185.0827,625.0995,183.1099,623.9961,180.8515,623.3417,179.0533,622.7006,176.7045,621.66,174.6832,622.4596,172.7098,623.1602,170.548,625.7893,168.8382,627.639,166.6198,629.9284,165.8832,632.6501,165.2488,636.1404,165.6257,638.0521,166.5273,640.2747,166.9359,642.9772,169.7047,643.9193,172.6277,644.3286,174.6221,643.865,177.9086" style="stroke:#383838;stroke-width:1.0;"/><path d="M636.2188,181.6094 Q635.6406,181.9063 635,182.0469 Q634.3594,182.2031 633.6563,182.2031 Q631.1563,182.2031 629.8281,180.5625 Q628.5156,178.9063 628.5156,175.7813 Q628.5156,172.6563 629.8281,171 Q631.1563,169.3438 633.6563,169.3438 Q634.3594,169.3438 635,169.5 Q635.6563,169.6563 636.2188,169.9531 L636.2188,172.6719 Q635.5938,172.0938 635,171.8281 Q634.4063,171.5469 633.7813,171.5469 Q632.4375,171.5469 631.75,172.625 Q631.0625,173.6875 631.0625,175.7813 Q631.0625,177.875 631.75,178.9531 Q632.4375,180.0156 633.7813,180.0156 Q634.4063,180.0156 635,179.75 Q635.5938,179.4688 636.2188,178.8906 L636.2188,181.6094 Z " fill="#000000"/><text fill="#000000" font-family="FG Virgil" font-size="12" font-style="italic" lengthAdjust="spacingAndGlyphs" textLength="60" x="651.75" y="173.1387">«domain»</text><text fill="#000000" font-family="FG Virgil" font-size="12" lengthAdjust="spacingAndGlyphs" textLength="50" x="656.75" y="187.1074">Objetivo</text><path d="M568,194.9375 L568,195.2177 L577.75,194.3851 L587.5,195.1952 L597.25,195.4704 L607,193.9863 L616.75,194.8339 L626.5,194.3688 L636.25,194.4262 L646,194.8466 L655.75,194.0157 L665.5,195.6757 L675.25,194.0971 L685,194.6738 L694.75,195.5134 L704.5,194.8231 L714.25,195.0285 L724,194.8949 L733.75,195.1755 L743.5,195.2563 L753.25,195.7184 L763,194.9375 " fill="#F8F8F8" style="stroke:#383838;stroke-width:1.5;"/><path d="M568,202.9375 L568,203.2177 L577.75,202.3851 L587.5,203.1952 L597.25,203.4704 L607,201.9863 L616.75,202.8339 L626.5,202.3688 L636.25,202.4262 L646,202.8466 L655.75,202.0157 L665.5,203.6757 L675.25,202.0971 L685,202.6738 L694.75,203.5134 L704.5,202.8231 L714.25,203.0285 L724,202.8949 L733.75,203.1755 L743.5,203.2563 L753.25,203.7184 L763,202.9375 " fill="#F8F8F8" style="stroke:#383838;stroke-width:1.5;"/><text fill="#000000" font-family="FG Virgil" font-size="11" lengthAdjust="spacingAndGlyphs" textLength="185" x="573" y="217.1479">Objetivo(tempoMax,tempoMedio)</text><!--MD5=[37de35b2239f3e75f2a4e341603fb23d]
class CatalogoRepository--><polygon fill="#F8F8F8" points="1509.5,157,1509.5,157.2102,1519.7667,156.5857,1530.0333,157.1933,1540.3,157.3997,1550.5667,156.2866,1560.8333,156.9223,1571.1,156.5735,1581.3667,156.6165,1591.6333,156.9318,1601.9,156.3086,1612.1667,157.5536,1622.4333,156.3697,1632.7,156.8022,1642.9667,157.4319,1653.2333,156.9142,1663.5,157,1663.5682,157,1663.4681,166.5346,1663.6785,176.0692,1663.7391,185.6038,1664.0857,195.1384,1664.1711,204.673,1664.1793,214.2076,1663.5,223.7422,1663.5,223.9968,1653.2333,224.2058,1642.9667,224.4444,1632.7,223.021,1622.4333,224.4207,1612.1667,223.4457,1601.9,224.276,1591.6333,223.2472,1581.3667,223.6737,1571.1,224.4838,1560.8333,223.6935,1550.5667,223.8475,1540.3,224.0808,1530.0333,224.1584,1519.7667,223.7383,1509.5,223.7422,1509.7872,223.7422,1508.9276,214.2076,1509.7844,204.673,1510.0482,195.1384,1509.9445,185.6038,1510.113,176.0692,1509.0169,166.5346,1509.5,157" style="stroke:#383838;stroke-width:1.5;"/><polygon fill="#C2C2C2" points="1535.5608,178.6444,1533.9484,180.8475,1532.0412,184.0745,1529.3136,186.2491,1526.4474,187.4384,1524.162,187.5416,1521.2247,186.0543,1518.4532,185.0827,1516.3495,183.1099,1515.2461,180.8515,1514.5917,179.0533,1513.9506,176.7045,1512.91,174.6832,1513.7096,172.7098,1514.4102,170.548,1517.0393,168.8382,1518.889,166.6198,1521.1784,165.8832,1523.9001,165.2488,1527.3904,165.6257,1529.3021,166.5273,1531.5247,166.9359,1534.2272,169.7047,1535.1693,172.6277,1535.5786,174.6221,1535.115,177.9086" style="stroke:#383838;stroke-width:1.0;"/><path d="M1527.4688,181.6094 Q1526.8906,181.9063 1526.25,182.0469 Q1525.6094,182.2031 1524.9063,182.2031 Q1522.4063,182.2031 1521.0781,180.5625 Q1519.7656,178.9063 1519.7656,175.7813 Q1519.7656,172.6563 1521.0781,171 Q1522.4063,169.3438 1524.9063,169.3438 Q1525.6094,169.3438 1526.25,169.5 Q1526.9063,169.6563 1527.4688,169.9531 L1527.4688,172.6719 Q1526.8438,172.0938 1526.25,171.8281 Q1525.6563,171.5469 1525.0313,171.5469 Q1523.6875,171.5469 1523,172.625 Q1522.3125,173.6875 1522.3125,175.7813 Q1522.3125,177.875 1523,178.9531 Q1523.6875,180.0156 1525.0313,180.0156 Q1525.6563,180.0156 1526.25,179.75 Q1526.8438,179.4688 1527.4688,178.8906 L1527.4688,181.6094 Z " fill="#000000"/><text fill="#000000" font-family="FG Virgil" font-size="12" font-style="italic" lengthAdjust="spacingAndGlyphs" textLength="77" x="1561" y="173.1387">«repository»</text><text fill="#000000" font-family="FG Virgil" font-size="12" lengthAdjust="spacingAndGlyphs" textLength="122" x="1538.5" y="187.1074">CatalogoRepository</text><path d="M1510.5,194.9375 L1510.5,195.2177 L1520.6333,194.3851 L1530.7667,195.1952 L1540.9,195.4704 L1551.0333,193.9863 L1561.1667,194.8339 L1571.3,194.3688 L1581.4333,194.4262 L1591.5667,194.8466 L1601.7,194.0157 L1611.8333,195.6757 L1621.9667,194.0971 L1632.1,194.6738 L1642.2333,195.5134 L1652.3667,194.8231 L1662.5,194.9375 " fill="#F8F8F8" style="stroke:#383838;stroke-width:1.5;"/><path d="M1510.5,202.9375 L1510.5,203.2177 L1520.6333,202.3851 L1530.7667,203.1952 L1540.9,203.4704 L1551.0333,201.9863 L1561.1667,202.8339 L1571.3,202.3688 L1581.4333,202.4262 L1591.5667,202.8466 L1601.7,202.0157 L1611.8333,203.6757 L1621.9667,202.0971 L1632.1,202.6738 L1642.2333,203.5134 L1652.3667,202.8231 L1662.5,202.9375 " fill="#F8F8F8" style="stroke:#383838;stroke-width:1.5;"/><text fill="#000000" font-family="FG Virgil" font-size="11" lengthAdjust="spacingAndGlyphs" textLength="52" x="1515.5" y="217.1479">save(cat)</text><!--MD5=[c19bbd5e5c2f4d9234b09f570bb44089]
class UtilizadorRepository--><polygon fill="#F8F8F8" points="1699,157,1699,157.2102,1708.6875,156.5857,1718.375,157.1933,1728.0625,157.3997,1737.75,156.2866,1747.4375,156.9223,1757.125,156.5735,1766.8125,156.6165,1776.5,156.9318,1786.1875,156.3086,1795.875,157.5536,1805.5625,156.3697,1815.25,156.8022,1824.9375,157.4319,1834.625,156.9142,1844.3125,157.0682,1854,157,1853.9681,157,1854.1785,166.5346,1854.2391,176.0692,1854.5857,185.6038,1854.6711,195.1384,1854.6793,204.673,1854.2546,214.2076,1854,223.7422,1854,224.2058,1844.3125,224.4444,1834.625,223.021,1824.9375,224.4207,1815.25,223.4457,1805.5625,224.276,1795.875,223.2472,1786.1875,223.6737,1776.5,224.4838,1766.8125,223.6935,1757.125,223.8475,1747.4375,224.0808,1737.75,224.1584,1728.0625,223.7383,1718.375,224.0294,1708.6875,223.1698,1699,223.7422,1699.2844,223.7422,1699.5482,214.2076,1699.4445,204.673,1699.613,195.1384,1698.5169,185.6038,1698.3478,176.0692,1698.3786,166.5346,1699,157" style="stroke:#383838;stroke-width:1.5;"/><polygon fill="#C2C2C2" points="1725.0608,178.6444,1723.4484,180.8475,1721.5412,184.0745,1718.8136,186.2491,1715.9474,187.4384,1713.662,187.5416,1710.7247,186.0543,1707.9532,185.0827,1705.8495,183.1099,1704.7461,180.8515,1704.0917,179.0533,1703.4506,176.7045,1702.41,174.6832,1703.2096,172.7098,1703.9102,170.548,1706.5393,168.8382,1708.389,166.6198,1710.6784,165.8832,1713.4001,165.2488,1716.8904,165.6257,1718.8021,166.5273,1721.0247,166.9359,1723.7272,169.7047,1724.6693,172.6277,1725.0786,174.6221,1724.615,177.9086" style="stroke:#383838;stroke-width:1.0;"/><path d="M1716.9688,181.6094 Q1716.3906,181.9063 1715.75,182.0469 Q1715.1094,182.2031 1714.4063,182.2031 Q1711.9063,182.2031 1710.5781,180.5625 Q1709.2656,178.9063 1709.2656,175.7813 Q1709.2656,172.6563 1710.5781,171 Q1711.9063,169.3438 1714.4063,169.3438 Q1715.1094,169.3438 1715.75,169.5 Q1716.4063,169.6563 1716.9688,169.9531 L1716.9688,172.6719 Q1716.3438,172.0938 1715.75,171.8281 Q1715.1563,171.5469 1714.5313,171.5469 Q1713.1875,171.5469 1712.5,172.625 Q1711.8125,173.6875 1711.8125,175.7813 Q1711.8125,177.875 1712.5,178.9531 Q1713.1875,180.0156 1714.5313,180.0156 Q1715.1563,180.0156 1715.75,179.75 Q1716.3438,179.4688 1716.9688,178.8906 L1716.9688,181.6094 Z " fill="#000000"/><text fill="#000000" font-family="FG Virgil" font-size="12" font-style="italic" lengthAdjust="spacingAndGlyphs" textLength="77" x="1751" y="173.1387">«repository»</text><text fill="#000000" font-family="FG Virgil" font-size="12" lengthAdjust="spacingAndGlyphs" textLength="123" x="1728" y="187.1074">UtilizadorRepository</text><path d="M1700,194.9375 L1700,195.2177 L1710.2,194.3851 L1720.4,195.1952 L1730.6,195.4704 L1740.8,193.9863 L1751,194.8339 L1761.2,194.3688 L1771.4,194.4262 L1781.6,194.8466 L1791.8,194.0157 L1802,195.6757 L1812.2,194.0971 L1822.4,194.6738 L1832.6,195.5134 L1842.8,194.8231 L1853,194.9375 " fill="#F8F8F8" style="stroke:#383838;stroke-width:1.5;"/><path d="M1700,202.9375 L1700,203.2177 L1710.2,202.3851 L1720.4,203.1952 L1730.6,203.4704 L1740.8,201.9863 L1751,202.8339 L1761.2,202.3688 L1771.4,202.4262 L1781.6,202.8466 L1791.8,202.0157 L1802,203.6757 L1812.2,202.0971 L1822.4,202.6738 L1832.6,203.5134 L1842.8,202.8231 L1853,202.9375 " fill="#F8F8F8" style="stroke:#383838;stroke-width:1.5;"/><text fill="#000000" font-family="FG Virgil" font-size="11" lengthAdjust="spacingAndGlyphs" textLength="109" x="1705" y="217.1479">listColaboradores()</text><!--MD5=[e3d99162b7328c3f1201e3bd1b8bcde6]
class EquipaRepository--><polygon fill="#F8F8F8" points="1333,157,1333,157.2102,1343.0714,156.5857,1353.1429,157.1933,1363.2143,157.3997,1373.2857,156.2866,1383.3571,156.9223,1393.4286,156.5735,1403.5,156.6165,1413.5714,156.9318,1423.6429,156.3086,1433.7143,157.5536,1443.7857,156.3697,1453.8571,156.8022,1463.9286,157.4319,1474,157,1473.9142,157,1474.0682,166.5346,1473.9681,176.0692,1474.1785,185.6038,1474.2391,195.1384,1474.5857,204.673,1474.6711,214.2076,1474,223.7422,1474,224.4214,1463.9286,223.9968,1453.8571,224.2058,1443.7857,224.4444,1433.7143,223.021,1423.6429,224.4207,1413.5714,223.4457,1403.5,224.276,1393.4286,223.2472,1383.3571,223.6737,1373.2857,224.4838,1363.2143,223.6935,1353.1429,223.8475,1343.0714,224.0808,1333,223.7422,1333.4162,223.7422,1332.9961,214.2076,1333.2872,204.673,1332.4276,195.1384,1333.2844,185.6038,1333.5482,176.0692,1333.4445,166.5346,1333,157" style="stroke:#383838;stroke-width:1.5;"/><polygon fill="#C2C2C2" points="1359.0608,178.6444,1357.4484,180.8475,1355.5412,184.0745,1352.8136,186.2491,1349.9474,187.4384,1347.662,187.5416,1344.7247,186.0543,1341.9532,185.0827,1339.8495,183.1099,1338.7461,180.8515,1338.0917,179.0533,1337.4506,176.7045,1336.41,174.6832,1337.2096,172.7098,1337.9102,170.548,1340.5393,168.8382,1342.389,166.6198,1344.6784,165.8832,1347.4001,165.2488,1350.8904,165.6257,1352.8021,166.5273,1355.0247,166.9359,1357.7272,169.7047,1358.6693,172.6277,1359.0786,174.6221,1358.615,177.9086" style="stroke:#383838;stroke-width:1.0;"/><path d="M1350.9688,181.6094 Q1350.3906,181.9063 1349.75,182.0469 Q1349.1094,182.2031 1348.4063,182.2031 Q1345.9063,182.2031 1344.5781,180.5625 Q1343.2656,178.9063 1343.2656,175.7813 Q1343.2656,172.6563 1344.5781,171 Q1345.9063,169.3438 1348.4063,169.3438 Q1349.1094,169.3438 1349.75,169.5 Q1350.4063,169.6563 1350.9688,169.9531 L1350.9688,172.6719 Q1350.3438,172.0938 1349.75,171.8281 Q1349.1563,171.5469 1348.5313,171.5469 Q1347.1875,171.5469 1346.5,172.625 Q1345.8125,173.6875 1345.8125,175.7813 Q1345.8125,177.875 1346.5,178.9531 Q1347.1875,180.0156 1348.5313,180.0156 Q1349.1563,180.0156 1349.75,179.75 Q1350.3438,179.4688 1350.9688,178.8906 L1350.9688,181.6094 Z " fill="#000000"/><text fill="#000000" font-family="FG Virgil" font-size="12" font-style="italic" lengthAdjust="spacingAndGlyphs" textLength="77" x="1378" y="173.1387">«repository»</text><text fill="#000000" font-family="FG Virgil" font-size="12" lengthAdjust="spacingAndGlyphs" textLength="109" x="1362" y="187.1074">EquipaRepository</text><path d="M1334,194.9375 L1334,195.2177 L1343.9286,194.3851 L1353.8571,195.1952 L1363.7857,195.4704 L1373.7143,193.9863 L1383.6429,194.8339 L1393.5714,194.3688 L1403.5,194.4262 L1413.4286,194.8466 L1423.3571,194.0157 L1433.2857,195.6757 L1443.2143,194.0971 L1453.1429,194.6738 L1463.0714,195.5134 L1473,194.9375 " fill="#F8F8F8" style="stroke:#383838;stroke-width:1.5;"/><path d="M1334,202.9375 L1334,203.2177 L1343.9286,202.3851 L1353.8571,203.1952 L1363.7857,203.4704 L1373.7143,201.9863 L1383.6429,202.8339 L1393.5714,202.3688 L1403.5,202.4262 L1413.4286,202.8466 L1423.3571,202.0157 L1433.2857,203.6757 L1443.2143,202.0971 L1453.1429,202.6738 L1463.0714,203.5134 L1473,202.9375 " fill="#F8F8F8" style="stroke:#383838;stroke-width:1.5;"/><text fill="#000000" font-family="FG Virgil" font-size="11" lengthAdjust="spacingAndGlyphs" textLength="70" x="1339" y="217.1479">listEquipas()</text><!--MD5=[a594f6240f6df84ced6c22f6f65865d0]
link NovoCatalogoUI to NovoCatalogoController--><path d="M269.5,61.2602 L269.7802,61.2602 L268.9476,71.4763 L269.7577,81.6923 L270.0329,91.9084 L268.5488,102.1245 L269.3964,112.3406 L268.9313,122.5566 L269.5,132.7727 " fill="none" style="stroke:#383838;stroke-width:1.0;"/><polygon fill="#383838" points="269.5,137.9456,269.564,137.9741,270.1738,136.0895,271.1589,134.3718,272.0217,132.5997,272.4827,130.649,273.5,128.9456,273.4817,128.9273,272.5995,129.6451,271.8096,130.4552,271.0839,131.3295,270.137,131.9826,269.5,132.9456,269.6305,133.0761,268.5514,131.997,267.8534,131.299,267.2018,130.6474,266.2798,129.7254,265.5,128.9456,265.5208,128.9548,266.2903,130.7413,267.1544,132.5698,267.9728,134.378,268.8784,136.2249,269.5,137.9456" style="stroke:#383838;stroke-width:1.0;"/><text fill="#000000" font-family="FG Virgil" font-size="13" lengthAdjust="spacingAndGlyphs" textLength="83" x="270.5" y="104.0669">theController</text><!--MD5=[0ddeb544a08ce83726aedd9d40a6bcb1]
link NovoCatalogoController to UtilizadorRepository--><path d="M410.8912,137.8803 L410.9191,137.9694 L414.5508,136.5418 L418.3461,135.6368 L422.0881,134.5616 L425.6549,132.9268 L429.4642,132.0667 L429.4544,132.0336 L433.226,130.7493 L437.0472,129.632 L440.9031,128.6306 L444.6399,127.2295 L448.5434,126.3883 L448.6099,126.6252 L452.3609,125.0255 L456.3062,124.1175 L460.2752,123.2938 L464.1063,121.9792 L468.0099,120.9228 L468.0176,120.9521 L471.9534,119.874 L475.9242,118.9294 L479.8781,117.9204 L483.8642,117.0344 L487.7452,115.7475 L487.8153,116.0374 L491.7932,115.0795 L495.726,113.9346 L499.7249,113.0633 L503.7268,112.205 L507.6306,110.9401 L507.562,110.627 L511.6784,110.3623 L515.5691,109.0666 L519.6314,108.5546 L523.5169,107.2355 L527.5473,106.578 L527.5415,106.5482 L531.5758,106.1338 L535.4749,105.0211 L539.4538,104.3205 L543.4394,103.6544 L547.3767,102.7388 L547.4068,102.9214 L551.301,102.0894 L555.2468,101.5692 L559.1092,100.5445 L563.0959,100.2725 L567,99.5 L567.0306,99.7417 L569.7102,99.3558 L572.405,99.0898 L575.0292,98.2663 L577.7051,97.8514 L580.4269,97.7988 L580.4,97.5239 L583.9236,97.4296 L587.4169,97.0255 L590.9543,97.0707 L594.4164,96.3489 L597.9232,96.083 L597.911,95.931 L602.19,95.8405 L606.4167,95.1004 L610.6806,94.8222 L614.981,94.9961 L619.2165,94.365 L619.2298,94.5582 L624.2025,94.3492 L629.1338,93.5393 L634.117,93.482 L639.0888,93.2607 L644.0344,92.6574 L644.0218,92.4478 L649.6458,92.2779 L655.2657,92.0393 L660.8938,91.9356 L666.4903,91.3076 L672.1044,90.9725 L672.1153,91.1778 L678.3013,90.3968 L684.5084,90.012 L690.7462,90.2062 L696.9274,89.3345 L703.1543,89.3228 L703.165,89.5487 L709.9101,89.0941 L716.6515,88.563 L723.4012,88.2044 L730.1697,88.2447 L736.9115,87.7206 L736.9058,87.5877 L744.1612,87.675 L751.378,86.8584 L758.6385,87.0695 L765.8745,86.702 L773.1038,86.1785 L773.1079,86.2873 L780.7755,85.9056 L788.4581,85.9134 L796.1271,85.5693 L803.7906,85.078 L811.4586,84.7089 L811.4627,84.828 L819.5057,84.3741 L827.5676,84.4732 L835.6081,83.9468 L843.6574,83.6778 L851.7037,83.3242 L851.6954,83.0539 L860.0708,82.8867 L868.4562,83.045 L876.8274,82.7426 L885.1935,82.2751 L893.5667,82.0367 L893.5628,81.8936 L902.2057,81.7039 L910.8417,81.2608 L919.4967,81.5144 L928.1423,81.4232 L936.7751,80.8591 L936.7806,81.093 L945.6387,80.9567 L954.4862,80.3761 L963.3448,80.2645 L972.1961,79.8425 L981.0565,79.8036 L981.0642,80.1822 L990.0796,79.9484 L999.1044,80.1716 L1008.0995,78.9449 L1017.1185,78.8877 L1026.1386,78.8827 L1026.1486,79.4739 L1035.2735,79.4843 L1044.3711,77.8899 L1053.5004,78.16 L1062.6302,78.4627 L1071.7489,78.1089 L1071.738,77.2946 L1080.9285,78.4572 L1090.1,78.2072 L1099.2668,77.606 L1108.4444,77.8071 L1117.6151,77.4946 L1117.6245,78.4661 L1126.781,76.989 L1135.959,77.7376 L1145.1286,77.61 L1154.2963,77.2951 L1163.4648,77.0522 L1163.4659,77.2401 L1172.5778,77.1519 L1181.6844,76.1168 L1190.7982,76.363 L1199.9099,76.2304 L1209.0256,76.7942 L1209.0256,76.8225 L1218.0255,76.8211 L1227.0254,76.8416 L1236.0251,76.6281 L1245.0251,76.7152 L1254.025,76.7329 L1254.0248,76.6795 L1262.859,77.0189 L1271.692,76.9817 L1280.5237,76.6059 L1289.3575,76.8189 L1298.1908,76.8809 L1298.1886,76.6243 L1306.8038,77.0829 L1315.417,77.2991 L1324.0286,77.3446 L1332.6368,76.983 L1341.2504,77.2504 L1341.2534,77.4566 L1349.5819,77.0411 L1357.9242,77.5809 L1366.2572,77.4796 L1374.596,77.7764 L1382.9316,77.8541 L1382.9339,77.9609 L1390.9421,78.2339 L1398.9369,77.8743 L1406.9543,78.5755 L1414.9575,78.6134 L1422.9619,78.7043 L1422.9665,78.8621 L1430.593,79.2583 L1438.2048,79.1504 L1445.8284,79.4476 L1453.4503,79.6864 L1461.0689,79.8134 L1461.0723,79.901 L1468.2512,80.0891 L1475.4456,80.6812 L1482.6053,80.3709 L1489.8076,81.1688 L1496.9802,81.1939 L1496.9665,80.9169 L1503.657,81.2869 L1510.3584,81.8774 L1517.0468,82.205 L1523.724,82.3066 L1530.4235,82.8582 L1530.4353,83.0417 L1536.5672,83.2986 L1542.7252,83.9647 L1548.8641,84.3304 L1554.9731,84.2278 L1561.1264,84.8187 L1561.1119,84.6424 L1566.6597,85.2153 L1572.2153,85.8839 L1577.755,86.3587 L1583.2893,86.7675 L1588.8164,87.0879 L1588.8013,86.9367 L1591.3703,87.6202 L1593.8962,87.8699 L1596.3923,87.8195 L1598.9099,87.9856 L1601.4464,88.3421 L1601.4263,88.1649 L1603.7906,88.5146 L1606.1632,88.9372 L1608.5078,89.1136 L1610.8452,89.2265 L1613.2211,89.6782 L1613.2491,89.893 L1615.3718,89.7598 L1617.6041,90.4674 L1619.7768,90.7182 L1621.9507,90.9776 L1624.1064,91.0976 L1624.1524,91.402 L1626.0824,91.2905 L1628.0712,91.5673 L1630.1179,92.2283 L1632.0362,92.0388 L1634.0682,92.602 L1634.0486,92.4999 L1637.4813,93.3064 L1640.8808,93.9399 L1644.2484,94.4074 L1647.6783,95.1991 L1651.0853,95.8718 L1651.1748,96.1904 L1653.7462,96.8749 L1656.1795,97.068 L1658.8436,98.0823 L1661.3553,98.5545 L1664,99.5 L1663.9956,99.4892 L1666.3003,100.5323 L1668.5729,101.4962 L1670.6434,101.9611 L1673.0725,103.3115 L1675.2572,104.0582 L1675.2588,104.0615 L1677.3442,104.9403 L1679.5587,106.0765 L1681.9155,107.4961 L1684.0979,108.5683 L1686.2458,109.5718 L1686.2421,109.5655 L1688.2253,110.5739 L1690.6574,112.3422 L1692.5695,113.2303 L1694.6521,114.4069 L1696.9028,115.8683 L1696.8861,115.8434 L1699.1016,117.4671 L1701.1604,118.858 L1703.0688,120.0254 L1705.075,121.3381 L1707.1649,122.7752 L1707.2102,122.8356 L1709.1753,124.3105 L1710.9512,125.5326 L1713.1576,127.3295 L1715.157,128.85 L1716.9689,130.1202 L1716.9081,130.0461 L1718.7045,131.4948 L1720.8721,133.3963 L1722.5444,134.6938 L1724.395,136.2086 L1726.2516,137.7308 L1726.3397,137.8303 L1727.8009,139.0567 L1729.887,140.9886 L1731.4659,142.3478 L1733.4072,144.1162 L1734.9497,145.4344 L1734.8837,145.3648 L1736.6848,147.0913 L1738.0342,148.3409 L1739.8548,150.0881 L1741.5059,151.6562 L1743.0001,153.0587 " fill="none" style="stroke:#383838;stroke-width:1.0;"/><polygon fill="#383838" points="1746.7475,156.7719,1746.8128,156.7973,1745.9033,154.8865,1745.3765,153.1249,1744.725,151.3146,1743.6638,149.3447,1743.1698,147.5958,1743.1439,147.5957,1743.0329,148.7265,1743.0524,149.858,1743.1627,150.9898,1742.9601,152.1202,1743.1958,153.2526,1743.1966,153.4372,1742.0635,153.0477,1740.9328,153.1971,1739.8024,153.4122,1738.6702,153.2448,1737.539,153.2786,1737.5471,153.2998,1739.3769,153.9673,1741.2435,154.7315,1743.0924,155.4491,1744.975,156.2558,1746.7475,156.7719" style="stroke:#383838;stroke-width:1.0;"/><!--MD5=[89b6f6eab4714cbc1842106a59892fbf]
link NovoCatalogoController to CatalogoRepository--><path d="M410.8912,137.8803 L410.9191,137.9694 L414.5508,136.5418 L418.3461,135.6368 L422.0881,134.5616 L425.6549,132.9268 L429.4642,132.0667 L429.4544,132.0336 L433.226,130.7493 L437.0472,129.632 L440.9031,128.6306 L444.6399,127.2295 L448.5434,126.3883 L448.6099,126.6252 L452.3609,125.0255 L456.3062,124.1175 L460.2752,123.2938 L464.1063,121.9792 L468.0099,120.9228 L468.0176,120.9521 L471.9534,119.874 L475.9242,118.9294 L479.8781,117.9204 L483.8642,117.0344 L487.7452,115.7475 L487.8153,116.0374 L491.7932,115.0795 L495.726,113.9346 L499.7249,113.0633 L503.7268,112.205 L507.6306,110.9401 L507.562,110.627 L511.6784,110.3623 L515.5691,109.0666 L519.6314,108.5546 L523.5169,107.2355 L527.5473,106.578 L527.5415,106.5482 L531.5758,106.1338 L535.4749,105.0211 L539.4538,104.3205 L543.4394,103.6544 L547.3767,102.7388 L547.4068,102.9214 L551.301,102.0894 L555.2468,101.5692 L559.1092,100.5445 L563.0959,100.2725 L567,99.5 L567.0346,99.7412 L570.9483,99.1329 L574.8791,98.6444 L578.73,97.5996 L582.6396,96.9625 L586.6009,96.6868 L586.5645,96.4131 L590.867,96.0934 L595.1285,95.4653 L599.4495,95.2847 L603.6689,94.3401 L607.9486,93.8496 L607.9299,93.6983 L612.5563,93.3821 L617.1028,92.4191 L621.7061,91.9161 L626.365,91.8632 L630.9249,91.0088 L630.9471,91.2012 L635.8596,90.7684 L640.7031,89.7372 L645.6331,89.4555 L650.5442,89.0105 L655.4114,88.1851 L655.389,87.9763 L660.5826,87.5855 L665.7688,87.1263 L670.9695,86.8014 L676.114,85.9543 L681.2899,85.3989 L681.3105,85.6035 L686.6958,84.6085 L692.1207,84.0083 L697.6036,83.9849 L702.9799,82.8995 L708.4421,82.671 L708.4632,82.8962 L714.1122,82.2325 L719.7541,81.4927 L725.4121,80.9248 L731.1073,80.7545 L736.7498,80.0217 L736.7383,79.8891 L742.6415,79.7737 L748.4664,78.7569 L754.3804,78.765 L760.2443,78.1961 L766.0946,77.4717 L766.1033,77.5802 L772.149,77.0065 L778.2259,76.8215 L784.2746,76.2854 L790.3116,75.6025 L796.3583,75.0415 L796.367,75.1603 L802.5669,74.5258 L808.8074,74.4431 L815.0019,73.7362 L821.2153,73.2861 L827.4226,72.7516 L827.4045,72.4819 L833.7598,72.1462 L840.137,72.1355 L846.4833,71.6649 L852.8186,71.0295 L859.1692,70.6228 L859.1606,70.4798 L865.6255,70.1362 L872.0751,69.5394 L878.5667,69.6383 L885.0375,69.393 L891.4798,68.6754 L891.4923,68.909 L898.0476,68.6347 L904.5792,67.9166 L911.1358,67.6669 L917.6758,67.1071 L924.2363,66.9301 L924.2421,67.0562 L930.8581,66.7351 L937.4812,66.5662 L944.082,65.9145 L950.7007,65.6522 L957.3202,65.4073 L957.3278,65.6043 L963.9886,65.4034 L970.6288,64.6679 L977.2928,64.5535 L983.9573,64.45 L990.6134,64.1278 L990.6052,63.8564 L997.295,64.0816 L1003.9706,63.8361 L1010.6425,63.4735 L1017.3226,63.3783 L1023.9976,63.112 L1024.0047,63.4357 L1030.6659,62.8266 L1037.3433,62.9593 L1044.0144,62.7999 L1050.6841,62.5782 L1057.3544,62.3804 L1057.3552,62.443 L1063.9972,62.3455 L1070.6353,61.9323 L1077.2788,61.9462 L1083.9207,61.8339 L1090.5656,61.9537 L1090.5656,61.9821 L1097.1551,61.9726 L1103.7447,61.9851 L1110.3336,61.7636 L1116.9233,61.8426 L1123.5129,61.8524 L1123.5125,61.799 L1130.0278,62.1577 L1136.5404,62.1398 L1143.0504,61.7834 L1149.5648,62.0157 L1156.0781,62.097 L1156.0732,61.8405 L1162.4935,62.3474 L1168.9091,62.6119 L1175.3215,62.7057 L1181.7262,62.3924 L1188.1428,62.7082 L1188.1493,62.9143 L1194.4215,62.5778 L1200.724,63.1964 L1207.0062,63.1741 L1213.301,63.5497 L1219.5889,63.7064 L1219.5937,63.8131 L1225.7403,64.1972 L1231.8578,63.9491 L1238.024,64.761 L1244.1597,64.9102 L1250.2979,65.1122 L1250.3076,65.2699 L1256.2891,65.8108 L1262.2396,65.8483 L1268.215,66.2904 L1274.1868,66.6741 L1280.1517,66.9463 L1280.1586,67.0337 L1285.9278,67.4025 L1291.7287,68.1743 L1297.4585,68.0458 L1303.2758,69.0229 L1309.032,69.229 L1309.0047,68.9531 L1314.566,69.5405 L1320.1492,70.3476 L1325.7063,70.8928 L1331.2412,71.2127 L1336.8205,71.9811 L1336.8417,72.1638 L1339.5156,72.3409 L1342.2368,72.9253 L1344.9233,73.2107 L1347.5558,73.03 L1350.2683,73.5396 L1350.2459,73.3641 L1352.8871,73.8193 L1355.5407,74.3697 L1358.1694,74.7273 L1360.7898,75.0191 L1363.3989,75.223 L1363.3776,75.0726 L1365.9982,75.8653 L1368.5577,76.2264 L1371.075,76.2889 L1373.6228,76.5667 L1376.1973,77.0341 L1376.1699,76.8579 L1378.673,77.3281 L1381.1874,77.871 L1383.6636,78.1688 L1386.13,78.4036 L1388.6489,78.9754 L1388.6856,79.1889 L1391.0324,79.1891 L1393.5226,80.025 L1395.935,80.4069 L1398.3488,80.7975 L1400.7389,81.0494 L1400.7959,81.3518 L1403.0613,81.3838 L1405.3995,81.8018 L1407.8097,82.6016 L1410.0605,82.5561 L1412.4523,83.2587 L1412.4312,83.1568 L1414.7272,83.7784 L1416.9874,84.2274 L1419.2133,84.511 L1421.5063,85.1177 L1423.7746,85.6059 L1423.8481,85.9285 L1426.0219,86.3844 L1428.0822,86.3425 L1430.3321,87.1325 L1432.4568,87.3733 L1434.6908,88.0935 L1434.688,88.0822 L1436.8216,88.746 L1438.9344,89.3268 L1440.9163,89.3853 L1443.1305,90.3707 L1445.1863,90.7242 L1445.1873,90.7278 L1447.1326,91.0415 L1449.1545,91.6329 L1451.2608,92.5299 L1453.2637,93.0522 L1455.2461,93.5004 L1455.2439,93.4935 L1458.9059,94.4158 L1462.8368,96.1789 L1466.4562,96.9682 L1470.1777,98.0766 L1474,99.5 L1473.9888,99.4723 L1476.3498,100.6546 L1478.6055,101.5768 L1480.7602,102.2494 L1482.9805,103.0843 L1485.2572,104.0582 L1485.291,104.1256 L1487.492,105.2349 L1489.5514,106.0619 L1491.9329,107.5308 L1494.1595,108.691 L1496.2458,109.5718 L1496.1971,109.4892 L1498.2802,110.6668 L1500.6612,112.3485 L1502.6448,113.3577 L1504.7714,114.6089 L1506.9028,115.8683 L1506.977,115.9785 L1508.795,117.0116 L1511.1392,118.8265 L1513.0563,120.0068 L1515.2785,121.6404 L1517.1649,122.7752 L1517.1074,122.6985 L1519.2347,124.3897 L1520.9682,125.5553 L1523.1126,127.2694 L1525.1092,128.7861 L1526.9689,130.1202 L1526.8767,130.0077 L1528.9277,131.7671 L1530.5209,132.968 L1532.4059,134.5249 L1534.5874,136.4434 L1536.2516,137.7308 L1536.4532,137.9585 L1538.1587,139.4607 L1539.6246,140.6923 L1541.5837,142.4808 L1543.071,143.7366 L1544.9497,145.4344 L1544.9675,145.4532 L1546.5594,146.9589 L1548.0897,148.3994 L1549.9682,150.2077 L1551.5255,151.6769 L1553.0001,153.0587 " fill="none" style="stroke:#383838;stroke-width:1.0;"/><polygon fill="#383838" points="1556.7475,156.7719,1556.8128,156.7973,1555.9033,154.8865,1555.3765,153.1249,1554.725,151.3146,1553.6638,149.3447,1553.1698,147.5958,1553.1439,147.5957,1553.0329,148.7265,1553.0524,149.858,1553.1627,150.9898,1552.9601,152.1202,1553.1958,153.2526,1553.1966,153.4372,1552.0635,153.0477,1550.9328,153.1971,1549.8024,153.4122,1548.6702,153.2448,1547.539,153.2786,1547.5471,153.2998,1549.3769,153.9673,1551.2435,154.7315,1553.0924,155.4491,1554.975,156.2558,1556.7475,156.7719" style="stroke:#383838;stroke-width:1.0;"/><!--MD5=[89559deed986340f5bd3f762282de5ac]
link NovoCatalogoController to EquipaRepository--><path d="M410.8912,137.8803 L410.9191,137.9694 L414.5508,136.5418 L418.3461,135.6368 L422.0881,134.5616 L425.6549,132.9268 L429.4642,132.0667 L429.4544,132.0336 L433.226,130.7493 L437.0472,129.632 L440.9031,128.6306 L444.6399,127.2295 L448.5434,126.3883 L448.6099,126.6252 L452.3609,125.0255 L456.3062,124.1175 L460.2752,123.2938 L464.1063,121.9792 L468.0099,120.9228 L468.0176,120.9521 L471.9534,119.874 L475.9242,118.9294 L479.8781,117.9204 L483.8642,117.0344 L487.7452,115.7475 L487.8153,116.0374 L491.7932,115.0795 L495.726,113.9346 L499.7249,113.0633 L503.7268,112.205 L507.6306,110.9401 L507.562,110.627 L511.6784,110.3623 L515.5691,109.0666 L519.6314,108.5546 L523.5169,107.2355 L527.5473,106.578 L527.5415,106.5482 L531.5758,106.1338 L535.4749,105.0211 L539.4538,104.3205 L543.4394,103.6544 L547.3767,102.7388 L547.4068,102.9214 L551.301,102.0894 L555.2468,101.5692 L559.1092,100.5445 L563.0959,100.2725 L567,99.5 L567.0347,99.7412 L570.1881,99.2407 L573.3588,98.86 L576.4494,97.923 L579.5986,97.3938 L582.7999,97.2259 L582.7632,96.9521 L586.2389,96.7387 L589.6733,96.2167 L593.1676,96.1422 L596.5595,95.3038 L600.0123,94.9195 L599.9934,94.7682 L603.7308,94.556 L607.3871,93.6972 L611.1011,93.2982 L614.8715,93.3491 L618.5414,92.5988 L618.564,92.7911 L622.5295,92.4596 L626.4248,91.5299 L630.408,91.3495 L634.372,91.0058 L638.2914,90.2817 L638.2685,90.073 L642.4618,89.7802 L646.6476,89.4191 L650.8481,89.1923 L654.9913,88.4433 L659.1665,87.9861 L659.1876,88.1906 L663.5221,87.29 L667.8974,86.7841 L672.332,86.8549 L676.6573,85.8641 L681.0708,85.7298 L681.0925,85.9549 L685.6472,85.3814 L690.1945,84.7316 L694.7584,84.2538 L699.3606,84.1735 L703.9086,83.5307 L703.8967,83.3982 L708.6672,83.3679 L713.3569,82.4365 L718.1384,82.5297 L722.8682,82.046 L727.5841,81.4068 L727.5931,81.5153 L732.4693,81.0216 L737.3778,80.9163 L742.2571,80.4601 L747.1242,79.8571 L752.0014,79.376 L752.0105,79.4948 L757.0097,78.9342 L762.0511,78.9255 L767.0447,78.2926 L772.058,77.9165 L777.0648,77.456 L777.046,77.1863 L782.175,76.9181 L787.3267,76.9749 L792.4463,76.5719 L797.5544,76.0041 L802.6784,75.6649 L802.6694,75.522 L807.8859,75.2389 L813.0865,74.7028 L818.3309,74.8622 L823.5536,74.6774 L828.7465,74.0205 L828.7596,74.2541 L834.0491,74.0329 L839.3138,73.3679 L844.6047,73.1714 L849.8782,72.6647 L855.1732,72.5407 L855.1793,72.6668 L860.5164,72.3908 L865.8609,72.2671 L871.182,71.6604 L876.5219,71.4433 L881.8627,71.2435 L881.8708,71.4404 L887.2443,71.276 L892.5961,70.5771 L897.9732,70.4993 L903.3507,70.4323 L908.7193,70.1466 L908.7104,69.8753 L914.11,70.1279 L919.4941,69.9098 L924.8745,69.5747 L930.2636,69.5069 L935.6471,69.268 L935.6548,69.5918 L941.0244,69.0005 L946.4117,69.151 L951.792,69.0095 L957.1709,68.8056 L962.5503,68.6256 L962.5512,68.6883 L967.9076,68.5984 L973.2594,68.1929 L978.6174,68.2145 L983.9735,68.1099 L989.3331,68.2373 L989.3332,68.2657 L994.6466,68.2532 L999.96,68.2627 L1005.2725,68.0382 L1010.5862,68.1142 L1015.8997,68.121 L1015.8993,68.0676 L1021.1523,68.4121 L1026.4028,68.38 L1031.651,68.0093 L1036.9031,68.2274 L1042.1543,68.2945 L1042.1495,68.038 L1047.326,68.5189 L1052.498,68.7574 L1057.6668,68.8253 L1062.8281,68.486 L1068.001,68.7758 L1068.0076,68.9819 L1073.0592,68.6072 L1078.1411,69.1875 L1083.2027,69.127 L1088.277,69.4643 L1093.3442,69.5828 L1093.3492,69.6895 L1098.3027,70.0225 L1103.2269,69.7234 L1108.2003,70.4842 L1113.1429,70.5823 L1118.088,70.7333 L1118.0979,70.8909 L1122.9185,71.3674 L1127.7075,71.3405 L1132.522,71.7182 L1137.3328,72.0375 L1142.1365,72.2452 L1142.1436,72.3326 L1146.788,72.6231 L1151.4651,73.3166 L1156.069,73.1099 L1160.7629,74.0086 L1165.394,74.1365 L1165.3658,73.8606 L1169.8437,74.3553 L1174.3441,75.0696 L1178.8177,75.5221 L1183.2682,75.7494 L1187.7647,76.425 L1187.7877,76.6074 L1192.0483,77.0137 L1196.3604,77.8269 L1200.6347,78.3413 L1204.8501,78.3903 L1209.1527,79.1287 L1209.127,78.9537 L1211.2035,79.3745 L1213.2939,79.8902 L1215.3561,80.2137 L1217.4086,80.4715 L1219.4483,80.6417 L1219.424,80.4917 L1221.4963,81.2456 L1223.499,81.5692 L1225.4533,81.5951 L1227.4425,81.8357 L1229.4623,82.2653 L1229.4294,82.09 L1233.2718,82.8891 L1237.1277,83.7604 L1240.9379,84.388 L1244.7363,84.9529 L1248.5976,85.8529 L1248.6456,86.0641 L1252.1255,86.4652 L1255.7931,87.6932 L1259.3588,88.4719 L1262.9264,89.2592 L1266.4629,89.9093 L1266.5446,90.206 L1269.7337,90.7125 L1273.0272,91.5977 L1276.4237,92.8574 L1279.592,93.2879 L1282.9623,94.4523 L1282.9292,94.3537 L1285.9861,95.5105 L1288.9871,96.5003 L1291.9342,97.3299 L1294.9864,98.4724 L1298,99.5 L1298.1296,99.8045 L1300.2545,100.6767 L1302.1796,101.0791 L1304.4387,102.2665 L1306.4773,102.9358 L1308.7084,104.0574 L1308.703,104.0471 L1310.851,105.2726 L1312.9592,106.4225 L1314.8157,107.0964 L1317.1187,108.6151 L1319.1173,109.5578 L1319.1193,109.561 L1320.9979,110.6031 L1323.0289,111.8896 L1325.2278,113.4451 L1327.2209,114.6709 L1329.1733,115.8314 L1329.1691,115.8255 L1330.9299,116.9636 L1333.203,118.8204 L1334.8827,119.8448 L1336.7569,121.1419 L1338.8231,122.7085 L1338.8044,122.685 L1340.8242,124.3757 L1342.6694,125.8468 L1344.3468,127.1071 L1346.1333,128.5044 L1348.0131,130.0191 L1348.0627,130.076 L1349.8029,131.5964 L1351.3355,132.8789 L1353.3403,134.7025 L1355.118,136.2659 L1356.6901,137.5937 L1356.6242,137.524 L1358.1812,138.9888 L1360.1403,140.879 L1361.5629,142.2016 L1363.1785,143.7285 L1364.8007,145.2622 L1364.8953,145.3556 L1366.0945,146.5793 L1367.9646,148.4648 L1369.2902,149.8131 L1371.0049,151.5453 L1372.2914,152.8551 " fill="none" style="stroke:#383838;stroke-width:1.0;"/><polygon fill="#383838" points="1376.0146,156.815,1376.0807,156.8381,1375.2341,154.91,1374.7752,153.1175,1374.19,151.2808,1373.1896,149.299,1372.764,147.518,1372.7381,147.5173,1372.587,148.6445,1372.5665,149.7758,1372.6367,150.9099,1372.3942,152.0343,1372.5897,153.1722,1372.5954,153.3567,1371.4524,152.9274,1370.326,153.0366,1369.2016,153.2116,1368.0655,153.0042,1366.9355,152.9979,1366.9443,153.0189,1368.7472,153.7515,1370.5902,154.5796,1372.4139,155.3617,1374.2744,156.2316,1376.0146,156.815" style="stroke:#383838;stroke-width:1.0;"/><!--MD5=[0f9571f384c28894d761562ab25c5ea9]
link NovoCatalogoController to Catalogo--><path d="M410.8912,137.8803 L410.9191,137.9694 L414.5508,136.5418 L418.3461,135.6368 L422.0881,134.5616 L425.6549,132.9268 L429.4642,132.0667 L429.4544,132.0336 L433.226,130.7493 L437.0472,129.632 L440.9031,128.6306 L444.6399,127.2295 L448.5434,126.3883 L448.6099,126.6252 L452.3609,125.0255 L456.3062,124.1175 L460.2752,123.2938 L464.1063,121.9792 L468.0099,120.9228 L468.0176,120.9521 L471.9534,119.874 L475.9242,118.9294 L479.8781,117.9204 L483.8642,117.0344 L487.7452,115.7475 L487.8153,116.0374 L491.7932,115.0795 L495.726,113.9346 L499.7249,113.0633 L503.7268,112.205 L507.6306,110.9401 L507.562,110.627 L511.6784,110.3623 L515.5691,109.0666 L519.6314,108.5546 L523.5169,107.2355 L527.5473,106.578 L527.5415,106.5482 L531.5758,106.1338 L535.4749,105.0211 L539.4538,104.3205 L543.4394,103.6544 L547.3767,102.7388 L547.4068,102.9214 L551.301,102.0894 L555.2468,101.5692 L559.1092,100.5445 L563.0959,100.2725 L567,99.5 L567.0346,99.7412 L572.9837,98.8414 L578.95,98.0613 L584.8365,96.7249 L590.7815,95.7963 L596.7783,95.229 L596.743,94.9551 L599.4037,94.8643 L602.0247,94.4649 L604.7033,94.5132 L607.2835,93.7971 L609.9222,93.5354 L609.9049,93.3839 L612.3787,93.357 L614.7786,92.6826 L617.2311,92.4686 L619.735,92.7053 L622.1473,92.1395 L622.1657,92.3323 L624.4763,92.2454 L626.7297,91.5589 L629.0548,91.6234 L631.3642,91.5243 L633.6373,91.044 L633.6221,90.8345 L635.8219,90.8429 L638.0167,90.7826 L640.2212,90.8571 L642.3878,90.4077 L644.5756,90.251 L644.5851,90.4564 L646.6783,89.9076 L648.7898,89.7552 L650.9281,90.1819 L653.0171,89.5424 L655.1458,89.7631 L655.1498,89.9893 L657.2246,89.8189 L659.2981,89.5719 L661.3745,89.4977 L663.4579,89.8227 L665.5315,89.5828 L665.5299,89.4497 L667.6118,89.8717 L669.6824,89.3889 L671.7658,89.9349 L673.842,89.9016 L675.9162,89.7123 L675.9208,89.8211 L678.0306,89.8216 L680.1566,90.2117 L682.268,90.2499 L684.3732,90.1409 L686.4835,90.1542 L686.4917,90.2731 L688.6662,90.2477 L690.8789,90.7745 L693.0483,90.6768 L695.2355,90.836 L697.4169,90.9108 L697.3917,90.6416 L699.6968,90.9462 L702.0321,91.5752 L704.3245,91.7452 L706.6016,91.7508 L708.9,91.9846 L708.8837,91.8423 L711.3322,92.1666 L713.7519,92.2389 L716.2506,93.0038 L718.7103,93.4259 L721.1163,93.378 L721.1466,93.61 L723.7829,94.0273 L726.3616,94.0039 L729.0011,94.4457 L731.6004,94.5795 L734.2493,95.0934 L734.2678,95.2183 L740.2155,96.0832 L746.1856,97.0989 L752.0848,97.6364 L758.0411,98.5596 L764,99.5 L764.0323,99.6944 L766.3506,100.1325 L768.5811,100.0427 L770.9135,100.5661 L773.2478,101.1003 L775.5461,101.4186 L775.4966,101.1516 L777.9014,102.0044 L780.2204,102.394 L782.518,102.6686 L784.8643,103.2062 L787.1795,103.5754 L787.244,103.8928 L789.4906,103.9145 L791.8851,104.6634 L794.2213,105.126 L796.5452,105.5275 L798.8738,105.9525 L798.8872,106.0136 L801.2304,106.5176 L803.5058,106.7132 L805.873,107.326 L808.213,107.8155 L810.6028,108.5317 L810.6093,108.5593 L812.9593,109.1225 L815.3143,109.707 L817.6157,110.0638 L819.986,110.7132 L822.3404,111.2951 L822.3274,111.2433 L824.7465,112.1297 L827.0743,112.6508 L829.3199,112.8434 L831.7084,113.6073 L834.0602,114.2246 L833.9933,113.9769 L838.7499,115.6054 L843.4433,116.9998 L848.0921,118.2295 L852.6349,119.066 L857.3416,120.5099 L857.3998,120.7077 L861.8276,121.5399 L866.525,123.2886 L871.0414,124.4223 L875.6702,125.9379 L880.2372,127.2433 L880.2694,127.3452 L884.7603,128.8509 L889.0608,129.7531 L893.6807,131.6673 L898.1009,132.9487 L902.537,134.2807 L902.5872,134.4304 L906.9414,136.0352 L911.1355,137.1617 L915.4582,138.6727 L919.7625,140.1282 L924.0312,141.4776 L924.0603,141.5603 L928.1268,142.9197 L932.3275,144.6604 L936.2283,145.5494 L940.4975,147.4844 L944.5097,148.6899 " fill="none" style="stroke:#383838;stroke-width:1.0;"/><polygon fill="#383838" points="949.2785,150.4174,949.3271,150.4679,947.7629,148.9526,946.4834,147.7333,945.1112,146.4177,943.4341,144.785,942.179,143.5911,942.1556,143.5802,942.53,144.5555,943.0226,145.5862,943.5975,146.6555,943.8891,147.592,944.5775,148.7144,944.6557,148.8815,943.4637,149.0038,942.5002,149.6141,941.5646,150.2838,940.4667,150.6072,939.4542,151.1128,939.4558,151.1355,941.4183,150.9631,943.3881,150.894,945.3544,150.7751,947.3274,150.7512,949.2785,150.4174" style="stroke:#383838;stroke-width:1.0;"/><!--MD5=[41f0c848ba481af039230b1b072598a9]
link NovoCatalogoController to Objetivo--><path d="M532.082,190.5 L532.082,190.5934 L537.9846,190.3159 L543.8872,190.5859 L549.7898,190.6776 L555.6924,190.1829 L561.595,190.5 " fill="none" style="stroke:#383838;stroke-width:1.0;"/><polygon fill="#383838" points="566.7394,190.5,566.7679,190.564,564.8833,189.5738,563.1656,188.9589,561.3935,188.2217,559.4428,187.0827,557.7394,186.5,557.7211,186.4817,558.4389,187.1995,559.249,188.0096,560.1233,188.8839,560.7764,189.537,561.7394,190.5,561.8699,190.6305,560.7908,191.1514,560.0928,192.0534,559.4412,193.0018,558.5192,193.6798,557.7394,194.5,557.7486,194.5208,559.5351,193.6903,561.3636,192.9544,563.1718,192.1728,565.0187,191.4784,566.7394,190.5" style="stroke:#383838;stroke-width:1.0;"/><!--MD5=[13d717d4d1aabe36c45302e8cfe54ea0]
@startuml
'http://plantuml.com/skinparam.html
skinparam handwritten true
skinparam monochrome true
skinparam packageStyle rect
skinparam defaultFontName FG Virgil
skinparam shadowing false

class NovoCatalogoUI <<presentation>>
class NovoCatalogoController <<application>>
class Catalogo <<domain>>
class Objetivo <<domain>>
class CatalogoRepository <<repository>>
class UtilizadorRepository <<repository>>
class EquipaRepository <<repository>>


NovoCatalogoUI - -> NovoCatalogoController : theController

NovoCatalogoController -> UtilizadorRepository
NovoCatalogoController -> CatalogoRepository
NovoCatalogoController -> EquipaRepository
NovoCatalogoController -> Catalogo
NovoCatalogoController -> Objetivo

NovoCatalogoController : getEquipas ()
NovoCatalogoController : novoObjetivo(tempoMax,tempoMedio)
NovoCatalogoController : novoCatalogo(identificador,titulo,descricaoBreve,descricaoCompleta,icone,listEquipas,obj)
NovoCatalogoController : novoCatalogo(identificador,titulo,descricaoBreve,descricaoCompleta,icone,listEquipas)

Catalogo : Catalogo(identificador,titulo,descricaoBreve,descricaoCompleta,icone,listEquipas)
Catalogo : Catalogo(identificador,titulo,descricaoBreve,descricaoCompleta,icone,listEquipas,obj) 

Objetivo : Objetivo(tempoMax,tempoMedio)

CatalogoRepository : save(cat)

UtilizadorRepository : listColaboradores()

EquipaRepository : listEquipas()
@enduml

@startuml
skinparam handwritten true
skinparam monochrome true
skinparam packageStyle rect
skinparam defaultFontName FG Virgil
skinparam shadowing false

class NovoCatalogoUI <<presentation>>
class NovoCatalogoController <<application>>
class Catalogo <<domain>>
class Objetivo <<domain>>
class CatalogoRepository <<repository>>
class UtilizadorRepository <<repository>>
class EquipaRepository <<repository>>


NovoCatalogoUI - -> NovoCatalogoController : theController

NovoCatalogoController -> UtilizadorRepository
NovoCatalogoController -> CatalogoRepository
NovoCatalogoController -> EquipaRepository
NovoCatalogoController -> Catalogo
NovoCatalogoController -> Objetivo

NovoCatalogoController : getEquipas ()
NovoCatalogoController : novoObjetivo(tempoMax,tempoMedio)
NovoCatalogoController : novoCatalogo(identificador,titulo,descricaoBreve,descricaoCompleta,icone,listEquipas,obj)
NovoCatalogoController : novoCatalogo(identificador,titulo,descricaoBreve,descricaoCompleta,icone,listEquipas)

Catalogo : Catalogo(identificador,titulo,descricaoBreve,descricaoCompleta,icone,listEquipas)
Catalogo : Catalogo(identificador,titulo,descricaoBreve,descricaoCompleta,icone,listEquipas,obj) 

Objetivo : Objetivo(tempoMax,tempoMedio)

CatalogoRepository : save(cat)

UtilizadorRepository : listColaboradores()

EquipaRepository : listEquipas()
@enduml

PlantUML version 1.2020.22(Sun Dec 06 09:36:27 UTC 2020)
(GPL source distribution)
Java Runtime: OpenJDK Runtime Environment
JVM: OpenJDK 64-Bit Server VM
Default Encoding: UTF-8
Language: en
Country: US
--></g></svg>