<?xml version="1.0" encoding="UTF-8" standalone="no"?><svg xmlns="http://www.w3.org/2000/svg" xmlns:xlink="http://www.w3.org/1999/xlink" contentScriptType="application/ecmascript" contentStyleType="text/css" height="367px" preserveAspectRatio="none" style="width:645px;height:367px;" version="1.1" viewBox="0 0 645 367" width="645px" zoomAndPan="magnify"><defs><filter height="300%" id="fp1n0k4q8euqd" width="300%" x="-1" y="-1"><feGaussianBlur result="blurOut" stdDeviation="2.0"/><feColorMatrix in="blurOut" result="blurOut2" type="matrix" values="0 0 0 0 0 0 0 0 0 0 0 0 0 0 0 0 0 0 .4 0"/><feOffset dx="4.0" dy="4.0" in="blurOut2" result="blurOut3"/><feBlend in="SourceGraphic" in2="blurOut3" mode="normal"/></filter></defs><g><rect fill="#FFFFFF" filter="url(#fp1n0k4q8euqd)" height="166.7969" style="stroke:#A80036;stroke-width:1.0;" width="10" x="120" y="98.2969"/><rect fill="#FFFFFF" filter="url(#fp1n0k4q8euqd)" height="29.1328" style="stroke:#A80036;stroke-width:1.0;" width="10" x="590" y="119.4297"/><rect fill="#FFFFFF" filter="url(#fp1n0k4q8euqd)" height="29.1328" style="stroke:#A80036;stroke-width:1.0;" width="10" x="590" y="177.6953"/><rect fill="#FFFFFF" filter="url(#fp1n0k4q8euqd)" height="29.1328" style="stroke:#A80036;stroke-width:1.0;" width="10" x="590" y="235.9609"/><line style="stroke:#A80036;stroke-width:1.0;stroke-dasharray:5.0,5.0;" x1="125" x2="125" y1="88.2969" y2="283.0938"/><line style="stroke:#A80036;stroke-width:1.0;stroke-dasharray:5.0,5.0;" x1="594.5" x2="594.5" y1="88.2969" y2="283.0938"/><text fill="#000000" font-family="sans-serif" font-size="14" lengthAdjust="spacing" textLength="234" x="5" y="84.9951">Gestor de Serviços de Help Desk</text><ellipse cx="125" cy="15" fill="#FEFECE" filter="url(#fp1n0k4q8euqd)" rx="8" ry="8" style="stroke:#A80036;stroke-width:2.0;"/><path d="M125,23 L125,50 M112,31 L138,31 M125,50 L112,65 M125,50 L138,65 " fill="none" filter="url(#fp1n0k4q8euqd)" style="stroke:#A80036;stroke-width:2.0;"/><text fill="#000000" font-family="sans-serif" font-size="14" lengthAdjust="spacing" textLength="234" x="5" y="295.0889">Gestor de Serviços de Help Desk</text><ellipse cx="125" cy="308.3906" fill="#FEFECE" filter="url(#fp1n0k4q8euqd)" rx="8" ry="8" style="stroke:#A80036;stroke-width:2.0;"/><path d="M125,316.3906 L125,343.3906 M112,324.3906 L138,324.3906 M125,343.3906 L112,358.3906 M125,343.3906 L138,358.3906 " fill="none" filter="url(#fp1n0k4q8euqd)" style="stroke:#A80036;stroke-width:2.0;"/><rect fill="#FEFECE" filter="url(#fp1n0k4q8euqd)" height="30.2969" style="stroke:#A80036;stroke-width:1.5;" width="77" x="554.5" y="53"/><text fill="#000000" font-family="sans-serif" font-size="14" lengthAdjust="spacing" textLength="63" x="561.5" y="72.9951">:Sistema</text><rect fill="#FEFECE" filter="url(#fp1n0k4q8euqd)" height="30.2969" style="stroke:#A80036;stroke-width:1.5;" width="77" x="554.5" y="282.0938"/><text fill="#000000" font-family="sans-serif" font-size="14" lengthAdjust="spacing" textLength="63" x="561.5" y="302.0889">:Sistema</text><rect fill="#FFFFFF" filter="url(#fp1n0k4q8euqd)" height="166.7969" style="stroke:#A80036;stroke-width:1.0;" width="10" x="120" y="98.2969"/><rect fill="#FFFFFF" filter="url(#fp1n0k4q8euqd)" height="29.1328" style="stroke:#A80036;stroke-width:1.0;" width="10" x="590" y="119.4297"/><rect fill="#FFFFFF" filter="url(#fp1n0k4q8euqd)" height="29.1328" style="stroke:#A80036;stroke-width:1.0;" width="10" x="590" y="177.6953"/><rect fill="#FFFFFF" filter="url(#fp1n0k4q8euqd)" height="29.1328" style="stroke:#A80036;stroke-width:1.0;" width="10" x="590" y="235.9609"/><polygon fill="#A80036" points="578,115.4297,588,119.4297,578,123.4297,582,119.4297" style="stroke:#A80036;stroke-width:1.0;"/><line style="stroke:#A80036;stroke-width:1.0;" x1="130" x2="584" y1="119.4297" y2="119.4297"/><text fill="#000000" font-family="sans-serif" font-size="13" font-weight="bold" lengthAdjust="spacing" textLength="9" x="137" y="114.3638">1</text><text fill="#000000" font-family="sans-serif" font-size="13" lengthAdjust="spacing" textLength="287" x="150" y="114.3638">Pretende criar um novo catálogo de serviços</text><polygon fill="#A80036" points="141,144.5625,131,148.5625,141,152.5625,137,148.5625" style="stroke:#A80036;stroke-width:1.0;"/><line style="stroke:#A80036;stroke-width:1.0;stroke-dasharray:2.0,2.0;" x1="135" x2="594" y1="148.5625" y2="148.5625"/><text fill="#000000" font-family="sans-serif" font-size="13" font-weight="bold" lengthAdjust="spacing" textLength="9" x="147" y="143.4966">2</text><text fill="#000000" font-family="sans-serif" font-size="13" lengthAdjust="spacing" textLength="423" x="160" y="143.4966">solicita ao utilizador os dados para a criação de um novo catálogo</text><polygon fill="#A80036" points="578,173.6953,588,177.6953,578,181.6953,582,177.6953" style="stroke:#A80036;stroke-width:1.0;"/><line style="stroke:#A80036;stroke-width:1.0;" x1="130" x2="584" y1="177.6953" y2="177.6953"/><text fill="#000000" font-family="sans-serif" font-size="13" font-weight="bold" lengthAdjust="spacing" textLength="8" x="137" y="172.6294">3</text><text fill="#000000" font-family="sans-serif" font-size="13" lengthAdjust="spacing" textLength="185" x="149" y="172.6294">introduz os dados solicitados</text><polygon fill="#A80036" points="141,202.8281,131,206.8281,141,210.8281,137,206.8281" style="stroke:#A80036;stroke-width:1.0;"/><line style="stroke:#A80036;stroke-width:1.0;stroke-dasharray:2.0,2.0;" x1="135" x2="594" y1="206.8281" y2="206.8281"/><text fill="#000000" font-family="sans-serif" font-size="13" font-weight="bold" lengthAdjust="spacing" textLength="9" x="147" y="201.7622">4</text><text fill="#000000" font-family="sans-serif" font-size="13" lengthAdjust="spacing" textLength="252" x="160" y="201.7622">apresenta dados e solicita confirmação</text><polygon fill="#A80036" points="578,231.9609,588,235.9609,578,239.9609,582,235.9609" style="stroke:#A80036;stroke-width:1.0;"/><line style="stroke:#A80036;stroke-width:1.0;" x1="130" x2="584" y1="235.9609" y2="235.9609"/><text fill="#000000" font-family="sans-serif" font-size="13" font-weight="bold" lengthAdjust="spacing" textLength="9" x="137" y="230.895">5</text><text fill="#000000" font-family="sans-serif" font-size="13" lengthAdjust="spacing" textLength="57" x="150" y="230.895">confirma</text><polygon fill="#A80036" points="136,261.0938,126,265.0938,136,269.0938,132,265.0938" style="stroke:#A80036;stroke-width:1.0;"/><line style="stroke:#A80036;stroke-width:1.0;stroke-dasharray:2.0,2.0;" x1="130" x2="594" y1="265.0938" y2="265.0938"/><text fill="#000000" font-family="sans-serif" font-size="13" font-weight="bold" lengthAdjust="spacing" textLength="9" x="142" y="260.0278">6</text><text fill="#000000" font-family="sans-serif" font-size="13" lengthAdjust="spacing" textLength="154" x="155" y="260.0278">operação bem sucedida</text><!--MD5=[566691cb9f8870b497d8500a67370db0]
@startuml
autonumber
actor "Gestor de Serviços de Help Desk" as UNR

activate UNR
UNR -> ":Sistema" : Pretende criar um novo catálogo de serviços
activate ":Sistema"
":Sistema" - -> UNR : solicita ao utilizador os dados para a criação de um novo catálogo
deactivate ":Sistema"


UNR -> ":Sistema" : introduz os dados solicitados
activate ":Sistema"
":Sistema" - -> UNR : apresenta dados e solicita confirmação
deactivate ":Sistema"

UNR -> ":Sistema" : confirma
activate ":Sistema"
":Sistema" - -> UNR : operação bem sucedida
deactivate ":Sistema"

deactivate UNR
@enduml

PlantUML version 1.2021.5beta3(Unknown compile time)
(GPL source distribution)
Java Runtime: Java(TM) SE Runtime Environment
JVM: Java HotSpot(TM) 64-Bit Server VM
Default Encoding: UTF-8
Language: en
Country: US
--></g></svg>