<?xml version="1.0" encoding="UTF-8" standalone="no"?><svg xmlns="http://www.w3.org/2000/svg" xmlns:xlink="http://www.w3.org/1999/xlink" contentScriptType="application/ecmascript" contentStyleType="text/css" height="462px" preserveAspectRatio="none" style="width:918px;height:462px;" version="1.1" viewBox="0 0 918 462" width="918px" zoomAndPan="magnify"><defs/><g><!--MD5=[59d05d131f5bcb56f1ff3fb05067e231]
class RealizarTarefaUI--><polygon fill="#F8F8F8" points="400,7,400,7.2102,410.1538,6.5857,420.3077,7.1933,430.4615,7.3997,440.6154,6.2866,450.7692,6.9223,460.9231,6.5735,471.0769,6.6165,481.2308,6.9318,491.3846,6.3086,501.5385,7.5536,511.6923,6.3697,521.8462,6.8022,532,7,532.4319,7,531.9142,16.5346,532.0682,26.0692,531.9681,35.6038,532.1785,45.1384,532.2391,54.673,532.5857,64.2076,532,73.7422,532,74.4132,521.8462,74.4214,511.6923,73.9968,501.5385,74.2058,491.3846,74.4444,481.2308,73.021,471.0769,74.4207,460.9231,73.4457,450.7692,74.276,440.6154,73.2472,430.4615,73.6737,420.3077,74.4838,410.1538,73.6935,400,73.7422,400.1053,73.7422,400.3386,64.2076,400.4162,54.673,399.9961,45.1384,400.2872,35.6038,399.4276,26.0692,400.2844,16.5346,400,7" style="stroke:#383838;stroke-width:1.5;"/><polygon fill="#C2C2C2" points="426.0608,28.6444,424.4484,30.8475,422.5412,34.0745,419.8136,36.2491,416.9474,37.4384,414.662,37.5416,411.7247,36.0543,408.9532,35.0827,406.8495,33.1099,405.7461,30.8515,405.0917,29.0533,404.4506,26.7045,403.41,24.6832,404.2096,22.7098,404.9102,20.548,407.5393,18.8382,409.389,16.6198,411.6784,15.8832,414.4001,15.2488,417.8904,15.6257,419.8021,16.5273,422.0247,16.9359,424.7272,19.7047,425.6693,22.6277,426.0786,24.6221,425.615,27.9086" style="stroke:#383838;stroke-width:1.0;"/><path d="M417.9688,31.6094 Q417.3906,31.9063 416.75,32.0469 Q416.1094,32.2031 415.4063,32.2031 Q412.9063,32.2031 411.5781,30.5625 Q410.2656,28.9063 410.2656,25.7813 Q410.2656,22.6563 411.5781,21 Q412.9063,19.3438 415.4063,19.3438 Q416.1094,19.3438 416.75,19.5 Q417.4063,19.6563 417.9688,19.9531 L417.9688,22.6719 Q417.3438,22.0938 416.75,21.8281 Q416.1563,21.5469 415.5313,21.5469 Q414.1875,21.5469 413.5,22.625 Q412.8125,23.6875 412.8125,25.7813 Q412.8125,27.875 413.5,28.9531 Q414.1875,30.0156 415.5313,30.0156 Q416.1563,30.0156 416.75,29.75 Q417.3438,29.4688 417.9688,28.8906 L417.9688,31.6094 Z " fill="#000000"/><text fill="#000000" font-family="FG Virgil" font-size="12" font-style="italic" lengthAdjust="spacingAndGlyphs" textLength="95" x="431.5" y="23.1387">«presentation»</text><text fill="#000000" font-family="FG Virgil" font-size="12" lengthAdjust="spacingAndGlyphs" textLength="100" x="429" y="37.1074">RealizarTarefaUI</text><path d="M401,44.9375 L401,45.2177 L411,44.3851 L421,45.1952 L431,45.4704 L441,43.9863 L451,44.8339 L461,44.3688 L471,44.4262 L481,44.8466 L491,44.0157 L501,45.6757 L511,44.0971 L521,44.6738 L531,44.9375 " fill="#F8F8F8" style="stroke:#383838;stroke-width:1.5;"/><path d="M401,52.9375 L401,53.2177 L411,52.3851 L421,53.1952 L431,53.4704 L441,51.9863 L451,52.8339 L461,52.3688 L471,52.4262 L481,52.8466 L491,52.0157 L501,53.6757 L511,52.0971 L521,52.6738 L531,52.9375 " fill="#F8F8F8" style="stroke:#383838;stroke-width:1.5;"/><text fill="#000000" font-family="FG Virgil" font-size="11" lengthAdjust="spacingAndGlyphs" textLength="53" x="406" y="67.1479">doShow()</text><!--MD5=[bcf68e18a2e1164946af35ca7240e29e]
class RealizarTarefaController--><polygon fill="#F8F8F8" points="349,134,349,134.2102,359.1739,133.5857,369.3478,134.1933,379.5217,134.3997,389.6957,133.2866,399.8696,133.9223,410.0435,133.5735,420.2174,133.6165,430.3913,133.9318,440.5652,133.3086,450.7391,134.5536,460.913,133.3697,471.087,133.8022,481.2609,134.4319,491.4348,133.9142,501.6087,134.0682,511.7826,133.9681,521.9565,134.1785,532.1304,134.2391,542.3043,134.5857,552.4783,134.6711,562.6522,134.6793,572.8261,134.2546,583,134,583.4636,134,583.7022,143.7734,582.2788,153.5469,583.6785,163.3203,582.7035,173.0938,583.5338,182.8672,582.505,192.6406,582.9315,202.4141,583.7416,212.1875,582.9513,221.9609,583.1053,231.7344,583.3386,241.5078,583.4162,251.2813,582.9961,261.0547,583.2872,270.8281,582.4276,280.6016,583,290.375,583,290.6594,572.8261,290.9232,562.6522,290.8195,552.4783,290.988,542.3043,289.8919,532.1304,289.7228,521.9565,289.7536,511.7826,290.3161,501.6087,290.1785,491.4348,291.0564,481.2609,290.2003,471.087,290.0319,460.913,290.6033,450.7391,289.7082,440.5652,289.8559,430.3913,291.024,420.2174,290.8107,410.0435,291.1095,399.8696,290.0532,389.6957,290.6942,379.5217,290.9654,369.3478,289.9026,359.1739,290.2791,349,290.375,349.126,290.375,349.6518,280.6016,348.9958,270.8281,349.4626,261.0547,348.4462,251.2813,348.3227,241.5078,349.5036,231.7344,348.2831,221.9609,349.509,212.1875,349.2066,202.4141,348.7321,192.6406,348.6462,182.8672,349.4588,173.0938,348.7007,163.3203,349.5919,153.5469,348.4473,143.7734,349,134" style="stroke:#383838;stroke-width:1.5;"/><polygon fill="#C2C2C2" points="398.9108,155.6444,397.2984,157.8475,395.3912,161.0745,392.6636,163.2491,389.7974,164.4384,387.512,164.5416,384.5747,163.0543,381.8032,162.0827,379.6995,160.1099,378.5961,157.8515,377.9417,156.0533,377.3006,153.7045,376.26,151.6832,377.0596,149.7098,377.7602,147.548,380.3893,145.8382,382.239,143.6198,384.5284,142.8832,387.2501,142.2488,390.7404,142.6257,392.6521,143.5273,394.8747,143.9359,397.5772,146.7047,398.5193,149.6277,398.9286,151.6221,398.465,154.9086" style="stroke:#383838;stroke-width:1.0;"/><path d="M390.8188,158.6094 Q390.2406,158.9063 389.6,159.0469 Q388.9594,159.2031 388.2563,159.2031 Q385.7563,159.2031 384.4281,157.5625 Q383.1156,155.9063 383.1156,152.7813 Q383.1156,149.6563 384.4281,148 Q385.7563,146.3438 388.2563,146.3438 Q388.9594,146.3438 389.6,146.5 Q390.2563,146.6563 390.8188,146.9531 L390.8188,149.6719 Q390.1938,149.0938 389.6,148.8281 Q389.0063,148.5469 388.3813,148.5469 Q387.0375,148.5469 386.35,149.625 Q385.6625,150.6875 385.6625,152.7813 Q385.6625,154.875 386.35,155.9531 Q387.0375,157.0156 388.3813,157.0156 Q389.0063,157.0156 389.6,156.75 Q390.1938,156.4688 390.8188,155.8906 L390.8188,158.6094 Z " fill="#000000"/><text fill="#000000" font-family="FG Virgil" font-size="12" font-style="italic" lengthAdjust="spacingAndGlyphs" textLength="83" x="440.15" y="150.1387">«application»</text><text fill="#000000" font-family="FG Virgil" font-size="12" lengthAdjust="spacingAndGlyphs" textLength="149" x="407.15" y="164.1074">RealizarTarefaController</text><path d="M350,171.9375 L350,172.2177 L360.087,171.3851 L370.1739,172.1952 L380.2609,172.4704 L390.3478,170.9863 L400.4348,171.8339 L410.5217,171.3688 L420.6087,171.4262 L430.6957,171.8466 L440.7826,171.0157 L450.8696,172.6757 L460.9565,171.0971 L471.0435,171.6738 L481.1304,172.5134 L491.2174,171.8231 L501.3043,172.0285 L511.3913,171.8949 L521.4783,172.1755 L531.5652,172.2563 L541.6522,172.7184 L551.7391,172.8322 L561.8261,172.8432 L571.913,172.277 L582,171.9375 " fill="#F8F8F8" style="stroke:#383838;stroke-width:1.5;"/><path d="M350,179.9375 L350,180.2177 L360.087,179.3851 L370.1739,180.1952 L380.2609,180.4704 L390.3478,178.9863 L400.4348,179.8339 L410.5217,179.3688 L420.6087,179.4262 L430.6957,179.8466 L440.7826,179.0157 L450.8696,180.6757 L460.9565,179.0971 L471.0435,179.6738 L481.1304,180.5134 L491.2174,179.8231 L501.3043,180.0285 L511.3913,179.8949 L521.4783,180.1755 L531.5652,180.2563 L541.6522,180.7184 L551.7391,180.8322 L561.8261,180.8432 L571.913,180.277 L582,179.9375 " fill="#F8F8F8" style="stroke:#383838;stroke-width:1.5;"/><text fill="#000000" font-family="FG Virgil" font-size="11" lengthAdjust="spacingAndGlyphs" textLength="53" x="355" y="194.1479">getUser()</text><text fill="#000000" font-family="FG Virgil" font-size="11" lengthAdjust="spacingAndGlyphs" textLength="160" x="355" y="206.9526">getTarefasPendentes(colab)</text><text fill="#000000" font-family="FG Virgil" font-size="11" lengthAdjust="spacingAndGlyphs" textLength="180" x="355" y="219.7573">getPedidoByAtividade(atividade)</text><text fill="#000000" font-family="FG Virgil" font-size="11" lengthAdjust="spacingAndGlyphs" textLength="204" x="355" y="232.562">getFormularioDaAtividade(atividade)</text><text fill="#000000" font-family="FG Virgil" font-size="11" lengthAdjust="spacingAndGlyphs" textLength="180" x="355" y="245.3667">completaFormulario(formulario)</text><text fill="#000000" font-family="FG Virgil" font-size="11" lengthAdjust="spacingAndGlyphs" textLength="161" x="355" y="258.1714">validaFormulario(formulario)</text><text fill="#000000" font-family="FG Virgil" font-size="11" lengthAdjust="spacingAndGlyphs" textLength="222" x="355" y="270.9761">completaDecisaoComentario(atividade)</text><text fill="#000000" font-family="FG Virgil" font-size="11" lengthAdjust="spacingAndGlyphs" textLength="111" x="355" y="283.7808">savePedido(pedido)</text><!--MD5=[9d9dca655b7d777fd61537967bcfba5b]
class PedidoRepository--><polygon fill="#F8F8F8" points="7,350,7,350.2102,16.8182,349.5857,26.6364,350.1933,36.4545,350.3997,46.2727,349.2866,56.0909,349.9223,65.9091,349.5735,75.7273,349.6165,85.5455,349.9318,95.3636,349.3086,105.1818,350.5536,115,349.3697,124.8182,349.8022,134.6364,350.4319,144.4545,349.9142,154.2727,350.0682,164.0909,349.9681,173.9091,350.1785,183.7273,350.2391,193.5455,350.5857,203.3636,350.6711,213.1818,350.6793,223,350,223.2546,350,223.4636,359.5597,223.7022,369.1193,222.2788,378.679,223.6785,388.2386,222.7035,397.7983,223.5338,407.358,222.505,416.9176,222.9315,426.4773,223.7416,436.0369,222.9513,445.5966,223,455.1563,223,455.2616,213.1818,455.4949,203.3636,455.5725,193.5455,455.1523,183.7273,455.4435,173.9091,454.5838,164.0909,455.4406,154.2727,455.7044,144.4545,455.6008,134.6364,455.7693,124.8182,454.6732,115,454.5041,105.1818,454.5348,95.3636,455.0974,85.5455,454.9597,75.7273,455.8377,65.9091,454.9816,56.0909,454.8132,46.2727,455.3845,36.4545,454.4894,26.6364,454.6371,16.8182,455.8052,7,455.1563,7.4357,455.1563,7.7345,445.5966,6.6782,436.0369,7.3192,426.4773,7.5904,416.9176,6.5276,407.358,6.9041,397.7983,7.126,388.2386,7.6518,378.679,6.9958,369.1193,7.4626,359.5597,7,350" style="stroke:#383838;stroke-width:1.5;"/><polygon fill="#C2C2C2" points="67.3108,371.6444,65.6984,373.8475,63.7912,377.0745,61.0636,379.2491,58.1974,380.4384,55.912,380.5416,52.9747,379.0543,50.2032,378.0827,48.0995,376.1099,46.9961,373.8515,46.3417,372.0533,45.7006,369.7045,44.66,367.6832,45.4596,365.7098,46.1602,363.548,48.7893,361.8382,50.639,359.6198,52.9284,358.8832,55.6501,358.2488,59.1404,358.6257,61.0521,359.5273,63.2747,359.9359,65.9772,362.7047,66.9193,365.6277,67.3286,367.6221,66.865,370.9086" style="stroke:#383838;stroke-width:1.0;"/><path d="M59.2188,374.6094 Q58.6406,374.9063 58,375.0469 Q57.3594,375.2031 56.6563,375.2031 Q54.1563,375.2031 52.8281,373.5625 Q51.5156,371.9063 51.5156,368.7813 Q51.5156,365.6563 52.8281,364 Q54.1563,362.3438 56.6563,362.3438 Q57.3594,362.3438 58,362.5 Q58.6563,362.6563 59.2188,362.9531 L59.2188,365.6719 Q58.5938,365.0938 58,364.8281 Q57.4063,364.5469 56.7813,364.5469 Q55.4375,364.5469 54.75,365.625 Q54.0625,366.6875 54.0625,368.7813 Q54.0625,370.875 54.75,371.9531 Q55.4375,373.0156 56.7813,373.0156 Q57.4063,373.0156 58,372.75 Q58.5938,372.4688 59.2188,371.8906 L59.2188,374.6094 Z " fill="#000000"/><text fill="#000000" font-family="FG Virgil" font-size="12" font-style="italic" lengthAdjust="spacingAndGlyphs" textLength="77" x="92.75" y="366.1387">«repository»</text><text fill="#000000" font-family="FG Virgil" font-size="12" lengthAdjust="spacingAndGlyphs" textLength="109" x="76.75" y="380.1074">PedidoRepository</text><path d="M8,387.9375 L8,388.2177 L18.1905,387.3851 L28.381,388.1952 L38.5714,388.4704 L48.7619,386.9863 L58.9524,387.8339 L69.1429,387.3688 L79.3333,387.4262 L89.5238,387.8466 L99.7143,387.0157 L109.9048,388.6757 L120.0952,387.0971 L130.2857,387.6738 L140.4762,388.5134 L150.6667,387.8231 L160.8571,388.0285 L171.0476,387.8949 L181.2381,388.1755 L191.4286,388.2563 L201.619,388.7184 L211.8095,388.8322 L222,387.9375 " fill="#F8F8F8" style="stroke:#383838;stroke-width:1.5;"/><path d="M8,395.9375 L8,396.2177 L18.1905,395.3851 L28.381,396.1952 L38.5714,396.4704 L48.7619,394.9863 L58.9524,395.8339 L69.1429,395.3688 L79.3333,395.4262 L89.5238,395.8466 L99.7143,395.0157 L109.9048,396.6757 L120.0952,395.0971 L130.2857,395.6738 L140.4762,396.5134 L150.6667,395.8231 L160.8571,396.0285 L171.0476,395.8949 L181.2381,396.1755 L191.4286,396.2563 L201.619,396.7184 L211.8095,396.8322 L222,395.9375 " fill="#F8F8F8" style="stroke:#383838;stroke-width:1.5;"/><text fill="#000000" font-family="FG Virgil" font-size="11" lengthAdjust="spacingAndGlyphs" textLength="160" x="13" y="410.1479">getTarefasPendentes(colab)</text><text fill="#000000" font-family="FG Virgil" font-size="11" lengthAdjust="spacingAndGlyphs" textLength="180" x="13" y="422.9526">getPedidoByAtividade(atividade)</text><text fill="#000000" font-family="FG Virgil" font-size="11" lengthAdjust="spacingAndGlyphs" textLength="204" x="13" y="435.7573">getFormularioDaAtividade(atividade)</text><text fill="#000000" font-family="FG Virgil" font-size="11" lengthAdjust="spacingAndGlyphs" textLength="111" x="13" y="448.562">savePedido(pedido)</text><!--MD5=[9a0e8f7957502662f95e783c1c3d84fe]
class ColaboradorRepository--><polygon fill="#F8F8F8" points="258.5,369,258.5,369.2102,268.2222,368.5857,277.9444,369.1933,287.6667,369.3997,297.3889,368.2866,307.1111,368.9223,316.8333,368.5735,326.5556,368.6165,336.2778,368.9318,346,368.3086,355.7222,369.5536,365.4444,368.3697,375.1667,368.8022,384.8889,369.4319,394.6111,368.9142,404.3333,369.0682,414.0556,368.9681,423.7778,369.1785,433.5,369,433.7391,369,434.0857,378.5346,434.1711,388.0692,434.1793,397.6038,433.7546,407.1384,433.9636,416.673,434.2022,426.2076,433.5,435.7422,433.5,435.021,423.7778,436.4207,414.0556,435.4457,404.3333,436.276,394.6111,435.2472,384.8889,435.6737,375.1667,436.4838,365.4444,435.6935,355.7222,435.8475,346,436.0808,336.2778,436.1584,326.5556,435.7383,316.8333,436.0294,307.1111,435.1698,297.3889,436.0266,287.6667,436.2904,277.9444,436.1867,268.2222,436.3552,258.5,435.7422,258.0169,435.7422,257.8478,426.2076,257.8786,416.673,258.4411,407.1384,258.3035,397.6038,259.1814,388.0692,258.3253,378.5346,258.5,369" style="stroke:#383838;stroke-width:1.5;"/><polygon fill="#C2C2C2" points="284.5608,390.6444,282.9484,392.8475,281.0412,396.0745,278.3136,398.2491,275.4474,399.4384,273.162,399.5416,270.2247,398.0543,267.4532,397.0827,265.3495,395.1099,264.2461,392.8515,263.5917,391.0533,262.9506,388.7045,261.91,386.6832,262.7096,384.7098,263.4102,382.548,266.0393,380.8382,267.889,378.6198,270.1784,377.8832,272.9001,377.2488,276.3904,377.6257,278.3021,378.5273,280.5247,378.9359,283.2272,381.7047,284.1693,384.6277,284.5786,386.6221,284.115,389.9086" style="stroke:#383838;stroke-width:1.0;"/><path d="M276.4688,393.6094 Q275.8906,393.9063 275.25,394.0469 Q274.6094,394.2031 273.9063,394.2031 Q271.4063,394.2031 270.0781,392.5625 Q268.7656,390.9063 268.7656,387.7813 Q268.7656,384.6563 270.0781,383 Q271.4063,381.3438 273.9063,381.3438 Q274.6094,381.3438 275.25,381.5 Q275.9063,381.6563 276.4688,381.9531 L276.4688,384.6719 Q275.8438,384.0938 275.25,383.8281 Q274.6563,383.5469 274.0313,383.5469 Q272.6875,383.5469 272,384.625 Q271.3125,385.6875 271.3125,387.7813 Q271.3125,389.875 272,390.9531 Q272.6875,392.0156 274.0313,392.0156 Q274.6563,392.0156 275.25,391.75 Q275.8438,391.4688 276.4688,390.8906 L276.4688,393.6094 Z " fill="#000000"/><text fill="#000000" font-family="FG Virgil" font-size="12" font-style="italic" lengthAdjust="spacingAndGlyphs" textLength="77" x="320.5" y="385.1387">«repository»</text><text fill="#000000" font-family="FG Virgil" font-size="12" lengthAdjust="spacingAndGlyphs" textLength="143" x="287.5" y="399.1074">ColaboradorRepository</text><path d="M259.5,406.9375 L259.5,407.2177 L269.6765,406.3851 L279.8529,407.1952 L290.0294,407.4704 L300.2059,405.9863 L310.3824,406.8339 L320.5588,406.3688 L330.7353,406.4262 L340.9118,406.8466 L351.0882,406.0157 L361.2647,407.6757 L371.4412,406.0971 L381.6176,406.6738 L391.7941,407.5134 L401.9706,406.8231 L412.1471,407.0285 L422.3235,406.8949 L432.5,406.9375 " fill="#F8F8F8" style="stroke:#383838;stroke-width:1.5;"/><path d="M259.5,414.9375 L259.5,415.2177 L269.6765,414.3851 L279.8529,415.1952 L290.0294,415.4704 L300.2059,413.9863 L310.3824,414.8339 L320.5588,414.3688 L330.7353,414.4262 L340.9118,414.8466 L351.0882,414.0157 L361.2647,415.6757 L371.4412,414.0971 L381.6176,414.6738 L391.7941,415.5134 L401.9706,414.8231 L412.1471,415.0285 L422.3235,414.8949 L432.5,414.9375 " fill="#F8F8F8" style="stroke:#383838;stroke-width:1.5;"/><text fill="#000000" font-family="FG Virgil" font-size="11" lengthAdjust="spacingAndGlyphs" textLength="53" x="264.5" y="429.1479">getUser()</text><!--MD5=[a26d7a8585b446db7fc8ab4626d8ca8a]
class Pedido--><polygon fill="#F8F8F8" points="469,362.5,469,362.7102,479.1739,362.0857,489.3478,362.6933,499.5217,362.8997,509.6957,361.7866,519.8696,362.4223,530.0435,362.0735,540.2174,362.1165,550.3913,362.4318,560.5652,361.8086,570.7391,363.0536,580.913,361.8697,591.087,362.3022,601.2609,362.9319,611.4348,362.4142,621.6087,362.5682,631.7826,362.4681,641.9565,362.6785,652.1304,362.7391,662.3043,363.0857,672.4783,363.1711,682.6522,363.1793,692.8261,362.7546,703,362.5,703.4636,362.5,703.7022,372.4434,702.2788,382.3867,703.6785,392.3301,702.7035,402.2734,703.5338,412.2168,702.505,422.1602,702.9315,432.1035,703,442.0469,703,442.7885,692.8261,441.9981,682.6522,442.1522,672.4783,442.3855,662.3043,442.4631,652.1304,442.043,641.9565,442.3341,631.7826,441.4745,621.6087,442.3313,611.4348,442.5951,601.2609,442.4914,591.087,442.6599,580.913,441.5638,570.7391,441.3947,560.5652,441.4255,550.3913,441.988,540.2174,441.8503,530.0435,442.7283,519.8696,441.8722,509.6957,441.7038,499.5217,442.2751,489.3478,441.38,479.1739,441.5277,469,442.0469,469.649,442.0469,469.4357,432.1035,469.7345,422.1602,468.6782,412.2168,469.3192,402.2734,469.5904,392.3301,468.5276,382.3867,468.9041,372.4434,469,362.5" style="stroke:#383838;stroke-width:1.5;"/><polygon fill="#C2C2C2" points="564.8108,384.1444,563.1984,386.3475,561.2912,389.5745,558.5636,391.7491,555.6974,392.9384,553.412,393.0416,550.4747,391.5543,547.7032,390.5827,545.5995,388.6099,544.4961,386.3515,543.8417,384.5533,543.2006,382.2045,542.16,380.1832,542.9596,378.2098,543.6602,376.048,546.2893,374.3382,548.139,372.1198,550.4284,371.3832,553.1501,370.7488,556.6404,371.1257,558.5521,372.0273,560.7747,372.4359,563.4772,375.2047,564.4193,378.1277,564.8286,380.1221,564.365,383.4086" style="stroke:#383838;stroke-width:1.0;"/><path d="M556.7188,387.1094 Q556.1406,387.4063 555.5,387.5469 Q554.8594,387.7031 554.1563,387.7031 Q551.6563,387.7031 550.3281,386.0625 Q549.0156,384.4063 549.0156,381.2813 Q549.0156,378.1563 550.3281,376.5 Q551.6563,374.8438 554.1563,374.8438 Q554.8594,374.8438 555.5,375 Q556.1563,375.1563 556.7188,375.4531 L556.7188,378.1719 Q556.0938,377.5938 555.5,377.3281 Q554.9063,377.0469 554.2813,377.0469 Q552.9375,377.0469 552.25,378.125 Q551.5625,379.1875 551.5625,381.2813 Q551.5625,383.375 552.25,384.4531 Q552.9375,385.5156 554.2813,385.5156 Q554.9063,385.5156 555.5,385.25 Q556.0938,384.9688 556.7188,384.3906 L556.7188,387.1094 Z " fill="#000000"/><text fill="#000000" font-family="FG Virgil" font-size="12" font-style="italic" lengthAdjust="spacingAndGlyphs" textLength="60" x="572.25" y="378.6387">«domain»</text><text fill="#000000" font-family="FG Virgil" font-size="12" lengthAdjust="spacingAndGlyphs" textLength="43" x="580.75" y="392.6074">Pedido</text><path d="M470,400.4375 L470,400.7177 L480.087,399.8851 L490.1739,400.6952 L500.2609,400.9704 L510.3478,399.4863 L520.4348,400.3339 L530.5217,399.8688 L540.6087,399.9262 L550.6957,400.3466 L560.7826,399.5157 L570.8696,401.1757 L580.9565,399.5971 L591.0435,400.1738 L601.1304,401.0134 L611.2174,400.3231 L621.3043,400.5285 L631.3913,400.3949 L641.4783,400.6755 L651.5652,400.7563 L661.6522,401.2184 L671.7391,401.3322 L681.8261,401.3432 L691.913,400.777 L702,400.4375 " fill="#F8F8F8" style="stroke:#383838;stroke-width:1.5;"/><path d="M470,408.4375 L470,408.7177 L480.087,407.8851 L490.1739,408.6952 L500.2609,408.9704 L510.3478,407.4863 L520.4348,408.3339 L530.5217,407.8688 L540.6087,407.9262 L550.6957,408.3466 L560.7826,407.5157 L570.8696,409.1757 L580.9565,407.5971 L591.0435,408.1738 L601.1304,409.0134 L611.2174,408.3231 L621.3043,408.5285 L631.3913,408.3949 L641.4783,408.6755 L651.5652,408.7563 L661.6522,409.2184 L671.7391,409.3322 L681.8261,409.3432 L691.913,408.777 L702,408.4375 " fill="#F8F8F8" style="stroke:#383838;stroke-width:1.5;"/><text fill="#000000" font-family="FG Virgil" font-size="11" lengthAdjust="spacingAndGlyphs" textLength="180" x="475" y="422.6479">completaFormulario(formulario)</text><text fill="#000000" font-family="FG Virgil" font-size="11" lengthAdjust="spacingAndGlyphs" textLength="222" x="475" y="435.4526">completaDecisaoComentario(atividade)</text><!--MD5=[aea7e8aae0f761f3d316f6ff371baef4]
class ValidaForm--><polygon fill="#F8F8F8" points="738.5,369,738.5,369.2102,748.6765,368.5857,758.8529,369.1933,769.0294,369.3997,779.2059,368.2866,789.3824,368.9223,799.5588,368.5735,809.7353,368.6165,819.9118,368.9318,830.0882,368.3086,840.2647,369.5536,850.4412,368.3697,860.6176,368.8022,870.7941,369.4319,880.9706,368.9142,891.1471,369.0682,901.3235,368.9681,911.5,369,911.6785,369,911.7391,378.5346,912.0857,388.0692,912.1711,397.6038,912.1793,407.1384,911.7546,416.673,911.9636,426.2076,911.5,435.7422,911.5,436.4444,901.3235,435.021,891.1471,436.4207,880.9706,435.4457,870.7941,436.276,860.6176,435.2472,850.4412,435.6737,840.2647,436.4838,830.0882,435.6935,819.9118,435.8475,809.7353,436.0808,799.5588,436.1584,789.3824,435.7383,779.2059,436.0294,769.0294,435.1698,758.8529,436.0266,748.6765,436.2904,738.5,435.7422,738.9445,435.7422,739.113,426.2076,738.0169,416.673,737.8478,407.1384,737.8786,397.6038,738.4411,388.0692,738.3035,378.5346,738.5,369" style="stroke:#383838;stroke-width:1.5;"/><polygon fill="#C2C2C2" points="797.3108,390.6444,795.6984,392.8475,793.7912,396.0745,791.0636,398.2491,788.1974,399.4384,785.912,399.5416,782.9747,398.0543,780.2032,397.0827,778.0995,395.1099,776.9961,392.8515,776.3417,391.0533,775.7006,388.7045,774.66,386.6832,775.4596,384.7098,776.1602,382.548,778.7893,380.8382,780.639,378.6198,782.9284,377.8832,785.6501,377.2488,789.1404,377.6257,791.0521,378.5273,793.2747,378.9359,795.9772,381.7047,796.9193,384.6277,797.3286,386.6221,796.865,389.9086" style="stroke:#383838;stroke-width:1.0;"/><path d="M789.2188,393.6094 Q788.6406,393.9063 788,394.0469 Q787.3594,394.2031 786.6563,394.2031 Q784.1563,394.2031 782.8281,392.5625 Q781.5156,390.9063 781.5156,387.7813 Q781.5156,384.6563 782.8281,383 Q784.1563,381.3438 786.6563,381.3438 Q787.3594,381.3438 788,381.5 Q788.6563,381.6563 789.2188,381.9531 L789.2188,384.6719 Q788.5938,384.0938 788,383.8281 Q787.4063,383.5469 786.7813,383.5469 Q785.4375,383.5469 784.75,384.625 Q784.0625,385.6875 784.0625,387.7813 Q784.0625,389.875 784.75,390.9531 Q785.4375,392.0156 786.7813,392.0156 Q787.4063,392.0156 788,391.75 Q788.5938,391.4688 789.2188,390.8906 L789.2188,393.6094 Z " fill="#000000"/><text fill="#000000" font-family="FG Virgil" font-size="12" font-style="italic" lengthAdjust="spacingAndGlyphs" textLength="60" x="811.25" y="385.1387">«domain»</text><text fill="#000000" font-family="FG Virgil" font-size="12" lengthAdjust="spacingAndGlyphs" textLength="69" x="806.75" y="399.1074">ValidaForm</text><path d="M739.5,406.9375 L739.5,407.2177 L749.5588,406.3851 L759.6176,407.1952 L769.6765,407.4704 L779.7353,405.9863 L789.7941,406.8339 L799.8529,406.3688 L809.9118,406.4262 L819.9706,406.8466 L830.0294,406.0157 L840.0882,407.6757 L850.1471,406.0971 L860.2059,406.6738 L870.2647,407.5134 L880.3235,406.8231 L890.3824,407.0285 L900.4412,406.8949 L910.5,406.9375 " fill="#F8F8F8" style="stroke:#383838;stroke-width:1.5;"/><path d="M739.5,414.9375 L739.5,415.2177 L749.5588,414.3851 L759.6176,415.1952 L769.6765,415.4704 L779.7353,413.9863 L789.7941,414.8339 L799.8529,414.3688 L809.9118,414.4262 L819.9706,414.8466 L830.0294,414.0157 L840.0882,415.6757 L850.1471,414.0971 L860.2059,414.6738 L870.2647,415.5134 L880.3235,414.8231 L890.3824,415.0285 L900.4412,414.8949 L910.5,414.9375 " fill="#F8F8F8" style="stroke:#383838;stroke-width:1.5;"/><text fill="#000000" font-family="FG Virgil" font-size="11" lengthAdjust="spacingAndGlyphs" textLength="161" x="744.5" y="429.1479">validaFormulario(formulario)</text><!--MD5=[0edf5bbb78229093495c46c562367b60]
link RealizarTarefaUI to RealizarTarefaController--><path d="M466,74.3829 L466.2802,74.3829 L465.4476,85.1931 L466.2577,96.0033 L466.5329,106.8135 L465.0488,117.6237 L466,128.4339 " fill="none" style="stroke:#383838;stroke-width:1.0;"/><polygon fill="#383838" points="466,133.8269,466.064,133.8554,466.6738,131.9708,467.6589,130.2531,468.5217,128.481,468.9827,126.5303,470,124.8269,469.9817,124.8086,469.0995,125.5264,468.3096,126.3365,467.5839,127.2108,466.637,127.8639,466,128.8269,466.1305,128.9574,465.0514,127.8783,464.3534,127.1803,463.7018,126.5287,462.7798,125.6067,462,124.8269,462.0208,124.8361,462.7903,126.6226,463.6544,128.4511,464.4728,130.2593,465.3784,132.1062,466,133.8269" style="stroke:#383838;stroke-width:1.0;"/><!--MD5=[ef5b9e6ef3bdf1e4f298a9e8223a0869]
link RealizarTarefaController to PedidoRepository--><path d="M348.6341,275.6986 L348.7678,275.9449 L339.5479,280.0014 L331.1117,285.5018 L322.4203,290.5321 L312.8898,294.016 L304.4714,299.5493 L295.4269,303.929 L286.6316,308.7677 L278.0095,313.9256 L268.7905,317.9836 L260.7597,324.231 L251.184,327.632 L242.6365,332.9272 L234.2143,338.4535 L225.0624,342.6351 L216.2943,347.524 " fill="none" style="stroke:#383838;stroke-width:1.0;"/><polygon fill="#383838" points="211.8006,349.9629,211.8061,350.0327,213.7533,349.6697,215.7329,349.7161,217.702,349.6292,219.6363,349.1039,221.6187,349.1854,221.6114,349.1606,220.4936,348.7276,219.4129,348.4198,218.3581,348.1991,217.2143,347.6784,216.1951,347.5779,216.372,347.6303,216.3152,346.4334,216.7749,345.3897,217.2977,344.3646,217.4537,343.2308,217.8027,342.1542,217.8207,342.1681,216.5938,343.7095,215.449,345.314,214.2646,346.888,213.1558,348.5201,211.8006,349.9629" style="stroke:#383838;stroke-width:1.0;"/><!--MD5=[88dc3e81b4dd39edfdd25ee3e3ef0126]
link RealizarTarefaController to ColaboradorRepository--><path d="M416.8452,290.0333 L417.0823,290.1827 L411.1642,298.0154 L406.6362,306.7237 L401.6555,315.1468 L395.1862,322.6323 L390.6898,331.3606 L385.0828,339.3892 L379.9177,347.6963 L375.06,356.1969 L369.9233,364.5218 " fill="none" style="stroke:#383838;stroke-width:1.0;"/><polygon fill="#383838" points="367.115,368.98,367.154,369.0382,368.6744,367.7686,370.4234,366.8403,372.098,365.8008,373.5277,364.3959,375.2964,363.4968,375.2906,363.4716,374.1616,363.6087,373.0615,363.8732,371.9815,364.2262,370.8322,364.2741,369.7799,364.7494,369.9599,364.7902,369.3246,363.5996,369.2146,362.5282,369.1688,361.4714,368.75,360.3299,368.5274,359.2329,368.5499,359.2362,368.2344,361.1808,368.0213,363.1403,367.7588,365.0926,367.5907,367.0586,367.115,368.98" style="stroke:#383838;stroke-width:1.0;"/><!--MD5=[f28ed69bed4acd0a788dbd0b9c4f3dea]
link RealizarTarefaController to Pedido--><path d="M515.1548,290.0333 L515.3919,290.1827 L520.0506,298.2529 L526.0993,307.1988 L531.6953,315.8596 L535.8028,323.5826 L541.8831,332.5484 L546.8528,340.8147 L552.2646,349.3593 L558.0604,358.1459 " fill="none" style="stroke:#383838;stroke-width:1.0;"/><polygon fill="#383838" points="560.7423,362.4035,560.8116,362.4135,560.3231,360.4343,560.2411,358.5139,560.0267,356.5744,559.377,354.5718,559.3299,352.6564,559.3046,352.6507,558.9408,353.7283,558.7042,354.8347,558.5562,355.9613,558.1031,357.0186,558.0774,358.1729,558.1182,358.3529,556.9276,357.7175,555.8562,357.6076,554.7994,357.5618,553.6579,357.143,552.5609,356.9203,552.5736,356.9392,554.1913,358.0081,555.8666,359.163,557.5141,360.2765,559.2147,361.469,560.7423,362.4035" style="stroke:#383838;stroke-width:1.0;"/><!--MD5=[1aedfa8ea35f695a3f51a4d09c8dd695]
link RealizarTarefaController to ValidaForm--><path d="M583.0533,274.1132 L583.1847,274.3607 L591.4928,278.241 L600.5711,283.5724 L609.3986,288.4313 L617.4014,291.7361 L626.4972,297.1005 L634.9777,301.3055 L643.7031,305.9719 L652.5986,310.9591 L660.9076,314.8409 L670.3842,320.923 L678.3428,324.1444 L687.3116,329.2696 L696.4036,334.627 L704.7786,338.633 L713.5733,343.4302 L722.2092,347.928 L731.0392,352.7916 L739.7756,357.4788 L748.6907,362.5027 L757.0231,366.4287 " fill="none" style="stroke:#383838;stroke-width:1.0;"/><polygon fill="#383838" points="761.7076,368.9145,761.7627,368.9577,760.3839,367.2789,759.3283,365.8534,758.1674,364.3455,756.6604,362.5662,755.6325,361.1625,755.6078,361.1549,755.8283,362.2025,756.1737,363.2883,756.6058,364.4008,756.7389,365.4216,757.2909,366.5708,757.345,366.7472,756.1477,366.7016,755.1083,367.1711,754.0881,367.7035,752.9559,367.8702,751.8826,368.2292,751.8842,368.2519,753.8469,368.3556,755.8167,368.5627,757.7832,368.7199,759.7562,368.9722,761.7076,368.9145" style="stroke:#383838;stroke-width:1.0;"/><!--MD5=[0fd51dda7e83c370763e7c8a5d47eb8d]
@startuml
'http://plantuml.com/skinparam.html
skinparam handwritten true
skinparam monochrome true
skinparam packageStyle rect
skinparam defaultFontName FG Virgil
skinparam shadowing false

class RealizarTarefaUI <<presentation>>
class RealizarTarefaController <<application>>
class PedidoRepository <<repository>>
class ColaboradorRepository <<repository>>
class Pedido <<domain>>
class ValidaForm <<domain>>

RealizarTarefaUI - -> RealizarTarefaController
RealizarTarefaUI : doShow()

RealizarTarefaController : getUser()
RealizarTarefaController : getTarefasPendentes(colab)
RealizarTarefaController : getPedidoByAtividade(atividade)
RealizarTarefaController : getFormularioDaAtividade(atividade)
RealizarTarefaController : completaFormulario(formulario)
RealizarTarefaController : validaFormulario(formulario)
RealizarTarefaController : completaDecisaoComentario(atividade)
RealizarTarefaController : savePedido(pedido)

Pedido : completaFormulario(formulario)
Pedido : completaDecisaoComentario(atividade)

ValidaForm : validaFormulario(formulario)

RealizarTarefaController - -> PedidoRepository
RealizarTarefaController - -> ColaboradorRepository
RealizarTarefaController - -> Pedido
RealizarTarefaController - -> ValidaForm

ColaboradorRepository : getUser()

PedidoRepository : getTarefasPendentes(colab)
PedidoRepository : getPedidoByAtividade(atividade)
PedidoRepository : getFormularioDaAtividade(atividade)
PedidoRepository : savePedido(pedido)
@enduml

@startuml
skinparam handwritten true
skinparam monochrome true
skinparam packageStyle rect
skinparam defaultFontName FG Virgil
skinparam shadowing false

class RealizarTarefaUI <<presentation>>
class RealizarTarefaController <<application>>
class PedidoRepository <<repository>>
class ColaboradorRepository <<repository>>
class Pedido <<domain>>
class ValidaForm <<domain>>

RealizarTarefaUI - -> RealizarTarefaController
RealizarTarefaUI : doShow()

RealizarTarefaController : getUser()
RealizarTarefaController : getTarefasPendentes(colab)
RealizarTarefaController : getPedidoByAtividade(atividade)
RealizarTarefaController : getFormularioDaAtividade(atividade)
RealizarTarefaController : completaFormulario(formulario)
RealizarTarefaController : validaFormulario(formulario)
RealizarTarefaController : completaDecisaoComentario(atividade)
RealizarTarefaController : savePedido(pedido)

Pedido : completaFormulario(formulario)
Pedido : completaDecisaoComentario(atividade)

ValidaForm : validaFormulario(formulario)

RealizarTarefaController - -> PedidoRepository
RealizarTarefaController - -> ColaboradorRepository
RealizarTarefaController - -> Pedido
RealizarTarefaController - -> ValidaForm

ColaboradorRepository : getUser()

PedidoRepository : getTarefasPendentes(colab)
PedidoRepository : getPedidoByAtividade(atividade)
PedidoRepository : getFormularioDaAtividade(atividade)
PedidoRepository : savePedido(pedido)
@enduml

PlantUML version 1.2020.22(Sun Dec 06 09:36:27 UTC 2020)
(GPL source distribution)
Java Runtime: OpenJDK Runtime Environment
JVM: OpenJDK 64-Bit Server VM
Default Encoding: UTF-8
Language: en
Country: US
--></g></svg>