<?xml version="1.0" encoding="UTF-8" standalone="no"?><svg xmlns="http://www.w3.org/2000/svg" xmlns:xlink="http://www.w3.org/1999/xlink" contentScriptType="application/ecmascript" contentStyleType="text/css" height="539px" preserveAspectRatio="none" style="width:1478px;height:539px;background:#FFFFFF;" version="1.1" viewBox="0 0 1478 539" width="1478px" zoomAndPan="magnify"><defs/><g><!--MD5=[59d05d131f5bcb56f1ff3fb05067e231]
class RealizarTarefaUI--><polygon fill="#F8F8F8" points="721,7,721,7.2102,731.1538,6.5857,741.3077,7.1933,751.4615,7.3997,761.6154,6.2866,771.7692,6.9223,781.9231,6.5735,792.0769,6.6165,802.2308,6.9318,812.3846,6.3086,822.5385,7.5536,832.6923,6.3697,842.8462,6.8022,853,7,853.4319,7,852.9142,16.5346,853.0682,26.0692,852.9681,35.6038,853.1785,45.1384,853.2391,54.673,853.5857,64.2076,853,73.7422,853,74.4132,842.8462,74.4214,832.6923,73.9968,822.5385,74.2058,812.3846,74.4444,802.2308,73.021,792.0769,74.4207,781.9231,73.4457,771.7692,74.276,761.6154,73.2472,751.4615,73.6737,741.3077,74.4838,731.1538,73.6935,721,73.7422,721.1053,73.7422,721.3386,64.2076,721.4162,54.673,720.9961,45.1384,721.2872,35.6038,720.4276,26.0692,721.2844,16.5346,721,7" style="stroke:#383838;stroke-width:1.5;"/><polygon fill="#C2C2C2" points="747.0608,28.6444,745.4484,30.8475,743.5412,34.0745,740.8136,36.2491,737.9474,37.4384,735.662,37.5416,732.7247,36.0543,729.9532,35.0827,727.8495,33.1099,726.7461,30.8515,726.0917,29.0533,725.4506,26.7045,724.41,24.6832,725.2096,22.7098,725.9102,20.548,728.5393,18.8382,730.389,16.6198,732.6784,15.8832,735.4001,15.2488,738.8904,15.6257,740.8021,16.5273,743.0247,16.9359,745.7272,19.7047,746.6693,22.6277,747.0786,24.6221,746.615,27.9086" style="stroke:#383838;stroke-width:1.0;"/><path d="M738.9688,31.6094 Q738.3906,31.9063 737.75,32.0469 Q737.1094,32.2031 736.4063,32.2031 Q733.9063,32.2031 732.5781,30.5625 Q731.2656,28.9063 731.2656,25.7813 Q731.2656,22.6563 732.5781,21 Q733.9063,19.3438 736.4063,19.3438 Q737.1094,19.3438 737.75,19.5 Q738.4063,19.6563 738.9688,19.9531 L738.9688,22.6719 Q738.3438,22.0938 737.75,21.8281 Q737.1563,21.5469 736.5313,21.5469 Q735.1875,21.5469 734.5,22.625 Q733.8125,23.6875 733.8125,25.7813 Q733.8125,27.875 734.5,28.9531 Q735.1875,30.0156 736.5313,30.0156 Q737.1563,30.0156 737.75,29.75 Q738.3438,29.4688 738.9688,28.8906 L738.9688,31.6094 Z " fill="#000000"/><text fill="#000000" font-family="FG Virgil" font-size="12" font-style="italic" lengthAdjust="spacing" textLength="95" x="752.5" y="23.1387">«presentation»</text><text fill="#000000" font-family="FG Virgil" font-size="12" lengthAdjust="spacing" textLength="100" x="750" y="37.1074">RealizarTarefaUI</text><path d="M722,44.9375 L722,45.2177 L732,44.3851 L742,45.1952 L752,45.4704 L762,43.9863 L772,44.8339 L782,44.3688 L792,44.4262 L802,44.8466 L812,44.0157 L822,45.6757 L832,44.0971 L842,44.6738 L852,44.9375 " fill="#F8F8F8" style="stroke:#383838;stroke-width:1.5;"/><path d="M722,52.9375 L722,53.2177 L732,52.3851 L742,53.1952 L752,53.4704 L762,51.9863 L772,52.8339 L782,52.3688 L792,52.4262 L802,52.8466 L812,52.0157 L822,53.6757 L832,52.0971 L842,52.6738 L852,52.9375 " fill="#F8F8F8" style="stroke:#383838;stroke-width:1.5;"/><text fill="#000000" font-family="FG Virgil" font-size="11" lengthAdjust="spacing" textLength="53" x="727" y="67.1479">doShow()</text><!--MD5=[bcf68e18a2e1164946af35ca7240e29e]
class RealizarTarefaController--><polygon fill="#F8F8F8" points="423,134,423,134.2102,432.9726,133.5857,442.9452,134.1933,452.9178,134.3997,462.8904,133.2866,472.863,133.9223,482.8356,133.5735,492.8082,133.6165,502.7808,133.9318,512.7534,133.3086,522.726,134.5536,532.6986,133.3697,542.6712,133.8022,552.6438,134.4319,562.6164,133.9142,572.589,134.0682,582.5616,133.9681,592.5342,134.1785,602.5068,134.2391,612.4795,134.5857,622.4521,134.6711,632.4247,134.6793,642.3973,134.2546,652.3699,134.4636,662.3425,134.7022,672.3151,133.2788,682.2877,134.6785,692.2603,133.7035,702.2329,134.5338,712.2055,133.505,722.1781,133.9315,732.1507,134.7416,742.1233,133.9513,752.0959,134.1053,762.0685,134.3386,772.0411,134.4162,782.0137,133.9961,791.9863,134.2872,801.9589,133.4276,811.9315,134.2844,821.9041,134.5482,831.8767,134.4445,841.8493,134.613,851.8219,133.5169,861.7945,133.3478,871.7671,133.3786,881.7397,133.9411,891.7123,133.8035,901.6849,134.6814,911.6575,133.8253,921.6301,133.6569,931.6027,134.2283,941.5753,133.3332,951.5479,133.4809,961.5205,134.649,971.4932,134.4357,981.4658,134.7345,991.4384,133.6782,1001.411,134.3192,1011.3836,134.5904,1021.3562,133.5276,1031.3288,133.9041,1041.3014,134.126,1051.274,134.6518,1061.2466,133.9958,1071.2192,134.4626,1081.1918,133.4462,1091.1644,133.3227,1101.137,134.5036,1111.1096,133.2831,1121.0822,134.509,1131.0548,134.2066,1141.0274,133.7321,1151,134,1150.6462,134,1151.4588,143.8854,1150.7007,153.7708,1151.5919,163.6563,1150.4473,173.5417,1151.6174,183.4271,1151.4843,193.3125,1151.245,203.1979,1151.0472,213.0833,1151.7266,222.9688,1151.6136,232.8542,1151.1693,242.7396,1151.2682,252.625,1150.8697,262.5104,1151.7165,272.3958,1151.1549,282.2813,1151.1726,292.1667,1150.3916,302.0521,1150.5948,311.9375,1151.5307,321.8229,1151.4298,331.7083,1151,341.5938,1151,341.5508,1141.0274,341.2716,1131.0548,341.3748,1121.0822,340.9076,1111.1096,342.0085,1101.137,342.3333,1091.1644,342.1201,1081.1918,342.2887,1071.2192,341.457,1061.2466,341.681,1051.274,341.2062,1041.3014,341.8778,1031.3288,341.8405,1021.3562,342.1461,1011.3836,341.3641,1001.411,341.4593,991.4384,342.0372,981.4658,342.1611,971.4932,341.0812,961.5205,341.3999,951.5479,341.743,941.5753,340.9829,931.6027,341.9471,921.6301,341.8517,911.6575,341.493,901.6849,341.736,891.7123,342.3224,881.7397,341.2809,871.7671,341.9087,861.7945,341.8794,851.8219,341.7095,841.8493,341.7347,831.8767,341.7072,821.9041,340.9696,811.9315,341.1929,801.9589,341.1322,791.9863,341.6576,782.0137,341.6819,772.0411,341.7555,762.0685,341.3028,752.0959,341.5262,742.1233,341.4735,732.1507,342.1706,722.1781,342.0203,712.2055,341.1082,702.2329,341.5208,692.2603,341.0165,682.2877,341.8821,672.3151,342.2022,662.3425,342.1383,652.3699,341.1582,642.3973,342.0577,632.4247,340.8509,622.4521,341.7939,612.4795,341.2944,602.5068,341.6905,592.5342,341.8341,582.5616,342.0659,572.589,340.8738,562.6164,342.0692,552.6438,341.7719,542.6712,341.9491,532.6986,342.3416,522.726,341.5992,512.7534,341.769,502.7808,341.8072,492.8082,341.791,482.8356,341.5929,472.863,342.3045,462.8904,340.984,452.9178,342.159,442.9452,340.9697,432.9726,341.0534,423,341.5938,423.04,341.5938,423.0283,331.7083,422.5072,321.8229,423.4137,311.9375,423.1089,302.0521,423.7267,292.1667,423.6671,282.2813,422.5517,272.3958,422.6021,262.5104,422.8708,252.625,423.3555,242.7396,423.403,232.8542,423.3012,222.9688,422.658,213.0833,423.6364,203.1979,423.6338,193.3125,422.9527,183.4271,422.7609,173.5417,422.5986,163.6563,422.7854,153.7708,423.1374,143.8854,423,134" style="stroke:#383838;stroke-width:1.5;"/><polygon fill="#C2C2C2" points="719.3108,155.6444,717.6984,157.8475,715.7912,161.0745,713.0636,163.2491,710.1974,164.4384,707.912,164.5416,704.9747,163.0543,702.2032,162.0827,700.0995,160.1099,698.9961,157.8515,698.3417,156.0533,697.7006,153.7045,696.66,151.6832,697.4596,149.7098,698.1602,147.548,700.7893,145.8382,702.639,143.6198,704.9284,142.8832,707.6501,142.2488,711.1404,142.6257,713.0521,143.5273,715.2747,143.9359,717.9772,146.7047,718.9193,149.6277,719.3286,151.6221,718.865,154.9086" style="stroke:#383838;stroke-width:1.0;"/><path d="M711.2188,158.6094 Q710.6406,158.9063 710,159.0469 Q709.3594,159.2031 708.6563,159.2031 Q706.1563,159.2031 704.8281,157.5625 Q703.5156,155.9063 703.5156,152.7813 Q703.5156,149.6563 704.8281,148 Q706.1563,146.3438 708.6563,146.3438 Q709.3594,146.3438 710,146.5 Q710.6563,146.6563 711.2188,146.9531 L711.2188,149.6719 Q710.5938,149.0938 710,148.8281 Q709.4063,148.5469 708.7813,148.5469 Q707.4375,148.5469 706.75,149.625 Q706.0625,150.6875 706.0625,152.7813 Q706.0625,154.875 706.75,155.9531 Q707.4375,157.0156 708.7813,157.0156 Q709.4063,157.0156 710,156.75 Q710.5938,156.4688 711.2188,155.8906 L711.2188,158.6094 Z " fill="#000000"/><text fill="#000000" font-family="FG Virgil" font-size="12" font-style="italic" lengthAdjust="spacing" textLength="83" x="761.75" y="150.1387">«application»</text><text fill="#000000" font-family="FG Virgil" font-size="12" lengthAdjust="spacing" textLength="149" x="728.75" y="164.1074">RealizarTarefaController</text><path d="M424,171.9375 L424,172.2177 L433.9452,171.3851 L443.8904,172.1952 L453.8356,172.4704 L463.7808,170.9863 L473.726,171.8339 L483.6712,171.3688 L493.6164,171.4262 L503.5616,171.8466 L513.5068,171.0157 L523.4521,172.6757 L533.3973,171.0971 L543.3425,171.6738 L553.2877,172.5134 L563.2329,171.8231 L573.1781,172.0285 L583.1233,171.8949 L593.0685,172.1755 L603.0137,172.2563 L612.9589,172.7184 L622.9041,172.8322 L632.8493,172.8432 L642.7945,172.277 L652.7397,172.5556 L662.6849,172.8738 L672.6301,170.9759 L682.5753,172.8422 L692.5205,171.5422 L702.4658,172.6492 L712.411,171.2775 L722.3562,171.8462 L732.3014,172.9263 L742.2466,171.8725 L752.1918,172.0779 L762.137,172.389 L772.0822,172.4925 L782.0274,171.9323 L791.9726,172.3205 L801.9178,171.1743 L811.863,172.3167 L821.8082,172.6684 L831.7534,172.5302 L841.6986,172.7549 L851.6438,171.2934 L861.589,171.0679 L871.5342,171.109 L881.4795,171.859 L891.4247,171.6755 L901.3699,172.846 L911.3151,171.7046 L921.2603,171.4801 L931.2055,172.2419 L941.1507,171.0484 L951.0959,171.2453 L961.0411,172.8028 L970.9863,172.5184 L980.9315,172.9168 L990.8767,171.5084 L1000.8219,172.3631 L1010.7671,172.7247 L1020.7123,171.3076 L1030.6575,171.8097 L1040.6027,172.1055 L1050.5479,172.8065 L1060.4932,171.9319 L1070.4384,172.5543 L1080.3836,171.1991 L1090.3288,171.0345 L1100.274,172.609 L1110.2192,170.9816 L1120.1644,172.6161 L1130.1096,172.213 L1140.0548,171.5803 L1150,171.9375 " fill="#F8F8F8" style="stroke:#383838;stroke-width:1.5;"/><path d="M424,179.9375 L424,180.2177 L433.9452,179.3851 L443.8904,180.1952 L453.8356,180.4704 L463.7808,178.9863 L473.726,179.8339 L483.6712,179.3688 L493.6164,179.4262 L503.5616,179.8466 L513.5068,179.0157 L523.4521,180.6757 L533.3973,179.0971 L543.3425,179.6738 L553.2877,180.5134 L563.2329,179.8231 L573.1781,180.0285 L583.1233,179.8949 L593.0685,180.1755 L603.0137,180.2563 L612.9589,180.7184 L622.9041,180.8322 L632.8493,180.8432 L642.7945,180.277 L652.7397,180.5556 L662.6849,180.8738 L672.6301,178.9759 L682.5753,180.8422 L692.5205,179.5422 L702.4658,180.6492 L712.411,179.2775 L722.3562,179.8462 L732.3014,180.9263 L742.2466,179.8725 L752.1918,180.0779 L762.137,180.389 L772.0822,180.4925 L782.0274,179.9323 L791.9726,180.3205 L801.9178,179.1743 L811.863,180.3167 L821.8082,180.6684 L831.7534,180.5302 L841.6986,180.7549 L851.6438,179.2934 L861.589,179.0679 L871.5342,179.109 L881.4795,179.859 L891.4247,179.6755 L901.3699,180.846 L911.3151,179.7046 L921.2603,179.4801 L931.2055,180.2419 L941.1507,179.0484 L951.0959,179.2453 L961.0411,180.8028 L970.9863,180.5184 L980.9315,180.9168 L990.8767,179.5084 L1000.8219,180.3631 L1010.7671,180.7247 L1020.7123,179.3076 L1030.6575,179.8097 L1040.6027,180.1055 L1050.5479,180.8065 L1060.4932,179.9319 L1070.4384,180.5543 L1080.3836,179.1991 L1090.3288,179.0345 L1100.274,180.609 L1110.2192,178.9816 L1120.1644,180.6161 L1130.1096,180.213 L1140.0548,179.5803 L1150,179.9375 " fill="#F8F8F8" style="stroke:#383838;stroke-width:1.5;"/><text fill="#000000" font-family="FG Virgil" font-size="11" lengthAdjust="spacing" textLength="53" x="429" y="194.1479">getUser()</text><text fill="#000000" font-family="FG Virgil" font-size="11" lengthAdjust="spacing" textLength="187" x="429" y="206.9526">getListaTarefasPendentes(colab)</text><text fill="#000000" font-family="FG Virgil" font-size="11" lengthAdjust="spacing" textLength="166" x="429" y="219.7573">getPedidoByTarefa(atividade)</text><text fill="#000000" font-family="FG Virgil" font-size="11" lengthAdjust="spacing" textLength="204" x="429" y="232.562">getFormularioDaAtividade(atividade)</text><text fill="#000000" font-family="FG Virgil" font-size="11" lengthAdjust="spacing" textLength="326" x="429" y="245.3667">replaceFormularioAtividade(pedido, atividade, formulario)</text><text fill="#000000" font-family="FG Virgil" font-size="11" lengthAdjust="spacing" textLength="291" x="429" y="258.1714">getListaExpressaoRegularDoFormulario(formulario)</text><text fill="#000000" font-family="FG Virgil" font-size="11" lengthAdjust="spacing" textLength="212" x="429" y="270.9761">getAtributosDoFormulario(formulario)</text><text fill="#000000" font-family="FG Virgil" font-size="11" lengthAdjust="spacing" textLength="232" x="429" y="283.7808">getExpressaoRegularDoAtributo(atributo)</text><text fill="#000000" font-family="FG Virgil" font-size="11" lengthAdjust="spacing" textLength="174" x="429" y="296.5854">getVariavelDoAtributo(atributo)</text><text fill="#000000" font-family="FG Virgil" font-size="11" lengthAdjust="spacing" textLength="161" x="429" y="309.3901">validaFormulario(formulario)</text><text fill="#000000" font-family="FG Virgil" font-size="11" lengthAdjust="spacing" textLength="716" x="429" y="322.1948">completaDecisaoComentario(comentario, decisao, pedido, atividade,estadoPedido, estadoAtividade, duracao, dataResolucao)</text><text fill="#000000" font-family="FG Virgil" font-size="11" lengthAdjust="spacing" textLength="111" x="429" y="334.9995">savePedido(pedido)</text><!--MD5=[9d9dca655b7d777fd61537967bcfba5b]
class PedidoRepository--><polygon fill="#F8F8F8" points="7,402,7,402.2102,16.9412,401.5857,26.8824,402.1933,36.8235,402.3997,46.7647,401.2866,56.7059,401.9223,66.6471,401.5735,76.5882,401.6165,86.5294,401.9318,96.4706,401.3086,106.4118,402.5536,116.3529,401.3697,126.2941,401.8022,136.2353,402.4319,146.1765,401.9142,156.1176,402.0682,166.0588,401.9681,176,402.1785,185.9412,402.2391,195.8824,402.5857,205.8235,402.6711,215.7647,402.6793,225.7059,402.2546,235.6471,402.4636,245.5882,402.7022,255.5294,401.2788,265.4706,402.6785,275.4118,401.7035,285.3529,402.5338,295.2941,401.505,305.2353,401.9315,315.1765,402.7416,325.1176,401.9513,335.0588,402.1053,345,402,345.3386,402,345.4162,412.0589,344.9961,422.1178,345.2872,432.1767,344.4276,442.2356,345.2844,452.2945,345.5482,462.3534,345.4445,472.4123,345.613,482.4712,344.5169,492.53,344.3478,502.5889,344.3786,512.6478,344.9411,522.7067,345,532.7656,345,532.5691,335.0588,533.447,325.1176,532.5909,315.1765,532.4226,305.2353,532.9939,295.2941,532.0988,285.3529,532.2465,275.4118,533.4146,265.4706,533.2013,255.5294,533.5001,245.5882,532.4438,235.6471,533.0848,225.7059,533.356,215.7647,532.2932,205.8235,532.6698,195.8824,532.8916,185.9412,533.4174,176,532.7614,166.0588,533.2282,156.1176,532.2118,146.1765,532.0884,136.2353,533.2692,126.2941,532.0487,116.3529,533.2746,106.4118,532.9723,96.4706,532.4977,86.5294,532.4119,76.5882,533.2244,66.6471,532.4663,56.7059,533.3575,46.7647,532.2129,36.8235,533.3831,26.8824,533.2499,16.9412,533.0106,7,532.7656,7.0472,532.7656,7.7266,522.7067,7.6136,512.6478,7.1693,502.5889,7.2682,492.53,6.8697,482.4712,7.7165,472.4123,7.1549,462.3534,7.1726,452.2945,6.3916,442.2356,6.5948,432.1767,7.5307,422.1178,7.4298,412.0589,7,402" style="stroke:#383838;stroke-width:1.5;"/><polygon fill="#C2C2C2" points="128.3108,423.6444,126.6984,425.8475,124.7912,429.0745,122.0636,431.2491,119.1974,432.4384,116.912,432.5416,113.9747,431.0543,111.2032,430.0827,109.0995,428.1099,107.9961,425.8515,107.3417,424.0533,106.7006,421.7045,105.66,419.6832,106.4596,417.7098,107.1602,415.548,109.7893,413.8382,111.639,411.6198,113.9284,410.8832,116.6501,410.2488,120.1404,410.6257,122.0521,411.5273,124.2747,411.9359,126.9772,414.7047,127.9193,417.6277,128.3286,419.6221,127.865,422.9086" style="stroke:#383838;stroke-width:1.0;"/><path d="M120.2188,426.6094 Q119.6406,426.9063 119,427.0469 Q118.3594,427.2031 117.6563,427.2031 Q115.1563,427.2031 113.8281,425.5625 Q112.5156,423.9063 112.5156,420.7813 Q112.5156,417.6563 113.8281,416 Q115.1563,414.3438 117.6563,414.3438 Q118.3594,414.3438 119,414.5 Q119.6563,414.6563 120.2188,414.9531 L120.2188,417.6719 Q119.5938,417.0938 119,416.8281 Q118.4063,416.5469 117.7813,416.5469 Q116.4375,416.5469 115.75,417.625 Q115.0625,418.6875 115.0625,420.7813 Q115.0625,422.875 115.75,423.9531 Q116.4375,425.0156 117.7813,425.0156 Q118.4063,425.0156 119,424.75 Q119.5938,424.4688 120.2188,423.8906 L120.2188,426.6094 Z " fill="#000000"/><text fill="#000000" font-family="FG Virgil" font-size="12" font-style="italic" lengthAdjust="spacing" textLength="77" x="153.75" y="418.1387">«repository»</text><text fill="#000000" font-family="FG Virgil" font-size="12" lengthAdjust="spacing" textLength="109" x="137.75" y="432.1074">PedidoRepository</text><path d="M8,439.9375 L8,440.2177 L17.8824,439.3851 L27.7647,440.1952 L37.6471,440.4704 L47.5294,438.9863 L57.4118,439.8339 L67.2941,439.3688 L77.1765,439.4262 L87.0588,439.8466 L96.9412,439.0157 L106.8235,440.6757 L116.7059,439.0971 L126.5882,439.6738 L136.4706,440.5134 L146.3529,439.8231 L156.2353,440.0285 L166.1176,439.8949 L176,440.1755 L185.8824,440.2563 L195.7647,440.7184 L205.6471,440.8322 L215.5294,440.8432 L225.4118,440.277 L235.2941,440.5556 L245.1765,440.8738 L255.0588,438.9759 L264.9412,440.8422 L274.8235,439.5422 L284.7059,440.6492 L294.5882,439.2775 L304.4706,439.8462 L314.3529,440.9263 L324.2353,439.8725 L334.1176,440.0779 L344,439.9375 " fill="#F8F8F8" style="stroke:#383838;stroke-width:1.5;"/><path d="M8,447.9375 L8,448.2177 L17.8824,447.3851 L27.7647,448.1952 L37.6471,448.4704 L47.5294,446.9863 L57.4118,447.8339 L67.2941,447.3688 L77.1765,447.4262 L87.0588,447.8466 L96.9412,447.0157 L106.8235,448.6757 L116.7059,447.0971 L126.5882,447.6738 L136.4706,448.5134 L146.3529,447.8231 L156.2353,448.0285 L166.1176,447.8949 L176,448.1755 L185.8824,448.2563 L195.7647,448.7184 L205.6471,448.8322 L215.5294,448.8432 L225.4118,448.277 L235.2941,448.5556 L245.1765,448.8738 L255.0588,446.9759 L264.9412,448.8422 L274.8235,447.5422 L284.7059,448.6492 L294.5882,447.2775 L304.4706,447.8462 L314.3529,448.9263 L324.2353,447.8725 L334.1176,448.0779 L344,447.9375 " fill="#F8F8F8" style="stroke:#383838;stroke-width:1.5;"/><text fill="#000000" font-family="FG Virgil" font-size="11" lengthAdjust="spacing" textLength="187" x="13" y="462.1479">getListaTarefasPendentes(colab)</text><text fill="#000000" font-family="FG Virgil" font-size="11" lengthAdjust="spacing" textLength="166" x="13" y="474.9526">getPedidoByTarefa(atividade)</text><text fill="#000000" font-family="FG Virgil" font-size="11" lengthAdjust="spacing" textLength="204" x="13" y="487.7573">getFormularioDaAtividade(atividade)</text><text fill="#000000" font-family="FG Virgil" font-size="11" lengthAdjust="spacing" textLength="326" x="13" y="500.562">replaceFormularioAtividade(pedido, atividade, formulario)</text><text fill="#000000" font-family="FG Virgil" font-size="11" lengthAdjust="spacing" textLength="291" x="13" y="513.3667">getListaExpressaoRegularDoFormulario(formulario)</text><text fill="#000000" font-family="FG Virgil" font-size="11" lengthAdjust="spacing" textLength="111" x="13" y="526.1714">savePedido(pedido)</text><!--MD5=[9a0e8f7957502662f95e783c1c3d84fe]
class ColaboradorRepository--><polygon fill="#F8F8F8" points="380.5,434,380.5,434.2102,390.2222,433.5857,399.9444,434.1933,409.6667,434.3997,419.3889,433.2866,429.1111,433.9223,438.8333,433.5735,448.5556,433.6165,458.2778,433.9318,468,433.3086,477.7222,434.5536,487.4444,433.3697,497.1667,433.8022,506.8889,434.4319,516.6111,433.9142,526.3333,434.0682,536.0556,433.9681,545.7778,434.1785,555.5,434,555.7391,434,556.0857,443.5346,556.1711,453.0692,556.1793,462.6038,555.7546,472.1384,555.9636,481.673,556.2022,491.2076,555.5,500.7422,555.5,500.021,545.7778,501.4207,536.0556,500.4457,526.3333,501.276,516.6111,500.2472,506.8889,500.6737,497.1667,501.4838,487.4444,500.6935,477.7222,500.8475,468,501.0808,458.2778,501.1584,448.5556,500.7383,438.8333,501.0294,429.1111,500.1698,419.3889,501.0266,409.6667,501.2904,399.9444,501.1867,390.2222,501.3552,380.5,500.7422,380.0169,500.7422,379.8478,491.2076,379.8786,481.673,380.4411,472.1384,380.3035,462.6038,381.1814,453.0692,380.3253,443.5346,380.5,434" style="stroke:#383838;stroke-width:1.5;"/><polygon fill="#C2C2C2" points="406.5608,455.6444,404.9484,457.8475,403.0412,461.0745,400.3136,463.2491,397.4474,464.4384,395.162,464.5416,392.2247,463.0543,389.4532,462.0827,387.3495,460.1099,386.2461,457.8515,385.5917,456.0533,384.9506,453.7045,383.91,451.6832,384.7096,449.7098,385.4102,447.548,388.0393,445.8382,389.889,443.6198,392.1784,442.8832,394.9001,442.2488,398.3904,442.6257,400.3021,443.5273,402.5247,443.9359,405.2272,446.7047,406.1693,449.6277,406.5786,451.6221,406.115,454.9086" style="stroke:#383838;stroke-width:1.0;"/><path d="M398.4688,458.6094 Q397.8906,458.9063 397.25,459.0469 Q396.6094,459.2031 395.9063,459.2031 Q393.4063,459.2031 392.0781,457.5625 Q390.7656,455.9063 390.7656,452.7813 Q390.7656,449.6563 392.0781,448 Q393.4063,446.3438 395.9063,446.3438 Q396.6094,446.3438 397.25,446.5 Q397.9063,446.6563 398.4688,446.9531 L398.4688,449.6719 Q397.8438,449.0938 397.25,448.8281 Q396.6563,448.5469 396.0313,448.5469 Q394.6875,448.5469 394,449.625 Q393.3125,450.6875 393.3125,452.7813 Q393.3125,454.875 394,455.9531 Q394.6875,457.0156 396.0313,457.0156 Q396.6563,457.0156 397.25,456.75 Q397.8438,456.4688 398.4688,455.8906 L398.4688,458.6094 Z " fill="#000000"/><text fill="#000000" font-family="FG Virgil" font-size="12" font-style="italic" lengthAdjust="spacing" textLength="77" x="442.5" y="450.1387">«repository»</text><text fill="#000000" font-family="FG Virgil" font-size="12" lengthAdjust="spacing" textLength="143" x="409.5" y="464.1074">ColaboradorRepository</text><path d="M381.5,471.9375 L381.5,472.2177 L391.6765,471.3851 L401.8529,472.1952 L412.0294,472.4704 L422.2059,470.9863 L432.3824,471.8339 L442.5588,471.3688 L452.7353,471.4262 L462.9118,471.8466 L473.0882,471.0157 L483.2647,472.6757 L493.4412,471.0971 L503.6176,471.6738 L513.7941,472.5134 L523.9706,471.8231 L534.1471,472.0285 L544.3235,471.8949 L554.5,471.9375 " fill="#F8F8F8" style="stroke:#383838;stroke-width:1.5;"/><path d="M381.5,479.9375 L381.5,480.2177 L391.6765,479.3851 L401.8529,480.1952 L412.0294,480.4704 L422.2059,478.9863 L432.3824,479.8339 L442.5588,479.3688 L452.7353,479.4262 L462.9118,479.8466 L473.0882,479.0157 L483.2647,480.6757 L493.4412,479.0971 L503.6176,479.6738 L513.7941,480.5134 L523.9706,479.8231 L534.1471,480.0285 L544.3235,479.8949 L554.5,479.9375 " fill="#F8F8F8" style="stroke:#383838;stroke-width:1.5;"/><text fill="#000000" font-family="FG Virgil" font-size="11" lengthAdjust="spacing" textLength="53" x="386.5" y="494.1479">getUser()</text><!--MD5=[a26d7a8585b446db7fc8ab4626d8ca8a]
class Pedido--><polygon fill="#F8F8F8" points="591,427.5,591,427.7102,601.0513,427.0857,611.1026,427.6933,621.1538,427.8997,631.2051,426.7866,641.2564,427.4223,651.3077,427.0735,661.359,427.1165,671.4103,427.4318,681.4615,426.8086,691.5128,428.0536,701.5641,426.8697,711.6154,427.3022,721.6667,427.9319,731.7179,427.4142,741.7692,427.5682,751.8205,427.4681,761.8718,427.6785,771.9231,427.7391,781.9744,428.0857,792.0256,428.1711,802.0769,428.1793,812.1282,427.7546,822.1795,427.9636,832.2308,428.2022,842.2821,426.7788,852.3333,428.1785,862.3846,427.2035,872.4359,428.0338,882.4872,427.005,892.5385,427.4315,902.5897,428.2416,912.641,427.4513,922.6923,427.6053,932.7436,427.8386,942.7949,427.9162,952.8462,427.4961,962.8974,427.7872,972.9487,426.9276,983,427.5,983.2844,427.5,983.5482,437.4434,983.4445,447.3867,983.613,457.3301,982.5169,467.2734,982.3478,477.2168,982.3786,487.1602,982.9411,497.1035,983,507.0469,983,506.8503,972.9487,507.7283,962.8974,506.8722,952.8462,506.7038,942.7949,507.2751,932.7436,506.38,922.6923,506.5277,912.641,507.6958,902.5897,507.4825,892.5385,507.7814,882.4872,506.7251,872.4359,507.3661,862.3846,507.6373,852.3333,506.5745,842.2821,506.951,832.2308,507.1729,822.1795,507.6986,812.1282,507.0427,802.0769,507.5094,792.0256,506.4931,781.9744,506.3696,771.9231,507.5505,761.8718,506.3299,751.8205,507.5558,741.7692,507.2535,731.7179,506.779,721.6667,506.6931,711.6154,507.5056,701.5641,506.7475,691.5128,507.6387,681.4615,506.4941,671.4103,507.6643,661.359,507.5312,651.3077,507.2918,641.2564,507.0941,631.2051,507.7735,621.1538,507.6605,611.1026,507.2161,601.0513,507.3151,591,507.0469,590.8697,507.0469,591.7165,497.1035,591.1549,487.1602,591.1726,477.2168,590.3916,467.2734,590.5948,457.3301,591.5307,447.3867,591.4298,437.4434,591,427.5" style="stroke:#383838;stroke-width:1.5;"/><polygon fill="#C2C2C2" points="765.8108,449.1444,764.1984,451.3475,762.2912,454.5745,759.5636,456.7491,756.6974,457.9384,754.412,458.0416,751.4747,456.5543,748.7032,455.5827,746.5995,453.6099,745.4961,451.3515,744.8417,449.5533,744.2006,447.2045,743.16,445.1832,743.9596,443.2098,744.6602,441.048,747.2893,439.3382,749.139,437.1198,751.4284,436.3832,754.1501,435.7488,757.6404,436.1257,759.5521,437.0273,761.7747,437.4359,764.4772,440.2047,765.4193,443.1277,765.8286,445.1221,765.365,448.4086" style="stroke:#383838;stroke-width:1.0;"/><path d="M757.7188,452.1094 Q757.1406,452.4063 756.5,452.5469 Q755.8594,452.7031 755.1563,452.7031 Q752.6563,452.7031 751.3281,451.0625 Q750.0156,449.4063 750.0156,446.2813 Q750.0156,443.1563 751.3281,441.5 Q752.6563,439.8438 755.1563,439.8438 Q755.8594,439.8438 756.5,440 Q757.1563,440.1563 757.7188,440.4531 L757.7188,443.1719 Q757.0938,442.5938 756.5,442.3281 Q755.9063,442.0469 755.2813,442.0469 Q753.9375,442.0469 753.25,443.125 Q752.5625,444.1875 752.5625,446.2813 Q752.5625,448.375 753.25,449.4531 Q753.9375,450.5156 755.2813,450.5156 Q755.9063,450.5156 756.5,450.25 Q757.0938,449.9688 757.7188,449.3906 L757.7188,452.1094 Z " fill="#000000"/><text fill="#000000" font-family="FG Virgil" font-size="12" font-style="italic" lengthAdjust="spacing" textLength="60" x="773.25" y="443.6387">«domain»</text><text fill="#000000" font-family="FG Virgil" font-size="12" lengthAdjust="spacing" textLength="43" x="781.75" y="457.6074">Pedido</text><path d="M592,465.4375 L592,465.7177 L602,464.8851 L612,465.6952 L622,465.9704 L632,464.4863 L642,465.3339 L652,464.8688 L662,464.9262 L672,465.3466 L682,464.5157 L692,466.1757 L702,464.5971 L712,465.1738 L722,466.0134 L732,465.3231 L742,465.5285 L752,465.3949 L762,465.6755 L772,465.7563 L782,466.2184 L792,466.3322 L802,466.3432 L812,465.777 L822,466.0556 L832,466.3738 L842,464.4759 L852,466.3422 L862,465.0422 L872,466.1492 L882,464.7775 L892,465.3462 L902,466.4263 L912,465.3725 L922,465.5779 L932,465.889 L942,465.9925 L952,465.4323 L962,465.8205 L972,464.6743 L982,465.4375 " fill="#F8F8F8" style="stroke:#383838;stroke-width:1.5;"/><path d="M592,473.4375 L592,473.7177 L602,472.8851 L612,473.6952 L622,473.9704 L632,472.4863 L642,473.3339 L652,472.8688 L662,472.9262 L672,473.3466 L682,472.5157 L692,474.1757 L702,472.5971 L712,473.1738 L722,474.0134 L732,473.3231 L742,473.5285 L752,473.3949 L762,473.6755 L772,473.7563 L782,474.2184 L792,474.3322 L802,474.3432 L812,473.777 L822,474.0556 L832,474.3738 L842,472.4759 L852,474.3422 L862,473.0422 L872,474.1492 L882,472.7775 L892,473.3462 L902,474.4263 L912,473.3725 L922,473.5779 L932,473.889 L942,473.9925 L952,473.4323 L962,473.8205 L972,472.6743 L982,473.4375 " fill="#F8F8F8" style="stroke:#383838;stroke-width:1.5;"/><text fill="#000000" font-family="FG Virgil" font-size="11" lengthAdjust="spacing" textLength="271" x="597" y="487.6479">completaFormulario(formulario,variavel,atibuto)</text><text fill="#000000" font-family="FG Virgil" font-size="11" lengthAdjust="spacing" textLength="380" x="597" y="500.4526">completaDecisaoComentario(comentario,decisao,pedido,atividade)</text><!--MD5=[aea7e8aae0f761f3d316f6ff371baef4]
class ValidaForm--><polygon fill="#F8F8F8" points="1018.5,434,1018.5,434.2102,1028.6765,433.5857,1038.8529,434.1933,1049.0294,434.3997,1059.2059,433.2866,1069.3824,433.9223,1079.5588,433.5735,1089.7353,433.6165,1099.9118,433.9318,1110.0882,433.3086,1120.2647,434.5536,1130.4412,433.3697,1140.6176,433.8022,1150.7941,434.4319,1160.9706,433.9142,1171.1471,434.0682,1181.3235,433.9681,1191.5,434,1191.6785,434,1191.7391,443.5346,1192.0857,453.0692,1192.1711,462.6038,1192.1793,472.1384,1191.7546,481.673,1191.9636,491.2076,1191.5,500.7422,1191.5,501.4444,1181.3235,500.021,1171.1471,501.4207,1160.9706,500.4457,1150.7941,501.276,1140.6176,500.2472,1130.4412,500.6737,1120.2647,501.4838,1110.0882,500.6935,1099.9118,500.8475,1089.7353,501.0808,1079.5588,501.1584,1069.3824,500.7383,1059.2059,501.0294,1049.0294,500.1698,1038.8529,501.0266,1028.6765,501.2904,1018.5,500.7422,1018.9445,500.7422,1019.113,491.2076,1018.0169,481.673,1017.8478,472.1384,1017.8786,462.6038,1018.4411,453.0692,1018.3035,443.5346,1018.5,434" style="stroke:#383838;stroke-width:1.5;"/><polygon fill="#C2C2C2" points="1077.3108,455.6444,1075.6984,457.8475,1073.7912,461.0745,1071.0636,463.2491,1068.1974,464.4384,1065.912,464.5416,1062.9747,463.0543,1060.2032,462.0827,1058.0995,460.1099,1056.9961,457.8515,1056.3417,456.0533,1055.7006,453.7045,1054.66,451.6832,1055.4596,449.7098,1056.1602,447.548,1058.7893,445.8382,1060.639,443.6198,1062.9284,442.8832,1065.6501,442.2488,1069.1404,442.6257,1071.0521,443.5273,1073.2747,443.9359,1075.9772,446.7047,1076.9193,449.6277,1077.3286,451.6221,1076.865,454.9086" style="stroke:#383838;stroke-width:1.0;"/><path d="M1069.2188,458.6094 Q1068.6406,458.9063 1068,459.0469 Q1067.3594,459.2031 1066.6563,459.2031 Q1064.1563,459.2031 1062.8281,457.5625 Q1061.5156,455.9063 1061.5156,452.7813 Q1061.5156,449.6563 1062.8281,448 Q1064.1563,446.3438 1066.6563,446.3438 Q1067.3594,446.3438 1068,446.5 Q1068.6563,446.6563 1069.2188,446.9531 L1069.2188,449.6719 Q1068.5938,449.0938 1068,448.8281 Q1067.4063,448.5469 1066.7813,448.5469 Q1065.4375,448.5469 1064.75,449.625 Q1064.0625,450.6875 1064.0625,452.7813 Q1064.0625,454.875 1064.75,455.9531 Q1065.4375,457.0156 1066.7813,457.0156 Q1067.4063,457.0156 1068,456.75 Q1068.5938,456.4688 1069.2188,455.8906 L1069.2188,458.6094 Z " fill="#000000"/><text fill="#000000" font-family="FG Virgil" font-size="12" font-style="italic" lengthAdjust="spacing" textLength="60" x="1091.25" y="450.1387">«domain»</text><text fill="#000000" font-family="FG Virgil" font-size="12" lengthAdjust="spacing" textLength="69" x="1086.75" y="464.1074">ValidaForm</text><path d="M1019.5,471.9375 L1019.5,472.2177 L1029.5588,471.3851 L1039.6176,472.1952 L1049.6765,472.4704 L1059.7353,470.9863 L1069.7941,471.8339 L1079.8529,471.3688 L1089.9118,471.4262 L1099.9706,471.8466 L1110.0294,471.0157 L1120.0882,472.6757 L1130.1471,471.0971 L1140.2059,471.6738 L1150.2647,472.5134 L1160.3235,471.8231 L1170.3824,472.0285 L1180.4412,471.8949 L1190.5,471.9375 " fill="#F8F8F8" style="stroke:#383838;stroke-width:1.5;"/><path d="M1019.5,479.9375 L1019.5,480.2177 L1029.5588,479.3851 L1039.6176,480.1952 L1049.6765,480.4704 L1059.7353,478.9863 L1069.7941,479.8339 L1079.8529,479.3688 L1089.9118,479.4262 L1099.9706,479.8466 L1110.0294,479.0157 L1120.0882,480.6757 L1130.1471,479.0971 L1140.2059,479.6738 L1150.2647,480.5134 L1160.3235,479.8231 L1170.3824,480.0285 L1180.4412,479.8949 L1190.5,479.9375 " fill="#F8F8F8" style="stroke:#383838;stroke-width:1.5;"/><text fill="#000000" font-family="FG Virgil" font-size="11" lengthAdjust="spacing" textLength="161" x="1024.5" y="494.1479">validaFormulario(formulario)</text><!--MD5=[571dfd84f94b451ef35da58f48b34c72]
class FormularioRepository--><polygon fill="#F8F8F8" points="1227,424.5,1227,424.7102,1237.1667,424.0857,1247.3333,424.6933,1257.5,424.8997,1267.6667,423.7866,1277.8333,424.4223,1288,424.0735,1298.1667,424.1165,1308.3333,424.4318,1318.5,423.8086,1328.6667,425.0536,1338.8333,423.8697,1349,424.3022,1359.1667,424.9319,1369.3333,424.4142,1379.5,424.5682,1389.6667,424.4681,1399.8333,424.6785,1410,424.7391,1420.1667,425.0857,1430.3333,425.1711,1440.5,425.1793,1450.6667,424.7546,1460.8333,424.9636,1471,424.5,1471.7022,424.5,1470.2788,434.1016,1471.6785,443.7031,1470.7035,453.3047,1471.5338,462.9063,1470.505,472.5078,1470.9315,482.1094,1471.7416,491.7109,1470.9513,501.3125,1471,510.9141,1471,511.0194,1460.8333,511.2527,1450.6667,511.3303,1440.5,510.9102,1430.3333,511.2013,1420.1667,510.3416,1410,511.1984,1399.8333,511.4623,1389.6667,511.3586,1379.5,511.5271,1369.3333,510.431,1359.1667,510.2619,1349,510.2927,1338.8333,510.8552,1328.6667,510.7175,1318.5,511.5955,1308.3333,510.7394,1298.1667,510.571,1288,511.1423,1277.8333,510.2472,1267.6667,510.3949,1257.5,511.563,1247.3333,511.3497,1237.1667,511.6486,1227,510.9141,1226.6782,510.9141,1227.3192,501.3125,1227.5904,491.7109,1226.5276,482.1094,1226.9041,472.5078,1227.126,462.9063,1227.6518,453.3047,1226.9958,443.7031,1227.4626,434.1016,1227,424.5" style="stroke:#383838;stroke-width:1.5;"/><polygon fill="#C2C2C2" points="1289.8108,443.1756,1288.1984,445.3788,1286.2912,448.6057,1283.5636,450.7804,1280.6974,451.9696,1278.412,452.0728,1275.4747,450.5855,1272.7032,449.6139,1270.5995,447.6412,1269.4961,445.3828,1268.8417,443.5845,1268.2006,441.2357,1267.16,439.2145,1267.9596,437.241,1268.6602,435.0792,1271.2893,433.3695,1273.139,431.1511,1275.4284,430.4144,1278.1501,429.7801,1281.6404,430.157,1283.5521,431.0585,1285.7747,431.4672,1288.4772,434.236,1289.4193,437.159,1289.8286,439.1534,1289.365,442.4399" style="stroke:#383838;stroke-width:1.0;"/><path d="M1281.7188,446.1406 Q1281.1406,446.4375 1280.5,446.5781 Q1279.8594,446.7344 1279.1563,446.7344 Q1276.6563,446.7344 1275.3281,445.0938 Q1274.0156,443.4375 1274.0156,440.3125 Q1274.0156,437.1875 1275.3281,435.5313 Q1276.6563,433.875 1279.1563,433.875 Q1279.8594,433.875 1280.5,434.0313 Q1281.1563,434.1875 1281.7188,434.4844 L1281.7188,437.2031 Q1281.0938,436.625 1280.5,436.3594 Q1279.9063,436.0781 1279.2813,436.0781 Q1277.9375,436.0781 1277.25,437.1563 Q1276.5625,438.2188 1276.5625,440.3125 Q1276.5625,442.4063 1277.25,443.4844 Q1277.9375,444.5469 1279.2813,444.5469 Q1279.9063,444.5469 1280.5,444.2813 Q1281.0938,444 1281.7188,443.4219 L1281.7188,446.1406 Z " fill="#000000"/><text fill="#000000" font-family="FG Virgil" font-size="12" lengthAdjust="spacing" textLength="132" x="1299.25" y="444.6543">FormularioRepository</text><path d="M1228,456.5 L1228,456.7802 L1238.0833,455.9476 L1248.1667,456.7577 L1258.25,457.0329 L1268.3333,455.5488 L1278.4167,456.3964 L1288.5,455.9313 L1298.5833,455.9887 L1308.6667,456.4091 L1318.75,455.5782 L1328.8333,457.2382 L1338.9167,455.6596 L1349,456.2363 L1359.0833,457.0759 L1369.1667,456.3856 L1379.25,456.591 L1389.3333,456.4574 L1399.4167,456.738 L1409.5,456.8188 L1419.5833,457.2809 L1429.6667,457.3947 L1439.75,457.4057 L1449.8333,456.8395 L1459.9167,457.1181 L1470,456.5 " fill="#F8F8F8" style="stroke:#383838;stroke-width:1.5;"/><path d="M1228,464.5 L1228,464.7802 L1238.0833,463.9476 L1248.1667,464.7577 L1258.25,465.0329 L1268.3333,463.5488 L1278.4167,464.3964 L1288.5,463.9313 L1298.5833,463.9887 L1308.6667,464.4091 L1318.75,463.5782 L1328.8333,465.2382 L1338.9167,463.6596 L1349,464.2363 L1359.0833,465.0759 L1369.1667,464.3856 L1379.25,464.591 L1389.3333,464.4574 L1399.4167,464.738 L1409.5,464.8188 L1419.5833,465.2809 L1429.6667,465.3947 L1439.75,465.4057 L1449.8333,464.8395 L1459.9167,465.1181 L1470,464.5 " fill="#F8F8F8" style="stroke:#383838;stroke-width:1.5;"/><text fill="#000000" font-family="FG Virgil" font-size="11" lengthAdjust="spacing" textLength="212" x="1233" y="478.7104">getAtributosDoFormulario(formulario)</text><text fill="#000000" font-family="FG Virgil" font-size="11" lengthAdjust="spacing" textLength="232" x="1233" y="491.5151">getExpressaoRegularDoAtributo(atributo)</text><text fill="#000000" font-family="FG Virgil" font-size="11" lengthAdjust="spacing" textLength="174" x="1233" y="504.3198">getVariavelDoAtributo(atributo)</text><!--MD5=[0edf5bbb78229093495c46c562367b60]
link RealizarTarefaUI to RealizarTarefaController--><path d="M787,74.0032 L787.2802,74.0032 L786.4476,84.9099 L787.2577,95.8165 L787.5329,106.7232 L786.0488,117.6298 L787,128.5365 " fill="none" style="stroke:#383838;stroke-width:1.0;"/><polygon fill="#383838" points="787,133.5932,787.064,133.6217,787.6738,131.7371,788.6589,130.0194,789.5217,128.2473,789.9827,126.2966,791,124.5932,790.9817,124.5749,790.0995,125.2927,789.3096,126.1028,788.5839,126.9771,787.637,127.6302,787,128.5932,787.1305,128.7237,786.0514,127.6446,785.3534,126.9466,784.7018,126.295,783.7798,125.373,783,124.5932,783.0208,124.6024,783.7903,126.3889,784.6544,128.2174,785.4728,130.0256,786.3784,131.8725,787,133.5932" style="stroke:#383838;stroke-width:1.0;"/><!--MD5=[ef5b9e6ef3bdf1e4f298a9e8223a0869]
link RealizarTarefaController to PedidoRepository--><path d="M510.1033,342.0062 L510.2018,342.2685 L500.4968,345.0244 L491.3694,349.3182 L482.0539,353.1112 L472.1198,355.2573 L463.0056,359.5861 L453.4298,362.6861 L444.0377,366.2752 L434.7733,370.2041 L425.0688,372.9616 L416.2403,378.051 L406.273,380.1086 L397.0635,384.1839 L387.9464,388.5052 L378.2915,391.3944 L368.9514,395.122 L359.4922,398.5323 L350.0949,402.1076 " fill="none" style="stroke:#383838;stroke-width:1.0;"/><polygon fill="#383838" points="345.2848,403.9143,345.2889,403.9842,347.243,403.8924,349.2213,404.2106,351.1917,404.3952,353.1362,404.1408,355.1166,404.4942,355.1059,404.4706,354.0276,403.8971,353.0033,403.4426,352.0165,403.0707,350.9005,402.4139,349.9655,402.1562,350.1335,402.2324,350.2418,401.0391,350.8407,400.0685,351.4994,399.125,351.8099,398.0235,352.3036,397.0051,352.3195,397.0213,350.8923,398.3793,349.5378,399.8112,348.1482,401.2074,346.8255,402.6716,345.2848,403.9143" style="stroke:#383838;stroke-width:1.0;"/><!--MD5=[b192d894ba3c7b5b83f8aa15d81fe4b5]
link RealizarTarefaController to FormularioRepository--><path d="M1062.7508,342.1006 L1062.7854,342.1874 L1070.0617,344.8689 L1077.5406,348.0591 L1084.9536,351.0836 L1092.1496,353.5633 L1099.6459,356.7972 L1099.6329,356.7652 L1106.9685,359.6165 L1114.3695,362.6292 L1121.8159,365.754 L1129.1056,368.4923 L1136.6148,371.7721 L1136.7087,371.9995 L1143.8277,374.5359 L1151.2209,377.7364 L1158.6476,381.0179 L1165.8796,383.828 L1173.214,386.886 L1173.2258,386.9139 L1180.3657,389.8957 L1187.5593,393.0047 L1194.7269,396.0523 L1201.9441,399.217 L1209,402 L1209.1195,402.2733 L1213.6658,404.2634 L1218.1351,406.0773 L1222.7172,408.1492 L1227.3045,410.2333 L1231.7244,411.9341 L1231.5922,411.6421 L1236.4439,414.2887 L1240.8603,415.9737 L1245.6076,418.3897 L1250.0142,420.0529 L1254.7001,422.3332 " fill="none" style="stroke:#383838;stroke-width:1.0;"/><polygon fill="#383838" points="1259.4037,424.498,1259.4563,424.5443,1257.9993,422.9276,1256.8507,421.5821,1255.6016,420.1483,1254.0223,418.424,1252.9001,417.1018,1252.8758,417.0928,1253.1591,418.1137,1253.5648,419.1799,1254.0557,420.2775,1254.2531,421.2666,1254.8616,422.4077,1254.9256,422.5808,1253.7276,422.603,1252.7164,423.1305,1251.728,423.7197,1250.607,423.9501,1249.5557,424.3692,1249.556,424.3919,1251.5251,424.3843,1253.4957,424.4802,1255.4655,424.5262,1257.4367,424.6675,1259.4037,424.498" style="stroke:#383838;stroke-width:1.0;"/><!--MD5=[88dc3e81b4dd39edfdd25ee3e3ef0126]
link RealizarTarefaController to ColaboradorRepository--><path d="M642.4337,342.0062 L642.5974,342.2337 L633.9061,347.4607 L626.1743,354.0213 L618.13,360.1476 L609.0583,364.8459 L601.3484,371.4368 L592.8718,376.9623 L584.7003,382.9118 L576.7409,389.156 L568.0507,394.3844 L560.8151,401.6349 L551.6883,406.2564 L543.8201,412.6275 L536.1055,419.212 L527.4974,424.5546 L519.3592,430.5504 " fill="none" style="stroke:#383838;stroke-width:1.0;"/><polygon fill="#383838" points="514.9196,433.7444,514.9339,433.813,516.8198,433.2074,518.7895,433.0039,520.7318,432.6694,522.5845,431.9044,524.5614,431.7354,524.5572,431.7098,523.4219,431.4128,522.3076,431.2448,521.2079,431.1663,520.0578,430.7791,518.9783,430.8244,519.1605,430.8541,518.9532,429.6739,519.2777,428.5806,519.667,427.4977,519.6789,426.3534,519.8893,425.2414,519.909,425.2528,518.8862,426.9366,517.9528,428.6726,516.9763,430.3834,516.0821,432.1423,514.9196,433.7444" style="stroke:#383838;stroke-width:1.0;"/><!--MD5=[f28ed69bed4acd0a788dbd0b9c4f3dea]
link RealizarTarefaController to Pedido--><path d="M787,342.0062 L787.2802,342.0062 L786.4476,352.0213 L787.2577,362.0365 L787.5329,372.0516 L786.0488,382.0668 L786.8964,392.0819 L786.4313,402.097 L786.4887,412.1122 L787,422.1273 " fill="none" style="stroke:#383838;stroke-width:1.0;"/><polygon fill="#383838" points="787,427.2451,787.064,427.2736,787.6738,425.389,788.6589,423.6713,789.5217,421.8992,789.9827,419.9485,791,418.2451,790.9817,418.2268,790.0995,418.9446,789.3096,419.7547,788.5839,420.629,787.637,421.2821,787,422.2451,787.1305,422.3756,786.0514,421.2965,785.3534,420.5985,784.7018,419.9469,783.7798,419.0249,783,418.2451,783.0208,418.2543,783.7903,420.0408,784.6544,421.8693,785.4728,423.6775,786.3784,425.5244,787,427.2451" style="stroke:#383838;stroke-width:1.0;"/><!--MD5=[1aedfa8ea35f695a3f51a4d09c8dd695]
link RealizarTarefaController to ValidaForm--><path d="M931.1132,342.0062 L931.2772,342.2334 L938.9692,347.4612 L947.6225,354.0211 L955.9628,360.1472 L963.2735,364.8467 L971.9488,371.4369 L979.8559,376.9628 L988.0686,382.9122 L996.4939,389.1561 L1004.1869,394.3852 L1013.3376,401.6342 L1020.593,406.2572 L1029.1098,412.6277 L1037.7804,419.2115 L1045.5556,424.5547 L1053.8018,430.5504 " fill="none" style="stroke:#383838;stroke-width:1.0;"/><polygon fill="#383838" points="1058.2275,433.7444,1058.288,433.7797,1057.1168,431.9728,1056.3004,430.3726,1055.3684,428.7052,1054.0564,426.8164,1053.2705,425.234,1053.2449,425.2298,1053.3106,426.3281,1053.5053,427.4473,1053.7896,428.581,1053.7651,429.6647,1054.1731,430.8183,1054.2026,431.0005,1053.0227,430.7915,1051.9288,431.1143,1050.8455,431.5021,1049.701,431.5122,1048.5887,431.721,1048.5934,431.7432,1050.5143,432.1152,1052.4565,432.5886,1054.3884,433.013,1056.3399,433.5308,1058.2275,433.7444" style="stroke:#383838;stroke-width:1.0;"/><!--MD5=[a40714a8506b745cf658ab6ede5e80a0]
@startuml
'http://plantuml.com/skinparam.html
skinparam handwritten true
skinparam monochrome true
skinparam packageStyle rect
skinparam defaultFontName FG Virgil
skinparam shadowing false

class RealizarTarefaUI <<presentation>>
class RealizarTarefaController <<application>>
class PedidoRepository <<repository>>
class ColaboradorRepository <<repository>>
class Pedido <<domain>>
class ValidaForm <<domain>>

RealizarTarefaUI - -> RealizarTarefaController
RealizarTarefaUI : doShow()

RealizarTarefaController : getUser()
RealizarTarefaController : getListaTarefasPendentes(colab)
RealizarTarefaController : getPedidoByTarefa(atividade)
RealizarTarefaController : getFormularioDaAtividade(atividade)
RealizarTarefaController : replaceFormularioAtividade(pedido, atividade, formulario)
RealizarTarefaController : getListaExpressaoRegularDoFormulario(formulario)
RealizarTarefaController : getAtributosDoFormulario(formulario)
RealizarTarefaController : getExpressaoRegularDoAtributo(atributo)
RealizarTarefaController : getVariavelDoAtributo(atributo)
RealizarTarefaController : validaFormulario(formulario)
RealizarTarefaController : completaDecisaoComentario(comentario, decisao, pedido, atividade,estadoPedido, estadoAtividade, duracao, dataResolucao)
RealizarTarefaController : savePedido(pedido)

Pedido : completaFormulario(formulario,variavel,atibuto)
Pedido : completaDecisaoComentario(comentario,decisao,pedido,atividade)

ValidaForm : validaFormulario(formulario)

RealizarTarefaController - -> PedidoRepository
RealizarTarefaController - -> FormularioRepository
RealizarTarefaController - -> ColaboradorRepository
RealizarTarefaController - -> Pedido
RealizarTarefaController - -> ValidaForm

ColaboradorRepository : getUser()

PedidoRepository : getListaTarefasPendentes(colab)
PedidoRepository : getPedidoByTarefa(atividade)
PedidoRepository : getFormularioDaAtividade(atividade)
PedidoRepository : replaceFormularioAtividade(pedido, atividade, formulario)
PedidoRepository : getListaExpressaoRegularDoFormulario(formulario)
PedidoRepository : savePedido(pedido)

FormularioRepository : getAtributosDoFormulario(formulario)
FormularioRepository : getExpressaoRegularDoAtributo(atributo)
FormularioRepository : getVariavelDoAtributo(atributo)
@enduml

@startuml
skinparam handwritten true
skinparam monochrome true
skinparam packageStyle rect
skinparam defaultFontName FG Virgil
skinparam shadowing false

class RealizarTarefaUI <<presentation>>
class RealizarTarefaController <<application>>
class PedidoRepository <<repository>>
class ColaboradorRepository <<repository>>
class Pedido <<domain>>
class ValidaForm <<domain>>

RealizarTarefaUI - -> RealizarTarefaController
RealizarTarefaUI : doShow()

RealizarTarefaController : getUser()
RealizarTarefaController : getListaTarefasPendentes(colab)
RealizarTarefaController : getPedidoByTarefa(atividade)
RealizarTarefaController : getFormularioDaAtividade(atividade)
RealizarTarefaController : replaceFormularioAtividade(pedido, atividade, formulario)
RealizarTarefaController : getListaExpressaoRegularDoFormulario(formulario)
RealizarTarefaController : getAtributosDoFormulario(formulario)
RealizarTarefaController : getExpressaoRegularDoAtributo(atributo)
RealizarTarefaController : getVariavelDoAtributo(atributo)
RealizarTarefaController : validaFormulario(formulario)
RealizarTarefaController : completaDecisaoComentario(comentario, decisao, pedido, atividade,estadoPedido, estadoAtividade, duracao, dataResolucao)
RealizarTarefaController : savePedido(pedido)

Pedido : completaFormulario(formulario,variavel,atibuto)
Pedido : completaDecisaoComentario(comentario,decisao,pedido,atividade)

ValidaForm : validaFormulario(formulario)

RealizarTarefaController - -> PedidoRepository
RealizarTarefaController - -> FormularioRepository
RealizarTarefaController - -> ColaboradorRepository
RealizarTarefaController - -> Pedido
RealizarTarefaController - -> ValidaForm

ColaboradorRepository : getUser()

PedidoRepository : getListaTarefasPendentes(colab)
PedidoRepository : getPedidoByTarefa(atividade)
PedidoRepository : getFormularioDaAtividade(atividade)
PedidoRepository : replaceFormularioAtividade(pedido, atividade, formulario)
PedidoRepository : getListaExpressaoRegularDoFormulario(formulario)
PedidoRepository : savePedido(pedido)

FormularioRepository : getAtributosDoFormulario(formulario)
FormularioRepository : getExpressaoRegularDoAtributo(atributo)
FormularioRepository : getVariavelDoAtributo(atributo)
@enduml

PlantUML version 1.2021.7(Sun May 23 12:40:07 UTC 2021)
(GPL source distribution)
Java Runtime: OpenJDK Runtime Environment
JVM: OpenJDK 64-Bit Server VM
Default Encoding: UTF-8
Language: en
Country: US
--></g></svg>