<?xml version="1.0" encoding="UTF-8" standalone="no"?><svg xmlns="http://www.w3.org/2000/svg" xmlns:xlink="http://www.w3.org/1999/xlink" contentScriptType="application/ecmascript" contentStyleType="text/css" height="513px" preserveAspectRatio="none" style="width:1084px;height:513px;" version="1.1" viewBox="0 0 1084 513" width="1084px" zoomAndPan="magnify"><defs/><g><!--MD5=[59d05d131f5bcb56f1ff3fb05067e231]
class RealizarTarefaUI--><polygon fill="#F8F8F8" points="447,7,447,7.2102,457.1538,6.5857,467.3077,7.1933,477.4615,7.3997,487.6154,6.2866,497.7692,6.9223,507.9231,6.5735,518.0769,6.6165,528.2308,6.9318,538.3846,6.3086,548.5385,7.5536,558.6923,6.3697,568.8462,6.8022,579,7,579.4319,7,578.9142,16.5346,579.0682,26.0692,578.9681,35.6038,579.1785,45.1384,579.2391,54.673,579.5857,64.2076,579,73.7422,579,74.4132,568.8462,74.4214,558.6923,73.9968,548.5385,74.2058,538.3846,74.4444,528.2308,73.021,518.0769,74.4207,507.9231,73.4457,497.7692,74.276,487.6154,73.2472,477.4615,73.6737,467.3077,74.4838,457.1538,73.6935,447,73.7422,447.1053,73.7422,447.3386,64.2076,447.4162,54.673,446.9961,45.1384,447.2872,35.6038,446.4276,26.0692,447.2844,16.5346,447,7" style="stroke:#383838;stroke-width:1.5;"/><polygon fill="#C2C2C2" points="473.0608,28.6444,471.4484,30.8475,469.5412,34.0745,466.8136,36.2491,463.9474,37.4384,461.662,37.5416,458.7247,36.0543,455.9532,35.0827,453.8495,33.1099,452.7461,30.8515,452.0917,29.0533,451.4506,26.7045,450.41,24.6832,451.2096,22.7098,451.9102,20.548,454.5393,18.8382,456.389,16.6198,458.6784,15.8832,461.4001,15.2488,464.8904,15.6257,466.8021,16.5273,469.0247,16.9359,471.7272,19.7047,472.6693,22.6277,473.0786,24.6221,472.615,27.9086" style="stroke:#383838;stroke-width:1.0;"/><path d="M464.9688,31.6094 Q464.3906,31.9063 463.75,32.0469 Q463.1094,32.2031 462.4063,32.2031 Q459.9063,32.2031 458.5781,30.5625 Q457.2656,28.9063 457.2656,25.7813 Q457.2656,22.6563 458.5781,21 Q459.9063,19.3438 462.4063,19.3438 Q463.1094,19.3438 463.75,19.5 Q464.4063,19.6563 464.9688,19.9531 L464.9688,22.6719 Q464.3438,22.0938 463.75,21.8281 Q463.1563,21.5469 462.5313,21.5469 Q461.1875,21.5469 460.5,22.625 Q459.8125,23.6875 459.8125,25.7813 Q459.8125,27.875 460.5,28.9531 Q461.1875,30.0156 462.5313,30.0156 Q463.1563,30.0156 463.75,29.75 Q464.3438,29.4688 464.9688,28.8906 L464.9688,31.6094 Z " fill="#000000"/><text fill="#000000" font-family="FG Virgil" font-size="12" font-style="italic" lengthAdjust="spacingAndGlyphs" textLength="95" x="478.5" y="23.1387">«presentation»</text><text fill="#000000" font-family="FG Virgil" font-size="12" lengthAdjust="spacingAndGlyphs" textLength="100" x="476" y="37.1074">RealizarTarefaUI</text><path d="M448,44.9375 L448,45.2177 L458,44.3851 L468,45.1952 L478,45.4704 L488,43.9863 L498,44.8339 L508,44.3688 L518,44.4262 L528,44.8466 L538,44.0157 L548,45.6757 L558,44.0971 L568,44.6738 L578,44.9375 " fill="#F8F8F8" style="stroke:#383838;stroke-width:1.5;"/><path d="M448,52.9375 L448,53.2177 L458,52.3851 L468,53.1952 L478,53.4704 L488,51.9863 L498,52.8339 L508,52.3688 L518,52.4262 L528,52.8466 L538,52.0157 L548,53.6757 L558,52.0971 L568,52.6738 L578,52.9375 " fill="#F8F8F8" style="stroke:#383838;stroke-width:1.5;"/><text fill="#000000" font-family="FG Virgil" font-size="11" lengthAdjust="spacingAndGlyphs" textLength="53" x="453" y="67.1479">doShow()</text><!--MD5=[bcf68e18a2e1164946af35ca7240e29e]
class RealizarTarefaController--><polygon fill="#F8F8F8" points="317,134,317,134.2102,327.0513,133.5857,337.1026,134.1933,347.1538,134.3997,357.2051,133.2866,367.2564,133.9223,377.3077,133.5735,387.359,133.6165,397.4103,133.9318,407.4615,133.3086,417.5128,134.5536,427.5641,133.3697,437.6154,133.8022,447.6667,134.4319,457.7179,133.9142,467.7692,134.0682,477.8205,133.9681,487.8718,134.1785,497.9231,134.2391,507.9744,134.5857,518.0256,134.6711,528.0769,134.6793,538.1282,134.2546,548.1795,134.4636,558.2308,134.7022,568.2821,133.2788,578.3333,134.6785,588.3846,133.7035,598.4359,134.5338,608.4872,133.505,618.5385,133.9315,628.5897,134.7416,638.641,133.9513,648.6923,134.1053,658.7436,134.3386,668.7949,134.4162,678.8462,133.9961,688.8974,134.2872,698.9487,133.4276,709,134,709.2844,134,709.5482,144.1102,709.4445,154.2205,709.613,164.3307,708.5169,174.441,708.3478,184.5512,708.3786,194.6615,708.9411,204.7717,708.8035,214.8819,709.6814,224.9922,708.8253,235.1024,708.6569,245.2127,709.2283,255.3229,708.3332,265.4332,708.4809,275.5434,709.649,285.6536,709.4357,295.7639,709.7345,305.8741,709,315.9844,709,315.6626,698.9487,316.3036,688.8974,316.5748,678.8462,315.512,668.7949,315.8885,658.7436,316.1104,648.6923,316.6361,638.641,315.9802,628.5897,316.4469,618.5385,315.4306,608.4872,315.3071,598.4359,316.488,588.3846,315.2674,578.3333,316.4933,568.2821,316.191,558.2308,315.7165,548.1795,315.6306,538.1282,316.4431,528.0769,315.685,518.0256,316.5762,507.9744,315.4316,497.9231,316.6018,487.8718,316.4687,477.8205,316.2293,467.7692,316.0316,457.7179,316.711,447.6667,316.598,437.6154,316.1536,427.5641,316.2526,417.5128,315.8541,407.4615,316.7008,397.4103,316.1392,387.359,316.1569,377.3077,315.376,367.2564,315.5792,357.2051,316.5151,347.1538,316.4141,337.1026,315.9414,327.0513,315.6622,317,315.9844,316.7811,315.9844,316.3138,305.8741,317.4147,295.7639,317.7396,285.6536,317.5264,275.5434,317.6949,265.4332,316.8633,255.3229,317.0872,245.2127,316.6124,235.1024,317.284,224.9922,317.2468,214.8819,317.5524,204.7717,316.7703,194.6615,316.8656,184.5512,317.4435,174.441,317.5673,164.3307,316.4875,154.2205,316.8061,144.1102,317,134" style="stroke:#383838;stroke-width:1.5;"/><polygon fill="#C2C2C2" points="445.3108,155.6444,443.6984,157.8475,441.7912,161.0745,439.0636,163.2491,436.1974,164.4384,433.912,164.5416,430.9747,163.0543,428.2032,162.0827,426.0995,160.1099,424.9961,157.8515,424.3417,156.0533,423.7006,153.7045,422.66,151.6832,423.4596,149.7098,424.1602,147.548,426.7893,145.8382,428.639,143.6198,430.9284,142.8832,433.6501,142.2488,437.1404,142.6257,439.0521,143.5273,441.2747,143.9359,443.9772,146.7047,444.9193,149.6277,445.3286,151.6221,444.865,154.9086" style="stroke:#383838;stroke-width:1.0;"/><path d="M437.2188,158.6094 Q436.6406,158.9063 436,159.0469 Q435.3594,159.2031 434.6563,159.2031 Q432.1563,159.2031 430.8281,157.5625 Q429.5156,155.9063 429.5156,152.7813 Q429.5156,149.6563 430.8281,148 Q432.1563,146.3438 434.6563,146.3438 Q435.3594,146.3438 436,146.5 Q436.6563,146.6563 437.2188,146.9531 L437.2188,149.6719 Q436.5938,149.0938 436,148.8281 Q435.4063,148.5469 434.7813,148.5469 Q433.4375,148.5469 432.75,149.625 Q432.0625,150.6875 432.0625,152.7813 Q432.0625,154.875 432.75,155.9531 Q433.4375,157.0156 434.7813,157.0156 Q435.4063,157.0156 436,156.75 Q436.5938,156.4688 437.2188,155.8906 L437.2188,158.6094 Z " fill="#000000"/><text fill="#000000" font-family="FG Virgil" font-size="12" font-style="italic" lengthAdjust="spacingAndGlyphs" textLength="83" x="487.75" y="150.1387">«application»</text><text fill="#000000" font-family="FG Virgil" font-size="12" lengthAdjust="spacingAndGlyphs" textLength="149" x="454.75" y="164.1074">RealizarTarefaController</text><path d="M318,171.9375 L318,172.2177 L328,171.3851 L338,172.1952 L348,172.4704 L358,170.9863 L368,171.8339 L378,171.3688 L388,171.4262 L398,171.8466 L408,171.0157 L418,172.6757 L428,171.0971 L438,171.6738 L448,172.5134 L458,171.8231 L468,172.0285 L478,171.8949 L488,172.1755 L498,172.2563 L508,172.7184 L518,172.8322 L528,172.8432 L538,172.277 L548,172.5556 L558,172.8738 L568,170.9759 L578,172.8422 L588,171.5422 L598,172.6492 L608,171.2775 L618,171.8462 L628,172.9263 L638,171.8725 L648,172.0779 L658,172.389 L668,172.4925 L678,171.9323 L688,172.3205 L698,171.1743 L708,171.9375 " fill="#F8F8F8" style="stroke:#383838;stroke-width:1.5;"/><path d="M318,179.9375 L318,180.2177 L328,179.3851 L338,180.1952 L348,180.4704 L358,178.9863 L368,179.8339 L378,179.3688 L388,179.4262 L398,179.8466 L408,179.0157 L418,180.6757 L428,179.0971 L438,179.6738 L448,180.5134 L458,179.8231 L468,180.0285 L478,179.8949 L488,180.1755 L498,180.2563 L508,180.7184 L518,180.8322 L528,180.8432 L538,180.277 L548,180.5556 L558,180.8738 L568,178.9759 L578,180.8422 L588,179.5422 L598,180.6492 L608,179.2775 L618,179.8462 L628,180.9263 L638,179.8725 L648,180.0779 L658,180.389 L668,180.4925 L678,179.9323 L688,180.3205 L698,179.1743 L708,179.9375 " fill="#F8F8F8" style="stroke:#383838;stroke-width:1.5;"/><text fill="#000000" font-family="FG Virgil" font-size="11" lengthAdjust="spacingAndGlyphs" textLength="53" x="323" y="194.1479">getUser()</text><text fill="#000000" font-family="FG Virgil" font-size="11" lengthAdjust="spacingAndGlyphs" textLength="160" x="323" y="206.9526">getTarefasPendentes(colab)</text><text fill="#000000" font-family="FG Virgil" font-size="11" lengthAdjust="spacingAndGlyphs" textLength="180" x="323" y="219.7573">getPedidoByAtividade(atividade)</text><text fill="#000000" font-family="FG Virgil" font-size="11" lengthAdjust="spacingAndGlyphs" textLength="204" x="323" y="232.562">getFormularioDaAtividade(atividade)</text><text fill="#000000" font-family="FG Virgil" font-size="11" lengthAdjust="spacingAndGlyphs" textLength="212" x="323" y="245.3667">getAtributosDoFormulario(formulario)</text><text fill="#000000" font-family="FG Virgil" font-size="11" lengthAdjust="spacingAndGlyphs" textLength="166" x="323" y="258.1714">getLabelDoAtributo(atividade)</text><text fill="#000000" font-family="FG Virgil" font-size="11" lengthAdjust="spacingAndGlyphs" textLength="271" x="323" y="270.9761">completaFormulario(formulario,variavel,atibuto)</text><text fill="#000000" font-family="FG Virgil" font-size="11" lengthAdjust="spacingAndGlyphs" textLength="161" x="323" y="283.7808">validaFormulario(formulario)</text><text fill="#000000" font-family="FG Virgil" font-size="11" lengthAdjust="spacingAndGlyphs" textLength="380" x="323" y="296.5854">completaDecisaoComentario(comentario,decisao,pedido,atividade)</text><text fill="#000000" font-family="FG Virgil" font-size="11" lengthAdjust="spacingAndGlyphs" textLength="111" x="323" y="309.3901">savePedido(pedido)</text><!--MD5=[9d9dca655b7d777fd61537967bcfba5b]
class PedidoRepository--><polygon fill="#F8F8F8" points="7,376,7,376.2102,17.1818,375.5857,27.3636,376.1933,37.5455,376.3997,47.7273,375.2866,57.9091,375.9223,68.0909,375.5735,78.2727,375.6165,88.4545,375.9318,98.6364,375.3086,108.8182,376.5536,119,375.3697,129.1818,375.8022,139.3636,376.4319,149.5455,375.9142,159.7273,376.0682,169.9091,375.9681,180.0909,376.1785,190.2727,376.2391,200.4545,376.5857,210.6364,376.6711,220.8182,376.6793,231,376,231.2546,376,231.4636,386.0589,231.7022,396.1178,230.2788,406.1767,231.6785,416.2356,230.7035,426.2945,231.5338,436.3534,230.505,446.4123,230.9315,456.4712,231.7416,466.53,230.9513,476.5889,231.1053,486.6478,231.3386,496.7067,231,506.7656,231,507.1819,220.8182,506.7617,210.6364,507.0528,200.4545,506.1932,190.2727,507.05,180.0909,507.3138,169.9091,507.2102,159.7273,507.3786,149.5455,506.2825,139.3636,506.1134,129.1818,506.1442,119,506.7067,108.8182,506.5691,98.6364,507.447,88.4545,506.5909,78.2727,506.4226,68.0909,506.9939,57.9091,506.0988,47.7273,506.2465,37.5455,507.4146,27.3636,507.2013,17.1818,507.5001,7,506.7656,6.6782,506.7656,7.3192,496.7067,7.5904,486.6478,6.5276,476.5889,6.9041,466.53,7.126,456.4712,7.6518,446.4123,6.9958,436.3534,7.4626,426.2945,6.4462,416.2356,6.3227,406.1767,7.5036,396.1178,6.2831,386.0589,7,376" style="stroke:#383838;stroke-width:1.5;"/><polygon fill="#C2C2C2" points="71.3108,397.6444,69.6984,399.8475,67.7912,403.0745,65.0636,405.2491,62.1974,406.4384,59.912,406.5416,56.9747,405.0543,54.2032,404.0827,52.0995,402.1099,50.9961,399.8515,50.3417,398.0533,49.7006,395.7045,48.66,393.6832,49.4596,391.7098,50.1602,389.548,52.7893,387.8382,54.639,385.6198,56.9284,384.8832,59.6501,384.2488,63.1404,384.6257,65.0521,385.5273,67.2747,385.9359,69.9772,388.7047,70.9193,391.6277,71.3286,393.6221,70.865,396.9086" style="stroke:#383838;stroke-width:1.0;"/><path d="M63.2188,400.6094 Q62.6406,400.9063 62,401.0469 Q61.3594,401.2031 60.6563,401.2031 Q58.1563,401.2031 56.8281,399.5625 Q55.5156,397.9063 55.5156,394.7813 Q55.5156,391.6563 56.8281,390 Q58.1563,388.3438 60.6563,388.3438 Q61.3594,388.3438 62,388.5 Q62.6563,388.6563 63.2188,388.9531 L63.2188,391.6719 Q62.5938,391.0938 62,390.8281 Q61.4063,390.5469 60.7813,390.5469 Q59.4375,390.5469 58.75,391.625 Q58.0625,392.6875 58.0625,394.7813 Q58.0625,396.875 58.75,397.9531 Q59.4375,399.0156 60.7813,399.0156 Q61.4063,399.0156 62,398.75 Q62.5938,398.4688 63.2188,397.8906 L63.2188,400.6094 Z " fill="#000000"/><text fill="#000000" font-family="FG Virgil" font-size="12" font-style="italic" lengthAdjust="spacingAndGlyphs" textLength="77" x="96.75" y="392.1387">«repository»</text><text fill="#000000" font-family="FG Virgil" font-size="12" lengthAdjust="spacingAndGlyphs" textLength="109" x="80.75" y="406.1074">PedidoRepository</text><path d="M8,413.9375 L8,414.2177 L18.0909,413.3851 L28.1818,414.1952 L38.2727,414.4704 L48.3636,412.9863 L58.4545,413.8339 L68.5455,413.3688 L78.6364,413.4262 L88.7273,413.8466 L98.8182,413.0157 L108.9091,414.6757 L119,413.0971 L129.0909,413.6738 L139.1818,414.5134 L149.2727,413.8231 L159.3636,414.0285 L169.4545,413.8949 L179.5455,414.1755 L189.6364,414.2563 L199.7273,414.7184 L209.8182,414.8322 L219.9091,414.8432 L230,413.9375 " fill="#F8F8F8" style="stroke:#383838;stroke-width:1.5;"/><path d="M8,421.9375 L8,422.2177 L18.0909,421.3851 L28.1818,422.1952 L38.2727,422.4704 L48.3636,420.9863 L58.4545,421.8339 L68.5455,421.3688 L78.6364,421.4262 L88.7273,421.8466 L98.8182,421.0157 L108.9091,422.6757 L119,421.0971 L129.0909,421.6738 L139.1818,422.5134 L149.2727,421.8231 L159.3636,422.0285 L169.4545,421.8949 L179.5455,422.1755 L189.6364,422.2563 L199.7273,422.7184 L209.8182,422.8322 L219.9091,422.8432 L230,421.9375 " fill="#F8F8F8" style="stroke:#383838;stroke-width:1.5;"/><text fill="#000000" font-family="FG Virgil" font-size="11" lengthAdjust="spacingAndGlyphs" textLength="160" x="13" y="436.1479">getTarefasPendentes(colab)</text><text fill="#000000" font-family="FG Virgil" font-size="11" lengthAdjust="spacingAndGlyphs" textLength="180" x="13" y="448.9526">getPedidoByAtividade(atividade)</text><text fill="#000000" font-family="FG Virgil" font-size="11" lengthAdjust="spacingAndGlyphs" textLength="204" x="13" y="461.7573">getFormularioDaAtividade(atividade)</text><text fill="#000000" font-family="FG Virgil" font-size="11" lengthAdjust="spacingAndGlyphs" textLength="212" x="13" y="474.562">getAtributosDoFormulario(formulario)</text><text fill="#000000" font-family="FG Virgil" font-size="11" lengthAdjust="spacingAndGlyphs" textLength="166" x="13" y="487.3667">getLabelDoAtributo(atividade)</text><text fill="#000000" font-family="FG Virgil" font-size="11" lengthAdjust="spacingAndGlyphs" textLength="111" x="13" y="500.1714">savePedido(pedido)</text><!--MD5=[9a0e8f7957502662f95e783c1c3d84fe]
class ColaboradorRepository--><polygon fill="#F8F8F8" points="266.5,408,266.5,408.2102,276.2222,407.5857,285.9444,408.1933,295.6667,408.3997,305.3889,407.2866,315.1111,407.9223,324.8333,407.5735,334.5556,407.6165,344.2778,407.9318,354,407.3086,363.7222,408.5536,373.4444,407.3697,383.1667,407.8022,392.8889,408.4319,402.6111,407.9142,412.3333,408.0682,422.0556,407.9681,431.7778,408.1785,441.5,408,441.7391,408,442.0857,417.5346,442.1711,427.0692,442.1793,436.6038,441.7546,446.1384,441.9636,455.673,442.2022,465.2076,441.5,474.7422,441.5,474.021,431.7778,475.4207,422.0556,474.4457,412.3333,475.276,402.6111,474.2472,392.8889,474.6737,383.1667,475.4838,373.4444,474.6935,363.7222,474.8475,354,475.0808,344.2778,475.1584,334.5556,474.7383,324.8333,475.0294,315.1111,474.1698,305.3889,475.0266,295.6667,475.2904,285.9444,475.1867,276.2222,475.3552,266.5,474.7422,266.0169,474.7422,265.8478,465.2076,265.8786,455.673,266.4411,446.1384,266.3035,436.6038,267.1814,427.0692,266.3253,417.5346,266.5,408" style="stroke:#383838;stroke-width:1.5;"/><polygon fill="#C2C2C2" points="292.5608,429.6444,290.9484,431.8475,289.0412,435.0745,286.3136,437.2491,283.4474,438.4384,281.162,438.5416,278.2247,437.0543,275.4532,436.0827,273.3495,434.1099,272.2461,431.8515,271.5917,430.0533,270.9506,427.7045,269.91,425.6832,270.7096,423.7098,271.4102,421.548,274.0393,419.8382,275.889,417.6198,278.1784,416.8832,280.9001,416.2488,284.3904,416.6257,286.3021,417.5273,288.5247,417.9359,291.2272,420.7047,292.1693,423.6277,292.5786,425.6221,292.115,428.9086" style="stroke:#383838;stroke-width:1.0;"/><path d="M284.4688,432.6094 Q283.8906,432.9063 283.25,433.0469 Q282.6094,433.2031 281.9063,433.2031 Q279.4063,433.2031 278.0781,431.5625 Q276.7656,429.9063 276.7656,426.7813 Q276.7656,423.6563 278.0781,422 Q279.4063,420.3438 281.9063,420.3438 Q282.6094,420.3438 283.25,420.5 Q283.9063,420.6563 284.4688,420.9531 L284.4688,423.6719 Q283.8438,423.0938 283.25,422.8281 Q282.6563,422.5469 282.0313,422.5469 Q280.6875,422.5469 280,423.625 Q279.3125,424.6875 279.3125,426.7813 Q279.3125,428.875 280,429.9531 Q280.6875,431.0156 282.0313,431.0156 Q282.6563,431.0156 283.25,430.75 Q283.8438,430.4688 284.4688,429.8906 L284.4688,432.6094 Z " fill="#000000"/><text fill="#000000" font-family="FG Virgil" font-size="12" font-style="italic" lengthAdjust="spacingAndGlyphs" textLength="77" x="328.5" y="424.1387">«repository»</text><text fill="#000000" font-family="FG Virgil" font-size="12" lengthAdjust="spacingAndGlyphs" textLength="143" x="295.5" y="438.1074">ColaboradorRepository</text><path d="M267.5,445.9375 L267.5,446.2177 L277.6765,445.3851 L287.8529,446.1952 L298.0294,446.4704 L308.2059,444.9863 L318.3824,445.8339 L328.5588,445.3688 L338.7353,445.4262 L348.9118,445.8466 L359.0882,445.0157 L369.2647,446.6757 L379.4412,445.0971 L389.6176,445.6738 L399.7941,446.5134 L409.9706,445.8231 L420.1471,446.0285 L430.3235,445.8949 L440.5,445.9375 " fill="#F8F8F8" style="stroke:#383838;stroke-width:1.5;"/><path d="M267.5,453.9375 L267.5,454.2177 L277.6765,453.3851 L287.8529,454.1952 L298.0294,454.4704 L308.2059,452.9863 L318.3824,453.8339 L328.5588,453.3688 L338.7353,453.4262 L348.9118,453.8466 L359.0882,453.0157 L369.2647,454.6757 L379.4412,453.0971 L389.6176,453.6738 L399.7941,454.5134 L409.9706,453.8231 L420.1471,454.0285 L430.3235,453.8949 L440.5,453.9375 " fill="#F8F8F8" style="stroke:#383838;stroke-width:1.5;"/><text fill="#000000" font-family="FG Virgil" font-size="11" lengthAdjust="spacingAndGlyphs" textLength="53" x="272.5" y="468.1479">getUser()</text><!--MD5=[a26d7a8585b446db7fc8ab4626d8ca8a]
class Pedido--><polygon fill="#F8F8F8" points="477,401.5,477,401.7102,487.0513,401.0857,497.1026,401.6933,507.1538,401.8997,517.2051,400.7866,527.2564,401.4223,537.3077,401.0735,547.359,401.1165,557.4103,401.4318,567.4615,400.8086,577.5128,402.0536,587.5641,400.8697,597.6154,401.3022,607.6667,401.9319,617.7179,401.4142,627.7692,401.5682,637.8205,401.4681,647.8718,401.6785,657.9231,401.7391,667.9744,402.0857,678.0256,402.1711,688.0769,402.1793,698.1282,401.7546,708.1795,401.9636,718.2308,402.2022,728.2821,400.7788,738.3333,402.1785,748.3846,401.2035,758.4359,402.0338,768.4872,401.005,778.5385,401.4315,788.5897,402.2416,798.641,401.4513,808.6923,401.6053,818.7436,401.8386,828.7949,401.9162,838.8462,401.4961,848.8974,401.7872,858.9487,400.9276,869,401.5,869.2844,401.5,869.5482,411.4434,869.4445,421.3867,869.613,431.3301,868.5169,441.2734,868.3478,451.2168,868.3786,461.1602,868.9411,471.1035,869,481.0469,869,480.8503,858.9487,481.7283,848.8974,480.8722,838.8462,480.7038,828.7949,481.2751,818.7436,480.38,808.6923,480.5277,798.641,481.6958,788.5897,481.4825,778.5385,481.7814,768.4872,480.7251,758.4359,481.3661,748.3846,481.6373,738.3333,480.5745,728.2821,480.951,718.2308,481.1729,708.1795,481.6986,698.1282,481.0427,688.0769,481.5094,678.0256,480.4931,667.9744,480.3696,657.9231,481.5505,647.8718,480.3299,637.8205,481.5558,627.7692,481.2535,617.7179,480.779,607.6667,480.6931,597.6154,481.5056,587.5641,480.7475,577.5128,481.6387,567.4615,480.4941,557.4103,481.6643,547.359,481.5312,537.3077,481.2918,527.2564,481.0941,517.2051,481.7735,507.1538,481.6605,497.1026,481.2161,487.0513,481.3151,477,481.0469,476.8697,481.0469,477.7165,471.1035,477.1549,461.1602,477.1726,451.2168,476.3916,441.2734,476.5948,431.3301,477.5307,421.3867,477.4298,411.4434,477,401.5" style="stroke:#383838;stroke-width:1.5;"/><polygon fill="#C2C2C2" points="651.8108,423.1444,650.1984,425.3475,648.2912,428.5745,645.5636,430.7491,642.6974,431.9384,640.412,432.0416,637.4747,430.5543,634.7032,429.5827,632.5995,427.6099,631.4961,425.3515,630.8417,423.5533,630.2006,421.2045,629.16,419.1832,629.9596,417.2098,630.6602,415.048,633.2893,413.3382,635.139,411.1198,637.4284,410.3832,640.1501,409.7488,643.6404,410.1257,645.5521,411.0273,647.7747,411.4359,650.4772,414.2047,651.4193,417.1277,651.8286,419.1221,651.365,422.4086" style="stroke:#383838;stroke-width:1.0;"/><path d="M643.7188,426.1094 Q643.1406,426.4063 642.5,426.5469 Q641.8594,426.7031 641.1563,426.7031 Q638.6563,426.7031 637.3281,425.0625 Q636.0156,423.4063 636.0156,420.2813 Q636.0156,417.1563 637.3281,415.5 Q638.6563,413.8438 641.1563,413.8438 Q641.8594,413.8438 642.5,414 Q643.1563,414.1563 643.7188,414.4531 L643.7188,417.1719 Q643.0938,416.5938 642.5,416.3281 Q641.9063,416.0469 641.2813,416.0469 Q639.9375,416.0469 639.25,417.125 Q638.5625,418.1875 638.5625,420.2813 Q638.5625,422.375 639.25,423.4531 Q639.9375,424.5156 641.2813,424.5156 Q641.9063,424.5156 642.5,424.25 Q643.0938,423.9688 643.7188,423.3906 L643.7188,426.1094 Z " fill="#000000"/><text fill="#000000" font-family="FG Virgil" font-size="12" font-style="italic" lengthAdjust="spacingAndGlyphs" textLength="60" x="659.25" y="417.6387">«domain»</text><text fill="#000000" font-family="FG Virgil" font-size="12" lengthAdjust="spacingAndGlyphs" textLength="43" x="667.75" y="431.6074">Pedido</text><path d="M478,439.4375 L478,439.7177 L488,438.8851 L498,439.6952 L508,439.9704 L518,438.4863 L528,439.3339 L538,438.8688 L548,438.9262 L558,439.3466 L568,438.5157 L578,440.1757 L588,438.5971 L598,439.1738 L608,440.0134 L618,439.3231 L628,439.5285 L638,439.3949 L648,439.6755 L658,439.7563 L668,440.2184 L678,440.3322 L688,440.3432 L698,439.777 L708,440.0556 L718,440.3738 L728,438.4759 L738,440.3422 L748,439.0422 L758,440.1492 L768,438.7775 L778,439.3462 L788,440.4263 L798,439.3725 L808,439.5779 L818,439.889 L828,439.9925 L838,439.4323 L848,439.8205 L858,438.6743 L868,439.4375 " fill="#F8F8F8" style="stroke:#383838;stroke-width:1.5;"/><path d="M478,447.4375 L478,447.7177 L488,446.8851 L498,447.6952 L508,447.9704 L518,446.4863 L528,447.3339 L538,446.8688 L548,446.9262 L558,447.3466 L568,446.5157 L578,448.1757 L588,446.5971 L598,447.1738 L608,448.0134 L618,447.3231 L628,447.5285 L638,447.3949 L648,447.6755 L658,447.7563 L668,448.2184 L678,448.3322 L688,448.3432 L698,447.777 L708,448.0556 L718,448.3738 L728,446.4759 L738,448.3422 L748,447.0422 L758,448.1492 L768,446.7775 L778,447.3462 L788,448.4263 L798,447.3725 L808,447.5779 L818,447.889 L828,447.9925 L838,447.4323 L848,447.8205 L858,446.6743 L868,447.4375 " fill="#F8F8F8" style="stroke:#383838;stroke-width:1.5;"/><text fill="#000000" font-family="FG Virgil" font-size="11" lengthAdjust="spacingAndGlyphs" textLength="271" x="483" y="461.6479">completaFormulario(formulario,variavel,atibuto)</text><text fill="#000000" font-family="FG Virgil" font-size="11" lengthAdjust="spacingAndGlyphs" textLength="380" x="483" y="474.4526">completaDecisaoComentario(comentario,decisao,pedido,atividade)</text><!--MD5=[aea7e8aae0f761f3d316f6ff371baef4]
class ValidaForm--><polygon fill="#F8F8F8" points="904.5,408,904.5,408.2102,914.6765,407.5857,924.8529,408.1933,935.0294,408.3997,945.2059,407.2866,955.3824,407.9223,965.5588,407.5735,975.7353,407.6165,985.9118,407.9318,996.0882,407.3086,1006.2647,408.5536,1016.4412,407.3697,1026.6176,407.8022,1036.7941,408.4319,1046.9706,407.9142,1057.1471,408.0682,1067.3235,407.9681,1077.5,408,1077.6785,408,1077.7391,417.5346,1078.0857,427.0692,1078.1711,436.6038,1078.1793,446.1384,1077.7546,455.673,1077.9636,465.2076,1077.5,474.7422,1077.5,475.4444,1067.3235,474.021,1057.1471,475.4207,1046.9706,474.4457,1036.7941,475.276,1026.6176,474.2472,1016.4412,474.6737,1006.2647,475.4838,996.0882,474.6935,985.9118,474.8475,975.7353,475.0808,965.5588,475.1584,955.3824,474.7383,945.2059,475.0294,935.0294,474.1698,924.8529,475.0266,914.6765,475.2904,904.5,474.7422,904.9445,474.7422,905.113,465.2076,904.0169,455.673,903.8478,446.1384,903.8786,436.6038,904.4411,427.0692,904.3035,417.5346,904.5,408" style="stroke:#383838;stroke-width:1.5;"/><polygon fill="#C2C2C2" points="963.3108,429.6444,961.6984,431.8475,959.7912,435.0745,957.0636,437.2491,954.1974,438.4384,951.912,438.5416,948.9747,437.0543,946.2032,436.0827,944.0995,434.1099,942.9961,431.8515,942.3417,430.0533,941.7006,427.7045,940.66,425.6832,941.4596,423.7098,942.1602,421.548,944.7893,419.8382,946.639,417.6198,948.9284,416.8832,951.6501,416.2488,955.1404,416.6257,957.0521,417.5273,959.2747,417.9359,961.9772,420.7047,962.9193,423.6277,963.3286,425.6221,962.865,428.9086" style="stroke:#383838;stroke-width:1.0;"/><path d="M955.2188,432.6094 Q954.6406,432.9063 954,433.0469 Q953.3594,433.2031 952.6563,433.2031 Q950.1563,433.2031 948.8281,431.5625 Q947.5156,429.9063 947.5156,426.7813 Q947.5156,423.6563 948.8281,422 Q950.1563,420.3438 952.6563,420.3438 Q953.3594,420.3438 954,420.5 Q954.6563,420.6563 955.2188,420.9531 L955.2188,423.6719 Q954.5938,423.0938 954,422.8281 Q953.4063,422.5469 952.7813,422.5469 Q951.4375,422.5469 950.75,423.625 Q950.0625,424.6875 950.0625,426.7813 Q950.0625,428.875 950.75,429.9531 Q951.4375,431.0156 952.7813,431.0156 Q953.4063,431.0156 954,430.75 Q954.5938,430.4688 955.2188,429.8906 L955.2188,432.6094 Z " fill="#000000"/><text fill="#000000" font-family="FG Virgil" font-size="12" font-style="italic" lengthAdjust="spacingAndGlyphs" textLength="60" x="977.25" y="424.1387">«domain»</text><text fill="#000000" font-family="FG Virgil" font-size="12" lengthAdjust="spacingAndGlyphs" textLength="69" x="972.75" y="438.1074">ValidaForm</text><path d="M905.5,445.9375 L905.5,446.2177 L915.5588,445.3851 L925.6176,446.1952 L935.6765,446.4704 L945.7353,444.9863 L955.7941,445.8339 L965.8529,445.3688 L975.9118,445.4262 L985.9706,445.8466 L996.0294,445.0157 L1006.0882,446.6757 L1016.1471,445.0971 L1026.2059,445.6738 L1036.2647,446.5134 L1046.3235,445.8231 L1056.3824,446.0285 L1066.4412,445.8949 L1076.5,445.9375 " fill="#F8F8F8" style="stroke:#383838;stroke-width:1.5;"/><path d="M905.5,453.9375 L905.5,454.2177 L915.5588,453.3851 L925.6176,454.1952 L935.6765,454.4704 L945.7353,452.9863 L955.7941,453.8339 L965.8529,453.3688 L975.9118,453.4262 L985.9706,453.8466 L996.0294,453.0157 L1006.0882,454.6757 L1016.1471,453.0971 L1026.2059,453.6738 L1036.2647,454.5134 L1046.3235,453.8231 L1056.3824,454.0285 L1066.4412,453.8949 L1076.5,453.9375 " fill="#F8F8F8" style="stroke:#383838;stroke-width:1.5;"/><text fill="#000000" font-family="FG Virgil" font-size="11" lengthAdjust="spacingAndGlyphs" textLength="161" x="910.5" y="468.1479">validaFormulario(formulario)</text><!--MD5=[0edf5bbb78229093495c46c562367b60]
link RealizarTarefaUI to RealizarTarefaController--><path d="M513,74.3401 L513.2802,74.3401 L512.4476,85.113 L513.2577,95.8859 L513.5329,106.6589 L512.0488,117.4318 L513,128.2047 " fill="none" style="stroke:#383838;stroke-width:1.0;"/><polygon fill="#383838" points="513,133.6706,513.064,133.6991,513.6738,131.8145,514.6589,130.0968,515.5217,128.3247,515.9827,126.374,517,124.6706,516.9817,124.6523,516.0995,125.3701,515.3096,126.1802,514.5839,127.0545,513.637,127.7076,513,128.6706,513.1305,128.8011,512.0514,127.722,511.3534,127.024,510.7018,126.3724,509.7798,125.4504,509,124.6706,509.0208,124.6798,509.7903,126.4663,510.6544,128.2948,511.4728,130.103,512.3784,131.9499,513,133.6706" style="stroke:#383838;stroke-width:1.0;"/><!--MD5=[ef5b9e6ef3bdf1e4f298a9e8223a0869]
link RealizarTarefaController to PedidoRepository--><path d="M347.3358,316.0312 L347.4708,316.2768 L338.498,320.2572 L330.3165,325.6773 L321.8773,330.6285 L312.5908,334.038 L304.4273,339.4909 L295.6316,343.7934 L287.0875,348.5538 L278.7183,353.6324 L269.7464,357.6142 L261.9741,363.7792 L252.6421,367.1058 L244.3481,372.3213 L235.9034,377.2625 " fill="none" style="stroke:#383838;stroke-width:1.0;"/><polygon fill="#383838" points="231.2199,379.836,231.2258,379.9058,233.1711,379.5326,235.1509,379.5687,237.1195,379.4715,239.051,378.936,241.0338,379.0072,241.0266,378.9823,239.9077,378.5549,238.8254,378.2528,237.7683,378.0379,236.6239,377.5226,235.6019,377.428,235.7791,377.4795,235.716,376.283,236.1702,375.2368,236.6876,374.209,236.8378,373.0745,237.1811,371.9961,237.1992,372.0098,235.9803,373.5576,234.844,375.1681,233.6678,376.7483,232.5675,378.3862,231.2199,379.836" style="stroke:#383838;stroke-width:1.0;"/><!--MD5=[88dc3e81b4dd39edfdd25ee3e3ef0126]
link RealizarTarefaController to ColaboradorRepository--><path d="M446.0305,316.188 L446.2564,316.3539 L439.7424,323.8168 L434.5526,332.2521 L428.9316,340.3708 L421.8926,347.4481 L416.7329,355.9056 L410.5153,363.5861 L404.7186,371.5758 L399.2147,379.7805 L392.7022,387.2444 L388.1973,396.1828 L381.7595,403.7016 " fill="none" style="stroke:#383838;stroke-width:1.0;"/><polygon fill="#383838" points="378.7326,407.8232,378.7674,407.884,380.3744,406.7261,382.1851,405.9247,383.9295,405.0072,385.4557,403.7078,387.2839,402.9371,387.28,402.9114,386.1441,402.9678,385.0279,403.1532,383.9255,403.4283,382.7757,403.3942,381.6923,403.7933,381.8747,403.8212,381.3134,402.6431,381.2846,401.5466,381.3209,400.46,380.979,399.3156,380.8361,398.2016,380.8583,398.2064,380.405,400.1236,380.0528,402.0629,379.6519,403.9916,379.344,405.9406,378.7326,407.8232" style="stroke:#383838;stroke-width:1.0;"/><!--MD5=[f28ed69bed4acd0a788dbd0b9c4f3dea]
link RealizarTarefaController to Pedido--><path d="M580.3907,316.188 L580.6161,316.3546 L585.9204,323.9433 L592.546,332.5083 L598.7413,340.7555 L603.5218,347.957 L610.1774,356.5443 L615.7774,364.3515 L621.7975,372.4692 L628.1097,380.8026 L633.4154,388.3923 L640.1308,397.0238 " fill="none" style="stroke:#383838;stroke-width:1.0;"/><polygon fill="#383838" points="643.2999,401.3121,643.3683,401.3273,642.7386,399.3591,642.5099,397.4799,642.1507,395.5718,641.362,393.5684,641.1678,391.6968,641.1421,391.693,640.8593,392.7945,640.7055,393.9155,640.6416,395.05,640.2682,396.138,640.3282,397.291,640.3556,397.4735,639.1782,396.9153,638.0808,396.89,636.9931,396.9297,635.8486,396.5911,634.734,396.4515,634.7452,396.4713,636.4419,397.4143,638.1897,398.4475,639.9129,399.4372,641.6831,400.5098,643.2999,401.3121" style="stroke:#383838;stroke-width:1.0;"/><!--MD5=[1aedfa8ea35f695a3f51a4d09c8dd695]
link RealizarTarefaController to ValidaForm--><path d="M709.0905,296.5404 L709.1255,296.627 L713.431,298.152 L717.9417,300.1846 L722.3856,302.0519 L726.6097,303.3756 L731.1381,305.4518 L731.1249,305.4199 L735.5418,307.1291 L740.0253,308.9992 L744.5551,310.9812 L748.9254,312.5777 L753.519,314.7141 L753.6152,314.9406 L757.9246,316.3729 L762.5147,318.4666 L767.139,320.6409 L771.5641,322.3458 L776.094,324.2976 L776.1061,324.3254 L780.6143,326.2596 L785.1776,328.3204 L789.7143,330.3201 L794.3018,332.4363 L798.7236,334.1728 L798.8459,334.4448 L803.3564,336.4756 L807.7879,338.331 L812.335,340.4431 L816.8874,342.5674 L821.2684,344.3102 L821.1333,344.0195 L825.8595,346.6577 L830.1411,348.3387 L834.7607,350.7474 L839.0321,352.4067 L843.589,354.6802 L843.5758,354.6528 L848.1234,357.0918 L852.3624,358.8899 L856.7835,361.0663 L861.2199,363.2743 L865.546,365.2533 L865.6288,365.4187 L869.836,367.4011 L874.1848,369.6661 L878.3044,371.4739 L882.7658,373.9637 L887,376 L887.1144,376.2151 L889.6415,377.5305 L892.2254,378.9526 L894.5452,379.8786 L897.0586,381.1682 L899.7435,382.7802 L899.6071,382.54 L902.2915,384.2111 L904.8222,385.6117 L907.5758,387.4047 L909.9489,388.5276 L912.5481,390.0488 L912.47,389.9179 L915.1249,391.6435 L917.4458,392.8094 L920.0042,394.3733 L922.7952,396.3266 L925.1721,397.5865 L925.2744,397.7509 L927.7848,399.3812 L929.9771,400.4999 L932.5679,402.2593 L935.0718,403.8791 L937.3735,405.1737 " fill="none" style="stroke:#383838;stroke-width:1.0;"/><polygon fill="#383838" points="941.8032,407.9949,941.8616,408.0336,940.5996,406.2769,939.6798,404.7471,938.6487,403.1435,937.2509,401.2968,936.3606,399.7865,936.3353,399.7809,936.4668,400.8602,936.7259,401.9678,937.0735,403.0951,937.1158,404.1546,937.5858,405.3091,937.6258,405.4892,936.4358,405.349,935.3625,405.7348,934.3035,406.1848,933.1616,406.2614,932.0632,406.5343,932.0666,406.5568,934.0097,406.8159,935.9681,407.1774,937.919,407.4895,939.8842,407.8959,941.8032,407.9949" style="stroke:#383838;stroke-width:1.0;"/><!--MD5=[3cdb12ce04e09b0f013aea25684104e8]
@startuml
'http://plantuml.com/skinparam.html
skinparam handwritten true
skinparam monochrome true
skinparam packageStyle rect
skinparam defaultFontName FG Virgil
skinparam shadowing false

class RealizarTarefaUI <<presentation>>
class RealizarTarefaController <<application>>
class PedidoRepository <<repository>>
class ColaboradorRepository <<repository>>
class Pedido <<domain>>
class ValidaForm <<domain>>

RealizarTarefaUI - -> RealizarTarefaController
RealizarTarefaUI : doShow()

RealizarTarefaController : getUser()
RealizarTarefaController : getTarefasPendentes(colab)
RealizarTarefaController : getPedidoByAtividade(atividade)
RealizarTarefaController : getFormularioDaAtividade(atividade)
RealizarTarefaController : getAtributosDoFormulario(formulario)
RealizarTarefaController : getLabelDoAtributo(atividade)
RealizarTarefaController : completaFormulario(formulario,variavel,atibuto)
RealizarTarefaController : validaFormulario(formulario)
RealizarTarefaController : completaDecisaoComentario(comentario,decisao,pedido,atividade)
RealizarTarefaController : savePedido(pedido)

Pedido : completaFormulario(formulario,variavel,atibuto)
Pedido : completaDecisaoComentario(comentario,decisao,pedido,atividade)

ValidaForm : validaFormulario(formulario)

RealizarTarefaController - -> PedidoRepository
RealizarTarefaController - -> ColaboradorRepository
RealizarTarefaController - -> Pedido
RealizarTarefaController - -> ValidaForm

ColaboradorRepository : getUser()

PedidoRepository : getTarefasPendentes(colab)
PedidoRepository : getPedidoByAtividade(atividade)
PedidoRepository : getFormularioDaAtividade(atividade)
PedidoRepository : getAtributosDoFormulario(formulario)
PedidoRepository : getLabelDoAtributo(atividade)
PedidoRepository : savePedido(pedido)
@enduml

@startuml
skinparam handwritten true
skinparam monochrome true
skinparam packageStyle rect
skinparam defaultFontName FG Virgil
skinparam shadowing false

class RealizarTarefaUI <<presentation>>
class RealizarTarefaController <<application>>
class PedidoRepository <<repository>>
class ColaboradorRepository <<repository>>
class Pedido <<domain>>
class ValidaForm <<domain>>

RealizarTarefaUI - -> RealizarTarefaController
RealizarTarefaUI : doShow()

RealizarTarefaController : getUser()
RealizarTarefaController : getTarefasPendentes(colab)
RealizarTarefaController : getPedidoByAtividade(atividade)
RealizarTarefaController : getFormularioDaAtividade(atividade)
RealizarTarefaController : getAtributosDoFormulario(formulario)
RealizarTarefaController : getLabelDoAtributo(atividade)
RealizarTarefaController : completaFormulario(formulario,variavel,atibuto)
RealizarTarefaController : validaFormulario(formulario)
RealizarTarefaController : completaDecisaoComentario(comentario,decisao,pedido,atividade)
RealizarTarefaController : savePedido(pedido)

Pedido : completaFormulario(formulario,variavel,atibuto)
Pedido : completaDecisaoComentario(comentario,decisao,pedido,atividade)

ValidaForm : validaFormulario(formulario)

RealizarTarefaController - -> PedidoRepository
RealizarTarefaController - -> ColaboradorRepository
RealizarTarefaController - -> Pedido
RealizarTarefaController - -> ValidaForm

ColaboradorRepository : getUser()

PedidoRepository : getTarefasPendentes(colab)
PedidoRepository : getPedidoByAtividade(atividade)
PedidoRepository : getFormularioDaAtividade(atividade)
PedidoRepository : getAtributosDoFormulario(formulario)
PedidoRepository : getLabelDoAtributo(atividade)
PedidoRepository : savePedido(pedido)
@enduml

PlantUML version 1.2020.22(Sun Dec 06 09:36:27 UTC 2020)
(GPL source distribution)
Java Runtime: OpenJDK Runtime Environment
JVM: OpenJDK 64-Bit Server VM
Default Encoding: UTF-8
Language: en
Country: US
--></g></svg>