<?xml version="1.0" encoding="UTF-8" standalone="no"?><svg xmlns="http://www.w3.org/2000/svg" xmlns:xlink="http://www.w3.org/1999/xlink" contentScriptType="application/ecmascript" contentStyleType="text/css" height="1017px" preserveAspectRatio="none" style="width:1158px;height:1017px;" version="1.1" viewBox="0 0 1158 1017" width="1158px" zoomAndPan="magnify"><defs/><g><polygon fill="#FFFFFF" points="77,93.5938,77,93.6638,79,93.4556,81,93.6582,83,93.727,85,93.356,87,93.5938,86.9223,93.5938,86.5735,103.6139,86.6165,113.6341,86.9318,123.6543,86.3086,133.6745,87.5536,143.6947,86.3697,153.7149,86.8022,163.7351,87.4319,173.7553,86.9142,183.7755,87.0682,193.7957,86.9681,203.8159,87.1785,213.8361,87.2391,223.8563,87.5857,233.8765,87.6711,243.8967,87.6793,253.9169,87.2546,263.9371,87.4636,273.9573,87.7022,283.9775,86.2788,293.9977,87.6785,304.0179,86.7035,314.0381,87.5338,324.0583,86.505,334.0785,86.9315,344.0987,87.7416,354.1189,86.9513,364.1391,87.1053,374.1593,87.3386,384.1795,87.4162,394.1997,86.9961,404.2199,87.2872,414.2401,86.4276,424.2603,87.2844,434.2805,87.5482,444.3007,87.4445,454.3209,87.613,464.3411,86.5169,474.3613,86.3478,484.3815,86.3786,494.4017,86.9411,504.4219,86.8035,514.4421,87.6814,524.4623,86.8253,534.4825,86.6569,544.5027,87.2283,554.5229,86.3332,564.5431,86.4809,574.5633,87.649,584.5835,87.4357,594.6037,87.7345,604.6239,86.6782,614.6441,87.3192,624.6643,87.5904,634.6845,86.5276,644.7046,86.9041,654.7248,87.126,664.745,87.6518,674.7652,86.9958,684.7854,87.4626,694.8056,86.4462,704.8258,86.3227,714.846,87.5036,724.8662,86.2831,734.8864,87.509,744.9066,87.2066,754.9268,86.7321,764.947,86.6462,774.9672,87.4588,784.9874,86.7007,795.0076,87.5919,805.0278,86.4473,815.048,87.6174,825.0682,87.4843,835.0884,87.245,845.1086,87.0472,855.1288,87.7266,865.149,87.6136,875.1692,87.1693,885.1894,87.2682,895.2096,86.8697,905.2298,87,915.25,87,915.4888,85,915.3016,83,915.3075,81,915.0472,79,915.1149,77,915.25,77.5307,915.25,77.4298,905.2298,76.9571,895.2096,76.6778,885.1894,76.7811,875.1692,76.3138,865.149,77.4147,855.1288,77.7396,845.1086,77.5264,835.0884,77.6949,825.0682,76.8633,815.048,77.0872,805.0278,76.6124,795.0076,77.284,784.9874,77.2468,774.9672,77.5524,764.947,76.7703,754.9268,76.8656,744.9066,77.4435,734.8864,77.5673,724.8662,76.4875,714.846,76.8061,704.8258,77.1493,694.8056,76.3892,684.7854,77.3534,674.7652,77.258,664.745,76.8992,654.7248,77.1422,644.7046,77.7287,634.6845,76.6871,624.6643,77.315,614.6441,77.2856,604.6239,77.1158,594.6037,77.1409,584.5835,77.1135,574.5633,76.3758,564.5431,76.5992,554.5229,76.5385,544.5027,77.0638,534.4825,77.0881,524.4623,77.1617,514.4421,76.709,504.4219,76.9325,494.4017,76.8798,484.3815,77.5769,474.3613,77.4266,464.3411,76.5145,454.3209,76.9271,444.3007,76.4228,434.2805,77.2884,424.2603,77.6085,414.2401,77.5446,404.2199,76.5644,394.1997,77.464,384.1795,76.2572,374.1593,77.2002,364.1391,76.7007,354.1189,77.0967,344.0987,77.2403,334.0785,77.4721,324.0583,76.2801,314.0381,77.4755,304.0179,77.1782,293.9977,77.3553,283.9775,77.7478,273.9573,77.0055,263.9371,77.1753,253.9169,77.2134,243.8967,77.1972,233.8765,76.9992,223.8563,77.7107,213.8361,76.3903,203.8159,77.5653,193.7957,76.376,183.7755,76.4597,173.7553,77.04,163.7351,77.0283,153.7149,76.5072,143.6947,77.4137,133.6745,77.1089,123.6543,77.7267,113.6341,77.6671,103.6139,77,93.5938" style="stroke:#383838;stroke-width:1.0;"/><polygon fill="#FFFFFF" points="360,207.125,360,207.1951,362,206.9869,364,207.1894,366,207.2582,368,206.8872,370,207.125,369.9223,207.125,369.5735,216.9805,369.6165,226.8359,369.9318,236.6914,369.3086,246.5469,370.5536,256.4023,370,266.2578,370,266.0477,368,266.1919,366,266.4018,364,266.2292,362,266.2806,360,266.2578,359.9681,266.2578,360.1785,256.4023,360.2391,246.5469,360.5857,236.6914,360.6711,226.8359,360.6793,216.9805,360,207.125" style="stroke:#383838;stroke-width:1.0;"/><polygon fill="#FFFFFF" points="360,295.3906,360,295.4607,362,295.2525,364,295.4551,366,295.5239,368,295.1528,370,295.3906,369.9223,295.3906,369.5735,305.2461,369.6165,315.1016,369.9318,324.957,369.3086,334.8125,370.5536,344.668,370,354.5234,370,354.3133,368,354.4575,366,354.6674,364,354.4948,362,354.5462,360,354.5234,359.9681,354.5234,360.1785,344.668,360.2391,334.8125,360.5857,324.957,360.6711,315.1016,360.6793,305.2461,360,295.3906" style="stroke:#383838;stroke-width:1.0;"/><polygon fill="#FFFFFF" points="360,383.6563,360,383.7263,362,383.5181,364,383.7207,366,383.7895,368,383.4185,370,383.6563,369.9223,383.6563,369.5735,393.5117,369.6165,403.3672,369.9318,413.2227,369.3086,423.0781,370.5536,432.9336,370,442.7891,370,442.579,368,442.7231,366,442.933,364,442.7605,362,442.8118,360,442.7891,359.9681,442.7891,360.1785,432.9336,360.2391,423.0781,360.5857,413.2227,360.6711,403.3672,360.6793,393.5117,360,383.6563" style="stroke:#383838;stroke-width:1.0;"/><polygon fill="#FFFFFF" points="360,496.0547,360,496.1247,362,495.9166,364,496.1191,366,496.1879,368,495.8169,370,496.0547,369.9223,496.0547,369.5735,505.9102,369.6165,515.7656,369.9318,525.6211,369.3086,535.4766,370.5536,545.332,370,555.1875,370,554.9774,368,555.1216,366,555.3315,364,555.1589,362,555.2102,360,555.1875,359.9681,555.1875,360.1785,545.332,360.2391,535.4766,360.5857,525.6211,360.6711,515.7656,360.6793,505.9102,360,496.0547" style="stroke:#383838;stroke-width:1.0;"/><polygon fill="#FFFFFF" points="360,584.3203,360,584.3904,362,584.1822,364,584.3847,366,584.4535,368,584.0825,370,584.3203,369.9223,584.3203,369.5735,594.1758,369.6165,604.0313,369.9318,613.8867,369.3086,623.7422,370.5536,633.5977,370,643.4531,370,643.243,368,643.3872,366,643.5971,364,643.4245,362,643.4759,360,643.4531,359.9681,643.4531,360.1785,633.5977,360.2391,623.7422,360.5857,613.8867,360.6711,604.0313,360.6793,594.1758,360,584.3203" style="stroke:#383838;stroke-width:1.0;"/><polygon fill="#FFFFFF" points="360,672.5859,360,672.656,362,672.4478,364,672.6504,366,672.7192,368,672.3481,370,672.5859,369.9223,672.5859,369.5735,682.4414,369.6165,692.2969,369.9318,702.1523,369.3086,712.0078,370.5536,721.8633,370,731.7188,370,731.5087,368,731.6528,366,731.8627,364,731.6902,362,731.7415,360,731.7188,359.9681,731.7188,360.1785,721.8633,360.2391,712.0078,360.5857,702.1523,360.6711,692.2969,360.6793,682.4414,360,672.5859" style="stroke:#383838;stroke-width:1.0;"/><polygon fill="#FFFFFF" points="360,767.8516,360,767.9216,362,767.7135,364,767.916,366,767.9848,368,767.6138,370,767.8516,369.9223,767.8516,369.5735,777.707,369.6165,787.5625,369.9318,797.418,369.3086,807.2734,370.5536,817.1289,370,826.9844,370,826.7743,368,826.9185,366,827.1284,364,826.9558,362,827.0071,360,826.9844,359.9681,826.9844,360.1785,817.1289,360.2391,807.2734,360.5857,797.418,360.6711,787.5625,360.6793,777.707,360,767.8516" style="stroke:#383838;stroke-width:1.0;"/><polygon fill="#FFFFFF" points="360,856.1172,360,856.1872,362,855.9791,364,856.1816,366,856.2504,368,855.8794,370,856.1172,369.9223,856.1172,369.5735,865.9727,369.6165,875.8281,369.9318,885.6836,369.3086,895.5391,370.5536,905.3945,370,915.25,370,915.0399,368,915.1841,366,915.394,364,915.2214,362,915.2727,360,915.25,359.9681,915.25,360.1785,905.3945,360.2391,895.5391,360.5857,885.6836,360.6711,875.8281,360.6793,865.9727,360,856.1172" style="stroke:#383838;stroke-width:1.0;"/><polygon fill="#FFFFFF" points="707,324.5234,707,324.5935,709,324.3853,711,324.5879,713,324.6567,715,324.2856,717,324.5234,716.9741,324.5234,716.8578,330.5234,716.8722,336.5234,716.9773,342.5234,716.7695,348.5234,717,354.5234,717,354.708,715,354.3133,713,354.4575,711,354.6674,709,354.4948,707,354.5234,707.0227,354.5234,706.9894,348.5234,707.0595,342.5234,707.0797,336.5234,707.1952,330.5234,707,324.5234" style="stroke:#383838;stroke-width:1.0;"/><polygon fill="#FFFFFF" points="707,412.7891,707,412.8591,709,412.651,711,412.8535,713,412.9223,715,412.5513,717,412.7891,716.9741,412.7891,716.8578,418.7891,716.8722,424.7891,716.9773,430.7891,716.7695,436.7891,717,442.7891,717,442.9736,715,442.579,713,442.7231,711,442.933,709,442.7605,707,442.7891,707.0227,442.7891,706.9894,436.7891,707.0595,430.7891,707.0797,424.7891,707.1952,418.7891,707,412.7891" style="stroke:#383838;stroke-width:1.0;"/><polygon fill="#FFFFFF" points="707,525.1875,707,525.2576,709,525.0494,711,525.2519,713,525.3207,715,524.9497,717,525.1875,716.9741,525.1875,716.8578,531.1875,716.8722,537.1875,716.9773,543.1875,716.7695,549.1875,717,555.1875,717,555.372,715,554.9774,713,555.1216,711,555.3315,709,555.1589,707,555.1875,707.0227,555.1875,706.9894,549.1875,707.0595,543.1875,707.0797,537.1875,707.1952,531.1875,707,525.1875" style="stroke:#383838;stroke-width:1.0;"/><polygon fill="#FFFFFF" points="707,885.25,707,885.3201,709,885.1119,711,885.3144,713,885.3832,715,885.0122,717,885.25,716.9741,885.25,716.8578,891.25,716.8722,897.25,716.9773,903.25,716.7695,909.25,717,915.25,717,915.4345,715,915.0399,713,915.1841,711,915.394,709,915.2214,707,915.25,707.0227,915.25,706.9894,909.25,707.0595,903.25,707.0797,897.25,707.1952,891.25,707,885.25" style="stroke:#383838;stroke-width:1.0;"/><polygon fill="#FFFFFF" points="863,236.2578,863,236.3279,865,236.1197,867,236.3222,869,236.391,871,236.02,873,236.2578,872.9741,236.2578,872.8578,242.2578,872.8722,248.2578,872.9773,254.2578,872.7695,260.2578,873,266.2578,873,266.4424,871,266.0477,869,266.1919,867,266.4018,865,266.2292,863,266.2578,863.0227,266.2578,862.9894,260.2578,863.0595,254.2578,863.0797,248.2578,863.1952,242.2578,863,236.2578" style="stroke:#383838;stroke-width:1.0;"/><polygon fill="#FFFFFF" points="996.5,613.4531,996.5,613.5232,998.5,613.315,1000.5,613.5176,1002.5,613.5864,1004.5,613.2153,1006.5,613.4531,1006.4741,613.4531,1006.3578,619.4531,1006.3722,625.4531,1006.4773,631.4531,1006.2695,637.4531,1006.5,643.4531,1006.5,643.6377,1004.5,643.243,1002.5,643.3872,1000.5,643.5971,998.5,643.4245,996.5,643.4531,996.5227,643.4531,996.4894,637.4531,996.5595,631.4531,996.5797,625.4531,996.6952,619.4531,996.5,613.4531" style="stroke:#383838;stroke-width:1.0;"/><polygon fill="#FFFFFF" points="996.5,796.9844,996.5,797.0544,998.5,796.8463,1000.5,797.0488,1002.5,797.1176,1004.5,796.7466,1006.5,796.9844,1006.4741,796.9844,1006.3578,802.9844,1006.3722,808.9844,1006.4773,814.9844,1006.2695,820.9844,1006.5,826.9844,1006.5,827.1689,1004.5,826.7743,1002.5,826.9185,1000.5,827.1284,998.5,826.9558,996.5,826.9844,996.5227,826.9844,996.4894,820.9844,996.5595,814.9844,996.5797,808.9844,996.6952,802.9844,996.5,796.9844" style="stroke:#383838;stroke-width:1.0;"/><polygon fill="#FFFFFF" points="1092.5,701.7188,1092.5,701.7888,1094.5,701.5806,1096.5,701.7832,1098.5,701.852,1100.5,701.481,1102.5,701.7188,1102.4741,701.7188,1102.3578,707.7188,1102.3722,713.7188,1102.4773,719.7188,1102.2695,725.7188,1102.5,731.7188,1102.5,731.9033,1100.5,731.5087,1098.5,731.6528,1096.5,731.8627,1094.5,731.6902,1092.5,731.7188,1092.5227,731.7188,1092.4894,725.7188,1092.5595,719.7188,1092.5797,713.7188,1092.6952,707.7188,1092.5,701.7188" style="stroke:#383838;stroke-width:1.0;"/><polygon fill="#FFFFFF" points="10,457.7891,10,457.9992,20.0175,457.3747,30.0351,457.9823,40.0526,458.1887,50.0702,457.0757,60.0877,457.7113,70.1053,457.3626,80.1228,457.4056,90.1404,457.7209,100.1579,457.0977,110.1754,458.3427,120.193,457.1588,130.2105,457.5913,140.2281,458.221,150.2456,457.7033,160.2632,457.8573,170.2807,457.7571,180.2982,457.9676,190.3158,458.0282,200.3333,458.3748,210.3509,458.4601,220.3684,458.4683,230.386,458.0437,240.4035,458.2526,250.4211,458.4913,260.4386,457.0679,270.4561,458.4676,280.4737,457.4926,290.4912,458.3229,300.5088,457.294,310.5263,457.7206,320.5439,458.5307,330.5614,457.7403,340.5789,457.8944,350.5965,458.1277,360.614,458.2053,370.6316,457.7852,380.6491,458.0763,390.6667,457.2166,400.6842,458.0734,410.7018,458.3373,420.7193,458.2336,430.7368,458.4021,440.7544,457.306,450.7719,457.1369,460.7895,457.1677,470.807,457.7302,480.8246,457.5925,490.8421,458.4705,500.8596,457.6144,510.8772,457.446,520.8947,458.0173,530.9123,457.1222,540.9298,457.2699,550.9474,458.438,560.9649,458.2247,570.9825,458.5236,581,457.4673,591.0175,458.1083,601.0351,458.3795,611.0526,457.3167,621.0702,457.6932,631.0877,457.915,641.1053,458.4408,651.1228,457.7849,661.1404,458.2516,671.1579,457.2353,681.1754,457.1118,691.193,458.2927,701.2105,457.0721,711.2281,458.298,721.2456,457.9957,731.2632,457.5211,741.2807,457.4353,751.2982,458.2478,761.3158,457.4897,771.3333,458.3809,781.3509,457.2363,791.3684,458.4065,801.386,458.2734,811.4035,458.034,821.4211,457.8363,831.4386,458.5157,841.4561,458.4026,851.4737,457.9583,861.4912,458.0573,871.5088,457.6588,881.5263,458.5055,891.5439,457.9439,901.5614,457.9616,911.5789,457.1807,921.5965,457.3838,931.614,458.3198,941.6316,458.2188,951.6491,457.7461,961.6667,457.4669,971.6842,457.5701,981.7018,457.1029,991.7193,458.2038,1001.7368,458.5286,1011.7544,458.3155,1021.7719,458.484,1031.7895,457.6523,1041.807,457.8763,1051.8246,457.4015,1061.8421,458.0731,1071.8596,458.0358,1081.8772,458.3415,1091.8947,457.5594,1101.9123,457.6547,1111.9298,458.2325,1121.9474,458.3564,1131.9649,457.2765,1141.9825,457.5952,1152,457.7891,1152.1493,457.7891,1151.3892,467.858,1152.3534,477.9269,1152.258,487.9958,1151.8992,498.0647,1152.1422,508.1336,1152.7287,518.2026,1151.6871,528.2715,1152.315,538.3404,1152.2856,548.4093,1152.1158,558.4782,1152.1409,568.5472,1152.1135,578.6161,1151.3758,588.685,1151.5992,598.7539,1151.5385,608.8228,1152.0638,618.8917,1152.0881,628.9607,1152.1617,639.0296,1151.709,649.0985,1151.9325,659.1674,1151.8798,669.2363,1152.5769,679.3052,1152.4266,689.3742,1151.5145,699.4431,1151.9271,709.512,1151.4228,719.5809,1152.2884,729.6498,1152,739.7188,1152,740.3272,1141.9825,740.2633,1131.9649,739.2832,1121.9474,740.1827,1111.9298,738.9759,1101.9123,739.9189,1091.8947,739.4194,1081.8772,739.8155,1071.8596,739.9591,1061.8421,740.1909,1051.8246,738.9988,1041.807,740.1942,1031.7895,739.8969,1021.7719,740.0741,1011.7544,740.4666,1001.7368,739.7242,991.7193,739.894,981.7018,739.9322,971.6842,739.916,961.6667,739.7179,951.6491,740.4295,941.6316,739.109,931.614,740.284,921.5965,739.0947,911.5789,739.1784,901.5614,739.7588,891.5439,739.747,881.5263,739.2259,871.5088,740.1325,861.4912,739.8276,851.4737,740.4454,841.4561,740.3859,831.4386,739.2705,821.4211,739.3208,811.4035,739.5896,801.386,740.0743,791.3684,740.1217,781.3509,740.0199,771.3333,739.3768,761.3158,740.3551,751.2982,740.3525,741.2807,739.6715,731.2632,739.4797,721.2456,739.3174,711.2281,739.5042,701.2105,739.8562,691.193,739.6504,681.1754,739.301,671.1579,740.2061,661.1404,739.2598,651.1228,740.2211,641.1053,740.146,631.0877,740.0906,621.0702,740.4112,611.0526,739.4729,601.0351,739.4181,591.0175,740.2376,581,739.1219,570.9825,739.4848,560.9649,739.8342,550.9474,739.7874,540.9298,739.3603,530.9123,739.6758,520.8947,740.4633,510.8772,740.3672,500.8596,739.1225,490.8421,739.7973,480.8246,739.2048,470.807,739.6924,460.7895,740.0117,450.7719,740.1386,440.7544,739.054,430.7368,740.1193,420.7193,739.7272,410.7018,739.1634,400.6842,739.2477,390.6667,740.0453,380.6491,739.9686,370.6316,739.7023,360.614,739.0466,350.5965,740.3769,340.5789,739.4069,330.5614,739.1907,320.5439,739.6514,310.5263,740.3085,300.5088,740.3342,290.4912,739.7539,280.4737,739.5676,270.4561,739.8885,260.4386,739.905,250.4211,739.211,240.4035,740.1327,230.386,740.2776,220.3684,739.503,210.3509,739.2896,200.3333,740.3934,190.3158,739.7398,180.2982,739.7186,170.2807,740.0178,160.2632,739.0731,150.2456,740.2487,140.2281,739.7033,130.2105,740.3876,120.193,739.5029,110.1754,740.1277,100.1579,739.2748,90.1404,739.9638,80.1228,740.098,70.1053,739.3914,60.0877,740.0818,50.0702,739.1473,40.0526,739.2483,30.0351,740.4016,20.0175,740.4031,10,739.7188,10.5685,739.7188,9.6396,729.6498,10.3842,719.5809,9.5279,709.512,10.0582,699.4431,9.9987,689.3742,9.7376,679.3052,10.6159,669.2363,10.4433,659.1674,9.6792,649.0985,10.5266,639.0296,10.0919,628.9607,9.4164,618.8917,9.7667,608.8228,9.4747,598.7539,9.8609,588.685,9.371,578.6161,9.3998,568.5472,10.0703,558.4782,9.8796,548.4093,9.9414,538.3404,9.8568,528.2715,10.1673,518.2026,9.4449,508.1336,10.1601,498.0647,9.2569,487.9958,10.296,477.9269,10.5928,467.858,10,457.7891" style="stroke:#000000;stroke-width:2.0;"/><path d="M82,83.5938 L82.2802,83.5938 L81.4476,93.5897 L82.2577,103.5857 L82.5329,113.5816 L81.0488,123.5776 L81.8964,133.5735 L81.4313,143.5695 L81.4887,153.5654 L81.9091,163.5614 L81.0782,173.5574 L82.7382,183.5533 L81.1596,193.5493 L81.7363,203.5452 L82.5759,213.5412 L81.8856,223.5371 L82.091,233.5331 L81.9574,243.529 L82.238,253.525 L82.3188,263.521 L82.7809,273.5169 L82.8947,283.5129 L82.9057,293.5088 L82.3395,303.5048 L82.6181,313.5007 L82.9363,323.4967 L81.0384,333.4926 L82.9047,343.4886 L81.6047,353.4846 L82.7117,363.4805 L81.34,373.4765 L81.9087,383.4724 L82.9888,393.4684 L81.935,403.4643 L82.1404,413.4603 L82.4515,423.4563 L82.555,433.4522 L81.9948,443.4482 L82.383,453.4441 L81.2368,463.4401 L82.3792,473.436 L82.7309,483.432 L82.5927,493.4279 L82.8174,503.4239 L81.3559,513.4199 L81.1304,523.4158 L81.1715,533.4118 L81.9215,543.4077 L81.738,553.4037 L82.9085,563.3996 L81.7671,573.3956 L81.5426,583.3915 L82.3044,593.3875 L81.1109,603.3835 L81.3078,613.3794 L82.8653,623.3754 L82.5809,633.3713 L82.9793,643.3673 L81.5709,653.3632 L82.4256,663.3592 L82.7872,673.3551 L81.3701,683.3511 L81.8722,693.3471 L82.168,703.343 L82.869,713.339 L81.9944,723.3349 L82.6168,733.3309 L81.2616,743.3268 L81.097,753.3228 L82.6715,763.3188 L81.0441,773.3147 L82.6786,783.3107 L82.2755,793.3066 L81.6428,803.3026 L81.5283,813.2985 L82.6117,823.2945 L81.6009,833.2904 L82.7891,843.2864 L81.263,853.2824 L82.8232,863.2783 L82.6457,873.2743 L82.3266,883.2702 L82.063,893.2662 L82.9688,903.2621 L82.8181,913.2581 L82.2257,923.254 L82,933.25 " fill="none" style="stroke:#383838;stroke-width:1.0;stroke-dasharray:5.0,5.0;"/><path d="M365,83.5938 L365.2802,83.5938 L364.4476,93.5897 L365.2577,103.5857 L365.5329,113.5816 L364.0488,123.5776 L364.8964,133.5735 L364.4313,143.5695 L364.4887,153.5654 L364.9091,163.5614 L364.0782,173.5574 L365.7382,183.5533 L364.1596,193.5493 L364.7363,203.5452 L365.5759,213.5412 L364.8856,223.5371 L365.091,233.5331 L364.9574,243.529 L365.238,253.525 L365.3188,263.521 L365.7809,273.5169 L365.8947,283.5129 L365.9057,293.5088 L365.3395,303.5048 L365.6181,313.5007 L365.9363,323.4967 L364.0384,333.4926 L365.9047,343.4886 L364.6047,353.4846 L365.7117,363.4805 L364.34,373.4765 L364.9087,383.4724 L365.9888,393.4684 L364.935,403.4643 L365.1404,413.4603 L365.4515,423.4563 L365.555,433.4522 L364.9948,443.4482 L365.383,453.4441 L364.2368,463.4401 L365.3792,473.436 L365.7309,483.432 L365.5927,493.4279 L365.8174,503.4239 L364.3559,513.4199 L364.1304,523.4158 L364.1715,533.4118 L364.9215,543.4077 L364.738,553.4037 L365.9085,563.3996 L364.7671,573.3956 L364.5426,583.3915 L365.3044,593.3875 L364.1109,603.3835 L364.3078,613.3794 L365.8653,623.3754 L365.5809,633.3713 L365.9793,643.3673 L364.5709,653.3632 L365.4256,663.3592 L365.7872,673.3551 L364.3701,683.3511 L364.8722,693.3471 L365.168,703.343 L365.869,713.339 L364.9944,723.3349 L365.6168,733.3309 L364.2616,743.3268 L364.097,753.3228 L365.6715,763.3188 L364.0441,773.3147 L365.6786,783.3107 L365.2755,793.3066 L364.6428,803.3026 L364.5283,813.2985 L365.6117,823.2945 L364.6009,833.2904 L365.7891,843.2864 L364.263,853.2824 L365.8232,863.2783 L365.6457,873.2743 L365.3266,883.2702 L365.063,893.2662 L365.9688,903.2621 L365.8181,913.2581 L365.2257,923.254 L365,933.25 " fill="none" style="stroke:#383838;stroke-width:1.0;stroke-dasharray:5.0,5.0;"/><path d="M712,83.5938 L712.2802,83.5938 L711.4476,93.5897 L712.2577,103.5857 L712.5329,113.5816 L711.0488,123.5776 L711.8964,133.5735 L711.4313,143.5695 L711.4887,153.5654 L711.9091,163.5614 L711.0782,173.5574 L712.7382,183.5533 L711.1596,193.5493 L711.7363,203.5452 L712.5759,213.5412 L711.8856,223.5371 L712.091,233.5331 L711.9574,243.529 L712.238,253.525 L712.3188,263.521 L712.7809,273.5169 L712.8947,283.5129 L712.9057,293.5088 L712.3395,303.5048 L712.6181,313.5007 L712.9363,323.4967 L711.0384,333.4926 L712.9047,343.4886 L711.6047,353.4846 L712.7117,363.4805 L711.34,373.4765 L711.9087,383.4724 L712.9888,393.4684 L711.935,403.4643 L712.1404,413.4603 L712.4515,423.4563 L712.555,433.4522 L711.9948,443.4482 L712.383,453.4441 L711.2368,463.4401 L712.3792,473.436 L712.7309,483.432 L712.5927,493.4279 L712.8174,503.4239 L711.3559,513.4199 L711.1304,523.4158 L711.1715,533.4118 L711.9215,543.4077 L711.738,553.4037 L712.9085,563.3996 L711.7671,573.3956 L711.5426,583.3915 L712.3044,593.3875 L711.1109,603.3835 L711.3078,613.3794 L712.8653,623.3754 L712.5809,633.3713 L712.9793,643.3673 L711.5709,653.3632 L712.4256,663.3592 L712.7872,673.3551 L711.3701,683.3511 L711.8722,693.3471 L712.168,703.343 L712.869,713.339 L711.9944,723.3349 L712.6168,733.3309 L711.2616,743.3268 L711.097,753.3228 L712.6715,763.3188 L711.0441,773.3147 L712.6786,783.3107 L712.2755,793.3066 L711.6428,803.3026 L711.5283,813.2985 L712.6117,823.2945 L711.6009,833.2904 L712.7891,843.2864 L711.263,853.2824 L712.8232,863.2783 L712.6457,873.2743 L712.3266,883.2702 L712.063,893.2662 L712.9688,903.2621 L712.8181,913.2581 L712.2257,923.254 L712,933.25 " fill="none" style="stroke:#383838;stroke-width:1.0;stroke-dasharray:5.0,5.0;"/><path d="M868,83.5938 L868.2802,83.5938 L867.4476,93.5897 L868.2577,103.5857 L868.5329,113.5816 L867.0488,123.5776 L867.8964,133.5735 L867.4313,143.5695 L867.4887,153.5654 L867.9091,163.5614 L867.0782,173.5574 L868.7382,183.5533 L867.1596,193.5493 L867.7363,203.5452 L868.5759,213.5412 L867.8856,223.5371 L868.091,233.5331 L867.9574,243.529 L868.238,253.525 L868.3188,263.521 L868.7809,273.5169 L868.8947,283.5129 L868.9057,293.5088 L868.3395,303.5048 L868.6181,313.5007 L868.9363,323.4967 L867.0384,333.4926 L868.9047,343.4886 L867.6047,353.4846 L868.7117,363.4805 L867.34,373.4765 L867.9087,383.4724 L868.9888,393.4684 L867.935,403.4643 L868.1404,413.4603 L868.4515,423.4563 L868.555,433.4522 L867.9948,443.4482 L868.383,453.4441 L867.2368,463.4401 L868.3792,473.436 L868.7309,483.432 L868.5927,493.4279 L868.8174,503.4239 L867.3559,513.4199 L867.1304,523.4158 L867.1715,533.4118 L867.9215,543.4077 L867.738,553.4037 L868.9085,563.3996 L867.7671,573.3956 L867.5426,583.3915 L868.3044,593.3875 L867.1109,603.3835 L867.3078,613.3794 L868.8653,623.3754 L868.5809,633.3713 L868.9793,643.3673 L867.5709,653.3632 L868.4256,663.3592 L868.7872,673.3551 L867.3701,683.3511 L867.8722,693.3471 L868.168,703.343 L868.869,713.339 L867.9944,723.3349 L868.6168,733.3309 L867.2616,743.3268 L867.097,753.3228 L868.6715,763.3188 L867.0441,773.3147 L868.6786,783.3107 L868.2755,793.3066 L867.6428,803.3026 L867.5283,813.2985 L868.6117,823.2945 L867.6009,833.2904 L868.7891,843.2864 L867.263,853.2824 L868.8232,863.2783 L868.6457,873.2743 L868.3266,883.2702 L868.063,893.2662 L868.9688,903.2621 L868.8181,913.2581 L868.2257,923.254 L868,933.25 " fill="none" style="stroke:#383838;stroke-width:1.0;stroke-dasharray:5.0,5.0;"/><path d="M1001,83.5938 L1001.2802,83.5938 L1000.4476,93.5897 L1001.2577,103.5857 L1001.5329,113.5816 L1000.0488,123.5776 L1000.8964,133.5735 L1000.4313,143.5695 L1000.4887,153.5654 L1000.9091,163.5614 L1000.0782,173.5574 L1001.7382,183.5533 L1000.1596,193.5493 L1000.7363,203.5452 L1001.5759,213.5412 L1000.8856,223.5371 L1001.091,233.5331 L1000.9574,243.529 L1001.238,253.525 L1001.3188,263.521 L1001.7809,273.5169 L1001.8947,283.5129 L1001.9057,293.5088 L1001.3395,303.5048 L1001.6181,313.5007 L1001.9363,323.4967 L1000.0384,333.4926 L1001.9047,343.4886 L1000.6047,353.4846 L1001.7117,363.4805 L1000.34,373.4765 L1000.9087,383.4724 L1001.9888,393.4684 L1000.935,403.4643 L1001.1404,413.4603 L1001.4515,423.4563 L1001.555,433.4522 L1000.9948,443.4482 L1001.383,453.4441 L1000.2368,463.4401 L1001.3792,473.436 L1001.7309,483.432 L1001.5927,493.4279 L1001.8174,503.4239 L1000.3559,513.4199 L1000.1304,523.4158 L1000.1715,533.4118 L1000.9215,543.4077 L1000.738,553.4037 L1001.9085,563.3996 L1000.7671,573.3956 L1000.5426,583.3915 L1001.3044,593.3875 L1000.1109,603.3835 L1000.3078,613.3794 L1001.8653,623.3754 L1001.5809,633.3713 L1001.9793,643.3673 L1000.5709,653.3632 L1001.4256,663.3592 L1001.7872,673.3551 L1000.3701,683.3511 L1000.8722,693.3471 L1001.168,703.343 L1001.869,713.339 L1000.9944,723.3349 L1001.6168,733.3309 L1000.2616,743.3268 L1000.097,753.3228 L1001.6715,763.3188 L1000.0441,773.3147 L1001.6786,783.3107 L1001.2755,793.3066 L1000.6428,803.3026 L1000.5283,813.2985 L1001.6117,823.2945 L1000.6009,833.2904 L1001.7891,843.2864 L1000.263,853.2824 L1001.8232,863.2783 L1001.6457,873.2743 L1001.3266,883.2702 L1001.063,893.2662 L1001.9688,903.2621 L1001.8181,913.2581 L1001.2257,923.254 L1001,933.25 " fill="none" style="stroke:#383838;stroke-width:1.0;stroke-dasharray:5.0,5.0;"/><path d="M1097,83.5938 L1097.2802,83.5938 L1096.4476,93.5897 L1097.2577,103.5857 L1097.5329,113.5816 L1096.0488,123.5776 L1096.8964,133.5735 L1096.4313,143.5695 L1096.4887,153.5654 L1096.9091,163.5614 L1096.0782,173.5574 L1097.7382,183.5533 L1096.1596,193.5493 L1096.7363,203.5452 L1097.5759,213.5412 L1096.8856,223.5371 L1097.091,233.5331 L1096.9574,243.529 L1097.238,253.525 L1097.3188,263.521 L1097.7809,273.5169 L1097.8947,283.5129 L1097.9057,293.5088 L1097.3395,303.5048 L1097.6181,313.5007 L1097.9363,323.4967 L1096.0384,333.4926 L1097.9047,343.4886 L1096.6047,353.4846 L1097.7117,363.4805 L1096.34,373.4765 L1096.9087,383.4724 L1097.9888,393.4684 L1096.935,403.4643 L1097.1404,413.4603 L1097.4515,423.4563 L1097.555,433.4522 L1096.9948,443.4482 L1097.383,453.4441 L1096.2368,463.4401 L1097.3792,473.436 L1097.7309,483.432 L1097.5927,493.4279 L1097.8174,503.4239 L1096.3559,513.4199 L1096.1304,523.4158 L1096.1715,533.4118 L1096.9215,543.4077 L1096.738,553.4037 L1097.9085,563.3996 L1096.7671,573.3956 L1096.5426,583.3915 L1097.3044,593.3875 L1096.1109,603.3835 L1096.3078,613.3794 L1097.8653,623.3754 L1097.5809,633.3713 L1097.9793,643.3673 L1096.5709,653.3632 L1097.4256,663.3592 L1097.7872,673.3551 L1096.3701,683.3511 L1096.8722,693.3471 L1097.168,703.343 L1097.869,713.339 L1096.9944,723.3349 L1097.6168,733.3309 L1096.2616,743.3268 L1096.097,753.3228 L1097.6715,763.3188 L1096.0441,773.3147 L1097.6786,783.3107 L1097.2755,793.3066 L1096.6428,803.3026 L1096.5283,813.2985 L1097.6117,823.2945 L1096.6009,833.2904 L1097.7891,843.2864 L1096.263,853.2824 L1097.8232,863.2783 L1097.6457,873.2743 L1097.3266,883.2702 L1097.063,893.2662 L1097.9688,903.2621 L1097.8181,913.2581 L1097.2257,923.254 L1097,933.25 " fill="none" style="stroke:#383838;stroke-width:1.0;stroke-dasharray:5.0,5.0;"/><polygon fill="#F8F8F8" points="20,36,20,36.2102,30.3333,35.5857,40.6667,36.1933,51,36.3997,61.3333,35.2866,71.6667,35.9223,82,35.5735,92.3333,35.6165,102.6667,35.9318,113,35.3086,123.3333,36.5536,133.6667,35.3697,144,36,143.8022,36,144.4319,45.3188,143.9142,54.6375,144.0682,63.9563,143.9681,73.275,144,82.5938,144,82.7723,133.6667,82.8329,123.3333,83.1794,113,83.2648,102.6667,83.273,92.3333,82.8484,82,83.0573,71.6667,83.296,61.3333,81.8726,51,83.2723,40.6667,82.2972,30.3333,83.1276,20,82.5938,19.505,82.5938,19.9315,73.275,20.7416,63.9563,19.9513,54.6375,20.1053,45.3188,20,36" style="stroke:#383838;stroke-width:1.5;"/><text fill="#000000" font-family="FG Virgil" font-size="14" font-style="italic" lengthAdjust="spacingAndGlyphs" textLength="106" x="29" y="55.9951">«presentation»</text><text fill="#000000" font-family="FG Virgil" font-size="14" lengthAdjust="spacingAndGlyphs" textLength="110" x="27" y="72.292">RealizarTarefaUI</text><polygon fill="#F8F8F8" points="20,932.25,20,932.4602,30.3333,931.8357,40.6667,932.4433,51,932.6497,61.3333,931.5366,71.6667,932.1723,82,931.8235,92.3333,931.8665,102.6667,932.1818,113,931.5586,123.3333,932.8036,133.6667,931.6197,144,932.25,143.8022,932.25,144.4319,941.5688,143.9142,950.8875,144.0682,960.2063,143.9681,969.525,144,978.8438,144,979.0223,133.6667,979.0829,123.3333,979.4294,113,979.5148,102.6667,979.523,92.3333,979.0984,82,979.3073,71.6667,979.546,61.3333,978.1226,51,979.5223,40.6667,978.5472,30.3333,979.3776,20,978.8438,19.505,978.8438,19.9315,969.525,20.7416,960.2063,19.9513,950.8875,20.1053,941.5688,20,932.25" style="stroke:#383838;stroke-width:1.5;"/><text fill="#000000" font-family="FG Virgil" font-size="14" font-style="italic" lengthAdjust="spacingAndGlyphs" textLength="106" x="29" y="952.2451">«presentation»</text><text fill="#000000" font-family="FG Virgil" font-size="14" lengthAdjust="spacingAndGlyphs" textLength="110" x="27" y="968.542">RealizarTarefaUI</text><text fill="#000000" font-family="FG Virgil" font-size="14" font-style="italic" lengthAdjust="spacingAndGlyphs" textLength="92" x="316" y="63.9951">«application»</text><text fill="#000000" font-family="FG Virgil" font-size="14" lengthAdjust="spacingAndGlyphs" textLength="164" x="280" y="80.292">RealizarTarefaController</text><polygon fill="#F8F8F8" points="377.0663,37.9189,375.3073,40.3223,373.2268,43.8426,370.2512,46.215,367.1244,47.5123,364.6313,47.6249,361.4269,46.0024,358.4035,44.9425,356.1086,42.7904,354.9048,40.3267,354.1909,38.3649,353.4915,35.8026,352.3564,33.5976,353.2287,31.4447,353.9929,29.0864,356.8611,27.2212,358.8789,24.8012,361.3764,23.9976,364.3456,23.3055,368.1532,23.7167,370.2386,24.7002,372.6633,25.146,375.6115,28.1665,376.6392,31.3552,377.0857,33.5309,376.58,37.1162" style="stroke:#383838;stroke-width:2.0;"/><polygon fill="#383838" points="361,23,361.0449,23.0538,362.1116,21.8939,363.4412,21.0495,364.6853,20.1023,365.6478,18.8173,367,18,366.9759,17.9904,366.468,18.9472,366.0813,19.9525,365.7789,20.9916,365.186,21.9144,365,23,365.1713,23.0685,365.2049,23.922,365.7388,24.9755,366.3337,26.0535,366.5735,26.9894,367,28,367.0146,28.0175,365.7932,26.9918,364.6381,26.0457,363.451,25.0612,362.325,24.15,361,23" style="stroke:#383838;stroke-width:1.0;"/><text fill="#000000" font-family="FG Virgil" font-size="14" font-style="italic" lengthAdjust="spacingAndGlyphs" textLength="92" x="316" y="945.2451">«application»</text><text fill="#000000" font-family="FG Virgil" font-size="14" lengthAdjust="spacingAndGlyphs" textLength="164" x="280" y="961.542">RealizarTarefaController</text><polygon fill="#F8F8F8" points="377.0663,983.7626,375.3073,986.1661,373.2268,989.6863,370.2512,992.0587,367.1244,993.3561,364.6313,993.4686,361.4269,991.8462,358.4035,990.7862,356.1086,988.6341,354.9048,986.1704,354.1909,984.2087,353.4915,981.6463,352.3564,979.4414,353.2287,977.2885,353.9929,974.9302,356.8611,973.065,358.8789,970.6449,361.3764,969.8413,364.3456,969.1493,368.1532,969.5604,370.2386,970.544,372.6633,970.9898,375.6115,974.0103,376.6392,977.199,377.0857,979.3747,376.58,982.96" style="stroke:#383838;stroke-width:2.0;"/><polygon fill="#383838" points="361,968.8438,361.0449,968.8976,362.1116,967.7377,363.4412,966.8932,364.6853,965.9461,365.6478,964.6611,367,963.8438,366.9759,963.8341,366.468,964.791,366.0813,965.7963,365.7789,966.8353,365.186,967.7582,365,968.8438,365.1713,968.9123,365.2049,969.7657,365.7388,970.8193,366.3337,971.8972,366.5735,972.8331,367,973.8438,367.0146,973.8612,365.7932,972.8356,364.6381,971.8895,363.451,970.905,362.325,969.9937,361,968.8438" style="stroke:#383838;stroke-width:1.0;"/><text fill="#000000" font-family="FG Virgil" font-size="14" font-style="italic" lengthAdjust="spacingAndGlyphs" textLength="87" x="665.5" y="63.9951">«repository»</text><text fill="#000000" font-family="FG Virgil" font-size="14" lengthAdjust="spacingAndGlyphs" textLength="122" x="648" y="80.292">PedidoRepository</text><path d="M694,15 L694,15 L694.0651,15.067 L695.6716,13.118 L697.6599,11.5616 L699.5238,9.8774 L700.979,7.7727 L703,6.25 L702.9952,6.2158 L704.7739,5.8122 L706.5766,5.5812 L708.3958,5.47 L710.1577,4.9456 L712,5 L712,5 L712.0339,5.2437 L713.7615,4.9725 L715.5879,5.4129 L717.4264,5.9402 L719.1948,5.9622 L721,6.25 L721.0211,6.2717 L722.7901,7.9898 L724.6553,9.8069 L726.4741,11.5762 L728.3815,13.4366 L730,15 L730.5965,15 L730.6038,20.2 L730.2263,25.4 L730.4121,30.6 L730.6242,35.8 L730,41 L730,41 L729.7766,40.7702 L728.4102,42.9662 L726.3081,44.4055 L724.7654,46.4201 L722.6466,47.8423 L721,49.75 L720.9958,49.7198 L719.2453,50.3265 L717.397,50.2285 L715.6064,50.5464 L713.8207,50.8991 L712,51 L712,51 L712.0254,51.1832 L710.1998,50.7483 L708.4176,50.6264 L706.565,49.998 L704.8174,50.1252 L703,49.75 L703.1698,49.9247 L701.3377,48.1417 L699.5899,46.4453 L697.4503,44.3461 L695.5979,42.5422 L694,41 L693.4476,41 L693.9477,35.8 L693.8253,30.6 L694.6057,25.4 L693.8447,20.2 L694,15 " fill="#F8F8F8" style="stroke:#000000;stroke-width:1.5;"/><path d="M694,15 L694,15 L694.0651,15.067 L695.6716,16.618 L697.6599,18.5616 L699.5238,20.3774 L700.979,21.7727 L703,23.75 L702.9952,23.7158 L704.7739,23.8122 L706.5766,24.0812 L708.3958,24.47 L710.1577,24.4456 L712,25 L712,25 L712.0339,25.2437 L713.7615,24.4725 L715.5879,24.4129 L717.4264,24.4402 L719.1948,23.9622 L721,23.75 L721.0211,23.7717 L722.7901,21.9898 L724.6553,20.3069 L726.4741,18.5762 L728.3815,16.9366 L730,15 " fill="none" style="stroke:#000000;stroke-width:1.5;"/><text fill="#000000" font-family="FG Virgil" font-size="14" font-style="italic" lengthAdjust="spacingAndGlyphs" textLength="87" x="665.5" y="945.2451">«repository»</text><text fill="#000000" font-family="FG Virgil" font-size="14" lengthAdjust="spacingAndGlyphs" textLength="122" x="648" y="961.542">PedidoRepository</text><path d="M694,974.8438 L694,974.8438 L694.0651,974.9107 L695.6716,972.9617 L697.6599,971.4053 L699.5238,969.7211 L700.979,967.6164 L703,966.0938 L702.9952,966.0595 L704.7739,965.656 L706.5766,965.4249 L708.3958,965.3137 L710.1577,964.7894 L712,964.8438 L712,964.8438 L712.0339,965.0875 L713.7615,964.8163 L715.5879,965.2567 L717.4264,965.7839 L719.1948,965.806 L721,966.0938 L721.0211,966.1155 L722.7901,967.8336 L724.6553,969.6506 L726.4741,971.42 L728.3815,973.2804 L730,974.8438 L730.5965,974.8438 L730.6038,980.0438 L730.2263,985.2438 L730.4121,990.4438 L730.6242,995.6438 L730,1000.8438 L730,1000.8438 L729.7766,1000.6139 L728.4102,1002.81 L726.3081,1004.2493 L724.7654,1006.2639 L722.6466,1007.686 L721,1009.5938 L720.9958,1009.5636 L719.2453,1010.1702 L717.397,1010.0723 L715.6064,1010.3901 L713.8207,1010.7428 L712,1010.8438 L712,1010.8438 L712.0254,1011.027 L710.1998,1010.592 L708.4176,1010.4702 L706.565,1009.8418 L704.8174,1009.9689 L703,1009.5938 L703.1698,1009.7684 L701.3377,1007.9854 L699.5899,1006.2891 L697.4503,1004.1898 L695.5979,1002.3859 L694,1000.8438 L693.4476,1000.8438 L693.9477,995.6438 L693.8253,990.4438 L694.6057,985.2438 L693.8447,980.0438 L694,974.8438 " fill="#F8F8F8" style="stroke:#000000;stroke-width:1.5;"/><path d="M694,974.8438 L694,974.8438 L694.0651,974.9107 L695.6716,976.4617 L697.6599,978.4053 L699.5238,980.2211 L700.979,981.6164 L703,983.5938 L702.9952,983.5595 L704.7739,983.656 L706.5766,983.9249 L708.3958,984.3137 L710.1577,984.2894 L712,984.8438 L712,984.8438 L712.0339,985.0875 L713.7615,984.3163 L715.5879,984.2567 L717.4264,984.2839 L719.1948,983.806 L721,983.5938 L721.0211,983.6155 L722.7901,981.8336 L724.6553,980.1506 L726.4741,978.42 L728.3815,976.7804 L730,974.8438 " fill="none" style="stroke:#000000;stroke-width:1.5;"/><text fill="#000000" font-family="FG Virgil" font-size="14" font-style="italic" lengthAdjust="spacingAndGlyphs" textLength="87" x="821.5" y="63.9951">«repository»</text><text fill="#000000" font-family="FG Virgil" font-size="14" lengthAdjust="spacingAndGlyphs" textLength="158" x="786" y="80.292">ColaboradorRepository</text><path d="M850,15 L850,15 L850.0651,15.067 L851.6716,13.118 L853.6599,11.5616 L855.5238,9.8774 L856.979,7.7727 L859,6.25 L858.9952,6.2158 L860.7739,5.8122 L862.5766,5.5812 L864.3958,5.47 L866.1577,4.9456 L868,5 L868,5 L868.0339,5.2437 L869.7615,4.9725 L871.5879,5.4129 L873.4264,5.9402 L875.1948,5.9622 L877,6.25 L877.0211,6.2717 L878.7901,7.9898 L880.6553,9.8069 L882.4741,11.5762 L884.3815,13.4366 L886,15 L886.5965,15 L886.6038,20.2 L886.2263,25.4 L886.4121,30.6 L886.6242,35.8 L886,41 L886,41 L885.7766,40.7702 L884.4102,42.9662 L882.3081,44.4055 L880.7654,46.4201 L878.6466,47.8423 L877,49.75 L876.9958,49.7198 L875.2453,50.3265 L873.397,50.2285 L871.6064,50.5464 L869.8207,50.8991 L868,51 L868,51 L868.0254,51.1832 L866.1998,50.7483 L864.4176,50.6264 L862.565,49.998 L860.8174,50.1252 L859,49.75 L859.1698,49.9247 L857.3377,48.1417 L855.5899,46.4453 L853.4503,44.3461 L851.5979,42.5422 L850,41 L849.4476,41 L849.9477,35.8 L849.8253,30.6 L850.6057,25.4 L849.8447,20.2 L850,15 " fill="#F8F8F8" style="stroke:#000000;stroke-width:1.5;"/><path d="M850,15 L850,15 L850.0651,15.067 L851.6716,16.618 L853.6599,18.5616 L855.5238,20.3774 L856.979,21.7727 L859,23.75 L858.9952,23.7158 L860.7739,23.8122 L862.5766,24.0812 L864.3958,24.47 L866.1577,24.4456 L868,25 L868,25 L868.0339,25.2437 L869.7615,24.4725 L871.5879,24.4129 L873.4264,24.4402 L875.1948,23.9622 L877,23.75 L877.0211,23.7717 L878.7901,21.9898 L880.6553,20.3069 L882.4741,18.5762 L884.3815,16.9366 L886,15 " fill="none" style="stroke:#000000;stroke-width:1.5;"/><text fill="#000000" font-family="FG Virgil" font-size="14" font-style="italic" lengthAdjust="spacingAndGlyphs" textLength="87" x="821.5" y="945.2451">«repository»</text><text fill="#000000" font-family="FG Virgil" font-size="14" lengthAdjust="spacingAndGlyphs" textLength="158" x="786" y="961.542">ColaboradorRepository</text><path d="M850,974.8438 L850,974.8438 L850.0651,974.9107 L851.6716,972.9617 L853.6599,971.4053 L855.5238,969.7211 L856.979,967.6164 L859,966.0938 L858.9952,966.0595 L860.7739,965.656 L862.5766,965.4249 L864.3958,965.3137 L866.1577,964.7894 L868,964.8438 L868,964.8438 L868.0339,965.0875 L869.7615,964.8163 L871.5879,965.2567 L873.4264,965.7839 L875.1948,965.806 L877,966.0938 L877.0211,966.1155 L878.7901,967.8336 L880.6553,969.6506 L882.4741,971.42 L884.3815,973.2804 L886,974.8438 L886.5965,974.8438 L886.6038,980.0438 L886.2263,985.2438 L886.4121,990.4438 L886.6242,995.6438 L886,1000.8438 L886,1000.8438 L885.7766,1000.6139 L884.4102,1002.81 L882.3081,1004.2493 L880.7654,1006.2639 L878.6466,1007.686 L877,1009.5938 L876.9958,1009.5636 L875.2453,1010.1702 L873.397,1010.0723 L871.6064,1010.3901 L869.8207,1010.7428 L868,1010.8438 L868,1010.8438 L868.0254,1011.027 L866.1998,1010.592 L864.4176,1010.4702 L862.565,1009.8418 L860.8174,1009.9689 L859,1009.5938 L859.1698,1009.7684 L857.3377,1007.9854 L855.5899,1006.2891 L853.4503,1004.1898 L851.5979,1002.3859 L850,1000.8438 L849.4476,1000.8438 L849.9477,995.6438 L849.8253,990.4438 L850.6057,985.2438 L849.8447,980.0438 L850,974.8438 " fill="#F8F8F8" style="stroke:#000000;stroke-width:1.5;"/><path d="M850,974.8438 L850,974.8438 L850.0651,974.9107 L851.6716,976.4617 L853.6599,978.4053 L855.5238,980.2211 L856.979,981.6164 L859,983.5938 L858.9952,983.5595 L860.7739,983.656 L862.5766,983.9249 L864.3958,984.3137 L866.1577,984.2894 L868,984.8438 L868,984.8438 L868.0339,985.0875 L869.7615,984.3163 L871.5879,984.2567 L873.4264,984.2839 L875.1948,983.806 L877,983.5938 L877.0211,983.6155 L878.7901,981.8336 L880.6553,980.1506 L882.4741,978.42 L884.3815,976.7804 L886,974.8438 " fill="none" style="stroke:#000000;stroke-width:1.5;"/><polygon fill="#F8F8F8" points="960,36,960,36.2102,970.375,35.5857,980.75,36.1933,991.125,36.3997,1001.5,35.2866,1011.875,35.9223,1022.25,35.5735,1032.625,35.6165,1043,36,1042.9318,36,1042.3086,45.3188,1043.5536,54.6375,1042.3697,63.9563,1042.8022,73.275,1043,82.5938,1043,83.0257,1032.625,82.508,1022.25,82.662,1011.875,82.5618,1001.5,82.7723,991.125,82.8329,980.75,83.1794,970.375,83.2648,960,82.5938,960.6793,82.5938,960.2546,73.275,960.4636,63.9563,960.7022,54.6375,959.2788,45.3188,960,36" style="stroke:#383838;stroke-width:1.5;"/><text fill="#000000" font-family="FG Virgil" font-size="14" font-style="italic" lengthAdjust="spacingAndGlyphs" textLength="69" x="967" y="55.9951">«domain»</text><text fill="#000000" font-family="FG Virgil" font-size="14" lengthAdjust="spacingAndGlyphs" textLength="48" x="977.5" y="72.292">Pedido</text><polygon fill="#F8F8F8" points="960,932.25,960,932.4602,970.375,931.8357,980.75,932.4433,991.125,932.6497,1001.5,931.5366,1011.875,932.1723,1022.25,931.8235,1032.625,931.8665,1043,932.25,1042.9318,932.25,1042.3086,941.5688,1043.5536,950.8875,1042.3697,960.2063,1042.8022,969.525,1043,978.8438,1043,979.2757,1032.625,978.758,1022.25,978.912,1011.875,978.8118,1001.5,979.0223,991.125,979.0829,980.75,979.4294,970.375,979.5148,960,978.8438,960.6793,978.8438,960.2546,969.525,960.4636,960.2063,960.7022,950.8875,959.2788,941.5688,960,932.25" style="stroke:#383838;stroke-width:1.5;"/><text fill="#000000" font-family="FG Virgil" font-size="14" font-style="italic" lengthAdjust="spacingAndGlyphs" textLength="69" x="967" y="952.2451">«domain»</text><text fill="#000000" font-family="FG Virgil" font-size="14" lengthAdjust="spacingAndGlyphs" textLength="48" x="977.5" y="968.542">Pedido</text><polygon fill="#F8F8F8" points="1053,36,1053,36.2102,1062.8889,35.5857,1072.7778,36.1933,1082.6667,36.3997,1092.5556,35.2866,1102.4444,35.9223,1112.3333,35.5735,1122.2222,35.6165,1132.1111,35.9318,1142,36,1141.3086,36,1142.5536,45.3188,1141.3697,54.6375,1141.8022,63.9563,1142.4319,73.275,1142,82.5938,1142,82.508,1132.1111,82.662,1122.2222,82.5618,1112.3333,82.7723,1102.4444,82.8329,1092.5556,83.1794,1082.6667,83.2648,1072.7778,83.273,1062.8889,82.8484,1053,82.5938,1053.4636,82.5938,1053.7022,73.275,1052.2788,63.9563,1053.6785,54.6375,1052.7035,45.3188,1053,36" style="stroke:#383838;stroke-width:1.5;"/><text fill="#000000" font-family="FG Virgil" font-size="14" font-style="italic" lengthAdjust="spacingAndGlyphs" textLength="69" x="1063" y="55.9951">«domain»</text><text fill="#000000" font-family="FG Virgil" font-size="14" lengthAdjust="spacingAndGlyphs" textLength="75" x="1060" y="72.292">ValidaForm</text><polygon fill="#F8F8F8" points="1053,932.25,1053,932.4602,1062.8889,931.8357,1072.7778,932.4433,1082.6667,932.6497,1092.5556,931.5366,1102.4444,932.1723,1112.3333,931.8235,1122.2222,931.8665,1132.1111,932.1818,1142,932.25,1141.3086,932.25,1142.5536,941.5688,1141.3697,950.8875,1141.8022,960.2063,1142.4319,969.525,1142,978.8438,1142,978.758,1132.1111,978.912,1122.2222,978.8118,1112.3333,979.0223,1102.4444,979.0829,1092.5556,979.4294,1082.6667,979.5148,1072.7778,979.523,1062.8889,979.0984,1053,978.8438,1053.4636,978.8438,1053.7022,969.525,1052.2788,960.2063,1053.6785,950.8875,1052.7035,941.5688,1053,932.25" style="stroke:#383838;stroke-width:1.5;"/><text fill="#000000" font-family="FG Virgil" font-size="14" font-style="italic" lengthAdjust="spacingAndGlyphs" textLength="69" x="1063" y="952.2451">«domain»</text><text fill="#000000" font-family="FG Virgil" font-size="14" lengthAdjust="spacingAndGlyphs" textLength="75" x="1060" y="968.542">ValidaForm</text><polygon fill="#FFFFFF" points="77,93.5938,77,93.6638,79,93.4556,81,93.6582,83,93.727,85,93.356,87,93.5938,86.9223,93.5938,86.5735,103.6139,86.6165,113.6341,86.9318,123.6543,86.3086,133.6745,87.5536,143.6947,86.3697,153.7149,86.8022,163.7351,87.4319,173.7553,86.9142,183.7755,87.0682,193.7957,86.9681,203.8159,87.1785,213.8361,87.2391,223.8563,87.5857,233.8765,87.6711,243.8967,87.6793,253.9169,87.2546,263.9371,87.4636,273.9573,87.7022,283.9775,86.2788,293.9977,87.6785,304.0179,86.7035,314.0381,87.5338,324.0583,86.505,334.0785,86.9315,344.0987,87.7416,354.1189,86.9513,364.1391,87.1053,374.1593,87.3386,384.1795,87.4162,394.1997,86.9961,404.2199,87.2872,414.2401,86.4276,424.2603,87.2844,434.2805,87.5482,444.3007,87.4445,454.3209,87.613,464.3411,86.5169,474.3613,86.3478,484.3815,86.3786,494.4017,86.9411,504.4219,86.8035,514.4421,87.6814,524.4623,86.8253,534.4825,86.6569,544.5027,87.2283,554.5229,86.3332,564.5431,86.4809,574.5633,87.649,584.5835,87.4357,594.6037,87.7345,604.6239,86.6782,614.6441,87.3192,624.6643,87.5904,634.6845,86.5276,644.7046,86.9041,654.7248,87.126,664.745,87.6518,674.7652,86.9958,684.7854,87.4626,694.8056,86.4462,704.8258,86.3227,714.846,87.5036,724.8662,86.2831,734.8864,87.509,744.9066,87.2066,754.9268,86.7321,764.947,86.6462,774.9672,87.4588,784.9874,86.7007,795.0076,87.5919,805.0278,86.4473,815.048,87.6174,825.0682,87.4843,835.0884,87.245,845.1086,87.0472,855.1288,87.7266,865.149,87.6136,875.1692,87.1693,885.1894,87.2682,895.2096,86.8697,905.2298,87,915.25,87,915.4888,85,915.3016,83,915.3075,81,915.0472,79,915.1149,77,915.25,77.5307,915.25,77.4298,905.2298,76.9571,895.2096,76.6778,885.1894,76.7811,875.1692,76.3138,865.149,77.4147,855.1288,77.7396,845.1086,77.5264,835.0884,77.6949,825.0682,76.8633,815.048,77.0872,805.0278,76.6124,795.0076,77.284,784.9874,77.2468,774.9672,77.5524,764.947,76.7703,754.9268,76.8656,744.9066,77.4435,734.8864,77.5673,724.8662,76.4875,714.846,76.8061,704.8258,77.1493,694.8056,76.3892,684.7854,77.3534,674.7652,77.258,664.745,76.8992,654.7248,77.1422,644.7046,77.7287,634.6845,76.6871,624.6643,77.315,614.6441,77.2856,604.6239,77.1158,594.6037,77.1409,584.5835,77.1135,574.5633,76.3758,564.5431,76.5992,554.5229,76.5385,544.5027,77.0638,534.4825,77.0881,524.4623,77.1617,514.4421,76.709,504.4219,76.9325,494.4017,76.8798,484.3815,77.5769,474.3613,77.4266,464.3411,76.5145,454.3209,76.9271,444.3007,76.4228,434.2805,77.2884,424.2603,77.6085,414.2401,77.5446,404.2199,76.5644,394.1997,77.464,384.1795,76.2572,374.1593,77.2002,364.1391,76.7007,354.1189,77.0967,344.0987,77.2403,334.0785,77.4721,324.0583,76.2801,314.0381,77.4755,304.0179,77.1782,293.9977,77.3553,283.9775,77.7478,273.9573,77.0055,263.9371,77.1753,253.9169,77.2134,243.8967,77.1972,233.8765,76.9992,223.8563,77.7107,213.8361,76.3903,203.8159,77.5653,193.7957,76.376,183.7755,76.4597,173.7553,77.04,163.7351,77.0283,153.7149,76.5072,143.6947,77.4137,133.6745,77.1089,123.6543,77.7267,113.6341,77.6671,103.6139,77,93.5938" style="stroke:#383838;stroke-width:1.0;"/><polygon fill="#FFFFFF" points="360,207.125,360,207.1951,362,206.9869,364,207.1894,366,207.2582,368,206.8872,370,207.125,369.9223,207.125,369.5735,216.9805,369.6165,226.8359,369.9318,236.6914,369.3086,246.5469,370.5536,256.4023,370,266.2578,370,266.0477,368,266.1919,366,266.4018,364,266.2292,362,266.2806,360,266.2578,359.9681,266.2578,360.1785,256.4023,360.2391,246.5469,360.5857,236.6914,360.6711,226.8359,360.6793,216.9805,360,207.125" style="stroke:#383838;stroke-width:1.0;"/><polygon fill="#FFFFFF" points="360,295.3906,360,295.4607,362,295.2525,364,295.4551,366,295.5239,368,295.1528,370,295.3906,369.9223,295.3906,369.5735,305.2461,369.6165,315.1016,369.9318,324.957,369.3086,334.8125,370.5536,344.668,370,354.5234,370,354.3133,368,354.4575,366,354.6674,364,354.4948,362,354.5462,360,354.5234,359.9681,354.5234,360.1785,344.668,360.2391,334.8125,360.5857,324.957,360.6711,315.1016,360.6793,305.2461,360,295.3906" style="stroke:#383838;stroke-width:1.0;"/><polygon fill="#FFFFFF" points="360,383.6563,360,383.7263,362,383.5181,364,383.7207,366,383.7895,368,383.4185,370,383.6563,369.9223,383.6563,369.5735,393.5117,369.6165,403.3672,369.9318,413.2227,369.3086,423.0781,370.5536,432.9336,370,442.7891,370,442.579,368,442.7231,366,442.933,364,442.7605,362,442.8118,360,442.7891,359.9681,442.7891,360.1785,432.9336,360.2391,423.0781,360.5857,413.2227,360.6711,403.3672,360.6793,393.5117,360,383.6563" style="stroke:#383838;stroke-width:1.0;"/><polygon fill="#FFFFFF" points="360,496.0547,360,496.1247,362,495.9166,364,496.1191,366,496.1879,368,495.8169,370,496.0547,369.9223,496.0547,369.5735,505.9102,369.6165,515.7656,369.9318,525.6211,369.3086,535.4766,370.5536,545.332,370,555.1875,370,554.9774,368,555.1216,366,555.3315,364,555.1589,362,555.2102,360,555.1875,359.9681,555.1875,360.1785,545.332,360.2391,535.4766,360.5857,525.6211,360.6711,515.7656,360.6793,505.9102,360,496.0547" style="stroke:#383838;stroke-width:1.0;"/><polygon fill="#FFFFFF" points="360,584.3203,360,584.3904,362,584.1822,364,584.3847,366,584.4535,368,584.0825,370,584.3203,369.9223,584.3203,369.5735,594.1758,369.6165,604.0313,369.9318,613.8867,369.3086,623.7422,370.5536,633.5977,370,643.4531,370,643.243,368,643.3872,366,643.5971,364,643.4245,362,643.4759,360,643.4531,359.9681,643.4531,360.1785,633.5977,360.2391,623.7422,360.5857,613.8867,360.6711,604.0313,360.6793,594.1758,360,584.3203" style="stroke:#383838;stroke-width:1.0;"/><polygon fill="#FFFFFF" points="360,672.5859,360,672.656,362,672.4478,364,672.6504,366,672.7192,368,672.3481,370,672.5859,369.9223,672.5859,369.5735,682.4414,369.6165,692.2969,369.9318,702.1523,369.3086,712.0078,370.5536,721.8633,370,731.7188,370,731.5087,368,731.6528,366,731.8627,364,731.6902,362,731.7415,360,731.7188,359.9681,731.7188,360.1785,721.8633,360.2391,712.0078,360.5857,702.1523,360.6711,692.2969,360.6793,682.4414,360,672.5859" style="stroke:#383838;stroke-width:1.0;"/><polygon fill="#FFFFFF" points="360,767.8516,360,767.9216,362,767.7135,364,767.916,366,767.9848,368,767.6138,370,767.8516,369.9223,767.8516,369.5735,777.707,369.6165,787.5625,369.9318,797.418,369.3086,807.2734,370.5536,817.1289,370,826.9844,370,826.7743,368,826.9185,366,827.1284,364,826.9558,362,827.0071,360,826.9844,359.9681,826.9844,360.1785,817.1289,360.2391,807.2734,360.5857,797.418,360.6711,787.5625,360.6793,777.707,360,767.8516" style="stroke:#383838;stroke-width:1.0;"/><polygon fill="#FFFFFF" points="360,856.1172,360,856.1872,362,855.9791,364,856.1816,366,856.2504,368,855.8794,370,856.1172,369.9223,856.1172,369.5735,865.9727,369.6165,875.8281,369.9318,885.6836,369.3086,895.5391,370.5536,905.3945,370,915.25,370,915.0399,368,915.1841,366,915.394,364,915.2214,362,915.2727,360,915.25,359.9681,915.25,360.1785,905.3945,360.2391,895.5391,360.5857,885.6836,360.6711,875.8281,360.6793,865.9727,360,856.1172" style="stroke:#383838;stroke-width:1.0;"/><polygon fill="#FFFFFF" points="707,324.5234,707,324.5935,709,324.3853,711,324.5879,713,324.6567,715,324.2856,717,324.5234,716.9741,324.5234,716.8578,330.5234,716.8722,336.5234,716.9773,342.5234,716.7695,348.5234,717,354.5234,717,354.708,715,354.3133,713,354.4575,711,354.6674,709,354.4948,707,354.5234,707.0227,354.5234,706.9894,348.5234,707.0595,342.5234,707.0797,336.5234,707.1952,330.5234,707,324.5234" style="stroke:#383838;stroke-width:1.0;"/><polygon fill="#FFFFFF" points="707,412.7891,707,412.8591,709,412.651,711,412.8535,713,412.9223,715,412.5513,717,412.7891,716.9741,412.7891,716.8578,418.7891,716.8722,424.7891,716.9773,430.7891,716.7695,436.7891,717,442.7891,717,442.9736,715,442.579,713,442.7231,711,442.933,709,442.7605,707,442.7891,707.0227,442.7891,706.9894,436.7891,707.0595,430.7891,707.0797,424.7891,707.1952,418.7891,707,412.7891" style="stroke:#383838;stroke-width:1.0;"/><polygon fill="#FFFFFF" points="707,525.1875,707,525.2576,709,525.0494,711,525.2519,713,525.3207,715,524.9497,717,525.1875,716.9741,525.1875,716.8578,531.1875,716.8722,537.1875,716.9773,543.1875,716.7695,549.1875,717,555.1875,717,555.372,715,554.9774,713,555.1216,711,555.3315,709,555.1589,707,555.1875,707.0227,555.1875,706.9894,549.1875,707.0595,543.1875,707.0797,537.1875,707.1952,531.1875,707,525.1875" style="stroke:#383838;stroke-width:1.0;"/><polygon fill="#FFFFFF" points="707,885.25,707,885.3201,709,885.1119,711,885.3144,713,885.3832,715,885.0122,717,885.25,716.9741,885.25,716.8578,891.25,716.8722,897.25,716.9773,903.25,716.7695,909.25,717,915.25,717,915.4345,715,915.0399,713,915.1841,711,915.394,709,915.2214,707,915.25,707.0227,915.25,706.9894,909.25,707.0595,903.25,707.0797,897.25,707.1952,891.25,707,885.25" style="stroke:#383838;stroke-width:1.0;"/><polygon fill="#FFFFFF" points="863,236.2578,863,236.3279,865,236.1197,867,236.3222,869,236.391,871,236.02,873,236.2578,872.9741,236.2578,872.8578,242.2578,872.8722,248.2578,872.9773,254.2578,872.7695,260.2578,873,266.2578,873,266.4424,871,266.0477,869,266.1919,867,266.4018,865,266.2292,863,266.2578,863.0227,266.2578,862.9894,260.2578,863.0595,254.2578,863.0797,248.2578,863.1952,242.2578,863,236.2578" style="stroke:#383838;stroke-width:1.0;"/><polygon fill="#FFFFFF" points="996.5,613.4531,996.5,613.5232,998.5,613.315,1000.5,613.5176,1002.5,613.5864,1004.5,613.2153,1006.5,613.4531,1006.4741,613.4531,1006.3578,619.4531,1006.3722,625.4531,1006.4773,631.4531,1006.2695,637.4531,1006.5,643.4531,1006.5,643.6377,1004.5,643.243,1002.5,643.3872,1000.5,643.5971,998.5,643.4245,996.5,643.4531,996.5227,643.4531,996.4894,637.4531,996.5595,631.4531,996.5797,625.4531,996.6952,619.4531,996.5,613.4531" style="stroke:#383838;stroke-width:1.0;"/><polygon fill="#FFFFFF" points="996.5,796.9844,996.5,797.0544,998.5,796.8463,1000.5,797.0488,1002.5,797.1176,1004.5,796.7466,1006.5,796.9844,1006.4741,796.9844,1006.3578,802.9844,1006.3722,808.9844,1006.4773,814.9844,1006.2695,820.9844,1006.5,826.9844,1006.5,827.1689,1004.5,826.7743,1002.5,826.9185,1000.5,827.1284,998.5,826.9558,996.5,826.9844,996.5227,826.9844,996.4894,820.9844,996.5595,814.9844,996.5797,808.9844,996.6952,802.9844,996.5,796.9844" style="stroke:#383838;stroke-width:1.0;"/><polygon fill="#FFFFFF" points="1092.5,701.7188,1092.5,701.7888,1094.5,701.5806,1096.5,701.7832,1098.5,701.852,1100.5,701.481,1102.5,701.7188,1102.4741,701.7188,1102.3578,707.7188,1102.3722,713.7188,1102.4773,719.7188,1102.2695,725.7188,1102.5,731.7188,1102.5,731.9033,1100.5,731.5087,1098.5,731.6528,1096.5,731.8627,1094.5,731.6902,1092.5,731.7188,1092.5227,731.7188,1092.4894,725.7188,1092.5595,719.7188,1092.5797,713.7188,1092.6952,707.7188,1092.5,701.7188" style="stroke:#383838;stroke-width:1.0;"/><path d="M87,114.7266 L87,114.82 L95.4,114.5424 L103.8,114.8125 L112.2,114.9042 L120.6,114.4095 L129,114.7266 " fill="none" style="stroke:#383838;stroke-width:1.0;"/><path d="M129,114.7266 L129.0934,114.7266 L128.8159,117.3266 L129.0859,119.9266 L129.1776,122.5266 L128.6829,125.1266 L129,127.7266 " fill="none" style="stroke:#383838;stroke-width:1.0;"/><path d="M88,127.7266 L88,127.82 L96.2,127.5424 L104.4,127.8125 L112.6,127.9042 L120.8,127.4095 L129,127.7266 " fill="none" style="stroke:#383838;stroke-width:1.0;"/><polygon fill="#383838" points="98,123.7266,98.026,123.7916,95.9487,124.3983,94.0239,125.3864,92.0495,126.2503,89.9117,126.7058,88,127.7266,87.9904,127.7025,89.9472,128.3946,91.9525,129.2079,93.9916,130.1055,95.9144,130.7126,98,131.7266,98.1305,131.8571,97.0514,130.778,96.3534,130.0799,95.7018,129.4284,94.7798,128.5063,94,127.7266,94.0161,127.7426,94.7925,126.919,95.6421,126.1686,96.4564,125.3829,97.338,124.6646,98,123.7266" style="stroke:#383838;stroke-width:1.0;"/><text fill="#000000" font-family="FG Virgil" font-size="13" lengthAdjust="spacingAndGlyphs" textLength="60" x="94" y="109.6606">doShow()</text><path d="M17,140.7266 L17.1868,140.7266 L16.6317,148.7266 L17.1718,156.7266 L17.3553,164.7266 L16.3659,172.7266 L17,180.7266 L17,180.5193 L26.9429,179.5892 L36.8857,179.7039 L46.8286,180.5448 L56.7714,178.8829 L66.7143,182.2029 L76.6571,179.0458 L86.6,180.1992 L96.5429,181.8784 L106.4857,180.4978 L116.4286,180.9085 L126.3714,180.6414 L136.3143,181.2026 L146.2571,181.3643 L156.2,182.2884 L166.1429,182.516 L176.0857,182.5379 L186.0286,181.4056 L195.9714,181.9628 L205.9143,182.5992 L215.8571,178.8034 L225.8,182.5359 L235.7429,179.9359 L245.6857,182.1501 L255.6286,179.4065 L265.5714,180.5439 L275.5143,182.7042 L285.4571,180.5966 L295.4,181.0074 L305.3429,181.6296 L315.2857,181.8365 L325.2286,180.7161 L335.1714,181.4925 L345.1143,179.2001 L355.0571,181.4849 L365,182.1884 L374.9429,181.912 L384.8857,182.3613 L394.8286,179.4383 L404.7714,178.9874 L414.7143,179.0695 L424.6571,180.5695 L434.6,180.2025 L444.5429,182.5437 L454.4857,180.2608 L464.4286,179.8118 L474.3714,181.3353 L484.3143,178.9483 L494.2571,179.3422 L504.2,182.4571 L514.1429,181.8883 L524.0857,182.6852 L534.0286,179.8684 L543.9714,181.5778 L553.9143,182.301 L563.8571,179.4668 L573.8,180.4709 L583.7429,181.0625 L593.6857,182.4646 L603.6286,180.7154 L613.5714,181.9601 L623.5143,179.2498 L633.4571,178.9205 L643.4,182.0695 L653.3429,178.8147 L663.2857,182.0838 L673.2286,181.2776 L683.1714,180.0121 L693.1143,179.7832 L703.0571,181.9499 L713,180.7266 L712.7339,180.7266 L713.5261,174.7266 L712.5087,168.7266 L713.5488,162.7266 L713.4305,156.7266 L713,150.7266 L713.154,150.8805 L711.0297,148.7562 L709.4567,147.1833 L707.3857,145.1122 L705.1064,142.8329 L703,140.7266 L703,141.4417 L693.058,140.3792 L683.1159,142.6371 L673.1739,141.1395 L663.2319,141.1868 L653.2899,139.1043 L643.3478,139.646 L633.4058,142.1419 L623.4638,141.8726 L613.5217,140.6121 L603.5797,139.8674 L593.6377,140.1428 L583.6957,138.8968 L573.7536,141.8325 L563.8116,142.6987 L553.8696,142.1303 L543.9275,142.5797 L533.9855,140.362 L524.0435,140.9592 L514.1014,139.693 L504.1594,141.484 L494.2174,141.3846 L484.2754,142.1996 L474.3333,140.1141 L464.3913,140.3681 L454.4493,141.9091 L444.5072,142.2395 L434.5652,139.3598 L424.6232,140.2095 L414.6812,141.1246 L404.7391,139.0976 L394.7971,141.6689 L384.8551,141.4145 L374.913,140.4579 L364.971,141.1059 L355.029,142.6697 L345.087,139.8922 L335.1449,141.5665 L325.2029,141.4883 L315.2609,141.0353 L305.3188,141.1024 L295.3768,141.0292 L285.4348,139.0621 L275.4928,139.6577 L265.5507,139.4958 L255.6087,140.8968 L245.6667,140.9616 L235.7246,141.1579 L225.7826,139.9506 L215.8406,140.5465 L205.8986,140.406 L195.9565,142.2648 L186.0145,141.8641 L176.0725,139.4318 L166.1304,140.5321 L156.1884,139.1873 L146.2464,141.4956 L136.3043,142.3492 L126.3623,142.1787 L116.4203,139.5651 L106.4783,141.9638 L96.5362,138.7457 L86.5942,141.2603 L76.6522,139.9284 L66.7101,140.9845 L56.7681,141.3675 L46.8261,141.9855 L36.8841,138.8068 L26.942,141.9945 L17,140.7266 " fill="#ECECEC" style="stroke:#383838;stroke-width:1.0;"/><path d="M703,140.7266 L703.1584,140.7266 L703.3158,142.7266 L703.6647,144.7266 L703.0049,146.7266 L703.1558,148.7266 L703,150.7266 L703,150.9163 L705,150.9019 L707,150.7258 L709,151.3583 L711,150.1846 L713,150.7266 L713.3553,151.0819 L710.6078,148.3344 L708.6604,146.387 L707.0251,144.7517 L705.0178,142.7443 L703,140.7266 " fill="#ECECEC" style="stroke:#383838;stroke-width:1.0;"/><text fill="#000000" font-family="FG Virgil" font-size="13" lengthAdjust="spacingAndGlyphs" textLength="620" x="23" y="157.7935">Para efeitos de simplificação do diagrama, não foram representadas todas as classes repository,</text><text fill="#000000" font-family="FG Virgil" font-size="13" lengthAdjust="spacingAndGlyphs" textLength="671" x="27" y="172.9263">a classe persistence e a classe factory, tendo sido utilizado o procedimento dos casos de uso do sprint B</text><polygon fill="#383838" points="348,203.125,348.026,203.19,349.9487,203.7968,352.0239,204.7848,354.0495,205.6487,355.9117,206.1042,358,207.125,357.9904,207.1009,355.9472,207.793,353.9525,208.6063,351.9916,209.5039,349.9144,210.111,348,211.125,348.1305,211.2555,348.6514,210.1764,349.5534,209.4784,350.5018,208.8268,351.1798,207.9048,352,207.125,352.0161,207.1411,351.1925,206.3175,350.4421,205.5671,349.6564,204.7814,348.938,204.063,348,203.125" style="stroke:#383838;stroke-width:1.0;"/><path d="M87,207.125 L87,207.4052 L96.8889,206.5726 L106.7778,207.3827 L116.6667,207.6579 L126.5556,206.1738 L136.4444,207.0214 L146.3333,206.5563 L156.2222,206.6137 L166.1111,207.0341 L176,206.2032 L185.8889,207.8632 L195.7778,206.2846 L205.6667,206.8613 L215.5556,207.7009 L225.4444,207.0106 L235.3333,207.216 L245.2222,207.0824 L255.1111,207.363 L265,207.4438 L274.8889,207.9059 L284.7778,208.0197 L294.6667,208.0307 L304.5556,207.4645 L314.4444,207.7431 L324.3333,208.0613 L334.2222,206.1634 L344.1111,208.0297 L354,207.125 " fill="none" style="stroke:#383838;stroke-width:1.0;"/><text fill="#000000" font-family="FG Virgil" font-size="13" lengthAdjust="spacingAndGlyphs" textLength="61" x="94" y="202.0591">getUser()</text><polygon fill="#383838" points="851,232.2578,851.026,232.3229,852.9487,232.9296,855.0239,233.9176,857.0495,234.7815,858.9117,235.237,861,236.2578,860.9904,236.2338,858.9472,236.9258,856.9525,237.7391,854.9916,238.6367,852.9144,239.2438,851,240.2578,851.1305,240.3883,851.6514,239.3093,852.5534,238.6112,853.5018,237.9596,854.1798,237.0376,855,236.2578,855.0161,236.2739,854.1925,235.4503,853.4421,234.6999,852.6564,233.9142,851.938,233.1959,851,232.2578" style="stroke:#383838;stroke-width:1.0;"/><path d="M370,236.2578 L370,236.5381 L379.9388,235.7054 L389.8776,236.5155 L399.8163,236.7907 L409.7551,235.3066 L419.6939,236.1542 L429.6327,235.6892 L439.5714,235.7465 L449.5102,236.1669 L459.449,235.336 L469.3878,236.996 L479.3265,235.4174 L489.2653,235.9941 L499.2041,236.8337 L509.1429,236.1434 L519.0816,236.3488 L529.0204,236.2152 L538.9592,236.4958 L548.898,236.5767 L558.8367,237.0387 L568.7755,237.1526 L578.7143,237.1635 L588.6531,236.5973 L598.5918,236.8759 L608.5306,237.1941 L618.4694,235.2962 L628.4082,237.1625 L638.3469,235.8625 L648.2857,236.9696 L658.2245,235.5978 L668.1633,236.1665 L678.102,237.2466 L688.0408,236.1928 L697.9796,236.3982 L707.9184,236.7093 L717.8571,236.8128 L727.7959,236.2526 L737.7347,236.6408 L747.6735,235.4946 L757.6122,236.637 L767.551,236.9887 L777.4898,236.8505 L787.4286,237.0752 L797.3673,235.6137 L807.3061,235.3882 L817.2449,235.4293 L827.1837,236.1793 L837.1224,235.9958 L847.0612,237.1664 L857,236.2578 " fill="none" style="stroke:#383838;stroke-width:1.0;"/><text fill="#000000" font-family="FG Virgil" font-size="13" lengthAdjust="spacingAndGlyphs" textLength="61" x="377" y="231.1919">getUser()</text><polygon fill="#383838" points="348,291.3906,348.026,291.4557,349.9487,292.0624,352.0239,293.0504,354.0495,293.9143,355.9117,294.3698,358,295.3906,357.9904,295.3666,355.9472,296.0586,353.9525,296.8719,351.9916,297.7695,349.9144,298.3767,348,299.3906,348.1305,299.5211,348.6514,298.4421,349.5534,297.744,350.5018,297.0924,351.1798,296.1704,352,295.3906,352.0161,295.4067,351.1925,294.5831,350.4421,293.8327,349.6564,293.047,348.938,292.3287,348,291.3906" style="stroke:#383838;stroke-width:1.0;"/><path d="M87,295.3906 L87,295.6709 L96.8889,294.8382 L106.7778,295.6483 L116.6667,295.9235 L126.5556,294.4394 L136.4444,295.287 L146.3333,294.822 L156.2222,294.8793 L166.1111,295.2997 L176,294.4688 L185.8889,296.1288 L195.7778,294.5503 L205.6667,295.1269 L215.5556,295.9666 L225.4444,295.2763 L235.3333,295.4816 L245.2222,295.348 L255.1111,295.6287 L265,295.7095 L274.8889,296.1715 L284.7778,296.2854 L294.6667,296.2963 L304.5556,295.7301 L314.4444,296.0087 L324.3333,296.3269 L334.2222,294.429 L344.1111,296.2953 L354,295.3906 " fill="none" style="stroke:#383838;stroke-width:1.0;"/><text fill="#000000" font-family="FG Virgil" font-size="13" lengthAdjust="spacingAndGlyphs" textLength="180" x="94" y="290.3247">getTarefasPendentes(colab)</text><polygon fill="#383838" points="695,320.5234,695.026,320.5885,696.9487,321.1952,699.0239,322.1833,701.0495,323.0471,702.9117,323.5026,705,324.5234,704.9904,324.4994,702.9472,325.1914,700.9525,326.0047,698.9916,326.9023,696.9144,327.5095,695,328.5234,695.1305,328.6539,695.6514,327.5749,696.5534,326.8768,697.5018,326.2252,698.1798,325.3032,699,324.5234,699.0161,324.5395,698.1925,323.7159,697.4421,322.9655,696.6564,322.1798,695.938,321.4615,695,320.5234" style="stroke:#383838;stroke-width:1.0;"/><path d="M370,324.5234 L370,324.8037 L380.0303,323.971 L390.0606,324.7812 L400.0909,325.0563 L410.1212,323.5722 L420.1515,324.4198 L430.1818,323.9548 L440.2121,324.0121 L450.2424,324.4326 L460.2727,323.6016 L470.303,325.2616 L480.3333,323.6831 L490.3636,324.2597 L500.3939,325.0994 L510.4242,324.4091 L520.4545,324.6144 L530.4848,324.4808 L540.5152,324.7615 L550.5455,324.8423 L560.5758,325.3044 L570.6061,325.4182 L580.6364,325.4291 L590.6667,324.8629 L600.697,325.1416 L610.7273,325.4597 L620.7576,323.5619 L630.7879,325.4281 L640.8182,324.1281 L650.8485,325.2352 L660.8788,323.8634 L670.9091,324.4321 L680.9394,325.5122 L690.9697,324.4585 L701,324.5234 " fill="none" style="stroke:#383838;stroke-width:1.0;"/><text fill="#000000" font-family="FG Virgil" font-size="13" lengthAdjust="spacingAndGlyphs" textLength="180" x="377" y="319.4575">getTarefasPendentes(colab)</text><polygon fill="#383838" points="348,379.6563,348.026,379.7213,349.9487,380.328,352.0239,381.3161,354.0495,382.1799,355.9117,382.6355,358,383.6563,357.9904,383.6322,355.9472,384.3243,353.9525,385.1376,351.9916,386.0352,349.9144,386.6423,348,387.6563,348.1305,387.7867,348.6514,386.7077,349.5534,386.0096,350.5018,385.3581,351.1798,384.436,352,383.6563,352.0161,383.6723,351.1925,382.8487,350.4421,382.0983,349.6564,381.3126,348.938,380.5943,348,379.6563" style="stroke:#383838;stroke-width:1.0;"/><path d="M87,383.6563 L87,383.9365 L96.8889,383.1038 L106.7778,383.914 L116.6667,384.1892 L126.5556,382.7051 L136.4444,383.5526 L146.3333,383.0876 L156.2222,383.1449 L166.1111,383.5654 L176,382.7344 L185.8889,384.3944 L195.7778,382.8159 L205.6667,383.3926 L215.5556,384.2322 L225.4444,383.5419 L235.3333,383.7472 L245.2222,383.6137 L255.1111,383.8943 L265,383.9751 L274.8889,384.4372 L284.7778,384.551 L294.6667,384.5619 L304.5556,383.9958 L314.4444,384.2744 L324.3333,384.5926 L334.2222,382.6947 L344.1111,384.5609 L354,383.6563 " fill="none" style="stroke:#383838;stroke-width:1.0;"/><text fill="#000000" font-family="FG Virgil" font-size="13" lengthAdjust="spacingAndGlyphs" textLength="207" x="94" y="378.5903">getPedidoByAtividade(atividade)</text><polygon fill="#383838" points="695,408.7891,695.026,408.8541,696.9487,409.4608,699.0239,410.4489,701.0495,411.3128,702.9117,411.7683,705,412.7891,704.9904,412.765,702.9472,413.4571,700.9525,414.2704,698.9916,415.168,696.9144,415.7751,695,416.7891,695.1305,416.9196,695.6514,415.8405,696.5534,415.1424,697.5018,414.4909,698.1798,413.5688,699,412.7891,699.0161,412.8051,698.1925,411.9815,697.4421,411.2311,696.6564,410.4454,695.938,409.7271,695,408.7891" style="stroke:#383838;stroke-width:1.0;"/><path d="M370,412.7891 L370,413.0693 L380.0303,412.2366 L390.0606,413.0468 L400.0909,413.322 L410.1212,411.8379 L420.1515,412.6854 L430.1818,412.2204 L440.2121,412.2777 L450.2424,412.6982 L460.2727,411.8672 L470.303,413.5273 L480.3333,411.9487 L490.3636,412.5254 L500.3939,413.365 L510.4242,412.6747 L520.4545,412.88 L530.4848,412.7465 L540.5152,413.0271 L550.5455,413.1079 L560.5758,413.57 L570.6061,413.6838 L580.6364,413.6947 L590.6667,413.1286 L600.697,413.4072 L610.7273,413.7254 L620.7576,411.8275 L630.7879,413.6937 L640.8182,412.3937 L650.8485,413.5008 L660.8788,412.129 L670.9091,412.6977 L680.9394,413.7779 L690.9697,412.7241 L701,412.7891 " fill="none" style="stroke:#383838;stroke-width:1.0;"/><text fill="#000000" font-family="FG Virgil" font-size="13" lengthAdjust="spacingAndGlyphs" textLength="269" x="377" y="407.7231">pedido = getPedidoByAtividade(atividade)</text><path d="M10,457.7891 L10,458.3495 L20,456.6842 L30,458.3045 L40,458.8549 L50,455.8867 L60,457.5818 L70,456.6517 L80,457.7891 L79.6591,457.7891 L79.9394,459.1891 L79.3854,460.5891 L80.4921,461.9891 L79.4398,463.3891 L80,464.7891 L79.8757,464.6648 L78.2715,467.0606 L75.9461,468.7351 L74.0429,470.832 L71.9799,472.769 L70,474.7891 L70,475.2651 L60,475.4268 L50,476.3509 L40,476.5785 L30,476.6004 L20,475.4681 L10,474.7891 L10.4121,474.7891 L10.6242,471.3891 L9.3589,467.9891 L10.6031,464.5891 L9.7364,461.1891 L10,457.7891 " fill="#EEEEEE" style="stroke:#000000;stroke-width:1.0;"/><polygon fill="none" points="10,457.7891,10,457.9992,20.0175,457.3747,30.0351,457.9823,40.0526,458.1887,50.0702,457.0757,60.0877,457.7113,70.1053,457.3626,80.1228,457.4056,90.1404,457.7209,100.1579,457.0977,110.1754,458.3427,120.193,457.1588,130.2105,457.5913,140.2281,458.221,150.2456,457.7033,160.2632,457.8573,170.2807,457.7571,180.2982,457.9676,190.3158,458.0282,200.3333,458.3748,210.3509,458.4601,220.3684,458.4683,230.386,458.0437,240.4035,458.2526,250.4211,458.4913,260.4386,457.0679,270.4561,458.4676,280.4737,457.4926,290.4912,458.3229,300.5088,457.294,310.5263,457.7206,320.5439,458.5307,330.5614,457.7403,340.5789,457.8944,350.5965,458.1277,360.614,458.2053,370.6316,457.7852,380.6491,458.0763,390.6667,457.2166,400.6842,458.0734,410.7018,458.3373,420.7193,458.2336,430.7368,458.4021,440.7544,457.306,450.7719,457.1369,460.7895,457.1677,470.807,457.7302,480.8246,457.5925,490.8421,458.4705,500.8596,457.6144,510.8772,457.446,520.8947,458.0173,530.9123,457.1222,540.9298,457.2699,550.9474,458.438,560.9649,458.2247,570.9825,458.5236,581,457.4673,591.0175,458.1083,601.0351,458.3795,611.0526,457.3167,621.0702,457.6932,631.0877,457.915,641.1053,458.4408,651.1228,457.7849,661.1404,458.2516,671.1579,457.2353,681.1754,457.1118,691.193,458.2927,701.2105,457.0721,711.2281,458.298,721.2456,457.9957,731.2632,457.5211,741.2807,457.4353,751.2982,458.2478,761.3158,457.4897,771.3333,458.3809,781.3509,457.2363,791.3684,458.4065,801.386,458.2734,811.4035,458.034,821.4211,457.8363,831.4386,458.5157,841.4561,458.4026,851.4737,457.9583,861.4912,458.0573,871.5088,457.6588,881.5263,458.5055,891.5439,457.9439,901.5614,457.9616,911.5789,457.1807,921.5965,457.3838,931.614,458.3198,941.6316,458.2188,951.6491,457.7461,961.6667,457.4669,971.6842,457.5701,981.7018,457.1029,991.7193,458.2038,1001.7368,458.5286,1011.7544,458.3155,1021.7719,458.484,1031.7895,457.6523,1041.807,457.8763,1051.8246,457.4015,1061.8421,458.0731,1071.8596,458.0358,1081.8772,458.3415,1091.8947,457.5594,1101.9123,457.6547,1111.9298,458.2325,1121.9474,458.3564,1131.9649,457.2765,1141.9825,457.5952,1152,457.7891,1152.1493,457.7891,1151.3892,467.858,1152.3534,477.9269,1152.258,487.9958,1151.8992,498.0647,1152.1422,508.1336,1152.7287,518.2026,1151.6871,528.2715,1152.315,538.3404,1152.2856,548.4093,1152.1158,558.4782,1152.1409,568.5472,1152.1135,578.6161,1151.3758,588.685,1151.5992,598.7539,1151.5385,608.8228,1152.0638,618.8917,1152.0881,628.9607,1152.1617,639.0296,1151.709,649.0985,1151.9325,659.1674,1151.8798,669.2363,1152.5769,679.3052,1152.4266,689.3742,1151.5145,699.4431,1151.9271,709.512,1151.4228,719.5809,1152.2884,729.6498,1152,739.7188,1152,740.3272,1141.9825,740.2633,1131.9649,739.2832,1121.9474,740.1827,1111.9298,738.9759,1101.9123,739.9189,1091.8947,739.4194,1081.8772,739.8155,1071.8596,739.9591,1061.8421,740.1909,1051.8246,738.9988,1041.807,740.1942,1031.7895,739.8969,1021.7719,740.0741,1011.7544,740.4666,1001.7368,739.7242,991.7193,739.894,981.7018,739.9322,971.6842,739.916,961.6667,739.7179,951.6491,740.4295,941.6316,739.109,931.614,740.284,921.5965,739.0947,911.5789,739.1784,901.5614,739.7588,891.5439,739.747,881.5263,739.2259,871.5088,740.1325,861.4912,739.8276,851.4737,740.4454,841.4561,740.3859,831.4386,739.2705,821.4211,739.3208,811.4035,739.5896,801.386,740.0743,791.3684,740.1217,781.3509,740.0199,771.3333,739.3768,761.3158,740.3551,751.2982,740.3525,741.2807,739.6715,731.2632,739.4797,721.2456,739.3174,711.2281,739.5042,701.2105,739.8562,691.193,739.6504,681.1754,739.301,671.1579,740.2061,661.1404,739.2598,651.1228,740.2211,641.1053,740.146,631.0877,740.0906,621.0702,740.4112,611.0526,739.4729,601.0351,739.4181,591.0175,740.2376,581,739.1219,570.9825,739.4848,560.9649,739.8342,550.9474,739.7874,540.9298,739.3603,530.9123,739.6758,520.8947,740.4633,510.8772,740.3672,500.8596,739.1225,490.8421,739.7973,480.8246,739.2048,470.807,739.6924,460.7895,740.0117,450.7719,740.1386,440.7544,739.054,430.7368,740.1193,420.7193,739.7272,410.7018,739.1634,400.6842,739.2477,390.6667,740.0453,380.6491,739.9686,370.6316,739.7023,360.614,739.0466,350.5965,740.3769,340.5789,739.4069,330.5614,739.1907,320.5439,739.6514,310.5263,740.3085,300.5088,740.3342,290.4912,739.7539,280.4737,739.5676,270.4561,739.8885,260.4386,739.905,250.4211,739.211,240.4035,740.1327,230.386,740.2776,220.3684,739.503,210.3509,739.2896,200.3333,740.3934,190.3158,739.7398,180.2982,739.7186,170.2807,740.0178,160.2632,739.0731,150.2456,740.2487,140.2281,739.7033,130.2105,740.3876,120.193,739.5029,110.1754,740.1277,100.1579,739.2748,90.1404,739.9638,80.1228,740.098,70.1053,739.3914,60.0877,740.0818,50.0702,739.1473,40.0526,739.2483,30.0351,740.4016,20.0175,740.4031,10,739.7188,10.5685,739.7188,9.6396,729.6498,10.3842,719.5809,9.5279,709.512,10.0582,699.4431,9.9987,689.3742,9.7376,679.3052,10.6159,669.2363,10.4433,659.1674,9.6792,649.0985,10.5266,639.0296,10.0919,628.9607,9.4164,618.8917,9.7667,608.8228,9.4747,598.7539,9.8609,588.685,9.371,578.6161,9.3998,568.5472,10.0703,558.4782,9.8796,548.4093,9.9414,538.3404,9.8568,528.2715,10.1673,518.2026,9.4449,508.1336,10.1601,498.0647,9.2569,487.9958,10.296,477.9269,10.5928,467.858,10,457.7891" style="stroke:#000000;stroke-width:2.0;"/><text fill="#000000" font-family="FG Virgil" font-size="13" font-weight="bold" lengthAdjust="spacingAndGlyphs" textLength="25" x="25" y="470.856">opt</text><text fill="#000000" font-family="FG Virgil" font-size="11" font-weight="bold" lengthAdjust="spacingAndGlyphs" textLength="215" x="95" y="469.9995">[caso atividade tenha formulario]</text><polygon fill="#383838" points="348,492.0547,348.026,492.1197,349.9487,492.7265,352.0239,493.7145,354.0495,494.5784,355.9117,495.0339,358,496.0547,357.9904,496.0306,355.9472,496.7227,353.9525,497.536,351.9916,498.4336,349.9144,499.0407,348,500.0547,348.1305,500.1852,348.6514,499.1061,349.5534,498.4081,350.5018,497.7565,351.1798,496.8345,352,496.0547,352.0161,496.0708,351.1925,495.2472,350.4421,494.4968,349.6564,493.7111,348.938,492.9927,348,492.0547" style="stroke:#383838;stroke-width:1.0;"/><path d="M87,496.0547 L87,496.3349 L96.8889,495.5023 L106.7778,496.3124 L116.6667,496.5876 L126.5556,495.1035 L136.4444,495.9511 L146.3333,495.486 L156.2222,495.5434 L166.1111,495.9638 L176,495.1329 L185.8889,496.7929 L195.7778,495.2143 L205.6667,495.791 L215.5556,496.6306 L225.4444,495.9403 L235.3333,496.1457 L245.2222,496.0121 L255.1111,496.2927 L265,496.3735 L274.8889,496.8356 L284.7778,496.9494 L294.6667,496.9604 L304.5556,496.3942 L314.4444,496.6728 L324.3333,496.991 L334.2222,495.0931 L344.1111,496.9594 L354,496.0547 " fill="none" style="stroke:#383838;stroke-width:1.0;"/><text fill="#000000" font-family="FG Virgil" font-size="13" lengthAdjust="spacingAndGlyphs" textLength="234" x="94" y="490.9888">getFormularioDaAtividade(atividade)</text><polygon fill="#383838" points="695,521.1875,695.026,521.2525,696.9487,521.8593,699.0239,522.8473,701.0495,523.7112,702.9117,524.1667,705,525.1875,704.9904,525.1634,702.9472,525.8555,700.9525,526.6688,698.9916,527.5664,696.9144,528.1735,695,529.1875,695.1305,529.318,695.6514,528.2389,696.5534,527.5409,697.5018,526.8893,698.1798,525.9673,699,525.1875,699.0161,525.2036,698.1925,524.38,697.4421,523.6296,696.6564,522.8439,695.938,522.1255,695,521.1875" style="stroke:#383838;stroke-width:1.0;"/><path d="M370,525.1875 L370,525.4677 L380.0303,524.6351 L390.0606,525.4452 L400.0909,525.7204 L410.1212,524.2363 L420.1515,525.0839 L430.1818,524.6188 L440.2121,524.6762 L450.2424,525.0966 L460.2727,524.2657 L470.303,525.9257 L480.3333,524.3471 L490.3636,524.9238 L500.3939,525.7634 L510.4242,525.0731 L520.4545,525.2785 L530.4848,525.1449 L540.5152,525.4255 L550.5455,525.5063 L560.5758,525.9684 L570.6061,526.0822 L580.6364,526.0932 L590.6667,525.527 L600.697,525.8056 L610.7273,526.1238 L620.7576,524.2259 L630.7879,526.0922 L640.8182,524.7922 L650.8485,525.8992 L660.8788,524.5275 L670.9091,525.0962 L680.9394,526.1763 L690.9697,525.1225 L701,525.1875 " fill="none" style="stroke:#383838;stroke-width:1.0;"/><text fill="#000000" font-family="FG Virgil" font-size="13" lengthAdjust="spacingAndGlyphs" textLength="318" x="377" y="520.1216">formulario = getFormularioDaAtividade(atividade)</text><polygon fill="#383838" points="348,580.3203,348.026,580.3854,349.9487,580.9921,352.0239,581.9801,354.0495,582.844,355.9117,583.2995,358,584.3203,357.9904,584.2963,355.9472,584.9883,353.9525,585.8016,351.9916,586.6992,349.9144,587.3063,348,588.3203,348.1305,588.4508,348.6514,587.3718,349.5534,586.6737,350.5018,586.0221,351.1798,585.1001,352,584.3203,352.0161,584.3364,351.1925,583.5128,350.4421,582.7624,349.6564,581.9767,348.938,581.2584,348,580.3203" style="stroke:#383838;stroke-width:1.0;"/><path d="M87,584.3203 L87,584.6006 L96.8889,583.7679 L106.7778,584.578 L116.6667,584.8532 L126.5556,583.3691 L136.4444,584.2167 L146.3333,583.7517 L156.2222,583.809 L166.1111,584.2294 L176,583.3985 L185.8889,585.0585 L195.7778,583.4799 L205.6667,584.0566 L215.5556,584.8962 L225.4444,584.2059 L235.3333,584.4113 L245.2222,584.2777 L255.1111,584.5583 L265,584.6392 L274.8889,585.1012 L284.7778,585.2151 L294.6667,585.226 L304.5556,584.6598 L314.4444,584.9384 L324.3333,585.2566 L334.2222,583.3587 L344.1111,585.225 L354,584.3203 " fill="none" style="stroke:#383838;stroke-width:1.0;"/><text fill="#000000" font-family="FG Virgil" font-size="13" lengthAdjust="spacingAndGlyphs" textLength="203" x="94" y="579.2544">completaFormulario(formulario)</text><polygon fill="#383838" points="984.5,609.4531,984.526,609.5182,986.4487,610.1249,988.5239,611.1129,990.5495,611.9768,992.4117,612.4323,994.5,613.4531,994.4904,613.4291,992.4472,614.1211,990.4525,614.9344,988.4916,615.832,986.4144,616.4392,984.5,617.4531,984.6305,617.5836,985.1514,616.5046,986.0534,615.8065,987.0018,615.1549,987.6798,614.2329,988.5,613.4531,988.5161,613.4692,987.6925,612.6456,986.9421,611.8952,986.1564,611.1095,985.438,610.3912,984.5,609.4531" style="stroke:#383838;stroke-width:1.0;"/><path d="M370,613.4531 L370,613.7334 L380.0081,612.9007 L390.0161,613.7108 L400.0242,613.986 L410.0323,612.5019 L420.0403,613.3495 L430.0484,612.8845 L440.0565,612.9418 L450.0645,613.3622 L460.0726,612.5313 L470.0806,614.1913 L480.0887,612.6128 L490.0968,613.1894 L500.1048,614.0291 L510.1129,613.3388 L520.121,613.5441 L530.129,613.4105 L540.1371,613.6912 L550.1452,613.772 L560.1532,614.234 L570.1613,614.3479 L580.1694,614.3588 L590.1774,613.7926 L600.1855,614.0712 L610.1935,614.3894 L620.2016,612.4915 L630.2097,614.3578 L640.2177,613.0578 L650.2258,614.1649 L660.2339,612.7931 L670.2419,613.3618 L680.25,614.4419 L690.2581,613.3881 L700.2661,613.5935 L710.2742,613.9046 L720.2823,614.0081 L730.2903,613.4479 L740.2984,613.8361 L750.3065,612.6899 L760.3145,613.8323 L770.3226,614.1841 L780.3306,614.0458 L790.3387,614.2705 L800.3468,612.809 L810.3548,612.5835 L820.3629,612.6246 L830.371,613.3746 L840.379,613.1911 L850.3871,614.3617 L860.3952,613.2202 L870.4032,612.9957 L880.4113,613.7575 L890.4194,612.564 L900.4274,612.761 L910.4355,614.3184 L920.4435,614.034 L930.4516,614.4324 L940.4597,613.0241 L950.4677,613.8787 L960.4758,614.2404 L970.4839,612.8233 L980.4919,613.3253 L990.5,613.4531 " fill="none" style="stroke:#383838;stroke-width:1.0;"/><text fill="#000000" font-family="FG Virgil" font-size="13" lengthAdjust="spacingAndGlyphs" textLength="203" x="377" y="608.3872">completaFormulario(formulario)</text><polygon fill="#383838" points="348,668.5859,348.026,668.651,349.9487,669.2577,352.0239,670.2458,354.0495,671.1096,355.9117,671.5651,358,672.5859,357.9904,672.5619,355.9472,673.2539,353.9525,674.0672,351.9916,674.9648,349.9144,675.572,348,676.5859,348.1305,676.7164,348.6514,675.6374,349.5534,674.9393,350.5018,674.2877,351.1798,673.3657,352,672.5859,352.0161,672.602,351.1925,671.7784,350.4421,671.028,349.6564,670.2423,348.938,669.524,348,668.5859" style="stroke:#383838;stroke-width:1.0;"/><path d="M87,672.5859 L87,672.8662 L96.8889,672.0335 L106.7778,672.8437 L116.6667,673.1188 L126.5556,671.6347 L136.4444,672.4823 L146.3333,672.0173 L156.2222,672.0746 L166.1111,672.4951 L176,671.6641 L185.8889,673.3241 L195.7778,671.7456 L205.6667,672.3222 L215.5556,673.1619 L225.4444,672.4716 L235.3333,672.6769 L245.2222,672.5433 L255.1111,672.824 L265,672.9048 L274.8889,673.3669 L284.7778,673.4807 L294.6667,673.4916 L304.5556,672.9254 L314.4444,673.2041 L324.3333,673.5222 L334.2222,671.6244 L344.1111,673.4906 L354,672.5859 " fill="none" style="stroke:#383838;stroke-width:1.0;"/><text fill="#000000" font-family="FG Virgil" font-size="13" lengthAdjust="spacingAndGlyphs" textLength="180" x="94" y="667.52">validaFormulario(formulario)</text><polygon fill="#383838" points="1080.5,697.7188,1080.526,697.7838,1082.4487,698.3905,1084.5239,699.3786,1086.5495,700.2424,1088.4117,700.698,1090.5,701.7188,1090.4904,701.6947,1088.4472,702.3868,1086.4525,703.2001,1084.4916,704.0977,1082.4144,704.7048,1080.5,705.7188,1080.6305,705.8492,1081.1514,704.7702,1082.0534,704.0721,1083.0018,703.4206,1083.6798,702.4985,1084.5,701.7188,1084.5161,701.7348,1083.6925,700.9112,1082.9421,700.1608,1082.1564,699.3751,1081.438,698.6568,1080.5,697.7188" style="stroke:#383838;stroke-width:1.0;"/><path d="M370,701.7188 L370,701.999 L379.9514,701.1663 L389.9028,701.9765 L399.8542,702.2517 L409.8056,700.7676 L419.7569,701.6151 L429.7083,701.1501 L439.6597,701.2074 L449.6111,701.6279 L459.5625,700.7969 L469.5139,702.4569 L479.4653,700.8784 L489.4167,701.4551 L499.3681,702.2947 L509.3194,701.6044 L519.2708,701.8097 L529.2222,701.6762 L539.1736,701.9568 L549.125,702.0376 L559.0764,702.4997 L569.0278,702.6135 L578.9792,702.6244 L588.9306,702.0583 L598.8819,702.3369 L608.8333,702.6551 L618.7847,700.7572 L628.7361,702.6234 L638.6875,701.3234 L648.6389,702.4305 L658.5903,701.0587 L668.5417,701.6274 L678.4931,702.7076 L688.4444,701.6538 L698.3958,701.8592 L708.3472,702.1703 L718.2986,702.2737 L728.25,701.7135 L738.2014,702.1017 L748.1528,700.9555 L758.1042,702.0979 L768.0556,702.4497 L778.0069,702.3115 L787.9583,702.5361 L797.9097,701.0746 L807.8611,700.8492 L817.8125,700.8902 L827.7639,701.6402 L837.7153,701.4567 L847.6667,702.6273 L857.6181,701.4858 L867.5694,701.2613 L877.5208,702.0231 L887.4722,700.8296 L897.4236,701.0266 L907.375,702.584 L917.3264,702.2996 L927.2778,702.6981 L937.2292,701.2897 L947.1806,702.1443 L957.1319,702.506 L967.0833,701.0889 L977.0347,701.5909 L986.9861,701.8867 L996.9375,702.5878 L1006.8889,701.7132 L1016.8403,702.3355 L1026.7917,700.9804 L1036.7431,700.8157 L1046.6944,702.3902 L1056.6458,700.7628 L1066.5972,702.3974 L1076.5486,701.9943 L1086.5,701.7188 " fill="none" style="stroke:#383838;stroke-width:1.0;"/><text fill="#000000" font-family="FG Virgil" font-size="13" lengthAdjust="spacingAndGlyphs" textLength="180" x="377" y="696.6528">validaFormulario(formulario)</text><polygon fill="#383838" points="348,763.8516,348.026,763.9166,349.9487,764.5233,352.0239,765.5114,354.0495,766.3753,355.9117,766.8308,358,767.8516,357.9904,767.8275,355.9472,768.5196,353.9525,769.3329,351.9916,770.2305,349.9144,770.8376,348,771.8516,348.1305,771.9821,348.6514,770.903,349.5534,770.2049,350.5018,769.5534,351.1798,768.6313,352,767.8516,352.0161,767.8676,351.1925,767.044,350.4421,766.2936,349.6564,765.5079,348.938,764.7896,348,763.8516" style="stroke:#383838;stroke-width:1.0;"/><path d="M87,767.8516 L87,768.1318 L96.8889,767.2991 L106.7778,768.1093 L116.6667,768.3845 L126.5556,766.9004 L136.4444,767.7479 L146.3333,767.2829 L156.2222,767.3402 L166.1111,767.7607 L176,766.9297 L185.8889,768.5898 L195.7778,767.0112 L205.6667,767.5879 L215.5556,768.4275 L225.4444,767.7372 L235.3333,767.9425 L245.2222,767.809 L255.1111,768.0896 L265,768.1704 L274.8889,768.6325 L284.7778,768.7463 L294.6667,768.7572 L304.5556,768.1911 L314.4444,768.4697 L324.3333,768.7879 L334.2222,766.89 L344.1111,768.7562 L354,767.8516 " fill="none" style="stroke:#383838;stroke-width:1.0;"/><text fill="#000000" font-family="FG Virgil" font-size="13" lengthAdjust="spacingAndGlyphs" textLength="254" x="94" y="762.7856">completaDecisaoComentario(atividade)</text><polygon fill="#383838" points="984.5,792.9844,984.526,793.0494,986.4487,793.6561,988.5239,794.6442,990.5495,795.5081,992.4117,795.9636,994.5,796.9844,994.4904,796.9603,992.4472,797.6524,990.4525,798.4657,988.4916,799.3633,986.4144,799.9704,984.5,800.9844,984.6305,801.1149,985.1514,800.0358,986.0534,799.3378,987.0018,798.6862,987.6798,797.7642,988.5,796.9844,988.5161,797.0005,987.6925,796.1768,986.9421,795.4265,986.1564,794.6407,985.438,793.9224,984.5,792.9844" style="stroke:#383838;stroke-width:1.0;"/><path d="M370,796.9844 L370,797.2646 L380.0081,796.4319 L390.0161,797.2421 L400.0242,797.5173 L410.0323,796.0332 L420.0403,796.8808 L430.0484,796.4157 L440.0565,796.473 L450.0645,796.8935 L460.0726,796.0625 L470.0806,797.7226 L480.0887,796.144 L490.0968,796.7207 L500.1048,797.5603 L510.1129,796.87 L520.121,797.0754 L530.129,796.9418 L540.1371,797.2224 L550.1452,797.3032 L560.1532,797.7653 L570.1613,797.8791 L580.1694,797.8901 L590.1774,797.3239 L600.1855,797.6025 L610.1935,797.9207 L620.2016,796.0228 L630.2097,797.8891 L640.2177,796.589 L650.2258,797.6961 L660.2339,796.3243 L670.2419,796.893 L680.25,797.9732 L690.2581,796.9194 L700.2661,797.1248 L710.2742,797.4359 L720.2823,797.5394 L730.2903,796.9792 L740.2984,797.3673 L750.3065,796.2212 L760.3145,797.3636 L770.3226,797.7153 L780.3306,797.5771 L790.3387,797.8017 L800.3468,796.3403 L810.3548,796.1148 L820.3629,796.1558 L830.371,796.9059 L840.379,796.7223 L850.3871,797.8929 L860.3952,796.7515 L870.4032,796.527 L880.4113,797.2887 L890.4194,796.0953 L900.4274,796.2922 L910.4355,797.8496 L920.4435,797.5653 L930.4516,797.9637 L940.4597,796.5553 L950.4677,797.41 L960.4758,797.7716 L970.4839,796.3545 L980.4919,796.8566 L990.5,796.9844 " fill="none" style="stroke:#383838;stroke-width:1.0;"/><text fill="#000000" font-family="FG Virgil" font-size="13" lengthAdjust="spacingAndGlyphs" textLength="254" x="377" y="791.9185">completaDecisaoComentario(atividade)</text><polygon fill="#383838" points="348,852.1172,348.026,852.1822,349.9487,852.789,352.0239,853.777,354.0495,854.6409,355.9117,855.0964,358,856.1172,357.9904,856.0931,355.9472,856.7852,353.9525,857.5985,351.9916,858.4961,349.9144,859.1032,348,860.1172,348.1305,860.2477,348.6514,859.1686,349.5534,858.4706,350.5018,857.819,351.1798,856.897,352,856.1172,352.0161,856.1333,351.1925,855.3097,350.4421,854.5593,349.6564,853.7736,348.938,853.0552,348,852.1172" style="stroke:#383838;stroke-width:1.0;"/><path d="M87,856.1172 L87,856.3974 L96.8889,855.5648 L106.7778,856.3749 L116.6667,856.6501 L126.5556,855.166 L136.4444,856.0136 L146.3333,855.5485 L156.2222,855.6059 L166.1111,856.0263 L176,855.1954 L185.8889,856.8554 L195.7778,855.2768 L205.6667,855.8535 L215.5556,856.6931 L225.4444,856.0028 L235.3333,856.2082 L245.2222,856.0746 L255.1111,856.3552 L265,856.436 L274.8889,856.8981 L284.7778,857.0119 L294.6667,857.0229 L304.5556,856.4567 L314.4444,856.7353 L324.3333,857.0535 L334.2222,855.1556 L344.1111,857.0219 L354,856.1172 " fill="none" style="stroke:#383838;stroke-width:1.0;"/><text fill="#000000" font-family="FG Virgil" font-size="13" lengthAdjust="spacingAndGlyphs" textLength="126" x="94" y="851.0513">savePedido(pedido)</text><polygon fill="#383838" points="695,881.25,695.026,881.315,696.9487,881.9218,699.0239,882.9098,701.0495,883.7737,702.9117,884.2292,705,885.25,704.9904,885.2259,702.9472,885.918,700.9525,886.7313,698.9916,887.6289,696.9144,888.236,695,889.25,695.1305,889.3805,695.6514,888.3014,696.5534,887.6034,697.5018,886.9518,698.1798,886.0298,699,885.25,699.0161,885.2661,698.1925,884.4425,697.4421,883.6921,696.6564,882.9064,695.938,882.188,695,881.25" style="stroke:#383838;stroke-width:1.0;"/><path d="M370,885.25 L370,885.5302 L380.0303,884.6976 L390.0606,885.5077 L400.0909,885.7829 L410.1212,884.2988 L420.1515,885.1464 L430.1818,884.6813 L440.2121,884.7387 L450.2424,885.1591 L460.2727,884.3282 L470.303,885.9882 L480.3333,884.4096 L490.3636,884.9863 L500.3939,885.8259 L510.4242,885.1356 L520.4545,885.341 L530.4848,885.2074 L540.5152,885.488 L550.5455,885.5688 L560.5758,886.0309 L570.6061,886.1447 L580.6364,886.1557 L590.6667,885.5895 L600.697,885.8681 L610.7273,886.1863 L620.7576,884.2884 L630.7879,886.1547 L640.8182,884.8547 L650.8485,885.9617 L660.8788,884.59 L670.9091,885.1587 L680.9394,886.2388 L690.9697,885.185 L701,885.25 " fill="none" style="stroke:#383838;stroke-width:1.0;"/><text fill="#000000" font-family="FG Virgil" font-size="13" lengthAdjust="spacingAndGlyphs" textLength="126" x="377" y="880.1841">savePedido(pedido)</text><!--MD5=[10d1fe6174e0f0e9840a91775fabc27f]
@startuml
'http://plantuml.com/skinparam.html
skinparam handwritten true
skinparam monochrome true
skinparam packageStyle rect
skinparam defaultFontName FG Virgil
skinparam shadowing false

participant RealizarTarefaUI as UI <<presentation>>
control RealizarTarefaController as CTRL <<application>>
database PedidoRepository as PRepository <<repository>>
database ColaboradorRepository as CRepository <<repository>>
participant Pedido as P <<domain>>
participant ValidaForm as Valida <<domain>>

activate UI

UI -> UI : doShow()
 note over CTRL: Para efeitos de simplificação do diagrama, não foram representadas todas as classes repository,\n a classe persistence e a classe factory, tendo sido utilizado o procedimento dos casos de uso do sprint B
UI -> CTRL: getUser()
    activate CTRL
    CTRL -> CRepository: getUser()
      activate CRepository
      deactivate CRepository
    deactivate CTRL
    
UI -> CTRL: getTarefasPendentes(colab)
    activate CTRL
      CTRL -> PRepository: getTarefasPendentes(colab)
      activate PRepository
      deactivate PRepository
    deactivate CTRL

UI -> CTRL: getPedidoByAtividade(atividade)
    activate CTRL
    CTRL -> PRepository: pedido = getPedidoByAtividade(atividade)
      activate PRepository
      deactivate PRepository
    deactivate CTRL

opt caso atividade tenha formulario
UI -> CTRL: getFormularioDaAtividade(atividade)
    activate CTRL
    CTRL -> PRepository: formulario = getFormularioDaAtividade(atividade)
      activate PRepository
      deactivate PRepository
    deactivate CTRL

UI -> CTRL: completaFormulario(formulario)
    activate CTRL
    CTRL -> P: completaFormulario(formulario)
      activate P
      deactivate P
    deactivate CTRL

UI -> CTRL: validaFormulario(formulario)
    activate CTRL
    CTRL -> Valida: validaFormulario(formulario)
      activate Valida
      deactivate Valida
    deactivate CTRL
end

UI -> CTRL: completaDecisaoComentario(atividade)
    activate CTRL
    CTRL -> P: completaDecisaoComentario(atividade)
      activate P
      deactivate P
    deactivate CTRL

UI -> CTRL: savePedido(pedido)
    activate CTRL
    CTRL -> PRepository: savePedido(pedido)
      activate PRepository
      deactivate PRepository
    deactivate CTRL

deactivate UI
@enduml

@startuml
skinparam handwritten true
skinparam monochrome true
skinparam packageStyle rect
skinparam defaultFontName FG Virgil
skinparam shadowing false

participant RealizarTarefaUI as UI <<presentation>>
control RealizarTarefaController as CTRL <<application>>
database PedidoRepository as PRepository <<repository>>
database ColaboradorRepository as CRepository <<repository>>
participant Pedido as P <<domain>>
participant ValidaForm as Valida <<domain>>

activate UI

UI -> UI : doShow()
 note over CTRL: Para efeitos de simplificação do diagrama, não foram representadas todas as classes repository,\n a classe persistence e a classe factory, tendo sido utilizado o procedimento dos casos de uso do sprint B
UI -> CTRL: getUser()
    activate CTRL
    CTRL -> CRepository: getUser()
      activate CRepository
      deactivate CRepository
    deactivate CTRL
    
UI -> CTRL: getTarefasPendentes(colab)
    activate CTRL
      CTRL -> PRepository: getTarefasPendentes(colab)
      activate PRepository
      deactivate PRepository
    deactivate CTRL

UI -> CTRL: getPedidoByAtividade(atividade)
    activate CTRL
    CTRL -> PRepository: pedido = getPedidoByAtividade(atividade)
      activate PRepository
      deactivate PRepository
    deactivate CTRL

opt caso atividade tenha formulario
UI -> CTRL: getFormularioDaAtividade(atividade)
    activate CTRL
    CTRL -> PRepository: formulario = getFormularioDaAtividade(atividade)
      activate PRepository
      deactivate PRepository
    deactivate CTRL

UI -> CTRL: completaFormulario(formulario)
    activate CTRL
    CTRL -> P: completaFormulario(formulario)
      activate P
      deactivate P
    deactivate CTRL

UI -> CTRL: validaFormulario(formulario)
    activate CTRL
    CTRL -> Valida: validaFormulario(formulario)
      activate Valida
      deactivate Valida
    deactivate CTRL
end

UI -> CTRL: completaDecisaoComentario(atividade)
    activate CTRL
    CTRL -> P: completaDecisaoComentario(atividade)
      activate P
      deactivate P
    deactivate CTRL

UI -> CTRL: savePedido(pedido)
    activate CTRL
    CTRL -> PRepository: savePedido(pedido)
      activate PRepository
      deactivate PRepository
    deactivate CTRL

deactivate UI
@enduml

PlantUML version 1.2020.22(Sun Dec 06 09:36:27 UTC 2020)
(GPL source distribution)
Java Runtime: OpenJDK Runtime Environment
JVM: OpenJDK 64-Bit Server VM
Default Encoding: UTF-8
Language: en
Country: US
--></g></svg>