<?xml version="1.0" encoding="UTF-8" standalone="no"?><svg xmlns="http://www.w3.org/2000/svg" xmlns:xlink="http://www.w3.org/1999/xlink" contentScriptType="application/ecmascript" contentStyleType="text/css" height="303px" preserveAspectRatio="none" style="width:507px;height:303px;" version="1.1" viewBox="0 0 507 303" width="507px" zoomAndPan="magnify"><defs/><g><polygon fill="#FFFFFF" points="34.5,94.2969,34.5,94.3669,36.5,94.1588,38.5,94.3613,40.5,94.4301,42.5,94.0591,44.5,94.2969,44.4223,94.2969,44.0735,104.1634,44.1165,114.0298,44.4318,123.8963,43.8086,133.7628,45.0536,143.6293,43.8697,153.4957,44.3022,163.3622,44.9319,173.2287,44.4142,183.0952,44.5682,192.9616,44.5,202.8281,44.5,202.8175,42.5,202.8876,40.5,202.9078,38.5,203.0234,36.5,203.0518,34.5,202.8281,35.1793,202.8281,34.7546,192.9616,34.9636,183.0952,35.2022,173.2287,33.7788,163.3622,35.1785,153.4957,34.2035,143.6293,35.0338,133.7628,34.005,123.8963,34.4315,114.0298,35.2416,104.1634,34.5,94.2969" style="stroke:#383838;stroke-width:1.0;"/><polygon fill="#FFFFFF" points="463.5,115.4297,463.5,115.4997,465.5,115.2916,467.5,115.4941,469.5,115.5629,471.5,115.1919,473.5,115.4297,473.4741,115.4297,473.3578,121.2563,473.3722,127.0828,473.4773,132.9094,473.2695,138.7359,473.5,144.5625,473.5,144.747,471.5,144.3524,469.5,144.4966,467.5,144.7065,465.5,144.5339,463.5,144.5625,463.5227,144.5625,463.4894,138.7359,463.5595,132.9094,463.5797,127.0828,463.6952,121.2563,463.5,115.4297" style="stroke:#383838;stroke-width:1.0;"/><polygon fill="#FFFFFF" points="463.5,173.6953,463.5,173.7654,465.5,173.5572,467.5,173.7597,469.5,173.8285,471.5,173.4575,473.5,173.6953,473.4741,173.6953,473.3578,179.5219,473.3722,185.3484,473.4773,191.175,473.2695,197.0016,473.5,202.8281,473.5,203.0127,471.5,202.618,469.5,202.7622,467.5,202.9721,465.5,202.7995,463.5,202.8281,463.5227,202.8281,463.4894,197.0016,463.5595,191.175,463.5797,185.3484,463.6952,179.5219,463.5,173.6953" style="stroke:#383838;stroke-width:1.0;"/><path d="M39,84.2969 L39.2802,84.2969 L38.4476,94.0491 L39.2577,103.8013 L39.5329,113.5536 L38.0488,123.3058 L38.8964,133.058 L38.4313,142.8103 L38.4887,152.5625 L38.9091,162.3147 L38.0782,172.067 L39.7382,181.8192 L38.1596,191.5714 L38.7363,201.3237 L39.5759,211.0759 L39,220.8281 " fill="none" style="stroke:#383838;stroke-width:1.0;stroke-dasharray:5.0,5.0;"/><path d="M468,84.2969 L468.2802,84.2969 L467.4476,94.0491 L468.2577,103.8013 L468.5329,113.5536 L467.0488,123.3058 L467.8964,133.058 L467.4313,142.8103 L467.4887,152.5625 L467.9091,162.3147 L467.0782,172.067 L468.7382,181.8192 L467.1596,191.5714 L467.7363,201.3237 L468.5759,211.0759 L468,220.8281 " fill="none" style="stroke:#383838;stroke-width:1.0;stroke-dasharray:5.0,5.0;"/><text fill="#000000" font-family="FG Virgil" font-size="14" lengthAdjust="spacingAndGlyphs" textLength="63" x="5" y="80.9951">Utilizador</text><polygon fill="#F8F8F8" points="47.5442,16.9459,46.3715,18.5482,44.9845,20.8951,43.0008,22.4767,40.9163,23.3415,39.2542,23.4166,37.118,22.3349,35.1023,21.6283,33.5724,20.1936,32.7699,18.5511,32.2939,17.2433,31.8277,15.5351,31.0709,14.0651,31.6525,12.6298,32.162,11.0576,34.074,9.8142,35.4192,8.2008,37.0843,7.665,39.0637,7.2037,41.6021,7.4778,42.9924,8.1335,44.6089,8.4307,46.5743,10.4443,47.2595,12.5701,47.5571,14.0206,47.22,16.4108" style="stroke:#383838;stroke-width:2.0;"/><path d="M39.5,23 L39.6868,23 L39.1317,28.4 L39.6718,33.8 L39.8553,39.2 L38.8659,44.6 L39.5,50 M26.5,31 L26.5,30.9309 L31.7,30.6209 L36.9,30.6591 L42.1,30.9394 L47.3,30.3854 L52.5,31 M39.5,50 L39.8719,50.3223 L36.4766,52.6331 L34.1672,55.8849 L31.9901,59.2515 L29.0424,61.9501 L26.5,65 M39.5,50 L39.5458,50.0397 L42.0785,52.9814 L44.8199,56.1039 L47.4606,59.1392 L50.2934,62.341 L52.5,65 " fill="none" style="stroke:#383838;stroke-width:2.0;"/><text fill="#000000" font-family="FG Virgil" font-size="14" lengthAdjust="spacingAndGlyphs" textLength="63" x="5" y="232.8232">Utilizador</text><polygon fill="#F8F8F8" points="47.5442,248.0709,46.3715,249.6732,44.9845,252.0201,43.0008,253.6017,40.9163,254.4665,39.2542,254.5416,37.118,253.4599,35.1023,252.7533,33.5724,251.3186,32.7699,249.6761,32.2939,248.3683,31.8277,246.6601,31.0709,245.1901,31.6525,243.7548,32.162,242.1826,34.074,240.9392,35.4192,239.3258,37.0843,238.79,39.0637,238.3287,41.6021,238.6028,42.9924,239.2585,44.6089,239.5557,46.5743,241.5693,47.2595,243.6951,47.5571,245.1456,47.22,247.5358" style="stroke:#383838;stroke-width:2.0;"/><path d="M39.5,254.125 L39.6868,254.125 L39.1317,259.525 L39.6718,264.925 L39.8553,270.325 L38.8659,275.725 L39.5,281.125 M26.5,262.125 L26.5,262.0559 L31.7,261.7459 L36.9,261.7841 L42.1,262.0644 L47.3,261.5104 L52.5,262.125 M39.5,281.125 L39.8719,281.4473 L36.4766,283.7581 L34.1672,287.0099 L31.9901,290.3765 L29.0424,293.0751 L26.5,296.125 M39.5,281.125 L39.5458,281.1647 L42.0785,284.1064 L44.8199,287.2289 L47.4606,290.2642 L50.2934,293.466 L52.5,296.125 " fill="none" style="stroke:#383838;stroke-width:2.0;"/><polygon fill="#F8F8F8" points="436,53,436,53.2102,445.2857,52.5857,454.5714,53.1933,463.8571,53.3997,473.1429,52.2866,482.4286,52.9223,491.7143,52.5735,501,53,500.8722,53,500.9773,59.0594,500.7695,65.1188,501.1845,71.1781,500.7899,77.2375,501,83.2969,501,83.0991,491.7143,83.7288,482.4286,83.2111,473.1429,83.3651,463.8571,83.2649,454.5714,83.4754,445.2857,83.536,436,83.2969,436.1952,83.2969,436.2237,77.2375,436.2264,71.1781,436.0849,65.1188,436.1545,59.0594,436,53" style="stroke:#383838;stroke-width:1.5;"/><text fill="#000000" font-family="FG Virgil" font-size="14" lengthAdjust="spacingAndGlyphs" textLength="51" x="443" y="72.9951">System</text><polygon fill="#F8F8F8" points="436,219.8281,436,220.0383,445.2857,219.4138,454.5714,220.0214,463.8571,220.2278,473.1429,219.1147,482.4286,219.7504,491.7143,219.4016,501,219.8281,500.8722,219.8281,500.9773,225.8875,500.7695,231.9469,501.1845,238.0063,500.7899,244.0656,501,250.125,501,249.9272,491.7143,250.5569,482.4286,250.0392,473.1429,250.1932,463.8571,250.0931,454.5714,250.3035,445.2857,250.3641,436,250.125,436.1952,250.125,436.2237,244.0656,436.2264,238.0063,436.0849,231.9469,436.1545,225.8875,436,219.8281" style="stroke:#383838;stroke-width:1.5;"/><text fill="#000000" font-family="FG Virgil" font-size="14" lengthAdjust="spacingAndGlyphs" textLength="51" x="443" y="239.8232">System</text><polygon fill="#FFFFFF" points="34.5,94.2969,34.5,94.3669,36.5,94.1588,38.5,94.3613,40.5,94.4301,42.5,94.0591,44.5,94.2969,44.4223,94.2969,44.0735,104.1634,44.1165,114.0298,44.4318,123.8963,43.8086,133.7628,45.0536,143.6293,43.8697,153.4957,44.3022,163.3622,44.9319,173.2287,44.4142,183.0952,44.5682,192.9616,44.5,202.8281,44.5,202.8175,42.5,202.8876,40.5,202.9078,38.5,203.0234,36.5,203.0518,34.5,202.8281,35.1793,202.8281,34.7546,192.9616,34.9636,183.0952,35.2022,173.2287,33.7788,163.3622,35.1785,153.4957,34.2035,143.6293,35.0338,133.7628,34.005,123.8963,34.4315,114.0298,35.2416,104.1634,34.5,94.2969" style="stroke:#383838;stroke-width:1.0;"/><polygon fill="#FFFFFF" points="463.5,115.4297,463.5,115.4997,465.5,115.2916,467.5,115.4941,469.5,115.5629,471.5,115.1919,473.5,115.4297,473.4741,115.4297,473.3578,121.2563,473.3722,127.0828,473.4773,132.9094,473.2695,138.7359,473.5,144.5625,473.5,144.747,471.5,144.3524,469.5,144.4966,467.5,144.7065,465.5,144.5339,463.5,144.5625,463.5227,144.5625,463.4894,138.7359,463.5595,132.9094,463.5797,127.0828,463.6952,121.2563,463.5,115.4297" style="stroke:#383838;stroke-width:1.0;"/><polygon fill="#FFFFFF" points="463.5,173.6953,463.5,173.7654,465.5,173.5572,467.5,173.7597,469.5,173.8285,471.5,173.4575,473.5,173.6953,473.4741,173.6953,473.3578,179.5219,473.3722,185.3484,473.4773,191.175,473.2695,197.0016,473.5,202.8281,473.5,203.0127,471.5,202.618,469.5,202.7622,467.5,202.9721,465.5,202.7995,463.5,202.8281,463.5227,202.8281,463.4894,197.0016,463.5595,191.175,463.5797,185.3484,463.6952,179.5219,463.5,173.6953" style="stroke:#383838;stroke-width:1.0;"/><polygon fill="#383838" points="451.5,111.4297,451.526,111.4947,453.4487,112.1015,455.5239,113.0895,457.5495,113.9534,459.4117,114.4089,461.5,115.4297,461.4904,115.4056,459.4472,116.0977,457.4525,116.911,455.4916,117.8086,453.4144,118.4157,451.5,119.4297,451.6305,119.5602,452.1514,118.4811,453.0534,117.7831,454.0018,117.1315,454.6798,116.2095,455.5,115.4297,455.5161,115.4458,454.6925,114.6222,453.9421,113.8718,453.1564,113.0861,452.438,112.3677,451.5,111.4297" style="stroke:#383838;stroke-width:1.0;"/><path d="M44.5,115.4297 L44.5,115.7099 L54.5732,114.8773 L64.6463,115.6874 L74.7195,115.9626 L84.7927,114.4785 L94.8659,115.3261 L104.939,114.861 L115.0122,114.9184 L125.0854,115.3388 L135.1585,114.5079 L145.2317,116.1679 L155.3049,114.5893 L165.378,115.166 L175.4512,116.0056 L185.5244,115.3153 L195.5976,115.5207 L205.6707,115.3871 L215.7439,115.6677 L225.8171,115.7485 L235.8902,116.2106 L245.9634,116.3244 L256.0366,116.3354 L266.1098,115.7692 L276.1829,116.0478 L286.2561,116.366 L296.3293,114.4681 L306.4024,116.3344 L316.4756,115.0343 L326.5488,116.1414 L336.622,114.7697 L346.6951,115.3384 L356.7683,116.4185 L366.8415,115.3647 L376.9146,115.5701 L386.9878,115.8812 L397.061,115.9847 L407.1341,115.4245 L417.2073,115.8126 L427.2805,114.6665 L437.3537,115.8089 L447.4268,116.1606 L457.5,115.4297 " fill="none" style="stroke:#383838;stroke-width:1.0;"/><text fill="#000000" font-family="FG Virgil" font-size="13" lengthAdjust="spacingAndGlyphs" textLength="216" x="51.5" y="110.3638">pretende realizar tarefa pendente</text><polygon fill="#383838" points="55.5,140.5625,55.526,140.6275,53.4487,141.2343,51.5239,142.2223,49.5495,143.0862,47.4117,143.5417,45.5,144.5625,45.4904,144.5384,47.4472,145.2305,49.4525,146.0438,51.4916,146.9414,53.4144,147.5485,55.5,148.5625,55.6305,148.693,54.5514,147.6139,53.8534,146.9159,53.2018,146.2643,52.2798,145.3423,51.5,144.5625,51.5161,144.5786,52.2925,143.755,53.1421,143.0046,53.9564,142.2189,54.838,141.5005,55.5,140.5625" style="stroke:#383838;stroke-width:1.0;"/><path d="M49.5,144.5625 L49.5,144.8427 L59.4524,144.0101 L69.4048,144.8202 L79.3571,145.0954 L89.3095,143.6113 L99.2619,144.4589 L109.2143,143.9938 L119.1667,144.0512 L129.119,144.4716 L139.0714,143.6407 L149.0238,145.3007 L158.9762,143.7221 L168.9286,144.2988 L178.881,145.1384 L188.8333,144.4481 L198.7857,144.6535 L208.7381,144.5199 L218.6905,144.8005 L228.6429,144.8813 L238.5952,145.3434 L248.5476,145.4572 L258.5,145.4682 L268.4524,144.902 L278.4048,145.1806 L288.3571,145.4988 L298.3095,143.6009 L308.2619,145.4672 L318.2143,144.1672 L328.1667,145.2742 L338.119,143.9025 L348.0714,144.4712 L358.0238,145.5513 L367.9762,144.4975 L377.9286,144.7029 L387.881,145.014 L397.8333,145.1175 L407.7857,144.5573 L417.7381,144.9455 L427.6905,143.7993 L437.6429,144.9417 L447.5952,145.2934 L457.5476,145.1552 L467.5,144.5625 " fill="none" style="stroke:#383838;stroke-width:1.0;stroke-dasharray:2.0,2.0;"/><text fill="#000000" font-family="FG Virgil" font-size="13" lengthAdjust="spacingAndGlyphs" textLength="395" x="61.5" y="139.4966">mostra lista de tarefas pendentes e solicita a escolha de uma</text><polygon fill="#383838" points="451.5,169.6953,451.526,169.7604,453.4487,170.3671,455.5239,171.3551,457.5495,172.219,459.4117,172.6745,461.5,173.6953,461.4904,173.6713,459.4472,174.3633,457.4525,175.1766,455.4916,176.0742,453.4144,176.6813,451.5,177.6953,451.6305,177.8258,452.1514,176.7468,453.0534,176.0487,454.0018,175.3971,454.6798,174.4751,455.5,173.6953,455.5161,173.7114,454.6925,172.8878,453.9421,172.1374,453.1564,171.3517,452.438,170.6334,451.5,169.6953" style="stroke:#383838;stroke-width:1.0;"/><path d="M44.5,173.6953 L44.5,173.9756 L54.5732,173.1429 L64.6463,173.953 L74.7195,174.2282 L84.7927,172.7441 L94.8659,173.5917 L104.939,173.1267 L115.0122,173.184 L125.0854,173.6044 L135.1585,172.7735 L145.2317,174.4335 L155.3049,172.8549 L165.378,173.4316 L175.4512,174.2712 L185.5244,173.5809 L195.5976,173.7863 L205.6707,173.6527 L215.7439,173.9333 L225.8171,174.0142 L235.8902,174.4762 L245.9634,174.5901 L256.0366,174.601 L266.1098,174.0348 L276.1829,174.3134 L286.2561,174.6316 L296.3293,172.7337 L306.4024,174.6 L316.4756,173.3 L326.5488,174.4071 L336.622,173.0353 L346.6951,173.604 L356.7683,174.6841 L366.8415,173.6303 L376.9146,173.8357 L386.9878,174.1468 L397.061,174.2503 L407.1341,173.6901 L417.2073,174.0783 L427.2805,172.9321 L437.3537,174.0745 L447.4268,174.4262 L457.5,173.6953 " fill="none" style="stroke:#383838;stroke-width:1.0;"/><text fill="#000000" font-family="FG Virgil" font-size="13" lengthAdjust="spacingAndGlyphs" textLength="172" x="51.5" y="168.6294">insere os dados solicitados</text><polygon fill="#383838" points="50.5,198.8281,50.526,198.8932,48.4487,199.4999,46.5239,200.4879,44.5495,201.3518,42.4117,201.8073,40.5,202.8281,40.4904,202.8041,42.4472,203.4961,44.4525,204.3094,46.4916,205.207,48.4144,205.8142,50.5,206.8281,50.6305,206.9586,49.5514,205.8796,48.8534,205.1815,48.2018,204.5299,47.2798,203.6079,46.5,202.8281,46.5161,202.8442,47.2925,202.0206,48.1421,201.2702,48.9564,200.4845,49.838,199.7662,50.5,198.8281" style="stroke:#383838;stroke-width:1.0;"/><path d="M44.5,202.8281 L44.5,203.1084 L54.5714,202.2757 L64.6429,203.0858 L74.7143,203.361 L84.7857,201.8769 L94.8571,202.7245 L104.9286,202.2595 L115,202.3168 L125.0714,202.7372 L135.1429,201.9063 L145.2143,203.5663 L155.2857,201.9878 L165.3571,202.5644 L175.4286,203.4041 L185.5,202.7138 L195.5714,202.9191 L205.6429,202.7855 L215.7143,203.0662 L225.7857,203.147 L235.8571,203.609 L245.9286,203.7229 L256,203.7338 L266.0714,203.1676 L276.1429,203.4462 L286.2143,203.7644 L296.2857,201.8665 L306.3571,203.7328 L316.4286,202.4328 L326.5,203.5399 L336.5714,202.1681 L346.6429,202.7368 L356.7143,203.8169 L366.7857,202.7631 L376.8571,202.9685 L386.9286,203.2796 L397,203.3831 L407.0714,202.8229 L417.1429,203.2111 L427.2143,202.0649 L437.2857,203.2073 L447.3571,203.5591 L457.4286,203.4208 L467.5,202.8281 " fill="none" style="stroke:#383838;stroke-width:1.0;stroke-dasharray:2.0,2.0;"/><text fill="#000000" font-family="FG Virgil" font-size="13" lengthAdjust="spacingAndGlyphs" textLength="189" x="56.5" y="197.7622">informa sucesso da operação</text><!--MD5=[a1d79fb8fd79d948e13f954ffb48af8f]
@startuml
'http://plantuml.com/skinparam.html
skinparam handwritten true
skinparam monochrome true
skinparam packageStyle rect
skinparam defaultFontName FG Virgil
skinparam shadowing false

actor Utilizador as Actor
participant System as System
activate Actor
Actor -> System: pretende realizar tarefa pendente
activate System
System - -> Actor: mostra lista de tarefas pendentes e solicita a escolha de uma
deactivate System

Actor -> System: insere os dados solicitados
activate System
System - -> Actor: informa sucesso da operação
deactivate System
deactivate Actor
@enduml

@startuml
skinparam handwritten true
skinparam monochrome true
skinparam packageStyle rect
skinparam defaultFontName FG Virgil
skinparam shadowing false

actor Utilizador as Actor
participant System as System
activate Actor
Actor -> System: pretende realizar tarefa pendente
activate System
System - -> Actor: mostra lista de tarefas pendentes e solicita a escolha de uma
deactivate System

Actor -> System: insere os dados solicitados
activate System
System - -> Actor: informa sucesso da operação
deactivate System
deactivate Actor
@enduml

PlantUML version 1.2020.22(Sun Dec 06 09:36:27 UTC 2020)
(GPL source distribution)
Java Runtime: OpenJDK Runtime Environment
JVM: OpenJDK 64-Bit Server VM
Default Encoding: UTF-8
Language: en
Country: US
--></g></svg>