<?xml version="1.0" encoding="UTF-8" standalone="no"?><svg xmlns="http://www.w3.org/2000/svg" xmlns:xlink="http://www.w3.org/1999/xlink" contentScriptType="application/ecmascript" contentStyleType="text/css" height="347px" preserveAspectRatio="none" style="width:840px;height:347px;" version="1.1" viewBox="0 0 840 347" width="840px" zoomAndPan="magnify"><defs/><g><!--MD5=[b05baaf79a5fa92f914a4bb8a629f5dc]
class ListCatalogoServicoUI--><polygon fill="#F8F8F8" points="273.5,7,273.5,7.2102,283.6875,6.5857,293.875,7.1933,304.0625,7.3997,314.25,6.2866,324.4375,6.9223,334.625,6.5735,344.8125,6.6165,355,6.9318,365.1875,6.3086,375.375,7.5536,385.5625,6.3697,395.75,6.8022,405.9375,7.4319,416.125,6.9142,426.3125,7.0682,436.5,7,436.4681,7,436.6785,17.7875,436.7391,28.575,437.0857,39.3625,437.1711,50.15,436.5,60.9375,436.5,61.6168,426.3125,61.1921,416.125,61.4011,405.9375,61.6397,395.75,60.2163,385.5625,61.616,375.375,60.641,365.1875,61.4713,355,60.4425,344.8125,60.869,334.625,61.6791,324.4375,60.8888,314.25,61.0428,304.0625,61.2761,293.875,61.3537,283.6875,60.9336,273.5,60.9375,273.7872,60.9375,272.9276,50.15,273.7844,39.3625,274.0482,28.575,273.9445,17.7875,273.5,7" style="stroke:#383838;stroke-width:1.5;"/><polygon fill="#C2C2C2" points="299.5608,28.6444,297.9484,30.8475,296.0412,34.0745,293.3136,36.2491,290.4474,37.4384,288.162,37.5416,285.2247,36.0543,282.4532,35.0827,280.3495,33.1099,279.2461,30.8515,278.5917,29.0533,277.9506,26.7045,276.91,24.6832,277.7096,22.7098,278.4102,20.548,281.0393,18.8382,282.889,16.6198,285.1784,15.8832,287.9001,15.2488,291.3904,15.6257,293.3021,16.5273,295.5247,16.9359,298.2272,19.7047,299.1693,22.6277,299.5786,24.6221,299.115,27.9086" style="stroke:#383838;stroke-width:1.0;"/><path d="M290.8438,21.6406 C289.9063,21.2031 289.3125,21.0625 288.4375,21.0625 C285.8125,21.0625 283.8125,23.1406 283.8125,25.8594 L283.8125,26.9844 C283.8125,29.5625 285.9219,31.4531 288.8125,31.4531 C290.0313,31.4531 291.1875,31.1563 291.9375,30.6094 C292.5156,30.2031 292.8438,29.75 292.8438,29.3594 C292.8438,28.9063 292.4531,28.5156 291.9844,28.5156 C291.7656,28.5156 291.5625,28.5938 291.375,28.7813 C290.9219,29.2656 290.9219,29.2656 290.7344,29.3594 C290.3125,29.625 289.625,29.75 288.8594,29.75 C286.8125,29.75 285.5156,28.6563 285.5156,26.9531 L285.5156,25.8594 C285.5156,24.0781 286.7656,22.7656 288.5,22.7656 C289.0781,22.7656 289.6875,22.9219 290.1563,23.1719 C290.6406,23.4531 290.8125,23.6719 290.9063,24.0781 C290.9688,24.4844 291,24.6094 291.1406,24.7344 C291.2813,24.875 291.5156,24.9844 291.7344,24.9844 C292,24.9844 292.2656,24.8438 292.4375,24.625 C292.5469,24.4688 292.5781,24.2813 292.5781,23.8594 L292.5781,22.4375 C292.5781,22 292.5625,21.875 292.4688,21.7188 C292.3125,21.4531 292.0313,21.3125 291.7344,21.3125 C291.4375,21.3125 291.2344,21.4063 291.0156,21.7188 L290.8438,21.6406 Z " fill="#000000"/><text fill="#000000" font-family="FG Virgil" font-size="12" font-style="italic" lengthAdjust="spacing" textLength="90" x="323" y="23.1387">«presentation»</text><text fill="#000000" font-family="FG Virgil" font-size="12" lengthAdjust="spacing" textLength="131" x="302.5" y="37.1074">ListCatalogoServicoUI</text><path d="M274.5,44.9375 L274.5,45.2177 L284.5625,44.3851 L294.625,45.1952 L304.6875,45.4704 L314.75,43.9863 L324.8125,44.8339 L334.875,44.3688 L344.9375,44.4262 L355,44.8466 L365.0625,44.0157 L375.125,45.6757 L385.1875,44.0971 L395.25,44.6738 L405.3125,45.5134 L415.375,44.8231 L425.4375,45.0285 L435.5,44.9375 " fill="#F8F8F8" style="stroke:#383838;stroke-width:1.5;"/><path d="M274.5,52.9375 L274.5,53.2177 L284.5625,52.3851 L294.625,53.1952 L304.6875,53.4704 L314.75,51.9863 L324.8125,52.8339 L334.875,52.3688 L344.9375,52.4262 L355,52.8466 L365.0625,52.0157 L375.125,53.6757 L385.1875,52.0971 L395.25,52.6738 L405.3125,53.5134 L415.375,52.8231 L425.4375,53.0285 L435.5,52.9375 " fill="#F8F8F8" style="stroke:#383838;stroke-width:1.5;"/><!--MD5=[bbf145543bce2e91d36f148c047675af]
class ListCatalogoServicoController--><polygon fill="#F8F8F8" points="250,121,250,121.2102,260,120.5857,270,121.1933,280,121.3997,290,120.2866,300,120.9223,310,120.5735,320,120.6165,330,120.9318,340,120.3086,350,121.5536,360,120.3697,370,120.8022,380,121.4319,390,120.9142,400,121.0682,410,120.9681,420,121.1785,430,121.2391,440,121.5857,450,121.6711,460,121,460.6793,121,460.2546,130.9434,460.4636,140.8867,460.7022,150.8301,459.2788,160.7734,460.6785,170.7168,459.7035,180.6602,460.5338,190.6035,460,200.5469,460,200.0519,450,200.4784,440,201.2885,430,200.4981,420,200.6522,410,200.8855,400,200.9631,390,200.543,380,200.8341,370,199.9745,360,200.8313,350,201.0951,340,200.9914,330,201.1599,320,200.0638,310,199.8947,300,199.9255,290,200.488,280,200.3503,270,201.2283,260,200.3722,250,200.5469,249.6569,200.5469,250.2283,190.6035,249.3332,180.6602,249.4809,170.7168,250.649,160.7734,250.4357,150.8301,250.7345,140.8867,249.6782,130.9434,250,121" style="stroke:#383838;stroke-width:1.5;"/><polygon fill="#C2C2C2" points="276.0608,142.6444,274.4484,144.8475,272.5412,148.0745,269.8136,150.2491,266.9474,151.4384,264.662,151.5416,261.7247,150.0543,258.9532,149.0827,256.8495,147.1099,255.7461,144.8515,255.0917,143.0533,254.4506,140.7045,253.41,138.6832,254.2096,136.7098,254.9102,134.548,257.5393,132.8382,259.389,130.6198,261.6784,129.8832,264.4001,129.2488,267.8904,129.6257,269.8021,130.5273,272.0247,130.9359,274.7272,133.7047,275.6693,136.6277,276.0786,138.6221,275.615,141.9086" style="stroke:#383838;stroke-width:1.0;"/><path d="M267.3438,135.6406 C266.4063,135.2031 265.8125,135.0625 264.9375,135.0625 C262.3125,135.0625 260.3125,137.1406 260.3125,139.8594 L260.3125,140.9844 C260.3125,143.5625 262.4219,145.4531 265.3125,145.4531 C266.5313,145.4531 267.6875,145.1563 268.4375,144.6094 C269.0156,144.2031 269.3438,143.75 269.3438,143.3594 C269.3438,142.9063 268.9531,142.5156 268.4844,142.5156 C268.2656,142.5156 268.0625,142.5938 267.875,142.7813 C267.4219,143.2656 267.4219,143.2656 267.2344,143.3594 C266.8125,143.625 266.125,143.75 265.3594,143.75 C263.3125,143.75 262.0156,142.6563 262.0156,140.9531 L262.0156,139.8594 C262.0156,138.0781 263.2656,136.7656 265,136.7656 C265.5781,136.7656 266.1875,136.9219 266.6563,137.1719 C267.1406,137.4531 267.3125,137.6719 267.4063,138.0781 C267.4688,138.4844 267.5,138.6094 267.6406,138.7344 C267.7813,138.875 268.0156,138.9844 268.2344,138.9844 C268.5,138.9844 268.7656,138.8438 268.9375,138.625 C269.0469,138.4688 269.0781,138.2813 269.0781,137.8594 L269.0781,136.4375 C269.0781,136 269.0625,135.875 268.9688,135.7188 C268.8125,135.4531 268.5313,135.3125 268.2344,135.3125 C267.9375,135.3125 267.7344,135.4063 267.5156,135.7188 L267.3438,135.6406 Z " fill="#000000"/><text fill="#000000" font-family="FG Virgil" font-size="12" font-style="italic" lengthAdjust="spacing" textLength="80" x="328" y="137.1387">«application»</text><text fill="#000000" font-family="FG Virgil" font-size="12" lengthAdjust="spacing" textLength="178" x="279" y="151.1074">ListCatalogoServicoController</text><path d="M251,158.9375 L251,159.2177 L260.9048,158.3851 L270.8095,159.1952 L280.7143,159.4704 L290.619,157.9863 L300.5238,158.8339 L310.4286,158.3688 L320.3333,158.4262 L330.2381,158.8466 L340.1429,158.0157 L350.0476,159.6757 L359.9524,158.0971 L369.8571,158.6738 L379.7619,159.5134 L389.6667,158.8231 L399.5714,159.0285 L409.4762,158.8949 L419.381,159.1755 L429.2857,159.2563 L439.1905,159.7184 L449.0952,159.8322 L459,158.9375 " fill="#F8F8F8" style="stroke:#383838;stroke-width:1.5;"/><path d="M251,166.9375 L251,167.2177 L260.9048,166.3851 L270.8095,167.1952 L280.7143,167.4704 L290.619,165.9863 L300.5238,166.8339 L310.4286,166.3688 L320.3333,166.4262 L330.2381,166.8466 L340.1429,166.0157 L350.0476,167.6757 L359.9524,166.0971 L369.8571,166.6738 L379.7619,167.5134 L389.6667,166.8231 L399.5714,167.0285 L409.4762,166.8949 L419.381,167.1755 L429.2857,167.2563 L439.1905,167.7184 L449.0952,167.8322 L459,166.9375 " fill="#F8F8F8" style="stroke:#383838;stroke-width:1.5;"/><text fill="#000000" font-family="FG Virgil" font-size="11" lengthAdjust="spacing" textLength="117" x="256" y="181.1479">listCatalogoServico()</text><text fill="#000000" font-family="FG Virgil" font-size="11" lengthAdjust="spacing" textLength="168" x="256" y="193.9526">findCatalogo(titulo, keywords)</text><!--MD5=[e8c189551b7885b999ad7cefb30fc2a3]
class PersistenceContext--><polygon fill="#F8F8F8" points="7,267.5,7,267.7102,16.8667,267.0857,26.7333,267.6933,36.6,267.8997,46.4667,266.7866,56.3333,267.4223,66.2,267.0735,76.0667,267.1165,85.9333,267.4318,95.8,266.8086,105.6667,268.0536,115.5333,266.8697,125.4,267.3022,135.2667,267.9319,145.1333,267.4142,155,267.5,155.0682,267.5,154.9681,277.0346,155.1785,286.5692,155.2391,296.1038,155.5857,305.6384,155.6711,315.173,155.6793,324.7076,155,334.2422,155,334.4968,145.1333,334.7058,135.2667,334.9444,125.4,333.521,115.5333,334.9207,105.6667,333.9457,95.8,334.776,85.9333,333.7472,76.0667,334.1737,66.2,334.9838,56.3333,334.1935,46.4667,334.3475,36.6,334.5808,26.7333,334.6584,16.8667,334.2383,7,334.2422,7.2872,334.2422,6.4276,324.7076,7.2844,315.173,7.5482,305.6384,7.4445,296.1038,7.613,286.5692,6.5169,277.0346,7,267.5" style="stroke:#383838;stroke-width:1.5;"/><polygon fill="#C2C2C2" points="33.0608,289.1444,31.4484,291.3475,29.5412,294.5745,26.8136,296.7491,23.9474,297.9384,21.662,298.0416,18.7247,296.5543,15.9532,295.5827,13.8495,293.6099,12.7461,291.3515,12.0917,289.5533,11.4506,287.2045,10.41,285.1832,11.2096,283.2098,11.9102,281.048,14.5393,279.3382,16.389,277.1198,18.6784,276.3832,21.4001,275.7488,24.8904,276.1257,26.8021,277.0273,29.0247,277.4359,31.7272,280.2047,32.6693,283.1277,33.0786,285.1221,32.615,288.4086" style="stroke:#383838;stroke-width:1.0;"/><path d="M24.3438,282.1406 C23.4063,281.7031 22.8125,281.5625 21.9375,281.5625 C19.3125,281.5625 17.3125,283.6406 17.3125,286.3594 L17.3125,287.4844 C17.3125,290.0625 19.4219,291.9531 22.3125,291.9531 C23.5313,291.9531 24.6875,291.6563 25.4375,291.1094 C26.0156,290.7031 26.3438,290.25 26.3438,289.8594 C26.3438,289.4063 25.9531,289.0156 25.4844,289.0156 C25.2656,289.0156 25.0625,289.0938 24.875,289.2813 C24.4219,289.7656 24.4219,289.7656 24.2344,289.8594 C23.8125,290.125 23.125,290.25 22.3594,290.25 C20.3125,290.25 19.0156,289.1563 19.0156,287.4531 L19.0156,286.3594 C19.0156,284.5781 20.2656,283.2656 22,283.2656 C22.5781,283.2656 23.1875,283.4219 23.6563,283.6719 C24.1406,283.9531 24.3125,284.1719 24.4063,284.5781 C24.4688,284.9844 24.5,285.1094 24.6406,285.2344 C24.7813,285.375 25.0156,285.4844 25.2344,285.4844 C25.5,285.4844 25.7656,285.3438 25.9375,285.125 C26.0469,284.9688 26.0781,284.7813 26.0781,284.3594 L26.0781,282.9375 C26.0781,282.5 26.0625,282.375 25.9688,282.2188 C25.8125,281.9531 25.5313,281.8125 25.2344,281.8125 C24.9375,281.8125 24.7344,281.9063 24.5156,282.2188 L24.3438,282.1406 Z " fill="#000000"/><text fill="#000000" font-family="FG Virgil" font-size="12" font-style="italic" lengthAdjust="spacing" textLength="83" x="52.5" y="283.6387">«persistence»</text><text fill="#000000" font-family="FG Virgil" font-size="12" lengthAdjust="spacing" textLength="116" x="36" y="297.6074">PersistenceContext</text><path d="M8,305.4375 L8,305.7177 L17.7333,304.8851 L27.4667,305.6952 L37.2,305.9704 L46.9333,304.4863 L56.6667,305.3339 L66.4,304.8688 L76.1333,304.9262 L85.8667,305.3466 L95.6,304.5157 L105.3333,306.1757 L115.0667,304.5971 L124.8,305.1738 L134.5333,306.0134 L144.2667,305.3231 L154,305.4375 " fill="#F8F8F8" style="stroke:#383838;stroke-width:1.5;"/><path d="M8,313.4375 L8,313.7177 L17.7333,312.8851 L27.4667,313.6952 L37.2,313.9704 L46.9333,312.4863 L56.6667,313.3339 L66.4,312.8688 L76.1333,312.9262 L85.8667,313.3466 L95.6,312.5157 L105.3333,314.1757 L115.0667,312.5971 L124.8,313.1738 L134.5333,314.0134 L144.2667,313.3231 L154,313.4375 " fill="#F8F8F8" style="stroke:#383838;stroke-width:1.5;"/><text fill="#000000" font-family="FG Virgil" font-size="11" lengthAdjust="spacing" textLength="75" x="13" y="327.6479">repositories()</text><!--MD5=[48590afff58a68e2fcba47824d6f8a11]
class RepositoryFactory--><polygon fill="#F8F8F8" points="190,261,190,261.2102,200.1429,260.5857,210.2857,261.1933,220.4286,261.3997,230.5714,260.2866,240.7143,260.9223,250.8571,260.5735,261,260.6165,271.1429,260.9318,281.2857,260.3086,291.4286,261.5536,301.5714,260.3697,311.7143,260.8022,321.8571,261.4319,332,261,331.9142,261,332.0682,270.9434,331.9681,280.8867,332.1785,290.8301,332.2391,300.7734,332.5857,310.7168,332.6711,320.6602,332.6793,330.6035,332,340.5469,332,340.8015,321.8571,341.0105,311.7143,341.2491,301.5714,339.8257,291.4286,341.2254,281.2857,340.2504,271.1429,341.0807,261,340.0519,250.8571,340.4784,240.7143,341.2885,230.5714,340.4981,220.4286,340.6522,210.2857,340.8855,200.1429,340.9631,190,340.5469,189.9961,340.5469,190.2872,330.6035,189.4276,320.6602,190.2844,310.7168,190.5482,300.7734,190.4445,290.8301,190.613,280.8867,189.5169,270.9434,190,261" style="stroke:#383838;stroke-width:1.5;"/><polygon fill="#C2C2C2" points="216.0608,282.6444,214.4484,284.8475,212.5412,288.0745,209.8136,290.2491,206.9474,291.4384,204.662,291.5416,201.7247,290.0543,198.9532,289.0827,196.8495,287.1099,195.7461,284.8515,195.0917,283.0533,194.4506,280.7045,193.41,278.6832,194.2096,276.7098,194.9102,274.548,197.5393,272.8382,199.389,270.6198,201.6784,269.8832,204.4001,269.2488,207.8904,269.6257,209.8021,270.5273,212.0247,270.9359,214.7272,273.7047,215.6693,276.6277,216.0786,278.6221,215.615,281.9086" style="stroke:#383838;stroke-width:1.0;"/><path d="M207.3438,275.6406 C206.4063,275.2031 205.8125,275.0625 204.9375,275.0625 C202.3125,275.0625 200.3125,277.1406 200.3125,279.8594 L200.3125,280.9844 C200.3125,283.5625 202.4219,285.4531 205.3125,285.4531 C206.5313,285.4531 207.6875,285.1563 208.4375,284.6094 C209.0156,284.2031 209.3438,283.75 209.3438,283.3594 C209.3438,282.9063 208.9531,282.5156 208.4844,282.5156 C208.2656,282.5156 208.0625,282.5938 207.875,282.7813 C207.4219,283.2656 207.4219,283.2656 207.2344,283.3594 C206.8125,283.625 206.125,283.75 205.3594,283.75 C203.3125,283.75 202.0156,282.6563 202.0156,280.9531 L202.0156,279.8594 C202.0156,278.0781 203.2656,276.7656 205,276.7656 C205.5781,276.7656 206.1875,276.9219 206.6563,277.1719 C207.1406,277.4531 207.3125,277.6719 207.4063,278.0781 C207.4688,278.4844 207.5,278.6094 207.6406,278.7344 C207.7813,278.875 208.0156,278.9844 208.2344,278.9844 C208.5,278.9844 208.7656,278.8438 208.9375,278.625 C209.0469,278.4688 209.0781,278.2813 209.0781,277.8594 L209.0781,276.4375 C209.0781,276 209.0625,275.875 208.9688,275.7188 C208.8125,275.4531 208.5313,275.3125 208.2344,275.3125 C207.9375,275.3125 207.7344,275.4063 207.5156,275.7188 L207.3438,275.6406 Z " fill="#000000"/><text fill="#000000" font-family="FG Virgil" font-size="12" font-style="italic" lengthAdjust="spacing" textLength="56" x="246" y="277.1387">«factory»</text><text fill="#000000" font-family="FG Virgil" font-size="12" lengthAdjust="spacing" textLength="110" x="219" y="291.1074">RepositoryFactory</text><path d="M191,298.9375 L191,299.2177 L201,298.3851 L211,299.1952 L221,299.4704 L231,297.9863 L241,298.8339 L251,298.3688 L261,298.4262 L271,298.8466 L281,298.0157 L291,299.6757 L301,298.0971 L311,298.6738 L321,299.5134 L331,298.9375 " fill="#F8F8F8" style="stroke:#383838;stroke-width:1.5;"/><path d="M191,306.9375 L191,307.2177 L201,306.3851 L211,307.1952 L221,307.4704 L231,305.9863 L241,306.8339 L251,306.3688 L261,306.4262 L271,306.8466 L281,306.0157 L291,307.6757 L301,306.0971 L311,306.6738 L321,307.5134 L331,306.9375 " fill="#F8F8F8" style="stroke:#383838;stroke-width:1.5;"/><text fill="#000000" font-family="FG Virgil" font-size="11" lengthAdjust="spacing" textLength="62" x="196" y="321.1479">catalogos()</text><text fill="#000000" font-family="FG Virgil" font-size="11" lengthAdjust="spacing" textLength="55" x="196" y="333.9526">servicos()</text><!--MD5=[37de35b2239f3e75f2a4e341603fb23d]
class CatalogoRepository--><polygon fill="#F8F8F8" points="367,261,367,261.2102,377.25,260.5857,387.5,261.1933,397.75,261.3997,408,260.2866,418.25,260.9223,428.5,260.5735,438.75,260.6165,449,260.9318,459.25,260.3086,469.5,261.5536,479.75,260.3697,490,260.8022,500.25,261.4319,510.5,260.9142,520.75,261.0682,531,261,530.9681,261,531.1785,270.9434,531.2391,280.8867,531.5857,290.8301,531.6711,300.7734,531.6793,310.7168,531.2546,320.6602,531.4636,330.6035,531,340.5469,531,341.2491,520.75,339.8257,510.5,341.2254,500.25,340.2504,490,341.0807,479.75,340.0519,469.5,340.4784,459.25,341.2885,449,340.4981,438.75,340.6522,428.5,340.8855,418.25,340.9631,408,340.543,397.75,340.8341,387.5,339.9745,377.25,340.8313,367,340.5469,367.5482,340.5469,367.4445,330.6035,367.613,320.6602,366.5169,310.7168,366.3478,300.7734,366.3786,290.8301,366.9411,280.8867,366.8035,270.9434,367,261" style="stroke:#383838;stroke-width:1.5;"/><polygon fill="#C2C2C2" points="399.3608,282.6444,397.7484,284.8475,395.8412,288.0745,393.1136,290.2491,390.2474,291.4384,387.962,291.5416,385.0247,290.0543,382.2532,289.0827,380.1495,287.1099,379.0461,284.8515,378.3917,283.0533,377.7506,280.7045,376.71,278.6832,377.5096,276.7098,378.2102,274.548,380.8393,272.8382,382.689,270.6198,384.9784,269.8832,387.7001,269.2488,391.1904,269.6257,393.1021,270.5273,395.3247,270.9359,398.0272,273.7047,398.9693,276.6277,399.3786,278.6221,398.915,281.9086" style="stroke:#383838;stroke-width:1.0;"/><path d="M390.6438,275.6406 C389.7063,275.2031 389.1125,275.0625 388.2375,275.0625 C385.6125,275.0625 383.6125,277.1406 383.6125,279.8594 L383.6125,280.9844 C383.6125,283.5625 385.7219,285.4531 388.6125,285.4531 C389.8313,285.4531 390.9875,285.1563 391.7375,284.6094 C392.3156,284.2031 392.6438,283.75 392.6438,283.3594 C392.6438,282.9063 392.2531,282.5156 391.7844,282.5156 C391.5656,282.5156 391.3625,282.5938 391.175,282.7813 C390.7219,283.2656 390.7219,283.2656 390.5344,283.3594 C390.1125,283.625 389.425,283.75 388.6594,283.75 C386.6125,283.75 385.3156,282.6563 385.3156,280.9531 L385.3156,279.8594 C385.3156,278.0781 386.5656,276.7656 388.3,276.7656 C388.8781,276.7656 389.4875,276.9219 389.9563,277.1719 C390.4406,277.4531 390.6125,277.6719 390.7063,278.0781 C390.7688,278.4844 390.8,278.6094 390.9406,278.7344 C391.0813,278.875 391.3156,278.9844 391.5344,278.9844 C391.8,278.9844 392.0656,278.8438 392.2375,278.625 C392.3469,278.4688 392.3781,278.2813 392.3781,277.8594 L392.3781,276.4375 C392.3781,276 392.3625,275.875 392.2688,275.7188 C392.1125,275.4531 391.8313,275.3125 391.5344,275.3125 C391.2375,275.3125 391.0344,275.4063 390.8156,275.7188 L390.6438,275.6406 Z " fill="#000000"/><text fill="#000000" font-family="FG Virgil" font-size="12" font-style="italic" lengthAdjust="spacing" textLength="74" x="425.7" y="277.1387">«repository»</text><text fill="#000000" font-family="FG Virgil" font-size="12" lengthAdjust="spacing" textLength="118" x="403.7" y="291.1074">CatalogoRepository</text><path d="M368,298.9375 L368,299.2177 L378.125,298.3851 L388.25,299.1952 L398.375,299.4704 L408.5,297.9863 L418.625,298.8339 L428.75,298.3688 L438.875,298.4262 L449,298.8466 L459.125,298.0157 L469.25,299.6757 L479.375,298.0971 L489.5,298.6738 L499.625,299.5134 L509.75,298.8231 L519.875,299.0285 L530,298.9375 " fill="#F8F8F8" style="stroke:#383838;stroke-width:1.5;"/><path d="M368,306.9375 L368,307.2177 L378.125,306.3851 L388.25,307.1952 L398.375,307.4704 L408.5,305.9863 L418.625,306.8339 L428.75,306.3688 L438.875,306.4262 L449,306.8466 L459.125,306.0157 L469.25,307.6757 L479.375,306.0971 L489.5,306.6738 L499.625,307.5134 L509.75,306.8231 L519.875,307.0285 L530,306.9375 " fill="#F8F8F8" style="stroke:#383838;stroke-width:1.5;"/><text fill="#000000" font-family="FG Virgil" font-size="11" lengthAdjust="spacing" textLength="113" x="373" y="321.1479">findCatalogos(titulo)</text><text fill="#000000" font-family="FG Virgil" font-size="11" lengthAdjust="spacing" textLength="152" x="373" y="333.9526">findAllServico(listCatalogo)</text><!--MD5=[51865f8cbfe0824679c335d6e733f291]
class ServicoRepository--><polygon fill="#F8F8F8" points="566.5,267.5,566.5,267.7102,576.3889,267.0857,586.2778,267.6933,596.1667,267.8997,606.0556,266.7866,615.9444,267.4223,625.8333,267.0735,635.7222,267.1165,645.6111,267.4318,655.5,266.8086,665.3889,268.0536,675.2778,266.8697,685.1667,267.3022,695.0556,267.9319,704.9444,267.4142,714.8333,267.5682,724.7222,267.4681,734.6111,267.6785,744.5,267.7391,754.3889,268.0857,764.2778,268.1711,774.1667,268.1793,784.0556,267.7546,793.9444,267.9636,803.8333,268.2022,813.7222,266.7788,823.6111,268.1785,833.5,267.5,833.2035,267.5,834.0338,277.0346,833.005,286.5692,833.4315,296.1038,834.2416,305.6384,833.4513,315.173,833.6053,324.7076,833.5,334.2422,833.5,334.5808,823.6111,334.6584,813.7222,334.2383,803.8333,334.5294,793.9444,333.6698,784.0556,334.5266,774.1667,334.7904,764.2778,334.6867,754.3889,334.8552,744.5,333.7591,734.6111,333.59,724.7222,333.6208,714.8333,334.1833,704.9444,334.0457,695.0556,334.9236,685.1667,334.0675,675.2778,333.8991,665.3889,334.4705,655.5,333.5753,645.6111,333.7231,635.7222,334.8911,625.8333,334.6779,615.9444,334.9767,606.0556,333.9204,596.1667,334.5614,586.2778,334.8326,576.3889,333.7698,566.5,334.2422,566.4041,334.2422,566.626,324.7076,567.1518,315.173,566.4958,305.6384,566.9626,296.1038,565.9462,286.5692,565.8227,277.0346,566.5,267.5" style="stroke:#383838;stroke-width:1.5;"/><polygon fill="#C2C2C2" points="651.3108,289.1444,649.6984,291.3475,647.7912,294.5745,645.0636,296.7491,642.1974,297.9384,639.912,298.0416,636.9747,296.5543,634.2032,295.5827,632.0995,293.6099,630.9961,291.3515,630.3417,289.5533,629.7006,287.2045,628.66,285.1832,629.4596,283.2098,630.1602,281.048,632.7893,279.3382,634.639,277.1198,636.9284,276.3832,639.6501,275.7488,643.1404,276.1257,645.0521,277.0273,647.2747,277.4359,649.9772,280.2047,650.9193,283.1277,651.3286,285.1221,650.865,288.4086" style="stroke:#383838;stroke-width:1.0;"/><path d="M642.5938,282.1406 C641.6563,281.7031 641.0625,281.5625 640.1875,281.5625 C637.5625,281.5625 635.5625,283.6406 635.5625,286.3594 L635.5625,287.4844 C635.5625,290.0625 637.6719,291.9531 640.5625,291.9531 C641.7813,291.9531 642.9375,291.6563 643.6875,291.1094 C644.2656,290.7031 644.5938,290.25 644.5938,289.8594 C644.5938,289.4063 644.2031,289.0156 643.7344,289.0156 C643.5156,289.0156 643.3125,289.0938 643.125,289.2813 C642.6719,289.7656 642.6719,289.7656 642.4844,289.8594 C642.0625,290.125 641.375,290.25 640.6094,290.25 C638.5625,290.25 637.2656,289.1563 637.2656,287.4531 L637.2656,286.3594 C637.2656,284.5781 638.5156,283.2656 640.25,283.2656 C640.8281,283.2656 641.4375,283.4219 641.9063,283.6719 C642.3906,283.9531 642.5625,284.1719 642.6563,284.5781 C642.7188,284.9844 642.75,285.1094 642.8906,285.2344 C643.0313,285.375 643.2656,285.4844 643.4844,285.4844 C643.75,285.4844 644.0156,285.3438 644.1875,285.125 C644.2969,284.9688 644.3281,284.7813 644.3281,284.3594 L644.3281,282.9375 C644.3281,282.5 644.3125,282.375 644.2188,282.2188 C644.0625,281.9531 643.7813,281.8125 643.4844,281.8125 C643.1875,281.8125 642.9844,281.9063 642.7656,282.2188 L642.5938,282.1406 Z " fill="#000000"/><text fill="#000000" font-family="FG Virgil" font-size="12" font-style="italic" lengthAdjust="spacing" textLength="74" x="679.25" y="283.6387">«repository»</text><text fill="#000000" font-family="FG Virgil" font-size="12" lengthAdjust="spacing" textLength="111" x="660.75" y="297.6074">ServicoRepository</text><path d="M567.5,305.4375 L567.5,305.7177 L577.3148,304.8851 L587.1296,305.6952 L596.9444,305.9704 L606.7593,304.4863 L616.5741,305.3339 L626.3889,304.8688 L636.2037,304.9262 L646.0185,305.3466 L655.8333,304.5157 L665.6481,306.1757 L675.463,304.5971 L685.2778,305.1738 L695.0926,306.0134 L704.9074,305.3231 L714.7222,305.5285 L724.537,305.3949 L734.3519,305.6755 L744.1667,305.7563 L753.9815,306.2184 L763.7963,306.3322 L773.6111,306.3432 L783.4259,305.777 L793.2407,306.0556 L803.0556,306.3738 L812.8704,304.4759 L822.6852,306.3422 L832.5,305.4375 " fill="#F8F8F8" style="stroke:#383838;stroke-width:1.5;"/><path d="M567.5,313.4375 L567.5,313.7177 L577.3148,312.8851 L587.1296,313.6952 L596.9444,313.9704 L606.7593,312.4863 L616.5741,313.3339 L626.3889,312.8688 L636.2037,312.9262 L646.0185,313.3466 L655.8333,312.5157 L665.6481,314.1757 L675.463,312.5971 L685.2778,313.1738 L695.0926,314.0134 L704.9074,313.3231 L714.7222,313.5285 L724.537,313.3949 L734.3519,313.6755 L744.1667,313.7563 L753.9815,314.2184 L763.7963,314.3322 L773.6111,314.3432 L783.4259,313.777 L793.2407,314.0556 L803.0556,314.3738 L812.8704,312.4759 L822.6852,314.3422 L832.5,313.4375 " fill="#F8F8F8" style="stroke:#383838;stroke-width:1.5;"/><text fill="#000000" font-family="FG Virgil" font-size="11" lengthAdjust="spacing" textLength="255" x="572.5" y="327.6479">findServico(listTotalServico, keywords, titulo)</text><!--MD5=[3c1e07c68c3c748cf2024506b62afe7d]
link ListCatalogoServicoUI to ListCatalogoServicoController--><path d="M355,61.204 L355.2802,61.204 L354.4476,72.056 L355.2577,82.908 L355.5329,93.76 L354.0488,104.612 L355,115.464 " fill="none" style="stroke:#383838;stroke-width:1.0;"/><polygon fill="#383838" points="355,120.524,355.064,120.5525,355.6738,118.6679,356.6589,116.9502,357.5217,115.1781,357.9827,113.2274,359,111.524,358.9817,111.5057,358.0995,112.2235,357.3096,113.0336,356.5839,113.9079,355.637,114.561,355,115.524,355.1305,115.6545,354.0514,114.5754,353.3534,113.8774,352.7018,113.2258,351.7798,112.3038,351,111.524,351.0208,111.5332,351.7903,113.3197,352.6544,115.1482,353.4728,116.9564,354.3784,118.8033,355,120.524" style="stroke:#383838;stroke-width:1.0;"/><!--MD5=[16030bbba96bdc8c006222a4fe210720]
link ListCatalogoServicoController to CatalogoRepository--><path d="M381.685,201.176 L381.9166,201.3338 L386.5916,208.7385 L392.6243,217.0681 L398.2149,225.0965 L402.3514,232.1345 L408.4151,240.4852 L413.3939,248.0969 L419.227,256.2905 " fill="none" style="stroke:#383838;stroke-width:1.0;"/><polygon fill="#383838" points="422.248,260.7259,422.3169,260.7384,421.7601,258.7632,421.6073,256.8613,421.3229,254.9356,420.6058,252.9312,420.4877,251.0356,420.4622,251.0308,420.1371,252.1207,419.9404,253.2349,419.8328,254.366,419.4178,255.4389,419.4334,256.5934,419.4678,256.7747,418.2827,256.1761,417.198,256.1069,416.1256,256.1022,414.9818,255.7218,413.8756,255.5391,413.8876,255.5584,415.5445,256.5674,417.2559,257.6644,418.941,258.7189,420.6763,259.8545,422.248,260.7259" style="stroke:#383838;stroke-width:1.0;"/><!--MD5=[bb79e93b990d00d412c2e666933258e8]
link ListCatalogoServicoController to ServicoRepository--><path d="M452.94,201.176 L453.0441,201.4362 L462.21,204.4532 L471.9861,208.9954 L481.5634,213.041 L490.4874,215.4531 L500.2774,220.0302 L509.5799,223.3885 L519.0763,227.2318 L528.7077,231.4122 L537.8742,234.4308 L547.9659,239.7622 L556.8548,242.0866 L566.5442,246.4121 L576.3312,250.9817 L585.55,254.1309 L595.1014,258.1116 L604.527,261.7777 L614.018,265.6073 " fill="none" style="stroke:#383838;stroke-width:1.0;"/><polygon fill="#383838" points="618.711,267.4843,618.7612,267.5332,617.238,265.9766,616.009,264.7066,614.6842,263.3432,613.0443,261.673,611.8406,260.4276,611.8168,260.4174,612.1555,261.4115,612.6143,262.4571,613.1566,263.5384,613.4112,264.4965,614.0687,265.6271,614.1414,265.7968,612.946,265.8797,611.9629,266.4578,611.0057,267.0964,609.8978,267.3834,608.8691,267.8553,608.87,267.878,610.8371,267.7704,612.8081,267.7664,614.7773,267.7123,616.75,267.7536,618.711,267.4843" style="stroke:#383838;stroke-width:1.0;"/><!--MD5=[fdd11377543d24b532c4c9b5ae8a70d6]
link ListCatalogoServicoController to PersistenceContext--><path d="M277.216,201.176 L277.3421,201.4263 L267.897,205.251 L259.1909,210.5429 L250.2442,215.357 L240.5061,218.5999 L231.8169,223.9252 L222.5372,228.0783 L213.4925,232.6978 L204.6111,237.6417 L195.1668,241.4679 L186.8431,247.5189 L177.0625,250.6774 L168.2514,255.7608 L159.5586,261.079 L150.229,265.133 " fill="none" style="stroke:#383838;stroke-width:1.0;"/><polygon fill="#383838" points="145.56,267.4843,145.5634,267.5543,147.5208,267.2514,149.4981,267.3587,151.4689,267.3324,153.4184,266.8668,155.3974,267.0093,155.3893,266.9847,154.2785,266.5196,153.2087,266.1784,152.1673,265.9235,151.0279,265.3715,150.0258,265.2356,150.201,265.2935,150.181,264.0954,150.6727,263.0663,151.2267,262.0578,151.4176,260.9294,151.7995,259.864,151.8171,259.8784,150.5434,261.3813,149.3497,262.9498,148.1175,264.4867,146.959,266.0839,145.56,267.4843" style="stroke:#383838;stroke-width:1.0;"/><!--MD5=[d303398dc9bcaa23a4dc2c39d8791ceb]
link ListCatalogoServicoController to RepositoryFactory--><path d="M328.315,201.176 L328.5466,201.3338 L322.4953,208.7385 L317.8017,217.0681 L312.666,225.0965 L306.0763,232.1345 L301.4136,240.4852 L295.6662,248.0969 L290.773,256.2905 " fill="none" style="stroke:#383838;stroke-width:1.0;"/><polygon fill="#383838" points="287.752,260.7259,287.7889,260.7855,289.3537,259.5711,291.1349,258.7059,292.8456,257.727,294.3247,256.3743,296.1244,255.5391,296.1195,255.5136,294.9863,255.6102,293.8775,255.8352,292.7855,256.1493,291.6352,256.1561,290.5666,256.5934,290.7479,256.6278,290.1494,255.4427,290.0801,254.358,290.0755,253.2856,289.6951,252.1419,289.5123,251.0356,289.5347,251.0397,289.1498,252.9718,288.8667,254.9224,288.5346,256.864,288.2962,258.8227,287.752,260.7259" style="stroke:#383838;stroke-width:1.0;"/><!--MD5=[7c14fad564ce18dfa5cb3e74946eb387]
@startuml
'http://plantuml.com/skinparam.html
skinparam handwritten true
skinparam monochrome true
skinparam packageStyle rect
skinparam defaultFontName FG Virgil
skinparam shadowing false

class ListCatalogoServicoUI <<presentation>>
class ListCatalogoServicoController <<application>>
class PersistenceContext <<persistence>>
class RepositoryFactory <<factory>>
class CatalogoRepository <<repository>>
class ServicoRepository <<repository>>


ListCatalogoServicoUI - -> ListCatalogoServicoController
ListCatalogoServicoController : listCatalogoServico()
ListCatalogoServicoController : findCatalogo(titulo, keywords)

ListCatalogoServicoController - -> CatalogoRepository
ListCatalogoServicoController - -> ServicoRepository
ListCatalogoServicoController - -> PersistenceContext
PersistenceContext : repositories()
ListCatalogoServicoController - -> RepositoryFactory
RepositoryFactory : catalogos()
RepositoryFactory : servicos()

CatalogoRepository : findCatalogos(titulo)
CatalogoRepository : findAllServico(listCatalogo)

ServicoRepository : findServico(listTotalServico, keywords, titulo)
@enduml

@startuml
skinparam handwritten true
skinparam monochrome true
skinparam packageStyle rect
skinparam defaultFontName FG Virgil
skinparam shadowing false

class ListCatalogoServicoUI <<presentation>>
class ListCatalogoServicoController <<application>>
class PersistenceContext <<persistence>>
class RepositoryFactory <<factory>>
class CatalogoRepository <<repository>>
class ServicoRepository <<repository>>


ListCatalogoServicoUI - -> ListCatalogoServicoController
ListCatalogoServicoController : listCatalogoServico()
ListCatalogoServicoController : findCatalogo(titulo, keywords)

ListCatalogoServicoController - -> CatalogoRepository
ListCatalogoServicoController - -> ServicoRepository
ListCatalogoServicoController - -> PersistenceContext
PersistenceContext : repositories()
ListCatalogoServicoController - -> RepositoryFactory
RepositoryFactory : catalogos()
RepositoryFactory : servicos()

CatalogoRepository : findCatalogos(titulo)
CatalogoRepository : findAllServico(listCatalogo)

ServicoRepository : findServico(listTotalServico, keywords, titulo)
@enduml

PlantUML version 1.2021.5(Sun Apr 25 11:20:28 UTC 2021)
(GPL source distribution)
Java Runtime: Java(TM) SE Runtime Environment
JVM: Java HotSpot(TM) 64-Bit Server VM
Default Encoding: UTF-8
Language: en
Country: US
--></g></svg>