<?xml version="1.0" encoding="UTF-8" standalone="no"?><svg xmlns="http://www.w3.org/2000/svg" xmlns:xlink="http://www.w3.org/1999/xlink" contentScriptType="application/ecmascript" contentStyleType="text/css" height="639px" preserveAspectRatio="none" style="width:486px;height:639px;" version="1.1" viewBox="0 0 486 639" width="486px" zoomAndPan="magnify"><defs/><g><!--MD5=[b05baaf79a5fa92f914a4bb8a629f5dc]
class ListCatalogoServicoUI--><polygon fill="#F8F8F8" points="150.5,7,150.5,7.2102,160.6875,6.5857,170.875,7.1933,181.0625,7.3997,191.25,6.2866,201.4375,6.9223,211.625,6.5735,221.8125,6.6165,232,6.9318,242.1875,6.3086,252.375,7.5536,262.5625,6.3697,272.75,6.8022,282.9375,7.4319,293.125,6.9142,303.3125,7.0682,313.5,7,313.4681,7,313.6785,17.7875,313.7391,28.575,314.0857,39.3625,314.1711,50.15,313.5,60.9375,313.5,61.6168,303.3125,61.1921,293.125,61.4011,282.9375,61.6397,272.75,60.2163,262.5625,61.616,252.375,60.641,242.1875,61.4713,232,60.4425,221.8125,60.869,211.625,61.6791,201.4375,60.8888,191.25,61.0428,181.0625,61.2761,170.875,61.3537,160.6875,60.9336,150.5,60.9375,150.7872,60.9375,149.9276,50.15,150.7844,39.3625,151.0482,28.575,150.9445,17.7875,150.5,7" style="stroke:#383838;stroke-width:1.5;"/><polygon fill="#C2C2C2" points="176.5608,28.6444,174.9484,30.8475,173.0412,34.0745,170.3136,36.2491,167.4474,37.4384,165.162,37.5416,162.2247,36.0543,159.4532,35.0827,157.3495,33.1099,156.2461,30.8515,155.5917,29.0533,154.9506,26.7045,153.91,24.6832,154.7096,22.7098,155.4102,20.548,158.0393,18.8382,159.889,16.6198,162.1784,15.8832,164.9001,15.2488,168.3904,15.6257,170.3021,16.5273,172.5247,16.9359,175.2272,19.7047,176.1693,22.6277,176.5786,24.6221,176.115,27.9086" style="stroke:#383838;stroke-width:1.0;"/><path d="M167.8438,21.6406 C166.9063,21.2031 166.3125,21.0625 165.4375,21.0625 C162.8125,21.0625 160.8125,23.1406 160.8125,25.8594 L160.8125,26.9844 C160.8125,29.5625 162.9219,31.4531 165.8125,31.4531 C167.0313,31.4531 168.1875,31.1563 168.9375,30.6094 C169.5156,30.2031 169.8438,29.75 169.8438,29.3594 C169.8438,28.9063 169.4531,28.5156 168.9844,28.5156 C168.7656,28.5156 168.5625,28.5938 168.375,28.7813 C167.9219,29.2656 167.9219,29.2656 167.7344,29.3594 C167.3125,29.625 166.625,29.75 165.8594,29.75 C163.8125,29.75 162.5156,28.6563 162.5156,26.9531 L162.5156,25.8594 C162.5156,24.0781 163.7656,22.7656 165.5,22.7656 C166.0781,22.7656 166.6875,22.9219 167.1563,23.1719 C167.6406,23.4531 167.8125,23.6719 167.9063,24.0781 C167.9688,24.4844 168,24.6094 168.1406,24.7344 C168.2813,24.875 168.5156,24.9844 168.7344,24.9844 C169,24.9844 169.2656,24.8438 169.4375,24.625 C169.5469,24.4688 169.5781,24.2813 169.5781,23.8594 L169.5781,22.4375 C169.5781,22 169.5625,21.875 169.4688,21.7188 C169.3125,21.4531 169.0313,21.3125 168.7344,21.3125 C168.4375,21.3125 168.2344,21.4063 168.0156,21.7188 L167.8438,21.6406 Z " fill="#000000"/><text fill="#000000" font-family="FG Virgil" font-size="12" font-style="italic" lengthAdjust="spacing" textLength="90" x="200" y="23.1387">«presentation»</text><text fill="#000000" font-family="FG Virgil" font-size="12" lengthAdjust="spacing" textLength="131" x="179.5" y="37.1074">ListCatalogoServicoUI</text><path d="M151.5,44.9375 L151.5,45.2177 L161.5625,44.3851 L171.625,45.1952 L181.6875,45.4704 L191.75,43.9863 L201.8125,44.8339 L211.875,44.3688 L221.9375,44.4262 L232,44.8466 L242.0625,44.0157 L252.125,45.6757 L262.1875,44.0971 L272.25,44.6738 L282.3125,45.5134 L292.375,44.8231 L302.4375,45.0285 L312.5,44.9375 " fill="#F8F8F8" style="stroke:#383838;stroke-width:1.5;"/><path d="M151.5,52.9375 L151.5,53.2177 L161.5625,52.3851 L171.625,53.1952 L181.6875,53.4704 L191.75,51.9863 L201.8125,52.8339 L211.875,52.3688 L221.9375,52.4262 L232,52.8466 L242.0625,52.0157 L252.125,53.6757 L262.1875,52.0971 L272.25,52.6738 L282.3125,53.5134 L292.375,52.8231 L302.4375,53.0285 L312.5,52.9375 " fill="#F8F8F8" style="stroke:#383838;stroke-width:1.5;"/><!--MD5=[bbf145543bce2e91d36f148c047675af]
class ListCatalogoServicoController--><polygon fill="#F8F8F8" points="127,121,127,121.2102,137,120.5857,147,121.1933,157,121.3997,167,120.2866,177,120.9223,187,120.5735,197,120.6165,207,120.9318,217,120.3086,227,121.5536,237,120.3697,247,120.8022,257,121.4319,267,120.9142,277,121.0682,287,120.9681,297,121.1785,307,121.2391,317,121.5857,327,121.6711,337,121,337.6793,121,337.2546,130.5597,337.4636,140.1193,337.7022,149.679,336.2788,159.2386,337.6785,168.7983,336.7035,178.358,337.5338,187.9176,336.505,197.4773,336.9315,207.0369,337.7416,216.5966,337,226.1563,337,226.1075,327,226.2616,317,226.4949,307,226.5725,297,226.1523,287,226.4435,277,225.5838,267,226.4406,257,226.7044,247,226.6008,237,226.7693,227,225.6732,217,225.5041,207,225.5348,197,226.0974,187,225.9597,177,226.8377,167,225.9816,157,225.8132,147,226.3845,137,225.4894,127,226.1563,126.4809,226.1563,127.649,216.5966,127.4357,207.0369,127.7345,197.4773,126.6782,187.9176,127.3192,178.358,127.5904,168.7983,126.5276,159.2386,126.9041,149.679,127.126,140.1193,127.6518,130.5597,127,121" style="stroke:#383838;stroke-width:1.5;"/><polygon fill="#C2C2C2" points="153.0608,142.6444,151.4484,144.8475,149.5412,148.0745,146.8136,150.2491,143.9474,151.4384,141.662,151.5416,138.7247,150.0543,135.9532,149.0827,133.8495,147.1099,132.7461,144.8515,132.0917,143.0533,131.4506,140.7045,130.41,138.6832,131.2096,136.7098,131.9102,134.548,134.5393,132.8382,136.389,130.6198,138.6784,129.8832,141.4001,129.2488,144.8904,129.6257,146.8021,130.5273,149.0247,130.9359,151.7272,133.7047,152.6693,136.6277,153.0786,138.6221,152.615,141.9086" style="stroke:#383838;stroke-width:1.0;"/><path d="M144.3438,135.6406 C143.4063,135.2031 142.8125,135.0625 141.9375,135.0625 C139.3125,135.0625 137.3125,137.1406 137.3125,139.8594 L137.3125,140.9844 C137.3125,143.5625 139.4219,145.4531 142.3125,145.4531 C143.5313,145.4531 144.6875,145.1563 145.4375,144.6094 C146.0156,144.2031 146.3438,143.75 146.3438,143.3594 C146.3438,142.9063 145.9531,142.5156 145.4844,142.5156 C145.2656,142.5156 145.0625,142.5938 144.875,142.7813 C144.4219,143.2656 144.4219,143.2656 144.2344,143.3594 C143.8125,143.625 143.125,143.75 142.3594,143.75 C140.3125,143.75 139.0156,142.6563 139.0156,140.9531 L139.0156,139.8594 C139.0156,138.0781 140.2656,136.7656 142,136.7656 C142.5781,136.7656 143.1875,136.9219 143.6563,137.1719 C144.1406,137.4531 144.3125,137.6719 144.4063,138.0781 C144.4688,138.4844 144.5,138.6094 144.6406,138.7344 C144.7813,138.875 145.0156,138.9844 145.2344,138.9844 C145.5,138.9844 145.7656,138.8438 145.9375,138.625 C146.0469,138.4688 146.0781,138.2813 146.0781,137.8594 L146.0781,136.4375 C146.0781,136 146.0625,135.875 145.9688,135.7188 C145.8125,135.4531 145.5313,135.3125 145.2344,135.3125 C144.9375,135.3125 144.7344,135.4063 144.5156,135.7188 L144.3438,135.6406 Z " fill="#000000"/><text fill="#000000" font-family="FG Virgil" font-size="12" font-style="italic" lengthAdjust="spacing" textLength="80" x="205" y="137.1387">«application»</text><text fill="#000000" font-family="FG Virgil" font-size="12" lengthAdjust="spacing" textLength="178" x="156" y="151.1074">ListCatalogoServicoController</text><path d="M128,158.9375 L128,159.2177 L137.9048,158.3851 L147.8095,159.1952 L157.7143,159.4704 L167.619,157.9863 L177.5238,158.8339 L187.4286,158.3688 L197.3333,158.4262 L207.2381,158.8466 L217.1429,158.0157 L227.0476,159.6757 L236.9524,158.0971 L246.8571,158.6738 L256.7619,159.5134 L266.6667,158.8231 L276.5714,159.0285 L286.4762,158.8949 L296.381,159.1755 L306.2857,159.2563 L316.1905,159.7184 L326.0952,159.8322 L336,158.9375 " fill="#F8F8F8" style="stroke:#383838;stroke-width:1.5;"/><path d="M128,166.9375 L128,167.2177 L137.9048,166.3851 L147.8095,167.1952 L157.7143,167.4704 L167.619,165.9863 L177.5238,166.8339 L187.4286,166.3688 L197.3333,166.4262 L207.2381,166.8466 L217.1429,166.0157 L227.0476,167.6757 L236.9524,166.0971 L246.8571,166.6738 L256.7619,167.5134 L266.6667,166.8231 L276.5714,167.0285 L286.4762,166.8949 L296.381,167.1755 L306.2857,167.2563 L316.1905,167.7184 L326.0952,167.8322 L336,166.9375 " fill="#F8F8F8" style="stroke:#383838;stroke-width:1.5;"/><text fill="#000000" font-family="FG Virgil" font-size="11" lengthAdjust="spacing" textLength="74" x="133" y="181.1479">listCatalogo()</text><text fill="#000000" font-family="FG Virgil" font-size="11" lengthAdjust="spacing" textLength="67" x="133" y="193.9526">listServico()</text><text fill="#000000" font-family="FG Virgil" font-size="11" lengthAdjust="spacing" textLength="113" x="133" y="206.7573">findCatalogos(titulo)</text><text fill="#000000" font-family="FG Virgil" font-size="11" lengthAdjust="spacing" textLength="167" x="133" y="219.562">findServicos(titulo, keywords)</text><!--MD5=[e8c189551b7885b999ad7cefb30fc2a3]
class PersistenceContext--><polygon fill="#F8F8F8" points="95,286,95,286.2102,104.8667,285.5857,114.7333,286.1933,124.6,286.3997,134.4667,285.2866,144.3333,285.9223,154.2,285.5735,164.0667,285.6165,173.9333,285.9318,183.8,285.3086,193.6667,286.5536,203.5333,285.3697,213.4,285.8022,223.2667,286.4319,233.1333,285.9142,243,286,243.0682,286,242.9681,295.5346,243.1785,305.0692,243.2391,314.6038,243.5857,324.1384,243.6711,333.673,243.6793,343.2076,243,352.7422,243,352.9968,233.1333,353.2058,223.2667,353.4444,213.4,352.021,203.5333,353.4207,193.6667,352.4457,183.8,353.276,173.9333,352.2472,164.0667,352.6737,154.2,353.4838,144.3333,352.6935,134.4667,352.8475,124.6,353.0808,114.7333,353.1584,104.8667,352.7383,95,352.7422,95.2872,352.7422,94.4276,343.2076,95.2844,333.673,95.5482,324.1384,95.4445,314.6038,95.613,305.0692,94.5169,295.5346,95,286" style="stroke:#383838;stroke-width:1.5;"/><polygon fill="#C2C2C2" points="121.0608,307.6444,119.4484,309.8475,117.5412,313.0745,114.8136,315.2491,111.9474,316.4384,109.662,316.5416,106.7247,315.0543,103.9532,314.0827,101.8495,312.1099,100.7461,309.8515,100.0917,308.0533,99.4506,305.7045,98.41,303.6832,99.2096,301.7098,99.9102,299.548,102.5393,297.8382,104.389,295.6198,106.6784,294.8832,109.4001,294.2488,112.8904,294.6257,114.8021,295.5273,117.0247,295.9359,119.7272,298.7047,120.6693,301.6277,121.0786,303.6221,120.615,306.9086" style="stroke:#383838;stroke-width:1.0;"/><path d="M112.3438,300.6406 C111.4063,300.2031 110.8125,300.0625 109.9375,300.0625 C107.3125,300.0625 105.3125,302.1406 105.3125,304.8594 L105.3125,305.9844 C105.3125,308.5625 107.4219,310.4531 110.3125,310.4531 C111.5313,310.4531 112.6875,310.1563 113.4375,309.6094 C114.0156,309.2031 114.3438,308.75 114.3438,308.3594 C114.3438,307.9063 113.9531,307.5156 113.4844,307.5156 C113.2656,307.5156 113.0625,307.5938 112.875,307.7813 C112.4219,308.2656 112.4219,308.2656 112.2344,308.3594 C111.8125,308.625 111.125,308.75 110.3594,308.75 C108.3125,308.75 107.0156,307.6563 107.0156,305.9531 L107.0156,304.8594 C107.0156,303.0781 108.2656,301.7656 110,301.7656 C110.5781,301.7656 111.1875,301.9219 111.6563,302.1719 C112.1406,302.4531 112.3125,302.6719 112.4063,303.0781 C112.4688,303.4844 112.5,303.6094 112.6406,303.7344 C112.7813,303.875 113.0156,303.9844 113.2344,303.9844 C113.5,303.9844 113.7656,303.8438 113.9375,303.625 C114.0469,303.4688 114.0781,303.2813 114.0781,302.8594 L114.0781,301.4375 C114.0781,301 114.0625,300.875 113.9688,300.7188 C113.8125,300.4531 113.5313,300.3125 113.2344,300.3125 C112.9375,300.3125 112.7344,300.4063 112.5156,300.7188 L112.3438,300.6406 Z " fill="#000000"/><text fill="#000000" font-family="FG Virgil" font-size="12" font-style="italic" lengthAdjust="spacing" textLength="83" x="140.5" y="302.1387">«persistence»</text><text fill="#000000" font-family="FG Virgil" font-size="12" lengthAdjust="spacing" textLength="116" x="124" y="316.1074">PersistenceContext</text><path d="M96,323.9375 L96,324.2177 L105.7333,323.3851 L115.4667,324.1952 L125.2,324.4704 L134.9333,322.9863 L144.6667,323.8339 L154.4,323.3688 L164.1333,323.4262 L173.8667,323.8466 L183.6,323.0157 L193.3333,324.6757 L203.0667,323.0971 L212.8,323.6738 L222.5333,324.5134 L232.2667,323.8231 L242,323.9375 " fill="#F8F8F8" style="stroke:#383838;stroke-width:1.5;"/><path d="M96,331.9375 L96,332.2177 L105.7333,331.3851 L115.4667,332.1952 L125.2,332.4704 L134.9333,330.9863 L144.6667,331.8339 L154.4,331.3688 L164.1333,331.4262 L173.8667,331.8466 L183.6,331.0157 L193.3333,332.6757 L203.0667,331.0971 L212.8,331.6738 L222.5333,332.5134 L232.2667,331.8231 L242,331.9375 " fill="#F8F8F8" style="stroke:#383838;stroke-width:1.5;"/><text fill="#000000" font-family="FG Virgil" font-size="11" lengthAdjust="spacing" textLength="75" x="101" y="346.1479">repositories()</text><!--MD5=[48590afff58a68e2fcba47824d6f8a11]
class RepositoryFactory--><polygon fill="#F8F8F8" points="135,413,135,413.2102,145.1429,412.5857,155.2857,413.1933,165.4286,413.3997,175.5714,412.2866,185.7143,412.9223,195.8571,412.5735,206,412.6165,216.1429,412.9318,226.2857,412.3086,236.4286,413.5536,246.5714,412.3697,256.7143,412.8022,266.8571,413.4319,277,413,276.9142,413,277.0682,422.9434,276.9681,432.8867,277.1785,442.8301,277.2391,452.7734,277.5857,462.7168,277.6711,472.6602,277.6793,482.6035,277,492.5469,277,492.8015,266.8571,493.0105,256.7143,493.2491,246.5714,491.8257,236.4286,493.2254,226.2857,492.2504,216.1429,493.0807,206,492.0519,195.8571,492.4784,185.7143,493.2885,175.5714,492.4981,165.4286,492.6522,155.2857,492.8855,145.1429,492.9631,135,492.5469,134.9961,492.5469,135.2872,482.6035,134.4276,472.6602,135.2844,462.7168,135.5482,452.7734,135.4445,442.8301,135.613,432.8867,134.5169,422.9434,135,413" style="stroke:#383838;stroke-width:1.5;"/><polygon fill="#C2C2C2" points="161.0608,434.6444,159.4484,436.8475,157.5412,440.0745,154.8136,442.2491,151.9474,443.4384,149.662,443.5416,146.7247,442.0543,143.9532,441.0827,141.8495,439.1099,140.7461,436.8515,140.0917,435.0533,139.4506,432.7045,138.41,430.6832,139.2096,428.7098,139.9102,426.548,142.5393,424.8382,144.389,422.6198,146.6784,421.8832,149.4001,421.2488,152.8904,421.6257,154.8021,422.5273,157.0247,422.9359,159.7272,425.7047,160.6693,428.6277,161.0786,430.6221,160.615,433.9086" style="stroke:#383838;stroke-width:1.0;"/><path d="M152.3438,427.6406 C151.4063,427.2031 150.8125,427.0625 149.9375,427.0625 C147.3125,427.0625 145.3125,429.1406 145.3125,431.8594 L145.3125,432.9844 C145.3125,435.5625 147.4219,437.4531 150.3125,437.4531 C151.5313,437.4531 152.6875,437.1563 153.4375,436.6094 C154.0156,436.2031 154.3438,435.75 154.3438,435.3594 C154.3438,434.9063 153.9531,434.5156 153.4844,434.5156 C153.2656,434.5156 153.0625,434.5938 152.875,434.7813 C152.4219,435.2656 152.4219,435.2656 152.2344,435.3594 C151.8125,435.625 151.125,435.75 150.3594,435.75 C148.3125,435.75 147.0156,434.6563 147.0156,432.9531 L147.0156,431.8594 C147.0156,430.0781 148.2656,428.7656 150,428.7656 C150.5781,428.7656 151.1875,428.9219 151.6563,429.1719 C152.1406,429.4531 152.3125,429.6719 152.4063,430.0781 C152.4688,430.4844 152.5,430.6094 152.6406,430.7344 C152.7813,430.875 153.0156,430.9844 153.2344,430.9844 C153.5,430.9844 153.7656,430.8438 153.9375,430.625 C154.0469,430.4688 154.0781,430.2813 154.0781,429.8594 L154.0781,428.4375 C154.0781,428 154.0625,427.875 153.9688,427.7188 C153.8125,427.4531 153.5313,427.3125 153.2344,427.3125 C152.9375,427.3125 152.7344,427.4063 152.5156,427.7188 L152.3438,427.6406 Z " fill="#000000"/><text fill="#000000" font-family="FG Virgil" font-size="12" font-style="italic" lengthAdjust="spacing" textLength="56" x="191" y="429.1387">«factory»</text><text fill="#000000" font-family="FG Virgil" font-size="12" lengthAdjust="spacing" textLength="110" x="164" y="443.1074">RepositoryFactory</text><path d="M136,450.9375 L136,451.2177 L146,450.3851 L156,451.1952 L166,451.4704 L176,449.9863 L186,450.8339 L196,450.3688 L206,450.4262 L216,450.8466 L226,450.0157 L236,451.6757 L246,450.0971 L256,450.6738 L266,451.5134 L276,450.9375 " fill="#F8F8F8" style="stroke:#383838;stroke-width:1.5;"/><path d="M136,458.9375 L136,459.2177 L146,458.3851 L156,459.1952 L166,459.4704 L176,457.9863 L186,458.8339 L196,458.3688 L206,458.4262 L216,458.8466 L226,458.0157 L236,459.6757 L246,458.0971 L256,458.6738 L266,459.5134 L276,458.9375 " fill="#F8F8F8" style="stroke:#383838;stroke-width:1.5;"/><text fill="#000000" font-family="FG Virgil" font-size="11" lengthAdjust="spacing" textLength="62" x="141" y="473.1479">catalogos()</text><text fill="#000000" font-family="FG Virgil" font-size="11" lengthAdjust="spacing" textLength="55" x="141" y="485.9526">servicos()</text><!--MD5=[37de35b2239f3e75f2a4e341603fb23d]
class CatalogoRepository--><polygon fill="#F8F8F8" points="7,553,7,553.2102,17,552.5857,27,553.1933,37,553.3997,47,552.2866,57,552.9223,67,552.5735,77,552.6165,87,552.9318,97,552.3086,107,553.5536,117,552.3697,127,552.8022,137,553.4319,147,552.9142,157,553,157.0682,553,156.9681,562.9434,157.1785,572.8867,157.2391,582.8301,157.5857,592.7734,157.6711,602.7168,157.6793,612.6602,157.2546,622.6035,157,632.5469,157,633.0105,147,633.2491,137,631.8257,127,633.2254,117,632.2504,107,633.0807,97,632.0519,87,632.4784,77,633.2885,67,632.4981,57,632.6522,47,632.8855,37,632.9631,27,632.543,17,632.8341,7,632.5469,6.4276,632.5469,7.2844,622.6035,7.5482,612.6602,7.4445,602.7168,7.613,592.7734,6.5169,582.8301,6.3478,572.8867,6.3786,562.9434,7,553" style="stroke:#383838;stroke-width:1.5;"/><polygon fill="#C2C2C2" points="33.0608,574.6444,31.4484,576.8475,29.5412,580.0745,26.8136,582.2491,23.9474,583.4384,21.662,583.5416,18.7247,582.0543,15.9532,581.0827,13.8495,579.1099,12.7461,576.8515,12.0917,575.0533,11.4506,572.7045,10.41,570.6832,11.2096,568.7098,11.9102,566.548,14.5393,564.8382,16.389,562.6198,18.6784,561.8832,21.4001,561.2488,24.8904,561.6257,26.8021,562.5273,29.0247,562.9359,31.7272,565.7047,32.6693,568.6277,33.0786,570.6221,32.615,573.9086" style="stroke:#383838;stroke-width:1.0;"/><path d="M24.3438,567.6406 C23.4063,567.2031 22.8125,567.0625 21.9375,567.0625 C19.3125,567.0625 17.3125,569.1406 17.3125,571.8594 L17.3125,572.9844 C17.3125,575.5625 19.4219,577.4531 22.3125,577.4531 C23.5313,577.4531 24.6875,577.1563 25.4375,576.6094 C26.0156,576.2031 26.3438,575.75 26.3438,575.3594 C26.3438,574.9063 25.9531,574.5156 25.4844,574.5156 C25.2656,574.5156 25.0625,574.5938 24.875,574.7813 C24.4219,575.2656 24.4219,575.2656 24.2344,575.3594 C23.8125,575.625 23.125,575.75 22.3594,575.75 C20.3125,575.75 19.0156,574.6563 19.0156,572.9531 L19.0156,571.8594 C19.0156,570.0781 20.2656,568.7656 22,568.7656 C22.5781,568.7656 23.1875,568.9219 23.6563,569.1719 C24.1406,569.4531 24.3125,569.6719 24.4063,570.0781 C24.4688,570.4844 24.5,570.6094 24.6406,570.7344 C24.7813,570.875 25.0156,570.9844 25.2344,570.9844 C25.5,570.9844 25.7656,570.8438 25.9375,570.625 C26.0469,570.4688 26.0781,570.2813 26.0781,569.8594 L26.0781,568.4375 C26.0781,568 26.0625,567.875 25.9688,567.7188 C25.8125,567.4531 25.5313,567.3125 25.2344,567.3125 C24.9375,567.3125 24.7344,567.4063 24.5156,567.7188 L24.3438,567.6406 Z " fill="#000000"/><text fill="#000000" font-family="FG Virgil" font-size="12" font-style="italic" lengthAdjust="spacing" textLength="74" x="58" y="569.1387">«repository»</text><text fill="#000000" font-family="FG Virgil" font-size="12" lengthAdjust="spacing" textLength="118" x="36" y="583.1074">CatalogoRepository</text><path d="M8,590.9375 L8,591.2177 L17.8667,590.3851 L27.7333,591.1952 L37.6,591.4704 L47.4667,589.9863 L57.3333,590.8339 L67.2,590.3688 L77.0667,590.4262 L86.9333,590.8466 L96.8,590.0157 L106.6667,591.6757 L116.5333,590.0971 L126.4,590.6738 L136.2667,591.5134 L146.1333,590.8231 L156,590.9375 " fill="#F8F8F8" style="stroke:#383838;stroke-width:1.5;"/><path d="M8,598.9375 L8,599.2177 L17.8667,598.3851 L27.7333,599.1952 L37.6,599.4704 L47.4667,597.9863 L57.3333,598.8339 L67.2,598.3688 L77.0667,598.4262 L86.9333,598.8466 L96.8,598.0157 L106.6667,599.6757 L116.5333,598.0971 L126.4,598.6738 L136.2667,599.5134 L146.1333,598.8231 L156,598.9375 " fill="#F8F8F8" style="stroke:#383838;stroke-width:1.5;"/><text fill="#000000" font-family="FG Virgil" font-size="11" lengthAdjust="spacing" textLength="113" x="13" y="613.1479">findCatalogos(titulo)</text><text fill="#000000" font-family="FG Virgil" font-size="11" lengthAdjust="spacing" textLength="136" x="13" y="625.9526">findAllServico(Catalogo)</text><!--MD5=[51865f8cbfe0824679c335d6e733f291]
class ServicoRepository--><polygon fill="#F8F8F8" points="212.5,559.5,212.5,559.7102,222.3889,559.0857,232.2778,559.6933,242.1667,559.8997,252.0556,558.7866,261.9444,559.4223,271.8333,559.0735,281.7222,559.1165,291.6111,559.4318,301.5,558.8086,311.3889,560.0536,321.2778,558.8697,331.1667,559.3022,341.0556,559.9319,350.9444,559.4142,360.8333,559.5682,370.7222,559.4681,380.6111,559.6785,390.5,559.7391,400.3889,560.0857,410.2778,560.1711,420.1667,560.1793,430.0556,559.7546,439.9444,559.9636,449.8333,560.2022,459.7222,558.7788,469.6111,560.1785,479.5,559.5,479.2035,559.5,480.0338,569.0346,479.005,578.5692,479.4315,588.1038,480.2416,597.6384,479.4513,607.173,479.6053,616.7076,479.5,626.2422,479.5,626.5808,469.6111,626.6584,459.7222,626.2383,449.8333,626.5294,439.9444,625.6698,430.0556,626.5266,420.1667,626.7904,410.2778,626.6867,400.3889,626.8552,390.5,625.7591,380.6111,625.59,370.7222,625.6208,360.8333,626.1833,350.9444,626.0457,341.0556,626.9236,331.1667,626.0675,321.2778,625.8991,311.3889,626.4705,301.5,625.5753,291.6111,625.7231,281.7222,626.8911,271.8333,626.6779,261.9444,626.9767,252.0556,625.9204,242.1667,626.5614,232.2778,626.8326,222.3889,625.7698,212.5,626.2422,212.4041,626.2422,212.626,616.7076,213.1518,607.173,212.4958,597.6384,212.9626,588.1038,211.9462,578.5692,211.8227,569.0346,212.5,559.5" style="stroke:#383838;stroke-width:1.5;"/><polygon fill="#C2C2C2" points="297.3108,581.1444,295.6984,583.3475,293.7912,586.5745,291.0636,588.7491,288.1974,589.9384,285.912,590.0416,282.9747,588.5543,280.2032,587.5827,278.0995,585.6099,276.9961,583.3515,276.3417,581.5533,275.7006,579.2045,274.66,577.1832,275.4596,575.2098,276.1602,573.048,278.7893,571.3382,280.639,569.1198,282.9284,568.3832,285.6501,567.7488,289.1404,568.1257,291.0521,569.0273,293.2747,569.4359,295.9772,572.2047,296.9193,575.1277,297.3286,577.1221,296.865,580.4086" style="stroke:#383838;stroke-width:1.0;"/><path d="M288.5938,574.1406 C287.6563,573.7031 287.0625,573.5625 286.1875,573.5625 C283.5625,573.5625 281.5625,575.6406 281.5625,578.3594 L281.5625,579.4844 C281.5625,582.0625 283.6719,583.9531 286.5625,583.9531 C287.7813,583.9531 288.9375,583.6563 289.6875,583.1094 C290.2656,582.7031 290.5938,582.25 290.5938,581.8594 C290.5938,581.4063 290.2031,581.0156 289.7344,581.0156 C289.5156,581.0156 289.3125,581.0938 289.125,581.2813 C288.6719,581.7656 288.6719,581.7656 288.4844,581.8594 C288.0625,582.125 287.375,582.25 286.6094,582.25 C284.5625,582.25 283.2656,581.1563 283.2656,579.4531 L283.2656,578.3594 C283.2656,576.5781 284.5156,575.2656 286.25,575.2656 C286.8281,575.2656 287.4375,575.4219 287.9063,575.6719 C288.3906,575.9531 288.5625,576.1719 288.6563,576.5781 C288.7188,576.9844 288.75,577.1094 288.8906,577.2344 C289.0313,577.375 289.2656,577.4844 289.4844,577.4844 C289.75,577.4844 290.0156,577.3438 290.1875,577.125 C290.2969,576.9688 290.3281,576.7813 290.3281,576.3594 L290.3281,574.9375 C290.3281,574.5 290.3125,574.375 290.2188,574.2188 C290.0625,573.9531 289.7813,573.8125 289.4844,573.8125 C289.1875,573.8125 288.9844,573.9063 288.7656,574.2188 L288.5938,574.1406 Z " fill="#000000"/><text fill="#000000" font-family="FG Virgil" font-size="12" font-style="italic" lengthAdjust="spacing" textLength="74" x="325.25" y="575.6387">«repository»</text><text fill="#000000" font-family="FG Virgil" font-size="12" lengthAdjust="spacing" textLength="111" x="306.75" y="589.6074">ServicoRepository</text><path d="M213.5,597.4375 L213.5,597.7177 L223.3148,596.8851 L233.1296,597.6952 L242.9444,597.9704 L252.7593,596.4863 L262.5741,597.3339 L272.3889,596.8688 L282.2037,596.9262 L292.0185,597.3466 L301.8333,596.5157 L311.6481,598.1757 L321.463,596.5971 L331.2778,597.1738 L341.0926,598.0134 L350.9074,597.3231 L360.7222,597.5285 L370.537,597.3949 L380.3519,597.6755 L390.1667,597.7563 L399.9815,598.2184 L409.7963,598.3322 L419.6111,598.3432 L429.4259,597.777 L439.2407,598.0556 L449.0556,598.3738 L458.8704,596.4759 L468.6852,598.3422 L478.5,597.4375 " fill="#F8F8F8" style="stroke:#383838;stroke-width:1.5;"/><path d="M213.5,605.4375 L213.5,605.7177 L223.3148,604.8851 L233.1296,605.6952 L242.9444,605.9704 L252.7593,604.4863 L262.5741,605.3339 L272.3889,604.8688 L282.2037,604.9262 L292.0185,605.3466 L301.8333,604.5157 L311.6481,606.1757 L321.463,604.5971 L331.2778,605.1738 L341.0926,606.0134 L350.9074,605.3231 L360.7222,605.5285 L370.537,605.3949 L380.3519,605.6755 L390.1667,605.7563 L399.9815,606.2184 L409.7963,606.3322 L419.6111,606.3432 L429.4259,605.777 L439.2407,606.0556 L449.0556,606.3738 L458.8704,604.4759 L468.6852,606.3422 L478.5,605.4375 " fill="#F8F8F8" style="stroke:#383838;stroke-width:1.5;"/><text fill="#000000" font-family="FG Virgil" font-size="11" lengthAdjust="spacing" textLength="255" x="218.5" y="619.6479">findServico(listTotalServico, keywords, titulo)</text><!--MD5=[3c1e07c68c3c748cf2024506b62afe7d]
link ListCatalogoServicoUI to ListCatalogoServicoController--><path d="M232,61.186 L232.2802,61.186 L231.4476,72.0486 L232.2577,82.9112 L232.5329,93.7738 L231.0488,104.6364 L232,115.499 " fill="none" style="stroke:#383838;stroke-width:1.0;"/><polygon fill="#383838" points="232,120.78,232.064,120.8085,232.6738,118.9239,233.6589,117.2062,234.5217,115.4341,234.9827,113.4834,236,111.78,235.9817,111.7617,235.0995,112.4795,234.3096,113.2896,233.5839,114.1639,232.637,114.817,232,115.78,232.1305,115.9105,231.0514,114.8314,230.3534,114.1334,229.7018,113.4818,228.7798,112.5598,228,111.78,228.0208,111.7892,228.7903,113.5757,229.6544,115.4042,230.4728,117.2124,231.3784,119.0593,232,120.78" style="stroke:#383838;stroke-width:1.0;"/><!--MD5=[16030bbba96bdc8c006222a4fe210720]
link ListCatalogoServicoController to CatalogoRepository--><path d="M130.901,226.077 L130.9582,226.1509 L129.1829,227.1743 L127.7429,228.6308 L126.1937,229.9462 L124.2854,230.798 L122.8742,232.2916 L122.8519,232.2652 L121.1915,233.462 L119.6434,234.7919 L118.1732,236.2144 L116.4342,237.3179 L115.0717,238.8681 L115.2388,239.0488 L113.3804,240.0504 L112.0096,241.5795 L110.6984,243.1729 L109.041,244.3919 L107.5657,245.8078 L107.5873,245.829 L106.1279,247.2587 L104.7673,248.7849 L103.359,250.2646 L102.0416,251.8331 L100.4279,253.112 L100.6526,253.3082 L99.3158,254.8446 L97.8342,256.2544 L96.5646,257.8495 L95.305,259.4533 L93.7305,260.782 L93.4765,260.5865 L92.7324,262.5733 L91.152,263.9165 L90.2074,265.749 L88.608,267.0775 L87.5454,268.8191 L87.52,268.8022 L86.6995,270.683 L85.287,272.1693 L84.2238,273.8884 L83.1899,275.627 L81.9445,277.2247 L82.1057,277.3155 L80.9541,278.9789 L80.0779,280.7975 L78.7562,282.365 L78.099,284.307 L77,286 L77.2216,286.1013 L75.7052,289.3066 L74.2988,292.5623 L72.3813,295.5841 L70.8384,298.7774 L69.6275,302.1224 L69.3676,302.029 L68.4016,305.4583 L67.1427,308.7824 L66.3086,312.2591 L64.7492,315.4753 L63.621,318.8463 L63.474,318.8058 L62.7713,322.3138 L61.4403,325.6488 L60.5562,329.1068 L60.1093,332.6852 L58.8838,336.0492 L59.0735,336.0877 L58.4908,339.626 L57.3178,343.0445 L56.8841,346.6131 L56.2894,350.1489 L55.3193,353.6086 L55.1114,353.5795 L54.7795,357.1614 L54.3795,360.7337 L54.1133,364.3247 L53.327,367.843 L52.8312,371.402 L53.036,371.4192 L52.2842,374.9623 L51.9278,378.5386 L52.1491,382.1636 L51.3068,385.699 L51.3227,389.3067 L51.5487,389.3146 L51.2894,392.8887 L50.9535,396.46 L50.7903,400.0374 L51.0261,403.6288 L50.6973,407.2004 L50.5642,407.1992 L50.9925,410.7548 L50.5161,414.3021 L51.0684,417.8589 L51.0414,421.4103 L50.8584,424.9604 L50.9672,424.9657 L51.0496,428.4622 L51.5214,431.9776 L51.6415,435.4759 L51.6145,438.9671 L51.7096,442.4642 L51.8283,442.4742 L51.9408,445.8843 L52.6047,449.341 L52.6449,452.745 L52.9417,456.1707 L53.1541,459.5893 L52.8856,459.5579 L53.3635,462.8932 L54.165,466.2662 L54.5087,469.5858 L54.6883,472.8862 L55.0956,476.2131 L54.9539,476.1924 L55.4677,479.3991 L55.7305,482.569 L56.683,485.8399 L57.2942,489.0608 L57.4373,492.2132 L57.6678,492.2532 L58.2707,495.3167 L58.4356,498.3043 L59.0628,501.3721 L59.384,504.3868 L60.0828,507.467 L60.2066,507.4915 L60.7609,510.3653 L61.4647,513.2687 L61.6943,516.078 L62.3063,518.9633 L62.9355,521.8519 L63.1279,521.8944 L63.7743,524.585 L63.8984,527.1601 L64.6293,529.8694 L65.3709,532.581 L65.8988,535.2454 L65.6349,535.1814 L66.6469,537.7383 L67.2011,540.1843 L67.6416,542.6026 L68.3421,545.084 L68.8761,547.525 " fill="none" style="stroke:#383838;stroke-width:1.0;"/><polygon fill="#383838" points="70.1941,552.6525,70.2632,552.6641,70.3846,550.6871,70.911,548.7782,71.3055,546.8471,71.2662,544.8431,71.8274,542.94,71.8051,542.9268,71.1294,543.8417,70.5661,544.8229,70.081,545.8504,69.3265,546.7187,68.9492,547.8099,69.0431,547.9688,67.8684,547.0534,66.9677,546.6019,66.1005,546.207,65.0388,545.4828,64.0793,544.9318,64.0972,544.9459,65.2939,546.4693,66.5719,548.057,67.8107,549.6137,69.1242,551.2296,70.1941,552.6525" style="stroke:#383838;stroke-width:1.0;"/><!--MD5=[bb79e93b990d00d412c2e666933258e8]
link ListCatalogoServicoController to ServicoRepository--><path d="M262.336,226.164 L262.4191,226.2066 L263.6319,228.9313 L265.3321,231.9055 L266.8736,234.7985 L267.8931,237.4242 L269.6351,240.4199 L269.6039,240.4051 L270.882,243.3299 L272.3175,246.3293 L273.8624,249.3805 L275.0304,252.253 L276.7263,255.3759 L276.9524,255.4728 L277.7812,258.3273 L279.2703,261.4649 L280.8399,264.6369 L281.9408,267.6081 L283.2883,270.6849 L283.3167,270.6955 L284.4173,273.743 L285.6473,276.8387 L286.8149,279.9111 L288.1016,283.0279 L289,286 L289.2836,286.0923 L290.4417,289.6426 L291.4168,293.1333 L292.6598,296.7112 L293.9153,300.2932 L294.7731,303.7458 L294.4658,303.6545 L296.1421,307.4628 L296.8067,310.9702 L298.2403,314.7064 L298.882,318.207 L300.1728,321.9007 L300.1435,321.8927 L301.4982,325.677 L302.1667,329.274 L303.2401,332.9815 L304.3476,336.6984 L305.2098,340.3482 L305.3892,340.3934 L306.145,344.0726 L307.2074,347.829 L307.7739,351.4606 L309.0801,355.2782 L309.8945,358.9722 L310.1318,359.0274 L310.9555,362.7538 L311.897,366.5075 L312.2911,370.1341 L313.0865,373.8539 L314.2374,377.6563 L313.9674,377.5982 L315.0142,381.3764 L315.7567,385.0891 L316.9405,388.8968 L317.3709,392.5423 L318.2491,396.2843 L318.0996,396.2544 L319.0868,399.9952 L319.4349,403.6083 L320.2375,407.3123 L321.4848,411.1052 L321.9402,414.7397 L322.1306,414.7752 L322.9373,418.4328 L323.152,421.9803 L324.1082,425.6657 L324.9029,429.3211 L325.3211,432.9064 L325.1143,432.8706 L325.8954,436.4515 L326.6088,440.0207 L327.4553,443.613 L327.7843,447.1155 L328.4024,450.6681 L328.6054,450.701 L328.7179,454.0768 L329.2222,457.5161 L330.2987,461.0481 L330.3217,464.4094 L331.1947,467.9084 L331.4183,467.9423 L331.7882,471.2427 L332.0824,474.5317 L332.5474,477.8465 L333.4072,481.2211 L333.7083,484.5111 L333.5766,484.4925 L334.4179,487.7178 L334.3634,490.8162 L335.3274,494.0589 L335.718,497.2203 L335.954,500.3599 L336.062,500.3738 L336.7207,506.1566 L337.766,511.9893 L338.4621,517.777 L339.0121,523.5459 L339.6833,529.3304 L339.8018,529.3438 L340.1826,534.2357 L341.1132,539.1899 L341.4219,544.0737 L341.9865,548.9864 L342.467,553.8896 " fill="none" style="stroke:#383838;stroke-width:1.0;"/><polygon fill="#383838" points="343.006,559.0541,343.0726,559.0757,343.4832,557.138,344.2843,555.3272,344.9583,553.475,345.2139,551.4869,346.0486,549.687,346.0284,549.6707,345.2257,550.4763,344.5243,551.3642,343.8935,552.3092,343.0196,553.0572,342.4861,554.0812,342.6024,554.2246,341.475,553.2055,340.6869,552.605,339.9403,552.0556,338.9528,551.209,338.0919,550.5188,338.1116,550.5301,339.0655,552.2205,340.1091,553.9626,341.1095,555.6797,342.1924,557.4444,343.006,559.0541" style="stroke:#383838;stroke-width:1.0;"/><!--MD5=[fdd11377543d24b532c4c9b5ae8a70d6]
link ListCatalogoServicoController to PersistenceContext--><path d="M209.433,226.081 L209.6897,226.1933 L204.9207,235.0166 L201.6568,244.4983 L197.9027,253.7656 L192.5369,262.3277 L189.3072,271.8245 L185.396,281.023 " fill="none" style="stroke:#383838;stroke-width:1.0;"/><polygon fill="#383838" points="183.368,285.659,183.4152,285.7107,184.7294,284.2287,186.3205,283.05,187.8214,281.7725,189.0258,280.1703,190.6407,279.0176,190.6312,278.9934,189.5352,279.2973,188.4868,279.7229,187.4715,280.2329,186.3422,280.4516,185.3725,281.0784,185.5444,281.1456,184.7647,279.9482,184.4868,278.9472,184.2701,277.97,183.6972,276.8535,183.3117,275.8103,183.3345,275.8104,183.3123,277.78,183.3937,279.7501,183.4252,281.72,183.552,283.6904,183.368,285.659" style="stroke:#383838;stroke-width:1.0;"/><!--MD5=[d303398dc9bcaa23a4dc2c39d8791ceb]
link ListCatalogoServicoController to RepositoryFactory--><path d="M251.066,226.187 L251.1561,226.2118 L251.6616,228.9452 L252.695,231.824 L253.5566,234.6555 L253.8527,237.3313 L254.9315,240.2226 L254.8979,240.2147 L255.4487,243.1821 L256.1691,246.189 L257.0074,249.2235 L257.4395,252.1631 L258.4405,255.2357 L258.6824,255.2808 L258.7527,258.3366 L259.5292,261.5241 L260.392,264.7276 L260.7534,267.8377 L261.3784,270.997 L261.4085,271.0009 L261.7949,274.2511 L262.3181,277.5194 L262.7753,280.779 L263.3585,284.0552 L263.531,287.2771 L263.8285,287.2978 L264.0627,290.612 L264.105,293.9129 L264.4282,297.2333 L264.7646,300.5546 L264.6838,303.8468 L264.3633,303.8457 L264.9731,307.1739 L264.5275,310.4983 L264.8843,313.8257 L264.4148,317.15 L264.6225,320.4768 L264.5922,320.474 L264.6528,323.7986 L264.005,327.0591 L263.7753,330.3575 L263.5806,333.659 L263.1327,336.9376 L263.3143,336.973 L262.5045,340.1497 L262.0049,343.387 L261.0034,346.5263 L260.7506,349.8117 L260,353 L260.2327,353.0721 L259.2941,355.9465 L258.471,358.8567 L257.1111,361.6006 L256.1447,364.4664 L255.5269,367.4402 L255.271,367.3364 L254.3464,370.2794 L253.1334,373.1054 L252.3386,376.1012 L250.8297,378.8072 L249.7454,381.6854 L249.6082,381.6188 L248.5013,384.4786 L246.8082,387.0538 L245.532,389.8314 L244.6636,392.8072 L243.0689,395.4301 L243.2383,395.5238 L241.923,398.1759 L240.0806,400.5364 L238.8983,403.2621 L237.5722,405.9082 L235.911,408.369 " fill="none" style="stroke:#383838;stroke-width:1.0;"/><polygon fill="#383838" points="233.179,412.964,233.2195,413.0212,234.7064,411.7126,236.4307,410.7391,238.0778,409.6564,239.4705,408.215,241.2152,407.2702,241.2088,407.2451,240.0838,407.4115,238.9909,407.7045,237.9204,408.0854,236.7727,408.1632,235.7332,408.6656,235.912,408.7111,235.2505,407.5174,235.1111,406.4565,235.0355,405.4119,234.5892,404.2729,234.3378,403.1836,234.3604,403.1862,234.0955,405.1384,233.9334,407.1027,233.7217,409.0612,233.6046,411.0309,233.179,412.964" style="stroke:#383838;stroke-width:1.0;"/><!--MD5=[754b775031405e096442b27febffa290]
link PersistenceContext to RepositoryFactory--><path d="M178.146,353.006 L178.4158,353.0819 L180.1862,361.9974 L183.5381,371.3578 L186.375,380.5733 L187.5184,389.3124 L190.9063,398.6829 L193.578,407.852 " fill="none" style="stroke:#383838;stroke-width:1.0;"/><polygon fill="#383838" points="194.983,412.843,195.0523,412.853,195.1288,410.8738,195.6118,408.9534,195.9624,407.0139,195.8778,405.0113,196.3956,403.096,196.373,403.0833,195.7182,404.0132,195.1773,405.007,194.7156,406.0452,193.981,406.9304,193.6287,408.0299,193.7189,408.1909,192.5391,407.2933,191.6228,406.8656,190.7387,406.4953,189.6675,405.7914,188.6947,405.2629,188.7122,405.2775,189.9442,406.7721,191.2558,408.333,192.529,409.8619,193.8756,411.4516,194.983,412.843" style="stroke:#383838;stroke-width:1.0;"/><!--MD5=[1c7e7a1fe085f3cc90df717ea11f1cec]
link RepositoryFactory to CatalogoRepository--><path d="M170.798,493.176 L171.0065,493.3633 L163.2548,500.7444 L156.7251,509.2235 L149.7975,517.3451 L141.5613,524.2908 L135.0595,532.7949 L127.5813,540.4217 L120.872,548.7394 " fill="none" style="stroke:#383838;stroke-width:1.0;"/><polygon fill="#383838" points="117.29,552.7259,117.3186,552.7899,119.0318,551.7958,120.9127,551.1766,122.739,550.4354,124.3857,549.2926,126.281,548.7056,126.2796,548.6798,125.1436,548.6239,124.0146,548.6985,122.8905,548.8638,121.7496,548.7166,120.6321,549.007,120.8164,549.0168,120.3621,547.8661,120.4458,546.744,120.5951,545.6254,120.3625,544.4864,120.3307,543.3582,120.3524,543.3652,119.7125,545.2284,119.171,547.1237,118.5821,549.0034,118.0838,550.9126,117.29,552.7259" style="stroke:#383838;stroke-width:1.0;"/><!--MD5=[4c2782ef650e763910e10e8b58df1401]
link RepositoryFactory to ServicoRepository--><path d="M245.744,493.176 L245.9407,493.3756 L252.3791,499.7052 L259.9707,507.2047 L267.1868,514.3233 L273.1678,520.189 L280.7857,527.7152 L287.4821,534.3066 L294.5453,541.27 L301.8633,548.4921 L308.95,555.4794 " fill="none" style="stroke:#383838;stroke-width:1.0;"/><polygon fill="#383838" points="312.783,559.2577,312.8482,559.2833,311.9341,557.3739,311.4023,555.6146,310.7461,553.8064,309.6804,551.8374,309.1814,550.091,309.1555,550.0908,309.0474,551.2213,309.0699,552.3527,309.1831,553.4848,308.9835,554.6147,309.2221,555.7477,309.2235,555.9322,308.0893,555.5457,306.959,555.698,305.8291,555.9161,304.6966,555.7516,303.5654,555.7884,303.5734,555.8097,305.4052,556.4723,307.2734,557.2318,309.124,557.9446,311.0083,558.7466,312.783,559.2577" style="stroke:#383838;stroke-width:1.0;"/><!--MD5=[c470732a9b31b8516c1f92b14541255a]
@startuml
'http://plantuml.com/skinparam.html
skinparam handwritten true
skinparam monochrome true
skinparam packageStyle rect
skinparam defaultFontName FG Virgil
skinparam shadowing false

class ListCatalogoServicoUI <<presentation>>
class ListCatalogoServicoController <<application>>
class PersistenceContext <<persistence>>
class RepositoryFactory <<factory>>
class CatalogoRepository <<repository>>
class ServicoRepository <<repository>>


ListCatalogoServicoUI - -> ListCatalogoServicoController
ListCatalogoServicoController : listCatalogo()
ListCatalogoServicoController : listServico()

ListCatalogoServicoController : findCatalogos(titulo)
ListCatalogoServicoController : findServicos(titulo, keywords)

ListCatalogoServicoController - -> CatalogoRepository
ListCatalogoServicoController - -> ServicoRepository
ListCatalogoServicoController - -> PersistenceContext
PersistenceContext : repositories()
ListCatalogoServicoController - -> RepositoryFactory
RepositoryFactory : catalogos()
RepositoryFactory : servicos()

PersistenceContext - -> RepositoryFactory
RepositoryFactory - -> CatalogoRepository
RepositoryFactory - -> ServicoRepository

CatalogoRepository : findCatalogos(titulo)
CatalogoRepository : findAllServico(Catalogo)

ServicoRepository : findServico(listTotalServico, keywords, titulo)
@enduml

@startuml
skinparam handwritten true
skinparam monochrome true
skinparam packageStyle rect
skinparam defaultFontName FG Virgil
skinparam shadowing false

class ListCatalogoServicoUI <<presentation>>
class ListCatalogoServicoController <<application>>
class PersistenceContext <<persistence>>
class RepositoryFactory <<factory>>
class CatalogoRepository <<repository>>
class ServicoRepository <<repository>>


ListCatalogoServicoUI - -> ListCatalogoServicoController
ListCatalogoServicoController : listCatalogo()
ListCatalogoServicoController : listServico()

ListCatalogoServicoController : findCatalogos(titulo)
ListCatalogoServicoController : findServicos(titulo, keywords)

ListCatalogoServicoController - -> CatalogoRepository
ListCatalogoServicoController - -> ServicoRepository
ListCatalogoServicoController - -> PersistenceContext
PersistenceContext : repositories()
ListCatalogoServicoController - -> RepositoryFactory
RepositoryFactory : catalogos()
RepositoryFactory : servicos()

PersistenceContext - -> RepositoryFactory
RepositoryFactory - -> CatalogoRepository
RepositoryFactory - -> ServicoRepository

CatalogoRepository : findCatalogos(titulo)
CatalogoRepository : findAllServico(Catalogo)

ServicoRepository : findServico(listTotalServico, keywords, titulo)
@enduml

PlantUML version 1.2021.6beta2(Unknown compile time)
(GPL source distribution)
Java Runtime: Java(TM) SE Runtime Environment
JVM: Java HotSpot(TM) 64-Bit Server VM
Default Encoding: UTF-8
Language: en
Country: US
--></g></svg>