<?xml version="1.0" encoding="UTF-8" standalone="no"?><svg xmlns="http://www.w3.org/2000/svg" xmlns:xlink="http://www.w3.org/1999/xlink" contentScriptType="application/ecmascript" contentStyleType="text/css" height="665px" preserveAspectRatio="none" style="width:578px;height:665px;" version="1.1" viewBox="0 0 578 665" width="578px" zoomAndPan="magnify"><defs/><g><!--MD5=[b05baaf79a5fa92f914a4bb8a629f5dc]
class ListCatalogoServicoUI--><polygon fill="#F8F8F8" points="229,7,229,7.2102,239.1875,6.5857,249.375,7.1933,259.5625,7.3997,269.75,6.2866,279.9375,6.9223,290.125,6.5735,300.3125,6.6165,310.5,6.9318,320.6875,6.3086,330.875,7.5536,341.0625,6.3697,351.25,6.8022,361.4375,7.4319,371.625,6.9142,381.8125,7.0682,392,7,391.9681,7,392.1785,17.7875,392.2391,28.575,392.5857,39.3625,392.6711,50.15,392,60.9375,392,61.6168,381.8125,61.1921,371.625,61.4011,361.4375,61.6397,351.25,60.2163,341.0625,61.616,330.875,60.641,320.6875,61.4713,310.5,60.4425,300.3125,60.869,290.125,61.6791,279.9375,60.8888,269.75,61.0428,259.5625,61.2761,249.375,61.3537,239.1875,60.9336,229,60.9375,229.2872,60.9375,228.4276,50.15,229.2844,39.3625,229.5482,28.575,229.4445,17.7875,229,7" style="stroke:#383838;stroke-width:1.5;"/><polygon fill="#C2C2C2" points="255.0608,28.6444,253.4484,30.8475,251.5412,34.0745,248.8136,36.2491,245.9474,37.4384,243.662,37.5416,240.7247,36.0543,237.9532,35.0827,235.8495,33.1099,234.7461,30.8515,234.0917,29.0533,233.4506,26.7045,232.41,24.6832,233.2096,22.7098,233.9102,20.548,236.5393,18.8382,238.389,16.6198,240.6784,15.8832,243.4001,15.2488,246.8904,15.6257,248.8021,16.5273,251.0247,16.9359,253.7272,19.7047,254.6693,22.6277,255.0786,24.6221,254.615,27.9086" style="stroke:#383838;stroke-width:1.0;"/><path d="M246.3438,21.6406 C245.4063,21.2031 244.8125,21.0625 243.9375,21.0625 C241.3125,21.0625 239.3125,23.1406 239.3125,25.8594 L239.3125,26.9844 C239.3125,29.5625 241.4219,31.4531 244.3125,31.4531 C245.5313,31.4531 246.6875,31.1563 247.4375,30.6094 C248.0156,30.2031 248.3438,29.75 248.3438,29.3594 C248.3438,28.9063 247.9531,28.5156 247.4844,28.5156 C247.2656,28.5156 247.0625,28.5938 246.875,28.7813 C246.4219,29.2656 246.4219,29.2656 246.2344,29.3594 C245.8125,29.625 245.125,29.75 244.3594,29.75 C242.3125,29.75 241.0156,28.6563 241.0156,26.9531 L241.0156,25.8594 C241.0156,24.0781 242.2656,22.7656 244,22.7656 C244.5781,22.7656 245.1875,22.9219 245.6563,23.1719 C246.1406,23.4531 246.3125,23.6719 246.4063,24.0781 C246.4688,24.4844 246.5,24.6094 246.6406,24.7344 C246.7813,24.875 247.0156,24.9844 247.2344,24.9844 C247.5,24.9844 247.7656,24.8438 247.9375,24.625 C248.0469,24.4688 248.0781,24.2813 248.0781,23.8594 L248.0781,22.4375 C248.0781,22 248.0625,21.875 247.9688,21.7188 C247.8125,21.4531 247.5313,21.3125 247.2344,21.3125 C246.9375,21.3125 246.7344,21.4063 246.5156,21.7188 L246.3438,21.6406 Z " fill="#000000"/><text fill="#000000" font-family="FG Virgil" font-size="12" font-style="italic" lengthAdjust="spacing" textLength="90" x="278.5" y="23.1387">«presentation»</text><text fill="#000000" font-family="FG Virgil" font-size="12" lengthAdjust="spacing" textLength="131" x="258" y="37.1074">ListCatalogoServicoUI</text><path d="M230,44.9375 L230,45.2177 L240.0625,44.3851 L250.125,45.1952 L260.1875,45.4704 L270.25,43.9863 L280.3125,44.8339 L290.375,44.3688 L300.4375,44.4262 L310.5,44.8466 L320.5625,44.0157 L330.625,45.6757 L340.6875,44.0971 L350.75,44.6738 L360.8125,45.5134 L370.875,44.8231 L380.9375,45.0285 L391,44.9375 " fill="#F8F8F8" style="stroke:#383838;stroke-width:1.5;"/><path d="M230,52.9375 L230,53.2177 L240.0625,52.3851 L250.125,53.1952 L260.1875,53.4704 L270.25,51.9863 L280.3125,52.8339 L290.375,52.3688 L300.4375,52.4262 L310.5,52.8466 L320.5625,52.0157 L330.625,53.6757 L340.6875,52.0971 L350.75,52.6738 L360.8125,53.5134 L370.875,52.8231 L380.9375,53.0285 L391,52.9375 " fill="#F8F8F8" style="stroke:#383838;stroke-width:1.5;"/><!--MD5=[bbf145543bce2e91d36f148c047675af]
class ListCatalogoServicoController--><polygon fill="#F8F8F8" points="161.5,121,161.5,121.2102,171.4333,120.5857,181.3667,121.1933,191.3,121.3997,201.2333,120.2866,211.1667,120.9223,221.1,120.5735,231.0333,120.6165,240.9667,120.9318,250.9,120.3086,260.8333,121.5536,270.7667,120.3697,280.7,120.8022,290.6333,121.4319,300.5667,120.9142,310.5,121.0682,320.4333,120.9681,330.3667,121.1785,340.3,121.2391,350.2333,121.5857,360.1667,121.6711,370.1,121.6793,380.0333,121.2546,389.9667,121.4636,399.9,121.7022,409.8333,120.2788,419.7667,121.6785,429.7,120.7035,439.6333,121.5338,449.5667,120.505,459.5,121,459.4315,121,460.2416,130.8301,459.4513,140.6602,459.6053,150.4902,459.8386,160.3203,459.9162,170.1504,459.4961,179.9805,459.7872,189.8105,458.9276,199.6406,459.7844,209.4707,460.0482,219.3008,459.9445,229.1309,459.5,238.9609,459.5,239.574,449.5667,238.4779,439.6333,238.3088,429.7,238.3395,419.7667,238.9021,409.8333,238.7644,399.9,239.6423,389.9667,238.7863,380.0333,238.6179,370.1,239.1892,360.1667,238.2941,350.2333,238.4418,340.3,239.6099,330.3667,239.3966,320.4333,239.6954,310.5,238.6391,300.5667,239.2801,290.6333,239.5514,280.7,238.4885,270.7667,238.8651,260.8333,239.0869,250.9,239.6127,240.9667,238.9567,231.0333,239.4235,221.1,238.4072,211.1667,238.2837,201.2333,239.4646,191.3,238.244,181.3667,239.4699,171.4333,239.1676,161.5,238.9609,161.2321,238.9609,161.1462,229.1309,161.9588,219.3008,161.2007,209.4707,162.0919,199.6406,160.9473,189.8105,162.1174,179.9805,161.9843,170.1504,161.745,160.3203,161.5472,150.4902,162.2266,140.6602,162.1136,130.8301,161.5,121" style="stroke:#383838;stroke-width:1.5;"/><polygon fill="#C2C2C2" points="228.3108,142.6444,226.6984,144.8475,224.7912,148.0745,222.0636,150.2491,219.1974,151.4384,216.912,151.5416,213.9747,150.0543,211.2032,149.0827,209.0995,147.1099,207.9961,144.8515,207.3417,143.0533,206.7006,140.7045,205.66,138.6832,206.4596,136.7098,207.1602,134.548,209.7893,132.8382,211.639,130.6198,213.9284,129.8832,216.6501,129.2488,220.1404,129.6257,222.0521,130.5273,224.2747,130.9359,226.9772,133.7047,227.9193,136.6277,228.3286,138.6221,227.865,141.9086" style="stroke:#383838;stroke-width:1.0;"/><path d="M219.5938,135.6406 C218.6563,135.2031 218.0625,135.0625 217.1875,135.0625 C214.5625,135.0625 212.5625,137.1406 212.5625,139.8594 L212.5625,140.9844 C212.5625,143.5625 214.6719,145.4531 217.5625,145.4531 C218.7813,145.4531 219.9375,145.1563 220.6875,144.6094 C221.2656,144.2031 221.5938,143.75 221.5938,143.3594 C221.5938,142.9063 221.2031,142.5156 220.7344,142.5156 C220.5156,142.5156 220.3125,142.5938 220.125,142.7813 C219.6719,143.2656 219.6719,143.2656 219.4844,143.3594 C219.0625,143.625 218.375,143.75 217.6094,143.75 C215.5625,143.75 214.2656,142.6563 214.2656,140.9531 L214.2656,139.8594 C214.2656,138.0781 215.5156,136.7656 217.25,136.7656 C217.8281,136.7656 218.4375,136.9219 218.9063,137.1719 C219.3906,137.4531 219.5625,137.6719 219.6563,138.0781 C219.7188,138.4844 219.75,138.6094 219.8906,138.7344 C220.0313,138.875 220.2656,138.9844 220.4844,138.9844 C220.75,138.9844 221.0156,138.8438 221.1875,138.625 C221.2969,138.4688 221.3281,138.2813 221.3281,137.8594 L221.3281,136.4375 C221.3281,136 221.3125,135.875 221.2188,135.7188 C221.0625,135.4531 220.7813,135.3125 220.4844,135.3125 C220.1875,135.3125 219.9844,135.4063 219.7656,135.7188 L219.5938,135.6406 Z " fill="#000000"/><text fill="#000000" font-family="FG Virgil" font-size="12" font-style="italic" lengthAdjust="spacing" textLength="80" x="286.75" y="137.1387">«application»</text><text fill="#000000" font-family="FG Virgil" font-size="12" lengthAdjust="spacing" textLength="178" x="237.75" y="151.1074">ListCatalogoServicoController</text><path d="M162.5,158.9375 L162.5,159.2177 L172.3667,158.3851 L182.2333,159.1952 L192.1,159.4704 L201.9667,157.9863 L211.8333,158.8339 L221.7,158.3688 L231.5667,158.4262 L241.4333,158.8466 L251.3,158.0157 L261.1667,159.6757 L271.0333,158.0971 L280.9,158.6738 L290.7667,159.5134 L300.6333,158.8231 L310.5,159.0285 L320.3667,158.8949 L330.2333,159.1755 L340.1,159.2563 L349.9667,159.7184 L359.8333,159.8322 L369.7,159.8432 L379.5667,159.277 L389.4333,159.5556 L399.3,159.8738 L409.1667,157.9759 L419.0333,159.8422 L428.9,158.5422 L438.7667,159.6492 L448.6333,158.2775 L458.5,158.9375 " fill="#F8F8F8" style="stroke:#383838;stroke-width:1.5;"/><path d="M162.5,166.9375 L162.5,167.2177 L172.3667,166.3851 L182.2333,167.1952 L192.1,167.4704 L201.9667,165.9863 L211.8333,166.8339 L221.7,166.3688 L231.5667,166.4262 L241.4333,166.8466 L251.3,166.0157 L261.1667,167.6757 L271.0333,166.0971 L280.9,166.6738 L290.7667,167.5134 L300.6333,166.8231 L310.5,167.0285 L320.3667,166.8949 L330.2333,167.1755 L340.1,167.2563 L349.9667,167.7184 L359.8333,167.8322 L369.7,167.8432 L379.5667,167.277 L389.4333,167.5556 L399.3,167.8738 L409.1667,165.9759 L419.0333,167.8422 L428.9,166.5422 L438.7667,167.6492 L448.6333,166.2775 L458.5,166.9375 " fill="#F8F8F8" style="stroke:#383838;stroke-width:1.5;"/><text fill="#000000" font-family="FG Virgil" font-size="11" lengthAdjust="spacing" textLength="74" x="167.5" y="181.1479">listCatalogo()</text><text fill="#000000" font-family="FG Virgil" font-size="11" lengthAdjust="spacing" textLength="67" x="167.5" y="193.9526">listServico()</text><text fill="#000000" font-family="FG Virgil" font-size="11" lengthAdjust="spacing" textLength="113" x="167.5" y="206.7573">findCatalogo(dados)</text><text fill="#000000" font-family="FG Virgil" font-size="11" lengthAdjust="spacing" textLength="208" x="167.5" y="219.562">findServicosUtilizador(dadosServico)</text><text fill="#000000" font-family="FG Virgil" font-size="11" lengthAdjust="spacing" textLength="286" x="167.5" y="232.3667">findCatalogoServico(dadosCatalogo,dadosServico)</text><!--MD5=[e8c189551b7885b999ad7cefb30fc2a3]
class PersistenceContext--><polygon fill="#F8F8F8" points="173.5,299,173.5,299.2102,183.3667,298.5857,193.2333,299.1933,203.1,299.3997,212.9667,298.2866,222.8333,298.9223,232.7,298.5735,242.5667,298.6165,252.4333,298.9318,262.3,298.3086,272.1667,299.5536,282.0333,298.3697,291.9,298.8022,301.7667,299.4319,311.6333,298.9142,321.5,299,321.5682,299,321.4681,308.5346,321.6785,318.0692,321.7391,327.6038,322.0857,337.1384,322.1711,346.673,322.1793,356.2076,321.5,365.7422,321.5,365.9968,311.6333,366.2058,301.7667,366.4444,291.9,365.021,282.0333,366.4207,272.1667,365.4457,262.3,366.276,252.4333,365.2472,242.5667,365.6737,232.7,366.4838,222.8333,365.6935,212.9667,365.8475,203.1,366.0808,193.2333,366.1584,183.3667,365.7383,173.5,365.7422,173.7872,365.7422,172.9276,356.2076,173.7844,346.673,174.0482,337.1384,173.9445,327.6038,174.113,318.0692,173.0169,308.5346,173.5,299" style="stroke:#383838;stroke-width:1.5;"/><polygon fill="#C2C2C2" points="199.5608,320.6444,197.9484,322.8475,196.0412,326.0745,193.3136,328.2491,190.4474,329.4384,188.162,329.5416,185.2247,328.0543,182.4532,327.0827,180.3495,325.1099,179.2461,322.8515,178.5917,321.0533,177.9506,318.7045,176.91,316.6832,177.7096,314.7098,178.4102,312.548,181.0393,310.8382,182.889,308.6198,185.1784,307.8832,187.9001,307.2488,191.3904,307.6257,193.3021,308.5273,195.5247,308.9359,198.2272,311.7047,199.1693,314.6277,199.5786,316.6221,199.115,319.9086" style="stroke:#383838;stroke-width:1.0;"/><path d="M190.8438,313.6406 C189.9063,313.2031 189.3125,313.0625 188.4375,313.0625 C185.8125,313.0625 183.8125,315.1406 183.8125,317.8594 L183.8125,318.9844 C183.8125,321.5625 185.9219,323.4531 188.8125,323.4531 C190.0313,323.4531 191.1875,323.1563 191.9375,322.6094 C192.5156,322.2031 192.8438,321.75 192.8438,321.3594 C192.8438,320.9063 192.4531,320.5156 191.9844,320.5156 C191.7656,320.5156 191.5625,320.5938 191.375,320.7813 C190.9219,321.2656 190.9219,321.2656 190.7344,321.3594 C190.3125,321.625 189.625,321.75 188.8594,321.75 C186.8125,321.75 185.5156,320.6563 185.5156,318.9531 L185.5156,317.8594 C185.5156,316.0781 186.7656,314.7656 188.5,314.7656 C189.0781,314.7656 189.6875,314.9219 190.1563,315.1719 C190.6406,315.4531 190.8125,315.6719 190.9063,316.0781 C190.9688,316.4844 191,316.6094 191.1406,316.7344 C191.2813,316.875 191.5156,316.9844 191.7344,316.9844 C192,316.9844 192.2656,316.8438 192.4375,316.625 C192.5469,316.4688 192.5781,316.2813 192.5781,315.8594 L192.5781,314.4375 C192.5781,314 192.5625,313.875 192.4688,313.7188 C192.3125,313.4531 192.0313,313.3125 191.7344,313.3125 C191.4375,313.3125 191.2344,313.4063 191.0156,313.7188 L190.8438,313.6406 Z " fill="#000000"/><text fill="#000000" font-family="FG Virgil" font-size="12" font-style="italic" lengthAdjust="spacing" textLength="83" x="219" y="315.1387">«persistence»</text><text fill="#000000" font-family="FG Virgil" font-size="12" lengthAdjust="spacing" textLength="116" x="202.5" y="329.1074">PersistenceContext</text><path d="M174.5,336.9375 L174.5,337.2177 L184.2333,336.3851 L193.9667,337.1952 L203.7,337.4704 L213.4333,335.9863 L223.1667,336.8339 L232.9,336.3688 L242.6333,336.4262 L252.3667,336.8466 L262.1,336.0157 L271.8333,337.6757 L281.5667,336.0971 L291.3,336.6738 L301.0333,337.5134 L310.7667,336.8231 L320.5,336.9375 " fill="#F8F8F8" style="stroke:#383838;stroke-width:1.5;"/><path d="M174.5,344.9375 L174.5,345.2177 L184.2333,344.3851 L193.9667,345.1952 L203.7,345.4704 L213.4333,343.9863 L223.1667,344.8339 L232.9,344.3688 L242.6333,344.4262 L252.3667,344.8466 L262.1,344.0157 L271.8333,345.6757 L281.5667,344.0971 L291.3,344.6738 L301.0333,345.5134 L310.7667,344.8231 L320.5,344.9375 " fill="#F8F8F8" style="stroke:#383838;stroke-width:1.5;"/><text fill="#000000" font-family="FG Virgil" font-size="11" lengthAdjust="spacing" textLength="75" x="179.5" y="359.1479">repositories()</text><!--MD5=[48590afff58a68e2fcba47824d6f8a11]
class RepositoryFactory--><polygon fill="#F8F8F8" points="213.5,426,213.5,426.2102,223.6429,425.5857,233.7857,426.1933,243.9286,426.3997,254.0714,425.2866,264.2143,425.9223,274.3571,425.5735,284.5,425.6165,294.6429,425.9318,304.7857,425.3086,314.9286,426.5536,325.0714,425.3697,335.2143,425.8022,345.3571,426.4319,355.5,426,355.4142,426,355.5682,435.9434,355.4681,445.8867,355.6785,455.8301,355.7391,465.7734,356.0857,475.7168,356.1711,485.6602,356.1793,495.6035,355.5,505.5469,355.5,505.8015,345.3571,506.0105,335.2143,506.2491,325.0714,504.8257,314.9286,506.2254,304.7857,505.2504,294.6429,506.0807,284.5,505.0519,274.3571,505.4784,264.2143,506.2885,254.0714,505.4981,243.9286,505.6522,233.7857,505.8855,223.6429,505.9631,213.5,505.5469,213.4961,505.5469,213.7872,495.6035,212.9276,485.6602,213.7844,475.7168,214.0482,465.7734,213.9445,455.8301,214.113,445.8867,213.0169,435.9434,213.5,426" style="stroke:#383838;stroke-width:1.5;"/><polygon fill="#C2C2C2" points="239.5608,447.6444,237.9484,449.8475,236.0412,453.0745,233.3136,455.2491,230.4474,456.4384,228.162,456.5416,225.2247,455.0543,222.4532,454.0827,220.3495,452.1099,219.2461,449.8515,218.5917,448.0533,217.9506,445.7045,216.91,443.6832,217.7096,441.7098,218.4102,439.548,221.0393,437.8382,222.889,435.6198,225.1784,434.8832,227.9001,434.2488,231.3904,434.6257,233.3021,435.5273,235.5247,435.9359,238.2272,438.7047,239.1693,441.6277,239.5786,443.6221,239.115,446.9086" style="stroke:#383838;stroke-width:1.0;"/><path d="M230.8438,440.6406 C229.9063,440.2031 229.3125,440.0625 228.4375,440.0625 C225.8125,440.0625 223.8125,442.1406 223.8125,444.8594 L223.8125,445.9844 C223.8125,448.5625 225.9219,450.4531 228.8125,450.4531 C230.0313,450.4531 231.1875,450.1563 231.9375,449.6094 C232.5156,449.2031 232.8438,448.75 232.8438,448.3594 C232.8438,447.9063 232.4531,447.5156 231.9844,447.5156 C231.7656,447.5156 231.5625,447.5938 231.375,447.7813 C230.9219,448.2656 230.9219,448.2656 230.7344,448.3594 C230.3125,448.625 229.625,448.75 228.8594,448.75 C226.8125,448.75 225.5156,447.6563 225.5156,445.9531 L225.5156,444.8594 C225.5156,443.0781 226.7656,441.7656 228.5,441.7656 C229.0781,441.7656 229.6875,441.9219 230.1563,442.1719 C230.6406,442.4531 230.8125,442.6719 230.9063,443.0781 C230.9688,443.4844 231,443.6094 231.1406,443.7344 C231.2813,443.875 231.5156,443.9844 231.7344,443.9844 C232,443.9844 232.2656,443.8438 232.4375,443.625 C232.5469,443.4688 232.5781,443.2813 232.5781,442.8594 L232.5781,441.4375 C232.5781,441 232.5625,440.875 232.4688,440.7188 C232.3125,440.4531 232.0313,440.3125 231.7344,440.3125 C231.4375,440.3125 231.2344,440.4063 231.0156,440.7188 L230.8438,440.6406 Z " fill="#000000"/><text fill="#000000" font-family="FG Virgil" font-size="12" font-style="italic" lengthAdjust="spacing" textLength="56" x="269.5" y="442.1387">«factory»</text><text fill="#000000" font-family="FG Virgil" font-size="12" lengthAdjust="spacing" textLength="110" x="242.5" y="456.1074">RepositoryFactory</text><path d="M214.5,463.9375 L214.5,464.2177 L224.5,463.3851 L234.5,464.1952 L244.5,464.4704 L254.5,462.9863 L264.5,463.8339 L274.5,463.3688 L284.5,463.4262 L294.5,463.8466 L304.5,463.0157 L314.5,464.6757 L324.5,463.0971 L334.5,463.6738 L344.5,464.5134 L354.5,463.9375 " fill="#F8F8F8" style="stroke:#383838;stroke-width:1.5;"/><path d="M214.5,471.9375 L214.5,472.2177 L224.5,471.3851 L234.5,472.1952 L244.5,472.4704 L254.5,470.9863 L264.5,471.8339 L274.5,471.3688 L284.5,471.4262 L294.5,471.8466 L304.5,471.0157 L314.5,472.6757 L324.5,471.0971 L334.5,471.6738 L344.5,472.5134 L354.5,471.9375 " fill="#F8F8F8" style="stroke:#383838;stroke-width:1.5;"/><text fill="#000000" font-family="FG Virgil" font-size="11" lengthAdjust="spacing" textLength="62" x="219.5" y="486.1479">catalogos()</text><text fill="#000000" font-family="FG Virgil" font-size="11" lengthAdjust="spacing" textLength="55" x="219.5" y="498.9526">servicos()</text><!--MD5=[37de35b2239f3e75f2a4e341603fb23d]
class CatalogoRepository--><polygon fill="#F8F8F8" points="7,566,7,566.2102,16.8077,565.5857,26.6154,566.1933,36.4231,566.3997,46.2308,565.2866,56.0385,565.9223,65.8462,565.5735,75.6538,565.6165,85.4615,565.9318,95.2692,565.3086,105.0769,566.5536,114.8846,565.3697,124.6923,565.8022,134.5,566.4319,144.3077,565.9142,154.1154,566.0682,163.9231,565.9681,173.7308,566.1785,183.5385,566.2391,193.3462,566.5857,203.1538,566.6711,212.9615,566.6793,222.7692,566.2546,232.5769,566.4636,242.3846,566.7022,252.1923,565.2788,262,566,262.6785,566,261.7035,576.2613,262.5338,586.5226,261.505,596.7839,261.9315,607.0451,262.7416,617.3064,261.9513,627.5677,262.1053,637.829,262.3386,648.0903,262,658.3516,262,658.7678,252.1923,658.3477,242.3846,658.6388,232.5769,657.7791,222.7692,658.6359,212.9615,658.8998,203.1538,658.7961,193.3462,658.9646,183.5385,657.8685,173.7308,657.6994,163.9231,657.7302,154.1154,658.2927,144.3077,658.155,134.5,659.033,124.6923,658.1769,114.8846,658.0085,105.0769,658.5798,95.2692,657.6847,85.4615,657.8324,75.6538,659.0005,65.8462,658.7872,56.0385,659.0861,46.2308,658.0298,36.4231,658.6708,26.6154,658.942,16.8077,657.8792,7,658.3516,6.9041,658.3516,7.126,648.0903,7.6518,637.829,6.9958,627.5677,7.4626,617.3064,6.4462,607.0451,6.3227,596.7839,7.5036,586.5226,6.2831,576.2613,7,566" style="stroke:#383838;stroke-width:1.5;"/><polygon fill="#C2C2C2" points="82.3108,587.6444,80.6984,589.8475,78.7912,593.0745,76.0636,595.2491,73.1974,596.4384,70.912,596.5416,67.9747,595.0543,65.2032,594.0827,63.0995,592.1099,61.9961,589.8515,61.3417,588.0533,60.7006,585.7045,59.66,583.6832,60.4596,581.7098,61.1602,579.548,63.7893,577.8382,65.639,575.6198,67.9284,574.8832,70.6501,574.2488,74.1404,574.6257,76.0521,575.5273,78.2747,575.9359,80.9772,578.7047,81.9193,581.6277,82.3286,583.6221,81.865,586.9086" style="stroke:#383838;stroke-width:1.0;"/><path d="M73.5938,580.6406 C72.6563,580.2031 72.0625,580.0625 71.1875,580.0625 C68.5625,580.0625 66.5625,582.1406 66.5625,584.8594 L66.5625,585.9844 C66.5625,588.5625 68.6719,590.4531 71.5625,590.4531 C72.7813,590.4531 73.9375,590.1563 74.6875,589.6094 C75.2656,589.2031 75.5938,588.75 75.5938,588.3594 C75.5938,587.9063 75.2031,587.5156 74.7344,587.5156 C74.5156,587.5156 74.3125,587.5938 74.125,587.7813 C73.6719,588.2656 73.6719,588.2656 73.4844,588.3594 C73.0625,588.625 72.375,588.75 71.6094,588.75 C69.5625,588.75 68.2656,587.6563 68.2656,585.9531 L68.2656,584.8594 C68.2656,583.0781 69.5156,581.7656 71.25,581.7656 C71.8281,581.7656 72.4375,581.9219 72.9063,582.1719 C73.3906,582.4531 73.5625,582.6719 73.6563,583.0781 C73.7188,583.4844 73.75,583.6094 73.8906,583.7344 C74.0313,583.875 74.2656,583.9844 74.4844,583.9844 C74.75,583.9844 75.0156,583.8438 75.1875,583.625 C75.2969,583.4688 75.3281,583.2813 75.3281,582.8594 L75.3281,581.4375 C75.3281,581 75.3125,580.875 75.2188,580.7188 C75.0625,580.4531 74.7813,580.3125 74.4844,580.3125 C74.1875,580.3125 73.9844,580.4063 73.7656,580.7188 L73.5938,580.6406 Z " fill="#000000"/><text fill="#000000" font-family="FG Virgil" font-size="12" font-style="italic" lengthAdjust="spacing" textLength="74" x="113.75" y="582.1387">«repository»</text><text fill="#000000" font-family="FG Virgil" font-size="12" lengthAdjust="spacing" textLength="118" x="91.75" y="596.1074">CatalogoRepository</text><path d="M8,603.9375 L8,604.2177 L18.12,603.3851 L28.24,604.1952 L38.36,604.4704 L48.48,602.9863 L58.6,603.8339 L68.72,603.3688 L78.84,603.4262 L88.96,603.8466 L99.08,603.0157 L109.2,604.6757 L119.32,603.0971 L129.44,603.6738 L139.56,604.5134 L149.68,603.8231 L159.8,604.0285 L169.92,603.8949 L180.04,604.1755 L190.16,604.2563 L200.28,604.7184 L210.4,604.8322 L220.52,604.8432 L230.64,604.277 L240.76,604.5556 L250.88,604.8738 L261,603.9375 " fill="#F8F8F8" style="stroke:#383838;stroke-width:1.5;"/><path d="M8,611.9375 L8,612.2177 L18.12,611.3851 L28.24,612.1952 L38.36,612.4704 L48.48,610.9863 L58.6,611.8339 L68.72,611.3688 L78.84,611.4262 L88.96,611.8466 L99.08,611.0157 L109.2,612.6757 L119.32,611.0971 L129.44,611.6738 L139.56,612.5134 L149.68,611.8231 L159.8,612.0285 L169.92,611.8949 L180.04,612.1755 L190.16,612.2563 L200.28,612.7184 L210.4,612.8322 L220.52,612.8432 L230.64,612.277 L240.76,612.5556 L250.88,612.8738 L261,611.9375 " fill="#F8F8F8" style="stroke:#383838;stroke-width:1.5;"/><text fill="#000000" font-family="FG Virgil" font-size="11" lengthAdjust="spacing" textLength="113" x="13" y="626.1479">findCatalogo(dados)</text><text fill="#000000" font-family="FG Virgil" font-size="11" lengthAdjust="spacing" textLength="208" x="13" y="638.9526">findServicosUtilizador(dadosServico)</text><text fill="#000000" font-family="FG Virgil" font-size="11" lengthAdjust="spacing" textLength="243" x="13" y="651.7573">findCatalogo(dadosCatalogo,dadosServico)</text><!--MD5=[51865f8cbfe0824679c335d6e733f291]
class ServicoRepository--><polygon fill="#F8F8F8" points="304,572,304,572.2102,313.8889,571.5857,323.7778,572.1933,333.6667,572.3997,343.5556,571.2866,353.4444,571.9223,363.3333,571.5735,373.2222,571.6165,383.1111,571.9318,393,571.3086,402.8889,572.5536,412.7778,571.3697,422.6667,571.8022,432.5556,572.4319,442.4444,571.9142,452.3333,572.0682,462.2222,571.9681,472.1111,572.1785,482,572.2391,491.8889,572.5857,501.7778,572.6711,511.6667,572.6793,521.5556,572.2546,531.4444,572.4636,541.3333,572.7022,551.2222,571.2788,561.1111,572.6785,571,572,570.7035,572,571.5338,581.9434,570.505,591.8867,570.9315,601.8301,571.7416,611.7734,570.9513,621.7168,571.1053,631.6602,571.3386,641.6035,571,651.5469,571,651.9631,561.1111,651.543,551.2222,651.8341,541.3333,650.9745,531.4444,651.8313,521.5556,652.0951,511.6667,651.9914,501.7778,652.1599,491.8889,651.0638,482,650.8947,472.1111,650.9255,462.2222,651.488,452.3333,651.3503,442.4444,652.2283,432.5556,651.3722,422.6667,651.2038,412.7778,651.7751,402.8889,650.88,393,651.0277,383.1111,652.1958,373.2222,651.9825,363.3333,652.2814,353.4444,651.2251,343.5556,651.8661,333.6667,652.1373,323.7778,651.0745,313.8889,651.451,304,651.5469,304.126,651.5469,304.6518,641.6035,303.9958,631.6602,304.4626,621.7168,303.4462,611.7734,303.3227,601.8301,304.5036,591.8867,303.2831,581.9434,304,572" style="stroke:#383838;stroke-width:1.5;"/><polygon fill="#C2C2C2" points="388.8108,593.6444,387.1984,595.8475,385.2912,599.0745,382.5636,601.2491,379.6974,602.4384,377.412,602.5416,374.4747,601.0543,371.7032,600.0827,369.5995,598.1099,368.4961,595.8515,367.8417,594.0533,367.2006,591.7045,366.16,589.6832,366.9596,587.7098,367.6602,585.548,370.2893,583.8382,372.139,581.6198,374.4284,580.8832,377.1501,580.2488,380.6404,580.6257,382.5521,581.5273,384.7747,581.9359,387.4772,584.7047,388.4193,587.6277,388.8286,589.6221,388.365,592.9086" style="stroke:#383838;stroke-width:1.0;"/><path d="M380.0938,586.6406 C379.1563,586.2031 378.5625,586.0625 377.6875,586.0625 C375.0625,586.0625 373.0625,588.1406 373.0625,590.8594 L373.0625,591.9844 C373.0625,594.5625 375.1719,596.4531 378.0625,596.4531 C379.2813,596.4531 380.4375,596.1563 381.1875,595.6094 C381.7656,595.2031 382.0938,594.75 382.0938,594.3594 C382.0938,593.9063 381.7031,593.5156 381.2344,593.5156 C381.0156,593.5156 380.8125,593.5938 380.625,593.7813 C380.1719,594.2656 380.1719,594.2656 379.9844,594.3594 C379.5625,594.625 378.875,594.75 378.1094,594.75 C376.0625,594.75 374.7656,593.6563 374.7656,591.9531 L374.7656,590.8594 C374.7656,589.0781 376.0156,587.7656 377.75,587.7656 C378.3281,587.7656 378.9375,587.9219 379.4063,588.1719 C379.8906,588.4531 380.0625,588.6719 380.1563,589.0781 C380.2188,589.4844 380.25,589.6094 380.3906,589.7344 C380.5313,589.875 380.7656,589.9844 380.9844,589.9844 C381.25,589.9844 381.5156,589.8438 381.6875,589.625 C381.7969,589.4688 381.8281,589.2813 381.8281,588.8594 L381.8281,587.4375 C381.8281,587 381.8125,586.875 381.7188,586.7188 C381.5625,586.4531 381.2813,586.3125 380.9844,586.3125 C380.6875,586.3125 380.4844,586.4063 380.2656,586.7188 L380.0938,586.6406 Z " fill="#000000"/><text fill="#000000" font-family="FG Virgil" font-size="12" font-style="italic" lengthAdjust="spacing" textLength="74" x="416.75" y="588.1387">«repository»</text><text fill="#000000" font-family="FG Virgil" font-size="12" lengthAdjust="spacing" textLength="111" x="398.25" y="602.1074">ServicoRepository</text><path d="M305,609.9375 L305,610.2177 L314.8148,609.3851 L324.6296,610.1952 L334.4444,610.4704 L344.2593,608.9863 L354.0741,609.8339 L363.8889,609.3688 L373.7037,609.4262 L383.5185,609.8466 L393.3333,609.0157 L403.1481,610.6757 L412.963,609.0971 L422.7778,609.6738 L432.5926,610.5134 L442.4074,609.8231 L452.2222,610.0285 L462.037,609.8949 L471.8519,610.1755 L481.6667,610.2563 L491.4815,610.7184 L501.2963,610.8322 L511.1111,610.8432 L520.9259,610.277 L530.7407,610.5556 L540.5556,610.8738 L550.3704,608.9759 L560.1852,610.8422 L570,609.9375 " fill="#F8F8F8" style="stroke:#383838;stroke-width:1.5;"/><path d="M305,617.9375 L305,618.2177 L314.8148,617.3851 L324.6296,618.1952 L334.4444,618.4704 L344.2593,616.9863 L354.0741,617.8339 L363.8889,617.3688 L373.7037,617.4262 L383.5185,617.8466 L393.3333,617.0157 L403.1481,618.6757 L412.963,617.0971 L422.7778,617.6738 L432.5926,618.5134 L442.4074,617.8231 L452.2222,618.0285 L462.037,617.8949 L471.8519,618.1755 L481.6667,618.2563 L491.4815,618.7184 L501.2963,618.8322 L511.1111,618.8432 L520.9259,618.277 L530.7407,618.5556 L540.5556,618.8738 L550.3704,616.9759 L560.1852,618.8422 L570,617.9375 " fill="#F8F8F8" style="stroke:#383838;stroke-width:1.5;"/><text fill="#000000" font-family="FG Virgil" font-size="11" lengthAdjust="spacing" textLength="255" x="310" y="632.1479">findAllServicos(listaCatalogos, dadosServico)</text><text fill="#000000" font-family="FG Virgil" font-size="11" lengthAdjust="spacing" textLength="210" x="310" y="644.9526">findServicos(catalogo, dadosServico)</text><!--MD5=[3c1e07c68c3c748cf2024506b62afe7d]
link ListCatalogoServicoUI to ListCatalogoServicoController--><path d="M310.5,61.077 L310.7802,61.077 L309.9476,71.9606 L310.7577,82.8442 L311.0329,93.7278 L309.5488,104.6114 L310.5,115.495 " fill="none" style="stroke:#383838;stroke-width:1.0;"/><polygon fill="#383838" points="310.5,120.876,310.564,120.9045,311.1738,119.0199,312.1589,117.3022,313.0217,115.5301,313.4827,113.5794,314.5,111.876,314.4817,111.8577,313.5995,112.5755,312.8096,113.3856,312.0839,114.2599,311.137,114.913,310.5,115.876,310.6305,116.0065,309.5514,114.9274,308.8534,114.2294,308.2018,113.5778,307.2798,112.6558,306.5,111.876,306.5208,111.8852,307.2903,113.6717,308.1544,115.5002,308.9728,117.3084,309.8784,119.1553,310.5,120.876" style="stroke:#383838;stroke-width:1.0;"/><!--MD5=[16030bbba96bdc8c006222a4fe210720]
link ListCatalogoServicoController to CatalogoRepository--><path d="M208.029,239.119 L208.0887,239.1909 L206.3706,240.2558 L205.0023,241.7421 L203.5201,243.0912 L201.6634,243.989 L200.3251,245.5116 L200.302,245.4858 L198.6982,246.7122 L197.2103,248.0683 L195.8032,249.5147 L194.118,250.6501 L192.8223,252.2211 L192.9936,252.3977 L191.1793,253.4249 L189.8652,254.9677 L188.6122,256.5733 L187.004,257.813 L185.5827,259.2452 L185.6047,259.266 L184.1894,260.7027 L182.8746,262.2342 L181.5113,263.7199 L180.2405,265.2928 L178.6681,266.5815 L178.895,266.7751 L177.5922,268.3067 L176.1432,269.7134 L174.9083,271.3029 L173.6835,272.901 L172.1406,274.2275 L171.886,274.0329 L171.1645,276.0013 L169.6045,277.3289 L168.682,279.1436 L167.103,280.4566 L166.0621,282.1809 L166.0364,282.1647 L164.2288,285.72 L161.8189,288.897 L159.7645,292.2973 L157.7399,295.7162 L155.5,299 L155.6661,299.0814 L153.9406,302.1804 L152.4989,305.4185 L150.5979,308.4316 L149.382,311.7803 L147.7106,314.9059 L147.9365,314.9971 L146.5604,318.2825 L145.2964,321.6131 L143.5113,324.7334 L142.1082,328.0079 L141.0436,331.4191 L140.7813,331.3325 L139.8956,334.8115 L138.7143,338.1929 L137.9617,341.716 L136.4773,344.9973 L135.4279,348.4223 L135.2805,348.383 L134.5988,351.9236 L133.2873,355.2962 L132.4236,358.7883 L131.9981,362.3973 L130.7924,365.7981 L130.9818,365.8381 L130.3665,369.3918 L129.1619,372.8209 L128.6954,376.4061 L128.068,379.9572 L127.066,383.4291 L126.8588,383.3955 L126.4463,386.9761 L125.966,390.5457 L125.619,394.137 L124.7536,397.644 L124.1778,401.1981 L124.3819,401.2225 L123.5091,404.7269 L123.0303,408.2783 L123.1272,411.8983 L122.1643,415.392 L122.0564,418.9876 L122.2819,419.0058 L121.8629,422.5336 L121.3676,426.0552 L121.0444,429.5906 L121.1193,433.1582 L120.631,436.6803 L120.4981,436.6742 L120.7336,440.1881 L120.0653,443.6605 L120.4247,447.18 L120.2055,450.673 L119.8304,454.1588 L119.9392,454.1604 L119.802,457.5885 L120.0545,461.0223 L119.9549,464.4509 L119.708,467.8775 L119.5834,471.3058 L119.7026,471.3075 L119.5727,474.6446 L119.9961,477.9895 L119.7937,481.3256 L119.8487,484.6653 L119.8191,488.0038 L119.549,487.993 L119.7686,491.2229 L120.3137,494.466 L120.3983,497.6905 L120.3179,500.9084 L120.4664,504.1356 L120.3235,504.1264 L120.5668,507.219 L120.5571,510.2954 L121.2429,513.4162 L121.5846,516.515 L121.4541,519.5837 L121.6872,519.6037 L122.0132,522.5395 L121.8963,525.4373 L122.2469,528.3753 L122.2881,531.2867 L122.7111,534.2308 L122.8367,534.2441 L123.1113,536.9881 L123.5374,539.7482 L123.4828,542.4573 L123.816,545.2075 L124.1665,547.9596 L124.362,547.984 L124.7332,550.5294 L124.5734,553.0086 L125.0305,555.5647 L125.4983,558.1222 L125.749,560.6526 " fill="none" style="stroke:#383838;stroke-width:1.0;"/><polygon fill="#383838" points="126.483,565.993,126.5503,566.0125,126.8977,564.0624,127.6396,562.2265,128.2531,560.3535,128.4441,558.3582,129.2199,556.5321,129.1992,556.5164,128.423,557.3477,127.7509,558.2578,127.151,559.2229,126.3019,559.9988,125.802,561.0396,125.9135,561.1866,124.7735,560.1886,123.9591,559.6199,123.1844,559.1036,122.1787,558.2825,121.2944,557.6217,121.3138,557.6337,122.3231,559.2903,123.4204,561.0016,124.4753,562.6865,125.6112,564.4216,126.483,565.993" style="stroke:#383838;stroke-width:1.0;"/><!--MD5=[bb79e93b990d00d412c2e666933258e8]
link ListCatalogoServicoController to ServicoRepository--><path d="M341.929,239.296 L342.0133,239.3363 L343.1408,242.0972 L344.7623,245.0943 L346.223,248.0145 L347.1546,250.6816 L348.8185,253.6991 L348.787,253.6849 L349.9912,256.6142 L351.3542,259.6149 L352.8275,262.6653 L353.9205,265.5446 L355.5463,268.6635 L355.7735,268.7578 L356.5499,271.5974 L357.9898,274.7125 L359.5107,277.8611 L360.5605,280.8142 L361.8581,283.8702 L361.8865,283.8808 L362.9732,286.8912 L364.1892,289.9498 L365.3428,292.9852 L366.6155,296.065 L367.5,299 L367.7827,299.0951 L368.9725,302.6215 L369.9801,306.0865 L371.2545,309.6413 L372.5414,313.2003 L373.4321,316.6259 L373.1263,316.5297 L374.8534,320.3179 L375.5737,323.7893 L377.0594,327.5016 L377.7569,330.9657 L379.1005,334.6333 L379.0713,334.6246 L380.4975,338.383 L381.2416,341.9398 L382.3883,345.6155 L383.5687,349.3012 L384.5053,352.9149 L384.6835,352.9645 L385.532,356.6041 L386.6849,360.3286 L387.3452,363.9157 L388.7403,367.7076 L389.6469,371.3634 L389.8825,371.4255 L390.8136,375.1154 L391.8616,378.8362 L392.3662,382.4137 L393.2692,386.0962 L394.5252,389.8717 L394.2572,389.8047 L395.4228,393.5575 L396.2865,397.2348 L397.5881,401.0216 L398.1421,404.6215 L399.1404,408.3325 L398.9921,408.2972 L400.1096,412.0172 L400.593,415.5863 L401.5274,419.2627 L402.9029,423.044 L403.4928,426.6385 L403.6816,426.6813 L404.6291,430.3195 L404.9891,433.8245 L406.0849,437.4963 L407.0204,441.1318 L407.5824,444.6826 L407.3772,444.6381 L408.3061,448.2085 L409.1679,451.7643 L410.1617,455.3488 L410.6421,458.822 L411.4094,462.3574 L411.6107,462.3991 L411.8813,465.7471 L412.5404,469.1756 L413.7673,472.7218 L413.949,476.0514 L414.9739,479.5557 L415.1959,479.599 L416.3325,486.081 L417.3939,492.5483 L418.625,499.0486 L420.2479,505.6254 L421.3162,512.0941 L421.1853,512.0704 L422.6339,518.0099 L423.1922,523.7887 L424.7628,529.7501 L425.7635,535.6087 L426.6105,541.4396 L426.7179,541.4576 L427.4807,546.5021 L428.628,551.6111 L429.4279,556.6617 L430.0827,561.688 L430.858,566.7345 " fill="none" style="stroke:#383838;stroke-width:1.0;"/><polygon fill="#383838" points="431.669,571.7777,431.7367,571.7956,432.0395,569.8382,432.7393,567.9858,433.3098,566.0992,433.4551,564.1,434.189,562.2567,434.168,562.2415,433.4109,563.0903,432.7598,564.0156,432.1821,564.9941,431.351,565.7892,430.875,566.8412,430.9831,566.9907,429.835,566.0081,429.0025,565.4621,428.2086,564.9694,427.1906,564.1668,426.2905,563.5272,426.3095,563.5396,427.3573,565.1714,428.4917,566.8599,429.5844,568.521,430.7568,570.2342,431.669,571.7777" style="stroke:#383838;stroke-width:1.0;"/><!--MD5=[fdd11377543d24b532c4c9b5ae8a70d6]
link ListCatalogoServicoController to PersistenceContext--><path d="M286.143,239.187 L286.4015,239.2952 L281.8316,248.0559 L278.7771,257.4508 L275.2291,266.6393 L270.0582,275.1484 L267.0383,284.5578 L263.332,293.68 " fill="none" style="stroke:#383838;stroke-width:1.0;"/><polygon fill="#383838" points="261.234,298.69,261.2821,298.741,262.5725,297.2383,264.1447,296.0345,265.6252,294.7333,266.8039,293.1122,268.4003,291.934,268.3905,291.91,267.2995,292.2313,266.258,292.6734,265.2509,293.1995,264.1252,293.4361,263.1656,294.0782,263.3364,294.1481,262.5423,292.9516,262.2469,291.9593,262.0123,290.9919,261.4238,289.8795,261.0214,288.8434,261.0442,288.8439,261.0533,290.8125,261.1659,292.7833,261.2287,294.7531,261.3867,296.7249,261.234,298.69" style="stroke:#383838;stroke-width:1.0;"/><!--MD5=[d303398dc9bcaa23a4dc2c39d8791ceb]
link ListCatalogoServicoController to RepositoryFactory--><path d="M331.662,239.095 L331.7523,239.1189 L332.2394,241.9054 L333.2559,244.8319 L334.1,247.7129 L334.3771,250.4439 L335.4391,253.3825 L335.4053,253.375 L335.9289,256.3732 L336.6224,259.4092 L337.4341,262.4715 L337.8385,265.4432 L338.8133,268.5418 L339.0557,268.5843 L339.0921,271.6575 L339.8361,274.8548 L340.6664,278.0672 L340.9944,281.1915 L341.5866,284.3622 L341.6167,284.3658 L341.9673,287.6146 L342.455,290.88 L342.8765,294.1373 L343.4242,297.41 L343.5606,300.6328 L343.8584,300.6504 L344.0573,303.9526 L344.0642,307.2434 L344.3523,310.5509 L344.6534,313.8591 L344.5372,317.1427 L344.2167,317.1384 L344.7949,320.4543 L344.3178,323.7563 L344.643,327.0688 L344.1419,330.3705 L344.3181,333.6811 L344.2878,333.6781 L344.3235,336.9846 L343.6514,340.2214 L343.3969,343.4993 L343.1775,346.7807 L342.7051,350.0371 L342.8865,350.0735 L342.0624,353.2294 L341.5482,356.4474 L340.5326,359.5648 L340.2649,362.8323 L339.5,366 L339.7324,366.0731 L338.7862,368.929 L337.9553,371.8212 L336.5883,374.5448 L335.6144,377.392 L334.9886,380.3487 L334.7332,380.2435 L333.7999,383.1675 L332.5788,385.973 L331.7751,388.9504 L330.2587,391.6344 L329.166,394.4928 L329.0292,394.4254 L327.9122,397.2666 L326.2105,399.8197 L324.9246,402.5777 L324.0454,405.5362 L322.4419,408.1377 L322.6107,408.2325 L321.2834,410.8678 L319.4308,413.2082 L318.2361,415.9179 L316.898,418.5472 L315.226,420.989 " fill="none" style="stroke:#383838;stroke-width:1.0;"/><polygon fill="#383838" points="312.469,425.557,312.5091,425.6144,314.0049,424.316,315.7358,423.3543,317.3902,422.2829,318.7927,420.8509,320.5438,419.9181,320.5376,419.893,319.4114,420.0517,318.3166,420.3372,317.2435,420.7109,316.0954,420.7808,315.0524,421.2761,315.2315,421.3204,314.5768,420.1274,314.4452,419.0637,314.3774,418.0158,313.9382,416.8761,313.6944,415.7847,313.717,415.7875,313.4388,417.7378,313.2633,419.701,313.0383,421.658,312.9078,423.6268,312.469,425.557" style="stroke:#383838;stroke-width:1.0;"/><!--MD5=[754b775031405e096442b27febffa290]
link PersistenceContext to RepositoryFactory--><path d="M256.646,366.006 L256.9158,366.0819 L258.6862,374.9974 L262.0381,384.3578 L264.875,393.5733 L266.0184,402.3124 L269.4063,411.6829 L272.078,420.852 " fill="none" style="stroke:#383838;stroke-width:1.0;"/><polygon fill="#383838" points="273.483,425.843,273.5523,425.853,273.6288,423.8738,274.1118,421.9534,274.4624,420.0139,274.3778,418.0113,274.8956,416.096,274.873,416.0833,274.2182,417.0132,273.6773,418.007,273.2156,419.0452,272.481,419.9304,272.1287,421.0299,272.2189,421.1909,271.0391,420.2933,270.1228,419.8656,269.2387,419.4953,268.1675,418.7914,267.1947,418.2629,267.2122,418.2775,268.4442,419.7721,269.7558,421.333,271.029,422.8619,272.3756,424.4516,273.483,425.843" style="stroke:#383838;stroke-width:1.0;"/><!--MD5=[1c7e7a1fe085f3cc90df717ea11f1cec]
link RepositoryFactory to CatalogoRepository--><path d="M243.512,506.349 L243.7061,506.5512 L235.8526,512.9362 L229.1367,520.5064 L222.0504,527.6906 L213.7458,533.6057 L207.0559,541.2029 L199.4569,547.8531 L192.2198,554.8802 L185.297,562.2348 " fill="none" style="stroke:#383838;stroke-width:1.0;"/><polygon fill="#383838" points="181.537,565.8449,181.5608,565.9108,183.3427,565.0459,185.2642,564.5673,187.1402,563.9629,188.8668,562.9448,190.8002,562.4994,190.7997,562.4735,189.6662,562.334,188.5353,562.325,187.4064,562.4068,186.271,562.1758,185.1446,562.3829,185.3291,562.3867,184.9578,561.2475,185.1253,560.1193,185.3584,558.9925,185.2092,557.8578,185.2611,556.7273,185.2821,556.7359,184.5064,558.5468,183.8265,560.3968,183.1004,562.228,182.4625,564.0952,181.537,565.8449" style="stroke:#383838;stroke-width:1.0;"/><!--MD5=[4c2782ef650e763910e10e8b58df1401]
link RepositoryFactory to ServicoRepository--><path d="M326.308,506.349 L326.5001,506.5531 L333.2461,512.833 L341.118,520.3092 L348.6232,527.3959 L354.9228,533.2014 L362.8203,540.7049 L369.8183,547.2525 L377.1742,554.1805 L384.7791,561.373 L392.158,568.3254 " fill="none" style="stroke:#383838;stroke-width:1.0;"/><polygon fill="#383838" points="396.008,571.9485,396.0726,571.9756,395.1182,570.0788,394.5426,568.341,393.8436,566.5514,392.7391,564.5915,392.1959,562.8673,392.17,562.8665,392.088,563.9939,392.1366,565.1252,392.2759,566.2592,392.1025,567.3838,392.3671,568.5216,392.3727,568.706,391.2299,568.3458,390.1034,568.5242,388.9789,568.7682,387.8428,568.63,386.7128,568.6928,386.7203,568.7142,388.5683,569.3339,390.4506,570.0512,392.3163,570.7214,394.2135,571.4816,396.008,571.9485" style="stroke:#383838;stroke-width:1.0;"/><!--MD5=[020a22fc9115dfe85776ec0b011872c4]
@startuml
'http://plantuml.com/skinparam.html
skinparam handwritten true
skinparam monochrome true
skinparam packageStyle rect
skinparam defaultFontName FG Virgil
skinparam shadowing false

class ListCatalogoServicoUI <<presentation>>
class ListCatalogoServicoController <<application>>
class PersistenceContext <<persistence>>
class RepositoryFactory <<factory>>
class CatalogoRepository <<repository>>
class ServicoRepository <<repository>>


ListCatalogoServicoUI - -> ListCatalogoServicoController
ListCatalogoServicoController : listCatalogo()
ListCatalogoServicoController : listServico()

ListCatalogoServicoController : findCatalogo(dados)
ListCatalogoServicoController : findServicosUtilizador(dadosServico)
ListCatalogoServicoController : findCatalogoServico(dadosCatalogo,dadosServico)

ListCatalogoServicoController - -> CatalogoRepository
ListCatalogoServicoController - -> ServicoRepository
ListCatalogoServicoController - -> PersistenceContext
PersistenceContext : repositories()
ListCatalogoServicoController - -> RepositoryFactory
RepositoryFactory : catalogos()
RepositoryFactory : servicos()

PersistenceContext - -> RepositoryFactory
RepositoryFactory - -> CatalogoRepository
RepositoryFactory - -> ServicoRepository

CatalogoRepository : findCatalogo(dados)
CatalogoRepository : findServicosUtilizador(dadosServico)
CatalogoRepository : findCatalogo(dadosCatalogo,dadosServico)

ServicoRepository : findAllServicos(listaCatalogos, dadosServico)
ServicoRepository : findServicos(catalogo, dadosServico)
@enduml

@startuml
skinparam handwritten true
skinparam monochrome true
skinparam packageStyle rect
skinparam defaultFontName FG Virgil
skinparam shadowing false

class ListCatalogoServicoUI <<presentation>>
class ListCatalogoServicoController <<application>>
class PersistenceContext <<persistence>>
class RepositoryFactory <<factory>>
class CatalogoRepository <<repository>>
class ServicoRepository <<repository>>


ListCatalogoServicoUI - -> ListCatalogoServicoController
ListCatalogoServicoController : listCatalogo()
ListCatalogoServicoController : listServico()

ListCatalogoServicoController : findCatalogo(dados)
ListCatalogoServicoController : findServicosUtilizador(dadosServico)
ListCatalogoServicoController : findCatalogoServico(dadosCatalogo,dadosServico)

ListCatalogoServicoController - -> CatalogoRepository
ListCatalogoServicoController - -> ServicoRepository
ListCatalogoServicoController - -> PersistenceContext
PersistenceContext : repositories()
ListCatalogoServicoController - -> RepositoryFactory
RepositoryFactory : catalogos()
RepositoryFactory : servicos()

PersistenceContext - -> RepositoryFactory
RepositoryFactory - -> CatalogoRepository
RepositoryFactory - -> ServicoRepository

CatalogoRepository : findCatalogo(dados)
CatalogoRepository : findServicosUtilizador(dadosServico)
CatalogoRepository : findCatalogo(dadosCatalogo,dadosServico)

ServicoRepository : findAllServicos(listaCatalogos, dadosServico)
ServicoRepository : findServicos(catalogo, dadosServico)
@enduml

PlantUML version 1.2021.6beta4(Unknown compile time)
(GPL source distribution)
Java Runtime: Java(TM) SE Runtime Environment
JVM: Java HotSpot(TM) 64-Bit Server VM
Default Encoding: UTF-8
Language: en
Country: US
--></g></svg>