<?xml version="1.0" encoding="UTF-8" standalone="no"?><svg xmlns="http://www.w3.org/2000/svg" xmlns:xlink="http://www.w3.org/1999/xlink" contentScriptType="application/ecmascript" contentStyleType="text/css" height="664px" preserveAspectRatio="none" style="width:732px;height:664px;background:#FFFFFF;" version="1.1" viewBox="0 0 732 664" width="732px" zoomAndPan="magnify"><defs/><g><!--MD5=[b05baaf79a5fa92f914a4bb8a629f5dc]
class ListCatalogoServicoUI--><polygon fill="#F8F8F8" points="345.5,7,345.5,7.2102,355.6875,6.5857,365.875,7.1933,376.0625,7.3997,386.25,6.2866,396.4375,6.9223,406.625,6.5735,416.8125,6.6165,427,6.9318,437.1875,6.3086,447.375,7.5536,457.5625,6.3697,467.75,6.8022,477.9375,7.4319,488.125,6.9142,498.3125,7.0682,508.5,7,508.4681,7,508.6785,17.7875,508.7391,28.575,509.0857,39.3625,509.1711,50.15,508.5,60.9375,508.5,61.6168,498.3125,61.1921,488.125,61.4011,477.9375,61.6397,467.75,60.2163,457.5625,61.616,447.375,60.641,437.1875,61.4713,427,60.4425,416.8125,60.869,406.625,61.6791,396.4375,60.8888,386.25,61.0428,376.0625,61.2761,365.875,61.3537,355.6875,60.9336,345.5,60.9375,345.7872,60.9375,344.9276,50.15,345.7844,39.3625,346.0482,28.575,345.9445,17.7875,345.5,7" style="stroke:#383838;stroke-width:1.5;"/><polygon fill="#C2C2C2" points="371.5608,28.6444,369.9484,30.8475,368.0412,34.0745,365.3136,36.2491,362.4474,37.4384,360.162,37.5416,357.2247,36.0543,354.4532,35.0827,352.3495,33.1099,351.2461,30.8515,350.5917,29.0533,349.9506,26.7045,348.91,24.6832,349.7096,22.7098,350.4102,20.548,353.0393,18.8382,354.889,16.6198,357.1784,15.8832,359.9001,15.2488,363.3904,15.6257,365.3021,16.5273,367.5247,16.9359,370.2272,19.7047,371.1693,22.6277,371.5786,24.6221,371.115,27.9086" style="stroke:#383838;stroke-width:1.0;"/><path d="M362.8438,21.6406 C361.9063,21.2031 361.3125,21.0625 360.4375,21.0625 C357.8125,21.0625 355.8125,23.1406 355.8125,25.8594 L355.8125,26.9844 C355.8125,29.5625 357.9219,31.4531 360.8125,31.4531 C362.0313,31.4531 363.1875,31.1563 363.9375,30.6094 C364.5156,30.2031 364.8438,29.75 364.8438,29.3594 C364.8438,28.9063 364.4531,28.5156 363.9844,28.5156 C363.7656,28.5156 363.5625,28.5938 363.375,28.7813 C362.9219,29.2656 362.9219,29.2656 362.7344,29.3594 C362.3125,29.625 361.625,29.75 360.8594,29.75 C358.8125,29.75 357.5156,28.6563 357.5156,26.9531 L357.5156,25.8594 C357.5156,24.0781 358.7656,22.7656 360.5,22.7656 C361.0781,22.7656 361.6875,22.9219 362.1563,23.1719 C362.6406,23.4531 362.8125,23.6719 362.9063,24.0781 C362.9688,24.4844 363,24.6094 363.1406,24.7344 C363.2813,24.875 363.5156,24.9844 363.7344,24.9844 C364,24.9844 364.2656,24.8438 364.4375,24.625 C364.5469,24.4688 364.5781,24.2813 364.5781,23.8594 L364.5781,22.4375 C364.5781,22 364.5625,21.875 364.4688,21.7188 C364.3125,21.4531 364.0313,21.3125 363.7344,21.3125 C363.4375,21.3125 363.2344,21.4063 363.0156,21.7188 L362.8438,21.6406 Z " fill="#000000"/><text fill="#000000" font-family="FG Virgil" font-size="12" font-style="italic" lengthAdjust="spacing" textLength="90" x="395" y="23.1387">«presentation»</text><text fill="#000000" font-family="FG Virgil" font-size="12" lengthAdjust="spacing" textLength="131" x="374.5" y="37.1074">ListCatalogoServicoUI</text><path d="M346.5,44.9375 L346.5,45.2177 L356.5625,44.3851 L366.625,45.1952 L376.6875,45.4704 L386.75,43.9863 L396.8125,44.8339 L406.875,44.3688 L416.9375,44.4262 L427,44.8466 L437.0625,44.0157 L447.125,45.6757 L457.1875,44.0971 L467.25,44.6738 L477.3125,45.5134 L487.375,44.8231 L497.4375,45.0285 L507.5,44.9375 " fill="#F8F8F8" style="stroke:#383838;stroke-width:1.5;"/><path d="M346.5,52.9375 L346.5,53.2177 L356.5625,52.3851 L366.625,53.1952 L376.6875,53.4704 L386.75,51.9863 L396.8125,52.8339 L406.875,52.3688 L416.9375,52.4262 L427,52.8466 L437.0625,52.0157 L447.125,53.6757 L457.1875,52.0971 L467.25,52.6738 L477.3125,53.5134 L487.375,52.8231 L497.4375,53.0285 L507.5,52.9375 " fill="#F8F8F8" style="stroke:#383838;stroke-width:1.5;"/><!--MD5=[bbf145543bce2e91d36f148c047675af]
class ListCatalogoServicoController--><polygon fill="#F8F8F8" points="270.5,121,270.5,121.2102,280.5968,120.5857,290.6935,121.1933,300.7903,121.3997,310.8871,120.2866,320.9839,120.9223,331.0806,120.5735,341.1774,120.6165,351.2742,120.9318,361.371,120.3086,371.4677,121.5536,381.5645,120.3697,391.6613,120.8022,401.7581,121.4319,411.8548,120.9142,421.9516,121.0682,432.0484,120.9681,442.1452,121.1785,452.2419,121.2391,462.3387,121.5857,472.4355,121.6711,482.5323,121.6793,492.629,121.2546,502.7258,121.4636,512.8226,121.7022,522.9194,120.2788,533.0161,121.6785,543.1129,120.7035,553.2097,121.5338,563.3065,120.505,573.4032,120.9315,583.5,121,584.2416,121,583.4513,131.0589,583.6053,141.1178,583.8386,151.1767,583.9162,161.2356,583.4961,171.2945,583.7872,181.3534,582.9276,191.4123,583.7844,201.4712,584.0482,211.53,583.9445,221.5889,584.113,231.6478,583.0169,241.7067,583.5,251.7656,583.5,251.1134,573.4032,251.1442,563.3065,251.7067,553.2097,251.5691,543.1129,252.447,533.0161,251.5909,522.9194,251.4226,512.8226,251.9939,502.7258,251.0988,492.629,251.2465,482.5323,252.4146,472.4355,252.2013,462.3387,252.5001,452.2419,251.4438,442.1452,252.0848,432.0484,252.356,421.9516,251.2932,411.8548,251.6698,401.7581,251.8916,391.6613,252.4174,381.5645,251.7614,371.4677,252.2282,361.371,251.2118,351.2742,251.0884,341.1774,252.2692,331.0806,251.0487,320.9839,252.2746,310.8871,251.9723,300.7903,251.4977,290.6935,251.4119,280.5968,252.2244,270.5,251.7656,270.2007,251.7656,271.0919,241.7067,269.9473,231.6478,271.1174,221.5889,270.9843,211.53,270.745,201.4712,270.5472,191.4123,271.2266,181.3534,271.1136,171.2945,270.6693,161.2356,270.7682,151.1767,270.3697,141.1178,271.2165,131.0589,270.5,121" style="stroke:#383838;stroke-width:1.5;"/><polygon fill="#C2C2C2" points="344.8108,142.6444,343.1984,144.8475,341.2912,148.0745,338.5636,150.2491,335.6974,151.4384,333.412,151.5416,330.4747,150.0543,327.7032,149.0827,325.5995,147.1099,324.4961,144.8515,323.8417,143.0533,323.2006,140.7045,322.16,138.6832,322.9596,136.7098,323.6602,134.548,326.2893,132.8382,328.139,130.6198,330.4284,129.8832,333.1501,129.2488,336.6404,129.6257,338.5521,130.5273,340.7747,130.9359,343.4772,133.7047,344.4193,136.6277,344.8286,138.6221,344.365,141.9086" style="stroke:#383838;stroke-width:1.0;"/><path d="M336.0938,135.6406 C335.1563,135.2031 334.5625,135.0625 333.6875,135.0625 C331.0625,135.0625 329.0625,137.1406 329.0625,139.8594 L329.0625,140.9844 C329.0625,143.5625 331.1719,145.4531 334.0625,145.4531 C335.2813,145.4531 336.4375,145.1563 337.1875,144.6094 C337.7656,144.2031 338.0938,143.75 338.0938,143.3594 C338.0938,142.9063 337.7031,142.5156 337.2344,142.5156 C337.0156,142.5156 336.8125,142.5938 336.625,142.7813 C336.1719,143.2656 336.1719,143.2656 335.9844,143.3594 C335.5625,143.625 334.875,143.75 334.1094,143.75 C332.0625,143.75 330.7656,142.6563 330.7656,140.9531 L330.7656,139.8594 C330.7656,138.0781 332.0156,136.7656 333.75,136.7656 C334.3281,136.7656 334.9375,136.9219 335.4063,137.1719 C335.8906,137.4531 336.0625,137.6719 336.1563,138.0781 C336.2188,138.4844 336.25,138.6094 336.3906,138.7344 C336.5313,138.875 336.7656,138.9844 336.9844,138.9844 C337.25,138.9844 337.5156,138.8438 337.6875,138.625 C337.7969,138.4688 337.8281,138.2813 337.8281,137.8594 L337.8281,136.4375 C337.8281,136 337.8125,135.875 337.7188,135.7188 C337.5625,135.4531 337.2813,135.3125 336.9844,135.3125 C336.6875,135.3125 336.4844,135.4063 336.2656,135.7188 L336.0938,135.6406 Z " fill="#000000"/><text fill="#000000" font-family="FG Virgil" font-size="12" font-style="italic" lengthAdjust="spacing" textLength="80" x="403.25" y="137.1387">«application»</text><text fill="#000000" font-family="FG Virgil" font-size="12" lengthAdjust="spacing" textLength="178" x="354.25" y="151.1074">ListCatalogoServicoController</text><path d="M271.5,158.9375 L271.5,159.2177 L281.5323,158.3851 L291.5645,159.1952 L301.5968,159.4704 L311.629,157.9863 L321.6613,158.8339 L331.6935,158.3688 L341.7258,158.4262 L351.7581,158.8466 L361.7903,158.0157 L371.8226,159.6757 L381.8548,158.0971 L391.8871,158.6738 L401.9194,159.5134 L411.9516,158.8231 L421.9839,159.0285 L432.0161,158.8949 L442.0484,159.1755 L452.0806,159.2563 L462.1129,159.7184 L472.1452,159.8322 L482.1774,159.8432 L492.2097,159.277 L502.2419,159.5556 L512.2742,159.8738 L522.3065,157.9759 L532.3387,159.8422 L542.371,158.5422 L552.4032,159.6492 L562.4355,158.2775 L572.4677,158.8462 L582.5,158.9375 " fill="#F8F8F8" style="stroke:#383838;stroke-width:1.5;"/><path d="M271.5,166.9375 L271.5,167.2177 L281.5323,166.3851 L291.5645,167.1952 L301.5968,167.4704 L311.629,165.9863 L321.6613,166.8339 L331.6935,166.3688 L341.7258,166.4262 L351.7581,166.8466 L361.7903,166.0157 L371.8226,167.6757 L381.8548,166.0971 L391.8871,166.6738 L401.9194,167.5134 L411.9516,166.8231 L421.9839,167.0285 L432.0161,166.8949 L442.0484,167.1755 L452.0806,167.2563 L462.1129,167.7184 L472.1452,167.8322 L482.1774,167.8432 L492.2097,167.277 L502.2419,167.5556 L512.2742,167.8738 L522.3065,165.9759 L532.3387,167.8422 L542.371,166.5422 L552.4032,167.6492 L562.4355,166.2775 L572.4677,166.8462 L582.5,166.9375 " fill="#F8F8F8" style="stroke:#383838;stroke-width:1.5;"/><text fill="#000000" font-family="FG Virgil" font-size="11" lengthAdjust="spacing" textLength="74" x="276.5" y="181.1479">listCatalogo()</text><text fill="#000000" font-family="FG Virgil" font-size="11" lengthAdjust="spacing" textLength="67" x="276.5" y="193.9526">listServico()</text><text fill="#000000" font-family="FG Virgil" font-size="11" lengthAdjust="spacing" textLength="68" x="276.5" y="206.7573">listEquipas()</text><text fill="#000000" font-family="FG Virgil" font-size="11" lengthAdjust="spacing" textLength="186" x="276.5" y="219.562">findCatalogos(listEquipas, dados)</text><text fill="#000000" font-family="FG Virgil" font-size="11" lengthAdjust="spacing" textLength="113" x="276.5" y="232.3667">getEquipasDoUser()</text><text fill="#000000" font-family="FG Virgil" font-size="11" lengthAdjust="spacing" textLength="301" x="276.5" y="245.1714">findServicos(listEquipas, listCatalogos, dadosServico)</text><!--MD5=[e8c189551b7885b999ad7cefb30fc2a3]
class PersistenceContext--><polygon fill="#F8F8F8" points="226,312,226,312.2102,235.8667,311.5857,245.7333,312.1933,255.6,312.3997,265.4667,311.2866,275.3333,311.9223,285.2,311.5735,295.0667,311.6165,304.9333,311.9318,314.8,311.3086,324.6667,312.5536,334.5333,311.3697,344.4,311.8022,354.2667,312.4319,364.1333,311.9142,374,312,374.0682,312,373.9681,321.5346,374.1785,331.0692,374.2391,340.6038,374.5857,350.1384,374.6711,359.673,374.6793,369.2076,374,378.7422,374,378.9968,364.1333,379.2058,354.2667,379.4444,344.4,378.021,334.5333,379.4207,324.6667,378.4457,314.8,379.276,304.9333,378.2472,295.0667,378.6737,285.2,379.4838,275.3333,378.6935,265.4667,378.8475,255.6,379.0808,245.7333,379.1584,235.8667,378.7383,226,378.7422,226.2872,378.7422,225.4276,369.2076,226.2844,359.673,226.5482,350.1384,226.4445,340.6038,226.613,331.0692,225.5169,321.5346,226,312" style="stroke:#383838;stroke-width:1.5;"/><polygon fill="#C2C2C2" points="252.0608,333.6444,250.4484,335.8475,248.5412,339.0745,245.8136,341.2491,242.9474,342.4384,240.662,342.5416,237.7247,341.0543,234.9532,340.0827,232.8495,338.1099,231.7461,335.8515,231.0917,334.0533,230.4506,331.7045,229.41,329.6832,230.2096,327.7098,230.9102,325.548,233.5393,323.8382,235.389,321.6198,237.6784,320.8832,240.4001,320.2488,243.8904,320.6257,245.8021,321.5273,248.0247,321.9359,250.7272,324.7047,251.6693,327.6277,252.0786,329.6221,251.615,332.9086" style="stroke:#383838;stroke-width:1.0;"/><path d="M243.3438,326.6406 C242.4063,326.2031 241.8125,326.0625 240.9375,326.0625 C238.3125,326.0625 236.3125,328.1406 236.3125,330.8594 L236.3125,331.9844 C236.3125,334.5625 238.4219,336.4531 241.3125,336.4531 C242.5313,336.4531 243.6875,336.1563 244.4375,335.6094 C245.0156,335.2031 245.3438,334.75 245.3438,334.3594 C245.3438,333.9063 244.9531,333.5156 244.4844,333.5156 C244.2656,333.5156 244.0625,333.5938 243.875,333.7813 C243.4219,334.2656 243.4219,334.2656 243.2344,334.3594 C242.8125,334.625 242.125,334.75 241.3594,334.75 C239.3125,334.75 238.0156,333.6563 238.0156,331.9531 L238.0156,330.8594 C238.0156,329.0781 239.2656,327.7656 241,327.7656 C241.5781,327.7656 242.1875,327.9219 242.6563,328.1719 C243.1406,328.4531 243.3125,328.6719 243.4063,329.0781 C243.4688,329.4844 243.5,329.6094 243.6406,329.7344 C243.7813,329.875 244.0156,329.9844 244.2344,329.9844 C244.5,329.9844 244.7656,329.8438 244.9375,329.625 C245.0469,329.4688 245.0781,329.2813 245.0781,328.8594 L245.0781,327.4375 C245.0781,327 245.0625,326.875 244.9688,326.7188 C244.8125,326.4531 244.5313,326.3125 244.2344,326.3125 C243.9375,326.3125 243.7344,326.4063 243.5156,326.7188 L243.3438,326.6406 Z " fill="#000000"/><text fill="#000000" font-family="FG Virgil" font-size="12" font-style="italic" lengthAdjust="spacing" textLength="83" x="271.5" y="328.1387">«persistence»</text><text fill="#000000" font-family="FG Virgil" font-size="12" lengthAdjust="spacing" textLength="116" x="255" y="342.1074">PersistenceContext</text><path d="M227,349.9375 L227,350.2177 L236.7333,349.3851 L246.4667,350.1952 L256.2,350.4704 L265.9333,348.9863 L275.6667,349.8339 L285.4,349.3688 L295.1333,349.4262 L304.8667,349.8466 L314.6,349.0157 L324.3333,350.6757 L334.0667,349.0971 L343.8,349.6738 L353.5333,350.5134 L363.2667,349.8231 L373,349.9375 " fill="#F8F8F8" style="stroke:#383838;stroke-width:1.5;"/><path d="M227,357.9375 L227,358.2177 L236.7333,357.3851 L246.4667,358.1952 L256.2,358.4704 L265.9333,356.9863 L275.6667,357.8339 L285.4,357.3688 L295.1333,357.4262 L304.8667,357.8466 L314.6,357.0157 L324.3333,358.6757 L334.0667,357.0971 L343.8,357.6738 L353.5333,358.5134 L363.2667,357.8231 L373,357.9375 " fill="#F8F8F8" style="stroke:#383838;stroke-width:1.5;"/><text fill="#000000" font-family="FG Virgil" font-size="11" lengthAdjust="spacing" textLength="75" x="232" y="372.1479">repositories()</text><!--MD5=[48590afff58a68e2fcba47824d6f8a11]
class RepositoryFactory--><polygon fill="#F8F8F8" points="303,439,303,439.2102,313.1429,438.5857,323.2857,439.1933,333.4286,439.3997,343.5714,438.2866,353.7143,438.9223,363.8571,438.5735,374,438.6165,384.1429,438.9318,394.2857,438.3086,404.4286,439.5536,414.5714,438.3697,424.7143,438.8022,434.8571,439.4319,445,439,444.9142,439,445.0682,449.2613,444.9681,459.5226,445.1785,469.7839,445.2391,480.0451,445.5857,490.3064,445.6711,500.5677,445.6793,510.829,445.2546,521.0903,445,531.3516,445,531.8151,434.8571,532.0538,424.7143,530.6304,414.5714,532.0301,404.4286,531.0551,394.2857,531.8854,384.1429,530.8565,374,531.2831,363.8571,532.0932,353.7143,531.3028,343.5714,531.4569,333.4286,531.6902,323.2857,531.7678,313.1429,531.3477,303,531.3516,303.2872,531.3516,302.4276,521.0903,303.2844,510.829,303.5482,500.5677,303.4445,490.3064,303.613,480.0451,302.5169,469.7839,302.3478,459.5226,302.3786,449.2613,303,439" style="stroke:#383838;stroke-width:1.5;"/><polygon fill="#C2C2C2" points="329.0608,460.6444,327.4484,462.8475,325.5412,466.0745,322.8136,468.2491,319.9474,469.4384,317.662,469.5416,314.7247,468.0543,311.9532,467.0827,309.8495,465.1099,308.7461,462.8515,308.0917,461.0533,307.4506,458.7045,306.41,456.6832,307.2096,454.7098,307.9102,452.548,310.5393,450.8382,312.389,448.6198,314.6784,447.8832,317.4001,447.2488,320.8904,447.6257,322.8021,448.5273,325.0247,448.9359,327.7272,451.7047,328.6693,454.6277,329.0786,456.6221,328.615,459.9086" style="stroke:#383838;stroke-width:1.0;"/><path d="M320.3438,453.6406 C319.4063,453.2031 318.8125,453.0625 317.9375,453.0625 C315.3125,453.0625 313.3125,455.1406 313.3125,457.8594 L313.3125,458.9844 C313.3125,461.5625 315.4219,463.4531 318.3125,463.4531 C319.5313,463.4531 320.6875,463.1563 321.4375,462.6094 C322.0156,462.2031 322.3438,461.75 322.3438,461.3594 C322.3438,460.9063 321.9531,460.5156 321.4844,460.5156 C321.2656,460.5156 321.0625,460.5938 320.875,460.7813 C320.4219,461.2656 320.4219,461.2656 320.2344,461.3594 C319.8125,461.625 319.125,461.75 318.3594,461.75 C316.3125,461.75 315.0156,460.6563 315.0156,458.9531 L315.0156,457.8594 C315.0156,456.0781 316.2656,454.7656 318,454.7656 C318.5781,454.7656 319.1875,454.9219 319.6563,455.1719 C320.1406,455.4531 320.3125,455.6719 320.4063,456.0781 C320.4688,456.4844 320.5,456.6094 320.6406,456.7344 C320.7813,456.875 321.0156,456.9844 321.2344,456.9844 C321.5,456.9844 321.7656,456.8438 321.9375,456.625 C322.0469,456.4688 322.0781,456.2813 322.0781,455.8594 L322.0781,454.4375 C322.0781,454 322.0625,453.875 321.9688,453.7188 C321.8125,453.4531 321.5313,453.3125 321.2344,453.3125 C320.9375,453.3125 320.7344,453.4063 320.5156,453.7188 L320.3438,453.6406 Z " fill="#000000"/><text fill="#000000" font-family="FG Virgil" font-size="12" font-style="italic" lengthAdjust="spacing" textLength="56" x="359" y="455.1387">«factory»</text><text fill="#000000" font-family="FG Virgil" font-size="12" lengthAdjust="spacing" textLength="110" x="332" y="469.1074">RepositoryFactory</text><path d="M304,476.9375 L304,477.2177 L314,476.3851 L324,477.1952 L334,477.4704 L344,475.9863 L354,476.8339 L364,476.3688 L374,476.4262 L384,476.8466 L394,476.0157 L404,477.6757 L414,476.0971 L424,476.6738 L434,477.5134 L444,476.9375 " fill="#F8F8F8" style="stroke:#383838;stroke-width:1.5;"/><path d="M304,484.9375 L304,485.2177 L314,484.3851 L324,485.1952 L334,485.4704 L344,483.9863 L354,484.8339 L364,484.3688 L374,484.4262 L384,484.8466 L394,484.0157 L404,485.6757 L414,484.0971 L424,484.6738 L434,485.5134 L444,484.9375 " fill="#F8F8F8" style="stroke:#383838;stroke-width:1.5;"/><text fill="#000000" font-family="FG Virgil" font-size="11" lengthAdjust="spacing" textLength="62" x="309" y="499.1479">catalogos()</text><text fill="#000000" font-family="FG Virgil" font-size="11" lengthAdjust="spacing" textLength="55" x="309" y="511.9526">servicos()</text><text fill="#000000" font-family="FG Virgil" font-size="11" lengthAdjust="spacing" textLength="53" x="309" y="524.7573">equipas()</text><!--MD5=[37de35b2239f3e75f2a4e341603fb23d]
class CatalogoRepository--><polygon fill="#F8F8F8" points="7,591,7,591.2102,16.9,590.5857,26.8,591.1933,36.7,591.3997,46.6,590.2866,56.5,590.9223,66.4,590.5735,76.3,590.6165,86.2,590.9318,96.1,590.3086,106,591.5536,115.9,590.3697,125.8,590.8022,135.7,591.4319,145.6,590.9142,155.5,591.0682,165.4,590.9681,175.3,591.1785,185.2,591.2391,195.1,591.5857,205,591,205.6711,591,205.6793,600.5346,205.2546,610.0692,205.4636,619.6038,205.7022,629.1384,204.2788,638.673,205.6785,648.2076,205,657.7422,205,657.4457,195.1,658.276,185.2,657.2472,175.3,657.6737,165.4,658.4838,155.5,657.6935,145.6,657.8475,135.7,658.0808,125.8,658.1584,115.9,657.7383,106,658.0294,96.1,657.1698,86.2,658.0266,76.3,658.2904,66.4,658.1867,56.5,658.3552,46.6,657.2591,36.7,657.09,26.8,657.1208,16.9,657.6833,7,657.7422,6.8035,657.7422,7.6814,648.2076,6.8253,638.673,6.6569,629.1384,7.2283,619.6038,6.3332,610.0692,6.4809,600.5346,7,591" style="stroke:#383838;stroke-width:1.5;"/><polygon fill="#C2C2C2" points="54.6608,612.6444,53.0484,614.8475,51.1412,618.0745,48.4136,620.2491,45.5474,621.4384,43.262,621.5416,40.3247,620.0543,37.5532,619.0827,35.4495,617.1099,34.3461,614.8515,33.6917,613.0533,33.0506,610.7045,32.01,608.6832,32.8096,606.7098,33.5102,604.548,36.1393,602.8382,37.989,600.6198,40.2784,599.8832,43.0001,599.2488,46.4904,599.6257,48.4021,600.5273,50.6247,600.9359,53.3272,603.7047,54.2693,606.6277,54.6786,608.6221,54.215,611.9086" style="stroke:#383838;stroke-width:1.0;"/><path d="M45.9438,605.6406 C45.0063,605.2031 44.4125,605.0625 43.5375,605.0625 C40.9125,605.0625 38.9125,607.1406 38.9125,609.8594 L38.9125,610.9844 C38.9125,613.5625 41.0219,615.4531 43.9125,615.4531 C45.1313,615.4531 46.2875,615.1563 47.0375,614.6094 C47.6156,614.2031 47.9438,613.75 47.9438,613.3594 C47.9438,612.9063 47.5531,612.5156 47.0844,612.5156 C46.8656,612.5156 46.6625,612.5938 46.475,612.7813 C46.0219,613.2656 46.0219,613.2656 45.8344,613.3594 C45.4125,613.625 44.725,613.75 43.9594,613.75 C41.9125,613.75 40.6156,612.6563 40.6156,610.9531 L40.6156,609.8594 C40.6156,608.0781 41.8656,606.7656 43.6,606.7656 C44.1781,606.7656 44.7875,606.9219 45.2563,607.1719 C45.7406,607.4531 45.9125,607.6719 46.0063,608.0781 C46.0688,608.4844 46.1,608.6094 46.2406,608.7344 C46.3813,608.875 46.6156,608.9844 46.8344,608.9844 C47.1,608.9844 47.3656,608.8438 47.5375,608.625 C47.6469,608.4688 47.6781,608.2813 47.6781,607.8594 L47.6781,606.4375 C47.6781,606 47.6625,605.875 47.5688,605.7188 C47.4125,605.4531 47.1313,605.3125 46.8344,605.3125 C46.5375,605.3125 46.3344,605.4063 46.1156,605.7188 L45.9438,605.6406 Z " fill="#000000"/><text fill="#000000" font-family="FG Virgil" font-size="12" font-style="italic" lengthAdjust="spacing" textLength="74" x="84.4" y="607.1387">«repository»</text><text fill="#000000" font-family="FG Virgil" font-size="12" lengthAdjust="spacing" textLength="118" x="62.4" y="621.1074">CatalogoRepository</text><path d="M8,628.9375 L8,629.2177 L17.8,628.3851 L27.6,629.1952 L37.4,629.4704 L47.2,627.9863 L57,628.8339 L66.8,628.3688 L76.6,628.4262 L86.4,628.8466 L96.2,628.0157 L106,629.6757 L115.8,628.0971 L125.6,628.6738 L135.4,629.5134 L145.2,628.8231 L155,629.0285 L164.8,628.8949 L174.6,629.1755 L184.4,629.2563 L194.2,629.7184 L204,628.9375 " fill="#F8F8F8" style="stroke:#383838;stroke-width:1.5;"/><path d="M8,636.9375 L8,637.2177 L17.8,636.3851 L27.6,637.1952 L37.4,637.4704 L47.2,635.9863 L57,636.8339 L66.8,636.3688 L76.6,636.4262 L86.4,636.8466 L96.2,636.0157 L106,637.6757 L115.8,636.0971 L125.6,636.6738 L135.4,637.5134 L145.2,636.8231 L155,637.0285 L164.8,636.8949 L174.6,637.1755 L184.4,637.2563 L194.2,637.7184 L204,636.9375 " fill="#F8F8F8" style="stroke:#383838;stroke-width:1.5;"/><text fill="#000000" font-family="FG Virgil" font-size="11" lengthAdjust="spacing" textLength="186" x="13" y="651.1479">findCatalogos(listEquipas, dados)</text><!--MD5=[51865f8cbfe0824679c335d6e733f291]
class ServicoRepository--><polygon fill="#F8F8F8" points="240.5,591,240.5,591.2102,250.5968,590.5857,260.6935,591.1933,270.7903,591.3997,280.8871,590.2866,290.9839,590.9223,301.0806,590.5735,311.1774,590.6165,321.2742,590.9318,331.371,590.3086,341.4677,591.5536,351.5645,590.3697,361.6613,590.8022,371.7581,591.4319,381.8548,590.9142,391.9516,591.0682,402.0484,590.9681,412.1452,591.1785,422.2419,591.2391,432.3387,591.5857,442.4355,591.6711,452.5323,591.6793,462.629,591.2546,472.7258,591.4636,482.8226,591.7022,492.9194,590.2788,503.0161,591.6785,513.1129,590.7035,523.2097,591.5338,533.3065,590.505,543.4032,590.9315,553.5,591,554.2416,591,553.4513,600.5346,553.6053,610.0692,553.8386,619.6038,553.9162,629.1384,553.4961,638.673,553.7872,648.2076,553.5,657.7422,553.5,657.1698,543.4032,658.0266,533.3065,658.2904,523.2097,658.1867,513.1129,658.3552,503.0161,657.2591,492.9194,657.09,482.8226,657.1208,472.7258,657.6833,462.629,657.5457,452.5323,658.4236,442.4355,657.5675,432.3387,657.3991,422.2419,657.9705,412.1452,657.0753,402.0484,657.2231,391.9516,658.3911,381.8548,658.1779,371.7581,658.4767,361.6613,657.4204,351.5645,658.0614,341.4677,658.3326,331.371,657.2698,321.2742,657.6463,311.1774,657.8682,301.0806,658.3939,290.9839,657.738,280.8871,658.2048,270.7903,657.1884,260.6935,657.0649,250.5968,658.2458,240.5,657.7422,239.7831,657.7422,241.009,648.2076,240.7066,638.673,240.2321,629.1384,240.1462,619.6038,240.9588,610.0692,240.2007,600.5346,240.5,591" style="stroke:#383838;stroke-width:1.5;"/><polygon fill="#C2C2C2" points="348.3108,612.6444,346.6984,614.8475,344.7912,618.0745,342.0636,620.2491,339.1974,621.4384,336.912,621.5416,333.9747,620.0543,331.2032,619.0827,329.0995,617.1099,327.9961,614.8515,327.3417,613.0533,326.7006,610.7045,325.66,608.6832,326.4596,606.7098,327.1602,604.548,329.7893,602.8382,331.639,600.6198,333.9284,599.8832,336.6501,599.2488,340.1404,599.6257,342.0521,600.5273,344.2747,600.9359,346.9772,603.7047,347.9193,606.6277,348.3286,608.6221,347.865,611.9086" style="stroke:#383838;stroke-width:1.0;"/><path d="M339.5938,605.6406 C338.6563,605.2031 338.0625,605.0625 337.1875,605.0625 C334.5625,605.0625 332.5625,607.1406 332.5625,609.8594 L332.5625,610.9844 C332.5625,613.5625 334.6719,615.4531 337.5625,615.4531 C338.7813,615.4531 339.9375,615.1563 340.6875,614.6094 C341.2656,614.2031 341.5938,613.75 341.5938,613.3594 C341.5938,612.9063 341.2031,612.5156 340.7344,612.5156 C340.5156,612.5156 340.3125,612.5938 340.125,612.7813 C339.6719,613.2656 339.6719,613.2656 339.4844,613.3594 C339.0625,613.625 338.375,613.75 337.6094,613.75 C335.5625,613.75 334.2656,612.6563 334.2656,610.9531 L334.2656,609.8594 C334.2656,608.0781 335.5156,606.7656 337.25,606.7656 C337.8281,606.7656 338.4375,606.9219 338.9063,607.1719 C339.3906,607.4531 339.5625,607.6719 339.6563,608.0781 C339.7188,608.4844 339.75,608.6094 339.8906,608.7344 C340.0313,608.875 340.2656,608.9844 340.4844,608.9844 C340.75,608.9844 341.0156,608.8438 341.1875,608.625 C341.2969,608.4688 341.3281,608.2813 341.3281,607.8594 L341.3281,606.4375 C341.3281,606 341.3125,605.875 341.2188,605.7188 C341.0625,605.4531 340.7813,605.3125 340.4844,605.3125 C340.1875,605.3125 339.9844,605.4063 339.7656,605.7188 L339.5938,605.6406 Z " fill="#000000"/><text fill="#000000" font-family="FG Virgil" font-size="12" font-style="italic" lengthAdjust="spacing" textLength="74" x="376.25" y="607.1387">«repository»</text><text fill="#000000" font-family="FG Virgil" font-size="12" lengthAdjust="spacing" textLength="111" x="357.75" y="621.1074">ServicoRepository</text><path d="M241.5,628.9375 L241.5,629.2177 L251.5323,628.3851 L261.5645,629.1952 L271.5968,629.4704 L281.629,627.9863 L291.6613,628.8339 L301.6935,628.3688 L311.7258,628.4262 L321.7581,628.8466 L331.7903,628.0157 L341.8226,629.6757 L351.8548,628.0971 L361.8871,628.6738 L371.9194,629.5134 L381.9516,628.8231 L391.9839,629.0285 L402.0161,628.8949 L412.0484,629.1755 L422.0806,629.2563 L432.1129,629.7184 L442.1452,629.8322 L452.1774,629.8432 L462.2097,629.277 L472.2419,629.5556 L482.2742,629.8738 L492.3065,627.9759 L502.3387,629.8422 L512.371,628.5422 L522.4032,629.6492 L532.4355,628.2775 L542.4677,628.8462 L552.5,628.9375 " fill="#F8F8F8" style="stroke:#383838;stroke-width:1.5;"/><path d="M241.5,636.9375 L241.5,637.2177 L251.5323,636.3851 L261.5645,637.1952 L271.5968,637.4704 L281.629,635.9863 L291.6613,636.8339 L301.6935,636.3688 L311.7258,636.4262 L321.7581,636.8466 L331.7903,636.0157 L341.8226,637.6757 L351.8548,636.0971 L361.8871,636.6738 L371.9194,637.5134 L381.9516,636.8231 L391.9839,637.0285 L402.0161,636.8949 L412.0484,637.1755 L422.0806,637.2563 L432.1129,637.7184 L442.1452,637.8322 L452.1774,637.8432 L462.2097,637.277 L472.2419,637.5556 L482.2742,637.8738 L492.3065,635.9759 L502.3387,637.8422 L512.371,636.5422 L522.4032,637.6492 L532.4355,636.2775 L542.4677,636.8462 L552.5,636.9375 " fill="#F8F8F8" style="stroke:#383838;stroke-width:1.5;"/><text fill="#000000" font-family="FG Virgil" font-size="11" lengthAdjust="spacing" textLength="301" x="246.5" y="651.1479">findServicos(listEquipas, listCatalogos, dadosServico)</text><!--MD5=[e3d99162b7328c3f1201e3bd1b8bcde6]
class EquipaRepository--><polygon fill="#F8F8F8" points="588.5,591,588.5,591.2102,598.2857,590.5857,608.0714,591.1933,617.8571,591.3997,627.6429,590.2866,637.4286,590.9223,647.2143,590.5735,657,590.6165,666.7857,590.9318,676.5714,590.3086,686.3571,591.5536,696.1429,590.3697,705.9286,590.8022,715.7143,591.4319,725.5,591,725.4142,591,725.5682,600.5346,725.4681,610.0692,725.6785,619.6038,725.7391,629.1384,726.0857,638.673,726.1711,648.2076,725.5,657.7422,725.5,658.4214,715.7143,657.9968,705.9286,658.2058,696.1429,658.4444,686.3571,657.021,676.5714,658.4207,666.7857,657.4457,657,658.276,647.2143,657.2472,637.4286,657.6737,627.6429,658.4838,617.8571,657.6935,608.0714,657.8475,598.2857,658.0808,588.5,657.7422,588.9162,657.7422,588.4961,648.2076,588.7872,638.673,587.9276,629.1384,588.7844,619.6038,589.0482,610.0692,588.9445,600.5346,588.5,591" style="stroke:#383838;stroke-width:1.5;"/><polygon fill="#C2C2C2" points="614.5608,612.6444,612.9484,614.8475,611.0412,618.0745,608.3136,620.2491,605.4474,621.4384,603.162,621.5416,600.2247,620.0543,597.4532,619.0827,595.3495,617.1099,594.2461,614.8515,593.5917,613.0533,592.9506,610.7045,591.91,608.6832,592.7096,606.7098,593.4102,604.548,596.0393,602.8382,597.889,600.6198,600.1784,599.8832,602.9001,599.2488,606.3904,599.6257,608.3021,600.5273,610.5247,600.9359,613.2272,603.7047,614.1693,606.6277,614.5786,608.6221,614.115,611.9086" style="stroke:#383838;stroke-width:1.0;"/><path d="M605.8438,605.6406 C604.9063,605.2031 604.3125,605.0625 603.4375,605.0625 C600.8125,605.0625 598.8125,607.1406 598.8125,609.8594 L598.8125,610.9844 C598.8125,613.5625 600.9219,615.4531 603.8125,615.4531 C605.0313,615.4531 606.1875,615.1563 606.9375,614.6094 C607.5156,614.2031 607.8438,613.75 607.8438,613.3594 C607.8438,612.9063 607.4531,612.5156 606.9844,612.5156 C606.7656,612.5156 606.5625,612.5938 606.375,612.7813 C605.9219,613.2656 605.9219,613.2656 605.7344,613.3594 C605.3125,613.625 604.625,613.75 603.8594,613.75 C601.8125,613.75 600.5156,612.6563 600.5156,610.9531 L600.5156,609.8594 C600.5156,608.0781 601.7656,606.7656 603.5,606.7656 C604.0781,606.7656 604.6875,606.9219 605.1563,607.1719 C605.6406,607.4531 605.8125,607.6719 605.9063,608.0781 C605.9688,608.4844 606,608.6094 606.1406,608.7344 C606.2813,608.875 606.5156,608.9844 606.7344,608.9844 C607,608.9844 607.2656,608.8438 607.4375,608.625 C607.5469,608.4688 607.5781,608.2813 607.5781,607.8594 L607.5781,606.4375 C607.5781,606 607.5625,605.875 607.4688,605.7188 C607.3125,605.4531 607.0313,605.3125 606.7344,605.3125 C606.4375,605.3125 606.2344,605.4063 606.0156,605.7188 L605.8438,605.6406 Z " fill="#000000"/><text fill="#000000" font-family="FG Virgil" font-size="12" font-style="italic" lengthAdjust="spacing" textLength="74" x="633" y="607.1387">«repository»</text><text fill="#000000" font-family="FG Virgil" font-size="12" lengthAdjust="spacing" textLength="105" x="617.5" y="621.1074">EquipaRepository</text><path d="M589.5,628.9375 L589.5,629.2177 L599.1429,628.3851 L608.7857,629.1952 L618.4286,629.4704 L628.0714,627.9863 L637.7143,628.8339 L647.3571,628.3688 L657,628.4262 L666.6429,628.8466 L676.2857,628.0157 L685.9286,629.6757 L695.5714,628.0971 L705.2143,628.6738 L714.8571,629.5134 L724.5,628.9375 " fill="#F8F8F8" style="stroke:#383838;stroke-width:1.5;"/><path d="M589.5,636.9375 L589.5,637.2177 L599.1429,636.3851 L608.7857,637.1952 L618.4286,637.4704 L628.0714,635.9863 L637.7143,636.8339 L647.3571,636.3688 L657,636.4262 L666.6429,636.8466 L676.2857,636.0157 L685.9286,637.6757 L695.5714,636.0971 L705.2143,636.6738 L714.8571,637.5134 L724.5,636.9375 " fill="#F8F8F8" style="stroke:#383838;stroke-width:1.5;"/><text fill="#000000" font-family="FG Virgil" font-size="11" lengthAdjust="spacing" textLength="113" x="594.5" y="651.1479">getEquipasDoUser()</text><!--MD5=[3c1e07c68c3c748cf2024506b62afe7d]
link ListCatalogoServicoUI to ListCatalogoServicoController--><path d="M427,61.215 L427.2802,61.215 L426.4476,72.0414 L427.2577,82.8678 L427.5329,93.6942 L426.0488,104.5206 L427,115.347 " fill="none" style="stroke:#383838;stroke-width:1.0;"/><polygon fill="#383838" points="427,120.774,427.064,120.8025,427.6738,118.9179,428.6589,117.2002,429.5217,115.4281,429.9827,113.4774,431,111.774,430.9817,111.7557,430.0995,112.4735,429.3096,113.2836,428.5839,114.1579,427.637,114.811,427,115.774,427.1305,115.9045,426.0514,114.8254,425.3534,114.1274,424.7018,113.4758,423.7798,112.5538,423,111.774,423.0208,111.7832,423.7903,113.5697,424.6544,115.3982,425.4728,117.2064,426.3784,119.0533,427,120.774" style="stroke:#383838;stroke-width:1.0;"/><!--MD5=[16030bbba96bdc8c006222a4fe210720]
link ListCatalogoServicoController to CatalogoRepository--><path d="M278.003,252.158 L278.0542,252.2361 L275.9638,253.2743 L274.1736,254.7704 L272.2856,256.1174 L270.0762,256.9739 L268.3117,258.5093 L268.2919,258.481 L266.2976,259.6878 L264.4031,261.0372 L262.5781,262.4858 L260.5138,263.5926 L258.7846,265.1781 L258.9323,265.3749 L256.7543,266.3518 L255.0076,267.9032 L253.3135,269.5248 L251.3133,270.7385 L249.4741,272.1668 L249.4931,272.1903 L247.6568,273.618 L245.9073,275.153 L244.1159,276.6361 L242.4044,278.2182 L240.4324,279.478 L240.6289,279.7024 L238.8871,281.2324 L237.0187,282.6177 L235.3358,284.2148 L233.6615,285.8219 L231.7118,287.1144 L231.4906,286.8825 L230.2506,288.9254 L228.282,290.2047 L226.8673,292.0645 L224.8823,293.3264 L223.3647,295.0784 L223.3427,295.0574 L222.0188,296.965 L220.1805,298.3812 L218.6457,300.0874 L217.1364,301.8179 L215.4433,303.3728 L215.5834,303.4936 L213.9533,305.0971 L212.5626,306.9071 L210.7847,308.3829 L209.5844,310.3571 L208,312 L208.1914,312.1507 L206.9199,313.6912 L205.7433,315.3066 L204.1252,316.5742 L202.8308,318.0967 L201.8231,319.845 L201.6003,319.6819 L200.617,321.4481 L199.3826,323.0305 L198.5124,324.8795 L197.0204,326.2733 L195.898,327.9377 L195.772,327.8517 L194.846,329.6589 L193.3817,331.0986 L192.3002,332.7996 L191.5933,334.7563 L190.2193,336.2577 L190.3826,336.3618 L189.4071,338.1387 L187.9238,339.5917 L187.0765,341.4503 L186.0907,343.2205 L184.782,344.7849 L184.6017,344.6773 L183.7052,346.5059 L182.7496,348.2992 L181.9101,350.1618 L180.6195,351.7552 L179.5809,353.499 L179.7603,353.5994 L178.3721,355.1549 L177.3302,356.9043 L176.7942,358.9367 L175.3268,360.448 L174.6108,362.3797 L174.8111,362.4849 L173.7433,364.2279 L172.6077,365.9352 L171.6251,367.7229 L170.996,369.6963 L169.8666,371.4069 L169.7474,371.348 L169.1978,373.3542 L167.837,374.9595 L167.3986,377.0206 L166.4408,378.8251 L165.3432,380.5604 L165.4419,380.6063 L164.5006,382.4211 L163.9128,384.4004 L163.0057,386.2311 L161.9651,387.9997 L161.0353,389.8198 L161.1445,389.8677 L160.1628,391.6656 L159.6879,393.6858 L158.6399,395.4546 L157.8276,397.3268 L156.9378,399.165 L156.688,399.0617 L155.993,400.9783 L155.5989,403.0195 L154.779,404.8845 L153.8065,406.6863 L153.0456,408.5758 L152.9123,408.5237 L152.2166,410.4316 L151.2847,412.2473 L151.0021,414.3164 L150.3981,416.2602 L149.3535,418.0318 L149.573,418.1128 L148.9439,420.0349 L147.8977,421.8033 L147.2916,423.7339 L146.3942,425.5571 L145.8564,427.513 L145.9756,427.5545 L145.2985,429.4463 L144.7653,431.3882 L143.7756,433.1709 L143.1541,435.0821 L142.549,436.9989 L142.7367,437.0592 L141.5759,440.8571 L139.9057,444.4916 L138.8274,448.316 L137.7594,452.1437 L136.483,455.9045 L136.2221,455.8296 L135.5602,459.6844 L134.4457,463.4091 L133.2187,467.1015 L132.2488,470.8678 L131.1143,474.5868 L131.4279,474.6676 L130.0371,478.2115 L129.3647,481.9405 L128.4096,485.5967 L127.3939,489.2372 L126.4015,492.8838 L126.4625,492.8979 L125.6311,496.4452 L124.492,499.9214 L123.7692,503.4938 L122.9233,507.0377 L122.3035,510.6338 L122.3313,510.6396 L121.637,514.05 L120.9641,517.4649 L120.0622,520.8323 L119.4546,524.2607 L118.7791,527.675 L118.7265,527.6653 L118.4327,530.9557 L117.7686,534.1777 L116.7715,537.338 L116.3534,540.6055 L115.7868,543.8455 L115.5337,543.8036 L115.413,546.8939 L115.0531,549.9447 L114.5249,552.9677 L113.5948,555.9242 L113.2856,558.9834 L113.4896,559.0134 L112.5486,561.724 L112.553,564.5738 L111.923,567.3302 L111.6869,570.1445 L111.234,572.9269 L111.34,572.9408 L111.1135,575.4716 L110.2596,577.9205 L110.4578,580.5067 L109.9981,583.0071 L109.591,585.5143 " fill="none" style="stroke:#383838;stroke-width:1.0;"/><polygon fill="#383838" points="108.974,590.6908,109.0342,590.7266,109.8627,588.9275,111.0441,587.3384,112.1106,585.6808,112.7991,583.7984,114.0108,582.2273,113.9948,582.207,113.0338,582.8153,112.1537,583.5263,111.3296,584.3086,110.3121,584.8451,109.5656,585.7259,109.7106,585.8401,108.7008,584.7069,108.1144,583.9071,107.5796,583.1479,106.7443,582.1521,106.067,581.2807,106.0887,581.2874,106.6382,583.1596,107.2867,585.0623,107.8874,586.9503,108.5791,588.8664,108.974,590.6908" style="stroke:#383838;stroke-width:1.0;"/><!--MD5=[bb79e93b990d00d412c2e666933258e8]
link ListCatalogoServicoController to ServicoRepository--><path d="M448.704,252.065 L448.794,252.09 L449.2863,254.7511 L450.3063,257.5587 L451.1545,260.3186 L451.4376,262.9215 L452.5029,265.7417 L452.4694,265.7331 L453.0754,268.6194 L453.8499,271.5493 L454.7416,274.5094 L455.2295,277.3652 L456.283,280.3672 L456.5224,280.4241 L456.7466,283.398 L457.6697,286.5382 L458.6781,289.6986 L459.1904,292.741 L459.9636,295.8454 L459.9932,295.8518 L460.6498,299.0895 L461.4413,302.3562 L462.1677,305.6089 L463.0183,308.8883 L463.4639,312.0805 L463.7568,312.1366 L464.4082,315.5165 L464.8707,318.8601 L465.6098,322.2568 L466.3618,325.656 L466.7031,328.9764 L466.3869,328.9239 L467.5801,332.5179 L467.7321,335.9391 L468.6756,339.4917 L468.804,342.909 L469.6005,346.4371 L469.5703,346.433 L470.4219,350.0681 L470.5689,353.606 L471.1317,357.2013 L471.7294,360.8014 L472.0752,364.3668 L472.2591,364.3866 L472.4677,368.0271 L472.9906,371.7015 L473.005,375.3211 L473.7779,379.0224 L474.0465,382.6694 L474.2895,382.6875 L474.5209,386.4 L474.873,390.1215 L474.6646,393.8011 L474.8671,397.5115 L475.4336,401.2489 L475.1576,401.2383 L475.5519,405.0001 L475.6352,408.7498 L476.1695,412.5169 L475.9337,416.2544 L476.1557,420.0095 L476.0032,420.0093 L476.2524,423.7788 L475.8499,427.5474 L475.9108,431.3166 L476.4252,435.0864 L476.132,438.8551 L476.3255,438.8639 L476.2881,442.6368 L475.6491,446.3826 L475.7636,450.1623 L475.714,453.9347 L475.2818,457.6898 L475.0728,457.6702 L474.8879,461.4314 L474.6346,465.1862 L474.5157,468.9536 L473.874,472.6719 L473.5243,476.4176 L473.7277,476.4478 L472.7317,480.0865 L472.1283,483.7835 L472.0984,487.5654 L471.0126,491.1909 L470.7787,494.9426 L471.0001,494.9889 L470.1057,498.6066 L469.1363,502.2086 L468.3361,505.846 L467.9267,509.5652 L466.9642,513.1687 L466.836,513.133 L466.2248,516.8055 L464.7418,520.2353 L464.25,523.9411 L463.2002,527.4915 L462,531 L462.1014,531.0396 L460.8509,534.0036 L459.9635,537.1094 L458.748,540.0872 L457.3953,543.0114 L456.1566,545.9801 L456.2622,546.0353 L454.5931,548.8473 L453.4146,551.9155 L451.6812,554.6939 L450.1761,557.5916 L448.596,560.45 L448.3678,560.305 L446.707,563.0875 L445.3212,566.0446 L443.5463,568.7546 L441.632,571.376 L439.9112,574.1203 L439.7957,574.0357 L437.9895,576.5791 L435.9787,578.9726 L434.5302,581.778 L432.8034,584.3796 L430.695,586.7016 " fill="none" style="stroke:#383838;stroke-width:1.0;"/><polygon fill="#383838" points="427.555,590.6681,427.5875,590.7301,429.2354,589.6311,431.0739,588.8957,432.8504,588.0419,434.4226,586.7986,436.2775,586.0944,436.2745,586.0687,435.1373,586.0839,434.0151,586.2288,432.9035,586.4639,431.7557,586.3883,430.6585,586.7478,430.8418,586.7692,430.3191,585.5998,430.3316,584.4926,430.4095,583.3931,430.1074,582.2494,430.0051,581.1289,430.0271,581.1345,429.5047,583.0341,429.0827,584.9594,428.6122,586.8722,428.2341,588.8088,427.555,590.6681" style="stroke:#383838;stroke-width:1.0;"/><!--MD5=[de834c536717f4e436af6491c18a772a]
link ListCatalogoServicoController to EquipaRepository--><path d="M462.719,252.304 L462.8011,252.3486 L465.7938,258.165 L469.2676,264.243 L472.5848,270.2358 L475.3868,275.9484 L478.9019,282.0489 L478.8715,282.0325 L481.9545,287.9494 L485.191,293.9486 L488.5341,300.0052 L491.5097,305.8643 L495,312 L495.6526,312.345 L498.7312,320.0721 L503.7152,328.8064 L508.9317,337.6636 L512.7955,345.8059 L517.4513,354.3667 L521.8073,362.7691 L526.5296,371.3651 L531.0752,379.8677 L535.2675,388.1835 L535.9598,388.5449 L540.4627,397.0311 L544.8745,405.4698 L548.7746,413.6414 L553.4237,422.2039 L558.1078,430.7847 L560.8274,438.3401 L566.8839,447.6372 L570.1335,455.4693 L574.886,464.0858 L575.5181,464.4129 L578.7251,472.3332 L583.6554,481.1454 L589.0399,490.1927 L592.5293,498.2592 L597.137,506.9044 L601.8385,515.5982 L606.3557,524.1965 L610.288,532.4923 L610.2834,532.4899 L615.2316,541.6167 L618.8153,550.0418 L624.4342,559.5137 L629.35,568.6239 L633.8301,577.5101 L637.906,586.1883 " fill="none" style="stroke:#383838;stroke-width:1.0;"/><polygon fill="#383838" points="640.192,590.6464,640.262,590.6503,639.9447,588.672,640.0375,586.7165,639.9968,584.7536,639.517,582.7663,639.645,580.8127,639.6204,580.8048,639.1628,581.846,638.8296,582.9273,638.5828,584.0364,638.0382,585.0496,637.9107,586.1972,637.9673,586.3728,636.7694,585.6503,635.7367,585.4407,634.7242,585.2936,633.5944,584.7825,632.5263,584.4628,632.5405,584.4806,634.0527,585.6913,635.6299,586.9826,637.1757,588.235,638.7814,589.5616,640.192,590.6464" style="stroke:#383838;stroke-width:1.0;"/><!--MD5=[fdd11377543d24b532c4c9b5ae8a70d6]
link ListCatalogoServicoController to PersistenceContext--><path d="M374.611,252.264 L374.8289,252.4402 L367.7939,259.813 L362.0362,268.2189 L355.8626,276.2884 L348.3212,283.2515 L342.5926,291.681 L335.8435,299.2849 L329.898,307.539 " fill="none" style="stroke:#383838;stroke-width:1.0;"/><polygon fill="#383838" points="326.568,311.656,326.5999,311.7184,328.2594,310.637,330.1057,309.9215,331.8912,309.0868,333.4767,307.8604,335.3391,307.1762,335.3363,307.1504,334.199,307.1534,333.0754,307.2863,331.9613,307.5095,330.8143,307.4215,329.7134,307.7693,329.8969,307.7886,329.3858,306.6221,329.4106,305.5121,329.5007,304.409,329.2105,303.2657,329.1203,302.1436,329.1423,302.1495,328.5996,304.0433,328.1569,305.964,327.6659,307.8717,327.267,309.8041,326.568,311.656" style="stroke:#383838;stroke-width:1.0;"/><!--MD5=[d303398dc9bcaa23a4dc2c39d8791ceb]
link ListCatalogoServicoController to RepositoryFactory--><path d="M415.434,252.202 L415.7099,252.2513 L413.0881,262.1861 L412.0836,272.4099 L410.5524,282.5396 L407.2894,292.3597 L406.3217,302.5902 L404.0619,312.5896 L402.3163,322.681 L400.9281,332.8362 L398.3081,342.7713 L398.1401,353.1447 L394.7841,362.9482 L393.5498,373.1309 L392.5742,383.36 L390.0926,393.3198 L388.4927,403.4372 L386.5592,413.4949 L385.0334,423.6256 L382.997,433.665 " fill="none" style="stroke:#383838;stroke-width:1.0;"/><polygon fill="#383838" points="382.094,438.722,382.152,438.7613,383.084,437.0135,384.356,435.496,385.5173,433.9034,386.3145,432.0644,387.6157,430.5666,387.6009,430.5453,386.6061,431.0966,385.686,431.7551,384.8178,432.488,383.7707,432.9643,382.9741,433.8001,383.1255,433.9056,382.155,432.7517,381.6266,431.9057,381.1521,431.0974,380.3638,430.0704,379.7406,429.1584,379.7627,429.1639,380.201,431.0686,380.7398,432.9981,381.23,434.9156,381.8129,436.8559,382.094,438.722" style="stroke:#383838;stroke-width:1.0;"/><!--MD5=[754b775031405e096442b27febffa290]
link PersistenceContext to RepositoryFactory--><path d="M317.537,379.086 L317.7838,379.2188 L322.0012,388.023 L327.6653,397.6058 L332.8583,406.935 L336.5021,415.4306 L342.1991,425.0311 L347.241,434.279 " fill="none" style="stroke:#383838;stroke-width:1.0;"/><polygon fill="#383838" points="349.73,438.904,349.7999,438.9093,349.4436,436.9294,349.4968,434.9806,349.4166,433.0216,348.8979,431.0295,348.9863,429.0833,348.9615,429.0758,348.5249,430.126,348.2134,431.2137,347.9888,432.3276,347.4646,433.3515,347.3601,434.5013,347.4132,434.6781,346.2161,433.9749,345.1739,433.7877,344.1507,433.6635,343.0174,433.173,341.942,432.8751,341.956,432.8931,343.4931,434.0725,345.0936,435.3337,346.6636,436.5555,348.2919,437.8526,349.73,438.904" style="stroke:#383838;stroke-width:1.0;"/><!--MD5=[1c7e7a1fe085f3cc90df717ea11f1cec]
link RepositoryFactory to CatalogoRepository--><path d="M302.885,522.486 L303.0129,522.7353 L293.4558,526.7029 L284.6485,532.1321 L275.597,537.0853 L265.7425,540.4733 L256.9523,545.9358 L247.563,550.2304 L238.4121,554.9899 L229.4269,560.0723 L219.8706,564.0414 L211.4513,570.2268 L201.5536,573.5307 L192.6398,578.7522 L183.846,584.2076 L174.406,588.4036 " fill="none" style="stroke:#383838;stroke-width:1.0;"/><polygon fill="#383838" points="169.66,590.8388,169.6639,590.9088,171.619,590.5909,173.597,590.6831,175.5675,590.6417,177.5135,590.1613,179.4935,590.2887,179.4855,590.264,178.3729,589.8068,177.3003,589.4739,176.2555,589.2275,175.1149,588.6832,174.1085,588.5561,174.2842,588.6126,174.255,587.4147,174.7388,586.3819,175.2851,585.3692,175.4674,584.2393,175.8411,583.1711,175.8588,583.1853,174.5966,584.6979,173.415,586.2755,172.1945,587.8217,171.0482,589.4278,169.66,590.8388" style="stroke:#383838;stroke-width:1.0;"/><!--MD5=[4c2782ef650e763910e10e8b58df1401]
link RepositoryFactory to ServicoRepository--><path d="M381.531,531.023 L381.8074,531.0692 L382.5038,540.0045 L384.8205,549.2108 L386.6096,558.3289 L386.6635,567.1567 L389.0171,576.3692 L390.637,585.4589 " fill="none" style="stroke:#383838;stroke-width:1.0;"/><polygon fill="#383838" points="391.495,590.5872,391.5628,590.6047,391.8533,588.6454,392.5415,586.7886,393.1001,584.8985,393.2329,582.8985,393.9552,581.0506,393.9341,581.0355,393.1824,581.889,392.537,582.8184,391.9656,583.8005,391.1394,584.6009,390.67,585.6557,390.7772,585.806,389.6269,584.8277,388.7896,584.288,387.9905,583.8018,386.9692,583.0043,386.0648,582.3706,386.0838,582.3831,387.142,584.008,388.2865,585.69,389.3894,587.3445,390.5718,589.0515,391.495,590.5872" style="stroke:#383838;stroke-width:1.0;"/><!--MD5=[2778d99b3c12bc11ad4233191bb1c898]
link RepositoryFactory to EquipaRepository--><path d="M445.048,520.52 L445.1705,520.7721 L453.5643,524.2782 L462.6761,529.2619 L471.5541,533.7645 L479.6633,536.6847 L488.7915,541.7021 L497.346,545.5389 L506.1288,549.8456 L515.0703,554.4788 L523.4649,557.9865 L532.9481,563.7347 L541.016,566.5699 L550.0258,571.3436 L559.1504,576.3539 L567.6065,579.9881 L576.454,584.4279 L585.172,588.6011 " fill="none" style="stroke:#383838;stroke-width:1.0;"/><polygon fill="#383838" points="589.82,590.8596,589.8736,590.9047,588.4452,589.2643,587.3308,587.8884,586.1142,586.4264,584.5612,584.681,583.4738,583.3279,583.4493,583.3195,583.7093,584.3507,584.0927,585.4246,584.5618,586.5282,584.7354,587.5295,585.323,588.674,585.3833,588.8484,584.1851,588.8453,583.163,589.3514,582.1624,589.9196,581.0368,590.1263,579.9769,590.5232,579.9777,590.5459,581.9451,590.5798,583.9162,590.7172,585.8855,590.8047,587.858,590.9874,589.82,590.8596" style="stroke:#383838;stroke-width:1.0;"/><!--MD5=[cd838857683f255e866233001648db0e]
@startuml
'http://plantuml.com/skinparam.html
skinparam handwritten true
skinparam monochrome true
skinparam packageStyle rect
skinparam defaultFontName FG Virgil
skinparam shadowing false

class ListCatalogoServicoUI <<presentation>>
class ListCatalogoServicoController <<application>>
class PersistenceContext <<persistence>>
class RepositoryFactory <<factory>>
class CatalogoRepository <<repository>>
class ServicoRepository <<repository>>
class EquipaRepository <<repository>>


ListCatalogoServicoUI - -> ListCatalogoServicoController
ListCatalogoServicoController : listCatalogo()
ListCatalogoServicoController : listServico()
ListCatalogoServicoController : listEquipas()

ListCatalogoServicoController : findCatalogos(listEquipas, dados)
ListCatalogoServicoController : getEquipasDoUser()
ListCatalogoServicoController : findServicos(listEquipas, listCatalogos, dadosServico)

ListCatalogoServicoController - -> CatalogoRepository
ListCatalogoServicoController - -> ServicoRepository
ListCatalogoServicoController - -> EquipaRepository
ListCatalogoServicoController - -> PersistenceContext
PersistenceContext : repositories()
ListCatalogoServicoController - -> RepositoryFactory
RepositoryFactory : catalogos()
RepositoryFactory : servicos()
RepositoryFactory : equipas()

PersistenceContext - -> RepositoryFactory
RepositoryFactory - -> CatalogoRepository
RepositoryFactory - -> ServicoRepository
RepositoryFactory - -> EquipaRepository

EquipaRepository : getEquipasDoUser()

CatalogoRepository : findCatalogos(listEquipas, dados)

ServicoRepository : findServicos(listEquipas, listCatalogos, dadosServico)
@enduml

@startuml
skinparam handwritten true
skinparam monochrome true
skinparam packageStyle rect
skinparam defaultFontName FG Virgil
skinparam shadowing false

class ListCatalogoServicoUI <<presentation>>
class ListCatalogoServicoController <<application>>
class PersistenceContext <<persistence>>
class RepositoryFactory <<factory>>
class CatalogoRepository <<repository>>
class ServicoRepository <<repository>>
class EquipaRepository <<repository>>


ListCatalogoServicoUI - -> ListCatalogoServicoController
ListCatalogoServicoController : listCatalogo()
ListCatalogoServicoController : listServico()
ListCatalogoServicoController : listEquipas()

ListCatalogoServicoController : findCatalogos(listEquipas, dados)
ListCatalogoServicoController : getEquipasDoUser()
ListCatalogoServicoController : findServicos(listEquipas, listCatalogos, dadosServico)

ListCatalogoServicoController - -> CatalogoRepository
ListCatalogoServicoController - -> ServicoRepository
ListCatalogoServicoController - -> EquipaRepository
ListCatalogoServicoController - -> PersistenceContext
PersistenceContext : repositories()
ListCatalogoServicoController - -> RepositoryFactory
RepositoryFactory : catalogos()
RepositoryFactory : servicos()
RepositoryFactory : equipas()

PersistenceContext - -> RepositoryFactory
RepositoryFactory - -> CatalogoRepository
RepositoryFactory - -> ServicoRepository
RepositoryFactory - -> EquipaRepository

EquipaRepository : getEquipasDoUser()

CatalogoRepository : findCatalogos(listEquipas, dados)

ServicoRepository : findServicos(listEquipas, listCatalogos, dadosServico)
@enduml

PlantUML version 1.2021.6beta6(Unknown compile time)
(GPL source distribution)
Java Runtime: Java(TM) SE Runtime Environment
JVM: Java HotSpot(TM) 64-Bit Server VM
Default Encoding: UTF-8
Language: en
Country: US
--></g></svg>