<?xml version="1.0" encoding="UTF-8" standalone="no"?><svg xmlns="http://www.w3.org/2000/svg" xmlns:xlink="http://www.w3.org/1999/xlink" contentScriptType="application/ecmascript" contentStyleType="text/css" height="869px" preserveAspectRatio="none" style="width:1481px;height:869px;" version="1.1" viewBox="0 0 1481 869" width="1481px" zoomAndPan="magnify"><defs/><g><text fill="#000000" font-family="FG Virgil" font-size="18" lengthAdjust="spacing" textLength="558" x="463.5" y="28.708">SD-Consultar os catálogos de serviços e respetivos serviços</text><polygon fill="#FFFFFF" points="37,129.25,37,129.3201,39,129.1119,41,129.3144,43,129.3832,45,129.0122,47,129.25,46.9223,129.25,46.5735,139.2207,46.6165,149.1914,46.9318,159.1621,46.3086,169.1328,47.5536,179.1035,46.3697,189.0742,46.8022,199.0449,47.4319,209.0156,46.9142,218.9863,47.0682,228.957,46.9681,238.9277,47.1785,248.8984,47.2391,258.8691,47.5857,268.8398,47.6711,278.8105,47.6793,288.7813,47.2546,298.752,47.4636,308.7227,47.7022,318.6934,46.2788,328.6641,47.6785,338.6348,46.7035,348.6055,47.5338,358.5762,46.505,368.5469,46.9315,378.5176,47.7416,388.4883,46.9513,398.459,47.1053,408.4297,47.3386,418.4004,47.4162,428.3711,46.9961,438.3418,47.2872,448.3125,46.4276,458.2832,47.2844,468.2539,47.5482,478.2246,47.4445,488.1953,47.613,498.166,46.5169,508.1367,46.3478,518.1074,46.3786,528.0781,46.9411,538.0488,46.8035,548.0195,47.6814,557.9902,46.8253,567.9609,46.6569,577.9316,47.2283,587.9023,46.3332,597.873,46.4809,607.8438,47.649,617.8145,47.4357,627.7852,47.7345,637.7559,46.6782,647.7266,47.3192,657.6973,47.5904,667.668,46.5276,677.6387,46.9041,687.6094,47.126,697.5801,47.6518,707.5508,46.9958,717.5215,47.4626,727.4922,46.4462,737.4629,46.3227,747.4336,47.5036,757.4043,47,767.375,47,767.136,45,767.5447,43,767.4439,41,767.2857,39,767.2571,37,767.375,37.4588,767.375,36.7007,757.4043,37.5919,747.4336,36.4473,737.4629,37.6174,727.4922,37.4843,717.5215,37.245,707.5508,37.0472,697.5801,37.7266,687.6094,37.6136,677.6387,37.1693,667.668,37.2682,657.6973,36.8697,647.7266,37.7165,637.7559,37.1549,627.7852,37.1726,617.8145,36.3916,607.8438,36.5948,597.873,37.5307,587.9023,37.4298,577.9316,36.9571,567.9609,36.6778,557.9902,36.7811,548.0195,36.3138,538.0488,37.4147,528.0781,37.7396,518.1074,37.5264,508.1367,37.6949,498.166,36.8633,488.1953,37.0872,478.2246,36.6124,468.2539,37.284,458.2832,37.2468,448.3125,37.5524,438.3418,36.7703,428.3711,36.8656,418.4004,37.4435,408.4297,37.5673,398.459,36.4875,388.4883,36.8061,378.5176,37.1493,368.5469,36.3892,358.5762,37.3534,348.6055,37.258,338.6348,36.8992,328.6641,37.1422,318.6934,37.7287,308.7227,36.6871,298.752,37.315,288.7813,37.2856,278.8105,37.1158,268.8398,37.1409,258.8691,37.1135,248.8984,36.3758,238.9277,36.5992,228.957,36.5385,218.9863,37.0638,209.0156,37.0881,199.0449,37.1617,189.0742,36.709,179.1035,36.9325,169.1328,36.8798,159.1621,37.5769,149.1914,37.4266,139.2207,37,129.25" style="stroke:#383838;stroke-width:1.0;"/><polygon fill="#FFFFFF" points="489,150.3828,489,150.4529,491,150.2447,493,150.4472,495,150.516,497,150.145,499,150.3828,498.9223,150.3828,498.5735,160.416,498.6165,170.4492,498.9318,180.4824,498.3086,190.5156,499.5536,200.5488,498.3697,210.582,498.8022,220.6152,499.4319,230.6484,498.9142,240.6816,499.0682,250.7148,498.9681,260.748,499.1785,270.7813,499.2391,280.8145,499.5857,290.8477,499.6711,300.8809,499.6793,310.9141,499.2546,320.9473,499.4636,330.9805,499.7022,341.0137,498.2788,351.0469,499.6785,361.0801,498.7035,371.1133,499.5338,381.1465,498.505,391.1797,498.9315,401.2129,499.7416,411.2461,498.9513,421.2793,499.1053,431.3125,499.3386,441.3457,499.4162,451.3789,498.9961,461.4121,499,471.4453,499,471.5411,497,471.2545,495,471.5401,493,471.628,491,471.5935,489,471.4453,489.613,471.4453,488.5169,461.4121,488.3478,451.3789,488.3786,441.3457,488.9411,431.3125,488.8035,421.2793,489.6814,411.2461,488.8253,401.2129,488.6569,391.1797,489.2283,381.1465,488.3332,371.1133,488.4809,361.0801,489.649,351.0469,489.4357,341.0137,489.7345,330.9805,488.6782,320.9473,489.3192,310.9141,489.5904,300.8809,488.5276,290.8477,488.9041,280.8145,489.126,270.7813,489.6518,260.748,488.9958,250.7148,489.4626,240.6816,488.4462,230.6484,488.3227,220.6152,489.5036,210.582,488.2831,200.5488,489.509,190.5156,489.2066,180.4824,488.7321,170.4492,488.6462,160.416,489,150.3828" style="stroke:#383838;stroke-width:1.0;"/><polygon fill="#FFFFFF" points="489,500.5781,489,500.6482,491,500.44,493,500.6426,495,500.7114,497,500.3403,499,500.5781,498.9223,500.5781,498.5735,510.4595,498.6165,520.3409,498.9318,530.2222,498.3086,540.1036,499.5536,549.985,498.3697,559.8663,498.8022,569.7477,499.4319,579.6291,498.9142,589.5104,499.0682,599.3918,498.9681,609.2731,499.1785,619.1545,499.2391,629.0359,499.5857,638.9172,499.6711,648.7986,499.6793,658.68,499.2546,668.5613,499.4636,678.4427,499.7022,688.3241,498.2788,698.2054,499.6785,708.0868,498.7035,717.9682,499.5338,727.8495,498.505,737.7309,498.9315,747.6123,499.7416,757.4936,499,767.375,499,767.3588,497,767.4101,495,767.4879,493,767.5137,491,767.3737,489,767.375,489.2872,767.375,488.4276,757.4936,489.2844,747.6123,489.5482,737.7309,489.4445,727.8495,489.613,717.9682,488.5169,708.0868,488.3478,698.2054,488.3786,688.3241,488.9411,678.4427,488.8035,668.5613,489.6814,658.68,488.8253,648.7986,488.6569,638.9172,489.2283,629.0359,488.3332,619.1545,488.4809,609.2731,489.649,599.3918,489.4357,589.5104,489.7345,579.6291,488.6782,569.7477,489.3192,559.8663,489.5904,549.985,488.5276,540.1036,488.9041,530.2222,489.126,520.3409,489.6518,510.4595,489,500.5781" style="stroke:#383838;stroke-width:1.0;"/><polygon fill="#FFFFFF" points="718,179.5156,718,179.5857,720,179.3775,722,179.5801,724,179.6489,726,179.2778,728,179.5156,727.9223,179.5156,727.5735,189.6232,727.6165,199.7308,727.9318,209.8383,727.3086,219.9459,728.5536,230.0535,727.3697,240.1611,727.8022,250.2686,728.4319,260.3762,727.9142,270.4838,728.0682,280.5913,727.9681,290.6989,728.1785,300.8065,728.2391,310.9141,728.5857,321.0216,728.6711,331.1292,728.6793,341.2368,728.2546,351.3444,728.4636,361.4519,728.7022,371.5595,727.2788,381.6671,728.6785,391.7746,727.7035,401.8822,728.5338,411.9898,727.505,422.0974,727.9315,432.2049,728,442.3125,728,442.5597,726,442.2963,724,442.3476,722,442.4254,720,442.4512,718,442.3125,717.9961,442.3125,718.2872,432.2049,717.4276,422.0974,718.2844,411.9898,718.5482,401.8822,718.4445,391.7746,718.613,381.6671,717.5169,371.5595,717.3478,361.4519,717.3786,351.3444,717.9411,341.2368,717.8035,331.1292,718.6814,321.0216,717.8253,310.9141,717.6569,300.8065,718.2283,290.6989,717.3332,280.5913,717.4809,270.4838,718.649,260.3762,718.4357,250.2686,718.7345,240.1611,717.6782,230.0535,718.3192,219.9459,718.5904,209.8383,717.5276,199.7308,717.9041,189.6232,718,179.5156" style="stroke:#383838;stroke-width:1.0;"/><polygon fill="#FFFFFF" points="718,529.7109,718,529.781,720,529.5728,722,529.7754,724,529.8442,726,529.4731,728,529.7109,727.9223,529.7109,727.5735,539.5533,727.6165,549.3956,727.9318,559.2379,727.3086,569.0803,728.5536,578.9226,727.3697,588.7649,727.8022,598.6072,728.4319,608.4496,727.9142,618.2919,728.0682,628.1342,727.9681,637.9766,728.1785,647.8189,728.2391,657.6612,728.5857,667.5036,728.6711,677.3459,728.6793,687.1882,728.2546,697.0305,728.4636,706.8729,728.7022,716.7152,727.2788,726.5575,728.6785,736.3999,728,746.2422,728,746.1434,726,746.4201,724,746.0772,722,746.2194,720,746.4894,718,746.2422,717.9513,746.2422,718.1053,736.3999,718.3386,726.5575,718.4162,716.7152,717.9961,706.8729,718.2872,697.0305,717.4276,687.1882,718.2844,677.3459,718.5482,667.5036,718.4445,657.6612,718.613,647.8189,717.5169,637.9766,717.3478,628.1342,717.3786,618.2919,717.9411,608.4496,717.8035,598.6072,718.6814,588.7649,717.8253,578.9226,717.6569,569.0803,718.2283,559.2379,717.3332,549.3956,717.4809,539.5533,718,529.7109" style="stroke:#383838;stroke-width:1.0;"/><polygon fill="#FFFFFF" points="917.5,208.6484,917.5,208.7185,919.5,208.5103,921.5,208.7129,923.5,208.7817,925.5,208.4106,927.5,208.6484,927.4223,208.6484,927.0735,218.1706,927.1165,227.6927,927.4318,237.2148,926.8086,246.737,928.0536,256.2591,927.5,265.7813,927.5,265.5712,925.5,265.7153,923.5,265.9252,921.5,265.7527,919.5,265.804,917.5,265.7813,917.4681,265.7813,917.6785,256.2591,917.7391,246.737,918.0857,237.2148,918.1711,227.6927,918.1793,218.1706,917.5,208.6484" style="stroke:#383838;stroke-width:1.0;"/><polygon fill="#FFFFFF" points="1079.5,237.7813,1079.5,237.8513,1081.5,237.6431,1083.5,237.8457,1085.5,237.9145,1087.5,237.5435,1089.5,237.7813,1089.4741,237.7813,1089.3578,240.5813,1089.3722,243.3813,1089.4773,246.1813,1089.2695,248.9813,1089.5,251.7813,1089.5,251.9658,1087.5,251.5712,1085.5,251.7153,1083.5,251.9252,1081.5,251.7527,1079.5,251.7813,1079.5227,251.7813,1079.4894,248.9813,1079.5595,246.1813,1079.5797,243.3813,1079.6952,240.5813,1079.5,237.7813" style="stroke:#383838;stroke-width:1.0;"/><polygon fill="#FFFFFF" points="1079.5,294.9141,1079.5,294.9841,1081.5,294.776,1083.5,294.9785,1085.5,295.0473,1087.5,294.6763,1089.5,294.9141,1089.4223,294.9141,1089.0735,304.7695,1089.1165,314.625,1089.4318,324.4805,1088.8086,334.3359,1090.0536,344.1914,1089.5,354.0469,1089.5,353.8368,1087.5,353.981,1085.5,354.1909,1083.5,354.0183,1081.5,354.0696,1079.5,354.0469,1079.4681,354.0469,1079.6785,344.1914,1079.7391,334.3359,1080.0857,324.4805,1080.1711,314.625,1080.1793,304.7695,1079.5,294.9141" style="stroke:#383838;stroke-width:1.0;"/><polygon fill="#FFFFFF" points="1079.5,383.1797,1079.5,383.2497,1081.5,383.0416,1083.5,383.2441,1085.5,383.3129,1087.5,382.9419,1089.5,383.1797,1089.4223,383.1797,1089.0735,393.0352,1089.1165,402.8906,1089.4318,412.7461,1088.8086,422.6016,1090.0536,432.457,1089.5,442.3125,1089.5,442.1024,1087.5,442.2466,1085.5,442.4565,1083.5,442.2839,1081.5,442.3352,1079.5,442.3125,1079.4681,442.3125,1079.6785,432.457,1079.7391,422.6016,1080.0857,412.7461,1080.1711,402.8906,1080.1793,393.0352,1079.5,383.1797" style="stroke:#383838;stroke-width:1.0;"/><polygon fill="#FFFFFF" points="1237.5,324.0469,1237.5,324.1169,1239.5,323.9088,1241.5,324.1113,1243.5,324.1801,1245.5,323.8091,1247.5,324.0469,1247.4741,324.0469,1247.3578,330.0469,1247.3722,336.0469,1247.4773,342.0469,1247.2695,348.0469,1247.5,354.0469,1247.5,354.2314,1245.5,353.8368,1243.5,353.981,1241.5,354.1909,1239.5,354.0183,1237.5,354.0469,1237.5227,354.0469,1237.4894,348.0469,1237.5595,342.0469,1237.5797,336.0469,1237.6952,330.0469,1237.5,324.0469" style="stroke:#383838;stroke-width:1.0;"/><polygon fill="#FFFFFF" points="1237.5,558.8438,1237.5,558.9138,1239.5,558.7056,1241.5,558.9082,1243.5,558.977,1245.5,558.606,1247.5,558.8438,1247.4741,558.8438,1247.3578,564.8438,1247.3722,570.8438,1247.4773,576.8438,1247.2695,582.8438,1247.5,588.8438,1247.5,589.0283,1245.5,588.6337,1243.5,588.7778,1241.5,588.9877,1239.5,588.8152,1237.5,588.8438,1237.5227,588.8438,1237.4894,582.8438,1237.5595,576.8438,1237.5797,570.8438,1237.6952,564.8438,1237.5,558.8438" style="stroke:#383838;stroke-width:1.0;"/><polygon fill="#FFFFFF" points="1237.5,642.1094,1237.5,642.1794,1239.5,641.9713,1241.5,642.1738,1243.5,642.2426,1245.5,641.8716,1247.5,642.1094,1247.4741,642.1094,1247.3578,648.1094,1247.3722,654.1094,1247.4773,660.1094,1247.2695,666.1094,1247.5,672.1094,1247.5,672.2939,1245.5,671.8993,1243.5,672.0435,1241.5,672.2534,1239.5,672.0808,1237.5,672.1094,1237.5227,672.1094,1237.4894,666.1094,1237.5595,660.1094,1237.5797,654.1094,1237.6952,648.1094,1237.5,642.1094" style="stroke:#383838;stroke-width:1.0;"/><polygon fill="#FFFFFF" points="1391,412.3125,1391,412.3826,1393,412.1744,1395,412.3769,1397,412.4457,1399,412.0747,1401,412.3125,1400.9741,412.3125,1400.8578,418.3125,1400.8722,424.3125,1400.9773,430.3125,1400.7695,436.3125,1401,442.3125,1401,442.497,1399,442.1024,1397,442.2466,1395,442.4565,1393,442.2839,1391,442.3125,1391.0227,442.3125,1390.9894,436.3125,1391.0595,430.3125,1391.0797,424.3125,1391.1952,418.3125,1391,412.3125" style="stroke:#383838;stroke-width:1.0;"/><polygon fill="#FFFFFF" points="1391,701.2422,1391,701.3122,1393,701.1041,1395,701.3066,1397,701.3754,1399,701.0044,1401,701.2422,1400.9741,701.2422,1400.8578,707.2422,1400.8722,713.2422,1400.9773,719.2422,1400.7695,725.2422,1401,731.2422,1401,731.4267,1399,731.0321,1397,731.1763,1395,731.3862,1393,731.2136,1391,731.2422,1391.0227,731.2422,1390.9894,725.2422,1391.0595,719.2422,1391.0797,713.2422,1391.1952,707.2422,1391,701.2422" style="stroke:#383838;stroke-width:1.0;"/><polygon fill="#FFFFFF" points="602,603.8438,602,604.0539,612.0345,603.4294,622.069,604.037,632.1034,604.2434,642.1379,603.1304,652.1724,603.766,662.2069,603.4173,672.2414,603.4603,682.2759,603.7756,692.3103,603.1524,702.3448,604.3974,712.3793,603.2135,722.4138,603.646,732.4483,604.2757,742.4828,603.758,752.5172,603.912,762.5517,603.8118,772.5862,604.0223,782.6207,604.0829,792.6552,604.4294,802.6897,604.5148,812.7241,604.523,822.7586,604.0984,832.7931,604.3073,842.8276,604.546,852.8621,603.1226,862.8966,604.5223,872.931,603.5472,882.9655,604.3776,893,603.3487,903.0345,603.7753,913.069,604.5854,923.1034,603.795,933.1379,603.9491,943.1724,604.1824,953.2069,604.26,963.2414,603.8398,973.2759,604.131,983.3103,603.2713,993.3448,604.1281,1003.3793,604.3919,1013.4138,604.2883,1023.4483,604.4568,1033.4828,603.3607,1043.5172,603.1916,1053.5517,603.2223,1063.5862,603.7849,1073.6207,603.6472,1083.6552,604.5252,1093.6897,603.6691,1103.7241,603.5007,1113.7586,604.072,1123.7931,603.1769,1133.8276,603.3246,1143.8621,604.4927,1153.8966,604.2794,1163.931,604.5782,1173.9655,603.522,1184,604.1629,1194.0345,604.4342,1204.069,603.3713,1214.1034,603.7479,1224.1379,603.9697,1234.1724,604.4955,1244.2069,603.8396,1254.2414,604.3063,1264.2759,603.29,1274.3103,603.1665,1284.3448,604.3474,1294.3793,603.1268,1304.4138,604.3527,1314.4483,604.0504,1324.4828,603.5758,1334.5172,603.49,1344.5517,604.3025,1354.5862,603.5444,1364.6207,604.4356,1374.6552,603.291,1384.6897,604.4612,1394.7241,604.3281,1404.7586,604.0887,1414.7931,603.891,1424.8276,604.5704,1434.8621,604.4573,1444.8966,604.013,1454.931,604.1119,1464.9655,603.7135,1475,603.8438,1475.7165,603.8438,1475.1549,613.5151,1475.1726,623.1864,1474.3916,632.8577,1474.5948,642.529,1475.5307,652.2003,1475.4298,661.8717,1474.9571,671.543,1474.6778,681.2143,1474.7811,690.8856,1474.3138,700.5569,1475.4147,710.2282,1475.7396,719.8996,1475.5264,729.5709,1475,739.2422,1475,739.9371,1464.9655,739.1055,1454.931,739.3294,1444.8966,738.8546,1434.8621,739.5262,1424.8276,739.489,1414.7931,739.7946,1404.7586,739.0125,1394.7241,739.1078,1384.6897,739.6856,1374.6552,739.8095,1364.6207,738.7297,1354.5862,739.0483,1344.5517,739.3915,1334.5172,738.6313,1324.4828,739.5956,1314.4483,739.5002,1304.4138,739.1414,1294.3793,739.3844,1284.3448,739.9709,1274.3103,738.9293,1264.2759,739.5572,1254.2414,739.5278,1244.2069,739.358,1234.1724,739.3831,1224.1379,739.3557,1214.1034,738.618,1204.069,738.8414,1194.0345,738.7807,1184,739.306,1173.9655,739.3303,1163.931,739.4039,1153.8966,738.9512,1143.8621,739.1747,1133.8276,739.122,1123.7931,739.819,1113.7586,739.6688,1103.7241,738.7567,1093.6897,739.1693,1083.6552,738.665,1073.6207,739.5306,1063.5862,739.8507,1053.5517,739.7868,1043.5172,738.8066,1033.4828,739.7062,1023.4483,738.4994,1013.4138,739.4423,1003.3793,738.9429,993.3448,739.3389,983.3103,739.4825,973.2759,739.7143,963.2414,738.5223,953.2069,739.7177,943.1724,739.4204,933.1379,739.5975,923.1034,739.99,913.069,739.2477,903.0345,739.4175,893,739.4556,882.9655,739.4394,872.931,739.2414,862.8966,739.9529,852.8621,738.6324,842.8276,739.8075,832.7931,738.6182,822.7586,738.7019,812.7241,739.2822,802.6897,739.2705,792.6552,738.7494,782.6207,739.6559,772.5862,739.351,762.5517,739.9688,752.5172,739.9093,742.4828,738.7939,732.4483,738.8443,722.4138,739.113,712.3793,739.5977,702.3448,739.6452,692.3103,739.5433,682.2759,738.9002,672.2414,739.8785,662.2069,739.876,652.1724,739.1949,642.1379,739.0031,632.1034,738.8408,622.069,739.0276,612.0345,739.3796,602,739.2422,601.9316,739.2422,601.5822,729.5709,602.4874,719.8996,601.5411,710.2282,602.5024,700.5569,602.4272,690.8856,602.3719,681.2143,602.6925,671.543,601.7541,661.8717,601.6994,652.2003,602.5189,642.529,601.4031,632.8577,601.766,623.1864,602.1155,613.5151,602,603.8438" style="stroke:#000000;stroke-width:2.0;"/><path d="M42,119.25 L42.2802,119.25 L41.4476,129.1922 L42.2577,139.1343 L42.5329,149.0765 L41.0488,159.0187 L41.8964,168.9608 L41.4313,178.903 L41.4887,188.8451 L41.9091,198.7873 L41.0782,208.7295 L42.7382,218.6716 L41.1596,228.6138 L41.7363,238.556 L42.5759,248.4981 L41.8856,258.4403 L42.091,268.3825 L41.9574,278.3246 L42.238,288.2668 L42.3188,298.209 L42.7809,308.1511 L42.8947,318.0933 L42.9057,328.0354 L42.3395,337.9776 L42.6181,347.9198 L42.9363,357.8619 L41.0384,367.8041 L42.9047,377.7463 L41.6047,387.6884 L42.7117,397.6306 L41.34,407.5728 L41.9087,417.5149 L42.9888,427.4571 L41.935,437.3993 L42.1404,447.3414 L42.4515,457.2836 L42.555,467.2257 L41.9948,477.1679 L42.383,487.1101 L41.2368,497.0522 L42.3792,506.9944 L42.7309,516.9366 L42.5927,526.8787 L42.8174,536.8209 L41.3559,546.7631 L41.1304,556.7052 L41.1715,566.6474 L41.9215,576.5896 L41.738,586.5317 L42.9085,596.4739 L41.7671,606.416 L41.5426,616.3582 L42.3044,626.3004 L41.1109,636.2425 L41.3078,646.1847 L42.8653,656.1269 L42.5809,666.069 L42.9793,676.0112 L41.5709,685.9534 L42.4256,695.8955 L42.7872,705.8377 L41.3701,715.7799 L41.8722,725.722 L42.168,735.6642 L42.869,745.6063 L41.9944,755.5485 L42.6168,765.4907 L41.2616,775.4328 L42,785.375 " fill="none" style="stroke:#383838;stroke-width:1.0;stroke-dasharray:5.0,5.0;"/><path d="M494,119.25 L494.2802,119.25 L493.4476,129.1922 L494.2577,139.1343 L494.5329,149.0765 L493.0488,159.0187 L493.8964,168.9608 L493.4313,178.903 L493.4887,188.8451 L493.9091,198.7873 L493.0782,208.7295 L494.7382,218.6716 L493.1596,228.6138 L493.7363,238.556 L494.5759,248.4981 L493.8856,258.4403 L494.091,268.3825 L493.9574,278.3246 L494.238,288.2668 L494.3188,298.209 L494.7809,308.1511 L494.8947,318.0933 L494.9057,328.0354 L494.3395,337.9776 L494.6181,347.9198 L494.9363,357.8619 L493.0384,367.8041 L494.9047,377.7463 L493.6047,387.6884 L494.7117,397.6306 L493.34,407.5728 L493.9087,417.5149 L494.9888,427.4571 L493.935,437.3993 L494.1404,447.3414 L494.4515,457.2836 L494.555,467.2257 L493.9948,477.1679 L494.383,487.1101 L493.2368,497.0522 L494.3792,506.9944 L494.7309,516.9366 L494.5927,526.8787 L494.8174,536.8209 L493.3559,546.7631 L493.1304,556.7052 L493.1715,566.6474 L493.9215,576.5896 L493.738,586.5317 L494.9085,596.4739 L493.7671,606.416 L493.5426,616.3582 L494.3044,626.3004 L493.1109,636.2425 L493.3078,646.1847 L494.8653,656.1269 L494.5809,666.069 L494.9793,676.0112 L493.5709,685.9534 L494.4256,695.8955 L494.7872,705.8377 L493.3701,715.7799 L493.8722,725.722 L494.168,735.6642 L494.869,745.6063 L493.9944,755.5485 L494.6168,765.4907 L493.2616,775.4328 L494,785.375 " fill="none" style="stroke:#383838;stroke-width:1.0;stroke-dasharray:5.0,5.0;"/><path d="M723,119.25 L723.2802,119.25 L722.4476,129.1922 L723.2577,139.1343 L723.5329,149.0765 L722.0488,159.0187 L722.8964,168.9608 L722.4313,178.903 L722.4887,188.8451 L722.9091,198.7873 L722.0782,208.7295 L723.7382,218.6716 L722.1596,228.6138 L722.7363,238.556 L723.5759,248.4981 L722.8856,258.4403 L723.091,268.3825 L722.9574,278.3246 L723.238,288.2668 L723.3188,298.209 L723.7809,308.1511 L723.8947,318.0933 L723.9057,328.0354 L723.3395,337.9776 L723.6181,347.9198 L723.9363,357.8619 L722.0384,367.8041 L723.9047,377.7463 L722.6047,387.6884 L723.7117,397.6306 L722.34,407.5728 L722.9087,417.5149 L723.9888,427.4571 L722.935,437.3993 L723.1404,447.3414 L723.4515,457.2836 L723.555,467.2257 L722.9948,477.1679 L723.383,487.1101 L722.2368,497.0522 L723.3792,506.9944 L723.7309,516.9366 L723.5927,526.8787 L723.8174,536.8209 L722.3559,546.7631 L722.1304,556.7052 L722.1715,566.6474 L722.9215,576.5896 L722.738,586.5317 L723.9085,596.4739 L722.7671,606.416 L722.5426,616.3582 L723.3044,626.3004 L722.1109,636.2425 L722.3078,646.1847 L723.8653,656.1269 L723.5809,666.069 L723.9793,676.0112 L722.5709,685.9534 L723.4256,695.8955 L723.7872,705.8377 L722.3701,715.7799 L722.8722,725.722 L723.168,735.6642 L723.869,745.6063 L722.9944,755.5485 L723.6168,765.4907 L722.2616,775.4328 L723,785.375 " fill="none" style="stroke:#383838;stroke-width:1.0;stroke-dasharray:5.0,5.0;"/><path d="M922,119.25 L922.2802,119.25 L921.4476,129.1922 L922.2577,139.1343 L922.5329,149.0765 L921.0488,159.0187 L921.8964,168.9608 L921.4313,178.903 L921.4887,188.8451 L921.9091,198.7873 L921.0782,208.7295 L922.7382,218.6716 L921.1596,228.6138 L921.7363,238.556 L922.5759,248.4981 L921.8856,258.4403 L922.091,268.3825 L921.9574,278.3246 L922.238,288.2668 L922.3188,298.209 L922.7809,308.1511 L922.8947,318.0933 L922.9057,328.0354 L922.3395,337.9776 L922.6181,347.9198 L922.9363,357.8619 L921.0384,367.8041 L922.9047,377.7463 L921.6047,387.6884 L922.7117,397.6306 L921.34,407.5728 L921.9087,417.5149 L922.9888,427.4571 L921.935,437.3993 L922.1404,447.3414 L922.4515,457.2836 L922.555,467.2257 L921.9948,477.1679 L922.383,487.1101 L921.2368,497.0522 L922.3792,506.9944 L922.7309,516.9366 L922.5927,526.8787 L922.8174,536.8209 L921.3559,546.7631 L921.1304,556.7052 L921.1715,566.6474 L921.9215,576.5896 L921.738,586.5317 L922.9085,596.4739 L921.7671,606.416 L921.5426,616.3582 L922.3044,626.3004 L921.1109,636.2425 L921.3078,646.1847 L922.8653,656.1269 L922.5809,666.069 L922.9793,676.0112 L921.5709,685.9534 L922.4256,695.8955 L922.7872,705.8377 L921.3701,715.7799 L921.8722,725.722 L922.168,735.6642 L922.869,745.6063 L921.9944,755.5485 L922.6168,765.4907 L921.2616,775.4328 L922,785.375 " fill="none" style="stroke:#383838;stroke-width:1.0;stroke-dasharray:5.0,5.0;"/><path d="M1084,119.25 L1084.2802,119.25 L1083.4476,129.1922 L1084.2577,139.1343 L1084.5329,149.0765 L1083.0488,159.0187 L1083.8964,168.9608 L1083.4313,178.903 L1083.4887,188.8451 L1083.9091,198.7873 L1083.0782,208.7295 L1084.7382,218.6716 L1083.1596,228.6138 L1083.7363,238.556 L1084.5759,248.4981 L1083.8856,258.4403 L1084.091,268.3825 L1083.9574,278.3246 L1084.238,288.2668 L1084.3188,298.209 L1084.7809,308.1511 L1084.8947,318.0933 L1084.9057,328.0354 L1084.3395,337.9776 L1084.6181,347.9198 L1084.9363,357.8619 L1083.0384,367.8041 L1084.9047,377.7463 L1083.6047,387.6884 L1084.7117,397.6306 L1083.34,407.5728 L1083.9087,417.5149 L1084.9888,427.4571 L1083.935,437.3993 L1084.1404,447.3414 L1084.4515,457.2836 L1084.555,467.2257 L1083.9948,477.1679 L1084.383,487.1101 L1083.2368,497.0522 L1084.3792,506.9944 L1084.7309,516.9366 L1084.5927,526.8787 L1084.8174,536.8209 L1083.3559,546.7631 L1083.1304,556.7052 L1083.1715,566.6474 L1083.9215,576.5896 L1083.738,586.5317 L1084.9085,596.4739 L1083.7671,606.416 L1083.5426,616.3582 L1084.3044,626.3004 L1083.1109,636.2425 L1083.3078,646.1847 L1084.8653,656.1269 L1084.5809,666.069 L1084.9793,676.0112 L1083.5709,685.9534 L1084.4256,695.8955 L1084.7872,705.8377 L1083.3701,715.7799 L1083.8722,725.722 L1084.168,735.6642 L1084.869,745.6063 L1083.9944,755.5485 L1084.6168,765.4907 L1083.2616,775.4328 L1084,785.375 " fill="none" style="stroke:#383838;stroke-width:1.0;stroke-dasharray:5.0,5.0;"/><path d="M1242,119.25 L1242.2802,119.25 L1241.4476,129.1922 L1242.2577,139.1343 L1242.5329,149.0765 L1241.0488,159.0187 L1241.8964,168.9608 L1241.4313,178.903 L1241.4887,188.8451 L1241.9091,198.7873 L1241.0782,208.7295 L1242.7382,218.6716 L1241.1596,228.6138 L1241.7363,238.556 L1242.5759,248.4981 L1241.8856,258.4403 L1242.091,268.3825 L1241.9574,278.3246 L1242.238,288.2668 L1242.3188,298.209 L1242.7809,308.1511 L1242.8947,318.0933 L1242.9057,328.0354 L1242.3395,337.9776 L1242.6181,347.9198 L1242.9363,357.8619 L1241.0384,367.8041 L1242.9047,377.7463 L1241.6047,387.6884 L1242.7117,397.6306 L1241.34,407.5728 L1241.9087,417.5149 L1242.9888,427.4571 L1241.935,437.3993 L1242.1404,447.3414 L1242.4515,457.2836 L1242.555,467.2257 L1241.9948,477.1679 L1242.383,487.1101 L1241.2368,497.0522 L1242.3792,506.9944 L1242.7309,516.9366 L1242.5927,526.8787 L1242.8174,536.8209 L1241.3559,546.7631 L1241.1304,556.7052 L1241.1715,566.6474 L1241.9215,576.5896 L1241.738,586.5317 L1242.9085,596.4739 L1241.7671,606.416 L1241.5426,616.3582 L1242.3044,626.3004 L1241.1109,636.2425 L1241.3078,646.1847 L1242.8653,656.1269 L1242.5809,666.069 L1242.9793,676.0112 L1241.5709,685.9534 L1242.4256,695.8955 L1242.7872,705.8377 L1241.3701,715.7799 L1241.8722,725.722 L1242.168,735.6642 L1242.869,745.6063 L1241.9944,755.5485 L1242.6168,765.4907 L1241.2616,775.4328 L1242,785.375 " fill="none" style="stroke:#383838;stroke-width:1.0;stroke-dasharray:5.0,5.0;"/><path d="M1396,119.25 L1396.2802,119.25 L1395.4476,129.1922 L1396.2577,139.1343 L1396.5329,149.0765 L1395.0488,159.0187 L1395.8964,168.9608 L1395.4313,178.903 L1395.4887,188.8451 L1395.9091,198.7873 L1395.0782,208.7295 L1396.7382,218.6716 L1395.1596,228.6138 L1395.7363,238.556 L1396.5759,248.4981 L1395.8856,258.4403 L1396.091,268.3825 L1395.9574,278.3246 L1396.238,288.2668 L1396.3188,298.209 L1396.7809,308.1511 L1396.8947,318.0933 L1396.9057,328.0354 L1396.3395,337.9776 L1396.6181,347.9198 L1396.9363,357.8619 L1395.0384,367.8041 L1396.9047,377.7463 L1395.6047,387.6884 L1396.7117,397.6306 L1395.34,407.5728 L1395.9087,417.5149 L1396.9888,427.4571 L1395.935,437.3993 L1396.1404,447.3414 L1396.4515,457.2836 L1396.555,467.2257 L1395.9948,477.1679 L1396.383,487.1101 L1395.2368,497.0522 L1396.3792,506.9944 L1396.7309,516.9366 L1396.5927,526.8787 L1396.8174,536.8209 L1395.3559,546.7631 L1395.1304,556.7052 L1395.1715,566.6474 L1395.9215,576.5896 L1395.738,586.5317 L1396.9085,596.4739 L1395.7671,606.416 L1395.5426,616.3582 L1396.3044,626.3004 L1395.1109,636.2425 L1395.3078,646.1847 L1396.8653,656.1269 L1396.5809,666.069 L1396.9793,676.0112 L1395.5709,685.9534 L1396.4256,695.8955 L1396.7872,705.8377 L1395.3701,715.7799 L1395.8722,725.722 L1396.168,735.6642 L1396.869,745.6063 L1395.9944,755.5485 L1396.6168,765.4907 L1395.2616,775.4328 L1396,785.375 " fill="none" style="stroke:#383838;stroke-width:1.0;stroke-dasharray:5.0,5.0;"/><text fill="#000000" font-family="FG Virgil" font-size="14" lengthAdjust="spacing" textLength="68" x="5" y="115.9482">Utilizador</text><polygon fill="#F8F8F8" points="50.0442,51.899,48.8715,53.5013,47.4845,55.8482,45.5008,57.4298,43.4163,58.2947,41.7542,58.3697,39.618,57.2881,37.6023,56.5814,36.0724,55.1467,35.2699,53.5042,34.7939,52.1964,34.3277,50.4882,33.5709,49.0182,34.1525,47.5829,34.662,46.0107,36.574,44.7673,37.9192,43.1539,39.5843,42.6182,41.5637,42.1568,44.1021,42.4309,45.4924,43.0866,47.1089,43.3838,49.0743,45.3975,49.7595,47.5233,50.0571,48.9737,49.72,51.3639" style="stroke:#383838;stroke-width:2.0;"/><path d="M42,57.9531 L42.1868,57.9531 L41.6317,63.3531 L42.1718,68.7531 L42.3553,74.1531 L41.3659,79.5531 L42,84.9531 M29,65.9531 L29,65.884 L34.2,65.574 L39.4,65.6122 L44.6,65.8925 L49.8,65.3386 L55,65.9531 M42,84.9531 L42.3719,85.2754 L38.9766,87.5862 L36.6672,90.838 L34.4901,94.2046 L31.5424,96.9032 L29,99.9531 M42,84.9531 L42.0458,84.9929 L44.5785,87.9345 L47.3199,91.0571 L49.9606,94.0923 L52.7934,97.2941 L55,99.9531 " fill="none" style="stroke:#383838;stroke-width:2.0;"/><text fill="#000000" font-family="FG Virgil" font-size="14" lengthAdjust="spacing" textLength="68" x="5" y="797.3701">Utilizador</text><polygon fill="#F8F8F8" points="50.0442,812.6178,48.8715,814.2201,47.4845,816.5669,45.5008,818.1485,43.4163,819.0134,41.7542,819.0885,39.618,818.0068,37.6023,817.3002,36.0724,815.8655,35.2699,814.223,34.7939,812.9152,34.3277,811.2069,33.5709,809.7369,34.1525,808.3017,34.662,806.7295,36.574,805.486,37.9192,803.8727,39.5843,803.3369,41.5637,802.8755,44.1021,803.1497,45.4924,803.8054,47.1089,804.1026,49.0743,806.1162,49.7595,808.242,50.0571,809.6925,49.72,812.0827" style="stroke:#383838;stroke-width:2.0;"/><path d="M42,818.6719 L42.1868,818.6719 L41.6317,824.0719 L42.1718,829.4719 L42.3553,834.8719 L41.3659,840.2719 L42,845.6719 M29,826.6719 L29,826.6028 L34.2,826.2928 L39.4,826.331 L44.6,826.6113 L49.8,826.0573 L55,826.6719 M42,845.6719 L42.3719,845.9942 L38.9766,848.305 L36.6672,851.5567 L34.4901,854.9233 L31.5424,857.6219 L29,860.6719 M42,845.6719 L42.0458,845.7116 L44.5785,848.6533 L47.3199,851.7758 L49.9606,854.8111 L52.7934,858.0128 L55,860.6719 " fill="none" style="stroke:#383838;stroke-width:2.0;"/><polygon fill="#F8F8F8" points="409,71.6563,409,71.8664,419,71.2419,429,71.8495,439,72.0559,449,70.9429,459,71.5785,469,71.2298,479,71.2728,489,71.5881,499,70.9649,509,72.2099,519,71.026,529,71.4585,539,72.0882,549,71.5705,559,71.7245,569,71.6243,579,71.6563,579.1785,71.6563,579.2391,80.975,579.5857,90.2938,579.6711,99.6125,579.6793,108.9313,579,118.25,579,118.5046,569,118.7136,559,118.9522,549,117.5288,539,118.9285,529,117.9535,519,118.7838,509,117.755,499,118.1815,489,118.9916,479,118.2013,469,118.3553,459,118.5886,449,118.6662,439,118.2461,429,118.5372,419,117.6776,409,118.25,409.2844,118.25,409.5482,108.9313,409.4445,99.6125,409.613,90.2938,408.5169,80.975,409,71.6563" style="stroke:#383838;stroke-width:1.5;"/><text fill="#000000" font-family="FG Virgil" font-size="14" font-style="italic" lengthAdjust="spacing" textLength="108" x="440" y="91.6514">«presentation»</text><text fill="#000000" font-family="FG Virgil" font-size="14" lengthAdjust="spacing" textLength="156" x="416" y="107.9482">ListCatalogoServicoUI</text><polygon fill="#F8F8F8" points="409,784.375,409,784.5852,419,783.9607,429,784.5683,439,784.7747,449,783.6616,459,784.2973,469,783.9485,479,783.9915,489,784.3068,499,783.6836,509,784.9286,519,783.7447,529,784.1772,539,784.8069,549,784.2892,559,784.4432,569,784.3431,579,784.375,579.1785,784.375,579.2391,793.6938,579.5857,803.0125,579.6711,812.3313,579.6793,821.65,579,830.9688,579,831.2234,569,831.4323,559,831.671,549,830.2476,539,831.6473,529,830.6722,519,831.5026,509,830.4737,499,830.9003,489,831.7104,479,830.92,469,831.0741,459,831.3074,449,831.385,439,830.9648,429,831.256,419,830.3963,409,830.9688,409.2844,830.9688,409.5482,821.65,409.4445,812.3313,409.613,803.0125,408.5169,793.6938,409,784.375" style="stroke:#383838;stroke-width:1.5;"/><text fill="#000000" font-family="FG Virgil" font-size="14" font-style="italic" lengthAdjust="spacing" textLength="108" x="440" y="804.3701">«presentation»</text><text fill="#000000" font-family="FG Virgil" font-size="14" lengthAdjust="spacing" textLength="156" x="416" y="820.667">ListCatalogoServicoUI</text><text fill="#000000" font-family="FG Virgil" font-size="14" font-style="italic" lengthAdjust="spacing" textLength="97" x="671.5" y="99.6514">«application»</text><text fill="#000000" font-family="FG Virgil" font-size="14" lengthAdjust="spacing" textLength="216" x="612" y="115.9482">ListCatalogoServicoController</text><polygon fill="#F8F8F8" points="735.0663,73.5751,733.3073,75.9786,731.2268,79.4988,728.2512,81.8712,725.1244,83.1686,722.6313,83.2811,719.4269,81.6587,716.4035,80.5987,714.1086,78.4466,712.9048,75.9829,712.1909,74.0212,711.4915,71.4588,710.3564,69.2539,711.2287,67.101,711.9929,64.7427,714.8611,62.8775,716.8789,60.4574,719.3764,59.6538,722.3456,58.9618,726.1532,59.3729,728.2386,60.3565,730.6633,60.8023,733.6115,63.8228,734.6392,67.0115,735.0857,69.1872,734.58,72.7725" style="stroke:#383838;stroke-width:2.0;"/><polygon fill="#383838" points="719,58.6563,719.0449,58.7101,720.1116,57.5502,721.4412,56.7057,722.6853,55.7586,723.6478,54.4736,725,53.6563,724.9759,53.6466,724.468,54.6035,724.0813,55.6088,723.7789,56.6478,723.186,57.5707,723,58.6563,723.1713,58.7248,723.2049,59.5782,723.7388,60.6318,724.3337,61.7097,724.5735,62.6456,725,63.6563,725.0146,63.6737,723.7932,62.6481,722.6381,61.702,721.451,60.7175,720.325,59.8062,719,58.6563" style="stroke:#383838;stroke-width:1.0;"/><text fill="#000000" font-family="FG Virgil" font-size="14" font-style="italic" lengthAdjust="spacing" textLength="97" x="671.5" y="797.3701">«application»</text><text fill="#000000" font-family="FG Virgil" font-size="14" lengthAdjust="spacing" textLength="216" x="612" y="813.667">ListCatalogoServicoController</text><polygon fill="#F8F8F8" points="735.0663,835.8876,733.3073,838.2911,731.2268,841.8113,728.2512,844.1837,725.1244,845.4811,722.6313,845.5936,719.4269,843.9712,716.4035,842.9112,714.1086,840.7591,712.9048,838.2954,712.1909,836.3337,711.4915,833.7713,710.3564,831.5664,711.2287,829.4135,711.9929,827.0552,714.8611,825.19,716.8789,822.7699,719.3764,821.9663,722.3456,821.2743,726.1532,821.6854,728.2386,822.669,730.6633,823.1148,733.6115,826.1353,734.6392,829.324,735.0857,831.4997,734.58,835.085" style="stroke:#383838;stroke-width:2.0;"/><polygon fill="#383838" points="719,820.9688,719.0449,821.0226,720.1116,819.8627,721.4412,819.0182,722.6853,818.0711,723.6478,816.7861,725,815.9688,724.9759,815.9591,724.468,816.916,724.0813,817.9213,723.7789,818.9603,723.186,819.8832,723,820.9688,723.1713,821.0373,723.2049,821.8907,723.7388,822.9443,724.3337,824.0222,724.5735,824.9581,725,825.9688,725.0146,825.9862,723.7932,824.9606,722.6381,824.0145,721.451,823.03,720.325,822.1187,719,820.9688" style="stroke:#383838;stroke-width:1.0;"/><polygon fill="#F8F8F8" points="844,71.6563,844,71.8664,853.8125,71.2419,863.625,71.8495,873.4375,72.0559,883.25,70.9429,893.0625,71.5785,902.875,71.2298,912.6875,71.2728,922.5,71.5881,932.3125,70.9649,942.125,72.2099,951.9375,71.026,961.75,71.4585,971.5625,72.0882,981.375,71.5705,991.1875,71.7245,1001,71.6563,1000.9681,71.6563,1001.1785,80.975,1001.2391,90.2938,1001.5857,99.6125,1001.6711,108.9313,1001,118.25,1001,118.9293,991.1875,118.5046,981.375,118.7136,971.5625,118.9522,961.75,117.5288,951.9375,118.9285,942.125,117.9535,932.3125,118.7838,922.5,117.755,912.6875,118.1815,902.875,118.9916,893.0625,118.2013,883.25,118.3553,873.4375,118.5886,863.625,118.6662,853.8125,118.2461,844,118.25,844.2872,118.25,843.4276,108.9313,844.2844,99.6125,844.5482,90.2938,844.4445,80.975,844,71.6563" style="stroke:#383838;stroke-width:1.5;"/><text fill="#000000" font-family="FG Virgil" font-size="14" font-style="italic" lengthAdjust="spacing" textLength="100" x="872.5" y="91.6514">«persistence»</text><text fill="#000000" font-family="FG Virgil" font-size="14" lengthAdjust="spacing" textLength="143" x="851" y="107.9482">PersistenceContext</text><polygon fill="#F8F8F8" points="844,784.375,844,784.5852,853.8125,783.9607,863.625,784.5683,873.4375,784.7747,883.25,783.6616,893.0625,784.2973,902.875,783.9485,912.6875,783.9915,922.5,784.3068,932.3125,783.6836,942.125,784.9286,951.9375,783.7447,961.75,784.1772,971.5625,784.8069,981.375,784.2892,991.1875,784.4432,1001,784.375,1000.9681,784.375,1001.1785,793.6938,1001.2391,803.0125,1001.5857,812.3313,1001.6711,821.65,1001,830.9688,1001,831.648,991.1875,831.2234,981.375,831.4323,971.5625,831.671,961.75,830.2476,951.9375,831.6473,942.125,830.6722,932.3125,831.5026,922.5,830.4737,912.6875,830.9003,902.875,831.7104,893.0625,830.92,883.25,831.0741,873.4375,831.3074,863.625,831.385,853.8125,830.9648,844,830.9688,844.2872,830.9688,843.4276,821.65,844.2844,812.3313,844.5482,803.0125,844.4445,793.6938,844,784.375" style="stroke:#383838;stroke-width:1.5;"/><text fill="#000000" font-family="FG Virgil" font-size="14" font-style="italic" lengthAdjust="spacing" textLength="100" x="872.5" y="804.3701">«persistence»</text><text fill="#000000" font-family="FG Virgil" font-size="14" lengthAdjust="spacing" textLength="143" x="851" y="820.667">PersistenceContext</text><polygon fill="#F8F8F8" points="1011,71.6563,1011,71.8664,1020.8,71.2419,1030.6,71.8495,1040.4,72.0559,1050.2,70.9429,1060,71.5785,1069.8,71.2298,1079.6,71.2728,1089.4,71.5881,1099.2,70.9649,1109,72.2099,1118.8,71.026,1128.6,71.4585,1138.4,72.0882,1148.2,71.5705,1158,71.6563,1158.0682,71.6563,1157.9681,80.975,1158.1785,90.2938,1158.2391,99.6125,1158.5857,108.9313,1158,118.25,1158,118.9211,1148.2,118.9293,1138.4,118.5046,1128.6,118.7136,1118.8,118.9522,1109,117.5288,1099.2,118.9285,1089.4,117.9535,1079.6,118.7838,1069.8,117.755,1060,118.1815,1050.2,118.9916,1040.4,118.2013,1030.6,118.3553,1020.8,118.5886,1011,118.25,1011.4162,118.25,1010.9961,108.9313,1011.2872,99.6125,1010.4276,90.2938,1011.2844,80.975,1011,71.6563" style="stroke:#383838;stroke-width:1.5;"/><text fill="#000000" font-family="FG Virgil" font-size="14" font-style="italic" lengthAdjust="spacing" textLength="68" x="1050.5" y="91.6514">«factory»</text><text fill="#000000" font-family="FG Virgil" font-size="14" lengthAdjust="spacing" textLength="133" x="1018" y="107.9482">RepositoryFactory</text><polygon fill="#F8F8F8" points="1011,784.375,1011,784.5852,1020.8,783.9607,1030.6,784.5683,1040.4,784.7747,1050.2,783.6616,1060,784.2973,1069.8,783.9485,1079.6,783.9915,1089.4,784.3068,1099.2,783.6836,1109,784.9286,1118.8,783.7447,1128.6,784.1772,1138.4,784.8069,1148.2,784.2892,1158,784.375,1158.0682,784.375,1157.9681,793.6938,1158.1785,803.0125,1158.2391,812.3313,1158.5857,821.65,1158,830.9688,1158,831.6398,1148.2,831.648,1138.4,831.2234,1128.6,831.4323,1118.8,831.671,1109,830.2476,1099.2,831.6473,1089.4,830.6722,1079.6,831.5026,1069.8,830.4737,1060,830.9003,1050.2,831.7104,1040.4,830.92,1030.6,831.0741,1020.8,831.3074,1011,830.9688,1011.4162,830.9688,1010.9961,821.65,1011.2872,812.3313,1010.4276,803.0125,1011.2844,793.6938,1011,784.375" style="stroke:#383838;stroke-width:1.5;"/><text fill="#000000" font-family="FG Virgil" font-size="14" font-style="italic" lengthAdjust="spacing" textLength="68" x="1050.5" y="804.3701">«factory»</text><text fill="#000000" font-family="FG Virgil" font-size="14" lengthAdjust="spacing" textLength="133" x="1018" y="820.667">RepositoryFactory</text><text fill="#000000" font-family="FG Virgil" font-size="14" font-style="italic" lengthAdjust="spacing" textLength="90" x="1194.5" y="99.6514">«repository»</text><text fill="#000000" font-family="FG Virgil" font-size="14" lengthAdjust="spacing" textLength="143" x="1168" y="115.9482">CatalogoRepository</text><path d="M1224.5,50.6563 L1224.5,50.6563 L1224.5651,50.7232 L1226.1716,48.7742 L1228.1599,47.2178 L1230.0238,45.5336 L1231.479,43.4289 L1233.5,41.9063 L1233.4952,41.872 L1235.2739,41.4685 L1237.0766,41.2374 L1238.8958,41.1262 L1240.6577,40.6019 L1242.5,40.6563 L1242.5,40.6563 L1242.5339,40.9 L1244.2615,40.6288 L1246.0879,41.0692 L1247.9264,41.5964 L1249.6948,41.6185 L1251.5,41.9063 L1251.5211,41.928 L1253.2901,43.6461 L1255.1553,45.4631 L1256.9741,47.2325 L1258.8815,49.0929 L1260.5,50.6563 L1261.0965,50.6563 L1261.1038,55.8563 L1260.7263,61.0563 L1260.9121,66.2563 L1261.1242,71.4563 L1260.5,76.6563 L1260.5,76.6563 L1260.2766,76.4264 L1258.9102,78.6225 L1256.8081,80.0618 L1255.2654,82.0764 L1253.1466,83.4985 L1251.5,85.4063 L1251.4958,85.3761 L1249.7453,85.9827 L1247.897,85.8848 L1246.1064,86.2026 L1244.3207,86.5553 L1242.5,86.6563 L1242.5,86.6563 L1242.5254,86.8395 L1240.6998,86.4045 L1238.9176,86.2827 L1237.065,85.6543 L1235.3174,85.7814 L1233.5,85.4063 L1233.6698,85.5809 L1231.8377,83.7979 L1230.0899,82.1016 L1227.9503,80.0023 L1226.0979,78.1984 L1224.5,76.6563 L1223.9476,76.6563 L1224.4477,71.4563 L1224.3253,66.2563 L1225.1057,61.0563 L1224.3447,55.8563 L1224.5,50.6563 " fill="#F8F8F8" style="stroke:#000000;stroke-width:1.5;"/><path d="M1224.5,50.6563 L1224.5,50.6563 L1224.5651,50.7232 L1226.1716,52.2742 L1228.1599,54.2178 L1230.0238,56.0336 L1231.479,57.4289 L1233.5,59.4063 L1233.4952,59.372 L1235.2739,59.4685 L1237.0766,59.7374 L1238.8958,60.1262 L1240.6577,60.1019 L1242.5,60.6563 L1242.5,60.6563 L1242.5339,60.9 L1244.2615,60.1288 L1246.0879,60.0692 L1247.9264,60.0964 L1249.6948,59.6185 L1251.5,59.4063 L1251.5211,59.428 L1253.2901,57.6461 L1255.1553,55.9631 L1256.9741,54.2325 L1258.8815,52.5929 L1260.5,50.6563 " fill="none" style="stroke:#000000;stroke-width:1.5;"/><text fill="#000000" font-family="FG Virgil" font-size="14" font-style="italic" lengthAdjust="spacing" textLength="90" x="1194.5" y="797.3701">«repository»</text><text fill="#000000" font-family="FG Virgil" font-size="14" lengthAdjust="spacing" textLength="143" x="1168" y="813.667">CatalogoRepository</text><path d="M1224.5,826.9688 L1224.5,826.9688 L1224.5651,827.0357 L1226.1716,825.0867 L1228.1599,823.5303 L1230.0238,821.8461 L1231.479,819.7414 L1233.5,818.2188 L1233.4952,818.1845 L1235.2739,817.781 L1237.0766,817.5499 L1238.8958,817.4387 L1240.6577,816.9144 L1242.5,816.9688 L1242.5,816.9688 L1242.5339,817.2125 L1244.2615,816.9413 L1246.0879,817.3817 L1247.9264,817.9089 L1249.6948,817.931 L1251.5,818.2188 L1251.5211,818.2405 L1253.2901,819.9586 L1255.1553,821.7756 L1256.9741,823.545 L1258.8815,825.4054 L1260.5,826.9688 L1261.0965,826.9688 L1261.1038,832.1688 L1260.7263,837.3688 L1260.9121,842.5688 L1261.1242,847.7688 L1260.5,852.9688 L1260.5,852.9688 L1260.2766,852.7389 L1258.9102,854.935 L1256.8081,856.3743 L1255.2654,858.3889 L1253.1466,859.811 L1251.5,861.7188 L1251.4958,861.6886 L1249.7453,862.2952 L1247.897,862.1973 L1246.1064,862.5151 L1244.3207,862.8678 L1242.5,862.9688 L1242.5,862.9688 L1242.5254,863.152 L1240.6998,862.717 L1238.9176,862.5952 L1237.065,861.9668 L1235.3174,862.0939 L1233.5,861.7188 L1233.6698,861.8934 L1231.8377,860.1104 L1230.0899,858.4141 L1227.9503,856.3148 L1226.0979,854.5109 L1224.5,852.9688 L1223.9476,852.9688 L1224.4477,847.7688 L1224.3253,842.5688 L1225.1057,837.3688 L1224.3447,832.1688 L1224.5,826.9688 " fill="#F8F8F8" style="stroke:#000000;stroke-width:1.5;"/><path d="M1224.5,826.9688 L1224.5,826.9688 L1224.5651,827.0357 L1226.1716,828.5867 L1228.1599,830.5303 L1230.0238,832.3461 L1231.479,833.7414 L1233.5,835.7188 L1233.4952,835.6845 L1235.2739,835.781 L1237.0766,836.0499 L1238.8958,836.4387 L1240.6577,836.4144 L1242.5,836.9688 L1242.5,836.9688 L1242.5339,837.2125 L1244.2615,836.4413 L1246.0879,836.3817 L1247.9264,836.4089 L1249.6948,835.931 L1251.5,835.7188 L1251.5211,835.7405 L1253.2901,833.9586 L1255.1553,832.2756 L1256.9741,830.545 L1258.8815,828.9054 L1260.5,826.9688 " fill="none" style="stroke:#000000;stroke-width:1.5;"/><text fill="#000000" font-family="FG Virgil" font-size="14" font-style="italic" lengthAdjust="spacing" textLength="90" x="1348" y="99.6514">«repository»</text><text fill="#000000" font-family="FG Virgil" font-size="14" lengthAdjust="spacing" textLength="132" x="1327" y="115.9482">ServicoRepository</text><path d="M1378,50.6563 L1378,50.6563 L1378.0651,50.7232 L1379.6716,48.7742 L1381.6599,47.2178 L1383.5238,45.5336 L1384.979,43.4289 L1387,41.9063 L1386.9952,41.872 L1388.7739,41.4685 L1390.5766,41.2374 L1392.3958,41.1262 L1394.1577,40.6019 L1396,40.6563 L1396,40.6563 L1396.0339,40.9 L1397.7615,40.6288 L1399.5879,41.0692 L1401.4264,41.5964 L1403.1948,41.6185 L1405,41.9063 L1405.0211,41.928 L1406.7901,43.6461 L1408.6553,45.4631 L1410.4741,47.2325 L1412.3815,49.0929 L1414,50.6563 L1414.5965,50.6563 L1414.6038,55.8563 L1414.2263,61.0563 L1414.4121,66.2563 L1414.6242,71.4563 L1414,76.6563 L1414,76.6563 L1413.7766,76.4264 L1412.4102,78.6225 L1410.3081,80.0618 L1408.7654,82.0764 L1406.6466,83.4985 L1405,85.4063 L1404.9958,85.3761 L1403.2453,85.9827 L1401.397,85.8848 L1399.6064,86.2026 L1397.8207,86.5553 L1396,86.6563 L1396,86.6563 L1396.0254,86.8395 L1394.1998,86.4045 L1392.4176,86.2827 L1390.565,85.6543 L1388.8174,85.7814 L1387,85.4063 L1387.1698,85.5809 L1385.3377,83.7979 L1383.5899,82.1016 L1381.4503,80.0023 L1379.5979,78.1984 L1378,76.6563 L1377.4476,76.6563 L1377.9477,71.4563 L1377.8253,66.2563 L1378.6057,61.0563 L1377.8447,55.8563 L1378,50.6563 " fill="#F8F8F8" style="stroke:#000000;stroke-width:1.5;"/><path d="M1378,50.6563 L1378,50.6563 L1378.0651,50.7232 L1379.6716,52.2742 L1381.6599,54.2178 L1383.5238,56.0336 L1384.979,57.4289 L1387,59.4063 L1386.9952,59.372 L1388.7739,59.4685 L1390.5766,59.7374 L1392.3958,60.1262 L1394.1577,60.1019 L1396,60.6563 L1396,60.6563 L1396.0339,60.9 L1397.7615,60.1288 L1399.5879,60.0692 L1401.4264,60.0964 L1403.1948,59.6185 L1405,59.4063 L1405.0211,59.428 L1406.7901,57.6461 L1408.6553,55.9631 L1410.4741,54.2325 L1412.3815,52.5929 L1414,50.6563 " fill="none" style="stroke:#000000;stroke-width:1.5;"/><text fill="#000000" font-family="FG Virgil" font-size="14" font-style="italic" lengthAdjust="spacing" textLength="90" x="1348" y="797.3701">«repository»</text><text fill="#000000" font-family="FG Virgil" font-size="14" lengthAdjust="spacing" textLength="132" x="1327" y="813.667">ServicoRepository</text><path d="M1378,826.9688 L1378,826.9688 L1378.0651,827.0357 L1379.6716,825.0867 L1381.6599,823.5303 L1383.5238,821.8461 L1384.979,819.7414 L1387,818.2188 L1386.9952,818.1845 L1388.7739,817.781 L1390.5766,817.5499 L1392.3958,817.4387 L1394.1577,816.9144 L1396,816.9688 L1396,816.9688 L1396.0339,817.2125 L1397.7615,816.9413 L1399.5879,817.3817 L1401.4264,817.9089 L1403.1948,817.931 L1405,818.2188 L1405.0211,818.2405 L1406.7901,819.9586 L1408.6553,821.7756 L1410.4741,823.545 L1412.3815,825.4054 L1414,826.9688 L1414.5965,826.9688 L1414.6038,832.1688 L1414.2263,837.3688 L1414.4121,842.5688 L1414.6242,847.7688 L1414,852.9688 L1414,852.9688 L1413.7766,852.7389 L1412.4102,854.935 L1410.3081,856.3743 L1408.7654,858.3889 L1406.6466,859.811 L1405,861.7188 L1404.9958,861.6886 L1403.2453,862.2952 L1401.397,862.1973 L1399.6064,862.5151 L1397.8207,862.8678 L1396,862.9688 L1396,862.9688 L1396.0254,863.152 L1394.1998,862.717 L1392.4176,862.5952 L1390.565,861.9668 L1388.8174,862.0939 L1387,861.7188 L1387.1698,861.8934 L1385.3377,860.1104 L1383.5899,858.4141 L1381.4503,856.3148 L1379.5979,854.5109 L1378,852.9688 L1377.4476,852.9688 L1377.9477,847.7688 L1377.8253,842.5688 L1378.6057,837.3688 L1377.8447,832.1688 L1378,826.9688 " fill="#F8F8F8" style="stroke:#000000;stroke-width:1.5;"/><path d="M1378,826.9688 L1378,826.9688 L1378.0651,827.0357 L1379.6716,828.5867 L1381.6599,830.5303 L1383.5238,832.3461 L1384.979,833.7414 L1387,835.7188 L1386.9952,835.6845 L1388.7739,835.781 L1390.5766,836.0499 L1392.3958,836.4387 L1394.1577,836.4144 L1396,836.9688 L1396,836.9688 L1396.0339,837.2125 L1397.7615,836.4413 L1399.5879,836.3817 L1401.4264,836.4089 L1403.1948,835.931 L1405,835.7188 L1405.0211,835.7405 L1406.7901,833.9586 L1408.6553,832.2756 L1410.4741,830.545 L1412.3815,828.9054 L1414,826.9688 " fill="none" style="stroke:#000000;stroke-width:1.5;"/><polygon fill="#FFFFFF" points="37,129.25,37,129.3201,39,129.1119,41,129.3144,43,129.3832,45,129.0122,47,129.25,46.9223,129.25,46.5735,139.2207,46.6165,149.1914,46.9318,159.1621,46.3086,169.1328,47.5536,179.1035,46.3697,189.0742,46.8022,199.0449,47.4319,209.0156,46.9142,218.9863,47.0682,228.957,46.9681,238.9277,47.1785,248.8984,47.2391,258.8691,47.5857,268.8398,47.6711,278.8105,47.6793,288.7813,47.2546,298.752,47.4636,308.7227,47.7022,318.6934,46.2788,328.6641,47.6785,338.6348,46.7035,348.6055,47.5338,358.5762,46.505,368.5469,46.9315,378.5176,47.7416,388.4883,46.9513,398.459,47.1053,408.4297,47.3386,418.4004,47.4162,428.3711,46.9961,438.3418,47.2872,448.3125,46.4276,458.2832,47.2844,468.2539,47.5482,478.2246,47.4445,488.1953,47.613,498.166,46.5169,508.1367,46.3478,518.1074,46.3786,528.0781,46.9411,538.0488,46.8035,548.0195,47.6814,557.9902,46.8253,567.9609,46.6569,577.9316,47.2283,587.9023,46.3332,597.873,46.4809,607.8438,47.649,617.8145,47.4357,627.7852,47.7345,637.7559,46.6782,647.7266,47.3192,657.6973,47.5904,667.668,46.5276,677.6387,46.9041,687.6094,47.126,697.5801,47.6518,707.5508,46.9958,717.5215,47.4626,727.4922,46.4462,737.4629,46.3227,747.4336,47.5036,757.4043,47,767.375,47,767.136,45,767.5447,43,767.4439,41,767.2857,39,767.2571,37,767.375,37.4588,767.375,36.7007,757.4043,37.5919,747.4336,36.4473,737.4629,37.6174,727.4922,37.4843,717.5215,37.245,707.5508,37.0472,697.5801,37.7266,687.6094,37.6136,677.6387,37.1693,667.668,37.2682,657.6973,36.8697,647.7266,37.7165,637.7559,37.1549,627.7852,37.1726,617.8145,36.3916,607.8438,36.5948,597.873,37.5307,587.9023,37.4298,577.9316,36.9571,567.9609,36.6778,557.9902,36.7811,548.0195,36.3138,538.0488,37.4147,528.0781,37.7396,518.1074,37.5264,508.1367,37.6949,498.166,36.8633,488.1953,37.0872,478.2246,36.6124,468.2539,37.284,458.2832,37.2468,448.3125,37.5524,438.3418,36.7703,428.3711,36.8656,418.4004,37.4435,408.4297,37.5673,398.459,36.4875,388.4883,36.8061,378.5176,37.1493,368.5469,36.3892,358.5762,37.3534,348.6055,37.258,338.6348,36.8992,328.6641,37.1422,318.6934,37.7287,308.7227,36.6871,298.752,37.315,288.7813,37.2856,278.8105,37.1158,268.8398,37.1409,258.8691,37.1135,248.8984,36.3758,238.9277,36.5992,228.957,36.5385,218.9863,37.0638,209.0156,37.0881,199.0449,37.1617,189.0742,36.709,179.1035,36.9325,169.1328,36.8798,159.1621,37.5769,149.1914,37.4266,139.2207,37,129.25" style="stroke:#383838;stroke-width:1.0;"/><polygon fill="#FFFFFF" points="489,150.3828,489,150.4529,491,150.2447,493,150.4472,495,150.516,497,150.145,499,150.3828,498.9223,150.3828,498.5735,160.416,498.6165,170.4492,498.9318,180.4824,498.3086,190.5156,499.5536,200.5488,498.3697,210.582,498.8022,220.6152,499.4319,230.6484,498.9142,240.6816,499.0682,250.7148,498.9681,260.748,499.1785,270.7813,499.2391,280.8145,499.5857,290.8477,499.6711,300.8809,499.6793,310.9141,499.2546,320.9473,499.4636,330.9805,499.7022,341.0137,498.2788,351.0469,499.6785,361.0801,498.7035,371.1133,499.5338,381.1465,498.505,391.1797,498.9315,401.2129,499.7416,411.2461,498.9513,421.2793,499.1053,431.3125,499.3386,441.3457,499.4162,451.3789,498.9961,461.4121,499,471.4453,499,471.5411,497,471.2545,495,471.5401,493,471.628,491,471.5935,489,471.4453,489.613,471.4453,488.5169,461.4121,488.3478,451.3789,488.3786,441.3457,488.9411,431.3125,488.8035,421.2793,489.6814,411.2461,488.8253,401.2129,488.6569,391.1797,489.2283,381.1465,488.3332,371.1133,488.4809,361.0801,489.649,351.0469,489.4357,341.0137,489.7345,330.9805,488.6782,320.9473,489.3192,310.9141,489.5904,300.8809,488.5276,290.8477,488.9041,280.8145,489.126,270.7813,489.6518,260.748,488.9958,250.7148,489.4626,240.6816,488.4462,230.6484,488.3227,220.6152,489.5036,210.582,488.2831,200.5488,489.509,190.5156,489.2066,180.4824,488.7321,170.4492,488.6462,160.416,489,150.3828" style="stroke:#383838;stroke-width:1.0;"/><polygon fill="#FFFFFF" points="489,500.5781,489,500.6482,491,500.44,493,500.6426,495,500.7114,497,500.3403,499,500.5781,498.9223,500.5781,498.5735,510.4595,498.6165,520.3409,498.9318,530.2222,498.3086,540.1036,499.5536,549.985,498.3697,559.8663,498.8022,569.7477,499.4319,579.6291,498.9142,589.5104,499.0682,599.3918,498.9681,609.2731,499.1785,619.1545,499.2391,629.0359,499.5857,638.9172,499.6711,648.7986,499.6793,658.68,499.2546,668.5613,499.4636,678.4427,499.7022,688.3241,498.2788,698.2054,499.6785,708.0868,498.7035,717.9682,499.5338,727.8495,498.505,737.7309,498.9315,747.6123,499.7416,757.4936,499,767.375,499,767.3588,497,767.4101,495,767.4879,493,767.5137,491,767.3737,489,767.375,489.2872,767.375,488.4276,757.4936,489.2844,747.6123,489.5482,737.7309,489.4445,727.8495,489.613,717.9682,488.5169,708.0868,488.3478,698.2054,488.3786,688.3241,488.9411,678.4427,488.8035,668.5613,489.6814,658.68,488.8253,648.7986,488.6569,638.9172,489.2283,629.0359,488.3332,619.1545,488.4809,609.2731,489.649,599.3918,489.4357,589.5104,489.7345,579.6291,488.6782,569.7477,489.3192,559.8663,489.5904,549.985,488.5276,540.1036,488.9041,530.2222,489.126,520.3409,489.6518,510.4595,489,500.5781" style="stroke:#383838;stroke-width:1.0;"/><polygon fill="#FFFFFF" points="718,179.5156,718,179.5857,720,179.3775,722,179.5801,724,179.6489,726,179.2778,728,179.5156,727.9223,179.5156,727.5735,189.6232,727.6165,199.7308,727.9318,209.8383,727.3086,219.9459,728.5536,230.0535,727.3697,240.1611,727.8022,250.2686,728.4319,260.3762,727.9142,270.4838,728.0682,280.5913,727.9681,290.6989,728.1785,300.8065,728.2391,310.9141,728.5857,321.0216,728.6711,331.1292,728.6793,341.2368,728.2546,351.3444,728.4636,361.4519,728.7022,371.5595,727.2788,381.6671,728.6785,391.7746,727.7035,401.8822,728.5338,411.9898,727.505,422.0974,727.9315,432.2049,728,442.3125,728,442.5597,726,442.2963,724,442.3476,722,442.4254,720,442.4512,718,442.3125,717.9961,442.3125,718.2872,432.2049,717.4276,422.0974,718.2844,411.9898,718.5482,401.8822,718.4445,391.7746,718.613,381.6671,717.5169,371.5595,717.3478,361.4519,717.3786,351.3444,717.9411,341.2368,717.8035,331.1292,718.6814,321.0216,717.8253,310.9141,717.6569,300.8065,718.2283,290.6989,717.3332,280.5913,717.4809,270.4838,718.649,260.3762,718.4357,250.2686,718.7345,240.1611,717.6782,230.0535,718.3192,219.9459,718.5904,209.8383,717.5276,199.7308,717.9041,189.6232,718,179.5156" style="stroke:#383838;stroke-width:1.0;"/><polygon fill="#FFFFFF" points="718,529.7109,718,529.781,720,529.5728,722,529.7754,724,529.8442,726,529.4731,728,529.7109,727.9223,529.7109,727.5735,539.5533,727.6165,549.3956,727.9318,559.2379,727.3086,569.0803,728.5536,578.9226,727.3697,588.7649,727.8022,598.6072,728.4319,608.4496,727.9142,618.2919,728.0682,628.1342,727.9681,637.9766,728.1785,647.8189,728.2391,657.6612,728.5857,667.5036,728.6711,677.3459,728.6793,687.1882,728.2546,697.0305,728.4636,706.8729,728.7022,716.7152,727.2788,726.5575,728.6785,736.3999,728,746.2422,728,746.1434,726,746.4201,724,746.0772,722,746.2194,720,746.4894,718,746.2422,717.9513,746.2422,718.1053,736.3999,718.3386,726.5575,718.4162,716.7152,717.9961,706.8729,718.2872,697.0305,717.4276,687.1882,718.2844,677.3459,718.5482,667.5036,718.4445,657.6612,718.613,647.8189,717.5169,637.9766,717.3478,628.1342,717.3786,618.2919,717.9411,608.4496,717.8035,598.6072,718.6814,588.7649,717.8253,578.9226,717.6569,569.0803,718.2283,559.2379,717.3332,549.3956,717.4809,539.5533,718,529.7109" style="stroke:#383838;stroke-width:1.0;"/><polygon fill="#FFFFFF" points="917.5,208.6484,917.5,208.7185,919.5,208.5103,921.5,208.7129,923.5,208.7817,925.5,208.4106,927.5,208.6484,927.4223,208.6484,927.0735,218.1706,927.1165,227.6927,927.4318,237.2148,926.8086,246.737,928.0536,256.2591,927.5,265.7813,927.5,265.5712,925.5,265.7153,923.5,265.9252,921.5,265.7527,919.5,265.804,917.5,265.7813,917.4681,265.7813,917.6785,256.2591,917.7391,246.737,918.0857,237.2148,918.1711,227.6927,918.1793,218.1706,917.5,208.6484" style="stroke:#383838;stroke-width:1.0;"/><polygon fill="#FFFFFF" points="1079.5,237.7813,1079.5,237.8513,1081.5,237.6431,1083.5,237.8457,1085.5,237.9145,1087.5,237.5435,1089.5,237.7813,1089.4741,237.7813,1089.3578,240.5813,1089.3722,243.3813,1089.4773,246.1813,1089.2695,248.9813,1089.5,251.7813,1089.5,251.9658,1087.5,251.5712,1085.5,251.7153,1083.5,251.9252,1081.5,251.7527,1079.5,251.7813,1079.5227,251.7813,1079.4894,248.9813,1079.5595,246.1813,1079.5797,243.3813,1079.6952,240.5813,1079.5,237.7813" style="stroke:#383838;stroke-width:1.0;"/><polygon fill="#FFFFFF" points="1079.5,294.9141,1079.5,294.9841,1081.5,294.776,1083.5,294.9785,1085.5,295.0473,1087.5,294.6763,1089.5,294.9141,1089.4223,294.9141,1089.0735,304.7695,1089.1165,314.625,1089.4318,324.4805,1088.8086,334.3359,1090.0536,344.1914,1089.5,354.0469,1089.5,353.8368,1087.5,353.981,1085.5,354.1909,1083.5,354.0183,1081.5,354.0696,1079.5,354.0469,1079.4681,354.0469,1079.6785,344.1914,1079.7391,334.3359,1080.0857,324.4805,1080.1711,314.625,1080.1793,304.7695,1079.5,294.9141" style="stroke:#383838;stroke-width:1.0;"/><polygon fill="#FFFFFF" points="1079.5,383.1797,1079.5,383.2497,1081.5,383.0416,1083.5,383.2441,1085.5,383.3129,1087.5,382.9419,1089.5,383.1797,1089.4223,383.1797,1089.0735,393.0352,1089.1165,402.8906,1089.4318,412.7461,1088.8086,422.6016,1090.0536,432.457,1089.5,442.3125,1089.5,442.1024,1087.5,442.2466,1085.5,442.4565,1083.5,442.2839,1081.5,442.3352,1079.5,442.3125,1079.4681,442.3125,1079.6785,432.457,1079.7391,422.6016,1080.0857,412.7461,1080.1711,402.8906,1080.1793,393.0352,1079.5,383.1797" style="stroke:#383838;stroke-width:1.0;"/><polygon fill="#FFFFFF" points="1237.5,324.0469,1237.5,324.1169,1239.5,323.9088,1241.5,324.1113,1243.5,324.1801,1245.5,323.8091,1247.5,324.0469,1247.4741,324.0469,1247.3578,330.0469,1247.3722,336.0469,1247.4773,342.0469,1247.2695,348.0469,1247.5,354.0469,1247.5,354.2314,1245.5,353.8368,1243.5,353.981,1241.5,354.1909,1239.5,354.0183,1237.5,354.0469,1237.5227,354.0469,1237.4894,348.0469,1237.5595,342.0469,1237.5797,336.0469,1237.6952,330.0469,1237.5,324.0469" style="stroke:#383838;stroke-width:1.0;"/><polygon fill="#FFFFFF" points="1237.5,558.8438,1237.5,558.9138,1239.5,558.7056,1241.5,558.9082,1243.5,558.977,1245.5,558.606,1247.5,558.8438,1247.4741,558.8438,1247.3578,564.8438,1247.3722,570.8438,1247.4773,576.8438,1247.2695,582.8438,1247.5,588.8438,1247.5,589.0283,1245.5,588.6337,1243.5,588.7778,1241.5,588.9877,1239.5,588.8152,1237.5,588.8438,1237.5227,588.8438,1237.4894,582.8438,1237.5595,576.8438,1237.5797,570.8438,1237.6952,564.8438,1237.5,558.8438" style="stroke:#383838;stroke-width:1.0;"/><polygon fill="#FFFFFF" points="1237.5,642.1094,1237.5,642.1794,1239.5,641.9713,1241.5,642.1738,1243.5,642.2426,1245.5,641.8716,1247.5,642.1094,1247.4741,642.1094,1247.3578,648.1094,1247.3722,654.1094,1247.4773,660.1094,1247.2695,666.1094,1247.5,672.1094,1247.5,672.2939,1245.5,671.8993,1243.5,672.0435,1241.5,672.2534,1239.5,672.0808,1237.5,672.1094,1237.5227,672.1094,1237.4894,666.1094,1237.5595,660.1094,1237.5797,654.1094,1237.6952,648.1094,1237.5,642.1094" style="stroke:#383838;stroke-width:1.0;"/><polygon fill="#FFFFFF" points="1391,412.3125,1391,412.3826,1393,412.1744,1395,412.3769,1397,412.4457,1399,412.0747,1401,412.3125,1400.9741,412.3125,1400.8578,418.3125,1400.8722,424.3125,1400.9773,430.3125,1400.7695,436.3125,1401,442.3125,1401,442.497,1399,442.1024,1397,442.2466,1395,442.4565,1393,442.2839,1391,442.3125,1391.0227,442.3125,1390.9894,436.3125,1391.0595,430.3125,1391.0797,424.3125,1391.1952,418.3125,1391,412.3125" style="stroke:#383838;stroke-width:1.0;"/><polygon fill="#FFFFFF" points="1391,701.2422,1391,701.3122,1393,701.1041,1395,701.3066,1397,701.3754,1399,701.0044,1401,701.2422,1400.9741,701.2422,1400.8578,707.2422,1400.8722,713.2422,1400.9773,719.2422,1400.7695,725.2422,1401,731.2422,1401,731.4267,1399,731.0321,1397,731.1763,1395,731.3862,1393,731.2136,1391,731.2422,1391.0227,731.2422,1390.9894,725.2422,1391.0595,719.2422,1391.0797,713.2422,1391.1952,707.2422,1391,701.2422" style="stroke:#383838;stroke-width:1.0;"/><polygon fill="#383838" points="477,146.3828,477.026,146.4479,478.9487,147.0546,481.0239,148.0426,483.0495,148.9065,484.9117,149.362,487,150.3828,486.9904,150.3588,484.9472,151.0508,482.9525,151.8641,480.9916,152.7617,478.9144,153.3688,477,154.3828,477.1305,154.5133,477.6514,153.4343,478.5534,152.7362,479.5018,152.0846,480.1798,151.1626,481,150.3828,481.0161,150.3989,480.1925,149.5753,479.4421,148.8249,478.6564,148.0392,477.938,147.3209,477,146.3828" style="stroke:#383838;stroke-width:1.0;"/><path d="M47,150.3828 L47,150.6631 L56.9091,149.8304 L66.8182,150.6405 L76.7273,150.9157 L86.6364,149.4316 L96.5455,150.2792 L106.4545,149.8142 L116.3636,149.8715 L126.2727,150.2919 L136.1818,149.461 L146.0909,151.121 L156,149.5424 L165.9091,150.1191 L175.8182,150.9587 L185.7273,150.2684 L195.6364,150.4738 L205.5455,150.3402 L215.4545,150.6208 L225.3636,150.7017 L235.2727,151.1637 L245.1818,151.2776 L255.0909,151.2885 L265,150.7223 L274.9091,151.0009 L284.8182,151.3191 L294.7273,149.4212 L304.6364,151.2875 L314.5455,149.9875 L324.4545,151.0946 L334.3636,149.7228 L344.2727,150.2915 L354.1818,151.3716 L364.0909,150.3178 L374,150.5232 L383.9091,150.8343 L393.8182,150.9378 L403.7273,150.3776 L413.6364,150.7658 L423.5455,149.6196 L433.4545,150.762 L443.3636,151.1137 L453.2727,150.9755 L463.1818,151.2002 L473.0909,149.7387 L483,150.3828 " fill="none" style="stroke:#383838;stroke-width:1.0;"/><text fill="#000000" font-family="FG Virgil" font-size="13" lengthAdjust="spacing" textLength="423" x="54" y="145.3169">pretende consultar os catálogos de serviços e respetivos serviços</text><polygon fill="#383838" points="706,175.5156,706.026,175.5807,707.9487,176.1874,710.0239,177.1754,712.0495,178.0393,713.9117,178.4948,716,179.5156,715.9904,179.4916,713.9472,180.1836,711.9525,180.9969,709.9916,181.8945,707.9144,182.5017,706,183.5156,706.1305,183.6461,706.6514,182.5671,707.5534,181.869,708.5018,181.2174,709.1798,180.2954,710,179.5156,710.0161,179.5317,709.1925,178.7081,708.4421,177.9577,707.6564,177.172,706.938,176.4537,706,175.5156" style="stroke:#383838;stroke-width:1.0;"/><path d="M499,179.5156 L499,179.7959 L509.1429,178.9632 L519.2857,179.7733 L529.4286,180.0485 L539.5714,178.5644 L549.7143,179.412 L559.8571,178.947 L570,179.0043 L580.1429,179.4247 L590.2857,178.5938 L600.4286,180.2538 L610.5714,178.6753 L620.7143,179.2519 L630.8571,180.0916 L641,179.4013 L651.1429,179.6066 L661.2857,179.473 L671.4286,179.7537 L681.5714,179.8345 L691.7143,180.2965 L701.8571,180.4104 L712,179.5156 " fill="none" style="stroke:#383838;stroke-width:1.0;"/><text fill="#000000" font-family="FG Virgil" font-size="13" lengthAdjust="spacing" textLength="132" x="506" y="174.4497">listCatalogoServico()</text><polygon fill="#383838" points="905.5,204.6484,905.526,204.7135,907.4487,205.3202,909.5239,206.3083,911.5495,207.1721,913.4117,207.6276,915.5,208.6484,915.4904,208.6244,913.4472,209.3164,911.4525,210.1297,909.4916,211.0273,907.4144,211.6345,905.5,212.6484,905.6305,212.7789,906.1514,211.6999,907.0534,211.0018,908.0018,210.3502,908.6798,209.4282,909.5,208.6484,909.5161,208.6645,908.6925,207.8409,907.9421,207.0905,907.1564,206.3048,906.438,205.5865,905.5,204.6484" style="stroke:#383838;stroke-width:1.0;"/><path d="M728,208.6484 L728,208.9287 L738.1944,208.096 L748.3889,208.9062 L758.5833,209.1813 L768.7778,207.6972 L778.9722,208.5448 L789.1667,208.0798 L799.3611,208.1371 L809.5556,208.5576 L819.75,207.7266 L829.9444,209.3866 L840.1389,207.8081 L850.3333,208.3847 L860.5278,209.2244 L870.7222,208.5341 L880.9167,208.7394 L891.1111,208.6058 L901.3056,208.8865 L911.5,208.6484 " fill="none" style="stroke:#383838;stroke-width:1.0;"/><text fill="#000000" font-family="FG Virgil" font-size="13" lengthAdjust="spacing" textLength="85" x="735" y="203.5825">repositories()</text><polygon fill="#383838" points="1067.5,233.7813,1067.526,233.8463,1069.4487,234.453,1071.5239,235.4411,1073.5495,236.3049,1075.4117,236.7605,1077.5,237.7813,1077.4904,237.7572,1075.4472,238.4493,1073.4525,239.2626,1071.4916,240.1602,1069.4144,240.7673,1067.5,241.7813,1067.6305,241.9117,1068.1514,240.8327,1069.0534,240.1346,1070.0018,239.4831,1070.6798,238.561,1071.5,237.7813,1071.5161,237.7973,1070.6925,236.9737,1069.9421,236.2233,1069.1564,235.4376,1068.438,234.7193,1067.5,233.7813" style="stroke:#383838;stroke-width:1.0;"/><path d="M927.5,237.7813 L927.5,238.0615 L937.2333,237.2288 L946.9667,238.039 L956.7,238.3142 L966.4333,236.8301 L976.1667,237.6776 L985.9,237.2126 L995.6333,237.2699 L1005.3667,237.6904 L1015.1,236.8594 L1024.8333,238.5194 L1034.5667,236.9409 L1044.3,237.5176 L1054.0333,238.3572 L1063.7667,237.6669 L1073.5,237.7813 " fill="none" style="stroke:#383838;stroke-width:1.0;stroke-dasharray:2.0,2.0;"/><text fill="#000000" font-family="FG Virgil" font-size="13" lengthAdjust="spacing" textLength="51" x="934.5" y="232.7153">create()</text><polygon fill="#383838" points="938.5,247.7813,938.526,247.8463,936.4487,248.453,934.5239,249.4411,932.5495,250.3049,930.4117,250.7605,928.5,251.7813,928.4904,251.7572,930.4472,252.4493,932.4525,253.2626,934.4916,254.1602,936.4144,254.7673,938.5,255.7813,938.6305,255.9117,937.5514,254.8327,936.8534,254.1346,936.2018,253.4831,935.2798,252.561,934.5,251.7813,934.5161,251.7973,935.2925,250.9737,936.1421,250.2233,936.9564,249.4376,937.838,248.7193,938.5,247.7813" style="stroke:#383838;stroke-width:1.0;"/><path d="M932.5,251.7813 L932.5,252.0615 L942.5667,251.2288 L952.6333,252.039 L962.7,252.3142 L972.7667,250.8301 L982.8333,251.6776 L992.9,251.2126 L1002.9667,251.2699 L1013.0333,251.6904 L1023.1,250.8594 L1033.1667,252.5194 L1043.2333,250.9409 L1053.3,251.5176 L1063.3667,252.3572 L1073.4333,251.6669 L1083.5,251.7813 " fill="none" style="stroke:#383838;stroke-width:1.0;stroke-dasharray:2.0,2.0;"/><polygon fill="#383838" points="739,261.7813,739.026,261.8463,736.9487,262.453,735.0239,263.4411,733.0495,264.3049,730.9117,264.7605,729,265.7813,728.9904,265.7572,730.9472,266.4493,732.9525,267.2626,734.9916,268.1602,736.9144,268.7673,739,269.7813,739.1305,269.9117,738.0514,268.8327,737.3534,268.1346,736.7018,267.4831,735.7798,266.561,735,265.7813,735.0161,265.7973,735.7925,264.9737,736.6421,264.2233,737.4564,263.4376,738.338,262.7193,739,261.7813" style="stroke:#383838;stroke-width:1.0;"/><path d="M733,265.7813 L733,266.0615 L742.9211,265.2288 L752.8421,266.039 L762.7632,266.3142 L772.6842,264.8301 L782.6053,265.6776 L792.5263,265.2126 L802.4474,265.2699 L812.3684,265.6904 L822.2895,264.8594 L832.2105,266.5194 L842.1316,264.9409 L852.0526,265.5176 L861.9737,266.3572 L871.8947,265.6669 L881.8158,265.8722 L891.7368,265.7387 L901.6579,266.0193 L911.5789,266.1001 L921.5,265.7813 " fill="none" style="stroke:#383838;stroke-width:1.0;stroke-dasharray:2.0,2.0;"/><polygon fill="#383838" points="1067.5,290.9141,1067.526,290.9791,1069.4487,291.5858,1071.5239,292.5739,1073.5495,293.4378,1075.4117,293.8933,1077.5,294.9141,1077.4904,294.89,1075.4472,295.5821,1073.4525,296.3954,1071.4916,297.293,1069.4144,297.9001,1067.5,298.9141,1067.6305,299.0446,1068.1514,297.9655,1069.0534,297.2674,1070.0018,296.6159,1070.6798,295.6938,1071.5,294.9141,1071.5161,294.9301,1070.6925,294.1065,1069.9421,293.3561,1069.1564,292.5704,1068.438,291.8521,1067.5,290.9141" style="stroke:#383838;stroke-width:1.0;"/><path d="M728,294.9141 L728,295.1943 L737.8714,294.3616 L747.7429,295.1718 L757.6143,295.447 L767.4857,293.9629 L777.3571,294.8104 L787.2286,294.3454 L797.1,294.4027 L806.9714,294.8232 L816.8429,293.9922 L826.7143,295.6523 L836.5857,294.0737 L846.4571,294.6504 L856.3286,295.49 L866.2,294.7997 L876.0714,295.005 L885.9429,294.8715 L895.8143,295.1521 L905.6857,295.2329 L915.5571,295.695 L925.4286,295.8088 L935.3,295.8197 L945.1714,295.2536 L955.0429,295.5322 L964.9143,295.8504 L974.7857,293.9525 L984.6571,295.8187 L994.5286,294.5187 L1004.4,295.6258 L1014.2714,294.254 L1024.1429,294.8227 L1034.0143,295.9029 L1043.8857,294.8491 L1053.7571,295.0545 L1063.6286,295.3656 L1073.5,294.9141 " fill="none" style="stroke:#383838;stroke-width:1.0;"/><text fill="#000000" font-family="FG Virgil" font-size="13" lengthAdjust="spacing" textLength="72" x="735" y="289.8481">catalogos()</text><polygon fill="#383838" points="1225.5,320.0469,1225.526,320.1119,1227.4487,320.7186,1229.5239,321.7067,1231.5495,322.5706,1233.4117,323.0261,1235.5,324.0469,1235.4904,324.0228,1233.4472,324.7149,1231.4525,325.5282,1229.4916,326.4258,1227.4144,327.0329,1225.5,328.0469,1225.6305,328.1774,1226.1514,327.0983,1227.0534,326.4003,1228.0018,325.7487,1228.6798,324.8267,1229.5,324.0469,1229.5161,324.063,1228.6925,323.2393,1227.9421,322.489,1227.1564,321.7032,1226.438,320.9849,1225.5,320.0469" style="stroke:#383838;stroke-width:1.0;"/><path d="M1089.5,324.0469 L1089.5,324.3271 L1099.6429,323.4944 L1109.7857,324.3046 L1119.9286,324.5798 L1130.0714,323.0957 L1140.2143,323.9433 L1150.3571,323.4782 L1160.5,323.5355 L1170.6429,323.956 L1180.7857,323.125 L1190.9286,324.7851 L1201.0714,323.2065 L1211.2143,323.7832 L1221.3571,324.6228 L1231.5,324.0469 " fill="none" style="stroke:#383838;stroke-width:1.0;stroke-dasharray:2.0,2.0;"/><text fill="#000000" font-family="FG Virgil" font-size="13" lengthAdjust="spacing" textLength="51" x="1096.5" y="318.981">create()</text><polygon fill="#383838" points="1067.5,379.1797,1067.526,379.2447,1069.4487,379.8515,1071.5239,380.8395,1073.5495,381.7034,1075.4117,382.1589,1077.5,383.1797,1077.4904,383.1556,1075.4472,383.8477,1073.4525,384.661,1071.4916,385.5586,1069.4144,386.1657,1067.5,387.1797,1067.6305,387.3102,1068.1514,386.2311,1069.0534,385.5331,1070.0018,384.8815,1070.6798,383.9595,1071.5,383.1797,1071.5161,383.1958,1070.6925,382.3722,1069.9421,381.6218,1069.1564,380.8361,1068.438,380.1177,1067.5,379.1797" style="stroke:#383838;stroke-width:1.0;"/><path d="M728,383.1797 L728,383.4599 L737.8714,382.6273 L747.7429,383.4374 L757.6143,383.7126 L767.4857,382.2285 L777.3571,383.0761 L787.2286,382.611 L797.1,382.6684 L806.9714,383.0888 L816.8429,382.2579 L826.7143,383.9179 L836.5857,382.3393 L846.4571,382.916 L856.3286,383.7556 L866.2,383.0653 L876.0714,383.2707 L885.9429,383.1371 L895.8143,383.4177 L905.6857,383.4985 L915.5571,383.9606 L925.4286,384.0744 L935.3,384.0854 L945.1714,383.5192 L955.0429,383.7978 L964.9143,384.116 L974.7857,382.2181 L984.6571,384.0844 L994.5286,382.7843 L1004.4,383.8914 L1014.2714,382.5197 L1024.1429,383.0884 L1034.0143,384.1685 L1043.8857,383.1147 L1053.7571,383.3201 L1063.6286,383.6312 L1073.5,383.1797 " fill="none" style="stroke:#383838;stroke-width:1.0;"/><text fill="#000000" font-family="FG Virgil" font-size="13" lengthAdjust="spacing" textLength="63" x="735" y="378.1138">servicos()</text><polygon fill="#383838" points="1379,408.3125,1379.026,408.3775,1380.9487,408.9843,1383.0239,409.9723,1385.0495,410.8362,1386.9117,411.2917,1389,412.3125,1388.9904,412.2884,1386.9472,412.9805,1384.9525,413.7938,1382.9916,414.6914,1380.9144,415.2985,1379,416.3125,1379.1305,416.443,1379.6514,415.3639,1380.5534,414.6659,1381.5018,414.0143,1382.1798,413.0923,1383,412.3125,1383.0161,412.3286,1382.1925,411.505,1381.4421,410.7546,1380.6564,409.9689,1379.938,409.2505,1379,408.3125" style="stroke:#383838;stroke-width:1.0;"/><path d="M1089.5,412.3125 L1089.5,412.5927 L1099.35,411.7601 L1109.2,412.5702 L1119.05,412.8454 L1128.9,411.3613 L1138.75,412.2089 L1148.6,411.7438 L1158.45,411.8012 L1168.3,412.2216 L1178.15,411.3907 L1188,413.0507 L1197.85,411.4721 L1207.7,412.0488 L1217.55,412.8884 L1227.4,412.1981 L1237.25,412.4035 L1247.1,412.2699 L1256.95,412.5505 L1266.8,412.6313 L1276.65,413.0934 L1286.5,413.2072 L1296.35,413.2182 L1306.2,412.652 L1316.05,412.9306 L1325.9,413.2488 L1335.75,411.3509 L1345.6,413.2172 L1355.45,411.9172 L1365.3,413.0242 L1375.15,411.6525 L1385,412.3125 " fill="none" style="stroke:#383838;stroke-width:1.0;stroke-dasharray:2.0,2.0;"/><text fill="#000000" font-family="FG Virgil" font-size="13" lengthAdjust="spacing" textLength="51" x="1096.5" y="407.2466">create()</text><polygon fill="#383838" points="58,467.4453,58.026,467.5104,55.9487,468.1171,54.0239,469.1051,52.0495,469.969,49.9117,470.4245,48,471.4453,47.9904,471.4213,49.9472,472.1133,51.9525,472.9266,53.9916,473.8242,55.9144,474.4313,58,475.4453,58.1305,475.5758,57.0514,474.4968,56.3534,473.7987,55.7018,473.1471,54.7798,472.2251,54,471.4453,54.0161,471.4614,54.7925,470.6378,55.6421,469.8874,56.4564,469.1017,57.338,468.3834,58,467.4453" style="stroke:#383838;stroke-width:1.0;"/><path d="M52,471.4453 L52,471.7256 L62.0227,470.8929 L72.0455,471.703 L82.0682,471.9782 L92.0909,470.4941 L102.1136,471.3417 L112.1364,470.8767 L122.1591,470.934 L132.1818,471.3544 L142.2045,470.5235 L152.2273,472.1835 L162.25,470.6049 L172.2727,471.1816 L182.2955,472.0212 L192.3182,471.3309 L202.3409,471.5363 L212.3636,471.4027 L222.3864,471.6833 L232.4091,471.7642 L242.4318,472.2262 L252.4545,472.3401 L262.4773,472.351 L272.5,471.7848 L282.5227,472.0634 L292.5455,472.3816 L302.5682,470.4837 L312.5909,472.35 L322.6136,471.05 L332.6364,472.1571 L342.6591,470.7853 L352.6818,471.354 L362.7045,472.4341 L372.7273,471.3803 L382.75,471.5857 L392.7727,471.8968 L402.7955,472.0003 L412.8182,471.4401 L422.8409,471.8283 L432.8636,470.6821 L442.8864,471.8245 L452.9091,472.1762 L462.9318,472.038 L472.9545,472.2627 L482.9773,470.8012 L493,471.4453 " fill="none" style="stroke:#383838;stroke-width:1.0;stroke-dasharray:2.0,2.0;"/><text fill="#000000" font-family="FG Virgil" font-size="13" lengthAdjust="spacing" textLength="346" x="64" y="466.3794">requisita as keywords ou titulo dos serviços/catálogos</text><polygon fill="#383838" points="477,496.5781,477.026,496.6432,478.9487,497.2499,481.0239,498.2379,483.0495,499.1018,484.9117,499.5573,487,500.5781,486.9904,500.5541,484.9472,501.2461,482.9525,502.0594,480.9916,502.957,478.9144,503.5642,477,504.5781,477.1305,504.7086,477.6514,503.6296,478.5534,502.9315,479.5018,502.2799,480.1798,501.3579,481,500.5781,481.0161,500.5942,480.1925,499.7706,479.4421,499.0202,478.6564,498.2345,477.938,497.5162,477,496.5781" style="stroke:#383838;stroke-width:1.0;"/><path d="M47,500.5781 L47,500.8584 L56.9091,500.0257 L66.8182,500.8358 L76.7273,501.111 L86.6364,499.6269 L96.5455,500.4745 L106.4545,500.0095 L116.3636,500.0668 L126.2727,500.4872 L136.1818,499.6563 L146.0909,501.3163 L156,499.7378 L165.9091,500.3144 L175.8182,501.1541 L185.7273,500.4638 L195.6364,500.6691 L205.5455,500.5355 L215.4545,500.8162 L225.3636,500.897 L235.2727,501.359 L245.1818,501.4729 L255.0909,501.4838 L265,500.9176 L274.9091,501.1962 L284.8182,501.5144 L294.7273,499.6165 L304.6364,501.4828 L314.5455,500.1828 L324.4545,501.2899 L334.3636,499.9181 L344.2727,500.4868 L354.1818,501.5669 L364.0909,500.5131 L374,500.7185 L383.9091,501.0296 L393.8182,501.1331 L403.7273,500.5729 L413.6364,500.9611 L423.5455,499.8149 L433.4545,500.9573 L443.3636,501.3091 L453.2727,501.1708 L463.1818,501.3955 L473.0909,499.934 L483,500.5781 " fill="none" style="stroke:#383838;stroke-width:1.0;"/><text fill="#000000" font-family="FG Virgil" font-size="13" lengthAdjust="spacing" textLength="172" x="54" y="495.5122">insere os dados solicitados</text><polygon fill="#383838" points="706,525.7109,706.026,525.776,707.9487,526.3827,710.0239,527.3708,712.0495,528.2346,713.9117,528.6901,716,529.7109,715.9904,529.6869,713.9472,530.3789,711.9525,531.1922,709.9916,532.0898,707.9144,532.697,706,533.7109,706.1305,533.8414,706.6514,532.7624,707.5534,532.0643,708.5018,531.4127,709.1798,530.4907,710,529.7109,710.0161,529.727,709.1925,528.9034,708.4421,528.153,707.6564,527.3673,706.938,526.649,706,525.7109" style="stroke:#383838;stroke-width:1.0;"/><path d="M499,529.7109 L499,529.9912 L509.1429,529.1585 L519.2857,529.9687 L529.4286,530.2438 L539.5714,528.7597 L549.7143,529.6073 L559.8571,529.1423 L570,529.1996 L580.1429,529.6201 L590.2857,528.7891 L600.4286,530.4491 L610.5714,528.8706 L620.7143,529.4472 L630.8571,530.2869 L641,529.5966 L651.1429,529.8019 L661.2857,529.6683 L671.4286,529.949 L681.5714,530.0298 L691.7143,530.4919 L701.8571,530.6057 L712,529.7109 " fill="none" style="stroke:#383838;stroke-width:1.0;"/><text fill="#000000" font-family="FG Virgil" font-size="13" lengthAdjust="spacing" textLength="200" x="506" y="524.645">findCatalogos(titulo, keywords)</text><polygon fill="#383838" points="1225.5,554.8438,1225.526,554.9088,1227.4487,555.5155,1229.5239,556.5036,1231.5495,557.3674,1233.4117,557.823,1235.5,558.8438,1235.4904,558.8197,1233.4472,559.5118,1231.4525,560.3251,1229.4916,561.2227,1227.4144,561.8298,1225.5,562.8438,1225.6305,562.9742,1226.1514,561.8952,1227.0534,561.1971,1228.0018,560.5456,1228.6798,559.6235,1229.5,558.8438,1229.5161,558.8598,1228.6925,558.0362,1227.9421,557.2858,1227.1564,556.5001,1226.438,555.7818,1225.5,554.8438" style="stroke:#383838;stroke-width:1.0;"/><path d="M728,558.8438 L728,559.124 L738.07,558.2913 L748.14,559.1015 L758.21,559.3767 L768.28,557.8926 L778.35,558.7401 L788.42,558.2751 L798.49,558.3324 L808.56,558.7529 L818.63,557.9219 L828.7,559.5819 L838.77,558.0034 L848.84,558.5801 L858.91,559.4197 L868.98,558.7294 L879.05,558.9347 L889.12,558.8012 L899.19,559.0818 L909.26,559.1626 L919.33,559.6247 L929.4,559.7385 L939.47,559.7494 L949.54,559.1833 L959.61,559.4619 L969.68,559.7801 L979.75,557.8822 L989.82,559.7484 L999.89,558.4484 L1009.96,559.5555 L1020.03,558.1837 L1030.1,558.7524 L1040.17,559.8326 L1050.24,558.7788 L1060.31,558.9842 L1070.38,559.2953 L1080.45,559.3987 L1090.52,558.8385 L1100.59,559.2267 L1110.66,558.0805 L1120.73,559.2229 L1130.8,559.5747 L1140.87,559.4365 L1150.94,559.6611 L1161.01,558.1996 L1171.08,557.9742 L1181.15,558.0152 L1191.22,558.7652 L1201.29,558.5817 L1211.36,559.7523 L1221.43,558.6108 L1231.5,558.8438 " fill="none" style="stroke:#383838;stroke-width:1.0;"/><text fill="#000000" font-family="FG Virgil" font-size="13" lengthAdjust="spacing" textLength="227" x="735" y="553.7778">listCatalogo  = findCatalogos(titulo)</text><path d="M602,603.8438 L602,604.4042 L611.75,602.7389 L621.5,604.3592 L631.25,604.9096 L641,601.9414 L650.75,603.6365 L660.5,602.7064 L670.25,602.8211 L680,603.8438 L679.9394,603.8438 L679.3854,605.2438 L680.4921,606.6438 L679.4398,608.0438 L679.8242,609.4438 L680,610.8438 L680.2715,611.1152 L677.9461,612.7898 L676.0429,614.8866 L673.9799,616.8237 L672.1122,618.956 L670,620.8438 L670,621.4814 L660.2857,622.4056 L650.5714,622.6332 L640.8571,622.6551 L631.1429,621.5228 L621.4286,622.08 L611.7143,622.7164 L602,620.8438 L601.3589,620.8438 L602.6031,617.4438 L601.7364,614.0438 L602.4745,610.6438 L601.56,607.2438 L602,603.8438 " fill="#EEEEEE" style="stroke:#000000;stroke-width:1.0;"/><polygon fill="none" points="602,603.8438,602,604.0539,612.0345,603.4294,622.069,604.037,632.1034,604.2434,642.1379,603.1304,652.1724,603.766,662.2069,603.4173,672.2414,603.4603,682.2759,603.7756,692.3103,603.1524,702.3448,604.3974,712.3793,603.2135,722.4138,603.646,732.4483,604.2757,742.4828,603.758,752.5172,603.912,762.5517,603.8118,772.5862,604.0223,782.6207,604.0829,792.6552,604.4294,802.6897,604.5148,812.7241,604.523,822.7586,604.0984,832.7931,604.3073,842.8276,604.546,852.8621,603.1226,862.8966,604.5223,872.931,603.5472,882.9655,604.3776,893,603.3487,903.0345,603.7753,913.069,604.5854,923.1034,603.795,933.1379,603.9491,943.1724,604.1824,953.2069,604.26,963.2414,603.8398,973.2759,604.131,983.3103,603.2713,993.3448,604.1281,1003.3793,604.3919,1013.4138,604.2883,1023.4483,604.4568,1033.4828,603.3607,1043.5172,603.1916,1053.5517,603.2223,1063.5862,603.7849,1073.6207,603.6472,1083.6552,604.5252,1093.6897,603.6691,1103.7241,603.5007,1113.7586,604.072,1123.7931,603.1769,1133.8276,603.3246,1143.8621,604.4927,1153.8966,604.2794,1163.931,604.5782,1173.9655,603.522,1184,604.1629,1194.0345,604.4342,1204.069,603.3713,1214.1034,603.7479,1224.1379,603.9697,1234.1724,604.4955,1244.2069,603.8396,1254.2414,604.3063,1264.2759,603.29,1274.3103,603.1665,1284.3448,604.3474,1294.3793,603.1268,1304.4138,604.3527,1314.4483,604.0504,1324.4828,603.5758,1334.5172,603.49,1344.5517,604.3025,1354.5862,603.5444,1364.6207,604.4356,1374.6552,603.291,1384.6897,604.4612,1394.7241,604.3281,1404.7586,604.0887,1414.7931,603.891,1424.8276,604.5704,1434.8621,604.4573,1444.8966,604.013,1454.931,604.1119,1464.9655,603.7135,1475,603.8438,1475.7165,603.8438,1475.1549,613.5151,1475.1726,623.1864,1474.3916,632.8577,1474.5948,642.529,1475.5307,652.2003,1475.4298,661.8717,1474.9571,671.543,1474.6778,681.2143,1474.7811,690.8856,1474.3138,700.5569,1475.4147,710.2282,1475.7396,719.8996,1475.5264,729.5709,1475,739.2422,1475,739.9371,1464.9655,739.1055,1454.931,739.3294,1444.8966,738.8546,1434.8621,739.5262,1424.8276,739.489,1414.7931,739.7946,1404.7586,739.0125,1394.7241,739.1078,1384.6897,739.6856,1374.6552,739.8095,1364.6207,738.7297,1354.5862,739.0483,1344.5517,739.3915,1334.5172,738.6313,1324.4828,739.5956,1314.4483,739.5002,1304.4138,739.1414,1294.3793,739.3844,1284.3448,739.9709,1274.3103,738.9293,1264.2759,739.5572,1254.2414,739.5278,1244.2069,739.358,1234.1724,739.3831,1224.1379,739.3557,1214.1034,738.618,1204.069,738.8414,1194.0345,738.7807,1184,739.306,1173.9655,739.3303,1163.931,739.4039,1153.8966,738.9512,1143.8621,739.1747,1133.8276,739.122,1123.7931,739.819,1113.7586,739.6688,1103.7241,738.7567,1093.6897,739.1693,1083.6552,738.665,1073.6207,739.5306,1063.5862,739.8507,1053.5517,739.7868,1043.5172,738.8066,1033.4828,739.7062,1023.4483,738.4994,1013.4138,739.4423,1003.3793,738.9429,993.3448,739.3389,983.3103,739.4825,973.2759,739.7143,963.2414,738.5223,953.2069,739.7177,943.1724,739.4204,933.1379,739.5975,923.1034,739.99,913.069,739.2477,903.0345,739.4175,893,739.4556,882.9655,739.4394,872.931,739.2414,862.8966,739.9529,852.8621,738.6324,842.8276,739.8075,832.7931,738.6182,822.7586,738.7019,812.7241,739.2822,802.6897,739.2705,792.6552,738.7494,782.6207,739.6559,772.5862,739.351,762.5517,739.9688,752.5172,739.9093,742.4828,738.7939,732.4483,738.8443,722.4138,739.113,712.3793,739.5977,702.3448,739.6452,692.3103,739.5433,682.2759,738.9002,672.2414,739.8785,662.2069,739.876,652.1724,739.1949,642.1379,739.0031,632.1034,738.8408,622.069,739.0276,612.0345,739.3796,602,739.2422,601.9316,739.2422,601.5822,729.5709,602.4874,719.8996,601.5411,710.2282,602.5024,700.5569,602.4272,690.8856,602.3719,681.2143,602.6925,671.543,601.7541,661.8717,601.6994,652.2003,602.5189,642.529,601.4031,632.8577,601.766,623.1864,602.1155,613.5151,602,603.8438" style="stroke:#000000;stroke-width:2.0;"/><text fill="#000000" font-family="FG Virgil" font-size="13" font-weight="bold" lengthAdjust="spacing" textLength="33" x="617" y="616.9106">loop</text><a href="para" target="_top" title="para" xlink:actuate="onRequest" xlink:href="para" xlink:show="new" xlink:title="para" xlink:type="simple"><text fill="#1C1C1C" font-family="FG Virgil" font-size="11" font-weight="bold" lengthAdjust="spacing" text-decoration="underline" textLength="95" x="695" y="616.0542">cada catalogo</text></a><polygon fill="#383838" points="1225.5,638.1094,1225.526,638.1744,1227.4487,638.7811,1229.5239,639.7692,1231.5495,640.6331,1233.4117,641.0886,1235.5,642.1094,1235.4904,642.0853,1233.4472,642.7774,1231.4525,643.5907,1229.4916,644.4883,1227.4144,645.0954,1225.5,646.1094,1225.6305,646.2399,1226.1514,645.1608,1227.0534,644.4628,1228.0018,643.8112,1228.6798,642.8892,1229.5,642.1094,1229.5161,642.1255,1228.6925,641.3018,1227.9421,640.5515,1227.1564,639.7657,1226.438,639.0474,1225.5,638.1094" style="stroke:#383838;stroke-width:1.0;"/><path d="M728,642.1094 L728,642.3896 L738.07,641.5569 L748.14,642.3671 L758.21,642.6423 L768.28,641.1582 L778.35,642.0058 L788.42,641.5407 L798.49,641.598 L808.56,642.0185 L818.63,641.1875 L828.7,642.8476 L838.77,641.269 L848.84,641.8457 L858.91,642.6853 L868.98,641.995 L879.05,642.2004 L889.12,642.0668 L899.19,642.3474 L909.26,642.4282 L919.33,642.8903 L929.4,643.0041 L939.47,643.0151 L949.54,642.4489 L959.61,642.7275 L969.68,643.0457 L979.75,641.1478 L989.82,643.0141 L999.89,641.714 L1009.96,642.8211 L1020.03,641.4493 L1030.1,642.018 L1040.17,643.0982 L1050.24,642.0444 L1060.31,642.2498 L1070.38,642.5609 L1080.45,642.6644 L1090.52,642.1042 L1100.59,642.4923 L1110.66,641.3462 L1120.73,642.4886 L1130.8,642.8403 L1140.87,642.7021 L1150.94,642.9267 L1161.01,641.4653 L1171.08,641.2398 L1181.15,641.2808 L1191.22,642.0309 L1201.29,641.8473 L1211.36,643.0179 L1221.43,641.8765 L1231.5,642.1094 " fill="none" style="stroke:#383838;stroke-width:1.0;"/><text fill="#000000" font-family="FG Virgil" font-size="13" lengthAdjust="spacing" textLength="290" x="735" y="637.0435">listTotalServico  = findAllServico(listCatalogo)</text><polygon fill="#383838" points="1379,697.2422,1379.026,697.3072,1380.9487,697.914,1383.0239,698.902,1385.0495,699.7659,1386.9117,700.2214,1389,701.2422,1388.9904,701.2181,1386.9472,701.9102,1384.9525,702.7235,1382.9916,703.6211,1380.9144,704.2282,1379,705.2422,1379.1305,705.3727,1379.6514,704.2936,1380.5534,703.5956,1381.5018,702.944,1382.1798,702.022,1383,701.2422,1383.0161,701.2583,1382.1925,700.4347,1381.4421,699.6843,1380.6564,698.8986,1379.938,698.1802,1379,697.2422" style="stroke:#383838;stroke-width:1.0;"/><path d="M728,701.2422 L728,701.5224 L737.9545,700.6898 L747.9091,701.4999 L757.8636,701.7751 L767.8182,700.291 L777.7727,701.1386 L787.7273,700.6735 L797.6818,700.7309 L807.6364,701.1513 L817.5909,700.3204 L827.5455,701.9804 L837.5,700.4018 L847.4545,700.9785 L857.4091,701.8181 L867.3636,701.1278 L877.3182,701.3332 L887.2727,701.1996 L897.2273,701.4802 L907.1818,701.561 L917.1364,702.0231 L927.0909,702.1369 L937.0455,702.1479 L947,701.5817 L956.9545,701.8603 L966.9091,702.1785 L976.8636,700.2806 L986.8182,702.1469 L996.7727,700.8468 L1006.7273,701.9539 L1016.6818,700.5822 L1026.6364,701.1509 L1036.5909,702.231 L1046.5455,701.1772 L1056.5,701.3826 L1066.4545,701.6937 L1076.4091,701.7972 L1086.3636,701.237 L1096.3182,701.6251 L1106.2727,700.479 L1116.2273,701.6214 L1126.1818,701.9731 L1136.1364,701.8349 L1146.0909,702.0596 L1156.0455,700.5981 L1166,700.3726 L1175.9545,700.4137 L1185.9091,701.1637 L1195.8636,700.9801 L1205.8182,702.1507 L1215.7727,701.0093 L1225.7273,700.7848 L1235.6818,701.5465 L1245.6364,700.3531 L1255.5909,700.55 L1265.5455,702.1075 L1275.5,701.8231 L1285.4545,702.2215 L1295.4091,700.8131 L1305.3636,701.6678 L1315.3182,702.0294 L1325.2727,700.6123 L1335.2273,701.1144 L1345.1818,701.4102 L1355.1364,702.1112 L1365.0909,701.2366 L1375.0455,701.8589 L1385,701.2422 " fill="none" style="stroke:#383838;stroke-width:1.0;"/><text fill="#000000" font-family="FG Virgil" font-size="13" lengthAdjust="spacing" textLength="371" x="735" y="696.1763">listServico = findServico(listTotalServico, keywords, titulo)</text><polygon fill="#383838" points="53,763.375,53.026,763.44,50.9487,764.0468,49.0239,765.0348,47.0495,765.8987,44.9117,766.3542,43,767.375,42.9904,767.3509,44.9472,768.043,46.9525,768.8563,48.9916,769.7539,50.9144,770.361,53,771.375,53.1305,771.5055,52.0514,770.4264,51.3534,769.7284,50.7018,769.0768,49.7798,768.1548,49,767.375,49.0161,767.3911,49.7925,766.5675,50.6421,765.8171,51.4564,765.0314,52.338,764.313,53,763.375" style="stroke:#383838;stroke-width:1.0;"/><path d="M47,767.375 L47,767.6552 L56.9111,766.8226 L66.8222,767.6327 L76.7333,767.9079 L86.6444,766.4238 L96.5556,767.2714 L106.4667,766.8063 L116.3778,766.8637 L126.2889,767.2841 L136.2,766.4532 L146.1111,768.1132 L156.0222,766.5346 L165.9333,767.1113 L175.8444,767.9509 L185.7556,767.2606 L195.6667,767.466 L205.5778,767.3324 L215.4889,767.613 L225.4,767.6938 L235.3111,768.1559 L245.2222,768.2697 L255.1333,768.2807 L265.0444,767.7145 L274.9556,767.9931 L284.8667,768.3113 L294.7778,766.4134 L304.6889,768.2797 L314.6,766.9797 L324.5111,768.0867 L334.4222,766.715 L344.3333,767.2837 L354.2444,768.3638 L364.1556,767.31 L374.0667,767.5154 L383.9778,767.8265 L393.8889,767.93 L403.8,767.3698 L413.7111,767.758 L423.6222,766.6118 L433.5333,767.7542 L443.4444,768.1059 L453.3556,767.9677 L463.2667,768.1924 L473.1778,766.7309 L483.0889,766.5054 L493,767.375 " fill="none" style="stroke:#383838;stroke-width:1.0;stroke-dasharray:2.0,2.0;"/><text fill="#000000" font-family="FG Virgil" font-size="13" lengthAdjust="spacing" textLength="371" x="59" y="762.3091">apresenta  os catálogos de serviços e respetivos serviços</text><!--MD5=[0ce66131c22c53cdd790ef883d061747]
@startuml
title SD-Consultar os catálogos de serviços e respetivos serviços


'http://plantuml.com/skinparam.html
skinparam handwritten true
skinparam monochrome true
skinparam packageStyle rect
skinparam defaultFontName FG Virgil
skinparam shadowing false

actor Utilizador as Actor
participant ListCatalogoServicoUI as UI <<presentation>>
control ListCatalogoServicoController as Controller <<application>>
participant PersistenceContext as Persistence <<persistence>>
participant RepositoryFactory as Factory <<factory>>
database CatalogoRepository as CRepository <<repository>>
database ServicoRepository as  SRepository <<repository>>


activate Actor
Actor -> UI: pretende consultar os catálogos de serviços e respetivos serviços
activate UI
    UI -> Controller: listCatalogoServico()
    activate Controller
        Controller -> Persistence: repositories()
        activate Persistence
            Persistence - -> Factory: create()
            activate Factory
                Factory - -> Persistence:
            deactivate Factory
            Persistence - -> Controller:
        deactivate Persistence
        Controller -> Factory: catalogos()
        activate Factory
            Factory - -> CRepository : create()
            activate CRepository
            deactivate CRepository
        deactivate Factory
        Controller -> Factory: servicos()
        activate Factory
            Factory - -> SRepository : create()
            activate SRepository
            deactivate SRepository
        deactivate Factory
        
    deactivate Controller
    UI - -> Actor: requisita as keywords ou titulo dos serviços/catálogos 
deactivate UI
Actor -> UI: insere os dados solicitados
activate UI
    UI -> Controller:  findCatalogos(titulo, keywords)
    activate Controller
        Controller -> CRepository: listCatalogo  = findCatalogos(titulo)
        activate CRepository
        deactivate CRepository
        loop [para cada catalogo]

        Controller -> CRepository: listTotalServico  = findAllServico(listCatalogo)
        activate CRepository
        deactivate CRepository
        Controller -> SRepository: listServico = findServico(listTotalServico, keywords, titulo)
        activate SRepository
        deactivate SRepository
        end
    deactivate Controller
    UI - -> Actor: apresenta  os catálogos de serviços e respetivos serviços
deactivate UI
deactivate Actor
@enduml

@startuml
title SD-Consultar os catálogos de serviços e respetivos serviços


skinparam handwritten true
skinparam monochrome true
skinparam packageStyle rect
skinparam defaultFontName FG Virgil
skinparam shadowing false

actor Utilizador as Actor
participant ListCatalogoServicoUI as UI <<presentation>>
control ListCatalogoServicoController as Controller <<application>>
participant PersistenceContext as Persistence <<persistence>>
participant RepositoryFactory as Factory <<factory>>
database CatalogoRepository as CRepository <<repository>>
database ServicoRepository as  SRepository <<repository>>


activate Actor
Actor -> UI: pretende consultar os catálogos de serviços e respetivos serviços
activate UI
    UI -> Controller: listCatalogoServico()
    activate Controller
        Controller -> Persistence: repositories()
        activate Persistence
            Persistence - -> Factory: create()
            activate Factory
                Factory - -> Persistence:
            deactivate Factory
            Persistence - -> Controller:
        deactivate Persistence
        Controller -> Factory: catalogos()
        activate Factory
            Factory - -> CRepository : create()
            activate CRepository
            deactivate CRepository
        deactivate Factory
        Controller -> Factory: servicos()
        activate Factory
            Factory - -> SRepository : create()
            activate SRepository
            deactivate SRepository
        deactivate Factory
        
    deactivate Controller
    UI - -> Actor: requisita as keywords ou titulo dos serviços/catálogos 
deactivate UI
Actor -> UI: insere os dados solicitados
activate UI
    UI -> Controller:  findCatalogos(titulo, keywords)
    activate Controller
        Controller -> CRepository: listCatalogo  = findCatalogos(titulo)
        activate CRepository
        deactivate CRepository
        loop [para cada catalogo]

        Controller -> CRepository: listTotalServico  = findAllServico(listCatalogo)
        activate CRepository
        deactivate CRepository
        Controller -> SRepository: listServico = findServico(listTotalServico, keywords, titulo)
        activate SRepository
        deactivate SRepository
        end
    deactivate Controller
    UI - -> Actor: apresenta  os catálogos de serviços e respetivos serviços
deactivate UI
deactivate Actor
@enduml

PlantUML version 1.2021.5(Sun Apr 25 11:20:28 UTC 2021)
(GPL source distribution)
Java Runtime: Java(TM) SE Runtime Environment
JVM: Java HotSpot(TM) 64-Bit Server VM
Default Encoding: UTF-8
Language: en
Country: US
--></g></svg>