<?xml version="1.0" encoding="UTF-8" standalone="no"?><svg xmlns="http://www.w3.org/2000/svg" xmlns:xlink="http://www.w3.org/1999/xlink" contentScriptType="application/ecmascript" contentStyleType="text/css" height="602px" preserveAspectRatio="none" style="width:579px;height:602px;" version="1.1" viewBox="0 0 579 602" width="579px" zoomAndPan="magnify"><defs/><g><polygon fill="#FFFFFF" points="62,94.2969,62,94.3669,64,94.1588,66,94.3613,68,94.4301,70,94.0591,72,94.2969,71.9223,94.2969,71.5735,104.2447,71.6165,114.1925,71.9318,124.1402,71.3086,134.088,72.5536,144.0358,71.3697,153.9836,71.8022,163.9314,72.4319,173.8792,71.9142,183.827,72.0682,193.7748,71.9681,203.7226,72.1785,213.6704,72.2391,223.6181,72.5857,233.5659,72.6711,243.5137,72.6793,253.4615,72.2546,263.4093,72.4636,273.3571,72.7022,283.3049,71.2788,293.2527,72.6785,303.2005,71.7035,313.1482,72.5338,323.096,71.505,333.0438,71.9315,342.9916,72.7416,352.9394,71.9513,362.8872,72.1053,372.835,72.3386,382.7828,72.4162,392.7306,71.9961,402.6784,72.2872,412.6261,71.4276,422.5739,72.2844,432.5217,72.5482,442.4695,72.4445,452.4173,72.613,462.3651,71.5169,472.3129,71.3478,482.2607,71.3786,492.2085,72,502.1563,72,502.1366,70,502.0907,68,502.3834,66,502.098,64,502.0419,62,502.1563,62.2283,502.1563,61.3332,492.2085,61.4809,482.2607,62.649,472.3129,62.4357,462.3651,62.7345,452.4173,61.6782,442.4695,62.3192,432.5217,62.5904,422.5739,61.5276,412.6261,61.9041,402.6784,62.126,392.7306,62.6518,382.7828,61.9958,372.835,62.4626,362.8872,61.4462,352.9394,61.3227,342.9916,62.5036,333.0438,61.2831,323.096,62.509,313.1482,62.2066,303.2005,61.7321,293.2527,61.6462,283.3049,62.4588,273.3571,61.7007,263.4093,62.5919,253.4615,61.4473,243.5137,62.6174,233.5659,62.4843,223.6181,62.245,213.6704,62.0472,203.7226,62.7266,193.7748,62.6136,183.827,62.1693,173.8792,62.2682,163.9314,61.8697,153.9836,62.7165,144.0358,62.1549,134.088,62.1726,124.1402,61.3916,114.1925,61.5948,104.2447,62,94.2969" style="stroke:#383838;stroke-width:1.0;"/><polygon fill="#FFFFFF" points="514,115.4297,514,115.4997,516,115.2916,518,115.4941,520,115.5629,522,115.1919,524,115.4297,523.9223,115.4297,523.5735,126.0828,523.6165,136.7359,523.9318,147.3891,523.3086,158.0422,524,168.6953,524,168.8799,522,168.4852,520,168.6294,518,168.8393,516,168.6667,514,168.6953,514.0682,168.6953,513.9681,158.0422,514.1785,147.3891,514.2391,136.7359,514.5857,126.0828,514,115.4297" style="stroke:#383838;stroke-width:1.0;"/><polygon fill="#FFFFFF" points="514,197.8281,514,197.8982,516,197.69,518,197.8926,520,197.9614,522,197.5903,524,197.8281,523.9223,197.8281,523.5735,208.4813,523.6165,219.1344,523.9318,229.7875,523.3086,240.4406,524,251.0938,524,251.2783,522,250.8837,520,251.0278,518,251.2377,516,251.0652,514,251.0938,514.0682,251.0938,513.9681,240.4406,514.1785,229.7875,514.2391,219.1344,514.5857,208.4813,514,197.8281" style="stroke:#383838;stroke-width:1.0;"/><polygon fill="#FFFFFF" points="514,280.2266,514,280.2966,516,280.0885,518,280.291,520,280.3598,522,279.9888,524,280.2266,523.9223,280.2266,523.5735,290.2708,523.6165,300.3151,523.9318,310.3594,523.3086,320.4036,524.5536,330.4479,524,340.4922,524,340.2821,522,340.4263,520,340.6362,518,340.4636,516,340.5149,514,340.4922,513.9681,340.4922,514.1785,330.4479,514.2391,320.4036,514.5857,310.3594,514.6711,300.3151,514.6793,290.2708,514,280.2266" style="stroke:#383838;stroke-width:1.0;"/><polygon fill="#FFFFFF" points="514,369.625,514,369.6951,516,369.4869,518,369.6894,520,369.7582,522,369.3872,524,369.625,523.9223,369.625,523.5735,379.6693,523.6165,389.7135,523.9318,399.7578,523.3086,409.8021,524.5536,419.8464,524,429.8906,524,429.6805,522,429.8247,520,430.0346,518,429.862,516,429.9134,514,429.8906,513.9681,429.8906,514.1785,419.8464,514.2391,409.8021,514.5857,399.7578,514.6711,389.7135,514.6793,379.6693,514,369.625" style="stroke:#383838;stroke-width:1.0;"/><polygon fill="#FFFFFF" points="514,459.0234,514,459.0935,516,458.8853,518,459.0879,520,459.1567,522,458.7856,524,459.0234,523.9741,459.0234,523.8578,467.65,523.8722,476.2766,523.9773,484.9031,523.7695,493.5297,524,502.1563,524,502.3408,522,501.9462,520,502.0903,518,502.3002,516,502.1277,514,502.1563,514.0227,502.1563,513.9894,493.5297,514.0595,484.9031,514.0797,476.2766,514.1952,467.65,514,459.0234" style="stroke:#383838;stroke-width:1.0;"/><polygon fill="#FFFFFF" points="10,130.4297,10,130.6399,20.0536,130.0154,30.1071,130.623,40.1607,130.8294,50.2143,129.7163,60.2679,130.352,70.3214,130.0032,80.375,130.0462,90.4286,130.3615,100.4821,129.7383,110.5357,130.9833,120.5893,129.7994,130.6429,130.2319,140.6964,130.8616,150.75,130.3439,160.8036,130.4979,170.8571,130.3977,180.9107,130.6082,190.9643,130.6688,201.0179,131.0154,211.0714,131.1007,221.125,131.1089,231.1786,130.6843,241.2321,130.8933,251.2857,131.1319,261.3393,129.7085,271.3929,131.1082,281.4464,130.1332,291.5,130.9635,301.5536,129.9347,311.6071,130.3612,321.6607,131.1713,331.7143,130.381,341.7679,130.535,351.8214,130.7683,361.875,130.8459,371.9286,130.4258,381.9821,130.7169,392.0357,129.8573,402.0893,130.7141,412.1429,130.9779,422.1964,130.8742,432.25,131.0427,442.3036,129.9466,452.3571,129.7775,462.4107,129.8083,472.4643,130.3708,482.5179,130.2332,492.5714,131.1111,502.625,130.255,512.6786,130.0866,522.7321,130.658,532.7857,129.7628,542.8393,129.9106,552.8929,131.0786,562.9464,130.8654,573,130.4297,573.7345,130.4297,572.6782,140.5354,573.3192,150.6411,573.5904,160.7468,572.5276,170.8525,572.9041,180.9582,573.126,191.0639,573.6518,201.1696,572.9958,211.2753,573.4626,221.381,572.4462,231.4867,572.3227,241.5924,573.5036,251.6981,572.2831,261.8038,573.509,271.9095,573.2066,282.0152,572.7321,292.1209,572.6462,302.2266,573.4588,312.3323,572.7007,322.438,573.5919,332.5437,572.4473,342.6494,573.6174,352.7551,573.4843,362.8608,573.245,372.9665,573.0472,383.0722,573.7266,393.1778,573.6136,403.2835,573.1693,413.3892,573.2682,423.4949,572.8697,433.6006,573.7165,443.7063,573.1549,453.812,573.1726,463.9177,573,474.0234,573,473.4151,562.9464,473.6182,552.8929,474.5542,542.8393,474.4532,532.7857,473.9805,522.7321,473.7013,512.6786,473.8045,502.625,473.3373,492.5714,474.4382,482.5179,474.763,472.4643,474.5498,462.4107,474.7184,452.3571,473.8867,442.3036,474.1107,432.25,473.6358,422.1964,474.3075,412.1429,474.2702,402.0893,474.5758,392.0357,473.7938,381.9821,473.889,371.9286,474.4669,361.875,474.5908,351.8214,473.5109,341.7679,473.8296,331.7143,474.1727,321.6607,473.4126,311.6071,474.3768,301.5536,474.2814,291.5,473.9227,281.4464,474.1657,271.3929,474.7521,261.3393,473.7106,251.2857,474.3384,241.2321,474.3091,231.1786,474.1392,221.125,474.1644,211.0714,474.1369,201.0179,473.3993,190.9643,473.6226,180.9107,473.5619,170.8571,474.0873,160.8036,474.1116,150.75,474.1852,140.6964,473.7325,130.6429,473.9559,120.5893,473.9032,110.5357,474.6003,100.4821,474.45,90.4286,473.5379,80.375,473.9505,70.3214,473.4462,60.2679,474.3118,50.2143,474.6319,40.1607,474.568,30.1071,473.5879,20.0536,474.4874,10,474.0234,9.2572,474.0234,10.2002,463.9177,9.7007,453.812,10.0967,443.7063,10.2403,433.6006,10.4721,423.4949,9.2801,413.3892,10.4755,403.2835,10.1782,393.1778,10.3553,383.0722,10.7478,372.9665,10.0055,362.8608,10.1753,352.7551,10.2134,342.6494,10.1972,332.5437,9.9992,322.438,10.7107,312.3323,9.3903,302.2266,10.5653,292.1209,9.376,282.0152,9.4597,271.9095,10.04,261.8038,10.0283,251.6981,9.5072,241.5924,10.4137,231.4867,10.1089,221.381,10.7267,211.2753,10.6671,201.1696,9.5517,191.0639,9.6021,180.9582,9.8708,170.8525,10.3555,160.7468,10.403,150.6411,10.3012,140.5354,10,130.4297" style="stroke:#000000;stroke-width:2.0;"/><polygon fill="#FFFFFF" points="20,212.8281,20,213.0383,30.0556,212.4138,40.1111,213.0214,50.1667,213.2278,60.2222,212.1147,70.2778,212.7504,80.3333,212.4016,90.3889,212.4446,100.4444,212.76,110.5,212.1368,120.5556,213.3818,130.6111,212.1978,140.6667,212.6304,150.7222,213.2601,160.7778,212.7423,170.8333,212.8964,180.8889,212.7962,190.9444,213.0067,201,213.0673,211.0556,213.4138,221.1111,213.4992,231.1667,213.5074,241.2222,213.0828,251.2778,213.2917,261.3333,213.5304,271.3889,212.1069,281.4444,213.5066,291.5,212.5316,301.5556,213.3619,311.6111,212.3331,321.6667,212.7596,331.7222,213.5697,341.7778,212.7794,351.8333,212.9334,361.8889,213.1668,371.9444,213.2444,382,212.8242,392.0556,213.1153,402.1111,212.2557,412.1667,213.1125,422.2222,213.3763,432.2778,213.2727,442.3333,213.4411,452.3889,212.345,462.4444,212.1759,472.5,212.2067,482.5556,212.7692,492.6111,212.6316,502.6667,213.5095,512.7222,212.6534,522.7778,212.4851,532.8333,213.0564,542.8889,212.1613,552.9444,212.309,563,212.8281,563.649,212.8281,563.4357,222.2529,563.7345,231.6777,562.6782,241.1025,563.3192,250.5273,563.5904,259.9521,562.5276,269.377,562.9041,278.8018,563,288.2266,563,288.3525,552.9444,288.8783,542.8889,288.2224,532.8333,288.6891,522.7778,287.6728,512.7222,287.5493,502.6667,288.7302,492.6111,287.5096,482.5556,288.7355,472.5,288.4332,462.4444,287.9586,452.3889,287.8728,442.3333,288.6853,432.2778,287.9272,422.2222,288.8184,412.1667,287.6738,402.1111,288.844,392.0556,288.7109,382,288.4715,371.9444,288.2738,361.8889,288.9532,351.8333,288.8401,341.7778,288.3958,331.7222,288.4948,321.6667,288.0963,311.6111,288.943,301.5556,288.3814,291.5,288.3991,281.4444,287.6182,271.3889,287.8213,261.3333,288.7573,251.2778,288.6563,241.2222,288.1836,231.1667,287.9044,221.1111,288.0076,211.0556,287.5404,201,288.6413,190.9444,288.9661,180.8889,288.753,170.8333,288.9215,160.7778,288.0898,150.7222,288.3138,140.6667,287.839,130.6111,288.5106,120.5556,288.4733,110.5,288.779,100.4444,287.9969,90.3889,288.0922,80.3333,288.67,70.2778,288.7939,60.2222,287.714,50.1667,288.0327,40.1111,288.3758,30.0556,287.6157,20,288.2266,20.3534,288.2266,20.258,278.8018,19.8992,269.377,20.1422,259.9521,20.7287,250.5273,19.6871,241.1025,20.315,231.6777,20.2856,222.2529,20,212.8281" style="stroke:#000000;stroke-width:2.0;"/><polygon fill="#FFFFFF" points="20,302.2266,20,302.4367,30.0556,301.8122,40.1111,302.4198,50.1667,302.6262,60.2222,301.5132,70.2778,302.1488,80.3333,301.8001,90.3889,301.8431,100.4444,302.1584,110.5,301.5352,120.5556,302.7802,130.6111,301.5963,140.6667,302.0288,150.7222,302.6585,160.7778,302.1408,170.8333,302.2948,180.8889,302.1946,190.9444,302.4051,201,302.4657,211.0556,302.8123,221.1111,302.8976,231.1667,302.9058,241.2222,302.4812,251.2778,302.6901,261.3333,302.9288,271.3889,301.5054,281.4444,302.9051,291.5,301.9301,301.5556,302.7604,311.6111,301.7315,321.6667,302.1581,331.7222,302.9682,341.7778,302.1778,351.8333,302.3319,361.8889,302.5652,371.9444,302.6428,382,302.2227,392.0556,302.5138,402.1111,301.6541,412.1667,302.5109,422.2222,302.7748,432.2778,302.6711,442.3333,302.8396,452.3889,301.7435,462.4444,301.5744,472.5,301.6052,482.5556,302.1677,492.6111,302.03,502.6667,302.908,512.7222,302.0519,522.7778,301.8835,532.8333,302.4548,542.8889,301.5597,552.9444,301.7074,563,302.2266,563.649,302.2266,563.4357,311.6514,563.7345,321.0762,562.6782,330.501,563.3192,339.9258,563.5904,349.3506,562.5276,358.7754,562.9041,368.2002,563,377.625,563,377.751,552.9444,378.2768,542.8889,377.6208,532.8333,378.0876,522.7778,377.0712,512.7222,376.9477,502.6667,378.1286,492.6111,376.9081,482.5556,378.134,472.5,377.8316,462.4444,377.3571,452.3889,377.2712,442.3333,378.0838,432.2778,377.3257,422.2222,378.2169,412.1667,377.0723,402.1111,378.2424,392.0556,378.1093,382,377.87,371.9444,377.6722,361.8889,378.3516,351.8333,378.2386,341.7778,377.7943,331.7222,377.8932,321.6667,377.4947,311.6111,378.3415,301.5556,377.7799,291.5,377.7976,281.4444,377.0166,271.3889,377.2198,261.3333,378.1557,251.2778,378.0548,241.2222,377.5821,231.1667,377.3028,221.1111,377.4061,211.0556,376.9388,201,378.0397,190.9444,378.3646,180.8889,378.1514,170.8333,378.3199,160.7778,377.4883,150.7222,377.7122,140.6667,377.2374,130.6111,377.909,120.5556,377.8718,110.5,378.1774,100.4444,377.3953,90.3889,377.4906,80.3333,378.0685,70.2778,378.1923,60.2222,377.1125,50.1667,377.4311,40.1111,377.7743,30.0556,377.0142,20,377.625,20.3534,377.625,20.258,368.2002,19.8992,358.7754,20.1422,349.3506,20.7287,339.9258,19.6871,330.501,20.315,321.0762,20.2856,311.6514,20,302.2266" style="stroke:#000000;stroke-width:2.0;"/><polygon fill="#FFFFFF" points="20,391.625,20,391.8352,30.0556,391.2107,40.1111,391.8183,50.1667,392.0247,60.2222,390.9116,70.2778,391.5473,80.3333,391.1985,90.3889,391.2415,100.4444,391.5568,110.5,390.9336,120.5556,392.1786,130.6111,390.9947,140.6667,391.4272,150.7222,392.0569,160.7778,391.5392,170.8333,391.6932,180.8889,391.5931,190.9444,391.8035,201,391.8641,211.0556,392.2107,221.1111,392.2961,231.1667,392.3043,241.2222,391.8796,251.2778,392.0886,261.3333,392.3272,271.3889,390.9038,281.4444,392.3035,291.5,391.3285,301.5556,392.1588,311.6111,391.13,321.6667,391.5565,331.7222,392.3666,341.7778,391.5763,351.8333,391.7303,361.8889,391.9636,371.9444,392.0412,382,391.6211,392.0556,391.9122,402.1111,391.0526,412.1667,391.9094,422.2222,392.1732,432.2778,392.0695,442.3333,392.238,452.3889,391.1419,462.4444,390.9728,472.5,391.0036,482.5556,391.5661,492.6111,391.4285,502.6667,392.3064,512.7222,391.4503,522.7778,391.2819,532.8333,391.8533,542.8889,390.9582,552.9444,391.1059,563,391.625,563.649,391.625,563.4357,401.0498,563.7345,410.4746,562.6782,419.8994,563.3192,429.3242,563.5904,438.749,562.5276,448.1738,562.9041,457.5986,563,467.0234,563,467.1494,552.9444,467.6752,542.8889,467.0192,532.8333,467.486,522.7778,466.4697,512.7222,466.3462,502.6667,467.5271,492.6111,466.3065,482.5556,467.5324,472.5,467.2301,462.4444,466.7555,452.3889,466.6697,442.3333,467.4822,432.2778,466.7241,422.2222,467.6153,412.1667,466.4707,402.1111,467.6409,392.0556,467.5077,382,467.2684,371.9444,467.0707,361.8889,467.75,351.8333,467.637,341.7778,467.1927,331.7222,467.2916,321.6667,466.8932,311.6111,467.7399,301.5556,467.1783,291.5,467.196,281.4444,466.4151,271.3889,466.6182,261.3333,467.5542,251.2778,467.4532,241.2222,466.9805,231.1667,466.7013,221.1111,466.8045,211.0556,466.3373,201,467.4382,190.9444,467.763,180.8889,467.5498,170.8333,467.7184,160.7778,466.8867,150.7222,467.1107,140.6667,466.6358,130.6111,467.3075,120.5556,467.2702,110.5,467.5758,100.4444,466.7938,90.3889,466.889,80.3333,467.4669,70.2778,467.5908,60.2222,466.5109,50.1667,466.8296,40.1111,467.1727,30.0556,466.4126,20,467.0234,20.3534,467.0234,20.258,457.5986,19.8992,448.1738,20.1422,438.749,20.7287,429.3242,19.6871,419.8994,20.315,410.4746,20.2856,401.0498,20,391.625" style="stroke:#000000;stroke-width:2.0;"/><path d="M67,84.2969 L67.2802,84.2969 L66.4476,94.2028 L67.2577,104.1087 L67.5329,114.0146 L66.0488,123.9205 L66.8964,133.8263 L66.4313,143.7322 L66.4887,153.6381 L66.9091,163.544 L66.0782,173.4499 L67.7382,183.3558 L66.1596,193.2617 L66.7363,203.1676 L67.5759,213.0735 L66.8856,222.9794 L67.091,232.8853 L66.9574,242.7912 L67.238,252.6971 L67.3188,262.603 L67.7809,272.5089 L67.8947,282.4148 L67.9057,292.3207 L67.3395,302.2266 L67.6181,312.1325 L67.9363,322.0384 L66.0384,331.9442 L67.9047,341.8501 L66.6047,351.756 L67.7117,361.6619 L66.34,371.5678 L66.9087,381.4737 L67.9888,391.3796 L66.935,401.2855 L67.1404,411.1914 L67.4515,421.0973 L67.555,431.0032 L66.9948,440.9091 L67.383,450.815 L66.2368,460.7209 L67.3792,470.6268 L67.7309,480.5327 L67.5927,490.4386 L67.8174,500.3445 L66.3559,510.2504 L67,520.1563 " fill="none" style="stroke:#383838;stroke-width:1.0;stroke-dasharray:5.0,5.0;"/><path d="M519,84.2969 L519.2802,84.2969 L518.4476,94.2028 L519.2577,104.1087 L519.5329,114.0146 L518.0488,123.9205 L518.8964,133.8263 L518.4313,143.7322 L518.4887,153.6381 L518.9091,163.544 L518.0782,173.4499 L519.7382,183.3558 L518.1596,193.2617 L518.7363,203.1676 L519.5759,213.0735 L518.8856,222.9794 L519.091,232.8853 L518.9574,242.7912 L519.238,252.6971 L519.3188,262.603 L519.7809,272.5089 L519.8947,282.4148 L519.9057,292.3207 L519.3395,302.2266 L519.6181,312.1325 L519.9363,322.0384 L518.0384,331.9442 L519.9047,341.8501 L518.6047,351.756 L519.7117,361.6619 L518.34,371.5678 L518.9087,381.4737 L519.9888,391.3796 L518.935,401.2855 L519.1404,411.1914 L519.4515,421.0973 L519.555,431.0032 L518.9948,440.9091 L519.383,450.815 L518.2368,460.7209 L519.3792,470.6268 L519.7309,480.5327 L519.5927,490.4386 L519.8174,500.3445 L518.3559,510.2504 L519,520.1563 " fill="none" style="stroke:#383838;stroke-width:1.0;stroke-dasharray:5.0,5.0;"/><text fill="#000000" font-family="FG Virgil" font-size="14" lengthAdjust="spacing" textLength="68" x="30" y="80.9951">Utilizador</text><polygon fill="#F8F8F8" points="75.0442,16.9459,73.8715,18.5482,72.4845,20.8951,70.5008,22.4767,68.4163,23.3415,66.7542,23.4166,64.618,22.3349,62.6023,21.6283,61.0724,20.1936,60.2699,18.5511,59.7939,17.2433,59.3277,15.5351,58.5709,14.0651,59.1525,12.6298,59.662,11.0576,61.574,9.8142,62.9192,8.2008,64.5843,7.665,66.5637,7.2037,69.1021,7.4778,70.4924,8.1335,72.1089,8.4307,74.0743,10.4443,74.7595,12.5701,75.0571,14.0206,74.72,16.4108" style="stroke:#383838;stroke-width:2.0;"/><path d="M67,23 L67.1868,23 L66.6317,28.4 L67.1718,33.8 L67.3553,39.2 L66.3659,44.6 L67,50 M54,31 L54,30.9309 L59.2,30.6209 L64.4,30.6591 L69.6,30.9394 L74.8,30.3854 L80,31 M67,50 L67.3719,50.3223 L63.9766,52.6331 L61.6672,55.8849 L59.4901,59.2515 L56.5424,61.9501 L54,65 M67,50 L67.0458,50.0397 L69.5785,52.9814 L72.3199,56.1039 L74.9606,59.1392 L77.7934,62.341 L80,65 " fill="none" style="stroke:#383838;stroke-width:2.0;"/><text fill="#000000" font-family="FG Virgil" font-size="14" lengthAdjust="spacing" textLength="68" x="30" y="532.1514">Utilizador</text><polygon fill="#F8F8F8" points="75.0442,547.399,73.8715,549.0013,72.4845,551.3482,70.5008,552.9298,68.4163,553.7947,66.7542,553.8697,64.618,552.7881,62.6023,552.0814,61.0724,550.6467,60.2699,549.0042,59.7939,547.6964,59.3277,545.9882,58.5709,544.5182,59.1525,543.0829,59.662,541.5107,61.574,540.2673,62.9192,538.6539,64.5843,538.1182,66.5637,537.6568,69.1021,537.9309,70.4924,538.5866,72.1089,538.8838,74.0743,540.8975,74.7595,543.0233,75.0571,544.4737,74.72,546.8639" style="stroke:#383838;stroke-width:2.0;"/><path d="M67,553.4531 L67.1868,553.4531 L66.6317,558.8531 L67.1718,564.2531 L67.3553,569.6531 L66.3659,575.0531 L67,580.4531 M54,561.4531 L54,561.384 L59.2,561.074 L64.4,561.1122 L69.6,561.3925 L74.8,560.8386 L80,561.4531 M67,580.4531 L67.3719,580.7754 L63.9766,583.0862 L61.6672,586.338 L59.4901,589.7046 L56.5424,592.4032 L54,595.4531 M67,580.4531 L67.0458,580.4929 L69.5785,583.4345 L72.3199,586.5571 L74.9606,589.5923 L77.7934,592.7941 L80,595.4531 " fill="none" style="stroke:#383838;stroke-width:2.0;"/><polygon fill="#F8F8F8" points="485,53,485,53.2102,494.7143,52.5857,504.4286,53.1933,514.1429,53.3997,523.8571,52.2866,533.5714,52.9223,543.2857,52.5735,553,53,552.8722,53,552.9773,59.0594,552.7695,65.1188,553.1845,71.1781,552.7899,77.2375,553,83.2969,553,83.0991,543.2857,83.7288,533.5714,83.2111,523.8571,83.3651,514.1429,83.2649,504.4286,83.4754,494.7143,83.536,485,83.2969,485.1952,83.2969,485.2237,77.2375,485.2264,71.1781,485.0849,65.1188,485.1545,59.0594,485,53" style="stroke:#383838;stroke-width:1.5;"/><text fill="#000000" font-family="FG Virgil" font-size="14" lengthAdjust="spacing" textLength="54" x="492" y="72.9951">System</text><polygon fill="#F8F8F8" points="485,519.1563,485,519.3664,494.7143,518.7419,504.4286,519.3495,514.1429,519.5559,523.8571,518.4429,533.5714,519.0785,543.2857,518.7298,553,519.1563,552.8722,519.1563,552.9773,525.2156,552.7695,531.275,553.1845,537.3344,552.7899,543.3938,553,549.4531,553,549.2554,543.2857,549.8851,533.5714,549.3673,523.8571,549.5214,514.1429,549.4212,504.4286,549.6317,494.7143,549.6923,485,549.4531,485.1952,549.4531,485.2237,543.3938,485.2264,537.3344,485.0849,531.275,485.1545,525.2156,485,519.1563" style="stroke:#383838;stroke-width:1.5;"/><text fill="#000000" font-family="FG Virgil" font-size="14" lengthAdjust="spacing" textLength="54" x="492" y="539.1514">System</text><polygon fill="#FFFFFF" points="62,94.2969,62,94.3669,64,94.1588,66,94.3613,68,94.4301,70,94.0591,72,94.2969,71.9223,94.2969,71.5735,104.2447,71.6165,114.1925,71.9318,124.1402,71.3086,134.088,72.5536,144.0358,71.3697,153.9836,71.8022,163.9314,72.4319,173.8792,71.9142,183.827,72.0682,193.7748,71.9681,203.7226,72.1785,213.6704,72.2391,223.6181,72.5857,233.5659,72.6711,243.5137,72.6793,253.4615,72.2546,263.4093,72.4636,273.3571,72.7022,283.3049,71.2788,293.2527,72.6785,303.2005,71.7035,313.1482,72.5338,323.096,71.505,333.0438,71.9315,342.9916,72.7416,352.9394,71.9513,362.8872,72.1053,372.835,72.3386,382.7828,72.4162,392.7306,71.9961,402.6784,72.2872,412.6261,71.4276,422.5739,72.2844,432.5217,72.5482,442.4695,72.4445,452.4173,72.613,462.3651,71.5169,472.3129,71.3478,482.2607,71.3786,492.2085,72,502.1563,72,502.1366,70,502.0907,68,502.3834,66,502.098,64,502.0419,62,502.1563,62.2283,502.1563,61.3332,492.2085,61.4809,482.2607,62.649,472.3129,62.4357,462.3651,62.7345,452.4173,61.6782,442.4695,62.3192,432.5217,62.5904,422.5739,61.5276,412.6261,61.9041,402.6784,62.126,392.7306,62.6518,382.7828,61.9958,372.835,62.4626,362.8872,61.4462,352.9394,61.3227,342.9916,62.5036,333.0438,61.2831,323.096,62.509,313.1482,62.2066,303.2005,61.7321,293.2527,61.6462,283.3049,62.4588,273.3571,61.7007,263.4093,62.5919,253.4615,61.4473,243.5137,62.6174,233.5659,62.4843,223.6181,62.245,213.6704,62.0472,203.7226,62.7266,193.7748,62.6136,183.827,62.1693,173.8792,62.2682,163.9314,61.8697,153.9836,62.7165,144.0358,62.1549,134.088,62.1726,124.1402,61.3916,114.1925,61.5948,104.2447,62,94.2969" style="stroke:#383838;stroke-width:1.0;"/><polygon fill="#FFFFFF" points="514,115.4297,514,115.4997,516,115.2916,518,115.4941,520,115.5629,522,115.1919,524,115.4297,523.9223,115.4297,523.5735,126.0828,523.6165,136.7359,523.9318,147.3891,523.3086,158.0422,524,168.6953,524,168.8799,522,168.4852,520,168.6294,518,168.8393,516,168.6667,514,168.6953,514.0682,168.6953,513.9681,158.0422,514.1785,147.3891,514.2391,136.7359,514.5857,126.0828,514,115.4297" style="stroke:#383838;stroke-width:1.0;"/><polygon fill="#FFFFFF" points="514,197.8281,514,197.8982,516,197.69,518,197.8926,520,197.9614,522,197.5903,524,197.8281,523.9223,197.8281,523.5735,208.4813,523.6165,219.1344,523.9318,229.7875,523.3086,240.4406,524,251.0938,524,251.2783,522,250.8837,520,251.0278,518,251.2377,516,251.0652,514,251.0938,514.0682,251.0938,513.9681,240.4406,514.1785,229.7875,514.2391,219.1344,514.5857,208.4813,514,197.8281" style="stroke:#383838;stroke-width:1.0;"/><polygon fill="#FFFFFF" points="514,280.2266,514,280.2966,516,280.0885,518,280.291,520,280.3598,522,279.9888,524,280.2266,523.9223,280.2266,523.5735,290.2708,523.6165,300.3151,523.9318,310.3594,523.3086,320.4036,524.5536,330.4479,524,340.4922,524,340.2821,522,340.4263,520,340.6362,518,340.4636,516,340.5149,514,340.4922,513.9681,340.4922,514.1785,330.4479,514.2391,320.4036,514.5857,310.3594,514.6711,300.3151,514.6793,290.2708,514,280.2266" style="stroke:#383838;stroke-width:1.0;"/><polygon fill="#FFFFFF" points="514,369.625,514,369.6951,516,369.4869,518,369.6894,520,369.7582,522,369.3872,524,369.625,523.9223,369.625,523.5735,379.6693,523.6165,389.7135,523.9318,399.7578,523.3086,409.8021,524.5536,419.8464,524,429.8906,524,429.6805,522,429.8247,520,430.0346,518,429.862,516,429.9134,514,429.8906,513.9681,429.8906,514.1785,419.8464,514.2391,409.8021,514.5857,399.7578,514.6711,389.7135,514.6793,379.6693,514,369.625" style="stroke:#383838;stroke-width:1.0;"/><polygon fill="#FFFFFF" points="514,459.0234,514,459.0935,516,458.8853,518,459.0879,520,459.1567,522,458.7856,524,459.0234,523.9741,459.0234,523.8578,467.65,523.8722,476.2766,523.9773,484.9031,523.7695,493.5297,524,502.1563,524,502.3408,522,501.9462,520,502.0903,518,502.3002,516,502.1277,514,502.1563,514.0227,502.1563,513.9894,493.5297,514.0595,484.9031,514.0797,476.2766,514.1952,467.65,514,459.0234" style="stroke:#383838;stroke-width:1.0;"/><polygon fill="#383838" points="502,111.4297,502.026,111.4947,503.9487,112.1015,506.0239,113.0895,508.0495,113.9534,509.9117,114.4089,512,115.4297,511.9904,115.4056,509.9472,116.0977,507.9525,116.911,505.9916,117.8086,503.9144,118.4157,502,119.4297,502.1305,119.5602,502.6514,118.4811,503.5534,117.7831,504.5018,117.1315,505.1798,116.2095,506,115.4297,506.0161,115.4458,505.1925,114.6222,504.4421,113.8718,503.6564,113.0861,502.938,112.3677,502,111.4297" style="stroke:#383838;stroke-width:1.0;"/><path d="M72,115.4297 L72,115.7099 L81.9091,114.8773 L91.8182,115.6874 L101.7273,115.9626 L111.6364,114.4785 L121.5455,115.3261 L131.4545,114.861 L141.3636,114.9184 L151.2727,115.3388 L161.1818,114.5079 L171.0909,116.1679 L181,114.5893 L190.9091,115.166 L200.8182,116.0056 L210.7273,115.3153 L220.6364,115.5207 L230.5455,115.3871 L240.4545,115.6677 L250.3636,115.7485 L260.2727,116.2106 L270.1818,116.3244 L280.0909,116.3354 L290,115.7692 L299.9091,116.0478 L309.8182,116.366 L319.7273,114.4681 L329.6364,116.3344 L339.5455,115.0343 L349.4545,116.1414 L359.3636,114.7697 L369.2727,115.3384 L379.1818,116.4185 L389.0909,115.3647 L399,115.5701 L408.9091,115.8812 L418.8182,115.9847 L428.7273,115.4245 L438.6364,115.8126 L448.5455,114.6665 L458.4545,115.8089 L468.3636,116.1606 L478.2727,116.0224 L488.1818,116.2471 L498.0909,114.7856 L508,115.4297 " fill="none" style="stroke:#383838;stroke-width:1.0;"/><text fill="#000000" font-family="FG Virgil" font-size="13" lengthAdjust="spacing" textLength="423" x="79" y="110.3638">pretende consultar os catálogos de serviços e respetivos serviços</text><path d="M10,130.4297 L10,130.9902 L19.75,129.3248 L29.5,130.9451 L39.25,131.4955 L49,128.5273 L58.75,130.2225 L68.5,129.2924 L78.25,129.407 L88,130.4297 L87.9394,130.4297 L87.3854,131.8297 L88.4921,133.2297 L87.4398,134.6297 L87.8242,136.0297 L88,137.4297 L88.2715,137.7012 L85.9461,139.3758 L84.0429,141.4726 L81.9799,143.4096 L80.1122,145.5419 L78,147.4297 L78,148.0674 L68.2857,148.9915 L58.5714,149.2192 L48.8571,149.241 L39.1429,148.1087 L29.4286,148.6659 L19.7143,149.3023 L10,147.4297 L9.3589,147.4297 L10.6031,144.0297 L9.7364,140.6297 L10.4745,137.2297 L9.56,133.8297 L10,130.4297 " fill="#EEEEEE" style="stroke:#000000;stroke-width:1.0;"/><polygon fill="none" points="10,130.4297,10,130.6399,20.0536,130.0154,30.1071,130.623,40.1607,130.8294,50.2143,129.7163,60.2679,130.352,70.3214,130.0032,80.375,130.0462,90.4286,130.3615,100.4821,129.7383,110.5357,130.9833,120.5893,129.7994,130.6429,130.2319,140.6964,130.8616,150.75,130.3439,160.8036,130.4979,170.8571,130.3977,180.9107,130.6082,190.9643,130.6688,201.0179,131.0154,211.0714,131.1007,221.125,131.1089,231.1786,130.6843,241.2321,130.8933,251.2857,131.1319,261.3393,129.7085,271.3929,131.1082,281.4464,130.1332,291.5,130.9635,301.5536,129.9347,311.6071,130.3612,321.6607,131.1713,331.7143,130.381,341.7679,130.535,351.8214,130.7683,361.875,130.8459,371.9286,130.4258,381.9821,130.7169,392.0357,129.8573,402.0893,130.7141,412.1429,130.9779,422.1964,130.8742,432.25,131.0427,442.3036,129.9466,452.3571,129.7775,462.4107,129.8083,472.4643,130.3708,482.5179,130.2332,492.5714,131.1111,502.625,130.255,512.6786,130.0866,522.7321,130.658,532.7857,129.7628,542.8393,129.9106,552.8929,131.0786,562.9464,130.8654,573,130.4297,573.7345,130.4297,572.6782,140.5354,573.3192,150.6411,573.5904,160.7468,572.5276,170.8525,572.9041,180.9582,573.126,191.0639,573.6518,201.1696,572.9958,211.2753,573.4626,221.381,572.4462,231.4867,572.3227,241.5924,573.5036,251.6981,572.2831,261.8038,573.509,271.9095,573.2066,282.0152,572.7321,292.1209,572.6462,302.2266,573.4588,312.3323,572.7007,322.438,573.5919,332.5437,572.4473,342.6494,573.6174,352.7551,573.4843,362.8608,573.245,372.9665,573.0472,383.0722,573.7266,393.1778,573.6136,403.2835,573.1693,413.3892,573.2682,423.4949,572.8697,433.6006,573.7165,443.7063,573.1549,453.812,573.1726,463.9177,573,474.0234,573,473.4151,562.9464,473.6182,552.8929,474.5542,542.8393,474.4532,532.7857,473.9805,522.7321,473.7013,512.6786,473.8045,502.625,473.3373,492.5714,474.4382,482.5179,474.763,472.4643,474.5498,462.4107,474.7184,452.3571,473.8867,442.3036,474.1107,432.25,473.6358,422.1964,474.3075,412.1429,474.2702,402.0893,474.5758,392.0357,473.7938,381.9821,473.889,371.9286,474.4669,361.875,474.5908,351.8214,473.5109,341.7679,473.8296,331.7143,474.1727,321.6607,473.4126,311.6071,474.3768,301.5536,474.2814,291.5,473.9227,281.4464,474.1657,271.3929,474.7521,261.3393,473.7106,251.2857,474.3384,241.2321,474.3091,231.1786,474.1392,221.125,474.1644,211.0714,474.1369,201.0179,473.3993,190.9643,473.6226,180.9107,473.5619,170.8571,474.0873,160.8036,474.1116,150.75,474.1852,140.6964,473.7325,130.6429,473.9559,120.5893,473.9032,110.5357,474.6003,100.4821,474.45,90.4286,473.5379,80.375,473.9505,70.3214,473.4462,60.2679,474.3118,50.2143,474.6319,40.1607,474.568,30.1071,473.5879,20.0536,474.4874,10,474.0234,9.2572,474.0234,10.2002,463.9177,9.7007,453.812,10.0967,443.7063,10.2403,433.6006,10.4721,423.4949,9.2801,413.3892,10.4755,403.2835,10.1782,393.1778,10.3553,383.0722,10.7478,372.9665,10.0055,362.8608,10.1753,352.7551,10.2134,342.6494,10.1972,332.5437,9.9992,322.438,10.7107,312.3323,9.3903,302.2266,10.5653,292.1209,9.376,282.0152,9.4597,271.9095,10.04,261.8038,10.0283,251.6981,9.5072,241.5924,10.4137,231.4867,10.1089,221.381,10.7267,211.2753,10.6671,201.1696,9.5517,191.0639,9.6021,180.9582,9.8708,170.8525,10.3555,160.7468,10.403,150.6411,10.3012,140.5354,10,130.4297" style="stroke:#000000;stroke-width:2.0;"/><text fill="#000000" font-family="FG Virgil" font-size="13" font-weight="bold" lengthAdjust="spacing" textLength="33" x="25" y="143.4966">loop</text><text fill="#000000" font-family="FG Virgil" font-size="11" font-weight="bold" lengthAdjust="spacing" textLength="247" x="103" y="142.6401">[enquanto pretender fazer consulta]</text><polygon fill="#383838" points="83,164.6953,83.026,164.7604,80.9487,165.3671,79.0239,166.3551,77.0495,167.219,74.9117,167.6745,73,168.6953,72.9904,168.6713,74.9472,169.3633,76.9525,170.1766,78.9916,171.0742,80.9144,171.6813,83,172.6953,83.1305,172.8258,82.0514,171.7468,81.3534,171.0487,80.7018,170.3971,79.7798,169.4751,79,168.6953,79.0161,168.7114,79.7925,167.8878,80.6421,167.1374,81.4564,166.3517,82.338,165.6334,83,164.6953" style="stroke:#383838;stroke-width:1.0;"/><path d="M77,168.6953 L77,168.9756 L87.0227,168.1429 L97.0455,168.953 L107.0682,169.2282 L117.0909,167.7441 L127.1136,168.5917 L137.1364,168.1267 L147.1591,168.184 L157.1818,168.6044 L167.2045,167.7735 L177.2273,169.4335 L187.25,167.8549 L197.2727,168.4316 L207.2955,169.2712 L217.3182,168.5809 L227.3409,168.7863 L237.3636,168.6527 L247.3864,168.9333 L257.4091,169.0142 L267.4318,169.4762 L277.4545,169.5901 L287.4773,169.601 L297.5,169.0348 L307.5227,169.3134 L317.5455,169.6316 L327.5682,167.7337 L337.5909,169.6 L347.6136,168.3 L357.6364,169.4071 L367.6591,168.0353 L377.6818,168.604 L387.7045,169.6841 L397.7273,168.6303 L407.75,168.8357 L417.7727,169.1468 L427.7955,169.2503 L437.8182,168.6901 L447.8409,169.0783 L457.8636,167.9321 L467.8864,169.0745 L477.9091,169.4262 L487.9318,169.288 L497.9545,169.5127 L507.9773,168.0512 L518,168.6953 " fill="none" style="stroke:#383838;stroke-width:1.0;stroke-dasharray:2.0,2.0;"/><text fill="#000000" font-family="FG Virgil" font-size="13" lengthAdjust="spacing" textLength="357" x="89" y="163.6294">pergunta se pretende consultar catalogos e/ou servicos</text><polygon fill="#383838" points="502,193.8281,502.026,193.8932,503.9487,194.4999,506.0239,195.4879,508.0495,196.3518,509.9117,196.8073,512,197.8281,511.9904,197.8041,509.9472,198.4961,507.9525,199.3094,505.9916,200.207,503.9144,200.8142,502,201.8281,502.1305,201.9586,502.6514,200.8796,503.5534,200.1815,504.5018,199.5299,505.1798,198.6079,506,197.8281,506.0161,197.8442,505.1925,197.0206,504.4421,196.2702,503.6564,195.4845,502.938,194.7662,502,193.8281" style="stroke:#383838;stroke-width:1.0;"/><path d="M72,197.8281 L72,198.1084 L81.9091,197.2757 L91.8182,198.0858 L101.7273,198.361 L111.6364,196.8769 L121.5455,197.7245 L131.4545,197.2595 L141.3636,197.3168 L151.2727,197.7372 L161.1818,196.9063 L171.0909,198.5663 L181,196.9878 L190.9091,197.5644 L200.8182,198.4041 L210.7273,197.7138 L220.6364,197.9191 L230.5455,197.7855 L240.4545,198.0662 L250.3636,198.147 L260.2727,198.609 L270.1818,198.7229 L280.0909,198.7338 L290,198.1676 L299.9091,198.4462 L309.8182,198.7644 L319.7273,196.8665 L329.6364,198.7328 L339.5455,197.4328 L349.4545,198.5399 L359.3636,197.1681 L369.2727,197.7368 L379.1818,198.8169 L389.0909,197.7631 L399,197.9685 L408.9091,198.2796 L418.8182,198.3831 L428.7273,197.8229 L438.6364,198.2111 L448.5455,197.0649 L458.4545,198.2073 L468.3636,198.5591 L478.2727,198.4208 L488.1818,198.6455 L498.0909,197.184 L508,197.8281 " fill="none" style="stroke:#383838;stroke-width:1.0;"/><text fill="#000000" font-family="FG Virgil" font-size="13" lengthAdjust="spacing" textLength="92" x="79" y="192.7622">escolhe opção</text><path d="M20,212.8281 L20,213.3886 L30.2857,211.7233 L40.5714,213.3436 L50.8571,213.8939 L61.1429,210.9257 L71.4286,212.6209 L81.7143,211.6908 L92,212.8281 L91.6591,212.8281 L91.9394,214.2281 L91.3854,215.6281 L92.4921,217.0281 L91.4398,218.4281 L92,219.8281 L91.8757,219.7038 L90.2715,222.0996 L87.9461,223.7742 L86.0429,225.871 L83.9799,227.808 L82,229.8281 L82,230.3042 L71.6667,230.4658 L61.3333,231.39 L51,231.6176 L40.6667,231.6395 L30.3333,230.5071 L20,229.8281 L20.4121,229.8281 L20.6242,226.4281 L19.3589,223.0281 L20.6031,219.6281 L19.7364,216.2281 L20,212.8281 " fill="#EEEEEE" style="stroke:#000000;stroke-width:1.0;"/><polygon fill="none" points="20,212.8281,20,213.0383,30.0556,212.4138,40.1111,213.0214,50.1667,213.2278,60.2222,212.1147,70.2778,212.7504,80.3333,212.4016,90.3889,212.4446,100.4444,212.76,110.5,212.1368,120.5556,213.3818,130.6111,212.1978,140.6667,212.6304,150.7222,213.2601,160.7778,212.7423,170.8333,212.8964,180.8889,212.7962,190.9444,213.0067,201,213.0673,211.0556,213.4138,221.1111,213.4992,231.1667,213.5074,241.2222,213.0828,251.2778,213.2917,261.3333,213.5304,271.3889,212.1069,281.4444,213.5066,291.5,212.5316,301.5556,213.3619,311.6111,212.3331,321.6667,212.7596,331.7222,213.5697,341.7778,212.7794,351.8333,212.9334,361.8889,213.1668,371.9444,213.2444,382,212.8242,392.0556,213.1153,402.1111,212.2557,412.1667,213.1125,422.2222,213.3763,432.2778,213.2727,442.3333,213.4411,452.3889,212.345,462.4444,212.1759,472.5,212.2067,482.5556,212.7692,492.6111,212.6316,502.6667,213.5095,512.7222,212.6534,522.7778,212.4851,532.8333,213.0564,542.8889,212.1613,552.9444,212.309,563,212.8281,563.649,212.8281,563.4357,222.2529,563.7345,231.6777,562.6782,241.1025,563.3192,250.5273,563.5904,259.9521,562.5276,269.377,562.9041,278.8018,563,288.2266,563,288.3525,552.9444,288.8783,542.8889,288.2224,532.8333,288.6891,522.7778,287.6728,512.7222,287.5493,502.6667,288.7302,492.6111,287.5096,482.5556,288.7355,472.5,288.4332,462.4444,287.9586,452.3889,287.8728,442.3333,288.6853,432.2778,287.9272,422.2222,288.8184,412.1667,287.6738,402.1111,288.844,392.0556,288.7109,382,288.4715,371.9444,288.2738,361.8889,288.9532,351.8333,288.8401,341.7778,288.3958,331.7222,288.4948,321.6667,288.0963,311.6111,288.943,301.5556,288.3814,291.5,288.3991,281.4444,287.6182,271.3889,287.8213,261.3333,288.7573,251.2778,288.6563,241.2222,288.1836,231.1667,287.9044,221.1111,288.0076,211.0556,287.5404,201,288.6413,190.9444,288.9661,180.8889,288.753,170.8333,288.9215,160.7778,288.0898,150.7222,288.3138,140.6667,287.839,130.6111,288.5106,120.5556,288.4733,110.5,288.779,100.4444,287.9969,90.3889,288.0922,80.3333,288.67,70.2778,288.7939,60.2222,287.714,50.1667,288.0327,40.1111,288.3758,30.0556,287.6157,20,288.2266,20.3534,288.2266,20.258,278.8018,19.8992,269.377,20.1422,259.9521,20.7287,250.5273,19.6871,241.1025,20.315,231.6777,20.2856,222.2529,20,212.8281" style="stroke:#000000;stroke-width:2.0;"/><text fill="#000000" font-family="FG Virgil" font-size="13" font-weight="bold" lengthAdjust="spacing" textLength="27" x="35" y="225.895">opt</text><text fill="#000000" font-family="FG Virgil" font-size="11" font-weight="bold" lengthAdjust="spacing" textLength="125" x="107" y="225.0386">[escolhe catalogo]</text><polygon fill="#383838" points="83,247.0938,83.026,247.1588,80.9487,247.7655,79.0239,248.7536,77.0495,249.6174,74.9117,250.073,73,251.0938,72.9904,251.0697,74.9472,251.7618,76.9525,252.5751,78.9916,253.4727,80.9144,254.0798,83,255.0938,83.1305,255.2242,82.0514,254.1452,81.3534,253.4471,80.7018,252.7956,79.7798,251.8735,79,251.0938,79.0161,251.1098,79.7925,250.2862,80.6421,249.5358,81.4564,248.7501,82.338,248.0318,83,247.0938" style="stroke:#383838;stroke-width:1.0;"/><path d="M77,251.0938 L77,251.374 L87.0227,250.5413 L97.0455,251.3515 L107.0682,251.6267 L117.0909,250.1426 L127.1136,250.9901 L137.1364,250.5251 L147.1591,250.5824 L157.1818,251.0029 L167.2045,250.1719 L177.2273,251.8319 L187.25,250.2534 L197.2727,250.8301 L207.2955,251.6697 L217.3182,250.9794 L227.3409,251.1847 L237.3636,251.0512 L247.3864,251.3318 L257.4091,251.4126 L267.4318,251.8747 L277.4545,251.9885 L287.4773,251.9994 L297.5,251.4333 L307.5227,251.7119 L317.5455,252.0301 L327.5682,250.1322 L337.5909,251.9984 L347.6136,250.6984 L357.6364,251.8055 L367.6591,250.4337 L377.6818,251.0024 L387.7045,252.0826 L397.7273,251.0288 L407.75,251.2342 L417.7727,251.5453 L427.7955,251.6487 L437.8182,251.0885 L447.8409,251.4767 L457.8636,250.3305 L467.8864,251.4729 L477.9091,251.8247 L487.9318,251.6865 L497.9545,251.9111 L507.9773,250.4496 L518,251.0938 " fill="none" style="stroke:#383838;stroke-width:1.0;stroke-dasharray:2.0,2.0;"/><text fill="#000000" font-family="FG Virgil" font-size="13" lengthAdjust="spacing" textLength="166" x="89" y="246.0278">solicita dados do catalogo</text><polygon fill="#383838" points="502,276.2266,502.026,276.2916,503.9487,276.8983,506.0239,277.8864,508.0495,278.7503,509.9117,279.2058,512,280.2266,511.9904,280.2025,509.9472,280.8946,507.9525,281.7079,505.9916,282.6055,503.9144,283.2126,502,284.2266,502.1305,284.3571,502.6514,283.278,503.5534,282.5799,504.5018,281.9284,505.1798,281.0063,506,280.2266,506.0161,280.2426,505.1925,279.419,504.4421,278.6686,503.6564,277.8829,502.938,277.1646,502,276.2266" style="stroke:#383838;stroke-width:1.0;"/><path d="M72,280.2266 L72,280.5068 L81.9091,279.6741 L91.8182,280.4843 L101.7273,280.7595 L111.6364,279.2754 L121.5455,280.1229 L131.4545,279.6579 L141.3636,279.7152 L151.2727,280.1357 L161.1818,279.3047 L171.0909,280.9648 L181,279.3862 L190.9091,279.9629 L200.8182,280.8025 L210.7273,280.1122 L220.6364,280.3175 L230.5455,280.184 L240.4545,280.4646 L250.3636,280.5454 L260.2727,281.0075 L270.1818,281.1213 L280.0909,281.1322 L290,280.5661 L299.9091,280.8447 L309.8182,281.1629 L319.7273,279.265 L329.6364,281.1312 L339.5455,279.8312 L349.4545,280.9383 L359.3636,279.5665 L369.2727,280.1352 L379.1818,281.2154 L389.0909,280.1616 L399,280.367 L408.9091,280.6781 L418.8182,280.7815 L428.7273,280.2214 L438.6364,280.6095 L448.5455,279.4633 L458.4545,280.6057 L468.3636,280.9575 L478.2727,280.8193 L488.1818,281.0439 L498.0909,279.5825 L508,280.2266 " fill="none" style="stroke:#383838;stroke-width:1.0;"/><text fill="#000000" font-family="FG Virgil" font-size="13" lengthAdjust="spacing" textLength="166" x="79" y="275.1606">introduz dados solicitados</text><path d="M20,302.2266 L20,302.787 L30.2857,301.1217 L40.5714,302.742 L50.8571,303.2924 L61.1429,300.3242 L71.4286,302.0193 L81.7143,301.0892 L92,302.2266 L91.6591,302.2266 L91.9394,303.6266 L91.3854,305.0266 L92.4921,306.4266 L91.4398,307.8266 L92,309.2266 L91.8757,309.1023 L90.2715,311.4981 L87.9461,313.1726 L86.0429,315.2695 L83.9799,317.2065 L82,319.2266 L82,319.7026 L71.6667,319.8643 L61.3333,320.7884 L51,321.016 L40.6667,321.0379 L30.3333,319.9056 L20,319.2266 L20.4121,319.2266 L20.6242,315.8266 L19.3589,312.4266 L20.6031,309.0266 L19.7364,305.6266 L20,302.2266 " fill="#EEEEEE" style="stroke:#000000;stroke-width:1.0;"/><polygon fill="none" points="20,302.2266,20,302.4367,30.0556,301.8122,40.1111,302.4198,50.1667,302.6262,60.2222,301.5132,70.2778,302.1488,80.3333,301.8001,90.3889,301.8431,100.4444,302.1584,110.5,301.5352,120.5556,302.7802,130.6111,301.5963,140.6667,302.0288,150.7222,302.6585,160.7778,302.1408,170.8333,302.2948,180.8889,302.1946,190.9444,302.4051,201,302.4657,211.0556,302.8123,221.1111,302.8976,231.1667,302.9058,241.2222,302.4812,251.2778,302.6901,261.3333,302.9288,271.3889,301.5054,281.4444,302.9051,291.5,301.9301,301.5556,302.7604,311.6111,301.7315,321.6667,302.1581,331.7222,302.9682,341.7778,302.1778,351.8333,302.3319,361.8889,302.5652,371.9444,302.6428,382,302.2227,392.0556,302.5138,402.1111,301.6541,412.1667,302.5109,422.2222,302.7748,432.2778,302.6711,442.3333,302.8396,452.3889,301.7435,462.4444,301.5744,472.5,301.6052,482.5556,302.1677,492.6111,302.03,502.6667,302.908,512.7222,302.0519,522.7778,301.8835,532.8333,302.4548,542.8889,301.5597,552.9444,301.7074,563,302.2266,563.649,302.2266,563.4357,311.6514,563.7345,321.0762,562.6782,330.501,563.3192,339.9258,563.5904,349.3506,562.5276,358.7754,562.9041,368.2002,563,377.625,563,377.751,552.9444,378.2768,542.8889,377.6208,532.8333,378.0876,522.7778,377.0712,512.7222,376.9477,502.6667,378.1286,492.6111,376.9081,482.5556,378.134,472.5,377.8316,462.4444,377.3571,452.3889,377.2712,442.3333,378.0838,432.2778,377.3257,422.2222,378.2169,412.1667,377.0723,402.1111,378.2424,392.0556,378.1093,382,377.87,371.9444,377.6722,361.8889,378.3516,351.8333,378.2386,341.7778,377.7943,331.7222,377.8932,321.6667,377.4947,311.6111,378.3415,301.5556,377.7799,291.5,377.7976,281.4444,377.0166,271.3889,377.2198,261.3333,378.1557,251.2778,378.0548,241.2222,377.5821,231.1667,377.3028,221.1111,377.4061,211.0556,376.9388,201,378.0397,190.9444,378.3646,180.8889,378.1514,170.8333,378.3199,160.7778,377.4883,150.7222,377.7122,140.6667,377.2374,130.6111,377.909,120.5556,377.8718,110.5,378.1774,100.4444,377.3953,90.3889,377.4906,80.3333,378.0685,70.2778,378.1923,60.2222,377.1125,50.1667,377.4311,40.1111,377.7743,30.0556,377.0142,20,377.625,20.3534,377.625,20.258,368.2002,19.8992,358.7754,20.1422,349.3506,20.7287,339.9258,19.6871,330.501,20.315,321.0762,20.2856,311.6514,20,302.2266" style="stroke:#000000;stroke-width:2.0;"/><text fill="#000000" font-family="FG Virgil" font-size="13" font-weight="bold" lengthAdjust="spacing" textLength="27" x="35" y="315.2935">opt</text><text fill="#000000" font-family="FG Virgil" font-size="11" font-weight="bold" lengthAdjust="spacing" textLength="113" x="107" y="314.437">[escolhe servico]</text><polygon fill="#383838" points="83,336.4922,83.026,336.5572,80.9487,337.164,79.0239,338.152,77.0495,339.0159,74.9117,339.4714,73,340.4922,72.9904,340.4681,74.9472,341.1602,76.9525,341.9735,78.9916,342.8711,80.9144,343.4782,83,344.4922,83.1305,344.6227,82.0514,343.5436,81.3534,342.8456,80.7018,342.194,79.7798,341.272,79,340.4922,79.0161,340.5083,79.7925,339.6847,80.6421,338.9343,81.4564,338.1486,82.338,337.4302,83,336.4922" style="stroke:#383838;stroke-width:1.0;"/><path d="M77,340.4922 L77,340.7724 L87.0227,339.9398 L97.0455,340.7499 L107.0682,341.0251 L117.0909,339.541 L127.1136,340.3886 L137.1364,339.9235 L147.1591,339.9809 L157.1818,340.4013 L167.2045,339.5704 L177.2273,341.2304 L187.25,339.6518 L197.2727,340.2285 L207.2955,341.0681 L217.3182,340.3778 L227.3409,340.5832 L237.3636,340.4496 L247.3864,340.7302 L257.4091,340.811 L267.4318,341.2731 L277.4545,341.3869 L287.4773,341.3979 L297.5,340.8317 L307.5227,341.1103 L317.5455,341.4285 L327.5682,339.5306 L337.5909,341.3969 L347.6136,340.0968 L357.6364,341.2039 L367.6591,339.8322 L377.6818,340.4009 L387.7045,341.481 L397.7273,340.4272 L407.75,340.6326 L417.7727,340.9437 L427.7955,341.0472 L437.8182,340.487 L447.8409,340.8751 L457.8636,339.729 L467.8864,340.8714 L477.9091,341.2231 L487.9318,341.0849 L497.9545,341.3096 L507.9773,339.8481 L518,340.4922 " fill="none" style="stroke:#383838;stroke-width:1.0;stroke-dasharray:2.0,2.0;"/><text fill="#000000" font-family="FG Virgil" font-size="13" lengthAdjust="spacing" textLength="157" x="89" y="335.4263">solicita dados do servico</text><polygon fill="#383838" points="502,365.625,502.026,365.69,503.9487,366.2968,506.0239,367.2848,508.0495,368.1487,509.9117,368.6042,512,369.625,511.9904,369.6009,509.9472,370.293,507.9525,371.1063,505.9916,372.0039,503.9144,372.611,502,373.625,502.1305,373.7555,502.6514,372.6764,503.5534,371.9784,504.5018,371.3268,505.1798,370.4048,506,369.625,506.0161,369.6411,505.1925,368.8175,504.4421,368.0671,503.6564,367.2814,502.938,366.563,502,365.625" style="stroke:#383838;stroke-width:1.0;"/><path d="M72,369.625 L72,369.9052 L81.9091,369.0726 L91.8182,369.8827 L101.7273,370.1579 L111.6364,368.6738 L121.5455,369.5214 L131.4545,369.0563 L141.3636,369.1137 L151.2727,369.5341 L161.1818,368.7032 L171.0909,370.3632 L181,368.7846 L190.9091,369.3613 L200.8182,370.2009 L210.7273,369.5106 L220.6364,369.716 L230.5455,369.5824 L240.4545,369.863 L250.3636,369.9438 L260.2727,370.4059 L270.1818,370.5197 L280.0909,370.5307 L290,369.9645 L299.9091,370.2431 L309.8182,370.5613 L319.7273,368.6634 L329.6364,370.5297 L339.5455,369.2297 L349.4545,370.3367 L359.3636,368.965 L369.2727,369.5337 L379.1818,370.6138 L389.0909,369.56 L399,369.7654 L408.9091,370.0765 L418.8182,370.18 L428.7273,369.6198 L438.6364,370.008 L448.5455,368.8618 L458.4545,370.0042 L468.3636,370.3559 L478.2727,370.2177 L488.1818,370.4424 L498.0909,368.9809 L508,369.625 " fill="none" style="stroke:#383838;stroke-width:1.0;"/><text fill="#000000" font-family="FG Virgil" font-size="13" lengthAdjust="spacing" textLength="166" x="79" y="364.5591">introduz dados solicitados</text><path d="M20,391.625 L20,392.1855 L30.2857,390.5201 L40.5714,392.1404 L50.8571,392.6908 L61.1429,389.7226 L71.4286,391.4178 L81.7143,390.4877 L92,391.625 L91.6591,391.625 L91.9394,393.025 L91.3854,394.425 L92.4921,395.825 L91.4398,397.225 L92,398.625 L91.8757,398.5007 L90.2715,400.8965 L87.9461,402.5711 L86.0429,404.6679 L83.9799,406.6049 L82,408.625 L82,409.1011 L71.6667,409.2627 L61.3333,410.1868 L51,410.4145 L40.6667,410.4364 L30.3333,409.304 L20,408.625 L20.4121,408.625 L20.6242,405.225 L19.3589,401.825 L20.6031,398.425 L19.7364,395.025 L20,391.625 " fill="#EEEEEE" style="stroke:#000000;stroke-width:1.0;"/><polygon fill="none" points="20,391.625,20,391.8352,30.0556,391.2107,40.1111,391.8183,50.1667,392.0247,60.2222,390.9116,70.2778,391.5473,80.3333,391.1985,90.3889,391.2415,100.4444,391.5568,110.5,390.9336,120.5556,392.1786,130.6111,390.9947,140.6667,391.4272,150.7222,392.0569,160.7778,391.5392,170.8333,391.6932,180.8889,391.5931,190.9444,391.8035,201,391.8641,211.0556,392.2107,221.1111,392.2961,231.1667,392.3043,241.2222,391.8796,251.2778,392.0886,261.3333,392.3272,271.3889,390.9038,281.4444,392.3035,291.5,391.3285,301.5556,392.1588,311.6111,391.13,321.6667,391.5565,331.7222,392.3666,341.7778,391.5763,351.8333,391.7303,361.8889,391.9636,371.9444,392.0412,382,391.6211,392.0556,391.9122,402.1111,391.0526,412.1667,391.9094,422.2222,392.1732,432.2778,392.0695,442.3333,392.238,452.3889,391.1419,462.4444,390.9728,472.5,391.0036,482.5556,391.5661,492.6111,391.4285,502.6667,392.3064,512.7222,391.4503,522.7778,391.2819,532.8333,391.8533,542.8889,390.9582,552.9444,391.1059,563,391.625,563.649,391.625,563.4357,401.0498,563.7345,410.4746,562.6782,419.8994,563.3192,429.3242,563.5904,438.749,562.5276,448.1738,562.9041,457.5986,563,467.0234,563,467.1494,552.9444,467.6752,542.8889,467.0192,532.8333,467.486,522.7778,466.4697,512.7222,466.3462,502.6667,467.5271,492.6111,466.3065,482.5556,467.5324,472.5,467.2301,462.4444,466.7555,452.3889,466.6697,442.3333,467.4822,432.2778,466.7241,422.2222,467.6153,412.1667,466.4707,402.1111,467.6409,392.0556,467.5077,382,467.2684,371.9444,467.0707,361.8889,467.75,351.8333,467.637,341.7778,467.1927,331.7222,467.2916,321.6667,466.8932,311.6111,467.7399,301.5556,467.1783,291.5,467.196,281.4444,466.4151,271.3889,466.6182,261.3333,467.5542,251.2778,467.4532,241.2222,466.9805,231.1667,466.7013,221.1111,466.8045,211.0556,466.3373,201,467.4382,190.9444,467.763,180.8889,467.5498,170.8333,467.7184,160.7778,466.8867,150.7222,467.1107,140.6667,466.6358,130.6111,467.3075,120.5556,467.2702,110.5,467.5758,100.4444,466.7938,90.3889,466.889,80.3333,467.4669,70.2778,467.5908,60.2222,466.5109,50.1667,466.8296,40.1111,467.1727,30.0556,466.4126,20,467.0234,20.3534,467.0234,20.258,457.5986,19.8992,448.1738,20.1422,438.749,20.7287,429.3242,19.6871,419.8994,20.315,410.4746,20.2856,401.0498,20,391.625" style="stroke:#000000;stroke-width:2.0;"/><text fill="#000000" font-family="FG Virgil" font-size="13" font-weight="bold" lengthAdjust="spacing" textLength="27" x="35" y="404.6919">opt</text><text fill="#000000" font-family="FG Virgil" font-size="11" font-weight="bold" lengthAdjust="spacing" textLength="300" x="107" y="403.8354">[escolhe catalogo e servico correspondente]</text><polygon fill="#383838" points="83,425.8906,83.026,425.9557,80.9487,426.5624,79.0239,427.5504,77.0495,428.4143,74.9117,428.8698,73,429.8906,72.9904,429.8666,74.9472,430.5586,76.9525,431.3719,78.9916,432.2695,80.9144,432.8767,83,433.8906,83.1305,434.0211,82.0514,432.9421,81.3534,432.244,80.7018,431.5924,79.7798,430.6704,79,429.8906,79.0161,429.9067,79.7925,429.0831,80.6421,428.3327,81.4564,427.547,82.338,426.8287,83,425.8906" style="stroke:#383838;stroke-width:1.0;"/><path d="M77,429.8906 L77,430.1709 L87.0227,429.3382 L97.0455,430.1483 L107.0682,430.4235 L117.0909,428.9394 L127.1136,429.787 L137.1364,429.322 L147.1591,429.3793 L157.1818,429.7997 L167.2045,428.9688 L177.2273,430.6288 L187.25,429.0503 L197.2727,429.6269 L207.2955,430.4666 L217.3182,429.7763 L227.3409,429.9816 L237.3636,429.848 L247.3864,430.1287 L257.4091,430.2095 L267.4318,430.6715 L277.4545,430.7854 L287.4773,430.7963 L297.5,430.2301 L307.5227,430.5087 L317.5455,430.8269 L327.5682,428.929 L337.5909,430.7953 L347.6136,429.4953 L357.6364,430.6024 L367.6591,429.2306 L377.6818,429.7993 L387.7045,430.8794 L397.7273,429.8256 L407.75,430.031 L417.7727,430.3421 L427.7955,430.4456 L437.8182,429.8854 L447.8409,430.2736 L457.8636,429.1274 L467.8864,430.2698 L477.9091,430.6216 L487.9318,430.4833 L497.9545,430.708 L507.9773,429.2465 L518,429.8906 " fill="none" style="stroke:#383838;stroke-width:1.0;stroke-dasharray:2.0,2.0;"/><text fill="#000000" font-family="FG Virgil" font-size="13" lengthAdjust="spacing" textLength="228" x="89" y="424.8247">solicita dados do catalogo e servico</text><polygon fill="#383838" points="502,455.0234,502.026,455.0885,503.9487,455.6952,506.0239,456.6833,508.0495,457.5471,509.9117,458.0026,512,459.0234,511.9904,458.9994,509.9472,459.6914,507.9525,460.5047,505.9916,461.4023,503.9144,462.0095,502,463.0234,502.1305,463.1539,502.6514,462.0749,503.5534,461.3768,504.5018,460.7252,505.1798,459.8032,506,459.0234,506.0161,459.0395,505.1925,458.2159,504.4421,457.4655,503.6564,456.6798,502.938,455.9615,502,455.0234" style="stroke:#383838;stroke-width:1.0;"/><path d="M72,459.0234 L72,459.3037 L81.9091,458.471 L91.8182,459.2812 L101.7273,459.5563 L111.6364,458.0722 L121.5455,458.9198 L131.4545,458.4548 L141.3636,458.5121 L151.2727,458.9326 L161.1818,458.1016 L171.0909,459.7616 L181,458.1831 L190.9091,458.7597 L200.8182,459.5994 L210.7273,458.9091 L220.6364,459.1144 L230.5455,458.9808 L240.4545,459.2615 L250.3636,459.3423 L260.2727,459.8044 L270.1818,459.9182 L280.0909,459.9291 L290,459.3629 L299.9091,459.6416 L309.8182,459.9597 L319.7273,458.0619 L329.6364,459.9281 L339.5455,458.6281 L349.4545,459.7352 L359.3636,458.3634 L369.2727,458.9321 L379.1818,460.0122 L389.0909,458.9585 L399,459.1638 L408.9091,459.4749 L418.8182,459.5784 L428.7273,459.0182 L438.6364,459.4064 L448.5455,458.2602 L458.4545,459.4026 L468.3636,459.7544 L478.2727,459.6161 L488.1818,459.8408 L498.0909,458.3793 L508,459.0234 " fill="none" style="stroke:#383838;stroke-width:1.0;"/><text fill="#000000" font-family="FG Virgil" font-size="13" lengthAdjust="spacing" textLength="166" x="79" y="453.9575">introduz dados solicitados</text><polygon fill="#383838" points="78,498.1563,78.026,498.2213,75.9487,498.828,74.0239,499.8161,72.0495,500.6799,69.9117,501.1355,68,502.1563,67.9904,502.1322,69.9472,502.8243,71.9525,503.6376,73.9916,504.5352,75.9144,505.1423,78,506.1563,78.1305,506.2867,77.0514,505.2077,76.3534,504.5096,75.7018,503.8581,74.7798,502.936,74,502.1563,74.0161,502.1723,74.7925,501.3487,75.6421,500.5983,76.4564,499.8126,77.338,499.0943,78,498.1563" style="stroke:#383838;stroke-width:1.0;"/><path d="M72,502.1563 L72,502.4365 L81.9111,501.6038 L91.8222,502.414 L101.7333,502.6892 L111.6444,501.2051 L121.5556,502.0526 L131.4667,501.5876 L141.3778,501.6449 L151.2889,502.0654 L161.2,501.2344 L171.1111,502.8944 L181.0222,501.3159 L190.9333,501.8926 L200.8444,502.7322 L210.7556,502.0419 L220.6667,502.2472 L230.5778,502.1137 L240.4889,502.3943 L250.4,502.4751 L260.3111,502.9372 L270.2222,503.051 L280.1333,503.0619 L290.0444,502.4958 L299.9556,502.7744 L309.8667,503.0926 L319.7778,501.1947 L329.6889,503.0609 L339.6,501.7609 L349.5111,502.868 L359.4222,501.4962 L369.3333,502.0649 L379.2444,503.1451 L389.1556,502.0913 L399.0667,502.2967 L408.9778,502.6078 L418.8889,502.7112 L428.8,502.151 L438.7111,502.5392 L448.6222,501.393 L458.5333,502.5354 L468.4444,502.8872 L478.3556,502.749 L488.2667,502.9736 L498.1778,501.5121 L508.0889,501.2867 L518,502.1563 " fill="none" style="stroke:#383838;stroke-width:1.0;stroke-dasharray:2.0,2.0;"/><text fill="#000000" font-family="FG Virgil" font-size="13" lengthAdjust="spacing" textLength="295" x="84" y="497.0903">apresenta o catálogo e os serviços solicitados</text><!--MD5=[6ed8a16c10ce1a20ba7f9df64d3dc47f]
@startuml
'http://plantuml.com/skinparam.html
skinparam handwritten true
skinparam monochrome true
skinparam packageStyle rect
skinparam defaultFontName FG Virgil
skinparam shadowing false

actor Utilizador as Actor
participant System as System
activate Actor
Actor -> System: pretende consultar os catálogos de serviços e respetivos serviços
loop enquanto pretender fazer consulta
activate System
System - -> Actor: pergunta se pretende consultar catalogos e/ou servicos
deactivate System
Actor -> System: escolhe opção
opt escolhe catalogo
activate System
System - -> Actor: solicita dados do catalogo
deactivate System
Actor -> System: introduz dados solicitados
activate System
end
opt escolhe servico
activate System
System - -> Actor: solicita dados do servico
deactivate System
Actor -> System: introduz dados solicitados
activate System
end
opt escolhe catalogo e servico correspondente
activate System
System - -> Actor: solicita dados do catalogo e servico
deactivate System
Actor -> System: introduz dados solicitados
activate System
end
end
System - -> Actor: apresenta o catálogo e os serviços solicitados
deactivate System
deactivate Actor
@enduml

@startuml
skinparam handwritten true
skinparam monochrome true
skinparam packageStyle rect
skinparam defaultFontName FG Virgil
skinparam shadowing false

actor Utilizador as Actor
participant System as System
activate Actor
Actor -> System: pretende consultar os catálogos de serviços e respetivos serviços
loop enquanto pretender fazer consulta
activate System
System - -> Actor: pergunta se pretende consultar catalogos e/ou servicos
deactivate System
Actor -> System: escolhe opção
opt escolhe catalogo
activate System
System - -> Actor: solicita dados do catalogo
deactivate System
Actor -> System: introduz dados solicitados
activate System
end
opt escolhe servico
activate System
System - -> Actor: solicita dados do servico
deactivate System
Actor -> System: introduz dados solicitados
activate System
end
opt escolhe catalogo e servico correspondente
activate System
System - -> Actor: solicita dados do catalogo e servico
deactivate System
Actor -> System: introduz dados solicitados
activate System
end
end
System - -> Actor: apresenta o catálogo e os serviços solicitados
deactivate System
deactivate Actor
@enduml

PlantUML version 1.2021.6beta4(Unknown compile time)
(GPL source distribution)
Java Runtime: Java(TM) SE Runtime Environment
JVM: Java HotSpot(TM) 64-Bit Server VM
Default Encoding: UTF-8
Language: en
Country: US
--></g></svg>