<?xml version="1.0" encoding="UTF-8" standalone="no"?><svg xmlns="http://www.w3.org/2000/svg" xmlns:xlink="http://www.w3.org/1999/xlink" contentScriptType="application/ecmascript" contentStyleType="text/css" height="361px" preserveAspectRatio="none" style="width:534px;height:361px;" version="1.1" viewBox="0 0 534 361" width="534px" zoomAndPan="magnify"><defs/><g><polygon fill="#FFFFFF" points="37,94.2969,37,94.3669,39,94.1588,41,94.3613,43,94.4301,45,94.0591,47,94.2969,46.9223,94.2969,46.5735,104.1085,46.6165,113.92,46.9318,123.7316,46.3086,133.5432,47.5536,143.3548,46.3697,153.1664,46.8022,162.9779,47.4319,172.7895,46.9142,182.6011,47.0682,192.4127,46.9681,202.2243,47.1785,212.0358,47.2391,221.8474,47.5857,231.659,47.6711,241.4706,47.6793,251.2822,47,261.0938,47,261.1786,45,261.2483,43,261.3278,41,260.8534,39,261.3199,37,261.0938,36.7035,261.0938,37.5338,251.2822,36.505,241.4706,36.9315,231.659,37.7416,221.8474,36.9513,212.0358,37.1053,202.2243,37.3386,192.4127,37.4162,182.6011,36.9961,172.7895,37.2872,162.9779,36.4276,153.1664,37.2844,143.3548,37.5482,133.5432,37.4445,123.7316,37.613,113.92,36.5169,104.1085,37,94.2969" style="stroke:#383838;stroke-width:1.0;"/><polygon fill="#FFFFFF" points="489,115.4297,489,115.4997,491,115.2916,493,115.4941,495,115.5629,497,115.1919,499,115.4297,498.9741,115.4297,498.8578,121.2563,498.8722,127.0828,498.9773,132.9094,498.7695,138.7359,499,144.5625,499,144.747,497,144.3524,495,144.4966,493,144.7065,491,144.5339,489,144.5625,489.0227,144.5625,488.9894,138.7359,489.0595,132.9094,489.0797,127.0828,489.1952,121.2563,489,115.4297" style="stroke:#383838;stroke-width:1.0;"/><polygon fill="#FFFFFF" points="489,173.6953,489,173.7654,491,173.5572,493,173.7597,495,173.8285,497,173.4575,499,173.6953,498.9741,173.6953,498.8578,179.5219,498.8722,185.3484,498.9773,191.175,498.7695,197.0016,499,202.8281,499,203.0127,497,202.618,495,202.7622,493,202.9721,491,202.7995,489,202.8281,489.0227,202.8281,488.9894,197.0016,489.0595,191.175,489.0797,185.3484,489.1952,179.5219,489,173.6953" style="stroke:#383838;stroke-width:1.0;"/><polygon fill="#FFFFFF" points="489,231.9609,489,232.031,491,231.8228,493,232.0254,495,232.0942,497,231.7231,499,231.9609,498.9741,231.9609,498.8578,237.7875,498.8722,243.6141,498.9773,249.4406,498.7695,255.2672,499,261.0938,499,261.2783,497,260.8837,495,261.0278,493,261.2377,491,261.0652,489,261.0938,489.0227,261.0938,488.9894,255.2672,489.0595,249.4406,489.0797,243.6141,489.1952,237.7875,489,231.9609" style="stroke:#383838;stroke-width:1.0;"/><path d="M42,84.2969 L42.2802,84.2969 L41.4476,94.5493 L42.2577,104.8018 L42.5329,115.0543 L41.0488,125.3067 L41.8964,135.5592 L41.4313,145.8117 L41.4887,156.0641 L41.9091,166.3166 L41.0782,176.5691 L42.7382,186.8215 L41.1596,197.074 L41.7363,207.3265 L42.5759,217.5789 L41.8856,227.8314 L42.091,238.0839 L41.9574,248.3363 L42.238,258.5888 L42.3188,268.8413 L42,279.0938 " fill="none" style="stroke:#383838;stroke-width:1.0;stroke-dasharray:5.0,5.0;"/><path d="M494,84.2969 L494.2802,84.2969 L493.4476,94.5493 L494.2577,104.8018 L494.5329,115.0543 L493.0488,125.3067 L493.8964,135.5592 L493.4313,145.8117 L493.4887,156.0641 L493.9091,166.3166 L493.0782,176.5691 L494.7382,186.8215 L493.1596,197.074 L493.7363,207.3265 L494.5759,217.5789 L493.8856,227.8314 L494.091,238.0839 L493.9574,248.3363 L494.238,258.5888 L494.3188,268.8413 L494,279.0938 " fill="none" style="stroke:#383838;stroke-width:1.0;stroke-dasharray:5.0,5.0;"/><text fill="#000000" font-family="FG Virgil" font-size="14" lengthAdjust="spacing" textLength="68" x="5" y="80.9951">Utilizador</text><polygon fill="#F8F8F8" points="50.0442,16.9459,48.8715,18.5482,47.4845,20.8951,45.5008,22.4767,43.4163,23.3415,41.7542,23.4166,39.618,22.3349,37.6023,21.6283,36.0724,20.1936,35.2699,18.5511,34.7939,17.2433,34.3277,15.5351,33.5709,14.0651,34.1525,12.6298,34.662,11.0576,36.574,9.8142,37.9192,8.2008,39.5843,7.665,41.5637,7.2037,44.1021,7.4778,45.4924,8.1335,47.1089,8.4307,49.0743,10.4443,49.7595,12.5701,50.0571,14.0206,49.72,16.4108" style="stroke:#383838;stroke-width:2.0;"/><path d="M42,23 L42.1868,23 L41.6317,28.4 L42.1718,33.8 L42.3553,39.2 L41.3659,44.6 L42,50 M29,31 L29,30.9309 L34.2,30.6209 L39.4,30.6591 L44.6,30.9394 L49.8,30.3854 L55,31 M42,50 L42.3719,50.3223 L38.9766,52.6331 L36.6672,55.8849 L34.4901,59.2515 L31.5424,61.9501 L29,65 M42,50 L42.0458,50.0397 L44.5785,52.9814 L47.3199,56.1039 L49.9606,59.1392 L52.7934,62.341 L55,65 " fill="none" style="stroke:#383838;stroke-width:2.0;"/><text fill="#000000" font-family="FG Virgil" font-size="14" lengthAdjust="spacing" textLength="68" x="5" y="291.0889">Utilizador</text><polygon fill="#F8F8F8" points="50.0442,306.3365,48.8715,307.9388,47.4845,310.2857,45.5008,311.8673,43.4163,312.7322,41.7542,312.8072,39.618,311.7256,37.6023,311.0189,36.0724,309.5842,35.2699,307.9417,34.7939,306.6339,34.3277,304.9257,33.5709,303.4557,34.1525,302.0204,34.662,300.4482,36.574,299.2048,37.9192,297.5914,39.5843,297.0557,41.5637,296.5943,44.1021,296.8684,45.4924,297.5241,47.1089,297.8213,49.0743,299.835,49.7595,301.9608,50.0571,303.4112,49.72,305.8014" style="stroke:#383838;stroke-width:2.0;"/><path d="M42,312.3906 L42.1868,312.3906 L41.6317,317.7906 L42.1718,323.1906 L42.3553,328.5906 L41.3659,333.9906 L42,339.3906 M29,320.3906 L29,320.3215 L34.2,320.0115 L39.4,320.0497 L44.6,320.33 L49.8,319.7761 L55,320.3906 M42,339.3906 L42.3719,339.7129 L38.9766,342.0237 L36.6672,345.2755 L34.4901,348.6421 L31.5424,351.3407 L29,354.3906 M42,339.3906 L42.0458,339.4304 L44.5785,342.372 L47.3199,345.4946 L49.9606,348.5298 L52.7934,351.7316 L55,354.3906 " fill="none" style="stroke:#383838;stroke-width:2.0;"/><polygon fill="#F8F8F8" points="460,53,460,53.2102,469.7143,52.5857,479.4286,53.1933,489.1429,53.3997,498.8571,52.2866,508.5714,52.9223,518.2857,52.5735,528,53,527.8722,53,527.9773,59.0594,527.7695,65.1188,528.1845,71.1781,527.7899,77.2375,528,83.2969,528,83.0991,518.2857,83.7288,508.5714,83.2111,498.8571,83.3651,489.1429,83.2649,479.4286,83.4754,469.7143,83.536,460,83.2969,460.1952,83.2969,460.2237,77.2375,460.2264,71.1781,460.0849,65.1188,460.1545,59.0594,460,53" style="stroke:#383838;stroke-width:1.5;"/><text fill="#000000" font-family="FG Virgil" font-size="14" lengthAdjust="spacing" textLength="54" x="467" y="72.9951">System</text><polygon fill="#F8F8F8" points="460,278.0938,460,278.3039,469.7143,277.6794,479.4286,278.287,489.1429,278.4934,498.8571,277.3804,508.5714,278.016,518.2857,277.6673,528,278.0938,527.8722,278.0938,527.9773,284.1531,527.7695,290.2125,528.1845,296.2719,527.7899,302.3313,528,308.3906,528,308.1929,518.2857,308.8226,508.5714,308.3048,498.8571,308.4589,489.1429,308.3587,479.4286,308.5692,469.7143,308.6298,460,308.3906,460.1952,308.3906,460.2237,302.3313,460.2264,296.2719,460.0849,290.2125,460.1545,284.1531,460,278.0938" style="stroke:#383838;stroke-width:1.5;"/><text fill="#000000" font-family="FG Virgil" font-size="14" lengthAdjust="spacing" textLength="54" x="467" y="298.0889">System</text><polygon fill="#FFFFFF" points="37,94.2969,37,94.3669,39,94.1588,41,94.3613,43,94.4301,45,94.0591,47,94.2969,46.9223,94.2969,46.5735,104.1085,46.6165,113.92,46.9318,123.7316,46.3086,133.5432,47.5536,143.3548,46.3697,153.1664,46.8022,162.9779,47.4319,172.7895,46.9142,182.6011,47.0682,192.4127,46.9681,202.2243,47.1785,212.0358,47.2391,221.8474,47.5857,231.659,47.6711,241.4706,47.6793,251.2822,47,261.0938,47,261.1786,45,261.2483,43,261.3278,41,260.8534,39,261.3199,37,261.0938,36.7035,261.0938,37.5338,251.2822,36.505,241.4706,36.9315,231.659,37.7416,221.8474,36.9513,212.0358,37.1053,202.2243,37.3386,192.4127,37.4162,182.6011,36.9961,172.7895,37.2872,162.9779,36.4276,153.1664,37.2844,143.3548,37.5482,133.5432,37.4445,123.7316,37.613,113.92,36.5169,104.1085,37,94.2969" style="stroke:#383838;stroke-width:1.0;"/><polygon fill="#FFFFFF" points="489,115.4297,489,115.4997,491,115.2916,493,115.4941,495,115.5629,497,115.1919,499,115.4297,498.9741,115.4297,498.8578,121.2563,498.8722,127.0828,498.9773,132.9094,498.7695,138.7359,499,144.5625,499,144.747,497,144.3524,495,144.4966,493,144.7065,491,144.5339,489,144.5625,489.0227,144.5625,488.9894,138.7359,489.0595,132.9094,489.0797,127.0828,489.1952,121.2563,489,115.4297" style="stroke:#383838;stroke-width:1.0;"/><polygon fill="#FFFFFF" points="489,173.6953,489,173.7654,491,173.5572,493,173.7597,495,173.8285,497,173.4575,499,173.6953,498.9741,173.6953,498.8578,179.5219,498.8722,185.3484,498.9773,191.175,498.7695,197.0016,499,202.8281,499,203.0127,497,202.618,495,202.7622,493,202.9721,491,202.7995,489,202.8281,489.0227,202.8281,488.9894,197.0016,489.0595,191.175,489.0797,185.3484,489.1952,179.5219,489,173.6953" style="stroke:#383838;stroke-width:1.0;"/><polygon fill="#FFFFFF" points="489,231.9609,489,232.031,491,231.8228,493,232.0254,495,232.0942,497,231.7231,499,231.9609,498.9741,231.9609,498.8578,237.7875,498.8722,243.6141,498.9773,249.4406,498.7695,255.2672,499,261.0938,499,261.2783,497,260.8837,495,261.0278,493,261.2377,491,261.0652,489,261.0938,489.0227,261.0938,488.9894,255.2672,489.0595,249.4406,489.0797,243.6141,489.1952,237.7875,489,231.9609" style="stroke:#383838;stroke-width:1.0;"/><polygon fill="#383838" points="477,111.4297,477.026,111.4947,478.9487,112.1015,481.0239,113.0895,483.0495,113.9534,484.9117,114.4089,487,115.4297,486.9904,115.4056,484.9472,116.0977,482.9525,116.911,480.9916,117.8086,478.9144,118.4157,477,119.4297,477.1305,119.5602,477.6514,118.4811,478.5534,117.7831,479.5018,117.1315,480.1798,116.2095,481,115.4297,481.0161,115.4458,480.1925,114.6222,479.4421,113.8718,478.6564,113.0861,477.938,112.3677,477,111.4297" style="stroke:#383838;stroke-width:1.0;"/><path d="M47,115.4297 L47,115.7099 L56.9091,114.8773 L66.8182,115.6874 L76.7273,115.9626 L86.6364,114.4785 L96.5455,115.3261 L106.4545,114.861 L116.3636,114.9184 L126.2727,115.3388 L136.1818,114.5079 L146.0909,116.1679 L156,114.5893 L165.9091,115.166 L175.8182,116.0056 L185.7273,115.3153 L195.6364,115.5207 L205.5455,115.3871 L215.4545,115.6677 L225.3636,115.7485 L235.2727,116.2106 L245.1818,116.3244 L255.0909,116.3354 L265,115.7692 L274.9091,116.0478 L284.8182,116.366 L294.7273,114.4681 L304.6364,116.3344 L314.5455,115.0343 L324.4545,116.1414 L334.3636,114.7697 L344.2727,115.3384 L354.1818,116.4185 L364.0909,115.3647 L374,115.5701 L383.9091,115.8812 L393.8182,115.9847 L403.7273,115.4245 L413.6364,115.8126 L423.5455,114.6665 L433.4545,115.8089 L443.3636,116.1606 L453.2727,116.0224 L463.1818,116.2471 L473.0909,114.7856 L483,115.4297 " fill="none" style="stroke:#383838;stroke-width:1.0;"/><text fill="#000000" font-family="FG Virgil" font-size="13" lengthAdjust="spacing" textLength="423" x="54" y="110.3638">pretende consultar os catálogos de serviços e respetivos serviços</text><polygon fill="#383838" points="58,140.5625,58.026,140.6275,55.9487,141.2343,54.0239,142.2223,52.0495,143.0862,49.9117,143.5417,48,144.5625,47.9904,144.5384,49.9472,145.2305,51.9525,146.0438,53.9916,146.9414,55.9144,147.5485,58,148.5625,58.1305,148.693,57.0514,147.6139,56.3534,146.9159,55.7018,146.2643,54.7798,145.3423,54,144.5625,54.0161,144.5786,54.7925,143.755,55.6421,143.0046,56.4564,142.2189,57.338,141.5005,58,140.5625" style="stroke:#383838;stroke-width:1.0;"/><path d="M52,144.5625 L52,144.8427 L62.0227,144.0101 L72.0455,144.8202 L82.0682,145.0954 L92.0909,143.6113 L102.1136,144.4589 L112.1364,143.9938 L122.1591,144.0512 L132.1818,144.4716 L142.2045,143.6407 L152.2273,145.3007 L162.25,143.7221 L172.2727,144.2988 L182.2955,145.1384 L192.3182,144.4481 L202.3409,144.6535 L212.3636,144.5199 L222.3864,144.8005 L232.4091,144.8813 L242.4318,145.3434 L252.4545,145.4572 L262.4773,145.4682 L272.5,144.902 L282.5227,145.1806 L292.5455,145.4988 L302.5682,143.6009 L312.5909,145.4672 L322.6136,144.1672 L332.6364,145.2742 L342.6591,143.9025 L352.6818,144.4712 L362.7045,145.5513 L372.7273,144.4975 L382.75,144.7029 L392.7727,145.014 L402.7955,145.1175 L412.8182,144.5573 L422.8409,144.9455 L432.8636,143.7993 L442.8864,144.9417 L452.9091,145.2934 L462.9318,145.1552 L472.9545,145.3799 L482.9773,143.9184 L493,144.5625 " fill="none" style="stroke:#383838;stroke-width:1.0;stroke-dasharray:2.0,2.0;"/><text fill="#000000" font-family="FG Virgil" font-size="13" lengthAdjust="spacing" textLength="182" x="64" y="139.4966">requisita o titulo do catálogo</text><polygon fill="#383838" points="477,169.6953,477.026,169.7604,478.9487,170.3671,481.0239,171.3551,483.0495,172.219,484.9117,172.6745,487,173.6953,486.9904,173.6713,484.9472,174.3633,482.9525,175.1766,480.9916,176.0742,478.9144,176.6813,477,177.6953,477.1305,177.8258,477.6514,176.7468,478.5534,176.0487,479.5018,175.3971,480.1798,174.4751,481,173.6953,481.0161,173.7114,480.1925,172.8878,479.4421,172.1374,478.6564,171.3517,477.938,170.6334,477,169.6953" style="stroke:#383838;stroke-width:1.0;"/><path d="M47,173.6953 L47,173.9756 L56.9091,173.1429 L66.8182,173.953 L76.7273,174.2282 L86.6364,172.7441 L96.5455,173.5917 L106.4545,173.1267 L116.3636,173.184 L126.2727,173.6044 L136.1818,172.7735 L146.0909,174.4335 L156,172.8549 L165.9091,173.4316 L175.8182,174.2712 L185.7273,173.5809 L195.6364,173.7863 L205.5455,173.6527 L215.4545,173.9333 L225.3636,174.0142 L235.2727,174.4762 L245.1818,174.5901 L255.0909,174.601 L265,174.0348 L274.9091,174.3134 L284.8182,174.6316 L294.7273,172.7337 L304.6364,174.6 L314.5455,173.3 L324.4545,174.4071 L334.3636,173.0353 L344.2727,173.604 L354.1818,174.6841 L364.0909,173.6303 L374,173.8357 L383.9091,174.1468 L393.8182,174.2503 L403.7273,173.6901 L413.6364,174.0783 L423.5455,172.9321 L433.4545,174.0745 L443.3636,174.4262 L453.2727,174.288 L463.1818,174.5127 L473.0909,173.0512 L483,173.6953 " fill="none" style="stroke:#383838;stroke-width:1.0;"/><text fill="#000000" font-family="FG Virgil" font-size="13" lengthAdjust="spacing" textLength="172" x="54" y="168.6294">insere os dados solicitados</text><polygon fill="#383838" points="58,198.8281,58.026,198.8932,55.9487,199.4999,54.0239,200.4879,52.0495,201.3518,49.9117,201.8073,48,202.8281,47.9904,202.8041,49.9472,203.4961,51.9525,204.3094,53.9916,205.207,55.9144,205.8142,58,206.8281,58.1305,206.9586,57.0514,205.8796,56.3534,205.1815,55.7018,204.5299,54.7798,203.6079,54,202.8281,54.0161,202.8442,54.7925,202.0206,55.6421,201.2702,56.4564,200.4845,57.338,199.7662,58,198.8281" style="stroke:#383838;stroke-width:1.0;"/><path d="M52,202.8281 L52,203.1084 L62.0227,202.2757 L72.0455,203.0858 L82.0682,203.361 L92.0909,201.8769 L102.1136,202.7245 L112.1364,202.2595 L122.1591,202.3168 L132.1818,202.7372 L142.2045,201.9063 L152.2273,203.5663 L162.25,201.9878 L172.2727,202.5644 L182.2955,203.4041 L192.3182,202.7138 L202.3409,202.9191 L212.3636,202.7855 L222.3864,203.0662 L232.4091,203.147 L242.4318,203.609 L252.4545,203.7229 L262.4773,203.7338 L272.5,203.1676 L282.5227,203.4462 L292.5455,203.7644 L302.5682,201.8665 L312.5909,203.7328 L322.6136,202.4328 L332.6364,203.5399 L342.6591,202.1681 L352.6818,202.7368 L362.7045,203.8169 L372.7273,202.7631 L382.75,202.9685 L392.7727,203.2796 L402.7955,203.3831 L412.8182,202.8229 L422.8409,203.2111 L432.8636,202.0649 L442.8864,203.2073 L452.9091,203.5591 L462.9318,203.4208 L472.9545,203.6455 L482.9773,202.184 L493,202.8281 " fill="none" style="stroke:#383838;stroke-width:1.0;stroke-dasharray:2.0,2.0;"/><text fill="#000000" font-family="FG Virgil" font-size="13" lengthAdjust="spacing" textLength="278" x="64" y="197.7622">requisita as keywords e/ou titulo de serviço</text><polygon fill="#383838" points="477,227.9609,477.026,228.026,478.9487,228.6327,481.0239,229.6208,483.0495,230.4846,484.9117,230.9401,487,231.9609,486.9904,231.9369,484.9472,232.6289,482.9525,233.4422,480.9916,234.3398,478.9144,234.947,477,235.9609,477.1305,236.0914,477.6514,235.0124,478.5534,234.3143,479.5018,233.6627,480.1798,232.7407,481,231.9609,481.0161,231.977,480.1925,231.1534,479.4421,230.403,478.6564,229.6173,477.938,228.899,477,227.9609" style="stroke:#383838;stroke-width:1.0;"/><path d="M47,231.9609 L47,232.2412 L56.9091,231.4085 L66.8182,232.2187 L76.7273,232.4938 L86.6364,231.0097 L96.5455,231.8573 L106.4545,231.3923 L116.3636,231.4496 L126.2727,231.8701 L136.1818,231.0391 L146.0909,232.6991 L156,231.1206 L165.9091,231.6972 L175.8182,232.5369 L185.7273,231.8466 L195.6364,232.0519 L205.5455,231.9183 L215.4545,232.199 L225.3636,232.2798 L235.2727,232.7419 L245.1818,232.8557 L255.0909,232.8666 L265,232.3004 L274.9091,232.5791 L284.8182,232.8972 L294.7273,230.9994 L304.6364,232.8656 L314.5455,231.5656 L324.4545,232.6727 L334.3636,231.3009 L344.2727,231.8696 L354.1818,232.9497 L364.0909,231.896 L374,232.1013 L383.9091,232.4124 L393.8182,232.5159 L403.7273,231.9557 L413.6364,232.3439 L423.5455,231.1977 L433.4545,232.3401 L443.3636,232.6919 L453.2727,232.5536 L463.1818,232.7783 L473.0909,231.3168 L483,231.9609 " fill="none" style="stroke:#383838;stroke-width:1.0;"/><text fill="#000000" font-family="FG Virgil" font-size="13" lengthAdjust="spacing" textLength="172" x="54" y="226.895">insere os dados solicitados</text><polygon fill="#383838" points="53,257.0938,53.026,257.1588,50.9487,257.7655,49.0239,258.7536,47.0495,259.6174,44.9117,260.073,43,261.0938,42.9904,261.0697,44.9472,261.7618,46.9525,262.5751,48.9916,263.4727,50.9144,264.0798,53,265.0938,53.1305,265.2242,52.0514,264.1452,51.3534,263.4471,50.7018,262.7956,49.7798,261.8735,49,261.0938,49.0161,261.1098,49.7925,260.2862,50.6421,259.5358,51.4564,258.7501,52.338,258.0318,53,257.0938" style="stroke:#383838;stroke-width:1.0;"/><path d="M47,261.0938 L47,261.374 L56.9111,260.5413 L66.8222,261.3515 L76.7333,261.6267 L86.6444,260.1426 L96.5556,260.9901 L106.4667,260.5251 L116.3778,260.5824 L126.2889,261.0029 L136.2,260.1719 L146.1111,261.8319 L156.0222,260.2534 L165.9333,260.8301 L175.8444,261.6697 L185.7556,260.9794 L195.6667,261.1847 L205.5778,261.0512 L215.4889,261.3318 L225.4,261.4126 L235.3111,261.8747 L245.2222,261.9885 L255.1333,261.9994 L265.0444,261.4333 L274.9556,261.7119 L284.8667,262.0301 L294.7778,260.1322 L304.6889,261.9984 L314.6,260.6984 L324.5111,261.8055 L334.4222,260.4337 L344.3333,261.0024 L354.2444,262.0826 L364.1556,261.0288 L374.0667,261.2342 L383.9778,261.5453 L393.8889,261.6487 L403.8,261.0885 L413.7111,261.4767 L423.6222,260.3305 L433.5333,261.4729 L443.4444,261.8247 L453.3556,261.6865 L463.2667,261.9111 L473.1778,260.4496 L483.0889,260.2242 L493,261.0938 " fill="none" style="stroke:#383838;stroke-width:1.0;stroke-dasharray:2.0,2.0;"/><text fill="#000000" font-family="FG Virgil" font-size="13" lengthAdjust="spacing" textLength="295" x="59" y="256.0278">apresenta o catálogo e os serviços solicitados</text><!--MD5=[6aeeb5430f71d9c8434f9615e808ff3f]
@startuml
'http://plantuml.com/skinparam.html
skinparam handwritten true
skinparam monochrome true
skinparam packageStyle rect
skinparam defaultFontName FG Virgil
skinparam shadowing false

actor Utilizador as Actor
participant System as System
activate Actor
Actor -> System: pretende consultar os catálogos de serviços e respetivos serviços
activate System
System - -> Actor: requisita o titulo do catálogo
deactivate System
Actor -> System: insere os dados solicitados
activate System
System - -> Actor: requisita as keywords e/ou titulo de serviço
deactivate System
Actor -> System: insere os dados solicitados
activate System
System - -> Actor: apresenta o catálogo e os serviços solicitados
deactivate System
deactivate Actor
@enduml

@startuml
skinparam handwritten true
skinparam monochrome true
skinparam packageStyle rect
skinparam defaultFontName FG Virgil
skinparam shadowing false

actor Utilizador as Actor
participant System as System
activate Actor
Actor -> System: pretende consultar os catálogos de serviços e respetivos serviços
activate System
System - -> Actor: requisita o titulo do catálogo
deactivate System
Actor -> System: insere os dados solicitados
activate System
System - -> Actor: requisita as keywords e/ou titulo de serviço
deactivate System
Actor -> System: insere os dados solicitados
activate System
System - -> Actor: apresenta o catálogo e os serviços solicitados
deactivate System
deactivate Actor
@enduml

PlantUML version 1.2021.6beta2(Unknown compile time)
(GPL source distribution)
Java Runtime: Java(TM) SE Runtime Environment
JVM: Java HotSpot(TM) 64-Bit Server VM
Default Encoding: UTF-8
Language: en
Country: US
--></g></svg>