<?xml version="1.0" encoding="UTF-8" standalone="no"?><svg xmlns="http://www.w3.org/2000/svg" xmlns:xlink="http://www.w3.org/1999/xlink" contentScriptType="application/ecmascript" contentStyleType="text/css" height="303px" preserveAspectRatio="none" style="width:534px;height:303px;" version="1.1" viewBox="0 0 534 303" width="534px" zoomAndPan="magnify"><defs/><g><polygon fill="#FFFFFF" points="37,94.2969,37,94.3669,39,94.1588,41,94.3613,43,94.4301,45,94.0591,47,94.2969,46.9223,94.2969,46.5735,104.1634,46.6165,114.0298,46.9318,123.8963,46.3086,133.7628,47.5536,143.6293,46.3697,153.4957,46.8022,163.3622,47.4319,173.2287,46.9142,183.0952,47.0682,192.9616,47,202.8281,47,202.8175,45,202.8876,43,202.9078,41,203.0234,39,203.0518,37,202.8281,37.6793,202.8281,37.2546,192.9616,37.4636,183.0952,37.7022,173.2287,36.2788,163.3622,37.6785,153.4957,36.7035,143.6293,37.5338,133.7628,36.505,123.8963,36.9315,114.0298,37.7416,104.1634,37,94.2969" style="stroke:#383838;stroke-width:1.0;"/><polygon fill="#FFFFFF" points="489,115.4297,489,115.4997,491,115.2916,493,115.4941,495,115.5629,497,115.1919,499,115.4297,498.9741,115.4297,498.8578,121.2563,498.8722,127.0828,498.9773,132.9094,498.7695,138.7359,499,144.5625,499,144.747,497,144.3524,495,144.4966,493,144.7065,491,144.5339,489,144.5625,489.0227,144.5625,488.9894,138.7359,489.0595,132.9094,489.0797,127.0828,489.1952,121.2563,489,115.4297" style="stroke:#383838;stroke-width:1.0;"/><polygon fill="#FFFFFF" points="489,173.6953,489,173.7654,491,173.5572,493,173.7597,495,173.8285,497,173.4575,499,173.6953,498.9741,173.6953,498.8578,179.5219,498.8722,185.3484,498.9773,191.175,498.7695,197.0016,499,202.8281,499,203.0127,497,202.618,495,202.7622,493,202.9721,491,202.7995,489,202.8281,489.0227,202.8281,488.9894,197.0016,489.0595,191.175,489.0797,185.3484,489.1952,179.5219,489,173.6953" style="stroke:#383838;stroke-width:1.0;"/><path d="M42,84.2969 L42.2802,84.2969 L41.4476,94.0491 L42.2577,103.8013 L42.5329,113.5536 L41.0488,123.3058 L41.8964,133.058 L41.4313,142.8103 L41.4887,152.5625 L41.9091,162.3147 L41.0782,172.067 L42.7382,181.8192 L41.1596,191.5714 L41.7363,201.3237 L42.5759,211.0759 L42,220.8281 " fill="none" style="stroke:#383838;stroke-width:1.0;stroke-dasharray:5.0,5.0;"/><path d="M494,84.2969 L494.2802,84.2969 L493.4476,94.0491 L494.2577,103.8013 L494.5329,113.5536 L493.0488,123.3058 L493.8964,133.058 L493.4313,142.8103 L493.4887,152.5625 L493.9091,162.3147 L493.0782,172.067 L494.7382,181.8192 L493.1596,191.5714 L493.7363,201.3237 L494.5759,211.0759 L494,220.8281 " fill="none" style="stroke:#383838;stroke-width:1.0;stroke-dasharray:5.0,5.0;"/><text fill="#000000" font-family="FG Virgil" font-size="14" lengthAdjust="spacing" textLength="68" x="5" y="80.9951">Utilizador</text><polygon fill="#F8F8F8" points="50.0442,16.9459,48.8715,18.5482,47.4845,20.8951,45.5008,22.4767,43.4163,23.3415,41.7542,23.4166,39.618,22.3349,37.6023,21.6283,36.0724,20.1936,35.2699,18.5511,34.7939,17.2433,34.3277,15.5351,33.5709,14.0651,34.1525,12.6298,34.662,11.0576,36.574,9.8142,37.9192,8.2008,39.5843,7.665,41.5637,7.2037,44.1021,7.4778,45.4924,8.1335,47.1089,8.4307,49.0743,10.4443,49.7595,12.5701,50.0571,14.0206,49.72,16.4108" style="stroke:#383838;stroke-width:2.0;"/><path d="M42,23 L42.1868,23 L41.6317,28.4 L42.1718,33.8 L42.3553,39.2 L41.3659,44.6 L42,50 M29,31 L29,30.9309 L34.2,30.6209 L39.4,30.6591 L44.6,30.9394 L49.8,30.3854 L55,31 M42,50 L42.3719,50.3223 L38.9766,52.6331 L36.6672,55.8849 L34.4901,59.2515 L31.5424,61.9501 L29,65 M42,50 L42.0458,50.0397 L44.5785,52.9814 L47.3199,56.1039 L49.9606,59.1392 L52.7934,62.341 L55,65 " fill="none" style="stroke:#383838;stroke-width:2.0;"/><text fill="#000000" font-family="FG Virgil" font-size="14" lengthAdjust="spacing" textLength="68" x="5" y="232.8232">Utilizador</text><polygon fill="#F8F8F8" points="50.0442,248.0709,48.8715,249.6732,47.4845,252.0201,45.5008,253.6017,43.4163,254.4665,41.7542,254.5416,39.618,253.4599,37.6023,252.7533,36.0724,251.3186,35.2699,249.6761,34.7939,248.3683,34.3277,246.6601,33.5709,245.1901,34.1525,243.7548,34.662,242.1826,36.574,240.9392,37.9192,239.3258,39.5843,238.79,41.5637,238.3287,44.1021,238.6028,45.4924,239.2585,47.1089,239.5557,49.0743,241.5693,49.7595,243.6951,50.0571,245.1456,49.72,247.5358" style="stroke:#383838;stroke-width:2.0;"/><path d="M42,254.125 L42.1868,254.125 L41.6317,259.525 L42.1718,264.925 L42.3553,270.325 L41.3659,275.725 L42,281.125 M29,262.125 L29,262.0559 L34.2,261.7459 L39.4,261.7841 L44.6,262.0644 L49.8,261.5104 L55,262.125 M42,281.125 L42.3719,281.4473 L38.9766,283.7581 L36.6672,287.0099 L34.4901,290.3765 L31.5424,293.0751 L29,296.125 M42,281.125 L42.0458,281.1647 L44.5785,284.1064 L47.3199,287.2289 L49.9606,290.2642 L52.7934,293.466 L55,296.125 " fill="none" style="stroke:#383838;stroke-width:2.0;"/><polygon fill="#F8F8F8" points="460,53,460,53.2102,469.7143,52.5857,479.4286,53.1933,489.1429,53.3997,498.8571,52.2866,508.5714,52.9223,518.2857,52.5735,528,53,527.8722,53,527.9773,59.0594,527.7695,65.1188,528.1845,71.1781,527.7899,77.2375,528,83.2969,528,83.0991,518.2857,83.7288,508.5714,83.2111,498.8571,83.3651,489.1429,83.2649,479.4286,83.4754,469.7143,83.536,460,83.2969,460.1952,83.2969,460.2237,77.2375,460.2264,71.1781,460.0849,65.1188,460.1545,59.0594,460,53" style="stroke:#383838;stroke-width:1.5;"/><text fill="#000000" font-family="FG Virgil" font-size="14" lengthAdjust="spacing" textLength="54" x="467" y="72.9951">System</text><polygon fill="#F8F8F8" points="460,219.8281,460,220.0383,469.7143,219.4138,479.4286,220.0214,489.1429,220.2278,498.8571,219.1147,508.5714,219.7504,518.2857,219.4016,528,219.8281,527.8722,219.8281,527.9773,225.8875,527.7695,231.9469,528.1845,238.0063,527.7899,244.0656,528,250.125,528,249.9272,518.2857,250.5569,508.5714,250.0392,498.8571,250.1932,489.1429,250.0931,479.4286,250.3035,469.7143,250.3641,460,250.125,460.1952,250.125,460.2237,244.0656,460.2264,238.0063,460.0849,231.9469,460.1545,225.8875,460,219.8281" style="stroke:#383838;stroke-width:1.5;"/><text fill="#000000" font-family="FG Virgil" font-size="14" lengthAdjust="spacing" textLength="54" x="467" y="239.8232">System</text><polygon fill="#FFFFFF" points="37,94.2969,37,94.3669,39,94.1588,41,94.3613,43,94.4301,45,94.0591,47,94.2969,46.9223,94.2969,46.5735,104.1634,46.6165,114.0298,46.9318,123.8963,46.3086,133.7628,47.5536,143.6293,46.3697,153.4957,46.8022,163.3622,47.4319,173.2287,46.9142,183.0952,47.0682,192.9616,47,202.8281,47,202.8175,45,202.8876,43,202.9078,41,203.0234,39,203.0518,37,202.8281,37.6793,202.8281,37.2546,192.9616,37.4636,183.0952,37.7022,173.2287,36.2788,163.3622,37.6785,153.4957,36.7035,143.6293,37.5338,133.7628,36.505,123.8963,36.9315,114.0298,37.7416,104.1634,37,94.2969" style="stroke:#383838;stroke-width:1.0;"/><polygon fill="#FFFFFF" points="489,115.4297,489,115.4997,491,115.2916,493,115.4941,495,115.5629,497,115.1919,499,115.4297,498.9741,115.4297,498.8578,121.2563,498.8722,127.0828,498.9773,132.9094,498.7695,138.7359,499,144.5625,499,144.747,497,144.3524,495,144.4966,493,144.7065,491,144.5339,489,144.5625,489.0227,144.5625,488.9894,138.7359,489.0595,132.9094,489.0797,127.0828,489.1952,121.2563,489,115.4297" style="stroke:#383838;stroke-width:1.0;"/><polygon fill="#FFFFFF" points="489,173.6953,489,173.7654,491,173.5572,493,173.7597,495,173.8285,497,173.4575,499,173.6953,498.9741,173.6953,498.8578,179.5219,498.8722,185.3484,498.9773,191.175,498.7695,197.0016,499,202.8281,499,203.0127,497,202.618,495,202.7622,493,202.9721,491,202.7995,489,202.8281,489.0227,202.8281,488.9894,197.0016,489.0595,191.175,489.0797,185.3484,489.1952,179.5219,489,173.6953" style="stroke:#383838;stroke-width:1.0;"/><polygon fill="#383838" points="477,111.4297,477.026,111.4947,478.9487,112.1015,481.0239,113.0895,483.0495,113.9534,484.9117,114.4089,487,115.4297,486.9904,115.4056,484.9472,116.0977,482.9525,116.911,480.9916,117.8086,478.9144,118.4157,477,119.4297,477.1305,119.5602,477.6514,118.4811,478.5534,117.7831,479.5018,117.1315,480.1798,116.2095,481,115.4297,481.0161,115.4458,480.1925,114.6222,479.4421,113.8718,478.6564,113.0861,477.938,112.3677,477,111.4297" style="stroke:#383838;stroke-width:1.0;"/><path d="M47,115.4297 L47,115.7099 L56.9091,114.8773 L66.8182,115.6874 L76.7273,115.9626 L86.6364,114.4785 L96.5455,115.3261 L106.4545,114.861 L116.3636,114.9184 L126.2727,115.3388 L136.1818,114.5079 L146.0909,116.1679 L156,114.5893 L165.9091,115.166 L175.8182,116.0056 L185.7273,115.3153 L195.6364,115.5207 L205.5455,115.3871 L215.4545,115.6677 L225.3636,115.7485 L235.2727,116.2106 L245.1818,116.3244 L255.0909,116.3354 L265,115.7692 L274.9091,116.0478 L284.8182,116.366 L294.7273,114.4681 L304.6364,116.3344 L314.5455,115.0343 L324.4545,116.1414 L334.3636,114.7697 L344.2727,115.3384 L354.1818,116.4185 L364.0909,115.3647 L374,115.5701 L383.9091,115.8812 L393.8182,115.9847 L403.7273,115.4245 L413.6364,115.8126 L423.5455,114.6665 L433.4545,115.8089 L443.3636,116.1606 L453.2727,116.0224 L463.1818,116.2471 L473.0909,114.7856 L483,115.4297 " fill="none" style="stroke:#383838;stroke-width:1.0;"/><text fill="#000000" font-family="FG Virgil" font-size="13" lengthAdjust="spacing" textLength="423" x="54" y="110.3638">pretende consultar os catálogos de serviços e respetivos serviços</text><polygon fill="#383838" points="58,140.5625,58.026,140.6275,55.9487,141.2343,54.0239,142.2223,52.0495,143.0862,49.9117,143.5417,48,144.5625,47.9904,144.5384,49.9472,145.2305,51.9525,146.0438,53.9916,146.9414,55.9144,147.5485,58,148.5625,58.1305,148.693,57.0514,147.6139,56.3534,146.9159,55.7018,146.2643,54.7798,145.3423,54,144.5625,54.0161,144.5786,54.7925,143.755,55.6421,143.0046,56.4564,142.2189,57.338,141.5005,58,140.5625" style="stroke:#383838;stroke-width:1.0;"/><path d="M52,144.5625 L52,144.8427 L62.0227,144.0101 L72.0455,144.8202 L82.0682,145.0954 L92.0909,143.6113 L102.1136,144.4589 L112.1364,143.9938 L122.1591,144.0512 L132.1818,144.4716 L142.2045,143.6407 L152.2273,145.3007 L162.25,143.7221 L172.2727,144.2988 L182.2955,145.1384 L192.3182,144.4481 L202.3409,144.6535 L212.3636,144.5199 L222.3864,144.8005 L232.4091,144.8813 L242.4318,145.3434 L252.4545,145.4572 L262.4773,145.4682 L272.5,144.902 L282.5227,145.1806 L292.5455,145.4988 L302.5682,143.6009 L312.5909,145.4672 L322.6136,144.1672 L332.6364,145.2742 L342.6591,143.9025 L352.6818,144.4712 L362.7045,145.5513 L372.7273,144.4975 L382.75,144.7029 L392.7727,145.014 L402.7955,145.1175 L412.8182,144.5573 L422.8409,144.9455 L432.8636,143.7993 L442.8864,144.9417 L452.9091,145.2934 L462.9318,145.1552 L472.9545,145.3799 L482.9773,143.9184 L493,144.5625 " fill="none" style="stroke:#383838;stroke-width:1.0;stroke-dasharray:2.0,2.0;"/><text fill="#000000" font-family="FG Virgil" font-size="13" lengthAdjust="spacing" textLength="346" x="64" y="139.4966">requisita as keywords ou titulo dos serviços/catálogos</text><polygon fill="#383838" points="477,169.6953,477.026,169.7604,478.9487,170.3671,481.0239,171.3551,483.0495,172.219,484.9117,172.6745,487,173.6953,486.9904,173.6713,484.9472,174.3633,482.9525,175.1766,480.9916,176.0742,478.9144,176.6813,477,177.6953,477.1305,177.8258,477.6514,176.7468,478.5534,176.0487,479.5018,175.3971,480.1798,174.4751,481,173.6953,481.0161,173.7114,480.1925,172.8878,479.4421,172.1374,478.6564,171.3517,477.938,170.6334,477,169.6953" style="stroke:#383838;stroke-width:1.0;"/><path d="M47,173.6953 L47,173.9756 L56.9091,173.1429 L66.8182,173.953 L76.7273,174.2282 L86.6364,172.7441 L96.5455,173.5917 L106.4545,173.1267 L116.3636,173.184 L126.2727,173.6044 L136.1818,172.7735 L146.0909,174.4335 L156,172.8549 L165.9091,173.4316 L175.8182,174.2712 L185.7273,173.5809 L195.6364,173.7863 L205.5455,173.6527 L215.4545,173.9333 L225.3636,174.0142 L235.2727,174.4762 L245.1818,174.5901 L255.0909,174.601 L265,174.0348 L274.9091,174.3134 L284.8182,174.6316 L294.7273,172.7337 L304.6364,174.6 L314.5455,173.3 L324.4545,174.4071 L334.3636,173.0353 L344.2727,173.604 L354.1818,174.6841 L364.0909,173.6303 L374,173.8357 L383.9091,174.1468 L393.8182,174.2503 L403.7273,173.6901 L413.6364,174.0783 L423.5455,172.9321 L433.4545,174.0745 L443.3636,174.4262 L453.2727,174.288 L463.1818,174.5127 L473.0909,173.0512 L483,173.6953 " fill="none" style="stroke:#383838;stroke-width:1.0;"/><text fill="#000000" font-family="FG Virgil" font-size="13" lengthAdjust="spacing" textLength="172" x="54" y="168.6294">insere os dados solicitados</text><polygon fill="#383838" points="53,198.8281,53.026,198.8932,50.9487,199.4999,49.0239,200.4879,47.0495,201.3518,44.9117,201.8073,43,202.8281,42.9904,202.8041,44.9472,203.4961,46.9525,204.3094,48.9916,205.207,50.9144,205.8142,53,206.8281,53.1305,206.9586,52.0514,205.8796,51.3534,205.1815,50.7018,204.5299,49.7798,203.6079,49,202.8281,49.0161,202.8442,49.7925,202.0206,50.6421,201.2702,51.4564,200.4845,52.338,199.7662,53,198.8281" style="stroke:#383838;stroke-width:1.0;"/><path d="M47,202.8281 L47,203.1084 L56.9111,202.2757 L66.8222,203.0858 L76.7333,203.361 L86.6444,201.8769 L96.5556,202.7245 L106.4667,202.2595 L116.3778,202.3168 L126.2889,202.7372 L136.2,201.9063 L146.1111,203.5663 L156.0222,201.9878 L165.9333,202.5644 L175.8444,203.4041 L185.7556,202.7138 L195.6667,202.9191 L205.5778,202.7855 L215.4889,203.0662 L225.4,203.147 L235.3111,203.609 L245.2222,203.7229 L255.1333,203.7338 L265.0444,203.1676 L274.9556,203.4462 L284.8667,203.7644 L294.7778,201.8665 L304.6889,203.7328 L314.6,202.4328 L324.5111,203.5399 L334.4222,202.1681 L344.3333,202.7368 L354.2444,203.8169 L364.1556,202.7631 L374.0667,202.9685 L383.9778,203.2796 L393.8889,203.3831 L403.8,202.8229 L413.7111,203.2111 L423.6222,202.0649 L433.5333,203.2073 L443.4444,203.5591 L453.3556,203.4208 L463.2667,203.6455 L473.1778,202.184 L483.0889,201.9585 L493,202.8281 " fill="none" style="stroke:#383838;stroke-width:1.0;stroke-dasharray:2.0,2.0;"/><text fill="#000000" font-family="FG Virgil" font-size="13" lengthAdjust="spacing" textLength="367" x="59" y="197.7622">apresenta os catálogos de serviços e respetivos serviços</text><!--MD5=[601303ee4aba6d59ed0ce5dd3d0a9b8b]
@startuml
'http://plantuml.com/skinparam.html
skinparam handwritten true
skinparam monochrome true
skinparam packageStyle rect
skinparam defaultFontName FG Virgil
skinparam shadowing false

actor Utilizador as Actor
participant System as System
activate Actor
Actor -> System: pretende consultar os catálogos de serviços e respetivos serviços
activate System
System - -> Actor: requisita as keywords ou titulo dos serviços/catálogos
deactivate System
Actor -> System: insere os dados solicitados
activate System
System - -> Actor: apresenta os catálogos de serviços e respetivos serviços
deactivate System
deactivate Actor
@enduml

@startuml
skinparam handwritten true
skinparam monochrome true
skinparam packageStyle rect
skinparam defaultFontName FG Virgil
skinparam shadowing false

actor Utilizador as Actor
participant System as System
activate Actor
Actor -> System: pretende consultar os catálogos de serviços e respetivos serviços
activate System
System - -> Actor: requisita as keywords ou titulo dos serviços/catálogos
deactivate System
Actor -> System: insere os dados solicitados
activate System
System - -> Actor: apresenta os catálogos de serviços e respetivos serviços
deactivate System
deactivate Actor
@enduml

PlantUML version 1.2021.5(Sun Apr 25 11:20:28 UTC 2021)
(GPL source distribution)
Java Runtime: Java(TM) SE Runtime Environment
JVM: Java HotSpot(TM) 64-Bit Server VM
Default Encoding: UTF-8
Language: en
Country: US
--></g></svg>