<?xml version="1.0" encoding="UTF-8" standalone="no"?><svg xmlns="http://www.w3.org/2000/svg" xmlns:xlink="http://www.w3.org/1999/xlink" contentScriptType="application/ecmascript" contentStyleType="text/css" height="349px" preserveAspectRatio="none" style="width:590px;height:349px;" version="1.1" viewBox="0 0 590 349" width="590px" zoomAndPan="magnify"><defs><filter height="300%" id="fdjim0kjuu3t0" width="300%" x="-1" y="-1"><feGaussianBlur result="blurOut" stdDeviation="2.0"/><feColorMatrix in="blurOut" result="blurOut2" type="matrix" values="0 0 0 0 0 0 0 0 0 0 0 0 0 0 0 0 0 0 .4 0"/><feOffset dx="4.0" dy="4.0" in="blurOut2" result="blurOut3"/><feBlend in="SourceGraphic" in2="blurOut3" mode="normal"/></filter></defs><g><!--MD5=[9e112e647df1b1737e7be7ed03d6f91b]
class GestorDeEquipaUI--><rect codeLine="1" fill="#FEFECE" filter="url(#fdjim0kjuu3t0)" height="48" id="GestorDeEquipaUI" style="stroke:#A80036;stroke-width:1.5;" width="142" x="197.5" y="7"/><ellipse cx="212.5" cy="23" fill="#ADD1B2" rx="11" ry="11" style="stroke:#A80036;stroke-width:1.0;"/><path d="M214.8438,18.6719 C213.9063,18.2344 213.3125,18.0938 212.4375,18.0938 C209.8125,18.0938 207.8125,20.1719 207.8125,22.8906 L207.8125,24.0156 C207.8125,26.5938 209.9219,28.4844 212.8125,28.4844 C214.0313,28.4844 215.1875,28.1875 215.9375,27.6406 C216.5156,27.2344 216.8438,26.7813 216.8438,26.3906 C216.8438,25.9375 216.4531,25.5469 215.9844,25.5469 C215.7656,25.5469 215.5625,25.625 215.375,25.8125 C214.9219,26.2969 214.9219,26.2969 214.7344,26.3906 C214.3125,26.6563 213.625,26.7813 212.8594,26.7813 C210.8125,26.7813 209.5156,25.6875 209.5156,23.9844 L209.5156,22.8906 C209.5156,21.1094 210.7656,19.7969 212.5,19.7969 C213.0781,19.7969 213.6875,19.9531 214.1563,20.2031 C214.6406,20.4844 214.8125,20.7031 214.9063,21.1094 C214.9688,21.5156 215,21.6406 215.1406,21.7656 C215.2813,21.9063 215.5156,22.0156 215.7344,22.0156 C216,22.0156 216.2656,21.875 216.4375,21.6563 C216.5469,21.5 216.5781,21.3125 216.5781,20.8906 L216.5781,19.4688 C216.5781,19.0313 216.5625,18.9063 216.4688,18.75 C216.3125,18.4844 216.0313,18.3438 215.7344,18.3438 C215.4375,18.3438 215.2344,18.4375 215.0156,18.75 L214.8438,18.6719 Z " fill="#000000"/><text fill="#000000" font-family="sans-serif" font-size="12" lengthAdjust="spacing" textLength="110" x="226.5" y="27.1543">GestorDeEquipaUI</text><line style="stroke:#A80036;stroke-width:1.5;" x1="198.5" x2="338.5" y1="39" y2="39"/><line style="stroke:#A80036;stroke-width:1.5;" x1="198.5" x2="338.5" y1="47" y2="47"/><!--MD5=[d5a83ac5c3917154c953328ef4b615a8]
class GestorDeEquipaController--><rect codeLine="3" fill="#FEFECE" filter="url(#fdjim0kjuu3t0)" height="73.6094" id="GestorDeEquipaController" style="stroke:#A80036;stroke-width:1.5;" width="189" x="174" y="115"/><ellipse cx="189" cy="131" fill="#ADD1B2" rx="11" ry="11" style="stroke:#A80036;stroke-width:1.0;"/><path d="M191.3438,126.6719 C190.4063,126.2344 189.8125,126.0938 188.9375,126.0938 C186.3125,126.0938 184.3125,128.1719 184.3125,130.8906 L184.3125,132.0156 C184.3125,134.5938 186.4219,136.4844 189.3125,136.4844 C190.5313,136.4844 191.6875,136.1875 192.4375,135.6406 C193.0156,135.2344 193.3438,134.7813 193.3438,134.3906 C193.3438,133.9375 192.9531,133.5469 192.4844,133.5469 C192.2656,133.5469 192.0625,133.625 191.875,133.8125 C191.4219,134.2969 191.4219,134.2969 191.2344,134.3906 C190.8125,134.6563 190.125,134.7813 189.3594,134.7813 C187.3125,134.7813 186.0156,133.6875 186.0156,131.9844 L186.0156,130.8906 C186.0156,129.1094 187.2656,127.7969 189,127.7969 C189.5781,127.7969 190.1875,127.9531 190.6563,128.2031 C191.1406,128.4844 191.3125,128.7031 191.4063,129.1094 C191.4688,129.5156 191.5,129.6406 191.6406,129.7656 C191.7813,129.9063 192.0156,130.0156 192.2344,130.0156 C192.5,130.0156 192.7656,129.875 192.9375,129.6563 C193.0469,129.5 193.0781,129.3125 193.0781,128.8906 L193.0781,127.4688 C193.0781,127.0313 193.0625,126.9063 192.9688,126.75 C192.8125,126.4844 192.5313,126.3438 192.2344,126.3438 C191.9375,126.3438 191.7344,126.4375 191.5156,126.75 L191.3438,126.6719 Z " fill="#000000"/><text fill="#000000" font-family="sans-serif" font-size="12" lengthAdjust="spacing" textLength="157" x="203" y="135.1543">GestorDeEquipaController</text><line style="stroke:#A80036;stroke-width:1.5;" x1="175" x2="362" y1="147" y2="147"/><line style="stroke:#A80036;stroke-width:1.5;" x1="175" x2="362" y1="155" y2="155"/><text fill="#000000" font-family="sans-serif" font-size="11" lengthAdjust="spacing" textLength="74" x="180" y="169.2104">findTeam(ID)</text><text fill="#000000" font-family="sans-serif" font-size="11" lengthAdjust="spacing" textLength="150" x="180" y="182.0151">addColab(teamID,ColabID)</text><!--MD5=[640fc76285fb24cbda61b9b9aee53452]
class EquipaDB--><rect codeLine="8" fill="#FEFECE" filter="url(#fdjim0kjuu3t0)" height="86.4141" id="EquipaDB" style="stroke:#A80036;stroke-width:1.5;" width="89" x="7" y="249"/><ellipse cx="22" cy="265" fill="#ADD1B2" rx="11" ry="11" style="stroke:#A80036;stroke-width:1.0;"/><path d="M24.3438,260.6719 C23.4063,260.2344 22.8125,260.0938 21.9375,260.0938 C19.3125,260.0938 17.3125,262.1719 17.3125,264.8906 L17.3125,266.0156 C17.3125,268.5938 19.4219,270.4844 22.3125,270.4844 C23.5313,270.4844 24.6875,270.1875 25.4375,269.6406 C26.0156,269.2344 26.3438,268.7813 26.3438,268.3906 C26.3438,267.9375 25.9531,267.5469 25.4844,267.5469 C25.2656,267.5469 25.0625,267.625 24.875,267.8125 C24.4219,268.2969 24.4219,268.2969 24.2344,268.3906 C23.8125,268.6563 23.125,268.7813 22.3594,268.7813 C20.3125,268.7813 19.0156,267.6875 19.0156,265.9844 L19.0156,264.8906 C19.0156,263.1094 20.2656,261.7969 22,261.7969 C22.5781,261.7969 23.1875,261.9531 23.6563,262.2031 C24.1406,262.4844 24.3125,262.7031 24.4063,263.1094 C24.4688,263.5156 24.5,263.6406 24.6406,263.7656 C24.7813,263.9063 25.0156,264.0156 25.2344,264.0156 C25.5,264.0156 25.7656,263.875 25.9375,263.6563 C26.0469,263.5 26.0781,263.3125 26.0781,262.8906 L26.0781,261.4688 C26.0781,261.0313 26.0625,260.9063 25.9688,260.75 C25.8125,260.4844 25.5313,260.3438 25.2344,260.3438 C24.9375,260.3438 24.7344,260.4375 24.5156,260.75 L24.3438,260.6719 Z " fill="#000000"/><text fill="#000000" font-family="sans-serif" font-size="12" lengthAdjust="spacing" textLength="57" x="36" y="269.1543">EquipaDB</text><line style="stroke:#A80036;stroke-width:1.5;" x1="8" x2="95" y1="281" y2="281"/><line style="stroke:#A80036;stroke-width:1.5;" x1="8" x2="95" y1="289" y2="289"/><text fill="#000000" font-family="sans-serif" font-size="11" lengthAdjust="spacing" textLength="74" x="13" y="303.2104">findTeam(ID)</text><text fill="#000000" font-family="sans-serif" font-size="11" lengthAdjust="spacing" textLength="66" x="13" y="316.0151">validate(ID)</text><text fill="#000000" font-family="sans-serif" font-size="11" lengthAdjust="spacing" textLength="72" x="13" y="328.8198">getTeam(ID)</text><!--MD5=[d34c3374e9f1ea92600999ba19e06c1c]
class Equipa--><rect codeLine="14" fill="#FEFECE" filter="url(#fdjim0kjuu3t0)" height="60.8047" id="Equipa" style="stroke:#A80036;stroke-width:1.5;" width="115" x="131" y="261.5"/><ellipse cx="165.35" cy="277.5" fill="#ADD1B2" rx="11" ry="11" style="stroke:#A80036;stroke-width:1.0;"/><path d="M167.6938,273.1719 C166.7563,272.7344 166.1625,272.5938 165.2875,272.5938 C162.6625,272.5938 160.6625,274.6719 160.6625,277.3906 L160.6625,278.5156 C160.6625,281.0938 162.7719,282.9844 165.6625,282.9844 C166.8813,282.9844 168.0375,282.6875 168.7875,282.1406 C169.3656,281.7344 169.6938,281.2813 169.6938,280.8906 C169.6938,280.4375 169.3031,280.0469 168.8344,280.0469 C168.6156,280.0469 168.4125,280.125 168.225,280.3125 C167.7719,280.7969 167.7719,280.7969 167.5844,280.8906 C167.1625,281.1563 166.475,281.2813 165.7094,281.2813 C163.6625,281.2813 162.3656,280.1875 162.3656,278.4844 L162.3656,277.3906 C162.3656,275.6094 163.6156,274.2969 165.35,274.2969 C165.9281,274.2969 166.5375,274.4531 167.0063,274.7031 C167.4906,274.9844 167.6625,275.2031 167.7563,275.6094 C167.8188,276.0156 167.85,276.1406 167.9906,276.2656 C168.1313,276.4063 168.3656,276.5156 168.5844,276.5156 C168.85,276.5156 169.1156,276.375 169.2875,276.1563 C169.3969,276 169.4281,275.8125 169.4281,275.3906 L169.4281,273.9688 C169.4281,273.5313 169.4125,273.4063 169.3188,273.25 C169.1625,272.9844 168.8813,272.8438 168.5844,272.8438 C168.2875,272.8438 168.0844,272.9375 167.8656,273.25 L167.6938,273.1719 Z " fill="#000000"/><text fill="#000000" font-family="sans-serif" font-size="12" lengthAdjust="spacing" textLength="40" x="183.65" y="281.6543">Equipa</text><line style="stroke:#A80036;stroke-width:1.5;" x1="132" x2="245" y1="293.5" y2="293.5"/><line style="stroke:#A80036;stroke-width:1.5;" x1="132" x2="245" y1="301.5" y2="301.5"/><text fill="#000000" font-family="sans-serif" font-size="11" lengthAdjust="spacing" textLength="103" x="137" y="315.7104">addColab(colabID)</text><!--MD5=[ac8682ea5466d223e49472789fb200d2]
class Colaborador--><rect codeLine="18" fill="#FEFECE" filter="url(#fdjim0kjuu3t0)" height="60.8047" id="Colaborador" style="stroke:#A80036;stroke-width:1.5;" width="136" x="281.5" y="261.5"/><ellipse cx="309.55" cy="277.5" fill="#ADD1B2" rx="11" ry="11" style="stroke:#A80036;stroke-width:1.0;"/><path d="M311.8938,273.1719 C310.9563,272.7344 310.3625,272.5938 309.4875,272.5938 C306.8625,272.5938 304.8625,274.6719 304.8625,277.3906 L304.8625,278.5156 C304.8625,281.0938 306.9719,282.9844 309.8625,282.9844 C311.0813,282.9844 312.2375,282.6875 312.9875,282.1406 C313.5656,281.7344 313.8938,281.2813 313.8938,280.8906 C313.8938,280.4375 313.5031,280.0469 313.0344,280.0469 C312.8156,280.0469 312.6125,280.125 312.425,280.3125 C311.9719,280.7969 311.9719,280.7969 311.7844,280.8906 C311.3625,281.1563 310.675,281.2813 309.9094,281.2813 C307.8625,281.2813 306.5656,280.1875 306.5656,278.4844 L306.5656,277.3906 C306.5656,275.6094 307.8156,274.2969 309.55,274.2969 C310.1281,274.2969 310.7375,274.4531 311.2063,274.7031 C311.6906,274.9844 311.8625,275.2031 311.9563,275.6094 C312.0188,276.0156 312.05,276.1406 312.1906,276.2656 C312.3313,276.4063 312.5656,276.5156 312.7844,276.5156 C313.05,276.5156 313.3156,276.375 313.4875,276.1563 C313.5969,276 313.6281,275.8125 313.6281,275.3906 L313.6281,273.9688 C313.6281,273.5313 313.6125,273.4063 313.5188,273.25 C313.3625,272.9844 313.0813,272.8438 312.7844,272.8438 C312.4875,272.8438 312.2844,272.9375 312.0656,273.25 L311.8938,273.1719 Z " fill="#000000"/><text fill="#000000" font-family="sans-serif" font-size="12" lengthAdjust="spacing" textLength="75" x="326.45" y="281.6543">Colaborador</text><line style="stroke:#A80036;stroke-width:1.5;" x1="282.5" x2="416.5" y1="293.5" y2="293.5"/><line style="stroke:#A80036;stroke-width:1.5;" x1="282.5" x2="416.5" y1="301.5" y2="301.5"/><text fill="#000000" font-family="sans-serif" font-size="11" lengthAdjust="spacing" textLength="124" x="287.5" y="315.7104">addAssociatedTeam()</text><!--MD5=[4c839916bded37069bad4b471f68078a]
class ColaboradorDB--><rect codeLine="22" fill="#FEFECE" filter="url(#fdjim0kjuu3t0)" height="86.4141" id="ColaboradorDB" style="stroke:#A80036;stroke-width:1.5;" width="124" x="452.5" y="249"/><ellipse cx="467.5" cy="265" fill="#ADD1B2" rx="11" ry="11" style="stroke:#A80036;stroke-width:1.0;"/><path d="M469.8438,260.6719 C468.9063,260.2344 468.3125,260.0938 467.4375,260.0938 C464.8125,260.0938 462.8125,262.1719 462.8125,264.8906 L462.8125,266.0156 C462.8125,268.5938 464.9219,270.4844 467.8125,270.4844 C469.0313,270.4844 470.1875,270.1875 470.9375,269.6406 C471.5156,269.2344 471.8438,268.7813 471.8438,268.3906 C471.8438,267.9375 471.4531,267.5469 470.9844,267.5469 C470.7656,267.5469 470.5625,267.625 470.375,267.8125 C469.9219,268.2969 469.9219,268.2969 469.7344,268.3906 C469.3125,268.6563 468.625,268.7813 467.8594,268.7813 C465.8125,268.7813 464.5156,267.6875 464.5156,265.9844 L464.5156,264.8906 C464.5156,263.1094 465.7656,261.7969 467.5,261.7969 C468.0781,261.7969 468.6875,261.9531 469.1563,262.2031 C469.6406,262.4844 469.8125,262.7031 469.9063,263.1094 C469.9688,263.5156 470,263.6406 470.1406,263.7656 C470.2813,263.9063 470.5156,264.0156 470.7344,264.0156 C471,264.0156 471.2656,263.875 471.4375,263.6563 C471.5469,263.5 471.5781,263.3125 471.5781,262.8906 L471.5781,261.4688 C471.5781,261.0313 471.5625,260.9063 471.4688,260.75 C471.3125,260.4844 471.0313,260.3438 470.7344,260.3438 C470.4375,260.3438 470.2344,260.4375 470.0156,260.75 L469.8438,260.6719 Z " fill="#000000"/><text fill="#000000" font-family="sans-serif" font-size="12" lengthAdjust="spacing" textLength="92" x="481.5" y="269.1543">ColaboradorDB</text><line style="stroke:#A80036;stroke-width:1.5;" x1="453.5" x2="575.5" y1="281" y2="281"/><line style="stroke:#A80036;stroke-width:1.5;" x1="453.5" x2="575.5" y1="289" y2="289"/><text fill="#000000" font-family="sans-serif" font-size="11" lengthAdjust="spacing" textLength="101" x="458.5" y="303.2104">getColab(colabID)</text><text fill="#000000" font-family="sans-serif" font-size="11" lengthAdjust="spacing" textLength="66" x="458.5" y="316.0151">validate(ID)</text><text fill="#000000" font-family="sans-serif" font-size="11" lengthAdjust="spacing" textLength="71" x="458.5" y="328.8198">getColab(ID)</text><!--MD5=[b7d25d3356417c8fe87439393af1c9a3]
link GestorDeEquipaUI to GestorDeEquipaController--><path codeLine="28" d="M268.5,55.227 C268.5,70.683 268.5,91.421 268.5,109.647 " fill="none" id="GestorDeEquipaUI-to-GestorDeEquipaController" style="stroke:#A80036;stroke-width:1.0;stroke-dasharray:7.0,7.0;"/><polygon fill="#A80036" points="268.5,114.714,272.5,105.714,268.5,109.714,264.5,105.714,268.5,114.714" style="stroke:#A80036;stroke-width:1.0;"/><!--MD5=[4214a28c5ee6ef10fbfd46edda2782ab]
link GestorDeEquipaController to EquipaDB--><path codeLine="29" d="M208.892,189.133 C179.926,206.891 144.712,228.775 113.5,249 C109.245,251.7574 104.8472,254.6493 100.4494,257.5709 " fill="none" id="GestorDeEquipaController-to-EquipaDB" style="stroke:#A80036;stroke-width:1.0;"/><polygon fill="#A80036" points="96.0566,260.4985,105.7641,258.8359,100.2173,257.7257,101.3276,252.1788,96.0566,260.4985" style="stroke:#A80036;stroke-width:1.0;"/><!--MD5=[24e388da3483d84973fe2d0369732c80]
link GestorDeEquipaController to Equipa--><path codeLine="30" d="M247.481,189.258 C235.344,210.194 220.172,236.3663 208.255,256.9225 " fill="none" id="GestorDeEquipaController-to-Equipa" style="stroke:#A80036;stroke-width:1.0;"/><polygon fill="#A80036" points="205.61,261.4855,213.5844,255.7054,208.1177,257.1598,206.6633,251.6931,205.61,261.4855" style="stroke:#A80036;stroke-width:1.0;"/><!--MD5=[7c89c3e6447e968bc66af48902281628]
link GestorDeEquipaController to Colaborador--><path codeLine="31" d="M289.782,189.258 C302.071,210.194 317.432,236.3663 329.498,256.9225 " fill="none" id="GestorDeEquipaController-to-Colaborador" style="stroke:#A80036;stroke-width:1.0;"/><polygon fill="#A80036" points="332.176,261.4855,331.069,251.6991,329.6446,257.1736,324.17,255.7493,332.176,261.4855" style="stroke:#A80036;stroke-width:1.0;"/><!--MD5=[811b339f56744617f6cb00127962c17b]
link GestorDeEquipaController to ColaboradorDB--><path codeLine="32" d="M332.812,189.078 C368.099,208.873 411.802,233.389 447.503,253.4163 " fill="none" id="GestorDeEquipaController-to-ColaboradorDB" style="stroke:#A80036;stroke-width:1.0;"/><polygon fill="#A80036" points="452.262,256.0859,446.369,248.1946,447.9011,253.6401,442.4556,255.1721,452.262,256.0859" style="stroke:#A80036;stroke-width:1.0;"/><!--MD5=[c0955756d8432dc68bff26b9d150b136]
@startuml
class GestorDeEquipaUI {}

class GestorDeEquipaController{
    findTeam(ID)
    addColab(teamID,ColabID)
}

class EquipaDB{
    findTeam(ID)
    validate(ID)
    getTeam(ID)
}

class Equipa{
    addColab(colabID)
}

class Colaborador{
    addAssociatedTeam()
}

class ColaboradorDB{
    getColab(colabID)
    validate(ID)
    getColab(ID)
}

GestorDeEquipaUI .-> GestorDeEquipaController
GestorDeEquipaController- ->EquipaDB
GestorDeEquipaController- ->Equipa
GestorDeEquipaController- ->Colaborador
GestorDeEquipaController- ->ColaboradorDB
@enduml

PlantUML version 1.2021.5(Sun Apr 25 11:20:28 UTC 2021)
(GPL source distribution)
Java Runtime: Java(TM) SE Runtime Environment
JVM: Java HotSpot(TM) 64-Bit Server VM
Default Encoding: UTF-8
Language: en
Country: US
--></g></svg>