<?xml version="1.0" encoding="UTF-8" standalone="no"?><svg xmlns="http://www.w3.org/2000/svg" xmlns:xlink="http://www.w3.org/1999/xlink" contentScriptType="application/ecmascript" contentStyleType="text/css" height="809px" preserveAspectRatio="none" style="width:1458px;height:809px;" version="1.1" viewBox="0 0 1458 809" width="1458px" zoomAndPan="magnify"><defs><filter height="300%" id="fljk7ojvw6coe" width="300%" x="-1" y="-1"><feGaussianBlur result="blurOut" stdDeviation="2.0"/><feColorMatrix in="blurOut" result="blurOut2" type="matrix" values="0 0 0 0 0 0 0 0 0 0 0 0 0 0 0 0 0 0 .4 0"/><feOffset dx="4.0" dy="4.0" in="blurOut2" result="blurOut3"/><feBlend in="SourceGraphic" in2="blurOut3" mode="normal"/></filter></defs><g><rect fill="#FFFFFF" filter="url(#fljk7ojvw6coe)" height="665.5234" style="stroke:#A80036;stroke-width:1.0;" width="10" x="18" y="119.4297"/><rect fill="#FFFFFF" filter="url(#fljk7ojvw6coe)" height="29.1328" style="stroke:#A80036;stroke-width:1.0;" width="10" x="521" y="119.4297"/><rect fill="#FFFFFF" filter="url(#fljk7ojvw6coe)" height="171.6641" style="stroke:#A80036;stroke-width:1.0;" width="10" x="521" y="177.6953"/><rect fill="#FFFFFF" filter="url(#fljk7ojvw6coe)" height="29.1328" style="stroke:#A80036;stroke-width:1.0;" width="10" x="521" y="378.4922"/><rect fill="#FFFFFF" filter="url(#fljk7ojvw6coe)" height="29.1328" style="stroke:#A80036;stroke-width:1.0;" width="10" x="521" y="436.7578"/><rect fill="#FFFFFF" filter="url(#fljk7ojvw6coe)" height="289.9297" style="stroke:#A80036;stroke-width:1.0;" width="10" x="521" y="495.0234"/><rect fill="#FFFFFF" filter="url(#fljk7ojvw6coe)" height="106.3984" style="stroke:#A80036;stroke-width:1.0;" width="10" x="727" y="206.8281"/><rect fill="#FFFFFF" filter="url(#fljk7ojvw6coe)" height="231.6641" style="stroke:#A80036;stroke-width:1.0;" width="10" x="727" y="524.1563"/><rect fill="#FFFFFF" filter="url(#fljk7ojvw6coe)" height="77.2656" style="stroke:#A80036;stroke-width:1.0;" width="10" x="901" y="235.9609"/><rect fill="#FFFFFF" filter="url(#fljk7ojvw6coe)" height="30" style="stroke:#A80036;stroke-width:1.0;" width="10" x="1014" y="666.6875"/><rect fill="#FFFFFF" filter="url(#fljk7ojvw6coe)" height="30" style="stroke:#A80036;stroke-width:1.0;" width="10" x="1182" y="725.8203"/><rect fill="#FFFFFF" filter="url(#fljk7ojvw6coe)" height="77.2656" style="stroke:#A80036;stroke-width:1.0;" width="10" x="1354" y="553.2891"/><line style="stroke:#A80036;stroke-width:1.0;stroke-dasharray:5.0,5.0;" x1="23" x2="23" y1="88.2969" y2="802.9531"/><line style="stroke:#A80036;stroke-width:1.0;stroke-dasharray:5.0,5.0;" x1="526" x2="526" y1="88.2969" y2="802.9531"/><line style="stroke:#A80036;stroke-width:1.0;stroke-dasharray:5.0,5.0;" x1="732" x2="732" y1="88.2969" y2="802.9531"/><line style="stroke:#A80036;stroke-width:1.0;stroke-dasharray:5.0,5.0;" x1="905.5" x2="905.5" y1="88.2969" y2="802.9531"/><line style="stroke:#A80036;stroke-width:1.0;stroke-dasharray:5.0,5.0;" x1="1018.5" x2="1018.5" y1="88.2969" y2="802.9531"/><line style="stroke:#A80036;stroke-width:1.0;stroke-dasharray:5.0,5.0;" x1="1186.5" x2="1186.5" y1="88.2969" y2="802.9531"/><line style="stroke:#A80036;stroke-width:1.0;stroke-dasharray:5.0,5.0;" x1="1358.5" x2="1358.5" y1="88.2969" y2="802.9531"/><text fill="#000000" font-family="sans-serif" font-size="14" lengthAdjust="spacing" textLength="30" x="5" y="84.9951">RRH</text><ellipse cx="23" cy="15" fill="#FEFECE" filter="url(#fljk7ojvw6coe)" rx="8" ry="8" style="stroke:#A80036;stroke-width:2.0;"/><path d="M23,23 L23,50 M10,31 L36,31 M23,50 L10,65 M23,50 L36,65 " fill="none" filter="url(#fljk7ojvw6coe)" style="stroke:#A80036;stroke-width:2.0;"/><rect fill="#FEFECE" filter="url(#fljk7ojvw6coe)" height="30.2969" style="stroke:#A80036;stroke-width:1.5;" width="162" x="443" y="53"/><text fill="#000000" font-family="sans-serif" font-size="14" lengthAdjust="spacing" textLength="148" x="450" y="72.9951">:Gestor de EquipasUI</text><rect fill="#FEFECE" filter="url(#fljk7ojvw6coe)" height="30.2969" style="stroke:#A80036;stroke-width:1.5;" width="222" x="619" y="53"/><text fill="#000000" font-family="sans-serif" font-size="14" lengthAdjust="spacing" textLength="208" x="626" y="72.9951">:Gestor de EquipasController</text><rect fill="#FEFECE" filter="url(#fljk7ojvw6coe)" height="30.2969" style="stroke:#A80036;stroke-width:1.5;" width="83" x="862.5" y="53"/><text fill="#000000" font-family="sans-serif" font-size="14" lengthAdjust="spacing" textLength="69" x="869.5" y="72.9951">EquipaDB</text><rect fill="#FEFECE" filter="url(#fljk7ojvw6coe)" height="30.2969" style="stroke:#A80036;stroke-width:1.5;" width="115" x="959.5" y="53"/><text fill="#000000" font-family="sans-serif" font-size="14" lengthAdjust="spacing" textLength="101" x="966.5" y="72.9951">equipa:Equipa</text><rect fill="#FEFECE" filter="url(#fljk7ojvw6coe)" height="30.2969" style="stroke:#A80036;stroke-width:1.5;" width="193" x="1088.5" y="53"/><text fill="#000000" font-family="sans-serif" font-size="14" lengthAdjust="spacing" textLength="179" x="1095.5" y="72.9951">colaborador:Colaborador</text><rect fill="#FEFECE" filter="url(#fljk7ojvw6coe)" height="30.2969" style="stroke:#A80036;stroke-width:1.5;" width="123" x="1295.5" y="53"/><text fill="#000000" font-family="sans-serif" font-size="14" lengthAdjust="spacing" textLength="109" x="1302.5" y="72.9951">ColaboradorDB</text><rect fill="#FFFFFF" filter="url(#fljk7ojvw6coe)" height="665.5234" style="stroke:#A80036;stroke-width:1.0;" width="10" x="18" y="119.4297"/><rect fill="#FFFFFF" filter="url(#fljk7ojvw6coe)" height="29.1328" style="stroke:#A80036;stroke-width:1.0;" width="10" x="521" y="119.4297"/><rect fill="#FFFFFF" filter="url(#fljk7ojvw6coe)" height="171.6641" style="stroke:#A80036;stroke-width:1.0;" width="10" x="521" y="177.6953"/><rect fill="#FFFFFF" filter="url(#fljk7ojvw6coe)" height="29.1328" style="stroke:#A80036;stroke-width:1.0;" width="10" x="521" y="378.4922"/><rect fill="#FFFFFF" filter="url(#fljk7ojvw6coe)" height="29.1328" style="stroke:#A80036;stroke-width:1.0;" width="10" x="521" y="436.7578"/><rect fill="#FFFFFF" filter="url(#fljk7ojvw6coe)" height="289.9297" style="stroke:#A80036;stroke-width:1.0;" width="10" x="521" y="495.0234"/><rect fill="#FFFFFF" filter="url(#fljk7ojvw6coe)" height="106.3984" style="stroke:#A80036;stroke-width:1.0;" width="10" x="727" y="206.8281"/><rect fill="#FFFFFF" filter="url(#fljk7ojvw6coe)" height="231.6641" style="stroke:#A80036;stroke-width:1.0;" width="10" x="727" y="524.1563"/><rect fill="#FFFFFF" filter="url(#fljk7ojvw6coe)" height="77.2656" style="stroke:#A80036;stroke-width:1.0;" width="10" x="901" y="235.9609"/><rect fill="#FFFFFF" filter="url(#fljk7ojvw6coe)" height="30" style="stroke:#A80036;stroke-width:1.0;" width="10" x="1014" y="666.6875"/><rect fill="#FFFFFF" filter="url(#fljk7ojvw6coe)" height="30" style="stroke:#A80036;stroke-width:1.0;" width="10" x="1182" y="725.8203"/><rect fill="#FFFFFF" filter="url(#fljk7ojvw6coe)" height="77.2656" style="stroke:#A80036;stroke-width:1.0;" width="10" x="1354" y="553.2891"/><polygon fill="#A80036" points="509,115.4297,519,119.4297,509,123.4297,513,119.4297" style="stroke:#A80036;stroke-width:1.0;"/><line style="stroke:#A80036;stroke-width:1.0;" x1="28" x2="515" y1="119.4297" y2="119.4297"/><text fill="#000000" font-family="sans-serif" font-size="13" lengthAdjust="spacing" textLength="479" x="35" y="114.3638">Inicia o processo de remoção/associação de um colaborador a uma equipa</text><polygon fill="#A80036" points="39,144.5625,29,148.5625,39,152.5625,35,148.5625" style="stroke:#A80036;stroke-width:1.0;"/><line style="stroke:#A80036;stroke-width:1.0;" x1="33" x2="525" y1="148.5625" y2="148.5625"/><text fill="#000000" font-family="sans-serif" font-size="13" lengthAdjust="spacing" textLength="157" x="45" y="143.4966">Pede nome/ID de equipa</text><polygon fill="#A80036" points="509,173.6953,519,177.6953,509,181.6953,513,177.6953" style="stroke:#A80036;stroke-width:1.0;"/><line style="stroke:#A80036;stroke-width:1.0;" x1="28" x2="515" y1="177.6953" y2="177.6953"/><text fill="#000000" font-family="sans-serif" font-size="13" lengthAdjust="spacing" textLength="177" x="35" y="172.6294">Introduz nome/ID de equipa</text><polygon fill="#A80036" points="715,202.8281,725,206.8281,715,210.8281,719,206.8281" style="stroke:#A80036;stroke-width:1.0;"/><line style="stroke:#A80036;stroke-width:1.0;" x1="531" x2="721" y1="206.8281" y2="206.8281"/><text fill="#000000" font-family="sans-serif" font-size="13" lengthAdjust="spacing" textLength="84" x="538" y="201.7622">findTeam(ID)</text><polygon fill="#A80036" points="889,231.9609,899,235.9609,889,239.9609,893,235.9609" style="stroke:#A80036;stroke-width:1.0;"/><line style="stroke:#A80036;stroke-width:1.0;" x1="737" x2="895" y1="235.9609" y2="235.9609"/><text fill="#000000" font-family="sans-serif" font-size="13" lengthAdjust="spacing" textLength="145" x="744" y="230.895">equipa = findTeam(ID)</text><line style="stroke:#A80036;stroke-width:1.0;" x1="911" x2="953" y1="265.0938" y2="265.0938"/><line style="stroke:#A80036;stroke-width:1.0;" x1="953" x2="953" y1="265.0938" y2="278.0938"/><line style="stroke:#A80036;stroke-width:1.0;" x1="912" x2="953" y1="278.0938" y2="278.0938"/><polygon fill="#A80036" points="922,274.0938,912,278.0938,922,282.0938,918,278.0938" style="stroke:#A80036;stroke-width:1.0;"/><text fill="#000000" font-family="sans-serif" font-size="13" lengthAdjust="spacing" textLength="74" x="918" y="260.0278">validate(ID)</text><line style="stroke:#A80036;stroke-width:1.0;" x1="911" x2="953" y1="312.2266" y2="312.2266"/><line style="stroke:#A80036;stroke-width:1.0;" x1="953" x2="953" y1="312.2266" y2="325.2266"/><line style="stroke:#A80036;stroke-width:1.0;" x1="906" x2="953" y1="325.2266" y2="325.2266"/><polygon fill="#A80036" points="916,321.2266,906,325.2266,916,329.2266,912,325.2266" style="stroke:#A80036;stroke-width:1.0;"/><text fill="#000000" font-family="sans-serif" font-size="13" lengthAdjust="spacing" textLength="81" x="918" y="307.1606">getTeam(ID)</text><polygon fill="#A80036" points="39,345.3594,29,349.3594,39,353.3594,35,349.3594" style="stroke:#A80036;stroke-width:1.0;"/><line style="stroke:#A80036;stroke-width:1.0;" x1="33" x2="525" y1="349.3594" y2="349.3594"/><text fill="#000000" font-family="sans-serif" font-size="13" lengthAdjust="spacing" textLength="187" x="45" y="344.2935">Mostra informação da equipa</text><polygon fill="#A80036" points="509,374.4922,519,378.4922,509,382.4922,513,378.4922" style="stroke:#A80036;stroke-width:1.0;"/><line style="stroke:#A80036;stroke-width:1.0;" x1="28" x2="515" y1="378.4922" y2="378.4922"/><text fill="#000000" font-family="sans-serif" font-size="13" lengthAdjust="spacing" textLength="251" x="35" y="373.4263">Seleciona opção de "Gestão de Equipa"</text><polygon fill="#A80036" points="39,403.625,29,407.625,39,411.625,35,407.625" style="stroke:#A80036;stroke-width:1.0;"/><line style="stroke:#A80036;stroke-width:1.0;" x1="33" x2="525" y1="407.625" y2="407.625"/><text fill="#000000" font-family="sans-serif" font-size="13" lengthAdjust="spacing" textLength="227" x="45" y="402.5591">Mostra composição atual da equipa</text><polygon fill="#A80036" points="509,432.7578,519,436.7578,509,440.7578,513,436.7578" style="stroke:#A80036;stroke-width:1.0;"/><line style="stroke:#A80036;stroke-width:1.0;" x1="28" x2="515" y1="436.7578" y2="436.7578"/><text fill="#000000" font-family="sans-serif" font-size="13" lengthAdjust="spacing" textLength="310" x="35" y="431.6919">Seleciona opção de remoção/adição de membro</text><polygon fill="#A80036" points="39,461.8906,29,465.8906,39,469.8906,35,465.8906" style="stroke:#A80036;stroke-width:1.0;"/><line style="stroke:#A80036;stroke-width:1.0;" x1="33" x2="525" y1="465.8906" y2="465.8906"/><text fill="#000000" font-family="sans-serif" font-size="13" lengthAdjust="spacing" textLength="336" x="45" y="460.8247">Solicita nome/ID de colaborador a remover/adicionar</text><polygon fill="#A80036" points="509,491.0234,519,495.0234,509,499.0234,513,495.0234" style="stroke:#A80036;stroke-width:1.0;"/><line style="stroke:#A80036;stroke-width:1.0;" x1="28" x2="515" y1="495.0234" y2="495.0234"/><text fill="#000000" font-family="sans-serif" font-size="13" lengthAdjust="spacing" textLength="343" x="35" y="489.9575">Introduz nome/ID do colaborador a remover/adicionar</text><polygon fill="#A80036" points="715,520.1563,725,524.1563,715,528.1563,719,524.1563" style="stroke:#A80036;stroke-width:1.0;"/><line style="stroke:#A80036;stroke-width:1.0;" x1="531" x2="721" y1="524.1563" y2="524.1563"/><text fill="#000000" font-family="sans-serif" font-size="13" lengthAdjust="spacing" textLength="130" x="538" y="519.0903">addColab(equipa,ID)</text><polygon fill="#A80036" points="1342,549.2891,1352,553.2891,1342,557.2891,1346,553.2891" style="stroke:#A80036;stroke-width:1.0;"/><line style="stroke:#A80036;stroke-width:1.0;" x1="737" x2="1348" y1="553.2891" y2="553.2891"/><text fill="#000000" font-family="sans-serif" font-size="13" lengthAdjust="spacing" textLength="174" x="744" y="548.2231">colaborador = getColab(ID)</text><line style="stroke:#A80036;stroke-width:1.0;" x1="1364" x2="1406" y1="582.4219" y2="582.4219"/><line style="stroke:#A80036;stroke-width:1.0;" x1="1406" x2="1406" y1="582.4219" y2="595.4219"/><line style="stroke:#A80036;stroke-width:1.0;" x1="1365" x2="1406" y1="595.4219" y2="595.4219"/><polygon fill="#A80036" points="1375,591.4219,1365,595.4219,1375,599.4219,1371,595.4219" style="stroke:#A80036;stroke-width:1.0;"/><text fill="#000000" font-family="sans-serif" font-size="13" lengthAdjust="spacing" textLength="74" x="1371" y="577.356">validate(ID)</text><line style="stroke:#A80036;stroke-width:1.0;" x1="1364" x2="1406" y1="629.5547" y2="629.5547"/><line style="stroke:#A80036;stroke-width:1.0;" x1="1406" x2="1406" y1="629.5547" y2="642.5547"/><line style="stroke:#A80036;stroke-width:1.0;" x1="1359" x2="1406" y1="642.5547" y2="642.5547"/><polygon fill="#A80036" points="1369,638.5547,1359,642.5547,1369,646.5547,1365,642.5547" style="stroke:#A80036;stroke-width:1.0;"/><text fill="#000000" font-family="sans-serif" font-size="13" lengthAdjust="spacing" textLength="80" x="1371" y="624.4888">getColab(ID)</text><polygon fill="#A80036" points="1002,662.6875,1012,666.6875,1002,670.6875,1006,666.6875" style="stroke:#A80036;stroke-width:1.0;"/><line style="stroke:#A80036;stroke-width:1.0;" x1="737" x2="1008" y1="666.6875" y2="666.6875"/><text fill="#000000" font-family="sans-serif" font-size="13" lengthAdjust="spacing" textLength="146" x="744" y="661.6216">addColab(colaborador)</text><polygon fill="#A80036" points="1170,721.8203,1180,725.8203,1170,729.8203,1174,725.8203" style="stroke:#A80036;stroke-width:1.0;"/><line style="stroke:#A80036;stroke-width:1.0;" x1="737" x2="1176" y1="725.8203" y2="725.8203"/><text fill="#000000" font-family="sans-serif" font-size="13" lengthAdjust="spacing" textLength="184" x="744" y="720.7544">addAssociatedTeam(equipa)</text><polygon fill="#A80036" points="34,780.9531,24,784.9531,34,788.9531,30,784.9531" style="stroke:#A80036;stroke-width:1.0;"/><line style="stroke:#A80036;stroke-width:1.0;" x1="28" x2="525" y1="784.9531" y2="784.9531"/><text fill="#000000" font-family="sans-serif" font-size="13" lengthAdjust="spacing" textLength="124" x="40" y="779.8872">Operação efetuada</text><!--MD5=[2ccefa6d82f8234a2d599116e74ae61a]
@startuml
hide footbox

actor RRH as ACT

participant ":Gestor de EquipasUI" as UI
participant ":Gestor de EquipasController" as CT
participant EquipaDB as EDB
participant "equipa:Equipa" as EQ
participant "colaborador:Colaborador" as CL
participant ColaboradorDB as CDB

ACT->UI: Inicia o processo de remoção/associação de um colaborador a uma equipa
activate ACT
activate UI
UI->ACT: Pede nome/ID de equipa
deactivate UI
ACT->UI: Introduz nome/ID de equipa
activate UI
UI->CT: findTeam(ID)
activate CT
CT->EDB: equipa = findTeam(ID)
activate EDB
EDB->EDB: validate(ID)
EDB->EDB: getTeam(ID)
deactivate EDB
deactivate CT
UI->ACT: Mostra informação da equipa
deactivate UI
ACT->UI: Seleciona opção de "Gestão de Equipa"
activate UI
UI->ACT: Mostra composição atual da equipa
deactivate UI
ACT->UI: Seleciona opção de remoção/adição de membro
activate UI
UI->ACT: Solicita nome/ID de colaborador a remover/adicionar
deactivate UI
ACT->UI: Introduz nome/ID do colaborador a remover/adicionar
activate UI
UI->CT: addColab(equipa,ID)
activate CT
CT->CDB:colaborador = getColab(ID)
activate CDB
CDB->CDB:validate(ID)
CDB->CDB:getColab(ID)
deactivate CDB
CT->EQ: addColab(colaborador)
activate EQ
deactivate EQ
CT->CL: addAssociatedTeam(equipa)
activate CL
deactivate CL
deactivate CT
UI->ACT: Operação efetuada
deactivate UI

deactivate ACT
@enduml

PlantUML version 1.2021.5beta3(Unknown compile time)
(GPL source distribution)
Java Runtime: Java(TM) SE Runtime Environment
JVM: Java HotSpot(TM) 64-Bit Server VM
Default Encoding: UTF-8
Language: en
Country: US
--></g></svg>