<?xml version="1.0" encoding="UTF-8" standalone="no"?><svg xmlns="http://www.w3.org/2000/svg" xmlns:xlink="http://www.w3.org/1999/xlink" contentScriptType="application/ecmascript" contentStyleType="text/css" height="194px" preserveAspectRatio="none" style="width:1126px;height:194px;background:#FFFFFF;" version="1.1" viewBox="0 0 1126 194" width="1126px" zoomAndPan="magnify"><defs/><g><!--MD5=[0d4e5460865fab64524af805768c65c5]
class EspecificarServicoController--><polygon fill="#F8F8F8" points="365.5,7,365.5,7.2102,375.65,6.5857,385.8,7.1933,395.95,7.3997,406.1,6.2866,416.25,6.9223,426.4,6.5735,436.55,6.6165,446.7,6.9318,456.85,6.3086,467,7.5536,477.15,6.3697,487.3,6.8022,497.45,7.4319,507.6,6.9142,517.75,7.0682,527.9,6.9681,538.05,7.1785,548.2,7.2391,558.35,7.5857,568.5,7,569.1711,7,569.1793,17.7875,568.7546,28.575,568.9636,39.3625,569.2022,50.15,568.5,60.9375,568.5,60.2163,558.35,61.616,548.2,60.641,538.05,61.4713,527.9,60.4425,517.75,60.869,507.6,61.6791,497.45,60.8888,487.3,61.0428,477.15,61.2761,467,61.3537,456.85,60.9336,446.7,61.2247,436.55,60.3651,426.4,61.2219,416.25,61.4857,406.1,61.382,395.95,61.5505,385.8,60.4544,375.65,60.2853,365.5,60.9375,364.8786,60.9375,365.4411,50.15,365.3035,39.3625,366.1814,28.575,365.3253,17.7875,365.5,7" style="stroke:#383838;stroke-width:1.5;"/><polygon fill="#C2C2C2" points="391.5608,28.6444,389.9484,30.8475,388.0412,34.0745,385.3136,36.2491,382.4474,37.4384,380.162,37.5416,377.2247,36.0543,374.4532,35.0827,372.3495,33.1099,371.2461,30.8515,370.5917,29.0533,369.9506,26.7045,368.91,24.6832,369.7096,22.7098,370.4102,20.548,373.0393,18.8382,374.889,16.6198,377.1784,15.8832,379.9001,15.2488,383.3904,15.6257,385.3021,16.5273,387.5247,16.9359,390.2272,19.7047,391.1693,22.6277,391.5786,24.6221,391.115,27.9086" style="stroke:#383838;stroke-width:1.0;"/><path d="M382.8438,21.6406 C381.9063,21.2031 381.3125,21.0625 380.4375,21.0625 C377.8125,21.0625 375.8125,23.1406 375.8125,25.8594 L375.8125,26.9844 C375.8125,29.5625 377.9219,31.4531 380.8125,31.4531 C382.0313,31.4531 383.1875,31.1563 383.9375,30.6094 C384.5156,30.2031 384.8438,29.75 384.8438,29.3594 C384.8438,28.9063 384.4531,28.5156 383.9844,28.5156 C383.7656,28.5156 383.5625,28.5938 383.375,28.7813 C382.9219,29.2656 382.9219,29.2656 382.7344,29.3594 C382.3125,29.625 381.625,29.75 380.8594,29.75 C378.8125,29.75 377.5156,28.6563 377.5156,26.9531 L377.5156,25.8594 C377.5156,24.0781 378.7656,22.7656 380.5,22.7656 C381.0781,22.7656 381.6875,22.9219 382.1563,23.1719 C382.6406,23.4531 382.8125,23.6719 382.9063,24.0781 C382.9688,24.4844 383,24.6094 383.1406,24.7344 C383.2813,24.875 383.5156,24.9844 383.7344,24.9844 C384,24.9844 384.2656,24.8438 384.4375,24.625 C384.5469,24.4688 384.5781,24.2813 384.5781,23.8594 L384.5781,22.4375 C384.5781,22 384.5625,21.875 384.4688,21.7188 C384.3125,21.4531 384.0313,21.3125 383.7344,21.3125 C383.4375,21.3125 383.2344,21.4063 383.0156,21.7188 L382.8438,21.6406 Z " fill="#000000"/><text fill="#000000" font-family="FG Virgil" font-size="12" font-style="italic" lengthAdjust="spacing" textLength="80" x="440" y="23.1387">«application»</text><text fill="#000000" font-family="FG Virgil" font-size="12" lengthAdjust="spacing" textLength="171" x="394.5" y="37.1074">EspecificarServicoController</text><path d="M366.5,44.9375 L366.5,45.2177 L376.55,44.3851 L386.6,45.1952 L396.65,45.4704 L406.7,43.9863 L416.75,44.8339 L426.8,44.3688 L436.85,44.4262 L446.9,44.8466 L456.95,44.0157 L467,45.6757 L477.05,44.0971 L487.1,44.6738 L497.15,45.5134 L507.2,44.8231 L517.25,45.0285 L527.3,44.8949 L537.35,45.1755 L547.4,45.2563 L557.45,45.7184 L567.5,44.9375 " fill="#F8F8F8" style="stroke:#383838;stroke-width:1.5;"/><path d="M366.5,52.9375 L366.5,53.2177 L376.55,52.3851 L386.6,53.1952 L396.65,53.4704 L406.7,51.9863 L416.75,52.8339 L426.8,52.3688 L436.85,52.4262 L446.9,52.8466 L456.95,52.0157 L467,53.6757 L477.05,52.0971 L487.1,52.6738 L497.15,53.5134 L507.2,52.8231 L517.25,53.0285 L527.3,52.8949 L537.35,53.1755 L547.4,53.2563 L557.45,53.7184 L567.5,52.9375 " fill="#F8F8F8" style="stroke:#383838;stroke-width:1.5;"/><!--MD5=[9c7960ba7d2d8dd12deee446cc70d994]
class Criticidade--><polygon fill="#F8F8F8" points="7,121,7,121.2102,16.6,120.5857,26.2,121.1933,35.8,121.3997,45.4,120.2866,55,120.9223,64.6,120.5735,74.2,120.6165,83.8,120.9318,93.4,120.3086,103,121,103.5536,121,102.3697,130.5346,102.8022,140.0692,103.4319,149.6038,102.9142,159.1384,103.0682,168.673,102.9681,178.2076,103,187.7422,103,187.9207,93.4,187.9813,83.8,188.3279,74.2,188.4132,64.6,188.4214,55,187.9968,45.4,188.2058,35.8,188.4444,26.2,187.021,16.6,188.4207,7,187.7422,6.7035,187.7422,7.5338,178.2076,6.505,168.673,6.9315,159.1384,7.7416,149.6038,6.9513,140.0692,7.1053,130.5346,7,121" style="stroke:#383838;stroke-width:1.5;"/><polygon fill="#C2C2C2" points="33.0608,142.6444,31.4484,144.8475,29.5412,148.0745,26.8136,150.2491,23.9474,151.4384,21.662,151.5416,18.7247,150.0543,15.9532,149.0827,13.8495,147.1099,12.7461,144.8515,12.0917,143.0533,11.4506,140.7045,10.41,138.6832,11.2096,136.7098,11.9102,134.548,14.5393,132.8382,16.389,130.6198,18.6784,129.8832,21.4001,129.2488,24.8904,129.6257,26.8021,130.5273,29.0247,130.9359,31.7272,133.7047,32.6693,136.6277,33.0786,138.6221,32.615,141.9086" style="stroke:#383838;stroke-width:1.0;"/><path d="M24.3438,135.6406 C23.4063,135.2031 22.8125,135.0625 21.9375,135.0625 C19.3125,135.0625 17.3125,137.1406 17.3125,139.8594 L17.3125,140.9844 C17.3125,143.5625 19.4219,145.4531 22.3125,145.4531 C23.5313,145.4531 24.6875,145.1563 25.4375,144.6094 C26.0156,144.2031 26.3438,143.75 26.3438,143.3594 C26.3438,142.9063 25.9531,142.5156 25.4844,142.5156 C25.2656,142.5156 25.0625,142.5938 24.875,142.7813 C24.4219,143.2656 24.4219,143.2656 24.2344,143.3594 C23.8125,143.625 23.125,143.75 22.3594,143.75 C20.3125,143.75 19.0156,142.6563 19.0156,140.9531 L19.0156,139.8594 C19.0156,138.0781 20.2656,136.7656 22,136.7656 C22.5781,136.7656 23.1875,136.9219 23.6563,137.1719 C24.1406,137.4531 24.3125,137.6719 24.4063,138.0781 C24.4688,138.4844 24.5,138.6094 24.6406,138.7344 C24.7813,138.875 25.0156,138.9844 25.2344,138.9844 C25.5,138.9844 25.7656,138.8438 25.9375,138.625 C26.0469,138.4688 26.0781,138.2813 26.0781,137.8594 L26.0781,136.4375 C26.0781,136 26.0625,135.875 25.9688,135.7188 C25.8125,135.4531 25.5313,135.3125 25.2344,135.3125 C24.9375,135.3125 24.7344,135.4063 24.5156,135.7188 L24.3438,135.6406 Z " fill="#000000"/><text fill="#000000" font-family="FG Virgil" font-size="12" font-style="italic" lengthAdjust="spacing" textLength="59" x="38.5" y="137.1387">«domain»</text><text fill="#000000" font-family="FG Virgil" font-size="12" lengthAdjust="spacing" textLength="64" x="36" y="151.1074">Criticidade</text><path d="M8,158.9375 L8,159.2177 L18.4444,158.3851 L28.8889,159.1952 L39.3333,159.4704 L49.7778,157.9863 L60.2222,158.8339 L70.6667,158.3688 L81.1111,158.4262 L91.5556,158.8466 L102,158.9375 " fill="#F8F8F8" style="stroke:#383838;stroke-width:1.5;"/><path d="M8,166.9375 L8,167.2177 L18.4444,166.3851 L28.8889,167.1952 L39.3333,167.4704 L49.7778,165.9863 L60.2222,166.8339 L70.6667,166.3688 L81.1111,166.4262 L91.5556,166.8466 L102,166.9375 " fill="#F8F8F8" style="stroke:#383838;stroke-width:1.5;"/><text fill="#000000" font-family="FG Virgil" font-size="11" lengthAdjust="spacing" textLength="79" x="13" y="181.1479">crit = create()</text><!--MD5=[707f6e11070e923409c8fe8b66df636b]
class Prioridade--><polygon fill="#F8F8F8" points="138.5,121,138.5,121.2102,148,120.5857,157.5,121.1933,167,121.3997,176.5,120.2866,186,120.9223,195.5,120.5735,205,120.6165,214.5,120.9318,224,120.3086,233.5,121,234.0536,121,232.8697,130.5346,233.3022,140.0692,233.9319,149.6038,233.4142,159.1384,233.5682,168.673,233.4681,178.2076,233.5,187.7422,233.5,187.9207,224,187.9813,214.5,188.3279,205,188.4132,195.5,188.4214,186,187.9968,176.5,188.2058,167,188.4444,157.5,187.021,148,188.4207,138.5,187.7422,138.2035,187.7422,139.0338,178.2076,138.005,168.673,138.4315,159.1384,139.2416,149.6038,138.4513,140.0692,138.6053,130.5346,138.5,121" style="stroke:#383838;stroke-width:1.5;"/><polygon fill="#C2C2C2" points="165.4608,142.6444,163.8484,144.8475,161.9412,148.0745,159.2136,150.2491,156.3474,151.4384,154.062,151.5416,151.1247,150.0543,148.3532,149.0827,146.2495,147.1099,145.1461,144.8515,144.4917,143.0533,143.8506,140.7045,142.81,138.6832,143.6096,136.7098,144.3102,134.548,146.9393,132.8382,148.789,130.6198,151.0784,129.8832,153.8001,129.2488,157.2904,129.6257,159.2021,130.5273,161.4247,130.9359,164.1272,133.7047,165.0693,136.6277,165.4786,138.6221,165.015,141.9086" style="stroke:#383838;stroke-width:1.0;"/><path d="M156.7438,135.6406 C155.8063,135.2031 155.2125,135.0625 154.3375,135.0625 C151.7125,135.0625 149.7125,137.1406 149.7125,139.8594 L149.7125,140.9844 C149.7125,143.5625 151.8219,145.4531 154.7125,145.4531 C155.9313,145.4531 157.0875,145.1563 157.8375,144.6094 C158.4156,144.2031 158.7438,143.75 158.7438,143.3594 C158.7438,142.9063 158.3531,142.5156 157.8844,142.5156 C157.6656,142.5156 157.4625,142.5938 157.275,142.7813 C156.8219,143.2656 156.8219,143.2656 156.6344,143.3594 C156.2125,143.625 155.525,143.75 154.7594,143.75 C152.7125,143.75 151.4156,142.6563 151.4156,140.9531 L151.4156,139.8594 C151.4156,138.0781 152.6656,136.7656 154.4,136.7656 C154.9781,136.7656 155.5875,136.9219 156.0563,137.1719 C156.5406,137.4531 156.7125,137.6719 156.8063,138.0781 C156.8688,138.4844 156.9,138.6094 157.0406,138.7344 C157.1813,138.875 157.4156,138.9844 157.6344,138.9844 C157.9,138.9844 158.1656,138.8438 158.3375,138.625 C158.4469,138.4688 158.4781,138.2813 158.4781,137.8594 L158.4781,136.4375 C158.4781,136 158.4625,135.875 158.3688,135.7188 C158.2125,135.4531 157.9313,135.3125 157.6344,135.3125 C157.3375,135.3125 157.1344,135.4063 156.9156,135.7188 L156.7438,135.6406 Z " fill="#000000"/><text fill="#000000" font-family="FG Virgil" font-size="12" font-style="italic" lengthAdjust="spacing" textLength="59" x="169.6" y="137.1387">«domain»</text><text fill="#000000" font-family="FG Virgil" font-size="12" lengthAdjust="spacing" textLength="61" x="168.6" y="151.1074">Prioridade</text><path d="M139.5,158.9375 L139.5,159.2177 L149.8333,158.3851 L160.1667,159.1952 L170.5,159.4704 L180.8333,157.9863 L191.1667,158.8339 L201.5,158.3688 L211.8333,158.4262 L222.1667,158.8466 L232.5,158.9375 " fill="#F8F8F8" style="stroke:#383838;stroke-width:1.5;"/><path d="M139.5,166.9375 L139.5,167.2177 L149.8333,166.3851 L160.1667,167.1952 L170.5,167.4704 L180.8333,165.9863 L191.1667,166.8339 L201.5,166.3688 L211.8333,166.4262 L222.1667,166.8466 L232.5,166.9375 " fill="#F8F8F8" style="stroke:#383838;stroke-width:1.5;"/><text fill="#000000" font-family="FG Virgil" font-size="11" lengthAdjust="spacing" textLength="83" x="144.5" y="181.1479">prio = create()</text><!--MD5=[60c9ed31c535bee25c55ce21b5b01399]
class Data--><polygon fill="#F8F8F8" points="268.5,121,268.5,121.2102,278.4,120.5857,288.3,121.1933,298.2,121.3997,308.1,120.2866,318,120.9223,327.9,120.5735,337.8,120.6165,347.7,120.9318,357.6,120.3086,367.5,121,368.0536,121,366.8697,130.5346,367.3022,140.0692,367.9319,149.6038,367.4142,159.1384,367.5682,168.673,367.4681,178.2076,367.5,187.7422,367.5,187.9207,357.6,187.9813,347.7,188.3279,337.8,188.4132,327.9,188.4214,318,187.9968,308.1,188.2058,298.2,188.4444,288.3,187.021,278.4,188.4207,268.5,187.7422,268.2035,187.7422,269.0338,178.2076,268.005,168.673,268.4315,159.1384,269.2416,149.6038,268.4513,140.0692,268.6053,130.5346,268.5,121" style="stroke:#383838;stroke-width:1.5;"/><polygon fill="#C2C2C2" points="299.9608,142.6444,298.3484,144.8475,296.4412,148.0745,293.7136,150.2491,290.8474,151.4384,288.562,151.5416,285.6247,150.0543,282.8532,149.0827,280.7495,147.1099,279.6461,144.8515,278.9917,143.0533,278.3506,140.7045,277.31,138.6832,278.1096,136.7098,278.8102,134.548,281.4393,132.8382,283.289,130.6198,285.5784,129.8832,288.3001,129.2488,291.7904,129.6257,293.7021,130.5273,295.9247,130.9359,298.6272,133.7047,299.5693,136.6277,299.9786,138.6221,299.515,141.9086" style="stroke:#383838;stroke-width:1.0;"/><path d="M291.2438,135.6406 C290.3063,135.2031 289.7125,135.0625 288.8375,135.0625 C286.2125,135.0625 284.2125,137.1406 284.2125,139.8594 L284.2125,140.9844 C284.2125,143.5625 286.3219,145.4531 289.2125,145.4531 C290.4313,145.4531 291.5875,145.1563 292.3375,144.6094 C292.9156,144.2031 293.2438,143.75 293.2438,143.3594 C293.2438,142.9063 292.8531,142.5156 292.3844,142.5156 C292.1656,142.5156 291.9625,142.5938 291.775,142.7813 C291.3219,143.2656 291.3219,143.2656 291.1344,143.3594 C290.7125,143.625 290.025,143.75 289.2594,143.75 C287.2125,143.75 285.9156,142.6563 285.9156,140.9531 L285.9156,139.8594 C285.9156,138.0781 287.1656,136.7656 288.9,136.7656 C289.4781,136.7656 290.0875,136.9219 290.5563,137.1719 C291.0406,137.4531 291.2125,137.6719 291.3063,138.0781 C291.3688,138.4844 291.4,138.6094 291.5406,138.7344 C291.6813,138.875 291.9156,138.9844 292.1344,138.9844 C292.4,138.9844 292.6656,138.8438 292.8375,138.625 C292.9469,138.4688 292.9781,138.2813 292.9781,137.8594 L292.9781,136.4375 C292.9781,136 292.9625,135.875 292.8688,135.7188 C292.7125,135.4531 292.4313,135.3125 292.1344,135.3125 C291.8375,135.3125 291.6344,135.4063 291.4156,135.7188 L291.2438,135.6406 Z " fill="#000000"/><text fill="#000000" font-family="FG Virgil" font-size="12" font-style="italic" lengthAdjust="spacing" textLength="59" x="302.1" y="137.1387">«domain»</text><text fill="#000000" font-family="FG Virgil" font-size="12" lengthAdjust="spacing" textLength="27" x="318.1" y="151.1074">Data</text><path d="M269.5,158.9375 L269.5,159.2177 L279.2,158.3851 L288.9,159.1952 L298.6,159.4704 L308.3,157.9863 L318,158.8339 L327.7,158.3688 L337.4,158.4262 L347.1,158.8466 L356.8,158.0157 L366.5,158.9375 " fill="#F8F8F8" style="stroke:#383838;stroke-width:1.5;"/><path d="M269.5,166.9375 L269.5,167.2177 L279.2,166.3851 L288.9,167.1952 L298.6,167.4704 L308.3,165.9863 L318,166.8339 L327.7,166.3688 L337.4,166.4262 L347.1,166.8466 L356.8,166.0157 L366.5,166.9375 " fill="#F8F8F8" style="stroke:#383838;stroke-width:1.5;"/><text fill="#000000" font-family="FG Virgil" font-size="11" lengthAdjust="spacing" textLength="87" x="274.5" y="181.1479">data = create()</text><!--MD5=[8389ca4fa7aa9c9ef7ae55469c98a907]
class EstadoAtividade--><polygon fill="#F8F8F8" points="402.5,121,402.5,121.2102,412.4231,120.5857,422.3462,121.1933,432.2692,121.3997,442.1923,120.2866,452.1154,120.9223,462.0385,120.5735,471.9615,120.6165,481.8846,120.9318,491.8077,120.3086,501.7308,121.5536,511.6538,120.3697,521.5769,120.8022,531.5,121,531.9319,121,531.4142,130.5346,531.5682,140.0692,531.4681,149.6038,531.6785,159.1384,531.7391,168.673,532.0857,178.2076,531.5,187.7422,531.5,188.4132,521.5769,188.4214,511.6538,187.9968,501.7308,188.2058,491.8077,188.4444,481.8846,187.021,471.9615,188.4207,462.0385,187.4457,452.1154,188.276,442.1923,187.2472,432.2692,187.6737,422.3462,188.4838,412.4231,187.6935,402.5,187.7422,402.6053,187.7422,402.8386,178.2076,402.9162,168.673,402.4961,159.1384,402.7872,149.6038,401.9276,140.0692,402.7844,130.5346,402.5,121" style="stroke:#383838;stroke-width:1.5;"/><polygon fill="#C2C2C2" points="428.5608,142.6444,426.9484,144.8475,425.0412,148.0745,422.3136,150.2491,419.4474,151.4384,417.162,151.5416,414.2247,150.0543,411.4532,149.0827,409.3495,147.1099,408.2461,144.8515,407.5917,143.0533,406.9506,140.7045,405.91,138.6832,406.7096,136.7098,407.4102,134.548,410.0393,132.8382,411.889,130.6198,414.1784,129.8832,416.9001,129.2488,420.3904,129.6257,422.3021,130.5273,424.5247,130.9359,427.2272,133.7047,428.1693,136.6277,428.5786,138.6221,428.115,141.9086" style="stroke:#383838;stroke-width:1.0;"/><path d="M419.8438,135.6406 C418.9063,135.2031 418.3125,135.0625 417.4375,135.0625 C414.8125,135.0625 412.8125,137.1406 412.8125,139.8594 L412.8125,140.9844 C412.8125,143.5625 414.9219,145.4531 417.8125,145.4531 C419.0313,145.4531 420.1875,145.1563 420.9375,144.6094 C421.5156,144.2031 421.8438,143.75 421.8438,143.3594 C421.8438,142.9063 421.4531,142.5156 420.9844,142.5156 C420.7656,142.5156 420.5625,142.5938 420.375,142.7813 C419.9219,143.2656 419.9219,143.2656 419.7344,143.3594 C419.3125,143.625 418.625,143.75 417.8594,143.75 C415.8125,143.75 414.5156,142.6563 414.5156,140.9531 L414.5156,139.8594 C414.5156,138.0781 415.7656,136.7656 417.5,136.7656 C418.0781,136.7656 418.6875,136.9219 419.1563,137.1719 C419.6406,137.4531 419.8125,137.6719 419.9063,138.0781 C419.9688,138.4844 420,138.6094 420.1406,138.7344 C420.2813,138.875 420.5156,138.9844 420.7344,138.9844 C421,138.9844 421.2656,138.8438 421.4375,138.625 C421.5469,138.4688 421.5781,138.2813 421.5781,137.8594 L421.5781,136.4375 C421.5781,136 421.5625,135.875 421.4688,135.7188 C421.3125,135.4531 421.0313,135.3125 420.7344,135.3125 C420.4375,135.3125 420.2344,135.4063 420.0156,135.7188 L419.8438,135.6406 Z " fill="#000000"/><text fill="#000000" font-family="FG Virgil" font-size="12" font-style="italic" lengthAdjust="spacing" textLength="59" x="450.5" y="137.1387">«domain»</text><text fill="#000000" font-family="FG Virgil" font-size="12" lengthAdjust="spacing" textLength="97" x="431.5" y="151.1074">EstadoAtividade</text><path d="M403.5,158.9375 L403.5,159.2177 L413.2692,158.3851 L423.0385,159.1952 L432.8077,159.4704 L442.5769,157.9863 L452.3462,158.8339 L462.1154,158.3688 L471.8846,158.4262 L481.6538,158.8466 L491.4231,158.0157 L501.1923,159.6757 L510.9615,158.0971 L520.7308,158.6738 L530.5,158.9375 " fill="#F8F8F8" style="stroke:#383838;stroke-width:1.5;"/><path d="M403.5,166.9375 L403.5,167.2177 L413.2692,166.3851 L423.0385,167.1952 L432.8077,167.4704 L442.5769,165.9863 L452.3462,166.8339 L462.1154,166.3688 L471.8846,166.4262 L481.6538,166.8466 L491.4231,166.0157 L501.1923,167.6757 L510.9615,166.0971 L520.7308,166.6738 L530.5,166.9375 " fill="#F8F8F8" style="stroke:#383838;stroke-width:1.5;"/><text fill="#000000" font-family="FG Virgil" font-size="11" lengthAdjust="spacing" textLength="101" x="408.5" y="181.1479">estado = create()</text><!--MD5=[931688891482fa28dd336c5e832c25b1]
class Decisao--><polygon fill="#F8F8F8" points="566.5,121,566.5,121.2102,576,120.5857,585.5,121.1933,595,121.3997,604.5,120.2866,614,120.9223,623.5,120.5735,633,120.6165,642.5,120.9318,652,120.3086,661.5,121,662.0536,121,660.8697,130.5346,661.3022,140.0692,661.9319,149.6038,661.4142,159.1384,661.5682,168.673,661.4681,178.2076,661.5,187.7422,661.5,187.9207,652,187.9813,642.5,188.3279,633,188.4132,623.5,188.4214,614,187.9968,604.5,188.2058,595,188.4444,585.5,187.021,576,188.4207,566.5,187.7422,566.2035,187.7422,567.0338,178.2076,566.005,168.673,566.4315,159.1384,567.2416,149.6038,566.4513,140.0692,566.6053,130.5346,566.5,121" style="stroke:#383838;stroke-width:1.5;"/><polygon fill="#C2C2C2" points="596.1608,142.6444,594.5484,144.8475,592.6412,148.0745,589.9136,150.2491,587.0474,151.4384,584.762,151.5416,581.8247,150.0543,579.0532,149.0827,576.9495,147.1099,575.8461,144.8515,575.1917,143.0533,574.5506,140.7045,573.51,138.6832,574.3096,136.7098,575.0102,134.548,577.6393,132.8382,579.489,130.6198,581.7784,129.8832,584.5001,129.2488,587.9904,129.6257,589.9021,130.5273,592.1247,130.9359,594.8272,133.7047,595.7693,136.6277,596.1786,138.6221,595.715,141.9086" style="stroke:#383838;stroke-width:1.0;"/><path d="M587.4438,135.6406 C586.5063,135.2031 585.9125,135.0625 585.0375,135.0625 C582.4125,135.0625 580.4125,137.1406 580.4125,139.8594 L580.4125,140.9844 C580.4125,143.5625 582.5219,145.4531 585.4125,145.4531 C586.6313,145.4531 587.7875,145.1563 588.5375,144.6094 C589.1156,144.2031 589.4438,143.75 589.4438,143.3594 C589.4438,142.9063 589.0531,142.5156 588.5844,142.5156 C588.3656,142.5156 588.1625,142.5938 587.975,142.7813 C587.5219,143.2656 587.5219,143.2656 587.3344,143.3594 C586.9125,143.625 586.225,143.75 585.4594,143.75 C583.4125,143.75 582.1156,142.6563 582.1156,140.9531 L582.1156,139.8594 C582.1156,138.0781 583.3656,136.7656 585.1,136.7656 C585.6781,136.7656 586.2875,136.9219 586.7563,137.1719 C587.2406,137.4531 587.4125,137.6719 587.5063,138.0781 C587.5688,138.4844 587.6,138.6094 587.7406,138.7344 C587.8813,138.875 588.1156,138.9844 588.3344,138.9844 C588.6,138.9844 588.8656,138.8438 589.0375,138.625 C589.1469,138.4688 589.1781,138.2813 589.1781,137.8594 L589.1781,136.4375 C589.1781,136 589.1625,135.875 589.0688,135.7188 C588.9125,135.4531 588.6313,135.3125 588.3344,135.3125 C588.0375,135.3125 587.8344,135.4063 587.6156,135.7188 L587.4438,135.6406 Z " fill="#000000"/><text fill="#000000" font-family="FG Virgil" font-size="12" font-style="italic" lengthAdjust="spacing" textLength="59" x="597.9" y="137.1387">«domain»</text><text fill="#000000" font-family="FG Virgil" font-size="12" lengthAdjust="spacing" textLength="49" x="602.9" y="151.1074">Decisao</text><path d="M567.5,158.9375 L567.5,159.2177 L577.8333,158.3851 L588.1667,159.1952 L598.5,159.4704 L608.8333,157.9863 L619.1667,158.8339 L629.5,158.3688 L639.8333,158.4262 L650.1667,158.8466 L660.5,158.9375 " fill="#F8F8F8" style="stroke:#383838;stroke-width:1.5;"/><path d="M567.5,166.9375 L567.5,167.2177 L577.8333,166.3851 L588.1667,167.1952 L598.5,167.4704 L608.8333,165.9863 L619.1667,166.8339 L629.5,166.3688 L639.8333,166.4262 L650.1667,166.8466 L660.5,166.9375 " fill="#F8F8F8" style="stroke:#383838;stroke-width:1.5;"/><text fill="#000000" font-family="FG Virgil" font-size="11" lengthAdjust="spacing" textLength="83" x="572.5" y="181.1479">des = create()</text><!--MD5=[92bd6e401080a2853674e2906bfd22c8]
class Comentario--><polygon fill="#F8F8F8" points="696.5,121,696.5,121.2102,706.25,120.5857,716,121.1933,725.75,121.3997,735.5,120.2866,745.25,120.9223,755,120.5735,764.75,120.6165,774.5,120.9318,784.25,120.3086,794,121.5536,803.75,120.3697,813.5,121,813.3022,121,813.9319,130.5346,813.4142,140.0692,813.5682,149.6038,813.4681,159.1384,813.6785,168.673,813.7391,178.2076,813.5,187.7422,813.5,188.3279,803.75,188.4132,794,188.4214,784.25,187.9968,774.5,188.2058,764.75,188.4444,755,187.021,745.25,188.4207,735.5,187.4457,725.75,188.276,716,187.2472,706.25,187.6737,696.5,187.7422,697.2416,187.7422,696.4513,178.2076,696.6053,168.673,696.8386,159.1384,696.9162,149.6038,696.4961,140.0692,696.7872,130.5346,696.5,121" style="stroke:#383838;stroke-width:1.5;"/><polygon fill="#C2C2C2" points="729.7608,142.6444,728.1484,144.8475,726.2412,148.0745,723.5136,150.2491,720.6474,151.4384,718.362,151.5416,715.4247,150.0543,712.6532,149.0827,710.5495,147.1099,709.4461,144.8515,708.7917,143.0533,708.1506,140.7045,707.11,138.6832,707.9096,136.7098,708.6102,134.548,711.2393,132.8382,713.089,130.6198,715.3784,129.8832,718.1001,129.2488,721.5904,129.6257,723.5021,130.5273,725.7247,130.9359,728.4272,133.7047,729.3693,136.6277,729.7786,138.6221,729.315,141.9086" style="stroke:#383838;stroke-width:1.0;"/><path d="M721.0438,135.6406 C720.1063,135.2031 719.5125,135.0625 718.6375,135.0625 C716.0125,135.0625 714.0125,137.1406 714.0125,139.8594 L714.0125,140.9844 C714.0125,143.5625 716.1219,145.4531 719.0125,145.4531 C720.2313,145.4531 721.3875,145.1563 722.1375,144.6094 C722.7156,144.2031 723.0438,143.75 723.0438,143.3594 C723.0438,142.9063 722.6531,142.5156 722.1844,142.5156 C721.9656,142.5156 721.7625,142.5938 721.575,142.7813 C721.1219,143.2656 721.1219,143.2656 720.9344,143.3594 C720.5125,143.625 719.825,143.75 719.0594,143.75 C717.0125,143.75 715.7156,142.6563 715.7156,140.9531 L715.7156,139.8594 C715.7156,138.0781 716.9656,136.7656 718.7,136.7656 C719.2781,136.7656 719.8875,136.9219 720.3563,137.1719 C720.8406,137.4531 721.0125,137.6719 721.1063,138.0781 C721.1688,138.4844 721.2,138.6094 721.3406,138.7344 C721.4813,138.875 721.7156,138.9844 721.9344,138.9844 C722.2,138.9844 722.4656,138.8438 722.6375,138.625 C722.7469,138.4688 722.7781,138.2813 722.7781,137.8594 L722.7781,136.4375 C722.7781,136 722.7625,135.875 722.6688,135.7188 C722.5125,135.4531 722.2313,135.3125 721.9344,135.3125 C721.6375,135.3125 721.4344,135.4063 721.2156,135.7188 L721.0438,135.6406 Z " fill="#000000"/><text fill="#000000" font-family="FG Virgil" font-size="12" font-style="italic" lengthAdjust="spacing" textLength="59" x="739.3" y="137.1387">«domain»</text><text fill="#000000" font-family="FG Virgil" font-size="12" lengthAdjust="spacing" textLength="69" x="734.3" y="151.1074">Comentario</text><path d="M697.5,158.9375 L697.5,159.2177 L707.0833,158.3851 L716.6667,159.1952 L726.25,159.4704 L735.8333,157.9863 L745.4167,158.8339 L755,158.3688 L764.5833,158.4262 L774.1667,158.8466 L783.75,158.0157 L793.3333,159.6757 L802.9167,158.0971 L812.5,158.9375 " fill="#F8F8F8" style="stroke:#383838;stroke-width:1.5;"/><path d="M697.5,166.9375 L697.5,167.2177 L707.0833,166.3851 L716.6667,167.1952 L726.25,167.4704 L735.8333,165.9863 L745.4167,166.8339 L755,166.3688 L764.5833,166.4262 L774.1667,166.8466 L783.75,166.0157 L793.3333,167.6757 L802.9167,166.0971 L812.5,166.9375 " fill="#F8F8F8" style="stroke:#383838;stroke-width:1.5;"/><text fill="#000000" font-family="FG Virgil" font-size="11" lengthAdjust="spacing" textLength="105" x="702.5" y="181.1479">coment = create()</text><!--MD5=[11a5249b00b367ab27cae8ae8fa15cf9]
class AtividadeManual--><polygon fill="#F8F8F8" points="848.5,121,848.5,121.2102,858.537,120.5857,868.5741,121.1933,878.6111,121.3997,888.6481,120.2866,898.6852,120.9223,908.7222,120.5735,918.7593,120.6165,928.7963,120.9318,938.8333,120.3086,948.8704,121.5536,958.9074,120.3697,968.9444,120.8022,978.9815,121.4319,989.0185,120.9142,999.0556,121.0682,1009.0926,120.9681,1019.1296,121.1785,1029.1667,121.2391,1039.2037,121.5857,1049.2407,121.6711,1059.2778,121.6793,1069.3148,121.2546,1079.3519,121.4636,1089.3889,121.7022,1099.4259,120.2788,1109.463,121.6785,1119.5,121,1119.2035,121,1120.0338,130.5346,1119.005,140.0692,1119.4315,149.6038,1120.2416,159.1384,1119.4513,168.673,1119.6053,178.2076,1119.5,187.7422,1119.5,188.0808,1109.463,188.1584,1099.4259,187.7383,1089.3889,188.0294,1079.3519,187.1698,1069.3148,188.0266,1059.2778,188.2904,1049.2407,188.1867,1039.2037,188.3552,1029.1667,187.2591,1019.1296,187.09,1009.0926,187.1208,999.0556,187.6833,989.0185,187.5457,978.9815,188.4236,968.9444,187.5675,958.9074,187.3991,948.8704,187.9705,938.8333,187.0753,928.7963,187.2231,918.7593,188.3911,908.7222,188.1779,898.6852,188.4767,888.6481,187.4204,878.6111,188.0614,868.5741,188.3326,858.537,187.2698,848.5,187.7422,848.4041,187.7422,848.626,178.2076,849.1518,168.673,848.4958,159.1384,848.9626,149.6038,847.9462,140.0692,847.8227,130.5346,848.5,121" style="stroke:#383838;stroke-width:1.5;"/><polygon fill="#C2C2C2" points="942.3108,142.6444,940.6984,144.8475,938.7912,148.0745,936.0636,150.2491,933.1974,151.4384,930.912,151.5416,927.9747,150.0543,925.2032,149.0827,923.0995,147.1099,921.9961,144.8515,921.3417,143.0533,920.7006,140.7045,919.66,138.6832,920.4596,136.7098,921.1602,134.548,923.7893,132.8382,925.639,130.6198,927.9284,129.8832,930.6501,129.2488,934.1404,129.6257,936.0521,130.5273,938.2747,130.9359,940.9772,133.7047,941.9193,136.6277,942.3286,138.6221,941.865,141.9086" style="stroke:#383838;stroke-width:1.0;"/><path d="M933.5938,135.6406 C932.6563,135.2031 932.0625,135.0625 931.1875,135.0625 C928.5625,135.0625 926.5625,137.1406 926.5625,139.8594 L926.5625,140.9844 C926.5625,143.5625 928.6719,145.4531 931.5625,145.4531 C932.7813,145.4531 933.9375,145.1563 934.6875,144.6094 C935.2656,144.2031 935.5938,143.75 935.5938,143.3594 C935.5938,142.9063 935.2031,142.5156 934.7344,142.5156 C934.5156,142.5156 934.3125,142.5938 934.125,142.7813 C933.6719,143.2656 933.6719,143.2656 933.4844,143.3594 C933.0625,143.625 932.375,143.75 931.6094,143.75 C929.5625,143.75 928.2656,142.6563 928.2656,140.9531 L928.2656,139.8594 C928.2656,138.0781 929.5156,136.7656 931.25,136.7656 C931.8281,136.7656 932.4375,136.9219 932.9063,137.1719 C933.3906,137.4531 933.5625,137.6719 933.6563,138.0781 C933.7188,138.4844 933.75,138.6094 933.8906,138.7344 C934.0313,138.875 934.2656,138.9844 934.4844,138.9844 C934.75,138.9844 935.0156,138.8438 935.1875,138.625 C935.2969,138.4688 935.3281,138.2813 935.3281,137.8594 L935.3281,136.4375 C935.3281,136 935.3125,135.875 935.2188,135.7188 C935.0625,135.4531 934.7813,135.3125 934.4844,135.3125 C934.1875,135.3125 933.9844,135.4063 933.7656,135.7188 L933.5938,135.6406 Z " fill="#000000"/><text fill="#000000" font-family="FG Virgil" font-size="12" font-style="italic" lengthAdjust="spacing" textLength="59" x="970.75" y="137.1387">«domain»</text><text fill="#000000" font-family="FG Virgil" font-size="12" lengthAdjust="spacing" textLength="97" x="951.75" y="151.1074">AtividadeManual</text><path d="M849.5,158.9375 L849.5,159.2177 L859.463,158.3851 L869.4259,159.1952 L879.3889,159.4704 L889.3519,157.9863 L899.3148,158.8339 L909.2778,158.3688 L919.2407,158.4262 L929.2037,158.8466 L939.1667,158.0157 L949.1296,159.6757 L959.0926,158.0971 L969.0556,158.6738 L979.0185,159.5134 L988.9815,158.8231 L998.9444,159.0285 L1008.9074,158.8949 L1018.8704,159.1755 L1028.8333,159.2563 L1038.7963,159.7184 L1048.7593,159.8322 L1058.7222,159.8432 L1068.6852,159.277 L1078.6481,159.5556 L1088.6111,159.8738 L1098.5741,157.9759 L1108.537,159.8422 L1118.5,158.9375 " fill="#F8F8F8" style="stroke:#383838;stroke-width:1.5;"/><path d="M849.5,166.9375 L849.5,167.2177 L859.463,166.3851 L869.4259,167.1952 L879.3889,167.4704 L889.3519,165.9863 L899.3148,166.8339 L909.2778,166.3688 L919.2407,166.4262 L929.2037,166.8466 L939.1667,166.0157 L949.1296,167.6757 L959.0926,166.0971 L969.0556,166.6738 L979.0185,167.5134 L988.9815,166.8231 L998.9444,167.0285 L1008.9074,166.8949 L1018.8704,167.1755 L1028.8333,167.2563 L1038.7963,167.7184 L1048.7593,167.8322 L1058.7222,167.8432 L1068.6852,167.277 L1078.6481,167.5556 L1088.6111,167.8738 L1098.5741,165.9759 L1108.537,167.8422 L1118.5,166.9375 " fill="#F8F8F8" style="stroke:#383838;stroke-width:1.5;"/><text fill="#000000" font-family="FG Virgil" font-size="11" lengthAdjust="spacing" textLength="259" x="854.5" y="181.1479">create(crit,prio,data,estado,colab,des,coment)</text><!--MD5=[10f67ece893151733f958c80ef72eb68]
link EspecificarServicoController to Criticidade--><path d="M365.365,54.272 L365.3847,54.3633 L359.8723,55.2684 L354.4754,56.7088 L349.041,57.9749 L343.4828,58.6678 L338.0958,60.1541 L338.0882,60.1205 L332.2325,61.2927 L326.4153,62.6346 L320.625,64.0946 L314.7423,65.1479 L308.989,66.7709 L309.0466,67.0101 L302.8248,67.9656 L296.771,69.6195 L290.7378,71.3587 L284.5852,72.6021 L278.4954,74.1062 L278.5029,74.1356 L272.2059,75.7 L265.9431,77.3982 L259.6639,79.0318 L253.4161,80.7886 L247.0656,82.144 L247.143,82.432 L243.9589,83.291 L240.7249,83.9642 L237.564,84.9094 L234.4065,85.8673 L231.1405,86.4214 L231.0547,86.1126 L228.0233,87.6013 L224.7092,88.0732 L221.6101,89.3181 L218.2895,89.767 L215.1505,90.8683 L215.142,90.8391 L212.0421,92.108 L208.745,92.6934 L205.5642,93.6821 L202.3932,94.7046 L199.1517,95.4829 L199.2048,95.6601 L195.961,96.4373 L192.8079,97.5173 L189.508,98.1074 L186.4271,99.4282 L183.2006,100.2631 L183.2732,100.4957 L180.0901,101.4405 L176.943,102.5008 L173.6285,103.0245 L170.4367,103.9415 L167.3536,105.207 L167.2681,104.9443 L164.2082,106.2032 L161.0519,107.1661 L158.0353,108.5582 L154.7802,109.2175 L151.6669,110.3124 L151.6178,110.168 L148.6056,111.4614 L145.3834,112.1378 L142.3106,113.253 L139.3839,114.7974 L136.1969,115.5774 L136.262,115.7598 L133.2673,116.9694 L130.0701,117.6117 L127.1264,118.9646 L124.1276,120.1626 L121,121 L120.922,120.8051 L118.3622,122.0092 L115.7768,123.1495 L113.2416,124.4152 L110.5113,125.1932 L107.89,126.2437 " fill="none" style="stroke:#383838;stroke-width:1.0;"/><polygon fill="#383838" points="103.1427,128.3324,103.143,128.4025,105.1119,128.2019,107.0825,128.4121,109.0525,128.4885,111.0208,128.1251,112.9915,128.3705,112.9821,128.3464,111.8856,127.8278,110.8364,127.4309,109.8201,127.1187,108.6904,126.5149,107.7196,126.3194,107.8916,126.3863,107.934,125.1888,108.4786,124.1867,109.0844,123.2085,109.3338,122.0915,109.7707,121.0475,109.7875,121.0628,108.4372,122.4973,107.1635,124.0015,105.8529,125.4721,104.6127,127.0068,103.1427,128.3324" style="stroke:#383838;stroke-width:1.0;"/><!--MD5=[b39040c8f9e9665879d59bc21ca93b24]
link EspecificarServicoController to Prioridade--><path d="M397.309,61.023 L397.3428,61.1101 L390.4306,63.4964 L383.7167,66.3931 L376.9381,69.1236 L369.9473,71.3075 L363.2504,74.2481 L363.2376,74.216 L355.7827,77.0287 L348.3925,80.0031 L341.0472,83.09 L333.5471,85.7894 L326.2639,89.0314 L326.3573,89.2591 L322.3564,90.332 L318.6282,92.0695 L314.9332,93.8881 L311.0447,95.2349 L307.258,96.8299 L307.2698,96.8579 L303.4455,98.4118 L299.6745,100.093 L295.8779,101.7129 L292.1303,103.4499 L288.2227,104.8048 L288.3403,105.0789 L284.5756,106.6983 L280.735,108.141 L277.0055,109.8424 L273.2812,111.5559 L269.3919,112.8852 L269.2626,112.592 L265.8353,114.7841 L261.982,116.0106 L258.4525,117.9711 L254.5896,119.1758 L251,121 L250.9872,120.9724 L248.6039,122.4711 L245.9221,123.3243 L243.4164,124.5584 L240.9256,125.8244 L238.328,126.8598 " fill="none" style="stroke:#383838;stroke-width:1.0;"/><polygon fill="#383838" points="233.702,129.075,233.704,129.145,235.667,128.8809,237.6418,129.0273,239.6127,129.04,241.5711,128.613,243.5469,128.7947,243.5383,128.7702,242.4325,128.2847,241.3702,127.9223,240.338,127.6455,239.2019,127.0736,238.2114,126.9151,238.3855,126.9764,238.3892,125.7782,238.9011,124.759,239.475,123.7616,239.6881,122.6372,240.091,121.5796,240.1083,121.5944,238.8051,123.0718,237.5807,124.6164,236.3183,126.1286,235.1284,127.7026,233.702,129.075" style="stroke:#383838;stroke-width:1.0;"/><!--MD5=[33f1f34a8644913623c9839e1d9a4884]
link EspecificarServicoController to Data--><path d="M434.301,61.005 L434.4754,61.2243 L426.0148,66.8893 L418.5767,73.84 L410.8057,80.372 L401.9396,85.5271 L394.5248,92.5071 L386.293,98.4597 L378.3864,104.8212 L370.7058,111.4669 L362.82,117.8547 " fill="none" style="stroke:#383838;stroke-width:1.0;"/><polygon fill="#383838" points="358.876,120.9914,358.8936,121.0592,360.7482,120.3637,362.7058,120.0657,364.6298,119.6382,366.4436,118.785,368.4101,118.5212,368.4071,118.4955,367.2699,118.2516,366.1474,118.1376,365.0353,118.1137,363.8876,117.779,362.7897,117.8796,362.973,117.9006,362.7093,116.7317,362.9808,115.624,363.3177,114.5238,363.2745,113.3801,363.4312,112.2593,363.4514,112.2698,362.5108,114.0008,361.6619,115.7797,360.7688,117.5354,359.9601,119.3353,358.876,120.9914" style="stroke:#383838;stroke-width:1.0;"/><!--MD5=[780ea08aed17fc29860a6c006675d00c]
link EspecificarServicoController to EstadoAtividade--><path d="M467,61.005 L467.2802,61.005 L466.4476,71.8766 L467.2577,82.7483 L467.5329,93.6199 L466.0488,104.4916 L467,115.3632 " fill="none" style="stroke:#383838;stroke-width:1.0;"/><polygon fill="#383838" points="467,120.7725,467.064,120.801,467.6738,118.9164,468.6589,117.1987,469.5217,115.4266,469.9827,113.4759,471,111.7725,470.9817,111.7542,470.0995,112.472,469.3096,113.2821,468.5839,114.1564,467.637,114.8095,467,115.7725,467.1305,115.903,466.0514,114.8239,465.3534,114.1259,464.7018,113.4743,463.7798,112.5523,463,111.7725,463.0208,111.7817,463.7903,113.5682,464.6544,115.3967,465.4728,117.2049,466.3784,119.0518,467,120.7725" style="stroke:#383838;stroke-width:1.0;"/><!--MD5=[f3df1ae7778eb788c29a7689650174fe]
link EspecificarServicoController to Decisao--><path d="M499.26,61.005 L499.4359,61.2232 L506.7177,66.8663 L515.0306,73.7885 L523.0078,80.2942 L529.8808,85.4302 L538.2172,92.3814 L545.7298,98.3108 L553.5702,104.6469 L561.6385,111.2656 L569.5,117.6278 " fill="none" style="stroke:#383838;stroke-width:1.0;"/><polygon fill="#383838" points="573.673,120.9914,573.7353,121.0234,572.6506,119.1759,571.9313,117.5161,571.0929,115.7951,569.8633,113.8733,569.1754,112.2295,569.1496,112.2267,569.1549,113.3392,569.2901,114.4656,569.5155,115.6017,569.4298,116.7044,569.7799,117.8539,569.7996,118.0374,568.6325,117.7659,567.5231,118.0302,566.4206,118.3598,565.2773,118.3091,564.1554,118.4585,564.1613,118.4804,566.0562,118.9548,567.9778,119.5291,569.8865,120.0553,571.8197,120.6735,573.673,120.9914" style="stroke:#383838;stroke-width:1.0;"/><!--MD5=[2d5891c15d94c56cee06436913c47c5c]
link EspecificarServicoController to Comentario--><path d="M532.078,61.033 L532.1831,61.2928 L540.7197,64.1014 L549.8724,68.4329 L558.8245,72.2685 L567.1167,74.4733 L576.2835,78.8395 L584.958,81.9889 L593.8283,85.6226 L602.869,89.6771 L602.8575,89.6491 L610.4237,92.5316 L618.3043,96.1825 L625.7761,98.8344 L633.52,102.1511 L641.2244,105.3713 L641.2978,105.5487 L648.7649,108.4618 L656.3462,111.6508 L663.8843,114.7354 L671.4752,117.9476 L679,121 L679.0411,121.098 L681.5516,122.2676 L684.0173,123.3302 L686.4697,124.3611 L688.8478,125.2146 L691.255,126.1378 " fill="none" style="stroke:#383838;stroke-width:1.0;"/><polygon fill="#383838" points="696.129,128.1963,696.1801,128.2442,694.6814,126.6645,693.4824,125.3656,692.1858,123.9752,690.5682,122.2842,689.3949,121.0094,689.3709,120.9996,689.6888,122.0041,690.1277,123.0578,690.6508,124.1456,690.8839,125.1157,691.5231,126.2506,691.5925,126.4216,690.3958,126.4816,689.4018,127.0408,688.4325,127.6609,687.3193,127.9267,686.2818,128.3788,686.2823,128.4016,688.2511,128.3317,690.2218,128.3653,692.1916,128.349,694.1632,128.428,696.129,128.1963" style="stroke:#383838;stroke-width:1.0;"/><!--MD5=[ecc0aee2a8f8f759a32a4805364808a2]
link EspecificarServicoController to AtividadeManual--><path d="M568.526,58.27 L568.5886,58.5432 L578.2243,59.9828 L588.227,63.0236 L598.1102,65.5431 L607.6003,66.3477 L617.6114,69.4251 L627.3292,71.223 L637.1638,73.5301 L647.0794,76.1912 L656.7155,77.6325 L666.9081,81.5017 L676.3771,82.2143 L686.3277,85.0276 L696.337,88.0973 L706.0044,89.6756 L715.872,92.127 L725.6639,94.248 L735.5483,96.7728 L745.3881,99.1028 L755.313,101.8044 L765.1602,104.1666 L774.9843,106.4284 L784.6796,108.1278 L794.5635,110.6506 L804.4563,113.212 L813.854,113.6133 L824.0927,117.6836 L833.624,118.6676 L843.534,121.3042 " fill="none" style="stroke:#383838;stroke-width:1.0;"/><polygon fill="#383838" points="848.439,122.4284,848.481,122.4844,846.7804,121.136,845.3261,120.1161,843.7917,118.9892,841.9933,117.5104,840.5602,116.5187,840.5383,116.5049,841.0408,117.4017,841.654,118.3678,842.3441,119.3822,842.7691,120.2303,843.5654,121.3113,843.6634,121.4676,842.4953,121.7343,841.6133,122.4575,840.7663,123.2364,839.7161,123.6912,838.7728,124.3165,838.7772,124.3388,840.704,123.9284,842.6507,123.6196,844.5878,123.2619,846.5432,122.9976,848.439,122.4284" style="stroke:#383838;stroke-width:1.0;"/><!--MD5=[ff2bf341585b6c3f01ae860149d68319]
@startuml
'http://plantuml.com/skinparam.html
skinparam handwritten true
skinparam monochrome true
skinparam packageStyle rect
skinparam defaultFontName FG Virgil
skinparam shadowing false

class EspecificarServicoController <<application>>
class Criticidade <<domain>>
class Prioridade <<domain>>
class Data <<domain>>
class EstadoAtividade <<domain>>
class Decisao <<domain>>
class Comentario <<domain>>
class AtividadeManual <<domain>>


EspecificarServicoController - -> Criticidade
EspecificarServicoController - -> Prioridade
EspecificarServicoController - -> Data
EspecificarServicoController - -> EstadoAtividade
EspecificarServicoController - -> Decisao
EspecificarServicoController - -> Comentario
EspecificarServicoController - -> AtividadeManual


Criticidade : crit = create()
Decisao : des = create()
Comentario : coment = create()
Prioridade : prio = create()
Data : data = create()
EstadoAtividade : estado = create()
AtividadeManual : create(crit,prio,data,estado,colab,des,coment)
@enduml

@startuml
skinparam handwritten true
skinparam monochrome true
skinparam packageStyle rect
skinparam defaultFontName FG Virgil
skinparam shadowing false

class EspecificarServicoController <<application>>
class Criticidade <<domain>>
class Prioridade <<domain>>
class Data <<domain>>
class EstadoAtividade <<domain>>
class Decisao <<domain>>
class Comentario <<domain>>
class AtividadeManual <<domain>>


EspecificarServicoController - -> Criticidade
EspecificarServicoController - -> Prioridade
EspecificarServicoController - -> Data
EspecificarServicoController - -> EstadoAtividade
EspecificarServicoController - -> Decisao
EspecificarServicoController - -> Comentario
EspecificarServicoController - -> AtividadeManual


Criticidade : crit = create()
Decisao : des = create()
Comentario : coment = create()
Prioridade : prio = create()
Data : data = create()
EstadoAtividade : estado = create()
AtividadeManual : create(crit,prio,data,estado,colab,des,coment)
@enduml

PlantUML version 1.2021.7beta2(Unknown compile time)
(GPL source distribution)
Java Runtime: Java(TM) SE Runtime Environment
JVM: Java HotSpot(TM) 64-Bit Server VM
Default Encoding: UTF-8
Language: en
Country: US
--></g></svg>