<?xml version="1.0" encoding="UTF-8" standalone="no"?><svg xmlns="http://www.w3.org/2000/svg" xmlns:xlink="http://www.w3.org/1999/xlink" contentScriptType="application/ecmascript" contentStyleType="text/css" height="335px" preserveAspectRatio="none" style="width:961px;height:335px;background:#FFFFFF;" version="1.1" viewBox="0 0 961 335" width="961px" zoomAndPan="magnify"><defs/><g><polygon fill="#FFFFFF" points="120,94.2969,120,94.3669,122,94.1588,124,94.3613,126,94.4301,128,94.0591,130,94.2969,129.9223,94.2969,129.5735,104.192,129.6165,114.0871,129.9318,123.9821,129.3086,133.8772,130.5536,143.7723,129.3697,153.6674,129.8022,163.5625,130.4319,173.4576,129.9142,183.3527,130.0682,193.2478,129.9681,203.1429,130.1785,213.0379,130.2391,222.933,130,232.8281,130,233.0234,128,233.0518,126,233.0545,124,232.913,122,232.9827,120,232.8281,120.7022,232.8281,119.2788,222.933,120.6785,213.0379,119.7035,203.1429,120.5338,193.2478,119.505,183.3527,119.9315,173.4576,120.7416,163.5625,119.9513,153.6674,120.1053,143.7723,120.3386,133.8772,120.4162,123.9821,119.9961,114.0871,120.2872,104.192,120,94.2969" style="stroke:#383838;stroke-width:1.0;"/><polygon fill="#FFFFFF" points="391,115.4297,391,115.4997,393,115.2916,395,115.4941,397,115.5629,399,115.1919,401,115.4297,400.9223,115.4297,400.5735,125.2129,400.6165,134.9961,400.9318,144.7793,400.3086,154.5625,401.5536,164.3457,400.3697,174.1289,400.8022,183.9121,401.4319,193.6953,400.9142,203.4785,401.0682,213.2617,400.9681,223.0449,401,232.8281,401,232.8876,399,232.9078,397,233.0234,395,233.0518,393,233.0545,391,232.8281,391.2546,232.8281,391.4636,223.0449,391.7022,213.2617,390.2788,203.4785,391.6785,193.6953,390.7035,183.9121,391.5338,174.1289,390.505,164.3457,390.9315,154.5625,391.7416,144.7793,390.9513,134.9961,391.1053,125.2129,391,115.4297" style="stroke:#383838;stroke-width:1.0;"/><polygon fill="#FFFFFF" points="549,144.5625,549,144.6326,551,144.4244,553,144.6269,555,144.6957,557,144.3247,559,144.5625,558.9223,144.5625,558.5735,154.3698,558.6165,164.1771,558.9318,173.9844,558.3086,183.7917,559.5536,193.599,558.3697,203.4063,558.8022,213.2135,559.4319,223.0208,559,232.8281,559,232.7995,557,232.8509,555,232.8175,553,232.8876,551,232.9078,549,232.8281,549.5857,232.8281,549.6711,223.0208,549.6793,213.2135,549.2546,203.4063,549.4636,193.599,549.7022,183.7917,548.2788,173.9844,549.6785,164.1771,548.7035,154.3698,549,144.5625" style="stroke:#383838;stroke-width:1.0;"/><polygon fill="#FFFFFF" points="711,173.6953,711,173.7654,713,173.5572,715,173.7597,717,173.8285,719,173.4575,721,173.6953,720.9741,173.6953,720.8578,179.6953,720.8722,185.6953,720.9773,191.6953,720.7695,197.6953,721,203.6953,721,203.8799,719,203.4852,717,203.6294,715,203.8393,713,203.6667,711,203.6953,711.0227,203.6953,710.9894,197.6953,711.0595,191.6953,711.0797,185.6953,711.1952,179.6953,711,173.6953" style="stroke:#383838;stroke-width:1.0;"/><path d="M125,84.2969 L125.2802,84.2969 L124.4476,94.0928 L125.2577,103.8888 L125.5329,113.6847 L124.0488,123.4807 L124.8964,133.2767 L124.4313,143.0726 L124.4887,152.8686 L124.9091,162.6645 L124.0782,172.4605 L125.7382,182.2564 L124.1596,192.0524 L124.7363,201.8483 L125.5759,211.6443 L124.8856,221.4403 L125.091,231.2362 L124.9574,241.0322 L125,250.8281 " fill="none" style="stroke:#383838;stroke-width:1.0;stroke-dasharray:5.0,5.0;"/><path d="M396,84.2969 L396.2802,84.2969 L395.4476,94.0928 L396.2577,103.8888 L396.5329,113.6847 L395.0488,123.4807 L395.8964,133.2767 L395.4313,143.0726 L395.4887,152.8686 L395.9091,162.6645 L395.0782,172.4605 L396.7382,182.2564 L395.1596,192.0524 L395.7363,201.8483 L396.5759,211.6443 L395.8856,221.4403 L396.091,231.2362 L395.9574,241.0322 L396,250.8281 " fill="none" style="stroke:#383838;stroke-width:1.0;stroke-dasharray:5.0,5.0;"/><path d="M554,84.2969 L554.2802,84.2969 L553.4476,94.0928 L554.2577,103.8888 L554.5329,113.6847 L553.0488,123.4807 L553.8964,133.2767 L553.4313,143.0726 L553.4887,152.8686 L553.9091,162.6645 L553.0782,172.4605 L554.7382,182.2564 L553.1596,192.0524 L553.7363,201.8483 L554.5759,211.6443 L553.8856,221.4403 L554.091,231.2362 L553.9574,241.0322 L554,250.8281 " fill="none" style="stroke:#383838;stroke-width:1.0;stroke-dasharray:5.0,5.0;"/><path d="M715.5,84.2969 L715.7802,84.2969 L714.9476,94.0928 L715.7577,103.8888 L716.0329,113.6847 L714.5488,123.4807 L715.3964,133.2767 L714.9313,143.0726 L714.9887,152.8686 L715.4091,162.6645 L714.5782,172.4605 L716.2382,182.2564 L714.6596,192.0524 L715.2363,201.8483 L716.0759,211.6443 L715.3856,221.4403 L715.591,231.2362 L715.4574,241.0322 L715.5,250.8281 " fill="none" style="stroke:#383838;stroke-width:1.0;stroke-dasharray:5.0,5.0;"/><path d="M870.5,84.2969 L870.7802,84.2969 L869.9476,94.0928 L870.7577,103.8888 L871.0329,113.6847 L869.5488,123.4807 L870.3964,133.2767 L869.9313,143.0726 L869.9887,152.8686 L870.4091,162.6645 L869.5782,172.4605 L871.2382,182.2564 L869.6596,192.0524 L870.2363,201.8483 L871.0759,211.6443 L870.3856,221.4403 L870.591,231.2362 L870.4574,241.0322 L870.5,250.8281 " fill="none" style="stroke:#383838;stroke-width:1.0;stroke-dasharray:5.0,5.0;"/><text fill="#000000" font-family="FG Virgil" font-size="14" lengthAdjust="spacing" textLength="234" x="5" y="80.9951">Gestor de Serviços de Help Desk</text><polygon fill="#F8F8F8" points="133.0442,16.9459,131.8715,18.5482,130.4845,20.8951,128.5008,22.4767,126.4163,23.3415,124.7542,23.4166,122.618,22.3349,120.6023,21.6283,119.0724,20.1936,118.2699,18.5511,117.7939,17.2433,117.3277,15.5351,116.5709,14.0651,117.1525,12.6298,117.662,11.0576,119.574,9.8142,120.9192,8.2008,122.5843,7.665,124.5637,7.2037,127.1021,7.4778,128.4924,8.1335,130.1089,8.4307,132.0743,10.4443,132.7595,12.5701,133.0571,14.0206,132.72,16.4108" style="stroke:#383838;stroke-width:2.0;"/><path d="M125,23 L125.1868,23 L124.6317,28.4 L125.1718,33.8 L125.3553,39.2 L124.3659,44.6 L125,50 M112,31 L112,30.9309 L117.2,30.6209 L122.4,30.6591 L127.6,30.9394 L132.8,30.3854 L138,31 M125,50 L125.3719,50.3223 L121.9766,52.6331 L119.6672,55.8849 L117.4901,59.2515 L114.5424,61.9501 L112,65 M125,50 L125.0458,50.0397 L127.5785,52.9814 L130.3199,56.1039 L132.9606,59.1392 L135.7934,62.341 L138,65 " fill="none" style="stroke:#383838;stroke-width:2.0;"/><text fill="#000000" font-family="FG Virgil" font-size="14" lengthAdjust="spacing" textLength="234" x="5" y="262.8232">Gestor de Serviços de Help Desk</text><polygon fill="#F8F8F8" points="133.0442,278.0709,131.8715,279.6732,130.4845,282.0201,128.5008,283.6017,126.4163,284.4665,124.7542,284.5416,122.618,283.4599,120.6023,282.7533,119.0724,281.3186,118.2699,279.6761,117.7939,278.3683,117.3277,276.6601,116.5709,275.1901,117.1525,273.7548,117.662,272.1826,119.574,270.9392,120.9192,269.3258,122.5843,268.79,124.5637,268.3287,127.1021,268.6028,128.4924,269.2585,130.1089,269.5557,132.0743,271.5693,132.7595,273.6951,133.0571,275.1456,132.72,277.5358" style="stroke:#383838;stroke-width:2.0;"/><path d="M125,284.125 L125.1868,284.125 L124.6317,289.525 L125.1718,294.925 L125.3553,300.325 L124.3659,305.725 L125,311.125 M112,292.125 L112,292.0559 L117.2,291.7459 L122.4,291.7841 L127.6,292.0644 L132.8,291.5104 L138,292.125 M125,311.125 L125.3719,311.4473 L121.9766,313.7581 L119.6672,317.0099 L117.4901,320.3765 L114.5424,323.0751 L112,326.125 M125,311.125 L125.0458,311.1647 L127.5785,314.1064 L130.3199,317.2289 L132.9606,320.2642 L135.7934,323.466 L138,326.125 " fill="none" style="stroke:#383838;stroke-width:2.0;"/><polygon fill="#F8F8F8" points="335,36.7031,335,36.9133,345.1667,36.2888,355.3333,36.8964,365.5,37.1028,375.6667,35.9897,385.8333,36.6254,396,36.2766,406.1667,36.3196,416.3333,36.635,426.5,36.0118,436.6667,37.2568,446.8333,36.0728,457,36.7031,456.8022,36.7031,457.4319,46.0219,456.9142,55.3406,457.0682,64.6594,456.9681,73.9781,457,83.2969,457,83.4754,446.8333,83.536,436.6667,83.8826,426.5,83.9679,416.3333,83.9761,406.1667,83.5515,396,83.7605,385.8333,83.9991,375.6667,82.5757,365.5,83.9754,355.3333,83.0004,345.1667,83.8307,335,83.2969,334.505,83.2969,334.9315,73.9781,335.7416,64.6594,334.9513,55.3406,335.1053,46.0219,335,36.7031" style="stroke:#383838;stroke-width:1.5;"/><text fill="#000000" font-family="FG Virgil" font-size="14" font-style="italic" lengthAdjust="spacing" textLength="108" x="342" y="56.6982">«presentation»</text><text fill="#000000" font-family="FG Virgil" font-size="14" lengthAdjust="spacing" textLength="108" x="342" y="72.9951">TarefaManualUI</text><polygon fill="#F8F8F8" points="335,249.8281,335,250.0383,345.1667,249.4138,355.3333,250.0214,365.5,250.2278,375.6667,249.1147,385.8333,249.7504,396,249.4016,406.1667,249.4446,416.3333,249.76,426.5,249.1368,436.6667,250.3818,446.8333,249.1978,457,249.8281,456.8022,249.8281,457.4319,259.1469,456.9142,268.4656,457.0682,277.7844,456.9681,287.1031,457,296.4219,457,296.6004,446.8333,296.661,436.6667,297.0076,426.5,297.0929,416.3333,297.1011,406.1667,296.6765,396,296.8855,385.8333,297.1241,375.6667,295.7007,365.5,297.1004,355.3333,296.1254,345.1667,296.9557,335,296.4219,334.505,296.4219,334.9315,287.1031,335.7416,277.7844,334.9513,268.4656,335.1053,259.1469,335,249.8281" style="stroke:#383838;stroke-width:1.5;"/><text fill="#000000" font-family="FG Virgil" font-size="14" font-style="italic" lengthAdjust="spacing" textLength="108" x="342" y="269.8232">«presentation»</text><text fill="#000000" font-family="FG Virgil" font-size="14" lengthAdjust="spacing" textLength="108" x="342" y="286.1201">TarefaManualUI</text><polygon fill="#F8F8F8" points="481,36.7031,481,36.9133,490.7333,36.2888,500.4667,36.8964,510.2,37.1028,519.9333,35.9897,529.6667,36.6254,539.4,36.2766,549.1333,36.3196,558.8667,36.635,568.6,36.0118,578.3333,37.2568,588.0667,36.0728,597.8,36.5054,607.5333,37.1351,617.2667,36.6173,627,36.7031,627.0682,36.7031,626.9681,46.0219,627.1785,55.3406,627.2391,64.6594,627.5857,73.9781,627,83.2969,627,83.9679,617.2667,83.9761,607.5333,83.5515,597.8,83.7605,588.0667,83.9991,578.3333,82.5757,568.6,83.9754,558.8667,83.0004,549.1333,83.8307,539.4,82.8019,529.6667,83.2284,519.9333,84.0385,510.2,83.2481,500.4667,83.4022,490.7333,83.6355,481,83.2969,481.4162,83.2969,480.9961,73.9781,481.2872,64.6594,480.4276,55.3406,481.2844,46.0219,481,36.7031" style="stroke:#383838;stroke-width:1.5;"/><text fill="#000000" font-family="FG Virgil" font-size="14" font-style="italic" lengthAdjust="spacing" textLength="97" x="505.5" y="56.6982">«application»</text><text fill="#000000" font-family="FG Virgil" font-size="14" lengthAdjust="spacing" textLength="132" x="488" y="72.9951">TarefaManualCTRL</text><polygon fill="#F8F8F8" points="481,249.8281,481,250.0383,490.7333,249.4138,500.4667,250.0214,510.2,250.2278,519.9333,249.1147,529.6667,249.7504,539.4,249.4016,549.1333,249.4446,558.8667,249.76,568.6,249.1368,578.3333,250.3818,588.0667,249.1978,597.8,249.6304,607.5333,250.2601,617.2667,249.7423,627,249.8281,627.0682,249.8281,626.9681,259.1469,627.1785,268.4656,627.2391,277.7844,627.5857,287.1031,627,296.4219,627,297.0929,617.2667,297.1011,607.5333,296.6765,597.8,296.8855,588.0667,297.1241,578.3333,295.7007,568.6,297.1004,558.8667,296.1254,549.1333,296.9557,539.4,295.9269,529.6667,296.3534,519.9333,297.1635,510.2,296.3731,500.4667,296.5272,490.7333,296.7605,481,296.4219,481.4162,296.4219,480.9961,287.1031,481.2872,277.7844,480.4276,268.4656,481.2844,259.1469,481,249.8281" style="stroke:#383838;stroke-width:1.5;"/><text fill="#000000" font-family="FG Virgil" font-size="14" font-style="italic" lengthAdjust="spacing" textLength="97" x="505.5" y="269.8232">«application»</text><text fill="#000000" font-family="FG Virgil" font-size="14" lengthAdjust="spacing" textLength="132" x="488" y="286.1201">TarefaManualCTRL</text><polygon fill="#F8F8F8" points="661.5,36.7031,661.5,36.9133,671.4091,36.2888,681.3182,36.8964,691.2273,37.1028,701.1364,35.9897,711.0455,36.6254,720.9545,36.2766,730.8636,36.3196,740.7727,36.635,750.6818,36.0118,760.5909,37.2568,770.5,36.7031,769.8697,36.7031,770.3022,46.0219,770.9319,55.3406,770.4142,64.6594,770.5682,73.9781,770.5,83.2969,770.5,83.2649,760.5909,83.4754,750.6818,83.536,740.7727,83.8826,730.8636,83.9679,720.9545,83.9761,711.0455,83.5515,701.1364,83.7605,691.2273,83.9991,681.3182,82.5757,671.4091,83.9754,661.5,83.2969,661.2035,83.2969,662.0338,73.9781,661.005,64.6594,661.4315,55.3406,662.2416,46.0219,661.5,36.7031" style="stroke:#383838;stroke-width:1.5;"/><text fill="#000000" font-family="FG Virgil" font-size="14" font-style="italic" lengthAdjust="spacing" textLength="74" x="679" y="56.6982">«Domain»</text><text fill="#000000" font-family="FG Virgil" font-size="14" lengthAdjust="spacing" textLength="95" x="668.5" y="72.9951">TarefaManual</text><polygon fill="#F8F8F8" points="661.5,249.8281,661.5,250.0383,671.4091,249.4138,681.3182,250.0214,691.2273,250.2278,701.1364,249.1147,711.0455,249.7504,720.9545,249.4016,730.8636,249.4446,740.7727,249.76,750.6818,249.1368,760.5909,250.3818,770.5,249.8281,769.8697,249.8281,770.3022,259.1469,770.9319,268.4656,770.4142,277.7844,770.5682,287.1031,770.5,296.4219,770.5,296.3899,760.5909,296.6004,750.6818,296.661,740.7727,297.0076,730.8636,297.0929,720.9545,297.1011,711.0455,296.6765,701.1364,296.8855,691.2273,297.1241,681.3182,295.7007,671.4091,297.1004,661.5,296.4219,661.2035,296.4219,662.0338,287.1031,661.005,277.7844,661.4315,268.4656,662.2416,259.1469,661.5,249.8281" style="stroke:#383838;stroke-width:1.5;"/><text fill="#000000" font-family="FG Virgil" font-size="14" font-style="italic" lengthAdjust="spacing" textLength="74" x="679" y="269.8232">«Domain»</text><text fill="#000000" font-family="FG Virgil" font-size="14" lengthAdjust="spacing" textLength="95" x="668.5" y="286.1201">TarefaManual</text><text fill="#000000" font-family="FG Virgil" font-size="14" font-style="italic" lengthAdjust="spacing" textLength="90" x="822.5" y="64.6982">«repository»</text><text fill="#000000" font-family="FG Virgil" font-size="14" lengthAdjust="spacing" textLength="174" x="780.5" y="80.9951">TarefaManualRepository</text><path d="M852.5,15.7031 L852.5,15.7031 L852.5651,15.7701 L854.1716,13.8211 L856.1599,12.2647 L858.0238,10.5805 L859.479,8.4758 L861.5,6.9531 L861.4952,6.9189 L863.2739,6.5154 L865.0766,6.2843 L866.8958,6.1731 L868.6577,5.6488 L870.5,5.7031 L870.5,5.7031 L870.5339,5.9468 L872.2615,5.6757 L874.0879,6.1161 L875.9264,6.6433 L877.6948,6.6654 L879.5,6.9531 L879.5211,6.9749 L881.2901,8.6929 L883.1553,10.51 L884.9741,12.2793 L886.8815,14.1398 L888.5,15.7031 L889.0965,15.7031 L889.1038,20.9031 L888.7263,26.1031 L888.9121,31.3031 L889.1242,36.5031 L888.5,41.7031 L888.5,41.7031 L888.2766,41.4733 L886.9102,43.6693 L884.8081,45.1086 L883.2654,47.1232 L881.1466,48.5454 L879.5,50.4531 L879.4958,50.423 L877.7453,51.0296 L875.897,50.9317 L874.1064,51.2495 L872.3207,51.6022 L870.5,51.7031 L870.5,51.7031 L870.5254,51.8864 L868.6998,51.4514 L866.9176,51.3296 L865.065,50.7011 L863.3174,50.8283 L861.5,50.4531 L861.6698,50.6278 L859.8377,48.8448 L858.0899,47.1485 L855.9503,45.0492 L854.0979,43.2453 L852.5,41.7031 L851.9476,41.7031 L852.4477,36.5031 L852.3253,31.3031 L853.1057,26.1031 L852.3447,20.9031 L852.5,15.7031 " fill="#F8F8F8" style="stroke:#000000;stroke-width:1.5;"/><path d="M852.5,15.7031 L852.5,15.7031 L852.5651,15.7701 L854.1716,17.3211 L856.1599,19.2647 L858.0238,21.0805 L859.479,22.4758 L861.5,24.4531 L861.4952,24.4189 L863.2739,24.5154 L865.0766,24.7843 L866.8958,25.1731 L868.6577,25.1488 L870.5,25.7031 L870.5,25.7031 L870.5339,25.9468 L872.2615,25.1757 L874.0879,25.1161 L875.9264,25.1433 L877.6948,24.6654 L879.5,24.4531 L879.5211,24.4749 L881.2901,22.6929 L883.1553,21.01 L884.9741,19.2793 L886.8815,17.6398 L888.5,15.7031 " fill="none" style="stroke:#000000;stroke-width:1.5;"/><text fill="#000000" font-family="FG Virgil" font-size="14" font-style="italic" lengthAdjust="spacing" textLength="90" x="822.5" y="262.8232">«repository»</text><text fill="#000000" font-family="FG Virgil" font-size="14" lengthAdjust="spacing" textLength="174" x="780.5" y="279.1201">TarefaManualRepository</text><path d="M852.5,292.4219 L852.5,292.4219 L852.5651,292.4889 L854.1716,290.5398 L856.1599,288.9835 L858.0238,287.2992 L859.479,285.1945 L861.5,283.6719 L861.4952,283.6377 L863.2739,283.2341 L865.0766,283.0031 L866.8958,282.8919 L868.6577,282.3675 L870.5,282.4219 L870.5,282.4219 L870.5339,282.6656 L872.2615,282.3944 L874.0879,282.8348 L875.9264,283.362 L877.6948,283.3841 L879.5,283.6719 L879.5211,283.6936 L881.2901,285.4117 L883.1553,287.2288 L884.9741,288.9981 L886.8815,290.8585 L888.5,292.4219 L889.0965,292.4219 L889.1038,297.6219 L888.7263,302.8219 L888.9121,308.0219 L889.1242,313.2219 L888.5,318.4219 L888.5,318.4219 L888.2766,318.1921 L886.9102,320.3881 L884.8081,321.8274 L883.2654,323.842 L881.1466,325.2641 L879.5,327.1719 L879.4958,327.1417 L877.7453,327.7483 L875.897,327.6504 L874.1064,327.9682 L872.3207,328.3209 L870.5,328.4219 L870.5,328.4219 L870.5254,328.6051 L868.6998,328.1702 L866.9176,328.0483 L865.065,327.4199 L863.3174,327.5471 L861.5,327.1719 L861.6698,327.3466 L859.8377,325.5635 L858.0899,323.8672 L855.9503,321.7679 L854.0979,319.964 L852.5,318.4219 L851.9476,318.4219 L852.4477,313.2219 L852.3253,308.0219 L853.1057,302.8219 L852.3447,297.6219 L852.5,292.4219 " fill="#F8F8F8" style="stroke:#000000;stroke-width:1.5;"/><path d="M852.5,292.4219 L852.5,292.4219 L852.5651,292.4889 L854.1716,294.0398 L856.1599,295.9835 L858.0238,297.7992 L859.479,299.1945 L861.5,301.1719 L861.4952,301.1377 L863.2739,301.2341 L865.0766,301.5031 L866.8958,301.8919 L868.6577,301.8675 L870.5,302.4219 L870.5,302.4219 L870.5339,302.6656 L872.2615,301.8944 L874.0879,301.8348 L875.9264,301.862 L877.6948,301.3841 L879.5,301.1719 L879.5211,301.1936 L881.2901,299.4117 L883.1553,297.7288 L884.9741,295.9981 L886.8815,294.3585 L888.5,292.4219 " fill="none" style="stroke:#000000;stroke-width:1.5;"/><polygon fill="#FFFFFF" points="120,94.2969,120,94.3669,122,94.1588,124,94.3613,126,94.4301,128,94.0591,130,94.2969,129.9223,94.2969,129.5735,104.192,129.6165,114.0871,129.9318,123.9821,129.3086,133.8772,130.5536,143.7723,129.3697,153.6674,129.8022,163.5625,130.4319,173.4576,129.9142,183.3527,130.0682,193.2478,129.9681,203.1429,130.1785,213.0379,130.2391,222.933,130,232.8281,130,233.0234,128,233.0518,126,233.0545,124,232.913,122,232.9827,120,232.8281,120.7022,232.8281,119.2788,222.933,120.6785,213.0379,119.7035,203.1429,120.5338,193.2478,119.505,183.3527,119.9315,173.4576,120.7416,163.5625,119.9513,153.6674,120.1053,143.7723,120.3386,133.8772,120.4162,123.9821,119.9961,114.0871,120.2872,104.192,120,94.2969" style="stroke:#383838;stroke-width:1.0;"/><polygon fill="#FFFFFF" points="391,115.4297,391,115.4997,393,115.2916,395,115.4941,397,115.5629,399,115.1919,401,115.4297,400.9223,115.4297,400.5735,125.2129,400.6165,134.9961,400.9318,144.7793,400.3086,154.5625,401.5536,164.3457,400.3697,174.1289,400.8022,183.9121,401.4319,193.6953,400.9142,203.4785,401.0682,213.2617,400.9681,223.0449,401,232.8281,401,232.8876,399,232.9078,397,233.0234,395,233.0518,393,233.0545,391,232.8281,391.2546,232.8281,391.4636,223.0449,391.7022,213.2617,390.2788,203.4785,391.6785,193.6953,390.7035,183.9121,391.5338,174.1289,390.505,164.3457,390.9315,154.5625,391.7416,144.7793,390.9513,134.9961,391.1053,125.2129,391,115.4297" style="stroke:#383838;stroke-width:1.0;"/><polygon fill="#FFFFFF" points="549,144.5625,549,144.6326,551,144.4244,553,144.6269,555,144.6957,557,144.3247,559,144.5625,558.9223,144.5625,558.5735,154.3698,558.6165,164.1771,558.9318,173.9844,558.3086,183.7917,559.5536,193.599,558.3697,203.4063,558.8022,213.2135,559.4319,223.0208,559,232.8281,559,232.7995,557,232.8509,555,232.8175,553,232.8876,551,232.9078,549,232.8281,549.5857,232.8281,549.6711,223.0208,549.6793,213.2135,549.2546,203.4063,549.4636,193.599,549.7022,183.7917,548.2788,173.9844,549.6785,164.1771,548.7035,154.3698,549,144.5625" style="stroke:#383838;stroke-width:1.0;"/><polygon fill="#FFFFFF" points="711,173.6953,711,173.7654,713,173.5572,715,173.7597,717,173.8285,719,173.4575,721,173.6953,720.9741,173.6953,720.8578,179.6953,720.8722,185.6953,720.9773,191.6953,720.7695,197.6953,721,203.6953,721,203.8799,719,203.4852,717,203.6294,715,203.8393,713,203.6667,711,203.6953,711.0227,203.6953,710.9894,197.6953,711.0595,191.6953,711.0797,185.6953,711.1952,179.6953,711,173.6953" style="stroke:#383838;stroke-width:1.0;"/><polygon fill="#383838" points="379,111.4297,379.026,111.4947,380.9487,112.1015,383.0239,113.0895,385.0495,113.9534,386.9117,114.4089,389,115.4297,388.9904,115.4056,386.9472,116.0977,384.9525,116.911,382.9916,117.8086,380.9144,118.4157,379,119.4297,379.1305,119.5602,379.6514,118.4811,380.5534,117.7831,381.5018,117.1315,382.1798,116.2095,383,115.4297,383.0161,115.4458,382.1925,114.6222,381.4421,113.8718,380.6564,113.0861,379.938,112.3677,379,111.4297" style="stroke:#383838;stroke-width:1.0;"/><path d="M130,115.4297 L130,115.7099 L139.8077,114.8773 L149.6154,115.6874 L159.4231,115.9626 L169.2308,114.4785 L179.0385,115.3261 L188.8462,114.861 L198.6538,114.9184 L208.4615,115.3388 L218.2692,114.5079 L228.0769,116.1679 L237.8846,114.5893 L247.6923,115.166 L257.5,116.0056 L267.3077,115.3153 L277.1154,115.5207 L286.9231,115.3871 L296.7308,115.6677 L306.5385,115.7485 L316.3462,116.2106 L326.1538,116.3244 L335.9615,116.3354 L345.7692,115.7692 L355.5769,116.0478 L365.3846,116.366 L375.1923,114.4681 L385,115.4297 " fill="none" style="stroke:#383838;stroke-width:1.0;"/><text fill="#000000" font-family="FG Virgil" font-size="13" lengthAdjust="spacing" textLength="242" x="137" y="110.3638">Inicia a criação de uma tarefa manual</text><polygon fill="#383838" points="537,140.5625,537.026,140.6275,538.9487,141.2343,541.0239,142.2223,543.0495,143.0862,544.9117,143.5417,547,144.5625,546.9904,144.5384,544.9472,145.2305,542.9525,146.0438,540.9916,146.9414,538.9144,147.5485,537,148.5625,537.1305,148.693,537.6514,147.6139,538.5534,146.9159,539.5018,146.2643,540.1798,145.3423,541,144.5625,541.0161,144.5786,540.1925,143.755,539.4421,143.0046,538.6564,142.2189,537.938,141.5005,537,140.5625" style="stroke:#383838;stroke-width:1.0;"/><path d="M401,144.5625 L401,144.8427 L411.1429,144.0101 L421.2857,144.8202 L431.4286,145.0954 L441.5714,143.6113 L451.7143,144.4589 L461.8571,143.9938 L472,144.0512 L482.1429,144.4716 L492.2857,143.6407 L502.4286,145.3007 L512.5714,143.7221 L522.7143,144.2988 L532.8571,145.1384 L543,144.5625 " fill="none" style="stroke:#383838;stroke-width:1.0;"/><text fill="#000000" font-family="FG Virgil" font-size="13" lengthAdjust="spacing" textLength="129" x="408" y="139.4966">novaTarefaManual()</text><polygon fill="#383838" points="699,169.6953,699.026,169.7604,700.9487,170.3671,703.0239,171.3551,705.0495,172.219,706.9117,172.6745,709,173.6953,708.9904,173.6713,706.9472,174.3633,704.9525,175.1766,702.9916,176.0742,700.9144,176.6813,699,177.6953,699.1305,177.8258,699.6514,176.7468,700.5534,176.0487,701.5018,175.3971,702.1798,174.4751,703,173.6953,703.0161,173.7114,702.1925,172.8878,701.4421,172.1374,700.6564,171.3517,699.938,170.6334,699,169.6953" style="stroke:#383838;stroke-width:1.0;"/><path d="M559,173.6953 L559,173.9756 L568.7333,173.1429 L578.4667,173.953 L588.2,174.2282 L597.9333,172.7441 L607.6667,173.5917 L617.4,173.1267 L627.1333,173.184 L636.8667,173.6044 L646.6,172.7735 L656.3333,174.4335 L666.0667,172.8549 L675.8,173.4316 L685.5333,174.2712 L695.2667,173.5809 L705,173.6953 " fill="none" style="stroke:#383838;stroke-width:1.0;"/><text fill="#000000" font-family="FG Virgil" font-size="13" lengthAdjust="spacing" textLength="133" x="566" y="168.6294">tar = TarefaManual()</text><polygon fill="#383838" points="858.5,228.8281,858.526,228.8932,860.4487,229.4999,862.5239,230.4879,864.5495,231.3518,866.4117,231.8073,868.5,232.8281,868.4904,232.8041,866.4472,233.4961,864.4525,234.3094,862.4916,235.207,860.4144,235.8142,858.5,236.8281,858.6305,236.9586,859.1514,235.8796,860.0534,235.1815,861.0018,234.5299,861.6798,233.6079,862.5,232.8281,862.5161,232.8442,861.6925,232.0206,860.9421,231.2702,860.1564,230.4845,859.438,229.7662,858.5,228.8281" style="stroke:#383838;stroke-width:1.0;"/><path d="M554,232.8281 L554,233.1084 L564.0161,232.2757 L574.0323,233.0858 L584.0484,233.361 L594.0645,231.8769 L604.0806,232.7245 L614.0968,232.2595 L624.1129,232.3168 L634.129,232.7372 L644.1452,231.9063 L654.1613,233.5663 L664.1774,231.9878 L674.1935,232.5644 L684.2097,233.4041 L694.2258,232.7138 L704.2419,232.9191 L714.2581,232.7855 L724.2742,233.0662 L734.2903,233.147 L744.3065,233.609 L754.3226,233.7229 L764.3387,233.7338 L774.3548,233.1676 L784.371,233.4462 L794.3871,233.7644 L804.4032,231.8665 L814.4194,233.7328 L824.4355,232.4328 L834.4516,233.5399 L844.4677,232.1681 L854.4839,232.7368 L864.5,232.8281 " fill="none" style="stroke:#383838;stroke-width:1.0;"/><text fill="#000000" font-family="FG Virgil" font-size="13" lengthAdjust="spacing" textLength="59" x="561" y="227.7622">save(tar)</text><!--MD5=[272c6611398771a30958b22025e0ca2b]
@startuml
'http://plantuml.com/skinparam.html
skinparam handwritten true
skinparam monochrome true
skinparam packageStyle rect
skinparam defaultFontName FG Virgil
skinparam shadowing false

Actor "Gestor de Serviços de Help Desk" as Actor
participant TarefaManualUI as UI <<presentation>>
participant TarefaManualCTRL as Controller <<application>>
participant TarefaManual as TarefaManual <<Domain>>
database TarefaManualRepository as TRepository <<repository>>


activate Actor
    Actor -> UI: Inicia a criação de uma tarefa manual
    activate UI
      UI -> Controller: novaTarefaManual()
    activate Controller
      Controller -> TarefaManual: tar = TarefaManual()
    activate TarefaManual
    deactivate TarefaManual
      Controller -> TRepository: save(tar)
    deactivate TRepository
    deactivate Controller
    deactivate UI

deactivate Actor
@enduml

@startuml
skinparam handwritten true
skinparam monochrome true
skinparam packageStyle rect
skinparam defaultFontName FG Virgil
skinparam shadowing false

Actor "Gestor de Serviços de Help Desk" as Actor
participant TarefaManualUI as UI <<presentation>>
participant TarefaManualCTRL as Controller <<application>>
participant TarefaManual as TarefaManual <<Domain>>
database TarefaManualRepository as TRepository <<repository>>


activate Actor
    Actor -> UI: Inicia a criação de uma tarefa manual
    activate UI
      UI -> Controller: novaTarefaManual()
    activate Controller
      Controller -> TarefaManual: tar = TarefaManual()
    activate TarefaManual
    deactivate TarefaManual
      Controller -> TRepository: save(tar)
    deactivate TRepository
    deactivate Controller
    deactivate UI

deactivate Actor
@enduml

PlantUML version 1.2021.7beta1(Unknown compile time)
(GPL source distribution)
Java Runtime: Java(TM) SE Runtime Environment
JVM: Java HotSpot(TM) 64-Bit Server VM
Default Encoding: UTF-8
Language: en
Country: US
--></g></svg>