<?xml version="1.0" encoding="UTF-8" standalone="no"?><svg xmlns="http://www.w3.org/2000/svg" xmlns:xlink="http://www.w3.org/1999/xlink" contentScriptType="application/ecmascript" contentStyleType="text/css" height="448px" preserveAspectRatio="none" style="width:970px;height:448px;background:#FFFFFF;" version="1.1" viewBox="0 0 970 448" width="970px" zoomAndPan="magnify"><defs/><g><polygon fill="#FFFFFF" points="88.5,83.7266,88.5,83.7966,90.5,83.5885,92.5,83.791,94.5,83.8598,96.5,83.4888,98.5,83.7266,98.4223,83.7266,98.0735,93.892,98.1165,104.0574,98.4318,114.2228,97.8086,124.3882,99.0536,134.5536,97.8697,144.719,98.3022,154.8844,98.9319,165.0498,98.4142,175.2152,98.5682,185.3807,98.4681,195.5461,98.6785,205.7115,98.7391,215.8769,99.0857,226.0423,99.1711,236.2077,99.1793,246.3731,98.7546,256.5385,98.9636,266.7039,99.2022,276.8693,97.7788,287.0348,99.1785,297.2002,98.2035,307.3656,99.0338,317.531,98.005,327.6964,98.4315,337.8618,99.2416,348.0272,98.4513,358.1926,98.6053,368.358,98.5,378.5234,98.5,378.6363,96.5,378.6622,94.5,378.5221,92.5,378.6192,90.5,378.3326,88.5,378.5234,88.7844,378.5234,89.0482,368.358,88.9445,358.1926,89.113,348.0272,88.0169,337.8618,87.8478,327.6964,87.8786,317.531,88.4411,307.3656,88.3035,297.2002,89.1814,287.0348,88.3253,276.8693,88.1569,266.7039,88.7283,256.5385,87.8332,246.3731,87.9809,236.2077,89.149,226.0423,88.9357,215.8769,89.2345,205.7115,88.1782,195.5461,88.8192,185.3807,89.0904,175.2152,88.0276,165.0498,88.4041,154.8844,88.626,144.719,89.1518,134.5536,88.4958,124.3882,88.9626,114.2228,87.9462,104.0574,87.8227,93.892,88.5,83.7266" style="stroke:#383838;stroke-width:1.0;"/><polygon fill="#FFFFFF" points="233,83.7266,233,83.7966,235,83.5885,237,83.791,239,83.8598,241,83.4888,243,83.7266,242.9741,83.7266,242.8578,89.7266,242.8722,95.7266,242.9773,101.7266,242.7695,107.7266,243,113.7266,243,113.9111,241,113.5165,239,113.6606,237,113.8705,235,113.698,233,113.7266,233.0227,113.7266,232.9894,107.7266,233.0595,101.7266,233.0797,95.7266,233.1952,89.7266,233,83.7266" style="stroke:#383838;stroke-width:1.0;"/><polygon fill="#FFFFFF" points="332.5,142.8594,332.5,142.9294,334.5,142.7213,336.5,142.9238,338.5,142.9926,340.5,142.6216,342.5,142.8594,342.4741,142.8594,342.3578,148.8594,342.3722,154.8594,342.4773,160.8594,342.2695,166.8594,342.5,172.8594,342.5,173.0439,340.5,172.6493,338.5,172.7935,336.5,173.0034,334.5,172.8308,332.5,172.8594,332.5227,172.8594,332.4894,166.8594,332.5595,160.8594,332.5797,154.8594,332.6952,148.8594,332.5,142.8594" style="stroke:#383838;stroke-width:1.0;"/><polygon fill="#FFFFFF" points="429,201.9922,429,202.0622,431,201.8541,433,202.0566,435,202.1254,437,201.7544,439,201.9922,438.9741,201.9922,438.8578,207.9922,438.8722,213.9922,438.9773,219.9922,438.7695,225.9922,439,231.9922,439,232.1767,437,231.7821,435,231.9263,433,232.1362,431,231.9636,429,231.9922,429.0227,231.9922,428.9894,225.9922,429.0595,219.9922,429.0797,213.9922,429.1952,207.9922,429,201.9922" style="stroke:#383838;stroke-width:1.0;"/><polygon fill="#FFFFFF" points="893.5,348.5234,893.5,348.5935,895.5,348.3853,897.5,348.5879,899.5,348.6567,901.5,348.2856,903.5,348.5234,903.4741,348.5234,903.3578,354.5234,903.3722,360.5234,903.4773,366.5234,903.2695,372.5234,903.5,378.5234,903.5,378.708,901.5,378.3133,899.5,378.4575,897.5,378.6674,895.5,378.4948,893.5,378.5234,893.5227,378.5234,893.4894,372.5234,893.5595,366.5234,893.5797,360.5234,893.6952,354.5234,893.5,348.5234" style="stroke:#383838;stroke-width:1.0;"/><path d="M93,52.5938 L93.2802,52.5938 L92.4476,62.7093 L93.2577,72.8249 L93.5329,82.9405 L92.0488,93.0561 L92.8964,103.1716 L92.4313,113.2872 L92.4887,123.4028 L92.9091,133.5184 L92.0782,143.634 L93.7382,153.7495 L92.1596,163.8651 L92.7363,173.9807 L93.5759,184.0963 L92.8856,194.2119 L93.091,204.3274 L92.9574,214.443 L93.238,224.5586 L93.3188,234.6742 L93.7809,244.7898 L93.8947,254.9053 L93.9057,265.0209 L93.3395,275.1365 L93.6181,285.2521 L93.9363,295.3676 L92.0384,305.4832 L93.9047,315.5988 L92.6047,325.7144 L93.7117,335.83 L92.34,345.9455 L92.9087,356.0611 L93.9888,366.1767 L92.935,376.2923 L93.1404,386.4079 L93,396.5234 " fill="none" style="stroke:#383838;stroke-width:1.0;stroke-dasharray:5.0,5.0;"/><path d="M238,52.5938 L238.2802,52.5938 L237.4476,62.7093 L238.2577,72.8249 L238.5329,82.9405 L237.0488,93.0561 L237.8964,103.1716 L237.4313,113.2872 L237.4887,123.4028 L237.9091,133.5184 L237.0782,143.634 L238.7382,153.7495 L237.1596,163.8651 L237.7363,173.9807 L238.5759,184.0963 L237.8856,194.2119 L238.091,204.3274 L237.9574,214.443 L238.238,224.5586 L238.3188,234.6742 L238.7809,244.7898 L238.8947,254.9053 L238.9057,265.0209 L238.3395,275.1365 L238.6181,285.2521 L238.9363,295.3676 L237.0384,305.4832 L238.9047,315.5988 L237.6047,325.7144 L238.7117,335.83 L237.34,345.9455 L237.9087,356.0611 L238.9888,366.1767 L237.935,376.2923 L238.1404,386.4079 L238,396.5234 " fill="none" style="stroke:#383838;stroke-width:1.0;stroke-dasharray:5.0,5.0;"/><path d="M337,52.5938 L337.2802,52.5938 L336.4476,62.7093 L337.2577,72.8249 L337.5329,82.9405 L336.0488,93.0561 L336.8964,103.1716 L336.4313,113.2872 L336.4887,123.4028 L336.9091,133.5184 L336.0782,143.634 L337.7382,153.7495 L336.1596,163.8651 L336.7363,173.9807 L337.5759,184.0963 L336.8856,194.2119 L337.091,204.3274 L336.9574,214.443 L337.238,224.5586 L337.3188,234.6742 L337.7809,244.7898 L337.8947,254.9053 L337.9057,265.0209 L337.3395,275.1365 L337.6181,285.2521 L337.9363,295.3676 L336.0384,305.4832 L337.9047,315.5988 L336.6047,325.7144 L337.7117,335.83 L336.34,345.9455 L336.9087,356.0611 L337.9888,366.1767 L336.935,376.2923 L337.1404,386.4079 L337,396.5234 " fill="none" style="stroke:#383838;stroke-width:1.0;stroke-dasharray:5.0,5.0;"/><path d="M434,52.5938 L434.2802,52.5938 L433.4476,62.7093 L434.2577,72.8249 L434.5329,82.9405 L433.0488,93.0561 L433.8964,103.1716 L433.4313,113.2872 L433.4887,123.4028 L433.9091,133.5184 L433.0782,143.634 L434.7382,153.7495 L433.1596,163.8651 L433.7363,173.9807 L434.5759,184.0963 L433.8856,194.2119 L434.091,204.3274 L433.9574,214.443 L434.238,224.5586 L434.3188,234.6742 L434.7809,244.7898 L434.8947,254.9053 L434.9057,265.0209 L434.3395,275.1365 L434.6181,285.2521 L434.9363,295.3676 L433.0384,305.4832 L434.9047,315.5988 L433.6047,325.7144 L434.7117,335.83 L433.34,345.9455 L433.9087,356.0611 L434.9888,366.1767 L433.935,376.2923 L434.1404,386.4079 L434,396.5234 " fill="none" style="stroke:#383838;stroke-width:1.0;stroke-dasharray:5.0,5.0;"/><path d="M552,52.5938 L552.2802,52.5938 L551.4476,62.7093 L552.2577,72.8249 L552.5329,82.9405 L551.0488,93.0561 L551.8964,103.1716 L551.4313,113.2872 L551.4887,123.4028 L551.9091,133.5184 L551.0782,143.634 L552.7382,153.7495 L551.1596,163.8651 L551.7363,173.9807 L552.5759,184.0963 L551.8856,194.2119 L552.091,204.3274 L551.9574,214.443 L552.238,224.5586 L552.3188,234.6742 L552.7809,244.7898 L552.8947,254.9053 L552.9057,265.0209 L552.3395,275.1365 L552.6181,285.2521 L552.9363,295.3676 L551.0384,305.4832 L552.9047,315.5988 L551.6047,325.7144 L552.7117,335.83 L551.34,345.9455 L551.9087,356.0611 L552.9888,366.1767 L551.935,376.2923 L552.1404,386.4079 L552,396.5234 " fill="none" style="stroke:#383838;stroke-width:1.0;stroke-dasharray:5.0,5.0;"/><path d="M671,52.5938 L671.2802,52.5938 L670.4476,62.7093 L671.2577,72.8249 L671.5329,82.9405 L670.0488,93.0561 L670.8964,103.1716 L670.4313,113.2872 L670.4887,123.4028 L670.9091,133.5184 L670.0782,143.634 L671.7382,153.7495 L670.1596,163.8651 L670.7363,173.9807 L671.5759,184.0963 L670.8856,194.2119 L671.091,204.3274 L670.9574,214.443 L671.238,224.5586 L671.3188,234.6742 L671.7809,244.7898 L671.8947,254.9053 L671.9057,265.0209 L671.3395,275.1365 L671.6181,285.2521 L671.9363,295.3676 L670.0384,305.4832 L671.9047,315.5988 L670.6047,325.7144 L671.7117,335.83 L670.34,345.9455 L670.9087,356.0611 L671.9888,366.1767 L670.935,376.2923 L671.1404,386.4079 L671,396.5234 " fill="none" style="stroke:#383838;stroke-width:1.0;stroke-dasharray:5.0,5.0;"/><path d="M773,52.5938 L773.2802,52.5938 L772.4476,62.7093 L773.2577,72.8249 L773.5329,82.9405 L772.0488,93.0561 L772.8964,103.1716 L772.4313,113.2872 L772.4887,123.4028 L772.9091,133.5184 L772.0782,143.634 L773.7382,153.7495 L772.1596,163.8651 L772.7363,173.9807 L773.5759,184.0963 L772.8856,194.2119 L773.091,204.3274 L772.9574,214.443 L773.238,224.5586 L773.3188,234.6742 L773.7809,244.7898 L773.8947,254.9053 L773.9057,265.0209 L773.3395,275.1365 L773.6181,285.2521 L773.9363,295.3676 L772.0384,305.4832 L773.9047,315.5988 L772.6047,325.7144 L773.7117,335.83 L772.34,345.9455 L772.9087,356.0611 L773.9888,366.1767 L772.935,376.2923 L773.1404,386.4079 L773,396.5234 " fill="none" style="stroke:#383838;stroke-width:1.0;stroke-dasharray:5.0,5.0;"/><path d="M898,52.5938 L898.2802,52.5938 L897.4476,62.7093 L898.2577,72.8249 L898.5329,82.9405 L897.0488,93.0561 L897.8964,103.1716 L897.4313,113.2872 L897.4887,123.4028 L897.9091,133.5184 L897.0782,143.634 L898.7382,153.7495 L897.1596,163.8651 L897.7363,173.9807 L898.5759,184.0963 L897.8856,194.2119 L898.091,204.3274 L897.9574,214.443 L898.238,224.5586 L898.3188,234.6742 L898.7809,244.7898 L898.8947,254.9053 L898.9057,265.0209 L898.3395,275.1365 L898.6181,285.2521 L898.9363,295.3676 L897.0384,305.4832 L898.9047,315.5988 L897.6047,325.7144 L898.7117,335.83 L897.34,345.9455 L897.9087,356.0611 L898.9888,366.1767 L897.935,376.2923 L898.1404,386.4079 L898,396.5234 " fill="none" style="stroke:#383838;stroke-width:1.0;stroke-dasharray:5.0,5.0;"/><polygon fill="#F8F8F8" points="5,5,5,5.2102,14.8333,4.5857,24.6667,5.1933,34.5,5.3997,44.3333,4.2866,54.1667,4.9223,64,4.5735,73.8333,4.6165,83.6667,4.9318,93.5,4.3086,103.3333,5.5536,113.1667,4.3697,123,4.8022,132.8333,5.4319,142.6667,4.9142,152.5,5.0682,162.3333,4.9681,172.1667,5.1785,182,5,182.2391,5,182.5857,14.3188,182.6711,23.6375,182.6793,32.9563,182.2546,42.275,182,51.5938,182,52.0573,172.1667,52.296,162.3333,50.8726,152.5,52.2723,142.6667,51.2972,132.8333,52.1276,123,51.0987,113.1667,51.5253,103.3333,52.3354,93.5,51.545,83.6667,51.6991,73.8333,51.9324,64,52.01,54.1667,51.5898,44.3333,51.881,34.5,51.0213,24.6667,51.8781,14.8333,52.1419,5,51.5938,5.4445,51.5938,5.613,42.275,4.5169,32.9563,4.3478,23.6375,4.3786,14.3188,5,5" style="stroke:#383838;stroke-width:1.5;"/><text fill="#000000" font-family="FG Virgil" font-size="14" font-style="italic" lengthAdjust="spacing" textLength="97" x="45" y="24.9951">«application»</text><text fill="#000000" font-family="FG Virgil" font-size="14" lengthAdjust="spacing" textLength="163" x="12" y="41.292">EspecificaServicoCTRL</text><polygon fill="#F8F8F8" points="5,395.5234,5,395.7336,14.8333,395.1091,24.6667,395.7167,34.5,395.9231,44.3333,394.81,54.1667,395.4457,64,395.0969,73.8333,395.1399,83.6667,395.4553,93.5,394.8321,103.3333,396.0771,113.1667,394.8932,123,395.3257,132.8333,395.9554,142.6667,395.4377,152.5,395.5917,162.3333,395.4915,172.1667,395.702,182,395.5234,182.2391,395.5234,182.5857,404.8422,182.6711,414.1609,182.6793,423.4797,182.2546,432.7984,182,442.1172,182,442.5808,172.1667,442.8194,162.3333,441.396,152.5,442.7957,142.6667,441.8207,132.8333,442.651,123,441.6222,113.1667,442.0487,103.3333,442.8588,93.5,442.0685,83.6667,442.2225,73.8333,442.4558,64,442.5334,54.1667,442.1133,44.3333,442.4044,34.5,441.5448,24.6667,442.4016,14.8333,442.6654,5,442.1172,5.4445,442.1172,5.613,432.7984,4.5169,423.4797,4.3478,414.1609,4.3786,404.8422,5,395.5234" style="stroke:#383838;stroke-width:1.5;"/><text fill="#000000" font-family="FG Virgil" font-size="14" font-style="italic" lengthAdjust="spacing" textLength="97" x="45" y="415.5186">«application»</text><text fill="#000000" font-family="FG Virgil" font-size="14" lengthAdjust="spacing" textLength="163" x="12" y="431.8154">EspecificaServicoCTRL</text><polygon fill="#F8F8F8" points="192,5,192,5.2102,202.2222,4.5857,212.4444,5.1933,222.6667,5.3997,232.8889,4.2866,243.1111,4.9223,253.3333,4.5735,263.5556,4.6165,273.7778,4.9318,284,5,283.3086,5,284.5536,14.3188,283.3697,23.6375,283.8022,32.9563,284.4319,42.275,284,51.5938,284,51.508,273.7778,51.662,263.5556,51.5618,253.3333,51.7723,243.1111,51.8329,232.8889,52.1794,222.6667,52.2648,212.4444,52.273,202.2222,51.8484,192,51.5938,192.4636,51.5938,192.7022,42.275,191.2788,32.9563,192.6785,23.6375,191.7035,14.3188,192,5" style="stroke:#383838;stroke-width:1.5;"/><text fill="#000000" font-family="FG Virgil" font-size="14" font-style="italic" lengthAdjust="spacing" textLength="72" x="202" y="24.9951">«domain»</text><text fill="#000000" font-family="FG Virgil" font-size="14" lengthAdjust="spacing" textLength="78" x="199" y="41.292">Criticidade</text><polygon fill="#F8F8F8" points="192,395.5234,192,395.7336,202.2222,395.1091,212.4444,395.7167,222.6667,395.9231,232.8889,394.81,243.1111,395.4457,253.3333,395.0969,263.5556,395.1399,273.7778,395.4553,284,395.5234,283.3086,395.5234,284.5536,404.8422,283.3697,414.1609,283.8022,423.4797,284.4319,432.7984,284,442.1172,284,442.0314,273.7778,442.1854,263.5556,442.0852,253.3333,442.2957,243.1111,442.3563,232.8889,442.7029,222.6667,442.7882,212.4444,442.7964,202.2222,442.3718,192,442.1172,192.4636,442.1172,192.7022,432.7984,191.2788,423.4797,192.6785,414.1609,191.7035,404.8422,192,395.5234" style="stroke:#383838;stroke-width:1.5;"/><text fill="#000000" font-family="FG Virgil" font-size="14" font-style="italic" lengthAdjust="spacing" textLength="72" x="202" y="415.5186">«domain»</text><text fill="#000000" font-family="FG Virgil" font-size="14" lengthAdjust="spacing" textLength="78" x="199" y="431.8154">Criticidade</text><polygon fill="#F8F8F8" points="294,5,294,5.2102,303.6667,4.5857,313.3333,5.1933,323,5.3997,332.6667,4.2866,342.3333,4.9223,352,4.5735,361.6667,4.6165,371.3333,4.9318,381,5,380.3086,5,381.5536,14.3188,380.3697,23.6375,380.8022,32.9563,381.4319,42.275,381,51.5938,381,51.508,371.3333,51.662,361.6667,51.5618,352,51.7723,342.3333,51.8329,332.6667,52.1794,323,52.2648,313.3333,52.273,303.6667,51.8484,294,51.5938,294.4636,51.5938,294.7022,42.275,293.2788,32.9563,294.6785,23.6375,293.7035,14.3188,294,5" style="stroke:#383838;stroke-width:1.5;"/><text fill="#000000" font-family="FG Virgil" font-size="14" font-style="italic" lengthAdjust="spacing" textLength="72" x="301.5" y="24.9951">«domain»</text><text fill="#000000" font-family="FG Virgil" font-size="14" lengthAdjust="spacing" textLength="73" x="301" y="41.292">Prioridade</text><polygon fill="#F8F8F8" points="294,395.5234,294,395.7336,303.6667,395.1091,313.3333,395.7167,323,395.9231,332.6667,394.81,342.3333,395.4457,352,395.0969,361.6667,395.1399,371.3333,395.4553,381,395.5234,380.3086,395.5234,381.5536,404.8422,380.3697,414.1609,380.8022,423.4797,381.4319,432.7984,381,442.1172,381,442.0314,371.3333,442.1854,361.6667,442.0852,352,442.2957,342.3333,442.3563,332.6667,442.7029,323,442.7882,313.3333,442.7964,303.6667,442.3718,294,442.1172,294.4636,442.1172,294.7022,432.7984,293.2788,423.4797,294.6785,414.1609,293.7035,404.8422,294,395.5234" style="stroke:#383838;stroke-width:1.5;"/><text fill="#000000" font-family="FG Virgil" font-size="14" font-style="italic" lengthAdjust="spacing" textLength="72" x="301.5" y="415.5186">«domain»</text><text fill="#000000" font-family="FG Virgil" font-size="14" lengthAdjust="spacing" textLength="73" x="301" y="431.8154">Prioridade</text><polygon fill="#F8F8F8" points="391,5,391,5.2102,400.5556,4.5857,410.1111,5.1933,419.6667,5.3997,429.2222,4.2866,438.7778,4.9223,448.3333,4.5735,457.8889,4.6165,467.4444,4.9318,477,5,476.3086,5,477.5536,14.3188,476.3697,23.6375,476.8022,32.9563,477.4319,42.275,477,51.5938,477,51.508,467.4444,51.662,457.8889,51.5618,448.3333,51.7723,438.7778,51.8329,429.2222,52.1794,419.6667,52.2648,410.1111,52.273,400.5556,51.8484,391,51.5938,391.4636,51.5938,391.7022,42.275,390.2788,32.9563,391.6785,23.6375,390.7035,14.3188,391,5" style="stroke:#383838;stroke-width:1.5;"/><text fill="#000000" font-family="FG Virgil" font-size="14" font-style="italic" lengthAdjust="spacing" textLength="72" x="398" y="24.9951">«domain»</text><text fill="#000000" font-family="FG Virgil" font-size="14" lengthAdjust="spacing" textLength="34" x="417" y="41.292">Data</text><polygon fill="#F8F8F8" points="391,395.5234,391,395.7336,400.5556,395.1091,410.1111,395.7167,419.6667,395.9231,429.2222,394.81,438.7778,395.4457,448.3333,395.0969,457.8889,395.1399,467.4444,395.4553,477,395.5234,476.3086,395.5234,477.5536,404.8422,476.3697,414.1609,476.8022,423.4797,477.4319,432.7984,477,442.1172,477,442.0314,467.4444,442.1854,457.8889,442.0852,448.3333,442.2957,438.7778,442.3563,429.2222,442.7029,419.6667,442.7882,410.1111,442.7964,400.5556,442.3718,391,442.1172,391.4636,442.1172,391.7022,432.7984,390.2788,423.4797,391.6785,414.1609,390.7035,404.8422,391,395.5234" style="stroke:#383838;stroke-width:1.5;"/><text fill="#000000" font-family="FG Virgil" font-size="14" font-style="italic" lengthAdjust="spacing" textLength="72" x="398" y="415.5186">«domain»</text><text fill="#000000" font-family="FG Virgil" font-size="14" lengthAdjust="spacing" textLength="34" x="417" y="431.8154">Data</text><polygon fill="#F8F8F8" points="487,5,487,5.2102,497.0769,4.5857,507.1538,5.1933,517.2308,5.3997,527.3077,4.2866,537.3846,4.9223,547.4615,4.5735,557.5385,4.6165,567.6154,4.9318,577.6923,4.3086,587.7692,5.5536,597.8462,4.3697,607.9231,4.8022,618,5,618.4319,5,617.9142,14.3188,618.0682,23.6375,617.9681,32.9563,618.1785,42.275,618,51.5938,618,51.8329,607.9231,52.1794,597.8462,52.2648,587.7692,52.273,577.6923,51.8484,567.6154,52.0573,557.5385,52.296,547.4615,50.8726,537.3846,52.2723,527.3077,51.2972,517.2308,52.1276,507.1538,51.0987,497.0769,51.5253,487,51.5938,487.7416,51.5938,486.9513,42.275,487.1053,32.9563,487.3386,23.6375,487.4162,14.3188,487,5" style="stroke:#383838;stroke-width:1.5;"/><text fill="#000000" font-family="FG Virgil" font-size="14" font-style="italic" lengthAdjust="spacing" textLength="72" x="516.5" y="24.9951">«domain»</text><text fill="#000000" font-family="FG Virgil" font-size="14" lengthAdjust="spacing" textLength="117" x="494" y="41.292">EstadoAtividade</text><polygon fill="#F8F8F8" points="487,395.5234,487,395.7336,497.0769,395.1091,507.1538,395.7167,517.2308,395.9231,527.3077,394.81,537.3846,395.4457,547.4615,395.0969,557.5385,395.1399,567.6154,395.4553,577.6923,394.8321,587.7692,396.0771,597.8462,394.8932,607.9231,395.3257,618,395.5234,618.4319,395.5234,617.9142,404.8422,618.0682,414.1609,617.9681,423.4797,618.1785,432.7984,618,442.1172,618,442.3563,607.9231,442.7029,597.8462,442.7882,587.7692,442.7964,577.6923,442.3718,567.6154,442.5808,557.5385,442.8194,547.4615,441.396,537.3846,442.7957,527.3077,441.8207,517.2308,442.651,507.1538,441.6222,497.0769,442.0487,487,442.1172,487.7416,442.1172,486.9513,432.7984,487.1053,423.4797,487.3386,414.1609,487.4162,404.8422,487,395.5234" style="stroke:#383838;stroke-width:1.5;"/><text fill="#000000" font-family="FG Virgil" font-size="14" font-style="italic" lengthAdjust="spacing" textLength="72" x="516.5" y="415.5186">«domain»</text><text fill="#000000" font-family="FG Virgil" font-size="14" lengthAdjust="spacing" textLength="117" x="494" y="431.8154">EstadoAtividade</text><polygon fill="#F8F8F8" points="628,5,628,5.2102,637.5556,4.5857,647.1111,5.1933,656.6667,5.3997,666.2222,4.2866,675.7778,4.9223,685.3333,4.5735,694.8889,4.6165,704.4444,4.9318,714,5,713.3086,5,714.5536,14.3188,713.3697,23.6375,713.8022,32.9563,714.4319,42.275,714,51.5938,714,51.508,704.4444,51.662,694.8889,51.5618,685.3333,51.7723,675.7778,51.8329,666.2222,52.1794,656.6667,52.2648,647.1111,52.273,637.5556,51.8484,628,51.5938,628.4636,51.5938,628.7022,42.275,627.2788,32.9563,628.6785,23.6375,627.7035,14.3188,628,5" style="stroke:#383838;stroke-width:1.5;"/><text fill="#000000" font-family="FG Virgil" font-size="14" font-style="italic" lengthAdjust="spacing" textLength="72" x="635" y="24.9951">«domain»</text><text fill="#000000" font-family="FG Virgil" font-size="14" lengthAdjust="spacing" textLength="56" x="643" y="41.292">Decisao</text><polygon fill="#F8F8F8" points="628,395.5234,628,395.7336,637.5556,395.1091,647.1111,395.7167,656.6667,395.9231,666.2222,394.81,675.7778,395.4457,685.3333,395.0969,694.8889,395.1399,704.4444,395.4553,714,395.5234,713.3086,395.5234,714.5536,404.8422,713.3697,414.1609,713.8022,423.4797,714.4319,432.7984,714,442.1172,714,442.0314,704.4444,442.1854,694.8889,442.0852,685.3333,442.2957,675.7778,442.3563,666.2222,442.7029,656.6667,442.7882,647.1111,442.7964,637.5556,442.3718,628,442.1172,628.4636,442.1172,628.7022,432.7984,627.2788,423.4797,628.6785,414.1609,627.7035,404.8422,628,395.5234" style="stroke:#383838;stroke-width:1.5;"/><text fill="#000000" font-family="FG Virgil" font-size="14" font-style="italic" lengthAdjust="spacing" textLength="72" x="635" y="415.5186">«domain»</text><text fill="#000000" font-family="FG Virgil" font-size="14" lengthAdjust="spacing" textLength="56" x="643" y="431.8154">Decisao</text><polygon fill="#F8F8F8" points="724,5,724,5.2102,733.9,4.5857,743.8,5.1933,753.7,5.3997,763.6,4.2866,773.5,4.9223,783.4,4.5735,793.3,4.6165,803.2,4.9318,813.1,4.3086,823,5,823.5536,5,822.3697,14.3188,822.8022,23.6375,823.4319,32.9563,822.9142,42.275,823,51.5938,823,51.662,813.1,51.5618,803.2,51.7723,793.3,51.8329,783.4,52.1794,773.5,52.2648,763.6,52.273,753.7,51.8484,743.8,52.0573,733.9,52.296,724,51.5938,723.2788,51.5938,724.6785,42.275,723.7035,32.9563,724.5338,23.6375,723.505,14.3188,724,5" style="stroke:#383838;stroke-width:1.5;"/><text fill="#000000" font-family="FG Virgil" font-size="14" font-style="italic" lengthAdjust="spacing" textLength="72" x="737.5" y="24.9951">«domain»</text><text fill="#000000" font-family="FG Virgil" font-size="14" lengthAdjust="spacing" textLength="85" x="731" y="41.292">Comentario</text><polygon fill="#F8F8F8" points="724,395.5234,724,395.7336,733.9,395.1091,743.8,395.7167,753.7,395.9231,763.6,394.81,773.5,395.4457,783.4,395.0969,793.3,395.1399,803.2,395.4553,813.1,394.8321,823,395.5234,823.5536,395.5234,822.3697,404.8422,822.8022,414.1609,823.4319,423.4797,822.9142,432.7984,823,442.1172,823,442.1854,813.1,442.0852,803.2,442.2957,793.3,442.3563,783.4,442.7029,773.5,442.7882,763.6,442.7964,753.7,442.3718,743.8,442.5808,733.9,442.8194,724,442.1172,723.2788,442.1172,724.6785,432.7984,723.7035,423.4797,724.5338,414.1609,723.505,404.8422,724,395.5234" style="stroke:#383838;stroke-width:1.5;"/><text fill="#000000" font-family="FG Virgil" font-size="14" font-style="italic" lengthAdjust="spacing" textLength="72" x="737.5" y="415.5186">«domain»</text><text fill="#000000" font-family="FG Virgil" font-size="14" lengthAdjust="spacing" textLength="85" x="731" y="431.8154">Comentario</text><polygon fill="#F8F8F8" points="833,5,833,5.2102,843.0769,4.5857,853.1538,5.1933,863.2308,5.3997,873.3077,4.2866,883.3846,4.9223,893.4615,4.5735,903.5385,4.6165,913.6154,4.9318,923.6923,4.3086,933.7692,5.5536,943.8462,4.3697,953.9231,4.8022,964,5,964.4319,5,963.9142,14.3188,964.0682,23.6375,963.9681,32.9563,964.1785,42.275,964,51.5938,964,51.8329,953.9231,52.1794,943.8462,52.2648,933.7692,52.273,923.6923,51.8484,913.6154,52.0573,903.5385,52.296,893.4615,50.8726,883.3846,52.2723,873.3077,51.2972,863.2308,52.1276,853.1538,51.0987,843.0769,51.5253,833,51.5938,833.7416,51.5938,832.9513,42.275,833.1053,32.9563,833.3386,23.6375,833.4162,14.3188,833,5" style="stroke:#383838;stroke-width:1.5;"/><text fill="#000000" font-family="FG Virgil" font-size="14" font-style="italic" lengthAdjust="spacing" textLength="72" x="862.5" y="24.9951">«domain»</text><text fill="#000000" font-family="FG Virgil" font-size="14" lengthAdjust="spacing" textLength="117" x="840" y="41.292">AtividadeManual</text><polygon fill="#F8F8F8" points="833,395.5234,833,395.7336,843.0769,395.1091,853.1538,395.7167,863.2308,395.9231,873.3077,394.81,883.3846,395.4457,893.4615,395.0969,903.5385,395.1399,913.6154,395.4553,923.6923,394.8321,933.7692,396.0771,943.8462,394.8932,953.9231,395.3257,964,395.5234,964.4319,395.5234,963.9142,404.8422,964.0682,414.1609,963.9681,423.4797,964.1785,432.7984,964,442.1172,964,442.3563,953.9231,442.7029,943.8462,442.7882,933.7692,442.7964,923.6923,442.3718,913.6154,442.5808,903.5385,442.8194,893.4615,441.396,883.3846,442.7957,873.3077,441.8207,863.2308,442.651,853.1538,441.6222,843.0769,442.0487,833,442.1172,833.7416,442.1172,832.9513,432.7984,833.1053,423.4797,833.3386,414.1609,833.4162,404.8422,833,395.5234" style="stroke:#383838;stroke-width:1.5;"/><text fill="#000000" font-family="FG Virgil" font-size="14" font-style="italic" lengthAdjust="spacing" textLength="72" x="862.5" y="415.5186">«domain»</text><text fill="#000000" font-family="FG Virgil" font-size="14" lengthAdjust="spacing" textLength="117" x="840" y="431.8154">AtividadeManual</text><polygon fill="#FFFFFF" points="88.5,83.7266,88.5,83.7966,90.5,83.5885,92.5,83.791,94.5,83.8598,96.5,83.4888,98.5,83.7266,98.4223,83.7266,98.0735,93.892,98.1165,104.0574,98.4318,114.2228,97.8086,124.3882,99.0536,134.5536,97.8697,144.719,98.3022,154.8844,98.9319,165.0498,98.4142,175.2152,98.5682,185.3807,98.4681,195.5461,98.6785,205.7115,98.7391,215.8769,99.0857,226.0423,99.1711,236.2077,99.1793,246.3731,98.7546,256.5385,98.9636,266.7039,99.2022,276.8693,97.7788,287.0348,99.1785,297.2002,98.2035,307.3656,99.0338,317.531,98.005,327.6964,98.4315,337.8618,99.2416,348.0272,98.4513,358.1926,98.6053,368.358,98.5,378.5234,98.5,378.6363,96.5,378.6622,94.5,378.5221,92.5,378.6192,90.5,378.3326,88.5,378.5234,88.7844,378.5234,89.0482,368.358,88.9445,358.1926,89.113,348.0272,88.0169,337.8618,87.8478,327.6964,87.8786,317.531,88.4411,307.3656,88.3035,297.2002,89.1814,287.0348,88.3253,276.8693,88.1569,266.7039,88.7283,256.5385,87.8332,246.3731,87.9809,236.2077,89.149,226.0423,88.9357,215.8769,89.2345,205.7115,88.1782,195.5461,88.8192,185.3807,89.0904,175.2152,88.0276,165.0498,88.4041,154.8844,88.626,144.719,89.1518,134.5536,88.4958,124.3882,88.9626,114.2228,87.9462,104.0574,87.8227,93.892,88.5,83.7266" style="stroke:#383838;stroke-width:1.0;"/><polygon fill="#FFFFFF" points="233,83.7266,233,83.7966,235,83.5885,237,83.791,239,83.8598,241,83.4888,243,83.7266,242.9741,83.7266,242.8578,89.7266,242.8722,95.7266,242.9773,101.7266,242.7695,107.7266,243,113.7266,243,113.9111,241,113.5165,239,113.6606,237,113.8705,235,113.698,233,113.7266,233.0227,113.7266,232.9894,107.7266,233.0595,101.7266,233.0797,95.7266,233.1952,89.7266,233,83.7266" style="stroke:#383838;stroke-width:1.0;"/><polygon fill="#FFFFFF" points="332.5,142.8594,332.5,142.9294,334.5,142.7213,336.5,142.9238,338.5,142.9926,340.5,142.6216,342.5,142.8594,342.4741,142.8594,342.3578,148.8594,342.3722,154.8594,342.4773,160.8594,342.2695,166.8594,342.5,172.8594,342.5,173.0439,340.5,172.6493,338.5,172.7935,336.5,173.0034,334.5,172.8308,332.5,172.8594,332.5227,172.8594,332.4894,166.8594,332.5595,160.8594,332.5797,154.8594,332.6952,148.8594,332.5,142.8594" style="stroke:#383838;stroke-width:1.0;"/><polygon fill="#FFFFFF" points="429,201.9922,429,202.0622,431,201.8541,433,202.0566,435,202.1254,437,201.7544,439,201.9922,438.9741,201.9922,438.8578,207.9922,438.8722,213.9922,438.9773,219.9922,438.7695,225.9922,439,231.9922,439,232.1767,437,231.7821,435,231.9263,433,232.1362,431,231.9636,429,231.9922,429.0227,231.9922,428.9894,225.9922,429.0595,219.9922,429.0797,213.9922,429.1952,207.9922,429,201.9922" style="stroke:#383838;stroke-width:1.0;"/><polygon fill="#FFFFFF" points="893.5,348.5234,893.5,348.5935,895.5,348.3853,897.5,348.5879,899.5,348.6567,901.5,348.2856,903.5,348.5234,903.4741,348.5234,903.3578,354.5234,903.3722,360.5234,903.4773,366.5234,903.2695,372.5234,903.5,378.5234,903.5,378.708,901.5,378.3133,899.5,378.4575,897.5,378.6674,895.5,378.4948,893.5,378.5234,893.5227,378.5234,893.4894,372.5234,893.5595,366.5234,893.5797,360.5234,893.6952,354.5234,893.5,348.5234" style="stroke:#383838;stroke-width:1.0;"/><polygon fill="#383838" points="221,79.7266,221.026,79.7916,222.9487,80.3983,225.0239,81.3864,227.0495,82.2503,228.9117,82.7058,231,83.7266,230.9904,83.7025,228.9472,84.3946,226.9525,85.2079,224.9916,86.1055,222.9144,86.7126,221,87.7266,221.1305,87.8571,221.6514,86.778,222.5534,86.0799,223.5018,85.4284,224.1798,84.5063,225,83.7266,225.0161,83.7426,224.1925,82.919,223.4421,82.1686,222.6564,81.3829,221.938,80.6646,221,79.7266" style="stroke:#383838;stroke-width:1.0;"/><path d="M98.5,83.7266 L98.5,84.0068 L108.3846,83.1741 L118.2692,83.9843 L128.1538,84.2595 L138.0385,82.7754 L147.9231,83.6229 L157.8077,83.1579 L167.6923,83.2152 L177.5769,83.6357 L187.4615,82.8047 L197.3462,84.4648 L207.2308,82.8862 L217.1154,83.4629 L227,83.7266 " fill="none" style="stroke:#383838;stroke-width:1.0;"/><text fill="#000000" font-family="FG Virgil" font-size="13" lengthAdjust="spacing" textLength="89" x="105.5" y="78.6606">crit = create()</text><polygon fill="#383838" points="320.5,138.8594,320.526,138.9244,322.4487,139.5311,324.5239,140.5192,326.5495,141.3831,328.4117,141.8386,330.5,142.8594,330.4904,142.8353,328.4472,143.5274,326.4525,144.3407,324.4916,145.2383,322.4144,145.8454,320.5,146.8594,320.6305,146.9899,321.1514,145.9108,322.0534,145.2128,323.0018,144.5612,323.6798,143.6392,324.5,142.8594,324.5161,142.8755,323.6925,142.0518,322.9421,141.3015,322.1564,140.5157,321.438,139.7974,320.5,138.8594" style="stroke:#383838;stroke-width:1.0;"/><path d="M98.5,142.8594 L98.5,143.1396 L108.413,142.3069 L118.3261,143.1171 L128.2391,143.3923 L138.1522,141.9082 L148.0652,142.7558 L157.9783,142.2907 L167.8913,142.348 L177.8043,142.7685 L187.7174,141.9375 L197.6304,143.5976 L207.5435,142.019 L217.4565,142.5957 L227.3696,143.4353 L237.2826,142.745 L247.1957,142.9504 L257.1087,142.8168 L267.0217,143.0974 L276.9348,143.1782 L286.8478,143.6403 L296.7609,143.7541 L306.6739,143.7651 L316.587,143.1989 L326.5,142.8594 " fill="none" style="stroke:#383838;stroke-width:1.0;"/><text fill="#000000" font-family="FG Virgil" font-size="13" lengthAdjust="spacing" textLength="93" x="105.5" y="137.7935">prio = create()</text><polygon fill="#383838" points="417,197.9922,417.026,198.0572,418.9487,198.664,421.0239,199.652,423.0495,200.5159,424.9117,200.9714,427,201.9922,426.9904,201.9681,424.9472,202.6602,422.9525,203.4735,420.9916,204.3711,418.9144,204.9782,417,205.9922,417.1305,206.1227,417.6514,205.0436,418.5534,204.3456,419.5018,203.694,420.1798,202.772,421,201.9922,421.0161,202.0083,420.1925,201.1847,419.4421,200.4343,418.6564,199.6486,417.938,198.9302,417,197.9922" style="stroke:#383838;stroke-width:1.0;"/><path d="M98.5,201.9922 L98.5,202.2724 L108.6406,201.4398 L118.7813,202.2499 L128.9219,202.5251 L139.0625,201.041 L149.2031,201.8886 L159.3438,201.4235 L169.4844,201.4809 L179.625,201.9013 L189.7656,201.0704 L199.9063,202.7304 L210.0469,201.1518 L220.1875,201.7285 L230.3281,202.5681 L240.4688,201.8778 L250.6094,202.0832 L260.75,201.9496 L270.8906,202.2302 L281.0313,202.311 L291.1719,202.7731 L301.3125,202.8869 L311.4531,202.8979 L321.5938,202.3317 L331.7344,202.6103 L341.875,202.9285 L352.0156,201.0306 L362.1563,202.8969 L372.2969,201.5968 L382.4375,202.7039 L392.5781,201.3322 L402.7188,201.9009 L412.8594,202.981 L423,201.9922 " fill="none" style="stroke:#383838;stroke-width:1.0;"/><text fill="#000000" font-family="FG Virgil" font-size="13" lengthAdjust="spacing" textLength="98" x="105.5" y="196.9263">data = create()</text><polygon fill="#383838" points="540.5,257.125,540.526,257.19,542.4487,257.7968,544.5239,258.7848,546.5495,259.6487,548.4117,260.1042,550.5,261.125,550.4904,261.1009,548.4472,261.793,546.4525,262.6063,544.4916,263.5039,542.4144,264.111,540.5,265.125,540.6305,265.2555,541.1514,264.1764,542.0534,263.4784,543.0018,262.8268,543.6798,261.9048,544.5,261.125,544.5161,261.1411,543.6925,260.3175,542.9421,259.5671,542.1564,258.7814,541.438,258.063,540.5,257.125" style="stroke:#383838;stroke-width:1.0;"/><path d="M98.5,261.125 L98.5,261.4052 L108.4556,260.5726 L118.4111,261.3827 L128.3667,261.6579 L138.3222,260.1738 L148.2778,261.0214 L158.2333,260.5563 L168.1889,260.6137 L178.1444,261.0341 L188.1,260.2032 L198.0556,261.8632 L208.0111,260.2846 L217.9667,260.8613 L227.9222,261.7009 L237.8778,261.0106 L247.8333,261.216 L257.7889,261.0824 L267.7444,261.363 L277.7,261.4438 L287.6556,261.9059 L297.6111,262.0197 L307.5667,262.0307 L317.5222,261.4645 L327.4778,261.7431 L337.4333,262.0613 L347.3889,260.1634 L357.3444,262.0297 L367.3,260.7297 L377.2556,261.8367 L387.2111,260.465 L397.1667,261.0337 L407.1222,262.1138 L417.0778,261.06 L427.0333,261.2654 L436.9889,261.5765 L446.9444,261.68 L456.9,261.1198 L466.8556,261.508 L476.8111,260.3618 L486.7667,261.5042 L496.7222,261.8559 L506.6778,261.7177 L516.6333,261.9424 L526.5889,260.4809 L536.5444,260.2554 L546.5,261.125 " fill="none" style="stroke:#383838;stroke-width:1.0;"/><text fill="#000000" font-family="FG Virgil" font-size="13" lengthAdjust="spacing" textLength="113" x="105.5" y="256.0591">estado = create()</text><polygon fill="#383838" points="659,286.2578,659.026,286.3229,660.9487,286.9296,663.0239,287.9176,665.0495,288.7815,666.9117,289.237,669,290.2578,668.9904,290.2338,666.9472,290.9258,664.9525,291.7391,662.9916,292.6367,660.9144,293.2438,659,294.2578,659.1305,294.3883,659.6514,293.3093,660.5534,292.6112,661.5018,291.9596,662.1798,291.0376,663,290.2578,663.0161,290.2739,662.1925,289.4503,661.4421,288.6999,660.6564,287.9142,659.938,287.1959,659,286.2578" style="stroke:#383838;stroke-width:1.0;"/><path d="M98.5,290.2578 L98.5,290.5381 L108.4386,289.7054 L118.3772,290.5155 L128.3158,290.7907 L138.2544,289.3066 L148.193,290.1542 L158.1316,289.6892 L168.0702,289.7465 L178.0088,290.1669 L187.9474,289.336 L197.886,290.996 L207.8246,289.4174 L217.7632,289.9941 L227.7018,290.8337 L237.6404,290.1434 L247.5789,290.3488 L257.5175,290.2152 L267.4561,290.4958 L277.3947,290.5767 L287.3333,291.0387 L297.2719,291.1526 L307.2105,291.1635 L317.1491,290.5973 L327.0877,290.8759 L337.0263,291.1941 L346.9649,289.2962 L356.9035,291.1625 L366.8421,289.8625 L376.7807,290.9696 L386.7193,289.5978 L396.6579,290.1665 L406.5965,291.2466 L416.5351,290.1928 L426.4737,290.3982 L436.4123,290.7093 L446.3509,290.8128 L456.2895,290.2526 L466.2281,290.6408 L476.1667,289.4946 L486.1053,290.637 L496.0439,290.9887 L505.9825,290.8505 L515.9211,291.0752 L525.8596,289.6137 L535.7982,289.3882 L545.7368,289.4293 L555.6754,290.1793 L565.614,289.9958 L575.5526,291.1664 L585.4912,290.0249 L595.4298,289.8004 L605.3684,290.5622 L615.307,289.3687 L625.2456,289.5656 L635.1842,291.1231 L645.1228,290.8387 L655.0614,291.2371 L665,290.2578 " fill="none" style="stroke:#383838;stroke-width:1.0;"/><text fill="#000000" font-family="FG Virgil" font-size="13" lengthAdjust="spacing" textLength="92" x="105.5" y="285.1919">des = create()</text><polygon fill="#383838" points="761.5,315.3906,761.526,315.4557,763.4487,316.0624,765.5239,317.0504,767.5495,317.9143,769.4117,318.3698,771.5,319.3906,771.4904,319.3666,769.4472,320.0586,767.4525,320.8719,765.4916,321.7695,763.4144,322.3767,761.5,323.3906,761.6305,323.5211,762.1514,322.4421,763.0534,321.744,764.0018,321.0924,764.6798,320.1704,765.5,319.3906,765.5161,319.4067,764.6925,318.5831,763.9421,317.8327,763.1564,317.047,762.438,316.3287,761.5,315.3906" style="stroke:#383838;stroke-width:1.0;"/><path d="M98.5,319.3906 L98.5,319.6709 L108.4851,318.8382 L118.4701,319.6483 L128.4552,319.9235 L138.4403,318.4394 L148.4254,319.287 L158.4104,318.822 L168.3955,318.8793 L178.3806,319.2997 L188.3657,318.4688 L198.3507,320.1288 L208.3358,318.5503 L218.3209,319.1269 L228.306,319.9666 L238.291,319.2763 L248.2761,319.4816 L258.2612,319.348 L268.2463,319.6287 L278.2313,319.7095 L288.2164,320.1715 L298.2015,320.2854 L308.1866,320.2963 L318.1716,319.7301 L328.1567,320.0087 L338.1418,320.3269 L348.1269,318.429 L358.1119,320.2953 L368.097,318.9953 L378.0821,320.1024 L388.0672,318.7306 L398.0522,319.2993 L408.0373,320.3794 L418.0224,319.3256 L428.0075,319.531 L437.9925,319.8421 L447.9776,319.9456 L457.9627,319.3854 L467.9478,319.7736 L477.9328,318.6274 L487.9179,319.7698 L497.903,320.1216 L507.8881,319.9833 L517.8731,320.208 L527.8582,318.7465 L537.8433,318.521 L547.8284,318.5621 L557.8134,319.3121 L567.7985,319.1286 L577.7836,320.2992 L587.7687,319.1577 L597.7537,318.9332 L607.7388,319.695 L617.7239,318.5015 L627.709,318.6985 L637.694,320.2559 L647.6791,319.9715 L657.6642,320.3699 L667.6493,318.9616 L677.6343,319.8162 L687.6194,320.1779 L697.6045,318.7608 L707.5896,319.2628 L717.5746,319.5586 L727.5597,320.2596 L737.5448,319.385 L747.5299,320.0074 L757.5149,318.6522 L767.5,319.3906 " fill="none" style="stroke:#383838;stroke-width:1.0;"/><text fill="#000000" font-family="FG Virgil" font-size="13" lengthAdjust="spacing" textLength="118" x="105.5" y="314.3247">coment = create()</text><polygon fill="#383838" points="881.5,344.5234,881.526,344.5885,883.4487,345.1952,885.5239,346.1833,887.5495,347.0471,889.4117,347.5026,891.5,348.5234,891.4904,348.4994,889.4472,349.1914,887.4525,350.0047,885.4916,350.9023,883.4144,351.5095,881.5,352.5234,881.6305,352.6539,882.1514,351.5749,883.0534,350.8768,884.0018,350.2252,884.6798,349.3032,885.5,348.5234,885.5161,348.5395,884.6925,347.7159,883.9421,346.9655,883.1564,346.1798,882.438,345.4615,881.5,344.5234" style="stroke:#383838;stroke-width:1.0;"/><path d="M98.5,348.5234 L98.5,348.8037 L108.4873,347.971 L118.4747,348.7812 L128.462,349.0563 L138.4494,347.5722 L148.4367,348.4198 L158.4241,347.9548 L168.4114,348.0121 L178.3987,348.4326 L188.3861,347.6016 L198.3734,349.2616 L208.3608,347.6831 L218.3481,348.2597 L228.3354,349.0994 L238.3228,348.4091 L248.3101,348.6144 L258.2975,348.4808 L268.2848,348.7615 L278.2722,348.8423 L288.2595,349.3044 L298.2468,349.4182 L308.2342,349.4291 L318.2215,348.8629 L328.2089,349.1416 L338.1962,349.4597 L348.1835,347.5619 L358.1709,349.4281 L368.1582,348.1281 L378.1456,349.2352 L388.1329,347.8634 L398.1203,348.4321 L408.1076,349.5122 L418.0949,348.4585 L428.0823,348.6638 L438.0696,348.9749 L448.057,349.0784 L458.0443,348.5182 L468.0316,348.9064 L478.019,347.7602 L488.0063,348.9026 L497.9937,349.2544 L507.981,349.1161 L517.9684,349.3408 L527.9557,347.8793 L537.943,347.6539 L547.9304,347.6949 L557.9177,348.4449 L567.9051,348.2614 L577.8924,349.432 L587.8797,348.2905 L597.8671,348.066 L607.8544,348.8278 L617.8418,347.6343 L627.8291,347.8313 L637.8165,349.3887 L647.8038,349.1043 L657.7911,349.5028 L667.7785,348.0944 L677.7658,348.949 L687.7532,349.3107 L697.7405,347.8936 L707.7278,348.3956 L717.7152,348.6914 L727.7025,349.3925 L737.6899,348.5178 L747.6772,349.1402 L757.6646,347.7851 L767.6519,347.6204 L777.6392,349.1949 L787.6266,347.5675 L797.6139,349.2021 L807.6013,348.7989 L817.5886,348.1662 L827.5759,348.0517 L837.5633,349.1351 L847.5506,348.1243 L857.538,349.3126 L867.5253,347.7864 L877.5127,349.3467 L887.5,348.5234 " fill="none" style="stroke:#383838;stroke-width:1.0;"/><text fill="#000000" font-family="FG Virgil" font-size="13" lengthAdjust="spacing" textLength="298" x="105.5" y="343.4575">create(crit,prio,data,estado,colab,des,coment)</text><!--MD5=[70b9fff3508cd5e3253596870689a989]
@startuml
'http://plantuml.com/skinparam.html
skinparam handwritten true
skinparam monochrome true
skinparam packageStyle rect
skinparam defaultFontName FG Virgil
skinparam shadowing false

participant EspecificaServicoCTRL as Controller <<application>>
participant Criticidade as Criticidade <<domain>>
participant Prioridade as Prioridade <<domain>>
participant Data as Data <<domain>>
participant EstadoAtividade as EstadoAtividade <<domain>>
participant Decisao as Decisao <<domain>>
participant Comentario as Comentario <<domain>>
participant AtividadeManual as AtividadeManual <<domain>>

    
      Controller -> Criticidade: crit = create()
    activate Controller
    activate Criticidade
    deactivate Criticidade
      Controller -> Prioridade: prio = create()
    activate Prioridade
    deactivate Prioridade
      Controller -> Data: data = create()
    activate Data
    deactivate Data
      Controller -> EstadoAtividade: estado = create()
    deactivate EstadoAtividade
    deactivate EstadoAtividade
      Controller -> Decisao: des = create()
    deactivate Decisao
    deactivate Decisao
      Controller -> Comentario: coment = create()
    deactivate Comentario
    deactivate Comentario
      Controller -> AtividadeManual: create(crit,prio,data,estado,colab,des,coment)
    activate AtividadeManual
    deactivate AtividadeManual
    deactivate Controller
@enduml

@startuml
skinparam handwritten true
skinparam monochrome true
skinparam packageStyle rect
skinparam defaultFontName FG Virgil
skinparam shadowing false

participant EspecificaServicoCTRL as Controller <<application>>
participant Criticidade as Criticidade <<domain>>
participant Prioridade as Prioridade <<domain>>
participant Data as Data <<domain>>
participant EstadoAtividade as EstadoAtividade <<domain>>
participant Decisao as Decisao <<domain>>
participant Comentario as Comentario <<domain>>
participant AtividadeManual as AtividadeManual <<domain>>

    
      Controller -> Criticidade: crit = create()
    activate Controller
    activate Criticidade
    deactivate Criticidade
      Controller -> Prioridade: prio = create()
    activate Prioridade
    deactivate Prioridade
      Controller -> Data: data = create()
    activate Data
    deactivate Data
      Controller -> EstadoAtividade: estado = create()
    deactivate EstadoAtividade
    deactivate EstadoAtividade
      Controller -> Decisao: des = create()
    deactivate Decisao
    deactivate Decisao
      Controller -> Comentario: coment = create()
    deactivate Comentario
    deactivate Comentario
      Controller -> AtividadeManual: create(crit,prio,data,estado,colab,des,coment)
    activate AtividadeManual
    deactivate AtividadeManual
    deactivate Controller
@enduml

PlantUML version 1.2021.7beta2(Unknown compile time)
(GPL source distribution)
Java Runtime: Java(TM) SE Runtime Environment
JVM: Java HotSpot(TM) 64-Bit Server VM
Default Encoding: UTF-8
Language: en
Country: US
--></g></svg>