<?xml version="1.0" encoding="UTF-8" standalone="no"?><svg xmlns="http://www.w3.org/2000/svg" xmlns:xlink="http://www.w3.org/1999/xlink" contentScriptType="application/ecmascript" contentStyleType="text/css" height="367px" preserveAspectRatio="none" style="width:401px;height:367px;background:#FFFFFF;" version="1.1" viewBox="0 0 401 367" width="401px" zoomAndPan="magnify"><defs><filter height="300%" id="fvk3j7hwpk9e4" width="300%" x="-1" y="-1"><feGaussianBlur result="blurOut" stdDeviation="2.0"/><feColorMatrix in="blurOut" result="blurOut2" type="matrix" values="0 0 0 0 0 0 0 0 0 0 0 0 0 0 0 0 0 0 .4 0"/><feOffset dx="4.0" dy="4.0" in="blurOut2" result="blurOut3"/><feBlend in="SourceGraphic" in2="blurOut3" mode="normal"/></filter></defs><g><rect fill="#FFFFFF" filter="url(#fvk3j7hwpk9e4)" height="166.7969" style="stroke:#A80036;stroke-width:1.0;" width="10" x="47" y="98.2969"/><rect fill="#FFFFFF" filter="url(#fvk3j7hwpk9e4)" height="29.1328" style="stroke:#A80036;stroke-width:1.0;" width="10" x="346" y="119.4297"/><rect fill="#FFFFFF" filter="url(#fvk3j7hwpk9e4)" height="29.1328" style="stroke:#A80036;stroke-width:1.0;" width="10" x="346" y="177.6953"/><rect fill="#FFFFFF" filter="url(#fvk3j7hwpk9e4)" height="29.1328" style="stroke:#A80036;stroke-width:1.0;" width="10" x="346" y="235.9609"/><line style="stroke:#A80036;stroke-width:1.0;stroke-dasharray:5.0,5.0;" x1="52" x2="52" y1="88.2969" y2="283.0938"/><line style="stroke:#A80036;stroke-width:1.0;stroke-dasharray:5.0,5.0;" x1="350.5" x2="350.5" y1="88.2969" y2="283.0938"/><text fill="#000000" font-family="sans-serif" font-size="14" lengthAdjust="spacing" textLength="88" x="5" y="84.9951">Colaborador</text><ellipse cx="52" cy="15" fill="#FEFECE" filter="url(#fvk3j7hwpk9e4)" rx="8" ry="8" style="stroke:#A80036;stroke-width:2.0;"/><path d="M52,23 L52,50 M39,31 L65,31 M52,50 L39,65 M52,50 L65,65 " fill="none" filter="url(#fvk3j7hwpk9e4)" style="stroke:#A80036;stroke-width:2.0;"/><text fill="#000000" font-family="sans-serif" font-size="14" lengthAdjust="spacing" textLength="88" x="5" y="295.0889">Colaborador</text><ellipse cx="52" cy="308.3906" fill="#FEFECE" filter="url(#fvk3j7hwpk9e4)" rx="8" ry="8" style="stroke:#A80036;stroke-width:2.0;"/><path d="M52,316.3906 L52,343.3906 M39,324.3906 L65,324.3906 M52,343.3906 L39,358.3906 M52,343.3906 L65,358.3906 " fill="none" filter="url(#fvk3j7hwpk9e4)" style="stroke:#A80036;stroke-width:2.0;"/><rect fill="#FEFECE" filter="url(#fvk3j7hwpk9e4)" height="30.2969" style="stroke:#A80036;stroke-width:1.5;" width="77" x="310.5" y="53"/><text fill="#000000" font-family="sans-serif" font-size="14" lengthAdjust="spacing" textLength="63" x="317.5" y="72.9951">:Sistema</text><rect fill="#FEFECE" filter="url(#fvk3j7hwpk9e4)" height="30.2969" style="stroke:#A80036;stroke-width:1.5;" width="77" x="310.5" y="282.0938"/><text fill="#000000" font-family="sans-serif" font-size="14" lengthAdjust="spacing" textLength="63" x="317.5" y="302.0889">:Sistema</text><rect fill="#FFFFFF" filter="url(#fvk3j7hwpk9e4)" height="166.7969" style="stroke:#A80036;stroke-width:1.0;" width="10" x="47" y="98.2969"/><rect fill="#FFFFFF" filter="url(#fvk3j7hwpk9e4)" height="29.1328" style="stroke:#A80036;stroke-width:1.0;" width="10" x="346" y="119.4297"/><rect fill="#FFFFFF" filter="url(#fvk3j7hwpk9e4)" height="29.1328" style="stroke:#A80036;stroke-width:1.0;" width="10" x="346" y="177.6953"/><rect fill="#FFFFFF" filter="url(#fvk3j7hwpk9e4)" height="29.1328" style="stroke:#A80036;stroke-width:1.0;" width="10" x="346" y="235.9609"/><polygon fill="#A80036" points="334,115.4297,344,119.4297,334,123.4297,338,119.4297" style="stroke:#A80036;stroke-width:1.0;"/><line style="stroke:#A80036;stroke-width:1.0;" x1="57" x2="340" y1="119.4297" y2="119.4297"/><text fill="#000000" font-family="sans-serif" font-size="13" font-weight="bold" lengthAdjust="spacing" textLength="9" x="64" y="114.3638">1</text><text fill="#000000" font-family="sans-serif" font-size="13" lengthAdjust="spacing" textLength="216" x="77" y="114.3638">Pretende realizar a tarefa manual</text><polygon fill="#A80036" points="68,144.5625,58,148.5625,68,152.5625,64,148.5625" style="stroke:#A80036;stroke-width:1.0;"/><line style="stroke:#A80036;stroke-width:1.0;stroke-dasharray:2.0,2.0;" x1="62" x2="350" y1="148.5625" y2="148.5625"/><text fill="#000000" font-family="sans-serif" font-size="13" font-weight="bold" lengthAdjust="spacing" textLength="9" x="74" y="143.4966">2</text><text fill="#000000" font-family="sans-serif" font-size="13" lengthAdjust="spacing" textLength="186" x="87" y="143.4966">solicita os dados necessários</text><polygon fill="#A80036" points="334,173.6953,344,177.6953,334,181.6953,338,177.6953" style="stroke:#A80036;stroke-width:1.0;"/><line style="stroke:#A80036;stroke-width:1.0;" x1="57" x2="340" y1="177.6953" y2="177.6953"/><text fill="#000000" font-family="sans-serif" font-size="13" font-weight="bold" lengthAdjust="spacing" textLength="8" x="64" y="172.6294">3</text><text fill="#000000" font-family="sans-serif" font-size="13" lengthAdjust="spacing" textLength="185" x="76" y="172.6294">introduz os dados solicitados</text><polygon fill="#A80036" points="68,202.8281,58,206.8281,68,210.8281,64,206.8281" style="stroke:#A80036;stroke-width:1.0;"/><line style="stroke:#A80036;stroke-width:1.0;stroke-dasharray:2.0,2.0;" x1="62" x2="350" y1="206.8281" y2="206.8281"/><text fill="#000000" font-family="sans-serif" font-size="13" font-weight="bold" lengthAdjust="spacing" textLength="9" x="74" y="201.7622">4</text><text fill="#000000" font-family="sans-serif" font-size="13" lengthAdjust="spacing" textLength="252" x="87" y="201.7622">apresenta dados e solicita confirmação</text><polygon fill="#A80036" points="334,231.9609,344,235.9609,334,239.9609,338,235.9609" style="stroke:#A80036;stroke-width:1.0;"/><line style="stroke:#A80036;stroke-width:1.0;" x1="57" x2="340" y1="235.9609" y2="235.9609"/><text fill="#000000" font-family="sans-serif" font-size="13" font-weight="bold" lengthAdjust="spacing" textLength="9" x="64" y="230.895">5</text><text fill="#000000" font-family="sans-serif" font-size="13" lengthAdjust="spacing" textLength="57" x="77" y="230.895">confirma</text><polygon fill="#A80036" points="63,261.0938,53,265.0938,63,269.0938,59,265.0938" style="stroke:#A80036;stroke-width:1.0;"/><line style="stroke:#A80036;stroke-width:1.0;stroke-dasharray:2.0,2.0;" x1="57" x2="350" y1="265.0938" y2="265.0938"/><text fill="#000000" font-family="sans-serif" font-size="13" font-weight="bold" lengthAdjust="spacing" textLength="9" x="69" y="260.0278">6</text><text fill="#000000" font-family="sans-serif" font-size="13" lengthAdjust="spacing" textLength="154" x="82" y="260.0278">operação bem sucedida</text><!--MD5=[6d387b38e79fb806af155bb5909a2580]
@startuml
autonumber
actor "Colaborador" as COL

activate COL
COL -> ":Sistema" : Pretende realizar a tarefa manual
activate ":Sistema"
":Sistema" - -> COL : solicita os dados necessários
deactivate ":Sistema"


COL -> ":Sistema" : introduz os dados solicitados
activate ":Sistema"
":Sistema" - -> COL : apresenta dados e solicita confirmação
deactivate ":Sistema"

COL -> ":Sistema" : confirma
activate ":Sistema"
":Sistema" - -> COL : operação bem sucedida
deactivate ":Sistema"

deactivate COL
@enduml

PlantUML version 1.2021.6beta6(Unknown compile time)
(GPL source distribution)
Java Runtime: Java(TM) SE Runtime Environment
JVM: Java HotSpot(TM) 64-Bit Server VM
Default Encoding: UTF-8
Language: en
Country: US
--></g></svg>