<?xml version="1.0" encoding="UTF-8" standalone="no"?><svg xmlns="http://www.w3.org/2000/svg" xmlns:xlink="http://www.w3.org/1999/xlink" contentScriptType="application/ecmascript" contentStyleType="text/css" height="211px" preserveAspectRatio="none" style="width:1920px;height:211px;background:#FFFFFF;" version="1.1" viewBox="0 0 1920 211" width="1920px" zoomAndPan="magnify"><defs/><g><!--MD5=[d79dfe199915b84e98cc8575d27d5f74]
class LerFicheiroColaboradorUI--><polygon fill="#F8F8F8" points="30.5,7,30.5,7.2102,40.2895,6.5857,50.0789,7.1933,59.8684,7.3997,69.6579,6.2866,79.4474,6.9223,89.2368,6.5735,99.0263,6.6165,108.8158,6.9318,118.6053,6.3086,128.3947,7.5536,138.1842,6.3697,147.9737,6.8022,157.7632,7.4319,167.5526,6.9142,177.3421,7.0682,187.1316,6.9681,196.9211,7.1785,206.7105,7.2391,216.5,7,217.0857,7,217.1711,17.7875,217.1793,28.575,216.7546,39.3625,216.9636,50.15,216.5,60.9375,216.5,61.6397,206.7105,60.2163,196.9211,61.616,187.1316,60.641,177.3421,61.4713,167.5526,60.4425,157.7632,60.869,147.9737,61.6791,138.1842,60.8888,128.3947,61.0428,118.6053,61.2761,108.8158,61.3537,99.0263,60.9336,89.2368,61.2247,79.4474,60.3651,69.6579,61.2219,59.8684,61.4857,50.0789,61.382,40.2895,61.5505,30.5,60.9375,30.0169,60.9375,29.8478,50.15,29.8786,39.3625,30.4411,28.575,30.3035,17.7875,30.5,7" style="stroke:#383838;stroke-width:1.5;"/><polygon fill="#C2C2C2" points="56.5608,28.6444,54.9484,30.8475,53.0412,34.0745,50.3136,36.2491,47.4474,37.4384,45.162,37.5416,42.2247,36.0543,39.4532,35.0827,37.3495,33.1099,36.2461,30.8515,35.5917,29.0533,34.9506,26.7045,33.91,24.6832,34.7096,22.7098,35.4102,20.548,38.0393,18.8382,39.889,16.6198,42.1784,15.8832,44.9001,15.2488,48.3904,15.6257,50.3021,16.5273,52.5247,16.9359,55.2272,19.7047,56.1693,22.6277,56.5786,24.6221,56.115,27.9086" style="stroke:#383838;stroke-width:1.0;"/><path d="M47.8438,21.6406 C46.9063,21.2031 46.3125,21.0625 45.4375,21.0625 C42.8125,21.0625 40.8125,23.1406 40.8125,25.8594 L40.8125,26.9844 C40.8125,29.5625 42.9219,31.4531 45.8125,31.4531 C47.0313,31.4531 48.1875,31.1563 48.9375,30.6094 C49.5156,30.2031 49.8438,29.75 49.8438,29.3594 C49.8438,28.9063 49.4531,28.5156 48.9844,28.5156 C48.7656,28.5156 48.5625,28.5938 48.375,28.7813 C47.9219,29.2656 47.9219,29.2656 47.7344,29.3594 C47.3125,29.625 46.625,29.75 45.8594,29.75 C43.8125,29.75 42.5156,28.6563 42.5156,26.9531 L42.5156,25.8594 C42.5156,24.0781 43.7656,22.7656 45.5,22.7656 C46.0781,22.7656 46.6875,22.9219 47.1563,23.1719 C47.6406,23.4531 47.8125,23.6719 47.9063,24.0781 C47.9688,24.4844 48,24.6094 48.1406,24.7344 C48.2813,24.875 48.5156,24.9844 48.7344,24.9844 C49,24.9844 49.2656,24.8438 49.4375,24.625 C49.5469,24.4688 49.5781,24.2813 49.5781,23.8594 L49.5781,22.4375 C49.5781,22 49.5625,21.875 49.4688,21.7188 C49.3125,21.4531 49.0313,21.3125 48.7344,21.3125 C48.4375,21.3125 48.2344,21.4063 48.0156,21.7188 L47.8438,21.6406 Z " fill="#000000"/><text fill="#000000" font-family="FG Virgil" font-size="12" font-style="italic" lengthAdjust="spacing" textLength="90" x="91.5" y="23.1387">«presentation»</text><text fill="#000000" font-family="FG Virgil" font-size="12" lengthAdjust="spacing" textLength="154" x="59.5" y="37.1074">LerFicheiroColaboradorUI</text><path d="M31.5,44.9375 L31.5,45.2177 L41.7222,44.3851 L51.9444,45.1952 L62.1667,45.4704 L72.3889,43.9863 L82.6111,44.8339 L92.8333,44.3688 L103.0556,44.4262 L113.2778,44.8466 L123.5,44.0157 L133.7222,45.6757 L143.9444,44.0971 L154.1667,44.6738 L164.3889,45.5134 L174.6111,44.8231 L184.8333,45.0285 L195.0556,44.8949 L205.2778,45.1755 L215.5,44.9375 " fill="#F8F8F8" style="stroke:#383838;stroke-width:1.5;"/><path d="M31.5,52.9375 L31.5,53.2177 L41.7222,52.3851 L51.9444,53.1952 L62.1667,53.4704 L72.3889,51.9863 L82.6111,52.8339 L92.8333,52.3688 L103.0556,52.4262 L113.2778,52.8466 L123.5,52.0157 L133.7222,53.6757 L143.9444,52.0971 L154.1667,52.6738 L164.3889,53.5134 L174.6111,52.8231 L184.8333,53.0285 L195.0556,52.8949 L205.2778,53.1755 L215.5,52.9375 " fill="#F8F8F8" style="stroke:#383838;stroke-width:1.5;"/><!--MD5=[52985be81d04422f77e6b48a5000a681]
class LerFicheiroColaboradorController--><polygon fill="#F8F8F8" points="7,138,7,138.2102,17.1304,137.5857,27.2609,138.1933,37.3913,138.3997,47.5217,137.2866,57.6522,137.9223,67.7826,137.5735,77.913,137.6165,88.0435,137.9318,98.1739,137.3086,108.3043,138.5536,118.4348,137.3697,128.5652,137.8022,138.6957,138.4319,148.8261,137.9142,158.9565,138.0682,169.087,137.9681,179.2174,138.1785,189.3478,138.2391,199.4783,138.5857,209.6087,138.6711,219.7391,138.6793,229.8696,138.2546,240,138,240.4636,138,240.7022,147.5346,239.2788,157.0692,240.6785,166.6038,239.7035,176.1384,240.5338,185.673,239.505,195.2076,240,204.7422,240,204.6737,229.8696,205.4838,219.7391,204.6935,209.6087,204.8475,199.4783,205.0808,189.3478,205.1584,179.2174,204.7383,169.087,205.0294,158.9565,204.1698,148.8261,205.0266,138.6957,205.2904,128.5652,205.1867,118.4348,205.3552,108.3043,204.2591,98.1739,204.09,88.0435,204.1208,77.913,204.6833,67.7826,204.5457,57.6522,205.4236,47.5217,204.5675,37.3913,204.3991,27.2609,204.9705,17.1304,204.0753,7,204.7422,6.4809,204.7422,7.649,195.2076,7.4357,185.673,7.7345,176.1384,6.6782,166.6038,7.3192,157.0692,7.5904,147.5346,7,138" style="stroke:#383838;stroke-width:1.5;"/><polygon fill="#C2C2C2" points="33.0608,159.6444,31.4484,161.8475,29.5412,165.0745,26.8136,167.2491,23.9474,168.4384,21.662,168.5416,18.7247,167.0543,15.9532,166.0827,13.8495,164.1099,12.7461,161.8515,12.0917,160.0533,11.4506,157.7045,10.41,155.6832,11.2096,153.7098,11.9102,151.548,14.5393,149.8382,16.389,147.6198,18.6784,146.8832,21.4001,146.2488,24.8904,146.6257,26.8021,147.5273,29.0247,147.9359,31.7272,150.7047,32.6693,153.6277,33.0786,155.6221,32.615,158.9086" style="stroke:#383838;stroke-width:1.0;"/><path d="M24.3438,152.6406 C23.4063,152.2031 22.8125,152.0625 21.9375,152.0625 C19.3125,152.0625 17.3125,154.1406 17.3125,156.8594 L17.3125,157.9844 C17.3125,160.5625 19.4219,162.4531 22.3125,162.4531 C23.5313,162.4531 24.6875,162.1563 25.4375,161.6094 C26.0156,161.2031 26.3438,160.75 26.3438,160.3594 C26.3438,159.9063 25.9531,159.5156 25.4844,159.5156 C25.2656,159.5156 25.0625,159.5938 24.875,159.7813 C24.4219,160.2656 24.4219,160.2656 24.2344,160.3594 C23.8125,160.625 23.125,160.75 22.3594,160.75 C20.3125,160.75 19.0156,159.6563 19.0156,157.9531 L19.0156,156.8594 C19.0156,155.0781 20.2656,153.7656 22,153.7656 C22.5781,153.7656 23.1875,153.9219 23.6563,154.1719 C24.1406,154.4531 24.3125,154.6719 24.4063,155.0781 C24.4688,155.4844 24.5,155.6094 24.6406,155.7344 C24.7813,155.875 25.0156,155.9844 25.2344,155.9844 C25.5,155.9844 25.7656,155.8438 25.9375,155.625 C26.0469,155.4688 26.0781,155.2813 26.0781,154.8594 L26.0781,153.4375 C26.0781,153 26.0625,152.875 25.9688,152.7188 C25.8125,152.4531 25.5313,152.3125 25.2344,152.3125 C24.9375,152.3125 24.7344,152.4063 24.5156,152.7188 L24.3438,152.6406 Z " fill="#000000"/><text fill="#000000" font-family="FG Virgil" font-size="12" font-style="italic" lengthAdjust="spacing" textLength="80" x="96.5" y="154.1387">«application»</text><text fill="#000000" font-family="FG Virgil" font-size="12" lengthAdjust="spacing" textLength="201" x="36" y="168.1074">LerFicheiroColaboradorController</text><path d="M8,175.9375 L8,176.2177 L18.0435,175.3851 L28.087,176.1952 L38.1304,176.4704 L48.1739,174.9863 L58.2174,175.8339 L68.2609,175.3688 L78.3043,175.4262 L88.3478,175.8466 L98.3913,175.0157 L108.4348,176.6757 L118.4783,175.0971 L128.5217,175.6738 L138.5652,176.5134 L148.6087,175.8231 L158.6522,176.0285 L168.6957,175.8949 L178.7391,176.1755 L188.7826,176.2563 L198.8261,176.7184 L208.8696,176.8322 L218.913,176.8432 L228.9565,176.277 L239,175.9375 " fill="#F8F8F8" style="stroke:#383838;stroke-width:1.5;"/><path d="M8,183.9375 L8,184.2177 L18.0435,183.3851 L28.087,184.1952 L38.1304,184.4704 L48.1739,182.9863 L58.2174,183.8339 L68.2609,183.3688 L78.3043,183.4262 L88.3478,183.8466 L98.3913,183.0157 L108.4348,184.6757 L118.4783,183.0971 L128.5217,183.6738 L138.5652,184.5134 L148.6087,183.8231 L158.6522,184.0285 L168.6957,183.8949 L178.7391,184.1755 L188.7826,184.2563 L198.8261,184.7184 L208.8696,184.8322 L218.913,184.8432 L228.9565,184.277 L239,183.9375 " fill="#F8F8F8" style="stroke:#383838;stroke-width:1.5;"/><text fill="#000000" font-family="FG Virgil" font-size="11" lengthAdjust="spacing" textLength="59" x="13" y="198.1479">lerDados()</text><!--MD5=[6a437b1acd26c5a2a00b38fcf07a2f73]
class LerFicheiroColaborador--><polygon fill="#F8F8F8" points="1739.5,138,1739.5,138.2102,1749.7353,137.5857,1759.9706,138.1933,1770.2059,138.3997,1780.4412,137.2866,1790.6765,137.9223,1800.9118,137.5735,1811.1471,137.6165,1821.3824,137.9318,1831.6176,137.3086,1841.8529,138.5536,1852.0882,137.3697,1862.3235,137.8022,1872.5588,138.4319,1882.7941,137.9142,1893.0294,138.0682,1903.2647,137.9681,1913.5,138,1913.6785,138,1913.7391,147.5346,1914.0857,157.0692,1914.1711,166.6038,1914.1793,176.1384,1913.7546,185.673,1913.9636,195.2076,1913.5,204.7422,1913.5,205.4444,1903.2647,204.021,1893.0294,205.4207,1882.7941,204.4457,1872.5588,205.276,1862.3235,204.2472,1852.0882,204.6737,1841.8529,205.4838,1831.6176,204.6935,1821.3824,204.8475,1811.1471,205.0808,1800.9118,205.1584,1790.6765,204.7383,1780.4412,205.0294,1770.2059,204.1698,1759.9706,205.0266,1749.7353,205.2904,1739.5,204.7422,1739.9445,204.7422,1740.113,195.2076,1739.0169,185.673,1738.8478,176.1384,1738.8786,166.6038,1739.4411,157.0692,1739.3035,147.5346,1739.5,138" style="stroke:#383838;stroke-width:1.5;"/><polygon fill="#C2C2C2" points="1765.5608,159.6444,1763.9484,161.8475,1762.0412,165.0745,1759.3136,167.2491,1756.4474,168.4384,1754.162,168.5416,1751.2247,167.0543,1748.4532,166.0827,1746.3495,164.1099,1745.2461,161.8515,1744.5917,160.0533,1743.9506,157.7045,1742.91,155.6832,1743.7096,153.7098,1744.4102,151.548,1747.0393,149.8382,1748.889,147.6198,1751.1784,146.8832,1753.9001,146.2488,1757.3904,146.6257,1759.3021,147.5273,1761.5247,147.9359,1764.2272,150.7047,1765.1693,153.6277,1765.5786,155.6221,1765.115,158.9086" style="stroke:#383838;stroke-width:1.0;"/><path d="M1756.8438,152.6406 C1755.9063,152.2031 1755.3125,152.0625 1754.4375,152.0625 C1751.8125,152.0625 1749.8125,154.1406 1749.8125,156.8594 L1749.8125,157.9844 C1749.8125,160.5625 1751.9219,162.4531 1754.8125,162.4531 C1756.0313,162.4531 1757.1875,162.1563 1757.9375,161.6094 C1758.5156,161.2031 1758.8438,160.75 1758.8438,160.3594 C1758.8438,159.9063 1758.4531,159.5156 1757.9844,159.5156 C1757.7656,159.5156 1757.5625,159.5938 1757.375,159.7813 C1756.9219,160.2656 1756.9219,160.2656 1756.7344,160.3594 C1756.3125,160.625 1755.625,160.75 1754.8594,160.75 C1752.8125,160.75 1751.5156,159.6563 1751.5156,157.9531 L1751.5156,156.8594 C1751.5156,155.0781 1752.7656,153.7656 1754.5,153.7656 C1755.0781,153.7656 1755.6875,153.9219 1756.1563,154.1719 C1756.6406,154.4531 1756.8125,154.6719 1756.9063,155.0781 C1756.9688,155.4844 1757,155.6094 1757.1406,155.7344 C1757.2813,155.875 1757.5156,155.9844 1757.7344,155.9844 C1758,155.9844 1758.2656,155.8438 1758.4375,155.625 C1758.5469,155.4688 1758.5781,155.2813 1758.5781,154.8594 L1758.5781,153.4375 C1758.5781,153 1758.5625,152.875 1758.4688,152.7188 C1758.3125,152.4531 1758.0313,152.3125 1757.7344,152.3125 C1757.4375,152.3125 1757.2344,152.4063 1757.0156,152.7188 L1756.8438,152.6406 Z " fill="#000000"/><text fill="#000000" font-family="FG Virgil" font-size="12" font-style="italic" lengthAdjust="spacing" textLength="59" x="1810" y="154.1387">«domain»</text><text fill="#000000" font-family="FG Virgil" font-size="12" lengthAdjust="spacing" textLength="142" x="1768.5" y="168.1074">LerFicheiroColaborador</text><path d="M1740.5,175.9375 L1740.5,176.2177 L1750.6176,175.3851 L1760.7353,176.1952 L1770.8529,176.4704 L1780.9706,174.9863 L1791.0882,175.8339 L1801.2059,175.3688 L1811.3235,175.4262 L1821.4412,175.8466 L1831.5588,175.0157 L1841.6765,176.6757 L1851.7941,175.0971 L1861.9118,175.6738 L1872.0294,176.5134 L1882.1471,175.8231 L1892.2647,176.0285 L1902.3824,175.8949 L1912.5,175.9375 " fill="#F8F8F8" style="stroke:#383838;stroke-width:1.5;"/><path d="M1740.5,183.9375 L1740.5,184.2177 L1750.6176,183.3851 L1760.7353,184.1952 L1770.8529,184.4704 L1780.9706,182.9863 L1791.0882,183.8339 L1801.2059,183.3688 L1811.3235,183.4262 L1821.4412,183.8466 L1831.5588,183.0157 L1841.6765,184.6757 L1851.7941,183.0971 L1861.9118,183.6738 L1872.0294,184.5134 L1882.1471,183.8231 L1892.2647,184.0285 L1902.3824,183.8949 L1912.5,183.9375 " fill="#F8F8F8" style="stroke:#383838;stroke-width:1.5;"/><text fill="#000000" font-family="FG Virgil" font-size="11" lengthAdjust="spacing" textLength="59" x="1745.5" y="198.1479">lerDados()</text><!--MD5=[ac8682ea5466d223e49472789fb200d2]
class Colaborador--><polygon fill="#F8F8F8" points="413,138,413,138.2102,422.9265,137.5857,432.8529,138.1933,442.7794,138.3997,452.7059,137.2866,462.6324,137.9223,472.5588,137.5735,482.4853,137.6165,492.4118,137.9318,502.3382,137.3086,512.2647,138.5536,522.1912,137.3697,532.1176,137.8022,542.0441,138.4319,551.9706,137.9142,561.8971,138.0682,571.8235,137.9681,581.75,138.1785,591.6765,138.2391,601.6029,138.5857,611.5294,138.6711,621.4559,138.6793,631.3824,138.2546,641.3088,138.4636,651.2353,138.7022,661.1618,137.2788,671.0882,138.6785,681.0147,137.7035,690.9412,138.5338,700.8676,137.505,710.7941,137.9315,720.7206,138.7416,730.6471,137.9513,740.5735,138.1053,750.5,138.3386,760.4265,138.4162,770.3529,137.9961,780.2794,138.2872,790.2059,137.4276,800.1324,138.2844,810.0588,138.5482,819.9853,138.4445,829.9118,138.613,839.8382,137.5169,849.7647,137.3478,859.6912,137.3786,869.6176,137.9411,879.5441,137.8035,889.4706,138.6814,899.3971,137.8253,909.3235,137.6569,919.25,138.2283,929.1765,137.3332,939.1029,137.4809,949.0294,138.649,958.9559,138.4357,968.8824,138.7345,978.8088,137.6782,988.7353,138.3192,998.6618,138.5904,1008.5882,137.5276,1018.5147,137.9041,1028.4412,138.126,1038.3676,138.6518,1048.2941,137.9958,1058.2206,138.4626,1068.1471,137.4462,1078.0735,137.3227,1088,138,1088.5036,138,1087.2831,147.5346,1088.509,157.0692,1088.2066,166.6038,1087.7321,176.1384,1087.6462,185.673,1088.4588,195.2076,1088,204.7422,1088,204.4429,1078.0735,205.334,1068.1471,204.1894,1058.2206,205.3596,1048.2941,205.2265,1038.3676,204.9872,1028.4412,204.7894,1018.5147,205.4688,1008.5882,205.3558,998.6618,204.9114,988.7353,205.0104,978.8088,204.6119,968.8824,205.4586,958.9559,204.8971,949.0294,204.9148,939.1029,204.1338,929.1765,204.337,919.25,205.2729,909.3235,205.1719,899.3971,204.6993,889.4706,204.42,879.5441,204.5233,869.6176,204.056,859.6912,205.1569,849.7647,205.4818,839.8382,205.2686,829.9118,205.4371,819.9853,204.6055,810.0588,204.8294,800.1324,204.3546,790.2059,205.0262,780.2794,204.989,770.3529,205.2946,760.4265,204.5125,750.5,204.6078,740.5735,205.1856,730.6471,205.3095,720.7206,204.2297,710.7941,204.5483,700.8676,204.8915,690.9412,204.1313,681.0147,205.0956,671.0882,205.0002,661.1618,204.6414,651.2353,204.8844,641.3088,205.4709,631.3824,204.4293,621.4559,205.0572,611.5294,205.0278,601.6029,204.858,591.6765,204.8831,581.75,204.8557,571.8235,204.118,561.8971,204.3414,551.9706,204.2807,542.0441,204.806,532.1176,204.8303,522.1912,204.9039,512.2647,204.4512,502.3382,204.6747,492.4118,204.622,482.4853,205.319,472.5588,205.1688,462.6324,204.2567,452.7059,204.6693,442.7794,204.165,432.8529,205.0306,422.9265,205.3507,413,204.7422,413.5446,204.7422,412.5644,195.2076,413.464,185.673,412.2572,176.1384,413.2002,166.6038,412.7007,157.0692,413.0967,147.5346,413,138" style="stroke:#383838;stroke-width:1.5;"/><polygon fill="#C2C2C2" points="719.8108,159.6444,718.1984,161.8475,716.2912,165.0745,713.5636,167.2491,710.6974,168.4384,708.412,168.5416,705.4747,167.0543,702.7032,166.0827,700.5995,164.1099,699.4961,161.8515,698.8417,160.0533,698.2006,157.7045,697.16,155.6832,697.9596,153.7098,698.6602,151.548,701.2893,149.8382,703.139,147.6198,705.4284,146.8832,708.1501,146.2488,711.6404,146.6257,713.5521,147.5273,715.7747,147.9359,718.4772,150.7047,719.4193,153.6277,719.8286,155.6221,719.365,158.9086" style="stroke:#383838;stroke-width:1.0;"/><path d="M711.0938,152.6406 C710.1563,152.2031 709.5625,152.0625 708.6875,152.0625 C706.0625,152.0625 704.0625,154.1406 704.0625,156.8594 L704.0625,157.9844 C704.0625,160.5625 706.1719,162.4531 709.0625,162.4531 C710.2813,162.4531 711.4375,162.1563 712.1875,161.6094 C712.7656,161.2031 713.0938,160.75 713.0938,160.3594 C713.0938,159.9063 712.7031,159.5156 712.2344,159.5156 C712.0156,159.5156 711.8125,159.5938 711.625,159.7813 C711.1719,160.2656 711.1719,160.2656 710.9844,160.3594 C710.5625,160.625 709.875,160.75 709.1094,160.75 C707.0625,160.75 705.7656,159.6563 705.7656,157.9531 L705.7656,156.8594 C705.7656,155.0781 707.0156,153.7656 708.75,153.7656 C709.3281,153.7656 709.9375,153.9219 710.4063,154.1719 C710.8906,154.4531 711.0625,154.6719 711.1563,155.0781 C711.2188,155.4844 711.25,155.6094 711.3906,155.7344 C711.5313,155.875 711.7656,155.9844 711.9844,155.9844 C712.25,155.9844 712.5156,155.8438 712.6875,155.625 C712.7969,155.4688 712.8281,155.2813 712.8281,154.8594 L712.8281,153.4375 C712.8281,153 712.8125,152.875 712.7188,152.7188 C712.5625,152.4531 712.2813,152.3125 711.9844,152.3125 C711.6875,152.3125 711.4844,152.4063 711.2656,152.7188 L711.0938,152.6406 Z " fill="#000000"/><text fill="#000000" font-family="FG Virgil" font-size="12" font-style="italic" lengthAdjust="spacing" textLength="59" x="737.25" y="154.1387">«domain»</text><text fill="#000000" font-family="FG Virgil" font-size="12" lengthAdjust="spacing" textLength="75" x="729.25" y="168.1074">Colaborador</text><path d="M414,175.9375 L414,176.2177 L424.0448,175.3851 L434.0896,176.1952 L444.1343,176.4704 L454.1791,174.9863 L464.2239,175.8339 L474.2687,175.3688 L484.3134,175.4262 L494.3582,175.8466 L504.403,175.0157 L514.4478,176.6757 L524.4925,175.0971 L534.5373,175.6738 L544.5821,176.5134 L554.6269,175.8231 L564.6716,176.0285 L574.7164,175.8949 L584.7612,176.1755 L594.806,176.2563 L604.8507,176.7184 L614.8955,176.8322 L624.9403,176.8432 L634.9851,176.277 L645.0299,176.5556 L655.0746,176.8738 L665.1194,174.9759 L675.1642,176.8422 L685.209,175.5422 L695.2537,176.6492 L705.2985,175.2775 L715.3433,175.8462 L725.3881,176.9263 L735.4328,175.8725 L745.4776,176.0779 L755.5224,176.389 L765.5672,176.4925 L775.6119,175.9323 L785.6567,176.3205 L795.7015,175.1743 L805.7463,176.3167 L815.791,176.6684 L825.8358,176.5302 L835.8806,176.7549 L845.9254,175.2934 L855.9701,175.0679 L866.0149,175.109 L876.0597,175.859 L886.1045,175.6755 L896.1493,176.846 L906.194,175.7046 L916.2388,175.4801 L926.2836,176.2419 L936.3284,175.0484 L946.3731,175.2453 L956.4179,176.8028 L966.4627,176.5184 L976.5075,176.9168 L986.5522,175.5084 L996.597,176.3631 L1006.6418,176.7247 L1016.6866,175.3076 L1026.7313,175.8097 L1036.7761,176.1055 L1046.8209,176.8065 L1056.8657,175.9319 L1066.9104,176.5543 L1076.9552,175.1991 L1087,175.9375 " fill="#F8F8F8" style="stroke:#383838;stroke-width:1.5;"/><path d="M414,183.9375 L414,184.2177 L424.0448,183.3851 L434.0896,184.1952 L444.1343,184.4704 L454.1791,182.9863 L464.2239,183.8339 L474.2687,183.3688 L484.3134,183.4262 L494.3582,183.8466 L504.403,183.0157 L514.4478,184.6757 L524.4925,183.0971 L534.5373,183.6738 L544.5821,184.5134 L554.6269,183.8231 L564.6716,184.0285 L574.7164,183.8949 L584.7612,184.1755 L594.806,184.2563 L604.8507,184.7184 L614.8955,184.8322 L624.9403,184.8432 L634.9851,184.277 L645.0299,184.5556 L655.0746,184.8738 L665.1194,182.9759 L675.1642,184.8422 L685.209,183.5422 L695.2537,184.6492 L705.2985,183.2775 L715.3433,183.8462 L725.3881,184.9263 L735.4328,183.8725 L745.4776,184.0779 L755.5224,184.389 L765.5672,184.4925 L775.6119,183.9323 L785.6567,184.3205 L795.7015,183.1743 L805.7463,184.3167 L815.791,184.6684 L825.8358,184.5302 L835.8806,184.7549 L845.9254,183.2934 L855.9701,183.0679 L866.0149,183.109 L876.0597,183.859 L886.1045,183.6755 L896.1493,184.846 L906.194,183.7046 L916.2388,183.4801 L926.2836,184.2419 L936.3284,183.0484 L946.3731,183.2453 L956.4179,184.8028 L966.4627,184.5184 L976.5075,184.9168 L986.5522,183.5084 L996.597,184.3631 L1006.6418,184.7247 L1016.6866,183.3076 L1026.7313,183.8097 L1036.7761,184.1055 L1046.8209,184.8065 L1056.8657,183.9319 L1066.9104,184.5543 L1076.9552,183.1991 L1087,183.9375 " fill="#F8F8F8" style="stroke:#383838;stroke-width:1.5;"/><text fill="#000000" font-family="FG Virgil" font-size="11" lengthAdjust="spacing" textLength="663" x="419" y="198.1479">new Colaborador(numMecanografico,nomeCurto,nomeCompleto,dataNascimento,localResidencia,endereco,contacto)</text><!--MD5=[29f97d496cbdc4ec81664c6d94dc9bf6]
class UserController--><polygon fill="#F8F8F8" points="1330.5,138,1330.5,138.2102,1340.6081,137.5857,1350.7162,138.1933,1360.8243,138.3997,1370.9324,137.2866,1381.0405,137.9223,1391.1486,137.5735,1401.2568,137.6165,1411.3649,137.9318,1421.473,137.3086,1431.5811,138.5536,1441.6892,137.3697,1451.7973,137.8022,1461.9054,138.4319,1472.0135,137.9142,1482.1216,138.0682,1492.2297,137.9681,1502.3378,138.1785,1512.4459,138.2391,1522.5541,138.5857,1532.6622,138.6711,1542.7703,138.6793,1552.8784,138.2546,1562.9865,138.4636,1573.0946,138.7022,1583.2027,137.2788,1593.3108,138.6785,1603.4189,137.7035,1613.527,138.5338,1623.6351,137.505,1633.7432,137.9315,1643.8514,138.7416,1653.9595,137.9513,1664.0676,138.1053,1674.1757,138.3386,1684.2838,138.4162,1694.3919,137.9961,1704.5,138,1704.7872,138,1703.9276,147.5346,1704.7844,157.0692,1705.0482,166.6038,1704.9445,176.1384,1705.113,185.673,1704.0169,195.2076,1704.5,204.7422,1704.5,204.09,1694.3919,204.1208,1684.2838,204.6833,1674.1757,204.5457,1664.0676,205.4236,1653.9595,204.5675,1643.8514,204.3991,1633.7432,204.9705,1623.6351,204.0753,1613.527,204.2231,1603.4189,205.3911,1593.3108,205.1779,1583.2027,205.4767,1573.0946,204.4204,1562.9865,205.0614,1552.8784,205.3326,1542.7703,204.2698,1532.6622,204.6463,1522.5541,204.8682,1512.4459,205.3939,1502.3378,204.738,1492.2297,205.2048,1482.1216,204.1884,1472.0135,204.0649,1461.9054,205.2458,1451.7973,204.0252,1441.6892,205.2511,1431.5811,204.9488,1421.473,204.4743,1411.3649,204.3884,1401.2568,205.2009,1391.1486,204.4429,1381.0405,205.334,1370.9324,204.1894,1360.8243,205.3596,1350.7162,205.2265,1340.6081,204.9872,1330.5,204.7422,1330.5472,204.7422,1331.2266,195.2076,1331.1136,185.673,1330.6693,176.1384,1330.7682,166.6038,1330.3697,157.0692,1331.2165,147.5346,1330.5,138" style="stroke:#383838;stroke-width:1.5;"/><polygon fill="#C2C2C2" points="1480.3108,159.6444,1478.6984,161.8475,1476.7912,165.0745,1474.0636,167.2491,1471.1974,168.4384,1468.912,168.5416,1465.9747,167.0543,1463.2032,166.0827,1461.0995,164.1099,1459.9961,161.8515,1459.3417,160.0533,1458.7006,157.7045,1457.66,155.6832,1458.4596,153.7098,1459.1602,151.548,1461.7893,149.8382,1463.639,147.6198,1465.9284,146.8832,1468.6501,146.2488,1472.1404,146.6257,1474.0521,147.5273,1476.2747,147.9359,1478.9772,150.7047,1479.9193,153.6277,1480.3286,155.6221,1479.865,158.9086" style="stroke:#383838;stroke-width:1.0;"/><path d="M1471.5938,152.6406 C1470.6563,152.2031 1470.0625,152.0625 1469.1875,152.0625 C1466.5625,152.0625 1464.5625,154.1406 1464.5625,156.8594 L1464.5625,157.9844 C1464.5625,160.5625 1466.6719,162.4531 1469.5625,162.4531 C1470.7813,162.4531 1471.9375,162.1563 1472.6875,161.6094 C1473.2656,161.2031 1473.5938,160.75 1473.5938,160.3594 C1473.5938,159.9063 1473.2031,159.5156 1472.7344,159.5156 C1472.5156,159.5156 1472.3125,159.5938 1472.125,159.7813 C1471.6719,160.2656 1471.6719,160.2656 1471.4844,160.3594 C1471.0625,160.625 1470.375,160.75 1469.6094,160.75 C1467.5625,160.75 1466.2656,159.6563 1466.2656,157.9531 L1466.2656,156.8594 C1466.2656,155.0781 1467.5156,153.7656 1469.25,153.7656 C1469.8281,153.7656 1470.4375,153.9219 1470.9063,154.1719 C1471.3906,154.4531 1471.5625,154.6719 1471.6563,155.0781 C1471.7188,155.4844 1471.75,155.6094 1471.8906,155.7344 C1472.0313,155.875 1472.2656,155.9844 1472.4844,155.9844 C1472.75,155.9844 1473.0156,155.8438 1473.1875,155.625 C1473.2969,155.4688 1473.3281,155.2813 1473.3281,154.8594 L1473.3281,153.4375 C1473.3281,153 1473.3125,152.875 1473.2188,152.7188 C1473.0625,152.4531 1472.7813,152.3125 1472.4844,152.3125 C1472.1875,152.3125 1471.9844,152.4063 1471.7656,152.7188 L1471.5938,152.6406 Z " fill="#000000"/><text fill="#000000" font-family="FG Virgil" font-size="12" font-style="italic" lengthAdjust="spacing" textLength="90" x="1488.75" y="154.1387">«presentation»</text><text fill="#000000" font-family="FG Virgil" font-size="12" lengthAdjust="spacing" textLength="88" x="1489.75" y="168.1074">UserController</text><path d="M1331.5,175.9375 L1331.5,176.2177 L1341.5541,175.3851 L1351.6081,176.1952 L1361.6622,176.4704 L1371.7162,174.9863 L1381.7703,175.8339 L1391.8243,175.3688 L1401.8784,175.4262 L1411.9324,175.8466 L1421.9865,175.0157 L1432.0405,176.6757 L1442.0946,175.0971 L1452.1486,175.6738 L1462.2027,176.5134 L1472.2568,175.8231 L1482.3108,176.0285 L1492.3649,175.8949 L1502.4189,176.1755 L1512.473,176.2563 L1522.527,176.7184 L1532.5811,176.8322 L1542.6351,176.8432 L1552.6892,176.277 L1562.7432,176.5556 L1572.7973,176.8738 L1582.8514,174.9759 L1592.9054,176.8422 L1602.9595,175.5422 L1613.0135,176.6492 L1623.0676,175.2775 L1633.1216,175.8462 L1643.1757,176.9263 L1653.2297,175.8725 L1663.2838,176.0779 L1673.3378,176.389 L1683.3919,176.4925 L1693.4459,175.9323 L1703.5,175.9375 " fill="#F8F8F8" style="stroke:#383838;stroke-width:1.5;"/><path d="M1331.5,183.9375 L1331.5,184.2177 L1341.5541,183.3851 L1351.6081,184.1952 L1361.6622,184.4704 L1371.7162,182.9863 L1381.7703,183.8339 L1391.8243,183.3688 L1401.8784,183.4262 L1411.9324,183.8466 L1421.9865,183.0157 L1432.0405,184.6757 L1442.0946,183.0971 L1452.1486,183.6738 L1462.2027,184.5134 L1472.2568,183.8231 L1482.3108,184.0285 L1492.3649,183.8949 L1502.4189,184.1755 L1512.473,184.2563 L1522.527,184.7184 L1532.5811,184.8322 L1542.6351,184.8432 L1552.6892,184.277 L1562.7432,184.5556 L1572.7973,184.8738 L1582.8514,182.9759 L1592.9054,184.8422 L1602.9595,183.5422 L1613.0135,184.6492 L1623.0676,183.2775 L1633.1216,183.8462 L1643.1757,184.9263 L1653.2297,183.8725 L1663.2838,184.0779 L1673.3378,184.389 L1683.3919,184.4925 L1693.4459,183.9323 L1703.5,183.9375 " fill="#F8F8F8" style="stroke:#383838;stroke-width:1.5;"/><text fill="#000000" font-family="FG Virgil" font-size="11" lengthAdjust="spacing" textLength="362" x="1336.5" y="198.1479">addUser(username,password,firstname,lastName,endereco,set)</text><!--MD5=[9a0e8f7957502662f95e783c1c3d84fe]
class ColaboradorRepository--><polygon fill="#F8F8F8" points="1123.5,138,1123.5,138.2102,1133.6176,137.5857,1143.7353,138.1933,1153.8529,138.3997,1163.9706,137.2866,1174.0882,137.9223,1184.2059,137.5735,1194.3235,137.6165,1204.4412,137.9318,1214.5588,137.3086,1224.6765,138.5536,1234.7941,137.3697,1244.9118,137.8022,1255.0294,138.4319,1265.1471,137.9142,1275.2647,138.0682,1285.3824,137.9681,1295.5,138,1295.6785,138,1295.7391,147.5346,1296.0857,157.0692,1296.1711,166.6038,1296.1793,176.1384,1295.7546,185.673,1295.9636,195.2076,1295.5,204.7422,1295.5,205.4444,1285.3824,204.021,1275.2647,205.4207,1265.1471,204.4457,1255.0294,205.276,1244.9118,204.2472,1234.7941,204.6737,1224.6765,205.4838,1214.5588,204.6935,1204.4412,204.8475,1194.3235,205.0808,1184.2059,205.1584,1174.0882,204.7383,1163.9706,205.0294,1153.8529,204.1698,1143.7353,205.0266,1133.6176,205.2904,1123.5,204.7422,1123.9445,204.7422,1124.113,195.2076,1123.0169,185.673,1122.8478,176.1384,1122.8786,166.6038,1123.4411,157.0692,1123.3035,147.5346,1123.5,138" style="stroke:#383838;stroke-width:1.5;"/><polygon fill="#C2C2C2" points="1149.5608,159.6444,1147.9484,161.8475,1146.0412,165.0745,1143.3136,167.2491,1140.4474,168.4384,1138.162,168.5416,1135.2247,167.0543,1132.4532,166.0827,1130.3495,164.1099,1129.2461,161.8515,1128.5917,160.0533,1127.9506,157.7045,1126.91,155.6832,1127.7096,153.7098,1128.4102,151.548,1131.0393,149.8382,1132.889,147.6198,1135.1784,146.8832,1137.9001,146.2488,1141.3904,146.6257,1143.3021,147.5273,1145.5247,147.9359,1148.2272,150.7047,1149.1693,153.6277,1149.5786,155.6221,1149.115,158.9086" style="stroke:#383838;stroke-width:1.0;"/><path d="M1140.8438,152.6406 C1139.9063,152.2031 1139.3125,152.0625 1138.4375,152.0625 C1135.8125,152.0625 1133.8125,154.1406 1133.8125,156.8594 L1133.8125,157.9844 C1133.8125,160.5625 1135.9219,162.4531 1138.8125,162.4531 C1140.0313,162.4531 1141.1875,162.1563 1141.9375,161.6094 C1142.5156,161.2031 1142.8438,160.75 1142.8438,160.3594 C1142.8438,159.9063 1142.4531,159.5156 1141.9844,159.5156 C1141.7656,159.5156 1141.5625,159.5938 1141.375,159.7813 C1140.9219,160.2656 1140.9219,160.2656 1140.7344,160.3594 C1140.3125,160.625 1139.625,160.75 1138.8594,160.75 C1136.8125,160.75 1135.5156,159.6563 1135.5156,157.9531 L1135.5156,156.8594 C1135.5156,155.0781 1136.7656,153.7656 1138.5,153.7656 C1139.0781,153.7656 1139.6875,153.9219 1140.1563,154.1719 C1140.6406,154.4531 1140.8125,154.6719 1140.9063,155.0781 C1140.9688,155.4844 1141,155.6094 1141.1406,155.7344 C1141.2813,155.875 1141.5156,155.9844 1141.7344,155.9844 C1142,155.9844 1142.2656,155.8438 1142.4375,155.625 C1142.5469,155.4688 1142.5781,155.2813 1142.5781,154.8594 L1142.5781,153.4375 C1142.5781,153 1142.5625,152.875 1142.4688,152.7188 C1142.3125,152.4531 1142.0313,152.3125 1141.7344,152.3125 C1141.4375,152.3125 1141.2344,152.4063 1141.0156,152.7188 L1140.8438,152.6406 Z " fill="#000000"/><text fill="#000000" font-family="FG Virgil" font-size="12" font-style="italic" lengthAdjust="spacing" textLength="74" x="1185.5" y="154.1387">«repository»</text><text fill="#000000" font-family="FG Virgil" font-size="12" lengthAdjust="spacing" textLength="140" x="1152.5" y="168.1074">ColaboradorRepository</text><path d="M1124.5,175.9375 L1124.5,176.2177 L1134.5,175.3851 L1144.5,176.1952 L1154.5,176.4704 L1164.5,174.9863 L1174.5,175.8339 L1184.5,175.3688 L1194.5,175.4262 L1204.5,175.8466 L1214.5,175.0157 L1224.5,176.6757 L1234.5,175.0971 L1244.5,175.6738 L1254.5,176.5134 L1264.5,175.8231 L1274.5,176.0285 L1284.5,175.8949 L1294.5,175.9375 " fill="#F8F8F8" style="stroke:#383838;stroke-width:1.5;"/><path d="M1124.5,183.9375 L1124.5,184.2177 L1134.5,183.3851 L1144.5,184.1952 L1154.5,184.4704 L1164.5,182.9863 L1174.5,183.8339 L1184.5,183.3688 L1194.5,183.4262 L1204.5,183.8466 L1214.5,183.0157 L1224.5,184.6757 L1234.5,183.0971 L1244.5,183.6738 L1254.5,184.5134 L1264.5,183.8231 L1274.5,184.0285 L1284.5,183.8949 L1294.5,183.9375 " fill="#F8F8F8" style="stroke:#383838;stroke-width:1.5;"/><text fill="#000000" font-family="FG Virgil" font-size="11" lengthAdjust="spacing" textLength="66" x="1129.5" y="198.1479">save(colab)</text><!--MD5=[3fd616f346a44cd59a91eb10b19e157c]
class User--><polygon fill="#F8F8F8" points="275.5,138,275.5,138.2102,285.7,137.5857,295.9,138.1933,306.1,138.3997,316.3,137.2866,326.5,137.9223,336.7,137.5735,346.9,137.6165,357.1,137.9318,367.3,137.3086,377.5,138,378.0536,138,376.8697,147.5346,377.3022,157.0692,377.9319,166.6038,377.4142,176.1384,377.5682,185.673,377.4681,195.2076,377.5,204.7422,377.5,204.9207,367.3,204.9813,357.1,205.3279,346.9,205.4132,336.7,205.4214,326.5,204.9968,316.3,205.2058,306.1,205.4444,295.9,204.021,285.7,205.4207,275.5,204.7422,275.2035,204.7422,276.0338,195.2076,275.005,185.673,275.4315,176.1384,276.2416,166.6038,275.4513,157.0692,275.6053,147.5346,275.5,138" style="stroke:#383838;stroke-width:1.5;"/><polygon fill="#C2C2C2" points="301.5608,159.6444,299.9484,161.8475,298.0412,165.0745,295.3136,167.2491,292.4474,168.4384,290.162,168.5416,287.2247,167.0543,284.4532,166.0827,282.3495,164.1099,281.2461,161.8515,280.5917,160.0533,279.9506,157.7045,278.91,155.6832,279.7096,153.7098,280.4102,151.548,283.0393,149.8382,284.889,147.6198,287.1784,146.8832,289.9001,146.2488,293.3904,146.6257,295.3021,147.5273,297.5247,147.9359,300.2272,150.7047,301.1693,153.6277,301.5786,155.6221,301.115,158.9086" style="stroke:#383838;stroke-width:1.0;"/><path d="M292.8438,152.6406 C291.9063,152.2031 291.3125,152.0625 290.4375,152.0625 C287.8125,152.0625 285.8125,154.1406 285.8125,156.8594 L285.8125,157.9844 C285.8125,160.5625 287.9219,162.4531 290.8125,162.4531 C292.0313,162.4531 293.1875,162.1563 293.9375,161.6094 C294.5156,161.2031 294.8438,160.75 294.8438,160.3594 C294.8438,159.9063 294.4531,159.5156 293.9844,159.5156 C293.7656,159.5156 293.5625,159.5938 293.375,159.7813 C292.9219,160.2656 292.9219,160.2656 292.7344,160.3594 C292.3125,160.625 291.625,160.75 290.8594,160.75 C288.8125,160.75 287.5156,159.6563 287.5156,157.9531 L287.5156,156.8594 C287.5156,155.0781 288.7656,153.7656 290.5,153.7656 C291.0781,153.7656 291.6875,153.9219 292.1563,154.1719 C292.6406,154.4531 292.8125,154.6719 292.9063,155.0781 C292.9688,155.4844 293,155.6094 293.1406,155.7344 C293.2813,155.875 293.5156,155.9844 293.7344,155.9844 C294,155.9844 294.2656,155.8438 294.4375,155.625 C294.5469,155.4688 294.5781,155.2813 294.5781,154.8594 L294.5781,153.4375 C294.5781,153 294.5625,152.875 294.4688,152.7188 C294.3125,152.4531 294.0313,152.3125 293.7344,152.3125 C293.4375,152.3125 293.2344,152.4063 293.0156,152.7188 L292.8438,152.6406 Z " fill="#000000"/><text fill="#000000" font-family="FG Virgil" font-size="12" font-style="italic" lengthAdjust="spacing" textLength="74" x="302.5" y="154.1387">«repository»</text><text fill="#000000" font-family="FG Virgil" font-size="12" lengthAdjust="spacing" textLength="29" x="325" y="168.1074">User</text><path d="M276.5,175.9375 L276.5,176.2177 L286.5,175.3851 L296.5,176.1952 L306.5,176.4704 L316.5,174.9863 L326.5,175.8339 L336.5,175.3688 L346.5,175.4262 L356.5,175.8466 L366.5,175.0157 L376.5,175.9375 " fill="#F8F8F8" style="stroke:#383838;stroke-width:1.5;"/><path d="M276.5,183.9375 L276.5,184.2177 L286.5,183.3851 L296.5,184.1952 L306.5,184.4704 L316.5,182.9863 L326.5,183.8339 L336.5,183.3688 L346.5,183.4262 L356.5,183.8466 L366.5,183.0157 L376.5,183.9375 " fill="#F8F8F8" style="stroke:#383838;stroke-width:1.5;"/><text fill="#000000" font-family="FG Virgil" font-size="11" lengthAdjust="spacing" textLength="36" x="281.5" y="198.1479">save()</text><!--MD5=[f3d7e04391e91beac97e94fec0a3e268]
link LerFicheiroColaboradorUI to LerFicheiroColaboradorController--><path d="M123.5,61.126 L123.7802,61.126 L122.9476,71.3471 L123.7577,81.5682 L124.0329,91.7893 L122.5488,102.0104 L123.3964,112.2315 L122.9313,122.4526 L123.5,132.6737 " fill="none" style="stroke:#383838;stroke-width:1.0;"/><polygon fill="#383838" points="123.5,137.7424,123.564,137.7709,124.1738,135.8863,125.1589,134.1686,126.0217,132.3965,126.4827,130.4458,127.5,128.7424,127.4817,128.7241,126.5995,129.4419,125.8096,130.252,125.0839,131.1263,124.137,131.7794,123.5,132.7424,123.6305,132.8729,122.5514,131.7938,121.8534,131.0958,121.2018,130.4442,120.2798,129.5222,119.5,128.7424,119.5208,128.7516,120.2903,130.5381,121.1544,132.3666,121.9728,134.1748,122.8784,136.0217,123.5,137.7424" style="stroke:#383838;stroke-width:1.0;"/><text fill="#000000" font-family="FG Virgil" font-size="13" lengthAdjust="spacing" textLength="83" x="124.5" y="104.0669">theController</text><!--MD5=[76fb0d8cb84f0704b31c4d722d8016d9]
link LerFicheiroColaboradorController to LerFicheiroColaborador--><path d="M179.279,137.8787 L179.3221,137.9616 L181.355,136.5901 L183.6408,135.7043 L185.8442,134.6604 L187.7767,133.0963 L190.0842,132.2523 L190.0689,132.2213 L192.2741,130.9608 L194.5563,129.8565 L196.8921,128.8608 L199.0433,127.491 L201.453,126.6451 L201.5564,126.8684 L203.7021,125.2951 L206.1497,124.3737 L208.6342,123.5319 L210.9043,122.2273 L213.2872,121.166 L213.2992,121.1939 L215.7218,120.1045 L218.199,119.1421 L220.6499,118.1184 L223.151,117.2114 L225.4885,115.9238 L225.5975,116.2014 L228.0929,115.2255 L230.5179,114.0706 L233.0459,113.1777 L235.5787,112.2971 L237.9587,111.0273 L237.8524,110.7249 L240.5868,110.4234 L242.9713,109.1262 L245.6218,108.586 L247.9984,107.2662 L250.5995,106.5853 L250.5906,106.5562 L253.2383,106.1248 L255.6785,105.0131 L258.2411,104.3029 L260.814,103.6263 L263.3127,102.7066 L263.358,102.886 L265.8497,102.0636 L268.4189,101.5477 L270.8627,100.536 L273.4935,100.2639 L276,99.5 L276.044,99.7396 L279.4949,99.0593 L282.9676,98.4979 L286.3388,97.3837 L289.7844,96.6747 L293.296,96.3247 L293.2568,96.0514 L295.4242,95.9937 L297.5475,95.6279 L299.7348,95.709 L301.8129,95.0271 L303.9559,94.7988 L303.937,94.6475 L306.3568,94.6026 L308.6962,93.911 L311.0927,93.6793 L313.5451,93.8977 L315.898,93.3146 L315.9191,93.5071 L318.5695,93.3508 L321.1545,92.5957 L323.8215,92.5905 L326.4707,92.422 L329.0782,91.8728 L329.0578,91.6638 L331.9488,91.5505 L334.8332,91.3688 L337.7306,91.3216 L340.5771,90.7516 L343.4521,90.4737 L343.4691,90.6785 L349.8621,89.6948 L356.288,89.1065 L362.7618,89.096 L369.1473,88.0218 L375.6041,87.8057 L375.6195,88.0314 L382.8895,87.3992 L390.1542,86.6906 L397.4308,86.1544 L404.7346,86.0165 L411.9999,85.3149 L411.9922,85.1821 L420.072,85.1156 L428.1,84.1457 L436.1869,84.203 L444.2406,83.6819 L452.2854,83.0051 L452.2907,83.1138 L461.0506,82.6011 L469.8295,82.4777 L478.5913,82.0026 L487.346,81.3804 L496.1066,80.8803 L496.1213,81.2375 L505.5,80.3196 L514.947,81.0604 L524.3167,79.9251 L533.7182,79.5615 L543.1093,78.9444 L543.0809,78.1338 L553.0564,78.0559 L563.0661,78.9545 L573.0274,78.4713 L582.9714,77.4929 L592.9395,77.2015 L592.9268,76.7721 L603.3915,76.6005 L613.8338,75.6686 L624.3379,76.8267 L634.8114,76.9504 L645.243,75.6555 L645.2603,76.3572 L656.1505,76.3128 L667.0076,74.9352 L677.8996,74.9647 L688.7685,74.0628 L699.6658,74.3104 L699.6735,74.6891 L709.0372,74.4493 L718.4101,74.6667 L727.7536,73.4341 L737.1208,73.3711 L746.5011,73.9514 L755.8538,73.1702 L755.866,73.9265 L765.4426,72.3316 L775.0493,72.6012 L784.6566,72.9034 L794.24,71.7349 L803.8607,72.8651 L813.4529,72.2387 L813.4571,72.5827 L823.2273,71.9846 L833.0072,72.1888 L842.7928,72.8509 L852.5518,71.3425 L862.3381,72.0598 L872.109,71.5201 L872.1122,71.901 L882.0034,71.5908 L891.8969,71.5407 L901.7897,71.4205 L911.6746,70.3534 L921.5703,70.5675 L931.468,71.0182 L931.4651,70.4029 L941.4197,71.0565 L951.3711,71.042 L961.3229,71.0933 L971.2713,70.4429 L981.224,70.694 L991.1757,70.7371 L991.1756,70.5768 L1001.1269,71.4969 L1011.0771,71.2871 L1021.0264,70.0615 L1030.9773,70.6023 L1040.9271,69.9205 L1050.8783,70.6807 L1050.8794,71.0652 L1060.7711,71.5207 L1070.6614,71.4642 L1080.5482,70.1861 L1090.4422,71.4142 L1100.328,69.8339 L1110.2214,70.853 L1110.2233,71.1198 L1119.9903,70.5214 L1129.7655,71.1169 L1139.5385,71.3759 L1149.3122,71.7524 L1159.0729,70.2305 L1168.8511,71.2579 L1168.8582,71.8918 L1178.4474,71.6024 L1188.0438,71.9455 L1197.6433,72.5757 L1207.2259,71.6929 L1216.8221,72.0262 L1226.4132,71.8994 L1226.4177,72.184 L1235.7741,72.3094 L1245.1267,72.1924 L1254.4984,73.288 L1263.8274,71.6746 L1273.2088,73.3882 L1282.5537,72.7816 L1282.5365,71.9498 L1293.4117,72.2867 L1304.3007,73.2856 L1315.1733,73.4953 L1326.0319,73.026 L1336.9184,73.9083 L1336.933,74.4597 L1347.3692,74.3284 L1357.8379,75.4269 L1368.2828,75.6226 L1378.6906,74.411 L1389.1534,75.2835 L1389.136,74.7532 L1399.0979,75.4369 L1409.0693,76.4084 L1419.0215,76.7972 L1428.9673,76.987 L1438.9043,76.9113 L1438.886,76.4557 L1448.321,78.1359 L1457.7034,78.5093 L1467.0496,77.9788 L1476.4219,78.1002 L1485.8173,78.7955 L1485.8086,78.6173 L1494.5568,79.1292 L1503.3087,79.7144 L1512.0483,80.0519 L1520.7849,80.3258 L1529.5382,80.9402 L1529.5512,81.1564 L1537.5609,81.2184 L1545.6214,82.1267 L1553.6544,82.5752 L1561.6878,83.0324 L1569.7129,83.3493 L1569.7355,83.6562 L1576.9597,83.7758 L1584.2128,84.287 L1591.4945,85.1857 L1598.7128,85.2267 L1605.9872,86.0267 L1605.9782,85.9231 L1609.3045,86.366 L1612.6154,86.6334 L1615.9118,86.7324 L1619.2367,87.1602 L1622.5512,87.4674 L1622.5833,87.7967 L1625.6704,88.0561 L1628.7078,87.8073 L1631.8282,88.4076 L1634.8938,88.4474 L1638.0072,88.9766 L1638.0059,88.965 L1640.8823,89.4217 L1643.7493,89.7934 L1646.5572,89.6299 L1649.4699,90.4162 L1652.3112,90.5549 L1652.3116,90.5586 L1654.9019,90.6396 L1657.5281,91.0063 L1660.1938,91.6876 L1662.8111,91.9834 L1665.4187,92.2028 L1665.4177,92.1955 L1667.7493,92.2507 L1670.2074,93.1794 L1672.519,93.0964 L1674.8787,93.3449 L1677.2857,93.9207 L1677.2807,93.8912 L1679.4458,94.5368 L1681.5641,94.9058 L1683.6375,95.0092 L1685.7401,95.2853 L1687.8677,95.7092 L1687.884,95.7829 L1691.312,96.5482 L1694.6719,97.0052 L1698.1868,98.1633 L1701.6272,98.9843 L1705,99.5 L1704.9718,99.4083 L1706.9048,99.9203 L1709.0097,100.9919 L1710.8852,101.3169 L1712.8432,101.9106 L1714.8041,102.5133 L1714.8501,102.638 L1716.6553,102.9649 L1718.7871,104.1758 L1720.6537,104.6692 L1722.7098,105.6752 L1724.5575,106.1171 L1724.5199,106.0289 L1726.5576,107.1054 L1728.3381,107.5777 L1730.387,108.6805 L1732.3393,109.5564 L1734.2022,110.2224 L1734.1396,110.091 L1736.1672,111.2715 L1737.884,111.8001 L1739.7989,112.7441 L1741.915,114.1103 L1743.68,114.7398 L1743.821,115.0094 L1745.6477,115.9319 L1747.3069,116.5342 L1749.3108,117.7956 L1750.985,118.4265 L1752.9328,119.5805 L1752.9455,119.603 L1754.7265,120.595 L1756.4633,121.5089 L1758.4494,122.8636 L1760.2056,123.8118 L1761.9025,124.6553 L1761.8272,124.5342 L1765.3977,126.953 L1768.6671,128.888 L1771.8799,130.7322 L1775.3337,132.9634 L1778.76,135.1505 " fill="none" style="stroke:#383838;stroke-width:1.0;"/><polygon fill="#383838" points="1782.97,137.9562,1783.0292,137.9937,1781.7989,136.2185,1780.9156,134.6631,1779.9193,133.0361,1778.5515,131.1737,1777.698,129.6372,1777.6726,129.6321,1777.7808,130.7186,1778.017,131.8308,1778.3423,132.9608,1778.3608,134.0293,1778.809,135.1839,1778.8452,135.3648,1777.6584,135.2001,1776.5773,135.5636,1775.5092,135.9917,1774.366,136.0446,1773.2623,136.2949,1773.2661,136.3173,1775.202,136.6166,1777.1554,137.0181,1779.1004,137.3702,1781.0614,137.8164,1782.97,137.9562" style="stroke:#383838;stroke-width:1.0;"/><!--MD5=[fb1e36c04d719a312ec9bc3cbb15eb20]
link LerFicheiroColaboradorController to UserController--><path d="M179.279,137.8787 L179.3221,137.9616 L181.355,136.5901 L183.6408,135.7043 L185.8442,134.6604 L187.7767,133.0963 L190.0842,132.2523 L190.0689,132.2213 L192.2741,130.9608 L194.5563,129.8565 L196.8921,128.8608 L199.0433,127.491 L201.453,126.6451 L201.5564,126.8684 L203.7021,125.2951 L206.1497,124.3737 L208.6342,123.5319 L210.9043,122.2273 L213.2872,121.166 L213.2992,121.1939 L215.7218,120.1045 L218.199,119.1421 L220.6499,118.1184 L223.151,117.2114 L225.4885,115.9238 L225.5975,116.2014 L228.0929,115.2255 L230.5179,114.0706 L233.0459,113.1777 L235.5787,112.2971 L237.9587,111.0273 L237.8524,110.7249 L240.5868,110.4234 L242.9713,109.1262 L245.6218,108.586 L247.9984,107.2662 L250.5995,106.5853 L250.5906,106.5562 L253.2383,106.1248 L255.6785,105.0131 L258.2411,104.3029 L260.814,103.6263 L263.3127,102.7066 L263.358,102.886 L265.8497,102.0636 L268.4189,101.5477 L270.8627,100.536 L273.4935,100.2639 L276,99.5 L276.0511,99.7382 L278.1662,99.2376 L280.3067,98.8552 L282.3294,97.9233 L284.4385,97.3942 L286.6241,97.2221 L286.5708,96.9511 L288.8442,96.7593 L291.0577,96.2621 L293.3581,96.2079 L295.51,95.3974 L297.7502,95.0365 L297.7231,94.8864 L300.0906,94.7175 L302.3424,93.9071 L304.6765,93.5529 L307.0911,93.6449 L309.3623,92.9422 L309.394,93.1333 L311.8321,92.8635 L314.1717,91.9996 L316.6347,91.8799 L319.0708,91.5981 L321.4443,90.9384 L321.4126,90.7309 L323.9449,90.5135 L326.467,90.228 L329.0094,90.0762 L331.4725,89.4051 L333.9799,89.0241 L334.0085,89.2277 L336.5402,88.4152 L339.1272,87.9956 L341.795,88.1502 L344.314,87.2478 L346.9531,87.1982 L346.9811,87.4226 L352.4034,86.6113 L357.8162,85.7239 L363.2504,85.008 L368.734,84.6883 L374.1477,83.8079 L374.1336,83.6756 L379.9256,83.4599 L385.6223,82.3444 L391.4273,82.252 L397.1713,81.5835 L402.8989,80.7599 L402.9086,80.8683 L408.9365,80.2381 L414.9993,79.9961 L421.0306,79.4034 L427.0487,78.664 L433.0777,78.0464 L433.0867,78.1652 L439.3688,77.5113 L445.6927,77.4092 L451.9693,76.6829 L458.2654,76.2134 L464.5551,75.6596 L464.538,75.3898 L471.0731,75.0663 L477.6287,75.0679 L484.1552,74.6096 L490.6713,73.9863 L497.2019,73.5918 L497.1945,73.4488 L503.9343,73.1433 L510.6609,72.5846 L517.4238,72.722 L524.1688,72.5148 L530.8891,71.8353 L530.899,72.069 L537.8218,71.8532 L544.726,71.1933 L551.6499,71.0021 L558.5608,70.5007 L565.4877,70.3822 L565.4918,70.5083 L572.5675,70.2603 L579.6481,70.1646 L586.7129,69.5857 L593.7904,69.3966 L600.8686,69.2248 L600.8733,69.4219 L608.0815,69.303 L615.2767,68.6493 L622.4869,68.617 L629.6974,68.5956 L636.9026,68.3554 L636.8983,68.084 L644.2168,68.3946 L651.5278,68.2344 L658.8368,67.9572 L666.1502,67.9473 L673.4609,67.7663 L673.4636,68.0901 L680.8503,67.5639 L688.2434,67.7796 L695.6339,67.7032 L703.0239,67.5643 L710.4142,67.4495 L710.4142,67.5122 L717.8581,67.4896 L725.3015,67.1513 L732.7455,67.2402 L740.1893,67.2028 L747.6335,67.3975 L747.6336,67.4259 L755.1049,67.4777 L762.5764,67.5514 L770.0465,67.3912 L777.5183,67.5315 L784.9898,67.6025 L784.9891,67.5491 L792.4657,67.9497 L799.9377,67.9737 L807.4056,67.6592 L814.8807,67.9334 L822.3539,68.0567 L822.3491,67.8001 L829.8049,68.3239 L837.2562,68.6053 L844.7042,68.716 L852.1447,68.4196 L859.5969,68.7522 L859.6021,68.9584 L866.9872,68.6081 L874.3963,69.2129 L881.7892,69.1768 L889.1922,69.5387 L896.5897,69.6815 L896.593,69.7883 L903.919,70.1223 L911.225,69.8238 L918.5644,70.5859 L925.8829,70.6849 L933.2031,70.8368 L933.2091,70.9946 L940.4368,71.4436 L947.6453,71.3886 L954.8692,71.7386 L962.0908,72.0303 L969.3082,72.2102 L969.3122,72.2977 L976.4018,72.5266 L983.5094,73.1593 L990.5768,72.8897 L997.6936,73.7282 L1004.7759,73.794 L1004.7617,73.517 L1011.7038,73.9115 L1018.6573,74.5264 L1025.5973,74.8785 L1032.5256,75.0045 L1039.4771,75.5805 L1039.4879,75.7641 L1046.2411,76.0251 L1053.0182,76.6955 L1059.7778,77.0653 L1066.5099,76.9668 L1073.2827,77.5619 L1073.271,77.3855 L1079.8351,77.9384 L1086.4056,78.587 L1092.9631,79.0418 L1099.5164,79.4304 L1106.0637,79.7305 L1106.0525,79.579 L1112.4101,80.4822 L1118.7355,80.9506 L1125.0386,81.1184 L1131.3577,81.503 L1137.691,82.0785 L1137.6763,81.9008 L1143.7521,82.4874 L1149.8339,83.1473 L1155.8953,83.56 L1161.9513,83.9092 L1168.0356,84.5982 L1168.0556,84.8139 L1173.8033,84.9318 L1179.6293,85.894 L1185.4128,86.3974 L1191.1971,86.9096 L1196.9684,87.2818 L1197.0001,87.5879 L1202.4355,87.741 L1207.9113,88.2848 L1213.4273,89.215 L1218.8545,89.2897 L1224.3603,90.1215 L1224.3483,90.0182 L1229.5106,90.7701 L1234.6526,91.3471 L1239.775,91.7561 L1244.9356,92.493 L1250.0822,93.1096 L1250.1251,93.4377 L1254.9042,94.0211 L1259.617,94.0983 L1264.4405,95.0215 L1269.1909,95.3861 L1274.0051,96.2384 L1274.0034,96.2268 L1278.4232,97.0195 L1282.8305,97.7276 L1287.1587,97.9031 L1291.6271,99.0238 L1296,99.5 L1296.0007,99.5037 L1299.3947,99.8676 L1302.839,100.5151 L1306.3388,101.4747 L1309.7707,102.0517 L1313.1891,102.553 L1313.1876,102.5459 L1316.5998,102.9987 L1320.1954,104.3148 L1323.5785,104.631 L1327.0313,105.2748 L1330.5528,106.2422 L1330.5457,106.2131 L1334.0943,107.3423 L1337.5766,108.1988 L1340.9953,108.7935 L1344.4553,109.5585 L1347.9507,110.4692 L1347.9704,110.542 L1351.4307,111.4823 L1354.8086,112.1178 L1358.3737,113.4466 L1361.8489,114.442 L1365.2425,115.1355 L1365.2155,115.0435 L1368.5978,115.9539 L1372.1451,117.4261 L1375.4722,118.1489 L1378.8786,119.1413 L1382.2877,120.1428 L1382.3276,120.2696 L1385.5331,120.9191 L1389.0218,122.4674 L1392.2806,123.2862 L1395.7036,124.6263 L1398.9459,125.3927 L1398.9155,125.3018 L1402.2298,126.644 L1405.3357,127.3633 L1408.659,128.7325 L1411.9041,129.8679 L1415.0768,130.7869 L1415.0286,130.6496 L1418.223,132.0271 L1421.1778,132.7233 L1424.2853,133.8536 L1427.5481,135.4251 L1430.54,136.2268 " fill="none" style="stroke:#383838;stroke-width:1.0;"/><polygon fill="#383838" points="1435.4,137.9893,1435.4487,138.0397,1433.8871,136.5217,1432.6108,135.2991,1431.2416,133.9803,1429.567,132.3451,1428.3152,131.1479,1428.2917,131.1369,1428.6638,132.1135,1429.1543,133.1453,1429.727,134.2153,1430.0162,135.1533,1430.7026,136.2762,1430.7805,136.4435,1429.5883,136.5633,1428.6235,137.1714,1427.6864,137.8392,1426.5879,138.1603,1425.5743,138.6637,1425.5758,138.6864,1427.5387,138.5182,1429.5086,138.4533,1431.4752,138.3386,1433.4482,138.3189,1435.4,137.9893" style="stroke:#383838;stroke-width:1.0;"/><!--MD5=[b46f79a835a61b63f17709918781d9e6]
link LerFicheiroColaboradorController to ColaboradorRepository--><path d="M179.279,137.8787 L179.3221,137.9616 L181.355,136.5901 L183.6408,135.7043 L185.8442,134.6604 L187.7767,133.0963 L190.0842,132.2523 L190.0689,132.2213 L192.2741,130.9608 L194.5563,129.8565 L196.8921,128.8608 L199.0433,127.491 L201.453,126.6451 L201.5564,126.8684 L203.7021,125.2951 L206.1497,124.3737 L208.6342,123.5319 L210.9043,122.2273 L213.2872,121.166 L213.2992,121.1939 L215.7218,120.1045 L218.199,119.1421 L220.6499,118.1184 L223.151,117.2114 L225.4885,115.9238 L225.5975,116.2014 L228.0929,115.2255 L230.5179,114.0706 L233.0459,113.1777 L235.5787,112.2971 L237.9587,111.0273 L237.8524,110.7249 L240.5868,110.4234 L242.9713,109.1262 L245.6218,108.586 L247.9984,107.2662 L250.5995,106.5853 L250.5906,106.5562 L253.2383,106.1248 L255.6785,105.0131 L258.2411,104.3029 L260.814,103.6263 L263.3127,102.7066 L263.358,102.886 L265.8497,102.0636 L268.4189,101.5477 L270.8627,100.536 L273.4935,100.2639 L276,99.5 L276.0497,99.7385 L279.5056,98.9717 L282.9862,98.3233 L286.3523,97.1247 L289.8023,96.3294 L293.3267,95.8915 L293.2775,95.6197 L297.1013,95.1815 L300.8697,94.4372 L304.7185,94.137 L308.43,93.0784 L312.2231,92.4706 L312.1993,92.32 L316.3113,91.9251 L320.3212,90.8864 L324.4037,90.3055 L328.5572,90.1725 L332.5842,89.2419 L332.611,89.4337 L336.9735,88.9589 L341.2528,87.8875 L345.6363,87.5633 L349.9971,87.0763 L354.305,86.21 L354.2793,86.0016 L358.8948,85.6016 L363.5019,85.1333 L368.1256,84.7991 L372.685,83.9436 L377.2803,83.3793 L377.3025,83.5836 L382.0786,82.6096 L386.8976,82.03 L391.7794,82.0268 L396.5456,80.9625 L401.4051,80.7543 L401.4267,80.9794 L406.4477,80.3627 L411.4614,79.6698 L416.4916,79.1489 L421.56,79.0254 L426.5744,78.3395 L426.5632,78.2069 L431.8182,78.1616 L436.9972,77.2147 L442.2627,77.293 L447.4794,76.794 L452.6831,76.1395 L452.6911,76.2481 L458.0733,75.7643 L463.484,75.6693 L468.869,75.223 L474.2431,74.63 L479.6262,74.1588 L479.6338,74.2777 L485.157,73.7496 L490.7154,73.7738 L496.2341,73.1733 L501.769,72.8298 L507.2987,72.4019 L507.2841,72.1319 L512.9483,71.9163 L518.6301,72.0259 L524.287,71.6754 L529.935,71.1599 L535.5954,70.8732 L535.589,70.7302 L541.3543,70.5168 L547.1081,70.0502 L552.8933,70.2798 L558.663,70.1649 L564.4114,69.5774 L564.4199,69.8112 L570.2686,69.6743 L576.1013,69.0932 L581.9509,68.981 L587.7893,68.5584 L593.6416,68.5189 L593.6451,68.6451 L599.5525,68.4652 L605.4641,68.4376 L611.3624,67.9268 L617.2714,67.8058 L623.1809,67.7022 L623.1847,67.8992 L629.1345,67.8402 L635.0739,67.2463 L641.0254,67.2738 L646.977,67.3122 L652.9244,67.1318 L652.9215,66.8604 L658.8946,67.225 L664.8626,67.1187 L670.8294,66.8954 L676.7991,66.9395 L682.7669,66.8124 L682.7676,67.1362 L688.7339,66.6605 L694.7018,66.9267 L700.6691,66.9009 L706.6362,66.8125 L712.6034,66.7483 L712.6038,66.8109 L718.5488,66.8379 L724.4917,66.5492 L730.4375,66.6876 L736.3824,66.6998 L742.3288,66.9441 L742.3293,66.9724 L748.2313,67.0753 L754.1337,67.2 L760.0325,67.0909 L765.9359,67.2822 L771.8382,67.4042 L771.8369,67.3508 L777.6823,67.8064 L783.5183,67.8854 L789.3458,67.626 L795.188,67.9551 L801.0265,68.1333 L801.0175,67.8769 L806.7834,68.4619 L812.5407,68.8046 L818.2921,68.9767 L824.0294,68.7419 L829.7885,69.1358 L829.7979,69.3418 L835.4198,69.0621 L841.0849,69.7369 L846.721,69.7712 L852.3752,70.2031 L858.0194,70.4163 L858.0254,70.5229 L863.5502,70.9384 L869.0391,70.722 L874.5881,71.565 L880.0995,71.7457 L885.614,71.9792 L885.6248,72.1367 L891.0074,72.6807 L896.3554,72.7216 L901.7313,73.1668 L907.1031,73.5537 L912.4672,73.829 L912.4744,73.9164 L917.6685,74.257 L922.8959,75.0004 L928.0491,74.8438 L933.2933,75.7925 L938.4741,75.9704 L938.4472,75.6943 L943.4619,76.2188 L948.498,76.963 L953.5086,77.4453 L958.4972,77.7022 L963.5295,78.4077 L963.5504,78.5904 L968.3348,79.0033 L973.1658,79.8237 L977.9626,80.345 L982.7062,80.4 L987.5286,81.1455 L987.5052,80.9702 L992.0885,81.6972 L996.6844,82.5193 L1001.2547,83.1487 L1005.8162,83.7124 L1010.366,84.1883 L1010.3427,84.0382 L1014.7237,85.1383 L1019.0377,85.8076 L1023.3054,86.179 L1027.6065,86.7652 L1031.937,87.5407 L1031.9051,87.3652 L1035.9598,88.1801 L1040.0276,89.0673 L1044.0512,89.7106 L1048.0633,90.2911 L1052.1363,91.2071 L1052.1814,91.4189 L1055.8384,91.8046 L1059.6719,93.0194 L1063.4095,93.7838 L1067.1489,94.5567 L1070.859,95.192 L1070.934,95.4905 L1074.2606,95.9476 L1077.6828,96.7856 L1081.1998,98.0005 L1084.5071,98.3811 L1088,99.5 L1087.9694,99.4006 L1089.9759,100.1517 L1091.9306,100.7345 L1093.8356,101.1557 L1095.8376,101.8924 L1097.8041,102.5133 L1097.9188,102.8237 L1099.8546,103.5044 L1101.6136,103.7063 L1103.6682,104.7084 L1105.5277,105.1821 L1107.5575,106.1171 L1107.5529,106.1064 L1109.5374,107.058 L1111.4885,107.9309 L1113.2286,108.3084 L1115.343,109.5651 L1117.2022,110.2224 L1117.2038,110.2257 L1118.9916,110.9031 L1120.9032,111.8404 L1122.9513,113.0639 L1124.8322,113.9366 L1126.68,114.7398 L1126.6766,114.7334 L1128.3921,115.4433 L1130.5167,116.9353 L1132.1674,117.5214 L1133.9735,118.4044 L1135.9328,119.5805 L1135.9181,119.5545 L1137.8558,120.8236 L1139.6554,121.8485 L1141.3223,122.6389 L1143.0755,123.5818 L1144.9025,124.6553 L1144.9424,124.7193 L1148.3177,126.8246 L1151.5262,128.6618 L1155.1142,131.1086 L1158.5198,133.2623 L1161.76,135.1505 " fill="none" style="stroke:#383838;stroke-width:1.0;"/><polygon fill="#383838" points="1165.97,137.9562,1166.0292,137.9937,1164.7989,136.2185,1163.9156,134.6631,1162.9193,133.0361,1161.5515,131.1737,1160.698,129.6372,1160.6726,129.6321,1160.7808,130.7186,1161.017,131.8308,1161.3423,132.9608,1161.3608,134.0293,1161.809,135.1839,1161.8452,135.3648,1160.6584,135.2001,1159.5773,135.5636,1158.5092,135.9917,1157.366,136.0446,1156.2623,136.2949,1156.2661,136.3173,1158.202,136.6166,1160.1554,137.0181,1162.1004,137.3702,1164.0614,137.8164,1165.97,137.9562" style="stroke:#383838;stroke-width:1.0;"/><!--MD5=[c0cf957e585be4316c8e95e7d7467243]
link LerFicheiroColaboradorController to Colaborador--><path d="M179.279,137.8787 L179.3221,137.9616 L181.355,136.5901 L183.6408,135.7043 L185.8442,134.6604 L187.7767,133.0963 L190.0842,132.2523 L190.0689,132.2213 L192.2741,130.9608 L194.5563,129.8565 L196.8921,128.8608 L199.0433,127.491 L201.453,126.6451 L201.5564,126.8684 L203.7021,125.2951 L206.1497,124.3737 L208.6342,123.5319 L210.9043,122.2273 L213.2872,121.166 L213.2992,121.1939 L215.7218,120.1045 L218.199,119.1421 L220.6499,118.1184 L223.151,117.2114 L225.4885,115.9238 L225.5975,116.2014 L228.0929,115.2255 L230.5179,114.0706 L233.0459,113.1777 L235.5787,112.2971 L237.9587,111.0273 L237.8524,110.7249 L240.5868,110.4234 L242.9713,109.1262 L245.6218,108.586 L247.9984,107.2662 L250.5995,106.5853 L250.5906,106.5562 L253.2383,106.1248 L255.6785,105.0131 L258.2411,104.3029 L260.814,103.6263 L263.3127,102.7066 L263.358,102.886 L265.8497,102.0636 L268.4189,101.5477 L270.8627,100.536 L273.4935,100.2639 L276,99.5 L276.0496,99.7385 L278.4929,99.1839 L280.9608,98.7476 L283.3144,97.7611 L285.7517,97.1779 L288.2634,96.9521 L288.2155,96.6802 L290.7353,96.49 L293.2011,95.9933 L295.7453,95.9412 L298.1557,95.1301 L300.6456,94.7702 L300.6235,94.6193 L303.1576,94.5048 L305.5973,93.7455 L308.1041,93.4447 L310.6766,93.5926 L313.1321,92.9415 L313.1549,93.1338 L315.6857,92.968 L318.1458,92.2042 L320.6946,92.1895 L323.224,92.0115 L325.7084,91.4533 L325.6892,91.2442 L328.2348,91.1788 L330.7742,91.0449 L333.3258,91.0455 L335.8295,90.5231 L338.36,90.2929 L338.3736,90.498 L340.8861,89.8783 L343.4249,89.6544 L346.0022,90.0091 L348.5087,89.2987 L351.0723,89.4476 L351.0819,89.6736 L353.6279,89.4308 L356.1706,89.1115 L358.7207,88.9648 L361.2877,89.217 L363.8308,88.9047 L363.8281,88.7717 L366.394,89.1171 L368.942,88.5578 L371.5103,89.0272 L374.0672,88.9174 L376.621,88.6515 L376.6212,88.7604 L379.1825,88.6773 L381.7445,88.984 L384.3059,88.9385 L386.867,88.7458 L389.4284,88.6753 L389.431,88.7945 L391.9891,88.675 L394.5595,89.1088 L397.1159,88.9169 L399.6781,88.9824 L402.2384,88.9633 L402.227,88.6932 L404.7904,88.8913 L407.3676,89.4149 L409.9253,89.4779 L412.4761,89.376 L415.0365,89.5029 L415.0278,89.36 L417.5849,89.5615 L420.1266,89.5099 L422.7107,90.154 L425.2739,90.4538 L427.8082,90.2814 L427.8266,90.5146 L430.3787,90.7902 L432.8958,90.6227 L435.4498,90.9228 L437.9793,90.9134 L440.539,91.286 L440.5511,91.4117 L443.0846,91.6388 L445.6326,92.0176 L448.1345,91.9153 L450.6736,92.201 L453.2144,92.5041 L453.2364,92.7 L455.7636,93.0384 L458.231,92.8453 L460.768,93.2698 L463.3061,93.7051 L465.8197,93.9229 L465.7852,93.6536 L468.3439,94.4001 L470.8427,94.6794 L473.3266,94.8426 L475.8445,95.2711 L478.3406,95.5297 L478.3866,95.8503 L480.8052,95.7485 L483.3292,96.3812 L485.8118,96.7247 L488.2854,97.0064 L490.7625,97.3119 L490.7723,97.3738 L493.232,97.7507 L495.6425,97.8158 L498.1197,98.3028 L500.5771,98.6651 L503.0708,99.2567 L503.0756,99.2846 L505.5135,99.7142 L507.9551,100.1654 L510.357,100.386 L512.8099,100.9028 L515.251,101.3514 L515.2413,101.2988 L517.7053,102.0498 L520.1007,102.4305 L522.4343,102.4783 L524.8753,103.105 L527.2887,103.5832 L527.2373,103.3319 L532.0323,104.6737 L536.7787,105.778 L541.4909,106.7151 L546.1215,107.2532 L550.8781,108.4078 L550.9241,108.6088 L555.3736,109.1301 L560.0359,110.5829 L564.5554,111.4107 L569.1636,112.6264 L573.723,113.6287 L573.7489,113.7323 L578.1708,114.9353 L582.4387,115.5246 L586.9648,117.143 L591.3294,118.1179 L595.7069,119.1443 L595.7483,119.2966 L599.9955,120.6067 L604.1103,121.43 L608.3315,122.6446 L612.5374,123.8027 L616.7139,124.8528 L616.7384,124.937 L620.6965,126.0125 L624.7677,127.4761 L628.5864,128.0726 L632.7151,129.734 L636.6276,130.6528 L636.5456,130.3878 L640.2975,131.5813 L644.1146,132.9856 L647.854,134.1385 L651.5264,135.0752 L655.332,136.4424 " fill="none" style="stroke:#383838;stroke-width:1.0;"/><polygon fill="#383838" points="660.161,137.9913,660.2076,138.0436,658.5994,136.5767,657.2646,135.4163,655.8408,134.1561,654.1241,132.5677,652.8128,131.4336,652.7897,131.4218,653.2038,132.3747,653.7339,133.3874,654.3448,134.4416,654.6775,135.3527,655.3999,136.4642,655.4843,136.6283,654.2977,136.7948,653.3575,137.4404,652.4474,138.1445,651.3624,138.5085,650.3694,139.0513,650.3718,139.074,652.3265,138.8287,654.2924,138.6865,656.2529,138.4946,658.2237,138.3974,660.161,137.9913" style="stroke:#383838;stroke-width:1.0;"/><!--MD5=[82c32b9adca797008ef7c021834ee69f]
link LerFicheiroColaboradorController to User--><path d="M240.066,171.5 L240.066,171.5934 L246.0464,171.3159 L252.0268,171.5859 L258.0072,171.6776 L263.9876,171.1829 L269.968,171.5 " fill="none" style="stroke:#383838;stroke-width:1.0;"/><polygon fill="#383838" points="275.18,171.5,275.2085,171.564,273.3239,170.5738,271.6062,169.9589,269.8341,169.2217,267.8834,168.0827,266.18,167.5,266.1617,167.4817,266.8795,168.1995,267.6896,169.0096,268.5639,169.8839,269.217,170.537,270.18,171.5,270.3105,171.6305,269.2314,172.1514,268.5334,173.0534,267.8818,174.0018,266.9598,174.6798,266.18,175.5,266.1892,175.5208,267.9757,174.6903,269.8042,173.9544,271.6124,173.1728,273.4593,172.4784,275.18,171.5" style="stroke:#383838;stroke-width:1.0;"/><!--MD5=[ca5f095b4eba3c6ef07ca18dd170be3b]
@startuml
'http://plantuml.com/skinparam.html
skinparam handwritten true
skinparam monochrome true
skinparam packageStyle rect
skinparam defaultFontName FG Virgil
skinparam shadowing false

class LerFicheiroColaboradorUI <<presentation>>
class LerFicheiroColaboradorController <<application>>
class LerFicheiroColaborador <<domain>>
class Colaborador <<domain>>
class UserController <<presentation>>>
class ColaboradorRepository <<repository>>
class User <<repository>>


LerFicheiroColaboradorUI - -> LerFicheiroColaboradorController : theController

LerFicheiroColaboradorController -> LerFicheiroColaborador
LerFicheiroColaboradorController -> UserController
LerFicheiroColaboradorController -> ColaboradorRepository
LerFicheiroColaboradorController -> Colaborador
LerFicheiroColaboradorController -> User

Colaborador : new Colaborador(numMecanografico,nomeCurto,nomeCompleto,dataNascimento,localResidencia,endereco,contacto)

LerFicheiroColaborador : lerDados()

ColaboradorRepository : save(colab)

User : save()

LerFicheiroColaboradorController : lerDados()

UserController : addUser(username,password,firstname,lastName,endereco,set)
@enduml

@startuml
skinparam handwritten true
skinparam monochrome true
skinparam packageStyle rect
skinparam defaultFontName FG Virgil
skinparam shadowing false

class LerFicheiroColaboradorUI <<presentation>>
class LerFicheiroColaboradorController <<application>>
class LerFicheiroColaborador <<domain>>
class Colaborador <<domain>>
class UserController <<presentation>>>
class ColaboradorRepository <<repository>>
class User <<repository>>


LerFicheiroColaboradorUI - -> LerFicheiroColaboradorController : theController

LerFicheiroColaboradorController -> LerFicheiroColaborador
LerFicheiroColaboradorController -> UserController
LerFicheiroColaboradorController -> ColaboradorRepository
LerFicheiroColaboradorController -> Colaborador
LerFicheiroColaboradorController -> User

Colaborador : new Colaborador(numMecanografico,nomeCurto,nomeCompleto,dataNascimento,localResidencia,endereco,contacto)

LerFicheiroColaborador : lerDados()

ColaboradorRepository : save(colab)

User : save()

LerFicheiroColaboradorController : lerDados()

UserController : addUser(username,password,firstname,lastName,endereco,set)
@enduml

PlantUML version 1.2021.6beta6(Unknown compile time)
(GPL source distribution)
Java Runtime: Java(TM) SE Runtime Environment
JVM: Java HotSpot(TM) 64-Bit Server VM
Default Encoding: UTF-8
Language: en
Country: US
--></g></svg>