<?xml version="1.0" encoding="UTF-8" standalone="no"?><svg xmlns="http://www.w3.org/2000/svg" xmlns:xlink="http://www.w3.org/1999/xlink" contentScriptType="application/ecmascript" contentStyleType="text/css" height="211px" preserveAspectRatio="none" style="width:1966px;height:211px;background:#FFFFFF;" version="1.1" viewBox="0 0 1966 211" width="1966px" zoomAndPan="magnify"><defs/><g><!--MD5=[d79dfe199915b84e98cc8575d27d5f74]
class LerFicheiroColaboradorUI--><polygon fill="#F8F8F8" points="30.5,7,30.5,7.2102,40.2895,6.5857,50.0789,7.1933,59.8684,7.3997,69.6579,6.2866,79.4474,6.9223,89.2368,6.5735,99.0263,6.6165,108.8158,6.9318,118.6053,6.3086,128.3947,7.5536,138.1842,6.3697,147.9737,6.8022,157.7632,7.4319,167.5526,6.9142,177.3421,7.0682,187.1316,6.9681,196.9211,7.1785,206.7105,7.2391,216.5,7,217.0857,7,217.1711,17.7875,217.1793,28.575,216.7546,39.3625,216.9636,50.15,216.5,60.9375,216.5,61.6397,206.7105,60.2163,196.9211,61.616,187.1316,60.641,177.3421,61.4713,167.5526,60.4425,157.7632,60.869,147.9737,61.6791,138.1842,60.8888,128.3947,61.0428,118.6053,61.2761,108.8158,61.3537,99.0263,60.9336,89.2368,61.2247,79.4474,60.3651,69.6579,61.2219,59.8684,61.4857,50.0789,61.382,40.2895,61.5505,30.5,60.9375,30.0169,60.9375,29.8478,50.15,29.8786,39.3625,30.4411,28.575,30.3035,17.7875,30.5,7" style="stroke:#383838;stroke-width:1.5;"/><polygon fill="#C2C2C2" points="56.5608,28.6444,54.9484,30.8475,53.0412,34.0745,50.3136,36.2491,47.4474,37.4384,45.162,37.5416,42.2247,36.0543,39.4532,35.0827,37.3495,33.1099,36.2461,30.8515,35.5917,29.0533,34.9506,26.7045,33.91,24.6832,34.7096,22.7098,35.4102,20.548,38.0393,18.8382,39.889,16.6198,42.1784,15.8832,44.9001,15.2488,48.3904,15.6257,50.3021,16.5273,52.5247,16.9359,55.2272,19.7047,56.1693,22.6277,56.5786,24.6221,56.115,27.9086" style="stroke:#383838;stroke-width:1.0;"/><path d="M47.8438,21.6406 C46.9063,21.2031 46.3125,21.0625 45.4375,21.0625 C42.8125,21.0625 40.8125,23.1406 40.8125,25.8594 L40.8125,26.9844 C40.8125,29.5625 42.9219,31.4531 45.8125,31.4531 C47.0313,31.4531 48.1875,31.1563 48.9375,30.6094 C49.5156,30.2031 49.8438,29.75 49.8438,29.3594 C49.8438,28.9063 49.4531,28.5156 48.9844,28.5156 C48.7656,28.5156 48.5625,28.5938 48.375,28.7813 C47.9219,29.2656 47.9219,29.2656 47.7344,29.3594 C47.3125,29.625 46.625,29.75 45.8594,29.75 C43.8125,29.75 42.5156,28.6563 42.5156,26.9531 L42.5156,25.8594 C42.5156,24.0781 43.7656,22.7656 45.5,22.7656 C46.0781,22.7656 46.6875,22.9219 47.1563,23.1719 C47.6406,23.4531 47.8125,23.6719 47.9063,24.0781 C47.9688,24.4844 48,24.6094 48.1406,24.7344 C48.2813,24.875 48.5156,24.9844 48.7344,24.9844 C49,24.9844 49.2656,24.8438 49.4375,24.625 C49.5469,24.4688 49.5781,24.2813 49.5781,23.8594 L49.5781,22.4375 C49.5781,22 49.5625,21.875 49.4688,21.7188 C49.3125,21.4531 49.0313,21.3125 48.7344,21.3125 C48.4375,21.3125 48.2344,21.4063 48.0156,21.7188 L47.8438,21.6406 Z " fill="#000000"/><text fill="#000000" font-family="FG Virgil" font-size="12" font-style="italic" lengthAdjust="spacing" textLength="90" x="91.5" y="23.1387">«presentation»</text><text fill="#000000" font-family="FG Virgil" font-size="12" lengthAdjust="spacing" textLength="154" x="59.5" y="37.1074">LerFicheiroColaboradorUI</text><path d="M31.5,44.9375 L31.5,45.2177 L41.7222,44.3851 L51.9444,45.1952 L62.1667,45.4704 L72.3889,43.9863 L82.6111,44.8339 L92.8333,44.3688 L103.0556,44.4262 L113.2778,44.8466 L123.5,44.0157 L133.7222,45.6757 L143.9444,44.0971 L154.1667,44.6738 L164.3889,45.5134 L174.6111,44.8231 L184.8333,45.0285 L195.0556,44.8949 L205.2778,45.1755 L215.5,44.9375 " fill="#F8F8F8" style="stroke:#383838;stroke-width:1.5;"/><path d="M31.5,52.9375 L31.5,53.2177 L41.7222,52.3851 L51.9444,53.1952 L62.1667,53.4704 L72.3889,51.9863 L82.6111,52.8339 L92.8333,52.3688 L103.0556,52.4262 L113.2778,52.8466 L123.5,52.0157 L133.7222,53.6757 L143.9444,52.0971 L154.1667,52.6738 L164.3889,53.5134 L174.6111,52.8231 L184.8333,53.0285 L195.0556,52.8949 L205.2778,53.1755 L215.5,52.9375 " fill="#F8F8F8" style="stroke:#383838;stroke-width:1.5;"/><!--MD5=[52985be81d04422f77e6b48a5000a681]
class LerFicheiroColaboradorController--><polygon fill="#F8F8F8" points="7,138,7,138.2102,17.1304,137.5857,27.2609,138.1933,37.3913,138.3997,47.5217,137.2866,57.6522,137.9223,67.7826,137.5735,77.913,137.6165,88.0435,137.9318,98.1739,137.3086,108.3043,138.5536,118.4348,137.3697,128.5652,137.8022,138.6957,138.4319,148.8261,137.9142,158.9565,138.0682,169.087,137.9681,179.2174,138.1785,189.3478,138.2391,199.4783,138.5857,209.6087,138.6711,219.7391,138.6793,229.8696,138.2546,240,138,240.4636,138,240.7022,147.5346,239.2788,157.0692,240.6785,166.6038,239.7035,176.1384,240.5338,185.673,239.505,195.2076,240,204.7422,240,204.6737,229.8696,205.4838,219.7391,204.6935,209.6087,204.8475,199.4783,205.0808,189.3478,205.1584,179.2174,204.7383,169.087,205.0294,158.9565,204.1698,148.8261,205.0266,138.6957,205.2904,128.5652,205.1867,118.4348,205.3552,108.3043,204.2591,98.1739,204.09,88.0435,204.1208,77.913,204.6833,67.7826,204.5457,57.6522,205.4236,47.5217,204.5675,37.3913,204.3991,27.2609,204.9705,17.1304,204.0753,7,204.7422,6.4809,204.7422,7.649,195.2076,7.4357,185.673,7.7345,176.1384,6.6782,166.6038,7.3192,157.0692,7.5904,147.5346,7,138" style="stroke:#383838;stroke-width:1.5;"/><polygon fill="#C2C2C2" points="33.0608,159.6444,31.4484,161.8475,29.5412,165.0745,26.8136,167.2491,23.9474,168.4384,21.662,168.5416,18.7247,167.0543,15.9532,166.0827,13.8495,164.1099,12.7461,161.8515,12.0917,160.0533,11.4506,157.7045,10.41,155.6832,11.2096,153.7098,11.9102,151.548,14.5393,149.8382,16.389,147.6198,18.6784,146.8832,21.4001,146.2488,24.8904,146.6257,26.8021,147.5273,29.0247,147.9359,31.7272,150.7047,32.6693,153.6277,33.0786,155.6221,32.615,158.9086" style="stroke:#383838;stroke-width:1.0;"/><path d="M24.3438,152.6406 C23.4063,152.2031 22.8125,152.0625 21.9375,152.0625 C19.3125,152.0625 17.3125,154.1406 17.3125,156.8594 L17.3125,157.9844 C17.3125,160.5625 19.4219,162.4531 22.3125,162.4531 C23.5313,162.4531 24.6875,162.1563 25.4375,161.6094 C26.0156,161.2031 26.3438,160.75 26.3438,160.3594 C26.3438,159.9063 25.9531,159.5156 25.4844,159.5156 C25.2656,159.5156 25.0625,159.5938 24.875,159.7813 C24.4219,160.2656 24.4219,160.2656 24.2344,160.3594 C23.8125,160.625 23.125,160.75 22.3594,160.75 C20.3125,160.75 19.0156,159.6563 19.0156,157.9531 L19.0156,156.8594 C19.0156,155.0781 20.2656,153.7656 22,153.7656 C22.5781,153.7656 23.1875,153.9219 23.6563,154.1719 C24.1406,154.4531 24.3125,154.6719 24.4063,155.0781 C24.4688,155.4844 24.5,155.6094 24.6406,155.7344 C24.7813,155.875 25.0156,155.9844 25.2344,155.9844 C25.5,155.9844 25.7656,155.8438 25.9375,155.625 C26.0469,155.4688 26.0781,155.2813 26.0781,154.8594 L26.0781,153.4375 C26.0781,153 26.0625,152.875 25.9688,152.7188 C25.8125,152.4531 25.5313,152.3125 25.2344,152.3125 C24.9375,152.3125 24.7344,152.4063 24.5156,152.7188 L24.3438,152.6406 Z " fill="#000000"/><text fill="#000000" font-family="FG Virgil" font-size="12" font-style="italic" lengthAdjust="spacing" textLength="80" x="96.5" y="154.1387">«application»</text><text fill="#000000" font-family="FG Virgil" font-size="12" lengthAdjust="spacing" textLength="201" x="36" y="168.1074">LerFicheiroColaboradorController</text><path d="M8,175.9375 L8,176.2177 L18.0435,175.3851 L28.087,176.1952 L38.1304,176.4704 L48.1739,174.9863 L58.2174,175.8339 L68.2609,175.3688 L78.3043,175.4262 L88.3478,175.8466 L98.3913,175.0157 L108.4348,176.6757 L118.4783,175.0971 L128.5217,175.6738 L138.5652,176.5134 L148.6087,175.8231 L158.6522,176.0285 L168.6957,175.8949 L178.7391,176.1755 L188.7826,176.2563 L198.8261,176.7184 L208.8696,176.8322 L218.913,176.8432 L228.9565,176.277 L239,175.9375 " fill="#F8F8F8" style="stroke:#383838;stroke-width:1.5;"/><path d="M8,183.9375 L8,184.2177 L18.0435,183.3851 L28.087,184.1952 L38.1304,184.4704 L48.1739,182.9863 L58.2174,183.8339 L68.2609,183.3688 L78.3043,183.4262 L88.3478,183.8466 L98.3913,183.0157 L108.4348,184.6757 L118.4783,183.0971 L128.5217,183.6738 L138.5652,184.5134 L148.6087,183.8231 L158.6522,184.0285 L168.6957,183.8949 L178.7391,184.1755 L188.7826,184.2563 L198.8261,184.7184 L208.8696,184.8322 L218.913,184.8432 L228.9565,184.277 L239,183.9375 " fill="#F8F8F8" style="stroke:#383838;stroke-width:1.5;"/><text fill="#000000" font-family="FG Virgil" font-size="11" lengthAdjust="spacing" textLength="59" x="13" y="198.1479">lerDados()</text><!--MD5=[6a437b1acd26c5a2a00b38fcf07a2f73]
class LerFicheiroColaborador--><polygon fill="#F8F8F8" points="891.5,138,891.5,138.2102,901.7353,137.5857,911.9706,138.1933,922.2059,138.3997,932.4412,137.2866,942.6765,137.9223,952.9118,137.5735,963.1471,137.6165,973.3824,137.9318,983.6176,137.3086,993.8529,138.5536,1004.0882,137.3697,1014.3235,137.8022,1024.5588,138.4319,1034.7941,137.9142,1045.0294,138.0682,1055.2647,137.9681,1065.5,138,1065.6785,138,1065.7391,147.5346,1066.0857,157.0692,1066.1711,166.6038,1066.1793,176.1384,1065.7546,185.673,1065.9636,195.2076,1065.5,204.7422,1065.5,205.4444,1055.2647,204.021,1045.0294,205.4207,1034.7941,204.4457,1024.5588,205.276,1014.3235,204.2472,1004.0882,204.6737,993.8529,205.4838,983.6176,204.6935,973.3824,204.8475,963.1471,205.0808,952.9118,205.1584,942.6765,204.7383,932.4412,205.0294,922.2059,204.1698,911.9706,205.0266,901.7353,205.2904,891.5,204.7422,891.9445,204.7422,892.113,195.2076,891.0169,185.673,890.8478,176.1384,890.8786,166.6038,891.4411,157.0692,891.3035,147.5346,891.5,138" style="stroke:#383838;stroke-width:1.5;"/><polygon fill="#C2C2C2" points="917.5608,159.6444,915.9484,161.8475,914.0412,165.0745,911.3136,167.2491,908.4474,168.4384,906.162,168.5416,903.2247,167.0543,900.4532,166.0827,898.3495,164.1099,897.2461,161.8515,896.5917,160.0533,895.9506,157.7045,894.91,155.6832,895.7096,153.7098,896.4102,151.548,899.0393,149.8382,900.889,147.6198,903.1784,146.8832,905.9001,146.2488,909.3904,146.6257,911.3021,147.5273,913.5247,147.9359,916.2272,150.7047,917.1693,153.6277,917.5786,155.6221,917.115,158.9086" style="stroke:#383838;stroke-width:1.0;"/><path d="M908.8438,152.6406 C907.9063,152.2031 907.3125,152.0625 906.4375,152.0625 C903.8125,152.0625 901.8125,154.1406 901.8125,156.8594 L901.8125,157.9844 C901.8125,160.5625 903.9219,162.4531 906.8125,162.4531 C908.0313,162.4531 909.1875,162.1563 909.9375,161.6094 C910.5156,161.2031 910.8438,160.75 910.8438,160.3594 C910.8438,159.9063 910.4531,159.5156 909.9844,159.5156 C909.7656,159.5156 909.5625,159.5938 909.375,159.7813 C908.9219,160.2656 908.9219,160.2656 908.7344,160.3594 C908.3125,160.625 907.625,160.75 906.8594,160.75 C904.8125,160.75 903.5156,159.6563 903.5156,157.9531 L903.5156,156.8594 C903.5156,155.0781 904.7656,153.7656 906.5,153.7656 C907.0781,153.7656 907.6875,153.9219 908.1563,154.1719 C908.6406,154.4531 908.8125,154.6719 908.9063,155.0781 C908.9688,155.4844 909,155.6094 909.1406,155.7344 C909.2813,155.875 909.5156,155.9844 909.7344,155.9844 C910,155.9844 910.2656,155.8438 910.4375,155.625 C910.5469,155.4688 910.5781,155.2813 910.5781,154.8594 L910.5781,153.4375 C910.5781,153 910.5625,152.875 910.4688,152.7188 C910.3125,152.4531 910.0313,152.3125 909.7344,152.3125 C909.4375,152.3125 909.2344,152.4063 909.0156,152.7188 L908.8438,152.6406 Z " fill="#000000"/><text fill="#000000" font-family="FG Virgil" font-size="12" font-style="italic" lengthAdjust="spacing" textLength="59" x="962" y="154.1387">«domain»</text><text fill="#000000" font-family="FG Virgil" font-size="12" lengthAdjust="spacing" textLength="142" x="920.5" y="168.1074">LerFicheiroColaborador</text><path d="M892.5,175.9375 L892.5,176.2177 L902.6176,175.3851 L912.7353,176.1952 L922.8529,176.4704 L932.9706,174.9863 L943.0882,175.8339 L953.2059,175.3688 L963.3235,175.4262 L973.4412,175.8466 L983.5588,175.0157 L993.6765,176.6757 L1003.7941,175.0971 L1013.9118,175.6738 L1024.0294,176.5134 L1034.1471,175.8231 L1044.2647,176.0285 L1054.3824,175.8949 L1064.5,175.9375 " fill="#F8F8F8" style="stroke:#383838;stroke-width:1.5;"/><path d="M892.5,183.9375 L892.5,184.2177 L902.6176,183.3851 L912.7353,184.1952 L922.8529,184.4704 L932.9706,182.9863 L943.0882,183.8339 L953.2059,183.3688 L963.3235,183.4262 L973.4412,183.8466 L983.5588,183.0157 L993.6765,184.6757 L1003.7941,183.0971 L1013.9118,183.6738 L1024.0294,184.5134 L1034.1471,183.8231 L1044.2647,184.0285 L1054.3824,183.8949 L1064.5,183.9375 " fill="#F8F8F8" style="stroke:#383838;stroke-width:1.5;"/><text fill="#000000" font-family="FG Virgil" font-size="11" lengthAdjust="spacing" textLength="59" x="897.5" y="198.1479">lerDados()</text><!--MD5=[ac8682ea5466d223e49472789fb200d2]
class Colaborador--><polygon fill="#F8F8F8" points="1284,138,1284,138.2102,1293.9265,137.5857,1303.8529,138.1933,1313.7794,138.3997,1323.7059,137.2866,1333.6324,137.9223,1343.5588,137.5735,1353.4853,137.6165,1363.4118,137.9318,1373.3382,137.3086,1383.2647,138.5536,1393.1912,137.3697,1403.1176,137.8022,1413.0441,138.4319,1422.9706,137.9142,1432.8971,138.0682,1442.8235,137.9681,1452.75,138.1785,1462.6765,138.2391,1472.6029,138.5857,1482.5294,138.6711,1492.4559,138.6793,1502.3824,138.2546,1512.3088,138.4636,1522.2353,138.7022,1532.1618,137.2788,1542.0882,138.6785,1552.0147,137.7035,1561.9412,138.5338,1571.8676,137.505,1581.7941,137.9315,1591.7206,138.7416,1601.6471,137.9513,1611.5735,138.1053,1621.5,138.3386,1631.4265,138.4162,1641.3529,137.9961,1651.2794,138.2872,1661.2059,137.4276,1671.1324,138.2844,1681.0588,138.5482,1690.9853,138.4445,1700.9118,138.613,1710.8382,137.5169,1720.7647,137.3478,1730.6912,137.3786,1740.6176,137.9411,1750.5441,137.8035,1760.4706,138.6814,1770.3971,137.8253,1780.3235,137.6569,1790.25,138.2283,1800.1765,137.3332,1810.1029,137.4809,1820.0294,138.649,1829.9559,138.4357,1839.8824,138.7345,1849.8088,137.6782,1859.7353,138.3192,1869.6618,138.5904,1879.5882,137.5276,1889.5147,137.9041,1899.4412,138.126,1909.3676,138.6518,1919.2941,137.9958,1929.2206,138.4626,1939.1471,137.4462,1949.0735,137.3227,1959,138,1959.5036,138,1958.2831,147.5346,1959.509,157.0692,1959.2066,166.6038,1958.7321,176.1384,1958.6462,185.673,1959.4588,195.2076,1959,204.7422,1959,204.4429,1949.0735,205.334,1939.1471,204.1894,1929.2206,205.3596,1919.2941,205.2265,1909.3676,204.9872,1899.4412,204.7894,1889.5147,205.4688,1879.5882,205.3558,1869.6618,204.9114,1859.7353,205.0104,1849.8088,204.6119,1839.8824,205.4586,1829.9559,204.8971,1820.0294,204.9148,1810.1029,204.1338,1800.1765,204.337,1790.25,205.2729,1780.3235,205.1719,1770.3971,204.6993,1760.4706,204.42,1750.5441,204.5233,1740.6176,204.056,1730.6912,205.1569,1720.7647,205.4818,1710.8382,205.2686,1700.9118,205.4371,1690.9853,204.6055,1681.0588,204.8294,1671.1324,204.3546,1661.2059,205.0262,1651.2794,204.989,1641.3529,205.2946,1631.4265,204.5125,1621.5,204.6078,1611.5735,205.1856,1601.6471,205.3095,1591.7206,204.2297,1581.7941,204.5483,1571.8676,204.8915,1561.9412,204.1313,1552.0147,205.0956,1542.0882,205.0002,1532.1618,204.6414,1522.2353,204.8844,1512.3088,205.4709,1502.3824,204.4293,1492.4559,205.0572,1482.5294,205.0278,1472.6029,204.858,1462.6765,204.8831,1452.75,204.8557,1442.8235,204.118,1432.8971,204.3414,1422.9706,204.2807,1413.0441,204.806,1403.1176,204.8303,1393.1912,204.9039,1383.2647,204.4512,1373.3382,204.6747,1363.4118,204.622,1353.4853,205.319,1343.5588,205.1688,1333.6324,204.2567,1323.7059,204.6693,1313.7794,204.165,1303.8529,205.0306,1293.9265,205.3507,1284,204.7422,1284.5446,204.7422,1283.5644,195.2076,1284.464,185.673,1283.2572,176.1384,1284.2002,166.6038,1283.7007,157.0692,1284.0967,147.5346,1284,138" style="stroke:#383838;stroke-width:1.5;"/><polygon fill="#C2C2C2" points="1590.8108,159.6444,1589.1984,161.8475,1587.2912,165.0745,1584.5636,167.2491,1581.6974,168.4384,1579.412,168.5416,1576.4747,167.0543,1573.7032,166.0827,1571.5995,164.1099,1570.4961,161.8515,1569.8417,160.0533,1569.2006,157.7045,1568.16,155.6832,1568.9596,153.7098,1569.6602,151.548,1572.2893,149.8382,1574.139,147.6198,1576.4284,146.8832,1579.1501,146.2488,1582.6404,146.6257,1584.5521,147.5273,1586.7747,147.9359,1589.4772,150.7047,1590.4193,153.6277,1590.8286,155.6221,1590.365,158.9086" style="stroke:#383838;stroke-width:1.0;"/><path d="M1582.0938,152.6406 C1581.1563,152.2031 1580.5625,152.0625 1579.6875,152.0625 C1577.0625,152.0625 1575.0625,154.1406 1575.0625,156.8594 L1575.0625,157.9844 C1575.0625,160.5625 1577.1719,162.4531 1580.0625,162.4531 C1581.2813,162.4531 1582.4375,162.1563 1583.1875,161.6094 C1583.7656,161.2031 1584.0938,160.75 1584.0938,160.3594 C1584.0938,159.9063 1583.7031,159.5156 1583.2344,159.5156 C1583.0156,159.5156 1582.8125,159.5938 1582.625,159.7813 C1582.1719,160.2656 1582.1719,160.2656 1581.9844,160.3594 C1581.5625,160.625 1580.875,160.75 1580.1094,160.75 C1578.0625,160.75 1576.7656,159.6563 1576.7656,157.9531 L1576.7656,156.8594 C1576.7656,155.0781 1578.0156,153.7656 1579.75,153.7656 C1580.3281,153.7656 1580.9375,153.9219 1581.4063,154.1719 C1581.8906,154.4531 1582.0625,154.6719 1582.1563,155.0781 C1582.2188,155.4844 1582.25,155.6094 1582.3906,155.7344 C1582.5313,155.875 1582.7656,155.9844 1582.9844,155.9844 C1583.25,155.9844 1583.5156,155.8438 1583.6875,155.625 C1583.7969,155.4688 1583.8281,155.2813 1583.8281,154.8594 L1583.8281,153.4375 C1583.8281,153 1583.8125,152.875 1583.7188,152.7188 C1583.5625,152.4531 1583.2813,152.3125 1582.9844,152.3125 C1582.6875,152.3125 1582.4844,152.4063 1582.2656,152.7188 L1582.0938,152.6406 Z " fill="#000000"/><text fill="#000000" font-family="FG Virgil" font-size="12" font-style="italic" lengthAdjust="spacing" textLength="59" x="1608.25" y="154.1387">«domain»</text><text fill="#000000" font-family="FG Virgil" font-size="12" lengthAdjust="spacing" textLength="75" x="1600.25" y="168.1074">Colaborador</text><path d="M1285,175.9375 L1285,176.2177 L1295.0448,175.3851 L1305.0896,176.1952 L1315.1343,176.4704 L1325.1791,174.9863 L1335.2239,175.8339 L1345.2687,175.3688 L1355.3134,175.4262 L1365.3582,175.8466 L1375.403,175.0157 L1385.4478,176.6757 L1395.4925,175.0971 L1405.5373,175.6738 L1415.5821,176.5134 L1425.6269,175.8231 L1435.6716,176.0285 L1445.7164,175.8949 L1455.7612,176.1755 L1465.806,176.2563 L1475.8507,176.7184 L1485.8955,176.8322 L1495.9403,176.8432 L1505.9851,176.277 L1516.0299,176.5556 L1526.0746,176.8738 L1536.1194,174.9759 L1546.1642,176.8422 L1556.209,175.5422 L1566.2537,176.6492 L1576.2985,175.2775 L1586.3433,175.8462 L1596.3881,176.9263 L1606.4328,175.8725 L1616.4776,176.0779 L1626.5224,176.389 L1636.5672,176.4925 L1646.6119,175.9323 L1656.6567,176.3205 L1666.7015,175.1743 L1676.7463,176.3167 L1686.791,176.6684 L1696.8358,176.5302 L1706.8806,176.7549 L1716.9254,175.2934 L1726.9701,175.0679 L1737.0149,175.109 L1747.0597,175.859 L1757.1045,175.6755 L1767.1493,176.846 L1777.194,175.7046 L1787.2388,175.4801 L1797.2836,176.2419 L1807.3284,175.0484 L1817.3731,175.2453 L1827.4179,176.8028 L1837.4627,176.5184 L1847.5075,176.9168 L1857.5522,175.5084 L1867.597,176.3631 L1877.6418,176.7247 L1887.6866,175.3076 L1897.7313,175.8097 L1907.7761,176.1055 L1917.8209,176.8065 L1927.8657,175.9319 L1937.9104,176.5543 L1947.9552,175.1991 L1958,175.9375 " fill="#F8F8F8" style="stroke:#383838;stroke-width:1.5;"/><path d="M1285,183.9375 L1285,184.2177 L1295.0448,183.3851 L1305.0896,184.1952 L1315.1343,184.4704 L1325.1791,182.9863 L1335.2239,183.8339 L1345.2687,183.3688 L1355.3134,183.4262 L1365.3582,183.8466 L1375.403,183.0157 L1385.4478,184.6757 L1395.4925,183.0971 L1405.5373,183.6738 L1415.5821,184.5134 L1425.6269,183.8231 L1435.6716,184.0285 L1445.7164,183.8949 L1455.7612,184.1755 L1465.806,184.2563 L1475.8507,184.7184 L1485.8955,184.8322 L1495.9403,184.8432 L1505.9851,184.277 L1516.0299,184.5556 L1526.0746,184.8738 L1536.1194,182.9759 L1546.1642,184.8422 L1556.209,183.5422 L1566.2537,184.6492 L1576.2985,183.2775 L1586.3433,183.8462 L1596.3881,184.9263 L1606.4328,183.8725 L1616.4776,184.0779 L1626.5224,184.389 L1636.5672,184.4925 L1646.6119,183.9323 L1656.6567,184.3205 L1666.7015,183.1743 L1676.7463,184.3167 L1686.791,184.6684 L1696.8358,184.5302 L1706.8806,184.7549 L1716.9254,183.2934 L1726.9701,183.0679 L1737.0149,183.109 L1747.0597,183.859 L1757.1045,183.6755 L1767.1493,184.846 L1777.194,183.7046 L1787.2388,183.4801 L1797.2836,184.2419 L1807.3284,183.0484 L1817.3731,183.2453 L1827.4179,184.8028 L1837.4627,184.5184 L1847.5075,184.9168 L1857.5522,183.5084 L1867.597,184.3631 L1877.6418,184.7247 L1887.6866,183.3076 L1897.7313,183.8097 L1907.7761,184.1055 L1917.8209,184.8065 L1927.8657,183.9319 L1937.9104,184.5543 L1947.9552,183.1991 L1958,183.9375 " fill="#F8F8F8" style="stroke:#383838;stroke-width:1.5;"/><text fill="#000000" font-family="FG Virgil" font-size="11" lengthAdjust="spacing" textLength="663" x="1290" y="198.1479">new Colaborador(numMecanografico,nomeCurto,nomeCompleto,dataNascimento,localResidencia,endereco,contacto)</text><!--MD5=[e6c63db5240f7c9aea50f4d0a5b19113]
class SystemUserBuilder--><polygon fill="#F8F8F8" points="1100.5,138,1100.5,138.2102,1110.3667,137.5857,1120.2333,138.1933,1130.1,138.3997,1139.9667,137.2866,1149.8333,137.9223,1159.7,137.5735,1169.5667,137.6165,1179.4333,137.9318,1189.3,137.3086,1199.1667,138.5536,1209.0333,137.3697,1218.9,137.8022,1228.7667,138.4319,1238.6333,137.9142,1248.5,138,1248.5682,138,1248.4681,147.5346,1248.6785,157.0692,1248.7391,166.6038,1249.0857,176.1384,1249.1711,185.673,1249.1793,195.2076,1248.5,204.7422,1248.5,204.9968,1238.6333,205.2058,1228.7667,205.4444,1218.9,204.021,1209.0333,205.4207,1199.1667,204.4457,1189.3,205.276,1179.4333,204.2472,1169.5667,204.6737,1159.7,205.4838,1149.8333,204.6935,1139.9667,204.8475,1130.1,205.0808,1120.2333,205.1584,1110.3667,204.7383,1100.5,204.7422,1100.7872,204.7422,1099.9276,195.2076,1100.7844,185.673,1101.0482,176.1384,1100.9445,166.6038,1101.113,157.0692,1100.0169,147.5346,1100.5,138" style="stroke:#383838;stroke-width:1.5;"/><polygon fill="#C2C2C2" points="1126.5608,159.6444,1124.9484,161.8475,1123.0412,165.0745,1120.3136,167.2491,1117.4474,168.4384,1115.162,168.5416,1112.2247,167.0543,1109.4532,166.0827,1107.3495,164.1099,1106.2461,161.8515,1105.5917,160.0533,1104.9506,157.7045,1103.91,155.6832,1104.7096,153.7098,1105.4102,151.548,1108.0393,149.8382,1109.889,147.6198,1112.1784,146.8832,1114.9001,146.2488,1118.3904,146.6257,1120.3021,147.5273,1122.5247,147.9359,1125.2272,150.7047,1126.1693,153.6277,1126.5786,155.6221,1126.115,158.9086" style="stroke:#383838;stroke-width:1.0;"/><path d="M1117.8438,152.6406 C1116.9063,152.2031 1116.3125,152.0625 1115.4375,152.0625 C1112.8125,152.0625 1110.8125,154.1406 1110.8125,156.8594 L1110.8125,157.9844 C1110.8125,160.5625 1112.9219,162.4531 1115.8125,162.4531 C1117.0313,162.4531 1118.1875,162.1563 1118.9375,161.6094 C1119.5156,161.2031 1119.8438,160.75 1119.8438,160.3594 C1119.8438,159.9063 1119.4531,159.5156 1118.9844,159.5156 C1118.7656,159.5156 1118.5625,159.5938 1118.375,159.7813 C1117.9219,160.2656 1117.9219,160.2656 1117.7344,160.3594 C1117.3125,160.625 1116.625,160.75 1115.8594,160.75 C1113.8125,160.75 1112.5156,159.6563 1112.5156,157.9531 L1112.5156,156.8594 C1112.5156,155.0781 1113.7656,153.7656 1115.5,153.7656 C1116.0781,153.7656 1116.6875,153.9219 1117.1563,154.1719 C1117.6406,154.4531 1117.8125,154.6719 1117.9063,155.0781 C1117.9688,155.4844 1118,155.6094 1118.1406,155.7344 C1118.2813,155.875 1118.5156,155.9844 1118.7344,155.9844 C1119,155.9844 1119.2656,155.8438 1119.4375,155.625 C1119.5469,155.4688 1119.5781,155.2813 1119.5781,154.8594 L1119.5781,153.4375 C1119.5781,153 1119.5625,152.875 1119.4688,152.7188 C1119.3125,152.4531 1119.0313,152.3125 1118.7344,152.3125 C1118.4375,152.3125 1118.2344,152.4063 1118.0156,152.7188 L1117.8438,152.6406 Z " fill="#000000"/><text fill="#000000" font-family="FG Virgil" font-size="12" font-style="italic" lengthAdjust="spacing" textLength="59" x="1158" y="154.1387">«domain»</text><text fill="#000000" font-family="FG Virgil" font-size="12" lengthAdjust="spacing" textLength="116" x="1129.5" y="168.1074">SystemUserBuilder</text><path d="M1101.5,175.9375 L1101.5,176.2177 L1111.2333,175.3851 L1120.9667,176.1952 L1130.7,176.4704 L1140.4333,174.9863 L1150.1667,175.8339 L1159.9,175.3688 L1169.6333,175.4262 L1179.3667,175.8466 L1189.1,175.0157 L1198.8333,176.6757 L1208.5667,175.0971 L1218.3,175.6738 L1228.0333,176.5134 L1237.7667,175.8231 L1247.5,175.9375 " fill="#F8F8F8" style="stroke:#383838;stroke-width:1.5;"/><path d="M1101.5,183.9375 L1101.5,184.2177 L1111.2333,183.3851 L1120.9667,184.1952 L1130.7,184.4704 L1140.4333,182.9863 L1150.1667,183.8339 L1159.9,183.3688 L1169.6333,183.4262 L1179.3667,183.8466 L1189.1,183.0157 L1198.8333,184.6757 L1208.5667,183.0971 L1218.3,183.6738 L1228.0333,184.5134 L1237.7667,183.8231 L1247.5,183.9375 " fill="#F8F8F8" style="stroke:#383838;stroke-width:1.5;"/><text fill="#000000" font-family="FG Virgil" font-size="11" lengthAdjust="spacing" textLength="35" x="1106.5" y="198.1479">build()</text><!--MD5=[29f97d496cbdc4ec81664c6d94dc9bf6]
class UserController--><polygon fill="#F8F8F8" points="482.5,138,482.5,138.2102,492.6081,137.5857,502.7162,138.1933,512.8243,138.3997,522.9324,137.2866,533.0405,137.9223,543.1486,137.5735,553.2568,137.6165,563.3649,137.9318,573.473,137.3086,583.5811,138.5536,593.6892,137.3697,603.7973,137.8022,613.9054,138.4319,624.0135,137.9142,634.1216,138.0682,644.2297,137.9681,654.3378,138.1785,664.4459,138.2391,674.5541,138.5857,684.6622,138.6711,694.7703,138.6793,704.8784,138.2546,714.9865,138.4636,725.0946,138.7022,735.2027,137.2788,745.3108,138.6785,755.4189,137.7035,765.527,138.5338,775.6351,137.505,785.7432,137.9315,795.8514,138.7416,805.9595,137.9513,816.0676,138.1053,826.1757,138.3386,836.2838,138.4162,846.3919,137.9961,856.5,138,856.7872,138,855.9276,147.5346,856.7844,157.0692,857.0482,166.6038,856.9445,176.1384,857.113,185.673,856.0169,195.2076,856.5,204.7422,856.5,204.09,846.3919,204.1208,836.2838,204.6833,826.1757,204.5457,816.0676,205.4236,805.9595,204.5675,795.8514,204.3991,785.7432,204.9705,775.6351,204.0753,765.527,204.2231,755.4189,205.3911,745.3108,205.1779,735.2027,205.4767,725.0946,204.4204,714.9865,205.0614,704.8784,205.3326,694.7703,204.2698,684.6622,204.6463,674.5541,204.8682,664.4459,205.3939,654.3378,204.738,644.2297,205.2048,634.1216,204.1884,624.0135,204.0649,613.9054,205.2458,603.7973,204.0252,593.6892,205.2511,583.5811,204.9488,573.473,204.4743,563.3649,204.3884,553.2568,205.2009,543.1486,204.4429,533.0405,205.334,522.9324,204.1894,512.8243,205.3596,502.7162,205.2265,492.6081,204.9872,482.5,204.7422,482.5472,204.7422,483.2266,195.2076,483.1136,185.673,482.6693,176.1384,482.7682,166.6038,482.3697,157.0692,483.2165,147.5346,482.5,138" style="stroke:#383838;stroke-width:1.5;"/><polygon fill="#C2C2C2" points="632.3108,159.6444,630.6984,161.8475,628.7912,165.0745,626.0636,167.2491,623.1974,168.4384,620.912,168.5416,617.9747,167.0543,615.2032,166.0827,613.0995,164.1099,611.9961,161.8515,611.3417,160.0533,610.7006,157.7045,609.66,155.6832,610.4596,153.7098,611.1602,151.548,613.7893,149.8382,615.639,147.6198,617.9284,146.8832,620.6501,146.2488,624.1404,146.6257,626.0521,147.5273,628.2747,147.9359,630.9772,150.7047,631.9193,153.6277,632.3286,155.6221,631.865,158.9086" style="stroke:#383838;stroke-width:1.0;"/><path d="M623.5938,152.6406 C622.6563,152.2031 622.0625,152.0625 621.1875,152.0625 C618.5625,152.0625 616.5625,154.1406 616.5625,156.8594 L616.5625,157.9844 C616.5625,160.5625 618.6719,162.4531 621.5625,162.4531 C622.7813,162.4531 623.9375,162.1563 624.6875,161.6094 C625.2656,161.2031 625.5938,160.75 625.5938,160.3594 C625.5938,159.9063 625.2031,159.5156 624.7344,159.5156 C624.5156,159.5156 624.3125,159.5938 624.125,159.7813 C623.6719,160.2656 623.6719,160.2656 623.4844,160.3594 C623.0625,160.625 622.375,160.75 621.6094,160.75 C619.5625,160.75 618.2656,159.6563 618.2656,157.9531 L618.2656,156.8594 C618.2656,155.0781 619.5156,153.7656 621.25,153.7656 C621.8281,153.7656 622.4375,153.9219 622.9063,154.1719 C623.3906,154.4531 623.5625,154.6719 623.6563,155.0781 C623.7188,155.4844 623.75,155.6094 623.8906,155.7344 C624.0313,155.875 624.2656,155.9844 624.4844,155.9844 C624.75,155.9844 625.0156,155.8438 625.1875,155.625 C625.2969,155.4688 625.3281,155.2813 625.3281,154.8594 L625.3281,153.4375 C625.3281,153 625.3125,152.875 625.2188,152.7188 C625.0625,152.4531 624.7813,152.3125 624.4844,152.3125 C624.1875,152.3125 623.9844,152.4063 623.7656,152.7188 L623.5938,152.6406 Z " fill="#000000"/><text fill="#000000" font-family="FG Virgil" font-size="12" font-style="italic" lengthAdjust="spacing" textLength="90" x="640.75" y="154.1387">«presentation»</text><text fill="#000000" font-family="FG Virgil" font-size="12" lengthAdjust="spacing" textLength="88" x="641.75" y="168.1074">UserController</text><path d="M483.5,175.9375 L483.5,176.2177 L493.5541,175.3851 L503.6081,176.1952 L513.6622,176.4704 L523.7162,174.9863 L533.7703,175.8339 L543.8243,175.3688 L553.8784,175.4262 L563.9324,175.8466 L573.9865,175.0157 L584.0405,176.6757 L594.0946,175.0971 L604.1486,175.6738 L614.2027,176.5134 L624.2568,175.8231 L634.3108,176.0285 L644.3649,175.8949 L654.4189,176.1755 L664.473,176.2563 L674.527,176.7184 L684.5811,176.8322 L694.6351,176.8432 L704.6892,176.277 L714.7432,176.5556 L724.7973,176.8738 L734.8514,174.9759 L744.9054,176.8422 L754.9595,175.5422 L765.0135,176.6492 L775.0676,175.2775 L785.1216,175.8462 L795.1757,176.9263 L805.2297,175.8725 L815.2838,176.0779 L825.3378,176.389 L835.3919,176.4925 L845.4459,175.9323 L855.5,175.9375 " fill="#F8F8F8" style="stroke:#383838;stroke-width:1.5;"/><path d="M483.5,183.9375 L483.5,184.2177 L493.5541,183.3851 L503.6081,184.1952 L513.6622,184.4704 L523.7162,182.9863 L533.7703,183.8339 L543.8243,183.3688 L553.8784,183.4262 L563.9324,183.8466 L573.9865,183.0157 L584.0405,184.6757 L594.0946,183.0971 L604.1486,183.6738 L614.2027,184.5134 L624.2568,183.8231 L634.3108,184.0285 L644.3649,183.8949 L654.4189,184.1755 L664.473,184.2563 L674.527,184.7184 L684.5811,184.8322 L694.6351,184.8432 L704.6892,184.277 L714.7432,184.5556 L724.7973,184.8738 L734.8514,182.9759 L744.9054,184.8422 L754.9595,183.5422 L765.0135,184.6492 L775.0676,183.2775 L785.1216,183.8462 L795.1757,184.9263 L805.2297,183.8725 L815.2838,184.0779 L825.3378,184.389 L835.3919,184.4925 L845.4459,183.9323 L855.5,183.9375 " fill="#F8F8F8" style="stroke:#383838;stroke-width:1.5;"/><text fill="#000000" font-family="FG Virgil" font-size="11" lengthAdjust="spacing" textLength="362" x="488.5" y="198.1479">addUser(username,password,firstname,lastName,endereco,set)</text><!--MD5=[9a0e8f7957502662f95e783c1c3d84fe]
class ColaboradorRepository--><polygon fill="#F8F8F8" points="275.5,138,275.5,138.2102,285.6176,137.5857,295.7353,138.1933,305.8529,138.3997,315.9706,137.2866,326.0882,137.9223,336.2059,137.5735,346.3235,137.6165,356.4412,137.9318,366.5588,137.3086,376.6765,138.5536,386.7941,137.3697,396.9118,137.8022,407.0294,138.4319,417.1471,137.9142,427.2647,138.0682,437.3824,137.9681,447.5,138,447.6785,138,447.7391,147.5346,448.0857,157.0692,448.1711,166.6038,448.1793,176.1384,447.7546,185.673,447.9636,195.2076,447.5,204.7422,447.5,205.4444,437.3824,204.021,427.2647,205.4207,417.1471,204.4457,407.0294,205.276,396.9118,204.2472,386.7941,204.6737,376.6765,205.4838,366.5588,204.6935,356.4412,204.8475,346.3235,205.0808,336.2059,205.1584,326.0882,204.7383,315.9706,205.0294,305.8529,204.1698,295.7353,205.0266,285.6176,205.2904,275.5,204.7422,275.9445,204.7422,276.113,195.2076,275.0169,185.673,274.8478,176.1384,274.8786,166.6038,275.4411,157.0692,275.3035,147.5346,275.5,138" style="stroke:#383838;stroke-width:1.5;"/><polygon fill="#C2C2C2" points="301.5608,159.6444,299.9484,161.8475,298.0412,165.0745,295.3136,167.2491,292.4474,168.4384,290.162,168.5416,287.2247,167.0543,284.4532,166.0827,282.3495,164.1099,281.2461,161.8515,280.5917,160.0533,279.9506,157.7045,278.91,155.6832,279.7096,153.7098,280.4102,151.548,283.0393,149.8382,284.889,147.6198,287.1784,146.8832,289.9001,146.2488,293.3904,146.6257,295.3021,147.5273,297.5247,147.9359,300.2272,150.7047,301.1693,153.6277,301.5786,155.6221,301.115,158.9086" style="stroke:#383838;stroke-width:1.0;"/><path d="M292.8438,152.6406 C291.9063,152.2031 291.3125,152.0625 290.4375,152.0625 C287.8125,152.0625 285.8125,154.1406 285.8125,156.8594 L285.8125,157.9844 C285.8125,160.5625 287.9219,162.4531 290.8125,162.4531 C292.0313,162.4531 293.1875,162.1563 293.9375,161.6094 C294.5156,161.2031 294.8438,160.75 294.8438,160.3594 C294.8438,159.9063 294.4531,159.5156 293.9844,159.5156 C293.7656,159.5156 293.5625,159.5938 293.375,159.7813 C292.9219,160.2656 292.9219,160.2656 292.7344,160.3594 C292.3125,160.625 291.625,160.75 290.8594,160.75 C288.8125,160.75 287.5156,159.6563 287.5156,157.9531 L287.5156,156.8594 C287.5156,155.0781 288.7656,153.7656 290.5,153.7656 C291.0781,153.7656 291.6875,153.9219 292.1563,154.1719 C292.6406,154.4531 292.8125,154.6719 292.9063,155.0781 C292.9688,155.4844 293,155.6094 293.1406,155.7344 C293.2813,155.875 293.5156,155.9844 293.7344,155.9844 C294,155.9844 294.2656,155.8438 294.4375,155.625 C294.5469,155.4688 294.5781,155.2813 294.5781,154.8594 L294.5781,153.4375 C294.5781,153 294.5625,152.875 294.4688,152.7188 C294.3125,152.4531 294.0313,152.3125 293.7344,152.3125 C293.4375,152.3125 293.2344,152.4063 293.0156,152.7188 L292.8438,152.6406 Z " fill="#000000"/><text fill="#000000" font-family="FG Virgil" font-size="12" font-style="italic" lengthAdjust="spacing" textLength="74" x="337.5" y="154.1387">«repository»</text><text fill="#000000" font-family="FG Virgil" font-size="12" lengthAdjust="spacing" textLength="140" x="304.5" y="168.1074">ColaboradorRepository</text><path d="M276.5,175.9375 L276.5,176.2177 L286.5,175.3851 L296.5,176.1952 L306.5,176.4704 L316.5,174.9863 L326.5,175.8339 L336.5,175.3688 L346.5,175.4262 L356.5,175.8466 L366.5,175.0157 L376.5,176.6757 L386.5,175.0971 L396.5,175.6738 L406.5,176.5134 L416.5,175.8231 L426.5,176.0285 L436.5,175.8949 L446.5,175.9375 " fill="#F8F8F8" style="stroke:#383838;stroke-width:1.5;"/><path d="M276.5,183.9375 L276.5,184.2177 L286.5,183.3851 L296.5,184.1952 L306.5,184.4704 L316.5,182.9863 L326.5,183.8339 L336.5,183.3688 L346.5,183.4262 L356.5,183.8466 L366.5,183.0157 L376.5,184.6757 L386.5,183.0971 L396.5,183.6738 L406.5,184.5134 L416.5,183.8231 L426.5,184.0285 L436.5,183.8949 L446.5,183.9375 " fill="#F8F8F8" style="stroke:#383838;stroke-width:1.5;"/><text fill="#000000" font-family="FG Virgil" font-size="11" lengthAdjust="spacing" textLength="66" x="281.5" y="198.1479">save(colab)</text><!--MD5=[f3d7e04391e91beac97e94fec0a3e268]
link LerFicheiroColaboradorUI to LerFicheiroColaboradorController--><path d="M123.5,61.126 L123.7802,61.126 L122.9476,71.3471 L123.7577,81.5682 L124.0329,91.7893 L122.5488,102.0104 L123.3964,112.2315 L122.9313,122.4526 L123.5,132.6737 " fill="none" style="stroke:#383838;stroke-width:1.0;"/><polygon fill="#383838" points="123.5,137.7424,123.564,137.7709,124.1738,135.8863,125.1589,134.1686,126.0217,132.3965,126.4827,130.4458,127.5,128.7424,127.4817,128.7241,126.5995,129.4419,125.8096,130.252,125.0839,131.1263,124.137,131.7794,123.5,132.7424,123.6305,132.8729,122.5514,131.7938,121.8534,131.0958,121.2018,130.4442,120.2798,129.5222,119.5,128.7424,119.5208,128.7516,120.2903,130.5381,121.1544,132.3666,121.9728,134.1748,122.8784,136.0217,123.5,137.7424" style="stroke:#383838;stroke-width:1.0;"/><text fill="#000000" font-family="FG Virgil" font-size="13" lengthAdjust="spacing" textLength="83" x="124.5" y="104.0669">theController</text><!--MD5=[76fb0d8cb84f0704b31c4d722d8016d9]
link LerFicheiroColaboradorController to LerFicheiroColaborador--><path d="M179.279,137.8787 L179.3221,137.9616 L181.355,136.5901 L183.6408,135.7043 L185.8442,134.6604 L187.7767,133.0963 L190.0842,132.2523 L190.0689,132.2213 L192.2741,130.9608 L194.5563,129.8565 L196.8921,128.8608 L199.0433,127.491 L201.453,126.6451 L201.5564,126.8684 L203.7021,125.2951 L206.1497,124.3737 L208.6342,123.5319 L210.9043,122.2273 L213.2872,121.166 L213.2992,121.1939 L215.7218,120.1045 L218.199,119.1421 L220.6499,118.1184 L223.151,117.2114 L225.4885,115.9238 L225.5975,116.2014 L228.0929,115.2255 L230.5179,114.0706 L233.0459,113.1777 L235.5787,112.2971 L237.9587,111.0273 L237.8524,110.7249 L240.5868,110.4234 L242.9713,109.1262 L245.6218,108.586 L247.9984,107.2662 L250.5995,106.5853 L250.5906,106.5562 L253.2383,106.1248 L255.6785,105.0131 L258.2411,104.3029 L260.814,103.6263 L263.3127,102.7066 L263.358,102.886 L265.8497,102.0636 L268.4189,101.5477 L270.8627,100.536 L273.4935,100.2639 L276,99.5 L276.0497,99.7385 L278.5198,99.177 L281.0146,98.734 L283.3948,97.7407 L285.859,97.1507 L288.3976,96.9181 L288.3484,96.6463 L291.0971,96.4028 L293.7904,95.8531 L296.564,95.7475 L299.2004,94.8836 L301.9184,94.4705 L301.8945,94.3199 L304.848,94.1086 L307.6995,93.2537 L310.6235,92.8565 L313.6186,92.9072 L316.4872,92.1604 L316.5139,92.3521 L319.6406,92.0498 L322.684,91.151 L325.8317,90.9992 L328.9567,90.6847 L332.0288,89.991 L332.0031,89.7826 L335.3114,89.5436 L338.6113,89.2364 L341.9277,89.0632 L345.1799,88.3688 L348.468,87.9656 L348.4903,88.17 L351.8937,87.3452 L355.3402,86.915 L358.8493,87.0612 L362.243,86.1462 L365.7298,86.0874 L365.7514,86.3125 L369.3404,85.8332 L372.922,85.2777 L376.5202,84.8942 L380.1565,84.9081 L383.7389,84.3596 L383.7277,84.227 L387.4972,84.3069 L391.1907,83.4851 L394.9707,83.6885 L398.7019,83.3148 L402.4201,82.7855 L402.4281,82.894 L406.2773,82.5229 L410.1551,82.5406 L414.0071,82.2071 L417.8483,81.7267 L421.6984,81.3682 L421.706,81.4872 L425.6548,81.059 L429.6386,81.1831 L433.5828,80.6826 L437.5434,80.4391 L441.4985,80.1111 L441.4839,79.8411 L445.5382,79.7125 L449.61,79.9091 L453.6569,79.6455 L457.6949,79.217 L461.7453,79.0173 L461.7389,78.8743 L465.8646,78.7347 L469.979,78.3418 L474.1246,78.6451 L478.2548,78.6039 L482.3637,78.0901 L482.3721,78.3239 L486.5578,78.2473 L490.7274,77.7264 L494.9139,77.6744 L499.0892,77.312 L503.2784,77.3327 L503.2819,77.4589 L507.5086,77.3255 L511.7395,77.3444 L515.9571,76.8801 L520.1854,76.8055 L524.4143,76.7483 L524.418,76.9454 L528.6755,76.9188 L532.9227,76.3573 L537.1818,76.4173 L541.4411,76.4882 L545.6962,76.3402 L545.6933,76.0688 L549.9684,76.4516 L554.2385,76.3634 L558.5074,76.1583 L562.7791,76.2206 L567.049,76.1116 L567.0497,76.4355 L571.3184,75.9634 L575.5887,76.2333 L579.8584,76.211 L584.1279,76.1264 L588.3975,76.0657 L588.3979,76.1284 L592.6517,76.1442 L596.9033,75.8444 L601.1578,75.9716 L605.4114,75.9727 L609.6666,76.2058 L609.667,76.2342 L613.8901,76.3108 L618.1135,76.4094 L622.3332,76.274 L626.5577,76.4392 L630.781,76.535 L630.7797,76.4816 L634.9644,76.8957 L639.1396,76.9332 L643.3064,76.6323 L647.488,76.92 L651.6657,77.0567 L651.6568,76.8003 L655.7861,77.3282 L659.907,77.6139 L664.022,77.7289 L668.1227,77.4371 L672.2454,77.774 L672.2548,77.98 L676.2704,77.6274 L680.3293,78.2293 L684.3592,78.1908 L688.4071,78.5499 L692.4451,78.6901 L692.4511,78.7968 L696.4058,79.1233 L700.3247,78.818 L704.3036,79.5721 L708.245,79.6638 L712.1894,79.8084 L712.2003,79.9659 L716.0551,80.4047 L719.8752,80.3403 L723.7232,80.6803 L727.5671,80.9619 L731.4034,81.132 L731.4106,81.2193 L735.125,81.4381 L738.8726,82.0596 L742.5461,81.7812 L746.3107,82.6081 L750.0117,82.6641 L749.9849,82.3881 L753.574,82.7739 L757.1845,83.3794 L760.7695,83.723 L764.3326,83.8413 L767.9393,84.4081 L767.9602,84.5907 L771.3791,84.8479 L774.8446,85.5125 L778.2759,85.878 L781.6541,85.7773 L785.111,86.367 L785.0876,86.1917 L788.3715,86.7455 L791.6681,87.3945 L794.939,87.8509 L798.2012,88.2414 L801.4516,88.5442 L801.4283,88.394 L804.5819,89.3034 L807.6686,89.782 L810.709,89.9626 L813.7828,90.3581 L816.886,90.9429 L816.8541,90.7673 L819.7595,91.3737 L822.6781,92.0523 L825.5523,92.487 L828.4152,92.8589 L831.3389,93.5662 L831.384,93.7781 L833.9758,93.937 L836.744,94.9251 L839.4163,95.4627 L842.0905,96.0089 L844.7353,96.4175 L844.8104,96.716 L847.1616,96.928 L849.6086,97.5209 L852.1503,98.4907 L854.4824,98.6262 L857,99.5 L856.9694,99.4006 L858.9759,100.1517 L860.9306,100.7345 L862.8356,101.1557 L864.8376,101.8924 L866.804,102.5133 L866.9187,102.8237 L868.8546,103.5044 L870.6135,103.7063 L872.6682,104.7084 L874.5276,105.1821 L876.5574,106.1171 L876.5528,106.1064 L878.5374,107.058 L880.4884,107.9309 L882.2285,108.3084 L884.3429,109.5651 L886.2021,110.2224 L886.2037,110.2257 L887.9915,110.9031 L889.9033,111.8404 L891.9514,113.0639 L893.8323,113.9366 L895.6801,114.7398 L895.6767,114.7334 L897.3923,115.4433 L899.517,116.9353 L901.1678,117.5214 L902.9739,118.4044 L904.9333,119.5805 L904.9186,119.5545 L906.8565,120.8236 L908.6562,121.8485 L910.3233,122.6389 L912.0766,123.5818 L913.9038,124.6553 L913.9436,124.7193 L917.3196,126.8246 L920.5286,128.6618 L924.1171,131.1086 L927.5232,133.2623 L930.764,135.1505 " fill="none" style="stroke:#383838;stroke-width:1.0;"/><polygon fill="#383838" points="934.971,137.9562,935.0302,137.9937,933.8007,136.218,932.9182,134.6621,931.9227,133.0346,930.5556,131.1718,929.7029,129.6347,929.6775,129.6296,929.7852,130.7163,930.0209,131.8285,930.3457,132.9586,930.3636,134.0273,930.8113,135.1819,930.8474,135.3629,929.6607,135.1976,928.5795,135.5606,927.5112,135.9881,926.3679,136.0405,925.2641,136.2903,925.2679,136.3127,927.2036,136.6129,929.1569,137.0153,931.1017,137.3684,933.0626,137.8154,934.971,137.9562" style="stroke:#383838;stroke-width:1.0;"/><!--MD5=[fb1e36c04d719a312ec9bc3cbb15eb20]
link LerFicheiroColaboradorController to UserController--><path d="M179.279,137.8787 L179.3221,137.9616 L181.355,136.5901 L183.6408,135.7043 L185.8442,134.6604 L187.7767,133.0963 L190.0842,132.2523 L190.0689,132.2213 L192.2741,130.9608 L194.5563,129.8565 L196.8921,128.8608 L199.0433,127.491 L201.453,126.6451 L201.5564,126.8684 L203.7021,125.2951 L206.1497,124.3737 L208.6342,123.5319 L210.9043,122.2273 L213.2872,121.166 L213.2992,121.1939 L215.7218,120.1045 L218.199,119.1421 L220.6499,118.1184 L223.151,117.2114 L225.4885,115.9238 L225.5975,116.2014 L228.0929,115.2255 L230.5179,114.0706 L233.0459,113.1777 L235.5787,112.2971 L237.9587,111.0273 L237.8524,110.7249 L240.5868,110.4234 L242.9713,109.1262 L245.6218,108.586 L247.9984,107.2662 L250.5995,106.5853 L250.5906,106.5562 L253.2383,106.1248 L255.6785,105.0131 L258.2411,104.3029 L260.814,103.6263 L263.3127,102.7066 L263.358,102.886 L265.8497,102.0636 L268.4189,101.5477 L270.8627,100.536 L273.4935,100.2639 L276,99.5 L276.0513,99.7382 L278.7206,99.1156 L281.4153,98.6114 L283.9916,97.5576 L286.6547,96.9067 L289.3947,96.6125 L289.3418,96.3415 L291.8528,96.1059 L294.3041,95.5649 L296.842,95.4669 L299.2322,94.6125 L301.7102,94.2077 L301.6845,94.0574 L304.0056,93.9191 L306.2171,93.1383 L308.5066,92.8144 L310.8722,92.9375 L313.1021,92.2646 L313.1293,92.4563 L315.2727,92.2874 L317.3318,91.5221 L319.4965,91.5037 L321.6382,91.3226 L323.7263,90.7623 L323.7074,90.5532 L327.636,90.3666 L331.5584,90.1116 L335.493,89.9912 L339.3803,89.3476 L343.294,88.9963 L343.2968,89.2018 L346.9635,88.6994 L350.6357,88.5937 L354.3159,89.0677 L357.9814,88.4745 L361.6588,88.7424 L361.6721,88.9682 L365.3457,89.0522 L369.0147,89.0598 L372.6939,89.2399 L376.3967,89.8186 L380.0662,89.8332 L380.051,89.701 L384.0354,90.5481 L387.9163,90.4964 L391.9149,91.4667 L395.8473,91.8615 L399.7618,92.1013 L399.7777,92.209 L404.2108,92.7777 L408.7007,93.732 L413.1392,94.3379 L417.5563,94.7982 L421.9912,95.3794 L422.0099,95.4971 L427.1839,96.1463 L432.4446,97.3421 L437.6073,97.9197 L442.8102,98.7516 L448,99.5 L447.9527,99.2338 L451.4062,99.9333 L454.9166,100.9535 L458.3464,101.5199 L461.7473,101.9236 L465.1883,102.553 L465.1586,102.413 L468.6408,103.1957 L472.0703,103.7304 L475.6447,104.9468 L479.1474,105.8259 L482.5518,106.2422 L482.6071,106.4695 L486.1044,107.3877 L489.4967,107.8739 L492.9999,108.816 L496.4297,109.4564 L499.95,110.4692 L499.9828,110.591 L503.437,111.5083 L506.9308,112.5727 L510.2987,113.1704 L513.7681,114.1446 L517.2421,115.1355 L517.2977,115.3246 L520.7223,116.3789 L523.9962,116.9199 L527.4452,118.0572 L530.8973,119.205 L534.2878,120.1428 L534.2062,119.8839 L537.6667,121.3426 L540.9857,122.3522 L544.2695,123.2501 L547.6336,124.4031 L550.9464,125.3927 L551.0491,125.6999 L554.1284,126.3397 L557.4431,127.6832 L560.6652,128.7496 L563.8674,129.7568 L567.0773,130.7869 L567.0981,130.846 L570.1866,131.9224 L573.1703,132.7012 L576.2958,133.8828 L579.3794,134.9453 L582.54,136.2268 " fill="none" style="stroke:#383838;stroke-width:1.0;"/><polygon fill="#383838" points="587.401,137.9893,587.4496,138.0398,585.8857,136.5242,584.6066,135.3045,583.2348,133.9884,581.558,132.3554,580.3033,131.1612,580.2799,131.1502,580.654,132.1257,581.1464,133.1566,581.721,134.2259,582.0122,135.1626,582.7004,136.2851,582.7786,136.4522,581.5866,136.5742,580.6229,137.1842,579.6871,137.8537,578.5892,138.1768,577.5765,138.6821,577.5781,138.7048,579.5407,138.5329,581.5105,138.4644,583.4768,138.3459,585.4498,138.3226,587.401,137.9893" style="stroke:#383838;stroke-width:1.0;"/><!--MD5=[b46f79a835a61b63f17709918781d9e6]
link LerFicheiroColaboradorController to ColaboradorRepository--><path d="M240.176,171.5 L240.176,171.5934 L246.1488,171.3159 L252.1216,171.5859 L258.0944,171.6776 L264.0672,171.1829 L270.04,171.5 " fill="none" style="stroke:#383838;stroke-width:1.0;"/><polygon fill="#383838" points="275.246,171.5,275.2745,171.564,273.3899,170.5738,271.6722,169.9589,269.9001,169.2217,267.9494,168.0827,266.246,167.5,266.2277,167.4817,266.9455,168.1995,267.7556,169.0096,268.6299,169.8839,269.283,170.537,270.246,171.5,270.3765,171.6305,269.2974,172.1514,268.5994,173.0534,267.9478,174.0018,267.0258,174.6798,266.246,175.5,266.2552,175.5208,268.0417,174.6903,269.8702,173.9544,271.6784,173.1728,273.5253,172.4784,275.246,171.5" style="stroke:#383838;stroke-width:1.0;"/><!--MD5=[b0ae5a67642cf35f28258cf7d6a5e326]
link LerFicheiroColaborador to Colaborador--><path d="M1022.43,137.9529 L1022.481,138.0311 L1024.0524,136.6745 L1025.9229,135.7764 L1027.6961,134.729 L1029.1487,133.1905 L1031.045,132.3318 L1031.0269,132.3024 L1032.7661,131.0495 L1034.5966,129.9448 L1036.4905,128.9432 L1038.1658,127.5864 L1040.1473,126.7271 L1040.2701,126.9404 L1041.9112,125.3883 L1043.9108,124.4589 L1045.9542,123.6054 L1047.743,122.3099 L1049.6657,121.2469 L1049.68,121.2737 L1051.6317,120.1849 L1053.6482,119.218 L1055.6335,118.1923 L1057.6784,117.2788 L1059.5288,115.9995 L1059.6587,116.2679 L1061.6875,115.2899 L1063.6326,114.1387 L1065.7003,113.2409 L1067.7738,112.3551 L1069.6651,111.0928 L1069.5382,110.7985 L1071.8521,110.4783 L1073.7482,109.1888 L1075.9619,108.6362 L1077.8485,107.3248 L1080.0033,106.6353 L1079.9927,106.6068 L1082.2121,106.1641 L1084.1832,105.0549 L1086.3009,104.3389 L1088.4308,103.6561 L1090.4721,102.735 L1090.5264,102.9118 L1092.5771,102.0863 L1094.7207,101.563 L1096.7141,100.5508 L1098.9315,100.2678 L1101,99.5 L1101.0598,99.7362 L1103.8026,98.9939 L1106.575,98.3689 L1109.2095,97.1991 L1111.9451,96.4286 L1114.7704,96.012 L1114.7117,95.7421 L1117.5496,95.3813 L1120.3214,94.7164 L1123.1891,94.4926 L1125.8931,93.5156 L1128.6944,92.9864 L1128.6668,92.8364 L1131.5245,92.5703 L1134.2646,91.6631 L1137.0884,91.2117 L1139.9939,91.2065 L1142.7538,90.4069 L1142.7828,90.5983 L1145.638,90.2997 L1148.403,89.4056 L1151.281,89.2573 L1154.1344,88.9465 L1156.9304,88.2571 L1156.9051,88.0487 L1159.7804,87.8676 L1162.6475,87.6182 L1165.5308,87.5029 L1168.3508,86.8662 L1171.2062,86.5208 L1171.2253,86.7255 L1174.0546,86.0079 L1176.9209,85.6854 L1179.8409,85.9402 L1182.6619,85.1322 L1185.5628,85.1816 L1185.5778,85.4073 L1188.4527,85.0816 L1191.3226,84.6794 L1194.2039,84.4497 L1197.1118,84.6183 L1199.9821,84.2232 L1199.9766,84.0902 L1202.8857,84.3672 L1205.7576,83.7401 L1208.6717,84.1409 L1211.562,83.963 L1214.4459,83.6291 L1214.4478,83.738 L1217.3443,83.6009 L1220.2475,83.8537 L1223.1447,83.7543 L1226.0394,83.5076 L1228.9361,83.3832 L1228.9368,83.5024 L1231.8354,83.3425 L1234.7373,83.736 L1237.6355,83.5036 L1240.5352,83.5286 L1243.4344,83.4691 L1243.427,83.1988 L1246.3271,83.3693 L1249.2363,83.8654 L1252.1327,83.9007 L1255.0246,83.771 L1257.9228,83.8703 L1257.9158,83.7273 L1260.8101,83.9132 L1263.692,83.8459 L1266.6077,84.4747 L1269.5067,84.7589 L1272.3829,84.5707 L1272.3988,84.8041 L1275.2866,85.0755 L1278.1442,84.9033 L1281.0337,85.1992 L1283.9021,85.1853 L1286.7966,85.5538 L1286.8075,85.6796 L1289.6759,85.913 L1292.5575,86.2982 L1295.3972,86.2019 L1298.2707,86.4939 L1301.1457,86.8034 L1301.1663,86.9994 L1304.0253,87.3541 L1306.8284,87.1767 L1309.6965,87.6174 L1312.5657,88.0691 L1315.4121,88.303 L1315.3791,88.0335 L1318.2642,88.8056 L1321.0922,89.1102 L1323.9059,89.2986 L1326.7521,89.7525 L1329.5775,90.0364 L1329.6221,90.3572 L1332.3676,90.2888 L1335.2153,90.9554 L1338.0228,91.3327 L1340.8216,91.648 L1343.6238,91.9872 L1343.6334,92.0491 L1346.4133,92.4675 L1349.145,92.5739 L1351.942,93.1024 L1354.7197,93.5061 L1357.5328,94.1392 L1357.5376,94.1671 L1360.2901,94.6451 L1363.0463,95.1447 L1365.7633,95.4137 L1368.5306,95.9789 L1371.2864,96.4759 L1371.2767,96.4233 L1374.0488,97.229 L1376.7527,97.6644 L1379.3951,97.7667 L1382.1444,98.4481 L1384.8662,98.981 L1384.8163,98.7293 L1387.5688,99.6381 L1390.2741,100.3091 L1392.9461,100.8127 L1395.5389,100.9169 L1398.2542,101.6382 L1398.297,101.8399 L1400.8214,101.8738 L1403.5439,102.8424 L1406.1334,103.1838 L1408.8055,103.9146 L1411.4322,104.4312 L1411.4556,104.5354 L1414.0682,105.2184 L1416.5419,105.284 L1419.2484,106.3848 L1421.8094,106.8383 L1424.382,107.3436 L1424.4184,107.4972 L1426.9994,108.27 L1429.4639,108.5521 L1432.022,109.2286 L1434.5665,109.8482 L1437.0853,110.359 L1437.107,110.444 L1442.0042,111.6137 L1447.0013,113.1751 L1451.7752,113.8614 L1456.8233,115.6224 L1461.6801,116.634 L1461.606,116.3667 L1466.2941,117.7008 L1471.0413,119.2476 L1475.7181,120.5409 L1480.3344,121.616 L1485.0711,123.1253 L1485.1237,123.3015 L1489.4933,124.487 L1493.9802,126.0655 L1498.381,127.3556 L1502.6476,128.196 L1507.1129,129.7023 L1507.0593,129.5337 L1511.2049,130.954 L1515.3796,132.4657 L1519.4954,133.7922 L1523.5911,135.0554 L1527.66,136.2343 " fill="none" style="stroke:#383838;stroke-width:1.0;"/><polygon fill="#383838" points="1532.63,137.8704,1532.6771,137.9222,1531.0796,136.4432,1529.7583,135.2681,1528.347,133.994,1526.6399,132.3945,1525.3423,131.2455,1525.3192,131.2338,1525.7235,132.1924,1526.2444,133.2097,1526.8465,134.2677,1527.1691,135.1853,1527.8832,136.2996,1527.966,136.4645,1526.778,136.62,1525.8319,137.257,1524.9153,137.9527,1523.827,138.3067,1522.829,138.8404,1522.8313,138.8631,1524.7882,138.6358,1526.7553,138.5116,1528.7175,138.3377,1530.689,138.2587,1532.63,137.8704" style="stroke:#383838;stroke-width:1.0;"/><!--MD5=[5ac1bcd74e6cd5ef9c4c5ab9236351f9]
link LerFicheiroColaborador to SystemUserBuilder--><path d="M1065.78,171.5 L1065.78,171.5934 L1071.638,171.3159 L1077.496,171.5859 L1083.354,171.6776 L1089.212,171.1829 L1095.07,171.5 " fill="none" style="stroke:#383838;stroke-width:1.0;"/><polygon fill="#383838" points="1100.18,171.5,1100.2085,171.564,1098.3239,170.5738,1096.6062,169.9589,1094.8341,169.2217,1092.8834,168.0827,1091.18,167.5,1091.1617,167.4817,1091.8795,168.1995,1092.6896,169.0096,1093.5639,169.8839,1094.217,170.537,1095.18,171.5,1095.3105,171.6305,1094.2314,172.1514,1093.5334,173.0534,1092.8818,174.0018,1091.9598,174.6798,1091.18,175.5,1091.1892,175.5208,1092.9757,174.6903,1094.8042,173.9544,1096.6124,173.1728,1098.4593,172.4784,1100.18,171.5" style="stroke:#383838;stroke-width:1.0;"/><!--MD5=[2cb59769304752aff53a81a4bd3de9bc]
@startuml
'http://plantuml.com/skinparam.html
skinparam handwritten true
skinparam monochrome true
skinparam packageStyle rect
skinparam defaultFontName FG Virgil
skinparam shadowing false

class LerFicheiroColaboradorUI <<presentation>>
class LerFicheiroColaboradorController <<application>>
class LerFicheiroColaborador <<domain>>
class Colaborador <<domain>>
class SystemUserBuilder <<domain>>
class UserController <<presentation>>>
class ColaboradorRepository <<repository>>


LerFicheiroColaboradorUI - -> LerFicheiroColaboradorController : theController

LerFicheiroColaboradorController -> LerFicheiroColaborador
LerFicheiroColaboradorController -> UserController
LerFicheiroColaboradorController -> ColaboradorRepository

LerFicheiroColaborador -> Colaborador
LerFicheiroColaborador -> SystemUserBuilder

Colaborador : new Colaborador(numMecanografico,nomeCurto,nomeCompleto,dataNascimento,localResidencia,endereco,contacto)

LerFicheiroColaborador : lerDados()

SystemUserBuilder : build()

ColaboradorRepository : save(colab)

LerFicheiroColaboradorController : lerDados()

UserController : addUser(username,password,firstname,lastName,endereco,set)
@enduml

@startuml
skinparam handwritten true
skinparam monochrome true
skinparam packageStyle rect
skinparam defaultFontName FG Virgil
skinparam shadowing false

class LerFicheiroColaboradorUI <<presentation>>
class LerFicheiroColaboradorController <<application>>
class LerFicheiroColaborador <<domain>>
class Colaborador <<domain>>
class SystemUserBuilder <<domain>>
class UserController <<presentation>>>
class ColaboradorRepository <<repository>>


LerFicheiroColaboradorUI - -> LerFicheiroColaboradorController : theController

LerFicheiroColaboradorController -> LerFicheiroColaborador
LerFicheiroColaboradorController -> UserController
LerFicheiroColaboradorController -> ColaboradorRepository

LerFicheiroColaborador -> Colaborador
LerFicheiroColaborador -> SystemUserBuilder

Colaborador : new Colaborador(numMecanografico,nomeCurto,nomeCompleto,dataNascimento,localResidencia,endereco,contacto)

LerFicheiroColaborador : lerDados()

SystemUserBuilder : build()

ColaboradorRepository : save(colab)

LerFicheiroColaboradorController : lerDados()

UserController : addUser(username,password,firstname,lastName,endereco,set)
@enduml

PlantUML version 1.2021.6beta6(Unknown compile time)
(GPL source distribution)
Java Runtime: Java(TM) SE Runtime Environment
JVM: Java HotSpot(TM) 64-Bit Server VM
Default Encoding: UTF-8
Language: en
Country: US
--></g></svg>