<?xml version="1.0" encoding="UTF-8" standalone="no"?><svg xmlns="http://www.w3.org/2000/svg" xmlns:xlink="http://www.w3.org/1999/xlink" contentScriptType="application/ecmascript" contentStyleType="text/css" height="237px" preserveAspectRatio="none" style="width:2354px;height:237px;background:#FFFFFF;" version="1.1" viewBox="0 0 2354 237" width="2354px" zoomAndPan="magnify"><defs/><g><!--MD5=[fdd143688dd4c22e6f2ee475119423ce]
class EspecificarColaboradorUI--><polygon fill="#F8F8F8" points="252,7,252,7.2102,261.7368,6.5857,271.4737,7.1933,281.2105,7.3997,290.9474,6.2866,300.6842,6.9223,310.4211,6.5735,320.1579,6.6165,329.8947,6.9318,339.6316,6.3086,349.3684,7.5536,359.1053,6.3697,368.8421,6.8022,378.5789,7.4319,388.3158,6.9142,398.0526,7.0682,407.7895,6.9681,417.5263,7.1785,427.2632,7.2391,437,7,437.5857,7,437.6711,17.7875,437.6793,28.575,437.2546,39.3625,437.4636,50.15,437,60.9375,437,61.6397,427.2632,60.2163,417.5263,61.616,407.7895,60.641,398.0526,61.4713,388.3158,60.4425,378.5789,60.869,368.8421,61.6791,359.1053,60.8888,349.3684,61.0428,339.6316,61.2761,329.8947,61.3537,320.1579,60.9336,310.4211,61.2247,300.6842,60.3651,290.9474,61.2219,281.2105,61.4857,271.4737,61.382,261.7368,61.5505,252,60.9375,251.5169,60.9375,251.3478,50.15,251.3786,39.3625,251.9411,28.575,251.8035,17.7875,252,7" style="stroke:#383838;stroke-width:1.5;"/><polygon fill="#C2C2C2" points="278.0608,28.6444,276.4484,30.8475,274.5412,34.0745,271.8136,36.2491,268.9474,37.4384,266.662,37.5416,263.7247,36.0543,260.9532,35.0827,258.8495,33.1099,257.7461,30.8515,257.0917,29.0533,256.4506,26.7045,255.41,24.6832,256.2096,22.7098,256.9102,20.548,259.5393,18.8382,261.389,16.6198,263.6784,15.8832,266.4001,15.2488,269.8904,15.6257,271.8021,16.5273,274.0247,16.9359,276.7272,19.7047,277.6693,22.6277,278.0786,24.6221,277.615,27.9086" style="stroke:#383838;stroke-width:1.0;"/><path d="M269.3438,21.6406 C268.4063,21.2031 267.8125,21.0625 266.9375,21.0625 C264.3125,21.0625 262.3125,23.1406 262.3125,25.8594 L262.3125,26.9844 C262.3125,29.5625 264.4219,31.4531 267.3125,31.4531 C268.5313,31.4531 269.6875,31.1563 270.4375,30.6094 C271.0156,30.2031 271.3438,29.75 271.3438,29.3594 C271.3438,28.9063 270.9531,28.5156 270.4844,28.5156 C270.2656,28.5156 270.0625,28.5938 269.875,28.7813 C269.4219,29.2656 269.4219,29.2656 269.2344,29.3594 C268.8125,29.625 268.125,29.75 267.3594,29.75 C265.3125,29.75 264.0156,28.6563 264.0156,26.9531 L264.0156,25.8594 C264.0156,24.0781 265.2656,22.7656 267,22.7656 C267.5781,22.7656 268.1875,22.9219 268.6563,23.1719 C269.1406,23.4531 269.3125,23.6719 269.4063,24.0781 C269.4688,24.4844 269.5,24.6094 269.6406,24.7344 C269.7813,24.875 270.0156,24.9844 270.2344,24.9844 C270.5,24.9844 270.7656,24.8438 270.9375,24.625 C271.0469,24.4688 271.0781,24.2813 271.0781,23.8594 L271.0781,22.4375 C271.0781,22 271.0625,21.875 270.9688,21.7188 C270.8125,21.4531 270.5313,21.3125 270.2344,21.3125 C269.9375,21.3125 269.7344,21.4063 269.5156,21.7188 L269.3438,21.6406 Z " fill="#000000"/><text fill="#000000" font-family="FG Virgil" font-size="12" font-style="italic" lengthAdjust="spacing" textLength="90" x="312.5" y="23.1387">«presentation»</text><text fill="#000000" font-family="FG Virgil" font-size="12" lengthAdjust="spacing" textLength="153" x="281" y="37.1074">EspecificarColaboradorUI</text><path d="M253,44.9375 L253,45.2177 L263.1667,44.3851 L273.3333,45.1952 L283.5,45.4704 L293.6667,43.9863 L303.8333,44.8339 L314,44.3688 L324.1667,44.4262 L334.3333,44.8466 L344.5,44.0157 L354.6667,45.6757 L364.8333,44.0971 L375,44.6738 L385.1667,45.5134 L395.3333,44.8231 L405.5,45.0285 L415.6667,44.8949 L425.8333,45.1755 L436,44.9375 " fill="#F8F8F8" style="stroke:#383838;stroke-width:1.5;"/><path d="M253,52.9375 L253,53.2177 L263.1667,52.3851 L273.3333,53.1952 L283.5,53.4704 L293.6667,51.9863 L303.8333,52.8339 L314,52.3688 L324.1667,52.4262 L334.3333,52.8466 L344.5,52.0157 L354.6667,53.6757 L364.8333,52.0971 L375,52.6738 L385.1667,53.5134 L395.3333,52.8231 L405.5,53.0285 L415.6667,52.8949 L425.8333,53.1755 L436,52.9375 " fill="#F8F8F8" style="stroke:#383838;stroke-width:1.5;"/><!--MD5=[ad1e0dfb7967d80be5dad4c9388df9ec]
class EspecificarColaboradorController--><polygon fill="#F8F8F8" points="7,138,7,138.2102,16.9265,137.5857,26.8529,138.1933,36.7794,138.3997,46.7059,137.2866,56.6324,137.9223,66.5588,137.5735,76.4853,137.6165,86.4118,137.9318,96.3382,137.3086,106.2647,138.5536,116.1912,137.3697,126.1176,137.8022,136.0441,138.4319,145.9706,137.9142,155.8971,138.0682,165.8235,137.9681,175.75,138.1785,185.6765,138.2391,195.6029,138.5857,205.5294,138.6711,215.4559,138.6793,225.3824,138.2546,235.3088,138.4636,245.2353,138.7022,255.1618,137.2788,265.0882,138.6785,275.0147,137.7035,284.9412,138.5338,294.8676,137.505,304.7941,137.9315,314.7206,138.7416,324.6471,137.9513,334.5735,138.1053,344.5,138.3386,354.4265,138.4162,364.3529,137.9961,374.2794,138.2872,384.2059,137.4276,394.1324,138.2844,404.0588,138.5482,413.9853,138.4445,423.9118,138.613,433.8382,137.5169,443.7647,137.3478,453.6912,137.3786,463.6176,137.9411,473.5441,137.8035,483.4706,138.6814,493.3971,137.8253,503.3235,137.6569,513.25,138.2283,523.1765,137.3332,533.1029,137.4809,543.0294,138.649,552.9559,138.4357,562.8824,138.7345,572.8088,137.6782,582.7353,138.3192,592.6618,138.5904,602.5882,137.5276,612.5147,137.9041,622.4412,138.126,632.3676,138.6518,642.2941,137.9958,652.2206,138.4626,662.1471,137.4462,672.0735,137.3227,682,138,682.5036,138,681.2831,148.2613,682.509,158.5226,682.2066,168.7839,681.7321,179.0451,681.6462,189.3064,682.4588,199.5677,681.7007,209.829,682.5919,220.0903,682,230.3516,682,229.7988,672.0735,230.969,662.1471,230.8359,652.2206,230.5965,642.2941,230.3988,632.3676,231.0782,622.4412,230.9651,612.5147,230.5208,602.5882,230.6198,592.6618,230.2213,582.7353,231.068,572.8088,230.5064,562.8824,230.5241,552.9559,229.7432,543.0294,229.9463,533.1029,230.8823,523.1765,230.7813,513.25,230.3086,503.3235,230.0294,493.3971,230.1326,483.4706,229.6654,473.5441,230.7663,463.6176,231.0911,453.6912,230.878,443.7647,231.0465,433.8382,230.2148,423.9118,230.4388,413.9853,229.964,404.0588,230.6356,394.1324,230.5983,384.2059,230.904,374.2794,230.1219,364.3529,230.2172,354.4265,230.795,344.5,230.9189,334.5735,229.839,324.6471,230.1577,314.7206,230.5008,304.7941,229.7407,294.8676,230.705,284.9412,230.6096,275.0147,230.2508,265.0882,230.4938,255.1618,231.0802,245.2353,230.0387,235.3088,230.6665,225.3824,230.6372,215.4559,230.4673,205.5294,230.4925,195.6029,230.465,185.6765,229.7274,175.75,229.9507,165.8235,229.89,155.8971,230.4154,145.9706,230.4397,136.0441,230.5133,126.1176,230.0606,116.1912,230.284,106.2647,230.2313,96.3382,230.9284,86.4118,230.7781,76.4853,229.866,66.5588,230.2786,56.6324,229.7743,46.7059,230.6399,36.7794,230.96,26.8529,230.8961,16.9265,229.916,7,230.3516,7.464,230.3516,6.2572,220.0903,7.2002,209.829,6.7007,199.5677,7.0967,189.3064,7.2403,179.0451,7.4721,168.7839,6.2801,158.5226,7.4755,148.2613,7,138" style="stroke:#383838;stroke-width:1.5;"/><polygon fill="#C2C2C2" points="251.3108,159.6444,249.6984,161.8475,247.7912,165.0745,245.0636,167.2491,242.1974,168.4384,239.912,168.5416,236.9747,167.0543,234.2032,166.0827,232.0995,164.1099,230.9961,161.8515,230.3417,160.0533,229.7006,157.7045,228.66,155.6832,229.4596,153.7098,230.1602,151.548,232.7893,149.8382,234.639,147.6198,236.9284,146.8832,239.6501,146.2488,243.1404,146.6257,245.0521,147.5273,247.2747,147.9359,249.9772,150.7047,250.9193,153.6277,251.3286,155.6221,250.865,158.9086" style="stroke:#383838;stroke-width:1.0;"/><path d="M242.5938,152.6406 C241.6563,152.2031 241.0625,152.0625 240.1875,152.0625 C237.5625,152.0625 235.5625,154.1406 235.5625,156.8594 L235.5625,157.9844 C235.5625,160.5625 237.6719,162.4531 240.5625,162.4531 C241.7813,162.4531 242.9375,162.1563 243.6875,161.6094 C244.2656,161.2031 244.5938,160.75 244.5938,160.3594 C244.5938,159.9063 244.2031,159.5156 243.7344,159.5156 C243.5156,159.5156 243.3125,159.5938 243.125,159.7813 C242.6719,160.2656 242.6719,160.2656 242.4844,160.3594 C242.0625,160.625 241.375,160.75 240.6094,160.75 C238.5625,160.75 237.2656,159.6563 237.2656,157.9531 L237.2656,156.8594 C237.2656,155.0781 238.5156,153.7656 240.25,153.7656 C240.8281,153.7656 241.4375,153.9219 241.9063,154.1719 C242.3906,154.4531 242.5625,154.6719 242.6563,155.0781 C242.7188,155.4844 242.75,155.6094 242.8906,155.7344 C243.0313,155.875 243.2656,155.9844 243.4844,155.9844 C243.75,155.9844 244.0156,155.8438 244.1875,155.625 C244.2969,155.4688 244.3281,155.2813 244.3281,154.8594 L244.3281,153.4375 C244.3281,153 244.3125,152.875 244.2188,152.7188 C244.0625,152.4531 243.7813,152.3125 243.4844,152.3125 C243.1875,152.3125 242.9844,152.4063 242.7656,152.7188 L242.5938,152.6406 Z " fill="#000000"/><text fill="#000000" font-family="FG Virgil" font-size="12" font-style="italic" lengthAdjust="spacing" textLength="80" x="320.75" y="154.1387">«application»</text><text fill="#000000" font-family="FG Virgil" font-size="12" lengthAdjust="spacing" textLength="200" x="260.75" y="168.1074">EspecificarColaboradorController</text><path d="M8,175.9375 L8,176.2177 L18.0448,175.3851 L28.0896,176.1952 L38.1343,176.4704 L48.1791,174.9863 L58.2239,175.8339 L68.2687,175.3688 L78.3134,175.4262 L88.3582,175.8466 L98.403,175.0157 L108.4478,176.6757 L118.4925,175.0971 L128.5373,175.6738 L138.5821,176.5134 L148.6269,175.8231 L158.6716,176.0285 L168.7164,175.8949 L178.7612,176.1755 L188.806,176.2563 L198.8507,176.7184 L208.8955,176.8322 L218.9403,176.8432 L228.9851,176.277 L239.0299,176.5556 L249.0746,176.8738 L259.1194,174.9759 L269.1642,176.8422 L279.209,175.5422 L289.2537,176.6492 L299.2985,175.2775 L309.3433,175.8462 L319.3881,176.9263 L329.4328,175.8725 L339.4776,176.0779 L349.5224,176.389 L359.5672,176.4925 L369.6119,175.9323 L379.6567,176.3205 L389.7015,175.1743 L399.7463,176.3167 L409.791,176.6684 L419.8358,176.5302 L429.8806,176.7549 L439.9254,175.2934 L449.9701,175.0679 L460.0149,175.109 L470.0597,175.859 L480.1045,175.6755 L490.1493,176.846 L500.194,175.7046 L510.2388,175.4801 L520.2836,176.2419 L530.3284,175.0484 L540.3731,175.2453 L550.4179,176.8028 L560.4627,176.5184 L570.5075,176.9168 L580.5522,175.5084 L590.597,176.3631 L600.6418,176.7247 L610.6866,175.3076 L620.7313,175.8097 L630.7761,176.1055 L640.8209,176.8065 L650.8657,175.9319 L660.9104,176.5543 L670.9552,175.1991 L681,175.9375 " fill="#F8F8F8" style="stroke:#383838;stroke-width:1.5;"/><path d="M8,183.9375 L8,184.2177 L18.0448,183.3851 L28.0896,184.1952 L38.1343,184.4704 L48.1791,182.9863 L58.2239,183.8339 L68.2687,183.3688 L78.3134,183.4262 L88.3582,183.8466 L98.403,183.0157 L108.4478,184.6757 L118.4925,183.0971 L128.5373,183.6738 L138.5821,184.5134 L148.6269,183.8231 L158.6716,184.0285 L168.7164,183.8949 L178.7612,184.1755 L188.806,184.2563 L198.8507,184.7184 L208.8955,184.8322 L218.9403,184.8432 L228.9851,184.277 L239.0299,184.5556 L249.0746,184.8738 L259.1194,182.9759 L269.1642,184.8422 L279.209,183.5422 L289.2537,184.6492 L299.2985,183.2775 L309.3433,183.8462 L319.3881,184.9263 L329.4328,183.8725 L339.4776,184.0779 L349.5224,184.389 L359.5672,184.4925 L369.6119,183.9323 L379.6567,184.3205 L389.7015,183.1743 L399.7463,184.3167 L409.791,184.6684 L419.8358,184.5302 L429.8806,184.7549 L439.9254,183.2934 L449.9701,183.0679 L460.0149,183.109 L470.0597,183.859 L480.1045,183.6755 L490.1493,184.846 L500.194,183.7046 L510.2388,183.4801 L520.2836,184.2419 L530.3284,183.0484 L540.3731,183.2453 L550.4179,184.8028 L560.4627,184.5184 L570.5075,184.9168 L580.5522,183.5084 L590.597,184.3631 L600.6418,184.7247 L610.6866,183.3076 L620.7313,183.8097 L630.7761,184.1055 L640.8209,184.8065 L650.8657,183.9319 L660.9104,184.5543 L670.9552,183.1991 L681,183.9375 " fill="#F8F8F8" style="stroke:#383838;stroke-width:1.5;"/><text fill="#000000" font-family="FG Virgil" font-size="11" lengthAdjust="spacing" textLength="86" x="13" y="198.1479">geraPassword()</text><text fill="#000000" font-family="FG Virgil" font-size="11" lengthAdjust="spacing" textLength="376" x="13" y="210.9526">novoUtilizador(username,password,firstName,lastName,endereco)</text><text fill="#000000" font-family="FG Virgil" font-size="11" lengthAdjust="spacing" textLength="663" x="13" y="223.7573">novoColaborador(numMecanografico,nomeCurto,nomeCompleto,dataNascimento,localResidencia,endereco,contacto)</text><!--MD5=[ac8682ea5466d223e49472789fb200d2]
class Colaborador--><polygon fill="#F8F8F8" points="1672,150.5,1672,150.7102,1681.9265,150.0857,1691.8529,150.6933,1701.7794,150.8997,1711.7059,149.7866,1721.6324,150.4223,1731.5588,150.0735,1741.4853,150.1165,1751.4118,150.4318,1761.3382,149.8086,1771.2647,151.0536,1781.1912,149.8697,1791.1176,150.3022,1801.0441,150.9319,1810.9706,150.4142,1820.8971,150.5682,1830.8235,150.4681,1840.75,150.6785,1850.6765,150.7391,1860.6029,151.0857,1870.5294,151.1711,1880.4559,151.1793,1890.3824,150.7546,1900.3088,150.9636,1910.2353,151.2022,1920.1618,149.7788,1930.0882,151.1785,1940.0147,150.2035,1949.9412,151.0338,1959.8676,150.005,1969.7941,150.4315,1979.7206,151.2416,1989.6471,150.4513,1999.5735,150.6053,2009.5,150.8386,2019.4265,150.9162,2029.3529,150.4961,2039.2794,150.7872,2049.2059,149.9276,2059.1324,150.7844,2069.0588,151.0482,2078.9853,150.9445,2088.9118,151.113,2098.8382,150.0169,2108.7647,149.8478,2118.6912,149.8786,2128.6176,150.4411,2138.5441,150.3035,2148.4706,151.1814,2158.3971,150.3253,2168.3235,150.1569,2178.25,150.7283,2188.1765,149.8332,2198.1029,149.9809,2208.0294,151.149,2217.9559,150.9357,2227.8824,151.2345,2237.8088,150.1782,2247.7353,150.8192,2257.6618,151.0904,2267.5882,150.0276,2277.5147,150.4041,2287.4412,150.626,2297.3676,151.1518,2307.2941,150.4958,2317.2206,150.9626,2327.1471,149.9462,2337.0735,149.8227,2347,150.5,2347.5036,150.5,2346.2831,160.0346,2347.509,169.5692,2347.2066,179.1038,2346.7321,188.6384,2346.6462,198.173,2347.4588,207.7076,2347,217.2422,2347,216.9429,2337.0735,217.834,2327.1471,216.6894,2317.2206,217.8596,2307.2941,217.7265,2297.3676,217.4872,2287.4412,217.2894,2277.5147,217.9688,2267.5882,217.8558,2257.6618,217.4114,2247.7353,217.5104,2237.8088,217.1119,2227.8824,217.9586,2217.9559,217.3971,2208.0294,217.4148,2198.1029,216.6338,2188.1765,216.837,2178.25,217.7729,2168.3235,217.6719,2158.3971,217.1993,2148.4706,216.92,2138.5441,217.0233,2128.6176,216.556,2118.6912,217.6569,2108.7647,217.9818,2098.8382,217.7686,2088.9118,217.9371,2078.9853,217.1055,2069.0588,217.3294,2059.1324,216.8546,2049.2059,217.5262,2039.2794,217.489,2029.3529,217.7946,2019.4265,217.0125,2009.5,217.1078,1999.5735,217.6856,1989.6471,217.8095,1979.7206,216.7297,1969.7941,217.0483,1959.8676,217.3915,1949.9412,216.6313,1940.0147,217.5956,1930.0882,217.5002,1920.1618,217.1414,1910.2353,217.3844,1900.3088,217.9709,1890.3824,216.9293,1880.4559,217.5572,1870.5294,217.5278,1860.6029,217.358,1850.6765,217.3831,1840.75,217.3557,1830.8235,216.618,1820.8971,216.8414,1810.9706,216.7807,1801.0441,217.306,1791.1176,217.3303,1781.1912,217.4039,1771.2647,216.9512,1761.3382,217.1747,1751.4118,217.122,1741.4853,217.819,1731.5588,217.6688,1721.6324,216.7567,1711.7059,217.1693,1701.7794,216.665,1691.8529,217.5306,1681.9265,217.8507,1672,217.2422,1672.5446,217.2422,1671.5644,207.7076,1672.464,198.173,1671.2572,188.6384,1672.2002,179.1038,1671.7007,169.5692,1672.0967,160.0346,1672,150.5" style="stroke:#383838;stroke-width:1.5;"/><polygon fill="#C2C2C2" points="1978.8108,172.1444,1977.1984,174.3475,1975.2912,177.5745,1972.5636,179.7491,1969.6974,180.9384,1967.412,181.0416,1964.4747,179.5543,1961.7032,178.5827,1959.5995,176.6099,1958.4961,174.3515,1957.8417,172.5533,1957.2006,170.2045,1956.16,168.1832,1956.9596,166.2098,1957.6602,164.048,1960.2893,162.3382,1962.139,160.1198,1964.4284,159.3832,1967.1501,158.7488,1970.6404,159.1257,1972.5521,160.0273,1974.7747,160.4359,1977.4772,163.2047,1978.4193,166.1277,1978.8286,168.1221,1978.365,171.4086" style="stroke:#383838;stroke-width:1.0;"/><path d="M1970.0938,165.1406 C1969.1563,164.7031 1968.5625,164.5625 1967.6875,164.5625 C1965.0625,164.5625 1963.0625,166.6406 1963.0625,169.3594 L1963.0625,170.4844 C1963.0625,173.0625 1965.1719,174.9531 1968.0625,174.9531 C1969.2813,174.9531 1970.4375,174.6563 1971.1875,174.1094 C1971.7656,173.7031 1972.0938,173.25 1972.0938,172.8594 C1972.0938,172.4063 1971.7031,172.0156 1971.2344,172.0156 C1971.0156,172.0156 1970.8125,172.0938 1970.625,172.2813 C1970.1719,172.7656 1970.1719,172.7656 1969.9844,172.8594 C1969.5625,173.125 1968.875,173.25 1968.1094,173.25 C1966.0625,173.25 1964.7656,172.1563 1964.7656,170.4531 L1964.7656,169.3594 C1964.7656,167.5781 1966.0156,166.2656 1967.75,166.2656 C1968.3281,166.2656 1968.9375,166.4219 1969.4063,166.6719 C1969.8906,166.9531 1970.0625,167.1719 1970.1563,167.5781 C1970.2188,167.9844 1970.25,168.1094 1970.3906,168.2344 C1970.5313,168.375 1970.7656,168.4844 1970.9844,168.4844 C1971.25,168.4844 1971.5156,168.3438 1971.6875,168.125 C1971.7969,167.9688 1971.8281,167.7813 1971.8281,167.3594 L1971.8281,165.9375 C1971.8281,165.5 1971.8125,165.375 1971.7188,165.2188 C1971.5625,164.9531 1971.2813,164.8125 1970.9844,164.8125 C1970.6875,164.8125 1970.4844,164.9063 1970.2656,165.2188 L1970.0938,165.1406 Z " fill="#000000"/><text fill="#000000" font-family="FG Virgil" font-size="12" font-style="italic" lengthAdjust="spacing" textLength="59" x="1996.25" y="166.6387">«domain»</text><text fill="#000000" font-family="FG Virgil" font-size="12" lengthAdjust="spacing" textLength="75" x="1988.25" y="180.6074">Colaborador</text><path d="M1673,188.4375 L1673,188.7177 L1683.0448,187.8851 L1693.0896,188.6952 L1703.1343,188.9704 L1713.1791,187.4863 L1723.2239,188.3339 L1733.2687,187.8688 L1743.3134,187.9262 L1753.3582,188.3466 L1763.403,187.5157 L1773.4478,189.1757 L1783.4925,187.5971 L1793.5373,188.1738 L1803.5821,189.0134 L1813.6269,188.3231 L1823.6716,188.5285 L1833.7164,188.3949 L1843.7612,188.6755 L1853.806,188.7563 L1863.8507,189.2184 L1873.8955,189.3322 L1883.9403,189.3432 L1893.9851,188.777 L1904.0299,189.0556 L1914.0746,189.3738 L1924.1194,187.4759 L1934.1642,189.3422 L1944.209,188.0422 L1954.2537,189.1492 L1964.2985,187.7775 L1974.3433,188.3462 L1984.3881,189.4263 L1994.4328,188.3725 L2004.4776,188.5779 L2014.5224,188.889 L2024.5672,188.9925 L2034.6119,188.4323 L2044.6567,188.8205 L2054.7015,187.6743 L2064.7463,188.8167 L2074.791,189.1684 L2084.8358,189.0302 L2094.8806,189.2549 L2104.9254,187.7934 L2114.9701,187.5679 L2125.0149,187.609 L2135.0597,188.359 L2145.1045,188.1755 L2155.1493,189.346 L2165.194,188.2046 L2175.2388,187.9801 L2185.2836,188.7419 L2195.3284,187.5484 L2205.3731,187.7453 L2215.4179,189.3028 L2225.4627,189.0184 L2235.5075,189.4168 L2245.5522,188.0084 L2255.597,188.8631 L2265.6418,189.2247 L2275.6866,187.8076 L2285.7313,188.3097 L2295.7761,188.6055 L2305.8209,189.3065 L2315.8657,188.4319 L2325.9104,189.0543 L2335.9552,187.6991 L2346,188.4375 " fill="#F8F8F8" style="stroke:#383838;stroke-width:1.5;"/><path d="M1673,196.4375 L1673,196.7177 L1683.0448,195.8851 L1693.0896,196.6952 L1703.1343,196.9704 L1713.1791,195.4863 L1723.2239,196.3339 L1733.2687,195.8688 L1743.3134,195.9262 L1753.3582,196.3466 L1763.403,195.5157 L1773.4478,197.1757 L1783.4925,195.5971 L1793.5373,196.1738 L1803.5821,197.0134 L1813.6269,196.3231 L1823.6716,196.5285 L1833.7164,196.3949 L1843.7612,196.6755 L1853.806,196.7563 L1863.8507,197.2184 L1873.8955,197.3322 L1883.9403,197.3432 L1893.9851,196.777 L1904.0299,197.0556 L1914.0746,197.3738 L1924.1194,195.4759 L1934.1642,197.3422 L1944.209,196.0422 L1954.2537,197.1492 L1964.2985,195.7775 L1974.3433,196.3462 L1984.3881,197.4263 L1994.4328,196.3725 L2004.4776,196.5779 L2014.5224,196.889 L2024.5672,196.9925 L2034.6119,196.4323 L2044.6567,196.8205 L2054.7015,195.6743 L2064.7463,196.8167 L2074.791,197.1684 L2084.8358,197.0302 L2094.8806,197.2549 L2104.9254,195.7934 L2114.9701,195.5679 L2125.0149,195.609 L2135.0597,196.359 L2145.1045,196.1755 L2155.1493,197.346 L2165.194,196.2046 L2175.2388,195.9801 L2185.2836,196.7419 L2195.3284,195.5484 L2205.3731,195.7453 L2215.4179,197.3028 L2225.4627,197.0184 L2235.5075,197.4168 L2245.5522,196.0084 L2255.597,196.8631 L2265.6418,197.2247 L2275.6866,195.8076 L2285.7313,196.3097 L2295.7761,196.6055 L2305.8209,197.3065 L2315.8657,196.4319 L2325.9104,197.0543 L2335.9552,195.6991 L2346,196.4375 " fill="#F8F8F8" style="stroke:#383838;stroke-width:1.5;"/><text fill="#000000" font-family="FG Virgil" font-size="11" lengthAdjust="spacing" textLength="663" x="1678" y="210.6479">new Colaborador(numMecanografico,nomeCurto,nomeCompleto,dataNascimento,localResidencia,endereco,contacto)</text><!--MD5=[7add3abbba9a945a681f7e44bfe039aa]
class RandomRawPassword--><polygon fill="#F8F8F8" points="1474.5,150.5,1474.5,150.7102,1484.625,150.0857,1494.75,150.6933,1504.875,150.8997,1515,149.7866,1525.125,150.4223,1535.25,150.0735,1545.375,150.1165,1555.5,150.4318,1565.625,149.8086,1575.75,151.0536,1585.875,149.8697,1596,150.3022,1606.125,150.9319,1616.25,150.4142,1626.375,150.5682,1636.5,150.5,1636.4681,150.5,1636.6785,160.0346,1636.7391,169.5692,1637.0857,179.1038,1637.1711,188.6384,1637.1793,198.173,1636.7546,207.7076,1636.5,217.2422,1636.5,217.7058,1626.375,217.9444,1616.25,216.521,1606.125,217.9207,1596,216.9457,1585.875,217.776,1575.75,216.7472,1565.625,217.1737,1555.5,217.9838,1545.375,217.1935,1535.25,217.3475,1525.125,217.5808,1515,217.6584,1504.875,217.2383,1494.75,217.5294,1484.625,216.6698,1474.5,217.2422,1474.7844,217.2422,1475.0482,207.7076,1474.9445,198.173,1475.113,188.6384,1474.0169,179.1038,1473.8478,169.5692,1473.8786,160.0346,1474.5,150.5" style="stroke:#383838;stroke-width:1.5;"/><polygon fill="#C2C2C2" points="1500.5608,172.1444,1498.9484,174.3475,1497.0412,177.5745,1494.3136,179.7491,1491.4474,180.9384,1489.162,181.0416,1486.2247,179.5543,1483.4532,178.5827,1481.3495,176.6099,1480.2461,174.3515,1479.5917,172.5533,1478.9506,170.2045,1477.91,168.1832,1478.7096,166.2098,1479.4102,164.048,1482.0393,162.3382,1483.889,160.1198,1486.1784,159.3832,1488.9001,158.7488,1492.3904,159.1257,1494.3021,160.0273,1496.5247,160.4359,1499.2272,163.2047,1500.1693,166.1277,1500.5786,168.1221,1500.115,171.4086" style="stroke:#383838;stroke-width:1.0;"/><path d="M1491.8438,165.1406 C1490.9063,164.7031 1490.3125,164.5625 1489.4375,164.5625 C1486.8125,164.5625 1484.8125,166.6406 1484.8125,169.3594 L1484.8125,170.4844 C1484.8125,173.0625 1486.9219,174.9531 1489.8125,174.9531 C1491.0313,174.9531 1492.1875,174.6563 1492.9375,174.1094 C1493.5156,173.7031 1493.8438,173.25 1493.8438,172.8594 C1493.8438,172.4063 1493.4531,172.0156 1492.9844,172.0156 C1492.7656,172.0156 1492.5625,172.0938 1492.375,172.2813 C1491.9219,172.7656 1491.9219,172.7656 1491.7344,172.8594 C1491.3125,173.125 1490.625,173.25 1489.8594,173.25 C1487.8125,173.25 1486.5156,172.1563 1486.5156,170.4531 L1486.5156,169.3594 C1486.5156,167.5781 1487.7656,166.2656 1489.5,166.2656 C1490.0781,166.2656 1490.6875,166.4219 1491.1563,166.6719 C1491.6406,166.9531 1491.8125,167.1719 1491.9063,167.5781 C1491.9688,167.9844 1492,168.1094 1492.1406,168.2344 C1492.2813,168.375 1492.5156,168.4844 1492.7344,168.4844 C1493,168.4844 1493.2656,168.3438 1493.4375,168.125 C1493.5469,167.9688 1493.5781,167.7813 1493.5781,167.3594 L1493.5781,165.9375 C1493.5781,165.5 1493.5625,165.375 1493.4688,165.2188 C1493.3125,164.9531 1493.0313,164.8125 1492.7344,164.8125 C1492.4375,164.8125 1492.2344,164.9063 1492.0156,165.2188 L1491.8438,165.1406 Z " fill="#000000"/><text fill="#000000" font-family="FG Virgil" font-size="12" font-style="italic" lengthAdjust="spacing" textLength="59" x="1539" y="166.6387">«domain»</text><text fill="#000000" font-family="FG Virgil" font-size="12" lengthAdjust="spacing" textLength="130" x="1503.5" y="180.6074">RandomRawPassword</text><path d="M1475.5,188.4375 L1475.5,188.7177 L1485.5,187.8851 L1495.5,188.6952 L1505.5,188.9704 L1515.5,187.4863 L1525.5,188.3339 L1535.5,187.8688 L1545.5,187.9262 L1555.5,188.3466 L1565.5,187.5157 L1575.5,189.1757 L1585.5,187.5971 L1595.5,188.1738 L1605.5,189.0134 L1615.5,188.3231 L1625.5,188.5285 L1635.5,188.4375 " fill="#F8F8F8" style="stroke:#383838;stroke-width:1.5;"/><path d="M1475.5,196.4375 L1475.5,196.7177 L1485.5,195.8851 L1495.5,196.6952 L1505.5,196.9704 L1515.5,195.4863 L1525.5,196.3339 L1535.5,195.8688 L1545.5,195.9262 L1555.5,196.3466 L1565.5,195.5157 L1575.5,197.1757 L1585.5,195.5971 L1595.5,196.1738 L1605.5,197.0134 L1615.5,196.3231 L1625.5,196.5285 L1635.5,196.4375 " fill="#F8F8F8" style="stroke:#383838;stroke-width:1.5;"/><text fill="#000000" font-family="FG Virgil" font-size="11" lengthAdjust="spacing" textLength="52" x="1480.5" y="210.6479">toString()</text><!--MD5=[9a0e8f7957502662f95e783c1c3d84fe]
class ColaboradorRepository--><polygon fill="#F8F8F8" points="1267.5,150.5,1267.5,150.7102,1277.6176,150.0857,1287.7353,150.6933,1297.8529,150.8997,1307.9706,149.7866,1318.0882,150.4223,1328.2059,150.0735,1338.3235,150.1165,1348.4412,150.4318,1358.5588,149.8086,1368.6765,151.0536,1378.7941,149.8697,1388.9118,150.3022,1399.0294,150.9319,1409.1471,150.4142,1419.2647,150.5682,1429.3824,150.4681,1439.5,150.5,1439.6785,150.5,1439.7391,160.0346,1440.0857,169.5692,1440.1711,179.1038,1440.1793,188.6384,1439.7546,198.173,1439.9636,207.7076,1439.5,217.2422,1439.5,217.9444,1429.3824,216.521,1419.2647,217.9207,1409.1471,216.9457,1399.0294,217.776,1388.9118,216.7472,1378.7941,217.1737,1368.6765,217.9838,1358.5588,217.1935,1348.4412,217.3475,1338.3235,217.5808,1328.2059,217.6584,1318.0882,217.2383,1307.9706,217.5294,1297.8529,216.6698,1287.7353,217.5266,1277.6176,217.7904,1267.5,217.2422,1267.9445,217.2422,1268.113,207.7076,1267.0169,198.173,1266.8478,188.6384,1266.8786,179.1038,1267.4411,169.5692,1267.3035,160.0346,1267.5,150.5" style="stroke:#383838;stroke-width:1.5;"/><polygon fill="#C2C2C2" points="1293.5608,172.1444,1291.9484,174.3475,1290.0412,177.5745,1287.3136,179.7491,1284.4474,180.9384,1282.162,181.0416,1279.2247,179.5543,1276.4532,178.5827,1274.3495,176.6099,1273.2461,174.3515,1272.5917,172.5533,1271.9506,170.2045,1270.91,168.1832,1271.7096,166.2098,1272.4102,164.048,1275.0393,162.3382,1276.889,160.1198,1279.1784,159.3832,1281.9001,158.7488,1285.3904,159.1257,1287.3021,160.0273,1289.5247,160.4359,1292.2272,163.2047,1293.1693,166.1277,1293.5786,168.1221,1293.115,171.4086" style="stroke:#383838;stroke-width:1.0;"/><path d="M1284.8438,165.1406 C1283.9063,164.7031 1283.3125,164.5625 1282.4375,164.5625 C1279.8125,164.5625 1277.8125,166.6406 1277.8125,169.3594 L1277.8125,170.4844 C1277.8125,173.0625 1279.9219,174.9531 1282.8125,174.9531 C1284.0313,174.9531 1285.1875,174.6563 1285.9375,174.1094 C1286.5156,173.7031 1286.8438,173.25 1286.8438,172.8594 C1286.8438,172.4063 1286.4531,172.0156 1285.9844,172.0156 C1285.7656,172.0156 1285.5625,172.0938 1285.375,172.2813 C1284.9219,172.7656 1284.9219,172.7656 1284.7344,172.8594 C1284.3125,173.125 1283.625,173.25 1282.8594,173.25 C1280.8125,173.25 1279.5156,172.1563 1279.5156,170.4531 L1279.5156,169.3594 C1279.5156,167.5781 1280.7656,166.2656 1282.5,166.2656 C1283.0781,166.2656 1283.6875,166.4219 1284.1563,166.6719 C1284.6406,166.9531 1284.8125,167.1719 1284.9063,167.5781 C1284.9688,167.9844 1285,168.1094 1285.1406,168.2344 C1285.2813,168.375 1285.5156,168.4844 1285.7344,168.4844 C1286,168.4844 1286.2656,168.3438 1286.4375,168.125 C1286.5469,167.9688 1286.5781,167.7813 1286.5781,167.3594 L1286.5781,165.9375 C1286.5781,165.5 1286.5625,165.375 1286.4688,165.2188 C1286.3125,164.9531 1286.0313,164.8125 1285.7344,164.8125 C1285.4375,164.8125 1285.2344,164.9063 1285.0156,165.2188 L1284.8438,165.1406 Z " fill="#000000"/><text fill="#000000" font-family="FG Virgil" font-size="12" font-style="italic" lengthAdjust="spacing" textLength="74" x="1329.5" y="166.6387">«repository»</text><text fill="#000000" font-family="FG Virgil" font-size="12" lengthAdjust="spacing" textLength="140" x="1296.5" y="180.6074">ColaboradorRepository</text><path d="M1268.5,188.4375 L1268.5,188.7177 L1278.5,187.8851 L1288.5,188.6952 L1298.5,188.9704 L1308.5,187.4863 L1318.5,188.3339 L1328.5,187.8688 L1338.5,187.9262 L1348.5,188.3466 L1358.5,187.5157 L1368.5,189.1757 L1378.5,187.5971 L1388.5,188.1738 L1398.5,189.0134 L1408.5,188.3231 L1418.5,188.5285 L1428.5,188.3949 L1438.5,188.4375 " fill="#F8F8F8" style="stroke:#383838;stroke-width:1.5;"/><path d="M1268.5,196.4375 L1268.5,196.7177 L1278.5,195.8851 L1288.5,196.6952 L1298.5,196.9704 L1308.5,195.4863 L1318.5,196.3339 L1328.5,195.8688 L1338.5,195.9262 L1348.5,196.3466 L1358.5,195.5157 L1368.5,197.1757 L1378.5,195.5971 L1388.5,196.1738 L1398.5,197.0134 L1408.5,196.3231 L1418.5,196.5285 L1428.5,196.3949 L1438.5,196.4375 " fill="#F8F8F8" style="stroke:#383838;stroke-width:1.5;"/><text fill="#000000" font-family="FG Virgil" font-size="11" lengthAdjust="spacing" textLength="66" x="1273.5" y="210.6479">save(colab)</text><!--MD5=[bc064d979c32666ae52f3d7624591b7b]
class SystemUser--><polygon fill="#F8F8F8" points="717.5,150.5,717.5,150.7102,727.1364,150.0857,736.7727,150.6933,746.4091,150.8997,756.0455,149.7866,765.6818,150.4223,775.3182,150.0735,784.9545,150.1165,794.5909,150.4318,804.2273,149.8086,813.8636,151.0536,823.5,150.5,822.8697,150.5,823.3022,160.0346,823.9319,169.5692,823.4142,179.1038,823.5682,188.6384,823.4681,198.173,823.6785,207.7076,823.5,217.2422,823.5,217.4813,813.8636,217.8279,804.2273,217.9132,794.5909,217.9214,784.9545,217.4968,775.3182,217.7058,765.6818,217.9444,756.0455,216.521,746.4091,217.9207,736.7727,216.9457,727.1364,217.776,717.5,217.2422,717.005,217.2422,717.4315,207.7076,718.2416,198.173,717.4513,188.6384,717.6053,179.1038,717.8386,169.5692,717.9162,160.0346,717.5,150.5" style="stroke:#383838;stroke-width:1.5;"/><polygon fill="#C2C2C2" points="743.5608,172.1444,741.9484,174.3475,740.0412,177.5745,737.3136,179.7491,734.4474,180.9384,732.162,181.0416,729.2247,179.5543,726.4532,178.5827,724.3495,176.6099,723.2461,174.3515,722.5917,172.5533,721.9506,170.2045,720.91,168.1832,721.7096,166.2098,722.4102,164.048,725.0393,162.3382,726.889,160.1198,729.1784,159.3832,731.9001,158.7488,735.3904,159.1257,737.3021,160.0273,739.5247,160.4359,742.2272,163.2047,743.1693,166.1277,743.5786,168.1221,743.115,171.4086" style="stroke:#383838;stroke-width:1.0;"/><path d="M734.8438,165.1406 C733.9063,164.7031 733.3125,164.5625 732.4375,164.5625 C729.8125,164.5625 727.8125,166.6406 727.8125,169.3594 L727.8125,170.4844 C727.8125,173.0625 729.9219,174.9531 732.8125,174.9531 C734.0313,174.9531 735.1875,174.6563 735.9375,174.1094 C736.5156,173.7031 736.8438,173.25 736.8438,172.8594 C736.8438,172.4063 736.4531,172.0156 735.9844,172.0156 C735.7656,172.0156 735.5625,172.0938 735.375,172.2813 C734.9219,172.7656 734.9219,172.7656 734.7344,172.8594 C734.3125,173.125 733.625,173.25 732.8594,173.25 C730.8125,173.25 729.5156,172.1563 729.5156,170.4531 L729.5156,169.3594 C729.5156,167.5781 730.7656,166.2656 732.5,166.2656 C733.0781,166.2656 733.6875,166.4219 734.1563,166.6719 C734.6406,166.9531 734.8125,167.1719 734.9063,167.5781 C734.9688,167.9844 735,168.1094 735.1406,168.2344 C735.2813,168.375 735.5156,168.4844 735.7344,168.4844 C736,168.4844 736.2656,168.3438 736.4375,168.125 C736.5469,167.9688 736.5781,167.7813 736.5781,167.3594 L736.5781,165.9375 C736.5781,165.5 736.5625,165.375 736.4688,165.2188 C736.3125,164.9531 736.0313,164.8125 735.7344,164.8125 C735.4375,164.8125 735.2344,164.9063 735.0156,165.2188 L734.8438,165.1406 Z " fill="#000000"/><text fill="#000000" font-family="FG Virgil" font-size="12" font-style="italic" lengthAdjust="spacing" textLength="74" x="746.5" y="166.6387">«repository»</text><text fill="#000000" font-family="FG Virgil" font-size="12" lengthAdjust="spacing" textLength="74" x="746.5" y="180.6074">SystemUser</text><path d="M718.5,188.4375 L718.5,188.7177 L728.9,187.8851 L739.3,188.6952 L749.7,188.9704 L760.1,187.4863 L770.5,188.3339 L780.9,187.8688 L791.3,187.9262 L801.7,188.3466 L812.1,187.5157 L822.5,188.4375 " fill="#F8F8F8" style="stroke:#383838;stroke-width:1.5;"/><path d="M718.5,196.4375 L718.5,196.7177 L728.9,195.8851 L739.3,196.6952 L749.7,196.9704 L760.1,195.4863 L770.5,196.3339 L780.9,195.8688 L791.3,195.9262 L801.7,196.3466 L812.1,195.5157 L822.5,196.4375 " fill="#F8F8F8" style="stroke:#383838;stroke-width:1.5;"/><text fill="#000000" font-family="FG Virgil" font-size="11" lengthAdjust="spacing" textLength="86" x="723.5" y="210.6479">save(newUser)</text><!--MD5=[8c59cfbc2252cb07c050d5e7108b82d8]
class AddUserController--><polygon fill="#F8F8F8" points="858.5,150.5,858.5,150.7102,868.6081,150.0857,878.7162,150.6933,888.8243,150.8997,898.9324,149.7866,909.0405,150.4223,919.1486,150.0735,929.2568,150.1165,939.3649,150.4318,949.473,149.8086,959.5811,151.0536,969.6892,149.8697,979.7973,150.3022,989.9054,150.9319,1000.0135,150.4142,1010.1216,150.5682,1020.2297,150.4681,1030.3378,150.6785,1040.4459,150.7391,1050.5541,151.0857,1060.6622,151.1711,1070.7703,151.1793,1080.8784,150.7546,1090.9865,150.9636,1101.0946,151.2022,1111.2027,149.7788,1121.3108,151.1785,1131.4189,150.2035,1141.527,151.0338,1151.6351,150.005,1161.7432,150.4315,1171.8514,151.2416,1181.9595,150.4513,1192.0676,150.6053,1202.1757,150.8386,1212.2838,150.9162,1222.3919,150.4961,1232.5,150.5,1232.7872,150.5,1231.9276,160.0346,1232.7844,169.5692,1233.0482,179.1038,1232.9445,188.6384,1233.113,198.173,1232.0169,207.7076,1232.5,217.2422,1232.5,216.59,1222.3919,216.6208,1212.2838,217.1833,1202.1757,217.0457,1192.0676,217.9236,1181.9595,217.0675,1171.8514,216.8991,1161.7432,217.4705,1151.6351,216.5753,1141.527,216.7231,1131.4189,217.8911,1121.3108,217.6779,1111.2027,217.9767,1101.0946,216.9204,1090.9865,217.5614,1080.8784,217.8326,1070.7703,216.7698,1060.6622,217.1463,1050.5541,217.3682,1040.4459,217.8939,1030.3378,217.238,1020.2297,217.7048,1010.1216,216.6884,1000.0135,216.5649,989.9054,217.7458,979.7973,216.5252,969.6892,217.7511,959.5811,217.4488,949.473,216.9743,939.3649,216.8884,929.2568,217.7009,919.1486,216.9429,909.0405,217.834,898.9324,216.6894,888.8243,217.8596,878.7162,217.7265,868.6081,217.4872,858.5,217.2422,858.5472,217.2422,859.2266,207.7076,859.1136,198.173,858.6693,188.6384,858.7682,179.1038,858.3697,169.5692,859.2165,160.0346,858.5,150.5" style="stroke:#383838;stroke-width:1.5;"/><polygon fill="#C2C2C2" points="996.3108,172.1444,994.6984,174.3475,992.7912,177.5745,990.0636,179.7491,987.1974,180.9384,984.912,181.0416,981.9747,179.5543,979.2032,178.5827,977.0995,176.6099,975.9961,174.3515,975.3417,172.5533,974.7006,170.2045,973.66,168.1832,974.4596,166.2098,975.1602,164.048,977.7893,162.3382,979.639,160.1198,981.9284,159.3832,984.6501,158.7488,988.1404,159.1257,990.0521,160.0273,992.2747,160.4359,994.9772,163.2047,995.9193,166.1277,996.3286,168.1221,995.865,171.4086" style="stroke:#383838;stroke-width:1.0;"/><path d="M987.5938,165.1406 C986.6563,164.7031 986.0625,164.5625 985.1875,164.5625 C982.5625,164.5625 980.5625,166.6406 980.5625,169.3594 L980.5625,170.4844 C980.5625,173.0625 982.6719,174.9531 985.5625,174.9531 C986.7813,174.9531 987.9375,174.6563 988.6875,174.1094 C989.2656,173.7031 989.5938,173.25 989.5938,172.8594 C989.5938,172.4063 989.2031,172.0156 988.7344,172.0156 C988.5156,172.0156 988.3125,172.0938 988.125,172.2813 C987.6719,172.7656 987.6719,172.7656 987.4844,172.8594 C987.0625,173.125 986.375,173.25 985.6094,173.25 C983.5625,173.25 982.2656,172.1563 982.2656,170.4531 L982.2656,169.3594 C982.2656,167.5781 983.5156,166.2656 985.25,166.2656 C985.8281,166.2656 986.4375,166.4219 986.9063,166.6719 C987.3906,166.9531 987.5625,167.1719 987.6563,167.5781 C987.7188,167.9844 987.75,168.1094 987.8906,168.2344 C988.0313,168.375 988.2656,168.4844 988.4844,168.4844 C988.75,168.4844 989.0156,168.3438 989.1875,168.125 C989.2969,167.9688 989.3281,167.7813 989.3281,167.3594 L989.3281,165.9375 C989.3281,165.5 989.3125,165.375 989.2188,165.2188 C989.0625,164.9531 988.7813,164.8125 988.4844,164.8125 C988.1875,164.8125 987.9844,164.9063 987.7656,165.2188 L987.5938,165.1406 Z " fill="#000000"/><text fill="#000000" font-family="FG Virgil" font-size="12" font-style="italic" lengthAdjust="spacing" textLength="90" x="1016.75" y="166.6387">«presentation»</text><text fill="#000000" font-family="FG Virgil" font-size="12" lengthAdjust="spacing" textLength="112" x="1005.75" y="180.6074">AddUserController</text><path d="M859.5,188.4375 L859.5,188.7177 L869.5541,187.8851 L879.6081,188.6952 L889.6622,188.9704 L899.7162,187.4863 L909.7703,188.3339 L919.8243,187.8688 L929.8784,187.9262 L939.9324,188.3466 L949.9865,187.5157 L960.0405,189.1757 L970.0946,187.5971 L980.1486,188.1738 L990.2027,189.0134 L1000.2568,188.3231 L1010.3108,188.5285 L1020.3649,188.3949 L1030.4189,188.6755 L1040.473,188.7563 L1050.527,189.2184 L1060.5811,189.3322 L1070.6351,189.3432 L1080.6892,188.777 L1090.7432,189.0556 L1100.7973,189.3738 L1110.8514,187.4759 L1120.9054,189.3422 L1130.9595,188.0422 L1141.0135,189.1492 L1151.0676,187.7775 L1161.1216,188.3462 L1171.1757,189.4263 L1181.2297,188.3725 L1191.2838,188.5779 L1201.3378,188.889 L1211.3919,188.9925 L1221.4459,188.4323 L1231.5,188.4375 " fill="#F8F8F8" style="stroke:#383838;stroke-width:1.5;"/><path d="M859.5,196.4375 L859.5,196.7177 L869.5541,195.8851 L879.6081,196.6952 L889.6622,196.9704 L899.7162,195.4863 L909.7703,196.3339 L919.8243,195.8688 L929.8784,195.9262 L939.9324,196.3466 L949.9865,195.5157 L960.0405,197.1757 L970.0946,195.5971 L980.1486,196.1738 L990.2027,197.0134 L1000.2568,196.3231 L1010.3108,196.5285 L1020.3649,196.3949 L1030.4189,196.6755 L1040.473,196.7563 L1050.527,197.2184 L1060.5811,197.3322 L1070.6351,197.3432 L1080.6892,196.777 L1090.7432,197.0556 L1100.7973,197.3738 L1110.8514,195.4759 L1120.9054,197.3422 L1130.9595,196.0422 L1141.0135,197.1492 L1151.0676,195.7775 L1161.1216,196.3462 L1171.1757,197.4263 L1181.2297,196.3725 L1191.2838,196.5779 L1201.3378,196.889 L1211.3919,196.9925 L1221.4459,196.4323 L1231.5,196.4375 " fill="#F8F8F8" style="stroke:#383838;stroke-width:1.5;"/><text fill="#000000" font-family="FG Virgil" font-size="11" lengthAdjust="spacing" textLength="362" x="864.5" y="210.6479">addUser(username,password,firstname,lastName,endereco,set)</text><!--MD5=[efc07359af4002ede352d360e3e5f791]
link EspecificarColaboradorUI to EspecificarColaboradorController--><path d="M344.5,61.119 L344.7802,61.119 L343.9476,71.3754 L344.7577,81.6319 L345.0329,91.8883 L343.5488,102.1448 L344.3964,112.4012 L343.9313,122.6577 L344.5,132.9141 " fill="none" style="stroke:#383838;stroke-width:1.0;"/><polygon fill="#383838" points="344.5,137.9923,344.564,138.0208,345.1738,136.1362,346.1589,134.4185,347.0217,132.6464,347.4827,130.6957,348.5,128.9923,348.4817,128.974,347.5995,129.6918,346.8096,130.5019,346.0839,131.3762,345.137,132.0293,344.5,132.9923,344.6305,133.1228,343.5514,132.0437,342.8534,131.3457,342.2018,130.6941,341.2798,129.7721,340.5,128.9923,340.5208,129.0015,341.2903,130.788,342.1544,132.6165,342.9728,134.4247,343.8784,136.2716,344.5,137.9923" style="stroke:#383838;stroke-width:1.0;"/><text fill="#000000" font-family="FG Virgil" font-size="13" lengthAdjust="spacing" textLength="83" x="345.5" y="104.0669">theController</text><!--MD5=[ea1c4a716374c6a44de667b4314b01f1]
link EspecificarColaboradorController to Colaborador--><path d="M511.412,137.9002 L511.4335,137.9911 L516.2627,136.5644 L521.2179,135.6705 L526.1321,134.6031 L530.9114,132.9651 L535.8774,132.117 L535.8698,132.0833 L540.8807,130.7968 L545.9298,129.6802 L551.0054,128.6817 L555.9895,127.2762 L561.1019,126.4407 L561.153,126.6814 L566.2033,125.0703 L571.4028,124.1618 L576.6206,123.3391 L581.7324,122.0176 L586.8999,120.9584 L586.9058,120.9882 L592.1344,119.9042 L597.3898,118.9557 L602.6323,117.9418 L607.8995,117.0526 L613.086,115.757 L613.1397,116.0504 L618.4181,115.0873 L623.6618,113.9349 L628.9563,113.0596 L634.2531,112.1972 L639.4746,110.9235 L639.4221,110.6073 L644.805,110.3453 L650.0152,109.042 L655.3567,108.5304 L660.563,107.2035 L665.8801,106.5448 L665.8757,106.5147 L671.1752,106.1036 L676.3718,104.9887 L681.6291,104.2891 L686.8915,103.6243 L692.1171,102.708 L692.1409,102.8915 L694.7163,102.3687 L697.3325,102.1594 L699.8827,101.4429 L702.5312,101.4829 L705.1144,101.02 L705.143,101.2619 L707.7147,100.9122 L710.3006,100.6826 L712.8206,99.8948 L715.3889,99.5161 L718,99.5 L717.9098,98.6764 L728.385,98.2831 L738.7586,96.9618 L749.2796,96.9866 L759.5489,94.7131 L769.918,93.3511 L780.3945,92.9695 L790.7549,91.5281 L790.6632,90.6437 L800.2018,89.8523 L809.8808,90.414 L819.3698,89.1438 L828.9292,88.5528 L838.3022,86.1646 L847.9087,86.0273 L857.3831,84.6167 L857.4086,84.8778 L863.6207,83.7961 L869.895,83.3511 L876.1626,82.8377 L882.4433,82.4587 L888.6731,81.5588 L888.673,81.5569 L894.7095,81.205 L900.685,80.1967 L906.6973,79.5836 L912.7631,79.5476 L918.7597,78.7663 L918.7321,78.4488 L924.5779,78.4862 L930.3647,77.8469 L936.1449,77.1313 L941.9401,76.5879 L947.7523,76.2391 L947.7687,76.4423 L953.3431,75.6542 L958.9766,75.5966 L964.5372,74.6372 L970.1807,74.7033 L975.7602,73.9774 L975.7759,74.1921 L981.1947,73.6867 L986.6147,73.1999 L992.0634,73.1018 L997.4863,72.6524 L1002.8928,71.9812 L1002.8977,72.0563 L1008.1739,71.754 L1013.4357,71.2312 L1018.7337,71.2606 L1023.9907,70.6654 L1029.2595,70.2506 L1029.2639,70.3272 L1034.3862,69.6877 L1039.5334,69.4848 L1044.6991,69.6071 L1049.8386,69.2693 L1054.9698,68.7856 L1054.9689,68.7666 L1059.9957,68.4028 L1065.0305,68.2087 L1070.0533,67.7615 L1075.1092,68.0104 L1080.1331,67.5864 L1080.1455,67.9148 L1085.0871,67.6335 L1090.035,67.5216 L1094.9662,66.9656 L1099.9151,66.8783 L1104.8587,66.6529 L1104.854,66.4807 L1109.7417,66.6456 L1114.6207,66.4955 L1119.5039,66.4977 L1124.3738,66.0168 L1129.2561,65.9853 L1129.2551,65.9255 L1134.0951,66.102 L1138.9317,66.0767 L1143.7594,65.5165 L1148.5975,65.5777 L1153.4346,65.5835 L1153.435,65.6499 L1158.2469,65.2849 L1163.0632,65.6863 L1167.8768,65.6167 L1172.6897,65.4301 L1177.5038,65.4478 L1177.5041,65.511 L1182.3193,65.7977 L1187.1306,65.3608 L1191.946,65.6659 L1196.7597,65.6789 L1201.5728,65.578 L1201.5737,65.6295 L1206.4095,65.7199 L1211.245,65.787 L1216.0754,65.5385 L1220.9127,65.717 L1225.7513,65.9744 L1225.7457,65.7693 L1230.6315,66.1352 L1235.5112,66.2785 L1240.3916,66.4437 L1245.2656,66.3751 L1250.1485,66.6369 L1250.1474,66.6069 L1255.0916,66.7693 L1260.0483,67.2646 L1264.9909,67.3836 L1269.9207,67.1643 L1274.8739,67.5656 L1274.8724,67.5333 L1279.8944,67.5484 L1284.9452,68.1717 L1289.9846,68.5528 L1295.0158,68.7634 L1300.0369,68.7607 L1300.0259,68.5674 L1305.1906,69.2588 L1310.3022,69.0156 L1315.468,69.7263 L1320.5974,69.797 L1325.7469,70.2221 L1325.7497,70.265 L1331.0272,70.6742 L1336.3072,71.1226 L1341.5458,70.9395 L1346.8538,71.8152 L1352.1133,71.9499 L1352.1191,72.0289 L1357.5513,72.5063 L1362.9905,73.0791 L1368.3928,73.1489 L1373.8247,73.623 L1379.2455,73.9442 L1379.2531,74.0388 L1384.854,74.4838 L1390.4484,74.8482 L1396.0753,75.6156 L1401.6296,75.4828 L1407.2528,76.2051 L1407.2747,76.4554 L1413.0272,76.4343 L1418.8288,76.9768 L1424.6496,77.7393 L1430.4475,78.2396 L1436.2448,78.7326 L1436.2246,78.5145 L1442.279,79.4745 L1448.2837,79.8984 L1454.3263,80.7306 L1460.341,81.2631 L1466.3308,81.5267 L1466.3114,81.3284 L1472.5715,81.9629 L1478.841,82.6939 L1485.1198,83.5205 L1491.3798,84.1537 L1497.6202,84.5876 L1497.6617,84.987 L1507.0912,85.123 L1516.7441,87.4094 L1526.2618,88.3949 L1535.6861,88.4805 L1545.1777,89.2151 L1554.6735,89.9887 L1564.2469,91.5099 L1564.2156,91.2255 L1574.6602,92.8335 L1585.0235,93.7022 L1595.366,94.3805 L1605.891,96.7216 L1616.1466,96.6089 L1626.6798,99.0244 L1637,99.5 L1637.0226,99.6885 L1640.2186,100.0472 L1643.4344,100.5717 L1646.5837,100.5407 L1649.7798,100.8996 L1652.9946,101.4153 L1653.0253,101.6439 L1656.1908,101.5866 L1659.4438,102.1806 L1662.6961,102.7687 L1665.9249,103.1823 L1669.1523,103.5863 L1669.129,103.4286 L1672.4049,104.0485 L1675.7114,104.8759 L1678.9605,105.3148 L1682.1349,105.2487 L1685.429,105.992 L1685.4345,106.0264 L1688.663,106.2904 L1691.9675,107.0283 L1695.2602,107.6923 L1698.5393,108.2719 L1701.78,108.6116 L1701.73,108.3204 L1705.0863,109.3496 L1708.333,109.7403 L1711.5669,110.0559 L1714.8494,110.6554 L1718.161,111.4242 L1718.1871,111.567 L1721.4543,112.1304 L1724.7064,112.6109 L1727.9274,112.9212 L1731.3068,114.0998 L1734.5277,114.4089 L1734.5015,114.2728 L1737.7449,114.8057 L1741.0451,115.6339 L1744.3618,116.5479 L1747.6255,117.1863 L1750.8354,117.5449 L1750.8385,117.5602 L1754.0631,118.1323 L1757.3322,118.9254 L1760.5745,119.5858 L1763.7545,119.9367 L1767.04,120.8112 L1767.0785,120.991 L1773.4764,122.422 L1779.7886,123.4534 L1786.1531,124.7286 L1792.6402,126.5763 L1798.9617,127.6511 L1798.9638,127.6602 L1805.1569,129.0732 L1811.3818,130.6249 L1817.483,131.6378 L1823.795,133.5692 L1829.9375,134.7618 L1829.9359,134.7551 L1835.9426,136.4935 L1841.7846,137.5543 L1847.7852,139.267 L1853.6305,140.3414 L1859.612,141.976 L1859.639,142.0815 L1865.2573,143.5695 L1870.7832,144.6953 L1876.4627,146.4228 L1881.9636,147.4505 L1887.63,149.1267 " fill="none" style="stroke:#383838;stroke-width:1.0;"/><polygon fill="#383838" points="1892.79,150.4784,1892.8338,150.5331,1891.1662,149.1393,1889.7553,148.066,1888.2608,146.8884,1886.4914,145.3675,1885.1026,144.3218,1885.0802,144.3087,1885.5502,145.2272,1886.1329,146.2115,1886.794,147.2416,1887.1849,148.114,1887.9543,149.2073,1888.0473,149.3667,1886.8713,149.5962,1885.9669,150.291,1885.0956,151.0426,1884.0315,151.4639,1883.0688,152.0589,1883.0724,152.0814,1885.0113,151.7323,1886.9668,151.4855,1888.9143,151.1893,1890.8771,150.9872,1892.79,150.4784" style="stroke:#383838;stroke-width:1.0;"/><!--MD5=[c38ab189d9eb0991e2f666af22c2f2ff]
link EspecificarColaboradorController to RandomRawPassword--><path d="M511.412,137.9002 L511.4335,137.9911 L516.2627,136.5644 L521.2179,135.6705 L526.1321,134.6031 L530.9114,132.9651 L535.8774,132.117 L535.8698,132.0833 L540.8807,130.7968 L545.9298,129.6802 L551.0054,128.6817 L555.9895,127.2762 L561.1019,126.4407 L561.153,126.6814 L566.2033,125.0703 L571.4028,124.1618 L576.6206,123.3391 L581.7324,122.0176 L586.8999,120.9584 L586.9058,120.9882 L592.1344,119.9042 L597.3898,118.9557 L602.6323,117.9418 L607.8995,117.0526 L613.086,115.757 L613.1397,116.0504 L618.4181,115.0873 L623.6618,113.9349 L628.9563,113.0596 L634.2531,112.1972 L639.4746,110.9235 L639.4221,110.6073 L644.805,110.3453 L650.0152,109.042 L655.3567,108.5304 L660.563,107.2035 L665.8801,106.5448 L665.8757,106.5147 L671.1752,106.1036 L676.3718,104.9887 L681.6291,104.2891 L686.8915,103.6243 L692.1171,102.708 L692.1409,102.8915 L694.7163,102.3687 L697.3325,102.1594 L699.8827,101.4429 L702.5312,101.4829 L705.1144,101.02 L705.143,101.2619 L707.7147,100.9122 L710.3006,100.6826 L712.8206,99.8948 L715.3889,99.5161 L718,99.5 L717.9708,99.2254 L724.5392,98.7774 L731.0747,98.02 L737.658,97.7115 L744.1597,96.6366 L750.7099,96.0172 L750.6952,95.8654 L758.2875,95.3832 L765.8167,94.2522 L773.3908,93.5825 L781.0087,93.3642 L788.5486,92.3421 L788.5656,92.535 L797.0219,91.922 L805.4253,90.709 L813.8949,90.2474 L822.3502,89.6222 L830.7717,88.6155 L830.7219,87.9876 L839.9343,87.7605 L849.1303,87.3279 L858.3584,87.2992 L867.4619,85.6999 L876.635,84.9779 L876.678,85.5932 L886.3354,83.5598 L896.0757,82.7141 L905.9373,83.6032 L915.5757,81.2982 L925.3942,81.5703 L925.4346,82.2477 L935.5927,81.2379 L945.7372,79.9988 L955.9125,79.2771 L966.1591,79.7512 L976.3048,78.5332 L976.298,78.4003 L981.5242,78.5287 L986.7041,77.7536 L991.9366,78.0058 L997.1395,77.6796 L1002.3344,77.1975 L1002.3393,77.3063 L1007.593,76.9805 L1012.8644,77.0441 L1018.1198,76.7558 L1023.3685,76.3205 L1028.6228,76.0073 L1028.6274,76.1264 L1033.9113,75.744 L1039.2167,75.9146 L1044.4979,75.4598 L1049.789,75.2622 L1055.0768,74.9801 L1055.0682,74.7099 L1060.3765,74.6308 L1065.6951,74.8772 L1070.999,74.6631 L1076.2977,74.2838 L1081.6036,74.1335 L1081.6001,73.9904 L1086.9025,73.9065 L1092.1987,73.5692 L1097.512,73.9287 L1102.8168,73.9433 L1108.1101,73.4851 L1108.1139,73.719 L1113.3937,73.7073 L1118.6663,73.2512 L1123.9465,73.2642 L1129.2217,72.9667 L1134.5031,73.0524 L1134.5041,73.1786 L1139.7413,73.1222 L1144.9797,73.2181 L1150.2143,72.8307 L1155.452,72.8332 L1160.6898,72.853 L1160.6902,73.0501 L1165.8677,73.1155 L1171.0442,72.6459 L1176.2219,72.7978 L1181.3997,72.9607 L1186.577,72.9046 L1186.5736,72.6332 L1191.6779,73.1257 L1196.7763,73.1474 L1201.8732,73.052 L1206.9735,73.224 L1212.0717,73.2248 L1212.0795,73.5486 L1217.0701,73.207 L1222.0787,73.6073 L1227.0802,73.7155 L1232.0802,73.7612 L1237.0808,73.8311 L1237.0832,73.8936 L1241.9688,74.0635 L1246.8427,73.9178 L1251.7326,74.199 L1256.6177,74.3541 L1261.5114,74.741 L1261.5129,74.7694 L1266.2653,75.0264 L1271.0187,75.3053 L1275.7601,75.3507 L1280.5171,75.6961 L1285.2704,75.9723 L1285.2668,75.919 L1289.8868,76.5421 L1294.4811,76.7895 L1299.0523,76.6991 L1303.6637,77.1961 L1308.2648,77.5425 L1308.2425,77.2869 L1312.7032,78.0555 L1317.1429,78.5826 L1321.5678,78.9396 L1325.9573,78.8909 L1330.4014,79.4691 L1330.4237,79.6741 L1334.603,79.6011 L1338.8854,80.4778 L1343.0986,80.7173 L1347.3548,81.3524 L1351.5874,81.7698 L1351.6015,81.8757 L1355.6436,82.5163 L1359.6019,82.5296 L1363.7007,83.5947 L1367.7116,84.0022 L1371.7296,84.4622 L1371.755,84.6181 L1375.5842,85.4105 L1379.3321,85.7052 L1383.1454,86.4 L1386.9492,87.0371 L1390.735,87.5638 L1390.752,87.6498 L1394.29,88.2691 L1397.9067,89.285 L1401.3475,89.4151 L1405.0043,90.633 L1408.5105,91.0923 L1408.4454,90.8227 L1411.7447,91.6534 L1415.0958,92.6987 L1418.3851,93.4882 L1421.6213,94.0576 L1424.9632,95.0651 L1425.0152,95.2415 L1427.9843,95.9985 L1431.0693,97.1488 L1434.0692,98.0104 L1436.9363,98.4219 L1440,99.5 L1439.9384,99.3342 L1442.1507,100.253 L1444.3964,101.2618 L1446.5745,102.0885 L1448.7294,102.8529 L1450.8534,103.5343 L1450.7903,103.396 L1453.1048,104.7654 L1455.2383,105.7383 L1457.2465,106.4367 L1459.3451,107.3331 L1461.5231,108.4036 L1461.4391,108.2462 L1463.5625,109.4316 L1465.7204,110.6817 L1467.7616,111.7131 L1469.7727,112.6882 L1471.9444,113.9641 L1472.0564,114.1495 L1473.8605,115.0112 L1476.1031,116.5984 L1478.1075,117.7915 L1480.1164,118.992 L1482.0525,120.0722 L1482.2237,120.328 L1483.9378,121.2837 L1485.8703,122.5658 L1488.0189,124.1709 L1489.6892,125.0611 L1491.7828,126.584 L1491.7215,126.4999 L1493.6706,127.9798 L1495.5159,129.3174 L1497.2616,130.5183 L1499.2018,131.986 L1501.0706,133.3558 L1501.2749,133.6162 L1503.0046,134.9602 L1504.4193,135.9025 L1506.3605,137.5161 L1507.9542,138.6865 L1509.8513,140.2438 L1509.8437,140.2349 L1511.5765,141.7159 L1513.2544,143.1312 L1514.587,144.1335 L1516.5324,145.8689 L1518.06,147.1044 " fill="none" style="stroke:#383838;stroke-width:1.0;"/><polygon fill="#383838" points="1521.91,150.4655,1521.9735,150.495,1520.954,148.6213,1520.3068,146.9207,1519.5384,145.1637,1518.3712,143.2212,1517.756,141.5355,1517.7301,141.5338,1517.6913,142.6546,1517.7827,143.7843,1517.9647,144.9202,1517.8346,146.0348,1518.1417,147.1792,1518.1542,147.3634,1516.9986,147.0468,1515.8797,147.2677,1514.7653,147.5543,1513.6247,147.4592,1512.498,147.5649,1512.5047,147.5866,1514.3772,148.1348,1516.2803,148.782,1518.1687,149.3814,1520.0851,150.072,1521.91,150.4655" style="stroke:#383838;stroke-width:1.0;"/><!--MD5=[cc4f3a5c1d0a83f903f3e7c32aba5051]
link EspecificarColaboradorController to ColaboradorRepository--><path d="M511.412,137.9002 L511.4335,137.9911 L516.2627,136.5644 L521.2179,135.6705 L526.1321,134.6031 L530.9114,132.9651 L535.8774,132.117 L535.8698,132.0833 L540.8807,130.7968 L545.9298,129.6802 L551.0054,128.6817 L555.9895,127.2762 L561.1019,126.4407 L561.153,126.6814 L566.2033,125.0703 L571.4028,124.1618 L576.6206,123.3391 L581.7324,122.0176 L586.8999,120.9584 L586.9058,120.9882 L592.1344,119.9042 L597.3898,118.9557 L602.6323,117.9418 L607.8995,117.0526 L613.086,115.757 L613.1397,116.0504 L618.4181,115.0873 L623.6618,113.9349 L628.9563,113.0596 L634.2531,112.1972 L639.4746,110.9235 L639.4221,110.6073 L644.805,110.3453 L650.0152,109.042 L655.3567,108.5304 L660.563,107.2035 L665.8801,106.5448 L665.8757,106.5147 L671.1752,106.1036 L676.3718,104.9887 L681.6291,104.2891 L686.8915,103.6243 L692.1171,102.708 L692.1409,102.8915 L694.7163,102.3687 L697.3325,102.1594 L699.8827,101.4429 L702.5312,101.4829 L705.1144,101.02 L705.143,101.2619 L707.7147,100.9122 L710.3006,100.6826 L712.8206,99.8948 L715.3889,99.5161 L718,99.5 L717.968,99.2257 L722.1713,98.9878 L726.3385,98.4407 L730.558,98.3421 L734.6882,97.4779 L738.8715,97.0687 L738.8525,96.9174 L742.8843,96.6667 L746.8349,95.7693 L750.8432,95.3318 L754.9081,95.3442 L758.8723,94.5554 L758.8987,94.7472 L766.4396,93.8433 L773.8984,92.3428 L781.4601,91.5896 L788.9993,90.6735 L796.4863,89.3781 L796.4552,89.1705 L803.4412,88.2922 L810.417,87.346 L817.4129,86.5333 L824.3308,85.2012 L831.2923,84.1593 L831.324,84.3624 L837.7439,82.9023 L844.225,81.8342 L850.7955,81.3389 L857.2014,79.7891 L863.7401,79.0901 L863.7747,79.3137 L869.8621,78.2352 L875.9378,77.081 L882.0399,76.0976 L888.2032,75.5088 L894.2799,74.3616 L894.2609,74.23 L900.1339,73.7827 L905.8776,72.4398 L911.7682,72.1153 L917.5761,71.2174 L923.3617,70.165 L923.3758,70.273 L926.1914,69.818 L929.0573,69.7496 L931.8778,69.332 L934.6793,68.7683 L937.4965,68.3259 L937.5104,68.4443 L940.2776,67.9415 L943.1092,67.9883 L945.868,67.4135 L948.6567,67.0945 L951.4356,66.6914 L951.4082,66.4224 L954.1772,66.231 L956.9793,66.3637 L959.7347,66.0378 L962.4733,65.5476 L965.2351,65.2854 L965.2231,65.1427 L967.9703,64.9577 L970.6961,64.5201 L973.4804,64.777 L976.2358,64.6901 L978.9515,64.1319 L978.9665,64.3653 L981.7091,64.2647 L984.4234,63.7203 L987.1676,63.6442 L989.892,63.2582 L992.6409,63.2546 L992.6462,63.3808 L995.3892,63.2488 L998.1387,63.2691 L1000.8678,62.8065 L1003.6133,62.7333 L1006.3596,62.6776 L1006.3632,62.8747 L1009.125,62.8791 L1011.8771,62.3487 L1014.6405,62.4397 L1017.4042,62.5416 L1020.1638,62.4247 L1020.162,62.1532 L1022.9541,62.6008 L1025.743,62.5774 L1028.5311,62.437 L1031.3211,62.564 L1034.1098,62.5198 L1034.1205,62.8434 L1036.9341,62.4742 L1039.7721,62.8464 L1042.6005,62.9268 L1045.4268,62.9447 L1048.2539,62.9867 L1048.2577,63.0492 L1051.1366,63.2096 L1053.9967,63.0549 L1056.8823,63.3265 L1059.7604,63.4721 L1062.6523,63.8494 L1062.6548,63.8777 L1065.5975,64.1449 L1068.5422,64.434 L1071.4665,64.49 L1074.4169,64.8454 L1077.3613,65.1318 L1077.3552,65.0787 L1080.4056,65.7317 L1083.4132,66.0105 L1086.3823,65.9529 L1089.4183,66.4803 L1092.4371,66.8577 L1092.4012,66.6037 L1095.5549,67.4233 L1098.6746,68.0028 L1101.7704,68.4134 L1104.8091,68.4207 L1107.936,69.0511 L1107.9702,69.2544 L1111.077,69.2624 L1114.342,70.2127 L1117.5009,70.5307 L1120.7257,71.2412 L1123.9142,71.7358 L1123.9346,71.8406 L1127.2569,72.5818 L1130.4589,72.7016 L1133.8627,73.8632 L1137.1404,74.3735 L1140.4281,74.9357 L1140.4618,75.09 L1143.9202,76.0082 L1147.2708,76.4337 L1150.7081,77.2552 L1154.1328,78.0196 L1157.5337,78.6748 L1157.5544,78.76 L1161.0844,79.5348 L1164.7096,80.7026 L1168.1222,80.9926 L1171.7959,82.3606 L1175.2875,82.9768 L1175.2165,82.7087 L1178.9176,83.7225 L1182.6753,84.9496 L1186.3656,85.9224 L1189.9979,86.6763 L1193.7456,87.8658 L1193.7962,88.0426 L1197.6027,89.0123 L1201.522,90.3762 L1205.3584,91.4507 L1209.0658,92.0741 L1212.9644,93.3656 L1212.9126,93.1964 L1216.9547,94.5375 L1221.0249,95.9704 L1225.0382,97.2175 L1229.0321,98.4011 L1233,99.5 L1232.9487,99.357 L1235.3377,100.571 L1237.5794,101.3747 L1239.7193,101.8946 L1241.9326,102.6192 L1244.2106,103.524 L1244.1387,103.3607 L1246.3816,104.4091 L1248.6541,105.5246 L1250.8267,106.4132 L1252.9736,107.2433 L1255.2578,108.3856 L1255.3568,108.5783 L1257.3273,109.3152 L1259.6852,110.8063 L1261.8326,111.8876 L1263.984,112.9767 L1266.0711,113.9408 L1266.2257,114.2069 L1268.118,115.0672 L1270.2076,116.2671 L1272.4923,117.803 L1274.345,118.5951 L1276.58,120.0455 L1276.5238,119.958 L1278.6345,121.3907 L1280.65,122.6752 L1282.5742,123.8176 L1284.6768,125.2376 L1286.7139,126.5557 L1286.9035,126.8269 L1288.8166,128.1463 L1290.4374,129.0472 L1292.5469,130.6474 L1294.3337,131.7859 L1296.4022,133.3275 L1296.3952,133.3181 L1298.3148,134.8095 L1300.1831,136.2324 L1301.7281,137.2249 L1303.8469,138.9813 L1305.5744,140.2168 L1305.5767,140.2197 L1307.1374,141.3966 L1308.8779,142.7984 L1310.8164,144.4479 L1312.5122,145.7939 L1314.16,147.0797 " fill="none" style="stroke:#383838;stroke-width:1.0;"/><polygon fill="#383838" points="1318.2,150.4423,1318.2628,150.4733,1317.2052,148.6144,1316.516,146.9372,1315.7069,145.2008,1314.5032,143.27,1313.8456,141.6083,1313.8198,141.606,1313.8066,142.7221,1313.9235,143.8501,1314.1307,144.9864,1314.0264,146.0943,1314.3585,147.2419,1314.3752,147.4257,1313.2127,147.1352,1312.0991,147.3814,1310.9914,147.693,1309.849,147.6237,1308.7249,147.7547,1308.7311,147.7766,1310.617,148.282,1312.5312,148.887,1314.4317,149.444,1316.3583,150.0926,1318.2,150.4423" style="stroke:#383838;stroke-width:1.0;"/><!--MD5=[5058dbd4464e3a9b4b59b90b79044e20]
link EspecificarColaboradorController to AddUserController--><path d="M467.783,137.9029 L467.8102,137.9923 L471.4576,136.5913 L475.2645,135.7141 L479.0195,134.6664 L482.6036,133.0577 L486.4243,132.2256 L486.4147,132.1924 L490.2773,130.9233 L494.1879,129.8217 L498.1318,128.8364 L501.9608,127.4501 L505.9508,126.6255 L506.0145,126.8631 L509.9434,125.2657 L514.0583,124.3622 L518.1959,123.5434 L522.2015,122.232 L526.2765,121.1796 L526.2838,121.2091 L530.4807,120.123 L534.7109,119.1709 L538.9251,118.1541 L543.1699,117.2607 L547.315,115.9652 L547.3808,116.2561 L551.7147,115.2784 L556.006,114.1132 L560.3596,113.2225 L564.716,112.3448 L568.9801,111.0592 L568.9162,110.7451 L573.4814,110.4506 L577.8361,109.1219 L582.3508,108.5794 L586.7008,107.2273 L591.1858,106.5388 L591.1804,106.5088 L595.7758,106.0517 L600.2459,104.8944 L604.7899,104.1502 L609.3402,103.4407 L613.8456,102.481 L613.8748,102.6637 L616.14,102.113 L618.4551,101.8746 L620.6895,101.131 L623.0442,101.1408 L625.3189,100.6497 L625.3541,100.8908 L627.6584,100.5079 L629.9801,100.2446 L632.2207,99.4252 L634.5207,99.0135 L636.8735,98.963 L636.8374,98.6892 L639.1951,98.6305 L641.5121,98.2634 L643.8881,98.3437 L646.1634,97.66 L648.4985,97.4305 L648.4808,97.279 L650.8472,97.2575 L653.1379,96.5886 L655.4825,96.3801 L657.8798,96.622 L660.1832,96.0618 L660.2028,96.2544 L662.563,96.1475 L664.8621,95.4414 L667.2377,95.4858 L669.5967,95.3667 L671.9168,94.8666 L671.8988,94.6574 L674.2675,94.6217 L676.6303,94.5175 L679.0046,94.5479 L681.334,94.0551 L683.6885,93.8545 L683.7027,94.0596 L686.0312,93.4451 L688.3873,93.2265 L690.7834,93.5862 L693.1057,92.8812 L695.4875,93.0352 L695.4993,93.2611 L697.8555,93.0035 L700.2076,92.6695 L702.5687,92.508 L704.9507,92.7452 L707.3032,92.4182 L707.2986,92.2853 L709.6765,92.6001 L712.0233,92.0107 L714.4054,92.4495 L716.7677,92.3094 L719.1246,92.0133 L719.1263,92.1222 L721.4882,91.9976 L723.8562,92.2629 L726.2187,92.176 L728.5789,91.9419 L730.941,91.83 L730.9415,91.9492 L733.3009,91.7817 L735.6626,92.1677 L738.0217,91.9277 L740.3819,91.9452 L742.7417,91.8781 L742.7351,91.6078 L745.0921,91.7558 L747.4572,92.2295 L749.8109,92.2424 L752.1606,92.0902 L754.5159,92.167 L754.5093,92.024 L756.8588,92.1777 L759.1966,92.0782 L761.5664,92.6749 L763.9204,92.927 L766.2527,92.7066 L766.2687,92.94 L768.6115,93.1746 L770.924,92.9658 L773.2686,93.2251 L775.5919,93.1745 L777.9414,93.5063 L777.953,93.632 L780.2775,93.8294 L782.6159,94.1786 L784.91,94.0464 L787.2399,94.3025 L789.5713,94.5759 L789.5942,94.7716 L791.9126,95.0961 L794.169,94.8892 L796.4975,95.2997 L798.8272,95.721 L801.1316,95.9249 L801.0932,95.6562 L803.4497,96.408 L805.7397,96.6937 L808.0131,96.8635 L810.3243,97.298 L812.6114,97.5631 L812.6657,97.8824 L814.8658,97.8134 L817.1903,98.4759 L819.4658,98.8504 L821.7309,99.1633 L824,99.5 L824.0128,99.5613 L827.8807,100.3586 L831.6839,100.8469 L835.5746,101.7533 L839.4394,102.5362 L843.3518,103.5462 L843.3585,103.5738 L845.309,104.0586 L847.2648,104.5648 L849.1651,104.8437 L851.1366,105.4146 L853.0917,105.9181 L853.0781,105.8664 L855.1075,106.6816 L857.0408,107.1326 L858.8874,107.2563 L860.8846,107.9492 L862.8432,108.4961 L862.7731,108.2493 L864.8261,109.1723 L866.8128,109.8621 L868.753,110.3876 L870.5819,110.5214 L872.5827,111.2605 L872.6423,111.4579 L874.4281,111.5307 L876.4901,112.5181 L878.3667,112.8917 L880.3584,113.6464 L882.2868,114.1914 L882.3193,114.2932 L884.2797,115.0069 L886.0477,115.1177 L888.1383,116.2394 L890.0272,116.729 L891.9322,117.2691 L891.9824,117.4188 L893.9504,118.2251 L895.7582,118.5532 L897.6949,119.2657 L899.6129,119.9227 L901.4954,120.4737 L901.5249,120.5562 L905.2525,121.8155 L909.1161,123.4554 L912.6758,124.2449 L916.6087,126.0789 L920.2814,127.1844 L920.182,126.9255 L923.8306,128.3564 L927.5583,129.9933 L931.1917,131.3846 L934.7439,132.5646 L938.4576,134.1652 L938.5271,134.3355 L941.9517,135.6285 L945.5313,137.3012 L948.9971,138.6952 L952.2855,139.6547 L955.8366,141.2577 L955.7668,141.0952 L959.0928,142.6141 L962.4568,144.2211 L965.744,145.6497 L969.005,147.0172 L972.231,148.3034 " fill="none" style="stroke:#383838;stroke-width:1.0;"/><polygon fill="#383838" points="977.058,150.4417,977.1099,150.4887,975.6337,148.8887,974.4618,147.5644,973.1909,146.1503,971.5939,144.441,970.4482,143.1403,970.424,143.131,970.7232,144.1445,971.1441,145.205,971.6498,146.2983,971.8636,147.2789,972.4862,148.4173,972.5526,148.5894,971.3551,148.6289,970.3516,149.171,969.3718,149.7744,968.2543,150.021,967.2092,150.4552,967.2092,150.478,969.1789,150.4419,971.1488,150.5093,973.1186,150.5268,975.0885,150.6396,977.058,150.4417" style="stroke:#383838;stroke-width:1.0;"/><!--MD5=[ced45eb461fe164be6f99cce2af088b5]
link EspecificarColaboradorController to SystemUser--><path d="M682.305,184 L682.305,184.0934 L688.2898,183.8159 L694.2746,184.0859 L700.2594,184.1776 L706.2442,183.6829 L712.229,184 " fill="none" style="stroke:#383838;stroke-width:1.0;"/><polygon fill="#383838" points="717.445,184,717.4735,184.064,715.5889,183.0738,713.8712,182.4589,712.0991,181.7217,710.1484,180.5827,708.445,180,708.4267,179.9817,709.1445,180.6995,709.9546,181.5096,710.8289,182.3839,711.482,183.037,712.445,184,712.5755,184.1305,711.4964,184.6514,710.7984,185.5534,710.1468,186.5018,709.2248,187.1798,708.445,188,708.4542,188.0208,710.2407,187.1903,712.0692,186.4544,713.8774,185.6728,715.7243,184.9784,717.445,184" style="stroke:#383838;stroke-width:1.0;"/><!--MD5=[c68565e4112c912b0563ee061f8c2192]
@startuml
'http://plantuml.com/skinparam.html
skinparam handwritten true
skinparam monochrome true
skinparam packageStyle rect
skinparam defaultFontName FG Virgil
skinparam shadowing false

class EspecificarColaboradorUI <<presentation>>
class EspecificarColaboradorController <<application>>
class Colaborador <<domain>>
class RandomRawPassword <<domain>>
class ColaboradorRepository <<repository>>
class SystemUser <<repository>>
class AddUserController <<presentation>>>


EspecificarColaboradorUI - -> EspecificarColaboradorController : theController

EspecificarColaboradorController -> Colaborador
EspecificarColaboradorController -> RandomRawPassword
EspecificarColaboradorController -> ColaboradorRepository
EspecificarColaboradorController -> AddUserController
EspecificarColaboradorController -> SystemUser

EspecificarColaboradorController : geraPassword()
EspecificarColaboradorController : novoUtilizador(username,password,firstName,lastName,endereco)
EspecificarColaboradorController : novoColaborador(numMecanografico,nomeCurto,nomeCompleto,dataNascimento,localResidencia,endereco,contacto)

Colaborador : new Colaborador(numMecanografico,nomeCurto,nomeCompleto,dataNascimento,localResidencia,endereco,contacto)

RandomRawPassword : toString()

SystemUser : save(newUser)

ColaboradorRepository : save(colab)

AddUserController : addUser(username,password,firstname,lastName,endereco,set)
@enduml

@startuml
skinparam handwritten true
skinparam monochrome true
skinparam packageStyle rect
skinparam defaultFontName FG Virgil
skinparam shadowing false

class EspecificarColaboradorUI <<presentation>>
class EspecificarColaboradorController <<application>>
class Colaborador <<domain>>
class RandomRawPassword <<domain>>
class ColaboradorRepository <<repository>>
class SystemUser <<repository>>
class AddUserController <<presentation>>>


EspecificarColaboradorUI - -> EspecificarColaboradorController : theController

EspecificarColaboradorController -> Colaborador
EspecificarColaboradorController -> RandomRawPassword
EspecificarColaboradorController -> ColaboradorRepository
EspecificarColaboradorController -> AddUserController
EspecificarColaboradorController -> SystemUser

EspecificarColaboradorController : geraPassword()
EspecificarColaboradorController : novoUtilizador(username,password,firstName,lastName,endereco)
EspecificarColaboradorController : novoColaborador(numMecanografico,nomeCurto,nomeCompleto,dataNascimento,localResidencia,endereco,contacto)

Colaborador : new Colaborador(numMecanografico,nomeCurto,nomeCompleto,dataNascimento,localResidencia,endereco,contacto)

RandomRawPassword : toString()

SystemUser : save(newUser)

ColaboradorRepository : save(colab)

AddUserController : addUser(username,password,firstname,lastName,endereco,set)
@enduml

PlantUML version 1.2021.6beta6(Unknown compile time)
(GPL source distribution)
Java Runtime: Java(TM) SE Runtime Environment
JVM: Java HotSpot(TM) 64-Bit Server VM
Default Encoding: UTF-8
Language: en
Country: US
--></g></svg>