<?xml version="1.0" encoding="UTF-8" standalone="no"?><svg xmlns="http://www.w3.org/2000/svg" xmlns:xlink="http://www.w3.org/1999/xlink" contentScriptType="application/ecmascript" contentStyleType="text/css" height="237px" preserveAspectRatio="none" style="width:1945px;height:237px;background:#FFFFFF;" version="1.1" viewBox="0 0 1945 237" width="1945px" zoomAndPan="magnify"><defs/><g><!--MD5=[fdd143688dd4c22e6f2ee475119423ce]
class EspecificarColaboradorUI--><polygon fill="#F8F8F8" points="252,13.5,252,13.7102,261.7368,13.0857,271.4737,13.6933,281.2105,13.8997,290.9474,12.7866,300.6842,13.4223,310.4211,13.0735,320.1579,13.1165,329.8947,13.4318,339.6316,12.8086,349.3684,14.0536,359.1053,12.8697,368.8421,13.3022,378.5789,13.9319,388.3158,13.4142,398.0526,13.5682,407.7895,13.4681,417.5263,13.6785,427.2632,13.7391,437,13.5,437.5857,13.5,437.6711,24.2875,437.6793,35.075,437.2546,45.8625,437.4636,56.65,437,67.4375,437,68.1397,427.2632,66.7163,417.5263,68.116,407.7895,67.141,398.0526,67.9713,388.3158,66.9425,378.5789,67.369,368.8421,68.1791,359.1053,67.3888,349.3684,67.5428,339.6316,67.7761,329.8947,67.8537,320.1579,67.4336,310.4211,67.7247,300.6842,66.8651,290.9474,67.7219,281.2105,67.9857,271.4737,67.882,261.7368,68.0505,252,67.4375,251.5169,67.4375,251.3478,56.65,251.3786,45.8625,251.9411,35.075,251.8035,24.2875,252,13.5" style="stroke:#383838;stroke-width:1.5;"/><polygon fill="#C2C2C2" points="278.0608,35.1444,276.4484,37.3475,274.5412,40.5745,271.8136,42.7491,268.9474,43.9384,266.662,44.0416,263.7247,42.5543,260.9532,41.5827,258.8495,39.6099,257.7461,37.3515,257.0917,35.5533,256.4506,33.2045,255.41,31.1832,256.2096,29.2098,256.9102,27.048,259.5393,25.3382,261.389,23.1198,263.6784,22.3832,266.4001,21.7488,269.8904,22.1257,271.8021,23.0273,274.0247,23.4359,276.7272,26.2047,277.6693,29.1277,278.0786,31.1221,277.615,34.4086" style="stroke:#383838;stroke-width:1.0;"/><path d="M269.3438,28.1406 C268.4063,27.7031 267.8125,27.5625 266.9375,27.5625 C264.3125,27.5625 262.3125,29.6406 262.3125,32.3594 L262.3125,33.4844 C262.3125,36.0625 264.4219,37.9531 267.3125,37.9531 C268.5313,37.9531 269.6875,37.6563 270.4375,37.1094 C271.0156,36.7031 271.3438,36.25 271.3438,35.8594 C271.3438,35.4063 270.9531,35.0156 270.4844,35.0156 C270.2656,35.0156 270.0625,35.0938 269.875,35.2813 C269.4219,35.7656 269.4219,35.7656 269.2344,35.8594 C268.8125,36.125 268.125,36.25 267.3594,36.25 C265.3125,36.25 264.0156,35.1563 264.0156,33.4531 L264.0156,32.3594 C264.0156,30.5781 265.2656,29.2656 267,29.2656 C267.5781,29.2656 268.1875,29.4219 268.6563,29.6719 C269.1406,29.9531 269.3125,30.1719 269.4063,30.5781 C269.4688,30.9844 269.5,31.1094 269.6406,31.2344 C269.7813,31.375 270.0156,31.4844 270.2344,31.4844 C270.5,31.4844 270.7656,31.3438 270.9375,31.125 C271.0469,30.9688 271.0781,30.7813 271.0781,30.3594 L271.0781,28.9375 C271.0781,28.5 271.0625,28.375 270.9688,28.2188 C270.8125,27.9531 270.5313,27.8125 270.2344,27.8125 C269.9375,27.8125 269.7344,27.9063 269.5156,28.2188 L269.3438,28.1406 Z " fill="#000000"/><text fill="#000000" font-family="FG Virgil" font-size="12" font-style="italic" lengthAdjust="spacing" textLength="90" x="312.5" y="29.6387">«presentation»</text><text fill="#000000" font-family="FG Virgil" font-size="12" lengthAdjust="spacing" textLength="153" x="281" y="43.6074">EspecificarColaboradorUI</text><path d="M253,51.4375 L253,51.7177 L263.1667,50.8851 L273.3333,51.6952 L283.5,51.9704 L293.6667,50.4863 L303.8333,51.3339 L314,50.8688 L324.1667,50.9262 L334.3333,51.3466 L344.5,50.5157 L354.6667,52.1757 L364.8333,50.5971 L375,51.1738 L385.1667,52.0134 L395.3333,51.3231 L405.5,51.5285 L415.6667,51.3949 L425.8333,51.6755 L436,51.4375 " fill="#F8F8F8" style="stroke:#383838;stroke-width:1.5;"/><path d="M253,59.4375 L253,59.7177 L263.1667,58.8851 L273.3333,59.6952 L283.5,59.9704 L293.6667,58.4863 L303.8333,59.3339 L314,58.8688 L324.1667,58.9262 L334.3333,59.3466 L344.5,58.5157 L354.6667,60.1757 L364.8333,58.5971 L375,59.1738 L385.1667,60.0134 L395.3333,59.3231 L405.5,59.5285 L415.6667,59.3949 L425.8333,59.6755 L436,59.4375 " fill="#F8F8F8" style="stroke:#383838;stroke-width:1.5;"/><!--MD5=[ad1e0dfb7967d80be5dad4c9388df9ec]
class EspecificarColaboradorController--><polygon fill="#F8F8F8" points="7,151,7,151.2102,16.9265,150.5857,26.8529,151.1933,36.7794,151.3997,46.7059,150.2866,56.6324,150.9223,66.5588,150.5735,76.4853,150.6165,86.4118,150.9318,96.3382,150.3086,106.2647,151.5536,116.1912,150.3697,126.1176,150.8022,136.0441,151.4319,145.9706,150.9142,155.8971,151.0682,165.8235,150.9681,175.75,151.1785,185.6765,151.2391,195.6029,151.5857,205.5294,151.6711,215.4559,151.6793,225.3824,151.2546,235.3088,151.4636,245.2353,151.7022,255.1618,150.2788,265.0882,151.6785,275.0147,150.7035,284.9412,151.5338,294.8676,150.505,304.7941,150.9315,314.7206,151.7416,324.6471,150.9513,334.5735,151.1053,344.5,151.3386,354.4265,151.4162,364.3529,150.9961,374.2794,151.2872,384.2059,150.4276,394.1324,151.2844,404.0588,151.5482,413.9853,151.4445,423.9118,151.613,433.8382,150.5169,443.7647,150.3478,453.6912,150.3786,463.6176,150.9411,473.5441,150.8035,483.4706,151.6814,493.3971,150.8253,503.3235,150.6569,513.25,151.2283,523.1765,150.3332,533.1029,150.4809,543.0294,151.649,552.9559,151.4357,562.8824,151.7345,572.8088,150.6782,582.7353,151.3192,592.6618,151.5904,602.5882,150.5276,612.5147,150.9041,622.4412,151.126,632.3676,151.6518,642.2941,150.9958,652.2206,151.4626,662.1471,150.4462,672.0735,150.3227,682,151,682.5036,151,681.2831,160.9434,682.509,170.8867,682.2066,180.8301,681.7321,190.7734,681.6462,200.7168,682.4588,210.6602,681.7007,220.6035,682,230.5469,682,231.1387,672.0735,229.9941,662.1471,231.1643,652.2206,231.0312,642.2941,230.7918,632.3676,230.5941,622.4412,231.2735,612.5147,231.1605,602.5882,230.7161,592.6618,230.8151,582.7353,230.4166,572.8088,231.2633,562.8824,230.7017,552.9559,230.7194,543.0294,229.9385,533.1029,230.1417,523.1765,231.0776,513.25,230.9766,503.3235,230.5039,493.3971,230.2247,483.4706,230.3279,473.5441,229.8607,463.6176,230.9616,453.6912,231.2864,443.7647,231.0733,433.8382,231.2418,423.9118,230.4101,413.9853,230.6341,404.0588,230.1593,394.1324,230.8309,384.2059,230.7936,374.2794,231.0993,364.3529,230.3172,354.4265,230.4125,344.5,230.9903,334.5735,231.1142,324.6471,230.0343,314.7206,230.353,304.7941,230.6961,294.8676,229.936,284.9412,230.9003,275.0147,230.8049,265.0882,230.4461,255.1618,230.6891,245.2353,231.2756,235.3088,230.234,225.3824,230.8619,215.4559,230.8325,205.5294,230.6626,195.6029,230.6878,185.6765,230.6604,175.75,229.9227,165.8235,230.1461,155.8971,230.0853,145.9706,230.6107,136.0441,230.635,126.1176,230.7086,116.1912,230.2559,106.2647,230.4794,96.3382,230.4267,86.4118,231.1237,76.4853,230.9734,66.5588,230.0613,56.6324,230.474,46.7059,229.9696,36.7794,230.8353,26.8529,231.1554,16.9265,231.0914,7,230.5469,6.5644,230.5469,7.464,220.6035,6.2572,210.6602,7.2002,200.7168,6.7007,190.7734,7.0967,180.8301,7.2403,170.8867,7.4721,160.9434,7,151" style="stroke:#383838;stroke-width:1.5;"/><polygon fill="#C2C2C2" points="251.3108,172.6444,249.6984,174.8475,247.7912,178.0745,245.0636,180.2491,242.1974,181.4384,239.912,181.5416,236.9747,180.0543,234.2032,179.0827,232.0995,177.1099,230.9961,174.8515,230.3417,173.0533,229.7006,170.7045,228.66,168.6832,229.4596,166.7098,230.1602,164.548,232.7893,162.8382,234.639,160.6198,236.9284,159.8832,239.6501,159.2488,243.1404,159.6257,245.0521,160.5273,247.2747,160.9359,249.9772,163.7047,250.9193,166.6277,251.3286,168.6221,250.865,171.9086" style="stroke:#383838;stroke-width:1.0;"/><path d="M242.5938,165.6406 C241.6563,165.2031 241.0625,165.0625 240.1875,165.0625 C237.5625,165.0625 235.5625,167.1406 235.5625,169.8594 L235.5625,170.9844 C235.5625,173.5625 237.6719,175.4531 240.5625,175.4531 C241.7813,175.4531 242.9375,175.1563 243.6875,174.6094 C244.2656,174.2031 244.5938,173.75 244.5938,173.3594 C244.5938,172.9063 244.2031,172.5156 243.7344,172.5156 C243.5156,172.5156 243.3125,172.5938 243.125,172.7813 C242.6719,173.2656 242.6719,173.2656 242.4844,173.3594 C242.0625,173.625 241.375,173.75 240.6094,173.75 C238.5625,173.75 237.2656,172.6563 237.2656,170.9531 L237.2656,169.8594 C237.2656,168.0781 238.5156,166.7656 240.25,166.7656 C240.8281,166.7656 241.4375,166.9219 241.9063,167.1719 C242.3906,167.4531 242.5625,167.6719 242.6563,168.0781 C242.7188,168.4844 242.75,168.6094 242.8906,168.7344 C243.0313,168.875 243.2656,168.9844 243.4844,168.9844 C243.75,168.9844 244.0156,168.8438 244.1875,168.625 C244.2969,168.4688 244.3281,168.2813 244.3281,167.8594 L244.3281,166.4375 C244.3281,166 244.3125,165.875 244.2188,165.7188 C244.0625,165.4531 243.7813,165.3125 243.4844,165.3125 C243.1875,165.3125 242.9844,165.4063 242.7656,165.7188 L242.5938,165.6406 Z " fill="#000000"/><text fill="#000000" font-family="FG Virgil" font-size="12" font-style="italic" lengthAdjust="spacing" textLength="80" x="320.75" y="167.1387">«application»</text><text fill="#000000" font-family="FG Virgil" font-size="12" lengthAdjust="spacing" textLength="200" x="260.75" y="181.1074">EspecificarColaboradorController</text><path d="M8,188.9375 L8,189.2177 L18.0448,188.3851 L28.0896,189.1952 L38.1343,189.4704 L48.1791,187.9863 L58.2239,188.8339 L68.2687,188.3688 L78.3134,188.4262 L88.3582,188.8466 L98.403,188.0157 L108.4478,189.6757 L118.4925,188.0971 L128.5373,188.6738 L138.5821,189.5134 L148.6269,188.8231 L158.6716,189.0285 L168.7164,188.8949 L178.7612,189.1755 L188.806,189.2563 L198.8507,189.7184 L208.8955,189.8322 L218.9403,189.8432 L228.9851,189.277 L239.0299,189.5556 L249.0746,189.8738 L259.1194,187.9759 L269.1642,189.8422 L279.209,188.5422 L289.2537,189.6492 L299.2985,188.2775 L309.3433,188.8462 L319.3881,189.9263 L329.4328,188.8725 L339.4776,189.0779 L349.5224,189.389 L359.5672,189.4925 L369.6119,188.9323 L379.6567,189.3205 L389.7015,188.1743 L399.7463,189.3167 L409.791,189.6684 L419.8358,189.5302 L429.8806,189.7549 L439.9254,188.2934 L449.9701,188.0679 L460.0149,188.109 L470.0597,188.859 L480.1045,188.6755 L490.1493,189.846 L500.194,188.7046 L510.2388,188.4801 L520.2836,189.2419 L530.3284,188.0484 L540.3731,188.2453 L550.4179,189.8028 L560.4627,189.5184 L570.5075,189.9168 L580.5522,188.5084 L590.597,189.3631 L600.6418,189.7247 L610.6866,188.3076 L620.7313,188.8097 L630.7761,189.1055 L640.8209,189.8065 L650.8657,188.9319 L660.9104,189.5543 L670.9552,188.1991 L681,188.9375 " fill="#F8F8F8" style="stroke:#383838;stroke-width:1.5;"/><path d="M8,196.9375 L8,197.2177 L18.0448,196.3851 L28.0896,197.1952 L38.1343,197.4704 L48.1791,195.9863 L58.2239,196.8339 L68.2687,196.3688 L78.3134,196.4262 L88.3582,196.8466 L98.403,196.0157 L108.4478,197.6757 L118.4925,196.0971 L128.5373,196.6738 L138.5821,197.5134 L148.6269,196.8231 L158.6716,197.0285 L168.7164,196.8949 L178.7612,197.1755 L188.806,197.2563 L198.8507,197.7184 L208.8955,197.8322 L218.9403,197.8432 L228.9851,197.277 L239.0299,197.5556 L249.0746,197.8738 L259.1194,195.9759 L269.1642,197.8422 L279.209,196.5422 L289.2537,197.6492 L299.2985,196.2775 L309.3433,196.8462 L319.3881,197.9263 L329.4328,196.8725 L339.4776,197.0779 L349.5224,197.389 L359.5672,197.4925 L369.6119,196.9323 L379.6567,197.3205 L389.7015,196.1743 L399.7463,197.3167 L409.791,197.6684 L419.8358,197.5302 L429.8806,197.7549 L439.9254,196.2934 L449.9701,196.0679 L460.0149,196.109 L470.0597,196.859 L480.1045,196.6755 L490.1493,197.846 L500.194,196.7046 L510.2388,196.4801 L520.2836,197.2419 L530.3284,196.0484 L540.3731,196.2453 L550.4179,197.8028 L560.4627,197.5184 L570.5075,197.9168 L580.5522,196.5084 L590.597,197.3631 L600.6418,197.7247 L610.6866,196.3076 L620.7313,196.8097 L630.7761,197.1055 L640.8209,197.8065 L650.8657,196.9319 L660.9104,197.5543 L670.9552,196.1991 L681,196.9375 " fill="#F8F8F8" style="stroke:#383838;stroke-width:1.5;"/><text fill="#000000" font-family="FG Virgil" font-size="11" lengthAdjust="spacing" textLength="86" x="13" y="211.1479">geraPassword()</text><text fill="#000000" font-family="FG Virgil" font-size="11" lengthAdjust="spacing" textLength="663" x="13" y="223.9526">novoColaborador(numMecanografico,nomeCurto,nomeCompleto,dataNascimento,localResidencia,endereco,contacto)</text><!--MD5=[ac8682ea5466d223e49472789fb200d2]
class Colaborador--><polygon fill="#F8F8F8" points="1263,157.5,1263,157.7102,1272.9265,157.0857,1282.8529,157.6933,1292.7794,157.8997,1302.7059,156.7866,1312.6324,157.4223,1322.5588,157.0735,1332.4853,157.1165,1342.4118,157.4318,1352.3382,156.8086,1362.2647,158.0536,1372.1912,156.8697,1382.1176,157.3022,1392.0441,157.9319,1401.9706,157.4142,1411.8971,157.5682,1421.8235,157.4681,1431.75,157.6785,1441.6765,157.7391,1451.6029,158.0857,1461.5294,158.1711,1471.4559,158.1793,1481.3824,157.7546,1491.3088,157.9636,1501.2353,158.2022,1511.1618,156.7788,1521.0882,158.1785,1531.0147,157.2035,1540.9412,158.0338,1550.8676,157.005,1560.7941,157.4315,1570.7206,158.2416,1580.6471,157.4513,1590.5735,157.6053,1600.5,157.8386,1610.4265,157.9162,1620.3529,157.4961,1630.2794,157.7872,1640.2059,156.9276,1650.1324,157.7844,1660.0588,158.0482,1669.9853,157.9445,1679.9118,158.113,1689.8382,157.0169,1699.7647,156.8478,1709.6912,156.8786,1719.6176,157.4411,1729.5441,157.3035,1739.4706,158.1814,1749.3971,157.3253,1759.3235,157.1569,1769.25,157.7283,1779.1765,156.8332,1789.1029,156.9809,1799.0294,158.149,1808.9559,157.9357,1818.8824,158.2345,1828.8088,157.1782,1838.7353,157.8192,1848.6618,158.0904,1858.5882,157.0276,1868.5147,157.4041,1878.4412,157.626,1888.3676,158.1518,1898.2941,157.4958,1908.2206,157.9626,1918.1471,156.9462,1928.0735,156.8227,1938,157.5,1938.5036,157.5,1937.2831,167.0346,1938.509,176.5692,1938.2066,186.1038,1937.7321,195.6384,1937.6462,205.173,1938.4588,214.7076,1938,224.2422,1938,223.9429,1928.0735,224.834,1918.1471,223.6894,1908.2206,224.8596,1898.2941,224.7265,1888.3676,224.4872,1878.4412,224.2894,1868.5147,224.9688,1858.5882,224.8558,1848.6618,224.4114,1838.7353,224.5104,1828.8088,224.1119,1818.8824,224.9586,1808.9559,224.3971,1799.0294,224.4148,1789.1029,223.6338,1779.1765,223.837,1769.25,224.7729,1759.3235,224.6719,1749.3971,224.1993,1739.4706,223.92,1729.5441,224.0233,1719.6176,223.556,1709.6912,224.6569,1699.7647,224.9818,1689.8382,224.7686,1679.9118,224.9371,1669.9853,224.1055,1660.0588,224.3294,1650.1324,223.8546,1640.2059,224.5262,1630.2794,224.489,1620.3529,224.7946,1610.4265,224.0125,1600.5,224.1078,1590.5735,224.6856,1580.6471,224.8095,1570.7206,223.7297,1560.7941,224.0483,1550.8676,224.3915,1540.9412,223.6313,1531.0147,224.5956,1521.0882,224.5002,1511.1618,224.1414,1501.2353,224.3844,1491.3088,224.9709,1481.3824,223.9293,1471.4559,224.5572,1461.5294,224.5278,1451.6029,224.358,1441.6765,224.3831,1431.75,224.3557,1421.8235,223.618,1411.8971,223.8414,1401.9706,223.7807,1392.0441,224.306,1382.1176,224.3303,1372.1912,224.4039,1362.2647,223.9512,1352.3382,224.1747,1342.4118,224.122,1332.4853,224.819,1322.5588,224.6688,1312.6324,223.7567,1302.7059,224.1693,1292.7794,223.665,1282.8529,224.5306,1272.9265,224.8507,1263,224.2422,1263.5446,224.2422,1262.5644,214.7076,1263.464,205.173,1262.2572,195.6384,1263.2002,186.1038,1262.7007,176.5692,1263.0967,167.0346,1263,157.5" style="stroke:#383838;stroke-width:1.5;"/><polygon fill="#C2C2C2" points="1569.8108,179.1444,1568.1984,181.3475,1566.2912,184.5745,1563.5636,186.7491,1560.6974,187.9384,1558.412,188.0416,1555.4747,186.5543,1552.7032,185.5827,1550.5995,183.6099,1549.4961,181.3515,1548.8417,179.5533,1548.2006,177.2045,1547.16,175.1832,1547.9596,173.2098,1548.6602,171.048,1551.2893,169.3382,1553.139,167.1198,1555.4284,166.3832,1558.1501,165.7488,1561.6404,166.1257,1563.5521,167.0273,1565.7747,167.4359,1568.4772,170.2047,1569.4193,173.1277,1569.8286,175.1221,1569.365,178.4086" style="stroke:#383838;stroke-width:1.0;"/><path d="M1561.0938,172.1406 C1560.1563,171.7031 1559.5625,171.5625 1558.6875,171.5625 C1556.0625,171.5625 1554.0625,173.6406 1554.0625,176.3594 L1554.0625,177.4844 C1554.0625,180.0625 1556.1719,181.9531 1559.0625,181.9531 C1560.2813,181.9531 1561.4375,181.6563 1562.1875,181.1094 C1562.7656,180.7031 1563.0938,180.25 1563.0938,179.8594 C1563.0938,179.4063 1562.7031,179.0156 1562.2344,179.0156 C1562.0156,179.0156 1561.8125,179.0938 1561.625,179.2813 C1561.1719,179.7656 1561.1719,179.7656 1560.9844,179.8594 C1560.5625,180.125 1559.875,180.25 1559.1094,180.25 C1557.0625,180.25 1555.7656,179.1563 1555.7656,177.4531 L1555.7656,176.3594 C1555.7656,174.5781 1557.0156,173.2656 1558.75,173.2656 C1559.3281,173.2656 1559.9375,173.4219 1560.4063,173.6719 C1560.8906,173.9531 1561.0625,174.1719 1561.1563,174.5781 C1561.2188,174.9844 1561.25,175.1094 1561.3906,175.2344 C1561.5313,175.375 1561.7656,175.4844 1561.9844,175.4844 C1562.25,175.4844 1562.5156,175.3438 1562.6875,175.125 C1562.7969,174.9688 1562.8281,174.7813 1562.8281,174.3594 L1562.8281,172.9375 C1562.8281,172.5 1562.8125,172.375 1562.7188,172.2188 C1562.5625,171.9531 1562.2813,171.8125 1561.9844,171.8125 C1561.6875,171.8125 1561.4844,171.9063 1561.2656,172.2188 L1561.0938,172.1406 Z " fill="#000000"/><text fill="#000000" font-family="FG Virgil" font-size="12" font-style="italic" lengthAdjust="spacing" textLength="59" x="1587.25" y="173.6387">«domain»</text><text fill="#000000" font-family="FG Virgil" font-size="12" lengthAdjust="spacing" textLength="75" x="1579.25" y="187.6074">Colaborador</text><path d="M1264,195.4375 L1264,195.7177 L1274.0448,194.8851 L1284.0896,195.6952 L1294.1343,195.9704 L1304.1791,194.4863 L1314.2239,195.3339 L1324.2687,194.8688 L1334.3134,194.9262 L1344.3582,195.3466 L1354.403,194.5157 L1364.4478,196.1757 L1374.4925,194.5971 L1384.5373,195.1738 L1394.5821,196.0134 L1404.6269,195.3231 L1414.6716,195.5285 L1424.7164,195.3949 L1434.7612,195.6755 L1444.806,195.7563 L1454.8507,196.2184 L1464.8955,196.3322 L1474.9403,196.3432 L1484.9851,195.777 L1495.0299,196.0556 L1505.0746,196.3738 L1515.1194,194.4759 L1525.1642,196.3422 L1535.209,195.0422 L1545.2537,196.1492 L1555.2985,194.7775 L1565.3433,195.3462 L1575.3881,196.4263 L1585.4328,195.3725 L1595.4776,195.5779 L1605.5224,195.889 L1615.5672,195.9925 L1625.6119,195.4323 L1635.6567,195.8205 L1645.7015,194.6743 L1655.7463,195.8167 L1665.791,196.1684 L1675.8358,196.0302 L1685.8806,196.2549 L1695.9254,194.7934 L1705.9701,194.5679 L1716.0149,194.609 L1726.0597,195.359 L1736.1045,195.1755 L1746.1493,196.346 L1756.194,195.2046 L1766.2388,194.9801 L1776.2836,195.7419 L1786.3284,194.5484 L1796.3731,194.7453 L1806.4179,196.3028 L1816.4627,196.0184 L1826.5075,196.4168 L1836.5522,195.0084 L1846.597,195.8631 L1856.6418,196.2247 L1866.6866,194.8076 L1876.7313,195.3097 L1886.7761,195.6055 L1896.8209,196.3065 L1906.8657,195.4319 L1916.9104,196.0543 L1926.9552,194.6991 L1937,195.4375 " fill="#F8F8F8" style="stroke:#383838;stroke-width:1.5;"/><path d="M1264,203.4375 L1264,203.7177 L1274.0448,202.8851 L1284.0896,203.6952 L1294.1343,203.9704 L1304.1791,202.4863 L1314.2239,203.3339 L1324.2687,202.8688 L1334.3134,202.9262 L1344.3582,203.3466 L1354.403,202.5157 L1364.4478,204.1757 L1374.4925,202.5971 L1384.5373,203.1738 L1394.5821,204.0134 L1404.6269,203.3231 L1414.6716,203.5285 L1424.7164,203.3949 L1434.7612,203.6755 L1444.806,203.7563 L1454.8507,204.2184 L1464.8955,204.3322 L1474.9403,204.3432 L1484.9851,203.777 L1495.0299,204.0556 L1505.0746,204.3738 L1515.1194,202.4759 L1525.1642,204.3422 L1535.209,203.0422 L1545.2537,204.1492 L1555.2985,202.7775 L1565.3433,203.3462 L1575.3881,204.4263 L1585.4328,203.3725 L1595.4776,203.5779 L1605.5224,203.889 L1615.5672,203.9925 L1625.6119,203.4323 L1635.6567,203.8205 L1645.7015,202.6743 L1655.7463,203.8167 L1665.791,204.1684 L1675.8358,204.0302 L1685.8806,204.2549 L1695.9254,202.7934 L1705.9701,202.5679 L1716.0149,202.609 L1726.0597,203.359 L1736.1045,203.1755 L1746.1493,204.346 L1756.194,203.2046 L1766.2388,202.9801 L1776.2836,203.7419 L1786.3284,202.5484 L1796.3731,202.7453 L1806.4179,204.3028 L1816.4627,204.0184 L1826.5075,204.4168 L1836.5522,203.0084 L1846.597,203.8631 L1856.6418,204.2247 L1866.6866,202.8076 L1876.7313,203.3097 L1886.7761,203.6055 L1896.8209,204.3065 L1906.8657,203.4319 L1916.9104,204.0543 L1926.9552,202.6991 L1937,203.4375 " fill="#F8F8F8" style="stroke:#383838;stroke-width:1.5;"/><text fill="#000000" font-family="FG Virgil" font-size="11" lengthAdjust="spacing" textLength="663" x="1269" y="217.6479">new Colaborador(numMecanografico,nomeCurto,nomeCompleto,dataNascimento,localResidencia,endereco,contacto)</text><!--MD5=[7add3abbba9a945a681f7e44bfe039aa]
class RandomRawPassword--><polygon fill="#F8F8F8" points="1065.5,157.5,1065.5,157.7102,1075.625,157.0857,1085.75,157.6933,1095.875,157.8997,1106,156.7866,1116.125,157.4223,1126.25,157.0735,1136.375,157.1165,1146.5,157.4318,1156.625,156.8086,1166.75,158.0536,1176.875,156.8697,1187,157.3022,1197.125,157.9319,1207.25,157.4142,1217.375,157.5682,1227.5,157.5,1227.4681,157.5,1227.6785,167.0346,1227.7391,176.5692,1228.0857,186.1038,1228.1711,195.6384,1228.1793,205.173,1227.7546,214.7076,1227.5,224.2422,1227.5,224.7058,1217.375,224.9444,1207.25,223.521,1197.125,224.9207,1187,223.9457,1176.875,224.776,1166.75,223.7472,1156.625,224.1737,1146.5,224.9838,1136.375,224.1935,1126.25,224.3475,1116.125,224.5808,1106,224.6584,1095.875,224.2383,1085.75,224.5294,1075.625,223.6698,1065.5,224.2422,1065.7844,224.2422,1066.0482,214.7076,1065.9445,205.173,1066.113,195.6384,1065.0169,186.1038,1064.8478,176.5692,1064.8786,167.0346,1065.5,157.5" style="stroke:#383838;stroke-width:1.5;"/><polygon fill="#C2C2C2" points="1091.5608,179.1444,1089.9484,181.3475,1088.0412,184.5745,1085.3136,186.7491,1082.4474,187.9384,1080.162,188.0416,1077.2247,186.5543,1074.4532,185.5827,1072.3495,183.6099,1071.2461,181.3515,1070.5917,179.5533,1069.9506,177.2045,1068.91,175.1832,1069.7096,173.2098,1070.4102,171.048,1073.0393,169.3382,1074.889,167.1198,1077.1784,166.3832,1079.9001,165.7488,1083.3904,166.1257,1085.3021,167.0273,1087.5247,167.4359,1090.2272,170.2047,1091.1693,173.1277,1091.5786,175.1221,1091.115,178.4086" style="stroke:#383838;stroke-width:1.0;"/><path d="M1082.8438,172.1406 C1081.9063,171.7031 1081.3125,171.5625 1080.4375,171.5625 C1077.8125,171.5625 1075.8125,173.6406 1075.8125,176.3594 L1075.8125,177.4844 C1075.8125,180.0625 1077.9219,181.9531 1080.8125,181.9531 C1082.0313,181.9531 1083.1875,181.6563 1083.9375,181.1094 C1084.5156,180.7031 1084.8438,180.25 1084.8438,179.8594 C1084.8438,179.4063 1084.4531,179.0156 1083.9844,179.0156 C1083.7656,179.0156 1083.5625,179.0938 1083.375,179.2813 C1082.9219,179.7656 1082.9219,179.7656 1082.7344,179.8594 C1082.3125,180.125 1081.625,180.25 1080.8594,180.25 C1078.8125,180.25 1077.5156,179.1563 1077.5156,177.4531 L1077.5156,176.3594 C1077.5156,174.5781 1078.7656,173.2656 1080.5,173.2656 C1081.0781,173.2656 1081.6875,173.4219 1082.1563,173.6719 C1082.6406,173.9531 1082.8125,174.1719 1082.9063,174.5781 C1082.9688,174.9844 1083,175.1094 1083.1406,175.2344 C1083.2813,175.375 1083.5156,175.4844 1083.7344,175.4844 C1084,175.4844 1084.2656,175.3438 1084.4375,175.125 C1084.5469,174.9688 1084.5781,174.7813 1084.5781,174.3594 L1084.5781,172.9375 C1084.5781,172.5 1084.5625,172.375 1084.4688,172.2188 C1084.3125,171.9531 1084.0313,171.8125 1083.7344,171.8125 C1083.4375,171.8125 1083.2344,171.9063 1083.0156,172.2188 L1082.8438,172.1406 Z " fill="#000000"/><text fill="#000000" font-family="FG Virgil" font-size="12" font-style="italic" lengthAdjust="spacing" textLength="59" x="1130" y="173.6387">«domain»</text><text fill="#000000" font-family="FG Virgil" font-size="12" lengthAdjust="spacing" textLength="130" x="1094.5" y="187.6074">RandomRawPassword</text><path d="M1066.5,195.4375 L1066.5,195.7177 L1076.5,194.8851 L1086.5,195.6952 L1096.5,195.9704 L1106.5,194.4863 L1116.5,195.3339 L1126.5,194.8688 L1136.5,194.9262 L1146.5,195.3466 L1156.5,194.5157 L1166.5,196.1757 L1176.5,194.5971 L1186.5,195.1738 L1196.5,196.0134 L1206.5,195.3231 L1216.5,195.5285 L1226.5,195.4375 " fill="#F8F8F8" style="stroke:#383838;stroke-width:1.5;"/><path d="M1066.5,203.4375 L1066.5,203.7177 L1076.5,202.8851 L1086.5,203.6952 L1096.5,203.9704 L1106.5,202.4863 L1116.5,203.3339 L1126.5,202.8688 L1136.5,202.9262 L1146.5,203.3466 L1156.5,202.5157 L1166.5,204.1757 L1176.5,202.5971 L1186.5,203.1738 L1196.5,204.0134 L1206.5,203.3231 L1216.5,203.5285 L1226.5,203.4375 " fill="#F8F8F8" style="stroke:#383838;stroke-width:1.5;"/><text fill="#000000" font-family="FG Virgil" font-size="11" lengthAdjust="spacing" textLength="52" x="1071.5" y="217.6479">toString()</text><!--MD5=[9a0e8f7957502662f95e783c1c3d84fe]
class ColaboradorRepository--><polygon fill="#F8F8F8" points="858.5,157.5,858.5,157.7102,868.6176,157.0857,878.7353,157.6933,888.8529,157.8997,898.9706,156.7866,909.0882,157.4223,919.2059,157.0735,929.3235,157.1165,939.4412,157.4318,949.5588,156.8086,959.6765,158.0536,969.7941,156.8697,979.9118,157.3022,990.0294,157.9319,1000.1471,157.4142,1010.2647,157.5682,1020.3824,157.4681,1030.5,157.5,1030.6785,157.5,1030.7391,167.0346,1031.0857,176.5692,1031.1711,186.1038,1031.1793,195.6384,1030.7546,205.173,1030.9636,214.7076,1030.5,224.2422,1030.5,224.9444,1020.3824,223.521,1010.2647,224.9207,1000.1471,223.9457,990.0294,224.776,979.9118,223.7472,969.7941,224.1737,959.6765,224.9838,949.5588,224.1935,939.4412,224.3475,929.3235,224.5808,919.2059,224.6584,909.0882,224.2383,898.9706,224.5294,888.8529,223.6698,878.7353,224.5266,868.6176,224.7904,858.5,224.2422,858.9445,224.2422,859.113,214.7076,858.0169,205.173,857.8478,195.6384,857.8786,186.1038,858.4411,176.5692,858.3035,167.0346,858.5,157.5" style="stroke:#383838;stroke-width:1.5;"/><polygon fill="#C2C2C2" points="884.5608,179.1444,882.9484,181.3475,881.0412,184.5745,878.3136,186.7491,875.4474,187.9384,873.162,188.0416,870.2247,186.5543,867.4532,185.5827,865.3495,183.6099,864.2461,181.3515,863.5917,179.5533,862.9506,177.2045,861.91,175.1832,862.7096,173.2098,863.4102,171.048,866.0393,169.3382,867.889,167.1198,870.1784,166.3832,872.9001,165.7488,876.3904,166.1257,878.3021,167.0273,880.5247,167.4359,883.2272,170.2047,884.1693,173.1277,884.5786,175.1221,884.115,178.4086" style="stroke:#383838;stroke-width:1.0;"/><path d="M875.8438,172.1406 C874.9063,171.7031 874.3125,171.5625 873.4375,171.5625 C870.8125,171.5625 868.8125,173.6406 868.8125,176.3594 L868.8125,177.4844 C868.8125,180.0625 870.9219,181.9531 873.8125,181.9531 C875.0313,181.9531 876.1875,181.6563 876.9375,181.1094 C877.5156,180.7031 877.8438,180.25 877.8438,179.8594 C877.8438,179.4063 877.4531,179.0156 876.9844,179.0156 C876.7656,179.0156 876.5625,179.0938 876.375,179.2813 C875.9219,179.7656 875.9219,179.7656 875.7344,179.8594 C875.3125,180.125 874.625,180.25 873.8594,180.25 C871.8125,180.25 870.5156,179.1563 870.5156,177.4531 L870.5156,176.3594 C870.5156,174.5781 871.7656,173.2656 873.5,173.2656 C874.0781,173.2656 874.6875,173.4219 875.1563,173.6719 C875.6406,173.9531 875.8125,174.1719 875.9063,174.5781 C875.9688,174.9844 876,175.1094 876.1406,175.2344 C876.2813,175.375 876.5156,175.4844 876.7344,175.4844 C877,175.4844 877.2656,175.3438 877.4375,175.125 C877.5469,174.9688 877.5781,174.7813 877.5781,174.3594 L877.5781,172.9375 C877.5781,172.5 877.5625,172.375 877.4688,172.2188 C877.3125,171.9531 877.0313,171.8125 876.7344,171.8125 C876.4375,171.8125 876.2344,171.9063 876.0156,172.2188 L875.8438,172.1406 Z " fill="#000000"/><text fill="#000000" font-family="FG Virgil" font-size="12" font-style="italic" lengthAdjust="spacing" textLength="74" x="920.5" y="173.6387">«repository»</text><text fill="#000000" font-family="FG Virgil" font-size="12" lengthAdjust="spacing" textLength="140" x="887.5" y="187.6074">ColaboradorRepository</text><path d="M859.5,195.4375 L859.5,195.7177 L869.5,194.8851 L879.5,195.6952 L889.5,195.9704 L899.5,194.4863 L909.5,195.3339 L919.5,194.8688 L929.5,194.9262 L939.5,195.3466 L949.5,194.5157 L959.5,196.1757 L969.5,194.5971 L979.5,195.1738 L989.5,196.0134 L999.5,195.3231 L1009.5,195.5285 L1019.5,195.3949 L1029.5,195.4375 " fill="#F8F8F8" style="stroke:#383838;stroke-width:1.5;"/><path d="M859.5,203.4375 L859.5,203.7177 L869.5,202.8851 L879.5,203.6952 L889.5,203.9704 L899.5,202.4863 L909.5,203.3339 L919.5,202.8688 L929.5,202.9262 L939.5,203.3466 L949.5,202.5157 L959.5,204.1757 L969.5,202.5971 L979.5,203.1738 L989.5,204.0134 L999.5,203.3231 L1009.5,203.5285 L1019.5,203.3949 L1029.5,203.4375 " fill="#F8F8F8" style="stroke:#383838;stroke-width:1.5;"/><text fill="#000000" font-family="FG Virgil" font-size="11" lengthAdjust="spacing" textLength="66" x="864.5" y="217.6479">save(colab)</text><!--MD5=[bc064d979c32666ae52f3d7624591b7b]
class SystemUser--><polygon fill="#F8F8F8" points="717.5,157.5,717.5,157.7102,727.1364,157.0857,736.7727,157.6933,746.4091,157.8997,756.0455,156.7866,765.6818,157.4223,775.3182,157.0735,784.9545,157.1165,794.5909,157.4318,804.2273,156.8086,813.8636,158.0536,823.5,157.5,822.8697,157.5,823.3022,167.0346,823.9319,176.5692,823.4142,186.1038,823.5682,195.6384,823.4681,205.173,823.6785,214.7076,823.5,224.2422,823.5,224.4813,813.8636,224.8279,804.2273,224.9132,794.5909,224.9214,784.9545,224.4968,775.3182,224.7058,765.6818,224.9444,756.0455,223.521,746.4091,224.9207,736.7727,223.9457,727.1364,224.776,717.5,224.2422,717.005,224.2422,717.4315,214.7076,718.2416,205.173,717.4513,195.6384,717.6053,186.1038,717.8386,176.5692,717.9162,167.0346,717.5,157.5" style="stroke:#383838;stroke-width:1.5;"/><polygon fill="#C2C2C2" points="743.5608,179.1444,741.9484,181.3475,740.0412,184.5745,737.3136,186.7491,734.4474,187.9384,732.162,188.0416,729.2247,186.5543,726.4532,185.5827,724.3495,183.6099,723.2461,181.3515,722.5917,179.5533,721.9506,177.2045,720.91,175.1832,721.7096,173.2098,722.4102,171.048,725.0393,169.3382,726.889,167.1198,729.1784,166.3832,731.9001,165.7488,735.3904,166.1257,737.3021,167.0273,739.5247,167.4359,742.2272,170.2047,743.1693,173.1277,743.5786,175.1221,743.115,178.4086" style="stroke:#383838;stroke-width:1.0;"/><path d="M734.8438,172.1406 C733.9063,171.7031 733.3125,171.5625 732.4375,171.5625 C729.8125,171.5625 727.8125,173.6406 727.8125,176.3594 L727.8125,177.4844 C727.8125,180.0625 729.9219,181.9531 732.8125,181.9531 C734.0313,181.9531 735.1875,181.6563 735.9375,181.1094 C736.5156,180.7031 736.8438,180.25 736.8438,179.8594 C736.8438,179.4063 736.4531,179.0156 735.9844,179.0156 C735.7656,179.0156 735.5625,179.0938 735.375,179.2813 C734.9219,179.7656 734.9219,179.7656 734.7344,179.8594 C734.3125,180.125 733.625,180.25 732.8594,180.25 C730.8125,180.25 729.5156,179.1563 729.5156,177.4531 L729.5156,176.3594 C729.5156,174.5781 730.7656,173.2656 732.5,173.2656 C733.0781,173.2656 733.6875,173.4219 734.1563,173.6719 C734.6406,173.9531 734.8125,174.1719 734.9063,174.5781 C734.9688,174.9844 735,175.1094 735.1406,175.2344 C735.2813,175.375 735.5156,175.4844 735.7344,175.4844 C736,175.4844 736.2656,175.3438 736.4375,175.125 C736.5469,174.9688 736.5781,174.7813 736.5781,174.3594 L736.5781,172.9375 C736.5781,172.5 736.5625,172.375 736.4688,172.2188 C736.3125,171.9531 736.0313,171.8125 735.7344,171.8125 C735.4375,171.8125 735.2344,171.9063 735.0156,172.2188 L734.8438,172.1406 Z " fill="#000000"/><text fill="#000000" font-family="FG Virgil" font-size="12" font-style="italic" lengthAdjust="spacing" textLength="74" x="746.5" y="173.6387">«repository»</text><text fill="#000000" font-family="FG Virgil" font-size="12" lengthAdjust="spacing" textLength="74" x="746.5" y="187.6074">SystemUser</text><path d="M718.5,195.4375 L718.5,195.7177 L728.9,194.8851 L739.3,195.6952 L749.7,195.9704 L760.1,194.4863 L770.5,195.3339 L780.9,194.8688 L791.3,194.9262 L801.7,195.3466 L812.1,194.5157 L822.5,195.4375 " fill="#F8F8F8" style="stroke:#383838;stroke-width:1.5;"/><path d="M718.5,203.4375 L718.5,203.7177 L728.9,202.8851 L739.3,203.6952 L749.7,203.9704 L760.1,202.4863 L770.5,203.3339 L780.9,202.8688 L791.3,202.9262 L801.7,203.3466 L812.1,202.5157 L822.5,203.4375 " fill="#F8F8F8" style="stroke:#383838;stroke-width:1.5;"/><text fill="#000000" font-family="FG Virgil" font-size="11" lengthAdjust="spacing" textLength="86" x="723.5" y="217.6479">save(newUser)</text><!--MD5=[8c59cfbc2252cb07c050d5e7108b82d8]
class AddUserController--><polygon fill="#F8F8F8" points="472.5,7,472.5,7.2102,482.6081,6.5857,492.7162,7.1933,502.8243,7.3997,512.9324,6.2866,523.0405,6.9223,533.1486,6.5735,543.2568,6.6165,553.3649,6.9318,563.473,6.3086,573.5811,7.5536,583.6892,6.3697,593.7973,6.8022,603.9054,7.4319,614.0135,6.9142,624.1216,7.0682,634.2297,6.9681,644.3378,7.1785,654.4459,7.2391,664.5541,7.5857,674.6622,7.6711,684.7703,7.6793,694.8784,7.2546,704.9865,7.4636,715.0946,7.7022,725.2027,6.2788,735.3108,7.6785,745.4189,6.7035,755.527,7.5338,765.6351,6.505,775.7432,6.9315,785.8514,7.7416,795.9595,6.9513,806.0676,7.1053,816.1757,7.3386,826.2838,7.4162,836.3919,6.9961,846.5,7,846.7872,7,845.9276,16.5346,846.7844,26.0692,847.0482,35.6038,846.9445,45.1384,847.113,54.673,846.0169,64.2076,846.5,73.7422,846.5,73.09,836.3919,73.1208,826.2838,73.6833,816.1757,73.5457,806.0676,74.4236,795.9595,73.5675,785.8514,73.3991,775.7432,73.9705,765.6351,73.0753,755.527,73.2231,745.4189,74.3911,735.3108,74.1779,725.2027,74.4767,715.0946,73.4204,704.9865,74.0614,694.8784,74.3326,684.7703,73.2698,674.6622,73.6463,664.5541,73.8682,654.4459,74.3939,644.3378,73.738,634.2297,74.2048,624.1216,73.1884,614.0135,73.0649,603.9054,74.2458,593.7973,73.0252,583.6892,74.2511,573.5811,73.9488,563.473,73.4743,553.3649,73.3884,543.2568,74.2009,533.1486,73.4429,523.0405,74.334,512.9324,73.1894,502.8243,74.3596,492.7162,74.2265,482.6081,73.9872,472.5,73.7422,472.5472,73.7422,473.2266,64.2076,473.1136,54.673,472.6693,45.1384,472.7682,35.6038,472.3697,26.0692,473.2165,16.5346,472.5,7" style="stroke:#383838;stroke-width:1.5;"/><polygon fill="#C2C2C2" points="610.3108,28.6444,608.6984,30.8475,606.7912,34.0745,604.0636,36.2491,601.1974,37.4384,598.912,37.5416,595.9747,36.0543,593.2032,35.0827,591.0995,33.1099,589.9961,30.8515,589.3417,29.0533,588.7006,26.7045,587.66,24.6832,588.4596,22.7098,589.1602,20.548,591.7893,18.8382,593.639,16.6198,595.9284,15.8832,598.6501,15.2488,602.1404,15.6257,604.0521,16.5273,606.2747,16.9359,608.9772,19.7047,609.9193,22.6277,610.3286,24.6221,609.865,27.9086" style="stroke:#383838;stroke-width:1.0;"/><path d="M601.5938,21.6406 C600.6563,21.2031 600.0625,21.0625 599.1875,21.0625 C596.5625,21.0625 594.5625,23.1406 594.5625,25.8594 L594.5625,26.9844 C594.5625,29.5625 596.6719,31.4531 599.5625,31.4531 C600.7813,31.4531 601.9375,31.1563 602.6875,30.6094 C603.2656,30.2031 603.5938,29.75 603.5938,29.3594 C603.5938,28.9063 603.2031,28.5156 602.7344,28.5156 C602.5156,28.5156 602.3125,28.5938 602.125,28.7813 C601.6719,29.2656 601.6719,29.2656 601.4844,29.3594 C601.0625,29.625 600.375,29.75 599.6094,29.75 C597.5625,29.75 596.2656,28.6563 596.2656,26.9531 L596.2656,25.8594 C596.2656,24.0781 597.5156,22.7656 599.25,22.7656 C599.8281,22.7656 600.4375,22.9219 600.9063,23.1719 C601.3906,23.4531 601.5625,23.6719 601.6563,24.0781 C601.7188,24.4844 601.75,24.6094 601.8906,24.7344 C602.0313,24.875 602.2656,24.9844 602.4844,24.9844 C602.75,24.9844 603.0156,24.8438 603.1875,24.625 C603.2969,24.4688 603.3281,24.2813 603.3281,23.8594 L603.3281,22.4375 C603.3281,22 603.3125,21.875 603.2188,21.7188 C603.0625,21.4531 602.7813,21.3125 602.4844,21.3125 C602.1875,21.3125 601.9844,21.4063 601.7656,21.7188 L601.5938,21.6406 Z " fill="#000000"/><text fill="#000000" font-family="FG Virgil" font-size="12" font-style="italic" lengthAdjust="spacing" textLength="90" x="630.75" y="23.1387">«presentation»</text><text fill="#000000" font-family="FG Virgil" font-size="12" lengthAdjust="spacing" textLength="112" x="619.75" y="37.1074">AddUserController</text><path d="M473.5,44.9375 L473.5,45.2177 L483.5541,44.3851 L493.6081,45.1952 L503.6622,45.4704 L513.7162,43.9863 L523.7703,44.8339 L533.8243,44.3688 L543.8784,44.4262 L553.9324,44.8466 L563.9865,44.0157 L574.0405,45.6757 L584.0946,44.0971 L594.1486,44.6738 L604.2027,45.5134 L614.2568,44.8231 L624.3108,45.0285 L634.3649,44.8949 L644.4189,45.1755 L654.473,45.2563 L664.527,45.7184 L674.5811,45.8322 L684.6351,45.8432 L694.6892,45.277 L704.7432,45.5556 L714.7973,45.8738 L724.8514,43.9759 L734.9054,45.8422 L744.9595,44.5422 L755.0135,45.6492 L765.0676,44.2775 L775.1216,44.8462 L785.1757,45.9263 L795.2297,44.8725 L805.2838,45.0779 L815.3378,45.389 L825.3919,45.4925 L835.4459,44.9323 L845.5,44.9375 " fill="#F8F8F8" style="stroke:#383838;stroke-width:1.5;"/><path d="M473.5,52.9375 L473.5,53.2177 L483.5541,52.3851 L493.6081,53.1952 L503.6622,53.4704 L513.7162,51.9863 L523.7703,52.8339 L533.8243,52.3688 L543.8784,52.4262 L553.9324,52.8466 L563.9865,52.0157 L574.0405,53.6757 L584.0946,52.0971 L594.1486,52.6738 L604.2027,53.5134 L614.2568,52.8231 L624.3108,53.0285 L634.3649,52.8949 L644.4189,53.1755 L654.473,53.2563 L664.527,53.7184 L674.5811,53.8322 L684.6351,53.8432 L694.6892,53.277 L704.7432,53.5556 L714.7973,53.8738 L724.8514,51.9759 L734.9054,53.8422 L744.9595,52.5422 L755.0135,53.6492 L765.0676,52.2775 L775.1216,52.8462 L785.1757,53.9263 L795.2297,52.8725 L805.2838,53.0779 L815.3378,53.389 L825.3919,53.4925 L835.4459,52.9323 L845.5,52.9375 " fill="#F8F8F8" style="stroke:#383838;stroke-width:1.5;"/><text fill="#000000" font-family="FG Virgil" font-size="11" lengthAdjust="spacing" textLength="362" x="478.5" y="67.1479">addUser(username,password,firstname,lastName,endereco,set)</text><!--MD5=[efc07359af4002ede352d360e3e5f791]
link EspecificarColaboradorUI to EspecificarColaboradorController--><path d="M344.5,67.707 L344.7802,67.707 L343.9476,77.4846 L344.7577,87.2622 L345.0329,97.0398 L343.5488,106.8174 L344.3964,116.595 L343.9313,126.3726 L343.9887,136.1502 L344.5,145.9278 " fill="none" style="stroke:#383838;stroke-width:1.0;"/><polygon fill="#383838" points="344.5,150.9371,344.564,150.9656,345.1738,149.081,346.1589,147.3633,347.0217,145.5912,347.4827,143.6405,348.5,141.9371,348.4817,141.9188,347.5995,142.6366,346.8096,143.4467,346.0839,144.321,345.137,144.9741,344.5,145.9371,344.6305,146.0676,343.5514,144.9885,342.8534,144.2905,342.2018,143.6389,341.2798,142.7169,340.5,141.9371,340.5208,141.9463,341.2903,143.7328,342.1544,145.5613,342.9728,147.3695,343.8784,149.2164,344.5,150.9371" style="stroke:#383838;stroke-width:1.0;"/><text fill="#000000" font-family="FG Virgil" font-size="13" lengthAdjust="spacing" textLength="83" x="345.5" y="117.0669">theController</text><!--MD5=[ea1c4a716374c6a44de667b4314b01f1]
link EspecificarColaboradorController to Colaborador--><path d="M499.189,150.983 L499.2094,151.0741 L504.2689,149.6547 L509.4482,148.7696 L514.5885,147.7105 L519.6004,146.0791 L524.79,145.2399 L524.7828,145.2061 L530.0608,143.9201 L535.3752,142.8044 L540.7148,141.807 L545.9674,140.4017 L551.3419,139.5678 L551.3906,139.809 L556.742,138.1926 L562.2355,137.2804 L567.7464,136.454 L573.1564,135.1278 L578.6194,134.0646 L578.625,134.0944 L584.1723,133.0032 L589.7451,132.0478 L595.3057,131.0269 L600.8897,130.1309 L606.397,128.8278 L606.448,129.1216 L612.0591,128.1507 L617.6373,126.9903 L623.2636,126.1073 L628.8922,125.2372 L634.4493,123.9552 L634.3996,123.6386 L640.1163,123.371 L645.6695,122.0608 L651.347,121.5432 L656.8964,120.2094 L662.5508,119.5446 L662.5467,119.5144 L668.1809,119.1009 L673.718,117.9828 L679.3124,117.2804 L684.9117,116.6129 L690.4762,115.6936 L690.4986,115.8773 L693.2412,115.3549 L696.0221,115.1463 L698.7411,114.43 L701.5524,114.471 L704.3024,114.0085 L704.3291,114.2507 L707.0635,113.9032 L709.8113,113.6759 L712.4975,112.89 L715.2287,112.5136 L718,112.5 L717.972,112.2252 L726.0782,111.6499 L734.1528,110.765 L742.2732,110.3291 L750.3154,109.1265 L758.4041,108.3797 L758.3894,108.228 L765.8123,107.7663 L773.1726,106.6559 L780.5775,106.0068 L788.0259,105.8091 L795.3967,104.8076 L795.4138,105.0004 L802.2392,104.528 L809.0114,103.4556 L815.8503,103.1346 L822.6747,102.6499 L829.4652,101.7838 L829.4488,101.5745 L835.7882,101.2463 L842.1222,100.8496 L848.4668,100.5875 L854.7704,99.8018 L861.0969,99.3087 L861.1102,99.5138 L867.0174,98.6778 L872.9503,98.2378 L878.9207,98.3763 L884.822,97.4497 L890.7791,97.3825 L890.7901,97.6084 L896.4276,97.1988 L902.0614,96.7127 L907.7035,96.3992 L913.3652,96.4845 L918.9993,96.0055 L918.9952,95.8725 L924.4563,96.1029 L929.89,95.4289 L935.3548,95.7832 L940.8021,95.5586 L946.2447,95.1779 L946.2458,95.2868 L951.5965,95.1434 L956.9512,95.3897 L962.3023,95.2839 L967.6518,95.0309 L973.0026,94.9001 L973.0038,95.0193 L978.3536,94.8967 L983.709,95.3274 L989.0581,95.1323 L994.4097,95.1946 L999.7605,95.1723 L999.7524,94.9021 L1005.2041,95.1568 L1010.6657,95.7371 L1016.1134,95.8567 L1021.556,95.8112 L1027.0057,95.9948 L1026.9987,95.8517 L1032.6449,96.1722 L1038.2787,96.2393 L1043.9465,97.0027 L1049.5974,97.4214 L1055.2254,97.3677 L1055.2405,97.6012 L1061.1817,98.0607 L1067.0941,98.0766 L1073.0369,98.5607 L1078.9596,98.7349 L1084.9071,99.2915 L1084.9169,99.4174 L1091.2418,99.8958 L1097.5786,100.5262 L1103.8777,100.6747 L1110.2072,101.2118 L1116.538,101.7664 L1116.5555,101.9627 L1123.3739,102.6228 L1130.1449,102.7499 L1136.971,103.4962 L1143.798,104.2534 L1150.6056,104.7925 L1150.5795,104.5223 L1158.019,105.6644 L1165.4133,106.3378 L1172.7962,106.8946 L1180.2049,107.7177 L1187.5972,108.3703 L1187.6301,108.6925 L1195.6636,109.0579 L1203.7725,110.1615 L1211.8518,110.9744 L1219.9247,111.7253 L1228,112.5 L1228.0069,112.5622 L1231.0507,112.8885 L1234.0596,112.901 L1237.1157,113.338 L1240.1578,113.6495 L1243.2256,114.1917 L1243.229,114.2199 L1246.3065,114.6124 L1249.3867,115.0267 L1252.4381,115.2088 L1255.5265,115.6892 L1258.6063,116.1008 L1258.5991,116.0478 L1261.7403,116.7767 L1264.8307,117.1324 L1267.8755,117.1527 L1270.9996,117.7563 L1274.1034,118.2103 L1274.066,117.9565 L1277.237,118.7957 L1280.3726,119.395 L1283.4834,119.8256 L1286.5349,119.8532 L1289.678,120.5033 L1289.7101,120.707 L1292.7492,120.6692 L1295.9371,121.5751 L1299.0252,121.8478 L1302.1752,122.5136 L1305.2911,122.9631 L1305.3088,123.0684 L1308.4483,123.6919 L1311.4836,123.6913 L1314.6937,124.7372 L1317.7946,125.1288 L1320.9041,125.5726 L1320.9321,125.728 L1327.177,127.0199 L1333.3324,127.8154 L1339.5597,129.0099 L1345.7766,130.1467 L1351.9738,131.1736 L1351.9906,131.2596 L1358.0941,132.3728 L1364.2754,133.8826 L1370.283,134.5062 L1376.5039,136.2182 L1382.5761,137.1712 L1382.5191,136.8998 L1388.4916,138.188 L1394.5094,139.6923 L1400.4731,140.9391 L1406.3904,141.9642 L1412.4002,143.4305 L1412.44,143.6099 L1418.1576,144.7548 L1423.9642,146.3 L1429.7054,147.5514 L1435.3449,148.3446 L1441.1351,149.8163 L1441.0949,149.644 L1446.589,151.0358 L1452.105,152.5211 L1457.5767,153.8171 L1463.0334,155.0485 L1468.47,156.1936 " fill="none" style="stroke:#383838;stroke-width:1.0;"/><polygon fill="#383838" points="1473.53,157.4058,1473.5727,157.4614,1471.8833,156.0969,1470.4441,155.0583,1468.9234,153.9135,1467.1349,152.4199,1465.7171,151.4092,1465.695,151.3957,1466.1863,152.3001,1466.7889,153.2727,1467.4689,154.2927,1467.8821,155.1494,1468.6691,156.2348,1468.7654,156.3922,1467.5943,156.6459,1466.7044,157.3593,1465.8489,158.1287,1464.7937,158.5719,1463.8435,159.1867,1463.8476,159.2091,1465.7789,158.82,1467.7289,158.5329,1469.6698,158.1966,1471.628,157.954,1473.53,157.4058" style="stroke:#383838;stroke-width:1.0;"/><!--MD5=[c38ab189d9eb0991e2f666af22c2f2ff]
link EspecificarColaboradorController to RandomRawPassword--><path d="M456.143,150.9292 L456.1702,151.0186 L461.4978,149.1043 L466.9851,147.7139 L472.4203,146.153 L477.6846,144.031 L483.1855,142.6856 L483.176,142.6524 L488.9801,140.8356 L494.8319,139.1863 L500.7169,137.6534 L506.4874,135.7194 L512.4183,134.3472 L512.4824,134.5847 L515.4194,133.2475 L518.5436,132.6038 L521.6905,132.0448 L524.7047,130.9934 L527.7887,130.2009 L527.7963,130.2303 L530.9526,129.3672 L534.1435,128.6378 L537.3176,127.844 L540.5237,127.1731 L543.6259,126.1012 L543.6975,126.3907 L546.9538,125.5882 L550.1639,124.5991 L553.4416,123.8833 L556.7225,123.1802 L559.9029,122.0713 L559.8293,121.7594 L563.3101,121.5775 L566.5486,120.3684 L569.9713,119.9403 L573.2043,118.708 L576.5928,118.1348 L576.5862,118.1051 L580.0799,117.6925 L583.4184,116.5857 L586.8486,115.8886 L590.2864,115.2258 L593.6687,114.315 L593.7069,114.496 L597.1553,113.5773 L600.669,112.968 L604.0771,111.8582 L607.6428,111.4949 L611.1036,110.6353 L611.1509,110.8743 L614.6954,110.1258 L618.2634,109.4961 L621.7222,108.3149 L625.261,107.538 L628.8707,107.1191 L628.8207,106.8475 L632.4804,106.4275 L636.0838,105.7015 L639.7689,105.4194 L643.3144,104.3793 L646.9429,103.7898 L646.9174,103.6395 L650.63,103.2661 L654.2335,102.2501 L657.9146,101.691 L661.6716,101.579 L665.2934,100.6709 L665.3231,100.8623 L669.0638,100.4165 L672.7122,99.3755 L676.4762,99.08 L680.2151,98.6221 L683.8952,97.7857 L683.8662,97.5778 L687.6545,97.2179 L691.4334,96.79 L695.231,96.4958 L698.9559,95.6814 L702.7214,95.1577 L702.7466,95.3617 L706.496,94.4439 L710.294,93.9199 L714.163,93.9713 L717.9013,92.9634 L721.745,92.8102 L721.7689,93.0351 L725.5936,92.4928 L729.4101,91.8743 L733.2448,91.4277 L737.1219,91.378 L740.9391,90.7666 L740.9274,90.6341 L744.8299,90.6853 L748.6525,89.8354 L752.566,90.0102 L756.4284,89.608 L760.2769,89.0503 L760.2845,89.1589 L764.1692,88.7982 L768.0812,88.8263 L771.9686,88.5031 L775.8457,88.033 L779.7313,87.6848 L779.7373,87.8039 L783.6372,87.4288 L787.565,87.6063 L791.4612,87.1588 L795.3704,86.9684 L799.2754,86.6935 L799.2672,86.4233 L803.1913,86.3947 L807.1253,86.6918 L811.0453,86.5282 L814.9603,86.1994 L818.8823,86.0997 L818.881,85.9565 L822.81,85.9679 L826.7367,85.7256 L830.6696,86.1804 L834.5994,86.2902 L838.5251,85.9269 L838.5283,86.1608 L842.4597,86.29 L846.3849,85.9748 L850.3166,86.1286 L854.244,85.9719 L858.1767,86.1984 L858.1815,86.3246 L862.1076,86.4559 L866.0395,86.7395 L869.9531,86.54 L873.8815,86.7302 L877.8104,86.9377 L877.8228,87.1344 L881.744,87.4355 L885.6317,87.2026 L889.5583,87.59 L893.4856,87.9883 L897.3992,88.1682 L897.375,87.8978 L901.3166,88.6736 L905.2162,88.9804 L909.1053,89.1706 L913.0183,89.6272 L916.9161,89.9132 L916.9539,90.2349 L920.7835,90.2317 L924.6997,90.9655 L928.5818,91.4091 L932.4566,91.7907 L936.3342,92.1962 L936.3433,92.2582 L940.2,92.815 L944.0106,93.0596 L947.8836,93.7266 L951.7381,94.2688 L955.6265,95.0406 L955.6315,95.0686 L959.4614,95.765 L963.2951,96.4831 L967.0875,96.9708 L970.933,97.7544 L974.7662,98.4698 L974.7551,98.4175 L978.6116,99.528 L982.3897,100.2702 L986.0973,100.6811 L989.9275,101.668 L993.7263,102.5071 L993.6643,102.2582 L997.508,103.5653 L1001.2931,104.6371 L1005.0369,105.5434 L1008.6824,106.0544 L1012.4799,107.1761 L1012.5369,107.3743 L1016.0927,107.9236 L1019.9125,109.3911 L1023.5552,110.2426 L1027.3079,111.4765 L1031,112.5 L1031.0351,112.6009 L1033.0976,113.4035 L1034.9524,113.6084 L1037.1556,114.8155 L1039.141,115.396 L1041.1437,116.0265 L1041.2052,116.1719 L1043.2774,117.1799 L1045.1532,117.7233 L1047.1869,118.6402 L1049.1978,119.5031 L1051.1652,120.263 L1051.2038,120.3417 L1053.133,121.229 L1055.2403,122.4792 L1056.9496,122.9188 L1059.1478,124.3539 L1061.005,125.0947 L1060.8707,124.8521 L1062.8085,125.947 L1064.8531,127.2351 L1066.7703,128.2929 L1068.5779,129.1526 L1070.6038,130.4067 L1070.6996,130.5636 L1072.4886,131.5834 L1074.4914,132.9532 L1076.3372,134.066 L1077.9386,134.7784 L1079.9021,136.0839 L1079.8043,135.9365 L1081.658,137.2216 L1083.5647,138.5866 L1085.3641,139.7897 L1087.1268,140.9375 L1088.8405,142.0115 L1088.7523,141.8876 L1090.7083,143.4545 L1092.4114,144.6662 L1093.9398,145.6322 L1095.5942,146.7753 L1097.3596,148.0745 L1097.252,147.9322 L1098.9101,149.2151 L1100.6126,150.5566 L1102.1655,151.7004 L1103.6799,152.7932 L1105.4,154.158 " fill="none" style="stroke:#383838;stroke-width:1.0;"/><polygon fill="#383838" points="1109.48,157.3712,1109.5419,157.4039,1108.4372,155.5653,1107.6956,153.9186,1106.8358,152.2093,1105.5871,150.2946,1104.8767,148.6643,1104.851,148.6612,1104.8701,149.7708,1105.0188,150.8958,1105.2577,152.0317,1105.1859,153.1303,1105.5492,154.2811,1105.5712,154.4643,1104.4009,154.207,1103.2947,154.4846,1102.1963,154.8275,1101.0524,154.7907,1099.9325,154.9536,1099.9381,154.9756,1101.8394,155.4268,1103.7661,155.9783,1105.6806,156.4814,1107.6184,157.0769,1109.48,157.3712" style="stroke:#383838;stroke-width:1.0;"/><!--MD5=[cc4f3a5c1d0a83f903f3e7c32aba5051]
link EspecificarColaboradorController to ColaboradorRepository--><path d="M438.892,150.9514 L438.9233,151.0394 L442.6337,149.4249 L446.5275,148.3264 L450.3616,147.0598 L453.9992,145.2407 L457.9089,144.1865 L457.8979,144.1537 L461.9029,142.6528 L465.9631,141.3171 L470.0616,140.0961 L474.028,138.4795 L478.1794,137.4171 L478.2524,137.6521 L482.3763,135.8199 L486.7133,134.6738 L491.0763,133.6115 L495.2881,132.0621 L499.5794,130.7688 L499.5877,130.798 L504.0565,129.4748 L508.5632,128.2845 L513.0516,127.0301 L517.575,125.8978 L521.9845,124.3672 L522.0611,124.6555 L524.3702,124.0452 L526.6298,123.249 L528.9618,122.7249 L531.2972,122.2136 L533.5251,121.2982 L533.4468,120.9874 L535.9478,120.9985 L538.191,119.9863 L540.6302,119.7521 L542.8675,118.7166 L545.2704,118.3379 L545.2633,118.3083 L547.7335,118.0914 L550.0391,117.1825 L552.4418,116.6819 L554.8527,116.2157 L557.2048,115.5021 L557.245,115.6827 L559.626,114.9613 L562.0757,114.5484 L564.4143,113.6364 L566.9187,113.4689 L569.3128,112.8064 L569.3622,113.045 L571.8061,112.4919 L574.2745,112.0573 L576.6289,111.0723 L579.0669,110.4907 L581.5789,110.2666 L581.5271,109.9953 L584.0557,109.7673 L586.5259,109.2335 L589.0808,109.1431 L591.4912,108.2958 L593.9874,107.8984 L593.9613,107.7482 L596.5119,107.5621 L598.9509,106.734 L601.4692,106.3625 L604.0653,106.4377 L606.523,105.7174 L606.5529,105.9087 L609.1028,105.6443 L611.5597,104.7848 L614.1331,104.6707 L616.6811,104.3942 L619.17,103.7393 L619.1413,103.5313 L621.7128,103.3452 L624.2748,103.091 L626.8554,102.9706 L629.3641,102.3299 L631.9129,101.9799 L631.9372,102.184 L634.4485,101.4305 L637.0067,101.071 L639.6333,101.2871 L642.1339,100.4434 L644.7362,100.4548 L644.7585,100.6799 L647.3229,100.2912 L649.8797,99.8263 L652.4536,99.5333 L655.0668,99.6377 L657.6243,99.1798 L657.614,99.0471 L660.2322,99.2402 L662.7802,98.5311 L665.4081,98.8478 L667.991,98.5869 L670.5617,98.1705 L670.5678,98.2792 L673.1571,98.0459 L675.7683,98.2018 L678.3597,98.006 L680.9429,97.6633 L683.5329,97.4426 L683.5368,97.5617 L686.1288,97.2986 L688.7392,97.5886 L691.3288,97.253 L693.9269,97.1747 L696.5223,97.0119 L696.5198,96.7415 L699.119,96.8082 L701.7212,97.2006 L704.3192,97.1321 L706.9157,96.8985 L709.5143,96.894 L709.512,96.7508 L712.1086,96.8388 L714.7011,96.6733 L717.3048,97.2046 L719.903,97.3911 L722.4935,97.1046 L722.5035,97.3383 L725.0969,97.5241 L727.6713,97.2658 L730.2657,97.4762 L732.8468,97.3763 L735.4444,97.6594 L735.4533,97.7853 L738.0335,97.9518 L740.6245,98.2702 L743.1813,98.1064 L745.7656,98.3316 L748.3512,98.5742 L748.3709,98.7703 L750.9459,99.0831 L753.4674,98.8637 L756.0511,99.2626 L758.6358,99.6725 L761.1987,99.8645 L761.1632,99.5954 L763.7737,100.3566 L766.3226,100.6509 L768.8563,100.8291 L771.4249,101.2725 L773.9711,101.5462 L774.0237,101.8658 L776.4849,101.8267 L779.0666,102.5198 L781.6009,102.9247 L784.125,103.2679 L786.653,103.6349 L786.6652,103.6963 L789.178,104.1866 L791.629,104.3674 L794.1636,104.967 L796.6734,105.4429 L799.2288,106.1463 L799.2353,106.1739 L801.7286,106.7744 L804.227,107.3962 L806.6715,107.7903 L809.1852,108.4769 L811.683,109.0961 L811.6687,109.0446 L814.2147,110.024 L816.6603,110.6404 L819.0157,110.9304 L821.528,111.788 L824,112.5 L823.9184,112.2568 L826.1382,113.3251 L828.2809,114.1637 L830.3693,114.8404 L832.3282,115.131 L834.4872,116.0182 L834.565,116.2091 L836.4392,116.5585 L838.6739,117.7926 L840.6667,118.4331 L842.8097,119.4421 L844.87,120.2484 L844.9157,120.3449 L847.0025,121.4035 L848.819,121.89 L851.0888,123.3357 L853.0752,124.1817 L855.0841,125.0755 L855.1583,125.215 L857.2364,126.4308 L859.0777,127.2013 L861.1094,128.3297 L863.1136,129.4065 L865.0653,130.3845 L865.1096,130.4601 L867.0018,131.5193 L869.0985,132.9273 L870.7385,133.5561 L872.9394,135.1418 L874.7491,136.0602 L874.6003,135.8262 L876.4847,137.043 L878.4875,138.4461 L880.3492,139.6271 L882.0894,140.6172 L884.0713,141.9874 L884.1749,142.1394 L885.8779,143.2402 L887.8118,144.6798 L889.5762,145.8707 L891.0763,146.6738 L892.9677,148.0512 L892.864,147.9079 L894.6153,149.2217 L896.4229,150.6132 L898.1165,151.8473 L899.7712,153.0276 L901.374,154.1362 " fill="none" style="stroke:#383838;stroke-width:1.0;"/><polygon fill="#383838" points="905.635,157.3506,905.6963,157.3846,904.5591,155.5609,903.7811,153.9364,902.8862,152.247,901.6066,150.3444,900.8594,148.737,900.8338,148.7334,900.8755,149.8377,901.0465,150.9602,901.3074,152.0952,901.2585,153.1869,901.6435,154.3393,901.6691,154.522,900.494,154.288,899.3935,154.5876,898.3021,154.9523,897.1578,154.9382,896.0413,155.1233,896.0464,155.1455,897.9576,155.5584,899.8922,156.0722,901.8155,156.5373,903.7604,157.0953,905.635,157.3506" style="stroke:#383838;stroke-width:1.0;"/><!--MD5=[9f4a7a3463949a0ff8a1fdcd3c97b159]
link EspecificarColaboradorUI to AddUserController--><path d="M437.093,40.5 L437.093,40.5934 L443.0854,40.3159 L449.0778,40.5859 L455.0702,40.6776 L461.0626,40.1829 L467.055,40.5 " fill="none" style="stroke:#383838;stroke-width:1.0;"/><polygon fill="#383838" points="472.278,40.5,472.3065,40.564,470.4219,39.5738,468.7042,38.9589,466.9321,38.2217,464.9814,37.0827,463.278,36.5,463.2597,36.4817,463.9775,37.1995,464.7876,38.0096,465.6619,38.8839,466.315,39.537,467.278,40.5,467.4085,40.6305,466.3294,41.1514,465.6314,42.0534,464.9798,43.0018,464.0578,43.6798,463.278,44.5,463.2872,44.5208,465.0737,43.6903,466.9022,42.9544,468.7104,42.1728,470.5573,41.4784,472.278,40.5" style="stroke:#383838;stroke-width:1.0;"/><!--MD5=[ced45eb461fe164be6f99cce2af088b5]
link EspecificarColaboradorController to SystemUser--><path d="M682.305,191 L682.305,191.0934 L688.2898,190.8159 L694.2746,191.0859 L700.2594,191.1776 L706.2442,190.6829 L712.229,191 " fill="none" style="stroke:#383838;stroke-width:1.0;"/><polygon fill="#383838" points="717.445,191,717.4735,191.064,715.5889,190.0738,713.8712,189.4589,712.0991,188.7217,710.1484,187.5827,708.445,187,708.4267,186.9817,709.1445,187.6995,709.9546,188.5096,710.8289,189.3839,711.482,190.037,712.445,191,712.5755,191.1305,711.4964,191.6514,710.7984,192.5534,710.1468,193.5018,709.2248,194.1798,708.445,195,708.4542,195.0208,710.2407,194.1903,712.0692,193.4544,713.8774,192.6728,715.7243,191.9784,717.445,191" style="stroke:#383838;stroke-width:1.0;"/><!--MD5=[2915ace037880f4dec856a13e2f314e3]
@startuml
'http://plantuml.com/skinparam.html
skinparam handwritten true
skinparam monochrome true
skinparam packageStyle rect
skinparam defaultFontName FG Virgil
skinparam shadowing false

class EspecificarColaboradorUI <<presentation>>
class EspecificarColaboradorController <<application>>
class Colaborador <<domain>>
class RandomRawPassword <<domain>>
class ColaboradorRepository <<repository>>
class SystemUser <<repository>>
class AddUserController <<presentation>>>


EspecificarColaboradorUI - -> EspecificarColaboradorController : theController

EspecificarColaboradorController -> Colaborador
EspecificarColaboradorController -> RandomRawPassword
EspecificarColaboradorController -> ColaboradorRepository
EspecificarColaboradorUI -> AddUserController
EspecificarColaboradorController -> SystemUser

EspecificarColaboradorController : geraPassword()
EspecificarColaboradorController : novoColaborador(numMecanografico,nomeCurto,nomeCompleto,dataNascimento,localResidencia,endereco,contacto)

Colaborador : new Colaborador(numMecanografico,nomeCurto,nomeCompleto,dataNascimento,localResidencia,endereco,contacto)

RandomRawPassword : toString()

SystemUser : save(newUser)

ColaboradorRepository : save(colab)

AddUserController : addUser(username,password,firstname,lastName,endereco,set)
@enduml

@startuml
skinparam handwritten true
skinparam monochrome true
skinparam packageStyle rect
skinparam defaultFontName FG Virgil
skinparam shadowing false

class EspecificarColaboradorUI <<presentation>>
class EspecificarColaboradorController <<application>>
class Colaborador <<domain>>
class RandomRawPassword <<domain>>
class ColaboradorRepository <<repository>>
class SystemUser <<repository>>
class AddUserController <<presentation>>>


EspecificarColaboradorUI - -> EspecificarColaboradorController : theController

EspecificarColaboradorController -> Colaborador
EspecificarColaboradorController -> RandomRawPassword
EspecificarColaboradorController -> ColaboradorRepository
EspecificarColaboradorUI -> AddUserController
EspecificarColaboradorController -> SystemUser

EspecificarColaboradorController : geraPassword()
EspecificarColaboradorController : novoColaborador(numMecanografico,nomeCurto,nomeCompleto,dataNascimento,localResidencia,endereco,contacto)

Colaborador : new Colaborador(numMecanografico,nomeCurto,nomeCompleto,dataNascimento,localResidencia,endereco,contacto)

RandomRawPassword : toString()

SystemUser : save(newUser)

ColaboradorRepository : save(colab)

AddUserController : addUser(username,password,firstname,lastName,endereco,set)
@enduml

PlantUML version 1.2021.6beta6(Unknown compile time)
(GPL source distribution)
Java Runtime: Java(TM) SE Runtime Environment
JVM: Java HotSpot(TM) 64-Bit Server VM
Default Encoding: UTF-8
Language: en
Country: US
--></g></svg>