<?xml version="1.0" encoding="UTF-8" standalone="no"?><svg xmlns="http://www.w3.org/2000/svg" xmlns:xlink="http://www.w3.org/1999/xlink" contentScriptType="application/ecmascript" contentStyleType="text/css" height="481px" preserveAspectRatio="none" style="width:1483px;height:481px;" version="1.1" viewBox="0 0 1483 481" width="1483px" zoomAndPan="magnify"><defs/><g><polygon fill="#FFFFFF" points="128.5,94.2969,128.5,94.3669,130.5,94.1588,132.5,94.3613,134.5,94.4301,136.5,94.0591,138.5,94.2969,138.4223,94.2969,138.0735,104.1266,138.1165,113.9564,138.4318,123.7861,137.8086,133.6158,139.0536,143.4456,137.8697,153.2753,138.3022,163.1051,138.9319,172.9348,138.4142,182.7645,138.5682,192.5943,138.4681,202.424,138.6785,212.2538,138.7391,222.0835,139.0857,231.9133,139.1711,241.743,139.1793,251.5727,138.7546,261.4025,138.9636,271.2322,139.2022,281.062,137.7788,290.8917,139.1785,300.7214,138.2035,310.5512,139.0338,320.3809,138.005,330.2107,138.4315,340.0404,139.2416,349.8702,138.4513,359.6999,138.6053,369.5296,138.5,379.3594,138.5,379.4723,136.5,379.4981,134.5,379.3581,132.5,379.4551,130.5,379.1686,128.5,379.3594,128.7844,379.3594,129.0482,369.5296,128.9445,359.6999,129.113,349.8702,128.0169,340.0404,127.8478,330.2107,127.8786,320.3809,128.4411,310.5512,128.3035,300.7214,129.1814,290.8917,128.3253,281.062,128.1569,271.2322,128.7283,261.4025,127.8332,251.5727,127.9809,241.743,129.149,231.9133,128.9357,222.0835,129.2345,212.2538,128.1782,202.424,128.8192,192.5943,129.0904,182.7645,128.0276,172.9348,128.4041,163.1051,128.626,153.2753,129.1518,143.4456,128.4958,133.6158,128.9626,123.7861,127.9462,113.9564,127.8227,104.1266,128.5,94.2969" style="stroke:#383838;stroke-width:1.0;"/><polygon fill="#FFFFFF" points="360,115.4297,360,115.4997,362,115.2916,364,115.4941,366,115.5629,368,115.1919,370,115.4297,369.9223,115.4297,369.5735,125.5808,369.6165,135.732,369.9318,145.8831,369.3086,156.0343,370.5536,166.1854,369.3697,176.3365,369.8022,186.4877,370.4319,196.6388,369.9142,206.79,370.0682,216.9411,369.9681,227.0922,370.1785,237.2434,370.2391,247.3945,370.5857,257.5457,370.6711,267.6968,370.6793,277.848,370.2546,287.9991,370.4636,298.1502,370.7022,308.3014,369.2788,318.4525,370.6785,328.6037,369.7035,338.7548,370.5338,348.9059,369.505,359.0571,369.9315,369.2082,370,379.3594,370,379.6066,368,379.3431,366,379.3945,364,379.4723,362,379.4981,360,379.3594,359.9961,379.3594,360.2872,369.2082,359.4276,359.0571,360.2844,348.9059,360.5482,338.7548,360.4445,328.6037,360.613,318.4525,359.5169,308.3014,359.3478,298.1502,359.3786,287.9991,359.9411,277.848,359.8035,267.6968,360.6814,257.5457,359.8253,247.3945,359.6569,237.2434,360.2283,227.0922,359.3332,216.9411,359.4809,206.79,360.649,196.6388,360.4357,186.4877,360.7345,176.3365,359.6782,166.1854,360.3192,156.0343,360.5904,145.8831,359.5276,135.732,359.9041,125.5808,360,115.4297" style="stroke:#383838;stroke-width:1.0;"/><polygon fill="#FFFFFF" points="567.5,144.5625,567.5,144.6326,569.5,144.4244,571.5,144.6269,573.5,144.6957,575.5,144.3247,577.5,144.5625,577.4223,144.5625,577.0735,154.7711,577.1165,164.9796,577.4318,175.1882,576.8086,185.3967,578.0536,195.6053,576.8697,205.8139,577.3022,216.0224,577.9319,226.231,577.4142,236.4395,577.5682,246.6481,577.4681,256.8567,577.6785,267.0652,577.7391,277.2738,578.0857,287.4823,578.1711,297.6909,578.1793,307.8995,577.7546,318.108,577.9636,328.3166,578.2022,338.5251,576.7788,348.7337,578.1785,358.9423,577.2035,369.1508,577.5,379.3594,577.5,379.5373,575.5,379.1944,573.5,379.3365,571.5,379.6066,569.5,379.3431,567.5,379.3594,567.6053,379.3594,567.8386,369.1508,567.9162,358.9423,567.4961,348.7337,567.7872,338.5251,566.9276,328.3166,567.7844,318.108,568.0482,307.8995,567.9445,297.6909,568.113,287.4823,567.0169,277.2738,566.8478,267.0652,566.8786,256.8567,567.4411,246.6481,567.3035,236.4395,568.1814,226.231,567.3253,216.0224,567.1569,205.8139,567.7283,195.6053,566.8332,185.3967,566.9809,175.1882,568.149,164.9796,567.9357,154.7711,567.5,144.5625" style="stroke:#383838;stroke-width:1.0;"/><polygon fill="#FFFFFF" points="757,261.9609,757,262.031,759,261.8228,761,262.0254,763,262.0942,765,261.7231,767,261.9609,766.9223,261.9609,766.5735,271.7682,766.6165,281.5755,766.9318,291.3828,766.3086,301.1901,767.5536,310.9974,766.3697,320.8047,766.8022,330.612,767.4319,340.4193,767,350.2266,767,350.198,765,350.2493,763,350.2159,761,350.2861,759,350.3063,757,350.2266,757.5857,350.2266,757.6711,340.4193,757.6793,330.612,757.2546,320.8047,757.4636,310.9974,757.7022,301.1901,756.2788,291.3828,757.6785,281.5755,756.7035,271.7682,757,261.9609" style="stroke:#383838;stroke-width:1.0;"/><polygon fill="#FFFFFF" points="911,291.0938,911,291.1638,913,290.9556,915,291.1582,917,291.227,919,290.856,921,291.0938,920.9223,291.0938,920.5735,300.9492,920.6165,310.8047,920.9318,320.6602,920.3086,330.5156,921.5536,340.3711,921,350.2266,921,350.0165,919,350.1606,917,350.3705,915,350.198,913,350.2493,911,350.2266,910.9681,350.2266,911.1785,340.3711,911.2391,330.5156,911.5857,320.6602,911.6711,310.8047,911.6793,300.9492,911,291.0938" style="stroke:#383838;stroke-width:1.0;"/><polygon fill="#FFFFFF" points="1076.5,173.6953,1076.5,173.7654,1078.5,173.5572,1080.5,173.7597,1082.5,173.8285,1084.5,173.4575,1086.5,173.6953,1086.4223,173.6953,1086.0735,183.5508,1086.1165,193.4063,1086.4318,203.2617,1085.8086,213.1172,1087.0536,222.9727,1086.5,232.8281,1086.5,232.618,1084.5,232.7622,1082.5,232.9721,1080.5,232.7995,1078.5,232.8509,1076.5,232.8281,1076.4681,232.8281,1076.6785,222.9727,1076.7391,213.1172,1077.0857,203.2617,1077.1711,193.4063,1077.1793,183.5508,1076.5,173.6953" style="stroke:#383838;stroke-width:1.0;"/><polygon fill="#FFFFFF" points="1275.5,202.8281,1275.5,202.8982,1277.5,202.69,1279.5,202.8926,1281.5,202.9614,1283.5,202.5903,1285.5,202.8281,1285.4741,202.8281,1285.3578,208.8281,1285.3722,214.8281,1285.4773,220.8281,1285.2695,226.8281,1285.5,232.8281,1285.5,233.0127,1283.5,232.618,1281.5,232.7622,1279.5,232.9721,1277.5,232.7995,1275.5,232.8281,1275.5227,232.8281,1275.4894,226.8281,1275.5595,220.8281,1275.5797,214.8281,1275.6952,208.8281,1275.5,202.8281" style="stroke:#383838;stroke-width:1.0;"/><polygon fill="#FFFFFF" points="1406,320.2266,1406,320.2966,1408,320.0885,1410,320.291,1412,320.3598,1414,319.9888,1416,320.2266,1415.9223,320.2266,1415.5735,330.082,1415.6165,339.9375,1415.9318,349.793,1415.3086,359.6484,1416.5536,369.5039,1416,379.3594,1416,379.1493,1414,379.2935,1412,379.5034,1410,379.3308,1408,379.3821,1406,379.3594,1405.9681,379.3594,1406.1785,369.5039,1406.2391,359.6484,1406.5857,349.793,1406.6711,339.9375,1406.6793,330.082,1406,320.2266" style="stroke:#383838;stroke-width:1.0;"/><path d="M133,84.2969 L133.2802,84.2969 L132.4476,94.3957 L133.2577,104.4945 L133.5329,114.5932 L132.0488,124.692 L132.8964,134.7908 L132.4313,144.8896 L132.4887,154.9884 L132.9091,165.0872 L132.0782,175.186 L133.7382,185.2848 L132.1596,195.3836 L132.7363,205.4824 L133.5759,215.5811 L132.8856,225.6799 L133.091,235.7787 L132.9574,245.8775 L133.238,255.9763 L133.3188,266.0751 L133.7809,276.1739 L133.8947,286.2727 L133.9057,296.3715 L133.3395,306.4703 L133.6181,316.5691 L133.9363,326.6678 L132.0384,336.7666 L133.9047,346.8654 L132.6047,356.9642 L133.7117,367.063 L132.34,377.1618 L132.9087,387.2606 L133,397.3594 " fill="none" style="stroke:#383838;stroke-width:1.0;stroke-dasharray:5.0,5.0;"/><path d="M365,84.2969 L365.2802,84.2969 L364.4476,94.3957 L365.2577,104.4945 L365.5329,114.5932 L364.0488,124.692 L364.8964,134.7908 L364.4313,144.8896 L364.4887,154.9884 L364.9091,165.0872 L364.0782,175.186 L365.7382,185.2848 L364.1596,195.3836 L364.7363,205.4824 L365.5759,215.5811 L364.8856,225.6799 L365.091,235.7787 L364.9574,245.8775 L365.238,255.9763 L365.3188,266.0751 L365.7809,276.1739 L365.8947,286.2727 L365.9057,296.3715 L365.3395,306.4703 L365.6181,316.5691 L365.9363,326.6678 L364.0384,336.7666 L365.9047,346.8654 L364.6047,356.9642 L365.7117,367.063 L364.34,377.1618 L364.9087,387.2606 L365,397.3594 " fill="none" style="stroke:#383838;stroke-width:1.0;stroke-dasharray:5.0,5.0;"/><path d="M572,84.2969 L572.2802,84.2969 L571.4476,94.3957 L572.2577,104.4945 L572.5329,114.5932 L571.0488,124.692 L571.8964,134.7908 L571.4313,144.8896 L571.4887,154.9884 L571.9091,165.0872 L571.0782,175.186 L572.7382,185.2848 L571.1596,195.3836 L571.7363,205.4824 L572.5759,215.5811 L571.8856,225.6799 L572.091,235.7787 L571.9574,245.8775 L572.238,255.9763 L572.3188,266.0751 L572.7809,276.1739 L572.8947,286.2727 L572.9057,296.3715 L572.3395,306.4703 L572.6181,316.5691 L572.9363,326.6678 L571.0384,336.7666 L572.9047,346.8654 L571.6047,356.9642 L572.7117,367.063 L571.34,377.1618 L571.9087,387.2606 L572,397.3594 " fill="none" style="stroke:#383838;stroke-width:1.0;stroke-dasharray:5.0,5.0;"/><path d="M762,84.2969 L762.2802,84.2969 L761.4476,94.3957 L762.2577,104.4945 L762.5329,114.5932 L761.0488,124.692 L761.8964,134.7908 L761.4313,144.8896 L761.4887,154.9884 L761.9091,165.0872 L761.0782,175.186 L762.7382,185.2848 L761.1596,195.3836 L761.7363,205.4824 L762.5759,215.5811 L761.8856,225.6799 L762.091,235.7787 L761.9574,245.8775 L762.238,255.9763 L762.3188,266.0751 L762.7809,276.1739 L762.8947,286.2727 L762.9057,296.3715 L762.3395,306.4703 L762.6181,316.5691 L762.9363,326.6678 L761.0384,336.7666 L762.9047,346.8654 L761.6047,356.9642 L762.7117,367.063 L761.34,377.1618 L761.9087,387.2606 L762,397.3594 " fill="none" style="stroke:#383838;stroke-width:1.0;stroke-dasharray:5.0,5.0;"/><path d="M916,84.2969 L916.2802,84.2969 L915.4476,94.3957 L916.2577,104.4945 L916.5329,114.5932 L915.0488,124.692 L915.8964,134.7908 L915.4313,144.8896 L915.4887,154.9884 L915.9091,165.0872 L915.0782,175.186 L916.7382,185.2848 L915.1596,195.3836 L915.7363,205.4824 L916.5759,215.5811 L915.8856,225.6799 L916.091,235.7787 L915.9574,245.8775 L916.238,255.9763 L916.3188,266.0751 L916.7809,276.1739 L916.8947,286.2727 L916.9057,296.3715 L916.3395,306.4703 L916.6181,316.5691 L916.9363,326.6678 L915.0384,336.7666 L916.9047,346.8654 L915.6047,356.9642 L916.7117,367.063 L915.34,377.1618 L915.9087,387.2606 L916,397.3594 " fill="none" style="stroke:#383838;stroke-width:1.0;stroke-dasharray:5.0,5.0;"/><path d="M1081,84.2969 L1081.2802,84.2969 L1080.4476,94.3957 L1081.2577,104.4945 L1081.5329,114.5932 L1080.0488,124.692 L1080.8964,134.7908 L1080.4313,144.8896 L1080.4887,154.9884 L1080.9091,165.0872 L1080.0782,175.186 L1081.7382,185.2848 L1080.1596,195.3836 L1080.7363,205.4824 L1081.5759,215.5811 L1080.8856,225.6799 L1081.091,235.7787 L1080.9574,245.8775 L1081.238,255.9763 L1081.3188,266.0751 L1081.7809,276.1739 L1081.8947,286.2727 L1081.9057,296.3715 L1081.3395,306.4703 L1081.6181,316.5691 L1081.9363,326.6678 L1080.0384,336.7666 L1081.9047,346.8654 L1080.6047,356.9642 L1081.7117,367.063 L1080.34,377.1618 L1080.9087,387.2606 L1081,397.3594 " fill="none" style="stroke:#383838;stroke-width:1.0;stroke-dasharray:5.0,5.0;"/><path d="M1280.5,84.2969 L1280.7802,84.2969 L1279.9476,94.3957 L1280.7577,104.4945 L1281.0329,114.5932 L1279.5488,124.692 L1280.3964,134.7908 L1279.9313,144.8896 L1279.9887,154.9884 L1280.4091,165.0872 L1279.5782,175.186 L1281.2382,185.2848 L1279.6596,195.3836 L1280.2363,205.4824 L1281.0759,215.5811 L1280.3856,225.6799 L1280.591,235.7787 L1280.4574,245.8775 L1280.738,255.9763 L1280.8188,266.0751 L1281.2809,276.1739 L1281.3947,286.2727 L1281.4057,296.3715 L1280.8395,306.4703 L1281.1181,316.5691 L1281.4363,326.6678 L1279.5384,336.7666 L1281.4047,346.8654 L1280.1047,356.9642 L1281.2117,367.063 L1279.84,377.1618 L1280.4087,387.2606 L1280.5,397.3594 " fill="none" style="stroke:#383838;stroke-width:1.0;stroke-dasharray:5.0,5.0;"/><path d="M1410.5,84.2969 L1410.7802,84.2969 L1409.9476,94.3957 L1410.7577,104.4945 L1411.0329,114.5932 L1409.5488,124.692 L1410.3964,134.7908 L1409.9313,144.8896 L1409.9887,154.9884 L1410.4091,165.0872 L1409.5782,175.186 L1411.2382,185.2848 L1409.6596,195.3836 L1410.2363,205.4824 L1411.0759,215.5811 L1410.3856,225.6799 L1410.591,235.7787 L1410.4574,245.8775 L1410.738,255.9763 L1410.8188,266.0751 L1411.2809,276.1739 L1411.3947,286.2727 L1411.4057,296.3715 L1410.8395,306.4703 L1411.1181,316.5691 L1411.4363,326.6678 L1409.5384,336.7666 L1411.4047,346.8654 L1410.1047,356.9642 L1411.2117,367.063 L1409.84,377.1618 L1410.4087,387.2606 L1410.5,397.3594 " fill="none" style="stroke:#383838;stroke-width:1.0;stroke-dasharray:5.0,5.0;"/><text fill="#000000" font-family="FG Virgil" font-size="14" lengthAdjust="spacingAndGlyphs" textLength="251" x="5" y="80.9951">Responsavel de Recursos Humanos</text><polygon fill="#F8F8F8" points="141.5442,16.9459,140.3715,18.5482,138.9845,20.8951,137.0008,22.4767,134.9163,23.3415,133.2542,23.4166,131.118,22.3349,129.1023,21.6283,127.5724,20.1936,126.7699,18.5511,126.2939,17.2433,125.8277,15.5351,125.0709,14.0651,125.6525,12.6298,126.162,11.0576,128.074,9.8142,129.4192,8.2008,131.0843,7.665,133.0637,7.2037,135.6021,7.4778,136.9924,8.1335,138.6089,8.4307,140.5743,10.4443,141.2595,12.5701,141.5571,14.0206,141.22,16.4108" style="stroke:#383838;stroke-width:2.0;"/><path d="M133.5,23 L133.6868,23 L133.1317,28.4 L133.6718,33.8 L133.8553,39.2 L132.8659,44.6 L133.5,50 M120.5,31 L120.5,30.9309 L125.7,30.6209 L130.9,30.6591 L136.1,30.9394 L141.3,30.3854 L146.5,31 M133.5,50 L133.8719,50.3223 L130.4766,52.6331 L128.1672,55.8849 L125.9901,59.2515 L123.0424,61.9501 L120.5,65 M133.5,50 L133.5458,50.0397 L136.0785,52.9814 L138.8199,56.1039 L141.4606,59.1392 L144.2934,62.341 L146.5,65 " fill="none" style="stroke:#383838;stroke-width:2.0;"/><text fill="#000000" font-family="FG Virgil" font-size="14" lengthAdjust="spacingAndGlyphs" textLength="251" x="5" y="409.3545">Responsavel de Recursos Humanos</text><polygon fill="#F8F8F8" points="141.5442,424.6022,140.3715,426.2045,138.9845,428.5513,137.0008,430.1329,134.9163,430.9978,133.2542,431.0728,131.118,429.9912,129.1023,429.2846,127.5724,427.8498,126.7699,426.2074,126.2939,424.8995,125.8277,423.1913,125.0709,421.7213,125.6525,420.2861,126.162,418.7139,128.074,417.4704,129.4192,415.857,131.0843,415.3213,133.0637,414.8599,135.6021,415.134,136.9924,415.7897,138.6089,416.0869,140.5743,418.1006,141.2595,420.2264,141.5571,421.6769,141.22,424.0671" style="stroke:#383838;stroke-width:2.0;"/><path d="M133.5,430.6563 L133.6868,430.6563 L133.1317,436.0563 L133.6718,441.4563 L133.8553,446.8563 L132.8659,452.2563 L133.5,457.6563 M120.5,438.6563 L120.5,438.5872 L125.7,438.2771 L130.9,438.3154 L136.1,438.5957 L141.3,438.0417 L146.5,438.6563 M133.5,457.6563 L133.8719,457.9786 L130.4766,460.2893 L128.1672,463.5411 L125.9901,466.9077 L123.0424,469.6063 L120.5,472.6563 M133.5,457.6563 L133.5458,457.696 L136.0785,460.6377 L138.8199,463.7602 L141.4606,466.7955 L144.2934,469.9972 L146.5,472.6563 " fill="none" style="stroke:#383838;stroke-width:2.0;"/><polygon fill="#F8F8F8" points="272,36.7031,272,36.9133,281.7895,36.2888,291.5789,36.8964,301.3684,37.1028,311.1579,35.9897,320.9474,36.6254,330.7368,36.2766,340.5263,36.3196,350.3158,36.635,360.1053,36.0118,369.8947,37.2568,379.6842,36.0728,389.4737,36.5054,399.2632,37.1351,409.0526,36.6173,418.8421,36.7714,428.6316,36.6712,438.4211,36.8817,448.2105,36.9423,458,36.7031,458.5857,36.7031,458.6711,46.0219,458.6793,55.3406,458.2546,64.6594,458.4636,73.9781,458,83.2969,458,83.9991,448.2105,82.5757,438.4211,83.9754,428.6316,83.0004,418.8421,83.8307,409.0526,82.8019,399.2632,83.2284,389.4737,84.0385,379.6842,83.2481,369.8947,83.4022,360.1053,83.6355,350.3158,83.7131,340.5263,83.293,330.7368,83.5841,320.9474,82.7245,311.1579,83.5813,301.3684,83.8451,291.5789,83.7414,281.7895,83.9099,272,83.2969,271.5169,83.2969,271.3478,73.9781,271.3786,64.6594,271.9411,55.3406,271.8035,46.0219,272,36.7031" style="stroke:#383838;stroke-width:1.5;"/><text fill="#000000" font-family="FG Virgil" font-size="14" font-style="italic" lengthAdjust="spacingAndGlyphs" textLength="106" x="312" y="56.6982">«presentation»</text><text fill="#000000" font-family="FG Virgil" font-size="14" lengthAdjust="spacingAndGlyphs" textLength="172" x="279" y="72.9951">LerFicheiroColaboradorUI</text><polygon fill="#F8F8F8" points="272,396.3594,272,396.5696,281.7895,395.9451,291.5789,396.5527,301.3684,396.7591,311.1579,395.646,320.9474,396.2817,330.7368,395.9329,340.5263,395.9759,350.3158,396.2912,360.1053,395.668,369.8947,396.913,379.6842,395.7291,389.4737,396.1616,399.2632,396.7913,409.0526,396.2736,418.8421,396.4276,428.6316,396.3274,438.4211,396.5379,448.2105,396.5985,458,396.3594,458.5857,396.3594,458.6711,405.6781,458.6793,414.9969,458.2546,424.3156,458.4636,433.6344,458,442.9531,458,443.6554,448.2105,442.2319,438.4211,443.6316,428.6316,442.6566,418.8421,443.4869,409.0526,442.4581,399.2632,442.8846,389.4737,443.6947,379.6842,442.9044,369.8947,443.0584,360.1053,443.2918,350.3158,443.3694,340.5263,442.9492,330.7368,443.2403,320.9474,442.3807,311.1579,443.2375,301.3684,443.5013,291.5789,443.3977,281.7895,443.5661,272,442.9531,271.5169,442.9531,271.3478,433.6344,271.3786,424.3156,271.9411,414.9969,271.8035,405.6781,272,396.3594" style="stroke:#383838;stroke-width:1.5;"/><text fill="#000000" font-family="FG Virgil" font-size="14" font-style="italic" lengthAdjust="spacingAndGlyphs" textLength="106" x="312" y="416.3545">«presentation»</text><text fill="#000000" font-family="FG Virgil" font-size="14" lengthAdjust="spacingAndGlyphs" textLength="172" x="279" y="432.6514">LerFicheiroColaboradorUI</text><polygon fill="#F8F8F8" points="468,36.7031,468,36.9133,477.9524,36.2888,487.9048,36.8964,497.8571,37.1028,507.8095,35.9897,517.7619,36.6254,527.7143,36.2766,537.6667,36.3196,547.619,36.635,557.5714,36.0118,567.5238,37.2568,577.4762,36.0728,587.4286,36.5054,597.381,37.1351,607.3333,36.6173,617.2857,36.7714,627.2381,36.6712,637.1905,36.8817,647.1429,36.9423,657.0952,37.2888,667.0476,37.3742,677,36.7031,677.6793,36.7031,677.2546,46.0219,677.4636,55.3406,677.7022,64.6594,676.2788,73.9781,677,83.2969,677,83.9754,667.0476,83.0004,657.0952,83.8307,647.1429,82.8019,637.1905,83.2284,627.2381,84.0385,617.2857,83.2481,607.3333,83.4022,597.381,83.6355,587.4286,83.7131,577.4762,83.293,567.5238,83.5841,557.5714,82.7245,547.619,83.5813,537.6667,83.8451,527.7143,83.7414,517.7619,83.9099,507.8095,82.8138,497.8571,82.6447,487.9048,82.6755,477.9524,83.238,468,83.2969,467.8035,83.2969,468.6814,73.9781,467.8253,64.6594,467.6569,55.3406,468.2283,46.0219,468,36.7031" style="stroke:#383838;stroke-width:1.5;"/><text fill="#000000" font-family="FG Virgil" font-size="14" font-style="italic" lengthAdjust="spacingAndGlyphs" textLength="92" x="526.5" y="56.6982">«application»</text><text fill="#000000" font-family="FG Virgil" font-size="14" lengthAdjust="spacingAndGlyphs" textLength="195" x="475" y="72.9951">LerFicheiroColaboradorCTRL</text><polygon fill="#F8F8F8" points="468,396.3594,468,396.5696,477.9524,395.9451,487.9048,396.5527,497.8571,396.7591,507.8095,395.646,517.7619,396.2817,527.7143,395.9329,537.6667,395.9759,547.619,396.2912,557.5714,395.668,567.5238,396.913,577.4762,395.7291,587.4286,396.1616,597.381,396.7913,607.3333,396.2736,617.2857,396.4276,627.2381,396.3274,637.1905,396.5379,647.1429,396.5985,657.0952,396.9451,667.0476,397.0304,677,396.3594,677.6793,396.3594,677.2546,405.6781,677.4636,414.9969,677.7022,424.3156,676.2788,433.6344,677,442.9531,677,443.6316,667.0476,442.6566,657.0952,443.4869,647.1429,442.4581,637.1905,442.8846,627.2381,443.6947,617.2857,442.9044,607.3333,443.0584,597.381,443.2918,587.4286,443.3694,577.4762,442.9492,567.5238,443.2403,557.5714,442.3807,547.619,443.2375,537.6667,443.5013,527.7143,443.3977,517.7619,443.5661,507.8095,442.47,497.8571,442.3009,487.9048,442.3317,477.9524,442.8942,468,442.9531,467.8035,442.9531,468.6814,433.6344,467.8253,424.3156,467.6569,414.9969,468.2283,405.6781,468,396.3594" style="stroke:#383838;stroke-width:1.5;"/><text fill="#000000" font-family="FG Virgil" font-size="14" font-style="italic" lengthAdjust="spacingAndGlyphs" textLength="92" x="526.5" y="416.3545">«application»</text><text fill="#000000" font-family="FG Virgil" font-size="14" lengthAdjust="spacingAndGlyphs" textLength="195" x="475" y="432.6514">LerFicheiroColaboradorCTRL</text><polygon fill="#F8F8F8" points="687,36.7031,687,36.9133,697,36.2888,707,36.8964,717,37.1028,727,35.9897,737,36.6254,747,36.2766,757,36.3196,767,36.635,777,36.0118,787,37.2568,797,36.0728,807,36.5054,817,37.1351,827,36.6173,837,36.7031,837.0682,36.7031,836.9681,46.0219,837.1785,55.3406,837.2391,64.6594,837.5857,73.9781,837,83.2969,837,83.9679,827,83.9761,817,83.5515,807,83.7605,797,83.9991,787,82.5757,777,83.9754,767,83.0004,757,83.8307,747,82.8019,737,83.2284,727,84.0385,717,83.2481,707,83.4022,697,83.6355,687,83.2969,687.4162,83.2969,686.9961,73.9781,687.2872,64.6594,686.4276,55.3406,687.2844,46.0219,687,36.7031" style="stroke:#383838;stroke-width:1.5;"/><text fill="#000000" font-family="FG Virgil" font-size="14" font-style="italic" lengthAdjust="spacingAndGlyphs" textLength="100" x="712" y="56.6982">«persistence»</text><text fill="#000000" font-family="FG Virgil" font-size="14" lengthAdjust="spacingAndGlyphs" textLength="136" x="694" y="72.9951">PersistenceContext</text><polygon fill="#F8F8F8" points="687,396.3594,687,396.5696,697,395.9451,707,396.5527,717,396.7591,727,395.646,737,396.2817,747,395.9329,757,395.9759,767,396.2912,777,395.668,787,396.913,797,395.7291,807,396.1616,817,396.7913,827,396.2736,837,396.3594,837.0682,396.3594,836.9681,405.6781,837.1785,414.9969,837.2391,424.3156,837.5857,433.6344,837,442.9531,837,443.6242,827,443.6324,817,443.2078,807,443.4167,797,443.6554,787,442.2319,777,443.6316,767,442.6566,757,443.4869,747,442.4581,737,442.8846,727,443.6947,717,442.9044,707,443.0584,697,443.2918,687,442.9531,687.4162,442.9531,686.9961,433.6344,687.2872,424.3156,686.4276,414.9969,687.2844,405.6781,687,396.3594" style="stroke:#383838;stroke-width:1.5;"/><text fill="#000000" font-family="FG Virgil" font-size="14" font-style="italic" lengthAdjust="spacingAndGlyphs" textLength="100" x="712" y="416.3545">«persistence»</text><text fill="#000000" font-family="FG Virgil" font-size="14" lengthAdjust="spacingAndGlyphs" textLength="136" x="694" y="432.6514">PersistenceContext</text><polygon fill="#F8F8F8" points="847,36.7031,847,36.9133,856.8571,36.2888,866.7143,36.8964,876.5714,37.1028,886.4286,35.9897,896.2857,36.6254,906.1429,36.2766,916,36.3196,925.8571,36.635,935.7143,36.0118,945.5714,37.2568,955.4286,36.0728,965.2857,36.5054,975.1429,37.1351,985,36.7031,984.9142,36.7031,985.0682,46.0219,984.9681,55.3406,985.1785,64.6594,985.2391,73.9781,985,83.2969,985,83.8826,975.1429,83.9679,965.2857,83.9761,955.4286,83.5515,945.5714,83.7605,935.7143,83.9991,925.8571,82.5757,916,83.9754,906.1429,83.0004,896.2857,83.8307,886.4286,82.8019,876.5714,83.2284,866.7143,84.0385,856.8571,83.2481,847,83.2969,847.1053,83.2969,847.3386,73.9781,847.4162,64.6594,846.9961,55.3406,847.2872,46.0219,847,36.7031" style="stroke:#383838;stroke-width:1.5;"/><text fill="#000000" font-family="FG Virgil" font-size="14" font-style="italic" lengthAdjust="spacingAndGlyphs" textLength="64" x="884" y="56.6982">«factory»</text><text fill="#000000" font-family="FG Virgil" font-size="14" lengthAdjust="spacingAndGlyphs" textLength="124" x="854" y="72.9951">RepositoryFactory</text><polygon fill="#F8F8F8" points="847,396.3594,847,396.5696,856.8571,395.9451,866.7143,396.5527,876.5714,396.7591,886.4286,395.646,896.2857,396.2817,906.1429,395.9329,916,395.9759,925.8571,396.2912,935.7143,395.668,945.5714,396.913,955.4286,395.7291,965.2857,396.1616,975.1429,396.7913,985,396.3594,984.9142,396.3594,985.0682,405.6781,984.9681,414.9969,985.1785,424.3156,985.2391,433.6344,985,442.9531,985,443.5388,975.1429,443.6242,965.2857,443.6324,955.4286,443.2078,945.5714,443.4167,935.7143,443.6554,925.8571,442.2319,916,443.6316,906.1429,442.6566,896.2857,443.4869,886.4286,442.4581,876.5714,442.8846,866.7143,443.6947,856.8571,442.9044,847,442.9531,847.1053,442.9531,847.3386,433.6344,847.4162,424.3156,846.9961,414.9969,847.2872,405.6781,847,396.3594" style="stroke:#383838;stroke-width:1.5;"/><text fill="#000000" font-family="FG Virgil" font-size="14" font-style="italic" lengthAdjust="spacingAndGlyphs" textLength="64" x="884" y="416.3545">«factory»</text><text fill="#000000" font-family="FG Virgil" font-size="14" lengthAdjust="spacingAndGlyphs" textLength="124" x="854" y="432.6514">RepositoryFactory</text><polygon fill="#F8F8F8" points="995,36.7031,995,36.9133,1005.1765,36.2888,1015.3529,36.8964,1025.5294,37.1028,1035.7059,35.9897,1045.8824,36.6254,1056.0588,36.2766,1066.2353,36.3196,1076.4118,36.635,1086.5882,36.0118,1096.7647,37.2568,1106.9412,36.0728,1117.1176,36.5054,1127.2941,37.1351,1137.4706,36.6173,1147.6471,36.7714,1157.8235,36.6712,1168,36.7031,1168.1785,36.7031,1168.2391,46.0219,1168.5857,55.3406,1168.6711,64.6594,1168.6793,73.9781,1168,83.2969,1168,83.5515,1157.8235,83.7605,1147.6471,83.9991,1137.4706,82.5757,1127.2941,83.9754,1117.1176,83.0004,1106.9412,83.8307,1096.7647,82.8019,1086.5882,83.2284,1076.4118,84.0385,1066.2353,83.2481,1056.0588,83.4022,1045.8824,83.6355,1035.7059,83.7131,1025.5294,83.293,1015.3529,83.5841,1005.1765,82.7245,995,83.2969,995.2844,83.2969,995.5482,73.9781,995.4445,64.6594,995.613,55.3406,994.5169,46.0219,995,36.7031" style="stroke:#383838;stroke-width:1.5;"/><text fill="#000000" font-family="FG Virgil" font-size="14" font-style="italic" lengthAdjust="spacingAndGlyphs" textLength="46" x="1058.5" y="56.6982">«utils»</text><text fill="#000000" font-family="FG Virgil" font-size="14" lengthAdjust="spacingAndGlyphs" textLength="159" x="1002" y="72.9951">LerFicheiroColaborador</text><polygon fill="#F8F8F8" points="995,396.3594,995,396.5696,1005.1765,395.9451,1015.3529,396.5527,1025.5294,396.7591,1035.7059,395.646,1045.8824,396.2817,1056.0588,395.9329,1066.2353,395.9759,1076.4118,396.2912,1086.5882,395.668,1096.7647,396.913,1106.9412,395.7291,1117.1176,396.1616,1127.2941,396.7913,1137.4706,396.2736,1147.6471,396.4276,1157.8235,396.3274,1168,396.3594,1168.1785,396.3594,1168.2391,405.6781,1168.5857,414.9969,1168.6711,424.3156,1168.6793,433.6344,1168,442.9531,1168,443.2078,1157.8235,443.4167,1147.6471,443.6554,1137.4706,442.2319,1127.2941,443.6316,1117.1176,442.6566,1106.9412,443.4869,1096.7647,442.4581,1086.5882,442.8846,1076.4118,443.6947,1066.2353,442.9044,1056.0588,443.0584,1045.8824,443.2918,1035.7059,443.3694,1025.5294,442.9492,1015.3529,443.2403,1005.1765,442.3807,995,442.9531,995.2844,442.9531,995.5482,433.6344,995.4445,424.3156,995.613,414.9969,994.5169,405.6781,995,396.3594" style="stroke:#383838;stroke-width:1.5;"/><text fill="#000000" font-family="FG Virgil" font-size="14" font-style="italic" lengthAdjust="spacingAndGlyphs" textLength="46" x="1058.5" y="416.3545">«utils»</text><text fill="#000000" font-family="FG Virgil" font-size="14" lengthAdjust="spacingAndGlyphs" textLength="159" x="1002" y="432.6514">LerFicheiroColaborador</text><polygon fill="#F8F8F8" points="1231.5,36.7031,1231.5,36.9133,1241.3,36.2888,1251.1,36.8964,1260.9,37.1028,1270.7,35.9897,1280.5,36.6254,1290.3,36.2766,1300.1,36.3196,1309.9,36.635,1319.7,36.0118,1329.5,36.7031,1330.0536,36.7031,1328.8697,46.0219,1329.3022,55.3406,1329.9319,64.6594,1329.4142,73.9781,1329.5,83.2969,1329.5,83.3651,1319.7,83.2649,1309.9,83.4754,1300.1,83.536,1290.3,83.8826,1280.5,83.9679,1270.7,83.9761,1260.9,83.5515,1251.1,83.7605,1241.3,83.9991,1231.5,83.2969,1230.7788,83.2969,1232.1785,73.9781,1231.2035,64.6594,1232.0338,55.3406,1231.005,46.0219,1231.5,36.7031" style="stroke:#383838;stroke-width:1.5;"/><text fill="#000000" font-family="FG Virgil" font-size="14" font-style="italic" lengthAdjust="spacingAndGlyphs" textLength="71" x="1245" y="56.6982">«Domain»</text><text fill="#000000" font-family="FG Virgil" font-size="14" lengthAdjust="spacingAndGlyphs" textLength="84" x="1238.5" y="72.9951">Colaborador</text><polygon fill="#F8F8F8" points="1231.5,396.3594,1231.5,396.5696,1241.3,395.9451,1251.1,396.5527,1260.9,396.7591,1270.7,395.646,1280.5,396.2817,1290.3,395.9329,1300.1,395.9759,1309.9,396.2912,1319.7,395.668,1329.5,396.3594,1330.0536,396.3594,1328.8697,405.6781,1329.3022,414.9969,1329.9319,424.3156,1329.4142,433.6344,1329.5,442.9531,1329.5,443.0214,1319.7,442.9212,1309.9,443.1317,1300.1,443.1923,1290.3,443.5388,1280.5,443.6242,1270.7,443.6324,1260.9,443.2078,1251.1,443.4167,1241.3,443.6554,1231.5,442.9531,1230.7788,442.9531,1232.1785,433.6344,1231.2035,424.3156,1232.0338,414.9969,1231.005,405.6781,1231.5,396.3594" style="stroke:#383838;stroke-width:1.5;"/><text fill="#000000" font-family="FG Virgil" font-size="14" font-style="italic" lengthAdjust="spacingAndGlyphs" textLength="71" x="1245" y="416.3545">«Domain»</text><text fill="#000000" font-family="FG Virgil" font-size="14" lengthAdjust="spacingAndGlyphs" textLength="84" x="1238.5" y="432.6514">Colaborador</text><text fill="#000000" font-family="FG Virgil" font-size="14" font-style="italic" lengthAdjust="spacingAndGlyphs" textLength="87" x="1364.5" y="64.6982">«repository»</text><text fill="#000000" font-family="FG Virgil" font-size="14" lengthAdjust="spacingAndGlyphs" textLength="137" x="1339.5" y="80.9951">UtilizadorRepository</text><path d="M1393,15.7031 L1393,15.7031 L1393.0651,15.7701 L1394.6716,13.8211 L1396.6599,12.2647 L1398.5238,10.5805 L1399.979,8.4758 L1402,6.9531 L1401.9952,6.9189 L1403.7739,6.5154 L1405.5766,6.2843 L1407.3958,6.1731 L1409.1577,5.6488 L1411,5.7031 L1411,5.7031 L1411.0339,5.9468 L1412.7615,5.6757 L1414.5879,6.1161 L1416.4264,6.6433 L1418.1948,6.6654 L1420,6.9531 L1420.0211,6.9749 L1421.7901,8.6929 L1423.6553,10.51 L1425.4741,12.2793 L1427.3815,14.1398 L1429,15.7031 L1429.5965,15.7031 L1429.6038,20.9031 L1429.2263,26.1031 L1429.4121,31.3031 L1429.6242,36.5031 L1429,41.7031 L1429,41.7031 L1428.7766,41.4733 L1427.4102,43.6693 L1425.3081,45.1086 L1423.7654,47.1232 L1421.6466,48.5454 L1420,50.4531 L1419.9958,50.423 L1418.2453,51.0296 L1416.397,50.9317 L1414.6064,51.2495 L1412.8207,51.6022 L1411,51.7031 L1411,51.7031 L1411.0254,51.8864 L1409.1998,51.4514 L1407.4176,51.3296 L1405.565,50.7011 L1403.8174,50.8283 L1402,50.4531 L1402.1698,50.6278 L1400.3377,48.8448 L1398.5899,47.1485 L1396.4503,45.0492 L1394.5979,43.2453 L1393,41.7031 L1392.4476,41.7031 L1392.9477,36.5031 L1392.8253,31.3031 L1393.6057,26.1031 L1392.8447,20.9031 L1393,15.7031 " fill="#F8F8F8" style="stroke:#000000;stroke-width:1.5;"/><path d="M1393,15.7031 L1393,15.7031 L1393.0651,15.7701 L1394.6716,17.3211 L1396.6599,19.2647 L1398.5238,21.0805 L1399.979,22.4758 L1402,24.4531 L1401.9952,24.4189 L1403.7739,24.5154 L1405.5766,24.7843 L1407.3958,25.1731 L1409.1577,25.1488 L1411,25.7031 L1411,25.7031 L1411.0339,25.9468 L1412.7615,25.1757 L1414.5879,25.1161 L1416.4264,25.1433 L1418.1948,24.6654 L1420,24.4531 L1420.0211,24.4749 L1421.7901,22.6929 L1423.6553,21.01 L1425.4741,19.2793 L1427.3815,17.6398 L1429,15.7031 " fill="none" style="stroke:#000000;stroke-width:1.5;"/><text fill="#000000" font-family="FG Virgil" font-size="14" font-style="italic" lengthAdjust="spacingAndGlyphs" textLength="87" x="1364.5" y="409.3545">«repository»</text><text fill="#000000" font-family="FG Virgil" font-size="14" lengthAdjust="spacingAndGlyphs" textLength="137" x="1339.5" y="425.6514">UtilizadorRepository</text><path d="M1393,438.9531 L1393,438.9531 L1393.0651,439.0201 L1394.6716,437.0711 L1396.6599,435.5147 L1398.5238,433.8305 L1399.979,431.7258 L1402,430.2031 L1401.9952,430.1689 L1403.7739,429.7654 L1405.5766,429.5343 L1407.3958,429.4231 L1409.1577,428.8988 L1411,428.9531 L1411,428.9531 L1411.0339,429.1968 L1412.7615,428.9257 L1414.5879,429.3661 L1416.4264,429.8933 L1418.1948,429.9154 L1420,430.2031 L1420.0211,430.2249 L1421.7901,431.9429 L1423.6553,433.76 L1425.4741,435.5293 L1427.3815,437.3898 L1429,438.9531 L1429.5965,438.9531 L1429.6038,444.1531 L1429.2263,449.3531 L1429.4121,454.5531 L1429.6242,459.7531 L1429,464.9531 L1429,464.9531 L1428.7766,464.7233 L1427.4102,466.9193 L1425.3081,468.3586 L1423.7654,470.3732 L1421.6466,471.7954 L1420,473.7031 L1419.9958,473.673 L1418.2453,474.2796 L1416.397,474.1817 L1414.6064,474.4995 L1412.8207,474.8522 L1411,474.9531 L1411,474.9531 L1411.0254,475.1364 L1409.1998,474.7014 L1407.4176,474.5796 L1405.565,473.9511 L1403.8174,474.0783 L1402,473.7031 L1402.1698,473.8778 L1400.3377,472.0948 L1398.5899,470.3985 L1396.4503,468.2992 L1394.5979,466.4953 L1393,464.9531 L1392.4476,464.9531 L1392.9477,459.7531 L1392.8253,454.5531 L1393.6057,449.3531 L1392.8447,444.1531 L1393,438.9531 " fill="#F8F8F8" style="stroke:#000000;stroke-width:1.5;"/><path d="M1393,438.9531 L1393,438.9531 L1393.0651,439.0201 L1394.6716,440.5711 L1396.6599,442.5147 L1398.5238,444.3305 L1399.979,445.7258 L1402,447.7031 L1401.9952,447.6689 L1403.7739,447.7654 L1405.5766,448.0343 L1407.3958,448.4231 L1409.1577,448.3988 L1411,448.9531 L1411,448.9531 L1411.0339,449.1968 L1412.7615,448.4257 L1414.5879,448.3661 L1416.4264,448.3933 L1418.1948,447.9154 L1420,447.7031 L1420.0211,447.7249 L1421.7901,445.9429 L1423.6553,444.26 L1425.4741,442.5293 L1427.3815,440.8898 L1429,438.9531 " fill="none" style="stroke:#000000;stroke-width:1.5;"/><polygon fill="#FFFFFF" points="128.5,94.2969,128.5,94.3669,130.5,94.1588,132.5,94.3613,134.5,94.4301,136.5,94.0591,138.5,94.2969,138.4223,94.2969,138.0735,104.1266,138.1165,113.9564,138.4318,123.7861,137.8086,133.6158,139.0536,143.4456,137.8697,153.2753,138.3022,163.1051,138.9319,172.9348,138.4142,182.7645,138.5682,192.5943,138.4681,202.424,138.6785,212.2538,138.7391,222.0835,139.0857,231.9133,139.1711,241.743,139.1793,251.5727,138.7546,261.4025,138.9636,271.2322,139.2022,281.062,137.7788,290.8917,139.1785,300.7214,138.2035,310.5512,139.0338,320.3809,138.005,330.2107,138.4315,340.0404,139.2416,349.8702,138.4513,359.6999,138.6053,369.5296,138.5,379.3594,138.5,379.4723,136.5,379.4981,134.5,379.3581,132.5,379.4551,130.5,379.1686,128.5,379.3594,128.7844,379.3594,129.0482,369.5296,128.9445,359.6999,129.113,349.8702,128.0169,340.0404,127.8478,330.2107,127.8786,320.3809,128.4411,310.5512,128.3035,300.7214,129.1814,290.8917,128.3253,281.062,128.1569,271.2322,128.7283,261.4025,127.8332,251.5727,127.9809,241.743,129.149,231.9133,128.9357,222.0835,129.2345,212.2538,128.1782,202.424,128.8192,192.5943,129.0904,182.7645,128.0276,172.9348,128.4041,163.1051,128.626,153.2753,129.1518,143.4456,128.4958,133.6158,128.9626,123.7861,127.9462,113.9564,127.8227,104.1266,128.5,94.2969" style="stroke:#383838;stroke-width:1.0;"/><polygon fill="#FFFFFF" points="360,115.4297,360,115.4997,362,115.2916,364,115.4941,366,115.5629,368,115.1919,370,115.4297,369.9223,115.4297,369.5735,125.5808,369.6165,135.732,369.9318,145.8831,369.3086,156.0343,370.5536,166.1854,369.3697,176.3365,369.8022,186.4877,370.4319,196.6388,369.9142,206.79,370.0682,216.9411,369.9681,227.0922,370.1785,237.2434,370.2391,247.3945,370.5857,257.5457,370.6711,267.6968,370.6793,277.848,370.2546,287.9991,370.4636,298.1502,370.7022,308.3014,369.2788,318.4525,370.6785,328.6037,369.7035,338.7548,370.5338,348.9059,369.505,359.0571,369.9315,369.2082,370,379.3594,370,379.6066,368,379.3431,366,379.3945,364,379.4723,362,379.4981,360,379.3594,359.9961,379.3594,360.2872,369.2082,359.4276,359.0571,360.2844,348.9059,360.5482,338.7548,360.4445,328.6037,360.613,318.4525,359.5169,308.3014,359.3478,298.1502,359.3786,287.9991,359.9411,277.848,359.8035,267.6968,360.6814,257.5457,359.8253,247.3945,359.6569,237.2434,360.2283,227.0922,359.3332,216.9411,359.4809,206.79,360.649,196.6388,360.4357,186.4877,360.7345,176.3365,359.6782,166.1854,360.3192,156.0343,360.5904,145.8831,359.5276,135.732,359.9041,125.5808,360,115.4297" style="stroke:#383838;stroke-width:1.0;"/><polygon fill="#FFFFFF" points="567.5,144.5625,567.5,144.6326,569.5,144.4244,571.5,144.6269,573.5,144.6957,575.5,144.3247,577.5,144.5625,577.4223,144.5625,577.0735,154.7711,577.1165,164.9796,577.4318,175.1882,576.8086,185.3967,578.0536,195.6053,576.8697,205.8139,577.3022,216.0224,577.9319,226.231,577.4142,236.4395,577.5682,246.6481,577.4681,256.8567,577.6785,267.0652,577.7391,277.2738,578.0857,287.4823,578.1711,297.6909,578.1793,307.8995,577.7546,318.108,577.9636,328.3166,578.2022,338.5251,576.7788,348.7337,578.1785,358.9423,577.2035,369.1508,577.5,379.3594,577.5,379.5373,575.5,379.1944,573.5,379.3365,571.5,379.6066,569.5,379.3431,567.5,379.3594,567.6053,379.3594,567.8386,369.1508,567.9162,358.9423,567.4961,348.7337,567.7872,338.5251,566.9276,328.3166,567.7844,318.108,568.0482,307.8995,567.9445,297.6909,568.113,287.4823,567.0169,277.2738,566.8478,267.0652,566.8786,256.8567,567.4411,246.6481,567.3035,236.4395,568.1814,226.231,567.3253,216.0224,567.1569,205.8139,567.7283,195.6053,566.8332,185.3967,566.9809,175.1882,568.149,164.9796,567.9357,154.7711,567.5,144.5625" style="stroke:#383838;stroke-width:1.0;"/><polygon fill="#FFFFFF" points="757,261.9609,757,262.031,759,261.8228,761,262.0254,763,262.0942,765,261.7231,767,261.9609,766.9223,261.9609,766.5735,271.7682,766.6165,281.5755,766.9318,291.3828,766.3086,301.1901,767.5536,310.9974,766.3697,320.8047,766.8022,330.612,767.4319,340.4193,767,350.2266,767,350.198,765,350.2493,763,350.2159,761,350.2861,759,350.3063,757,350.2266,757.5857,350.2266,757.6711,340.4193,757.6793,330.612,757.2546,320.8047,757.4636,310.9974,757.7022,301.1901,756.2788,291.3828,757.6785,281.5755,756.7035,271.7682,757,261.9609" style="stroke:#383838;stroke-width:1.0;"/><polygon fill="#FFFFFF" points="911,291.0938,911,291.1638,913,290.9556,915,291.1582,917,291.227,919,290.856,921,291.0938,920.9223,291.0938,920.5735,300.9492,920.6165,310.8047,920.9318,320.6602,920.3086,330.5156,921.5536,340.3711,921,350.2266,921,350.0165,919,350.1606,917,350.3705,915,350.198,913,350.2493,911,350.2266,910.9681,350.2266,911.1785,340.3711,911.2391,330.5156,911.5857,320.6602,911.6711,310.8047,911.6793,300.9492,911,291.0938" style="stroke:#383838;stroke-width:1.0;"/><polygon fill="#FFFFFF" points="1076.5,173.6953,1076.5,173.7654,1078.5,173.5572,1080.5,173.7597,1082.5,173.8285,1084.5,173.4575,1086.5,173.6953,1086.4223,173.6953,1086.0735,183.5508,1086.1165,193.4063,1086.4318,203.2617,1085.8086,213.1172,1087.0536,222.9727,1086.5,232.8281,1086.5,232.618,1084.5,232.7622,1082.5,232.9721,1080.5,232.7995,1078.5,232.8509,1076.5,232.8281,1076.4681,232.8281,1076.6785,222.9727,1076.7391,213.1172,1077.0857,203.2617,1077.1711,193.4063,1077.1793,183.5508,1076.5,173.6953" style="stroke:#383838;stroke-width:1.0;"/><polygon fill="#FFFFFF" points="1275.5,202.8281,1275.5,202.8982,1277.5,202.69,1279.5,202.8926,1281.5,202.9614,1283.5,202.5903,1285.5,202.8281,1285.4741,202.8281,1285.3578,208.8281,1285.3722,214.8281,1285.4773,220.8281,1285.2695,226.8281,1285.5,232.8281,1285.5,233.0127,1283.5,232.618,1281.5,232.7622,1279.5,232.9721,1277.5,232.7995,1275.5,232.8281,1275.5227,232.8281,1275.4894,226.8281,1275.5595,220.8281,1275.5797,214.8281,1275.6952,208.8281,1275.5,202.8281" style="stroke:#383838;stroke-width:1.0;"/><polygon fill="#FFFFFF" points="1406,320.2266,1406,320.2966,1408,320.0885,1410,320.291,1412,320.3598,1414,319.9888,1416,320.2266,1415.9223,320.2266,1415.5735,330.082,1415.6165,339.9375,1415.9318,349.793,1415.3086,359.6484,1416.5536,369.5039,1416,379.3594,1416,379.1493,1414,379.2935,1412,379.5034,1410,379.3308,1408,379.3821,1406,379.3594,1405.9681,379.3594,1406.1785,369.5039,1406.2391,359.6484,1406.5857,349.793,1406.6711,339.9375,1406.6793,330.082,1406,320.2266" style="stroke:#383838;stroke-width:1.0;"/><polygon fill="#383838" points="348,111.4297,348.026,111.4947,349.9487,112.1015,352.0239,113.0895,354.0495,113.9534,355.9117,114.4089,358,115.4297,357.9904,115.4056,355.9472,116.0977,353.9525,116.911,351.9916,117.8086,349.9144,118.4157,348,119.4297,348.1305,119.5602,348.6514,118.4811,349.5534,117.7831,350.5018,117.1315,351.1798,116.2095,352,115.4297,352.0161,115.4458,351.1925,114.6222,350.4421,113.8718,349.6564,113.0861,348.938,112.3677,348,111.4297" style="stroke:#383838;stroke-width:1.0;"/><path d="M138.5,115.4297 L138.5,115.7099 L148.2955,114.8773 L158.0909,115.6874 L167.8864,115.9626 L177.6818,114.4785 L187.4773,115.3261 L197.2727,114.861 L207.0682,114.9184 L216.8636,115.3388 L226.6591,114.5079 L236.4545,116.1679 L246.25,114.5893 L256.0455,115.166 L265.8409,116.0056 L275.6364,115.3153 L285.4318,115.5207 L295.2273,115.3871 L305.0227,115.6677 L314.8182,115.7485 L324.6136,116.2106 L334.4091,116.3244 L344.2045,116.3354 L354,115.4297 " fill="none" style="stroke:#383838;stroke-width:1.0;"/><text fill="#000000" font-family="FG Virgil" font-size="13" lengthAdjust="spacingAndGlyphs" textLength="101" x="145.5" y="110.3638">Insere o ficheiro</text><polygon fill="#383838" points="555.5,140.5625,555.526,140.6275,557.4487,141.2343,559.5239,142.2223,561.5495,143.0862,563.4117,143.5417,565.5,144.5625,565.4904,144.5384,563.4472,145.2305,561.4525,146.0438,559.4916,146.9414,557.4144,147.5485,555.5,148.5625,555.6305,148.693,556.1514,147.6139,557.0534,146.9159,558.0018,146.2643,558.6798,145.3423,559.5,144.5625,559.5161,144.5786,558.6925,143.755,557.9421,143.0046,557.1564,142.2189,556.438,141.5005,555.5,140.5625" style="stroke:#383838;stroke-width:1.0;"/><path d="M370,144.5625 L370,144.8427 L380.0789,144.0101 L390.1579,144.8202 L400.2368,145.0954 L410.3158,143.6113 L420.3947,144.4589 L430.4737,143.9938 L440.5526,144.0512 L450.6316,144.4716 L460.7105,143.6407 L470.7895,145.3007 L480.8684,143.7221 L490.9474,144.2988 L501.0263,145.1384 L511.1053,144.4481 L521.1842,144.6535 L531.2632,144.5199 L541.3421,144.8005 L551.4211,144.8813 L561.5,144.5625 " fill="none" style="stroke:#383838;stroke-width:1.0;"/><text fill="#000000" font-family="FG Virgil" font-size="13" lengthAdjust="spacingAndGlyphs" textLength="41" x="377" y="139.4966">create</text><polygon fill="#383838" points="1064.5,169.6953,1064.526,169.7604,1066.4487,170.3671,1068.5239,171.3551,1070.5495,172.219,1072.4117,172.6745,1074.5,173.6953,1074.4904,173.6713,1072.4472,174.3633,1070.4525,175.1766,1068.4916,176.0742,1066.4144,176.6813,1064.5,177.6953,1064.6305,177.8258,1065.1514,176.7468,1066.0534,176.0487,1067.0018,175.3971,1067.6798,174.4751,1068.5,173.6953,1068.5161,173.7114,1067.6925,172.8878,1066.9421,172.1374,1066.1564,171.3517,1065.438,170.6334,1064.5,169.6953" style="stroke:#383838;stroke-width:1.0;"/><path d="M577.5,173.6953 L577.5,173.9756 L587.5612,173.1429 L597.6224,173.953 L607.6837,174.2282 L617.7449,172.7441 L627.8061,173.5917 L637.8673,173.1267 L647.9286,173.184 L657.9898,173.6044 L668.051,172.7735 L678.1122,174.4335 L688.1735,172.8549 L698.2347,173.4316 L708.2959,174.2712 L718.3571,173.5809 L728.4184,173.7863 L738.4796,173.6527 L748.5408,173.9333 L758.602,174.0142 L768.6633,174.4762 L778.7245,174.5901 L788.7857,174.601 L798.8469,174.0348 L808.9082,174.3134 L818.9694,174.6316 L829.0306,172.7337 L839.0918,174.6 L849.1531,173.3 L859.2143,174.4071 L869.2755,173.0353 L879.3367,173.604 L889.398,174.6841 L899.4592,173.6303 L909.5204,173.8357 L919.5816,174.1468 L929.6429,174.2503 L939.7041,173.6901 L949.7653,174.0783 L959.8265,172.9321 L969.8878,174.0745 L979.949,174.4262 L990.0102,174.288 L1000.0714,174.5127 L1010.1327,173.0512 L1020.1939,172.8257 L1030.2551,172.8668 L1040.3163,173.6168 L1050.3776,173.4333 L1060.4388,174.6039 L1070.5,173.6953 " fill="none" style="stroke:#383838;stroke-width:1.0;"/><text fill="#000000" font-family="FG Virgil" font-size="13" lengthAdjust="spacingAndGlyphs" textLength="67" x="584.5" y="168.6294">lerDados()</text><polygon fill="#383838" points="1263.5,198.8281,1263.526,198.8932,1265.4487,199.4999,1267.5239,200.4879,1269.5495,201.3518,1271.4117,201.8073,1273.5,202.8281,1273.4904,202.8041,1271.4472,203.4961,1269.4525,204.3094,1267.4916,205.207,1265.4144,205.8142,1263.5,206.8281,1263.6305,206.9586,1264.1514,205.8796,1265.0534,205.1815,1266.0018,204.5299,1266.6798,203.6079,1267.5,202.8281,1267.5161,202.8442,1266.6925,202.0206,1265.9421,201.2702,1265.1564,200.4845,1264.438,199.7662,1263.5,198.8281" style="stroke:#383838;stroke-width:1.0;"/><path d="M1086.5,202.8281 L1086.5,203.1084 L1096.6667,202.2757 L1106.8333,203.0858 L1117,203.361 L1127.1667,201.8769 L1137.3333,202.7245 L1147.5,202.2595 L1157.6667,202.3168 L1167.8333,202.7372 L1178,201.9063 L1188.1667,203.5663 L1198.3333,201.9878 L1208.5,202.5644 L1218.6667,203.4041 L1228.8333,202.7138 L1239,202.9191 L1249.1667,202.7855 L1259.3333,203.0662 L1269.5,202.8281 " fill="none" style="stroke:#383838;stroke-width:1.0;"/><text fill="#000000" font-family="FG Virgil" font-size="13" lengthAdjust="spacingAndGlyphs" textLength="170" x="1093.5" y="197.7622">colab = new Colaborador()</text><polygon fill="#383838" points="745,257.9609,745.026,258.026,746.9487,258.6327,749.0239,259.6208,751.0495,260.4846,752.9117,260.9401,755,261.9609,754.9904,261.9369,752.9472,262.6289,750.9525,263.4422,748.9916,264.3398,746.9144,264.947,745,265.9609,745.1305,266.0914,745.6514,265.0124,746.5534,264.3143,747.5018,263.6627,748.1798,262.7407,749,261.9609,749.0161,261.977,748.1925,261.1534,747.4421,260.403,746.6564,259.6173,745.938,258.899,745,257.9609" style="stroke:#383838;stroke-width:1.0;"/><path d="M577.5,261.9609 L577.5,262.2412 L587.7059,261.4085 L597.9118,262.2187 L608.1176,262.4938 L618.3235,261.0097 L628.5294,261.8573 L638.7353,261.3923 L648.9412,261.4496 L659.1471,261.8701 L669.3529,261.0391 L679.5588,262.6991 L689.7647,261.1206 L699.9706,261.6972 L710.1765,262.5369 L720.3824,261.8466 L730.5882,262.0519 L740.7941,261.9183 L751,261.9609 " fill="none" style="stroke:#383838;stroke-width:1.0;"/><text fill="#000000" font-family="FG Virgil" font-size="13" lengthAdjust="spacingAndGlyphs" textLength="85" x="584.5" y="256.895">repositories()</text><polygon fill="#383838" points="899,287.0938,899.026,287.1588,900.9487,287.7655,903.0239,288.7536,905.0495,289.6174,906.9117,290.073,909,291.0938,908.9904,291.0697,906.9472,291.7618,904.9525,292.5751,902.9916,293.4727,900.9144,294.0798,899,295.0938,899.1305,295.2242,899.6514,294.1452,900.5534,293.4471,901.5018,292.7956,902.1798,291.8735,903,291.0938,903.0161,291.1098,902.1925,290.2862,901.4421,289.5358,900.6564,288.7501,899.938,288.0318,899,287.0938" style="stroke:#383838;stroke-width:1.0;"/><path d="M767,291.0938 L767,291.374 L776.8571,290.5413 L786.7143,291.3515 L796.5714,291.6267 L806.4286,290.1426 L816.2857,290.9901 L826.1429,290.5251 L836,290.5824 L845.8571,291.0029 L855.7143,290.1719 L865.5714,291.8319 L875.4286,290.2534 L885.2857,290.8301 L895.1429,291.6697 L905,291.0938 " fill="none" style="stroke:#383838;stroke-width:1.0;"/><text fill="#000000" font-family="FG Virgil" font-size="13" lengthAdjust="spacingAndGlyphs" textLength="41" x="774" y="286.0278">create</text><polygon fill="#383838" points="1394,316.2266,1394.026,316.2916,1395.9487,316.8983,1398.0239,317.8864,1400.0495,318.7503,1401.9117,319.2058,1404,320.2266,1403.9904,320.2025,1401.9472,320.8946,1399.9525,321.7079,1397.9916,322.6055,1395.9144,323.2126,1394,324.2266,1394.1305,324.3571,1394.6514,323.278,1395.5534,322.5799,1396.5018,321.9284,1397.1798,321.0063,1398,320.2266,1398.0161,320.2426,1397.1925,319.419,1396.4421,318.6686,1395.6564,317.8829,1394.938,317.1646,1394,316.2266" style="stroke:#383838;stroke-width:1.0;"/><path d="M921,320.2266 L921,320.5068 L930.9792,319.6741 L940.9583,320.4843 L950.9375,320.7595 L960.9167,319.2754 L970.8958,320.1229 L980.875,319.6579 L990.8542,319.7152 L1000.8333,320.1357 L1010.8125,319.3047 L1020.7917,320.9648 L1030.7708,319.3862 L1040.75,319.9629 L1050.7292,320.8025 L1060.7083,320.1122 L1070.6875,320.3175 L1080.6667,320.184 L1090.6458,320.4646 L1100.625,320.5454 L1110.6042,321.0075 L1120.5833,321.1213 L1130.5625,321.1322 L1140.5417,320.5661 L1150.5208,320.8447 L1160.5,321.1629 L1170.4792,319.265 L1180.4583,321.1312 L1190.4375,319.8312 L1200.4167,320.9383 L1210.3958,319.5665 L1220.375,320.1352 L1230.3542,321.2154 L1240.3333,320.1616 L1250.3125,320.367 L1260.2917,320.6781 L1270.2708,320.7815 L1280.25,320.2214 L1290.2292,320.6095 L1300.2083,319.4633 L1310.1875,320.6057 L1320.1667,320.9575 L1330.1458,320.8193 L1340.125,321.0439 L1350.1042,319.5825 L1360.0833,319.357 L1370.0625,319.398 L1380.0417,320.1481 L1390.0208,319.9645 L1400,320.2266 " fill="none" style="stroke:#383838;stroke-width:1.0;"/><text fill="#000000" font-family="FG Virgil" font-size="13" lengthAdjust="spacingAndGlyphs" textLength="41" x="928" y="315.1606">create</text><polygon fill="#383838" points="1399,375.3594,1399.026,375.4244,1400.9487,376.0311,1403.0239,377.0192,1405.0495,377.8831,1406.9117,378.3386,1409,379.3594,1408.9904,379.3353,1406.9472,380.0274,1404.9525,380.8407,1402.9916,381.7383,1400.9144,382.3454,1399,383.3594,1399.1305,383.4899,1399.6514,382.4108,1400.5534,381.7128,1401.5018,381.0612,1402.1798,380.1392,1403,379.3594,1403.0161,379.3755,1402.1925,378.5518,1401.4421,377.8015,1400.6564,377.0157,1399.938,376.2974,1399,375.3594" style="stroke:#383838;stroke-width:1.0;"/><path d="M572.5,379.3594 L572.5,379.6396 L582.5301,378.8069 L592.5602,379.6171 L602.5904,379.8923 L612.6205,378.4082 L622.6506,379.2558 L632.6807,378.7907 L642.7108,378.848 L652.741,379.2685 L662.7711,378.4375 L672.8012,380.0976 L682.8313,378.519 L692.8614,379.0957 L702.8916,379.9353 L712.9217,379.245 L722.9518,379.4504 L732.9819,379.3168 L743.012,379.5974 L753.0422,379.6782 L763.0723,380.1403 L773.1024,380.2541 L783.1325,380.2651 L793.1627,379.6989 L803.1928,379.9775 L813.2229,380.2957 L823.253,378.3978 L833.2831,380.2641 L843.3133,378.964 L853.3434,380.0711 L863.3735,378.6993 L873.4036,379.268 L883.4337,380.3482 L893.4639,379.2944 L903.494,379.4998 L913.5241,379.8109 L923.5542,379.9144 L933.5843,379.3542 L943.6145,379.7423 L953.6446,378.5962 L963.6747,379.7386 L973.7048,380.0903 L983.7349,379.9521 L993.7651,380.1767 L1003.7952,378.7153 L1013.8253,378.4898 L1023.8554,378.5308 L1033.8855,379.2809 L1043.9157,379.0973 L1053.9458,380.2679 L1063.9759,379.1265 L1074.006,378.902 L1084.0361,379.6637 L1094.0663,378.4703 L1104.0964,378.6672 L1114.1265,380.2246 L1124.1566,379.9403 L1134.1867,380.3387 L1144.2169,378.9303 L1154.247,379.785 L1164.2771,380.1466 L1174.3072,378.7295 L1184.3373,379.2316 L1194.3675,379.5274 L1204.3976,380.2284 L1214.4277,379.3538 L1224.4578,379.9761 L1234.488,378.621 L1244.5181,378.4564 L1254.5482,380.0309 L1264.5783,378.4035 L1274.6084,380.038 L1284.6386,379.6349 L1294.6687,379.0022 L1304.6988,378.8877 L1314.7289,379.9711 L1324.759,378.9603 L1334.7892,380.1485 L1344.8193,378.6224 L1354.8494,380.1826 L1364.8795,380.0051 L1374.9096,379.686 L1384.9398,379.4223 L1394.9699,380.3282 L1405,379.3594 " fill="none" style="stroke:#383838;stroke-width:1.0;"/><text fill="#000000" font-family="FG Virgil" font-size="13" lengthAdjust="spacingAndGlyphs" textLength="74" x="579.5" y="374.2935">save(colab)</text><!--MD5=[06317f4c0df29bf022657c7e41d1bb7e]
@startuml
'http://plantuml.com/skinparam.html
skinparam handwritten true
skinparam monochrome true
skinparam packageStyle rect
skinparam defaultFontName FG Virgil
skinparam shadowing false

Actor "Responsavel de Recursos Humanos" as Actor
participant LerFicheiroColaboradorUI as UI <<presentation>>
participant LerFicheiroColaboradorCTRL as Controller <<application>>
participant PersistenceContext as Persistence <<persistence>>
participant RepositoryFactory as Factory <<factory>>
participant LerFicheiroColaborador as LerFicheiroColaborador <<utils>>
participant Colaborador as Colaborador <<Domain>>
database UtilizadorRepository as CRepository <<repository>>


activate Actor
      Actor -> UI: Insere o ficheiro
    activate UI
      UI -> Controller: create
    activate Controller
      Controller -> LerFicheiroColaborador: lerDados()
    activate LerFicheiroColaborador
      LerFicheiroColaborador -> Colaborador: colab = new Colaborador()
    activate Colaborador
    deactivate Colaborador
    deactivate LerFicheiroColaborador
    Controller -> Persistence: repositories()
    activate Persistence
      Persistence -> Factory: create
    activate Factory
      Factory -> CRepository: create
    activate CRepository
    deactivate Factory
    deactivate Persistence
      Controller -> CRepository: save(colab)
    deactivate CRepository
    deactivate Controller
    deactivate UI

deactivate Actor
@enduml

@startuml
skinparam handwritten true
skinparam monochrome true
skinparam packageStyle rect
skinparam defaultFontName FG Virgil
skinparam shadowing false

Actor "Responsavel de Recursos Humanos" as Actor
participant LerFicheiroColaboradorUI as UI <<presentation>>
participant LerFicheiroColaboradorCTRL as Controller <<application>>
participant PersistenceContext as Persistence <<persistence>>
participant RepositoryFactory as Factory <<factory>>
participant LerFicheiroColaborador as LerFicheiroColaborador <<utils>>
participant Colaborador as Colaborador <<Domain>>
database UtilizadorRepository as CRepository <<repository>>


activate Actor
      Actor -> UI: Insere o ficheiro
    activate UI
      UI -> Controller: create
    activate Controller
      Controller -> LerFicheiroColaborador: lerDados()
    activate LerFicheiroColaborador
      LerFicheiroColaborador -> Colaborador: colab = new Colaborador()
    activate Colaborador
    deactivate Colaborador
    deactivate LerFicheiroColaborador
    Controller -> Persistence: repositories()
    activate Persistence
      Persistence -> Factory: create
    activate Factory
      Factory -> CRepository: create
    activate CRepository
    deactivate Factory
    deactivate Persistence
      Controller -> CRepository: save(colab)
    deactivate CRepository
    deactivate Controller
    deactivate UI

deactivate Actor
@enduml

PlantUML version 1.2020.22(Sun Dec 06 09:36:27 UTC 2020)
(GPL source distribution)
Java Runtime: OpenJDK Runtime Environment
JVM: OpenJDK 64-Bit Server VM
Default Encoding: UTF-8
Language: en
Country: US
--></g></svg>