<?xml version="1.0" encoding="UTF-8" standalone="no"?><svg xmlns="http://www.w3.org/2000/svg" xmlns:xlink="http://www.w3.org/1999/xlink" contentScriptType="application/ecmascript" contentStyleType="text/css" height="630px" preserveAspectRatio="none" style="width:1981px;height:630px;background:#FFFFFF;" version="1.1" viewBox="0 0 1981 630" width="1981px" zoomAndPan="magnify"><defs/><g><polygon fill="#FFFFFF" points="127.5,94.2969,127.5,94.3669,129.5,94.1588,131.5,94.3613,133.5,94.4301,135.5,94.0591,137.5,94.2969,137.4223,94.2969,137.0735,104.3743,137.1165,114.4517,137.4318,124.5291,136.8086,134.6065,138.0536,144.6839,136.8697,154.7613,137.3022,164.8387,137.9319,174.9161,137.4142,184.9935,137.5682,195.0709,137.4681,205.1483,137.6785,215.2257,137.7391,225.3031,138.0857,235.3805,138.1711,245.4578,138.1793,255.5352,137.7546,265.6126,137.9636,275.69,138.2022,285.7674,136.7788,295.8448,138.1785,305.9222,137.2035,315.9996,138.0338,326.077,137.005,336.1544,137.4315,346.2318,138.2416,356.3092,137.4513,366.3866,137.6053,376.464,137.8386,386.5414,137.9162,396.6188,137.4961,406.6962,137.7872,416.7736,136.9276,426.851,137.7844,436.9284,138.0482,447.0058,137.9445,457.0832,138.113,467.1606,137.0169,477.238,136.8478,487.3154,136.8786,497.3928,137.4411,507.4702,137.3035,517.5476,137.5,527.625,137.5,527.8521,135.5,527.5668,133.5,527.5106,131.5,527.7011,129.5,527.4027,127.5,527.625,126.9809,527.625,128.149,517.5476,127.9357,507.4702,128.2345,497.3928,127.1782,487.3154,127.8192,477.238,128.0904,467.1606,127.0276,457.0832,127.4041,447.0058,127.626,436.9284,128.1518,426.851,127.4958,416.7736,127.9626,406.6962,126.9462,396.6188,126.8227,386.5414,128.0036,376.464,126.7831,366.3866,128.009,356.3092,127.7066,346.2318,127.2321,336.1544,127.1462,326.077,127.9588,315.9996,127.2007,305.9222,128.0919,295.8448,126.9473,285.7674,128.1174,275.69,127.9843,265.6126,127.745,255.5352,127.5472,245.4578,128.2266,235.3805,128.1136,225.3031,127.6693,215.2257,127.7682,205.1483,127.3697,195.0709,128.2165,184.9935,127.6549,174.9161,127.6726,164.8387,126.8916,154.7613,127.0948,144.6839,128.0307,134.6065,127.9298,124.5291,127.4571,114.4517,127.1778,104.3743,127.5,94.2969" style="stroke:#383838;stroke-width:1.0;"/><polygon fill="#FFFFFF" points="362.5,115.4297,362.5,115.4997,364.5,115.2916,366.5,115.4941,368.5,115.5629,370.5,115.1919,372.5,115.4297,372.4223,115.4297,372.0735,125.4832,372.1165,135.5368,372.4318,145.5903,371.8086,155.6439,373.0536,165.6974,371.8697,175.751,372.3022,185.8045,372.9319,195.858,372.4142,205.9116,372.5682,215.9651,372.4681,226.0187,372.6785,236.0722,372.7391,246.1258,373.0857,256.1793,373.1711,266.2329,373.1793,276.2864,372.7546,286.3399,372.9636,296.3935,373.2022,306.447,371.7788,316.5006,373.1785,326.5541,372.2035,336.6077,373.0338,346.6612,372.005,356.7147,372.4315,366.7683,373.2416,376.8218,372.4513,386.8754,372.6053,396.9289,372.8386,406.9825,372.9162,417.036,372.4961,427.0896,372.7872,437.1431,371.9276,447.1966,372.7844,457.2502,373.0482,467.3037,372.9445,477.3573,373.113,487.4108,372.0169,497.4644,371.8478,507.5179,371.8786,517.5715,372.5,527.625,372.5,527.6054,370.5,527.5595,368.5,527.8521,366.5,527.5668,364.5,527.5106,362.5,527.625,362.7283,527.625,361.8332,517.5715,361.9809,507.5179,363.149,497.4644,362.9357,487.4108,363.2345,477.3573,362.1782,467.3037,362.8192,457.2502,363.0904,447.1966,362.0276,437.1431,362.4041,427.0896,362.626,417.036,363.1518,406.9825,362.4958,396.9289,362.9626,386.8754,361.9462,376.8218,361.8227,366.7683,363.0036,356.7147,361.7831,346.6612,363.009,336.6077,362.7066,326.5541,362.2321,316.5006,362.1462,306.447,362.9588,296.3935,362.2007,286.3399,363.0919,276.2864,361.9473,266.2329,363.1174,256.1793,362.9843,246.1258,362.745,236.0722,362.5472,226.0187,363.2266,215.9651,363.1136,205.9116,362.6693,195.858,362.7682,185.8045,362.3697,175.751,363.2165,165.6974,362.6549,155.6439,362.6726,145.5903,361.8916,135.5368,362.0948,125.4832,362.5,115.4297" style="stroke:#383838;stroke-width:1.0;"/><polygon fill="#FFFFFF" points="597.5,144.5625,597.5,144.6326,599.5,144.4244,601.5,144.6269,603.5,144.6957,605.5,144.3247,607.5,144.5625,607.4223,144.5625,607.0735,154.6431,607.1165,164.7237,607.4318,174.8043,606.8086,184.8849,608.0536,194.9655,606.8697,205.0461,607.3022,215.1266,607.9319,225.2072,607.4142,235.2878,607.5682,245.3684,607.4681,255.449,607.6785,265.5296,607.7391,275.6102,608.0857,285.6908,608.1711,295.7714,608.1793,305.852,607.7546,315.9326,607.9636,326.0132,608.2022,336.0938,606.7788,346.1743,608.1785,356.2549,607.2035,366.3355,608.0338,376.4161,607.005,386.4967,607.4315,396.5773,608.2416,406.6579,607.4513,416.7385,607.6053,426.8191,607.8386,436.8997,607.9162,446.9803,607.4961,457.0609,607.7872,467.1414,606.9276,477.222,607.7844,487.3026,608.0482,497.3832,607.9445,507.4638,608.113,517.5444,607.5,527.625,607.5,527.464,605.5,527.4076,603.5,527.4179,601.5,527.6054,599.5,527.5595,597.5,527.625,598.1814,527.625,597.3253,517.5444,597.1569,507.4638,597.7283,497.3832,596.8332,487.3026,596.9809,477.222,598.149,467.1414,597.9357,457.0609,598.2345,446.9803,597.1782,436.8997,597.8192,426.8191,598.0904,416.7385,597.0276,406.6579,597.4041,396.5773,597.626,386.4967,598.1518,376.4161,597.4958,366.3355,597.9626,356.2549,596.9462,346.1743,596.8227,336.0938,598.0036,326.0132,596.7831,315.9326,598.009,305.852,597.7066,295.7714,597.2321,285.6908,597.1462,275.6102,597.9588,265.5296,597.2007,255.449,598.0919,245.3684,596.9473,235.2878,598.1174,225.2072,597.9843,215.1266,597.745,205.0461,597.5472,194.9655,598.2266,184.8849,598.1136,174.8043,597.6693,164.7237,597.7682,154.6431,597.5,144.5625" style="stroke:#383838;stroke-width:1.0;"/><polygon fill="#FFFFFF" points="813.5,380.2266,813.5,380.2966,815.5,380.0885,817.5,380.291,819.5,380.3598,821.5,379.9888,823.5,380.2266,823.4223,380.2266,823.0735,390.0339,823.1165,399.8411,823.4318,409.6484,822.8086,419.4557,824.0536,429.263,822.8697,439.0703,823.3022,448.8776,823.9319,458.6849,823.5,468.4922,823.5,468.4636,821.5,468.5149,819.5,468.4815,817.5,468.5517,815.5,468.5719,813.5,468.4922,814.0857,468.4922,814.1711,458.6849,814.1793,448.8776,813.7546,439.0703,813.9636,429.263,814.2022,419.4557,812.7788,409.6484,814.1785,399.8411,813.2035,390.0339,813.5,380.2266" style="stroke:#383838;stroke-width:1.0;"/><polygon fill="#FFFFFF" points="975.5,409.3594,975.5,409.4294,977.5,409.2213,979.5,409.4238,981.5,409.4926,983.5,409.1216,985.5,409.3594,985.4223,409.3594,985.0735,419.2148,985.1165,429.0703,985.4318,438.9258,984.8086,448.7813,986.0536,458.6367,985.5,468.4922,985.5,468.2821,983.5,468.4263,981.5,468.6362,979.5,468.4636,977.5,468.5149,975.5,468.4922,975.4681,468.4922,975.6785,458.6367,975.7391,448.7813,976.0857,438.9258,976.1711,429.0703,976.1793,419.2148,975.5,409.3594" style="stroke:#383838;stroke-width:1.0;"/><polygon fill="#FFFFFF" points="1150,173.6953,1150,173.7654,1152,173.5572,1154,173.7597,1156,173.8285,1158,173.4575,1160,173.6953,1159.9223,173.6953,1159.5735,183.5508,1159.6165,193.4063,1159.9318,203.2617,1159.3086,213.1172,1160.5536,222.9727,1159.3697,232.8281,1159.8022,242.6836,1160.4319,252.5391,1159.9142,262.3945,1160.0682,272.25,1159.9681,282.1055,1160,291.9609,1160,292.0204,1158,292.0406,1156,292.1562,1154,292.1846,1152,292.1874,1150,291.9609,1150.2546,291.9609,1150.4636,282.1055,1150.7022,272.25,1149.2788,262.3945,1150.6785,252.5391,1149.7035,242.6836,1150.5338,232.8281,1149.505,222.9727,1149.9315,213.1172,1150.7416,203.2617,1149.9513,193.4063,1150.1053,183.5508,1150,173.6953" style="stroke:#383838;stroke-width:1.0;"/><polygon fill="#FFFFFF" points="1350,261.9609,1350,262.031,1352,261.8228,1354,262.0254,1356,262.0942,1358,261.7231,1360,261.9609,1359.9741,261.9609,1359.8578,267.9609,1359.8722,273.9609,1359.9773,279.9609,1359.7695,285.9609,1360,291.9609,1360,292.1455,1358,291.7508,1356,291.895,1354,292.1049,1352,291.9323,1350,291.9609,1350.0227,291.9609,1349.9894,285.9609,1350.0595,279.9609,1350.0797,273.9609,1350.1952,267.9609,1350,261.9609" style="stroke:#383838;stroke-width:1.0;"/><polygon fill="#FFFFFF" points="1590,202.8281,1590,202.8982,1592,202.69,1594,202.8926,1596,202.9614,1598,202.5903,1600,202.8281,1599.9741,202.8281,1599.8578,208.8281,1599.8722,214.8281,1599.9773,220.8281,1599.7695,226.8281,1600,232.8281,1600,233.0127,1598,232.618,1596,232.7622,1594,232.9721,1592,232.7995,1590,232.8281,1590.0227,232.8281,1589.9894,226.8281,1590.0595,220.8281,1590.0797,214.8281,1590.1952,208.8281,1590,202.8281" style="stroke:#383838;stroke-width:1.0;"/><polygon fill="#FFFFFF" points="1733.5,321.0938,1733.5,321.1638,1735.5,320.9556,1737.5,321.1582,1739.5,321.227,1741.5,320.856,1743.5,321.0938,1743.4741,321.0938,1743.3578,327.0938,1743.3722,333.0938,1743.4773,339.0938,1743.2695,345.0938,1743.5,351.0938,1743.5,351.2783,1741.5,350.8837,1739.5,351.0278,1737.5,351.2377,1735.5,351.0652,1733.5,351.0938,1733.5227,351.0938,1733.4894,345.0938,1733.5595,339.0938,1733.5797,333.0938,1733.6952,327.0938,1733.5,321.0938" style="stroke:#383838;stroke-width:1.0;"/><polygon fill="#FFFFFF" points="1889,438.4922,1889,438.5622,1891,438.3541,1893,438.5566,1895,438.6254,1897,438.2544,1899,438.4922,1898.9741,438.4922,1898.8578,444.4922,1898.8722,450.4922,1898.9773,456.4922,1898.7695,462.4922,1899,468.4922,1899,468.6767,1897,468.2821,1895,468.4263,1893,468.6362,1891,468.4636,1889,468.4922,1889.0227,468.4922,1888.9894,462.4922,1889.0595,456.4922,1889.0797,450.4922,1889.1952,444.4922,1889,438.4922" style="stroke:#383838;stroke-width:1.0;"/><polygon fill="#FFFFFF" points="1889,497.625,1889,497.6951,1891,497.4869,1893,497.6894,1895,497.7582,1897,497.3872,1899,497.625,1898.9741,497.625,1898.8578,503.625,1898.8722,509.625,1898.9773,515.625,1898.7695,521.625,1899,527.625,1899,527.8095,1897,527.4149,1895,527.5591,1893,527.769,1891,527.5964,1889,527.625,1889.0227,527.625,1888.9894,521.625,1889.0595,515.625,1889.0797,509.625,1889.1952,503.625,1889,497.625" style="stroke:#383838;stroke-width:1.0;"/><path d="M132,84.2969 L132.2802,84.2969 L131.4476,94.3257 L132.2577,104.3546 L132.5329,114.3835 L131.0488,124.4124 L131.8964,134.4412 L131.4313,144.4701 L131.4887,154.499 L131.9091,164.5279 L131.0782,174.5567 L132.7382,184.5856 L131.1596,194.6145 L131.7363,204.6433 L132.5759,214.6722 L131.8856,224.7011 L132.091,234.73 L131.9574,244.7588 L132.238,254.7877 L132.3188,264.8166 L132.7809,274.8454 L132.8947,284.8743 L132.9057,294.9032 L132.3395,304.9321 L132.6181,314.9609 L132.9363,324.9898 L131.0384,335.0187 L132.9047,345.0476 L131.6047,355.0764 L132.7117,365.1053 L131.34,375.1342 L131.9087,385.163 L132.9888,395.1919 L131.935,405.2208 L132.1404,415.2497 L132.4515,425.2785 L132.555,435.3074 L131.9948,445.3363 L132.383,455.3651 L131.2368,465.394 L132.3792,475.4229 L132.7309,485.4518 L132.5927,495.4806 L132.8174,505.5095 L131.3559,515.5384 L131.1304,525.5673 L131.1715,535.5961 L132,545.625 " fill="none" style="stroke:#383838;stroke-width:1.0;stroke-dasharray:5.0,5.0;"/><path d="M367,84.2969 L367.2802,84.2969 L366.4476,94.3257 L367.2577,104.3546 L367.5329,114.3835 L366.0488,124.4124 L366.8964,134.4412 L366.4313,144.4701 L366.4887,154.499 L366.9091,164.5279 L366.0782,174.5567 L367.7382,184.5856 L366.1596,194.6145 L366.7363,204.6433 L367.5759,214.6722 L366.8856,224.7011 L367.091,234.73 L366.9574,244.7588 L367.238,254.7877 L367.3188,264.8166 L367.7809,274.8454 L367.8947,284.8743 L367.9057,294.9032 L367.3395,304.9321 L367.6181,314.9609 L367.9363,324.9898 L366.0384,335.0187 L367.9047,345.0476 L366.6047,355.0764 L367.7117,365.1053 L366.34,375.1342 L366.9087,385.163 L367.9888,395.1919 L366.935,405.2208 L367.1404,415.2497 L367.4515,425.2785 L367.555,435.3074 L366.9948,445.3363 L367.383,455.3651 L366.2368,465.394 L367.3792,475.4229 L367.7309,485.4518 L367.5927,495.4806 L367.8174,505.5095 L366.3559,515.5384 L366.1304,525.5673 L366.1715,535.5961 L367,545.625 " fill="none" style="stroke:#383838;stroke-width:1.0;stroke-dasharray:5.0,5.0;"/><path d="M602,84.2969 L602.2802,84.2969 L601.4476,94.3257 L602.2577,104.3546 L602.5329,114.3835 L601.0488,124.4124 L601.8964,134.4412 L601.4313,144.4701 L601.4887,154.499 L601.9091,164.5279 L601.0782,174.5567 L602.7382,184.5856 L601.1596,194.6145 L601.7363,204.6433 L602.5759,214.6722 L601.8856,224.7011 L602.091,234.73 L601.9574,244.7588 L602.238,254.7877 L602.3188,264.8166 L602.7809,274.8454 L602.8947,284.8743 L602.9057,294.9032 L602.3395,304.9321 L602.6181,314.9609 L602.9363,324.9898 L601.0384,335.0187 L602.9047,345.0476 L601.6047,355.0764 L602.7117,365.1053 L601.34,375.1342 L601.9087,385.163 L602.9888,395.1919 L601.935,405.2208 L602.1404,415.2497 L602.4515,425.2785 L602.555,435.3074 L601.9948,445.3363 L602.383,455.3651 L601.2368,465.394 L602.3792,475.4229 L602.7309,485.4518 L602.5927,495.4806 L602.8174,505.5095 L601.3559,515.5384 L601.1304,525.5673 L601.1715,535.5961 L602,545.625 " fill="none" style="stroke:#383838;stroke-width:1.0;stroke-dasharray:5.0,5.0;"/><path d="M818,84.2969 L818.2802,84.2969 L817.4476,94.3257 L818.2577,104.3546 L818.5329,114.3835 L817.0488,124.4124 L817.8964,134.4412 L817.4313,144.4701 L817.4887,154.499 L817.9091,164.5279 L817.0782,174.5567 L818.7382,184.5856 L817.1596,194.6145 L817.7363,204.6433 L818.5759,214.6722 L817.8856,224.7011 L818.091,234.73 L817.9574,244.7588 L818.238,254.7877 L818.3188,264.8166 L818.7809,274.8454 L818.8947,284.8743 L818.9057,294.9032 L818.3395,304.9321 L818.6181,314.9609 L818.9363,324.9898 L817.0384,335.0187 L818.9047,345.0476 L817.6047,355.0764 L818.7117,365.1053 L817.34,375.1342 L817.9087,385.163 L818.9888,395.1919 L817.935,405.2208 L818.1404,415.2497 L818.4515,425.2785 L818.555,435.3074 L817.9948,445.3363 L818.383,455.3651 L817.2368,465.394 L818.3792,475.4229 L818.7309,485.4518 L818.5927,495.4806 L818.8174,505.5095 L817.3559,515.5384 L817.1304,525.5673 L817.1715,535.5961 L818,545.625 " fill="none" style="stroke:#383838;stroke-width:1.0;stroke-dasharray:5.0,5.0;"/><path d="M980,84.2969 L980.2802,84.2969 L979.4476,94.3257 L980.2577,104.3546 L980.5329,114.3835 L979.0488,124.4124 L979.8964,134.4412 L979.4313,144.4701 L979.4887,154.499 L979.9091,164.5279 L979.0782,174.5567 L980.7382,184.5856 L979.1596,194.6145 L979.7363,204.6433 L980.5759,214.6722 L979.8856,224.7011 L980.091,234.73 L979.9574,244.7588 L980.238,254.7877 L980.3188,264.8166 L980.7809,274.8454 L980.8947,284.8743 L980.9057,294.9032 L980.3395,304.9321 L980.6181,314.9609 L980.9363,324.9898 L979.0384,335.0187 L980.9047,345.0476 L979.6047,355.0764 L980.7117,365.1053 L979.34,375.1342 L979.9087,385.163 L980.9888,395.1919 L979.935,405.2208 L980.1404,415.2497 L980.4515,425.2785 L980.555,435.3074 L979.9948,445.3363 L980.383,455.3651 L979.2368,465.394 L980.3792,475.4229 L980.7309,485.4518 L980.5927,495.4806 L980.8174,505.5095 L979.3559,515.5384 L979.1304,525.5673 L979.1715,535.5961 L980,545.625 " fill="none" style="stroke:#383838;stroke-width:1.0;stroke-dasharray:5.0,5.0;"/><path d="M1155,84.2969 L1155.2802,84.2969 L1154.4476,94.3257 L1155.2577,104.3546 L1155.5329,114.3835 L1154.0488,124.4124 L1154.8964,134.4412 L1154.4313,144.4701 L1154.4887,154.499 L1154.9091,164.5279 L1154.0782,174.5567 L1155.7382,184.5856 L1154.1596,194.6145 L1154.7363,204.6433 L1155.5759,214.6722 L1154.8856,224.7011 L1155.091,234.73 L1154.9574,244.7588 L1155.238,254.7877 L1155.3188,264.8166 L1155.7809,274.8454 L1155.8947,284.8743 L1155.9057,294.9032 L1155.3395,304.9321 L1155.6181,314.9609 L1155.9363,324.9898 L1154.0384,335.0187 L1155.9047,345.0476 L1154.6047,355.0764 L1155.7117,365.1053 L1154.34,375.1342 L1154.9087,385.163 L1155.9888,395.1919 L1154.935,405.2208 L1155.1404,415.2497 L1155.4515,425.2785 L1155.555,435.3074 L1154.9948,445.3363 L1155.383,455.3651 L1154.2368,465.394 L1155.3792,475.4229 L1155.7309,485.4518 L1155.5927,495.4806 L1155.8174,505.5095 L1154.3559,515.5384 L1154.1304,525.5673 L1154.1715,535.5961 L1155,545.625 " fill="none" style="stroke:#383838;stroke-width:1.0;stroke-dasharray:5.0,5.0;"/><path d="M1355,84.2969 L1355.2802,84.2969 L1354.4476,94.3257 L1355.2577,104.3546 L1355.5329,114.3835 L1354.0488,124.4124 L1354.8964,134.4412 L1354.4313,144.4701 L1354.4887,154.499 L1354.9091,164.5279 L1354.0782,174.5567 L1355.7382,184.5856 L1354.1596,194.6145 L1354.7363,204.6433 L1355.5759,214.6722 L1354.8856,224.7011 L1355.091,234.73 L1354.9574,244.7588 L1355.238,254.7877 L1355.3188,264.8166 L1355.7809,274.8454 L1355.8947,284.8743 L1355.9057,294.9032 L1355.3395,304.9321 L1355.6181,314.9609 L1355.9363,324.9898 L1354.0384,335.0187 L1355.9047,345.0476 L1354.6047,355.0764 L1355.7117,365.1053 L1354.34,375.1342 L1354.9087,385.163 L1355.9888,395.1919 L1354.935,405.2208 L1355.1404,415.2497 L1355.4515,425.2785 L1355.555,435.3074 L1354.9948,445.3363 L1355.383,455.3651 L1354.2368,465.394 L1355.3792,475.4229 L1355.7309,485.4518 L1355.5927,495.4806 L1355.8174,505.5095 L1354.3559,515.5384 L1354.1304,525.5673 L1354.1715,535.5961 L1355,545.625 " fill="none" style="stroke:#383838;stroke-width:1.0;stroke-dasharray:5.0,5.0;"/><path d="M1594.5,84.2969 L1594.7802,84.2969 L1593.9476,94.3257 L1594.7577,104.3546 L1595.0329,114.3835 L1593.5488,124.4124 L1594.3964,134.4412 L1593.9313,144.4701 L1593.9887,154.499 L1594.4091,164.5279 L1593.5782,174.5567 L1595.2382,184.5856 L1593.6596,194.6145 L1594.2363,204.6433 L1595.0759,214.6722 L1594.3856,224.7011 L1594.591,234.73 L1594.4574,244.7588 L1594.738,254.7877 L1594.8188,264.8166 L1595.2809,274.8454 L1595.3947,284.8743 L1595.4057,294.9032 L1594.8395,304.9321 L1595.1181,314.9609 L1595.4363,324.9898 L1593.5384,335.0187 L1595.4047,345.0476 L1594.1047,355.0764 L1595.2117,365.1053 L1593.84,375.1342 L1594.4087,385.163 L1595.4888,395.1919 L1594.435,405.2208 L1594.6404,415.2497 L1594.9515,425.2785 L1595.055,435.3074 L1594.4948,445.3363 L1594.883,455.3651 L1593.7368,465.394 L1594.8792,475.4229 L1595.2309,485.4518 L1595.0927,495.4806 L1595.3174,505.5095 L1593.8559,515.5384 L1593.6304,525.5673 L1593.6715,535.5961 L1594.5,545.625 " fill="none" style="stroke:#383838;stroke-width:1.0;stroke-dasharray:5.0,5.0;"/><path d="M1738.5,84.2969 L1738.7802,84.2969 L1737.9476,94.3257 L1738.7577,104.3546 L1739.0329,114.3835 L1737.5488,124.4124 L1738.3964,134.4412 L1737.9313,144.4701 L1737.9887,154.499 L1738.4091,164.5279 L1737.5782,174.5567 L1739.2382,184.5856 L1737.6596,194.6145 L1738.2363,204.6433 L1739.0759,214.6722 L1738.3856,224.7011 L1738.591,234.73 L1738.4574,244.7588 L1738.738,254.7877 L1738.8188,264.8166 L1739.2809,274.8454 L1739.3947,284.8743 L1739.4057,294.9032 L1738.8395,304.9321 L1739.1181,314.9609 L1739.4363,324.9898 L1737.5384,335.0187 L1739.4047,345.0476 L1738.1047,355.0764 L1739.2117,365.1053 L1737.84,375.1342 L1738.4087,385.163 L1739.4888,395.1919 L1738.435,405.2208 L1738.6404,415.2497 L1738.9515,425.2785 L1739.055,435.3074 L1738.4948,445.3363 L1738.883,455.3651 L1737.7368,465.394 L1738.8792,475.4229 L1739.2309,485.4518 L1739.0927,495.4806 L1739.3174,505.5095 L1737.8559,515.5384 L1737.6304,525.5673 L1737.6715,535.5961 L1738.5,545.625 " fill="none" style="stroke:#383838;stroke-width:1.0;stroke-dasharray:5.0,5.0;"/><path d="M1893.5,84.2969 L1893.7802,84.2969 L1892.9476,94.3257 L1893.7577,104.3546 L1894.0329,114.3835 L1892.5488,124.4124 L1893.3964,134.4412 L1892.9313,144.4701 L1892.9887,154.499 L1893.4091,164.5279 L1892.5782,174.5567 L1894.2382,184.5856 L1892.6596,194.6145 L1893.2363,204.6433 L1894.0759,214.6722 L1893.3856,224.7011 L1893.591,234.73 L1893.4574,244.7588 L1893.738,254.7877 L1893.8188,264.8166 L1894.2809,274.8454 L1894.3947,284.8743 L1894.4057,294.9032 L1893.8395,304.9321 L1894.1181,314.9609 L1894.4363,324.9898 L1892.5384,335.0187 L1894.4047,345.0476 L1893.1047,355.0764 L1894.2117,365.1053 L1892.84,375.1342 L1893.4087,385.163 L1894.4888,395.1919 L1893.435,405.2208 L1893.6404,415.2497 L1893.9515,425.2785 L1894.055,435.3074 L1893.4948,445.3363 L1893.883,455.3651 L1892.7368,465.394 L1893.8792,475.4229 L1894.2309,485.4518 L1894.0927,495.4806 L1894.3174,505.5095 L1892.8559,515.5384 L1892.6304,525.5673 L1892.6715,535.5961 L1893.5,545.625 " fill="none" style="stroke:#383838;stroke-width:1.0;stroke-dasharray:5.0,5.0;"/><text fill="#000000" font-family="FG Virgil" font-size="14" lengthAdjust="spacing" textLength="249" x="5" y="80.9951">Responsavel de Recursos Humanos</text><polygon fill="#F8F8F8" points="140.5442,16.9459,139.3715,18.5482,137.9845,20.8951,136.0008,22.4767,133.9163,23.3415,132.2542,23.4166,130.118,22.3349,128.1023,21.6283,126.5724,20.1936,125.7699,18.5511,125.2939,17.2433,124.8277,15.5351,124.0709,14.0651,124.6525,12.6298,125.162,11.0576,127.074,9.8142,128.4192,8.2008,130.0843,7.665,132.0637,7.2037,134.6021,7.4778,135.9924,8.1335,137.6089,8.4307,139.5743,10.4443,140.2595,12.5701,140.5571,14.0206,140.22,16.4108" style="stroke:#383838;stroke-width:2.0;"/><path d="M132.5,23 L132.6868,23 L132.1317,28.4 L132.6718,33.8 L132.8553,39.2 L131.8659,44.6 L132.5,50 M119.5,31 L119.5,30.9309 L124.7,30.6209 L129.9,30.6591 L135.1,30.9394 L140.3,30.3854 L145.5,31 M132.5,50 L132.8719,50.3223 L129.4766,52.6331 L127.1672,55.8849 L124.9901,59.2515 L122.0424,61.9501 L119.5,65 M132.5,50 L132.5458,50.0397 L135.0785,52.9814 L137.8199,56.1039 L140.4606,59.1392 L143.2934,62.341 L145.5,65 " fill="none" style="stroke:#383838;stroke-width:2.0;"/><text fill="#000000" font-family="FG Virgil" font-size="14" lengthAdjust="spacing" textLength="249" x="5" y="557.6201">Responsavel de Recursos Humanos</text><polygon fill="#F8F8F8" points="140.5442,572.8678,139.3715,574.4701,137.9845,576.8169,136.0008,578.3985,133.9163,579.2634,132.2542,579.3385,130.118,578.2568,128.1023,577.5502,126.5724,576.1155,125.7699,574.473,125.2939,573.1652,124.8277,571.4569,124.0709,569.9869,124.6525,568.5517,125.162,566.9795,127.074,565.736,128.4192,564.1227,130.0843,563.5869,132.0637,563.1255,134.6021,563.3997,135.9924,564.0554,137.6089,564.3526,139.5743,566.3662,140.2595,568.492,140.5571,569.9425,140.22,572.3327" style="stroke:#383838;stroke-width:2.0;"/><path d="M132.5,578.9219 L132.6868,578.9219 L132.1317,584.3219 L132.6718,589.7219 L132.8553,595.1219 L131.8659,600.5219 L132.5,605.9219 M119.5,586.9219 L119.5,586.8528 L124.7,586.5428 L129.9,586.581 L135.1,586.8613 L140.3,586.3073 L145.5,586.9219 M132.5,605.9219 L132.8719,606.2442 L129.4766,608.555 L127.1672,611.8067 L124.9901,615.1733 L122.0424,617.8719 L119.5,620.9219 M132.5,605.9219 L132.5458,605.9616 L135.0785,608.9033 L137.8199,612.0258 L140.4606,615.0611 L143.2934,618.2628 L145.5,620.9219 " fill="none" style="stroke:#383838;stroke-width:2.0;"/><polygon fill="#F8F8F8" points="270,36.7031,270,36.9133,279.75,36.2888,289.5,36.8964,299.25,37.1028,309,35.9897,318.75,36.6254,328.5,36.2766,338.25,36.3196,348,36.635,357.75,36.0118,367.5,37.2568,377.25,36.0728,387,36.5054,396.75,37.1351,406.5,36.6173,416.25,36.7714,426,36.6712,435.75,36.8817,445.5,36.9423,455.25,37.2888,465,36.7031,465.6711,36.7031,465.6793,46.0219,465.2546,55.3406,465.4636,64.6594,465.7022,73.9781,465,83.2969,465,82.5757,455.25,83.9754,445.5,83.0004,435.75,83.8307,426,82.8019,416.25,83.2284,406.5,84.0385,396.75,83.2481,387,83.4022,377.25,83.6355,367.5,83.7131,357.75,83.293,348,83.5841,338.25,82.7245,328.5,83.5813,318.75,83.8451,309,83.7414,299.25,83.9099,289.5,82.8138,279.75,82.6447,270,83.2969,269.3786,83.2969,269.9411,73.9781,269.8035,64.6594,270.6814,55.3406,269.8253,46.0219,270,36.7031" style="stroke:#383838;stroke-width:1.5;"/><text fill="#000000" font-family="FG Virgil" font-size="14" font-style="italic" lengthAdjust="spacing" textLength="108" x="313.5" y="56.6982">«presentation»</text><text fill="#000000" font-family="FG Virgil" font-size="14" lengthAdjust="spacing" textLength="181" x="277" y="72.9951">LerFicheiroColaboradorUI</text><polygon fill="#F8F8F8" points="270,544.625,270,544.8352,279.75,544.2107,289.5,544.8183,299.25,545.0247,309,543.9116,318.75,544.5473,328.5,544.1985,338.25,544.2415,348,544.5568,357.75,543.9336,367.5,545.1786,377.25,543.9947,387,544.4272,396.75,545.0569,406.5,544.5392,416.25,544.6932,426,544.5931,435.75,544.8035,445.5,544.8641,455.25,545.2107,465,544.625,465.6711,544.625,465.6793,553.9438,465.2546,563.2625,465.4636,572.5813,465.7022,581.9,465,591.2188,465,590.4976,455.25,591.8973,445.5,590.9222,435.75,591.7526,426,590.7237,416.25,591.1503,406.5,591.9604,396.75,591.17,387,591.3241,377.25,591.5574,367.5,591.635,357.75,591.2148,348,591.506,338.25,590.6463,328.5,591.5031,318.75,591.7669,309,591.6633,299.25,591.8318,289.5,590.7357,279.75,590.5666,270,591.2188,269.3786,591.2188,269.9411,581.9,269.8035,572.5813,270.6814,563.2625,269.8253,553.9438,270,544.625" style="stroke:#383838;stroke-width:1.5;"/><text fill="#000000" font-family="FG Virgil" font-size="14" font-style="italic" lengthAdjust="spacing" textLength="108" x="313.5" y="564.6201">«presentation»</text><text fill="#000000" font-family="FG Virgil" font-size="14" lengthAdjust="spacing" textLength="181" x="277" y="580.917">LerFicheiroColaboradorUI</text><polygon fill="#F8F8F8" points="475,36.7031,475,36.9133,484.8077,36.2888,494.6154,36.8964,504.4231,37.1028,514.2308,35.9897,524.0385,36.6254,533.8462,36.2766,543.6538,36.3196,553.4615,36.635,563.2692,36.0118,573.0769,37.2568,582.8846,36.0728,592.6923,36.5054,602.5,37.1351,612.3077,36.6173,622.1154,36.7714,631.9231,36.6712,641.7308,36.8817,651.5385,36.9423,661.3462,37.2888,671.1538,37.3742,680.9615,37.3824,690.7692,36.9578,700.5769,37.1667,710.3846,37.4054,720.1923,35.9819,730,36.7031,730.6785,36.7031,729.7035,46.0219,730.5338,55.3406,729.505,64.6594,729.9315,73.9781,730,83.2969,730,84.0385,720.1923,83.2481,710.3846,83.4022,700.5769,83.6355,690.7692,83.7131,680.9615,83.293,671.1538,83.5841,661.3462,82.7245,651.5385,83.5813,641.7308,83.8451,631.9231,83.7414,622.1154,83.9099,612.3077,82.8138,602.5,82.6447,592.6923,82.6755,582.8846,83.238,573.0769,83.1003,563.2692,83.9783,553.4615,83.1222,543.6538,82.9538,533.8462,83.5251,524.0385,82.63,514.2308,82.7777,504.4231,83.9458,494.6154,83.7325,484.8077,84.0314,475,83.2969,474.6782,83.2969,475.3192,73.9781,475.5904,64.6594,474.5276,55.3406,474.9041,46.0219,475,36.7031" style="stroke:#383838;stroke-width:1.5;"/><text fill="#000000" font-family="FG Virgil" font-size="14" font-style="italic" lengthAdjust="spacing" textLength="97" x="554" y="56.6982">«application»</text><text fill="#000000" font-family="FG Virgil" font-size="14" lengthAdjust="spacing" textLength="241" x="482" y="72.9951">LerFicheiroColaboradorController</text><polygon fill="#F8F8F8" points="475,544.625,475,544.8352,484.8077,544.2107,494.6154,544.8183,504.4231,545.0247,514.2308,543.9116,524.0385,544.5473,533.8462,544.1985,543.6538,544.2415,553.4615,544.5568,563.2692,543.9336,573.0769,545.1786,582.8846,543.9947,592.6923,544.4272,602.5,545.0569,612.3077,544.5392,622.1154,544.6932,631.9231,544.5931,641.7308,544.8035,651.5385,544.8641,661.3462,545.2107,671.1538,545.2961,680.9615,545.3043,690.7692,544.8796,700.5769,545.0886,710.3846,545.3272,720.1923,543.9038,730,544.625,730.6785,544.625,729.7035,553.9438,730.5338,563.2625,729.505,572.5813,729.9315,581.9,730,591.2188,730,591.9604,720.1923,591.17,710.3846,591.3241,700.5769,591.5574,690.7692,591.635,680.9615,591.2148,671.1538,591.506,661.3462,590.6463,651.5385,591.5031,641.7308,591.7669,631.9231,591.6633,622.1154,591.8318,612.3077,590.7357,602.5,590.5666,592.6923,590.5973,582.8846,591.1599,573.0769,591.0222,563.2692,591.9002,553.4615,591.0441,543.6538,590.8757,533.8462,591.447,524.0385,590.5519,514.2308,590.6996,504.4231,591.8677,494.6154,591.6544,484.8077,591.9532,475,591.2188,474.6782,591.2188,475.3192,581.9,475.5904,572.5813,474.5276,563.2625,474.9041,553.9438,475,544.625" style="stroke:#383838;stroke-width:1.5;"/><text fill="#000000" font-family="FG Virgil" font-size="14" font-style="italic" lengthAdjust="spacing" textLength="97" x="554" y="564.6201">«application»</text><text fill="#000000" font-family="FG Virgil" font-size="14" lengthAdjust="spacing" textLength="241" x="482" y="580.917">LerFicheiroColaboradorController</text><polygon fill="#F8F8F8" points="740,36.7031,740,36.9133,749.8125,36.2888,759.625,36.8964,769.4375,37.1028,779.25,35.9897,789.0625,36.6254,798.875,36.2766,808.6875,36.3196,818.5,36.635,828.3125,36.0118,838.125,37.2568,847.9375,36.0728,857.75,36.5054,867.5625,37.1351,877.375,36.6173,887.1875,36.7714,897,36.7031,896.9681,36.7031,897.1785,46.0219,897.2391,55.3406,897.5857,64.6594,897.6711,73.9781,897,83.2969,897,83.9761,887.1875,83.5515,877.375,83.7605,867.5625,83.9991,857.75,82.5757,847.9375,83.9754,838.125,83.0004,828.3125,83.8307,818.5,82.8019,808.6875,83.2284,798.875,84.0385,789.0625,83.2481,779.25,83.4022,769.4375,83.6355,759.625,83.7131,749.8125,83.293,740,83.2969,740.2872,83.2969,739.4276,73.9781,740.2844,64.6594,740.5482,55.3406,740.4445,46.0219,740,36.7031" style="stroke:#383838;stroke-width:1.5;"/><text fill="#000000" font-family="FG Virgil" font-size="14" font-style="italic" lengthAdjust="spacing" textLength="100" x="768.5" y="56.6982">«persistence»</text><text fill="#000000" font-family="FG Virgil" font-size="14" lengthAdjust="spacing" textLength="143" x="747" y="72.9951">PersistenceContext</text><polygon fill="#F8F8F8" points="740,544.625,740,544.8352,749.8125,544.2107,759.625,544.8183,769.4375,545.0247,779.25,543.9116,789.0625,544.5473,798.875,544.1985,808.6875,544.2415,818.5,544.5568,828.3125,543.9336,838.125,545.1786,847.9375,543.9947,857.75,544.4272,867.5625,545.0569,877.375,544.5392,887.1875,544.6932,897,544.625,896.9681,544.625,897.1785,553.9438,897.2391,563.2625,897.5857,572.5813,897.6711,581.9,897,591.2188,897,591.898,887.1875,591.4734,877.375,591.6823,867.5625,591.921,857.75,590.4976,847.9375,591.8973,838.125,590.9222,828.3125,591.7526,818.5,590.7237,808.6875,591.1503,798.875,591.9604,789.0625,591.17,779.25,591.3241,769.4375,591.5574,759.625,591.635,749.8125,591.2148,740,591.2188,740.2872,591.2188,739.4276,581.9,740.2844,572.5813,740.5482,563.2625,740.4445,553.9438,740,544.625" style="stroke:#383838;stroke-width:1.5;"/><text fill="#000000" font-family="FG Virgil" font-size="14" font-style="italic" lengthAdjust="spacing" textLength="100" x="768.5" y="564.6201">«persistence»</text><text fill="#000000" font-family="FG Virgil" font-size="14" lengthAdjust="spacing" textLength="143" x="747" y="580.917">PersistenceContext</text><polygon fill="#F8F8F8" points="907,36.7031,907,36.9133,916.8,36.2888,926.6,36.8964,936.4,37.1028,946.2,35.9897,956,36.6254,965.8,36.2766,975.6,36.3196,985.4,36.635,995.2,36.0118,1005,37.2568,1014.8,36.0728,1024.6,36.5054,1034.4,37.1351,1044.2,36.6173,1054,36.7031,1054.0682,36.7031,1053.9681,46.0219,1054.1785,55.3406,1054.2391,64.6594,1054.5857,73.9781,1054,83.2969,1054,83.9679,1044.2,83.9761,1034.4,83.5515,1024.6,83.7605,1014.8,83.9991,1005,82.5757,995.2,83.9754,985.4,83.0004,975.6,83.8307,965.8,82.8019,956,83.2284,946.2,84.0385,936.4,83.2481,926.6,83.4022,916.8,83.6355,907,83.2969,907.4162,83.2969,906.9961,73.9781,907.2872,64.6594,906.4276,55.3406,907.2844,46.0219,907,36.7031" style="stroke:#383838;stroke-width:1.5;"/><text fill="#000000" font-family="FG Virgil" font-size="14" font-style="italic" lengthAdjust="spacing" textLength="68" x="946.5" y="56.6982">«factory»</text><text fill="#000000" font-family="FG Virgil" font-size="14" lengthAdjust="spacing" textLength="133" x="914" y="72.9951">RepositoryFactory</text><polygon fill="#F8F8F8" points="907,544.625,907,544.8352,916.8,544.2107,926.6,544.8183,936.4,545.0247,946.2,543.9116,956,544.5473,965.8,544.1985,975.6,544.2415,985.4,544.5568,995.2,543.9336,1005,545.1786,1014.8,543.9947,1024.6,544.4272,1034.4,545.0569,1044.2,544.5392,1054,544.625,1054.0682,544.625,1053.9681,553.9438,1054.1785,563.2625,1054.2391,572.5813,1054.5857,581.9,1054,591.2188,1054,591.8898,1044.2,591.898,1034.4,591.4734,1024.6,591.6823,1014.8,591.921,1005,590.4976,995.2,591.8973,985.4,590.9222,975.6,591.7526,965.8,590.7237,956,591.1503,946.2,591.9604,936.4,591.17,926.6,591.3241,916.8,591.5574,907,591.2188,907.4162,591.2188,906.9961,581.9,907.2872,572.5813,906.4276,563.2625,907.2844,553.9438,907,544.625" style="stroke:#383838;stroke-width:1.5;"/><text fill="#000000" font-family="FG Virgil" font-size="14" font-style="italic" lengthAdjust="spacing" textLength="68" x="946.5" y="564.6201">«factory»</text><text fill="#000000" font-family="FG Virgil" font-size="14" lengthAdjust="spacing" textLength="133" x="914" y="580.917">RepositoryFactory</text><polygon fill="#F8F8F8" points="1064,36.7031,1064,36.9133,1074.1111,36.2888,1084.2222,36.8964,1094.3333,37.1028,1104.4444,35.9897,1114.5556,36.6254,1124.6667,36.2766,1134.7778,36.3196,1144.8889,36.635,1155,36.0118,1165.1111,37.2568,1175.2222,36.0728,1185.3333,36.5054,1195.4444,37.1351,1205.5556,36.6173,1215.6667,36.7714,1225.7778,36.6712,1235.8889,36.8817,1246,36.7031,1246.2391,36.7031,1246.5857,46.0219,1246.6711,55.3406,1246.6793,64.6594,1246.2546,73.9781,1246,83.2969,1246,83.7605,1235.8889,83.9991,1225.7778,82.5757,1215.6667,83.9754,1205.5556,83.0004,1195.4444,83.8307,1185.3333,82.8019,1175.2222,83.2284,1165.1111,84.0385,1155,83.2481,1144.8889,83.4022,1134.7778,83.6355,1124.6667,83.7131,1114.5556,83.293,1104.4444,83.5841,1094.3333,82.7245,1084.2222,83.5813,1074.1111,83.8451,1064,83.2969,1064.4445,83.2969,1064.613,73.9781,1063.5169,64.6594,1063.3478,55.3406,1063.3786,46.0219,1064,36.7031" style="stroke:#383838;stroke-width:1.5;"/><text fill="#000000" font-family="FG Virgil" font-size="14" font-style="italic" lengthAdjust="spacing" textLength="47" x="1131.5" y="56.6982">«utils»</text><text fill="#000000" font-family="FG Virgil" font-size="14" lengthAdjust="spacing" textLength="168" x="1071" y="72.9951">LerFicheiroColaborador</text><polygon fill="#F8F8F8" points="1064,544.625,1064,544.8352,1074.1111,544.2107,1084.2222,544.8183,1094.3333,545.0247,1104.4444,543.9116,1114.5556,544.5473,1124.6667,544.1985,1134.7778,544.2415,1144.8889,544.5568,1155,543.9336,1165.1111,545.1786,1175.2222,543.9947,1185.3333,544.4272,1195.4444,545.0569,1205.5556,544.5392,1215.6667,544.6932,1225.7778,544.5931,1235.8889,544.8035,1246,544.625,1246.2391,544.625,1246.5857,553.9438,1246.6711,563.2625,1246.6793,572.5813,1246.2546,581.9,1246,591.2188,1246,591.6823,1235.8889,591.921,1225.7778,590.4976,1215.6667,591.8973,1205.5556,590.9222,1195.4444,591.7526,1185.3333,590.7237,1175.2222,591.1503,1165.1111,591.9604,1155,591.17,1144.8889,591.3241,1134.7778,591.5574,1124.6667,591.635,1114.5556,591.2148,1104.4444,591.506,1094.3333,590.6463,1084.2222,591.5031,1074.1111,591.7669,1064,591.2188,1064.4445,591.2188,1064.613,581.9,1063.5169,572.5813,1063.3478,563.2625,1063.3786,553.9438,1064,544.625" style="stroke:#383838;stroke-width:1.5;"/><text fill="#000000" font-family="FG Virgil" font-size="14" font-style="italic" lengthAdjust="spacing" textLength="47" x="1131.5" y="564.6201">«utils»</text><text fill="#000000" font-family="FG Virgil" font-size="14" lengthAdjust="spacing" textLength="168" x="1071" y="580.917">LerFicheiroColaborador</text><polygon fill="#F8F8F8" points="1304,36.7031,1304,36.9133,1314.2,36.2888,1324.4,36.8964,1334.6,37.1028,1344.8,35.9897,1355,36.6254,1365.2,36.2766,1375.4,36.3196,1385.6,36.635,1395.8,36.0118,1406,36.7031,1406.5536,36.7031,1405.3697,46.0219,1405.8022,55.3406,1406.4319,64.6594,1405.9142,73.9781,1406,83.2969,1406,83.3651,1395.8,83.2649,1385.6,83.4754,1375.4,83.536,1365.2,83.8826,1355,83.9679,1344.8,83.9761,1334.6,83.5515,1324.4,83.7605,1314.2,83.9991,1304,83.2969,1303.2788,83.2969,1304.6785,73.9781,1303.7035,64.6594,1304.5338,55.3406,1303.505,46.0219,1304,36.7031" style="stroke:#383838;stroke-width:1.5;"/><text fill="#000000" font-family="FG Virgil" font-size="14" font-style="italic" lengthAdjust="spacing" textLength="74" x="1318" y="56.6982">«Domain»</text><text fill="#000000" font-family="FG Virgil" font-size="14" lengthAdjust="spacing" textLength="88" x="1311" y="72.9951">Colaborador</text><polygon fill="#F8F8F8" points="1304,544.625,1304,544.8352,1314.2,544.2107,1324.4,544.8183,1334.6,545.0247,1344.8,543.9116,1355,544.5473,1365.2,544.1985,1375.4,544.2415,1385.6,544.5568,1395.8,543.9336,1406,544.625,1406.5536,544.625,1405.3697,553.9438,1405.8022,563.2625,1406.4319,572.5813,1405.9142,581.9,1406,591.2188,1406,591.287,1395.8,591.1868,1385.6,591.3973,1375.4,591.4579,1365.2,591.8044,1355,591.8898,1344.8,591.898,1334.6,591.4734,1324.4,591.6823,1314.2,591.921,1304,591.2188,1303.2788,591.2188,1304.6785,581.9,1303.7035,572.5813,1304.5338,563.2625,1303.505,553.9438,1304,544.625" style="stroke:#383838;stroke-width:1.5;"/><text fill="#000000" font-family="FG Virgil" font-size="14" font-style="italic" lengthAdjust="spacing" textLength="74" x="1318" y="564.6201">«Domain»</text><text fill="#000000" font-family="FG Virgil" font-size="14" lengthAdjust="spacing" textLength="88" x="1311" y="580.917">Colaborador</text><polygon fill="#F8F8F8" points="1520.5,36.7031,1520.5,36.9133,1530.4333,36.2888,1540.3667,36.8964,1550.3,37.1028,1560.2333,35.9897,1570.1667,36.6254,1580.1,36.2766,1590.0333,36.3196,1599.9667,36.635,1609.9,36.0118,1619.8333,37.2568,1629.7667,36.0728,1639.7,36.5054,1649.6333,37.1351,1659.5667,36.6173,1669.5,36.7031,1669.5682,36.7031,1669.4681,46.0219,1669.6785,55.3406,1669.7391,64.6594,1670.0857,73.9781,1669.5,83.2969,1669.5,83.9679,1659.5667,83.9761,1649.6333,83.5515,1639.7,83.7605,1629.7667,83.9991,1619.8333,82.5757,1609.9,83.9754,1599.9667,83.0004,1590.0333,83.8307,1580.1,82.8019,1570.1667,83.2284,1560.2333,84.0385,1550.3,83.2481,1540.3667,83.4022,1530.4333,83.6355,1520.5,83.2969,1520.9162,83.2969,1520.4961,73.9781,1520.7872,64.6594,1519.9276,55.3406,1520.7844,46.0219,1520.5,36.7031" style="stroke:#383838;stroke-width:1.5;"/><text fill="#000000" font-family="FG Virgil" font-size="14" font-style="italic" lengthAdjust="spacing" textLength="74" x="1558" y="56.6982">«Domain»</text><text fill="#000000" font-family="FG Virgil" font-size="14" lengthAdjust="spacing" textLength="135" x="1527.5" y="72.9951">SystemUserBuilder</text><polygon fill="#F8F8F8" points="1520.5,544.625,1520.5,544.8352,1530.4333,544.2107,1540.3667,544.8183,1550.3,545.0247,1560.2333,543.9116,1570.1667,544.5473,1580.1,544.1985,1590.0333,544.2415,1599.9667,544.5568,1609.9,543.9336,1619.8333,545.1786,1629.7667,543.9947,1639.7,544.4272,1649.6333,545.0569,1659.5667,544.5392,1669.5,544.625,1669.5682,544.625,1669.4681,553.9438,1669.6785,563.2625,1669.7391,572.5813,1670.0857,581.9,1669.5,591.2188,1669.5,591.8898,1659.5667,591.898,1649.6333,591.4734,1639.7,591.6823,1629.7667,591.921,1619.8333,590.4976,1609.9,591.8973,1599.9667,590.9222,1590.0333,591.7526,1580.1,590.7237,1570.1667,591.1503,1560.2333,591.9604,1550.3,591.17,1540.3667,591.3241,1530.4333,591.5574,1520.5,591.2188,1520.9162,591.2188,1520.4961,581.9,1520.7872,572.5813,1519.9276,563.2625,1520.7844,553.9438,1520.5,544.625" style="stroke:#383838;stroke-width:1.5;"/><text fill="#000000" font-family="FG Virgil" font-size="14" font-style="italic" lengthAdjust="spacing" textLength="74" x="1558" y="564.6201">«Domain»</text><text fill="#000000" font-family="FG Virgil" font-size="14" lengthAdjust="spacing" textLength="135" x="1527.5" y="580.917">SystemUserBuilder</text><polygon fill="#F8F8F8" points="1679.5,36.7031,1679.5,36.9133,1689.3333,36.2888,1699.1667,36.8964,1709,37.1028,1718.8333,35.9897,1728.6667,36.6254,1738.5,36.2766,1748.3333,36.3196,1758.1667,36.635,1768,36.0118,1777.8333,37.2568,1787.6667,36.0728,1797.5,36.7031,1797.3022,36.7031,1797.9319,46.0219,1797.4142,55.3406,1797.5682,64.6594,1797.4681,73.9781,1797.5,83.2969,1797.5,83.4754,1787.6667,83.536,1777.8333,83.8826,1768,83.9679,1758.1667,83.9761,1748.3333,83.5515,1738.5,83.7605,1728.6667,83.9991,1718.8333,82.5757,1709,83.9754,1699.1667,83.0004,1689.3333,83.8307,1679.5,83.2969,1679.005,83.2969,1679.4315,73.9781,1680.2416,64.6594,1679.4513,55.3406,1679.6053,46.0219,1679.5,36.7031" style="stroke:#383838;stroke-width:1.5;"/><text fill="#000000" font-family="FG Virgil" font-size="14" font-style="italic" lengthAdjust="spacing" textLength="74" x="1701.5" y="56.6982">«Domain»</text><text fill="#000000" font-family="FG Virgil" font-size="14" lengthAdjust="spacing" textLength="104" x="1686.5" y="72.9951">UserController</text><polygon fill="#F8F8F8" points="1679.5,544.625,1679.5,544.8352,1689.3333,544.2107,1699.1667,544.8183,1709,545.0247,1718.8333,543.9116,1728.6667,544.5473,1738.5,544.1985,1748.3333,544.2415,1758.1667,544.5568,1768,543.9336,1777.8333,545.1786,1787.6667,543.9947,1797.5,544.625,1797.3022,544.625,1797.9319,553.9438,1797.4142,563.2625,1797.5682,572.5813,1797.4681,581.9,1797.5,591.2188,1797.5,591.3973,1787.6667,591.4579,1777.8333,591.8044,1768,591.8898,1758.1667,591.898,1748.3333,591.4734,1738.5,591.6823,1728.6667,591.921,1718.8333,590.4976,1709,591.8973,1699.1667,590.9222,1689.3333,591.7526,1679.5,591.2188,1679.005,591.2188,1679.4315,581.9,1680.2416,572.5813,1679.4513,563.2625,1679.6053,553.9438,1679.5,544.625" style="stroke:#383838;stroke-width:1.5;"/><text fill="#000000" font-family="FG Virgil" font-size="14" font-style="italic" lengthAdjust="spacing" textLength="74" x="1701.5" y="564.6201">«Domain»</text><text fill="#000000" font-family="FG Virgil" font-size="14" lengthAdjust="spacing" textLength="104" x="1686.5" y="580.917">UserController</text><text fill="#000000" font-family="FG Virgil" font-size="14" font-style="italic" lengthAdjust="spacing" textLength="90" x="1846" y="64.6982">«repository»</text><text fill="#000000" font-family="FG Virgil" font-size="14" lengthAdjust="spacing" textLength="167" x="1807.5" y="80.9951">ColaboradorRepository</text><path d="M1876,15.7031 L1876,15.7031 L1876.0651,15.7701 L1877.6716,13.8211 L1879.6599,12.2647 L1881.5238,10.5805 L1882.979,8.4758 L1885,6.9531 L1884.9952,6.9189 L1886.7739,6.5154 L1888.5766,6.2843 L1890.3958,6.1731 L1892.1577,5.6488 L1894,5.7031 L1894,5.7031 L1894.0339,5.9468 L1895.7615,5.6757 L1897.5879,6.1161 L1899.4264,6.6433 L1901.1948,6.6654 L1903,6.9531 L1903.0211,6.9749 L1904.7901,8.6929 L1906.6553,10.51 L1908.4741,12.2793 L1910.3815,14.1398 L1912,15.7031 L1912.5965,15.7031 L1912.6038,20.9031 L1912.2263,26.1031 L1912.4121,31.3031 L1912.6242,36.5031 L1912,41.7031 L1912,41.7031 L1911.7766,41.4733 L1910.4102,43.6693 L1908.3081,45.1086 L1906.7654,47.1232 L1904.6466,48.5454 L1903,50.4531 L1902.9958,50.423 L1901.2453,51.0296 L1899.397,50.9317 L1897.6064,51.2495 L1895.8207,51.6022 L1894,51.7031 L1894,51.7031 L1894.0254,51.8864 L1892.1998,51.4514 L1890.4176,51.3296 L1888.565,50.7011 L1886.8174,50.8283 L1885,50.4531 L1885.1698,50.6278 L1883.3377,48.8448 L1881.5899,47.1485 L1879.4503,45.0492 L1877.5979,43.2453 L1876,41.7031 L1875.4476,41.7031 L1875.9477,36.5031 L1875.8253,31.3031 L1876.6057,26.1031 L1875.8447,20.9031 L1876,15.7031 " fill="#F8F8F8" style="stroke:#000000;stroke-width:1.5;"/><path d="M1876,15.7031 L1876,15.7031 L1876.0651,15.7701 L1877.6716,17.3211 L1879.6599,19.2647 L1881.5238,21.0805 L1882.979,22.4758 L1885,24.4531 L1884.9952,24.4189 L1886.7739,24.5154 L1888.5766,24.7843 L1890.3958,25.1731 L1892.1577,25.1488 L1894,25.7031 L1894,25.7031 L1894.0339,25.9468 L1895.7615,25.1757 L1897.5879,25.1161 L1899.4264,25.1433 L1901.1948,24.6654 L1903,24.4531 L1903.0211,24.4749 L1904.7901,22.6929 L1906.6553,21.01 L1908.4741,19.2793 L1910.3815,17.6398 L1912,15.7031 " fill="none" style="stroke:#000000;stroke-width:1.5;"/><text fill="#000000" font-family="FG Virgil" font-size="14" font-style="italic" lengthAdjust="spacing" textLength="90" x="1846" y="557.6201">«repository»</text><text fill="#000000" font-family="FG Virgil" font-size="14" lengthAdjust="spacing" textLength="167" x="1807.5" y="573.917">ColaboradorRepository</text><path d="M1876,587.2188 L1876,587.2188 L1876.0651,587.2857 L1877.6716,585.3367 L1879.6599,583.7803 L1881.5238,582.0961 L1882.979,579.9914 L1885,578.4688 L1884.9952,578.4345 L1886.7739,578.031 L1888.5766,577.7999 L1890.3958,577.6887 L1892.1577,577.1644 L1894,577.2188 L1894,577.2188 L1894.0339,577.4625 L1895.7615,577.1913 L1897.5879,577.6317 L1899.4264,578.1589 L1901.1948,578.181 L1903,578.4688 L1903.0211,578.4905 L1904.7901,580.2086 L1906.6553,582.0256 L1908.4741,583.795 L1910.3815,585.6554 L1912,587.2188 L1912.5965,587.2188 L1912.6038,592.4188 L1912.2263,597.6188 L1912.4121,602.8188 L1912.6242,608.0188 L1912,613.2188 L1912,613.2188 L1911.7766,612.9889 L1910.4102,615.185 L1908.3081,616.6243 L1906.7654,618.6389 L1904.6466,620.061 L1903,621.9688 L1902.9958,621.9386 L1901.2453,622.5452 L1899.397,622.4473 L1897.6064,622.7651 L1895.8207,623.1178 L1894,623.2188 L1894,623.2188 L1894.0254,623.402 L1892.1998,622.967 L1890.4176,622.8452 L1888.565,622.2168 L1886.8174,622.3439 L1885,621.9688 L1885.1698,622.1434 L1883.3377,620.3604 L1881.5899,618.6641 L1879.4503,616.5648 L1877.5979,614.7609 L1876,613.2188 L1875.4476,613.2188 L1875.9477,608.0188 L1875.8253,602.8188 L1876.6057,597.6188 L1875.8447,592.4188 L1876,587.2188 " fill="#F8F8F8" style="stroke:#000000;stroke-width:1.5;"/><path d="M1876,587.2188 L1876,587.2188 L1876.0651,587.2857 L1877.6716,588.8367 L1879.6599,590.7803 L1881.5238,592.5961 L1882.979,593.9914 L1885,595.9688 L1884.9952,595.9345 L1886.7739,596.031 L1888.5766,596.2999 L1890.3958,596.6887 L1892.1577,596.6644 L1894,597.2188 L1894,597.2188 L1894.0339,597.4625 L1895.7615,596.6913 L1897.5879,596.6317 L1899.4264,596.6589 L1901.1948,596.181 L1903,595.9688 L1903.0211,595.9905 L1904.7901,594.2086 L1906.6553,592.5256 L1908.4741,590.795 L1910.3815,589.1554 L1912,587.2188 " fill="none" style="stroke:#000000;stroke-width:1.5;"/><polygon fill="#FFFFFF" points="127.5,94.2969,127.5,94.3669,129.5,94.1588,131.5,94.3613,133.5,94.4301,135.5,94.0591,137.5,94.2969,137.4223,94.2969,137.0735,104.3743,137.1165,114.4517,137.4318,124.5291,136.8086,134.6065,138.0536,144.6839,136.8697,154.7613,137.3022,164.8387,137.9319,174.9161,137.4142,184.9935,137.5682,195.0709,137.4681,205.1483,137.6785,215.2257,137.7391,225.3031,138.0857,235.3805,138.1711,245.4578,138.1793,255.5352,137.7546,265.6126,137.9636,275.69,138.2022,285.7674,136.7788,295.8448,138.1785,305.9222,137.2035,315.9996,138.0338,326.077,137.005,336.1544,137.4315,346.2318,138.2416,356.3092,137.4513,366.3866,137.6053,376.464,137.8386,386.5414,137.9162,396.6188,137.4961,406.6962,137.7872,416.7736,136.9276,426.851,137.7844,436.9284,138.0482,447.0058,137.9445,457.0832,138.113,467.1606,137.0169,477.238,136.8478,487.3154,136.8786,497.3928,137.4411,507.4702,137.3035,517.5476,137.5,527.625,137.5,527.8521,135.5,527.5668,133.5,527.5106,131.5,527.7011,129.5,527.4027,127.5,527.625,126.9809,527.625,128.149,517.5476,127.9357,507.4702,128.2345,497.3928,127.1782,487.3154,127.8192,477.238,128.0904,467.1606,127.0276,457.0832,127.4041,447.0058,127.626,436.9284,128.1518,426.851,127.4958,416.7736,127.9626,406.6962,126.9462,396.6188,126.8227,386.5414,128.0036,376.464,126.7831,366.3866,128.009,356.3092,127.7066,346.2318,127.2321,336.1544,127.1462,326.077,127.9588,315.9996,127.2007,305.9222,128.0919,295.8448,126.9473,285.7674,128.1174,275.69,127.9843,265.6126,127.745,255.5352,127.5472,245.4578,128.2266,235.3805,128.1136,225.3031,127.6693,215.2257,127.7682,205.1483,127.3697,195.0709,128.2165,184.9935,127.6549,174.9161,127.6726,164.8387,126.8916,154.7613,127.0948,144.6839,128.0307,134.6065,127.9298,124.5291,127.4571,114.4517,127.1778,104.3743,127.5,94.2969" style="stroke:#383838;stroke-width:1.0;"/><polygon fill="#FFFFFF" points="362.5,115.4297,362.5,115.4997,364.5,115.2916,366.5,115.4941,368.5,115.5629,370.5,115.1919,372.5,115.4297,372.4223,115.4297,372.0735,125.4832,372.1165,135.5368,372.4318,145.5903,371.8086,155.6439,373.0536,165.6974,371.8697,175.751,372.3022,185.8045,372.9319,195.858,372.4142,205.9116,372.5682,215.9651,372.4681,226.0187,372.6785,236.0722,372.7391,246.1258,373.0857,256.1793,373.1711,266.2329,373.1793,276.2864,372.7546,286.3399,372.9636,296.3935,373.2022,306.447,371.7788,316.5006,373.1785,326.5541,372.2035,336.6077,373.0338,346.6612,372.005,356.7147,372.4315,366.7683,373.2416,376.8218,372.4513,386.8754,372.6053,396.9289,372.8386,406.9825,372.9162,417.036,372.4961,427.0896,372.7872,437.1431,371.9276,447.1966,372.7844,457.2502,373.0482,467.3037,372.9445,477.3573,373.113,487.4108,372.0169,497.4644,371.8478,507.5179,371.8786,517.5715,372.5,527.625,372.5,527.6054,370.5,527.5595,368.5,527.8521,366.5,527.5668,364.5,527.5106,362.5,527.625,362.7283,527.625,361.8332,517.5715,361.9809,507.5179,363.149,497.4644,362.9357,487.4108,363.2345,477.3573,362.1782,467.3037,362.8192,457.2502,363.0904,447.1966,362.0276,437.1431,362.4041,427.0896,362.626,417.036,363.1518,406.9825,362.4958,396.9289,362.9626,386.8754,361.9462,376.8218,361.8227,366.7683,363.0036,356.7147,361.7831,346.6612,363.009,336.6077,362.7066,326.5541,362.2321,316.5006,362.1462,306.447,362.9588,296.3935,362.2007,286.3399,363.0919,276.2864,361.9473,266.2329,363.1174,256.1793,362.9843,246.1258,362.745,236.0722,362.5472,226.0187,363.2266,215.9651,363.1136,205.9116,362.6693,195.858,362.7682,185.8045,362.3697,175.751,363.2165,165.6974,362.6549,155.6439,362.6726,145.5903,361.8916,135.5368,362.0948,125.4832,362.5,115.4297" style="stroke:#383838;stroke-width:1.0;"/><polygon fill="#FFFFFF" points="597.5,144.5625,597.5,144.6326,599.5,144.4244,601.5,144.6269,603.5,144.6957,605.5,144.3247,607.5,144.5625,607.4223,144.5625,607.0735,154.6431,607.1165,164.7237,607.4318,174.8043,606.8086,184.8849,608.0536,194.9655,606.8697,205.0461,607.3022,215.1266,607.9319,225.2072,607.4142,235.2878,607.5682,245.3684,607.4681,255.449,607.6785,265.5296,607.7391,275.6102,608.0857,285.6908,608.1711,295.7714,608.1793,305.852,607.7546,315.9326,607.9636,326.0132,608.2022,336.0938,606.7788,346.1743,608.1785,356.2549,607.2035,366.3355,608.0338,376.4161,607.005,386.4967,607.4315,396.5773,608.2416,406.6579,607.4513,416.7385,607.6053,426.8191,607.8386,436.8997,607.9162,446.9803,607.4961,457.0609,607.7872,467.1414,606.9276,477.222,607.7844,487.3026,608.0482,497.3832,607.9445,507.4638,608.113,517.5444,607.5,527.625,607.5,527.464,605.5,527.4076,603.5,527.4179,601.5,527.6054,599.5,527.5595,597.5,527.625,598.1814,527.625,597.3253,517.5444,597.1569,507.4638,597.7283,497.3832,596.8332,487.3026,596.9809,477.222,598.149,467.1414,597.9357,457.0609,598.2345,446.9803,597.1782,436.8997,597.8192,426.8191,598.0904,416.7385,597.0276,406.6579,597.4041,396.5773,597.626,386.4967,598.1518,376.4161,597.4958,366.3355,597.9626,356.2549,596.9462,346.1743,596.8227,336.0938,598.0036,326.0132,596.7831,315.9326,598.009,305.852,597.7066,295.7714,597.2321,285.6908,597.1462,275.6102,597.9588,265.5296,597.2007,255.449,598.0919,245.3684,596.9473,235.2878,598.1174,225.2072,597.9843,215.1266,597.745,205.0461,597.5472,194.9655,598.2266,184.8849,598.1136,174.8043,597.6693,164.7237,597.7682,154.6431,597.5,144.5625" style="stroke:#383838;stroke-width:1.0;"/><polygon fill="#FFFFFF" points="813.5,380.2266,813.5,380.2966,815.5,380.0885,817.5,380.291,819.5,380.3598,821.5,379.9888,823.5,380.2266,823.4223,380.2266,823.0735,390.0339,823.1165,399.8411,823.4318,409.6484,822.8086,419.4557,824.0536,429.263,822.8697,439.0703,823.3022,448.8776,823.9319,458.6849,823.5,468.4922,823.5,468.4636,821.5,468.5149,819.5,468.4815,817.5,468.5517,815.5,468.5719,813.5,468.4922,814.0857,468.4922,814.1711,458.6849,814.1793,448.8776,813.7546,439.0703,813.9636,429.263,814.2022,419.4557,812.7788,409.6484,814.1785,399.8411,813.2035,390.0339,813.5,380.2266" style="stroke:#383838;stroke-width:1.0;"/><polygon fill="#FFFFFF" points="975.5,409.3594,975.5,409.4294,977.5,409.2213,979.5,409.4238,981.5,409.4926,983.5,409.1216,985.5,409.3594,985.4223,409.3594,985.0735,419.2148,985.1165,429.0703,985.4318,438.9258,984.8086,448.7813,986.0536,458.6367,985.5,468.4922,985.5,468.2821,983.5,468.4263,981.5,468.6362,979.5,468.4636,977.5,468.5149,975.5,468.4922,975.4681,468.4922,975.6785,458.6367,975.7391,448.7813,976.0857,438.9258,976.1711,429.0703,976.1793,419.2148,975.5,409.3594" style="stroke:#383838;stroke-width:1.0;"/><polygon fill="#FFFFFF" points="1150,173.6953,1150,173.7654,1152,173.5572,1154,173.7597,1156,173.8285,1158,173.4575,1160,173.6953,1159.9223,173.6953,1159.5735,183.5508,1159.6165,193.4063,1159.9318,203.2617,1159.3086,213.1172,1160.5536,222.9727,1159.3697,232.8281,1159.8022,242.6836,1160.4319,252.5391,1159.9142,262.3945,1160.0682,272.25,1159.9681,282.1055,1160,291.9609,1160,292.0204,1158,292.0406,1156,292.1562,1154,292.1846,1152,292.1874,1150,291.9609,1150.2546,291.9609,1150.4636,282.1055,1150.7022,272.25,1149.2788,262.3945,1150.6785,252.5391,1149.7035,242.6836,1150.5338,232.8281,1149.505,222.9727,1149.9315,213.1172,1150.7416,203.2617,1149.9513,193.4063,1150.1053,183.5508,1150,173.6953" style="stroke:#383838;stroke-width:1.0;"/><polygon fill="#FFFFFF" points="1350,261.9609,1350,262.031,1352,261.8228,1354,262.0254,1356,262.0942,1358,261.7231,1360,261.9609,1359.9741,261.9609,1359.8578,267.9609,1359.8722,273.9609,1359.9773,279.9609,1359.7695,285.9609,1360,291.9609,1360,292.1455,1358,291.7508,1356,291.895,1354,292.1049,1352,291.9323,1350,291.9609,1350.0227,291.9609,1349.9894,285.9609,1350.0595,279.9609,1350.0797,273.9609,1350.1952,267.9609,1350,261.9609" style="stroke:#383838;stroke-width:1.0;"/><polygon fill="#FFFFFF" points="1590,202.8281,1590,202.8982,1592,202.69,1594,202.8926,1596,202.9614,1598,202.5903,1600,202.8281,1599.9741,202.8281,1599.8578,208.8281,1599.8722,214.8281,1599.9773,220.8281,1599.7695,226.8281,1600,232.8281,1600,233.0127,1598,232.618,1596,232.7622,1594,232.9721,1592,232.7995,1590,232.8281,1590.0227,232.8281,1589.9894,226.8281,1590.0595,220.8281,1590.0797,214.8281,1590.1952,208.8281,1590,202.8281" style="stroke:#383838;stroke-width:1.0;"/><polygon fill="#FFFFFF" points="1733.5,321.0938,1733.5,321.1638,1735.5,320.9556,1737.5,321.1582,1739.5,321.227,1741.5,320.856,1743.5,321.0938,1743.4741,321.0938,1743.3578,327.0938,1743.3722,333.0938,1743.4773,339.0938,1743.2695,345.0938,1743.5,351.0938,1743.5,351.2783,1741.5,350.8837,1739.5,351.0278,1737.5,351.2377,1735.5,351.0652,1733.5,351.0938,1733.5227,351.0938,1733.4894,345.0938,1733.5595,339.0938,1733.5797,333.0938,1733.6952,327.0938,1733.5,321.0938" style="stroke:#383838;stroke-width:1.0;"/><polygon fill="#FFFFFF" points="1889,438.4922,1889,438.5622,1891,438.3541,1893,438.5566,1895,438.6254,1897,438.2544,1899,438.4922,1898.9741,438.4922,1898.8578,444.4922,1898.8722,450.4922,1898.9773,456.4922,1898.7695,462.4922,1899,468.4922,1899,468.6767,1897,468.2821,1895,468.4263,1893,468.6362,1891,468.4636,1889,468.4922,1889.0227,468.4922,1888.9894,462.4922,1889.0595,456.4922,1889.0797,450.4922,1889.1952,444.4922,1889,438.4922" style="stroke:#383838;stroke-width:1.0;"/><polygon fill="#FFFFFF" points="1889,497.625,1889,497.6951,1891,497.4869,1893,497.6894,1895,497.7582,1897,497.3872,1899,497.625,1898.9741,497.625,1898.8578,503.625,1898.8722,509.625,1898.9773,515.625,1898.7695,521.625,1899,527.625,1899,527.8095,1897,527.4149,1895,527.5591,1893,527.769,1891,527.5964,1889,527.625,1889.0227,527.625,1888.9894,521.625,1889.0595,515.625,1889.0797,509.625,1889.1952,503.625,1889,497.625" style="stroke:#383838;stroke-width:1.0;"/><polygon fill="#383838" points="350.5,111.4297,350.526,111.4947,352.4487,112.1015,354.5239,113.0895,356.5495,113.9534,358.4117,114.4089,360.5,115.4297,360.4904,115.4056,358.4472,116.0977,356.4525,116.911,354.4916,117.8086,352.4144,118.4157,350.5,119.4297,350.6305,119.5602,351.1514,118.4811,352.0534,117.7831,353.0018,117.1315,353.6798,116.2095,354.5,115.4297,354.5161,115.4458,353.6925,114.6222,352.9421,113.8718,352.1564,113.0861,351.438,112.3677,350.5,111.4297" style="stroke:#383838;stroke-width:1.0;"/><path d="M137.5,115.4297 L137.5,115.7099 L147.4545,114.8773 L157.4091,115.6874 L167.3636,115.9626 L177.3182,114.4785 L187.2727,115.3261 L197.2273,114.861 L207.1818,114.9184 L217.1364,115.3388 L227.0909,114.5079 L237.0455,116.1679 L247,114.5893 L256.9545,115.166 L266.9091,116.0056 L276.8636,115.3153 L286.8182,115.5207 L296.7727,115.3871 L306.7273,115.6677 L316.6818,115.7485 L326.6364,116.2106 L336.5909,116.3244 L346.5455,116.3354 L356.5,115.4297 " fill="none" style="stroke:#383838;stroke-width:1.0;"/><text fill="#000000" font-family="FG Virgil" font-size="13" lengthAdjust="spacing" textLength="102" x="144.5" y="110.3638">Insere o ficheiro</text><polygon fill="#383838" points="585.5,140.5625,585.526,140.6275,587.4487,141.2343,589.5239,142.2223,591.5495,143.0862,593.4117,143.5417,595.5,144.5625,595.4904,144.5384,593.4472,145.2305,591.4525,146.0438,589.4916,146.9414,587.4144,147.5485,585.5,148.5625,585.6305,148.693,586.1514,147.6139,587.0534,146.9159,588.0018,146.2643,588.6798,145.3423,589.5,144.5625,589.5161,144.5786,588.6925,143.755,587.9421,143.0046,587.1564,142.2189,586.438,141.5005,585.5,140.5625" style="stroke:#383838;stroke-width:1.0;"/><path d="M372.5,144.5625 L372.5,144.8427 L382.4545,144.0101 L392.4091,144.8202 L402.3636,145.0954 L412.3182,143.6113 L422.2727,144.4589 L432.2273,143.9938 L442.1818,144.0512 L452.1364,144.4716 L462.0909,143.6407 L472.0455,145.3007 L482,143.7221 L491.9545,144.2988 L501.9091,145.1384 L511.8636,144.4481 L521.8182,144.6535 L531.7727,144.5199 L541.7273,144.8005 L551.6818,144.8813 L561.6364,145.3434 L571.5909,145.4572 L581.5455,145.4682 L591.5,144.5625 " fill="none" style="stroke:#383838;stroke-width:1.0;"/><text fill="#000000" font-family="FG Virgil" font-size="13" lengthAdjust="spacing" textLength="41" x="379.5" y="139.4966">create</text><polygon fill="#383838" points="1138,169.6953,1138.026,169.7604,1139.9487,170.3671,1142.0239,171.3551,1144.0495,172.219,1145.9117,172.6745,1148,173.6953,1147.9904,173.6713,1145.9472,174.3633,1143.9525,175.1766,1141.9916,176.0742,1139.9144,176.6813,1138,177.6953,1138.1305,177.8258,1138.6514,176.7468,1139.5534,176.0487,1140.5018,175.3971,1141.1798,174.4751,1142,173.6953,1142.0161,173.7114,1141.1925,172.8878,1140.4421,172.1374,1139.6564,171.3517,1138.938,170.6334,1138,169.6953" style="stroke:#383838;stroke-width:1.0;"/><path d="M607.5,173.6953 L607.5,173.9756 L617.4352,173.1429 L627.3704,173.953 L637.3056,174.2282 L647.2407,172.7441 L657.1759,173.5917 L667.1111,173.1267 L677.0463,173.184 L686.9815,173.6044 L696.9167,172.7735 L706.8519,174.4335 L716.787,172.8549 L726.7222,173.4316 L736.6574,174.2712 L746.5926,173.5809 L756.5278,173.7863 L766.463,173.6527 L776.3981,173.9333 L786.3333,174.0142 L796.2685,174.4762 L806.2037,174.5901 L816.1389,174.601 L826.0741,174.0348 L836.0093,174.3134 L845.9444,174.6316 L855.8796,172.7337 L865.8148,174.6 L875.75,173.3 L885.6852,174.4071 L895.6204,173.0353 L905.5556,173.604 L915.4907,174.6841 L925.4259,173.6303 L935.3611,173.8357 L945.2963,174.1468 L955.2315,174.2503 L965.1667,173.6901 L975.1019,174.0783 L985.037,172.9321 L994.9722,174.0745 L1004.9074,174.4262 L1014.8426,174.288 L1024.7778,174.5127 L1034.713,173.0512 L1044.6481,172.8257 L1054.5833,172.8668 L1064.5185,173.6168 L1074.4537,173.4333 L1084.3889,174.6039 L1094.3241,173.4624 L1104.2593,173.2379 L1114.1944,173.9997 L1124.1296,172.8062 L1134.0648,173.0031 L1144,173.6953 " fill="none" style="stroke:#383838;stroke-width:1.0;"/><text fill="#000000" font-family="FG Virgil" font-size="13" lengthAdjust="spacing" textLength="67" x="614.5" y="168.6294">lerDados()</text><polygon fill="#383838" points="1578,198.8281,1578.026,198.8932,1579.9487,199.4999,1582.0239,200.4879,1584.0495,201.3518,1585.9117,201.8073,1588,202.8281,1587.9904,202.8041,1585.9472,203.4961,1583.9525,204.3094,1581.9916,205.207,1579.9144,205.8142,1578,206.8281,1578.1305,206.9586,1578.6514,205.8796,1579.5534,205.1815,1580.5018,204.5299,1581.1798,203.6079,1582,202.8281,1582.0161,202.8442,1581.1925,202.0206,1580.4421,201.2702,1579.6564,200.4845,1578.938,199.7662,1578,198.8281" style="stroke:#383838;stroke-width:1.0;"/><path d="M1160,202.8281 L1160,203.1084 L1170.0952,202.2757 L1180.1905,203.0858 L1190.2857,203.361 L1200.381,201.8769 L1210.4762,202.7245 L1220.5714,202.2595 L1230.6667,202.3168 L1240.7619,202.7372 L1250.8571,201.9063 L1260.9524,203.5663 L1271.0476,201.9878 L1281.1429,202.5644 L1291.2381,203.4041 L1301.3333,202.7138 L1311.4286,202.9191 L1321.5238,202.7855 L1331.619,203.0662 L1341.7143,203.147 L1351.8095,203.609 L1361.9048,203.7229 L1372,203.7338 L1382.0952,203.1676 L1392.1905,203.4462 L1402.2857,203.7644 L1412.381,201.8665 L1422.4762,203.7328 L1432.5714,202.4328 L1442.6667,203.5399 L1452.7619,202.1681 L1462.8571,202.7368 L1472.9524,203.8169 L1483.0476,202.7631 L1493.1429,202.9685 L1503.2381,203.2796 L1513.3333,203.3831 L1523.4286,202.8229 L1533.5238,203.2111 L1543.619,202.0649 L1553.7143,203.2073 L1563.8095,203.5591 L1573.9048,203.4208 L1584,202.8281 " fill="none" style="stroke:#383838;stroke-width:1.0;"/><text fill="#000000" font-family="FG Virgil" font-size="13" lengthAdjust="spacing" textLength="411" x="1167" y="197.7622">build(username, password, firstName, lastName, endereco, set)</text><polygon fill="#383838" points="1338,257.9609,1338.026,258.026,1339.9487,258.6327,1342.0239,259.6208,1344.0495,260.4846,1345.9117,260.9401,1348,261.9609,1347.9904,261.9369,1345.9472,262.6289,1343.9525,263.4422,1341.9916,264.3398,1339.9144,264.947,1338,265.9609,1338.1305,266.0914,1338.6514,265.0124,1339.5534,264.3143,1340.5018,263.6627,1341.1798,262.7407,1342,261.9609,1342.0161,261.977,1341.1925,261.1534,1340.4421,260.403,1339.6564,259.6173,1338.938,258.899,1338,257.9609" style="stroke:#383838;stroke-width:1.0;"/><path d="M1160,261.9609 L1160,262.2412 L1170.2222,261.4085 L1180.4444,262.2187 L1190.6667,262.4938 L1200.8889,261.0097 L1211.1111,261.8573 L1221.3333,261.3923 L1231.5556,261.4496 L1241.7778,261.8701 L1252,261.0391 L1262.2222,262.6991 L1272.4444,261.1206 L1282.6667,261.6972 L1292.8889,262.5369 L1303.1111,261.8466 L1313.3333,262.0519 L1323.5556,261.9183 L1333.7778,262.199 L1344,261.9609 " fill="none" style="stroke:#383838;stroke-width:1.0;"/><text fill="#000000" font-family="FG Virgil" font-size="13" lengthAdjust="spacing" textLength="171" x="1167" y="256.895">colab = new Colaborador()</text><polygon fill="#383838" points="1721.5,317.0938,1721.526,317.1588,1723.4487,317.7655,1725.5239,318.7536,1727.5495,319.6174,1729.4117,320.073,1731.5,321.0938,1731.4904,321.0697,1729.4472,321.7618,1727.4525,322.5751,1725.4916,323.4727,1723.4144,324.0798,1721.5,325.0938,1721.6305,325.2242,1722.1514,324.1452,1723.0534,323.4471,1724.0018,322.7956,1724.6798,321.8735,1725.5,321.0938,1725.5161,321.1098,1724.6925,320.2862,1723.9421,319.5358,1723.1564,318.7501,1722.438,318.0318,1721.5,317.0938" style="stroke:#383838;stroke-width:1.0;"/><path d="M607.5,321.0938 L607.5,321.374 L617.5,320.5413 L627.5,321.3515 L637.5,321.6267 L647.5,320.1426 L657.5,320.9901 L667.5,320.5251 L677.5,320.5824 L687.5,321.0029 L697.5,320.1719 L707.5,321.8319 L717.5,320.2534 L727.5,320.8301 L737.5,321.6697 L747.5,320.9794 L757.5,321.1847 L767.5,321.0512 L777.5,321.3318 L787.5,321.4126 L797.5,321.8747 L807.5,321.9885 L817.5,321.9994 L827.5,321.4333 L837.5,321.7119 L847.5,322.0301 L857.5,320.1322 L867.5,321.9984 L877.5,320.6984 L887.5,321.8055 L897.5,320.4337 L907.5,321.0024 L917.5,322.0826 L927.5,321.0288 L937.5,321.2342 L947.5,321.5453 L957.5,321.6487 L967.5,321.0885 L977.5,321.4767 L987.5,320.3305 L997.5,321.4729 L1007.5,321.8247 L1017.5,321.6865 L1027.5,321.9111 L1037.5,320.4496 L1047.5,320.2242 L1057.5,320.2652 L1067.5,321.0152 L1077.5,320.8317 L1087.5,322.0023 L1097.5,320.8608 L1107.5,320.6363 L1117.5,321.3981 L1127.5,320.2046 L1137.5,320.4016 L1147.5,321.959 L1157.5,321.6746 L1167.5,322.0731 L1177.5,320.6647 L1187.5,321.5193 L1197.5,321.881 L1207.5,320.4639 L1217.5,320.9659 L1227.5,321.2617 L1237.5,321.9628 L1247.5,321.0882 L1257.5,321.7105 L1267.5,320.3554 L1277.5,320.1907 L1287.5,321.7652 L1297.5,320.1378 L1307.5,321.7724 L1317.5,321.3693 L1327.5,320.7365 L1337.5,320.6221 L1347.5,321.7054 L1357.5,320.6946 L1367.5,321.8829 L1377.5,320.3568 L1387.5,321.917 L1397.5,321.7395 L1407.5,321.4204 L1417.5,321.1567 L1427.5,322.0626 L1437.5,321.9119 L1447.5,321.3194 L1457.5,321.4513 L1467.5,320.9201 L1477.5,322.049 L1487.5,321.3002 L1497.5,321.3238 L1507.5,320.2826 L1517.5,320.5535 L1527.5,321.8014 L1537.5,321.6668 L1547.5,321.0365 L1557.5,320.6642 L1567.5,320.8018 L1577.5,320.1788 L1587.5,321.6467 L1597.5,322.0798 L1607.5,321.7956 L1617.5,322.0203 L1627.5,320.9114 L1637.5,321.21 L1647.5,320.577 L1657.5,321.4725 L1667.5,321.4228 L1677.5,321.8303 L1687.5,320.7875 L1697.5,320.9145 L1707.5,321.685 L1717.5,321.8502 L1727.5,321.0938 " fill="none" style="stroke:#383838;stroke-width:1.0;"/><text fill="#000000" font-family="FG Virgil" font-size="13" lengthAdjust="spacing" textLength="434" x="614.5" y="316.0278">addUser(username, password, firstName, lastName, endereco, set)</text><polygon fill="#383838" points="801.5,376.2266,801.526,376.2916,803.4487,376.8983,805.5239,377.8864,807.5495,378.7503,809.4117,379.2058,811.5,380.2266,811.4904,380.2025,809.4472,380.8946,807.4525,381.7079,805.4916,382.6055,803.4144,383.2126,801.5,384.2266,801.6305,384.3571,802.1514,383.278,803.0534,382.5799,804.0018,381.9284,804.6798,381.0063,805.5,380.2266,805.5161,380.2426,804.6925,379.419,803.9421,378.6686,803.1564,377.8829,802.438,377.1646,801.5,376.2266" style="stroke:#383838;stroke-width:1.0;"/><path d="M607.5,380.2266 L607.5,380.5068 L617.5,379.6741 L627.5,380.4843 L637.5,380.7595 L647.5,379.2754 L657.5,380.1229 L667.5,379.6579 L677.5,379.7152 L687.5,380.1357 L697.5,379.3047 L707.5,380.9648 L717.5,379.3862 L727.5,379.9629 L737.5,380.8025 L747.5,380.1122 L757.5,380.3175 L767.5,380.184 L777.5,380.4646 L787.5,380.5454 L797.5,381.0075 L807.5,380.2266 " fill="none" style="stroke:#383838;stroke-width:1.0;"/><text fill="#000000" font-family="FG Virgil" font-size="13" lengthAdjust="spacing" textLength="85" x="614.5" y="375.1606">repositories()</text><polygon fill="#383838" points="963.5,405.3594,963.526,405.4244,965.4487,406.0311,967.5239,407.0192,969.5495,407.8831,971.4117,408.3386,973.5,409.3594,973.4904,409.3353,971.4472,410.0274,969.4525,410.8407,967.4916,411.7383,965.4144,412.3454,963.5,413.3594,963.6305,413.4899,964.1514,412.4108,965.0534,411.7128,966.0018,411.0612,966.6798,410.1392,967.5,409.3594,967.5161,409.3755,966.6925,408.5518,965.9421,407.8015,965.1564,407.0157,964.438,406.2974,963.5,405.3594" style="stroke:#383838;stroke-width:1.0;"/><path d="M823.5,409.3594 L823.5,409.6396 L833.2333,408.8069 L842.9667,409.6171 L852.7,409.8923 L862.4333,408.4082 L872.1667,409.2558 L881.9,408.7907 L891.6333,408.848 L901.3667,409.2685 L911.1,408.4375 L920.8333,410.0976 L930.5667,408.519 L940.3,409.0957 L950.0333,409.9353 L959.7667,409.245 L969.5,409.3594 " fill="none" style="stroke:#383838;stroke-width:1.0;"/><text fill="#000000" font-family="FG Virgil" font-size="13" lengthAdjust="spacing" textLength="41" x="830.5" y="404.2935">create</text><polygon fill="#383838" points="1877,434.4922,1877.026,434.5572,1878.9487,435.164,1881.0239,436.152,1883.0495,437.0159,1884.9117,437.4714,1887,438.4922,1886.9904,438.4681,1884.9472,439.1602,1882.9525,439.9735,1880.9916,440.8711,1878.9144,441.4782,1877,442.4922,1877.1305,442.6227,1877.6514,441.5436,1878.5534,440.8456,1879.5018,440.194,1880.1798,439.272,1881,438.4922,1881.0161,438.5083,1880.1925,437.6847,1879.4421,436.9343,1878.6564,436.1486,1877.938,435.4302,1877,434.4922" style="stroke:#383838;stroke-width:1.0;"/><path d="M985.5,438.4922 L985.5,438.7724 L995.4722,437.9398 L1005.4444,438.7499 L1015.4167,439.0251 L1025.3889,437.541 L1035.3611,438.3886 L1045.3333,437.9235 L1055.3056,437.9809 L1065.2778,438.4013 L1075.25,437.5704 L1085.2222,439.2304 L1095.1944,437.6518 L1105.1667,438.2285 L1115.1389,439.0681 L1125.1111,438.3778 L1135.0833,438.5832 L1145.0556,438.4496 L1155.0278,438.7302 L1165,438.811 L1174.9722,439.2731 L1184.9444,439.3869 L1194.9167,439.3979 L1204.8889,438.8317 L1214.8611,439.1103 L1224.8333,439.4285 L1234.8056,437.5306 L1244.7778,439.3969 L1254.75,438.0968 L1264.7222,439.2039 L1274.6944,437.8322 L1284.6667,438.4009 L1294.6389,439.481 L1304.6111,438.4272 L1314.5833,438.6326 L1324.5556,438.9437 L1334.5278,439.0472 L1344.5,438.487 L1354.4722,438.8751 L1364.4444,437.729 L1374.4167,438.8714 L1384.3889,439.2231 L1394.3611,439.0849 L1404.3333,439.3096 L1414.3056,437.8481 L1424.2778,437.6226 L1434.25,437.6637 L1444.2222,438.4137 L1454.1944,438.2301 L1464.1667,439.4007 L1474.1389,438.2593 L1484.1111,438.0348 L1494.0833,438.7965 L1504.0556,437.6031 L1514.0278,437.8 L1524,439.3575 L1533.9722,439.0731 L1543.9444,439.4715 L1553.9167,438.0631 L1563.8889,438.9178 L1573.8611,439.2794 L1583.8333,437.8623 L1593.8056,438.3644 L1603.7778,438.6602 L1613.75,439.3612 L1623.7222,438.4866 L1633.6944,439.1089 L1643.6667,437.7538 L1653.6389,437.5892 L1663.6111,439.1637 L1673.5833,437.5363 L1683.5556,439.1708 L1693.5278,438.7677 L1703.5,438.135 L1713.4722,438.0205 L1723.4444,439.1039 L1733.4167,438.0931 L1743.3889,439.2813 L1753.3611,437.7552 L1763.3333,439.3154 L1773.3056,439.1379 L1783.2778,438.8188 L1793.25,438.5551 L1803.2222,439.461 L1813.1944,439.3103 L1823.1667,438.7179 L1833.1389,438.8498 L1843.1111,438.3185 L1853.0833,439.4475 L1863.0556,438.6987 L1873.0278,438.7223 L1883,438.4922 " fill="none" style="stroke:#383838;stroke-width:1.0;"/><text fill="#000000" font-family="FG Virgil" font-size="13" lengthAdjust="spacing" textLength="41" x="992.5" y="433.4263">create</text><polygon fill="#383838" points="1877,493.625,1877.026,493.69,1878.9487,494.2968,1881.0239,495.2848,1883.0495,496.1487,1884.9117,496.6042,1887,497.625,1886.9904,497.6009,1884.9472,498.293,1882.9525,499.1063,1880.9916,500.0039,1878.9144,500.611,1877,501.625,1877.1305,501.7555,1877.6514,500.6764,1878.5534,499.9784,1879.5018,499.3268,1880.1798,498.4048,1881,497.625,1881.0161,497.6411,1880.1925,496.8175,1879.4421,496.0671,1878.6564,495.2814,1877.938,494.563,1877,493.625" style="stroke:#383838;stroke-width:1.0;"/><path d="M607.5,497.625 L607.5,497.9052 L617.4648,497.0726 L627.4297,497.8827 L637.3945,498.1579 L647.3594,496.6738 L657.3242,497.5214 L667.2891,497.0563 L677.2539,497.1137 L687.2188,497.5341 L697.1836,496.7032 L707.1484,498.3632 L717.1133,496.7846 L727.0781,497.3613 L737.043,498.2009 L747.0078,497.5106 L756.9727,497.716 L766.9375,497.5824 L776.9023,497.863 L786.8672,497.9438 L796.832,498.4059 L806.7969,498.5197 L816.7617,498.5307 L826.7266,497.9645 L836.6914,498.2431 L846.6563,498.5613 L856.6211,496.6634 L866.5859,498.5297 L876.5508,497.2297 L886.5156,498.3367 L896.4805,496.965 L906.4453,497.5337 L916.4102,498.6138 L926.375,497.56 L936.3398,497.7654 L946.3047,498.0765 L956.2695,498.18 L966.2344,497.6198 L976.1992,498.008 L986.1641,496.8618 L996.1289,498.0042 L1006.0938,498.3559 L1016.0586,498.2177 L1026.0234,498.4424 L1035.9883,496.9809 L1045.9531,496.7554 L1055.918,496.7965 L1065.8828,497.5465 L1075.8477,497.363 L1085.8125,498.5335 L1095.7773,497.3921 L1105.7422,497.1676 L1115.707,497.9294 L1125.6719,496.7359 L1135.6367,496.9328 L1145.6016,498.4903 L1155.5664,498.2059 L1165.5313,498.6043 L1175.4961,497.1959 L1185.4609,498.0506 L1195.4258,498.4122 L1205.3906,496.9951 L1215.3555,497.4972 L1225.3203,497.793 L1235.2852,498.494 L1245.25,497.6194 L1255.2148,498.2418 L1265.1797,496.8866 L1275.1445,496.722 L1285.1094,498.2965 L1295.0742,496.6691 L1305.0391,498.3036 L1315.0039,497.9005 L1324.9688,497.2678 L1334.9336,497.1533 L1344.8984,498.2367 L1354.8633,497.2259 L1364.8281,498.4141 L1374.793,496.888 L1384.7578,498.4482 L1394.7227,498.2707 L1404.6875,497.9516 L1414.6523,497.688 L1424.6172,498.5938 L1434.582,498.4431 L1444.5469,497.8507 L1454.5117,497.9826 L1464.4766,497.4513 L1474.4414,498.5803 L1484.4063,497.8315 L1494.3711,497.8551 L1504.3359,496.8139 L1514.3008,497.0847 L1524.2656,498.3327 L1534.2305,498.198 L1544.1953,497.5678 L1554.1602,497.1954 L1564.125,497.3331 L1574.0898,496.7101 L1584.0547,498.178 L1594.0195,498.6111 L1603.9844,498.3269 L1613.9492,498.5516 L1623.9141,497.4427 L1633.8789,497.7413 L1643.8438,497.1082 L1653.8086,498.0037 L1663.7734,497.954 L1673.7383,498.3615 L1683.7031,497.3188 L1693.668,497.4458 L1703.6328,498.2163 L1713.5977,498.3814 L1723.5625,496.9416 L1733.5273,497.3665 L1743.4922,497.824 L1753.457,496.8105 L1763.4219,498.0962 L1773.3867,497.969 L1783.3516,497.4907 L1793.3164,497.8147 L1803.2813,498.5966 L1813.2461,497.2078 L1823.2109,498.045 L1833.1758,498.0059 L1843.1406,497.7794 L1853.1055,497.8129 L1863.0703,497.7763 L1873.0352,496.7928 L1883,497.625 " fill="none" style="stroke:#383838;stroke-width:1.0;"/><text fill="#000000" font-family="FG Virgil" font-size="13" lengthAdjust="spacing" textLength="75" x="614.5" y="492.5591">save(colab)</text><!--MD5=[8ceb4ef53e3e07e7747bd1f28ac45968]
@startuml
'http://plantuml.com/skinparam.html
skinparam handwritten true
skinparam monochrome true
skinparam packageStyle rect
skinparam defaultFontName FG Virgil
skinparam shadowing false

Actor "Responsavel de Recursos Humanos" as Actor
participant LerFicheiroColaboradorUI as UI <<presentation>>
participant LerFicheiroColaboradorController as Controller <<application>>
participant PersistenceContext as Persistence <<persistence>>
participant RepositoryFactory as Factory <<factory>>
participant LerFicheiroColaborador as LerFicheiroColaborador <<utils>>
participant Colaborador as Colaborador <<Domain>>
participant SystemUserBuilder as SystemUserBuilder <<Domain>>
participant UserController as UserController <<Domain>>
database ColaboradorRepository as CRepository <<repository>>


activate Actor
      Actor -> UI: Insere o ficheiro
    activate UI
      UI -> Controller: create
    activate Controller
      Controller -> LerFicheiroColaborador: lerDados()
    activate LerFicheiroColaborador
      LerFicheiroColaborador -> SystemUserBuilder: build(username, password, firstName, lastName, endereco, set)
    activate SystemUserBuilder
    deactivate SystemUserBuilder
      LerFicheiroColaborador -> Colaborador: colab = new Colaborador()
    activate Colaborador
    deactivate Colaborador
    deactivate LerFicheiroColaborador
      Controller -> UserController: addUser(username, password, firstName, lastName, endereco, set)
    activate UserController
    deactivate UserController
    Controller -> Persistence: repositories()
    activate Persistence
      Persistence -> Factory: create
    activate Factory
      Factory -> CRepository: create
    activate CRepository
    deactivate CRepository
    deactivate Factory
    deactivate Persistence
      Controller -> CRepository: save(colab)
    activate CRepository
    deactivate CRepository
    deactivate Controller
    deactivate UI

deactivate Actor
@enduml

@startuml
skinparam handwritten true
skinparam monochrome true
skinparam packageStyle rect
skinparam defaultFontName FG Virgil
skinparam shadowing false

Actor "Responsavel de Recursos Humanos" as Actor
participant LerFicheiroColaboradorUI as UI <<presentation>>
participant LerFicheiroColaboradorController as Controller <<application>>
participant PersistenceContext as Persistence <<persistence>>
participant RepositoryFactory as Factory <<factory>>
participant LerFicheiroColaborador as LerFicheiroColaborador <<utils>>
participant Colaborador as Colaborador <<Domain>>
participant SystemUserBuilder as SystemUserBuilder <<Domain>>
participant UserController as UserController <<Domain>>
database ColaboradorRepository as CRepository <<repository>>


activate Actor
      Actor -> UI: Insere o ficheiro
    activate UI
      UI -> Controller: create
    activate Controller
      Controller -> LerFicheiroColaborador: lerDados()
    activate LerFicheiroColaborador
      LerFicheiroColaborador -> SystemUserBuilder: build(username, password, firstName, lastName, endereco, set)
    activate SystemUserBuilder
    deactivate SystemUserBuilder
      LerFicheiroColaborador -> Colaborador: colab = new Colaborador()
    activate Colaborador
    deactivate Colaborador
    deactivate LerFicheiroColaborador
      Controller -> UserController: addUser(username, password, firstName, lastName, endereco, set)
    activate UserController
    deactivate UserController
    Controller -> Persistence: repositories()
    activate Persistence
      Persistence -> Factory: create
    activate Factory
      Factory -> CRepository: create
    activate CRepository
    deactivate CRepository
    deactivate Factory
    deactivate Persistence
      Controller -> CRepository: save(colab)
    activate CRepository
    deactivate CRepository
    deactivate Controller
    deactivate UI

deactivate Actor
@enduml

PlantUML version 1.2021.6beta6(Unknown compile time)
(GPL source distribution)
Java Runtime: Java(TM) SE Runtime Environment
JVM: Java HotSpot(TM) 64-Bit Server VM
Default Encoding: UTF-8
Language: en
Country: US
--></g></svg>