<?xml version="1.0" encoding="UTF-8" standalone="no"?><svg xmlns="http://www.w3.org/2000/svg" xmlns:xlink="http://www.w3.org/1999/xlink" contentScriptType="application/ecmascript" contentStyleType="text/css" height="541px" preserveAspectRatio="none" style="width:2417px;height:541px;background:#FFFFFF;" version="1.1" viewBox="0 0 2417 541" width="2417px" zoomAndPan="magnify"><defs/><g><rect fill="#FFFFFF" height="344.1953" style="stroke:#A80036;stroke-width:1.0;" width="10" x="127.5" y="94.2969"/><rect fill="#FFFFFF" height="323.0625" style="stroke:#A80036;stroke-width:1.0;" width="10" x="416.5" y="115.4297"/><rect fill="#FFFFFF" height="88.2656" style="stroke:#A80036;stroke-width:1.0;" width="10" x="1225.5" y="144.5625"/><rect fill="#FFFFFF" height="59.1328" style="stroke:#A80036;stroke-width:1.0;" width="10" x="1225.5" y="261.9609"/><rect fill="#FFFFFF" height="88.2656" style="stroke:#A80036;stroke-width:1.0;" width="10" x="1225.5" y="350.2266"/><rect fill="#FFFFFF" height="30" style="stroke:#A80036;stroke-width:1.0;" width="10" x="1737.5" y="379.3594"/><rect fill="#FFFFFF" height="30" style="stroke:#A80036;stroke-width:1.0;" width="10" x="1871.5" y="291.0938"/><rect fill="#FFFFFF" height="30" style="stroke:#A80036;stroke-width:1.0;" width="10" x="2038.5" y="173.6953"/><rect fill="#FFFFFF" height="59.1328" style="stroke:#A80036;stroke-width:1.0;" width="10" x="2219" y="379.3594"/><line style="stroke:#A80036;stroke-width:1.0;stroke-dasharray:5.0,5.0;" x1="132" x2="132" y1="84.2969" y2="456.4922"/><line style="stroke:#A80036;stroke-width:1.0;stroke-dasharray:5.0,5.0;" x1="421.5" x2="421.5" y1="84.2969" y2="456.4922"/><line style="stroke:#A80036;stroke-width:1.0;stroke-dasharray:5.0,5.0;" x1="1230.5" x2="1230.5" y1="84.2969" y2="456.4922"/><line style="stroke:#A80036;stroke-width:1.0;stroke-dasharray:5.0,5.0;" x1="1445.5" x2="1445.5" y1="84.2969" y2="456.4922"/><line style="stroke:#A80036;stroke-width:1.0;stroke-dasharray:5.0,5.0;" x1="1607.5" x2="1607.5" y1="84.2969" y2="456.4922"/><line style="stroke:#A80036;stroke-width:1.0;stroke-dasharray:5.0,5.0;" x1="1742.5" x2="1742.5" y1="84.2969" y2="456.4922"/><line style="stroke:#A80036;stroke-width:1.0;stroke-dasharray:5.0,5.0;" x1="1876.5" x2="1876.5" y1="84.2969" y2="456.4922"/><line style="stroke:#A80036;stroke-width:1.0;stroke-dasharray:5.0,5.0;" x1="2043.5" x2="2043.5" y1="84.2969" y2="456.4922"/><line style="stroke:#A80036;stroke-width:1.0;stroke-dasharray:5.0,5.0;" x1="2223.5" x2="2223.5" y1="84.2969" y2="456.4922"/><line style="stroke:#A80036;stroke-width:1.0;stroke-dasharray:5.0,5.0;" x1="2368.5" x2="2368.5" y1="84.2969" y2="456.4922"/><text fill="#000000" font-family="FG Virgil" font-size="14" lengthAdjust="spacing" textLength="249" x="5" y="80.9951">Responsavel de Recursos Humanos</text><ellipse cx="132.5" cy="15" fill="#FEFECE" rx="8" ry="8" style="stroke:#A80036;stroke-width:2.0;"/><path d="M132.5,23 L132.5,50 M119.5,31 L145.5,31 M132.5,50 L119.5,65 M132.5,50 L145.5,65 " fill="none" style="stroke:#A80036;stroke-width:2.0;"/><text fill="#000000" font-family="FG Virgil" font-size="14" lengthAdjust="spacing" textLength="249" x="5" y="468.4873">Responsavel de Recursos Humanos</text><ellipse cx="132.5" cy="481.7891" fill="#FEFECE" rx="8" ry="8" style="stroke:#A80036;stroke-width:2.0;"/><path d="M132.5,489.7891 L132.5,516.7891 M119.5,497.7891 L145.5,497.7891 M132.5,516.7891 L119.5,531.7891 M132.5,516.7891 L145.5,531.7891 " fill="none" style="stroke:#A80036;stroke-width:2.0;"/><rect fill="#FEFECE" height="46.5938" style="stroke:#A80036;stroke-width:1.5;" width="194" x="324.5" y="36.7031"/><text fill="#000000" font-family="FG Virgil" font-size="14" font-style="italic" lengthAdjust="spacing" textLength="108" x="367.5" y="56.6982">«presentation»</text><text fill="#000000" font-family="FG Virgil" font-size="14" lengthAdjust="spacing" textLength="180" x="331.5" y="72.9951">EspecificarColaboradorUI</text><rect fill="#FEFECE" height="46.5938" style="stroke:#A80036;stroke-width:1.5;" width="194" x="324.5" y="455.4922"/><text fill="#000000" font-family="FG Virgil" font-size="14" font-style="italic" lengthAdjust="spacing" textLength="108" x="367.5" y="475.4873">«presentation»</text><text fill="#000000" font-family="FG Virgil" font-size="14" lengthAdjust="spacing" textLength="180" x="331.5" y="491.7842">EspecificarColaboradorUI</text><rect fill="#FEFECE" height="46.5938" style="stroke:#A80036;stroke-width:1.5;" width="254" x="1103.5" y="36.7031"/><text fill="#000000" font-family="FG Virgil" font-size="14" font-style="italic" lengthAdjust="spacing" textLength="97" x="1182" y="56.6982">«application»</text><text fill="#000000" font-family="FG Virgil" font-size="14" lengthAdjust="spacing" textLength="240" x="1110.5" y="72.9951">EspecificarColaboradorController</text><rect fill="#FEFECE" height="46.5938" style="stroke:#A80036;stroke-width:1.5;" width="254" x="1103.5" y="455.4922"/><text fill="#000000" font-family="FG Virgil" font-size="14" font-style="italic" lengthAdjust="spacing" textLength="97" x="1182" y="475.4873">«application»</text><text fill="#000000" font-family="FG Virgil" font-size="14" lengthAdjust="spacing" textLength="240" x="1110.5" y="491.7842">EspecificarColaboradorController</text><rect fill="#FEFECE" height="46.5938" style="stroke:#A80036;stroke-width:1.5;" width="157" x="1367.5" y="36.7031"/><text fill="#000000" font-family="FG Virgil" font-size="14" font-style="italic" lengthAdjust="spacing" textLength="100" x="1396" y="56.6982">«persistence»</text><text fill="#000000" font-family="FG Virgil" font-size="14" lengthAdjust="spacing" textLength="143" x="1374.5" y="72.9951">PersistenceContext</text><rect fill="#FEFECE" height="46.5938" style="stroke:#A80036;stroke-width:1.5;" width="157" x="1367.5" y="455.4922"/><text fill="#000000" font-family="FG Virgil" font-size="14" font-style="italic" lengthAdjust="spacing" textLength="100" x="1396" y="475.4873">«persistence»</text><text fill="#000000" font-family="FG Virgil" font-size="14" lengthAdjust="spacing" textLength="143" x="1374.5" y="491.7842">PersistenceContext</text><rect fill="#FEFECE" height="46.5938" style="stroke:#A80036;stroke-width:1.5;" width="147" x="1534.5" y="36.7031"/><text fill="#000000" font-family="FG Virgil" font-size="14" font-style="italic" lengthAdjust="spacing" textLength="68" x="1574" y="56.6982">«factory»</text><text fill="#000000" font-family="FG Virgil" font-size="14" lengthAdjust="spacing" textLength="133" x="1541.5" y="72.9951">RepositoryFactory</text><rect fill="#FEFECE" height="46.5938" style="stroke:#A80036;stroke-width:1.5;" width="147" x="1534.5" y="455.4922"/><text fill="#000000" font-family="FG Virgil" font-size="14" font-style="italic" lengthAdjust="spacing" textLength="68" x="1574" y="475.4873">«factory»</text><text fill="#000000" font-family="FG Virgil" font-size="14" lengthAdjust="spacing" textLength="133" x="1541.5" y="491.7842">RepositoryFactory</text><rect fill="#FEFECE" height="46.5938" style="stroke:#A80036;stroke-width:1.5;" width="102" x="1691.5" y="36.7031"/><text fill="#000000" font-family="FG Virgil" font-size="14" font-style="italic" lengthAdjust="spacing" textLength="74" x="1705.5" y="56.6982">«Domain»</text><text fill="#000000" font-family="FG Virgil" font-size="14" lengthAdjust="spacing" textLength="88" x="1698.5" y="72.9951">Colaborador</text><rect fill="#FEFECE" height="46.5938" style="stroke:#A80036;stroke-width:1.5;" width="102" x="1691.5" y="455.4922"/><text fill="#000000" font-family="FG Virgil" font-size="14" font-style="italic" lengthAdjust="spacing" textLength="74" x="1705.5" y="475.4873">«Domain»</text><text fill="#000000" font-family="FG Virgil" font-size="14" lengthAdjust="spacing" textLength="88" x="1698.5" y="491.7842">Colaborador</text><rect fill="#FEFECE" height="46.5938" style="stroke:#A80036;stroke-width:1.5;" width="146" x="1803.5" y="36.7031"/><text fill="#000000" font-family="FG Virgil" font-size="14" font-style="italic" lengthAdjust="spacing" textLength="97" x="1828" y="56.6982">«application»</text><text fill="#000000" font-family="FG Virgil" font-size="14" lengthAdjust="spacing" textLength="132" x="1810.5" y="72.9951">AddUserController</text><rect fill="#FEFECE" height="46.5938" style="stroke:#A80036;stroke-width:1.5;" width="146" x="1803.5" y="455.4922"/><text fill="#000000" font-family="FG Virgil" font-size="14" font-style="italic" lengthAdjust="spacing" textLength="97" x="1828" y="475.4873">«application»</text><text fill="#000000" font-family="FG Virgil" font-size="14" lengthAdjust="spacing" textLength="132" x="1810.5" y="491.7842">AddUserController</text><rect fill="#FEFECE" height="46.5938" style="stroke:#A80036;stroke-width:1.5;" width="168" x="1959.5" y="36.7031"/><text fill="#000000" font-family="FG Virgil" font-size="14" font-style="italic" lengthAdjust="spacing" textLength="74" x="2006.5" y="56.6982">«Domain»</text><text fill="#000000" font-family="FG Virgil" font-size="14" lengthAdjust="spacing" textLength="154" x="1966.5" y="72.9951">RandomRawPassword</text><rect fill="#FEFECE" height="46.5938" style="stroke:#A80036;stroke-width:1.5;" width="168" x="1959.5" y="455.4922"/><text fill="#000000" font-family="FG Virgil" font-size="14" font-style="italic" lengthAdjust="spacing" textLength="74" x="2006.5" y="475.4873">«Domain»</text><text fill="#000000" font-family="FG Virgil" font-size="14" lengthAdjust="spacing" textLength="154" x="1966.5" y="491.7842">RandomRawPassword</text><text fill="#000000" font-family="FG Virgil" font-size="14" font-style="italic" lengthAdjust="spacing" textLength="90" x="2176" y="64.6982">«repository»</text><text fill="#000000" font-family="FG Virgil" font-size="14" lengthAdjust="spacing" textLength="167" x="2137.5" y="80.9951">ColaboradorRepository</text><path d="M2206,15.7031 C2206,5.7031 2224,5.7031 2224,5.7031 C2224,5.7031 2242,5.7031 2242,15.7031 L2242,41.7031 C2242,51.7031 2224,51.7031 2224,51.7031 C2224,51.7031 2206,51.7031 2206,41.7031 L2206,15.7031 " fill="#FEFECE" style="stroke:#000000;stroke-width:1.5;"/><path d="M2206,15.7031 C2206,25.7031 2224,25.7031 2224,25.7031 C2224,25.7031 2242,25.7031 2242,15.7031 " fill="none" style="stroke:#000000;stroke-width:1.5;"/><text fill="#000000" font-family="FG Virgil" font-size="14" font-style="italic" lengthAdjust="spacing" textLength="90" x="2176" y="468.4873">«repository»</text><text fill="#000000" font-family="FG Virgil" font-size="14" lengthAdjust="spacing" textLength="167" x="2137.5" y="484.7842">ColaboradorRepository</text><path d="M2206,498.0859 C2206,488.0859 2224,488.0859 2224,488.0859 C2224,488.0859 2242,488.0859 2242,498.0859 L2242,524.0859 C2242,534.0859 2224,534.0859 2224,534.0859 C2224,534.0859 2206,534.0859 2206,524.0859 L2206,498.0859 " fill="#FEFECE" style="stroke:#000000;stroke-width:1.5;"/><path d="M2206,498.0859 C2206,508.0859 2224,508.0859 2224,508.0859 C2224,508.0859 2242,508.0859 2242,498.0859 " fill="none" style="stroke:#000000;stroke-width:1.5;"/><text fill="#000000" font-family="FG Virgil" font-size="14" font-style="italic" lengthAdjust="spacing" textLength="90" x="2320.5" y="64.6982">«repository»</text><text fill="#000000" font-family="FG Virgil" font-size="14" lengthAdjust="spacing" textLength="85" x="2323" y="80.9951">SystemUser</text><path d="M2350.5,15.7031 C2350.5,5.7031 2368.5,5.7031 2368.5,5.7031 C2368.5,5.7031 2386.5,5.7031 2386.5,15.7031 L2386.5,41.7031 C2386.5,51.7031 2368.5,51.7031 2368.5,51.7031 C2368.5,51.7031 2350.5,51.7031 2350.5,41.7031 L2350.5,15.7031 " fill="#FEFECE" style="stroke:#000000;stroke-width:1.5;"/><path d="M2350.5,15.7031 C2350.5,25.7031 2368.5,25.7031 2368.5,25.7031 C2368.5,25.7031 2386.5,25.7031 2386.5,15.7031 " fill="none" style="stroke:#000000;stroke-width:1.5;"/><text fill="#000000" font-family="FG Virgil" font-size="14" font-style="italic" lengthAdjust="spacing" textLength="90" x="2320.5" y="468.4873">«repository»</text><text fill="#000000" font-family="FG Virgil" font-size="14" lengthAdjust="spacing" textLength="85" x="2323" y="484.7842">SystemUser</text><path d="M2350.5,498.0859 C2350.5,488.0859 2368.5,488.0859 2368.5,488.0859 C2368.5,488.0859 2386.5,488.0859 2386.5,498.0859 L2386.5,524.0859 C2386.5,534.0859 2368.5,534.0859 2368.5,534.0859 C2368.5,534.0859 2350.5,534.0859 2350.5,524.0859 L2350.5,498.0859 " fill="#FEFECE" style="stroke:#000000;stroke-width:1.5;"/><path d="M2350.5,498.0859 C2350.5,508.0859 2368.5,508.0859 2368.5,508.0859 C2368.5,508.0859 2386.5,508.0859 2386.5,498.0859 " fill="none" style="stroke:#000000;stroke-width:1.5;"/><rect fill="#FFFFFF" height="344.1953" style="stroke:#A80036;stroke-width:1.0;" width="10" x="127.5" y="94.2969"/><rect fill="#FFFFFF" height="323.0625" style="stroke:#A80036;stroke-width:1.0;" width="10" x="416.5" y="115.4297"/><rect fill="#FFFFFF" height="88.2656" style="stroke:#A80036;stroke-width:1.0;" width="10" x="1225.5" y="144.5625"/><rect fill="#FFFFFF" height="59.1328" style="stroke:#A80036;stroke-width:1.0;" width="10" x="1225.5" y="261.9609"/><rect fill="#FFFFFF" height="88.2656" style="stroke:#A80036;stroke-width:1.0;" width="10" x="1225.5" y="350.2266"/><rect fill="#FFFFFF" height="30" style="stroke:#A80036;stroke-width:1.0;" width="10" x="1737.5" y="379.3594"/><rect fill="#FFFFFF" height="30" style="stroke:#A80036;stroke-width:1.0;" width="10" x="1871.5" y="291.0938"/><rect fill="#FFFFFF" height="30" style="stroke:#A80036;stroke-width:1.0;" width="10" x="2038.5" y="173.6953"/><rect fill="#FFFFFF" height="59.1328" style="stroke:#A80036;stroke-width:1.0;" width="10" x="2219" y="379.3594"/><polygon fill="#A80036" points="404.5,111.4297,414.5,115.4297,404.5,119.4297,408.5,115.4297" style="stroke:#A80036;stroke-width:1.0;"/><line style="stroke:#A80036;stroke-width:1.0;" x1="137.5" x2="410.5" y1="115.4297" y2="115.4297"/><text fill="#000000" font-family="FG Virgil" font-size="13" lengthAdjust="spacing" textLength="260" x="144.5" y="110.3638">Insere os dados relativos ao colaborador</text><polygon fill="#A80036" points="1213.5,140.5625,1223.5,144.5625,1213.5,148.5625,1217.5,144.5625" style="stroke:#A80036;stroke-width:1.0;"/><line style="stroke:#A80036;stroke-width:1.0;" x1="426.5" x2="1219.5" y1="144.5625" y2="144.5625"/><text fill="#000000" font-family="FG Virgil" font-size="13" lengthAdjust="spacing" textLength="101" x="433.5" y="139.4966">geraPassword()</text><polygon fill="#A80036" points="2026.5,169.6953,2036.5,173.6953,2026.5,177.6953,2030.5,173.6953" style="stroke:#A80036;stroke-width:1.0;"/><line style="stroke:#A80036;stroke-width:1.0;" x1="1235.5" x2="2032.5" y1="173.6953" y2="173.6953"/><text fill="#000000" font-family="FG Virgil" font-size="13" lengthAdjust="spacing" textLength="60" x="1242.5" y="168.6294">toString()</text><polygon fill="#A80036" points="437.5,228.8281,427.5,232.8281,437.5,236.8281,433.5,232.8281" style="stroke:#A80036;stroke-width:1.0;"/><line style="stroke:#A80036;stroke-width:1.0;stroke-dasharray:2.0,2.0;" x1="431.5" x2="1229.5" y1="232.8281" y2="232.8281"/><text fill="#000000" font-family="FG Virgil" font-size="13" lengthAdjust="spacing" textLength="62" x="443.5" y="227.7622">password</text><polygon fill="#A80036" points="1213.5,257.9609,1223.5,261.9609,1213.5,265.9609,1217.5,261.9609" style="stroke:#A80036;stroke-width:1.0;"/><line style="stroke:#A80036;stroke-width:1.0;" x1="426.5" x2="1219.5" y1="261.9609" y2="261.9609"/><text fill="#000000" font-family="FG Virgil" font-size="13" lengthAdjust="spacing" textLength="444" x="433.5" y="256.895">novoUtilizador(username, password, firstName, lastName, endereco)</text><polygon fill="#A80036" points="1859.5,287.0938,1869.5,291.0938,1859.5,295.0938,1863.5,291.0938" style="stroke:#A80036;stroke-width:1.0;"/><line style="stroke:#A80036;stroke-width:1.0;" x1="1235.5" x2="1865.5" y1="291.0938" y2="291.0938"/><text fill="#000000" font-family="FG Virgil" font-size="13" lengthAdjust="spacing" textLength="434" x="1242.5" y="286.0278">addUser(username, password, firstName, lastName, endereco, set)</text><polygon fill="#A80036" points="1213.5,346.2266,1223.5,350.2266,1213.5,354.2266,1217.5,350.2266" style="stroke:#A80036;stroke-width:1.0;"/><line style="stroke:#A80036;stroke-width:1.0;" x1="426.5" x2="1219.5" y1="350.2266" y2="350.2266"/><text fill="#000000" font-family="FG Virgil" font-size="13" lengthAdjust="spacing" textLength="780" x="433.5" y="345.1606">novoColaborador(numMecanografico, nomeCurto, nomeCompleto, dataNascimento, localResidencia, endereco, contacto)</text><polygon fill="#A80036" points="1725.5,375.3594,1735.5,379.3594,1725.5,383.3594,1729.5,379.3594" style="stroke:#A80036;stroke-width:1.0;"/><line style="stroke:#A80036;stroke-width:1.0;" x1="1235.5" x2="1731.5" y1="379.3594" y2="379.3594"/><text fill="#000000" font-family="FG Virgil" font-size="13" lengthAdjust="spacing" textLength="171" x="1242.5" y="374.2935">colab = new Colaborador()</text><polygon fill="#A80036" points="2212,434.4922,2222,438.4922,2212,442.4922,2216,438.4922" style="stroke:#A80036;stroke-width:1.0;"/><line style="stroke:#A80036;stroke-width:1.0;" x1="1230.5" x2="2218" y1="438.4922" y2="438.4922"/><text fill="#000000" font-family="FG Virgil" font-size="13" lengthAdjust="spacing" textLength="75" x="1237.5" y="433.4263">save(colab)</text><!--MD5=[3dc9d6020b77fb6e3f6b1f35f1c840ad]
@startuml
skinparam defaultFontName FG Virgil
skinparam shadowing false

Actor "Responsavel de Recursos Humanos" as Actor
participant EspecificarColaboradorUI as UI <<presentation>>
participant EspecificarColaboradorController as Controller <<application>>
participant PersistenceContext as Persistence <<persistence>>
participant RepositoryFactory as Factory <<factory>>
participant Colaborador as Colaborador <<Domain>>
participant AddUserController as UserController <<application>>
participant RandomRawPassword as RandomRawPassword <<Domain>>
database ColaboradorRepository as CRepository <<repository>>
database SystemUser as URepository <<repository>>


activate Actor
      Actor -> UI: Insere os dados relativos ao colaborador
    activate UI
      UI -> Controller: geraPassword()
    activate Controller
      Controller->RandomRawPassword: toString()
    activate RandomRawPassword
    deactivate RandomRawPassword
      Controller- ->UI: password
    deactivate Controller
      UI -> Controller: novoUtilizador(username, password, firstName, lastName, endereco)
    activate Controller
      Controller->UserController: addUser(username, password, firstName, lastName, endereco, set)
    activate UserController
    deactivate UserController
    deactivate Controller
      UI -> Controller: novoColaborador(numMecanografico, nomeCurto, nomeCompleto, dataNascimento, localResidencia, endereco, contacto)
    activate Controller 
      Controller -> Colaborador: colab = new Colaborador()
    activate Colaborador
    deactivate Colaborador
    activate CRepository
      Controller -> CRepository: save(colab)
    deactivate CRepository
    deactivate Controller
    deactivate UI

deactivate Actor
@enduml

PlantUML version 1.2021.6beta6(Unknown compile time)
(GPL source distribution)
Java Runtime: Java(TM) SE Runtime Environment
JVM: Java HotSpot(TM) 64-Bit Server VM
Default Encoding: UTF-8
Language: en
Country: US
--></g></svg>