<?xml version="1.0" encoding="UTF-8" standalone="no"?><svg xmlns="http://www.w3.org/2000/svg" xmlns:xlink="http://www.w3.org/1999/xlink" contentScriptType="application/ecmascript" contentStyleType="text/css" height="600px" preserveAspectRatio="none" style="width:1776px;height:600px;background:#FFFFFF;" version="1.1" viewBox="0 0 1776 600" width="1776px" zoomAndPan="magnify"><defs/><g><polygon fill="#FFFFFF" points="127.5,94.2969,127.5,94.3669,129.5,94.1588,131.5,94.3613,133.5,94.4301,135.5,94.0591,137.5,94.2969,137.4223,94.2969,137.0735,104.3801,137.1165,114.4633,137.4318,124.5465,136.8086,134.6297,138.0536,144.7129,136.8697,154.7961,137.3022,164.8793,137.9319,174.9625,137.4142,185.0457,137.5682,195.1289,137.4681,205.2121,137.6785,215.2953,137.7391,225.3785,138.0857,235.4617,138.1711,245.5449,138.1793,255.6281,137.7546,265.7113,137.9636,275.7945,138.2022,285.8777,136.7788,295.9609,138.1785,306.0441,137.2035,316.1273,138.0338,326.2105,137.005,336.2938,137.4315,346.377,138.2416,356.4602,137.4513,366.5434,137.6053,376.6266,137.8386,386.7098,137.9162,396.793,137.4961,406.8762,137.7872,416.9594,136.9276,427.0426,137.7844,437.1258,138.0482,447.209,137.9445,457.2922,138.113,467.3754,137.0169,477.4586,136.8478,487.5418,137.5,497.625,137.5,497.4179,135.5,497.6054,133.5,497.5595,131.5,497.8521,129.5,497.5668,127.5,497.625,127.1569,497.625,127.7283,487.5418,126.8332,477.4586,126.9809,467.3754,128.149,457.2922,127.9357,447.209,128.2345,437.1258,127.1782,427.0426,127.8192,416.9594,128.0904,406.8762,127.0276,396.793,127.4041,386.7098,127.626,376.6266,128.1518,366.5434,127.4958,356.4602,127.9626,346.377,126.9462,336.2938,126.8227,326.2105,128.0036,316.1273,126.7831,306.0441,128.009,295.9609,127.7066,285.8777,127.2321,275.7945,127.1462,265.7113,127.9588,255.6281,127.2007,245.5449,128.0919,235.4617,126.9473,225.3785,128.1174,215.2953,127.9843,205.2121,127.745,195.1289,127.5472,185.0457,128.2266,174.9625,128.1136,164.8793,127.6693,154.7961,127.7682,144.7129,127.3697,134.6297,128.2165,124.5465,127.6549,114.4633,127.6726,104.3801,127.5,94.2969" style="stroke:#383838;stroke-width:1.0;"/><polygon fill="#FFFFFF" points="362.5,115.4297,362.5,115.4997,364.5,115.2916,366.5,115.4941,368.5,115.5629,370.5,115.1919,372.5,115.4297,372.4223,115.4297,372.0735,125.4875,372.1165,135.5452,372.4318,145.603,371.8086,155.6608,373.0536,165.7185,371.8697,175.7763,372.3022,185.8341,372.9319,195.8919,372.4142,205.9496,372.5682,216.0074,372.4681,226.0652,372.6785,236.1229,372.7391,246.1807,373.0857,256.2385,373.1711,266.2963,373.1793,276.354,372.7546,286.4118,372.9636,296.4696,373.2022,306.5273,371.7788,316.5851,373.1785,326.6429,372.2035,336.7007,373.0338,346.7584,372.005,356.8162,372.4315,366.874,373.2416,376.9317,372.4513,386.9895,372.6053,397.0473,372.8386,407.1051,372.9162,417.1628,372.4961,427.2206,372.7872,437.2784,371.9276,447.3361,372.7844,457.3939,373.0482,467.4517,372.9445,477.5095,373.113,487.5672,372.5,497.625,372.5,497.464,370.5,497.4076,368.5,497.4179,366.5,497.6054,364.5,497.5595,362.5,497.625,363.1814,497.625,362.3253,487.5672,362.1569,477.5095,362.7283,467.4517,361.8332,457.3939,361.9809,447.3361,363.149,437.2784,362.9357,427.2206,363.2345,417.1628,362.1782,407.1051,362.8192,397.0473,363.0904,386.9895,362.0276,376.9317,362.4041,366.874,362.626,356.8162,363.1518,346.7584,362.4958,336.7007,362.9626,326.6429,361.9462,316.5851,361.8227,306.5273,363.0036,296.4696,361.7831,286.4118,363.009,276.354,362.7066,266.2963,362.2321,256.2385,362.1462,246.1807,362.9588,236.1229,362.2007,226.0652,363.0919,216.0074,361.9473,205.9496,363.1174,195.8919,362.9843,185.8341,362.745,175.7763,362.5472,165.7185,363.2266,155.6608,363.1136,145.603,362.6693,135.5452,362.7682,125.4875,362.5,115.4297" style="stroke:#383838;stroke-width:1.0;"/><polygon fill="#FFFFFF" points="597.5,144.5625,597.5,144.6326,599.5,144.4244,601.5,144.6269,603.5,144.6957,605.5,144.3247,607.5,144.5625,607.4223,144.5625,607.0735,154.65,607.1165,164.7375,607.4318,174.825,606.8086,184.9125,608.0536,195,606.8697,205.0875,607.3022,215.175,607.9319,225.2625,607.4142,235.35,607.5682,245.4375,607.4681,255.525,607.6785,265.6125,607.7391,275.7,608.0857,285.7875,608.1711,295.875,608.1793,305.9625,607.7546,316.05,607.9636,326.1375,608.2022,336.225,606.7788,346.3125,608.1785,356.4,607.2035,366.4875,608.0338,376.575,607.005,386.6625,607.4315,396.75,608.2416,406.8375,607.4513,416.925,607.6053,427.0125,607.8386,437.1,607.9162,447.1875,607.4961,457.275,607.7872,467.3625,606.9276,477.45,607.7844,487.5375,607.5,497.625,607.5,497.8077,605.5,497.7732,603.5,497.8293,601.5,497.464,599.5,497.4076,597.5,497.625,596.8786,497.625,597.4411,487.5375,597.3035,477.45,598.1814,467.3625,597.3253,457.275,597.1569,447.1875,597.7283,437.1,596.8332,427.0125,596.9809,416.925,598.149,406.8375,597.9357,396.75,598.2345,386.6625,597.1782,376.575,597.8192,366.4875,598.0904,356.4,597.0276,346.3125,597.4041,336.225,597.626,326.1375,598.1518,316.05,597.4958,305.9625,597.9626,295.875,596.9462,285.7875,596.8227,275.7,598.0036,265.6125,596.7831,255.525,598.009,245.4375,597.7066,235.35,597.2321,225.2625,597.1462,215.175,597.9588,205.0875,597.2007,195,598.0919,184.9125,596.9473,174.825,598.1174,164.7375,597.9843,154.65,597.5,144.5625" style="stroke:#383838;stroke-width:1.0;"/><polygon fill="#FFFFFF" points="826,173.6953,826,173.7654,828,173.5572,830,173.7597,832,173.8285,834,173.4575,836,173.6953,835.9741,173.6953,835.8578,179.6953,835.8722,185.6953,835.9773,191.6953,835.7695,197.6953,836,203.6953,836,203.8799,834,203.4852,832,203.6294,830,203.8393,828,203.6667,826,203.6953,826.0227,203.6953,825.9894,197.6953,826.0595,191.6953,826.0797,185.6953,826.1952,179.6953,826,173.6953" style="stroke:#383838;stroke-width:1.0;"/><polygon fill="#FFFFFF" points="1005.5,350.2266,1005.5,350.2966,1007.5,350.0885,1009.5,350.291,1011.5,350.3598,1013.5,349.9888,1015.5,350.2266,1015.4223,350.2266,1015.0735,360.0339,1015.1165,369.8411,1015.4318,379.6484,1014.8086,389.4557,1016.0536,399.263,1014.8697,409.0703,1015.3022,418.8776,1015.9319,428.6849,1015.5,438.4922,1015.5,438.4636,1013.5,438.5149,1011.5,438.4815,1009.5,438.5517,1007.5,438.5719,1005.5,438.4922,1006.0857,438.4922,1006.1711,428.6849,1006.1793,418.8776,1005.7546,409.0703,1005.9636,399.263,1006.2022,389.4557,1004.7788,379.6484,1006.1785,369.8411,1005.2035,360.0339,1005.5,350.2266" style="stroke:#383838;stroke-width:1.0;"/><polygon fill="#FFFFFF" points="1167.5,379.3594,1167.5,379.4294,1169.5,379.2213,1171.5,379.4238,1173.5,379.4926,1175.5,379.1216,1177.5,379.3594,1177.4223,379.3594,1177.0735,389.2148,1177.1165,399.0703,1177.4318,408.9258,1176.8086,418.7813,1178.0536,428.6367,1177.5,438.4922,1177.5,438.2821,1175.5,438.4263,1173.5,438.6362,1171.5,438.4636,1169.5,438.5149,1167.5,438.4922,1167.4681,438.4922,1167.6785,428.6367,1167.7391,418.7813,1168.0857,408.9258,1168.1711,399.0703,1168.1793,389.2148,1167.5,379.3594" style="stroke:#383838;stroke-width:1.0;"/><polygon fill="#FFFFFF" points="1302,291.0938,1302,291.1638,1304,290.9556,1306,291.1582,1308,291.227,1310,290.856,1312,291.0938,1311.9741,291.0938,1311.8578,297.0938,1311.8722,303.0938,1311.9773,309.0938,1311.7695,315.0938,1312,321.0938,1312,321.2783,1310,320.8837,1308,321.0278,1306,321.2377,1304,321.0652,1302,321.0938,1302.0227,321.0938,1301.9894,315.0938,1302.0595,309.0938,1302.0797,303.0938,1302.1952,297.0938,1302,291.0938" style="stroke:#383838;stroke-width:1.0;"/><polygon fill="#FFFFFF" points="1422,232.8281,1422,232.8982,1424,232.69,1426,232.8926,1428,232.9614,1430,232.5903,1432,232.8281,1431.9741,232.8281,1431.8578,238.6547,1431.8722,244.4813,1431.9773,250.3078,1431.7695,256.1344,1432,261.9609,1432,262.1455,1430,261.7508,1428,261.895,1426,262.1049,1424,261.9323,1422,261.9609,1422.0227,261.9609,1421.9894,256.1344,1422.0595,250.3078,1422.0797,244.4813,1422.1952,238.6547,1422,232.8281" style="stroke:#383838;stroke-width:1.0;"/><polygon fill="#FFFFFF" points="1577.5,408.4922,1577.5,408.5622,1579.5,408.3541,1581.5,408.5566,1583.5,408.6254,1585.5,408.2544,1587.5,408.4922,1587.4741,408.4922,1587.3578,414.4922,1587.3722,420.4922,1587.4773,426.4922,1587.2695,432.4922,1587.5,438.4922,1587.5,438.6767,1585.5,438.2821,1583.5,438.4263,1581.5,438.6362,1579.5,438.4636,1577.5,438.4922,1577.5227,438.4922,1577.4894,432.4922,1577.5595,426.4922,1577.5797,420.4922,1577.6952,414.4922,1577.5,408.4922" style="stroke:#383838;stroke-width:1.0;"/><polygon fill="#FFFFFF" points="1577.5,467.625,1577.5,467.6951,1579.5,467.4869,1581.5,467.6894,1583.5,467.7582,1585.5,467.3872,1587.5,467.625,1587.4741,467.625,1587.3578,473.625,1587.3722,479.625,1587.4773,485.625,1587.2695,491.625,1587.5,497.625,1587.5,497.8095,1585.5,497.4149,1583.5,497.5591,1581.5,497.769,1579.5,497.5964,1577.5,497.625,1577.5227,497.625,1577.4894,491.625,1577.5595,485.625,1577.5797,479.625,1577.6952,473.625,1577.5,467.625" style="stroke:#383838;stroke-width:1.0;"/><path d="M132,84.2969 L132.2802,84.2969 L131.4476,94.3278 L132.2577,104.3586 L132.5329,114.3895 L131.0488,124.4204 L131.8964,134.4513 L131.4313,144.4822 L131.4887,154.5131 L131.9091,164.544 L131.0782,174.5749 L132.7382,184.6057 L131.1596,194.6366 L131.7363,204.6675 L132.5759,214.6984 L131.8856,224.7293 L132.091,234.7602 L131.9574,244.7911 L132.238,254.8219 L132.3188,264.8528 L132.7809,274.8837 L132.8947,284.9146 L132.9057,294.9455 L132.3395,304.9764 L132.6181,315.0073 L132.9363,325.0382 L131.0384,335.069 L132.9047,345.0999 L131.6047,355.1308 L132.7117,365.1617 L131.34,375.1926 L131.9087,385.2235 L132.9888,395.2544 L131.935,405.2852 L132.1404,415.3161 L132.4515,425.347 L132.555,435.3779 L131.9948,445.4088 L132.383,455.4397 L131.2368,465.4706 L132.3792,475.5015 L132.7309,485.5323 L132.5927,495.5632 L132.8174,505.5941 L132,515.625 " fill="none" style="stroke:#383838;stroke-width:1.0;stroke-dasharray:5.0,5.0;"/><path d="M367,84.2969 L367.2802,84.2969 L366.4476,94.3278 L367.2577,104.3586 L367.5329,114.3895 L366.0488,124.4204 L366.8964,134.4513 L366.4313,144.4822 L366.4887,154.5131 L366.9091,164.544 L366.0782,174.5749 L367.7382,184.6057 L366.1596,194.6366 L366.7363,204.6675 L367.5759,214.6984 L366.8856,224.7293 L367.091,234.7602 L366.9574,244.7911 L367.238,254.8219 L367.3188,264.8528 L367.7809,274.8837 L367.8947,284.9146 L367.9057,294.9455 L367.3395,304.9764 L367.6181,315.0073 L367.9363,325.0382 L366.0384,335.069 L367.9047,345.0999 L366.6047,355.1308 L367.7117,365.1617 L366.34,375.1926 L366.9087,385.2235 L367.9888,395.2544 L366.935,405.2852 L367.1404,415.3161 L367.4515,425.347 L367.555,435.3779 L366.9948,445.4088 L367.383,455.4397 L366.2368,465.4706 L367.3792,475.5015 L367.7309,485.5323 L367.5927,495.5632 L367.8174,505.5941 L367,515.625 " fill="none" style="stroke:#383838;stroke-width:1.0;stroke-dasharray:5.0,5.0;"/><path d="M602,84.2969 L602.2802,84.2969 L601.4476,94.3278 L602.2577,104.3586 L602.5329,114.3895 L601.0488,124.4204 L601.8964,134.4513 L601.4313,144.4822 L601.4887,154.5131 L601.9091,164.544 L601.0782,174.5749 L602.7382,184.6057 L601.1596,194.6366 L601.7363,204.6675 L602.5759,214.6984 L601.8856,224.7293 L602.091,234.7602 L601.9574,244.7911 L602.238,254.8219 L602.3188,264.8528 L602.7809,274.8837 L602.8947,284.9146 L602.9057,294.9455 L602.3395,304.9764 L602.6181,315.0073 L602.9363,325.0382 L601.0384,335.069 L602.9047,345.0999 L601.6047,355.1308 L602.7117,365.1617 L601.34,375.1926 L601.9087,385.2235 L602.9888,395.2544 L601.935,405.2852 L602.1404,415.3161 L602.4515,425.347 L602.555,435.3779 L601.9948,445.4088 L602.383,455.4397 L601.2368,465.4706 L602.3792,475.5015 L602.7309,485.5323 L602.5927,495.5632 L602.8174,505.5941 L602,515.625 " fill="none" style="stroke:#383838;stroke-width:1.0;stroke-dasharray:5.0,5.0;"/><path d="M831,84.2969 L831.2802,84.2969 L830.4476,94.3278 L831.2577,104.3586 L831.5329,114.3895 L830.0488,124.4204 L830.8964,134.4513 L830.4313,144.4822 L830.4887,154.5131 L830.9091,164.544 L830.0782,174.5749 L831.7382,184.6057 L830.1596,194.6366 L830.7363,204.6675 L831.5759,214.6984 L830.8856,224.7293 L831.091,234.7602 L830.9574,244.7911 L831.238,254.8219 L831.3188,264.8528 L831.7809,274.8837 L831.8947,284.9146 L831.9057,294.9455 L831.3395,304.9764 L831.6181,315.0073 L831.9363,325.0382 L830.0384,335.069 L831.9047,345.0999 L830.6047,355.1308 L831.7117,365.1617 L830.34,375.1926 L830.9087,385.2235 L831.9888,395.2544 L830.935,405.2852 L831.1404,415.3161 L831.4515,425.347 L831.555,435.3779 L830.9948,445.4088 L831.383,455.4397 L830.2368,465.4706 L831.3792,475.5015 L831.7309,485.5323 L831.5927,495.5632 L831.8174,505.5941 L831,515.625 " fill="none" style="stroke:#383838;stroke-width:1.0;stroke-dasharray:5.0,5.0;"/><path d="M1010,84.2969 L1010.2802,84.2969 L1009.4476,94.3278 L1010.2577,104.3586 L1010.5329,114.3895 L1009.0488,124.4204 L1009.8964,134.4513 L1009.4313,144.4822 L1009.4887,154.5131 L1009.9091,164.544 L1009.0782,174.5749 L1010.7382,184.6057 L1009.1596,194.6366 L1009.7363,204.6675 L1010.5759,214.6984 L1009.8856,224.7293 L1010.091,234.7602 L1009.9574,244.7911 L1010.238,254.8219 L1010.3188,264.8528 L1010.7809,274.8837 L1010.8947,284.9146 L1010.9057,294.9455 L1010.3395,304.9764 L1010.6181,315.0073 L1010.9363,325.0382 L1009.0384,335.069 L1010.9047,345.0999 L1009.6047,355.1308 L1010.7117,365.1617 L1009.34,375.1926 L1009.9087,385.2235 L1010.9888,395.2544 L1009.935,405.2852 L1010.1404,415.3161 L1010.4515,425.347 L1010.555,435.3779 L1009.9948,445.4088 L1010.383,455.4397 L1009.2368,465.4706 L1010.3792,475.5015 L1010.7309,485.5323 L1010.5927,495.5632 L1010.8174,505.5941 L1010,515.625 " fill="none" style="stroke:#383838;stroke-width:1.0;stroke-dasharray:5.0,5.0;"/><path d="M1172,84.2969 L1172.2802,84.2969 L1171.4476,94.3278 L1172.2577,104.3586 L1172.5329,114.3895 L1171.0488,124.4204 L1171.8964,134.4513 L1171.4313,144.4822 L1171.4887,154.5131 L1171.9091,164.544 L1171.0782,174.5749 L1172.7382,184.6057 L1171.1596,194.6366 L1171.7363,204.6675 L1172.5759,214.6984 L1171.8856,224.7293 L1172.091,234.7602 L1171.9574,244.7911 L1172.238,254.8219 L1172.3188,264.8528 L1172.7809,274.8837 L1172.8947,284.9146 L1172.9057,294.9455 L1172.3395,304.9764 L1172.6181,315.0073 L1172.9363,325.0382 L1171.0384,335.069 L1172.9047,345.0999 L1171.6047,355.1308 L1172.7117,365.1617 L1171.34,375.1926 L1171.9087,385.2235 L1172.9888,395.2544 L1171.935,405.2852 L1172.1404,415.3161 L1172.4515,425.347 L1172.555,435.3779 L1171.9948,445.4088 L1172.383,455.4397 L1171.2368,465.4706 L1172.3792,475.5015 L1172.7309,485.5323 L1172.5927,495.5632 L1172.8174,505.5941 L1172,515.625 " fill="none" style="stroke:#383838;stroke-width:1.0;stroke-dasharray:5.0,5.0;"/><path d="M1307,84.2969 L1307.2802,84.2969 L1306.4476,94.3278 L1307.2577,104.3586 L1307.5329,114.3895 L1306.0488,124.4204 L1306.8964,134.4513 L1306.4313,144.4822 L1306.4887,154.5131 L1306.9091,164.544 L1306.0782,174.5749 L1307.7382,184.6057 L1306.1596,194.6366 L1306.7363,204.6675 L1307.5759,214.6984 L1306.8856,224.7293 L1307.091,234.7602 L1306.9574,244.7911 L1307.238,254.8219 L1307.3188,264.8528 L1307.7809,274.8837 L1307.8947,284.9146 L1307.9057,294.9455 L1307.3395,304.9764 L1307.6181,315.0073 L1307.9363,325.0382 L1306.0384,335.069 L1307.9047,345.0999 L1306.6047,355.1308 L1307.7117,365.1617 L1306.34,375.1926 L1306.9087,385.2235 L1307.9888,395.2544 L1306.935,405.2852 L1307.1404,415.3161 L1307.4515,425.347 L1307.555,435.3779 L1306.9948,445.4088 L1307.383,455.4397 L1306.2368,465.4706 L1307.3792,475.5015 L1307.7309,485.5323 L1307.5927,495.5632 L1307.8174,505.5941 L1307,515.625 " fill="none" style="stroke:#383838;stroke-width:1.0;stroke-dasharray:5.0,5.0;"/><path d="M1427,84.2969 L1427.2802,84.2969 L1426.4476,94.3278 L1427.2577,104.3586 L1427.5329,114.3895 L1426.0488,124.4204 L1426.8964,134.4513 L1426.4313,144.4822 L1426.4887,154.5131 L1426.9091,164.544 L1426.0782,174.5749 L1427.7382,184.6057 L1426.1596,194.6366 L1426.7363,204.6675 L1427.5759,214.6984 L1426.8856,224.7293 L1427.091,234.7602 L1426.9574,244.7911 L1427.238,254.8219 L1427.3188,264.8528 L1427.7809,274.8837 L1427.8947,284.9146 L1427.9057,294.9455 L1427.3395,304.9764 L1427.6181,315.0073 L1427.9363,325.0382 L1426.0384,335.069 L1427.9047,345.0999 L1426.6047,355.1308 L1427.7117,365.1617 L1426.34,375.1926 L1426.9087,385.2235 L1427.9888,395.2544 L1426.935,405.2852 L1427.1404,415.3161 L1427.4515,425.347 L1427.555,435.3779 L1426.9948,445.4088 L1427.383,455.4397 L1426.2368,465.4706 L1427.3792,475.5015 L1427.7309,485.5323 L1427.5927,495.5632 L1427.8174,505.5941 L1427,515.625 " fill="none" style="stroke:#383838;stroke-width:1.0;stroke-dasharray:5.0,5.0;"/><path d="M1582,84.2969 L1582.2802,84.2969 L1581.4476,94.3278 L1582.2577,104.3586 L1582.5329,114.3895 L1581.0488,124.4204 L1581.8964,134.4513 L1581.4313,144.4822 L1581.4887,154.5131 L1581.9091,164.544 L1581.0782,174.5749 L1582.7382,184.6057 L1581.1596,194.6366 L1581.7363,204.6675 L1582.5759,214.6984 L1581.8856,224.7293 L1582.091,234.7602 L1581.9574,244.7911 L1582.238,254.8219 L1582.3188,264.8528 L1582.7809,274.8837 L1582.8947,284.9146 L1582.9057,294.9455 L1582.3395,304.9764 L1582.6181,315.0073 L1582.9363,325.0382 L1581.0384,335.069 L1582.9047,345.0999 L1581.6047,355.1308 L1582.7117,365.1617 L1581.34,375.1926 L1581.9087,385.2235 L1582.9888,395.2544 L1581.935,405.2852 L1582.1404,415.3161 L1582.4515,425.347 L1582.555,435.3779 L1581.9948,445.4088 L1582.383,455.4397 L1581.2368,465.4706 L1582.3792,475.5015 L1582.7309,485.5323 L1582.5927,495.5632 L1582.8174,505.5941 L1582,515.625 " fill="none" style="stroke:#383838;stroke-width:1.0;stroke-dasharray:5.0,5.0;"/><path d="M1727,84.2969 L1727.2802,84.2969 L1726.4476,94.3278 L1727.2577,104.3586 L1727.5329,114.3895 L1726.0488,124.4204 L1726.8964,134.4513 L1726.4313,144.4822 L1726.4887,154.5131 L1726.9091,164.544 L1726.0782,174.5749 L1727.7382,184.6057 L1726.1596,194.6366 L1726.7363,204.6675 L1727.5759,214.6984 L1726.8856,224.7293 L1727.091,234.7602 L1726.9574,244.7911 L1727.238,254.8219 L1727.3188,264.8528 L1727.7809,274.8837 L1727.8947,284.9146 L1727.9057,294.9455 L1727.3395,304.9764 L1727.6181,315.0073 L1727.9363,325.0382 L1726.0384,335.069 L1727.9047,345.0999 L1726.6047,355.1308 L1727.7117,365.1617 L1726.34,375.1926 L1726.9087,385.2235 L1727.9888,395.2544 L1726.935,405.2852 L1727.1404,415.3161 L1727.4515,425.347 L1727.555,435.3779 L1726.9948,445.4088 L1727.383,455.4397 L1726.2368,465.4706 L1727.3792,475.5015 L1727.7309,485.5323 L1727.5927,495.5632 L1727.8174,505.5941 L1727,515.625 " fill="none" style="stroke:#383838;stroke-width:1.0;stroke-dasharray:5.0,5.0;"/><text fill="#000000" font-family="FG Virgil" font-size="14" lengthAdjust="spacing" textLength="249" x="5" y="80.9951">Responsavel de Recursos Humanos</text><polygon fill="#F8F8F8" points="140.5442,16.9459,139.3715,18.5482,137.9845,20.8951,136.0008,22.4767,133.9163,23.3415,132.2542,23.4166,130.118,22.3349,128.1023,21.6283,126.5724,20.1936,125.7699,18.5511,125.2939,17.2433,124.8277,15.5351,124.0709,14.0651,124.6525,12.6298,125.162,11.0576,127.074,9.8142,128.4192,8.2008,130.0843,7.665,132.0637,7.2037,134.6021,7.4778,135.9924,8.1335,137.6089,8.4307,139.5743,10.4443,140.2595,12.5701,140.5571,14.0206,140.22,16.4108" style="stroke:#383838;stroke-width:2.0;"/><path d="M132.5,23 L132.6868,23 L132.1317,28.4 L132.6718,33.8 L132.8553,39.2 L131.8659,44.6 L132.5,50 M119.5,31 L119.5,30.9309 L124.7,30.6209 L129.9,30.6591 L135.1,30.9394 L140.3,30.3854 L145.5,31 M132.5,50 L132.8719,50.3223 L129.4766,52.6331 L127.1672,55.8849 L124.9901,59.2515 L122.0424,61.9501 L119.5,65 M132.5,50 L132.5458,50.0397 L135.0785,52.9814 L137.8199,56.1039 L140.4606,59.1392 L143.2934,62.341 L145.5,65 " fill="none" style="stroke:#383838;stroke-width:2.0;"/><text fill="#000000" font-family="FG Virgil" font-size="14" lengthAdjust="spacing" textLength="249" x="5" y="527.6201">Responsavel de Recursos Humanos</text><polygon fill="#F8F8F8" points="140.5442,542.8678,139.3715,544.4701,137.9845,546.8169,136.0008,548.3985,133.9163,549.2634,132.2542,549.3385,130.118,548.2568,128.1023,547.5502,126.5724,546.1155,125.7699,544.473,125.2939,543.1652,124.8277,541.4569,124.0709,539.9869,124.6525,538.5517,125.162,536.9795,127.074,535.736,128.4192,534.1227,130.0843,533.5869,132.0637,533.1255,134.6021,533.3997,135.9924,534.0554,137.6089,534.3526,139.5743,536.3662,140.2595,538.492,140.5571,539.9425,140.22,542.3327" style="stroke:#383838;stroke-width:2.0;"/><path d="M132.5,548.9219 L132.6868,548.9219 L132.1317,554.3219 L132.6718,559.7219 L132.8553,565.1219 L131.8659,570.5219 L132.5,575.9219 M119.5,556.9219 L119.5,556.8528 L124.7,556.5428 L129.9,556.581 L135.1,556.8613 L140.3,556.3073 L145.5,556.9219 M132.5,575.9219 L132.8719,576.2442 L129.4766,578.555 L127.1672,581.8067 L124.9901,585.1733 L122.0424,587.8719 L119.5,590.9219 M132.5,575.9219 L132.5458,575.9616 L135.0785,578.9033 L137.8199,582.0258 L140.4606,585.0611 L143.2934,588.2628 L145.5,590.9219 " fill="none" style="stroke:#383838;stroke-width:2.0;"/><polygon fill="#F8F8F8" points="270,36.7031,270,36.9133,279.75,36.2888,289.5,36.8964,299.25,37.1028,309,35.9897,318.75,36.6254,328.5,36.2766,338.25,36.3196,348,36.635,357.75,36.0118,367.5,37.2568,377.25,36.0728,387,36.5054,396.75,37.1351,406.5,36.6173,416.25,36.7714,426,36.6712,435.75,36.8817,445.5,36.9423,455.25,37.2888,465,36.7031,465.6711,36.7031,465.6793,46.0219,465.2546,55.3406,465.4636,64.6594,465.7022,73.9781,465,83.2969,465,82.5757,455.25,83.9754,445.5,83.0004,435.75,83.8307,426,82.8019,416.25,83.2284,406.5,84.0385,396.75,83.2481,387,83.4022,377.25,83.6355,367.5,83.7131,357.75,83.293,348,83.5841,338.25,82.7245,328.5,83.5813,318.75,83.8451,309,83.7414,299.25,83.9099,289.5,82.8138,279.75,82.6447,270,83.2969,269.3786,83.2969,269.9411,73.9781,269.8035,64.6594,270.6814,55.3406,269.8253,46.0219,270,36.7031" style="stroke:#383838;stroke-width:1.5;"/><text fill="#000000" font-family="FG Virgil" font-size="14" font-style="italic" lengthAdjust="spacing" textLength="108" x="313.5" y="56.6982">«presentation»</text><text fill="#000000" font-family="FG Virgil" font-size="14" lengthAdjust="spacing" textLength="181" x="277" y="72.9951">LerFicheiroColaboradorUI</text><polygon fill="#F8F8F8" points="270,514.625,270,514.8352,279.75,514.2107,289.5,514.8183,299.25,515.0247,309,513.9116,318.75,514.5473,328.5,514.1985,338.25,514.2415,348,514.5568,357.75,513.9336,367.5,515.1786,377.25,513.9947,387,514.4272,396.75,515.0569,406.5,514.5392,416.25,514.6932,426,514.5931,435.75,514.8035,445.5,514.8641,455.25,515.2107,465,514.625,465.6711,514.625,465.6793,523.9438,465.2546,533.2625,465.4636,542.5813,465.7022,551.9,465,561.2188,465,560.4976,455.25,561.8973,445.5,560.9222,435.75,561.7526,426,560.7237,416.25,561.1503,406.5,561.9604,396.75,561.17,387,561.3241,377.25,561.5574,367.5,561.635,357.75,561.2148,348,561.506,338.25,560.6463,328.5,561.5031,318.75,561.7669,309,561.6633,299.25,561.8318,289.5,560.7357,279.75,560.5666,270,561.2188,269.3786,561.2188,269.9411,551.9,269.8035,542.5813,270.6814,533.2625,269.8253,523.9438,270,514.625" style="stroke:#383838;stroke-width:1.5;"/><text fill="#000000" font-family="FG Virgil" font-size="14" font-style="italic" lengthAdjust="spacing" textLength="108" x="313.5" y="534.6201">«presentation»</text><text fill="#000000" font-family="FG Virgil" font-size="14" lengthAdjust="spacing" textLength="181" x="277" y="550.917">LerFicheiroColaboradorUI</text><polygon fill="#F8F8F8" points="475,36.7031,475,36.9133,484.8077,36.2888,494.6154,36.8964,504.4231,37.1028,514.2308,35.9897,524.0385,36.6254,533.8462,36.2766,543.6538,36.3196,553.4615,36.635,563.2692,36.0118,573.0769,37.2568,582.8846,36.0728,592.6923,36.5054,602.5,37.1351,612.3077,36.6173,622.1154,36.7714,631.9231,36.6712,641.7308,36.8817,651.5385,36.9423,661.3462,37.2888,671.1538,37.3742,680.9615,37.3824,690.7692,36.9578,700.5769,37.1667,710.3846,37.4054,720.1923,35.9819,730,36.7031,730.6785,36.7031,729.7035,46.0219,730.5338,55.3406,729.505,64.6594,729.9315,73.9781,730,83.2969,730,84.0385,720.1923,83.2481,710.3846,83.4022,700.5769,83.6355,690.7692,83.7131,680.9615,83.293,671.1538,83.5841,661.3462,82.7245,651.5385,83.5813,641.7308,83.8451,631.9231,83.7414,622.1154,83.9099,612.3077,82.8138,602.5,82.6447,592.6923,82.6755,582.8846,83.238,573.0769,83.1003,563.2692,83.9783,553.4615,83.1222,543.6538,82.9538,533.8462,83.5251,524.0385,82.63,514.2308,82.7777,504.4231,83.9458,494.6154,83.7325,484.8077,84.0314,475,83.2969,474.6782,83.2969,475.3192,73.9781,475.5904,64.6594,474.5276,55.3406,474.9041,46.0219,475,36.7031" style="stroke:#383838;stroke-width:1.5;"/><text fill="#000000" font-family="FG Virgil" font-size="14" font-style="italic" lengthAdjust="spacing" textLength="97" x="554" y="56.6982">«application»</text><text fill="#000000" font-family="FG Virgil" font-size="14" lengthAdjust="spacing" textLength="241" x="482" y="72.9951">LerFicheiroColaboradorController</text><polygon fill="#F8F8F8" points="475,514.625,475,514.8352,484.8077,514.2107,494.6154,514.8183,504.4231,515.0247,514.2308,513.9116,524.0385,514.5473,533.8462,514.1985,543.6538,514.2415,553.4615,514.5568,563.2692,513.9336,573.0769,515.1786,582.8846,513.9947,592.6923,514.4272,602.5,515.0569,612.3077,514.5392,622.1154,514.6932,631.9231,514.5931,641.7308,514.8035,651.5385,514.8641,661.3462,515.2107,671.1538,515.2961,680.9615,515.3043,690.7692,514.8796,700.5769,515.0886,710.3846,515.3272,720.1923,513.9038,730,514.625,730.6785,514.625,729.7035,523.9438,730.5338,533.2625,729.505,542.5813,729.9315,551.9,730,561.2188,730,561.9604,720.1923,561.17,710.3846,561.3241,700.5769,561.5574,690.7692,561.635,680.9615,561.2148,671.1538,561.506,661.3462,560.6463,651.5385,561.5031,641.7308,561.7669,631.9231,561.6633,622.1154,561.8318,612.3077,560.7357,602.5,560.5666,592.6923,560.5973,582.8846,561.1599,573.0769,561.0222,563.2692,561.9002,553.4615,561.0441,543.6538,560.8757,533.8462,561.447,524.0385,560.5519,514.2308,560.6996,504.4231,561.8677,494.6154,561.6544,484.8077,561.9532,475,561.2188,474.6782,561.2188,475.3192,551.9,475.5904,542.5813,474.5276,533.2625,474.9041,523.9438,475,514.625" style="stroke:#383838;stroke-width:1.5;"/><text fill="#000000" font-family="FG Virgil" font-size="14" font-style="italic" lengthAdjust="spacing" textLength="97" x="554" y="534.6201">«application»</text><text fill="#000000" font-family="FG Virgil" font-size="14" lengthAdjust="spacing" textLength="241" x="482" y="550.917">LerFicheiroColaboradorController</text><polygon fill="#F8F8F8" points="740,36.7031,740,36.9133,750.1111,36.2888,760.2222,36.8964,770.3333,37.1028,780.4444,35.9897,790.5556,36.6254,800.6667,36.2766,810.7778,36.3196,820.8889,36.635,831,36.0118,841.1111,37.2568,851.2222,36.0728,861.3333,36.5054,871.4444,37.1351,881.5556,36.6173,891.6667,36.7714,901.7778,36.6712,911.8889,36.8817,922,36.7031,922.2391,36.7031,922.5857,46.0219,922.6711,55.3406,922.6793,64.6594,922.2546,73.9781,922,83.2969,922,83.7605,911.8889,83.9991,901.7778,82.5757,891.6667,83.9754,881.5556,83.0004,871.4444,83.8307,861.3333,82.8019,851.2222,83.2284,841.1111,84.0385,831,83.2481,820.8889,83.4022,810.7778,83.6355,800.6667,83.7131,790.5556,83.293,780.4444,83.5841,770.3333,82.7245,760.2222,83.5813,750.1111,83.8451,740,83.2969,740.4445,83.2969,740.613,73.9781,739.5169,64.6594,739.3478,55.3406,739.3786,46.0219,740,36.7031" style="stroke:#383838;stroke-width:1.5;"/><text fill="#000000" font-family="FG Virgil" font-size="14" font-style="italic" lengthAdjust="spacing" textLength="47" x="807.5" y="56.6982">«utils»</text><text fill="#000000" font-family="FG Virgil" font-size="14" lengthAdjust="spacing" textLength="168" x="747" y="72.9951">LerFicheiroColaborador</text><polygon fill="#F8F8F8" points="740,514.625,740,514.8352,750.1111,514.2107,760.2222,514.8183,770.3333,515.0247,780.4444,513.9116,790.5556,514.5473,800.6667,514.1985,810.7778,514.2415,820.8889,514.5568,831,513.9336,841.1111,515.1786,851.2222,513.9947,861.3333,514.4272,871.4444,515.0569,881.5556,514.5392,891.6667,514.6932,901.7778,514.5931,911.8889,514.8035,922,514.625,922.2391,514.625,922.5857,523.9438,922.6711,533.2625,922.6793,542.5813,922.2546,551.9,922,561.2188,922,561.6823,911.8889,561.921,901.7778,560.4976,891.6667,561.8973,881.5556,560.9222,871.4444,561.7526,861.3333,560.7237,851.2222,561.1503,841.1111,561.9604,831,561.17,820.8889,561.3241,810.7778,561.5574,800.6667,561.635,790.5556,561.2148,780.4444,561.506,770.3333,560.6463,760.2222,561.5031,750.1111,561.7669,740,561.2188,740.4445,561.2188,740.613,551.9,739.5169,542.5813,739.3478,533.2625,739.3786,523.9438,740,514.625" style="stroke:#383838;stroke-width:1.5;"/><text fill="#000000" font-family="FG Virgil" font-size="14" font-style="italic" lengthAdjust="spacing" textLength="47" x="807.5" y="534.6201">«utils»</text><text fill="#000000" font-family="FG Virgil" font-size="14" lengthAdjust="spacing" textLength="168" x="747" y="550.917">LerFicheiroColaborador</text><polygon fill="#F8F8F8" points="932,36.7031,932,36.9133,941.8125,36.2888,951.625,36.8964,961.4375,37.1028,971.25,35.9897,981.0625,36.6254,990.875,36.2766,1000.6875,36.3196,1010.5,36.635,1020.3125,36.0118,1030.125,37.2568,1039.9375,36.0728,1049.75,36.5054,1059.5625,37.1351,1069.375,36.6173,1079.1875,36.7714,1089,36.7031,1088.9681,36.7031,1089.1785,46.0219,1089.2391,55.3406,1089.5857,64.6594,1089.6711,73.9781,1089,83.2969,1089,83.9761,1079.1875,83.5515,1069.375,83.7605,1059.5625,83.9991,1049.75,82.5757,1039.9375,83.9754,1030.125,83.0004,1020.3125,83.8307,1010.5,82.8019,1000.6875,83.2284,990.875,84.0385,981.0625,83.2481,971.25,83.4022,961.4375,83.6355,951.625,83.7131,941.8125,83.293,932,83.2969,932.2872,83.2969,931.4276,73.9781,932.2844,64.6594,932.5482,55.3406,932.4445,46.0219,932,36.7031" style="stroke:#383838;stroke-width:1.5;"/><text fill="#000000" font-family="FG Virgil" font-size="14" font-style="italic" lengthAdjust="spacing" textLength="100" x="960.5" y="56.6982">«persistence»</text><text fill="#000000" font-family="FG Virgil" font-size="14" lengthAdjust="spacing" textLength="143" x="939" y="72.9951">PersistenceContext</text><polygon fill="#F8F8F8" points="932,514.625,932,514.8352,941.8125,514.2107,951.625,514.8183,961.4375,515.0247,971.25,513.9116,981.0625,514.5473,990.875,514.1985,1000.6875,514.2415,1010.5,514.5568,1020.3125,513.9336,1030.125,515.1786,1039.9375,513.9947,1049.75,514.4272,1059.5625,515.0569,1069.375,514.5392,1079.1875,514.6932,1089,514.625,1088.9681,514.625,1089.1785,523.9438,1089.2391,533.2625,1089.5857,542.5813,1089.6711,551.9,1089,561.2188,1089,561.898,1079.1875,561.4734,1069.375,561.6823,1059.5625,561.921,1049.75,560.4976,1039.9375,561.8973,1030.125,560.9222,1020.3125,561.7526,1010.5,560.7237,1000.6875,561.1503,990.875,561.9604,981.0625,561.17,971.25,561.3241,961.4375,561.5574,951.625,561.635,941.8125,561.2148,932,561.2188,932.2872,561.2188,931.4276,551.9,932.2844,542.5813,932.5482,533.2625,932.4445,523.9438,932,514.625" style="stroke:#383838;stroke-width:1.5;"/><text fill="#000000" font-family="FG Virgil" font-size="14" font-style="italic" lengthAdjust="spacing" textLength="100" x="960.5" y="534.6201">«persistence»</text><text fill="#000000" font-family="FG Virgil" font-size="14" lengthAdjust="spacing" textLength="143" x="939" y="550.917">PersistenceContext</text><polygon fill="#F8F8F8" points="1099,36.7031,1099,36.9133,1108.8,36.2888,1118.6,36.8964,1128.4,37.1028,1138.2,35.9897,1148,36.6254,1157.8,36.2766,1167.6,36.3196,1177.4,36.635,1187.2,36.0118,1197,37.2568,1206.8,36.0728,1216.6,36.5054,1226.4,37.1351,1236.2,36.6173,1246,36.7031,1246.0682,36.7031,1245.9681,46.0219,1246.1785,55.3406,1246.2391,64.6594,1246.5857,73.9781,1246,83.2969,1246,83.9679,1236.2,83.9761,1226.4,83.5515,1216.6,83.7605,1206.8,83.9991,1197,82.5757,1187.2,83.9754,1177.4,83.0004,1167.6,83.8307,1157.8,82.8019,1148,83.2284,1138.2,84.0385,1128.4,83.2481,1118.6,83.4022,1108.8,83.6355,1099,83.2969,1099.4162,83.2969,1098.9961,73.9781,1099.2872,64.6594,1098.4276,55.3406,1099.2844,46.0219,1099,36.7031" style="stroke:#383838;stroke-width:1.5;"/><text fill="#000000" font-family="FG Virgil" font-size="14" font-style="italic" lengthAdjust="spacing" textLength="68" x="1138.5" y="56.6982">«factory»</text><text fill="#000000" font-family="FG Virgil" font-size="14" lengthAdjust="spacing" textLength="133" x="1106" y="72.9951">RepositoryFactory</text><polygon fill="#F8F8F8" points="1099,514.625,1099,514.8352,1108.8,514.2107,1118.6,514.8183,1128.4,515.0247,1138.2,513.9116,1148,514.5473,1157.8,514.1985,1167.6,514.2415,1177.4,514.5568,1187.2,513.9336,1197,515.1786,1206.8,513.9947,1216.6,514.4272,1226.4,515.0569,1236.2,514.5392,1246,514.625,1246.0682,514.625,1245.9681,523.9438,1246.1785,533.2625,1246.2391,542.5813,1246.5857,551.9,1246,561.2188,1246,561.8898,1236.2,561.898,1226.4,561.4734,1216.6,561.6823,1206.8,561.921,1197,560.4976,1187.2,561.8973,1177.4,560.9222,1167.6,561.7526,1157.8,560.7237,1148,561.1503,1138.2,561.9604,1128.4,561.17,1118.6,561.3241,1108.8,561.5574,1099,561.2188,1099.4162,561.2188,1098.9961,551.9,1099.2872,542.5813,1098.4276,533.2625,1099.2844,523.9438,1099,514.625" style="stroke:#383838;stroke-width:1.5;"/><text fill="#000000" font-family="FG Virgil" font-size="14" font-style="italic" lengthAdjust="spacing" textLength="68" x="1138.5" y="534.6201">«factory»</text><text fill="#000000" font-family="FG Virgil" font-size="14" lengthAdjust="spacing" textLength="133" x="1106" y="550.917">RepositoryFactory</text><polygon fill="#F8F8F8" points="1256,36.7031,1256,36.9133,1266.2,36.2888,1276.4,36.8964,1286.6,37.1028,1296.8,35.9897,1307,36.6254,1317.2,36.2766,1327.4,36.3196,1337.6,36.635,1347.8,36.0118,1358,36.7031,1358.5536,36.7031,1357.3697,46.0219,1357.8022,55.3406,1358.4319,64.6594,1357.9142,73.9781,1358,83.2969,1358,83.3651,1347.8,83.2649,1337.6,83.4754,1327.4,83.536,1317.2,83.8826,1307,83.9679,1296.8,83.9761,1286.6,83.5515,1276.4,83.7605,1266.2,83.9991,1256,83.2969,1255.2788,83.2969,1256.6785,73.9781,1255.7035,64.6594,1256.5338,55.3406,1255.505,46.0219,1256,36.7031" style="stroke:#383838;stroke-width:1.5;"/><text fill="#000000" font-family="FG Virgil" font-size="14" font-style="italic" lengthAdjust="spacing" textLength="74" x="1270" y="56.6982">«Domain»</text><text fill="#000000" font-family="FG Virgil" font-size="14" lengthAdjust="spacing" textLength="88" x="1263" y="72.9951">Colaborador</text><polygon fill="#F8F8F8" points="1256,514.625,1256,514.8352,1266.2,514.2107,1276.4,514.8183,1286.6,515.0247,1296.8,513.9116,1307,514.5473,1317.2,514.1985,1327.4,514.2415,1337.6,514.5568,1347.8,513.9336,1358,514.625,1358.5536,514.625,1357.3697,523.9438,1357.8022,533.2625,1358.4319,542.5813,1357.9142,551.9,1358,561.2188,1358,561.287,1347.8,561.1868,1337.6,561.3973,1327.4,561.4579,1317.2,561.8044,1307,561.8898,1296.8,561.898,1286.6,561.4734,1276.4,561.6823,1266.2,561.921,1256,561.2188,1255.2788,561.2188,1256.6785,551.9,1255.7035,542.5813,1256.5338,533.2625,1255.505,523.9438,1256,514.625" style="stroke:#383838;stroke-width:1.5;"/><text fill="#000000" font-family="FG Virgil" font-size="14" font-style="italic" lengthAdjust="spacing" textLength="74" x="1270" y="534.6201">«Domain»</text><text fill="#000000" font-family="FG Virgil" font-size="14" lengthAdjust="spacing" textLength="88" x="1263" y="550.917">Colaborador</text><polygon fill="#F8F8F8" points="1368,36.7031,1368,36.9133,1377.8333,36.2888,1387.6667,36.8964,1397.5,37.1028,1407.3333,35.9897,1417.1667,36.6254,1427,36.2766,1436.8333,36.3196,1446.6667,36.635,1456.5,36.0118,1466.3333,37.2568,1476.1667,36.0728,1486,36.7031,1485.8022,36.7031,1486.4319,46.0219,1485.9142,55.3406,1486.0682,64.6594,1485.9681,73.9781,1486,83.2969,1486,83.4754,1476.1667,83.536,1466.3333,83.8826,1456.5,83.9679,1446.6667,83.9761,1436.8333,83.5515,1427,83.7605,1417.1667,83.9991,1407.3333,82.5757,1397.5,83.9754,1387.6667,83.0004,1377.8333,83.8307,1368,83.2969,1367.505,83.2969,1367.9315,73.9781,1368.7416,64.6594,1367.9513,55.3406,1368.1053,46.0219,1368,36.7031" style="stroke:#383838;stroke-width:1.5;"/><text fill="#000000" font-family="FG Virgil" font-size="14" font-style="italic" lengthAdjust="spacing" textLength="74" x="1390" y="56.6982">«Domain»</text><text fill="#000000" font-family="FG Virgil" font-size="14" lengthAdjust="spacing" textLength="104" x="1375" y="72.9951">UserController</text><polygon fill="#F8F8F8" points="1368,514.625,1368,514.8352,1377.8333,514.2107,1387.6667,514.8183,1397.5,515.0247,1407.3333,513.9116,1417.1667,514.5473,1427,514.1985,1436.8333,514.2415,1446.6667,514.5568,1456.5,513.9336,1466.3333,515.1786,1476.1667,513.9947,1486,514.625,1485.8022,514.625,1486.4319,523.9438,1485.9142,533.2625,1486.0682,542.5813,1485.9681,551.9,1486,561.2188,1486,561.3973,1476.1667,561.4579,1466.3333,561.8044,1456.5,561.8898,1446.6667,561.898,1436.8333,561.4734,1427,561.6823,1417.1667,561.921,1407.3333,560.4976,1397.5,561.8973,1387.6667,560.9222,1377.8333,561.7526,1368,561.2188,1367.505,561.2188,1367.9315,551.9,1368.7416,542.5813,1367.9513,533.2625,1368.1053,523.9438,1368,514.625" style="stroke:#383838;stroke-width:1.5;"/><text fill="#000000" font-family="FG Virgil" font-size="14" font-style="italic" lengthAdjust="spacing" textLength="74" x="1390" y="534.6201">«Domain»</text><text fill="#000000" font-family="FG Virgil" font-size="14" lengthAdjust="spacing" textLength="104" x="1375" y="550.917">UserController</text><text fill="#000000" font-family="FG Virgil" font-size="14" font-style="italic" lengthAdjust="spacing" textLength="90" x="1534.5" y="64.6982">«repository»</text><text fill="#000000" font-family="FG Virgil" font-size="14" lengthAdjust="spacing" textLength="167" x="1496" y="80.9951">ColaboradorRepository</text><path d="M1564.5,15.7031 L1564.5,15.7031 L1564.5651,15.7701 L1566.1716,13.8211 L1568.1599,12.2647 L1570.0238,10.5805 L1571.479,8.4758 L1573.5,6.9531 L1573.4952,6.9189 L1575.2739,6.5154 L1577.0766,6.2843 L1578.8958,6.1731 L1580.6577,5.6488 L1582.5,5.7031 L1582.5,5.7031 L1582.5339,5.9468 L1584.2615,5.6757 L1586.0879,6.1161 L1587.9264,6.6433 L1589.6948,6.6654 L1591.5,6.9531 L1591.5211,6.9749 L1593.2901,8.6929 L1595.1553,10.51 L1596.9741,12.2793 L1598.8815,14.1398 L1600.5,15.7031 L1601.0965,15.7031 L1601.1038,20.9031 L1600.7263,26.1031 L1600.9121,31.3031 L1601.1242,36.5031 L1600.5,41.7031 L1600.5,41.7031 L1600.2766,41.4733 L1598.9102,43.6693 L1596.8081,45.1086 L1595.2654,47.1232 L1593.1466,48.5454 L1591.5,50.4531 L1591.4958,50.423 L1589.7453,51.0296 L1587.897,50.9317 L1586.1064,51.2495 L1584.3207,51.6022 L1582.5,51.7031 L1582.5,51.7031 L1582.5254,51.8864 L1580.6998,51.4514 L1578.9176,51.3296 L1577.065,50.7011 L1575.3174,50.8283 L1573.5,50.4531 L1573.6698,50.6278 L1571.8377,48.8448 L1570.0899,47.1485 L1567.9503,45.0492 L1566.0979,43.2453 L1564.5,41.7031 L1563.9476,41.7031 L1564.4477,36.5031 L1564.3253,31.3031 L1565.1057,26.1031 L1564.3447,20.9031 L1564.5,15.7031 " fill="#F8F8F8" style="stroke:#000000;stroke-width:1.5;"/><path d="M1564.5,15.7031 L1564.5,15.7031 L1564.5651,15.7701 L1566.1716,17.3211 L1568.1599,19.2647 L1570.0238,21.0805 L1571.479,22.4758 L1573.5,24.4531 L1573.4952,24.4189 L1575.2739,24.5154 L1577.0766,24.7843 L1578.8958,25.1731 L1580.6577,25.1488 L1582.5,25.7031 L1582.5,25.7031 L1582.5339,25.9468 L1584.2615,25.1757 L1586.0879,25.1161 L1587.9264,25.1433 L1589.6948,24.6654 L1591.5,24.4531 L1591.5211,24.4749 L1593.2901,22.6929 L1595.1553,21.01 L1596.9741,19.2793 L1598.8815,17.6398 L1600.5,15.7031 " fill="none" style="stroke:#000000;stroke-width:1.5;"/><text fill="#000000" font-family="FG Virgil" font-size="14" font-style="italic" lengthAdjust="spacing" textLength="90" x="1534.5" y="527.6201">«repository»</text><text fill="#000000" font-family="FG Virgil" font-size="14" lengthAdjust="spacing" textLength="167" x="1496" y="543.917">ColaboradorRepository</text><path d="M1564.5,557.2188 L1564.5,557.2188 L1564.5651,557.2857 L1566.1716,555.3367 L1568.1599,553.7803 L1570.0238,552.0961 L1571.479,549.9914 L1573.5,548.4688 L1573.4952,548.4345 L1575.2739,548.031 L1577.0766,547.7999 L1578.8958,547.6887 L1580.6577,547.1644 L1582.5,547.2188 L1582.5,547.2188 L1582.5339,547.4625 L1584.2615,547.1913 L1586.0879,547.6317 L1587.9264,548.1589 L1589.6948,548.181 L1591.5,548.4688 L1591.5211,548.4905 L1593.2901,550.2086 L1595.1553,552.0256 L1596.9741,553.795 L1598.8815,555.6554 L1600.5,557.2188 L1601.0965,557.2188 L1601.1038,562.4188 L1600.7263,567.6188 L1600.9121,572.8188 L1601.1242,578.0188 L1600.5,583.2188 L1600.5,583.2188 L1600.2766,582.9889 L1598.9102,585.185 L1596.8081,586.6243 L1595.2654,588.6389 L1593.1466,590.061 L1591.5,591.9688 L1591.4958,591.9386 L1589.7453,592.5452 L1587.897,592.4473 L1586.1064,592.7651 L1584.3207,593.1178 L1582.5,593.2188 L1582.5,593.2188 L1582.5254,593.402 L1580.6998,592.967 L1578.9176,592.8452 L1577.065,592.2168 L1575.3174,592.3439 L1573.5,591.9688 L1573.6698,592.1434 L1571.8377,590.3604 L1570.0899,588.6641 L1567.9503,586.5648 L1566.0979,584.7609 L1564.5,583.2188 L1563.9476,583.2188 L1564.4477,578.0188 L1564.3253,572.8188 L1565.1057,567.6188 L1564.3447,562.4188 L1564.5,557.2188 " fill="#F8F8F8" style="stroke:#000000;stroke-width:1.5;"/><path d="M1564.5,557.2188 L1564.5,557.2188 L1564.5651,557.2857 L1566.1716,558.8367 L1568.1599,560.7803 L1570.0238,562.5961 L1571.479,563.9914 L1573.5,565.9688 L1573.4952,565.9345 L1575.2739,566.031 L1577.0766,566.2999 L1578.8958,566.6887 L1580.6577,566.6644 L1582.5,567.2188 L1582.5,567.2188 L1582.5339,567.4625 L1584.2615,566.6913 L1586.0879,566.6317 L1587.9264,566.6589 L1589.6948,566.181 L1591.5,565.9688 L1591.5211,565.9905 L1593.2901,564.2086 L1595.1553,562.5256 L1596.9741,560.795 L1598.8815,559.1554 L1600.5,557.2188 " fill="none" style="stroke:#000000;stroke-width:1.5;"/><text fill="#000000" font-family="FG Virgil" font-size="14" font-style="italic" lengthAdjust="spacing" textLength="90" x="1679" y="64.6982">«repository»</text><text fill="#000000" font-family="FG Virgil" font-size="14" lengthAdjust="spacing" textLength="31" x="1708.5" y="80.9951">User</text><path d="M1709,15.7031 L1709,15.7031 L1709.0651,15.7701 L1710.6716,13.8211 L1712.6599,12.2647 L1714.5238,10.5805 L1715.979,8.4758 L1718,6.9531 L1717.9952,6.9189 L1719.7739,6.5154 L1721.5766,6.2843 L1723.3958,6.1731 L1725.1577,5.6488 L1727,5.7031 L1727,5.7031 L1727.0339,5.9468 L1728.7615,5.6757 L1730.5879,6.1161 L1732.4264,6.6433 L1734.1948,6.6654 L1736,6.9531 L1736.0211,6.9749 L1737.7901,8.6929 L1739.6553,10.51 L1741.4741,12.2793 L1743.3815,14.1398 L1745,15.7031 L1745.5965,15.7031 L1745.6038,20.9031 L1745.2263,26.1031 L1745.4121,31.3031 L1745.6242,36.5031 L1745,41.7031 L1745,41.7031 L1744.7766,41.4733 L1743.4102,43.6693 L1741.3081,45.1086 L1739.7654,47.1232 L1737.6466,48.5454 L1736,50.4531 L1735.9958,50.423 L1734.2453,51.0296 L1732.397,50.9317 L1730.6064,51.2495 L1728.8207,51.6022 L1727,51.7031 L1727,51.7031 L1727.0254,51.8864 L1725.1998,51.4514 L1723.4176,51.3296 L1721.565,50.7011 L1719.8174,50.8283 L1718,50.4531 L1718.1698,50.6278 L1716.3377,48.8448 L1714.5899,47.1485 L1712.4503,45.0492 L1710.5979,43.2453 L1709,41.7031 L1708.4476,41.7031 L1708.9477,36.5031 L1708.8253,31.3031 L1709.6057,26.1031 L1708.8447,20.9031 L1709,15.7031 " fill="#F8F8F8" style="stroke:#000000;stroke-width:1.5;"/><path d="M1709,15.7031 L1709,15.7031 L1709.0651,15.7701 L1710.6716,17.3211 L1712.6599,19.2647 L1714.5238,21.0805 L1715.979,22.4758 L1718,24.4531 L1717.9952,24.4189 L1719.7739,24.5154 L1721.5766,24.7843 L1723.3958,25.1731 L1725.1577,25.1488 L1727,25.7031 L1727,25.7031 L1727.0339,25.9468 L1728.7615,25.1757 L1730.5879,25.1161 L1732.4264,25.1433 L1734.1948,24.6654 L1736,24.4531 L1736.0211,24.4749 L1737.7901,22.6929 L1739.6553,21.01 L1741.4741,19.2793 L1743.3815,17.6398 L1745,15.7031 " fill="none" style="stroke:#000000;stroke-width:1.5;"/><text fill="#000000" font-family="FG Virgil" font-size="14" font-style="italic" lengthAdjust="spacing" textLength="90" x="1679" y="527.6201">«repository»</text><text fill="#000000" font-family="FG Virgil" font-size="14" lengthAdjust="spacing" textLength="31" x="1708.5" y="543.917">User</text><path d="M1709,557.2188 L1709,557.2188 L1709.0651,557.2857 L1710.6716,555.3367 L1712.6599,553.7803 L1714.5238,552.0961 L1715.979,549.9914 L1718,548.4688 L1717.9952,548.4345 L1719.7739,548.031 L1721.5766,547.7999 L1723.3958,547.6887 L1725.1577,547.1644 L1727,547.2188 L1727,547.2188 L1727.0339,547.4625 L1728.7615,547.1913 L1730.5879,547.6317 L1732.4264,548.1589 L1734.1948,548.181 L1736,548.4688 L1736.0211,548.4905 L1737.7901,550.2086 L1739.6553,552.0256 L1741.4741,553.795 L1743.3815,555.6554 L1745,557.2188 L1745.5965,557.2188 L1745.6038,562.4188 L1745.2263,567.6188 L1745.4121,572.8188 L1745.6242,578.0188 L1745,583.2188 L1745,583.2188 L1744.7766,582.9889 L1743.4102,585.185 L1741.3081,586.6243 L1739.7654,588.6389 L1737.6466,590.061 L1736,591.9688 L1735.9958,591.9386 L1734.2453,592.5452 L1732.397,592.4473 L1730.6064,592.7651 L1728.8207,593.1178 L1727,593.2188 L1727,593.2188 L1727.0254,593.402 L1725.1998,592.967 L1723.4176,592.8452 L1721.565,592.2168 L1719.8174,592.3439 L1718,591.9688 L1718.1698,592.1434 L1716.3377,590.3604 L1714.5899,588.6641 L1712.4503,586.5648 L1710.5979,584.7609 L1709,583.2188 L1708.4476,583.2188 L1708.9477,578.0188 L1708.8253,572.8188 L1709.6057,567.6188 L1708.8447,562.4188 L1709,557.2188 " fill="#F8F8F8" style="stroke:#000000;stroke-width:1.5;"/><path d="M1709,557.2188 L1709,557.2188 L1709.0651,557.2857 L1710.6716,558.8367 L1712.6599,560.7803 L1714.5238,562.5961 L1715.979,563.9914 L1718,565.9688 L1717.9952,565.9345 L1719.7739,566.031 L1721.5766,566.2999 L1723.3958,566.6887 L1725.1577,566.6644 L1727,567.2188 L1727,567.2188 L1727.0339,567.4625 L1728.7615,566.6913 L1730.5879,566.6317 L1732.4264,566.6589 L1734.1948,566.181 L1736,565.9688 L1736.0211,565.9905 L1737.7901,564.2086 L1739.6553,562.5256 L1741.4741,560.795 L1743.3815,559.1554 L1745,557.2188 " fill="none" style="stroke:#000000;stroke-width:1.5;"/><polygon fill="#FFFFFF" points="127.5,94.2969,127.5,94.3669,129.5,94.1588,131.5,94.3613,133.5,94.4301,135.5,94.0591,137.5,94.2969,137.4223,94.2969,137.0735,104.3801,137.1165,114.4633,137.4318,124.5465,136.8086,134.6297,138.0536,144.7129,136.8697,154.7961,137.3022,164.8793,137.9319,174.9625,137.4142,185.0457,137.5682,195.1289,137.4681,205.2121,137.6785,215.2953,137.7391,225.3785,138.0857,235.4617,138.1711,245.5449,138.1793,255.6281,137.7546,265.7113,137.9636,275.7945,138.2022,285.8777,136.7788,295.9609,138.1785,306.0441,137.2035,316.1273,138.0338,326.2105,137.005,336.2938,137.4315,346.377,138.2416,356.4602,137.4513,366.5434,137.6053,376.6266,137.8386,386.7098,137.9162,396.793,137.4961,406.8762,137.7872,416.9594,136.9276,427.0426,137.7844,437.1258,138.0482,447.209,137.9445,457.2922,138.113,467.3754,137.0169,477.4586,136.8478,487.5418,137.5,497.625,137.5,497.4179,135.5,497.6054,133.5,497.5595,131.5,497.8521,129.5,497.5668,127.5,497.625,127.1569,497.625,127.7283,487.5418,126.8332,477.4586,126.9809,467.3754,128.149,457.2922,127.9357,447.209,128.2345,437.1258,127.1782,427.0426,127.8192,416.9594,128.0904,406.8762,127.0276,396.793,127.4041,386.7098,127.626,376.6266,128.1518,366.5434,127.4958,356.4602,127.9626,346.377,126.9462,336.2938,126.8227,326.2105,128.0036,316.1273,126.7831,306.0441,128.009,295.9609,127.7066,285.8777,127.2321,275.7945,127.1462,265.7113,127.9588,255.6281,127.2007,245.5449,128.0919,235.4617,126.9473,225.3785,128.1174,215.2953,127.9843,205.2121,127.745,195.1289,127.5472,185.0457,128.2266,174.9625,128.1136,164.8793,127.6693,154.7961,127.7682,144.7129,127.3697,134.6297,128.2165,124.5465,127.6549,114.4633,127.6726,104.3801,127.5,94.2969" style="stroke:#383838;stroke-width:1.0;"/><polygon fill="#FFFFFF" points="362.5,115.4297,362.5,115.4997,364.5,115.2916,366.5,115.4941,368.5,115.5629,370.5,115.1919,372.5,115.4297,372.4223,115.4297,372.0735,125.4875,372.1165,135.5452,372.4318,145.603,371.8086,155.6608,373.0536,165.7185,371.8697,175.7763,372.3022,185.8341,372.9319,195.8919,372.4142,205.9496,372.5682,216.0074,372.4681,226.0652,372.6785,236.1229,372.7391,246.1807,373.0857,256.2385,373.1711,266.2963,373.1793,276.354,372.7546,286.4118,372.9636,296.4696,373.2022,306.5273,371.7788,316.5851,373.1785,326.6429,372.2035,336.7007,373.0338,346.7584,372.005,356.8162,372.4315,366.874,373.2416,376.9317,372.4513,386.9895,372.6053,397.0473,372.8386,407.1051,372.9162,417.1628,372.4961,427.2206,372.7872,437.2784,371.9276,447.3361,372.7844,457.3939,373.0482,467.4517,372.9445,477.5095,373.113,487.5672,372.5,497.625,372.5,497.464,370.5,497.4076,368.5,497.4179,366.5,497.6054,364.5,497.5595,362.5,497.625,363.1814,497.625,362.3253,487.5672,362.1569,477.5095,362.7283,467.4517,361.8332,457.3939,361.9809,447.3361,363.149,437.2784,362.9357,427.2206,363.2345,417.1628,362.1782,407.1051,362.8192,397.0473,363.0904,386.9895,362.0276,376.9317,362.4041,366.874,362.626,356.8162,363.1518,346.7584,362.4958,336.7007,362.9626,326.6429,361.9462,316.5851,361.8227,306.5273,363.0036,296.4696,361.7831,286.4118,363.009,276.354,362.7066,266.2963,362.2321,256.2385,362.1462,246.1807,362.9588,236.1229,362.2007,226.0652,363.0919,216.0074,361.9473,205.9496,363.1174,195.8919,362.9843,185.8341,362.745,175.7763,362.5472,165.7185,363.2266,155.6608,363.1136,145.603,362.6693,135.5452,362.7682,125.4875,362.5,115.4297" style="stroke:#383838;stroke-width:1.0;"/><polygon fill="#FFFFFF" points="597.5,144.5625,597.5,144.6326,599.5,144.4244,601.5,144.6269,603.5,144.6957,605.5,144.3247,607.5,144.5625,607.4223,144.5625,607.0735,154.65,607.1165,164.7375,607.4318,174.825,606.8086,184.9125,608.0536,195,606.8697,205.0875,607.3022,215.175,607.9319,225.2625,607.4142,235.35,607.5682,245.4375,607.4681,255.525,607.6785,265.6125,607.7391,275.7,608.0857,285.7875,608.1711,295.875,608.1793,305.9625,607.7546,316.05,607.9636,326.1375,608.2022,336.225,606.7788,346.3125,608.1785,356.4,607.2035,366.4875,608.0338,376.575,607.005,386.6625,607.4315,396.75,608.2416,406.8375,607.4513,416.925,607.6053,427.0125,607.8386,437.1,607.9162,447.1875,607.4961,457.275,607.7872,467.3625,606.9276,477.45,607.7844,487.5375,607.5,497.625,607.5,497.8077,605.5,497.7732,603.5,497.8293,601.5,497.464,599.5,497.4076,597.5,497.625,596.8786,497.625,597.4411,487.5375,597.3035,477.45,598.1814,467.3625,597.3253,457.275,597.1569,447.1875,597.7283,437.1,596.8332,427.0125,596.9809,416.925,598.149,406.8375,597.9357,396.75,598.2345,386.6625,597.1782,376.575,597.8192,366.4875,598.0904,356.4,597.0276,346.3125,597.4041,336.225,597.626,326.1375,598.1518,316.05,597.4958,305.9625,597.9626,295.875,596.9462,285.7875,596.8227,275.7,598.0036,265.6125,596.7831,255.525,598.009,245.4375,597.7066,235.35,597.2321,225.2625,597.1462,215.175,597.9588,205.0875,597.2007,195,598.0919,184.9125,596.9473,174.825,598.1174,164.7375,597.9843,154.65,597.5,144.5625" style="stroke:#383838;stroke-width:1.0;"/><polygon fill="#FFFFFF" points="826,173.6953,826,173.7654,828,173.5572,830,173.7597,832,173.8285,834,173.4575,836,173.6953,835.9741,173.6953,835.8578,179.6953,835.8722,185.6953,835.9773,191.6953,835.7695,197.6953,836,203.6953,836,203.8799,834,203.4852,832,203.6294,830,203.8393,828,203.6667,826,203.6953,826.0227,203.6953,825.9894,197.6953,826.0595,191.6953,826.0797,185.6953,826.1952,179.6953,826,173.6953" style="stroke:#383838;stroke-width:1.0;"/><polygon fill="#FFFFFF" points="1005.5,350.2266,1005.5,350.2966,1007.5,350.0885,1009.5,350.291,1011.5,350.3598,1013.5,349.9888,1015.5,350.2266,1015.4223,350.2266,1015.0735,360.0339,1015.1165,369.8411,1015.4318,379.6484,1014.8086,389.4557,1016.0536,399.263,1014.8697,409.0703,1015.3022,418.8776,1015.9319,428.6849,1015.5,438.4922,1015.5,438.4636,1013.5,438.5149,1011.5,438.4815,1009.5,438.5517,1007.5,438.5719,1005.5,438.4922,1006.0857,438.4922,1006.1711,428.6849,1006.1793,418.8776,1005.7546,409.0703,1005.9636,399.263,1006.2022,389.4557,1004.7788,379.6484,1006.1785,369.8411,1005.2035,360.0339,1005.5,350.2266" style="stroke:#383838;stroke-width:1.0;"/><polygon fill="#FFFFFF" points="1167.5,379.3594,1167.5,379.4294,1169.5,379.2213,1171.5,379.4238,1173.5,379.4926,1175.5,379.1216,1177.5,379.3594,1177.4223,379.3594,1177.0735,389.2148,1177.1165,399.0703,1177.4318,408.9258,1176.8086,418.7813,1178.0536,428.6367,1177.5,438.4922,1177.5,438.2821,1175.5,438.4263,1173.5,438.6362,1171.5,438.4636,1169.5,438.5149,1167.5,438.4922,1167.4681,438.4922,1167.6785,428.6367,1167.7391,418.7813,1168.0857,408.9258,1168.1711,399.0703,1168.1793,389.2148,1167.5,379.3594" style="stroke:#383838;stroke-width:1.0;"/><polygon fill="#FFFFFF" points="1302,291.0938,1302,291.1638,1304,290.9556,1306,291.1582,1308,291.227,1310,290.856,1312,291.0938,1311.9741,291.0938,1311.8578,297.0938,1311.8722,303.0938,1311.9773,309.0938,1311.7695,315.0938,1312,321.0938,1312,321.2783,1310,320.8837,1308,321.0278,1306,321.2377,1304,321.0652,1302,321.0938,1302.0227,321.0938,1301.9894,315.0938,1302.0595,309.0938,1302.0797,303.0938,1302.1952,297.0938,1302,291.0938" style="stroke:#383838;stroke-width:1.0;"/><polygon fill="#FFFFFF" points="1422,232.8281,1422,232.8982,1424,232.69,1426,232.8926,1428,232.9614,1430,232.5903,1432,232.8281,1431.9741,232.8281,1431.8578,238.6547,1431.8722,244.4813,1431.9773,250.3078,1431.7695,256.1344,1432,261.9609,1432,262.1455,1430,261.7508,1428,261.895,1426,262.1049,1424,261.9323,1422,261.9609,1422.0227,261.9609,1421.9894,256.1344,1422.0595,250.3078,1422.0797,244.4813,1422.1952,238.6547,1422,232.8281" style="stroke:#383838;stroke-width:1.0;"/><polygon fill="#FFFFFF" points="1577.5,408.4922,1577.5,408.5622,1579.5,408.3541,1581.5,408.5566,1583.5,408.6254,1585.5,408.2544,1587.5,408.4922,1587.4741,408.4922,1587.3578,414.4922,1587.3722,420.4922,1587.4773,426.4922,1587.2695,432.4922,1587.5,438.4922,1587.5,438.6767,1585.5,438.2821,1583.5,438.4263,1581.5,438.6362,1579.5,438.4636,1577.5,438.4922,1577.5227,438.4922,1577.4894,432.4922,1577.5595,426.4922,1577.5797,420.4922,1577.6952,414.4922,1577.5,408.4922" style="stroke:#383838;stroke-width:1.0;"/><polygon fill="#FFFFFF" points="1577.5,467.625,1577.5,467.6951,1579.5,467.4869,1581.5,467.6894,1583.5,467.7582,1585.5,467.3872,1587.5,467.625,1587.4741,467.625,1587.3578,473.625,1587.3722,479.625,1587.4773,485.625,1587.2695,491.625,1587.5,497.625,1587.5,497.8095,1585.5,497.4149,1583.5,497.5591,1581.5,497.769,1579.5,497.5964,1577.5,497.625,1577.5227,497.625,1577.4894,491.625,1577.5595,485.625,1577.5797,479.625,1577.6952,473.625,1577.5,467.625" style="stroke:#383838;stroke-width:1.0;"/><polygon fill="#383838" points="350.5,111.4297,350.526,111.4947,352.4487,112.1015,354.5239,113.0895,356.5495,113.9534,358.4117,114.4089,360.5,115.4297,360.4904,115.4056,358.4472,116.0977,356.4525,116.911,354.4916,117.8086,352.4144,118.4157,350.5,119.4297,350.6305,119.5602,351.1514,118.4811,352.0534,117.7831,353.0018,117.1315,353.6798,116.2095,354.5,115.4297,354.5161,115.4458,353.6925,114.6222,352.9421,113.8718,352.1564,113.0861,351.438,112.3677,350.5,111.4297" style="stroke:#383838;stroke-width:1.0;"/><path d="M137.5,115.4297 L137.5,115.7099 L147.4545,114.8773 L157.4091,115.6874 L167.3636,115.9626 L177.3182,114.4785 L187.2727,115.3261 L197.2273,114.861 L207.1818,114.9184 L217.1364,115.3388 L227.0909,114.5079 L237.0455,116.1679 L247,114.5893 L256.9545,115.166 L266.9091,116.0056 L276.8636,115.3153 L286.8182,115.5207 L296.7727,115.3871 L306.7273,115.6677 L316.6818,115.7485 L326.6364,116.2106 L336.5909,116.3244 L346.5455,116.3354 L356.5,115.4297 " fill="none" style="stroke:#383838;stroke-width:1.0;"/><text fill="#000000" font-family="FG Virgil" font-size="13" lengthAdjust="spacing" textLength="102" x="144.5" y="110.3638">Insere o ficheiro</text><polygon fill="#383838" points="585.5,140.5625,585.526,140.6275,587.4487,141.2343,589.5239,142.2223,591.5495,143.0862,593.4117,143.5417,595.5,144.5625,595.4904,144.5384,593.4472,145.2305,591.4525,146.0438,589.4916,146.9414,587.4144,147.5485,585.5,148.5625,585.6305,148.693,586.1514,147.6139,587.0534,146.9159,588.0018,146.2643,588.6798,145.3423,589.5,144.5625,589.5161,144.5786,588.6925,143.755,587.9421,143.0046,587.1564,142.2189,586.438,141.5005,585.5,140.5625" style="stroke:#383838;stroke-width:1.0;"/><path d="M372.5,144.5625 L372.5,144.8427 L382.4545,144.0101 L392.4091,144.8202 L402.3636,145.0954 L412.3182,143.6113 L422.2727,144.4589 L432.2273,143.9938 L442.1818,144.0512 L452.1364,144.4716 L462.0909,143.6407 L472.0455,145.3007 L482,143.7221 L491.9545,144.2988 L501.9091,145.1384 L511.8636,144.4481 L521.8182,144.6535 L531.7727,144.5199 L541.7273,144.8005 L551.6818,144.8813 L561.6364,145.3434 L571.5909,145.4572 L581.5455,145.4682 L591.5,144.5625 " fill="none" style="stroke:#383838;stroke-width:1.0;"/><text fill="#000000" font-family="FG Virgil" font-size="13" lengthAdjust="spacing" textLength="41" x="379.5" y="139.4966">create</text><polygon fill="#383838" points="814,169.6953,814.026,169.7604,815.9487,170.3671,818.0239,171.3551,820.0495,172.219,821.9117,172.6745,824,173.6953,823.9904,173.6713,821.9472,174.3633,819.9525,175.1766,817.9916,176.0742,815.9144,176.6813,814,177.6953,814.1305,177.8258,814.6514,176.7468,815.5534,176.0487,816.5018,175.3971,817.1798,174.4751,818,173.6953,818.0161,173.7114,817.1925,172.8878,816.4421,172.1374,815.6564,171.3517,814.938,170.6334,814,169.6953" style="stroke:#383838;stroke-width:1.0;"/><path d="M607.5,173.6953 L607.5,173.9756 L617.619,173.1429 L627.7381,173.953 L637.8571,174.2282 L647.9762,172.7441 L658.0952,173.5917 L668.2143,173.1267 L678.3333,173.184 L688.4524,173.6044 L698.5714,172.7735 L708.6905,174.4335 L718.8095,172.8549 L728.9286,173.4316 L739.0476,174.2712 L749.1667,173.5809 L759.2857,173.7863 L769.4048,173.6527 L779.5238,173.9333 L789.6429,174.0142 L799.7619,174.4762 L809.881,174.5901 L820,173.6953 " fill="none" style="stroke:#383838;stroke-width:1.0;"/><text fill="#000000" font-family="FG Virgil" font-size="13" lengthAdjust="spacing" textLength="67" x="614.5" y="168.6294">lerDados()</text><polygon fill="#383838" points="1410,228.8281,1410.026,228.8932,1411.9487,229.4999,1414.0239,230.4879,1416.0495,231.3518,1417.9117,231.8073,1420,232.8281,1419.9904,232.8041,1417.9472,233.4961,1415.9525,234.3094,1413.9916,235.207,1411.9144,235.8142,1410,236.8281,1410.1305,236.9586,1410.6514,235.8796,1411.5534,235.1815,1412.5018,234.5299,1413.1798,233.6079,1414,232.8281,1414.0161,232.8442,1413.1925,232.0206,1412.4421,231.2702,1411.6564,230.4845,1410.938,229.7662,1410,228.8281" style="stroke:#383838;stroke-width:1.0;"/><path d="M607.5,232.8281 L607.5,233.1084 L617.4815,232.2757 L627.463,233.0858 L637.4444,233.361 L647.4259,231.8769 L657.4074,232.7245 L667.3889,232.2595 L677.3704,232.3168 L687.3519,232.7372 L697.3333,231.9063 L707.3148,233.5663 L717.2963,231.9878 L727.2778,232.5644 L737.2593,233.4041 L747.2407,232.7138 L757.2222,232.9191 L767.2037,232.7855 L777.1852,233.0662 L787.1667,233.147 L797.1481,233.609 L807.1296,233.7229 L817.1111,233.7338 L827.0926,233.1676 L837.0741,233.4462 L847.0556,233.7644 L857.037,231.8665 L867.0185,233.7328 L877,232.4328 L886.9815,233.5399 L896.963,232.1681 L906.9444,232.7368 L916.9259,233.8169 L926.9074,232.7631 L936.8889,232.9685 L946.8704,233.2796 L956.8519,233.3831 L966.8333,232.8229 L976.8148,233.2111 L986.7963,232.0649 L996.7778,233.2073 L1006.7593,233.5591 L1016.7407,233.4208 L1026.7222,233.6455 L1036.7037,232.184 L1046.6852,231.9585 L1056.6667,231.9996 L1066.6481,232.7496 L1076.6296,232.5661 L1086.6111,233.7367 L1096.5926,232.5952 L1106.5741,232.3707 L1116.5556,233.1325 L1126.537,231.939 L1136.5185,232.136 L1146.5,233.6934 L1156.4815,233.409 L1166.463,233.8074 L1176.4444,232.3991 L1186.4259,233.2537 L1196.4074,233.6154 L1206.3889,232.1983 L1216.3704,232.7003 L1226.3519,232.9961 L1236.3333,233.6971 L1246.3148,232.8225 L1256.2963,233.4449 L1266.2778,232.0897 L1276.2593,231.9251 L1286.2407,233.4996 L1296.2222,231.8722 L1306.2037,233.5067 L1316.1852,233.1036 L1326.1667,232.4709 L1336.1481,232.3564 L1346.1296,233.4398 L1356.1111,232.429 L1366.0926,233.6173 L1376.0741,232.0911 L1386.0556,233.6514 L1396.037,233.4739 L1406.0185,233.1547 L1416,232.8281 " fill="none" style="stroke:#383838;stroke-width:1.0;"/><text fill="#000000" font-family="FG Virgil" font-size="13" lengthAdjust="spacing" textLength="434" x="614.5" y="227.7622">addUser(username, password, firstName, lastName, endereco, set)</text><polygon fill="#383838" points="1715,257.9609,1715.026,258.026,1716.9487,258.6327,1719.0239,259.6208,1721.0495,260.4846,1722.9117,260.9401,1725,261.9609,1724.9904,261.9369,1722.9472,262.6289,1720.9525,263.4422,1718.9916,264.3398,1716.9144,264.947,1715,265.9609,1715.1305,266.0914,1715.6514,265.0124,1716.5534,264.3143,1717.5018,263.6627,1718.1798,262.7407,1719,261.9609,1719.0161,261.977,1718.1925,261.1534,1717.4421,260.403,1716.6564,259.6173,1715.938,258.899,1715,257.9609" style="stroke:#383838;stroke-width:1.0;"/><path d="M1427,261.9609 L1427,262.2412 L1437.1379,261.4085 L1447.2759,262.2187 L1457.4138,262.4938 L1467.5517,261.0097 L1477.6897,261.8573 L1487.8276,261.3923 L1497.9655,261.4496 L1508.1034,261.8701 L1518.2414,261.0391 L1528.3793,262.6991 L1538.5172,261.1206 L1548.6552,261.6972 L1558.7931,262.5369 L1568.931,261.8466 L1579.069,262.0519 L1589.2069,261.9183 L1599.3448,262.199 L1609.4828,262.2798 L1619.6207,262.7419 L1629.7586,262.8557 L1639.8966,262.8666 L1650.0345,262.3004 L1660.1724,262.5791 L1670.3103,262.8972 L1680.4483,260.9994 L1690.5862,262.8656 L1700.7241,261.5656 L1710.8621,262.6727 L1721,261.9609 " fill="none" style="stroke:#383838;stroke-width:1.0;"/><text fill="#000000" font-family="FG Virgil" font-size="13" lengthAdjust="spacing" textLength="41" x="1434" y="256.895">save()</text><polygon fill="#383838" points="1290,287.0938,1290.026,287.1588,1291.9487,287.7655,1294.0239,288.7536,1296.0495,289.6174,1297.9117,290.073,1300,291.0938,1299.9904,291.0697,1297.9472,291.7618,1295.9525,292.5751,1293.9916,293.4727,1291.9144,294.0798,1290,295.0938,1290.1305,295.2242,1290.6514,294.1452,1291.5534,293.4471,1292.5018,292.7956,1293.1798,291.8735,1294,291.0938,1294.0161,291.1098,1293.1925,290.2862,1292.4421,289.5358,1291.6564,288.7501,1290.938,288.0318,1290,287.0938" style="stroke:#383838;stroke-width:1.0;"/><path d="M607.5,291.0938 L607.5,291.374 L617.4783,290.5413 L627.4565,291.3515 L637.4348,291.6267 L647.413,290.1426 L657.3913,290.9901 L667.3696,290.5251 L677.3478,290.5824 L687.3261,291.0029 L697.3043,290.1719 L707.2826,291.8319 L717.2609,290.2534 L727.2391,290.8301 L737.2174,291.6697 L747.1957,290.9794 L757.1739,291.1847 L767.1522,291.0512 L777.1304,291.3318 L787.1087,291.4126 L797.087,291.8747 L807.0652,291.9885 L817.0435,291.9994 L827.0217,291.4333 L837,291.7119 L846.9783,292.0301 L856.9565,290.1322 L866.9348,291.9984 L876.913,290.6984 L886.8913,291.8055 L896.8696,290.4337 L906.8478,291.0024 L916.8261,292.0826 L926.8043,291.0288 L936.7826,291.2342 L946.7609,291.5453 L956.7391,291.6487 L966.7174,291.0885 L976.6957,291.4767 L986.6739,290.3305 L996.6522,291.4729 L1006.6304,291.8247 L1016.6087,291.6865 L1026.587,291.9111 L1036.5652,290.4496 L1046.5435,290.2242 L1056.5217,290.2652 L1066.5,291.0152 L1076.4783,290.8317 L1086.4565,292.0023 L1096.4348,290.8608 L1106.413,290.6363 L1116.3913,291.3981 L1126.3696,290.2046 L1136.3478,290.4016 L1146.3261,291.959 L1156.3043,291.6746 L1166.2826,292.0731 L1176.2609,290.6647 L1186.2391,291.5193 L1196.2174,291.881 L1206.1957,290.4639 L1216.1739,290.9659 L1226.1522,291.2617 L1236.1304,291.9628 L1246.1087,291.0882 L1256.087,291.7105 L1266.0652,290.3554 L1276.0435,290.1907 L1286.0217,291.7652 L1296,291.0938 " fill="none" style="stroke:#383838;stroke-width:1.0;"/><text fill="#000000" font-family="FG Virgil" font-size="13" lengthAdjust="spacing" textLength="171" x="614.5" y="286.0278">colab = new Colaborador()</text><polygon fill="#383838" points="993.5,346.2266,993.526,346.2916,995.4487,346.8983,997.5239,347.8864,999.5495,348.7503,1001.4117,349.2058,1003.5,350.2266,1003.4904,350.2025,1001.4472,350.8946,999.4525,351.7079,997.4916,352.6055,995.4144,353.2126,993.5,354.2266,993.6305,354.3571,994.1514,353.278,995.0534,352.5799,996.0018,351.9284,996.6798,351.0063,997.5,350.2266,997.5161,350.2426,996.6925,349.419,995.9421,348.6686,995.1564,347.8829,994.438,347.1646,993.5,346.2266" style="stroke:#383838;stroke-width:1.0;"/><path d="M607.5,350.2266 L607.5,350.5068 L617.5513,349.6741 L627.6026,350.4843 L637.6538,350.7595 L647.7051,349.2754 L657.7564,350.1229 L667.8077,349.6579 L677.859,349.7152 L687.9103,350.1357 L697.9615,349.3047 L708.0128,350.9648 L718.0641,349.3862 L728.1154,349.9629 L738.1667,350.8025 L748.2179,350.1122 L758.2692,350.3175 L768.3205,350.184 L778.3718,350.4646 L788.4231,350.5454 L798.4744,351.0075 L808.5256,351.1213 L818.5769,351.1322 L828.6282,350.5661 L838.6795,350.8447 L848.7308,351.1629 L858.7821,349.265 L868.8333,351.1312 L878.8846,349.8312 L888.9359,350.9383 L898.9872,349.5665 L909.0385,350.1352 L919.0897,351.2154 L929.141,350.1616 L939.1923,350.367 L949.2436,350.6781 L959.2949,350.7815 L969.3462,350.2214 L979.3974,350.6095 L989.4487,349.4633 L999.5,350.2266 " fill="none" style="stroke:#383838;stroke-width:1.0;"/><text fill="#000000" font-family="FG Virgil" font-size="13" lengthAdjust="spacing" textLength="85" x="614.5" y="345.1606">repositories()</text><polygon fill="#383838" points="1155.5,375.3594,1155.526,375.4244,1157.4487,376.0311,1159.5239,377.0192,1161.5495,377.8831,1163.4117,378.3386,1165.5,379.3594,1165.4904,379.3353,1163.4472,380.0274,1161.4525,380.8407,1159.4916,381.7383,1157.4144,382.3454,1155.5,383.3594,1155.6305,383.4899,1156.1514,382.4108,1157.0534,381.7128,1158.0018,381.0612,1158.6798,380.1392,1159.5,379.3594,1159.5161,379.3755,1158.6925,378.5518,1157.9421,377.8015,1157.1564,377.0157,1156.438,376.2974,1155.5,375.3594" style="stroke:#383838;stroke-width:1.0;"/><path d="M1015.5,379.3594 L1015.5,379.6396 L1025.2333,378.8069 L1034.9667,379.6171 L1044.7,379.8923 L1054.4333,378.4082 L1064.1667,379.2558 L1073.9,378.7907 L1083.6333,378.848 L1093.3667,379.2685 L1103.1,378.4375 L1112.8333,380.0976 L1122.5667,378.519 L1132.3,379.0957 L1142.0333,379.9353 L1151.7667,379.245 L1161.5,379.3594 " fill="none" style="stroke:#383838;stroke-width:1.0;"/><text fill="#000000" font-family="FG Virgil" font-size="13" lengthAdjust="spacing" textLength="41" x="1022.5" y="374.2935">create</text><polygon fill="#383838" points="1565.5,404.4922,1565.526,404.5572,1567.4487,405.164,1569.5239,406.152,1571.5495,407.0159,1573.4117,407.4714,1575.5,408.4922,1575.4904,408.4681,1573.4472,409.1602,1571.4525,409.9735,1569.4916,410.8711,1567.4144,411.4782,1565.5,412.4922,1565.6305,412.6227,1566.1514,411.5436,1567.0534,410.8456,1568.0018,410.194,1568.6798,409.272,1569.5,408.4922,1569.5161,408.5083,1568.6925,407.6847,1567.9421,406.9343,1567.1564,406.1486,1566.438,405.4302,1565.5,404.4922" style="stroke:#383838;stroke-width:1.0;"/><path d="M1177.5,408.4922 L1177.5,408.7724 L1187.6026,407.9398 L1197.7051,408.7499 L1207.8077,409.0251 L1217.9103,407.541 L1228.0128,408.3886 L1238.1154,407.9235 L1248.2179,407.9809 L1258.3205,408.4013 L1268.4231,407.5704 L1278.5256,409.2304 L1288.6282,407.6518 L1298.7308,408.2285 L1308.8333,409.0681 L1318.9359,408.3778 L1329.0385,408.5832 L1339.141,408.4496 L1349.2436,408.7302 L1359.3462,408.811 L1369.4487,409.2731 L1379.5513,409.3869 L1389.6538,409.3979 L1399.7564,408.8317 L1409.859,409.1103 L1419.9615,409.4285 L1430.0641,407.5306 L1440.1667,409.3969 L1450.2692,408.0968 L1460.3718,409.2039 L1470.4744,407.8322 L1480.5769,408.4009 L1490.6795,409.481 L1500.7821,408.4272 L1510.8846,408.6326 L1520.9872,408.9437 L1531.0897,409.0472 L1541.1923,408.487 L1551.2949,408.8751 L1561.3974,407.729 L1571.5,408.4922 " fill="none" style="stroke:#383838;stroke-width:1.0;"/><text fill="#000000" font-family="FG Virgil" font-size="13" lengthAdjust="spacing" textLength="41" x="1184.5" y="403.4263">create</text><polygon fill="#383838" points="1565.5,463.625,1565.526,463.69,1567.4487,464.2968,1569.5239,465.2848,1571.5495,466.1487,1573.4117,466.6042,1575.5,467.625,1575.4904,467.6009,1573.4472,468.293,1571.4525,469.1063,1569.4916,470.0039,1567.4144,470.611,1565.5,471.625,1565.6305,471.7555,1566.1514,470.6764,1567.0534,469.9784,1568.0018,469.3268,1568.6798,468.4048,1569.5,467.625,1569.5161,467.6411,1568.6925,466.8175,1567.9421,466.0671,1567.1564,465.2814,1566.438,464.563,1565.5,463.625" style="stroke:#383838;stroke-width:1.0;"/><path d="M607.5,467.625 L607.5,467.9052 L617.5417,467.0726 L627.5833,467.8827 L637.625,468.1579 L647.6667,466.6738 L657.7083,467.5214 L667.75,467.0563 L677.7917,467.1137 L687.8333,467.5341 L697.875,466.7032 L707.9167,468.3632 L717.9583,466.7846 L728,467.3613 L738.0417,468.2009 L748.0833,467.5106 L758.125,467.716 L768.1667,467.5824 L778.2083,467.863 L788.25,467.9438 L798.2917,468.4059 L808.3333,468.5197 L818.375,468.5307 L828.4167,467.9645 L838.4583,468.2431 L848.5,468.5613 L858.5417,466.6634 L868.5833,468.5297 L878.625,467.2297 L888.6667,468.3367 L898.7083,466.965 L908.75,467.5337 L918.7917,468.6138 L928.8333,467.56 L938.875,467.7654 L948.9167,468.0765 L958.9583,468.18 L969,467.6198 L979.0417,468.008 L989.0833,466.8618 L999.125,468.0042 L1009.1667,468.3559 L1019.2083,468.2177 L1029.25,468.4424 L1039.2917,466.9809 L1049.3333,466.7554 L1059.375,466.7965 L1069.4167,467.5465 L1079.4583,467.363 L1089.5,468.5335 L1099.5417,467.3921 L1109.5833,467.1676 L1119.625,467.9294 L1129.6667,466.7359 L1139.7083,466.9328 L1149.75,468.4903 L1159.7917,468.2059 L1169.8333,468.6043 L1179.875,467.1959 L1189.9167,468.0506 L1199.9583,468.4122 L1210,466.9951 L1220.0417,467.4972 L1230.0833,467.793 L1240.125,468.494 L1250.1667,467.6194 L1260.2083,468.2418 L1270.25,466.8866 L1280.2917,466.722 L1290.3333,468.2965 L1300.375,466.6691 L1310.4167,468.3036 L1320.4583,467.9005 L1330.5,467.2678 L1340.5417,467.1533 L1350.5833,468.2367 L1360.625,467.2259 L1370.6667,468.4141 L1380.7083,466.888 L1390.75,468.4482 L1400.7917,468.2707 L1410.8333,467.9516 L1420.875,467.688 L1430.9167,468.5938 L1440.9583,468.4431 L1451,467.8507 L1461.0417,467.9826 L1471.0833,467.4513 L1481.125,468.5803 L1491.1667,467.8315 L1501.2083,467.8551 L1511.25,466.8139 L1521.2917,467.0847 L1531.3333,468.3327 L1541.375,468.198 L1551.4167,467.5678 L1561.4583,467.1954 L1571.5,467.625 " fill="none" style="stroke:#383838;stroke-width:1.0;"/><text fill="#000000" font-family="FG Virgil" font-size="13" lengthAdjust="spacing" textLength="75" x="614.5" y="462.5591">save(colab)</text><!--MD5=[776b98b06551a0c656f86b5c9d22aafc]
@startuml
'http://plantuml.com/skinparam.html
skinparam handwritten true
skinparam monochrome true
skinparam packageStyle rect
skinparam defaultFontName FG Virgil
skinparam shadowing false

Actor "Responsavel de Recursos Humanos" as Actor
participant LerFicheiroColaboradorUI as UI <<presentation>>
participant LerFicheiroColaboradorController as Controller <<application>>
participant LerFicheiroColaborador as LerFicheiroColaborador <<utils>>
participant PersistenceContext as Persistence <<persistence>>
participant RepositoryFactory as Factory <<factory>>
participant Colaborador as Colaborador <<Domain>>
participant UserController as UserController <<Domain>>
database ColaboradorRepository as CRepository <<repository>>
database User as User <<repository>>


activate Actor
      Actor -> UI: Insere o ficheiro
    activate UI
      UI -> Controller: create
    activate Controller
      Controller -> LerFicheiroColaborador: lerDados()
    activate LerFicheiroColaborador
    deactivate
      Controller -> UserController: addUser(username, password, firstName, lastName, endereco, set)
    activate UserController
      UserController -> User : save()
    deactivate UserController
      Controller -> Colaborador: colab = new Colaborador()
    activate Colaborador
    deactivate Colaborador
      Controller -> Persistence: repositories()
    activate Persistence
      Persistence -> Factory: create
    activate Factory
      Factory -> CRepository: create
    activate CRepository
    deactivate CRepository
    deactivate Factory
    deactivate Persistence
      Controller -> CRepository: save(colab)
    activate CRepository
    deactivate CRepository
    deactivate LerFicheiroColaborador
    deactivate Controller
    deactivate UI

deactivate Actor
@enduml

@startuml
skinparam handwritten true
skinparam monochrome true
skinparam packageStyle rect
skinparam defaultFontName FG Virgil
skinparam shadowing false

Actor "Responsavel de Recursos Humanos" as Actor
participant LerFicheiroColaboradorUI as UI <<presentation>>
participant LerFicheiroColaboradorController as Controller <<application>>
participant LerFicheiroColaborador as LerFicheiroColaborador <<utils>>
participant PersistenceContext as Persistence <<persistence>>
participant RepositoryFactory as Factory <<factory>>
participant Colaborador as Colaborador <<Domain>>
participant UserController as UserController <<Domain>>
database ColaboradorRepository as CRepository <<repository>>
database User as User <<repository>>


activate Actor
      Actor -> UI: Insere o ficheiro
    activate UI
      UI -> Controller: create
    activate Controller
      Controller -> LerFicheiroColaborador: lerDados()
    activate LerFicheiroColaborador
    deactivate
      Controller -> UserController: addUser(username, password, firstName, lastName, endereco, set)
    activate UserController
      UserController -> User : save()
    deactivate UserController
      Controller -> Colaborador: colab = new Colaborador()
    activate Colaborador
    deactivate Colaborador
      Controller -> Persistence: repositories()
    activate Persistence
      Persistence -> Factory: create
    activate Factory
      Factory -> CRepository: create
    activate CRepository
    deactivate CRepository
    deactivate Factory
    deactivate Persistence
      Controller -> CRepository: save(colab)
    activate CRepository
    deactivate CRepository
    deactivate LerFicheiroColaborador
    deactivate Controller
    deactivate UI

deactivate Actor
@enduml

PlantUML version 1.2021.6beta6(Unknown compile time)
(GPL source distribution)
Java Runtime: Java(TM) SE Runtime Environment
JVM: Java HotSpot(TM) 64-Bit Server VM
Default Encoding: UTF-8
Language: en
Country: US
--></g></svg>