<?xml version="1.0" encoding="UTF-8" standalone="no"?><svg xmlns="http://www.w3.org/2000/svg" xmlns:xlink="http://www.w3.org/1999/xlink" contentScriptType="application/ecmascript" contentStyleType="text/css" height="1008px" preserveAspectRatio="none" style="width:2357px;height:1008px;background:#FFFFFF;" version="1.1" viewBox="0 0 2357 1008" width="2357px" zoomAndPan="magnify"><defs/><g><rect fill="#FFFFFF" height="805.0547" style="stroke:#A80036;stroke-width:1.0;" width="10" x="127.5" y="94.2969"/><rect fill="#FFFFFF" height="233.9297" style="stroke:#A80036;stroke-width:1.0;" width="10" x="416.5" y="115.4297"/><rect fill="#FFFFFF" height="520.8594" style="stroke:#A80036;stroke-width:1.0;" width="10" x="416.5" y="378.4922"/><rect fill="#FFFFFF" height="175.6641" style="stroke:#A80036;stroke-width:1.0;" width="10" x="1337.5" y="144.5625"/><rect fill="#FFFFFF" height="175.6641" style="stroke:#A80036;stroke-width:1.0;" width="10" x="1337.5" y="407.625"/><rect fill="#FFFFFF" height="59.1328" style="stroke:#A80036;stroke-width:1.0;" width="10" x="1337.5" y="636.5547"/><rect fill="#FFFFFF" height="172.5313" style="stroke:#A80036;stroke-width:1.0;" width="10" x="1337.5" y="726.8203"/><rect fill="#FFFFFF" height="88.2656" style="stroke:#A80036;stroke-width:1.0;" width="10" x="1553" y="173.6953"/><rect fill="#FFFFFF" height="88.2656" style="stroke:#A80036;stroke-width:1.0;" width="10" x="1553" y="436.7578"/><rect fill="#FFFFFF" height="59.1328" style="stroke:#A80036;stroke-width:1.0;" width="10" x="1715" y="202.8281"/><rect fill="#FFFFFF" height="59.1328" style="stroke:#A80036;stroke-width:1.0;" width="10" x="1715" y="465.8906"/><rect fill="#FFFFFF" height="30" style="stroke:#A80036;stroke-width:1.0;" width="10" x="1849.5" y="665.6875"/><rect fill="#FFFFFF" height="30" style="stroke:#A80036;stroke-width:1.0;" width="10" x="1849.5" y="755.9531"/><rect fill="#FFFFFF" height="88.2656" style="stroke:#A80036;stroke-width:1.0;" width="10" x="1978" y="231.9609"/><rect fill="#FFFFFF" height="59.1328" style="stroke:#A80036;stroke-width:1.0;" width="10" x="2275" y="495.0234"/><rect fill="#FFFFFF" height="195.6641" style="stroke:#000000;stroke-width:2.0;" width="1601" x="314.5" y="598.2891"/><rect fill="#FFFFFF" height="90.2656" style="stroke:none;stroke-width:1.0;" width="1601" x="314.5" y="703.6875"/><line style="stroke:#A80036;stroke-width:1.0;stroke-dasharray:5.0,5.0;" x1="132" x2="132" y1="84.2969" y2="924.3516"/><line style="stroke:#A80036;stroke-width:1.0;stroke-dasharray:5.0,5.0;" x1="421.5" x2="421.5" y1="84.2969" y2="924.3516"/><line style="stroke:#A80036;stroke-width:1.0;stroke-dasharray:5.0,5.0;" x1="1342.5" x2="1342.5" y1="84.2969" y2="924.3516"/><line style="stroke:#A80036;stroke-width:1.0;stroke-dasharray:5.0,5.0;" x1="1557.5" x2="1557.5" y1="84.2969" y2="924.3516"/><line style="stroke:#A80036;stroke-width:1.0;stroke-dasharray:5.0,5.0;" x1="1719.5" x2="1719.5" y1="84.2969" y2="924.3516"/><line style="stroke:#A80036;stroke-width:1.0;stroke-dasharray:5.0,5.0;" x1="1854.5" x2="1854.5" y1="84.2969" y2="924.3516"/><line style="stroke:#A80036;stroke-width:1.0;stroke-dasharray:5.0,5.0;" x1="1982.5" x2="1982.5" y1="84.2969" y2="924.3516"/><line style="stroke:#A80036;stroke-width:1.0;stroke-dasharray:5.0,5.0;" x1="2126.5" x2="2126.5" y1="84.2969" y2="924.3516"/><line style="stroke:#A80036;stroke-width:1.0;stroke-dasharray:5.0,5.0;" x1="2279.5" x2="2279.5" y1="84.2969" y2="924.3516"/><text fill="#000000" font-family="FG Virgil" font-size="14" lengthAdjust="spacing" textLength="249" x="5" y="80.9951">Responsavel de Recursos Humanos</text><ellipse cx="132.5" cy="15" fill="#FEFECE" rx="8" ry="8" style="stroke:#A80036;stroke-width:2.0;"/><path d="M132.5,23 L132.5,50 M119.5,31 L145.5,31 M132.5,50 L119.5,65 M132.5,50 L145.5,65 " fill="none" style="stroke:#A80036;stroke-width:2.0;"/><text fill="#000000" font-family="FG Virgil" font-size="14" lengthAdjust="spacing" textLength="249" x="5" y="936.3467">Responsavel de Recursos Humanos</text><ellipse cx="132.5" cy="949.6484" fill="#FEFECE" rx="8" ry="8" style="stroke:#A80036;stroke-width:2.0;"/><path d="M132.5,957.6484 L132.5,984.6484 M119.5,965.6484 L145.5,965.6484 M132.5,984.6484 L119.5,999.6484 M132.5,984.6484 L145.5,999.6484 " fill="none" style="stroke:#A80036;stroke-width:2.0;"/><rect fill="#FEFECE" height="46.5938" style="stroke:#A80036;stroke-width:1.5;" width="194" x="324.5" y="36.7031"/><text fill="#000000" font-family="FG Virgil" font-size="14" font-style="italic" lengthAdjust="spacing" textLength="108" x="367.5" y="56.6982">«presentation»</text><text fill="#000000" font-family="FG Virgil" font-size="14" lengthAdjust="spacing" textLength="180" x="331.5" y="72.9951">EspecificarColaboradorUI</text><rect fill="#FEFECE" height="46.5938" style="stroke:#A80036;stroke-width:1.5;" width="194" x="324.5" y="923.3516"/><text fill="#000000" font-family="FG Virgil" font-size="14" font-style="italic" lengthAdjust="spacing" textLength="108" x="367.5" y="943.3467">«presentation»</text><text fill="#000000" font-family="FG Virgil" font-size="14" lengthAdjust="spacing" textLength="180" x="331.5" y="959.6436">EspecificarColaboradorUI</text><rect fill="#FEFECE" height="46.5938" style="stroke:#A80036;stroke-width:1.5;" width="254" x="1215.5" y="36.7031"/><text fill="#000000" font-family="FG Virgil" font-size="14" font-style="italic" lengthAdjust="spacing" textLength="97" x="1294" y="56.6982">«application»</text><text fill="#000000" font-family="FG Virgil" font-size="14" lengthAdjust="spacing" textLength="240" x="1222.5" y="72.9951">EspecificarColaboradorController</text><rect fill="#FEFECE" height="46.5938" style="stroke:#A80036;stroke-width:1.5;" width="254" x="1215.5" y="923.3516"/><text fill="#000000" font-family="FG Virgil" font-size="14" font-style="italic" lengthAdjust="spacing" textLength="97" x="1294" y="943.3467">«application»</text><text fill="#000000" font-family="FG Virgil" font-size="14" lengthAdjust="spacing" textLength="240" x="1222.5" y="959.6436">EspecificarColaboradorController</text><rect fill="#FEFECE" height="46.5938" style="stroke:#A80036;stroke-width:1.5;" width="157" x="1479.5" y="36.7031"/><text fill="#000000" font-family="FG Virgil" font-size="14" font-style="italic" lengthAdjust="spacing" textLength="100" x="1508" y="56.6982">«persistence»</text><text fill="#000000" font-family="FG Virgil" font-size="14" lengthAdjust="spacing" textLength="143" x="1486.5" y="72.9951">PersistenceContext</text><rect fill="#FEFECE" height="46.5938" style="stroke:#A80036;stroke-width:1.5;" width="157" x="1479.5" y="923.3516"/><text fill="#000000" font-family="FG Virgil" font-size="14" font-style="italic" lengthAdjust="spacing" textLength="100" x="1508" y="943.3467">«persistence»</text><text fill="#000000" font-family="FG Virgil" font-size="14" lengthAdjust="spacing" textLength="143" x="1486.5" y="959.6436">PersistenceContext</text><rect fill="#FEFECE" height="46.5938" style="stroke:#A80036;stroke-width:1.5;" width="147" x="1646.5" y="36.7031"/><text fill="#000000" font-family="FG Virgil" font-size="14" font-style="italic" lengthAdjust="spacing" textLength="68" x="1686" y="56.6982">«factory»</text><text fill="#000000" font-family="FG Virgil" font-size="14" lengthAdjust="spacing" textLength="133" x="1653.5" y="72.9951">RepositoryFactory</text><rect fill="#FEFECE" height="46.5938" style="stroke:#A80036;stroke-width:1.5;" width="147" x="1646.5" y="923.3516"/><text fill="#000000" font-family="FG Virgil" font-size="14" font-style="italic" lengthAdjust="spacing" textLength="68" x="1686" y="943.3467">«factory»</text><text fill="#000000" font-family="FG Virgil" font-size="14" lengthAdjust="spacing" textLength="133" x="1653.5" y="959.6436">RepositoryFactory</text><rect fill="#FEFECE" height="46.5938" style="stroke:#A80036;stroke-width:1.5;" width="102" x="1803.5" y="36.7031"/><text fill="#000000" font-family="FG Virgil" font-size="14" font-style="italic" lengthAdjust="spacing" textLength="74" x="1817.5" y="56.6982">«Domain»</text><text fill="#000000" font-family="FG Virgil" font-size="14" lengthAdjust="spacing" textLength="88" x="1810.5" y="72.9951">Colaborador</text><rect fill="#FEFECE" height="46.5938" style="stroke:#A80036;stroke-width:1.5;" width="102" x="1803.5" y="923.3516"/><text fill="#000000" font-family="FG Virgil" font-size="14" font-style="italic" lengthAdjust="spacing" textLength="74" x="1817.5" y="943.3467">«Domain»</text><text fill="#000000" font-family="FG Virgil" font-size="14" lengthAdjust="spacing" textLength="88" x="1810.5" y="959.6436">Colaborador</text><text fill="#000000" font-family="FG Virgil" font-size="14" font-style="italic" lengthAdjust="spacing" textLength="90" x="1935" y="64.6982">«repository»</text><text fill="#000000" font-family="FG Virgil" font-size="14" lengthAdjust="spacing" textLength="129" x="1915.5" y="80.9951">FuncaoRepository</text><path d="M1965,15.7031 C1965,5.7031 1983,5.7031 1983,5.7031 C1983,5.7031 2001,5.7031 2001,15.7031 L2001,41.7031 C2001,51.7031 1983,51.7031 1983,51.7031 C1983,51.7031 1965,51.7031 1965,41.7031 L1965,15.7031 " fill="#FEFECE" style="stroke:#000000;stroke-width:1.5;"/><path d="M1965,15.7031 C1965,25.7031 1983,25.7031 1983,25.7031 C1983,25.7031 2001,25.7031 2001,15.7031 " fill="none" style="stroke:#000000;stroke-width:1.5;"/><text fill="#000000" font-family="FG Virgil" font-size="14" font-style="italic" lengthAdjust="spacing" textLength="90" x="1935" y="936.3467">«repository»</text><text fill="#000000" font-family="FG Virgil" font-size="14" lengthAdjust="spacing" textLength="129" x="1915.5" y="952.6436">FuncaoRepository</text><path d="M1965,965.9453 C1965,955.9453 1983,955.9453 1983,955.9453 C1983,955.9453 2001,955.9453 2001,965.9453 L2001,991.9453 C2001,1001.9453 1983,1001.9453 1983,1001.9453 C1983,1001.9453 1965,1001.9453 1965,991.9453 L1965,965.9453 " fill="#FEFECE" style="stroke:#000000;stroke-width:1.5;"/><path d="M1965,965.9453 C1965,975.9453 1983,975.9453 1983,975.9453 C1983,975.9453 2001,975.9453 2001,965.9453 " fill="none" style="stroke:#000000;stroke-width:1.5;"/><text fill="#000000" font-family="FG Virgil" font-size="14" font-style="italic" lengthAdjust="spacing" textLength="90" x="2079" y="64.6982">«repository»</text><text fill="#000000" font-family="FG Virgil" font-size="14" lengthAdjust="spacing" textLength="127" x="2060.5" y="80.9951">EquipaRepository</text><path d="M2109,15.7031 C2109,5.7031 2127,5.7031 2127,5.7031 C2127,5.7031 2145,5.7031 2145,15.7031 L2145,41.7031 C2145,51.7031 2127,51.7031 2127,51.7031 C2127,51.7031 2109,51.7031 2109,41.7031 L2109,15.7031 " fill="#FEFECE" style="stroke:#000000;stroke-width:1.5;"/><path d="M2109,15.7031 C2109,25.7031 2127,25.7031 2127,25.7031 C2127,25.7031 2145,25.7031 2145,15.7031 " fill="none" style="stroke:#000000;stroke-width:1.5;"/><text fill="#000000" font-family="FG Virgil" font-size="14" font-style="italic" lengthAdjust="spacing" textLength="90" x="2079" y="936.3467">«repository»</text><text fill="#000000" font-family="FG Virgil" font-size="14" lengthAdjust="spacing" textLength="127" x="2060.5" y="952.6436">EquipaRepository</text><path d="M2109,965.9453 C2109,955.9453 2127,955.9453 2127,955.9453 C2127,955.9453 2145,955.9453 2145,965.9453 L2145,991.9453 C2145,1001.9453 2127,1001.9453 2127,1001.9453 C2127,1001.9453 2109,1001.9453 2109,991.9453 L2109,965.9453 " fill="#FEFECE" style="stroke:#000000;stroke-width:1.5;"/><path d="M2109,965.9453 C2109,975.9453 2127,975.9453 2127,975.9453 C2127,975.9453 2145,975.9453 2145,965.9453 " fill="none" style="stroke:#000000;stroke-width:1.5;"/><text fill="#000000" font-family="FG Virgil" font-size="14" font-style="italic" lengthAdjust="spacing" textLength="90" x="2232" y="64.6982">«repository»</text><text fill="#000000" font-family="FG Virgil" font-size="14" lengthAdjust="spacing" textLength="147" x="2203.5" y="80.9951">UtilizadorRepository</text><path d="M2262,15.7031 C2262,5.7031 2280,5.7031 2280,5.7031 C2280,5.7031 2298,5.7031 2298,15.7031 L2298,41.7031 C2298,51.7031 2280,51.7031 2280,51.7031 C2280,51.7031 2262,51.7031 2262,41.7031 L2262,15.7031 " fill="#FEFECE" style="stroke:#000000;stroke-width:1.5;"/><path d="M2262,15.7031 C2262,25.7031 2280,25.7031 2280,25.7031 C2280,25.7031 2298,25.7031 2298,15.7031 " fill="none" style="stroke:#000000;stroke-width:1.5;"/><text fill="#000000" font-family="FG Virgil" font-size="14" font-style="italic" lengthAdjust="spacing" textLength="90" x="2232" y="936.3467">«repository»</text><text fill="#000000" font-family="FG Virgil" font-size="14" lengthAdjust="spacing" textLength="147" x="2203.5" y="952.6436">UtilizadorRepository</text><path d="M2262,965.9453 C2262,955.9453 2280,955.9453 2280,955.9453 C2280,955.9453 2298,955.9453 2298,965.9453 L2298,991.9453 C2298,1001.9453 2280,1001.9453 2280,1001.9453 C2280,1001.9453 2262,1001.9453 2262,991.9453 L2262,965.9453 " fill="#FEFECE" style="stroke:#000000;stroke-width:1.5;"/><path d="M2262,965.9453 C2262,975.9453 2280,975.9453 2280,975.9453 C2280,975.9453 2298,975.9453 2298,965.9453 " fill="none" style="stroke:#000000;stroke-width:1.5;"/><rect fill="#FFFFFF" height="805.0547" style="stroke:#A80036;stroke-width:1.0;" width="10" x="127.5" y="94.2969"/><rect fill="#FFFFFF" height="233.9297" style="stroke:#A80036;stroke-width:1.0;" width="10" x="416.5" y="115.4297"/><rect fill="#FFFFFF" height="520.8594" style="stroke:#A80036;stroke-width:1.0;" width="10" x="416.5" y="378.4922"/><rect fill="#FFFFFF" height="175.6641" style="stroke:#A80036;stroke-width:1.0;" width="10" x="1337.5" y="144.5625"/><rect fill="#FFFFFF" height="175.6641" style="stroke:#A80036;stroke-width:1.0;" width="10" x="1337.5" y="407.625"/><rect fill="#FFFFFF" height="59.1328" style="stroke:#A80036;stroke-width:1.0;" width="10" x="1337.5" y="636.5547"/><rect fill="#FFFFFF" height="172.5313" style="stroke:#A80036;stroke-width:1.0;" width="10" x="1337.5" y="726.8203"/><rect fill="#FFFFFF" height="88.2656" style="stroke:#A80036;stroke-width:1.0;" width="10" x="1553" y="173.6953"/><rect fill="#FFFFFF" height="88.2656" style="stroke:#A80036;stroke-width:1.0;" width="10" x="1553" y="436.7578"/><rect fill="#FFFFFF" height="59.1328" style="stroke:#A80036;stroke-width:1.0;" width="10" x="1715" y="202.8281"/><rect fill="#FFFFFF" height="59.1328" style="stroke:#A80036;stroke-width:1.0;" width="10" x="1715" y="465.8906"/><rect fill="#FFFFFF" height="30" style="stroke:#A80036;stroke-width:1.0;" width="10" x="1849.5" y="665.6875"/><rect fill="#FFFFFF" height="30" style="stroke:#A80036;stroke-width:1.0;" width="10" x="1849.5" y="755.9531"/><rect fill="#FFFFFF" height="88.2656" style="stroke:#A80036;stroke-width:1.0;" width="10" x="1978" y="231.9609"/><rect fill="#FFFFFF" height="59.1328" style="stroke:#A80036;stroke-width:1.0;" width="10" x="2275" y="495.0234"/><polygon fill="#A80036" points="404.5,111.4297,414.5,115.4297,404.5,119.4297,408.5,115.4297" style="stroke:#A80036;stroke-width:1.0;"/><line style="stroke:#A80036;stroke-width:1.0;" x1="137.5" x2="410.5" y1="115.4297" y2="115.4297"/><text fill="#000000" font-family="FG Virgil" font-size="13" lengthAdjust="spacing" textLength="260" x="144.5" y="110.3638">Insere os dados relativos ao colaborador</text><polygon fill="#A80036" points="1325.5,140.5625,1335.5,144.5625,1325.5,148.5625,1329.5,144.5625" style="stroke:#A80036;stroke-width:1.0;"/><line style="stroke:#A80036;stroke-width:1.0;" x1="426.5" x2="1331.5" y1="144.5625" y2="144.5625"/><text fill="#000000" font-family="FG Virgil" font-size="13" lengthAdjust="spacing" textLength="41" x="433.5" y="139.4966">create</text><polygon fill="#A80036" points="1541,169.6953,1551,173.6953,1541,177.6953,1545,173.6953" style="stroke:#A80036;stroke-width:1.0;"/><line style="stroke:#A80036;stroke-width:1.0;" x1="1347.5" x2="1547" y1="173.6953" y2="173.6953"/><text fill="#000000" font-family="FG Virgil" font-size="13" lengthAdjust="spacing" textLength="85" x="1354.5" y="168.6294">repositories()</text><polygon fill="#A80036" points="1703,198.8281,1713,202.8281,1703,206.8281,1707,202.8281" style="stroke:#A80036;stroke-width:1.0;"/><line style="stroke:#A80036;stroke-width:1.0;" x1="1563" x2="1709" y1="202.8281" y2="202.8281"/><text fill="#000000" font-family="FG Virgil" font-size="13" lengthAdjust="spacing" textLength="41" x="1570" y="197.7622">create</text><polygon fill="#A80036" points="1966,227.9609,1976,231.9609,1966,235.9609,1970,231.9609" style="stroke:#A80036;stroke-width:1.0;"/><line style="stroke:#A80036;stroke-width:1.0;" x1="1725" x2="1972" y1="231.9609" y2="231.9609"/><text fill="#000000" font-family="FG Virgil" font-size="13" lengthAdjust="spacing" textLength="41" x="1732" y="226.895">create</text><polygon fill="#A80036" points="1966,287.0938,1976,291.0938,1966,295.0938,1970,291.0938" style="stroke:#A80036;stroke-width:1.0;"/><line style="stroke:#A80036;stroke-width:1.0;" x1="1347.5" x2="1972" y1="291.0938" y2="291.0938"/><text fill="#000000" font-family="FG Virgil" font-size="13" lengthAdjust="spacing" textLength="84" x="1354.5" y="286.0278">getFuncoes()</text><polygon fill="#A80036" points="437.5,316.2266,427.5,320.2266,437.5,324.2266,433.5,320.2266" style="stroke:#A80036;stroke-width:1.0;"/><line style="stroke:#A80036;stroke-width:1.0;" x1="431.5" x2="1341.5" y1="320.2266" y2="320.2266"/><text fill="#000000" font-family="FG Virgil" font-size="13" lengthAdjust="spacing" textLength="71" x="443.5" y="315.1606">listFuncoes</text><polygon fill="#A80036" points="148.5,345.3594,138.5,349.3594,148.5,353.3594,144.5,349.3594" style="stroke:#A80036;stroke-width:1.0;"/><line style="stroke:#A80036;stroke-width:1.0;" x1="142.5" x2="420.5" y1="349.3594" y2="349.3594"/><text fill="#000000" font-family="FG Virgil" font-size="13" lengthAdjust="spacing" textLength="140" x="154.5" y="344.2935">Apresenta as funções</text><polygon fill="#A80036" points="404.5,374.4922,414.5,378.4922,404.5,382.4922,408.5,378.4922" style="stroke:#A80036;stroke-width:1.0;"/><line style="stroke:#A80036;stroke-width:1.0;" x1="137.5" x2="410.5" y1="378.4922" y2="378.4922"/><text fill="#000000" font-family="FG Virgil" font-size="13" lengthAdjust="spacing" textLength="142" x="144.5" y="373.4263">Seleciona uma função</text><polygon fill="#A80036" points="1325.5,403.625,1335.5,407.625,1325.5,411.625,1329.5,407.625" style="stroke:#A80036;stroke-width:1.0;"/><line style="stroke:#A80036;stroke-width:1.0;" x1="426.5" x2="1331.5" y1="407.625" y2="407.625"/><text fill="#000000" font-family="FG Virgil" font-size="13" lengthAdjust="spacing" textLength="154" x="433.5" y="402.5591">verificaSuperior(funcao)</text><polygon fill="#A80036" points="1541,432.7578,1551,436.7578,1541,440.7578,1545,436.7578" style="stroke:#A80036;stroke-width:1.0;"/><line style="stroke:#A80036;stroke-width:1.0;" x1="1347.5" x2="1547" y1="436.7578" y2="436.7578"/><text fill="#000000" font-family="FG Virgil" font-size="13" lengthAdjust="spacing" textLength="85" x="1354.5" y="431.6919">repositories()</text><polygon fill="#A80036" points="1703,461.8906,1713,465.8906,1703,469.8906,1707,465.8906" style="stroke:#A80036;stroke-width:1.0;"/><line style="stroke:#A80036;stroke-width:1.0;" x1="1563" x2="1709" y1="465.8906" y2="465.8906"/><text fill="#000000" font-family="FG Virgil" font-size="13" lengthAdjust="spacing" textLength="41" x="1570" y="460.8247">create</text><polygon fill="#A80036" points="2263,491.0234,2273,495.0234,2263,499.0234,2267,495.0234" style="stroke:#A80036;stroke-width:1.0;"/><line style="stroke:#A80036;stroke-width:1.0;" x1="1725" x2="2269" y1="495.0234" y2="495.0234"/><text fill="#000000" font-family="FG Virgil" font-size="13" lengthAdjust="spacing" textLength="41" x="1732" y="489.9575">create</text><polygon fill="#A80036" points="2268,550.1563,2278,554.1563,2268,558.1563,2272,554.1563" style="stroke:#A80036;stroke-width:1.0;"/><line style="stroke:#A80036;stroke-width:1.0;" x1="1347.5" x2="2274" y1="554.1563" y2="554.1563"/><text fill="#000000" font-family="FG Virgil" font-size="13" lengthAdjust="spacing" textLength="84" x="1354.5" y="549.0903">getSuperior()</text><polygon fill="#A80036" points="437.5,579.2891,427.5,583.2891,437.5,587.2891,433.5,583.2891" style="stroke:#A80036;stroke-width:1.0;"/><line style="stroke:#A80036;stroke-width:1.0;" x1="431.5" x2="1341.5" y1="583.2891" y2="583.2891"/><text fill="#000000" font-family="FG Virgil" font-size="13" lengthAdjust="spacing" textLength="52" x="443.5" y="578.2231">superior</text><path d="M314.5,598.2891 L380.5,598.2891 L380.5,605.2891 L370.5,615.2891 L314.5,615.2891 L314.5,598.2891 " fill="#EEEEEE" style="stroke:#000000;stroke-width:1.0;"/><rect fill="none" height="195.6641" style="stroke:#000000;stroke-width:2.0;" width="1601" x="314.5" y="598.2891"/><text fill="#000000" font-family="FG Virgil" font-size="13" font-weight="bold" lengthAdjust="spacing" textLength="21" x="329.5" y="611.356">alt</text><text fill="#000000" font-family="FG Virgil" font-size="11" font-weight="bold" lengthAdjust="spacing" textLength="135" x="395.5" y="610.4995">[se houver superior]</text><polygon fill="#A80036" points="1325.5,632.5547,1335.5,636.5547,1325.5,640.5547,1329.5,636.5547" style="stroke:#A80036;stroke-width:1.0;"/><line style="stroke:#A80036;stroke-width:1.0;" x1="426.5" x2="1331.5" y1="636.5547" y2="636.5547"/><text fill="#000000" font-family="FG Virgil" font-size="13" lengthAdjust="spacing" textLength="892" x="433.5" y="631.4888">novoColaborador(numMecanografico, nomeCurto, nomeCompleto, dataNascimento, localResidencia, endereco, contacto, funcao, superior)</text><polygon fill="#A80036" points="1837.5,661.6875,1847.5,665.6875,1837.5,669.6875,1841.5,665.6875" style="stroke:#A80036;stroke-width:1.0;"/><line style="stroke:#A80036;stroke-width:1.0;" x1="1347.5" x2="1843.5" y1="665.6875" y2="665.6875"/><text fill="#000000" font-family="FG Virgil" font-size="13" lengthAdjust="spacing" textLength="171" x="1354.5" y="660.6216">colab = new Colaborador()</text><line style="stroke:#000000;stroke-width:1.0;stroke-dasharray:2.0,2.0;" x1="314.5" x2="1915.5" y1="704.6875" y2="704.6875"/><polygon fill="#A80036" points="1325.5,722.8203,1335.5,726.8203,1325.5,730.8203,1329.5,726.8203" style="stroke:#A80036;stroke-width:1.0;"/><line style="stroke:#A80036;stroke-width:1.0;" x1="426.5" x2="1331.5" y1="726.8203" y2="726.8203"/><text fill="#000000" font-family="FG Virgil" font-size="13" lengthAdjust="spacing" textLength="832" x="433.5" y="721.7544">novoColaborador(numMecanografico, nomeCurto, nomeCompleto, dataNascimento, localResidencia, endereco, contacto, funcao)</text><polygon fill="#A80036" points="1837.5,751.9531,1847.5,755.9531,1837.5,759.9531,1841.5,755.9531" style="stroke:#A80036;stroke-width:1.0;"/><line style="stroke:#A80036;stroke-width:1.0;" x1="1347.5" x2="1843.5" y1="755.9531" y2="755.9531"/><text fill="#000000" font-family="FG Virgil" font-size="13" lengthAdjust="spacing" textLength="171" x="1354.5" y="750.8872">colab = new Colaborador()</text><polygon fill="#A80036" points="2268,818.0859,2278,822.0859,2268,826.0859,2272,822.0859" style="stroke:#A80036;stroke-width:1.0;"/><line style="stroke:#A80036;stroke-width:1.0;" x1="1347.5" x2="2274" y1="822.0859" y2="822.0859"/><text fill="#000000" font-family="FG Virgil" font-size="13" lengthAdjust="spacing" textLength="75" x="1354.5" y="817.02">save(colab)</text><line style="stroke:#A80036;stroke-width:1.0;" x1="1347.5" x2="1389.5" y1="851.2188" y2="851.2188"/><line style="stroke:#A80036;stroke-width:1.0;" x1="1389.5" x2="1389.5" y1="851.2188" y2="864.2188"/><line style="stroke:#A80036;stroke-width:1.0;" x1="1348.5" x2="1389.5" y1="864.2188" y2="864.2188"/><polygon fill="#A80036" points="1358.5,860.2188,1348.5,864.2188,1358.5,868.2188,1354.5,864.2188" style="stroke:#A80036;stroke-width:1.0;"/><text fill="#000000" font-family="FG Virgil" font-size="13" lengthAdjust="spacing" textLength="106" x="1354.5" y="846.1528">gerarPassword()</text><line style="stroke:#A80036;stroke-width:1.0;" x1="1347.5" x2="1389.5" y1="898.3516" y2="898.3516"/><line style="stroke:#A80036;stroke-width:1.0;" x1="1389.5" x2="1389.5" y1="898.3516" y2="911.3516"/><line style="stroke:#A80036;stroke-width:1.0;" x1="1342.5" x2="1389.5" y1="911.3516" y2="911.3516"/><polygon fill="#A80036" points="1352.5,907.3516,1342.5,911.3516,1352.5,915.3516,1348.5,911.3516" style="stroke:#A80036;stroke-width:1.0;"/><text fill="#000000" font-family="FG Virgil" font-size="13" lengthAdjust="spacing" textLength="163" x="1354.5" y="893.2856">enviarEmailColaborador()</text><!--MD5=[db04acf3fa806b45fc0d9ac6a7713915]
@startuml
skinparam defaultFontName FG Virgil
skinparam shadowing false

Actor "Responsavel de Recursos Humanos" as Actor
participant EspecificarColaboradorUI as UI <<presentation>>
participant EspecificarColaboradorController as Controller <<application>>
participant PersistenceContext as Persistence <<persistence>>
participant RepositoryFactory as Factory <<factory>>
participant Colaborador as Colaborador <<Domain>>
database FuncaoRepository as FRepository <<repository>>
database EquipaRepository as ERepository <<repository>>
database UtilizadorRepository as CRepository <<repository>>


activate Actor
      Actor -> UI: Insere os dados relativos ao colaborador
    activate UI
      UI -> Controller: create
    activate Controller
      Controller -> Persistence: repositories()
    activate Persistence
      Persistence -> Factory: create
    activate Factory
      Factory -> FRepository: create
    activate FRepository
    deactivate Factory
    deactivate Persistence
      Controller -> FRepository: getFuncoes()
      Controller -> UI: listFuncoes
    deactivate FRepository
    deactivate Controller
      UI -> Actor: Apresenta as funções
    deactivate UI
      Actor -> UI: Seleciona uma função
    activate UI
      UI -> Controller: verificaSuperior(funcao)
    activate Controller 
      Controller -> Persistence: repositories()
    activate Persistence
      Persistence -> Factory: create
    activate Factory
      Factory -> CRepository: create
    activate CRepository
    deactivate Factory
    deactivate Persistence
      Controller -> CRepository: getSuperior()
    deactivate CRepository
      Controller -> UI: superior
    deactivate Controller

    alt se houver superior
      UI -> Controller: novoColaborador(numMecanografico, nomeCurto, nomeCompleto, dataNascimento, localResidencia, endereco, contacto, funcao, superior)
    activate Controller
      Controller -> Colaborador: colab = new Colaborador()
    activate Colaborador
    deactivate Colaborador
    deactivate Controller
    else 
      UI -> Controller: novoColaborador(numMecanografico, nomeCurto, nomeCompleto, dataNascimento, localResidencia, endereco, contacto, funcao)
    activate Controller
      Controller -> Colaborador: colab = new Colaborador()
    activate Colaborador
    deactivate Colaborador
    end
    activate CRepository
      Controller -> CRepository: save(colab)
    deactivate CRepository
      Controller -> Controller: gerarPassword() 
      Controller -> Controller: enviarEmailColaborador()
    deactivate Controller
    deactivate UI

deactivate Actor
@enduml

PlantUML version 1.2021.6beta6(Unknown compile time)
(GPL source distribution)
Java Runtime: Java(TM) SE Runtime Environment
JVM: Java HotSpot(TM) 64-Bit Server VM
Default Encoding: UTF-8
Language: en
Country: US
--></g></svg>