<?xml version="1.0" encoding="UTF-8" standalone="no"?><svg xmlns="http://www.w3.org/2000/svg" xmlns:xlink="http://www.w3.org/1999/xlink" contentScriptType="application/ecmascript" contentStyleType="text/css" height="250px" preserveAspectRatio="none" style="width:288px;height:250px;background:#FFFFFF;" version="1.1" viewBox="0 0 288 250" width="288px" zoomAndPan="magnify"><defs><filter height="300%" id="f14l3moezycjic" width="300%" x="-1" y="-1"><feGaussianBlur result="blurOut" stdDeviation="2.0"/><feColorMatrix in="blurOut" result="blurOut2" type="matrix" values="0 0 0 0 0 0 0 0 0 0 0 0 0 0 0 0 0 0 .4 0"/><feOffset dx="4.0" dy="4.0" in="blurOut2" result="blurOut3"/><feBlend in="SourceGraphic" in2="blurOut3" mode="normal"/></filter></defs><g><rect fill="#FFFFFF" filter="url(#f14l3moezycjic)" height="29.1328" style="stroke:#A80036;stroke-width:1.0;" width="10" x="37" y="119.4297"/><rect fill="#FFFFFF" filter="url(#f14l3moezycjic)" height="29.1328" style="stroke:#A80036;stroke-width:1.0;" width="10" x="252" y="119.4297"/><line style="stroke:#A80036;stroke-width:1.0;stroke-dasharray:5.0,5.0;" x1="42" x2="42" y1="88.2969" y2="166.5625"/><line style="stroke:#A80036;stroke-width:1.0;stroke-dasharray:5.0,5.0;" x1="257" x2="257" y1="88.2969" y2="166.5625"/><text fill="#000000" font-family="sans-serif" font-size="14" lengthAdjust="spacing" textLength="68" x="5" y="84.9951">Utilizador</text><ellipse cx="42" cy="15" fill="#FEFECE" filter="url(#f14l3moezycjic)" rx="8" ry="8" style="stroke:#A80036;stroke-width:2.0;"/><path d="M42,23 L42,50 M29,31 L55,31 M42,50 L29,65 M42,50 L55,65 " fill="none" filter="url(#f14l3moezycjic)" style="stroke:#A80036;stroke-width:2.0;"/><text fill="#000000" font-family="sans-serif" font-size="14" lengthAdjust="spacing" textLength="68" x="5" y="178.5576">Utilizador</text><ellipse cx="42" cy="191.8594" fill="#FEFECE" filter="url(#f14l3moezycjic)" rx="8" ry="8" style="stroke:#A80036;stroke-width:2.0;"/><path d="M42,199.8594 L42,226.8594 M29,207.8594 L55,207.8594 M42,226.8594 L29,241.8594 M42,226.8594 L55,241.8594 " fill="none" filter="url(#f14l3moezycjic)" style="stroke:#A80036;stroke-width:2.0;"/><text fill="#000000" font-family="sans-serif" font-size="14" lengthAdjust="spacing" textLength="54" x="227" y="84.9951">System</text><ellipse cx="257" cy="15" fill="#FEFECE" filter="url(#f14l3moezycjic)" rx="8" ry="8" style="stroke:#A80036;stroke-width:2.0;"/><path d="M257,23 L257,50 M244,31 L270,31 M257,50 L244,65 M257,50 L270,65 " fill="none" filter="url(#f14l3moezycjic)" style="stroke:#A80036;stroke-width:2.0;"/><text fill="#000000" font-family="sans-serif" font-size="14" lengthAdjust="spacing" textLength="54" x="227" y="178.5576">System</text><ellipse cx="257" cy="191.8594" fill="#FEFECE" filter="url(#f14l3moezycjic)" rx="8" ry="8" style="stroke:#A80036;stroke-width:2.0;"/><path d="M257,199.8594 L257,226.8594 M244,207.8594 L270,207.8594 M257,226.8594 L244,241.8594 M257,226.8594 L270,241.8594 " fill="none" filter="url(#f14l3moezycjic)" style="stroke:#A80036;stroke-width:2.0;"/><rect fill="#FFFFFF" filter="url(#f14l3moezycjic)" height="29.1328" style="stroke:#A80036;stroke-width:1.0;" width="10" x="37" y="119.4297"/><rect fill="#FFFFFF" filter="url(#f14l3moezycjic)" height="29.1328" style="stroke:#A80036;stroke-width:1.0;" width="10" x="252" y="119.4297"/><polygon fill="#A80036" points="240,115.4297,250,119.4297,240,123.4297,244,119.4297" style="stroke:#A80036;stroke-width:1.0;"/><line style="stroke:#A80036;stroke-width:1.0;" x1="47" x2="246" y1="119.4297" y2="119.4297"/><text fill="#000000" font-family="sans-serif" font-size="13" lengthAdjust="spacing" textLength="81" x="54" y="114.3638">Autentica-se</text><polygon fill="#A80036" points="53,144.5625,43,148.5625,53,152.5625,49,148.5625" style="stroke:#A80036;stroke-width:1.0;"/><line style="stroke:#A80036;stroke-width:1.0;" x1="47" x2="256" y1="148.5625" y2="148.5625"/><text fill="#000000" font-family="sans-serif" font-size="13" lengthAdjust="spacing" textLength="181" x="59" y="143.4966">Apresentação do dashboard</text><!--MD5=[7c7ecd07613205906f329ef62dacf9ce]
@startuml
actor Utilizador as act
actor System as sys

act->sys: Autentica-se
activate act
activate sys
sys->act : Apresentação do dashboard
deactivate sys
deactivate act
@enduml

PlantUML version 1.2021.6beta6(Unknown compile time)
(GPL source distribution)
Java Runtime: Java(TM) SE Runtime Environment
JVM: Java HotSpot(TM) 64-Bit Server VM
Default Encoding: UTF-8
Language: en
Country: US
--></g></svg>