<?xml version="1.0" encoding="UTF-8" standalone="no"?><svg xmlns="http://www.w3.org/2000/svg" xmlns:xlink="http://www.w3.org/1999/xlink" contentScriptType="application/ecmascript" contentStyleType="text/css" height="714px" preserveAspectRatio="none" style="width:391px;height:714px;background:#FFFFFF;" version="1.1" viewBox="0 0 391 714" width="391px" zoomAndPan="magnify"><defs/><g><!--MD5=[69b08e8bcc5a42edecca14b97daf548a]
class AtribuirGrauSatisfacaoUI--><polygon fill="#F8F8F8" points="97,7,97,7.2102,106.8333,6.5857,116.6667,7.1933,126.5,7.3997,136.3333,6.2866,146.1667,6.9223,156,6.5735,165.8333,6.6165,175.6667,6.9318,185.5,6.3086,195.3333,7.5536,205.1667,6.3697,215,6.8022,224.8333,7.4319,234.6667,6.9142,244.5,7.0682,254.3333,6.9681,264.1667,7.1785,274,7,274.2391,7,274.5857,16.5346,274.6711,26.0692,274.6793,35.6038,274.2546,45.1384,274.4636,54.673,274.7022,64.2076,274,73.7422,274,73.021,264.1667,74.4207,254.3333,73.4457,244.5,74.276,234.6667,73.2472,224.8333,73.6737,215,74.4838,205.1667,73.6935,195.3333,73.8475,185.5,74.0808,175.6667,74.1584,165.8333,73.7383,156,74.0294,146.1667,73.1698,136.3333,74.0266,126.5,74.2904,116.6667,74.1867,106.8333,74.3552,97,73.7422,96.5169,73.7422,96.3478,64.2076,96.3786,54.673,96.9411,45.1384,96.8035,35.6038,97.6814,26.0692,96.8253,16.5346,97,7" style="stroke:#383838;stroke-width:1.5;"/><polygon fill="#C2C2C2" points="123.0608,28.6444,121.4484,30.8475,119.5412,34.0745,116.8136,36.2491,113.9474,37.4384,111.662,37.5416,108.7247,36.0543,105.9532,35.0827,103.8495,33.1099,102.7461,30.8515,102.0917,29.0533,101.4506,26.7045,100.41,24.6832,101.2096,22.7098,101.9102,20.548,104.5393,18.8382,106.389,16.6198,108.6784,15.8832,111.4001,15.2488,114.8904,15.6257,116.8021,16.5273,119.0247,16.9359,121.7272,19.7047,122.6693,22.6277,123.0786,24.6221,122.615,27.9086" style="stroke:#383838;stroke-width:1.0;"/><path d="M114.3438,21.6406 C113.4063,21.2031 112.8125,21.0625 111.9375,21.0625 C109.3125,21.0625 107.3125,23.1406 107.3125,25.8594 L107.3125,26.9844 C107.3125,29.5625 109.4219,31.4531 112.3125,31.4531 C113.5313,31.4531 114.6875,31.1563 115.4375,30.6094 C116.0156,30.2031 116.3438,29.75 116.3438,29.3594 C116.3438,28.9063 115.9531,28.5156 115.4844,28.5156 C115.2656,28.5156 115.0625,28.5938 114.875,28.7813 C114.4219,29.2656 114.4219,29.2656 114.2344,29.3594 C113.8125,29.625 113.125,29.75 112.3594,29.75 C110.3125,29.75 109.0156,28.6563 109.0156,26.9531 L109.0156,25.8594 C109.0156,24.0781 110.2656,22.7656 112,22.7656 C112.5781,22.7656 113.1875,22.9219 113.6563,23.1719 C114.1406,23.4531 114.3125,23.6719 114.4063,24.0781 C114.4688,24.4844 114.5,24.6094 114.6406,24.7344 C114.7813,24.875 115.0156,24.9844 115.2344,24.9844 C115.5,24.9844 115.7656,24.8438 115.9375,24.625 C116.0469,24.4688 116.0781,24.2813 116.0781,23.8594 L116.0781,22.4375 C116.0781,22 116.0625,21.875 115.9688,21.7188 C115.8125,21.4531 115.5313,21.3125 115.2344,21.3125 C114.9375,21.3125 114.7344,21.4063 114.5156,21.7188 L114.3438,21.6406 Z " fill="#000000"/><text fill="#000000" font-family="FG Virgil" font-size="12" font-style="italic" lengthAdjust="spacing" textLength="90" x="153.5" y="23.1387">«presentation»</text><text fill="#000000" font-family="FG Virgil" font-size="12" lengthAdjust="spacing" textLength="145" x="126" y="37.1074">AtribuirGrauSatisfacaoUI</text><path d="M98,44.9375 L98,45.2177 L107.7222,44.3851 L117.4444,45.1952 L127.1667,45.4704 L136.8889,43.9863 L146.6111,44.8339 L156.3333,44.3688 L166.0556,44.4262 L175.7778,44.8466 L185.5,44.0157 L195.2222,45.6757 L204.9444,44.0971 L214.6667,44.6738 L224.3889,45.5134 L234.1111,44.8231 L243.8333,45.0285 L253.5556,44.8949 L263.2778,45.1755 L273,44.9375 " fill="#F8F8F8" style="stroke:#383838;stroke-width:1.5;"/><path d="M98,52.9375 L98,53.2177 L107.7222,52.3851 L117.4444,53.1952 L127.1667,53.4704 L136.8889,51.9863 L146.6111,52.8339 L156.3333,52.3688 L166.0556,52.4262 L175.7778,52.8466 L185.5,52.0157 L195.2222,53.6757 L204.9444,52.0971 L214.6667,52.6738 L224.3889,53.5134 L234.1111,52.8231 L243.8333,53.0285 L253.5556,52.8949 L263.2778,53.1755 L273,52.9375 " fill="#F8F8F8" style="stroke:#383838;stroke-width:1.5;"/><text fill="#000000" font-family="FG Virgil" font-size="11" lengthAdjust="spacing" textLength="53" x="103" y="67.1479">doShow()</text><!--MD5=[9a320152ae07d6b09f9265b8ad671f30]
class AtribuirGrauSatisfacaoController--><polygon fill="#F8F8F8" points="73.5,134,73.5,134.2102,83.6818,133.5857,93.8636,134.1933,104.0455,134.3997,114.2273,133.2866,124.4091,133.9223,134.5909,133.5735,144.7727,133.6165,154.9545,133.9318,165.1364,133.3086,175.3182,134.5536,185.5,133.3697,195.6818,133.8022,205.8636,134.4319,216.0455,133.9142,226.2273,134.0682,236.4091,133.9681,246.5909,134.1785,256.7727,134.2391,266.9545,134.5857,277.1364,134.6711,287.3182,134.6793,297.5,134,297.7546,134,297.9636,144.2613,298.2022,154.5226,296.7788,164.7839,298.1785,175.0451,297.2035,185.3064,298.0338,195.5677,297.005,205.829,297.4315,216.0903,297.5,226.3516,297.5,227.0932,287.3182,226.3028,277.1364,226.4569,266.9545,226.6902,256.7727,226.7678,246.5909,226.3477,236.4091,226.6388,226.2273,225.7791,216.0455,226.6359,205.8636,226.8998,195.6818,226.7961,185.5,226.9646,175.3182,225.8685,165.1364,225.6994,154.9545,225.7302,144.7727,226.2927,134.5909,226.155,124.4091,227.033,114.2273,226.1769,104.0455,226.0085,93.8636,226.5798,83.6818,225.6847,73.5,226.3516,72.9809,226.3516,74.149,216.0903,73.9357,205.829,74.2345,195.5677,73.1782,185.3064,73.8192,175.0451,74.0904,164.7839,73.0276,154.5226,73.4041,144.2613,73.5,134" style="stroke:#383838;stroke-width:1.5;"/><polygon fill="#C2C2C2" points="99.5608,155.6444,97.9484,157.8475,96.0412,161.0745,93.3136,163.2491,90.4474,164.4384,88.162,164.5416,85.2247,163.0543,82.4532,162.0827,80.3495,160.1099,79.2461,157.8515,78.5917,156.0533,77.9506,153.7045,76.91,151.6832,77.7096,149.7098,78.4102,147.548,81.0393,145.8382,82.889,143.6198,85.1784,142.8832,87.9001,142.2488,91.3904,142.6257,93.3021,143.5273,95.5247,143.9359,98.2272,146.7047,99.1693,149.6277,99.5786,151.6221,99.115,154.9086" style="stroke:#383838;stroke-width:1.0;"/><path d="M90.8438,148.6406 C89.9063,148.2031 89.3125,148.0625 88.4375,148.0625 C85.8125,148.0625 83.8125,150.1406 83.8125,152.8594 L83.8125,153.9844 C83.8125,156.5625 85.9219,158.4531 88.8125,158.4531 C90.0313,158.4531 91.1875,158.1563 91.9375,157.6094 C92.5156,157.2031 92.8438,156.75 92.8438,156.3594 C92.8438,155.9063 92.4531,155.5156 91.9844,155.5156 C91.7656,155.5156 91.5625,155.5938 91.375,155.7813 C90.9219,156.2656 90.9219,156.2656 90.7344,156.3594 C90.3125,156.625 89.625,156.75 88.8594,156.75 C86.8125,156.75 85.5156,155.6563 85.5156,153.9531 L85.5156,152.8594 C85.5156,151.0781 86.7656,149.7656 88.5,149.7656 C89.0781,149.7656 89.6875,149.9219 90.1563,150.1719 C90.6406,150.4531 90.8125,150.6719 90.9063,151.0781 C90.9688,151.4844 91,151.6094 91.1406,151.7344 C91.2813,151.875 91.5156,151.9844 91.7344,151.9844 C92,151.9844 92.2656,151.8438 92.4375,151.625 C92.5469,151.4688 92.5781,151.2813 92.5781,150.8594 L92.5781,149.4375 C92.5781,149 92.5625,148.875 92.4688,148.7188 C92.3125,148.4531 92.0313,148.3125 91.7344,148.3125 C91.4375,148.3125 91.2344,148.4063 91.0156,148.7188 L90.8438,148.6406 Z " fill="#000000"/><text fill="#000000" font-family="FG Virgil" font-size="12" font-style="italic" lengthAdjust="spacing" textLength="80" x="158.5" y="150.1387">«application»</text><text fill="#000000" font-family="FG Virgil" font-size="12" lengthAdjust="spacing" textLength="192" x="102.5" y="164.1074">AtribuirGrauSatisfacaoController</text><path d="M74.5,171.9375 L74.5,172.2177 L84.5909,171.3851 L94.6818,172.1952 L104.7727,172.4704 L114.8636,170.9863 L124.9545,171.8339 L135.0455,171.3688 L145.1364,171.4262 L155.2273,171.8466 L165.3182,171.0157 L175.4091,172.6757 L185.5,171.0971 L195.5909,171.6738 L205.6818,172.5134 L215.7727,171.8231 L225.8636,172.0285 L235.9545,171.8949 L246.0455,172.1755 L256.1364,172.2563 L266.2273,172.7184 L276.3182,172.8322 L286.4091,172.8432 L296.5,171.9375 " fill="#F8F8F8" style="stroke:#383838;stroke-width:1.5;"/><path d="M74.5,179.9375 L74.5,180.2177 L84.5909,179.3851 L94.6818,180.1952 L104.7727,180.4704 L114.8636,178.9863 L124.9545,179.8339 L135.0455,179.3688 L145.1364,179.4262 L155.2273,179.8466 L165.3182,179.0157 L175.4091,180.6757 L185.5,179.0971 L195.5909,179.6738 L205.6818,180.5134 L215.7727,179.8231 L225.8636,180.0285 L235.9545,179.8949 L246.0455,180.1755 L256.1364,180.2563 L266.2273,180.7184 L276.3182,180.8322 L286.4091,180.8432 L296.5,179.9375 " fill="#F8F8F8" style="stroke:#383838;stroke-width:1.5;"/><text fill="#000000" font-family="FG Virgil" font-size="11" lengthAdjust="spacing" textLength="53" x="79.5" y="194.1479">getUser()</text><text fill="#000000" font-family="FG Virgil" font-size="11" lengthAdjust="spacing" textLength="144" x="79.5" y="206.9526">pedidosPendentes(colab)</text><text fill="#000000" font-family="FG Virgil" font-size="11" lengthAdjust="spacing" textLength="145" x="79.5" y="219.7573">atribuirGrau(pedido, grau)</text><!--MD5=[e8c189551b7885b999ad7cefb30fc2a3]
class PersistenceContext--><polygon fill="#F8F8F8" points="111.5,286,111.5,286.2102,121.3667,285.5857,131.2333,286.1933,141.1,286.3997,150.9667,285.2866,160.8333,285.9223,170.7,285.5735,180.5667,285.6165,190.4333,285.9318,200.3,285.3086,210.1667,286.5536,220.0333,285.3697,229.9,285.8022,239.7667,286.4319,249.6333,285.9142,259.5,286,259.5682,286,259.4681,296.7875,259.6785,307.575,259.7391,318.3625,260.0857,329.15,259.5,339.9375,259.5,340.6086,249.6333,340.6168,239.7667,340.1921,229.9,340.4011,220.0333,340.6397,210.1667,339.2163,200.3,340.616,190.4333,339.641,180.5667,340.4713,170.7,339.4425,160.8333,339.869,150.9667,340.6791,141.1,339.8888,131.2333,340.0428,121.3667,340.2761,111.5,339.9375,111.9162,339.9375,111.4961,329.15,111.7872,318.3625,110.9276,307.575,111.7844,296.7875,111.5,286" style="stroke:#383838;stroke-width:1.5;"/><polygon fill="#C2C2C2" points="137.5608,307.6444,135.9484,309.8475,134.0412,313.0745,131.3136,315.2491,128.4474,316.4384,126.162,316.5416,123.2247,315.0543,120.4532,314.0827,118.3495,312.1099,117.2461,309.8515,116.5917,308.0533,115.9506,305.7045,114.91,303.6832,115.7096,301.7098,116.4102,299.548,119.0393,297.8382,120.889,295.6198,123.1784,294.8832,125.9001,294.2488,129.3904,294.6257,131.3021,295.5273,133.5247,295.9359,136.2272,298.7047,137.1693,301.6277,137.5786,303.6221,137.115,306.9086" style="stroke:#383838;stroke-width:1.0;"/><path d="M128.8438,300.6406 C127.9063,300.2031 127.3125,300.0625 126.4375,300.0625 C123.8125,300.0625 121.8125,302.1406 121.8125,304.8594 L121.8125,305.9844 C121.8125,308.5625 123.9219,310.4531 126.8125,310.4531 C128.0313,310.4531 129.1875,310.1563 129.9375,309.6094 C130.5156,309.2031 130.8438,308.75 130.8438,308.3594 C130.8438,307.9063 130.4531,307.5156 129.9844,307.5156 C129.7656,307.5156 129.5625,307.5938 129.375,307.7813 C128.9219,308.2656 128.9219,308.2656 128.7344,308.3594 C128.3125,308.625 127.625,308.75 126.8594,308.75 C124.8125,308.75 123.5156,307.6563 123.5156,305.9531 L123.5156,304.8594 C123.5156,303.0781 124.7656,301.7656 126.5,301.7656 C127.0781,301.7656 127.6875,301.9219 128.1563,302.1719 C128.6406,302.4531 128.8125,302.6719 128.9063,303.0781 C128.9688,303.4844 129,303.6094 129.1406,303.7344 C129.2813,303.875 129.5156,303.9844 129.7344,303.9844 C130,303.9844 130.2656,303.8438 130.4375,303.625 C130.5469,303.4688 130.5781,303.2813 130.5781,302.8594 L130.5781,301.4375 C130.5781,301 130.5625,300.875 130.4688,300.7188 C130.3125,300.4531 130.0313,300.3125 129.7344,300.3125 C129.4375,300.3125 129.2344,300.4063 129.0156,300.7188 L128.8438,300.6406 Z " fill="#000000"/><text fill="#000000" font-family="FG Virgil" font-size="12" font-style="italic" lengthAdjust="spacing" textLength="83" x="157" y="302.1387">«persistence»</text><text fill="#000000" font-family="FG Virgil" font-size="12" lengthAdjust="spacing" textLength="116" x="140.5" y="316.1074">PersistenceContext</text><path d="M112.5,323.9375 L112.5,324.2177 L122.2333,323.3851 L131.9667,324.1952 L141.7,324.4704 L151.4333,322.9863 L161.1667,323.8339 L170.9,323.3688 L180.6333,323.4262 L190.3667,323.8466 L200.1,323.0157 L209.8333,324.6757 L219.5667,323.0971 L229.3,323.6738 L239.0333,324.5134 L248.7667,323.8231 L258.5,323.9375 " fill="#F8F8F8" style="stroke:#383838;stroke-width:1.5;"/><path d="M112.5,331.9375 L112.5,332.2177 L122.2333,331.3851 L131.9667,332.1952 L141.7,332.4704 L151.4333,330.9863 L161.1667,331.8339 L170.9,331.3688 L180.6333,331.4262 L190.3667,331.8466 L200.1,331.0157 L209.8333,332.6757 L219.5667,331.0971 L229.3,331.6738 L239.0333,332.5134 L248.7667,331.8231 L258.5,331.9375 " fill="#F8F8F8" style="stroke:#383838;stroke-width:1.5;"/><!--MD5=[48590afff58a68e2fcba47824d6f8a11]
class RepositoryFactory--><polygon fill="#F8F8F8" points="114.5,400,114.5,400.2102,124.6429,399.5857,134.7857,400.1933,144.9286,400.3997,155.0714,399.2866,165.2143,399.9223,175.3571,399.5735,185.5,399.6165,195.6429,399.9318,205.7857,399.3086,215.9286,400.5536,226.0714,399.3697,236.2143,399.8022,246.3571,400.4319,256.5,400,256.4142,400,256.5682,410.7875,256.4681,421.575,256.6785,432.3625,256.7391,443.15,256.5,453.9375,256.5,454.5232,246.3571,454.6086,236.2143,454.6168,226.0714,454.1921,215.9286,454.4011,205.7857,454.6397,195.6429,453.2163,185.5,454.616,175.3571,453.641,165.2143,454.4713,155.0714,453.4425,144.9286,453.869,134.7857,454.6791,124.6429,453.8888,114.5,453.9375,114.6053,453.9375,114.8386,443.15,114.9162,432.3625,114.4961,421.575,114.7872,410.7875,114.5,400" style="stroke:#383838;stroke-width:1.5;"/><polygon fill="#C2C2C2" points="140.5608,421.6444,138.9484,423.8475,137.0412,427.0745,134.3136,429.2491,131.4474,430.4384,129.162,430.5416,126.2247,429.0543,123.4532,428.0827,121.3495,426.1099,120.2461,423.8515,119.5917,422.0533,118.9506,419.7045,117.91,417.6832,118.7096,415.7098,119.4102,413.548,122.0393,411.8382,123.889,409.6198,126.1784,408.8832,128.9001,408.2488,132.3904,408.6257,134.3021,409.5273,136.5247,409.9359,139.2272,412.7047,140.1693,415.6277,140.5786,417.6221,140.115,420.9086" style="stroke:#383838;stroke-width:1.0;"/><path d="M131.8438,414.6406 C130.9063,414.2031 130.3125,414.0625 129.4375,414.0625 C126.8125,414.0625 124.8125,416.1406 124.8125,418.8594 L124.8125,419.9844 C124.8125,422.5625 126.9219,424.4531 129.8125,424.4531 C131.0313,424.4531 132.1875,424.1563 132.9375,423.6094 C133.5156,423.2031 133.8438,422.75 133.8438,422.3594 C133.8438,421.9063 133.4531,421.5156 132.9844,421.5156 C132.7656,421.5156 132.5625,421.5938 132.375,421.7813 C131.9219,422.2656 131.9219,422.2656 131.7344,422.3594 C131.3125,422.625 130.625,422.75 129.8594,422.75 C127.8125,422.75 126.5156,421.6563 126.5156,419.9531 L126.5156,418.8594 C126.5156,417.0781 127.7656,415.7656 129.5,415.7656 C130.0781,415.7656 130.6875,415.9219 131.1563,416.1719 C131.6406,416.4531 131.8125,416.6719 131.9063,417.0781 C131.9688,417.4844 132,417.6094 132.1406,417.7344 C132.2813,417.875 132.5156,417.9844 132.7344,417.9844 C133,417.9844 133.2656,417.8438 133.4375,417.625 C133.5469,417.4688 133.5781,417.2813 133.5781,416.8594 L133.5781,415.4375 C133.5781,415 133.5625,414.875 133.4688,414.7188 C133.3125,414.4531 133.0313,414.3125 132.7344,414.3125 C132.4375,414.3125 132.2344,414.4063 132.0156,414.7188 L131.8438,414.6406 Z " fill="#000000"/><text fill="#000000" font-family="FG Virgil" font-size="12" font-style="italic" lengthAdjust="spacing" textLength="56" x="170.5" y="416.1387">«factory»</text><text fill="#000000" font-family="FG Virgil" font-size="12" lengthAdjust="spacing" textLength="110" x="143.5" y="430.1074">RepositoryFactory</text><path d="M115.5,437.9375 L115.5,438.2177 L125.5,437.3851 L135.5,438.1952 L145.5,438.4704 L155.5,436.9863 L165.5,437.8339 L175.5,437.3688 L185.5,437.4262 L195.5,437.8466 L205.5,437.0157 L215.5,438.6757 L225.5,437.0971 L235.5,437.6738 L245.5,438.5134 L255.5,437.9375 " fill="#F8F8F8" style="stroke:#383838;stroke-width:1.5;"/><path d="M115.5,445.9375 L115.5,446.2177 L125.5,445.3851 L135.5,446.1952 L145.5,446.4704 L155.5,444.9863 L165.5,445.8339 L175.5,445.3688 L185.5,445.4262 L195.5,445.8466 L205.5,445.0157 L215.5,446.6757 L225.5,445.0971 L235.5,445.6738 L245.5,446.5134 L255.5,445.9375 " fill="#F8F8F8" style="stroke:#383838;stroke-width:1.5;"/><!--MD5=[9d9dca655b7d777fd61537967bcfba5b]
class PedidoRepository--><polygon fill="#F8F8F8" points="7.5,514,7.5,514.2102,17.25,513.5857,27,514.1933,36.75,514.3997,46.5,513.2866,56.25,513.9223,66,513.5735,75.75,513.6165,85.5,513.9318,95.25,513.3086,105,514.5536,114.75,513.3697,124.5,513.8022,134.25,514.4319,144,513.9142,153.75,514.0682,163.5,514,163.4681,514,163.6785,523.5346,163.7391,533.0692,164.0857,542.6038,164.1711,552.1384,164.1793,561.673,163.7546,571.2076,163.5,580.7422,163.5,581.2058,153.75,581.4444,144,580.021,134.25,581.4207,124.5,580.4457,114.75,581.276,105,580.2472,95.25,580.6737,85.5,581.4838,75.75,580.6935,66,580.8475,56.25,581.0808,46.5,581.1584,36.75,580.7383,27,581.0294,17.25,580.1698,7.5,580.7422,7.7844,580.7422,8.0482,571.2076,7.9445,561.673,8.113,552.1384,7.0169,542.6038,6.8478,533.0692,6.8786,523.5346,7.5,514" style="stroke:#383838;stroke-width:1.5;"/><polygon fill="#C2C2C2" points="41.6608,535.6444,40.0484,537.8475,38.1412,541.0745,35.4136,543.2491,32.5474,544.4384,30.262,544.5416,27.3247,543.0543,24.5532,542.0827,22.4495,540.1099,21.3461,537.8515,20.6917,536.0533,20.0506,533.7045,19.01,531.6832,19.8096,529.7098,20.5102,527.548,23.1393,525.8382,24.989,523.6198,27.2784,522.8832,30.0001,522.2488,33.4904,522.6257,35.4021,523.5273,37.6247,523.9359,40.3272,526.7047,41.2693,529.6277,41.6786,531.6221,41.215,534.9086" style="stroke:#383838;stroke-width:1.0;"/><path d="M32.9438,528.6406 C32.0063,528.2031 31.4125,528.0625 30.5375,528.0625 C27.9125,528.0625 25.9125,530.1406 25.9125,532.8594 L25.9125,533.9844 C25.9125,536.5625 28.0219,538.4531 30.9125,538.4531 C32.1313,538.4531 33.2875,538.1563 34.0375,537.6094 C34.6156,537.2031 34.9438,536.75 34.9438,536.3594 C34.9438,535.9063 34.5531,535.5156 34.0844,535.5156 C33.8656,535.5156 33.6625,535.5938 33.475,535.7813 C33.0219,536.2656 33.0219,536.2656 32.8344,536.3594 C32.4125,536.625 31.725,536.75 30.9594,536.75 C28.9125,536.75 27.6156,535.6563 27.6156,533.9531 L27.6156,532.8594 C27.6156,531.0781 28.8656,529.7656 30.6,529.7656 C31.1781,529.7656 31.7875,529.9219 32.2563,530.1719 C32.7406,530.4531 32.9125,530.6719 33.0063,531.0781 C33.0688,531.4844 33.1,531.6094 33.2406,531.7344 C33.3813,531.875 33.6156,531.9844 33.8344,531.9844 C34.1,531.9844 34.3656,531.8438 34.5375,531.625 C34.6469,531.4688 34.6781,531.2813 34.6781,530.8594 L34.6781,529.4375 C34.6781,529 34.6625,528.875 34.5688,528.7188 C34.4125,528.4531 34.1313,528.3125 33.8344,528.3125 C33.5375,528.3125 33.3344,528.4063 33.1156,528.7188 L32.9438,528.6406 Z " fill="#000000"/><text fill="#000000" font-family="FG Virgil" font-size="12" font-style="italic" lengthAdjust="spacing" textLength="74" x="62.4" y="530.1387">«repository»</text><text fill="#000000" font-family="FG Virgil" font-size="12" lengthAdjust="spacing" textLength="106" x="46.4" y="544.1074">PedidoRepository</text><path d="M8.5,551.9375 L8.5,552.2177 L18.7667,551.3851 L29.0333,552.1952 L39.3,552.4704 L49.5667,550.9863 L59.8333,551.8339 L70.1,551.3688 L80.3667,551.4262 L90.6333,551.8466 L100.9,551.0157 L111.1667,552.6757 L121.4333,551.0971 L131.7,551.6738 L141.9667,552.5134 L152.2333,551.8231 L162.5,551.9375 " fill="#F8F8F8" style="stroke:#383838;stroke-width:1.5;"/><path d="M8.5,559.9375 L8.5,560.2177 L18.7667,559.3851 L29.0333,560.1952 L39.3,560.4704 L49.5667,558.9863 L59.8333,559.8339 L70.1,559.3688 L80.3667,559.4262 L90.6333,559.8466 L100.9,559.0157 L111.1667,560.6757 L121.4333,559.0971 L131.7,559.6738 L141.9667,560.5134 L152.2333,559.8231 L162.5,559.9375 " fill="#F8F8F8" style="stroke:#383838;stroke-width:1.5;"/><text fill="#000000" font-family="FG Virgil" font-size="11" lengthAdjust="spacing" textLength="144" x="13.5" y="574.1479">pedidosPendentes(colab)</text><!--MD5=[9a0e8f7957502662f95e783c1c3d84fe]
class ColaboradorRepository--><polygon fill="#F8F8F8" points="212.5,514,212.5,514.2102,222.6176,513.5857,232.7353,514.1933,242.8529,514.3997,252.9706,513.2866,263.0882,513.9223,273.2059,513.5735,283.3235,513.6165,293.4412,513.9318,303.5588,513.3086,313.6765,514.5536,323.7941,513.3697,333.9118,513.8022,344.0294,514.4319,354.1471,513.9142,364.2647,514.0682,374.3824,513.9681,384.5,514,384.6785,514,384.7391,523.5346,385.0857,533.0692,385.1711,542.6038,385.1793,552.1384,384.7546,561.673,384.9636,571.2076,384.5,580.7422,384.5,581.4444,374.3824,580.021,364.2647,581.4207,354.1471,580.4457,344.0294,581.276,333.9118,580.2472,323.7941,580.6737,313.6765,581.4838,303.5588,580.6935,293.4412,580.8475,283.3235,581.0808,273.2059,581.1584,263.0882,580.7383,252.9706,581.0294,242.8529,580.1698,232.7353,581.0266,222.6176,581.2904,212.5,580.7422,212.9445,580.7422,213.113,571.2076,212.0169,561.673,211.8478,552.1384,211.8786,542.6038,212.4411,533.0692,212.3035,523.5346,212.5,514" style="stroke:#383838;stroke-width:1.5;"/><polygon fill="#C2C2C2" points="238.5608,535.6444,236.9484,537.8475,235.0412,541.0745,232.3136,543.2491,229.4474,544.4384,227.162,544.5416,224.2247,543.0543,221.4532,542.0827,219.3495,540.1099,218.2461,537.8515,217.5917,536.0533,216.9506,533.7045,215.91,531.6832,216.7096,529.7098,217.4102,527.548,220.0393,525.8382,221.889,523.6198,224.1784,522.8832,226.9001,522.2488,230.3904,522.6257,232.3021,523.5273,234.5247,523.9359,237.2272,526.7047,238.1693,529.6277,238.5786,531.6221,238.115,534.9086" style="stroke:#383838;stroke-width:1.0;"/><path d="M229.8438,528.6406 C228.9063,528.2031 228.3125,528.0625 227.4375,528.0625 C224.8125,528.0625 222.8125,530.1406 222.8125,532.8594 L222.8125,533.9844 C222.8125,536.5625 224.9219,538.4531 227.8125,538.4531 C229.0313,538.4531 230.1875,538.1563 230.9375,537.6094 C231.5156,537.2031 231.8438,536.75 231.8438,536.3594 C231.8438,535.9063 231.4531,535.5156 230.9844,535.5156 C230.7656,535.5156 230.5625,535.5938 230.375,535.7813 C229.9219,536.2656 229.9219,536.2656 229.7344,536.3594 C229.3125,536.625 228.625,536.75 227.8594,536.75 C225.8125,536.75 224.5156,535.6563 224.5156,533.9531 L224.5156,532.8594 C224.5156,531.0781 225.7656,529.7656 227.5,529.7656 C228.0781,529.7656 228.6875,529.9219 229.1563,530.1719 C229.6406,530.4531 229.8125,530.6719 229.9063,531.0781 C229.9688,531.4844 230,531.6094 230.1406,531.7344 C230.2813,531.875 230.5156,531.9844 230.7344,531.9844 C231,531.9844 231.2656,531.8438 231.4375,531.625 C231.5469,531.4688 231.5781,531.2813 231.5781,530.8594 L231.5781,529.4375 C231.5781,529 231.5625,528.875 231.4688,528.7188 C231.3125,528.4531 231.0313,528.3125 230.7344,528.3125 C230.4375,528.3125 230.2344,528.4063 230.0156,528.7188 L229.8438,528.6406 Z " fill="#000000"/><text fill="#000000" font-family="FG Virgil" font-size="12" font-style="italic" lengthAdjust="spacing" textLength="74" x="274.5" y="530.1387">«repository»</text><text fill="#000000" font-family="FG Virgil" font-size="12" lengthAdjust="spacing" textLength="140" x="241.5" y="544.1074">ColaboradorRepository</text><path d="M213.5,551.9375 L213.5,552.2177 L223.5,551.3851 L233.5,552.1952 L243.5,552.4704 L253.5,550.9863 L263.5,551.8339 L273.5,551.3688 L283.5,551.4262 L293.5,551.8466 L303.5,551.0157 L313.5,552.6757 L323.5,551.0971 L333.5,551.6738 L343.5,552.5134 L353.5,551.8231 L363.5,552.0285 L373.5,551.8949 L383.5,551.9375 " fill="#F8F8F8" style="stroke:#383838;stroke-width:1.5;"/><path d="M213.5,559.9375 L213.5,560.2177 L223.5,559.3851 L233.5,560.1952 L243.5,560.4704 L253.5,558.9863 L263.5,559.8339 L273.5,559.3688 L283.5,559.4262 L293.5,559.8466 L303.5,559.0157 L313.5,560.6757 L323.5,559.0971 L333.5,559.6738 L343.5,560.5134 L353.5,559.8231 L363.5,560.0285 L373.5,559.8949 L383.5,559.9375 " fill="#F8F8F8" style="stroke:#383838;stroke-width:1.5;"/><text fill="#000000" font-family="FG Virgil" font-size="11" lengthAdjust="spacing" textLength="53" x="218.5" y="574.1479">getUser()</text><!--MD5=[a26d7a8585b446db7fc8ab4626d8ca8a]
class Pedido--><polygon fill="#F8F8F8" points="7,641,7,641.2102,16.8125,640.5857,26.625,641.1933,36.4375,641.3997,46.25,640.2866,56.0625,640.9223,65.875,640.5735,75.6875,640.6165,85.5,640.9318,95.3125,640.3086,105.125,641.5536,114.9375,640.3697,124.75,640.8022,134.5625,641.4319,144.375,640.9142,154.1875,641.0682,164,641,163.9681,641,164.1785,650.5346,164.2391,660.0692,164.5857,669.6038,164.6711,679.1384,164.6793,688.673,164.2546,698.2076,164,707.7422,164,708.2058,154.1875,708.4444,144.375,707.021,134.5625,708.4207,124.75,707.4457,114.9375,708.276,105.125,707.2472,95.3125,707.6737,85.5,708.4838,75.6875,707.6935,65.875,707.8475,56.0625,708.0808,46.25,708.1584,36.4375,707.7383,26.625,708.0294,16.8125,707.1698,7,707.7422,7.2844,707.7422,7.5482,698.2076,7.4445,688.673,7.613,679.1384,6.5169,669.6038,6.3478,660.0692,6.3786,650.5346,7,641" style="stroke:#383838;stroke-width:1.5;"/><polygon fill="#C2C2C2" points="69.8108,662.6444,68.1984,664.8475,66.2912,668.0745,63.5636,670.2491,60.6974,671.4384,58.412,671.5416,55.4747,670.0543,52.7032,669.0827,50.5995,667.1099,49.4961,664.8515,48.8417,663.0533,48.2006,660.7045,47.16,658.6832,47.9596,656.7098,48.6602,654.548,51.2893,652.8382,53.139,650.6198,55.4284,649.8832,58.1501,649.2488,61.6404,649.6257,63.5521,650.5273,65.7747,650.9359,68.4772,653.7047,69.4193,656.6277,69.8286,658.6221,69.365,661.9086" style="stroke:#383838;stroke-width:1.0;"/><path d="M61.0938,655.6406 C60.1563,655.2031 59.5625,655.0625 58.6875,655.0625 C56.0625,655.0625 54.0625,657.1406 54.0625,659.8594 L54.0625,660.9844 C54.0625,663.5625 56.1719,665.4531 59.0625,665.4531 C60.2813,665.4531 61.4375,665.1563 62.1875,664.6094 C62.7656,664.2031 63.0938,663.75 63.0938,663.3594 C63.0938,662.9063 62.7031,662.5156 62.2344,662.5156 C62.0156,662.5156 61.8125,662.5938 61.625,662.7813 C61.1719,663.2656 61.1719,663.2656 60.9844,663.3594 C60.5625,663.625 59.875,663.75 59.1094,663.75 C57.0625,663.75 55.7656,662.6563 55.7656,660.9531 L55.7656,659.8594 C55.7656,658.0781 57.0156,656.7656 58.75,656.7656 C59.3281,656.7656 59.9375,656.9219 60.4063,657.1719 C60.8906,657.4531 61.0625,657.6719 61.1563,658.0781 C61.2188,658.4844 61.25,658.6094 61.3906,658.7344 C61.5313,658.875 61.7656,658.9844 61.9844,658.9844 C62.25,658.9844 62.5156,658.8438 62.6875,658.625 C62.7969,658.4688 62.8281,658.2813 62.8281,657.8594 L62.8281,656.4375 C62.8281,656 62.8125,655.875 62.7188,655.7188 C62.5625,655.4531 62.2813,655.3125 61.9844,655.3125 C61.6875,655.3125 61.4844,655.4063 61.2656,655.7188 L61.0938,655.6406 Z " fill="#000000"/><text fill="#000000" font-family="FG Virgil" font-size="12" font-style="italic" lengthAdjust="spacing" textLength="49" x="77.25" y="657.1387">«entity»</text><text fill="#000000" font-family="FG Virgil" font-size="12" lengthAdjust="spacing" textLength="41" x="81.25" y="671.1074">Pedido</text><path d="M8,678.9375 L8,679.2177 L17.6875,678.3851 L27.375,679.1952 L37.0625,679.4704 L46.75,677.9863 L56.4375,678.8339 L66.125,678.3688 L75.8125,678.4262 L85.5,678.8466 L95.1875,678.0157 L104.875,679.6757 L114.5625,678.0971 L124.25,678.6738 L133.9375,679.5134 L143.625,678.8231 L153.3125,679.0285 L163,678.9375 " fill="#F8F8F8" style="stroke:#383838;stroke-width:1.5;"/><path d="M8,686.9375 L8,687.2177 L17.6875,686.3851 L27.375,687.1952 L37.0625,687.4704 L46.75,685.9863 L56.4375,686.8339 L66.125,686.3688 L75.8125,686.4262 L85.5,686.8466 L95.1875,686.0157 L104.875,687.6757 L114.5625,686.0971 L124.25,686.6738 L133.9375,687.5134 L143.625,686.8231 L153.3125,687.0285 L163,686.9375 " fill="#F8F8F8" style="stroke:#383838;stroke-width:1.5;"/><text fill="#000000" font-family="FG Virgil" font-size="11" lengthAdjust="spacing" textLength="145" x="13" y="701.1479">atribuirGrau(pedido, grau)</text><!--MD5=[8d4a59a50d296803310ddf203ae9ede6]
link AtribuirGrauSatisfacaoUI to AtribuirGrauSatisfacaoController--><path d="M185.5,74.086 L185.7802,74.086 L184.9476,85.031 L185.7577,95.976 L186.0329,106.921 L184.5488,117.866 L185.5,128.811 " fill="none" style="stroke:#383838;stroke-width:1.0;"/><polygon fill="#383838" points="185.5,133.904,185.564,133.9325,186.1738,132.0479,187.1589,130.3302,188.0217,128.5581,188.4827,126.6074,189.5,124.904,189.4817,124.8857,188.5995,125.6035,187.8096,126.4136,187.0839,127.2879,186.137,127.941,185.5,128.904,185.6305,129.0345,184.5514,127.9554,183.8534,127.2574,183.2018,126.6058,182.2798,125.6838,181.5,124.904,181.5208,124.9132,182.2903,126.6997,183.1544,128.5282,183.9728,130.3364,184.8784,132.1833,185.5,133.904" style="stroke:#383838;stroke-width:1.0;"/><!--MD5=[a27748b2e03d30591c389a80e376a00e]
link AtribuirGrauSatisfacaoController to PedidoRepository--><path d="M134.414,226.215 L134.4845,226.2763 L131.943,228.7772 L129.8147,231.6374 L127.5519,234.3806 L124.8465,236.739 L122.7538,239.63 L122.7262,239.6093 L120.413,242.4301 L118.2391,245.3554 L116.162,248.3535 L113.7514,251.101 L111.8079,254.1995 L112.017,254.3291 L109.6455,257.1566 L107.8846,260.3626 L106.1983,263.6147 L104.0784,266.5982 L102.1866,269.723 L102.214,269.7359 L100.6364,272.9723 L99.1837,276.2677 L97.6707,279.5346 L96.2727,282.8557 L94.5,286 L94.7809,286.1003 L93.7695,288.943 L92.5771,291.721 L91.6498,294.5938 L90.7349,297.4709 L89.4262,300.2074 L89.1186,300.1174 L88.8598,303.215 L87.5882,306.016 L87.0865,309.0425 L85.7919,311.8368 L85.1473,314.8214 L85.1176,314.8144 L84.7606,317.8824 L83.7114,320.7865 L83.0707,323.7873 L82.4642,326.7962 L81.6104,329.7465 L81.7922,329.7807 L81.0392,332.7743 L80.5969,335.8263 L79.6519,338.7838 L79.4567,341.8823 L78.7629,344.8871 L79.0041,344.922 L78.5163,347.9675 L78.1482,351.0304 L77.224,354.0127 L76.7074,357.054 L76.5521,360.1477 L76.2775,360.1185 L76.2007,363.202 L75.8145,366.2525 L75.8771,369.3508 L75.1733,372.3676 L74.9251,375.4328 L74.7731,375.4219 L74.8072,378.483 L74.1912,381.4972 L74.0375,384.5448 L74.3362,387.6249 L73.8293,390.647 L74.0228,390.6549 L74.032,393.6699 L73.4395,396.6602 L73.6006,399.6814 L73.5976,402.6959 L73.2119,405.6946 L73.002,405.6919 L73.131,408.6512 L73.1912,411.6096 L73.3865,414.5698 L73.0567,417.5231 L73.0202,420.4802 L73.2257,420.4828 L72.8103,423.3628 L72.7917,426.2477 L73.3527,429.1399 L72.8465,432.0187 L73.2013,434.9083 L73.4274,434.9164 L73.3934,437.7066 L73.2829,440.4941 L73.345,443.2877 L73.8062,446.0957 L73.7027,448.8834 L73.5699,448.8758 L74.1191,451.5837 L73.765,454.2399 L74.4379,456.955 L74.5326,459.6369 L74.4715,462.3099 L74.5801,462.3182 L74.6891,464.868 L75.1869,467.4476 L75.3335,470.0002 L75.3333,472.5416 L75.455,475.0923 L75.5737,475.1036 L75.6265,477.4954 L76.2302,479.9396 L76.2108,482.3245 L76.4477,484.7338 L76.6005,487.1351 L76.3318,487.105 L76.6724,489.3566 L77.3368,491.6445 L77.5431,493.881 L77.5852,496.0992 L77.8551,498.3429 L77.7131,498.3247 L78.0209,500.386 L78.0771,502.4151 L78.8247,504.5325 L79.2301,506.6062 L79.1663,508.62 " fill="none" style="stroke:#383838;stroke-width:1.0;"/><polygon fill="#383838" points="79.8918,513.836,79.9591,513.8554,80.3036,511.9048,81.0427,510.0678,81.6533,508.1938,81.8412,506.1982,82.6142,504.3709,82.5936,504.3553,81.8186,505.1877,81.1479,506.0989,80.5495,507.0648,79.7016,507.8421,79.2032,508.8836,79.3145,509.0309,78.174,508.0338,77.3584,507.4666,76.5824,506.9519,75.5758,506.132,74.6905,505.4726,74.7098,505.4846,75.7217,507.1397,76.8215,508.8494,77.879,510.5327,79.0173,512.2664,79.8918,513.836" style="stroke:#383838;stroke-width:1.0;"/><!--MD5=[c9f55b863fe5ac3c8d5e7cb302a2e759]
link AtribuirGrauSatisfacaoController to ColaboradorRepository--><path d="M236.323,226.1 L236.3931,226.1617 L238.5553,228.6706 L241.1284,231.5413 L243.5677,234.2942 L245.5669,236.6596 L248.1753,239.5614 L248.1479,239.5404 L250.2683,242.3679 L252.5269,245.3015 L254.8814,248.3089 L256.905,251.0622 L259.3921,254.1713 L259.5992,254.3041 L261.1517,257.1298 L263.3087,260.3435 L265.5396,263.6045 L267.3412,266.59 L269.3686,269.7205 L269.3957,269.734 L270.9822,272.97 L272.6921,276.2677 L274.3425,279.5357 L276.1066,282.8604 L277.5,286 L277.778,286.108 L278.8773,288.9309 L279.7974,291.6841 L280.9799,294.5393 L282.1747,297.3993 L282.9797,300.1079 L282.675,300.0083 L284.2158,303.1079 L284.7534,305.8797 L286.0536,308.9007 L286.5685,311.6651 L287.7271,314.6399 L287.6977,314.6318 L288.8571,317.6986 L289.3304,320.5779 L290.2085,323.5678 L291.1206,326.567 L291.7876,329.4993 L291.968,329.5401 L292.4696,332.5169 L293.2796,335.5635 L293.5907,338.4971 L294.6459,341.5992 L295.2064,344.5893 L295.446,344.6337 L295.9652,347.6701 L296.6033,350.7286 L296.6888,353.6846 L297.1794,356.7157 L298.0289,359.8133 L297.7557,359.7727 L298.4573,362.8617 L298.8511,365.905 L299.6913,369.0146 L299.7693,372.0109 L300.3004,375.0745 L300.1489,375.057 L300.7543,378.1266 L300.7123,381.121 L301.1306,384.169 L301.9994,387.2692 L302.0661,390.2763 L302.259,390.293 L302.6524,393.3136 L302.4457,396.2821 L302.9906,399.3158 L303.3717,402.3353 L303.3714,405.3218 L303.1618,405.3091 L303.5069,408.2777 L303.7833,411.2421 L304.1946,414.2147 L304.0816,417.1557 L304.2615,420.1143 L304.467,420.1217 L304.1196,422.994 L304.1688,425.8806 L304.7974,428.788 L304.3593,431.6571 L304.7818,434.5571 L305.008,434.5603 L304.9128,437.3577 L304.7411,440.154 L304.7421,442.9528 L305.1423,445.7571 L304.9776,448.5535 L304.8446,448.5527 L305.224,451.2458 L304.6986,453.9333 L305.202,456.6272 L305.1261,459.3175 L304.8942,462.0068 L305.003,462.0095 L304.8517,464.57 L305.0901,467.1402 L304.9764,469.7016 L304.7155,472.2594 L304.5768,474.8202 L304.6959,474.8252 L304.4177,477.2332 L304.6925,479.6643 L304.3419,482.0692 L304.2486,484.4849 L304.0708,486.897 L303.8008,486.8815 L303.7611,489.1354 L304.0465,491.408 L303.8718,493.6542 L303.5322,495.8907 L303.4214,498.1405 L303.2786,498.1302 L303.1749,500.1962 L302.8183,502.2439 L303.1568,504.3419 L303.1513,506.4151 L302.674,508.454 " fill="none" style="stroke:#383838;stroke-width:1.0;"/><polygon fill="#383838" points="302.238,513.69,302.2994,513.7237,303.0633,511.8961,304.1873,510.2659,305.194,508.5714,305.815,506.6656,306.97,505.0524,306.9532,505.0326,306.0146,505.6748,305.1603,506.4167,304.3647,507.2279,303.3669,507.8003,302.6523,508.7072,302.7931,508.8264,301.761,507.7079,301.14,506.9375,300.5693,506.2096,299.7066,505.2346,298.9975,504.3895,299.0189,504.397,299.6355,506.2461,300.3499,508.1293,301.0171,509.996,301.7743,511.8941,302.238,513.69" style="stroke:#383838;stroke-width:1.0;"/><!--MD5=[77833b7e9ad92adf631a2deebe0ddc85]
link AtribuirGrauSatisfacaoController to PersistenceContext--><path d="M185.5,226.083 L185.7802,226.083 L184.9476,236.9824 L185.7577,247.8818 L186.0329,258.7812 L184.5488,269.6806 L185.5,280.58 " fill="none" style="stroke:#383838;stroke-width:1.0;"/><polygon fill="#383838" points="185.5,285.955,185.564,285.9835,186.1738,284.0989,187.1589,282.3812,188.0217,280.6091,188.4827,278.6584,189.5,276.955,189.4817,276.9367,188.5995,277.6545,187.8096,278.4646,187.0839,279.3389,186.137,279.992,185.5,280.955,185.6305,281.0855,184.5514,280.0064,183.8534,279.3084,183.2018,278.6568,182.2798,277.7348,181.5,276.955,181.5208,276.9642,182.2903,278.7507,183.1544,280.5792,183.9728,282.3874,184.8784,284.2343,185.5,285.955" style="stroke:#383838;stroke-width:1.0;"/><!--MD5=[754b775031405e096442b27febffa290]
link PersistenceContext to RepositoryFactory--><path d="M185.5,340.259 L185.7802,340.259 L184.9476,351.1506 L185.7577,362.0422 L186.0329,372.9338 L184.5488,383.8254 L185.5,394.717 " fill="none" style="stroke:#383838;stroke-width:1.0;"/><polygon fill="#383838" points="185.5,399.905,185.564,399.9335,186.1738,398.0489,187.1589,396.3312,188.0217,394.5591,188.4827,392.6084,189.5,390.905,189.4817,390.8867,188.5995,391.6045,187.8096,392.4146,187.0839,393.2889,186.137,393.942,185.5,394.905,185.6305,395.0355,184.5514,393.9564,183.8534,393.2584,183.2018,392.6068,182.2798,391.6848,181.5,390.905,181.5208,390.9142,182.2903,392.7007,183.1544,394.5292,183.9728,396.3374,184.8784,398.1843,185.5,399.905" style="stroke:#383838;stroke-width:1.0;"/><!--MD5=[92ec8a7d6f18a3d8721c223762e40077]
link PedidoRepository to Pedido--><path d="M85.5,581.016 L85.7802,581.016 L84.9476,591.8971 L85.7577,602.7782 L86.0329,613.6594 L84.5488,624.5405 L85.5,635.4216 " fill="none" style="stroke:#383838;stroke-width:1.0;"/><polygon fill="#383838" points="85.5,640.7126,85.564,640.7411,86.1738,638.8565,87.1589,637.1388,88.0217,635.3667,88.4827,633.416,89.5,631.7126,89.4817,631.6943,88.5995,632.4121,87.8096,633.2222,87.0839,634.0965,86.137,634.7496,85.5,635.7126,85.6305,635.8431,84.5514,634.764,83.8534,634.066,83.2018,633.4144,82.2798,632.4924,81.5,631.7126,81.5208,631.7218,82.2903,633.5083,83.1544,635.3368,83.9728,637.145,84.8784,638.9919,85.5,640.7126" style="stroke:#383838;stroke-width:1.0;"/><!--MD5=[72c4dac676244702e0f69dd587b16d7e]
link RepositoryFactory to PedidoRepository--><path d="M163.555,454.005 L163.7692,454.1857 L156.4142,461.6101 L150.3148,470.0941 L143.8066,478.233 L135.9538,485.2373 L129.883,493.7453 L122.809,501.4068 L116.525,509.735 " fill="none" style="stroke:#383838;stroke-width:1.0;"/><polygon fill="#383838" points="113.118,513.773,113.1486,513.836,114.8299,512.7889,116.6905,512.1113,118.4927,511.3133,120.103,510.1197,121.979,509.4738,121.9768,509.448,120.8396,509.4277,119.7135,509.5375,118.5951,509.7378,117.4502,509.6263,116.3423,509.9515,116.5262,509.9671,116.0374,508.8064,116.0856,507.6913,116.1992,506.5817,115.9317,505.4398,115.8646,504.3149,115.8865,504.3212,115.3051,506.2035,114.8231,508.1147,114.2932,510.012,113.8548,511.9358,113.118,513.773" style="stroke:#383838;stroke-width:1.0;"/><!--MD5=[f69c8ab88bf9359224da8c715bf10dd8]
link RepositoryFactory to ColaboradorRepository--><path d="M210.298,454.005 L210.5008,454.1984 L216.5411,460.59 L223.7703,468.1154 L230.6123,475.2715 L236.1811,481.2136 L243.4374,488.7647 L249.7437,495.4101 L256.4281,502.4159 L263.441,509.735 " fill="none" style="stroke:#383838;stroke-width:1.0;"/><polygon fill="#383838" points="267.292,513.773,267.358,513.7966,266.4985,511.8718,266.0257,510.0853,265.4271,508.2538,264.4143,506.2742,263.9747,504.4996,263.9488,504.499,263.8058,505.6273,263.7934,506.7587,263.8718,507.8922,263.6374,509.0184,263.841,510.1549,263.8454,510.3394,262.705,509.9181,261.5773,510.0355,260.4513,510.2186,259.3161,510.0194,258.1857,510.0212,258.1944,510.0422,260.0029,510.7617,261.8509,511.5769,263.6799,512.346,265.5451,513.2031,267.292,513.773" style="stroke:#383838;stroke-width:1.0;"/><!--MD5=[6207c555518b5148a661c9e771d85f11]
@startuml
'http://plantuml.com/skinparam.html
skinparam handwritten true
skinparam monochrome true
skinparam packageStyle rect
skinparam defaultFontName FG Virgil
skinparam shadowing false

class AtribuirGrauSatisfacaoUI <<presentation>>
class AtribuirGrauSatisfacaoController <<application>>
class PersistenceContext <<persistence>>
class RepositoryFactory <<factory>>
class PedidoRepository <<repository>>
class ColaboradorRepository <<repository>>
class Pedido <<entity>>


AtribuirGrauSatisfacaoUI - -> AtribuirGrauSatisfacaoController
AtribuirGrauSatisfacaoUI : doShow()

AtribuirGrauSatisfacaoController : getUser()
AtribuirGrauSatisfacaoController : pedidosPendentes(colab)
AtribuirGrauSatisfacaoController : atribuirGrau(pedido, grau)

AtribuirGrauSatisfacaoController - -> PedidoRepository
AtribuirGrauSatisfacaoController - -> ColaboradorRepository
AtribuirGrauSatisfacaoController - -> PersistenceContext
PersistenceContext - -> RepositoryFactory

ColaboradorRepository : getUser()

PedidoRepository - -> Pedido
PedidoRepository : pedidosPendentes(colab)

Pedido : atribuirGrau(pedido, grau)

RepositoryFactory - -> PedidoRepository
RepositoryFactory - -> ColaboradorRepository
@enduml

@startuml
skinparam handwritten true
skinparam monochrome true
skinparam packageStyle rect
skinparam defaultFontName FG Virgil
skinparam shadowing false

class AtribuirGrauSatisfacaoUI <<presentation>>
class AtribuirGrauSatisfacaoController <<application>>
class PersistenceContext <<persistence>>
class RepositoryFactory <<factory>>
class PedidoRepository <<repository>>
class ColaboradorRepository <<repository>>
class Pedido <<entity>>


AtribuirGrauSatisfacaoUI - -> AtribuirGrauSatisfacaoController
AtribuirGrauSatisfacaoUI : doShow()

AtribuirGrauSatisfacaoController : getUser()
AtribuirGrauSatisfacaoController : pedidosPendentes(colab)
AtribuirGrauSatisfacaoController : atribuirGrau(pedido, grau)

AtribuirGrauSatisfacaoController - -> PedidoRepository
AtribuirGrauSatisfacaoController - -> ColaboradorRepository
AtribuirGrauSatisfacaoController - -> PersistenceContext
PersistenceContext - -> RepositoryFactory

ColaboradorRepository : getUser()

PedidoRepository - -> Pedido
PedidoRepository : pedidosPendentes(colab)

Pedido : atribuirGrau(pedido, grau)

RepositoryFactory - -> PedidoRepository
RepositoryFactory - -> ColaboradorRepository
@enduml

PlantUML version 1.2021.7(Sun May 23 12:40:07 UTC 2021)
(GPL source distribution)
Java Runtime: Java(TM) SE Runtime Environment
JVM: Java HotSpot(TM) 64-Bit Server VM
Default Encoding: UTF-8
Language: en
Country: US
--></g></svg>