<?xml version="1.0" encoding="UTF-8" standalone="no"?><svg xmlns="http://www.w3.org/2000/svg" xmlns:xlink="http://www.w3.org/1999/xlink" contentScriptType="application/ecmascript" contentStyleType="text/css" height="612px" preserveAspectRatio="none" style="width:375px;height:612px;background:#FFFFFF;" version="1.1" viewBox="0 0 375 612" width="375px" zoomAndPan="magnify"><defs/><g><!--MD5=[69b08e8bcc5a42edecca14b97daf548a]
class AtribuirGrauSatisfacaoUI--><polygon fill="#F8F8F8" points="82.5,7,82.5,7.2102,92.3333,6.5857,102.1667,7.1933,112,7.3997,121.8333,6.2866,131.6667,6.9223,141.5,6.5735,151.3333,6.6165,161.1667,6.9318,171,6.3086,180.8333,7.5536,190.6667,6.3697,200.5,6.8022,210.3333,7.4319,220.1667,6.9142,230,7.0682,239.8333,6.9681,249.6667,7.1785,259.5,7,259.7391,7,260.0857,16.5597,260.1711,26.1193,260.1793,35.679,259.7546,45.2386,259.9636,54.7983,260.2022,64.358,258.7788,73.9176,260.1785,83.4773,259.2035,93.0369,260.0338,102.5966,259.5,112.1563,259.5,111.6612,249.6667,112.0878,239.8333,112.8979,230,112.1075,220.1667,112.2616,210.3333,112.4949,200.5,112.5725,190.6667,112.1523,180.8333,112.4435,171,111.5838,161.1667,112.4406,151.3333,112.7044,141.5,112.6008,131.6667,112.7693,121.8333,111.6732,112,111.5041,102.1667,111.5348,92.3333,112.0974,82.5,112.1563,82.3035,112.1563,83.1814,102.5966,82.3253,93.0369,82.1569,83.4773,82.7283,73.9176,81.8332,64.358,81.9809,54.7983,83.149,45.2386,82.9357,35.679,83.2345,26.1193,82.1782,16.5597,82.5,7" style="stroke:#383838;stroke-width:1.5;"/><polygon fill="#C2C2C2" points="108.5608,28.6444,106.9484,30.8475,105.0412,34.0745,102.3136,36.2491,99.4474,37.4384,97.162,37.5416,94.2247,36.0543,91.4532,35.0827,89.3495,33.1099,88.2461,30.8515,87.5917,29.0533,86.9506,26.7045,85.91,24.6832,86.7096,22.7098,87.4102,20.548,90.0393,18.8382,91.889,16.6198,94.1784,15.8832,96.9001,15.2488,100.3904,15.6257,102.3021,16.5273,104.5247,16.9359,107.2272,19.7047,108.1693,22.6277,108.5786,24.6221,108.115,27.9086" style="stroke:#383838;stroke-width:1.0;"/><path d="M99.8438,21.6406 C98.9063,21.2031 98.3125,21.0625 97.4375,21.0625 C94.8125,21.0625 92.8125,23.1406 92.8125,25.8594 L92.8125,26.9844 C92.8125,29.5625 94.9219,31.4531 97.8125,31.4531 C99.0313,31.4531 100.1875,31.1563 100.9375,30.6094 C101.5156,30.2031 101.8438,29.75 101.8438,29.3594 C101.8438,28.9063 101.4531,28.5156 100.9844,28.5156 C100.7656,28.5156 100.5625,28.5938 100.375,28.7813 C99.9219,29.2656 99.9219,29.2656 99.7344,29.3594 C99.3125,29.625 98.625,29.75 97.8594,29.75 C95.8125,29.75 94.5156,28.6563 94.5156,26.9531 L94.5156,25.8594 C94.5156,24.0781 95.7656,22.7656 97.5,22.7656 C98.0781,22.7656 98.6875,22.9219 99.1563,23.1719 C99.6406,23.4531 99.8125,23.6719 99.9063,24.0781 C99.9688,24.4844 100,24.6094 100.1406,24.7344 C100.2813,24.875 100.5156,24.9844 100.7344,24.9844 C101,24.9844 101.2656,24.8438 101.4375,24.625 C101.5469,24.4688 101.5781,24.2813 101.5781,23.8594 L101.5781,22.4375 C101.5781,22 101.5625,21.875 101.4688,21.7188 C101.3125,21.4531 101.0313,21.3125 100.7344,21.3125 C100.4375,21.3125 100.2344,21.4063 100.0156,21.7188 L99.8438,21.6406 Z " fill="#000000"/><text fill="#000000" font-family="FG Virgil" font-size="12" font-style="italic" lengthAdjust="spacing" textLength="90" x="139" y="23.1387">«presentation»</text><text fill="#000000" font-family="FG Virgil" font-size="12" lengthAdjust="spacing" textLength="145" x="111.5" y="37.1074">AtribuirGrauSatisfacaoUI</text><path d="M83.5,44.9375 L83.5,45.2177 L93.2222,44.3851 L102.9444,45.1952 L112.6667,45.4704 L122.3889,43.9863 L132.1111,44.8339 L141.8333,44.3688 L151.5556,44.4262 L161.2778,44.8466 L171,44.0157 L180.7222,45.6757 L190.4444,44.0971 L200.1667,44.6738 L209.8889,45.5134 L219.6111,44.8231 L229.3333,45.0285 L239.0556,44.8949 L248.7778,45.1755 L258.5,44.9375 " fill="#F8F8F8" style="stroke:#383838;stroke-width:1.5;"/><path d="M83.5,52.9375 L83.5,53.2177 L93.2222,52.3851 L102.9444,53.1952 L112.6667,53.4704 L122.3889,51.9863 L132.1111,52.8339 L141.8333,52.3688 L151.5556,52.4262 L161.2778,52.8466 L171,52.0157 L180.7222,53.6757 L190.4444,52.0971 L200.1667,52.6738 L209.8889,53.5134 L219.6111,52.8231 L229.3333,53.0285 L239.0556,52.8949 L248.7778,53.1755 L258.5,52.9375 " fill="#F8F8F8" style="stroke:#383838;stroke-width:1.5;"/><text fill="#000000" font-family="FG Virgil" font-size="11" lengthAdjust="spacing" textLength="53" x="88.5" y="67.1479">doShow()</text><text fill="#000000" font-family="FG Virgil" font-size="11" lengthAdjust="spacing" textLength="53" x="88.5" y="79.9526">getUser()</text><text fill="#000000" font-family="FG Virgil" font-size="11" lengthAdjust="spacing" textLength="144" x="88.5" y="92.7573">pedidosPendentes(colab)</text><text fill="#000000" font-family="FG Virgil" font-size="11" lengthAdjust="spacing" textLength="113" x="88.5" y="105.562">atribuirGrau(pedido)</text><!--MD5=[9a320152ae07d6b09f9265b8ad671f30]
class AtribuirGrauSatisfacaoController--><polygon fill="#F8F8F8" points="59,172,59,172.2102,69.1818,171.5857,79.3636,172.1933,89.5455,172.3997,99.7273,171.2866,109.9091,171.9223,120.0909,171.5735,130.2727,171.6165,140.4545,171.9318,150.6364,171.3086,160.8182,172.5536,171,171.3697,181.1818,171.8022,191.3636,172.4319,201.5455,171.9142,211.7273,172.0682,221.9091,171.9681,232.0909,172.1785,242.2727,172.2391,252.4545,172.5857,262.6364,172.6711,272.8182,172.6793,283,172,283.2546,172,283.4636,182.2613,283.7022,192.5226,282.2788,202.7839,283.6785,213.0451,282.7035,223.3064,283.5338,233.5677,282.505,243.829,282.9315,254.0903,283,264.3516,283,265.0932,272.8182,264.3028,262.6364,264.4569,252.4545,264.6902,242.2727,264.7678,232.0909,264.3477,221.9091,264.6388,211.7273,263.7791,201.5455,264.6359,191.3636,264.8998,181.1818,264.7961,171,264.9646,160.8182,263.8685,150.6364,263.6994,140.4545,263.7302,130.2727,264.2927,120.0909,264.155,109.9091,265.033,99.7273,264.1769,89.5455,264.0085,79.3636,264.5798,69.1818,263.6847,59,264.3516,58.4809,264.3516,59.649,254.0903,59.4357,243.829,59.7345,233.5677,58.6782,223.3064,59.3192,213.0451,59.5904,202.7839,58.5276,192.5226,58.9041,182.2613,59,172" style="stroke:#383838;stroke-width:1.5;"/><polygon fill="#C2C2C2" points="85.0608,193.6444,83.4484,195.8475,81.5412,199.0745,78.8136,201.2491,75.9474,202.4384,73.662,202.5416,70.7247,201.0543,67.9532,200.0827,65.8495,198.1099,64.7461,195.8515,64.0917,194.0533,63.4506,191.7045,62.41,189.6832,63.2096,187.7098,63.9102,185.548,66.5393,183.8382,68.389,181.6198,70.6784,180.8832,73.4001,180.2488,76.8904,180.6257,78.8021,181.5273,81.0247,181.9359,83.7272,184.7047,84.6693,187.6277,85.0786,189.6221,84.615,192.9086" style="stroke:#383838;stroke-width:1.0;"/><path d="M76.3438,186.6406 C75.4063,186.2031 74.8125,186.0625 73.9375,186.0625 C71.3125,186.0625 69.3125,188.1406 69.3125,190.8594 L69.3125,191.9844 C69.3125,194.5625 71.4219,196.4531 74.3125,196.4531 C75.5313,196.4531 76.6875,196.1563 77.4375,195.6094 C78.0156,195.2031 78.3438,194.75 78.3438,194.3594 C78.3438,193.9063 77.9531,193.5156 77.4844,193.5156 C77.2656,193.5156 77.0625,193.5938 76.875,193.7813 C76.4219,194.2656 76.4219,194.2656 76.2344,194.3594 C75.8125,194.625 75.125,194.75 74.3594,194.75 C72.3125,194.75 71.0156,193.6563 71.0156,191.9531 L71.0156,190.8594 C71.0156,189.0781 72.2656,187.7656 74,187.7656 C74.5781,187.7656 75.1875,187.9219 75.6563,188.1719 C76.1406,188.4531 76.3125,188.6719 76.4063,189.0781 C76.4688,189.4844 76.5,189.6094 76.6406,189.7344 C76.7813,189.875 77.0156,189.9844 77.2344,189.9844 C77.5,189.9844 77.7656,189.8438 77.9375,189.625 C78.0469,189.4688 78.0781,189.2813 78.0781,188.8594 L78.0781,187.4375 C78.0781,187 78.0625,186.875 77.9688,186.7188 C77.8125,186.4531 77.5313,186.3125 77.2344,186.3125 C76.9375,186.3125 76.7344,186.4063 76.5156,186.7188 L76.3438,186.6406 Z " fill="#000000"/><text fill="#000000" font-family="FG Virgil" font-size="12" font-style="italic" lengthAdjust="spacing" textLength="80" x="144" y="188.1387">«application»</text><text fill="#000000" font-family="FG Virgil" font-size="12" lengthAdjust="spacing" textLength="192" x="88" y="202.1074">AtribuirGrauSatisfacaoController</text><path d="M60,209.9375 L60,210.2177 L70.0909,209.3851 L80.1818,210.1952 L90.2727,210.4704 L100.3636,208.9863 L110.4545,209.8339 L120.5455,209.3688 L130.6364,209.4262 L140.7273,209.8466 L150.8182,209.0157 L160.9091,210.6757 L171,209.0971 L181.0909,209.6738 L191.1818,210.5134 L201.2727,209.8231 L211.3636,210.0285 L221.4545,209.8949 L231.5455,210.1755 L241.6364,210.2563 L251.7273,210.7184 L261.8182,210.8322 L271.9091,210.8432 L282,209.9375 " fill="#F8F8F8" style="stroke:#383838;stroke-width:1.5;"/><path d="M60,217.9375 L60,218.2177 L70.0909,217.3851 L80.1818,218.1952 L90.2727,218.4704 L100.3636,216.9863 L110.4545,217.8339 L120.5455,217.3688 L130.6364,217.4262 L140.7273,217.8466 L150.8182,217.0157 L160.9091,218.6757 L171,217.0971 L181.0909,217.6738 L191.1818,218.5134 L201.2727,217.8231 L211.3636,218.0285 L221.4545,217.8949 L231.5455,218.1755 L241.6364,218.2563 L251.7273,218.7184 L261.8182,218.8322 L271.9091,218.8432 L282,217.9375 " fill="#F8F8F8" style="stroke:#383838;stroke-width:1.5;"/><text fill="#000000" font-family="FG Virgil" font-size="11" lengthAdjust="spacing" textLength="53" x="65" y="232.1479">getUser()</text><text fill="#000000" font-family="FG Virgil" font-size="11" lengthAdjust="spacing" textLength="144" x="65" y="244.9526">pedidosPendentes(colab)</text><text fill="#000000" font-family="FG Virgil" font-size="11" lengthAdjust="spacing" textLength="113" x="65" y="257.7573">atribuirGrau(pedido)</text><!--MD5=[e8c189551b7885b999ad7cefb30fc2a3]
class PersistenceContext--><polygon fill="#F8F8F8" points="97,324,97,324.2102,106.8667,323.5857,116.7333,324.1933,126.6,324.3997,136.4667,323.2866,146.3333,323.9223,156.2,323.5735,166.0667,323.6165,175.9333,323.9318,185.8,323.3086,195.6667,324.5536,205.5333,323.3697,215.4,323.8022,225.2667,324.4319,235.1333,323.9142,245,324,245.0682,324,244.9681,334.7875,245.1785,345.575,245.2391,356.3625,245.5857,367.15,245,377.9375,245,378.6086,235.1333,378.6168,225.2667,378.1921,215.4,378.4011,205.5333,378.6397,195.6667,377.2163,185.8,378.616,175.9333,377.641,166.0667,378.4713,156.2,377.4425,146.3333,377.869,136.4667,378.6791,126.6,377.8888,116.7333,378.0428,106.8667,378.2761,97,377.9375,97.4162,377.9375,96.9961,367.15,97.2872,356.3625,96.4276,345.575,97.2844,334.7875,97,324" style="stroke:#383838;stroke-width:1.5;"/><polygon fill="#C2C2C2" points="123.0608,345.6444,121.4484,347.8475,119.5412,351.0745,116.8136,353.2491,113.9474,354.4384,111.662,354.5416,108.7247,353.0543,105.9532,352.0827,103.8495,350.1099,102.7461,347.8515,102.0917,346.0533,101.4506,343.7045,100.41,341.6832,101.2096,339.7098,101.9102,337.548,104.5393,335.8382,106.389,333.6198,108.6784,332.8832,111.4001,332.2488,114.8904,332.6257,116.8021,333.5273,119.0247,333.9359,121.7272,336.7047,122.6693,339.6277,123.0786,341.6221,122.615,344.9086" style="stroke:#383838;stroke-width:1.0;"/><path d="M114.3438,338.6406 C113.4063,338.2031 112.8125,338.0625 111.9375,338.0625 C109.3125,338.0625 107.3125,340.1406 107.3125,342.8594 L107.3125,343.9844 C107.3125,346.5625 109.4219,348.4531 112.3125,348.4531 C113.5313,348.4531 114.6875,348.1563 115.4375,347.6094 C116.0156,347.2031 116.3438,346.75 116.3438,346.3594 C116.3438,345.9063 115.9531,345.5156 115.4844,345.5156 C115.2656,345.5156 115.0625,345.5938 114.875,345.7813 C114.4219,346.2656 114.4219,346.2656 114.2344,346.3594 C113.8125,346.625 113.125,346.75 112.3594,346.75 C110.3125,346.75 109.0156,345.6563 109.0156,343.9531 L109.0156,342.8594 C109.0156,341.0781 110.2656,339.7656 112,339.7656 C112.5781,339.7656 113.1875,339.9219 113.6563,340.1719 C114.1406,340.4531 114.3125,340.6719 114.4063,341.0781 C114.4688,341.4844 114.5,341.6094 114.6406,341.7344 C114.7813,341.875 115.0156,341.9844 115.2344,341.9844 C115.5,341.9844 115.7656,341.8438 115.9375,341.625 C116.0469,341.4688 116.0781,341.2813 116.0781,340.8594 L116.0781,339.4375 C116.0781,339 116.0625,338.875 115.9688,338.7188 C115.8125,338.4531 115.5313,338.3125 115.2344,338.3125 C114.9375,338.3125 114.7344,338.4063 114.5156,338.7188 L114.3438,338.6406 Z " fill="#000000"/><text fill="#000000" font-family="FG Virgil" font-size="12" font-style="italic" lengthAdjust="spacing" textLength="83" x="142.5" y="340.1387">«persistence»</text><text fill="#000000" font-family="FG Virgil" font-size="12" lengthAdjust="spacing" textLength="116" x="126" y="354.1074">PersistenceContext</text><path d="M98,361.9375 L98,362.2177 L107.7333,361.3851 L117.4667,362.1952 L127.2,362.4704 L136.9333,360.9863 L146.6667,361.8339 L156.4,361.3688 L166.1333,361.4262 L175.8667,361.8466 L185.6,361.0157 L195.3333,362.6757 L205.0667,361.0971 L214.8,361.6738 L224.5333,362.5134 L234.2667,361.8231 L244,361.9375 " fill="#F8F8F8" style="stroke:#383838;stroke-width:1.5;"/><path d="M98,369.9375 L98,370.2177 L107.7333,369.3851 L117.4667,370.1952 L127.2,370.4704 L136.9333,368.9863 L146.6667,369.8339 L156.4,369.3688 L166.1333,369.4262 L175.8667,369.8466 L185.6,369.0157 L195.3333,370.6757 L205.0667,369.0971 L214.8,369.6738 L224.5333,370.5134 L234.2667,369.8231 L244,369.9375 " fill="#F8F8F8" style="stroke:#383838;stroke-width:1.5;"/><!--MD5=[48590afff58a68e2fcba47824d6f8a11]
class RepositoryFactory--><polygon fill="#F8F8F8" points="100,438,100,438.2102,110.1429,437.5857,120.2857,438.1933,130.4286,438.3997,140.5714,437.2866,150.7143,437.9223,160.8571,437.5735,171,437.6165,181.1429,437.9318,191.2857,437.3086,201.4286,438.5536,211.5714,437.3697,221.7143,437.8022,231.8571,438.4319,242,438,241.9142,438,242.0682,448.7875,241.9681,459.575,242.1785,470.3625,242.2391,481.15,242,491.9375,242,492.5232,231.8571,492.6086,221.7143,492.6168,211.5714,492.1921,201.4286,492.4011,191.2857,492.6397,181.1429,491.2163,171,492.616,160.8571,491.641,150.7143,492.4713,140.5714,491.4425,130.4286,491.869,120.2857,492.6791,110.1429,491.8888,100,491.9375,100.1053,491.9375,100.3386,481.15,100.4162,470.3625,99.9961,459.575,100.2872,448.7875,100,438" style="stroke:#383838;stroke-width:1.5;"/><polygon fill="#C2C2C2" points="126.0608,459.6444,124.4484,461.8475,122.5412,465.0745,119.8136,467.2491,116.9474,468.4384,114.662,468.5416,111.7247,467.0543,108.9532,466.0827,106.8495,464.1099,105.7461,461.8515,105.0917,460.0533,104.4506,457.7045,103.41,455.6832,104.2096,453.7098,104.9102,451.548,107.5393,449.8382,109.389,447.6198,111.6784,446.8832,114.4001,446.2488,117.8904,446.6257,119.8021,447.5273,122.0247,447.9359,124.7272,450.7047,125.6693,453.6277,126.0786,455.6221,125.615,458.9086" style="stroke:#383838;stroke-width:1.0;"/><path d="M117.3438,452.6406 C116.4063,452.2031 115.8125,452.0625 114.9375,452.0625 C112.3125,452.0625 110.3125,454.1406 110.3125,456.8594 L110.3125,457.9844 C110.3125,460.5625 112.4219,462.4531 115.3125,462.4531 C116.5313,462.4531 117.6875,462.1563 118.4375,461.6094 C119.0156,461.2031 119.3438,460.75 119.3438,460.3594 C119.3438,459.9063 118.9531,459.5156 118.4844,459.5156 C118.2656,459.5156 118.0625,459.5938 117.875,459.7813 C117.4219,460.2656 117.4219,460.2656 117.2344,460.3594 C116.8125,460.625 116.125,460.75 115.3594,460.75 C113.3125,460.75 112.0156,459.6563 112.0156,457.9531 L112.0156,456.8594 C112.0156,455.0781 113.2656,453.7656 115,453.7656 C115.5781,453.7656 116.1875,453.9219 116.6563,454.1719 C117.1406,454.4531 117.3125,454.6719 117.4063,455.0781 C117.4688,455.4844 117.5,455.6094 117.6406,455.7344 C117.7813,455.875 118.0156,455.9844 118.2344,455.9844 C118.5,455.9844 118.7656,455.8438 118.9375,455.625 C119.0469,455.4688 119.0781,455.2813 119.0781,454.8594 L119.0781,453.4375 C119.0781,453 119.0625,452.875 118.9688,452.7188 C118.8125,452.4531 118.5313,452.3125 118.2344,452.3125 C117.9375,452.3125 117.7344,452.4063 117.5156,452.7188 L117.3438,452.6406 Z " fill="#000000"/><text fill="#000000" font-family="FG Virgil" font-size="12" font-style="italic" lengthAdjust="spacing" textLength="56" x="156" y="454.1387">«factory»</text><text fill="#000000" font-family="FG Virgil" font-size="12" lengthAdjust="spacing" textLength="110" x="129" y="468.1074">RepositoryFactory</text><path d="M101,475.9375 L101,476.2177 L111,475.3851 L121,476.1952 L131,476.4704 L141,474.9863 L151,475.8339 L161,475.3688 L171,475.4262 L181,475.8466 L191,475.0157 L201,476.6757 L211,475.0971 L221,475.6738 L231,476.5134 L241,475.9375 " fill="#F8F8F8" style="stroke:#383838;stroke-width:1.5;"/><path d="M101,483.9375 L101,484.2177 L111,483.3851 L121,484.1952 L131,484.4704 L141,482.9863 L151,483.8339 L161,483.3688 L171,483.4262 L181,483.8466 L191,483.0157 L201,484.6757 L211,483.0971 L221,483.6738 L231,484.5134 L241,483.9375 " fill="#F8F8F8" style="stroke:#383838;stroke-width:1.5;"/><!--MD5=[9d9dca655b7d777fd61537967bcfba5b]
class PedidoRepository--><polygon fill="#F8F8F8" points="7,552,7,552.2102,16.8571,551.5857,26.7143,552.1933,36.5714,552.3997,46.4286,551.2866,56.2857,551.9223,66.1429,551.5735,76,551.6165,85.8571,551.9318,95.7143,551.3086,105.5714,552.5536,115.4286,551.3697,125.2857,551.8022,135.1429,552.4319,145,552,144.9142,552,145.0682,562.7875,144.9681,573.575,145.1785,584.3625,145.2391,595.15,145,605.9375,145,606.5232,135.1429,606.6086,125.2857,606.6168,115.4286,606.1921,105.5714,606.4011,95.7143,606.6397,85.8571,605.2163,76,606.616,66.1429,605.641,56.2857,606.4713,46.4286,605.4425,36.5714,605.869,26.7143,606.6791,16.8571,605.8888,7,605.9375,7.1053,605.9375,7.3386,595.15,7.4162,584.3625,6.9961,573.575,7.2872,562.7875,7,552" style="stroke:#383838;stroke-width:1.5;"/><polygon fill="#C2C2C2" points="33.0608,573.6444,31.4484,575.8475,29.5412,579.0745,26.8136,581.2491,23.9474,582.4384,21.662,582.5416,18.7247,581.0543,15.9532,580.0827,13.8495,578.1099,12.7461,575.8515,12.0917,574.0533,11.4506,571.7045,10.41,569.6832,11.2096,567.7098,11.9102,565.548,14.5393,563.8382,16.389,561.6198,18.6784,560.8832,21.4001,560.2488,24.8904,560.6257,26.8021,561.5273,29.0247,561.9359,31.7272,564.7047,32.6693,567.6277,33.0786,569.6221,32.615,572.9086" style="stroke:#383838;stroke-width:1.0;"/><path d="M24.3438,566.6406 C23.4063,566.2031 22.8125,566.0625 21.9375,566.0625 C19.3125,566.0625 17.3125,568.1406 17.3125,570.8594 L17.3125,571.9844 C17.3125,574.5625 19.4219,576.4531 22.3125,576.4531 C23.5313,576.4531 24.6875,576.1563 25.4375,575.6094 C26.0156,575.2031 26.3438,574.75 26.3438,574.3594 C26.3438,573.9063 25.9531,573.5156 25.4844,573.5156 C25.2656,573.5156 25.0625,573.5938 24.875,573.7813 C24.4219,574.2656 24.4219,574.2656 24.2344,574.3594 C23.8125,574.625 23.125,574.75 22.3594,574.75 C20.3125,574.75 19.0156,573.6563 19.0156,571.9531 L19.0156,570.8594 C19.0156,569.0781 20.2656,567.7656 22,567.7656 C22.5781,567.7656 23.1875,567.9219 23.6563,568.1719 C24.1406,568.4531 24.3125,568.6719 24.4063,569.0781 C24.4688,569.4844 24.5,569.6094 24.6406,569.7344 C24.7813,569.875 25.0156,569.9844 25.2344,569.9844 C25.5,569.9844 25.7656,569.8438 25.9375,569.625 C26.0469,569.4688 26.0781,569.2813 26.0781,568.8594 L26.0781,567.4375 C26.0781,567 26.0625,566.875 25.9688,566.7188 C25.8125,566.4531 25.5313,566.3125 25.2344,566.3125 C24.9375,566.3125 24.7344,566.4063 24.5156,566.7188 L24.3438,566.6406 Z " fill="#000000"/><text fill="#000000" font-family="FG Virgil" font-size="12" font-style="italic" lengthAdjust="spacing" textLength="74" x="52" y="568.1387">«repository»</text><text fill="#000000" font-family="FG Virgil" font-size="12" lengthAdjust="spacing" textLength="106" x="36" y="582.1074">PedidoRepository</text><path d="M8,589.9375 L8,590.2177 L17.7143,589.3851 L27.4286,590.1952 L37.1429,590.4704 L46.8571,588.9863 L56.5714,589.8339 L66.2857,589.3688 L76,589.4262 L85.7143,589.8466 L95.4286,589.0157 L105.1429,590.6757 L114.8571,589.0971 L124.5714,589.6738 L134.2857,590.5134 L144,589.9375 " fill="#F8F8F8" style="stroke:#383838;stroke-width:1.5;"/><path d="M8,597.9375 L8,598.2177 L17.7143,597.3851 L27.4286,598.1952 L37.1429,598.4704 L46.8571,596.9863 L56.5714,597.8339 L66.2857,597.3688 L76,597.4262 L85.7143,597.8466 L95.4286,597.0157 L105.1429,598.6757 L114.8571,597.0971 L124.5714,597.6738 L134.2857,598.5134 L144,597.9375 " fill="#F8F8F8" style="stroke:#383838;stroke-width:1.5;"/><!--MD5=[9a0e8f7957502662f95e783c1c3d84fe]
class ColaboradorRepository--><polygon fill="#F8F8F8" points="196,552,196,552.2102,206.1176,551.5857,216.2353,552.1933,226.3529,552.3997,236.4706,551.2866,246.5882,551.9223,256.7059,551.5735,266.8235,551.6165,276.9412,551.9318,287.0588,551.3086,297.1765,552.5536,307.2941,551.3697,317.4118,551.8022,327.5294,552.4319,337.6471,551.9142,347.7647,552.0682,357.8824,551.9681,368,552,368.1785,552,368.2391,562.7875,368.5857,573.575,368.6711,584.3625,368.6793,595.15,368,605.9375,368,606.1921,357.8824,606.4011,347.7647,606.6397,337.6471,605.2163,327.5294,606.616,317.4118,605.641,307.2941,606.4713,297.1765,605.4425,287.0588,605.869,276.9412,606.6791,266.8235,605.8888,256.7059,606.0428,246.5882,606.2761,236.4706,606.3537,226.3529,605.9336,216.2353,606.2247,206.1176,605.3651,196,605.9375,196.2844,605.9375,196.5482,595.15,196.4445,584.3625,196.613,573.575,195.5169,562.7875,196,552" style="stroke:#383838;stroke-width:1.5;"/><polygon fill="#C2C2C2" points="222.0608,573.6444,220.4484,575.8475,218.5412,579.0745,215.8136,581.2491,212.9474,582.4384,210.662,582.5416,207.7247,581.0543,204.9532,580.0827,202.8495,578.1099,201.7461,575.8515,201.0917,574.0533,200.4506,571.7045,199.41,569.6832,200.2096,567.7098,200.9102,565.548,203.5393,563.8382,205.389,561.6198,207.6784,560.8832,210.4001,560.2488,213.8904,560.6257,215.8021,561.5273,218.0247,561.9359,220.7272,564.7047,221.6693,567.6277,222.0786,569.6221,221.615,572.9086" style="stroke:#383838;stroke-width:1.0;"/><path d="M213.3438,566.6406 C212.4063,566.2031 211.8125,566.0625 210.9375,566.0625 C208.3125,566.0625 206.3125,568.1406 206.3125,570.8594 L206.3125,571.9844 C206.3125,574.5625 208.4219,576.4531 211.3125,576.4531 C212.5313,576.4531 213.6875,576.1563 214.4375,575.6094 C215.0156,575.2031 215.3438,574.75 215.3438,574.3594 C215.3438,573.9063 214.9531,573.5156 214.4844,573.5156 C214.2656,573.5156 214.0625,573.5938 213.875,573.7813 C213.4219,574.2656 213.4219,574.2656 213.2344,574.3594 C212.8125,574.625 212.125,574.75 211.3594,574.75 C209.3125,574.75 208.0156,573.6563 208.0156,571.9531 L208.0156,570.8594 C208.0156,569.0781 209.2656,567.7656 211,567.7656 C211.5781,567.7656 212.1875,567.9219 212.6563,568.1719 C213.1406,568.4531 213.3125,568.6719 213.4063,569.0781 C213.4688,569.4844 213.5,569.6094 213.6406,569.7344 C213.7813,569.875 214.0156,569.9844 214.2344,569.9844 C214.5,569.9844 214.7656,569.8438 214.9375,569.625 C215.0469,569.4688 215.0781,569.2813 215.0781,568.8594 L215.0781,567.4375 C215.0781,567 215.0625,566.875 214.9688,566.7188 C214.8125,566.4531 214.5313,566.3125 214.2344,566.3125 C213.9375,566.3125 213.7344,566.4063 213.5156,566.7188 L213.3438,566.6406 Z " fill="#000000"/><text fill="#000000" font-family="FG Virgil" font-size="12" font-style="italic" lengthAdjust="spacing" textLength="74" x="258" y="568.1387">«repository»</text><text fill="#000000" font-family="FG Virgil" font-size="12" lengthAdjust="spacing" textLength="140" x="225" y="582.1074">ColaboradorRepository</text><path d="M197,589.9375 L197,590.2177 L207,589.3851 L217,590.1952 L227,590.4704 L237,588.9863 L247,589.8339 L257,589.3688 L267,589.4262 L277,589.8466 L287,589.0157 L297,590.6757 L307,589.0971 L317,589.6738 L327,590.5134 L337,589.8231 L347,590.0285 L357,589.8949 L367,589.9375 " fill="#F8F8F8" style="stroke:#383838;stroke-width:1.5;"/><path d="M197,597.9375 L197,598.2177 L207,597.3851 L217,598.1952 L227,598.4704 L237,596.9863 L247,597.8339 L257,597.3688 L267,597.4262 L277,597.8466 L287,597.0157 L297,598.6757 L307,597.0971 L317,597.6738 L327,598.5134 L337,597.8231 L347,598.0285 L357,597.8949 L367,597.9375 " fill="#F8F8F8" style="stroke:#383838;stroke-width:1.5;"/><!--MD5=[8d4a59a50d296803310ddf203ae9ede6]
link AtribuirGrauSatisfacaoUI to AtribuirGrauSatisfacaoController--><path d="M171,112.178 L171.2802,112.178 L170.4476,123.0658 L171.2577,133.9536 L171.5329,144.8414 L170.0488,155.7292 L171,166.617 " fill="none" style="stroke:#383838;stroke-width:1.0;"/><polygon fill="#383838" points="171,171.946,171.064,171.9745,171.6738,170.0899,172.6589,168.3722,173.5217,166.6001,173.9827,164.6494,175,162.946,174.9817,162.9277,174.0995,163.6455,173.3096,164.4556,172.5839,165.3299,171.637,165.983,171,166.946,171.1305,167.0765,170.0514,165.9974,169.3534,165.2994,168.7018,164.6478,167.7798,163.7258,167,162.946,167.0208,162.9552,167.7903,164.7417,168.6544,166.5702,169.4728,168.3784,170.3784,170.2253,171,171.946" style="stroke:#383838;stroke-width:1.0;"/><!--MD5=[a27748b2e03d30591c389a80e376a00e]
link AtribuirGrauSatisfacaoController to PedidoRepository--><path d="M119.678,264.123 L119.7485,264.1843 L117.2068,266.6852 L115.0784,269.5454 L112.8154,272.2887 L110.1098,274.6472 L108.0169,277.5382 L107.9892,277.5175 L105.6826,280.3412 L103.5154,283.2692 L101.4451,286.2697 L99.0408,289.0202 L97.1043,292.1209 L97.314,292.2496 L94.9565,295.0849 L93.2113,298.2961 L91.5408,301.5531 L89.4356,304.5433 L87.5591,307.6739 L87.5866,307.6866 L86.0344,310.9331 L84.6074,314.2377 L83.1201,317.5142 L81.748,320.8441 L80,324 L80.282,324.0971 L79.2935,326.9788 L78.1231,329.7979 L77.2189,332.7086 L76.3272,335.6237 L75.0402,338.4025 L74.7313,338.3171 L74.5108,341.4464 L73.2731,344.2942 L72.8088,347.3561 L71.548,350.1975 L70.9401,353.2196 L70.9103,353.2131 L70.6019,356.3156 L69.5985,359.2664 L69.0051,362.3067 L68.4462,365.3545 L67.639,368.3481 L67.8214,368.3786 L67.1247,371.4152 L66.7397,374.5039 L65.8503,377.5083 L65.7134,380.6385 L65.0761,383.685 L65.318,383.7145 L64.8952,386.7974 L64.5925,389.8949 L63.7318,392.9243 L63.2802,396.0037 L63.1909,399.1272 L62.9156,399.1046 L62.9111,402.214 L62.5964,405.2979 L62.7316,408.4187 L62.0988,411.4765 L61.9224,414.5717 L61.7701,414.5647 L61.8813,417.6452 L61.3415,420.6955 L61.2646,423.7673 L61.6407,426.8601 L61.2102,429.9154 L61.4038,429.9182 L61.4932,432.9481 L60.9804,435.9693 L61.2219,439.0014 L61.299,442.0311 L60.9933,445.0553 L60.7834,445.0522 L60.9943,448.0213 L61.1364,450.9893 L61.4136,453.9593 L61.1657,456.9216 L61.2111,459.8883 L61.4165,459.8967 L61.0836,462.7628 L61.1471,465.6451 L61.7898,468.5512 L61.3662,471.4136 L61.8029,474.3113 L62.0287,474.3259 L62.0756,477.0992 L62.0461,479.8675 L62.1891,482.647 L62.7305,485.4525 L62.708,488.2212 L62.5755,488.2097 L63.2016,490.9028 L62.9263,493.5175 L63.676,496.2213 L63.8485,498.875 L63.8656,501.5151 L63.9739,501.5267 L64.1564,504.0323 L64.7265,506.5794 L64.9464,509.089 L65.02,511.5829 L65.2151,514.0898 L65.3333,514.1047 L65.4538,516.4331 L66.1232,518.8306 L66.1717,521.1499 L66.4756,523.5014 L66.6957,525.8423 L66.428,525.804 L66.8276,527.9822 L67.5496,530.2067 L67.8153,532.3658 L67.9176,534.5014 L68.2466,536.6696 L68.1052,536.6471 L68.4627,538.6141 L68.5697,540.5412 L69.3651,542.5779 L69.8198,544.5604 L69.8073,546.4685 " fill="none" style="stroke:#383838;stroke-width:1.0;"/><polygon fill="#383838" points="70.6976,551.6657,70.7655,551.6829,71.0483,549.7225,71.7292,547.8631,72.2804,545.9708,72.4054,543.9702,73.1204,542.1195,73.0993,542.1045,72.3509,542.961,71.7092,543.8929,71.1416,544.8772,70.3186,545.6808,69.8533,546.7375,69.9599,546.8882,68.8084,545.9126,67.968,545.3768,67.1657,544.8948,66.1424,544.1005,65.2353,543.4704,65.2542,543.483,66.3189,545.1035,67.4697,546.7815,68.579,548.4318,69.7676,550.1349,70.6976,551.6657" style="stroke:#383838;stroke-width:1.0;"/><!--MD5=[c9f55b863fe5ac3c8d5e7cb302a2e759]
link AtribuirGrauSatisfacaoController to ColaboradorRepository--><path d="M221.895,264.069 L221.9651,264.1307 L224.1274,266.6396 L226.7007,269.5104 L229.1401,272.2634 L231.1395,274.6288 L233.748,277.5306 L233.7206,277.5096 L235.839,280.3381 L238.0955,283.2726 L240.448,286.2807 L242.4696,289.035 L244.9548,292.1449 L245.162,292.2775 L246.7094,295.1057 L248.8619,298.3211 L251.0883,301.5838 L252.8851,304.5716 L254.9078,307.704 L254.935,307.7174 L256.5136,310.9568 L258.2158,314.2577 L259.8583,317.5289 L261.6147,320.8566 L263,324 L263.2785,324.1068 L264.3795,326.97 L265.3008,329.7643 L266.4851,332.6594 L267.6818,335.5593 L268.488,338.3094 L268.1826,338.2119 L269.7173,341.3511 L270.2465,344.1693 L271.5401,347.2315 L272.0466,350.0424 L273.1982,353.0593 L273.1688,353.0516 L274.3135,356.1605 L274.7705,359.0878 L275.6333,362.1223 L276.5302,365.1657 L277.1813,368.1443 L277.3621,368.1833 L277.8409,371.2068 L278.6287,374.2969 L278.9166,377.2792 L279.9501,380.4224 L280.4879,383.4586 L280.728,383.5003 L281.2187,386.58 L281.8286,389.6804 L281.8848,392.6846 L282.3469,395.7594 L283.1686,398.8966 L282.8949,398.8593 L283.5637,401.9843 L283.9242,405.0672 L284.7319,408.2111 L284.776,411.251 L285.274,414.3527 L285.1223,414.3371 L285.691,417.4368 L285.6114,420.4698 L285.9929,423.5503 L286.8254,426.6771 L286.8547,429.7213 L287.0478,429.7354 L287.4016,432.7801 L287.1547,435.7811 L287.6601,438.8369 L288.0016,441.8808 L287.9613,444.8968 L287.7515,444.8872 L288.0553,447.8702 L288.2904,450.85 L288.6605,453.8361 L288.5059,456.7981 L288.6443,459.7735 L288.8499,459.7779 L288.4603,462.6627 L288.4675,465.556 L289.0542,468.4617 L288.5739,471.3446 L288.9546,474.2459 L289.1808,474.2461 L289.044,477.0384 L288.8306,479.8307 L288.7901,482.6231 L289.1488,485.4159 L288.9425,488.2082 L288.8095,488.2054 L289.1487,490.8831 L288.5834,493.5417 L289.0466,496.2221 L288.9307,498.8902 L288.6587,501.5549 L288.7675,501.5593 L288.5787,504.0809 L288.7795,506.618 L288.6283,509.1411 L288.33,511.6583 L288.1539,514.1804 L288.2729,514.1872 L287.961,516.5369 L288.2017,518.9181 L287.8174,521.2636 L287.6902,523.6237 L287.4786,525.9791 L287.2089,525.9593 L287.1399,528.1392 L287.3958,530.3428 L287.192,532.5127 L286.8234,534.6706 L286.6834,536.8452 L286.5408,536.8327 L286.4136,538.8023 L286.0339,540.7497 L286.3484,542.7582 L286.3193,544.7365 L285.819,546.6733 " fill="none" style="stroke:#383838;stroke-width:1.0;"/><polygon fill="#383838" points="285.303,551.882,285.3639,551.9166,286.1564,550.1013,287.306,548.489,288.3393,546.8106,288.9902,544.9149,290.1704,543.32,290.154,543.2999,289.2053,543.9273,288.3395,544.6557,287.5312,545.4542,286.5245,546.0108,285.7957,546.9063,285.9384,547.0233,284.916,545.8982,284.3102,545.1147,283.7552,544.3728,282.9045,543.3884,282.2093,542.5316,282.2309,542.5388,282.818,544.3984,283.5033,546.2905,284.1412,548.1669,284.8696,550.0733,285.303,551.882" style="stroke:#383838;stroke-width:1.0;"/><!--MD5=[77833b7e9ad92adf631a2deebe0ddc85]
link AtribuirGrauSatisfacaoController to PersistenceContext--><path d="M171,264.083 L171.2802,264.083 L170.4476,274.9824 L171.2577,285.8818 L171.5329,296.7812 L170.0488,307.6806 L171,318.58 " fill="none" style="stroke:#383838;stroke-width:1.0;"/><polygon fill="#383838" points="171,323.955,171.064,323.9835,171.6738,322.0989,172.6589,320.3812,173.5217,318.6091,173.9827,316.6584,175,314.955,174.9817,314.9367,174.0995,315.6545,173.3096,316.4646,172.5839,317.3389,171.637,317.992,171,318.955,171.1305,319.0855,170.0514,318.0064,169.3534,317.3084,168.7018,316.6568,167.7798,315.7348,167,314.955,167.0208,314.9642,167.7903,316.7507,168.6544,318.5792,169.4728,320.3874,170.3784,322.2343,171,323.955" style="stroke:#383838;stroke-width:1.0;"/><!--MD5=[754b775031405e096442b27febffa290]
link PersistenceContext to RepositoryFactory--><path d="M171,378.259 L171.2802,378.259 L170.4476,389.1506 L171.2577,400.0422 L171.5329,410.9338 L170.0488,421.8254 L171,432.717 " fill="none" style="stroke:#383838;stroke-width:1.0;"/><polygon fill="#383838" points="171,437.905,171.064,437.9335,171.6738,436.0489,172.6589,434.3312,173.5217,432.5591,173.9827,430.6084,175,428.905,174.9817,428.8867,174.0995,429.6045,173.3096,430.4146,172.5839,431.2889,171.637,431.942,171,432.905,171.1305,433.0355,170.0514,431.9564,169.3534,431.2584,168.7018,430.6068,167.7798,429.6848,167,428.905,167.0208,428.9142,167.7903,430.7007,168.6544,432.5292,169.4728,434.3374,170.3784,436.1843,171,437.905" style="stroke:#383838;stroke-width:1.0;"/><!--MD5=[72c4dac676244702e0f69dd587b16d7e]
link RepositoryFactory to PedidoRepository--><path d="M148.727,492.259 L148.9407,492.4403 L141.5466,499.8703 L135.4052,508.363 L128.8559,516.5097 L120.965,523.5183 L114.8522,532.0353 L107.7384,539.7031 L101.4129,548.0396 " fill="none" style="stroke:#383838;stroke-width:1.0;"/><polygon fill="#383838" points="98.1337,551.9055,98.1641,551.9686,99.8482,550.9259,101.7105,550.2531,103.5149,549.4599,105.1282,548.2705,107.0059,547.6295,107.0038,547.6037,105.8667,547.5804,104.7403,547.6873,103.6213,547.8846,102.4767,547.7702,101.368,548.0925,101.5519,548.1076,101.066,546.9477,101.1171,545.8319,101.2337,544.7215,100.9691,543.5798,100.905,542.4546,100.9269,542.461,100.3406,544.3418,99.8536,546.2517,99.3187,548.1476,98.8753,550.0703,98.1337,551.9055" style="stroke:#383838;stroke-width:1.0;"/><!--MD5=[f69c8ab88bf9359224da8c715bf10dd8]
link RepositoryFactory to ColaboradorRepository--><path d="M197.025,492.259 L197.224,492.4563 L203.5429,498.8427 L211.0285,506.3856 L218.1343,513.5519 L223.9904,519.4797 L231.5027,527.0489 L238.0826,533.6942 L245.0336,540.7071 L252.307,548.0396 " fill="none" style="stroke:#383838;stroke-width:1.0;"/><polygon fill="#383838" points="256.138,551.9055,256.2035,551.9304,255.31,550.0149,254.8005,548.2451,254.166,546.4279,253.1203,544.4546,252.6437,542.6973,252.6178,542.6972,252.4965,543.8281,252.5057,544.9595,252.6058,546.0913,252.393,547.2218,252.6184,548.3541,252.6192,548.5387,251.4861,548.139,250.3553,548.2781,249.2249,548.4829,248.0928,548.3053,246.9616,548.3288,246.9698,548.35,248.793,549.0342,250.6537,549.8149,252.4964,550.5491,254.3736,551.3721,256.138,551.9055" style="stroke:#383838;stroke-width:1.0;"/><!--MD5=[5a1c48d5edb999dfa442b701c231f81e]
@startuml
'http://plantuml.com/skinparam.html
skinparam handwritten true
skinparam monochrome true
skinparam packageStyle rect
skinparam defaultFontName FG Virgil
skinparam shadowing false

class AtribuirGrauSatisfacaoUI <<presentation>>
class AtribuirGrauSatisfacaoController <<application>>
class PersistenceContext <<persistence>>
class RepositoryFactory <<factory>>
class PedidoRepository <<repository>>
class ColaboradorRepository <<repository>>


AtribuirGrauSatisfacaoUI - -> AtribuirGrauSatisfacaoController
AtribuirGrauSatisfacaoUI : doShow()
AtribuirGrauSatisfacaoUI : getUser()
AtribuirGrauSatisfacaoUI : pedidosPendentes(colab)
AtribuirGrauSatisfacaoUI : atribuirGrau(pedido)

AtribuirGrauSatisfacaoController : getUser()
AtribuirGrauSatisfacaoController : pedidosPendentes(colab)
AtribuirGrauSatisfacaoController : atribuirGrau(pedido)

AtribuirGrauSatisfacaoController - -> PedidoRepository
AtribuirGrauSatisfacaoController - -> ColaboradorRepository
AtribuirGrauSatisfacaoController - -> PersistenceContext
PersistenceContext - -> RepositoryFactory

RepositoryFactory - -> PedidoRepository
RepositoryFactory - -> ColaboradorRepository
@enduml

@startuml
skinparam handwritten true
skinparam monochrome true
skinparam packageStyle rect
skinparam defaultFontName FG Virgil
skinparam shadowing false

class AtribuirGrauSatisfacaoUI <<presentation>>
class AtribuirGrauSatisfacaoController <<application>>
class PersistenceContext <<persistence>>
class RepositoryFactory <<factory>>
class PedidoRepository <<repository>>
class ColaboradorRepository <<repository>>


AtribuirGrauSatisfacaoUI - -> AtribuirGrauSatisfacaoController
AtribuirGrauSatisfacaoUI : doShow()
AtribuirGrauSatisfacaoUI : getUser()
AtribuirGrauSatisfacaoUI : pedidosPendentes(colab)
AtribuirGrauSatisfacaoUI : atribuirGrau(pedido)

AtribuirGrauSatisfacaoController : getUser()
AtribuirGrauSatisfacaoController : pedidosPendentes(colab)
AtribuirGrauSatisfacaoController : atribuirGrau(pedido)

AtribuirGrauSatisfacaoController - -> PedidoRepository
AtribuirGrauSatisfacaoController - -> ColaboradorRepository
AtribuirGrauSatisfacaoController - -> PersistenceContext
PersistenceContext - -> RepositoryFactory

RepositoryFactory - -> PedidoRepository
RepositoryFactory - -> ColaboradorRepository
@enduml

PlantUML version 1.2021.7(Sun May 23 12:40:07 UTC 2021)
(GPL source distribution)
Java Runtime: Java(TM) SE Runtime Environment
JVM: Java HotSpot(TM) 64-Bit Server VM
Default Encoding: UTF-8
Language: en
Country: US
--></g></svg>