<?xml version="1.0" encoding="UTF-8" standalone="no"?><svg xmlns="http://www.w3.org/2000/svg" xmlns:xlink="http://www.w3.org/1999/xlink" contentScriptType="application/ecmascript" contentStyleType="text/css" height="634px" preserveAspectRatio="none" style="width:1147px;height:634px;background:#FFFFFF;" version="1.1" viewBox="0 0 1147 634" width="1147px" zoomAndPan="magnify"><defs/><g><polygon fill="#FFFFFF" points="144.5,93.5938,144.5,93.6638,146.5,93.4556,148.5,93.6582,150.5,93.727,152.5,93.356,154.5,93.5938,154.4223,93.5938,154.0735,103.5181,154.1165,113.4424,154.4318,123.3667,153.8086,133.291,155.0536,143.2153,153.8697,153.1396,154.3022,163.0639,154.9319,172.9882,154.4142,182.9125,154.5682,192.8368,154.4681,202.7611,154.6785,212.6854,154.7391,222.6097,155.0857,232.534,155.1711,242.4583,155.1793,252.3826,154.7546,262.3069,154.9636,272.2313,155.2022,282.1556,153.7788,292.0799,155.1785,302.0042,154.2035,311.9285,155.0338,321.8528,154.005,331.7771,154.4315,341.7014,155.2416,351.6257,154.4513,361.55,154.6053,371.4743,154.8386,381.3986,154.9162,391.3229,154.4961,401.2472,154.7872,411.1715,153.9276,421.0958,154.7844,431.0201,155.0482,440.9444,154.9445,450.8688,155.113,460.7931,154.0169,470.7174,153.8478,480.6417,153.8786,490.566,154.4411,500.4903,154.3035,510.4146,155.1814,520.3389,154.3253,530.2632,154.5,540.1875,154.5,540.0731,152.5,540.2636,150.5,539.9652,148.5,540.0145,146.5,540.4038,144.5,540.1875,144.9357,540.1875,145.2345,530.2632,144.1782,520.3389,144.8192,510.4146,145.0904,500.4903,144.0276,490.566,144.4041,480.6417,144.626,470.7174,145.1518,460.7931,144.4958,450.8688,144.9626,440.9444,143.9462,431.0201,143.8227,421.0958,145.0036,411.1715,143.7831,401.2472,145.009,391.3229,144.7066,381.3986,144.2321,371.4743,144.1462,361.55,144.9588,351.6257,144.2007,341.7014,145.0919,331.7771,143.9473,321.8528,145.1174,311.9285,144.9843,302.0042,144.745,292.0799,144.5472,282.1556,145.2266,272.2313,145.1136,262.3069,144.6693,252.3826,144.7682,242.4583,144.3697,232.534,145.2165,222.6097,144.6549,212.6854,144.6726,202.7611,143.8916,192.8368,144.0948,182.9125,145.0307,172.9882,144.9298,163.0639,144.4571,153.1396,144.1778,143.2153,144.2811,133.291,143.8138,123.3667,144.9147,113.4424,145.2396,103.5181,144.5,93.5938" style="stroke:#383838;stroke-width:1.0;"/><polygon fill="#FFFFFF" points="369.5,207.125,369.5,207.1951,371.5,206.9869,373.5,207.1894,375.5,207.2582,377.5,206.8872,379.5,207.125,379.4223,207.125,379.0735,216.9323,379.1165,226.7396,379.4318,236.5469,378.8086,246.3542,380.0536,256.1615,378.8697,265.9688,379.3022,275.776,379.9319,285.5833,379.5,295.3906,379.5,295.362,377.5,295.4134,375.5,295.38,373.5,295.4501,371.5,295.4703,369.5,295.3906,370.0857,295.3906,370.1711,285.5833,370.1793,275.776,369.7546,265.9688,369.9636,256.1615,370.2022,246.3542,368.7788,236.5469,370.1785,226.7396,369.2035,216.9323,369.5,207.125" style="stroke:#383838;stroke-width:1.0;"/><polygon fill="#FFFFFF" points="369.5,324.5234,369.5,324.5935,371.5,324.3853,373.5,324.5879,375.5,324.6567,377.5,324.2856,379.5,324.5234,379.4223,324.5234,379.0735,334.3307,379.1165,344.138,379.4318,353.9453,378.8086,363.7526,380.0536,373.5599,378.8697,383.3672,379.3022,393.1745,379.9319,402.9818,379.5,412.7891,379.5,412.7605,377.5,412.8118,375.5,412.7784,373.5,412.8486,371.5,412.8688,369.5,412.7891,370.0857,412.7891,370.1711,402.9818,370.1793,393.1745,369.7546,383.3672,369.9636,373.5599,370.2022,363.7526,368.7788,353.9453,370.1785,344.138,369.2035,334.3307,369.5,324.5234" style="stroke:#383838;stroke-width:1.0;"/><polygon fill="#FFFFFF" points="369.5,466.0547,369.5,466.1247,371.5,465.9166,373.5,466.1191,375.5,466.1879,377.5,465.8169,379.5,466.0547,379.4223,466.0547,379.0735,475.9102,379.1165,485.7656,379.4318,495.6211,378.8086,505.4766,380.0536,515.332,379.5,525.1875,379.5,524.9774,377.5,525.1216,375.5,525.3315,373.5,525.1589,371.5,525.2102,369.5,525.1875,369.4681,525.1875,369.6785,515.332,369.7391,505.4766,370.0857,495.6211,370.1711,485.7656,370.1793,475.9102,369.5,466.0547" style="stroke:#383838;stroke-width:1.0;"/><polygon fill="#FFFFFF" points="891,353.6563,891,353.7263,893,353.5181,895,353.7207,897,353.7895,899,353.4185,901,353.6563,900.9741,353.6563,900.8578,359.6563,900.8722,365.6563,900.9773,371.6563,900.7695,377.6563,901,383.6563,901,383.8408,899,383.4462,897,383.5903,895,383.8002,893,383.6277,891,383.6563,891.0227,383.6563,890.9894,377.6563,891.0595,371.6563,891.0797,365.6563,891.1952,359.6563,891,353.6563" style="stroke:#383838;stroke-width:1.0;"/><polygon fill="#FFFFFF" points="891,495.1875,891,495.2576,893,495.0494,895,495.2519,897,495.3207,899,494.9497,901,495.1875,900.9741,495.1875,900.8578,501.1875,900.8722,507.1875,900.9773,513.1875,900.7695,519.1875,901,525.1875,901,525.372,899,524.9774,897,525.1216,895,525.3315,893,525.1589,891,525.1875,891.0227,525.1875,890.9894,519.1875,891.0595,513.1875,891.0797,507.1875,891.1952,501.1875,891,495.1875" style="stroke:#383838;stroke-width:1.0;"/><polygon fill="#FFFFFF" points="1054.5,236.2578,1054.5,236.3279,1056.5,236.1197,1058.5,236.3222,1060.5,236.391,1062.5,236.02,1064.5,236.2578,1064.4741,236.2578,1064.3578,242.2578,1064.3722,248.2578,1064.4773,254.2578,1064.2695,260.2578,1064.5,266.2578,1064.5,266.4424,1062.5,266.0477,1060.5,266.1919,1058.5,266.4018,1056.5,266.2292,1054.5,266.2578,1054.5227,266.2578,1054.4894,260.2578,1054.5595,254.2578,1054.5797,248.2578,1054.6952,242.2578,1054.5,236.2578" style="stroke:#383838;stroke-width:1.0;"/><polygon fill="#FFFFFF" points="45,427.7891,45,427.9992,54.9785,427.3747,64.957,427.9823,74.9355,428.1887,84.914,427.0757,94.8925,427.7113,104.871,427.3626,114.8495,427.4056,124.828,427.7209,134.8065,427.0977,144.7849,428.3427,154.7634,427.1588,164.7419,427.5913,174.7204,428.221,184.6989,427.7033,194.6774,427.8573,204.6559,427.7571,214.6344,427.9676,224.6129,428.0282,234.5914,428.3748,244.5699,428.4601,254.5484,428.4683,264.5269,428.0437,274.5054,428.2526,284.4839,428.4913,294.4624,427.0679,304.4409,428.4676,314.4194,427.4926,324.3978,428.3229,334.3763,427.294,344.3548,427.7206,354.3333,428.5307,364.3118,427.7403,374.2903,427.8944,384.2688,428.1277,394.2473,428.2053,404.2258,427.7852,414.2043,428.0763,424.1828,427.2166,434.1613,428.0734,444.1398,428.3373,454.1183,428.2336,464.0968,428.4021,474.0753,427.306,484.0538,427.1369,494.0323,427.1677,504.0108,427.7302,513.9892,427.5925,523.9677,428.4705,533.9462,427.6144,543.9247,427.446,553.9032,428.0173,563.8817,427.1222,573.8602,427.2699,583.8387,428.438,593.8172,428.2247,603.7957,428.5236,613.7742,427.4673,623.7527,428.1083,633.7312,428.3795,643.7097,427.3167,653.6882,427.6932,663.6667,427.915,673.6452,428.4408,683.6237,427.7849,693.6022,428.2516,703.5806,427.2353,713.5591,427.1118,723.5376,428.2927,733.5161,427.0721,743.4946,428.298,753.4731,427.9957,763.4516,427.5211,773.4301,427.4353,783.4086,428.2478,793.3871,427.4897,803.3656,428.3809,813.3441,427.2363,823.3226,428.4065,833.3011,428.2734,843.2796,428.034,853.2581,427.8363,863.2366,428.5157,873.2151,428.4026,883.1935,427.9583,893.172,428.0573,903.1505,427.6588,913.129,428.5055,923.1075,427.9439,933.086,427.9616,943.0645,427.1807,953.043,427.3838,963.0215,428.3198,973,427.7891,973.4298,427.7891,972.9571,437.3707,972.6778,446.9524,972.7811,456.5341,972.3138,466.1158,973.4147,475.6974,973.7396,485.2791,973.5264,494.8608,973.6949,504.4425,972.8633,514.0241,973.0872,523.6058,973,533.1875,973,532.7999,963.0215,533.4715,953.043,533.4343,943.0645,533.7399,933.086,532.9578,923.1075,533.0531,913.129,533.631,903.1505,533.7548,893.172,532.675,883.1935,532.9936,873.2151,533.3368,863.2366,532.5767,853.2581,533.5409,843.2796,533.4455,833.3011,533.0867,823.3226,533.3297,813.3441,533.9162,803.3656,532.8746,793.3871,533.5025,783.4086,533.4731,773.4301,533.3033,763.4516,533.3284,753.4731,533.301,743.4946,532.5633,733.5161,532.7867,723.5376,532.726,713.5591,533.2513,703.5806,533.2756,693.6022,533.3492,683.6237,532.8965,673.6452,533.12,663.6667,533.0673,653.6882,533.7644,643.7097,533.6141,633.7312,532.702,623.7527,533.1146,613.7742,532.6103,603.7957,533.4759,593.8172,533.796,583.8387,533.7321,573.8602,532.7519,563.8817,533.6515,553.9032,532.4447,543.9247,533.3877,533.9462,532.8882,523.9677,533.2842,513.9892,533.4278,504.0108,533.6596,494.0323,532.4676,484.0538,533.663,474.0753,533.3657,464.0968,533.5428,454.1183,533.9353,444.1398,533.193,434.1613,533.3628,424.1828,533.4009,414.2043,533.3847,404.2258,533.1867,394.2473,533.8982,384.2688,532.5778,374.2903,533.7528,364.3118,532.5635,354.3333,532.6472,344.3548,533.2275,334.3763,533.2158,324.3978,532.6947,314.4194,533.6012,304.4409,533.2964,294.4624,533.9142,284.4839,533.8546,274.5054,532.7392,264.5269,532.7896,254.5484,533.0583,244.5699,533.543,234.5914,533.5905,224.6129,533.4887,214.6344,532.8455,204.6559,533.8239,194.6774,533.8213,184.6989,533.1402,174.7204,532.9484,164.7419,532.7861,154.7634,532.9729,144.7849,533.3249,134.8065,533.1191,124.828,532.7697,114.8495,533.6749,104.871,532.7286,94.8925,533.6899,84.914,533.6147,74.9355,533.5594,64.957,533.88,54.9785,532.9416,45,533.1875,44.6994,533.1875,45.5189,523.6058,44.4031,514.0241,44.766,504.4425,45.1155,494.8608,45.0687,485.2791,44.6415,475.6974,44.957,466.1158,45.7446,456.5341,45.6485,446.9524,44.4037,437.3707,45,427.7891" style="stroke:#000000;stroke-width:2.0;"/><path d="M149,83.5938 L149.2802,83.5938 L148.4476,93.5213 L149.2577,103.4488 L149.5329,113.3763 L148.0488,123.3039 L148.8964,133.2314 L148.4313,143.1589 L148.4887,153.0864 L148.9091,163.014 L148.0782,172.9415 L149.7382,182.869 L148.1596,192.7965 L148.7363,202.7241 L149.5759,212.6516 L148.8856,222.5791 L149.091,232.5066 L148.9574,242.4342 L149.238,252.3617 L149.3188,262.2892 L149.7809,272.2168 L149.8947,282.1443 L149.9057,292.0718 L149.3395,301.9993 L149.6181,311.9269 L149.9363,321.8544 L148.0384,331.7819 L149.9047,341.7094 L148.6047,351.637 L149.7117,361.5645 L148.34,371.492 L148.9087,381.4195 L149.9888,391.3471 L148.935,401.2746 L149.1404,411.2021 L149.4515,421.1297 L149.555,431.0572 L148.9948,440.9847 L149.383,450.9122 L148.2368,460.8398 L149.3792,470.7673 L149.7309,480.6948 L149.5927,490.6223 L149.8174,500.5499 L148.3559,510.4774 L148.1304,520.4049 L148.1715,530.3324 L148.9215,540.26 L149,550.1875 " fill="none" style="stroke:#383838;stroke-width:1.0;stroke-dasharray:5.0,5.0;"/><path d="M374,83.5938 L374.2802,83.5938 L373.4476,93.5213 L374.2577,103.4488 L374.5329,113.3763 L373.0488,123.3039 L373.8964,133.2314 L373.4313,143.1589 L373.4887,153.0864 L373.9091,163.014 L373.0782,172.9415 L374.7382,182.869 L373.1596,192.7965 L373.7363,202.7241 L374.5759,212.6516 L373.8856,222.5791 L374.091,232.5066 L373.9574,242.4342 L374.238,252.3617 L374.3188,262.2892 L374.7809,272.2168 L374.8947,282.1443 L374.9057,292.0718 L374.3395,301.9993 L374.6181,311.9269 L374.9363,321.8544 L373.0384,331.7819 L374.9047,341.7094 L373.6047,351.637 L374.7117,361.5645 L373.34,371.492 L373.9087,381.4195 L374.9888,391.3471 L373.935,401.2746 L374.1404,411.2021 L374.4515,421.1297 L374.555,431.0572 L373.9948,440.9847 L374.383,450.9122 L373.2368,460.8398 L374.3792,470.7673 L374.7309,480.6948 L374.5927,490.6223 L374.8174,500.5499 L373.3559,510.4774 L373.1304,520.4049 L373.1715,530.3324 L373.9215,540.26 L374,550.1875 " fill="none" style="stroke:#383838;stroke-width:1.0;stroke-dasharray:5.0,5.0;"/><path d="M583,83.5938 L583.2802,83.5938 L582.4476,93.5213 L583.2577,103.4488 L583.5329,113.3763 L582.0488,123.3039 L582.8964,133.2314 L582.4313,143.1589 L582.4887,153.0864 L582.9091,163.014 L582.0782,172.9415 L583.7382,182.869 L582.1596,192.7965 L582.7363,202.7241 L583.5759,212.6516 L582.8856,222.5791 L583.091,232.5066 L582.9574,242.4342 L583.238,252.3617 L583.3188,262.2892 L583.7809,272.2168 L583.8947,282.1443 L583.9057,292.0718 L583.3395,301.9993 L583.6181,311.9269 L583.9363,321.8544 L582.0384,331.7819 L583.9047,341.7094 L582.6047,351.637 L583.7117,361.5645 L582.34,371.492 L582.9087,381.4195 L583.9888,391.3471 L582.935,401.2746 L583.1404,411.2021 L583.4515,421.1297 L583.555,431.0572 L582.9948,440.9847 L583.383,450.9122 L582.2368,460.8398 L583.3792,470.7673 L583.7309,480.6948 L583.5927,490.6223 L583.8174,500.5499 L582.3559,510.4774 L582.1304,520.4049 L582.1715,530.3324 L582.9215,540.26 L583,550.1875 " fill="none" style="stroke:#383838;stroke-width:1.0;stroke-dasharray:5.0,5.0;"/><path d="M745,83.5938 L745.2802,83.5938 L744.4476,93.5213 L745.2577,103.4488 L745.5329,113.3763 L744.0488,123.3039 L744.8964,133.2314 L744.4313,143.1589 L744.4887,153.0864 L744.9091,163.014 L744.0782,172.9415 L745.7382,182.869 L744.1596,192.7965 L744.7363,202.7241 L745.5759,212.6516 L744.8856,222.5791 L745.091,232.5066 L744.9574,242.4342 L745.238,252.3617 L745.3188,262.2892 L745.7809,272.2168 L745.8947,282.1443 L745.9057,292.0718 L745.3395,301.9993 L745.6181,311.9269 L745.9363,321.8544 L744.0384,331.7819 L745.9047,341.7094 L744.6047,351.637 L745.7117,361.5645 L744.34,371.492 L744.9087,381.4195 L745.9888,391.3471 L744.935,401.2746 L745.1404,411.2021 L745.4515,421.1297 L745.555,431.0572 L744.9948,440.9847 L745.383,450.9122 L744.2368,460.8398 L745.3792,470.7673 L745.7309,480.6948 L745.5927,490.6223 L745.8174,500.5499 L744.3559,510.4774 L744.1304,520.4049 L744.1715,530.3324 L744.9215,540.26 L745,550.1875 " fill="none" style="stroke:#383838;stroke-width:1.0;stroke-dasharray:5.0,5.0;"/><path d="M896,83.5938 L896.2802,83.5938 L895.4476,93.5213 L896.2577,103.4488 L896.5329,113.3763 L895.0488,123.3039 L895.8964,133.2314 L895.4313,143.1589 L895.4887,153.0864 L895.9091,163.014 L895.0782,172.9415 L896.7382,182.869 L895.1596,192.7965 L895.7363,202.7241 L896.5759,212.6516 L895.8856,222.5791 L896.091,232.5066 L895.9574,242.4342 L896.238,252.3617 L896.3188,262.2892 L896.7809,272.2168 L896.8947,282.1443 L896.9057,292.0718 L896.3395,301.9993 L896.6181,311.9269 L896.9363,321.8544 L895.0384,331.7819 L896.9047,341.7094 L895.6047,351.637 L896.7117,361.5645 L895.34,371.492 L895.9087,381.4195 L896.9888,391.3471 L895.935,401.2746 L896.1404,411.2021 L896.4515,421.1297 L896.555,431.0572 L895.9948,440.9847 L896.383,450.9122 L895.2368,460.8398 L896.3792,470.7673 L896.7309,480.6948 L896.5927,490.6223 L896.8174,500.5499 L895.3559,510.4774 L895.1304,520.4049 L895.1715,530.3324 L895.9215,540.26 L896,550.1875 " fill="none" style="stroke:#383838;stroke-width:1.0;stroke-dasharray:5.0,5.0;"/><path d="M1059,83.5938 L1059.2802,83.5938 L1058.4476,93.5213 L1059.2577,103.4488 L1059.5329,113.3763 L1058.0488,123.3039 L1058.8964,133.2314 L1058.4313,143.1589 L1058.4887,153.0864 L1058.9091,163.014 L1058.0782,172.9415 L1059.7382,182.869 L1058.1596,192.7965 L1058.7363,202.7241 L1059.5759,212.6516 L1058.8856,222.5791 L1059.091,232.5066 L1058.9574,242.4342 L1059.238,252.3617 L1059.3188,262.2892 L1059.7809,272.2168 L1059.8947,282.1443 L1059.9057,292.0718 L1059.3395,301.9993 L1059.6181,311.9269 L1059.9363,321.8544 L1058.0384,331.7819 L1059.9047,341.7094 L1058.6047,351.637 L1059.7117,361.5645 L1058.34,371.492 L1058.9087,381.4195 L1059.9888,391.3471 L1058.935,401.2746 L1059.1404,411.2021 L1059.4515,421.1297 L1059.555,431.0572 L1058.9948,440.9847 L1059.383,450.9122 L1058.2368,460.8398 L1059.3792,470.7673 L1059.7309,480.6948 L1059.5927,490.6223 L1059.8174,500.5499 L1058.3559,510.4774 L1058.1304,520.4049 L1058.1715,530.3324 L1058.9215,540.26 L1059,550.1875 " fill="none" style="stroke:#383838;stroke-width:1.0;stroke-dasharray:5.0,5.0;"/><polygon fill="#F8F8F8" points="55,36,55,36.2102,64.9474,35.5857,74.8947,36.1933,84.8421,36.3997,94.7895,35.2866,104.7368,35.9223,114.6842,35.5735,124.6316,35.6165,134.5789,35.9318,144.5263,35.3086,154.4737,36.5536,164.4211,35.3697,174.3684,35.8022,184.3158,36.4319,194.2632,35.9142,204.2105,36.0682,214.1579,35.9681,224.1053,36.1785,234.0526,36.2391,244,36,244.5857,36,244.6711,45.3188,244.6793,54.6375,244.2546,63.9563,244.4636,73.275,244,82.5938,244,83.296,234.0526,81.8726,224.1053,83.2723,214.1579,82.2972,204.2105,83.1276,194.2632,82.0987,184.3158,82.5253,174.3684,83.3354,164.4211,82.545,154.4737,82.6991,144.5263,82.9324,134.5789,83.01,124.6316,82.5898,114.6842,82.881,104.7368,82.0213,94.7895,82.8781,84.8421,83.1419,74.8947,83.0383,64.9474,83.2068,55,82.5938,54.5169,82.5938,54.3478,73.275,54.3786,63.9563,54.9411,54.6375,54.8035,45.3188,55,36" style="stroke:#383838;stroke-width:1.5;"/><text fill="#000000" font-family="FG Virgil" font-size="14" font-style="italic" lengthAdjust="spacing" textLength="108" x="95.5" y="55.9951">«presentation»</text><text fill="#000000" font-family="FG Virgil" font-size="14" lengthAdjust="spacing" textLength="175" x="62" y="72.292">AtribuirGrauSatisfacaoUI</text><polygon fill="#F8F8F8" points="55,549.1875,55,549.3977,64.9474,548.7732,74.8947,549.3808,84.8421,549.5872,94.7895,548.4741,104.7368,549.1098,114.6842,548.761,124.6316,548.804,134.5789,549.1193,144.5263,548.4961,154.4737,549.7411,164.4211,548.5572,174.3684,548.9897,184.3158,549.6194,194.2632,549.1017,204.2105,549.2557,214.1579,549.1556,224.1053,549.366,234.0526,549.4266,244,549.1875,244.5857,549.1875,244.6711,558.5063,244.6793,567.825,244.2546,577.1438,244.4636,586.4625,244,595.7813,244,596.4835,234.0526,595.0601,224.1053,596.4598,214.1579,595.4847,204.2105,596.3151,194.2632,595.2862,184.3158,595.7128,174.3684,596.5229,164.4211,595.7325,154.4737,595.8866,144.5263,596.1199,134.5789,596.1975,124.6316,595.7773,114.6842,596.0685,104.7368,595.2088,94.7895,596.0656,84.8421,596.3294,74.8947,596.2258,64.9474,596.3943,55,595.7813,54.5169,595.7813,54.3478,586.4625,54.3786,577.1438,54.9411,567.825,54.8035,558.5063,55,549.1875" style="stroke:#383838;stroke-width:1.5;"/><text fill="#000000" font-family="FG Virgil" font-size="14" font-style="italic" lengthAdjust="spacing" textLength="108" x="95.5" y="569.1826">«presentation»</text><text fill="#000000" font-family="FG Virgil" font-size="14" lengthAdjust="spacing" textLength="175" x="62" y="585.4795">AtribuirGrauSatisfacaoUI</text><text fill="#000000" font-family="FG Virgil" font-size="14" font-style="italic" lengthAdjust="spacing" textLength="97" x="323" y="63.9951">«application»</text><text fill="#000000" font-family="FG Virgil" font-size="14" lengthAdjust="spacing" textLength="235" x="254" y="80.292">AtribuirGrauSatisfacaoController</text><polygon fill="#F8F8F8" points="386.5663,37.9189,384.8073,40.3223,382.7268,43.8426,379.7512,46.215,376.6244,47.5123,374.1313,47.6249,370.9269,46.0024,367.9035,44.9425,365.6086,42.7904,364.4048,40.3267,363.6909,38.3649,362.9915,35.8026,361.8564,33.5976,362.7287,31.4447,363.4929,29.0864,366.3611,27.2212,368.3789,24.8012,370.8764,23.9976,373.8456,23.3055,377.6532,23.7167,379.7386,24.7002,382.1633,25.146,385.1115,28.1665,386.1392,31.3552,386.5857,33.5309,386.08,37.1162" style="stroke:#383838;stroke-width:2.0;"/><polygon fill="#383838" points="370.5,23,370.5449,23.0538,371.6116,21.8939,372.9412,21.0495,374.1853,20.1023,375.1478,18.8173,376.5,18,376.4759,17.9904,375.968,18.9472,375.5813,19.9525,375.2789,20.9916,374.686,21.9144,374.5,23,374.6713,23.0685,374.7049,23.922,375.2388,24.9755,375.8337,26.0535,376.0735,26.9894,376.5,28,376.5146,28.0175,375.2932,26.9918,374.1381,26.0457,372.951,25.0612,371.825,24.15,370.5,23" style="stroke:#383838;stroke-width:1.0;"/><text fill="#000000" font-family="FG Virgil" font-size="14" font-style="italic" lengthAdjust="spacing" textLength="97" x="323" y="562.1826">«application»</text><text fill="#000000" font-family="FG Virgil" font-size="14" lengthAdjust="spacing" textLength="235" x="254" y="578.4795">AtribuirGrauSatisfacaoController</text><polygon fill="#F8F8F8" points="386.5663,600.7001,384.8073,603.1036,382.7268,606.6238,379.7512,608.9962,376.6244,610.2936,374.1313,610.4061,370.9269,608.7837,367.9035,607.7237,365.6086,605.5716,364.4048,603.1079,363.6909,601.1462,362.9915,598.5838,361.8564,596.3789,362.7287,594.226,363.4929,591.8677,366.3611,590.0025,368.3789,587.5824,370.8764,586.7788,373.8456,586.0868,377.6532,586.4979,379.7386,587.4815,382.1633,587.9273,385.1115,590.9478,386.1392,594.1365,386.5857,596.3122,386.08,599.8975" style="stroke:#383838;stroke-width:2.0;"/><polygon fill="#383838" points="370.5,585.7813,370.5449,585.8351,371.6116,584.6752,372.9412,583.8307,374.1853,582.8836,375.1478,581.5986,376.5,580.7813,376.4759,580.7716,375.968,581.7285,375.5813,582.7338,375.2789,583.7728,374.686,584.6957,374.5,585.7813,374.6713,585.8498,374.7049,586.7032,375.2388,587.7568,375.8337,588.8347,376.0735,589.7706,376.5,590.7813,376.5146,590.7987,375.2932,589.7731,374.1381,588.827,372.951,587.8425,371.825,586.9312,370.5,585.7813" style="stroke:#383838;stroke-width:1.0;"/><polygon fill="#F8F8F8" points="505,36,505,36.2102,514.8125,35.5857,524.625,36.1933,534.4375,36.3997,544.25,35.2866,554.0625,35.9223,563.875,35.5735,573.6875,35.6165,583.5,35.9318,593.3125,35.3086,603.125,36.5536,612.9375,35.3697,622.75,35.8022,632.5625,36.4319,642.375,35.9142,652.1875,36.0682,662,36,661.9681,36,662.1785,45.3188,662.2391,54.6375,662.5857,63.9563,662.6711,73.275,662,82.5938,662,83.273,652.1875,82.8484,642.375,83.0573,632.5625,83.296,622.75,81.8726,612.9375,83.2723,603.125,82.2972,593.3125,83.1276,583.5,82.0987,573.6875,82.5253,563.875,83.3354,554.0625,82.545,544.25,82.6991,534.4375,82.9324,524.625,83.01,514.8125,82.5898,505,82.5938,505.2872,82.5938,504.4276,73.275,505.2844,63.9563,505.5482,54.6375,505.4445,45.3188,505,36" style="stroke:#383838;stroke-width:1.5;"/><text fill="#000000" font-family="FG Virgil" font-size="14" font-style="italic" lengthAdjust="spacing" textLength="100" x="533.5" y="55.9951">«persistence»</text><text fill="#000000" font-family="FG Virgil" font-size="14" lengthAdjust="spacing" textLength="143" x="512" y="72.292">PersistenceContext</text><polygon fill="#F8F8F8" points="505,549.1875,505,549.3977,514.8125,548.7732,524.625,549.3808,534.4375,549.5872,544.25,548.4741,554.0625,549.1098,563.875,548.761,573.6875,548.804,583.5,549.1193,593.3125,548.4961,603.125,549.7411,612.9375,548.5572,622.75,548.9897,632.5625,549.6194,642.375,549.1017,652.1875,549.2557,662,549.1875,661.9681,549.1875,662.1785,558.5063,662.2391,567.825,662.5857,577.1438,662.6711,586.4625,662,595.7813,662,596.4605,652.1875,596.0359,642.375,596.2448,632.5625,596.4835,622.75,595.0601,612.9375,596.4598,603.125,595.4847,593.3125,596.3151,583.5,595.2862,573.6875,595.7128,563.875,596.5229,554.0625,595.7325,544.25,595.8866,534.4375,596.1199,524.625,596.1975,514.8125,595.7773,505,595.7813,505.2872,595.7813,504.4276,586.4625,505.2844,577.1438,505.5482,567.825,505.4445,558.5063,505,549.1875" style="stroke:#383838;stroke-width:1.5;"/><text fill="#000000" font-family="FG Virgil" font-size="14" font-style="italic" lengthAdjust="spacing" textLength="100" x="533.5" y="569.1826">«persistence»</text><text fill="#000000" font-family="FG Virgil" font-size="14" lengthAdjust="spacing" textLength="143" x="512" y="585.4795">PersistenceContext</text><polygon fill="#F8F8F8" points="672,36,672,36.2102,681.8,35.5857,691.6,36.1933,701.4,36.3997,711.2,35.2866,721,35.9223,730.8,35.5735,740.6,35.6165,750.4,35.9318,760.2,35.3086,770,36.5536,779.8,35.3697,789.6,35.8022,799.4,36.4319,809.2,35.9142,819,36,819.0682,36,818.9681,45.3188,819.1785,54.6375,819.2391,63.9563,819.5857,73.275,819,82.5938,819,83.2648,809.2,83.273,799.4,82.8484,789.6,83.0573,779.8,83.296,770,81.8726,760.2,83.2723,750.4,82.2972,740.6,83.1276,730.8,82.0987,721,82.5253,711.2,83.3354,701.4,82.545,691.6,82.6991,681.8,82.9324,672,82.5938,672.4162,82.5938,671.9961,73.275,672.2872,63.9563,671.4276,54.6375,672.2844,45.3188,672,36" style="stroke:#383838;stroke-width:1.5;"/><text fill="#000000" font-family="FG Virgil" font-size="14" font-style="italic" lengthAdjust="spacing" textLength="68" x="711.5" y="55.9951">«factory»</text><text fill="#000000" font-family="FG Virgil" font-size="14" lengthAdjust="spacing" textLength="133" x="679" y="72.292">RepositoryFactory</text><polygon fill="#F8F8F8" points="672,549.1875,672,549.3977,681.8,548.7732,691.6,549.3808,701.4,549.5872,711.2,548.4741,721,549.1098,730.8,548.761,740.6,548.804,750.4,549.1193,760.2,548.4961,770,549.7411,779.8,548.5572,789.6,548.9897,799.4,549.6194,809.2,549.1017,819,549.1875,819.0682,549.1875,818.9681,558.5063,819.1785,567.825,819.2391,577.1438,819.5857,586.4625,819,595.7813,819,596.4523,809.2,596.4605,799.4,596.0359,789.6,596.2448,779.8,596.4835,770,595.0601,760.2,596.4598,750.4,595.4847,740.6,596.3151,730.8,595.2862,721,595.7128,711.2,596.5229,701.4,595.7325,691.6,595.8866,681.8,596.1199,672,595.7813,672.4162,595.7813,671.9961,586.4625,672.2872,577.1438,671.4276,567.825,672.2844,558.5063,672,549.1875" style="stroke:#383838;stroke-width:1.5;"/><text fill="#000000" font-family="FG Virgil" font-size="14" font-style="italic" lengthAdjust="spacing" textLength="68" x="711.5" y="569.1826">«factory»</text><text fill="#000000" font-family="FG Virgil" font-size="14" lengthAdjust="spacing" textLength="133" x="679" y="585.4795">RepositoryFactory</text><text fill="#000000" font-family="FG Virgil" font-size="14" font-style="italic" lengthAdjust="spacing" textLength="90" x="848" y="63.9951">«repository»</text><text fill="#000000" font-family="FG Virgil" font-size="14" lengthAdjust="spacing" textLength="128" x="829" y="80.292">PedidoRepository</text><path d="M878,15 L878,15 L878.0651,15.067 L879.6716,13.118 L881.6599,11.5616 L883.5238,9.8774 L884.979,7.7727 L887,6.25 L886.9952,6.2158 L888.7739,5.8122 L890.5766,5.5812 L892.3958,5.47 L894.1577,4.9456 L896,5 L896,5 L896.0339,5.2437 L897.7615,4.9725 L899.5879,5.4129 L901.4264,5.9402 L903.1948,5.9622 L905,6.25 L905.0211,6.2717 L906.7901,7.9898 L908.6553,9.8069 L910.4741,11.5762 L912.3815,13.4366 L914,15 L914.5965,15 L914.6038,20.2 L914.2263,25.4 L914.4121,30.6 L914.6242,35.8 L914,41 L914,41 L913.7766,40.7702 L912.4102,42.9662 L910.3081,44.4055 L908.7654,46.4201 L906.6466,47.8423 L905,49.75 L904.9958,49.7198 L903.2453,50.3265 L901.397,50.2285 L899.6064,50.5464 L897.8207,50.8991 L896,51 L896,51 L896.0254,51.1832 L894.1998,50.7483 L892.4176,50.6264 L890.565,49.998 L888.8174,50.1252 L887,49.75 L887.1698,49.9247 L885.3377,48.1417 L883.5899,46.4453 L881.4503,44.3461 L879.5979,42.5422 L878,41 L877.4476,41 L877.9477,35.8 L877.8253,30.6 L878.6057,25.4 L877.8447,20.2 L878,15 " fill="#F8F8F8" style="stroke:#000000;stroke-width:1.5;"/><path d="M878,15 L878,15 L878.0651,15.067 L879.6716,16.618 L881.6599,18.5616 L883.5238,20.3774 L884.979,21.7727 L887,23.75 L886.9952,23.7158 L888.7739,23.8122 L890.5766,24.0812 L892.3958,24.47 L894.1577,24.4456 L896,25 L896,25 L896.0339,25.2437 L897.7615,24.4725 L899.5879,24.4129 L901.4264,24.4402 L903.1948,23.9622 L905,23.75 L905.0211,23.7717 L906.7901,21.9898 L908.6553,20.3069 L910.4741,18.5762 L912.3815,16.9366 L914,15 " fill="none" style="stroke:#000000;stroke-width:1.5;"/><text fill="#000000" font-family="FG Virgil" font-size="14" font-style="italic" lengthAdjust="spacing" textLength="90" x="848" y="562.1826">«repository»</text><text fill="#000000" font-family="FG Virgil" font-size="14" lengthAdjust="spacing" textLength="128" x="829" y="578.4795">PedidoRepository</text><path d="M878,591.7813 L878,591.7813 L878.0651,591.8482 L879.6716,589.8992 L881.6599,588.3428 L883.5238,586.6586 L884.979,584.5539 L887,583.0313 L886.9952,582.997 L888.7739,582.5935 L890.5766,582.3624 L892.3958,582.2512 L894.1577,581.7269 L896,581.7813 L896,581.7813 L896.0339,582.025 L897.7615,581.7538 L899.5879,582.1942 L901.4264,582.7214 L903.1948,582.7435 L905,583.0313 L905.0211,583.053 L906.7901,584.7711 L908.6553,586.5881 L910.4741,588.3575 L912.3815,590.2179 L914,591.7813 L914.5965,591.7813 L914.6038,596.9813 L914.2263,602.1813 L914.4121,607.3813 L914.6242,612.5813 L914,617.7813 L914,617.7813 L913.7766,617.5514 L912.4102,619.7475 L910.3081,621.1868 L908.7654,623.2014 L906.6466,624.6235 L905,626.5313 L904.9958,626.5011 L903.2453,627.1077 L901.397,627.0098 L899.6064,627.3276 L897.8207,627.6803 L896,627.7813 L896,627.7813 L896.0254,627.9645 L894.1998,627.5295 L892.4176,627.4077 L890.565,626.7793 L888.8174,626.9064 L887,626.5313 L887.1698,626.7059 L885.3377,624.9229 L883.5899,623.2266 L881.4503,621.1273 L879.5979,619.3234 L878,617.7813 L877.4476,617.7813 L877.9477,612.5813 L877.8253,607.3813 L878.6057,602.1813 L877.8447,596.9813 L878,591.7813 " fill="#F8F8F8" style="stroke:#000000;stroke-width:1.5;"/><path d="M878,591.7813 L878,591.7813 L878.0651,591.8482 L879.6716,593.3992 L881.6599,595.3428 L883.5238,597.1586 L884.979,598.5539 L887,600.5313 L886.9952,600.497 L888.7739,600.5935 L890.5766,600.8624 L892.3958,601.2512 L894.1577,601.2269 L896,601.7813 L896,601.7813 L896.0339,602.025 L897.7615,601.2538 L899.5879,601.1942 L901.4264,601.2214 L903.1948,600.7435 L905,600.5313 L905.0211,600.553 L906.7901,598.7711 L908.6553,597.0881 L910.4741,595.3575 L912.3815,593.7179 L914,591.7813 " fill="none" style="stroke:#000000;stroke-width:1.5;"/><text fill="#000000" font-family="FG Virgil" font-size="14" font-style="italic" lengthAdjust="spacing" textLength="90" x="1011.5" y="63.9951">«repository»</text><text fill="#000000" font-family="FG Virgil" font-size="14" lengthAdjust="spacing" textLength="167" x="973" y="80.292">ColaboradorRepository</text><path d="M1041.5,15 L1041.5,15 L1041.5651,15.067 L1043.1716,13.118 L1045.1599,11.5616 L1047.0238,9.8774 L1048.479,7.7727 L1050.5,6.25 L1050.4952,6.2158 L1052.2739,5.8122 L1054.0766,5.5812 L1055.8958,5.47 L1057.6577,4.9456 L1059.5,5 L1059.5,5 L1059.5339,5.2437 L1061.2615,4.9725 L1063.0879,5.4129 L1064.9264,5.9402 L1066.6948,5.9622 L1068.5,6.25 L1068.5211,6.2717 L1070.2901,7.9898 L1072.1553,9.8069 L1073.9741,11.5762 L1075.8815,13.4366 L1077.5,15 L1078.0965,15 L1078.1038,20.2 L1077.7263,25.4 L1077.9121,30.6 L1078.1242,35.8 L1077.5,41 L1077.5,41 L1077.2766,40.7702 L1075.9102,42.9662 L1073.8081,44.4055 L1072.2654,46.4201 L1070.1466,47.8423 L1068.5,49.75 L1068.4958,49.7198 L1066.7453,50.3265 L1064.897,50.2285 L1063.1064,50.5464 L1061.3207,50.8991 L1059.5,51 L1059.5,51 L1059.5254,51.1832 L1057.6998,50.7483 L1055.9176,50.6264 L1054.065,49.998 L1052.3174,50.1252 L1050.5,49.75 L1050.6698,49.9247 L1048.8377,48.1417 L1047.0899,46.4453 L1044.9503,44.3461 L1043.0979,42.5422 L1041.5,41 L1040.9476,41 L1041.4477,35.8 L1041.3253,30.6 L1042.1057,25.4 L1041.3447,20.2 L1041.5,15 " fill="#F8F8F8" style="stroke:#000000;stroke-width:1.5;"/><path d="M1041.5,15 L1041.5,15 L1041.5651,15.067 L1043.1716,16.618 L1045.1599,18.5616 L1047.0238,20.3774 L1048.479,21.7727 L1050.5,23.75 L1050.4952,23.7158 L1052.2739,23.8122 L1054.0766,24.0812 L1055.8958,24.47 L1057.6577,24.4456 L1059.5,25 L1059.5,25 L1059.5339,25.2437 L1061.2615,24.4725 L1063.0879,24.4129 L1064.9264,24.4402 L1066.6948,23.9622 L1068.5,23.75 L1068.5211,23.7717 L1070.2901,21.9898 L1072.1553,20.3069 L1073.9741,18.5762 L1075.8815,16.9366 L1077.5,15 " fill="none" style="stroke:#000000;stroke-width:1.5;"/><text fill="#000000" font-family="FG Virgil" font-size="14" font-style="italic" lengthAdjust="spacing" textLength="90" x="1011.5" y="562.1826">«repository»</text><text fill="#000000" font-family="FG Virgil" font-size="14" lengthAdjust="spacing" textLength="167" x="973" y="578.4795">ColaboradorRepository</text><path d="M1041.5,591.7813 L1041.5,591.7813 L1041.5651,591.8482 L1043.1716,589.8992 L1045.1599,588.3428 L1047.0238,586.6586 L1048.479,584.5539 L1050.5,583.0313 L1050.4952,582.997 L1052.2739,582.5935 L1054.0766,582.3624 L1055.8958,582.2512 L1057.6577,581.7269 L1059.5,581.7813 L1059.5,581.7813 L1059.5339,582.025 L1061.2615,581.7538 L1063.0879,582.1942 L1064.9264,582.7214 L1066.6948,582.7435 L1068.5,583.0313 L1068.5211,583.053 L1070.2901,584.7711 L1072.1553,586.5881 L1073.9741,588.3575 L1075.8815,590.2179 L1077.5,591.7813 L1078.0965,591.7813 L1078.1038,596.9813 L1077.7263,602.1813 L1077.9121,607.3813 L1078.1242,612.5813 L1077.5,617.7813 L1077.5,617.7813 L1077.2766,617.5514 L1075.9102,619.7475 L1073.8081,621.1868 L1072.2654,623.2014 L1070.1466,624.6235 L1068.5,626.5313 L1068.4958,626.5011 L1066.7453,627.1077 L1064.897,627.0098 L1063.1064,627.3276 L1061.3207,627.6803 L1059.5,627.7813 L1059.5,627.7813 L1059.5254,627.9645 L1057.6998,627.5295 L1055.9176,627.4077 L1054.065,626.7793 L1052.3174,626.9064 L1050.5,626.5313 L1050.6698,626.7059 L1048.8377,624.9229 L1047.0899,623.2266 L1044.9503,621.1273 L1043.0979,619.3234 L1041.5,617.7813 L1040.9476,617.7813 L1041.4477,612.5813 L1041.3253,607.3813 L1042.1057,602.1813 L1041.3447,596.9813 L1041.5,591.7813 " fill="#F8F8F8" style="stroke:#000000;stroke-width:1.5;"/><path d="M1041.5,591.7813 L1041.5,591.7813 L1041.5651,591.8482 L1043.1716,593.3992 L1045.1599,595.3428 L1047.0238,597.1586 L1048.479,598.5539 L1050.5,600.5313 L1050.4952,600.497 L1052.2739,600.5935 L1054.0766,600.8624 L1055.8958,601.2512 L1057.6577,601.2269 L1059.5,601.7813 L1059.5,601.7813 L1059.5339,602.025 L1061.2615,601.2538 L1063.0879,601.1942 L1064.9264,601.2214 L1066.6948,600.7435 L1068.5,600.5313 L1068.5211,600.553 L1070.2901,598.7711 L1072.1553,597.0881 L1073.9741,595.3575 L1075.8815,593.7179 L1077.5,591.7813 " fill="none" style="stroke:#000000;stroke-width:1.5;"/><polygon fill="#FFFFFF" points="144.5,93.5938,144.5,93.6638,146.5,93.4556,148.5,93.6582,150.5,93.727,152.5,93.356,154.5,93.5938,154.4223,93.5938,154.0735,103.5181,154.1165,113.4424,154.4318,123.3667,153.8086,133.291,155.0536,143.2153,153.8697,153.1396,154.3022,163.0639,154.9319,172.9882,154.4142,182.9125,154.5682,192.8368,154.4681,202.7611,154.6785,212.6854,154.7391,222.6097,155.0857,232.534,155.1711,242.4583,155.1793,252.3826,154.7546,262.3069,154.9636,272.2313,155.2022,282.1556,153.7788,292.0799,155.1785,302.0042,154.2035,311.9285,155.0338,321.8528,154.005,331.7771,154.4315,341.7014,155.2416,351.6257,154.4513,361.55,154.6053,371.4743,154.8386,381.3986,154.9162,391.3229,154.4961,401.2472,154.7872,411.1715,153.9276,421.0958,154.7844,431.0201,155.0482,440.9444,154.9445,450.8688,155.113,460.7931,154.0169,470.7174,153.8478,480.6417,153.8786,490.566,154.4411,500.4903,154.3035,510.4146,155.1814,520.3389,154.3253,530.2632,154.5,540.1875,154.5,540.0731,152.5,540.2636,150.5,539.9652,148.5,540.0145,146.5,540.4038,144.5,540.1875,144.9357,540.1875,145.2345,530.2632,144.1782,520.3389,144.8192,510.4146,145.0904,500.4903,144.0276,490.566,144.4041,480.6417,144.626,470.7174,145.1518,460.7931,144.4958,450.8688,144.9626,440.9444,143.9462,431.0201,143.8227,421.0958,145.0036,411.1715,143.7831,401.2472,145.009,391.3229,144.7066,381.3986,144.2321,371.4743,144.1462,361.55,144.9588,351.6257,144.2007,341.7014,145.0919,331.7771,143.9473,321.8528,145.1174,311.9285,144.9843,302.0042,144.745,292.0799,144.5472,282.1556,145.2266,272.2313,145.1136,262.3069,144.6693,252.3826,144.7682,242.4583,144.3697,232.534,145.2165,222.6097,144.6549,212.6854,144.6726,202.7611,143.8916,192.8368,144.0948,182.9125,145.0307,172.9882,144.9298,163.0639,144.4571,153.1396,144.1778,143.2153,144.2811,133.291,143.8138,123.3667,144.9147,113.4424,145.2396,103.5181,144.5,93.5938" style="stroke:#383838;stroke-width:1.0;"/><polygon fill="#FFFFFF" points="369.5,207.125,369.5,207.1951,371.5,206.9869,373.5,207.1894,375.5,207.2582,377.5,206.8872,379.5,207.125,379.4223,207.125,379.0735,216.9323,379.1165,226.7396,379.4318,236.5469,378.8086,246.3542,380.0536,256.1615,378.8697,265.9688,379.3022,275.776,379.9319,285.5833,379.5,295.3906,379.5,295.362,377.5,295.4134,375.5,295.38,373.5,295.4501,371.5,295.4703,369.5,295.3906,370.0857,295.3906,370.1711,285.5833,370.1793,275.776,369.7546,265.9688,369.9636,256.1615,370.2022,246.3542,368.7788,236.5469,370.1785,226.7396,369.2035,216.9323,369.5,207.125" style="stroke:#383838;stroke-width:1.0;"/><polygon fill="#FFFFFF" points="369.5,324.5234,369.5,324.5935,371.5,324.3853,373.5,324.5879,375.5,324.6567,377.5,324.2856,379.5,324.5234,379.4223,324.5234,379.0735,334.3307,379.1165,344.138,379.4318,353.9453,378.8086,363.7526,380.0536,373.5599,378.8697,383.3672,379.3022,393.1745,379.9319,402.9818,379.5,412.7891,379.5,412.7605,377.5,412.8118,375.5,412.7784,373.5,412.8486,371.5,412.8688,369.5,412.7891,370.0857,412.7891,370.1711,402.9818,370.1793,393.1745,369.7546,383.3672,369.9636,373.5599,370.2022,363.7526,368.7788,353.9453,370.1785,344.138,369.2035,334.3307,369.5,324.5234" style="stroke:#383838;stroke-width:1.0;"/><polygon fill="#FFFFFF" points="369.5,466.0547,369.5,466.1247,371.5,465.9166,373.5,466.1191,375.5,466.1879,377.5,465.8169,379.5,466.0547,379.4223,466.0547,379.0735,475.9102,379.1165,485.7656,379.4318,495.6211,378.8086,505.4766,380.0536,515.332,379.5,525.1875,379.5,524.9774,377.5,525.1216,375.5,525.3315,373.5,525.1589,371.5,525.2102,369.5,525.1875,369.4681,525.1875,369.6785,515.332,369.7391,505.4766,370.0857,495.6211,370.1711,485.7656,370.1793,475.9102,369.5,466.0547" style="stroke:#383838;stroke-width:1.0;"/><polygon fill="#FFFFFF" points="891,353.6563,891,353.7263,893,353.5181,895,353.7207,897,353.7895,899,353.4185,901,353.6563,900.9741,353.6563,900.8578,359.6563,900.8722,365.6563,900.9773,371.6563,900.7695,377.6563,901,383.6563,901,383.8408,899,383.4462,897,383.5903,895,383.8002,893,383.6277,891,383.6563,891.0227,383.6563,890.9894,377.6563,891.0595,371.6563,891.0797,365.6563,891.1952,359.6563,891,353.6563" style="stroke:#383838;stroke-width:1.0;"/><polygon fill="#FFFFFF" points="891,495.1875,891,495.2576,893,495.0494,895,495.2519,897,495.3207,899,494.9497,901,495.1875,900.9741,495.1875,900.8578,501.1875,900.8722,507.1875,900.9773,513.1875,900.7695,519.1875,901,525.1875,901,525.372,899,524.9774,897,525.1216,895,525.3315,893,525.1589,891,525.1875,891.0227,525.1875,890.9894,519.1875,891.0595,513.1875,891.0797,507.1875,891.1952,501.1875,891,495.1875" style="stroke:#383838;stroke-width:1.0;"/><polygon fill="#FFFFFF" points="1054.5,236.2578,1054.5,236.3279,1056.5,236.1197,1058.5,236.3222,1060.5,236.391,1062.5,236.02,1064.5,236.2578,1064.4741,236.2578,1064.3578,242.2578,1064.3722,248.2578,1064.4773,254.2578,1064.2695,260.2578,1064.5,266.2578,1064.5,266.4424,1062.5,266.0477,1060.5,266.1919,1058.5,266.4018,1056.5,266.2292,1054.5,266.2578,1054.5227,266.2578,1054.4894,260.2578,1054.5595,254.2578,1054.5797,248.2578,1054.6952,242.2578,1054.5,236.2578" style="stroke:#383838;stroke-width:1.0;"/><path d="M154.5,114.7266 L154.5,114.82 L162.9,114.5424 L171.3,114.8125 L179.7,114.9042 L188.1,114.4095 L196.5,114.7266 " fill="none" style="stroke:#383838;stroke-width:1.0;"/><path d="M196.5,114.7266 L196.5934,114.7266 L196.3159,117.3266 L196.5859,119.9266 L196.6776,122.5266 L196.1829,125.1266 L196.5,127.7266 " fill="none" style="stroke:#383838;stroke-width:1.0;"/><path d="M155.5,127.7266 L155.5,127.82 L163.7,127.5424 L171.9,127.8125 L180.1,127.9042 L188.3,127.4095 L196.5,127.7266 " fill="none" style="stroke:#383838;stroke-width:1.0;"/><polygon fill="#383838" points="165.5,123.7266,165.526,123.7916,163.4487,124.3983,161.5239,125.3864,159.5495,126.2503,157.4117,126.7058,155.5,127.7266,155.4904,127.7025,157.4472,128.3946,159.4525,129.2079,161.4916,130.1055,163.4144,130.7126,165.5,131.7266,165.6305,131.8571,164.5514,130.778,163.8534,130.0799,163.2018,129.4284,162.2798,128.5063,161.5,127.7266,161.5161,127.7426,162.2925,126.919,163.1421,126.1686,163.9564,125.3829,164.838,124.6646,165.5,123.7266" style="stroke:#383838;stroke-width:1.0;"/><text fill="#000000" font-family="FG Virgil" font-size="13" lengthAdjust="spacing" textLength="61" x="161.5" y="109.6606">doShow()</text><path d="M5,140.7266 L5.1868,140.7266 L4.6317,148.7266 L5.1718,156.7266 L5.3553,164.7266 L4.3659,172.7266 L5,180.7266 L5,180.5193 L14.9865,179.5892 L24.973,179.7039 L34.9595,180.5448 L44.9459,178.8829 L54.9324,182.2029 L64.9189,179.0458 L74.9054,180.1992 L84.8919,181.8784 L94.8784,180.4978 L104.8649,180.9085 L114.8514,180.6414 L124.8378,181.2026 L134.8243,181.3643 L144.8108,182.2884 L154.7973,182.516 L164.7838,182.5379 L174.7703,181.4056 L184.7568,181.9628 L194.7432,182.5992 L204.7297,178.8034 L214.7162,182.5359 L224.7027,179.9359 L234.6892,182.1501 L244.6757,179.4065 L254.6622,180.5439 L264.6486,182.7042 L274.6351,180.5966 L284.6216,181.0074 L294.6081,181.6296 L304.5946,181.8365 L314.5811,180.7161 L324.5676,181.4925 L334.5541,179.2001 L344.5405,181.4849 L354.527,182.1884 L364.5135,181.912 L374.5,182.3613 L384.4865,179.4383 L394.473,178.9874 L404.4595,179.0695 L414.4459,180.5695 L424.4324,180.2025 L434.4189,182.5437 L444.4054,180.2608 L454.3919,179.8118 L464.3784,181.3353 L474.3649,178.9483 L484.3514,179.3422 L494.3378,182.4571 L504.3243,181.8883 L514.3108,182.6852 L524.2973,179.8684 L534.2838,181.5778 L544.2703,182.301 L554.2568,179.4668 L564.2432,180.4709 L574.2297,181.0625 L584.2162,182.4646 L594.2027,180.7154 L604.1892,181.9601 L614.1757,179.2498 L624.1622,178.9205 L634.1486,182.0695 L644.1351,178.8147 L654.1216,182.0838 L664.1081,181.2776 L674.0946,180.0121 L684.0811,179.7832 L694.0676,181.9499 L704.0541,179.9283 L714.0405,182.3049 L724.027,179.2526 L734.0135,182.373 L744,180.7266 L744.4305,180.7266 L744.2177,174.7266 L744.042,168.7266 L744.6459,162.7266 L744.5454,156.7266 L744,150.7266 L744.1064,150.8329 L742.1686,148.8951 L739.9181,146.6447 L738.4503,145.1769 L736.0973,142.8239 L734,140.7266 L734,141.1868 L724.0137,139.1043 L714.0274,139.646 L704.0411,142.1419 L694.0548,141.8726 L684.0685,140.6121 L674.0822,139.8674 L664.0959,140.1428 L654.1096,138.8968 L644.1233,141.8325 L634.137,142.6987 L624.1507,142.1303 L614.1644,142.5797 L604.1781,140.362 L594.1918,140.9592 L584.2055,139.693 L574.2192,141.484 L564.2329,141.3846 L554.2466,142.1996 L544.2603,140.1141 L534.274,140.3681 L524.2877,141.9091 L514.3014,142.2395 L504.3151,139.3598 L494.3288,140.2095 L484.3425,141.1246 L474.3562,139.0976 L464.3699,141.6689 L454.3836,141.4145 L444.3973,140.4579 L434.411,141.1059 L424.4247,142.6697 L414.4384,139.8922 L404.4521,141.5665 L394.4658,141.4883 L384.4795,141.0353 L374.4932,141.1024 L364.5068,141.0292 L354.5205,139.0621 L344.5342,139.6577 L334.5479,139.4958 L324.5616,140.8968 L314.5753,140.9616 L304.589,141.1579 L294.6027,139.9506 L284.6164,140.5465 L274.6301,140.406 L264.6438,142.2648 L254.6575,141.8641 L244.6712,139.4318 L234.6849,140.5321 L224.6986,139.1873 L214.7123,141.4956 L204.726,142.3492 L194.7397,142.1787 L184.7534,139.5651 L174.7671,141.9638 L164.7808,138.7457 L154.7945,141.2603 L144.8082,139.9284 L134.8219,140.9845 L124.8356,141.3675 L114.8493,141.9855 L104.863,138.8068 L94.8767,141.9945 L84.8904,141.2017 L74.9041,141.6741 L64.9178,142.7207 L54.9315,140.7412 L44.9452,141.194 L34.9589,141.2957 L24.9726,141.2525 L14.9863,140.7244 L5,140.7266 " fill="#EBEBEB" style="stroke:#383838;stroke-width:1.0;"/><path d="M734,140.7266 L734.6317,140.7266 L733.458,142.7266 L734.5025,144.7266 L733.4453,146.7266 L733.5197,148.7266 L734,150.7266 L734,150.7621 L736,150.7517 L738,150.2885 L740,151.0943 L742,150.8233 L744,150.7266 L744.4567,151.1833 L742.4193,149.1459 L739.7183,146.4448 L737.7499,144.4764 L735.9188,142.6454 L734,140.7266 " fill="#EBEBEB" style="stroke:#383838;stroke-width:1.0;"/><text fill="#000000" font-family="FG Virgil" font-size="13" lengthAdjust="spacing" textLength="624" x="11" y="157.7935">Para efeitos de simplificação do diagrama, não foram representadas todas as classes repository,</text><text fill="#000000" font-family="FG Virgil" font-size="13" lengthAdjust="spacing" textLength="714" x="15" y="172.9263">a classe persistence e a classe factory, tendo sido utilizado o procedimento dos casos de uso do sprint anterior</text><polygon fill="#383838" points="357.5,203.125,357.526,203.19,359.4487,203.7968,361.5239,204.7848,363.5495,205.6487,365.4117,206.1042,367.5,207.125,367.4904,207.1009,365.4472,207.793,363.4525,208.6063,361.4916,209.5039,359.4144,210.111,357.5,211.125,357.6305,211.2555,358.1514,210.1764,359.0534,209.4784,360.0018,208.8268,360.6798,207.9048,361.5,207.125,361.5161,207.1411,360.6925,206.3175,359.9421,205.5671,359.1564,204.7814,358.438,204.063,357.5,203.125" style="stroke:#383838;stroke-width:1.0;"/><path d="M154.5,207.125 L154.5,207.4052 L164.4524,206.5726 L174.4048,207.3827 L184.3571,207.6579 L194.3095,206.1738 L204.2619,207.0214 L214.2143,206.5563 L224.1667,206.6137 L234.119,207.0341 L244.0714,206.2032 L254.0238,207.8632 L263.9762,206.2846 L273.9286,206.8613 L283.881,207.7009 L293.8333,207.0106 L303.7857,207.216 L313.7381,207.0824 L323.6905,207.363 L333.6429,207.4438 L343.5952,207.9059 L353.5476,208.0197 L363.5,207.125 " fill="none" style="stroke:#383838;stroke-width:1.0;"/><text fill="#000000" font-family="FG Virgil" font-size="13" lengthAdjust="spacing" textLength="60" x="161.5" y="202.0591">getUser()</text><polygon fill="#383838" points="1042.5,232.2578,1042.526,232.3229,1044.4487,232.9296,1046.5239,233.9176,1048.5495,234.7815,1050.4117,235.237,1052.5,236.2578,1052.4904,236.2338,1050.4472,236.9258,1048.4525,237.7391,1046.4916,238.6367,1044.4144,239.2438,1042.5,240.2578,1042.6305,240.3883,1043.1514,239.3093,1044.0534,238.6112,1045.0018,237.9596,1045.6798,237.0376,1046.5,236.2578,1046.5161,236.2739,1045.6925,235.4503,1044.9421,234.6999,1044.1564,233.9142,1043.438,233.1959,1042.5,232.2578" style="stroke:#383838;stroke-width:1.0;"/><path d="M379.5,236.2578 L379.5,236.5381 L389.4851,235.7054 L399.4701,236.5155 L409.4552,236.7907 L419.4403,235.3066 L429.4254,236.1542 L439.4104,235.6892 L449.3955,235.7465 L459.3806,236.1669 L469.3657,235.336 L479.3507,236.996 L489.3358,235.4174 L499.3209,235.9941 L509.306,236.8337 L519.291,236.1434 L529.2761,236.3488 L539.2612,236.2152 L549.2463,236.4958 L559.2313,236.5767 L569.2164,237.0387 L579.2015,237.1526 L589.1866,237.1635 L599.1716,236.5973 L609.1567,236.8759 L619.1418,237.1941 L629.1269,235.2962 L639.1119,237.1625 L649.097,235.8625 L659.0821,236.9696 L669.0672,235.5978 L679.0522,236.1665 L689.0373,237.2466 L699.0224,236.1928 L709.0075,236.3982 L718.9925,236.7093 L728.9776,236.8128 L738.9627,236.2526 L748.9478,236.6408 L758.9328,235.4946 L768.9179,236.637 L778.903,236.9887 L788.8881,236.8505 L798.8731,237.0752 L808.8582,235.6137 L818.8433,235.3882 L828.8284,235.4293 L838.8134,236.1793 L848.7985,235.9958 L858.7836,237.1664 L868.7687,236.0249 L878.7537,235.8004 L888.7388,236.5622 L898.7239,235.3687 L908.709,235.5656 L918.694,237.1231 L928.6791,236.8387 L938.6642,237.2371 L948.6493,235.8288 L958.6343,236.6834 L968.6194,237.045 L978.6045,235.6279 L988.5896,236.13 L998.5746,236.4258 L1008.5597,237.1268 L1018.5448,236.2522 L1028.5299,236.8746 L1038.5149,235.5194 L1048.5,236.2578 " fill="none" style="stroke:#383838;stroke-width:1.0;"/><text fill="#000000" font-family="FG Virgil" font-size="13" lengthAdjust="spacing" textLength="60" x="386.5" y="231.1919">getUser()</text><polygon fill="#383838" points="165.5,291.3906,165.526,291.4557,163.4487,292.0624,161.5239,293.0504,159.5495,293.9143,157.4117,294.3698,155.5,295.3906,155.4904,295.3666,157.4472,296.0586,159.4525,296.8719,161.4916,297.7695,163.4144,298.3767,165.5,299.3906,165.6305,299.5211,164.5514,298.4421,163.8534,297.744,163.2018,297.0924,162.2798,296.1704,161.5,295.3906,161.5161,295.4067,162.2925,294.5831,163.1421,293.8327,163.9564,293.047,164.838,292.3287,165.5,291.3906" style="stroke:#383838;stroke-width:1.0;"/><path d="M159.5,295.3906 L159.5,295.6709 L169.6905,294.8382 L179.881,295.6483 L190.0714,295.9235 L200.2619,294.4394 L210.4524,295.287 L220.6429,294.822 L230.8333,294.8793 L241.0238,295.2997 L251.2143,294.4688 L261.4048,296.1288 L271.5952,294.5503 L281.7857,295.1269 L291.9762,295.9666 L302.1667,295.2763 L312.3571,295.4816 L322.5476,295.348 L332.7381,295.6287 L342.9286,295.7095 L353.119,296.1715 L363.3095,296.2854 L373.5,295.3906 " fill="none" style="stroke:#383838;stroke-width:1.0;"/><text fill="#000000" font-family="FG Virgil" font-size="13" lengthAdjust="spacing" textLength="34" x="171.5" y="290.3247">colab</text><polygon fill="#383838" points="357.5,320.5234,357.526,320.5885,359.4487,321.1952,361.5239,322.1833,363.5495,323.0471,365.4117,323.5026,367.5,324.5234,367.4904,324.4994,365.4472,325.1914,363.4525,326.0047,361.4916,326.9023,359.4144,327.5095,357.5,328.5234,357.6305,328.6539,358.1514,327.5749,359.0534,326.8768,360.0018,326.2252,360.6798,325.3032,361.5,324.5234,361.5161,324.5395,360.6925,323.7159,359.9421,322.9655,359.1564,322.1798,358.438,321.4615,357.5,320.5234" style="stroke:#383838;stroke-width:1.0;"/><path d="M154.5,324.5234 L154.5,324.8037 L164.4524,323.971 L174.4048,324.7812 L184.3571,325.0563 L194.3095,323.5722 L204.2619,324.4198 L214.2143,323.9548 L224.1667,324.0121 L234.119,324.4326 L244.0714,323.6016 L254.0238,325.2616 L263.9762,323.6831 L273.9286,324.2597 L283.881,325.0994 L293.8333,324.4091 L303.7857,324.6144 L313.7381,324.4808 L323.6905,324.7615 L333.6429,324.8423 L343.5952,325.3044 L353.5476,325.4182 L363.5,324.5234 " fill="none" style="stroke:#383838;stroke-width:1.0;"/><text fill="#000000" font-family="FG Virgil" font-size="13" lengthAdjust="spacing" textLength="162" x="161.5" y="319.4575">pedidosPendentes(colab)</text><polygon fill="#383838" points="879,349.6563,879.026,349.7213,880.9487,350.328,883.0239,351.3161,885.0495,352.1799,886.9117,352.6355,889,353.6563,888.9904,353.6322,886.9472,354.3243,884.9525,355.1376,882.9916,356.0352,880.9144,356.6423,879,357.6563,879.1305,357.7867,879.6514,356.7077,880.5534,356.0096,881.5018,355.3581,882.1798,354.436,883,353.6563,883.0161,353.6723,882.1925,352.8487,881.4421,352.0983,880.6564,351.3126,879.938,350.5943,879,349.6563" style="stroke:#383838;stroke-width:1.0;"/><path d="M379.5,353.6563 L379.5,353.9365 L389.4118,353.1038 L399.3235,353.914 L409.2353,354.1892 L419.1471,352.7051 L429.0588,353.5526 L438.9706,353.0876 L448.8824,353.1449 L458.7941,353.5654 L468.7059,352.7344 L478.6176,354.3944 L488.5294,352.8159 L498.4412,353.3926 L508.3529,354.2322 L518.2647,353.5419 L528.1765,353.7472 L538.0882,353.6137 L548,353.8943 L557.9118,353.9751 L567.8235,354.4372 L577.7353,354.551 L587.6471,354.5619 L597.5588,353.9958 L607.4706,354.2744 L617.3824,354.5926 L627.2941,352.6947 L637.2059,354.5609 L647.1176,353.2609 L657.0294,354.368 L666.9412,352.9962 L676.8529,353.5649 L686.7647,354.6451 L696.6765,353.5913 L706.5882,353.7967 L716.5,354.1078 L726.4118,354.2112 L736.3235,353.651 L746.2353,354.0392 L756.1471,352.893 L766.0588,354.0354 L775.9706,354.3872 L785.8824,354.249 L795.7941,354.4736 L805.7059,353.0121 L815.6176,352.7867 L825.5294,352.8277 L835.4412,353.5777 L845.3529,353.3942 L855.2647,354.5648 L865.1765,353.4233 L875.0882,353.1988 L885,353.6563 " fill="none" style="stroke:#383838;stroke-width:1.0;"/><text fill="#000000" font-family="FG Virgil" font-size="13" lengthAdjust="spacing" textLength="162" x="386.5" y="348.5903">pedidosPendentes(colab)</text><polygon fill="#383838" points="165.5,408.7891,165.526,408.8541,163.4487,409.4608,161.5239,410.4489,159.5495,411.3128,157.4117,411.7683,155.5,412.7891,155.4904,412.765,157.4472,413.4571,159.4525,414.2704,161.4916,415.168,163.4144,415.7751,165.5,416.7891,165.6305,416.9196,164.5514,415.8405,163.8534,415.1424,163.2018,414.4909,162.2798,413.5688,161.5,412.7891,161.5161,412.8051,162.2925,411.9815,163.1421,411.2311,163.9564,410.4454,164.838,409.7271,165.5,408.7891" style="stroke:#383838;stroke-width:1.0;"/><path d="M159.5,412.7891 L159.5,413.0693 L169.6905,412.2366 L179.881,413.0468 L190.0714,413.322 L200.2619,411.8379 L210.4524,412.6854 L220.6429,412.2204 L230.8333,412.2777 L241.0238,412.6982 L251.2143,411.8672 L261.4048,413.5273 L271.5952,411.9487 L281.7857,412.5254 L291.9762,413.365 L302.1667,412.6747 L312.3571,412.88 L322.5476,412.7465 L332.7381,413.0271 L342.9286,413.1079 L353.119,413.57 L363.3095,413.6838 L373.5,412.7891 " fill="none" style="stroke:#383838;stroke-width:1.0;"/><text fill="#000000" font-family="FG Virgil" font-size="13" lengthAdjust="spacing" textLength="76" x="171.5" y="407.7231">listaPedidos</text><path d="M45,427.7891 L45,428.3495 L54.75,426.6842 L64.5,428.3045 L74.25,428.8549 L84,425.8867 L93.75,427.5818 L103.5,426.6517 L113.25,426.7664 L123,427.7891 L122.9394,427.7891 L122.3854,429.1891 L123.4921,430.5891 L122.4398,431.9891 L122.8242,433.3891 L123,434.7891 L123.2715,435.0606 L120.9461,436.7351 L119.0429,438.832 L116.9799,440.769 L115.1122,442.9013 L113,444.7891 L113,445.4268 L103.2857,446.3509 L93.5714,446.5785 L83.8571,446.6004 L74.1429,445.4681 L64.4286,446.0253 L54.7143,446.6617 L45,444.7891 L44.3589,444.7891 L45.6031,441.3891 L44.7364,437.9891 L45.4745,434.5891 L44.56,431.1891 L45,427.7891 " fill="#EEEEEE" style="stroke:#000000;stroke-width:1.0;"/><polygon fill="none" points="45,427.7891,45,427.9992,54.9785,427.3747,64.957,427.9823,74.9355,428.1887,84.914,427.0757,94.8925,427.7113,104.871,427.3626,114.8495,427.4056,124.828,427.7209,134.8065,427.0977,144.7849,428.3427,154.7634,427.1588,164.7419,427.5913,174.7204,428.221,184.6989,427.7033,194.6774,427.8573,204.6559,427.7571,214.6344,427.9676,224.6129,428.0282,234.5914,428.3748,244.5699,428.4601,254.5484,428.4683,264.5269,428.0437,274.5054,428.2526,284.4839,428.4913,294.4624,427.0679,304.4409,428.4676,314.4194,427.4926,324.3978,428.3229,334.3763,427.294,344.3548,427.7206,354.3333,428.5307,364.3118,427.7403,374.2903,427.8944,384.2688,428.1277,394.2473,428.2053,404.2258,427.7852,414.2043,428.0763,424.1828,427.2166,434.1613,428.0734,444.1398,428.3373,454.1183,428.2336,464.0968,428.4021,474.0753,427.306,484.0538,427.1369,494.0323,427.1677,504.0108,427.7302,513.9892,427.5925,523.9677,428.4705,533.9462,427.6144,543.9247,427.446,553.9032,428.0173,563.8817,427.1222,573.8602,427.2699,583.8387,428.438,593.8172,428.2247,603.7957,428.5236,613.7742,427.4673,623.7527,428.1083,633.7312,428.3795,643.7097,427.3167,653.6882,427.6932,663.6667,427.915,673.6452,428.4408,683.6237,427.7849,693.6022,428.2516,703.5806,427.2353,713.5591,427.1118,723.5376,428.2927,733.5161,427.0721,743.4946,428.298,753.4731,427.9957,763.4516,427.5211,773.4301,427.4353,783.4086,428.2478,793.3871,427.4897,803.3656,428.3809,813.3441,427.2363,823.3226,428.4065,833.3011,428.2734,843.2796,428.034,853.2581,427.8363,863.2366,428.5157,873.2151,428.4026,883.1935,427.9583,893.172,428.0573,903.1505,427.6588,913.129,428.5055,923.1075,427.9439,933.086,427.9616,943.0645,427.1807,953.043,427.3838,963.0215,428.3198,973,427.7891,973.4298,427.7891,972.9571,437.3707,972.6778,446.9524,972.7811,456.5341,972.3138,466.1158,973.4147,475.6974,973.7396,485.2791,973.5264,494.8608,973.6949,504.4425,972.8633,514.0241,973.0872,523.6058,973,533.1875,973,532.7999,963.0215,533.4715,953.043,533.4343,943.0645,533.7399,933.086,532.9578,923.1075,533.0531,913.129,533.631,903.1505,533.7548,893.172,532.675,883.1935,532.9936,873.2151,533.3368,863.2366,532.5767,853.2581,533.5409,843.2796,533.4455,833.3011,533.0867,823.3226,533.3297,813.3441,533.9162,803.3656,532.8746,793.3871,533.5025,783.4086,533.4731,773.4301,533.3033,763.4516,533.3284,753.4731,533.301,743.4946,532.5633,733.5161,532.7867,723.5376,532.726,713.5591,533.2513,703.5806,533.2756,693.6022,533.3492,683.6237,532.8965,673.6452,533.12,663.6667,533.0673,653.6882,533.7644,643.7097,533.6141,633.7312,532.702,623.7527,533.1146,613.7742,532.6103,603.7957,533.4759,593.8172,533.796,583.8387,533.7321,573.8602,532.7519,563.8817,533.6515,553.9032,532.4447,543.9247,533.3877,533.9462,532.8882,523.9677,533.2842,513.9892,533.4278,504.0108,533.6596,494.0323,532.4676,484.0538,533.663,474.0753,533.3657,464.0968,533.5428,454.1183,533.9353,444.1398,533.193,434.1613,533.3628,424.1828,533.4009,414.2043,533.3847,404.2258,533.1867,394.2473,533.8982,384.2688,532.5778,374.2903,533.7528,364.3118,532.5635,354.3333,532.6472,344.3548,533.2275,334.3763,533.2158,324.3978,532.6947,314.4194,533.6012,304.4409,533.2964,294.4624,533.9142,284.4839,533.8546,274.5054,532.7392,264.5269,532.7896,254.5484,533.0583,244.5699,533.543,234.5914,533.5905,224.6129,533.4887,214.6344,532.8455,204.6559,533.8239,194.6774,533.8213,184.6989,533.1402,174.7204,532.9484,164.7419,532.7861,154.7634,532.9729,144.7849,533.3249,134.8065,533.1191,124.828,532.7697,114.8495,533.6749,104.871,532.7286,94.8925,533.6899,84.914,533.6147,74.9355,533.5594,64.957,533.88,54.9785,532.9416,45,533.1875,44.6994,533.1875,45.5189,523.6058,44.4031,514.0241,44.766,504.4425,45.1155,494.8608,45.0687,485.2791,44.6415,475.6974,44.957,466.1158,45.7446,456.5341,45.6485,446.9524,44.4037,437.3707,45,427.7891" style="stroke:#000000;stroke-width:2.0;"/><text fill="#000000" font-family="FG Virgil" font-size="13" font-weight="bold" lengthAdjust="spacing" textLength="33" x="60" y="440.856">loop</text><polygon fill="#383838" points="357.5,462.0547,357.526,462.1197,359.4487,462.7265,361.5239,463.7145,363.5495,464.5784,365.4117,465.0339,367.5,466.0547,367.4904,466.0306,365.4472,466.7227,363.4525,467.536,361.4916,468.4336,359.4144,469.0407,357.5,470.0547,357.6305,470.1852,358.1514,469.1061,359.0534,468.4081,360.0018,467.7565,360.6798,466.8345,361.5,466.0547,361.5161,466.0708,360.6925,465.2472,359.9421,464.4968,359.1564,463.7111,358.438,462.9927,357.5,462.0547" style="stroke:#383838;stroke-width:1.0;"/><path d="M154.5,466.0547 L154.5,466.3349 L164.4524,465.5023 L174.4048,466.3124 L184.3571,466.5876 L194.3095,465.1035 L204.2619,465.9511 L214.2143,465.486 L224.1667,465.5434 L234.119,465.9638 L244.0714,465.1329 L254.0238,466.7929 L263.9762,465.2143 L273.9286,465.791 L283.881,466.6306 L293.8333,465.9403 L303.7857,466.1457 L313.7381,466.0121 L323.6905,466.2927 L333.6429,466.3735 L343.5952,466.8356 L353.5476,466.9494 L363.5,466.0547 " fill="none" style="stroke:#383838;stroke-width:1.0;"/><text fill="#000000" font-family="FG Virgil" font-size="13" lengthAdjust="spacing" textLength="129" x="161.5" y="460.9888">atribuirGrau(pedido)</text><polygon fill="#383838" points="879,491.1875,879.026,491.2525,880.9487,491.8593,883.0239,492.8473,885.0495,493.7112,886.9117,494.1667,889,495.1875,888.9904,495.1634,886.9472,495.8555,884.9525,496.6688,882.9916,497.5664,880.9144,498.1735,879,499.1875,879.1305,499.318,879.6514,498.2389,880.5534,497.5409,881.5018,496.8893,882.1798,495.9673,883,495.1875,883.0161,495.2036,882.1925,494.38,881.4421,493.6296,880.6564,492.8439,879.938,492.1255,879,491.1875" style="stroke:#383838;stroke-width:1.0;"/><path d="M379.5,495.1875 L379.5,495.4677 L389.4118,494.6351 L399.3235,495.4452 L409.2353,495.7204 L419.1471,494.2363 L429.0588,495.0839 L438.9706,494.6188 L448.8824,494.6762 L458.7941,495.0966 L468.7059,494.2657 L478.6176,495.9257 L488.5294,494.3471 L498.4412,494.9238 L508.3529,495.7634 L518.2647,495.0731 L528.1765,495.2785 L538.0882,495.1449 L548,495.4255 L557.9118,495.5063 L567.8235,495.9684 L577.7353,496.0822 L587.6471,496.0932 L597.5588,495.527 L607.4706,495.8056 L617.3824,496.1238 L627.2941,494.2259 L637.2059,496.0922 L647.1176,494.7922 L657.0294,495.8992 L666.9412,494.5275 L676.8529,495.0962 L686.7647,496.1763 L696.6765,495.1225 L706.5882,495.3279 L716.5,495.639 L726.4118,495.7425 L736.3235,495.1823 L746.2353,495.5705 L756.1471,494.4243 L766.0588,495.5667 L775.9706,495.9184 L785.8824,495.7802 L795.7941,496.0049 L805.7059,494.5434 L815.6176,494.3179 L825.5294,494.359 L835.4412,495.109 L845.3529,494.9255 L855.2647,496.096 L865.1765,494.9546 L875.0882,494.7301 L885,495.1875 " fill="none" style="stroke:#383838;stroke-width:1.0;"/><text fill="#000000" font-family="FG Virgil" font-size="13" lengthAdjust="spacing" textLength="129" x="386.5" y="490.1216">atribuirGrau(pedido)</text><!--MD5=[8de47b38d5879748d305086627f1f3aa]
@startuml
'http://plantuml.com/skinparam.html
skinparam handwritten true
skinparam monochrome true
skinparam packageStyle rect
skinparam defaultFontName FG Virgil
skinparam shadowing false

participant AtribuirGrauSatisfacaoUI as UI <<presentation>>
control AtribuirGrauSatisfacaoController as CTRL <<application>>
participant PersistenceContext as Persistence <<persistence>>
participant RepositoryFactory as Factory <<factory>>
database PedidoRepository as PRepository <<repository>>
database ColaboradorRepository as CRepository <<repository>>

activate UI

UI -> UI : doShow()
 note over CTRL: Para efeitos de simplificação do diagrama, não foram representadas todas as classes repository,\n a classe persistence e a classe factory, tendo sido utilizado o procedimento dos casos de uso do sprint anterior
UI -> CTRL: getUser()
    activate CTRL
    CTRL -> CRepository: getUser()
      activate CRepository
      deactivate CRepository
      CTRL -> UI: colab
    deactivate CTRL
    
UI -> CTRL: pedidosPendentes(colab)
    activate CTRL
      CTRL -> PRepository: pedidosPendentes(colab)
      activate PRepository
      deactivate PRepository
      CTRL -> UI: listaPedidos
    deactivate CTRL
loop
UI -> CTRL: atribuirGrau(pedido)
    activate CTRL
      CTRL -> PRepository: atribuirGrau(pedido)
      activate PRepository
      deactivate PRepository
    deactivate CTRL
end
deactivate UI
@enduml

@startuml
skinparam handwritten true
skinparam monochrome true
skinparam packageStyle rect
skinparam defaultFontName FG Virgil
skinparam shadowing false

participant AtribuirGrauSatisfacaoUI as UI <<presentation>>
control AtribuirGrauSatisfacaoController as CTRL <<application>>
participant PersistenceContext as Persistence <<persistence>>
participant RepositoryFactory as Factory <<factory>>
database PedidoRepository as PRepository <<repository>>
database ColaboradorRepository as CRepository <<repository>>

activate UI

UI -> UI : doShow()
 note over CTRL: Para efeitos de simplificação do diagrama, não foram representadas todas as classes repository,\n a classe persistence e a classe factory, tendo sido utilizado o procedimento dos casos de uso do sprint anterior
UI -> CTRL: getUser()
    activate CTRL
    CTRL -> CRepository: getUser()
      activate CRepository
      deactivate CRepository
      CTRL -> UI: colab
    deactivate CTRL
    
UI -> CTRL: pedidosPendentes(colab)
    activate CTRL
      CTRL -> PRepository: pedidosPendentes(colab)
      activate PRepository
      deactivate PRepository
      CTRL -> UI: listaPedidos
    deactivate CTRL
loop
UI -> CTRL: atribuirGrau(pedido)
    activate CTRL
      CTRL -> PRepository: atribuirGrau(pedido)
      activate PRepository
      deactivate PRepository
    deactivate CTRL
end
deactivate UI
@enduml

PlantUML version 1.2021.7(Sun May 23 12:40:07 UTC 2021)
(GPL source distribution)
Java Runtime: Java(TM) SE Runtime Environment
JVM: Java HotSpot(TM) 64-Bit Server VM
Default Encoding: UTF-8
Language: en
Country: US
--></g></svg>