<?xml version="1.0" encoding="UTF-8" standalone="no"?><svg xmlns="http://www.w3.org/2000/svg" xmlns:xlink="http://www.w3.org/1999/xlink" contentScriptType="application/ecmascript" contentStyleType="text/css" height="367px" preserveAspectRatio="none" style="width:445px;height:367px;background:#FFFFFF;" version="1.1" viewBox="0 0 445 367" width="445px" zoomAndPan="magnify"><defs><filter height="300%" id="f1v6y656fwaghp" width="300%" x="-1" y="-1"><feGaussianBlur result="blurOut" stdDeviation="2.0"/><feColorMatrix in="blurOut" result="blurOut2" type="matrix" values="0 0 0 0 0 0 0 0 0 0 0 0 0 0 0 0 0 0 .4 0"/><feOffset dx="4.0" dy="4.0" in="blurOut2" result="blurOut3"/><feBlend in="SourceGraphic" in2="blurOut3" mode="normal"/></filter></defs><g><rect fill="#FFFFFF" filter="url(#f1v6y656fwaghp)" height="166.7969" style="stroke:#A80036;stroke-width:1.0;" width="10" x="47" y="98.2969"/><rect fill="#FFFFFF" filter="url(#f1v6y656fwaghp)" height="29.1328" style="stroke:#A80036;stroke-width:1.0;" width="10" x="375" y="119.4297"/><rect fill="#FFFFFF" filter="url(#f1v6y656fwaghp)" height="29.1328" style="stroke:#A80036;stroke-width:1.0;" width="10" x="375" y="177.6953"/><rect fill="#FFFFFF" filter="url(#f1v6y656fwaghp)" height="29.1328" style="stroke:#A80036;stroke-width:1.0;" width="10" x="375" y="235.9609"/><line style="stroke:#A80036;stroke-width:1.0;stroke-dasharray:5.0,5.0;" x1="52" x2="52" y1="88.2969" y2="283.0938"/><line style="stroke:#A80036;stroke-width:1.0;stroke-dasharray:5.0,5.0;" x1="379.5" x2="379.5" y1="88.2969" y2="283.0938"/><text fill="#000000" font-family="sans-serif" font-size="14" lengthAdjust="spacing" textLength="88" x="5" y="84.9951">Colaborador</text><ellipse cx="52" cy="15" fill="#FEFECE" filter="url(#f1v6y656fwaghp)" rx="8" ry="8" style="stroke:#A80036;stroke-width:2.0;"/><path d="M52,23 L52,50 M39,31 L65,31 M52,50 L39,65 M52,50 L65,65 " fill="none" filter="url(#f1v6y656fwaghp)" style="stroke:#A80036;stroke-width:2.0;"/><text fill="#000000" font-family="sans-serif" font-size="14" lengthAdjust="spacing" textLength="88" x="5" y="295.0889">Colaborador</text><ellipse cx="52" cy="308.3906" fill="#FEFECE" filter="url(#f1v6y656fwaghp)" rx="8" ry="8" style="stroke:#A80036;stroke-width:2.0;"/><path d="M52,316.3906 L52,343.3906 M39,324.3906 L65,324.3906 M52,343.3906 L39,358.3906 M52,343.3906 L65,358.3906 " fill="none" filter="url(#f1v6y656fwaghp)" style="stroke:#A80036;stroke-width:2.0;"/><rect fill="#FEFECE" filter="url(#f1v6y656fwaghp)" height="30.2969" style="stroke:#A80036;stroke-width:1.5;" width="107" x="324.5" y="53"/><text fill="#000000" font-family="sans-serif" font-size="14" lengthAdjust="spacing" textLength="93" x="331.5" y="72.9951">:Colaborador</text><rect fill="#FEFECE" filter="url(#f1v6y656fwaghp)" height="30.2969" style="stroke:#A80036;stroke-width:1.5;" width="107" x="324.5" y="282.0938"/><text fill="#000000" font-family="sans-serif" font-size="14" lengthAdjust="spacing" textLength="93" x="331.5" y="302.0889">:Colaborador</text><rect fill="#FFFFFF" filter="url(#f1v6y656fwaghp)" height="166.7969" style="stroke:#A80036;stroke-width:1.0;" width="10" x="47" y="98.2969"/><rect fill="#FFFFFF" filter="url(#f1v6y656fwaghp)" height="29.1328" style="stroke:#A80036;stroke-width:1.0;" width="10" x="375" y="119.4297"/><rect fill="#FFFFFF" filter="url(#f1v6y656fwaghp)" height="29.1328" style="stroke:#A80036;stroke-width:1.0;" width="10" x="375" y="177.6953"/><rect fill="#FFFFFF" filter="url(#f1v6y656fwaghp)" height="29.1328" style="stroke:#A80036;stroke-width:1.0;" width="10" x="375" y="235.9609"/><polygon fill="#A80036" points="363,115.4297,373,119.4297,363,123.4297,367,119.4297" style="stroke:#A80036;stroke-width:1.0;"/><line style="stroke:#A80036;stroke-width:1.0;" x1="57" x2="369" y1="119.4297" y2="119.4297"/><text fill="#000000" font-family="sans-serif" font-size="13" font-weight="bold" lengthAdjust="spacing" textLength="9" x="64" y="114.3638">1</text><text fill="#000000" font-family="sans-serif" font-size="13" lengthAdjust="spacing" textLength="286" x="77" y="114.3638">pretende transmitir o seu grau de satisfação</text><polygon fill="#A80036" points="68,144.5625,58,148.5625,68,152.5625,64,148.5625" style="stroke:#A80036;stroke-width:1.0;"/><line style="stroke:#A80036;stroke-width:1.0;stroke-dasharray:2.0,2.0;" x1="62" x2="379" y1="148.5625" y2="148.5625"/><text fill="#000000" font-family="sans-serif" font-size="13" font-weight="bold" lengthAdjust="spacing" textLength="9" x="74" y="143.4966">2</text><text fill="#000000" font-family="sans-serif" font-size="13" lengthAdjust="spacing" textLength="267" x="87" y="143.4966">devolve a lista de pedidos do colaborador</text><polygon fill="#A80036" points="363,173.6953,373,177.6953,363,181.6953,367,177.6953" style="stroke:#A80036;stroke-width:1.0;"/><line style="stroke:#A80036;stroke-width:1.0;" x1="57" x2="369" y1="177.6953" y2="177.6953"/><text fill="#000000" font-family="sans-serif" font-size="13" font-weight="bold" lengthAdjust="spacing" textLength="8" x="64" y="172.6294">3</text><text fill="#000000" font-family="sans-serif" font-size="13" lengthAdjust="spacing" textLength="225" x="76" y="172.6294">seleciona o pedido a atribuir o grau</text><polygon fill="#A80036" points="68,202.8281,58,206.8281,68,210.8281,64,206.8281" style="stroke:#A80036;stroke-width:1.0;"/><line style="stroke:#A80036;stroke-width:1.0;stroke-dasharray:2.0,2.0;" x1="62" x2="379" y1="206.8281" y2="206.8281"/><text fill="#000000" font-family="sans-serif" font-size="13" font-weight="bold" lengthAdjust="spacing" textLength="9" x="74" y="201.7622">4</text><text fill="#000000" font-family="sans-serif" font-size="13" lengthAdjust="spacing" textLength="145" x="87" y="201.7622">solicita o valor do grau</text><polygon fill="#A80036" points="363,231.9609,373,235.9609,363,239.9609,367,235.9609" style="stroke:#A80036;stroke-width:1.0;"/><line style="stroke:#A80036;stroke-width:1.0;" x1="57" x2="369" y1="235.9609" y2="235.9609"/><text fill="#000000" font-family="sans-serif" font-size="13" font-weight="bold" lengthAdjust="spacing" textLength="9" x="64" y="230.895">5</text><text fill="#000000" font-family="sans-serif" font-size="13" lengthAdjust="spacing" textLength="174" x="77" y="230.895">insere o grau de satisfação</text><polygon fill="#A80036" points="63,261.0938,53,265.0938,63,269.0938,59,265.0938" style="stroke:#A80036;stroke-width:1.0;"/><line style="stroke:#A80036;stroke-width:1.0;stroke-dasharray:2.0,2.0;" x1="57" x2="379" y1="265.0938" y2="265.0938"/><text fill="#000000" font-family="sans-serif" font-size="13" font-weight="bold" lengthAdjust="spacing" textLength="9" x="69" y="260.0278">6</text><text fill="#000000" font-family="sans-serif" font-size="13" lengthAdjust="spacing" textLength="154" x="82" y="260.0278">operação bem sucedida</text><!--MD5=[9c97f7a370fc6b4af6db175cdfb914ab]
@startuml
autonumber
actor "Colaborador" as USR

activate USR
USR -> ":Colaborador" : pretende transmitir o seu grau de satisfação
activate ":Colaborador"
":Colaborador" - -> USR : devolve a lista de pedidos do colaborador
deactivate ":Colaborador"

USR -> ":Colaborador" : seleciona o pedido a atribuir o grau
activate ":Colaborador"
":Colaborador" - -> USR : solicita o valor do grau
deactivate ":Colaborador"

USR -> ":Colaborador" : insere o grau de satisfação
activate ":Colaborador"
":Colaborador" - -> USR : operação bem sucedida
deactivate ":Colaborador"

deactivate USR
@enduml

PlantUML version 1.2021.7(Sun May 23 12:40:07 UTC 2021)
(GPL source distribution)
Java Runtime: Java(TM) SE Runtime Environment
JVM: Java HotSpot(TM) 64-Bit Server VM
Default Encoding: UTF-8
Language: en
Country: US
--></g></svg>