<?xml version="1.0" encoding="UTF-8" standalone="no"?><svg xmlns="http://www.w3.org/2000/svg" xmlns:xlink="http://www.w3.org/1999/xlink" contentScriptType="application/ecmascript" contentStyleType="text/css" height="367px" preserveAspectRatio="none" style="width:418px;height:367px;background:#FFFFFF;" version="1.1" viewBox="0 0 418 367" width="418px" zoomAndPan="magnify"><defs><filter height="300%" id="fvhm1t5dwojbc" width="300%" x="-1" y="-1"><feGaussianBlur result="blurOut" stdDeviation="2.0"/><feColorMatrix in="blurOut" result="blurOut2" type="matrix" values="0 0 0 0 0 0 0 0 0 0 0 0 0 0 0 0 0 0 .4 0"/><feOffset dx="4.0" dy="4.0" in="blurOut2" result="blurOut3"/><feBlend in="SourceGraphic" in2="blurOut3" mode="normal"/></filter></defs><g><rect fill="#FFFFFF" filter="url(#fvhm1t5dwojbc)" height="166.7969" style="stroke:#A80036;stroke-width:1.0;" width="10" x="37" y="98.2969"/><rect fill="#FFFFFF" filter="url(#fvhm1t5dwojbc)" height="29.1328" style="stroke:#A80036;stroke-width:1.0;" width="10" x="365" y="119.4297"/><rect fill="#FFFFFF" filter="url(#fvhm1t5dwojbc)" height="29.1328" style="stroke:#A80036;stroke-width:1.0;" width="10" x="365" y="177.6953"/><rect fill="#FFFFFF" filter="url(#fvhm1t5dwojbc)" height="29.1328" style="stroke:#A80036;stroke-width:1.0;" width="10" x="365" y="235.9609"/><line style="stroke:#A80036;stroke-width:1.0;stroke-dasharray:5.0,5.0;" x1="42" x2="42" y1="88.2969" y2="283.0938"/><line style="stroke:#A80036;stroke-width:1.0;stroke-dasharray:5.0,5.0;" x1="369.5" x2="369.5" y1="88.2969" y2="283.0938"/><text fill="#000000" font-family="sans-serif" font-size="14" lengthAdjust="spacing" textLength="68" x="5" y="84.9951">Utilizador</text><ellipse cx="42" cy="15" fill="#FEFECE" filter="url(#fvhm1t5dwojbc)" rx="8" ry="8" style="stroke:#A80036;stroke-width:2.0;"/><path d="M42,23 L42,50 M29,31 L55,31 M42,50 L29,65 M42,50 L55,65 " fill="none" filter="url(#fvhm1t5dwojbc)" style="stroke:#A80036;stroke-width:2.0;"/><text fill="#000000" font-family="sans-serif" font-size="14" lengthAdjust="spacing" textLength="68" x="5" y="295.0889">Utilizador</text><ellipse cx="42" cy="308.3906" fill="#FEFECE" filter="url(#fvhm1t5dwojbc)" rx="8" ry="8" style="stroke:#A80036;stroke-width:2.0;"/><path d="M42,316.3906 L42,343.3906 M29,324.3906 L55,324.3906 M42,343.3906 L29,358.3906 M42,343.3906 L55,358.3906 " fill="none" filter="url(#fvhm1t5dwojbc)" style="stroke:#A80036;stroke-width:2.0;"/><rect fill="#FEFECE" filter="url(#fvhm1t5dwojbc)" height="30.2969" style="stroke:#A80036;stroke-width:1.5;" width="73" x="331.5" y="53"/><text fill="#000000" font-family="sans-serif" font-size="14" lengthAdjust="spacing" textLength="59" x="338.5" y="72.9951">:System</text><rect fill="#FEFECE" filter="url(#fvhm1t5dwojbc)" height="30.2969" style="stroke:#A80036;stroke-width:1.5;" width="73" x="331.5" y="282.0938"/><text fill="#000000" font-family="sans-serif" font-size="14" lengthAdjust="spacing" textLength="59" x="338.5" y="302.0889">:System</text><rect fill="#FFFFFF" filter="url(#fvhm1t5dwojbc)" height="166.7969" style="stroke:#A80036;stroke-width:1.0;" width="10" x="37" y="98.2969"/><rect fill="#FFFFFF" filter="url(#fvhm1t5dwojbc)" height="29.1328" style="stroke:#A80036;stroke-width:1.0;" width="10" x="365" y="119.4297"/><rect fill="#FFFFFF" filter="url(#fvhm1t5dwojbc)" height="29.1328" style="stroke:#A80036;stroke-width:1.0;" width="10" x="365" y="177.6953"/><rect fill="#FFFFFF" filter="url(#fvhm1t5dwojbc)" height="29.1328" style="stroke:#A80036;stroke-width:1.0;" width="10" x="365" y="235.9609"/><polygon fill="#A80036" points="353,115.4297,363,119.4297,353,123.4297,357,119.4297" style="stroke:#A80036;stroke-width:1.0;"/><line style="stroke:#A80036;stroke-width:1.0;" x1="47" x2="359" y1="119.4297" y2="119.4297"/><text fill="#000000" font-family="sans-serif" font-size="13" font-weight="bold" lengthAdjust="spacing" textLength="9" x="54" y="114.3638">1</text><text fill="#000000" font-family="sans-serif" font-size="13" lengthAdjust="spacing" textLength="286" x="67" y="114.3638">pretende transmitir o seu grau de satisfação</text><polygon fill="#A80036" points="58,144.5625,48,148.5625,58,152.5625,54,148.5625" style="stroke:#A80036;stroke-width:1.0;"/><line style="stroke:#A80036;stroke-width:1.0;stroke-dasharray:2.0,2.0;" x1="52" x2="369" y1="148.5625" y2="148.5625"/><text fill="#000000" font-family="sans-serif" font-size="13" font-weight="bold" lengthAdjust="spacing" textLength="9" x="64" y="143.4966">2</text><text fill="#000000" font-family="sans-serif" font-size="13" lengthAdjust="spacing" textLength="267" x="77" y="143.4966">devolve a lista de pedidos do colaborador</text><polygon fill="#A80036" points="353,173.6953,363,177.6953,353,181.6953,357,177.6953" style="stroke:#A80036;stroke-width:1.0;"/><line style="stroke:#A80036;stroke-width:1.0;" x1="47" x2="359" y1="177.6953" y2="177.6953"/><text fill="#000000" font-family="sans-serif" font-size="13" font-weight="bold" lengthAdjust="spacing" textLength="8" x="54" y="172.6294">3</text><text fill="#000000" font-family="sans-serif" font-size="13" lengthAdjust="spacing" textLength="225" x="66" y="172.6294">seleciona o pedido a atribuir o grau</text><polygon fill="#A80036" points="58,202.8281,48,206.8281,58,210.8281,54,206.8281" style="stroke:#A80036;stroke-width:1.0;"/><line style="stroke:#A80036;stroke-width:1.0;stroke-dasharray:2.0,2.0;" x1="52" x2="369" y1="206.8281" y2="206.8281"/><text fill="#000000" font-family="sans-serif" font-size="13" font-weight="bold" lengthAdjust="spacing" textLength="9" x="64" y="201.7622">4</text><text fill="#000000" font-family="sans-serif" font-size="13" lengthAdjust="spacing" textLength="145" x="77" y="201.7622">solicita o valor do grau</text><polygon fill="#A80036" points="353,231.9609,363,235.9609,353,239.9609,357,235.9609" style="stroke:#A80036;stroke-width:1.0;"/><line style="stroke:#A80036;stroke-width:1.0;" x1="47" x2="359" y1="235.9609" y2="235.9609"/><text fill="#000000" font-family="sans-serif" font-size="13" font-weight="bold" lengthAdjust="spacing" textLength="9" x="54" y="230.895">5</text><text fill="#000000" font-family="sans-serif" font-size="13" lengthAdjust="spacing" textLength="174" x="67" y="230.895">insere o grau de satisfação</text><polygon fill="#A80036" points="53,261.0938,43,265.0938,53,269.0938,49,265.0938" style="stroke:#A80036;stroke-width:1.0;"/><line style="stroke:#A80036;stroke-width:1.0;stroke-dasharray:2.0,2.0;" x1="47" x2="369" y1="265.0938" y2="265.0938"/><text fill="#000000" font-family="sans-serif" font-size="13" font-weight="bold" lengthAdjust="spacing" textLength="9" x="59" y="260.0278">6</text><text fill="#000000" font-family="sans-serif" font-size="13" lengthAdjust="spacing" textLength="154" x="72" y="260.0278">operação bem sucedida</text><!--MD5=[739b23d5a2b916f1a7dc888a47ad88dd]
@startuml
autonumber
actor "Utilizador" as USR

activate USR
USR -> ":System" : pretende transmitir o seu grau de satisfação
activate ":System"
":System" - -> USR : devolve a lista de pedidos do colaborador
deactivate ":System"

USR -> ":System" : seleciona o pedido a atribuir o grau
activate ":System"
":System" - -> USR : solicita o valor do grau
deactivate ":System"

USR -> ":System" : insere o grau de satisfação
activate ":System"
":System" - -> USR : operação bem sucedida
deactivate ":System"

deactivate USR
@enduml

PlantUML version 1.2021.7(Sun May 23 12:40:07 UTC 2021)
(GPL source distribution)
Java Runtime: Java(TM) SE Runtime Environment
JVM: Java HotSpot(TM) 64-Bit Server VM
Default Encoding: UTF-8
Language: en
Country: US
--></g></svg>