<?xml version="1.0" encoding="UTF-8" standalone="no"?><svg xmlns="http://www.w3.org/2000/svg" xmlns:xlink="http://www.w3.org/1999/xlink" contentScriptType="application/ecmascript" contentStyleType="text/css" height="450px" preserveAspectRatio="none" style="width:961px;height:450px;" version="1.1" viewBox="0 0 961 450" width="961px" zoomAndPan="magnify"><defs/><g><!--MD5=[cd42c26d075a0111e41e88403e9efcd2]
class FactoryBootstrapper--><polygon fill="#F8F8F8" points="398,7,398,7.2102,407.8125,6.5857,417.625,7.1933,427.4375,7.3997,437.25,6.2866,447.0625,6.9223,456.875,6.5735,466.6875,6.6165,476.5,6.9318,486.3125,6.3086,496.125,7.5536,505.9375,6.3697,515.75,6.8022,525.5625,7.4319,535.375,6.9142,545.1875,7.0682,555,7,554.9681,7,555.1785,16.6,555.2391,26.2,555.5857,35.8,555.6711,45.4,555,55,555,55.6793,545.1875,55.2546,535.375,55.4636,525.5625,55.7022,515.75,54.2788,505.9375,55.6785,496.125,54.7035,486.3125,55.5338,476.5,54.505,466.6875,54.9315,456.875,55.7416,447.0625,54.9513,437.25,55.1053,427.4375,55.3386,417.625,55.4162,407.8125,54.9961,398,55,398.2872,55,397.4276,45.4,398.2844,35.8,398.5482,26.2,398.4445,16.6,398,7" style="stroke:#383838;stroke-width:1.5;"/><polygon fill="#C2C2C2" points="424.0608,25.6756,422.4484,27.8788,420.5412,31.1057,417.8136,33.2804,414.9474,34.4696,412.662,34.5728,409.7247,33.0855,406.9532,32.1139,404.8495,30.1412,403.7461,27.8828,403.0917,26.0845,402.4506,23.7357,401.41,21.7145,402.2096,19.741,402.9102,17.5792,405.5393,15.8695,407.389,13.6511,409.6784,12.9144,412.4001,12.2801,415.8904,12.657,417.8021,13.5585,420.0247,13.9672,422.7272,16.736,423.6693,19.659,424.0786,21.6534,423.615,24.9399" style="stroke:#383838;stroke-width:1.0;"/><path d="M415.3438,18.6719 C414.4063,18.2344 413.8125,18.0938 412.9375,18.0938 C410.3125,18.0938 408.3125,20.1719 408.3125,22.8906 L408.3125,24.0156 C408.3125,26.5938 410.4219,28.4844 413.3125,28.4844 C414.5313,28.4844 415.6875,28.1875 416.4375,27.6406 C417.0156,27.2344 417.3438,26.7813 417.3438,26.3906 C417.3438,25.9375 416.9531,25.5469 416.4844,25.5469 C416.2656,25.5469 416.0625,25.625 415.875,25.8125 C415.4219,26.2969 415.4219,26.2969 415.2344,26.3906 C414.8125,26.6563 414.125,26.7813 413.3594,26.7813 C411.3125,26.7813 410.0156,25.6875 410.0156,23.9844 L410.0156,22.8906 C410.0156,21.1094 411.2656,19.7969 413,19.7969 C413.5781,19.7969 414.1875,19.9531 414.6563,20.2031 C415.1406,20.4844 415.3125,20.7031 415.4063,21.1094 C415.4688,21.5156 415.5,21.6406 415.6406,21.7656 C415.7813,21.9063 416.0156,22.0156 416.2344,22.0156 C416.5,22.0156 416.7656,21.875 416.9375,21.6563 C417.0469,21.5 417.0781,21.3125 417.0781,20.8906 L417.0781,19.4688 C417.0781,19.0313 417.0625,18.9063 416.9688,18.75 C416.8125,18.4844 416.5313,18.3438 416.2344,18.3438 C415.9375,18.3438 415.7344,18.4375 415.5156,18.75 L415.3438,18.6719 Z " fill="#000000"/><text fill="#000000" font-family="FG Virgil" font-size="12" lengthAdjust="spacing" textLength="125" x="427" y="27.1543">FactoryBootstrapper</text><path d="M399,39 L399,39.2802 L408.6875,38.4476 L418.375,39.2577 L428.0625,39.5329 L437.75,38.0488 L447.4375,38.8964 L457.125,38.4313 L466.8125,38.4887 L476.5,38.9091 L486.1875,38.0782 L495.875,39.7382 L505.5625,38.1596 L515.25,38.7363 L524.9375,39.5759 L534.625,38.8856 L544.3125,39.091 L554,39 " fill="#F8F8F8" style="stroke:#383838;stroke-width:1.5;"/><path d="M399,47 L399,47.2802 L408.6875,46.4476 L418.375,47.2577 L428.0625,47.5329 L437.75,46.0488 L447.4375,46.8964 L457.125,46.4313 L466.8125,46.4887 L476.5,46.9091 L486.1875,46.0782 L495.875,47.7382 L505.5625,46.1596 L515.25,46.7363 L524.9375,47.5759 L534.625,46.8856 L544.3125,47.091 L554,47 " fill="#F8F8F8" style="stroke:#383838;stroke-width:1.5;"/><!--MD5=[ece17242358c8fb0113442f60ad9edd4]
class CatalogoBootstrapper--><polygon fill="#F8F8F8" points="494,115,494,115.2102,503.7059,114.5857,513.4118,115.1933,523.1176,115.3997,532.8235,114.2866,542.5294,114.9223,552.2353,114.5735,561.9412,114.6165,571.6471,114.9318,581.3529,114.3086,591.0588,115.5536,600.7647,114.3697,610.4706,114.8022,620.1765,115.4319,629.8824,114.9142,639.5882,115.0682,649.2941,114.9681,659,115,659.1785,115,659.2391,125.5156,659.5857,136.0313,659.6711,146.5469,659.6793,157.0625,659.2546,167.5781,659.4636,178.0938,659,188.6094,659,189.3116,649.2941,187.8882,639.5882,189.2879,629.8824,188.3129,620.1765,189.1432,610.4706,188.1144,600.7647,188.5409,591.0588,189.351,581.3529,188.5606,571.6471,188.7147,561.9412,188.948,552.2353,189.0256,542.5294,188.6055,532.8235,188.8966,523.1176,188.037,513.4118,188.8938,503.7059,189.1576,494,188.6094,494.4445,188.6094,494.613,178.0938,493.5169,167.5781,493.3478,157.0625,493.3786,146.5469,493.9411,136.0313,493.8035,125.5156,494,115" style="stroke:#383838;stroke-width:1.5;"/><polygon fill="#C2C2C2" points="520.0608,133.6756,518.4484,135.8788,516.5412,139.1057,513.8136,141.2804,510.9474,142.4696,508.662,142.5728,505.7247,141.0855,502.9532,140.1139,500.8495,138.1412,499.7461,135.8828,499.0917,134.0845,498.4506,131.7357,497.41,129.7145,498.2096,127.741,498.9102,125.5792,501.5393,123.8695,503.389,121.6511,505.6784,120.9144,508.4001,120.2801,511.8904,120.657,513.8021,121.5585,516.0247,121.9672,518.7272,124.736,519.6693,127.659,520.0786,129.6534,519.615,132.9399" style="stroke:#383838;stroke-width:1.0;"/><path d="M511.3438,126.6719 C510.4063,126.2344 509.8125,126.0938 508.9375,126.0938 C506.3125,126.0938 504.3125,128.1719 504.3125,130.8906 L504.3125,132.0156 C504.3125,134.5938 506.4219,136.4844 509.3125,136.4844 C510.5313,136.4844 511.6875,136.1875 512.4375,135.6406 C513.0156,135.2344 513.3438,134.7813 513.3438,134.3906 C513.3438,133.9375 512.9531,133.5469 512.4844,133.5469 C512.2656,133.5469 512.0625,133.625 511.875,133.8125 C511.4219,134.2969 511.4219,134.2969 511.2344,134.3906 C510.8125,134.6563 510.125,134.7813 509.3594,134.7813 C507.3125,134.7813 506.0156,133.6875 506.0156,131.9844 L506.0156,130.8906 C506.0156,129.1094 507.2656,127.7969 509,127.7969 C509.5781,127.7969 510.1875,127.9531 510.6563,128.2031 C511.1406,128.4844 511.3125,128.7031 511.4063,129.1094 C511.4688,129.5156 511.5,129.6406 511.6406,129.7656 C511.7813,129.9063 512.0156,130.0156 512.2344,130.0156 C512.5,130.0156 512.7656,129.875 512.9375,129.6563 C513.0469,129.5 513.0781,129.3125 513.0781,128.8906 L513.0781,127.4688 C513.0781,127.0313 513.0625,126.9063 512.9688,126.75 C512.8125,126.4844 512.5313,126.3438 512.2344,126.3438 C511.9375,126.3438 511.7344,126.4375 511.5156,126.75 L511.3438,126.6719 Z " fill="#000000"/><text fill="#000000" font-family="FG Virgil" font-size="12" lengthAdjust="spacing" textLength="133" x="523" y="135.1543">CatalogoBootstrapper</text><path d="M495,147 L495,147.2802 L505.1875,146.4476 L515.375,147.2577 L525.5625,147.5329 L535.75,146.0488 L545.9375,146.8964 L556.125,146.4313 L566.3125,146.4887 L576.5,146.9091 L586.6875,146.0782 L596.875,147.7382 L607.0625,146.1596 L617.25,146.7363 L627.4375,147.5759 L637.625,146.8856 L647.8125,147.091 L658,147 " fill="#F8F8F8" style="stroke:#383838;stroke-width:1.5;"/><path d="M495,155 L495,155.2802 L505.1875,154.4476 L515.375,155.2577 L525.5625,155.5329 L535.75,154.0488 L545.9375,154.8964 L556.125,154.4313 L566.3125,154.4887 L576.5,154.9091 L586.6875,154.0782 L596.875,155.7382 L607.0625,154.1596 L617.25,154.7363 L627.4375,155.5759 L637.625,154.8856 L647.8125,155.091 L658,155 " fill="#F8F8F8" style="stroke:#383838;stroke-width:1.5;"/><text fill="#000000" font-family="FG Virgil" font-size="11" lengthAdjust="spacing" textLength="56" x="500" y="169.2104">execute()</text><text fill="#000000" font-family="FG Virgil" font-size="11" lengthAdjust="spacing" textLength="52" x="500" y="182.0151">register()</text><!--MD5=[3c53b7d4816e778f4776984cb196eb7b]
class ServicoBootstrapper--><polygon fill="#F8F8F8" points="297.5,115,297.5,115.2102,307.375,114.5857,317.25,115.1933,327.125,115.3997,337,114.2866,346.875,114.9223,356.75,114.5735,366.625,114.6165,376.5,114.9318,386.375,114.3086,396.25,115.5536,406.125,114.3697,416,114.8022,425.875,115.4319,435.75,114.9142,445.625,115.0682,455.5,115,455.4681,115,455.6785,125.5156,455.7391,136.0313,456.0857,146.5469,456.1711,157.0625,456.1793,167.5781,455.7546,178.0938,455.5,188.6094,455.5,189.073,445.625,189.3116,435.75,187.8882,425.875,189.2879,416,188.3129,406.125,189.1432,396.25,188.1144,386.375,188.5409,376.5,189.351,366.625,188.5606,356.75,188.7147,346.875,188.948,337,189.0256,327.125,188.6055,317.25,188.8966,307.375,188.037,297.5,188.6094,297.7844,188.6094,298.0482,178.0938,297.9445,167.5781,298.113,157.0625,297.0169,146.5469,296.8478,136.0313,296.8786,125.5156,297.5,115" style="stroke:#383838;stroke-width:1.5;"/><polygon fill="#C2C2C2" points="323.5608,133.6756,321.9484,135.8788,320.0412,139.1057,317.3136,141.2804,314.4474,142.4696,312.162,142.5728,309.2247,141.0855,306.4532,140.1139,304.3495,138.1412,303.2461,135.8828,302.5917,134.0845,301.9506,131.7357,300.91,129.7145,301.7096,127.741,302.4102,125.5792,305.0393,123.8695,306.889,121.6511,309.1784,120.9144,311.9001,120.2801,315.3904,120.657,317.3021,121.5585,319.5247,121.9672,322.2272,124.736,323.1693,127.659,323.5786,129.6534,323.115,132.9399" style="stroke:#383838;stroke-width:1.0;"/><path d="M314.8438,126.6719 C313.9063,126.2344 313.3125,126.0938 312.4375,126.0938 C309.8125,126.0938 307.8125,128.1719 307.8125,130.8906 L307.8125,132.0156 C307.8125,134.5938 309.9219,136.4844 312.8125,136.4844 C314.0313,136.4844 315.1875,136.1875 315.9375,135.6406 C316.5156,135.2344 316.8438,134.7813 316.8438,134.3906 C316.8438,133.9375 316.4531,133.5469 315.9844,133.5469 C315.7656,133.5469 315.5625,133.625 315.375,133.8125 C314.9219,134.2969 314.9219,134.2969 314.7344,134.3906 C314.3125,134.6563 313.625,134.7813 312.8594,134.7813 C310.8125,134.7813 309.5156,133.6875 309.5156,131.9844 L309.5156,130.8906 C309.5156,129.1094 310.7656,127.7969 312.5,127.7969 C313.0781,127.7969 313.6875,127.9531 314.1563,128.2031 C314.6406,128.4844 314.8125,128.7031 314.9063,129.1094 C314.9688,129.5156 315,129.6406 315.1406,129.7656 C315.2813,129.9063 315.5156,130.0156 315.7344,130.0156 C316,130.0156 316.2656,129.875 316.4375,129.6563 C316.5469,129.5 316.5781,129.3125 316.5781,128.8906 L316.5781,127.4688 C316.5781,127.0313 316.5625,126.9063 316.4688,126.75 C316.3125,126.4844 316.0313,126.3438 315.7344,126.3438 C315.4375,126.3438 315.2344,126.4375 315.0156,126.75 L314.8438,126.6719 Z " fill="#000000"/><text fill="#000000" font-family="FG Virgil" font-size="12" lengthAdjust="spacing" textLength="126" x="326.5" y="135.1543">ServicoBootstrapper</text><path d="M298.5,147 L298.5,147.2802 L308.25,146.4476 L318,147.2577 L327.75,147.5329 L337.5,146.0488 L347.25,146.8964 L357,146.4313 L366.75,146.4887 L376.5,146.9091 L386.25,146.0782 L396,147.7382 L405.75,146.1596 L415.5,146.7363 L425.25,147.5759 L435,146.8856 L444.75,147.091 L454.5,147 " fill="#F8F8F8" style="stroke:#383838;stroke-width:1.5;"/><path d="M298.5,155 L298.5,155.2802 L308.25,154.4476 L318,155.2577 L327.75,155.5329 L337.5,154.0488 L347.25,154.8964 L357,154.4313 L366.75,154.4887 L376.5,154.9091 L386.25,154.0782 L396,155.7382 L405.75,154.1596 L415.5,154.7363 L425.25,155.5759 L435,154.8856 L444.75,155.091 L454.5,155 " fill="#F8F8F8" style="stroke:#383838;stroke-width:1.5;"/><text fill="#000000" font-family="FG Virgil" font-size="11" lengthAdjust="spacing" textLength="56" x="303.5" y="169.2104">execute()</text><text fill="#000000" font-family="FG Virgil" font-size="11" lengthAdjust="spacing" textLength="52" x="303.5" y="182.0151">register()</text><!--MD5=[a444b631f990c0c339fa2fe8f05aa83e]
class NovoCatalogoCTRL--><polygon fill="#F8F8F8" points="507.5,249,507.5,249.2102,517.7857,248.5857,528.0714,249.1933,538.3571,249.3997,548.6429,248.2866,558.9286,248.9223,569.2143,248.5735,579.5,248.6165,589.7857,248.9318,600.0714,248.3086,610.3571,249.5536,620.6429,248.3697,630.9286,248.8022,641.2143,249.4319,651.5,249,651.4142,249,651.5682,259.1341,651.4681,269.2682,651.6785,279.4023,651.7391,289.5365,652.0857,299.6706,651.5,309.8047,651.5,310.4757,641.2143,310.4839,630.9286,310.0593,620.6429,310.2683,610.3571,310.5069,600.0714,309.0835,589.7857,310.4832,579.5,309.5082,569.2143,310.3385,558.9286,309.3097,548.6429,309.7362,538.3571,310.5463,528.0714,309.756,517.7857,309.91,507.5,309.8047,507.8386,309.8047,507.9162,299.6706,507.4961,289.5365,507.7872,279.4023,506.9276,269.2682,507.7844,259.1341,507.5,249" style="stroke:#383838;stroke-width:1.5;"/><polygon fill="#C2C2C2" points="533.5608,267.6756,531.9484,269.8788,530.0412,273.1057,527.3136,275.2804,524.4474,276.4696,522.162,276.5728,519.2247,275.0855,516.4532,274.1139,514.3495,272.1412,513.2461,269.8828,512.5917,268.0845,511.9506,265.7357,510.91,263.7145,511.7096,261.741,512.4102,259.5792,515.0393,257.8695,516.889,255.6511,519.1784,254.9144,521.9001,254.2801,525.3904,254.657,527.3021,255.5585,529.5247,255.9672,532.2272,258.736,533.1693,261.659,533.5786,263.6534,533.115,266.9399" style="stroke:#383838;stroke-width:1.0;"/><path d="M524.8438,260.6719 C523.9063,260.2344 523.3125,260.0938 522.4375,260.0938 C519.8125,260.0938 517.8125,262.1719 517.8125,264.8906 L517.8125,266.0156 C517.8125,268.5938 519.9219,270.4844 522.8125,270.4844 C524.0313,270.4844 525.1875,270.1875 525.9375,269.6406 C526.5156,269.2344 526.8438,268.7813 526.8438,268.3906 C526.8438,267.9375 526.4531,267.5469 525.9844,267.5469 C525.7656,267.5469 525.5625,267.625 525.375,267.8125 C524.9219,268.2969 524.9219,268.2969 524.7344,268.3906 C524.3125,268.6563 523.625,268.7813 522.8594,268.7813 C520.8125,268.7813 519.5156,267.6875 519.5156,265.9844 L519.5156,264.8906 C519.5156,263.1094 520.7656,261.7969 522.5,261.7969 C523.0781,261.7969 523.6875,261.9531 524.1563,262.2031 C524.6406,262.4844 524.8125,262.7031 524.9063,263.1094 C524.9688,263.5156 525,263.6406 525.1406,263.7656 C525.2813,263.9063 525.5156,264.0156 525.7344,264.0156 C526,264.0156 526.2656,263.875 526.4375,263.6563 C526.5469,263.5 526.5781,263.3125 526.5781,262.8906 L526.5781,261.4688 C526.5781,261.0313 526.5625,260.9063 526.4688,260.75 C526.3125,260.4844 526.0313,260.3438 525.7344,260.3438 C525.4375,260.3438 525.2344,260.4375 525.0156,260.75 L524.8438,260.6719 Z " fill="#000000"/><text fill="#000000" font-family="FG Virgil" font-size="12" lengthAdjust="spacing" textLength="112" x="536.5" y="269.1543">NovoCatalogoCTRL</text><path d="M508.5,281 L508.5,281.2802 L518.6429,280.4476 L528.7857,281.2577 L538.9286,281.5329 L549.0714,280.0488 L559.2143,280.8964 L569.3571,280.4313 L579.5,280.4887 L589.6429,280.9091 L599.7857,280.0782 L609.9286,281.7382 L620.0714,280.1596 L630.2143,280.7363 L640.3571,281.5759 L650.5,281 " fill="#F8F8F8" style="stroke:#383838;stroke-width:1.5;"/><path d="M508.5,289 L508.5,289.2802 L518.6429,288.4476 L528.7857,289.2577 L538.9286,289.5329 L549.0714,288.0488 L559.2143,288.8964 L569.3571,288.4313 L579.5,288.4887 L589.6429,288.9091 L599.7857,288.0782 L609.9286,289.7382 L620.0714,288.1596 L630.2143,288.7363 L640.3571,289.5759 L650.5,289 " fill="#F8F8F8" style="stroke:#383838;stroke-width:1.5;"/><text fill="#000000" font-family="FG Virgil" font-size="11" lengthAdjust="spacing" textLength="52" x="513.5" y="303.2104">register()</text><!--MD5=[e8c189551b7885b999ad7cefb30fc2a3]
class PersistenceContext--><polygon fill="#F8F8F8" points="311.5,376.5,311.5,376.7102,321.3667,376.0857,331.2333,376.6933,341.1,376.8997,350.9667,375.7866,360.8333,376.4223,370.7,376.0735,380.5667,376.1165,390.4333,376.4318,400.3,375.8086,410.1667,377.0536,420.0333,375.8697,429.9,376.3022,439.7667,376.9319,449.6333,376.4142,459.5,376.5,459.5682,376.5,459.4681,386.6341,459.6785,396.7682,459.7391,406.9023,460.0857,417.0365,460.1711,427.1706,459.5,437.3047,459.5,437.9839,449.6333,437.5593,439.7667,437.7683,429.9,438.0069,420.0333,436.5835,410.1667,437.9832,400.3,437.0082,390.4333,437.8385,380.5667,436.8097,370.7,437.2362,360.8333,438.0463,350.9667,437.256,341.1,437.41,331.2333,437.6433,321.3667,437.7209,311.5,437.3047,311.4961,437.3047,311.7872,427.1706,310.9276,417.0365,311.7844,406.9023,312.0482,396.7682,311.9445,386.6341,311.5,376.5" style="stroke:#383838;stroke-width:1.5;"/><polygon fill="#C2C2C2" points="337.5608,395.1756,335.9484,397.3788,334.0412,400.6057,331.3136,402.7804,328.4474,403.9696,326.162,404.0728,323.2247,402.5855,320.4532,401.6139,318.3495,399.6412,317.2461,397.3828,316.5917,395.5845,315.9506,393.2357,314.91,391.2145,315.7096,389.241,316.4102,387.0792,319.0393,385.3695,320.889,383.1511,323.1784,382.4144,325.9001,381.7801,329.3904,382.157,331.3021,383.0585,333.5247,383.4672,336.2272,386.236,337.1693,389.159,337.5786,391.1534,337.115,394.4399" style="stroke:#383838;stroke-width:1.0;"/><path d="M328.8438,388.1719 C327.9063,387.7344 327.3125,387.5938 326.4375,387.5938 C323.8125,387.5938 321.8125,389.6719 321.8125,392.3906 L321.8125,393.5156 C321.8125,396.0938 323.9219,397.9844 326.8125,397.9844 C328.0313,397.9844 329.1875,397.6875 329.9375,397.1406 C330.5156,396.7344 330.8438,396.2813 330.8438,395.8906 C330.8438,395.4375 330.4531,395.0469 329.9844,395.0469 C329.7656,395.0469 329.5625,395.125 329.375,395.3125 C328.9219,395.7969 328.9219,395.7969 328.7344,395.8906 C328.3125,396.1563 327.625,396.2813 326.8594,396.2813 C324.8125,396.2813 323.5156,395.1875 323.5156,393.4844 L323.5156,392.3906 C323.5156,390.6094 324.7656,389.2969 326.5,389.2969 C327.0781,389.2969 327.6875,389.4531 328.1563,389.7031 C328.6406,389.9844 328.8125,390.2031 328.9063,390.6094 C328.9688,391.0156 329,391.1406 329.1406,391.2656 C329.2813,391.4063 329.5156,391.5156 329.7344,391.5156 C330,391.5156 330.2656,391.375 330.4375,391.1563 C330.5469,391 330.5781,390.8125 330.5781,390.3906 L330.5781,388.9688 C330.5781,388.5313 330.5625,388.4063 330.4688,388.25 C330.3125,387.9844 330.0313,387.8438 329.7344,387.8438 C329.4375,387.8438 329.2344,387.9375 329.0156,388.25 L328.8438,388.1719 Z " fill="#000000"/><text fill="#000000" font-family="FG Virgil" font-size="12" lengthAdjust="spacing" textLength="116" x="340.5" y="396.6543">PersistenceContext</text><path d="M312.5,408.5 L312.5,408.7802 L322.2333,407.9476 L331.9667,408.7577 L341.7,409.0329 L351.4333,407.5488 L361.1667,408.3964 L370.9,407.9313 L380.6333,407.9887 L390.3667,408.4091 L400.1,407.5782 L409.8333,409.2382 L419.5667,407.6596 L429.3,408.2363 L439.0333,409.0759 L448.7667,408.3856 L458.5,408.5 " fill="#F8F8F8" style="stroke:#383838;stroke-width:1.5;"/><path d="M312.5,416.5 L312.5,416.7802 L322.2333,415.9476 L331.9667,416.7577 L341.7,417.0329 L351.4333,415.5488 L361.1667,416.3964 L370.9,415.9313 L380.6333,415.9887 L390.3667,416.4091 L400.1,415.5782 L409.8333,417.2382 L419.5667,415.6596 L429.3,416.2363 L439.0333,417.0759 L448.7667,416.3856 L458.5,416.5 " fill="#F8F8F8" style="stroke:#383838;stroke-width:1.5;"/><text fill="#000000" font-family="FG Virgil" font-size="11" lengthAdjust="spacing" textLength="75" x="317.5" y="430.7104">repositories()</text><!--MD5=[48590afff58a68e2fcba47824d6f8a11]
class RepositoryFactory--><polygon fill="#F8F8F8" points="494.5,370,494.5,370.2102,504.6429,369.5857,514.7857,370.1933,524.9286,370.3997,535.0714,369.2866,545.2143,369.9223,555.3571,369.5735,565.5,369.6165,575.6429,369.9318,585.7857,369.3086,595.9286,370.5536,606.0714,369.3697,616.2143,369.8022,626.3571,370.4319,636.5,370,636.4142,370,636.5682,380.5156,636.4681,391.0313,636.6785,401.5469,636.7391,412.0625,637.0857,422.5781,637.1711,433.0938,636.5,443.6094,636.5,444.2886,626.3571,443.864,616.2143,444.073,606.0714,444.3116,595.9286,442.8882,585.7857,444.2879,575.6429,443.3129,565.5,444.1432,555.3571,443.1144,545.2143,443.5409,535.0714,444.351,524.9286,443.5606,514.7857,443.7147,504.6429,443.948,494.5,443.6094,494.9162,443.6094,494.4961,433.0938,494.7872,422.5781,493.9276,412.0625,494.7844,401.5469,495.0482,391.0313,494.9445,380.5156,494.5,370" style="stroke:#383838;stroke-width:1.5;"/><polygon fill="#C2C2C2" points="520.5608,388.6756,518.9484,390.8788,517.0412,394.1057,514.3136,396.2804,511.4474,397.4696,509.162,397.5728,506.2247,396.0855,503.4532,395.1139,501.3495,393.1412,500.2461,390.8828,499.5917,389.0845,498.9506,386.7357,497.91,384.7145,498.7096,382.741,499.4102,380.5792,502.0393,378.8695,503.889,376.6511,506.1784,375.9144,508.9001,375.2801,512.3904,375.657,514.3021,376.5585,516.5247,376.9672,519.2272,379.736,520.1693,382.659,520.5786,384.6534,520.115,387.9399" style="stroke:#383838;stroke-width:1.0;"/><path d="M511.8438,381.6719 C510.9063,381.2344 510.3125,381.0938 509.4375,381.0938 C506.8125,381.0938 504.8125,383.1719 504.8125,385.8906 L504.8125,387.0156 C504.8125,389.5938 506.9219,391.4844 509.8125,391.4844 C511.0313,391.4844 512.1875,391.1875 512.9375,390.6406 C513.5156,390.2344 513.8438,389.7813 513.8438,389.3906 C513.8438,388.9375 513.4531,388.5469 512.9844,388.5469 C512.7656,388.5469 512.5625,388.625 512.375,388.8125 C511.9219,389.2969 511.9219,389.2969 511.7344,389.3906 C511.3125,389.6563 510.625,389.7813 509.8594,389.7813 C507.8125,389.7813 506.5156,388.6875 506.5156,386.9844 L506.5156,385.8906 C506.5156,384.1094 507.7656,382.7969 509.5,382.7969 C510.0781,382.7969 510.6875,382.9531 511.1563,383.2031 C511.6406,383.4844 511.8125,383.7031 511.9063,384.1094 C511.9688,384.5156 512,384.6406 512.1406,384.7656 C512.2813,384.9063 512.5156,385.0156 512.7344,385.0156 C513,385.0156 513.2656,384.875 513.4375,384.6563 C513.5469,384.5 513.5781,384.3125 513.5781,383.8906 L513.5781,382.4688 C513.5781,382.0313 513.5625,381.9063 513.4688,381.75 C513.3125,381.4844 513.0313,381.3438 512.7344,381.3438 C512.4375,381.3438 512.2344,381.4375 512.0156,381.75 L511.8438,381.6719 Z " fill="#000000"/><text fill="#000000" font-family="FG Virgil" font-size="12" lengthAdjust="spacing" textLength="110" x="523.5" y="390.1543">RepositoryFactory</text><path d="M495.5,402 L495.5,402.2802 L505.5,401.4476 L515.5,402.2577 L525.5,402.5329 L535.5,401.0488 L545.5,401.8964 L555.5,401.4313 L565.5,401.4887 L575.5,401.9091 L585.5,401.0782 L595.5,402.7382 L605.5,401.1596 L615.5,401.7363 L625.5,402.5759 L635.5,402 " fill="#F8F8F8" style="stroke:#383838;stroke-width:1.5;"/><path d="M495.5,410 L495.5,410.2802 L505.5,409.4476 L515.5,410.2577 L525.5,410.5329 L535.5,409.0488 L545.5,409.8964 L555.5,409.4313 L565.5,409.4887 L575.5,409.9091 L585.5,409.0782 L595.5,410.7382 L605.5,409.1596 L615.5,409.7363 L625.5,410.5759 L635.5,410 " fill="#F8F8F8" style="stroke:#383838;stroke-width:1.5;"/><text fill="#000000" font-family="FG Virgil" font-size="11" lengthAdjust="spacing" textLength="62" x="500.5" y="424.2104">catalogos()</text><text fill="#000000" font-family="FG Virgil" font-size="11" lengthAdjust="spacing" textLength="55" x="500.5" y="437.0151">servicos()</text><!--MD5=[37de35b2239f3e75f2a4e341603fb23d]
class CatalogoRepository--><polygon fill="#F8F8F8" points="671.5,376.5,671.5,376.7102,681.5,376.0857,691.5,376.6933,701.5,376.8997,711.5,375.7866,721.5,376.4223,731.5,376.0735,741.5,376.1165,751.5,376.4318,761.5,375.8086,771.5,377.0536,781.5,375.8697,791.5,376.3022,801.5,376.9319,811.5,376.4142,821.5,376.5,821.5682,376.5,821.4681,386.6341,821.6785,396.7682,821.7391,406.9023,822.0857,417.0365,822.1711,427.1706,821.5,437.3047,821.5,437.9839,811.5,437.5593,801.5,437.7683,791.5,438.0069,781.5,436.5835,771.5,437.9832,761.5,437.0082,751.5,437.8385,741.5,436.8097,731.5,437.2362,721.5,438.0463,711.5,437.256,701.5,437.41,691.5,437.6433,681.5,437.7209,671.5,437.3047,671.4961,437.3047,671.7872,427.1706,670.9276,417.0365,671.7844,406.9023,672.0482,396.7682,671.9445,386.6341,671.5,376.5" style="stroke:#383838;stroke-width:1.5;"/><polygon fill="#C2C2C2" points="697.5608,395.1756,695.9484,397.3788,694.0412,400.6057,691.3136,402.7804,688.4474,403.9696,686.162,404.0728,683.2247,402.5855,680.4532,401.6139,678.3495,399.6412,677.2461,397.3828,676.5917,395.5845,675.9506,393.2357,674.91,391.2145,675.7096,389.241,676.4102,387.0792,679.0393,385.3695,680.889,383.1511,683.1784,382.4144,685.9001,381.7801,689.3904,382.157,691.3021,383.0585,693.5247,383.4672,696.2272,386.236,697.1693,389.159,697.5786,391.1534,697.115,394.4399" style="stroke:#383838;stroke-width:1.0;"/><path d="M688.8438,388.1719 C687.9063,387.7344 687.3125,387.5938 686.4375,387.5938 C683.8125,387.5938 681.8125,389.6719 681.8125,392.3906 L681.8125,393.5156 C681.8125,396.0938 683.9219,397.9844 686.8125,397.9844 C688.0313,397.9844 689.1875,397.6875 689.9375,397.1406 C690.5156,396.7344 690.8438,396.2813 690.8438,395.8906 C690.8438,395.4375 690.4531,395.0469 689.9844,395.0469 C689.7656,395.0469 689.5625,395.125 689.375,395.3125 C688.9219,395.7969 688.9219,395.7969 688.7344,395.8906 C688.3125,396.1563 687.625,396.2813 686.8594,396.2813 C684.8125,396.2813 683.5156,395.1875 683.5156,393.4844 L683.5156,392.3906 C683.5156,390.6094 684.7656,389.2969 686.5,389.2969 C687.0781,389.2969 687.6875,389.4531 688.1563,389.7031 C688.6406,389.9844 688.8125,390.2031 688.9063,390.6094 C688.9688,391.0156 689,391.1406 689.1406,391.2656 C689.2813,391.4063 689.5156,391.5156 689.7344,391.5156 C690,391.5156 690.2656,391.375 690.4375,391.1563 C690.5469,391 690.5781,390.8125 690.5781,390.3906 L690.5781,388.9688 C690.5781,388.5313 690.5625,388.4063 690.4688,388.25 C690.3125,387.9844 690.0313,387.8438 689.7344,387.8438 C689.4375,387.8438 689.2344,387.9375 689.0156,388.25 L688.8438,388.1719 Z " fill="#000000"/><text fill="#000000" font-family="FG Virgil" font-size="12" lengthAdjust="spacing" textLength="118" x="700.5" y="396.6543">CatalogoRepository</text><path d="M672.5,408.5 L672.5,408.7802 L682.3667,407.9476 L692.2333,408.7577 L702.1,409.0329 L711.9667,407.5488 L721.8333,408.3964 L731.7,407.9313 L741.5667,407.9887 L751.4333,408.4091 L761.3,407.5782 L771.1667,409.2382 L781.0333,407.6596 L790.9,408.2363 L800.7667,409.0759 L810.6333,408.3856 L820.5,408.5 " fill="#F8F8F8" style="stroke:#383838;stroke-width:1.5;"/><path d="M672.5,416.5 L672.5,416.7802 L682.3667,415.9476 L692.2333,416.7577 L702.1,417.0329 L711.9667,415.5488 L721.8333,416.3964 L731.7,415.9313 L741.5667,415.9887 L751.4333,416.4091 L761.3,415.5782 L771.1667,417.2382 L781.0333,415.6596 L790.9,416.2363 L800.7667,417.0759 L810.6333,416.3856 L820.5,416.5 " fill="#F8F8F8" style="stroke:#383838;stroke-width:1.5;"/><text fill="#000000" font-family="FG Virgil" font-size="11" lengthAdjust="spacing" textLength="110" x="677.5" y="430.7104">save(newCatalogo)</text><!--MD5=[51865f8cbfe0824679c335d6e733f291]
class ServicoRepository--><polygon fill="#F8F8F8" points="7,376.5,7,376.7102,17.2143,376.0857,27.4286,376.6933,37.6429,376.8997,47.8571,375.7866,58.0714,376.4223,68.2857,376.0735,78.5,376.1165,88.7143,376.4318,98.9286,375.8086,109.1429,377.0536,119.3571,375.8697,129.5714,376.3022,139.7857,376.9319,150,376.5,149.9142,376.5,150.0682,386.6341,149.9681,396.7682,150.1785,406.9023,150.2391,417.0365,150.5857,427.1706,150,437.3047,150,437.9757,139.7857,437.9839,129.5714,437.5593,119.3571,437.7683,109.1429,438.0069,98.9286,436.5835,88.7143,437.9832,78.5,437.0082,68.2857,437.8385,58.0714,436.8097,47.8571,437.2362,37.6429,438.0463,27.4286,437.256,17.2143,437.41,7,437.3047,7.3386,437.3047,7.4162,427.1706,6.9961,417.0365,7.2872,406.9023,6.4276,396.7682,7.2844,386.6341,7,376.5" style="stroke:#383838;stroke-width:1.5;"/><polygon fill="#C2C2C2" points="33.0608,395.1756,31.4484,397.3788,29.5412,400.6057,26.8136,402.7804,23.9474,403.9696,21.662,404.0728,18.7247,402.5855,15.9532,401.6139,13.8495,399.6412,12.7461,397.3828,12.0917,395.5845,11.4506,393.2357,10.41,391.2145,11.2096,389.241,11.9102,387.0792,14.5393,385.3695,16.389,383.1511,18.6784,382.4144,21.4001,381.7801,24.8904,382.157,26.8021,383.0585,29.0247,383.4672,31.7272,386.236,32.6693,389.159,33.0786,391.1534,32.615,394.4399" style="stroke:#383838;stroke-width:1.0;"/><path d="M24.3438,388.1719 C23.4063,387.7344 22.8125,387.5938 21.9375,387.5938 C19.3125,387.5938 17.3125,389.6719 17.3125,392.3906 L17.3125,393.5156 C17.3125,396.0938 19.4219,397.9844 22.3125,397.9844 C23.5313,397.9844 24.6875,397.6875 25.4375,397.1406 C26.0156,396.7344 26.3438,396.2813 26.3438,395.8906 C26.3438,395.4375 25.9531,395.0469 25.4844,395.0469 C25.2656,395.0469 25.0625,395.125 24.875,395.3125 C24.4219,395.7969 24.4219,395.7969 24.2344,395.8906 C23.8125,396.1563 23.125,396.2813 22.3594,396.2813 C20.3125,396.2813 19.0156,395.1875 19.0156,393.4844 L19.0156,392.3906 C19.0156,390.6094 20.2656,389.2969 22,389.2969 C22.5781,389.2969 23.1875,389.4531 23.6563,389.7031 C24.1406,389.9844 24.3125,390.2031 24.4063,390.6094 C24.4688,391.0156 24.5,391.1406 24.6406,391.2656 C24.7813,391.4063 25.0156,391.5156 25.2344,391.5156 C25.5,391.5156 25.7656,391.375 25.9375,391.1563 C26.0469,391 26.0781,390.8125 26.0781,390.3906 L26.0781,388.9688 C26.0781,388.5313 26.0625,388.4063 25.9688,388.25 C25.8125,387.9844 25.5313,387.8438 25.2344,387.8438 C24.9375,387.8438 24.7344,387.9375 24.5156,388.25 L24.3438,388.1719 Z " fill="#000000"/><text fill="#000000" font-family="FG Virgil" font-size="12" lengthAdjust="spacing" textLength="111" x="36" y="396.6543">ServicoRepository</text><path d="M8,408.5 L8,408.7802 L18.0714,407.9476 L28.1429,408.7577 L38.2143,409.0329 L48.2857,407.5488 L58.3571,408.3964 L68.4286,407.9313 L78.5,407.9887 L88.5714,408.4091 L98.6429,407.5782 L108.7143,409.2382 L118.7857,407.6596 L128.8571,408.2363 L138.9286,409.0759 L149,408.5 " fill="#F8F8F8" style="stroke:#383838;stroke-width:1.5;"/><path d="M8,416.5 L8,416.7802 L18.0714,415.9476 L28.1429,416.7577 L38.2143,417.0329 L48.2857,415.5488 L58.3571,416.3964 L68.4286,415.9313 L78.5,415.9887 L88.5714,416.4091 L98.6429,415.5782 L108.7143,417.2382 L118.7857,415.6596 L128.8571,416.2363 L138.9286,417.0759 L149,416.5 " fill="#F8F8F8" style="stroke:#383838;stroke-width:1.5;"/><text fill="#000000" font-family="FG Virgil" font-size="11" lengthAdjust="spacing" textLength="103" x="13" y="430.7104">save(newServico)</text><!--MD5=[28183b5fe251cf9d4adbbaa3c2129d6e]
class Catalogo--><polygon fill="#F8F8F8" points="856.5,376.5,856.5,376.7102,866.3,376.0857,876.1,376.6933,885.9,376.8997,895.7,375.7866,905.5,376.4223,915.3,376.0735,925.1,376.1165,934.9,376.4318,944.7,375.8086,954.5,376.5,955.0536,376.5,953.8697,386.6341,954.3022,396.7682,954.9319,406.9023,954.4142,417.0365,954.5682,427.1706,954.5,437.3047,954.5,437.2727,944.7,437.4832,934.9,437.5438,925.1,437.8904,915.3,437.9757,905.5,437.9839,895.7,437.5593,885.9,437.7683,876.1,438.0069,866.3,436.5835,856.5,437.3047,857.1785,437.3047,856.2035,427.1706,857.0338,417.0365,856.005,406.9023,856.4315,396.7682,857.2416,386.6341,856.5,376.5" style="stroke:#383838;stroke-width:1.5;"/><polygon fill="#C2C2C2" points="888.4108,395.1756,886.7984,397.3788,884.8912,400.6057,882.1636,402.7804,879.2974,403.9696,877.012,404.0728,874.0747,402.5855,871.3032,401.6139,869.1995,399.6412,868.0961,397.3828,867.4417,395.5845,866.8006,393.2357,865.76,391.2145,866.5596,389.241,867.2602,387.0792,869.8893,385.3695,871.739,383.1511,874.0284,382.4144,876.7501,381.7801,880.2404,382.157,882.1521,383.0585,884.3747,383.4672,887.0772,386.236,888.0193,389.159,888.4286,391.1534,887.965,394.4399" style="stroke:#383838;stroke-width:1.0;"/><path d="M879.6938,388.1719 C878.7563,387.7344 878.1625,387.5938 877.2875,387.5938 C874.6625,387.5938 872.6625,389.6719 872.6625,392.3906 L872.6625,393.5156 C872.6625,396.0938 874.7719,397.9844 877.6625,397.9844 C878.8813,397.9844 880.0375,397.6875 880.7875,397.1406 C881.3656,396.7344 881.6938,396.2813 881.6938,395.8906 C881.6938,395.4375 881.3031,395.0469 880.8344,395.0469 C880.6156,395.0469 880.4125,395.125 880.225,395.3125 C879.7719,395.7969 879.7719,395.7969 879.5844,395.8906 C879.1625,396.1563 878.475,396.2813 877.7094,396.2813 C875.6625,396.2813 874.3656,395.1875 874.3656,393.4844 L874.3656,392.3906 C874.3656,390.6094 875.6156,389.2969 877.35,389.2969 C877.9281,389.2969 878.5375,389.4531 879.0063,389.7031 C879.4906,389.9844 879.6625,390.2031 879.7563,390.6094 C879.8188,391.0156 879.85,391.1406 879.9906,391.2656 C880.1313,391.4063 880.3656,391.5156 880.5844,391.5156 C880.85,391.5156 881.1156,391.375 881.2875,391.1563 C881.3969,391 881.4281,390.8125 881.4281,390.3906 L881.4281,388.9688 C881.4281,388.5313 881.4125,388.4063 881.3188,388.25 C881.1625,387.9844 880.8813,387.8438 880.5844,387.8438 C880.2875,387.8438 880.0844,387.9375 879.8656,388.25 L879.6938,388.1719 Z " fill="#000000"/><text fill="#000000" font-family="FG Virgil" font-size="12" lengthAdjust="spacing" textLength="53" x="892.65" y="396.6543">Catalogo</text><path d="M857.5,408.5 L857.5,408.7802 L867.1,407.9476 L876.7,408.7577 L886.3,409.0329 L895.9,407.5488 L905.5,408.3964 L915.1,407.9313 L924.7,407.9887 L934.3,408.4091 L943.9,407.5782 L953.5,408.5 " fill="#F8F8F8" style="stroke:#383838;stroke-width:1.5;"/><path d="M857.5,416.5 L857.5,416.7802 L867.1,415.9476 L876.7,416.7577 L886.3,417.0329 L895.9,415.5488 L905.5,416.3964 L915.1,415.9313 L924.7,415.9887 L934.3,416.4091 L943.9,415.5782 L953.5,416.5 " fill="#F8F8F8" style="stroke:#383838;stroke-width:1.5;"/><text fill="#000000" font-family="FG Virgil" font-size="11" lengthAdjust="spacing" textLength="86" x="862.5" y="430.7104">novoCatalogo()</text><!--MD5=[faf4d635eea35b16677487bac6ad9bf5]
class Servico--><polygon fill="#F8F8F8" points="185,376.5,185,376.7102,195.1111,376.0857,205.2222,376.6933,215.3333,376.8997,225.4444,375.7866,235.5556,376.4223,245.6667,376.0735,255.7778,376.1165,265.8889,376.4318,276,376.5,275.3086,376.5,276.5536,386.6341,275.3697,396.7682,275.8022,406.9023,276.4319,417.0365,275.9142,427.1706,276,437.3047,276,437.3729,265.8889,437.2727,255.7778,437.4832,245.6667,437.5438,235.5556,437.8904,225.4444,437.9757,215.3333,437.9839,205.2222,437.5593,195.1111,437.7683,185,437.3047,185.7022,437.3047,184.2788,427.1706,185.6785,417.0365,184.7035,406.9023,185.5338,396.7682,184.505,386.6341,185,376.5" style="stroke:#383838;stroke-width:1.5;"/><polygon fill="#C2C2C2" points="216.9108,395.1756,215.2984,397.3788,213.3912,400.6057,210.6636,402.7804,207.7974,403.9696,205.512,404.0728,202.5747,402.5855,199.8032,401.6139,197.6995,399.6412,196.5961,397.3828,195.9417,395.5845,195.3006,393.2357,194.26,391.2145,195.0596,389.241,195.7602,387.0792,198.3893,385.3695,200.239,383.1511,202.5284,382.4144,205.2501,381.7801,208.7404,382.157,210.6521,383.0585,212.8747,383.4672,215.5772,386.236,216.5193,389.159,216.9286,391.1534,216.465,394.4399" style="stroke:#383838;stroke-width:1.0;"/><path d="M208.1938,388.1719 C207.2563,387.7344 206.6625,387.5938 205.7875,387.5938 C203.1625,387.5938 201.1625,389.6719 201.1625,392.3906 L201.1625,393.5156 C201.1625,396.0938 203.2719,397.9844 206.1625,397.9844 C207.3813,397.9844 208.5375,397.6875 209.2875,397.1406 C209.8656,396.7344 210.1938,396.2813 210.1938,395.8906 C210.1938,395.4375 209.8031,395.0469 209.3344,395.0469 C209.1156,395.0469 208.9125,395.125 208.725,395.3125 C208.2719,395.7969 208.2719,395.7969 208.0844,395.8906 C207.6625,396.1563 206.975,396.2813 206.2094,396.2813 C204.1625,396.2813 202.8656,395.1875 202.8656,393.4844 L202.8656,392.3906 C202.8656,390.6094 204.1156,389.2969 205.85,389.2969 C206.4281,389.2969 207.0375,389.4531 207.5063,389.7031 C207.9906,389.9844 208.1625,390.2031 208.2563,390.6094 C208.3188,391.0156 208.35,391.1406 208.4906,391.2656 C208.6313,391.4063 208.8656,391.5156 209.0844,391.5156 C209.35,391.5156 209.6156,391.375 209.7875,391.1563 C209.8969,391 209.9281,390.8125 209.9281,390.3906 L209.9281,388.9688 C209.9281,388.5313 209.9125,388.4063 209.8188,388.25 C209.6625,387.9844 209.3813,387.8438 209.0844,387.8438 C208.7875,387.8438 208.5844,387.9375 208.3656,388.25 L208.1938,388.1719 Z " fill="#000000"/><text fill="#000000" font-family="FG Virgil" font-size="12" lengthAdjust="spacing" textLength="46" x="221.15" y="396.6543">Servico</text><path d="M186,408.5 L186,408.7802 L195.8889,407.9476 L205.7778,408.7577 L215.6667,409.0329 L225.5556,407.5488 L235.4444,408.3964 L245.3333,407.9313 L255.2222,407.9887 L265.1111,408.4091 L275,408.5 " fill="#F8F8F8" style="stroke:#383838;stroke-width:1.5;"/><path d="M186,416.5 L186,416.7802 L195.8889,415.9476 L205.7778,416.7577 L215.6667,417.0329 L225.5556,415.5488 L235.4444,416.3964 L245.3333,415.9313 L255.2222,415.9887 L265.1111,416.4091 L275,416.5 " fill="#F8F8F8" style="stroke:#383838;stroke-width:1.5;"/><text fill="#000000" font-family="FG Virgil" font-size="11" lengthAdjust="spacing" textLength="79" x="191" y="430.7104">novoServico()</text><!--MD5=[0d4e5460865fab64524af805768c65c5]
class EspecificarServicoController--><polygon fill="#F8F8F8" points="269,249,269,249.2102,279.15,248.5857,289.3,249.1933,299.45,249.3997,309.6,248.2866,319.75,248.9223,329.9,248.5735,340.05,248.6165,350.2,248.9318,360.35,248.3086,370.5,249.5536,380.65,248.3697,390.8,248.8022,400.95,249.4319,411.1,248.9142,421.25,249.0682,431.4,248.9681,441.55,249.1785,451.7,249.2391,461.85,249.5857,472,249,472.6711,249,472.6793,259.1341,472.2546,269.2682,472.4636,279.4023,472.7022,289.5365,471.2788,299.6706,472,309.8047,472,310.4832,461.85,309.5082,451.7,310.3385,441.55,309.3097,431.4,309.7362,421.25,310.5463,411.1,309.756,400.95,309.91,390.8,310.1433,380.65,310.2209,370.5,309.8008,360.35,310.0919,350.2,309.2323,340.05,310.0891,329.9,310.3529,319.75,310.2492,309.6,310.4177,299.45,309.3216,289.3,309.1525,279.15,309.1833,269,309.8047,268.9411,309.8047,268.8035,299.6706,269.6814,289.5365,268.8253,279.4023,268.6569,269.2682,269.2283,259.1341,269,249" style="stroke:#383838;stroke-width:1.5;"/><polygon fill="#C2C2C2" points="295.0608,267.6756,293.4484,269.8788,291.5412,273.1057,288.8136,275.2804,285.9474,276.4696,283.662,276.5728,280.7247,275.0855,277.9532,274.1139,275.8495,272.1412,274.7461,269.8828,274.0917,268.0845,273.4506,265.7357,272.41,263.7145,273.2096,261.741,273.9102,259.5792,276.5393,257.8695,278.389,255.6511,280.6784,254.9144,283.4001,254.2801,286.8904,254.657,288.8021,255.5585,291.0247,255.9672,293.7272,258.736,294.6693,261.659,295.0786,263.6534,294.615,266.9399" style="stroke:#383838;stroke-width:1.0;"/><path d="M286.3438,260.6719 C285.4063,260.2344 284.8125,260.0938 283.9375,260.0938 C281.3125,260.0938 279.3125,262.1719 279.3125,264.8906 L279.3125,266.0156 C279.3125,268.5938 281.4219,270.4844 284.3125,270.4844 C285.5313,270.4844 286.6875,270.1875 287.4375,269.6406 C288.0156,269.2344 288.3438,268.7813 288.3438,268.3906 C288.3438,267.9375 287.9531,267.5469 287.4844,267.5469 C287.2656,267.5469 287.0625,267.625 286.875,267.8125 C286.4219,268.2969 286.4219,268.2969 286.2344,268.3906 C285.8125,268.6563 285.125,268.7813 284.3594,268.7813 C282.3125,268.7813 281.0156,267.6875 281.0156,265.9844 L281.0156,264.8906 C281.0156,263.1094 282.2656,261.7969 284,261.7969 C284.5781,261.7969 285.1875,261.9531 285.6563,262.2031 C286.1406,262.4844 286.3125,262.7031 286.4063,263.1094 C286.4688,263.5156 286.5,263.6406 286.6406,263.7656 C286.7813,263.9063 287.0156,264.0156 287.2344,264.0156 C287.5,264.0156 287.7656,263.875 287.9375,263.6563 C288.0469,263.5 288.0781,263.3125 288.0781,262.8906 L288.0781,261.4688 C288.0781,261.0313 288.0625,260.9063 287.9688,260.75 C287.8125,260.4844 287.5313,260.3438 287.2344,260.3438 C286.9375,260.3438 286.7344,260.4375 286.5156,260.75 L286.3438,260.6719 Z " fill="#000000"/><text fill="#000000" font-family="FG Virgil" font-size="12" lengthAdjust="spacing" textLength="171" x="298" y="269.1543">EspecificarServicoController</text><path d="M270,281 L270,281.2802 L280.05,280.4476 L290.1,281.2577 L300.15,281.5329 L310.2,280.0488 L320.25,280.8964 L330.3,280.4313 L340.35,280.4887 L350.4,280.9091 L360.45,280.0782 L370.5,281.7382 L380.55,280.1596 L390.6,280.7363 L400.65,281.5759 L410.7,280.8856 L420.75,281.091 L430.8,280.9574 L440.85,281.238 L450.9,281.3188 L460.95,281.7809 L471,281 " fill="#F8F8F8" style="stroke:#383838;stroke-width:1.5;"/><path d="M270,289 L270,289.2802 L280.05,288.4476 L290.1,289.2577 L300.15,289.5329 L310.2,288.0488 L320.25,288.8964 L330.3,288.4313 L340.35,288.4887 L350.4,288.9091 L360.45,288.0782 L370.5,289.7382 L380.55,288.1596 L390.6,288.7363 L400.65,289.5759 L410.7,288.8856 L420.75,289.091 L430.8,288.9574 L440.85,289.238 L450.9,289.3188 L460.95,289.7809 L471,289 " fill="#F8F8F8" style="stroke:#383838;stroke-width:1.5;"/><text fill="#000000" font-family="FG Virgil" font-size="11" lengthAdjust="spacing" textLength="52" x="275" y="303.2104">register()</text><!--MD5=[44cf78e804e51bf20c0c3fdda77f64ec]
link FactoryBootstrapper to CatalogoBootstrapper--><path d="M496.018,55.227 L496.2325,55.4073 L502.2401,62.779 L509.5053,71.2077 L516.361,79.2921 L521.8698,86.2448 L529.1637,94.6975 L535.4527,102.3057 L542.533,110.579 " fill="none" style="stroke:#383838;stroke-width:1.0;"/><polygon fill="#383838" points="546.008,114.714,546.0753,114.7334,545.3298,112.783,544.9789,110.9464,544.4995,109.0727,543.5975,107.0772,543.2804,105.2504,543.2546,105.2481,543.041,106.3652,542.9575,107.4936,542.9644,108.6298,542.6596,109.739,542.7914,110.886,542.8073,111.0699,541.6461,110.5789,540.5314,110.6247,539.4224,110.736,538.2804,110.4663,537.1557,110.397,537.1657,110.4174,538.9215,111.2508,540.7227,112.1773,542.502,113.0588,544.3231,114.0261,546.008,114.714" style="stroke:#383838;stroke-width:1.0;"/><!--MD5=[28e8fbcadbc316d09c8e46268eb1f727]
link FactoryBootstrapper to ServicoBootstrapper--><path d="M456.982,55.227 L457.1965,55.4073 L449.9141,62.779 L443.8893,71.2077 L437.455,79.2921 L429.6738,86.2448 L423.6777,94.6975 L416.6767,102.3057 L410.467,110.579 " fill="none" style="stroke:#383838;stroke-width:1.0;"/><polygon fill="#383838" points="406.992,114.714,407.0227,114.777,408.7019,113.7265,410.5612,113.0451,412.3618,112.2435,413.9696,111.0466,415.8443,110.397,415.8421,110.3712,414.7049,110.3532,413.579,110.4652,412.4609,110.6678,411.3158,110.5586,410.2086,110.886,410.3925,110.902,409.9015,109.7407,409.9473,108.6261,410.0586,107.5171,409.7889,106.375,409.7196,105.2504,409.7414,105.2567,409.1638,107.1401,408.6857,109.0523,408.1596,110.9506,407.7251,112.8753,406.992,114.714" style="stroke:#383838;stroke-width:1.0;"/><!--MD5=[c68faed4db92c6c6e17b028e581145a8]
link CatalogoBootstrapper to NovoCatalogoCTRL--><path d="M577.368,189.3 L577.6482,189.3067 L577.0747,200.1262 L578.1436,210.985 L578.6778,221.8309 L577.4531,232.6349 L578.663,243.497 " fill="none" style="stroke:#383838;stroke-width:1.0;"/><polygon fill="#383838" points="578.786,248.624,578.8507,248.6509,579.4156,246.7525,580.3597,245.0118,581.1803,243.2198,581.5948,241.2587,582.5714,239.5317,582.5527,239.5138,581.6878,240.2523,580.9173,241.0809,580.2126,241.9722,579.2815,242.6476,578.6674,243.6254,578.7948,243.759,577.7037,242.6926,576.9844,242.0161,576.3106,241.3872,575.3727,240.4815,574.5737,239.7214,574.5943,239.7311,575.4065,241.4974,576.3124,243.3079,577.1731,245.097,578.12,246.927,578.786,248.624" style="stroke:#383838;stroke-width:1.0;"/><!--MD5=[24ce204f62b3405a371780383e769b5a]
link NovoCatalogoCTRL to CatalogoRepository--><path d="M619.077,310.242 L619.2454,310.466 L626.3834,315.5405 L634.5084,321.9283 L642.312,327.8885 L649.0586,332.4422 L657.2061,338.8599 L664.565,344.2283 L672.2377,350.0143 L680.1286,356.0906 L687.2677,361.1665 L695.9032,368.2337 L703.098,373.3837 " fill="none" style="stroke:#383838;stroke-width:1.0;"/><polygon fill="#383838" points="707.207,376.4717,707.2682,376.5058,706.1281,374.6835,705.3468,373.0611,704.4487,371.3736,703.1663,369.4721,702.4158,367.8668,702.3902,367.8631,702.4339,368.967,702.607,370.0891,702.8699,371.2241,702.8231,372.3151,703.2101,373.4676,703.236,373.6503,702.0604,373.4184,700.9605,373.72,699.8698,374.0867,698.7254,374.0747,697.6093,374.2618,697.6144,374.284,699.5264,374.6934,701.4617,375.2038,703.3858,375.6654,705.3313,376.22,707.207,376.4717" style="stroke:#383838;stroke-width:1.0;"/><!--MD5=[e0470dc7e1707ab6670627ff334c97e0]
link NovoCatalogoCTRL to PersistenceContext--><path d="M533.525,310.242 L533.6772,310.4773 L525.0601,315.06 L517.3353,321.0221 L509.32,326.5351 L500.349,330.5709 L492.6446,336.5644 L484.2271,341.4558 L476.0934,346.7858 L468.157,352.4207 L459.5408,357.0049 L452.2776,363.6806 L443.2554,367.637 L435.547,373.6245 " fill="none" style="stroke:#383838;stroke-width:1.0;"/><polygon fill="#383838" points="431.145,376.4717,431.1559,376.5409,433.0694,376.0293,435.0467,375.9234,437.0033,375.6854,438.8915,375.013,440.8743,374.9419,440.8689,374.9166,439.7383,374.5657,438.6351,374.3425,437.5509,374.2081,436.4011,373.7678,435.3432,373.756,435.5236,373.7946,435.375,372.6057,435.7531,371.5297,436.1955,370.4675,436.264,369.3251,436.5291,368.2248,436.5482,368.2373,435.4434,369.8684,434.4253,371.5561,433.3654,373.2165,432.3853,374.9291,431.145,376.4717" style="stroke:#383838;stroke-width:1.0;"/><!--MD5=[69627772fbac4295e50e175612bd1014]
link NovoCatalogoCTRL to Catalogo--><path d="M651.639,301.748 L651.6671,301.8371 L655.7269,302.8786 L659.9513,304.4424 L664.1222,305.8361 L668.1167,306.6705 L672.3552,308.2792 L672.3446,308.2463 L676.7449,309.5441 L681.199,311.0075 L685.6905,312.586 L690.0531,313.7678 L694.5962,315.5053 L694.6746,315.7385 L699.1867,316.8116 L703.9276,318.5657 L708.6964,320.4029 L713.3029,321.7566 L717.9947,323.3646 L718.0047,323.3933 L722.8278,325.0374 L727.6964,326.8119 L732.543,328.5235 L737.4315,330.3551 L742.1836,331.7955 L742.2855,332.0758 L747.2091,333.8674 L752.0671,335.4781 L757.0213,337.3536 L761.9799,339.2414 L766.7958,340.7362 L766.6818,340.4366 L771.8367,342.8958 L776.6162,344.3685 L781.6811,346.5912 L786.4521,348.0416 L791.464,350.125 L791.4526,350.0967 L796.4582,352.3859 L801.1988,354.0149 L806.0957,356.0335 L811.0057,358.0848 L815.8211,359.9001 L815.8927,360.0707 L818.2099,360.9012 L820.6494,362.0231 L822.891,362.6735 L825.4278,364.0273 L827.7683,364.9133 L827.8652,365.1369 L830.1932,366.1119 L832.5694,367.198 L834.7219,367.7684 L837.0384,368.7167 L839.5,370 L839.3831,369.7498 L841.8891,371.098 L844.2634,372.1643 L846.8288,373.6396 L849.0679,374.4166 L851.501,375.6087 " fill="none" style="stroke:#383838;stroke-width:1.0;"/><polygon fill="#383838" points="856.217,377.961,856.271,378.0056,854.8571,376.3535,853.76,374.9628,852.5597,373.487,851.0202,371.7314,849.9503,370.3631,849.9257,370.3549,850.174,371.3911,850.5462,372.4687,851.0045,373.575,851.166,374.5822,851.7432,375.7283,851.8017,375.9033,850.6035,375.8876,849.5762,376.3829,848.5697,376.9406,847.4419,377.1355,846.378,377.5212,846.379,377.5439,848.3453,377.5985,850.3162,377.7566,852.2849,377.8647,854.2579,378.0681,856.217,377.961" style="stroke:#383838;stroke-width:1.0;"/><!--MD5=[3ed3ee463e0463809b88e165f7f59887]
link NovoCatalogoCTRL to RepositoryFactory--><path d="M576.182,310.242 L576.4605,310.2731 L574.4258,321.0022 L574.0237,331.9135 L573.09,342.7655 L570.4079,353.4224 L570.146,364.3493 " fill="none" style="stroke:#383838;stroke-width:1.0;"/><polygon fill="#383838" points="569.543,369.7555,569.6035,369.7909,570.4184,367.9856,571.5879,366.3876,572.6419,364.7221,573.3163,362.8346,574.5161,361.2545,574.5,361.2342,573.5436,361.8498,572.6688,362.5673,571.8507,363.3558,570.8372,363.8999,570.0973,364.7863,570.2415,364.9015,569.2268,363.7714,568.6331,362.9776,568.0907,362.2249,567.2495,361.2334,566.5655,360.3675,566.5871,360.3744,567.1508,362.2419,567.8132,364.1407,568.428,366.0244,569.1336,367.9369,569.543,369.7555" style="stroke:#383838;stroke-width:1.0;"/><!--MD5=[59df0b78ff33e094c8d75273997a7b63]
link ServicoBootstrapper to EspecificarServicoController--><path d="M374.765,189.3 L375.0449,189.3134 L373.6948,200.113 L373.9856,210.9911 L373.7421,221.8437 L371.7413,232.6122 L372.173,243.497 " fill="none" style="stroke:#383838;stroke-width:1.0;"/><polygon fill="#383838" points="371.928,248.624,371.9906,248.6555,372.6896,246.8022,373.7555,245.1334,374.7019,243.4045,375.2555,241.478,376.3529,239.8251,376.3355,239.8059,375.42,240.4808,374.5924,241.2523,373.8258,242.091,372.8488,242.6982,372.1666,243.6297,372.3031,243.7538,371.2502,242.6511,370.596,241.9108,369.9904,241.2148,369.1017,240.2614,368.362,239.4434,368.3832,239.4516,369.0653,241.2757,369.8439,243.1372,370.5759,244.9806,371.3968,246.8586,371.928,248.624" style="stroke:#383838;stroke-width:1.0;"/><!--MD5=[940c857166f2eb81e7b5e98b55ae5065]
link EspecificarServicoController to ServicoRepository--><path d="M301.67,310.083 L301.7807,310.3405 L292.1011,313.5944 L283.0701,318.3576 L273.828,322.6293 L263.8912,325.2847 L254.875,330.0823 L245.3406,333.674 L236.0124,337.7456 L226.8276,342.1508 L217.1487,345.4062 L208.4534,350.9503 L198.4792,353.5189 L189.3561,358.0676 L180.3369,362.8579 L170.7135,366.2426 L161.4437,370.4502 L152.057,374.3855 " fill="none" style="stroke:#383838;stroke-width:1.0;"/><polygon fill="#383838" points="147.373,376.3986,147.3739,376.4687,149.3409,376.2848,151.313,376.5115,153.2835,376.6046,155.2486,376.2578,157.2211,376.5199,157.2115,376.4958,156.1176,375.9687,155.072,375.5629,154.0601,375.2414,152.9322,374.6294,151.9667,374.4243,152.1381,374.4927,152.1907,373.2956,152.7437,372.2981,153.3578,371.325,153.6166,370.2102,154.0623,369.1699,154.0789,369.1854,152.7166,370.6084,151.4302,372.1018,150.1072,373.5613,148.8541,375.0855,147.373,376.3986" style="stroke:#383838;stroke-width:1.0;"/><!--MD5=[f445eaf63a95a027fd666edc240d9caa]
link EspecificarServicoController to PersistenceContext--><path d="M374.055,310.242 L374.3333,310.2753 L374.7206,320.3351 L376.7392,330.5899 L378.2266,340.7812 L377.9672,350.7637 L380.0229,361.023 L381.34,371.1939 " fill="none" style="stroke:#383838;stroke-width:1.0;"/><polygon fill="#383838" points="381.971,376.4717,382.0379,376.4924,382.4197,374.5488,383.194,372.7262,383.8404,370.8643,384.0665,368.8727,384.8745,367.0605,384.8541,367.0445,384.0633,367.862,383.3752,368.7601,382.7584,369.7144,381.8958,370.4753,381.3775,371.507,381.4916,371.6521,380.3584,370.6425,379.5582,370.0565,378.7986,369.5221,377.8027,368.687,376.931,368.0101,376.9506,368.0217,377.9299,369.697,378.9981,371.4252,380.0235,373.1279,381.1307,374.8793,381.971,376.4717" style="stroke:#383838;stroke-width:1.0;"/><!--MD5=[3b4e9fec8f9a906b2809fbf725460666]
link EspecificarServicoController to Servico--><path d="M337.322,310.242 L337.5091,310.4507 L329.1868,316.7927 L321.9611,324.358 L314.3784,331.525 L305.6213,337.382 L298.4206,344.9752 L290.3438,351.591 L282.6156,358.5957 L275.1298,365.8709 L267.424,372.9006 " fill="none" style="stroke:#383838;stroke-width:1.0;"/><polygon fill="#383838" points="263.44,376.4717,263.4615,376.5384,265.2719,375.7346,267.2085,375.3216,269.1039,374.7813,270.8642,373.8225,272.8116,373.4431,272.8102,373.4172,271.6742,373.2394,270.5453,373.192,269.4213,373.2352,268.2803,372.966,267.1632,373.1344,267.3475,373.1444,267.0152,371.9932,267.2209,370.8714,267.4922,369.7532,267.3816,368.6141,267.4719,367.4859,267.4927,367.4953,266.6558,369.2787,265.9134,371.1046,265.1255,372.91,264.4245,374.7545,263.44,376.4717" style="stroke:#383838;stroke-width:1.0;"/><!--MD5=[7cd1aaa6c33f72b9a3b8415b315b362e]
link EspecificarServicoController to RepositoryFactory--><path d="M416.712,310.242 L416.8637,310.4777 L424.4406,314.9439 L432.9066,320.7916 L441.083,326.1894 L448.3074,330.1079 L456.7937,335.9871 L464.5695,340.7624 L472.6281,345.9771 L480.8832,351.4971 L488.461,355.9648 L497.387,362.5271 L505.015,367.0728 " fill="none" style="stroke:#383838;stroke-width:1.0;"/><polygon fill="#383838" points="509.541,369.9855,509.5996,370.0239,508.3448,368.2629,507.4334,366.7272,506.4101,365.1182,505.0192,363.2678,504.1373,361.7514,504.112,361.746,504.2382,362.827,504.492,363.9357,504.8345,365.0636,504.8713,366.1252,505.3364,367.2797,505.3755,367.4601,504.1862,367.3142,503.1111,367.695,502.0499,368.1399,500.9077,368.2111,499.8081,368.4789,499.8115,368.5013,501.753,368.7697,503.7103,369.1403,505.66,369.4616,507.6243,369.8771,509.541,369.9855" style="stroke:#383838;stroke-width:1.0;"/><!--MD5=[8a288ab8f327812e407ab94751b76791]
@startuml
'http://plantuml.com/skinparam.html
skinparam handwritten true
skinparam monochrome true
skinparam packageStyle rect
skinparam defaultFontName FG Virgil
skinparam shadowing false

class FactoryBootstrapper
class CatalogoBootstrapper 
class ServicoBootstrapper 
class NovoCatalogoCTRL
class PersistenceContext
class RepositoryFactory 
class CatalogoRepository
class ServicoRepository
class Catalogo
class Servico


FactoryBootstrapper - -> CatalogoBootstrapper
FactoryBootstrapper - -> ServicoBootstrapper

CatalogoBootstrapper : execute()
CatalogoBootstrapper : register()

ServicoBootstrapper : execute()
ServicoBootstrapper : register()

NovoCatalogoCTRL : register()
EspecificarServicoController : register()


CatalogoBootstrapper - -> NovoCatalogoCTRL

NovoCatalogoCTRL - -> CatalogoRepository
NovoCatalogoCTRL - -> PersistenceContext
NovoCatalogoCTRL - -> Catalogo


PersistenceContext : repositories()
NovoCatalogoCTRL - -> RepositoryFactory
RepositoryFactory : catalogos()
RepositoryFactory : servicos()
Catalogo : novoCatalogo()
CatalogoRepository : save(newCatalogo)


ServicoBootstrapper - -> EspecificarServicoController

EspecificarServicoController - -> ServicoRepository
EspecificarServicoController - -> PersistenceContext
EspecificarServicoController - -> Servico


EspecificarServicoController - -> RepositoryFactory
Servico : novoServico()
ServicoRepository : save(newServico)
@enduml

@startuml
skinparam handwritten true
skinparam monochrome true
skinparam packageStyle rect
skinparam defaultFontName FG Virgil
skinparam shadowing false

class FactoryBootstrapper
class CatalogoBootstrapper 
class ServicoBootstrapper 
class NovoCatalogoCTRL
class PersistenceContext
class RepositoryFactory 
class CatalogoRepository
class ServicoRepository
class Catalogo
class Servico


FactoryBootstrapper - -> CatalogoBootstrapper
FactoryBootstrapper - -> ServicoBootstrapper

CatalogoBootstrapper : execute()
CatalogoBootstrapper : register()

ServicoBootstrapper : execute()
ServicoBootstrapper : register()

NovoCatalogoCTRL : register()
EspecificarServicoController : register()


CatalogoBootstrapper - -> NovoCatalogoCTRL

NovoCatalogoCTRL - -> CatalogoRepository
NovoCatalogoCTRL - -> PersistenceContext
NovoCatalogoCTRL - -> Catalogo


PersistenceContext : repositories()
NovoCatalogoCTRL - -> RepositoryFactory
RepositoryFactory : catalogos()
RepositoryFactory : servicos()
Catalogo : novoCatalogo()
CatalogoRepository : save(newCatalogo)


ServicoBootstrapper - -> EspecificarServicoController

EspecificarServicoController - -> ServicoRepository
EspecificarServicoController - -> PersistenceContext
EspecificarServicoController - -> Servico


EspecificarServicoController - -> RepositoryFactory
Servico : novoServico()
ServicoRepository : save(newServico)
@enduml

PlantUML version 1.2021.5(Sun Apr 25 11:20:28 UTC 2021)
(GPL source distribution)
Java Runtime: Java(TM) SE Runtime Environment
JVM: Java HotSpot(TM) 64-Bit Server VM
Default Encoding: UTF-8
Language: en
Country: US
--></g></svg>