<?xml version="1.0" encoding="UTF-8" standalone="no"?><svg xmlns="http://www.w3.org/2000/svg" xmlns:xlink="http://www.w3.org/1999/xlink" contentScriptType="application/ecmascript" contentStyleType="text/css" height="571px" preserveAspectRatio="none" style="width:882px;height:571px;background:#FFFFFF;" version="1.1" viewBox="0 0 882 571" width="882px" zoomAndPan="magnify"><defs/><g><!--MD5=[cd42c26d075a0111e41e88403e9efcd2]
class FactoryBootstrapper--><polygon fill="#F8F8F8" points="315.5,7,315.5,7.2102,325.3125,6.5857,335.125,7.1933,344.9375,7.3997,354.75,6.2866,364.5625,6.9223,374.375,6.5735,384.1875,6.6165,394,6.9318,403.8125,6.3086,413.625,7.5536,423.4375,6.3697,433.25,6.8022,443.0625,7.4319,452.875,6.9142,462.6875,7.0682,472.5,7,472.4681,7,472.6785,16.6,472.7391,26.2,473.0857,35.8,473.1711,45.4,472.5,55,472.5,55.6793,462.6875,55.2546,452.875,55.4636,443.0625,55.7022,433.25,54.2788,423.4375,55.6785,413.625,54.7035,403.8125,55.5338,394,54.505,384.1875,54.9315,374.375,55.7416,364.5625,54.9513,354.75,55.1053,344.9375,55.3386,335.125,55.4162,325.3125,54.9961,315.5,55,315.7872,55,314.9276,45.4,315.7844,35.8,316.0482,26.2,315.9445,16.6,315.5,7" style="stroke:#383838;stroke-width:1.5;"/><polygon fill="#C2C2C2" points="341.5608,25.6756,339.9484,27.8788,338.0412,31.1057,335.3136,33.2804,332.4474,34.4696,330.162,34.5728,327.2247,33.0855,324.4532,32.1139,322.3495,30.1412,321.2461,27.8828,320.5917,26.0845,319.9506,23.7357,318.91,21.7145,319.7096,19.741,320.4102,17.5792,323.0393,15.8695,324.889,13.6511,327.1784,12.9144,329.9001,12.2801,333.3904,12.657,335.3021,13.5585,337.5247,13.9672,340.2272,16.736,341.1693,19.659,341.5786,21.6534,341.115,24.9399" style="stroke:#383838;stroke-width:1.0;"/><path d="M332.8438,18.6719 C331.9063,18.2344 331.3125,18.0938 330.4375,18.0938 C327.8125,18.0938 325.8125,20.1719 325.8125,22.8906 L325.8125,24.0156 C325.8125,26.5938 327.9219,28.4844 330.8125,28.4844 C332.0313,28.4844 333.1875,28.1875 333.9375,27.6406 C334.5156,27.2344 334.8438,26.7813 334.8438,26.3906 C334.8438,25.9375 334.4531,25.5469 333.9844,25.5469 C333.7656,25.5469 333.5625,25.625 333.375,25.8125 C332.9219,26.2969 332.9219,26.2969 332.7344,26.3906 C332.3125,26.6563 331.625,26.7813 330.8594,26.7813 C328.8125,26.7813 327.5156,25.6875 327.5156,23.9844 L327.5156,22.8906 C327.5156,21.1094 328.7656,19.7969 330.5,19.7969 C331.0781,19.7969 331.6875,19.9531 332.1563,20.2031 C332.6406,20.4844 332.8125,20.7031 332.9063,21.1094 C332.9688,21.5156 333,21.6406 333.1406,21.7656 C333.2813,21.9063 333.5156,22.0156 333.7344,22.0156 C334,22.0156 334.2656,21.875 334.4375,21.6563 C334.5469,21.5 334.5781,21.3125 334.5781,20.8906 L334.5781,19.4688 C334.5781,19.0313 334.5625,18.9063 334.4688,18.75 C334.3125,18.4844 334.0313,18.3438 333.7344,18.3438 C333.4375,18.3438 333.2344,18.4375 333.0156,18.75 L332.8438,18.6719 Z " fill="#000000"/><text fill="#000000" font-family="FG Virgil" font-size="12" lengthAdjust="spacing" textLength="125" x="344.5" y="27.1543">FactoryBootstrapper</text><path d="M316.5,39 L316.5,39.2802 L326.1875,38.4476 L335.875,39.2577 L345.5625,39.5329 L355.25,38.0488 L364.9375,38.8964 L374.625,38.4313 L384.3125,38.4887 L394,38.9091 L403.6875,38.0782 L413.375,39.7382 L423.0625,38.1596 L432.75,38.7363 L442.4375,39.5759 L452.125,38.8856 L461.8125,39.091 L471.5,39 " fill="#F8F8F8" style="stroke:#383838;stroke-width:1.5;"/><path d="M316.5,47 L316.5,47.2802 L326.1875,46.4476 L335.875,47.2577 L345.5625,47.5329 L355.25,46.0488 L364.9375,46.8964 L374.625,46.4313 L384.3125,46.4887 L394,46.9091 L403.6875,46.0782 L413.375,47.7382 L423.0625,46.1596 L432.75,46.7363 L442.4375,47.5759 L452.125,46.8856 L461.8125,47.091 L471.5,47 " fill="#F8F8F8" style="stroke:#383838;stroke-width:1.5;"/><!--MD5=[ece17242358c8fb0113442f60ad9edd4]
class CatalogoBootstrapper--><polygon fill="#F8F8F8" points="206.5,115,206.5,115.2102,216.2059,114.5857,225.9118,115.1933,235.6176,115.3997,245.3235,114.2866,255.0294,114.9223,264.7353,114.5735,274.4412,114.6165,284.1471,114.9318,293.8529,114.3086,303.5588,115.5536,313.2647,114.3697,322.9706,114.8022,332.6765,115.4319,342.3824,114.9142,352.0882,115.0682,361.7941,114.9681,371.5,115,371.6785,115,371.7391,125.5156,372.0857,136.0313,372.1711,146.5469,372.1793,157.0625,371.7546,167.5781,371.9636,178.0938,371.5,188.6094,371.5,189.3116,361.7941,187.8882,352.0882,189.2879,342.3824,188.3129,332.6765,189.1432,322.9706,188.1144,313.2647,188.5409,303.5588,189.351,293.8529,188.5606,284.1471,188.7147,274.4412,188.948,264.7353,189.0256,255.0294,188.6055,245.3235,188.8966,235.6176,188.037,225.9118,188.8938,216.2059,189.1576,206.5,188.6094,206.9445,188.6094,207.113,178.0938,206.0169,167.5781,205.8478,157.0625,205.8786,146.5469,206.4411,136.0313,206.3035,125.5156,206.5,115" style="stroke:#383838;stroke-width:1.5;"/><polygon fill="#C2C2C2" points="232.5608,133.6756,230.9484,135.8788,229.0412,139.1057,226.3136,141.2804,223.4474,142.4696,221.162,142.5728,218.2247,141.0855,215.4532,140.1139,213.3495,138.1412,212.2461,135.8828,211.5917,134.0845,210.9506,131.7357,209.91,129.7145,210.7096,127.741,211.4102,125.5792,214.0393,123.8695,215.889,121.6511,218.1784,120.9144,220.9001,120.2801,224.3904,120.657,226.3021,121.5585,228.5247,121.9672,231.2272,124.736,232.1693,127.659,232.5786,129.6534,232.115,132.9399" style="stroke:#383838;stroke-width:1.0;"/><path d="M223.8438,126.6719 C222.9063,126.2344 222.3125,126.0938 221.4375,126.0938 C218.8125,126.0938 216.8125,128.1719 216.8125,130.8906 L216.8125,132.0156 C216.8125,134.5938 218.9219,136.4844 221.8125,136.4844 C223.0313,136.4844 224.1875,136.1875 224.9375,135.6406 C225.5156,135.2344 225.8438,134.7813 225.8438,134.3906 C225.8438,133.9375 225.4531,133.5469 224.9844,133.5469 C224.7656,133.5469 224.5625,133.625 224.375,133.8125 C223.9219,134.2969 223.9219,134.2969 223.7344,134.3906 C223.3125,134.6563 222.625,134.7813 221.8594,134.7813 C219.8125,134.7813 218.5156,133.6875 218.5156,131.9844 L218.5156,130.8906 C218.5156,129.1094 219.7656,127.7969 221.5,127.7969 C222.0781,127.7969 222.6875,127.9531 223.1563,128.2031 C223.6406,128.4844 223.8125,128.7031 223.9063,129.1094 C223.9688,129.5156 224,129.6406 224.1406,129.7656 C224.2813,129.9063 224.5156,130.0156 224.7344,130.0156 C225,130.0156 225.2656,129.875 225.4375,129.6563 C225.5469,129.5 225.5781,129.3125 225.5781,128.8906 L225.5781,127.4688 C225.5781,127.0313 225.5625,126.9063 225.4688,126.75 C225.3125,126.4844 225.0313,126.3438 224.7344,126.3438 C224.4375,126.3438 224.2344,126.4375 224.0156,126.75 L223.8438,126.6719 Z " fill="#000000"/><text fill="#000000" font-family="FG Virgil" font-size="12" lengthAdjust="spacing" textLength="133" x="235.5" y="135.1543">CatalogoBootstrapper</text><path d="M207.5,147 L207.5,147.2802 L217.6875,146.4476 L227.875,147.2577 L238.0625,147.5329 L248.25,146.0488 L258.4375,146.8964 L268.625,146.4313 L278.8125,146.4887 L289,146.9091 L299.1875,146.0782 L309.375,147.7382 L319.5625,146.1596 L329.75,146.7363 L339.9375,147.5759 L350.125,146.8856 L360.3125,147.091 L370.5,147 " fill="#F8F8F8" style="stroke:#383838;stroke-width:1.5;"/><path d="M207.5,155 L207.5,155.2802 L217.6875,154.4476 L227.875,155.2577 L238.0625,155.5329 L248.25,154.0488 L258.4375,154.8964 L268.625,154.4313 L278.8125,154.4887 L289,154.9091 L299.1875,154.0782 L309.375,155.7382 L319.5625,154.1596 L329.75,154.7363 L339.9375,155.5759 L350.125,154.8856 L360.3125,155.091 L370.5,155 " fill="#F8F8F8" style="stroke:#383838;stroke-width:1.5;"/><text fill="#000000" font-family="FG Virgil" font-size="11" lengthAdjust="spacing" textLength="56" x="212.5" y="169.2104">execute()</text><text fill="#000000" font-family="FG Virgil" font-size="11" lengthAdjust="spacing" textLength="52" x="212.5" y="182.0151">register()</text><!--MD5=[3c53b7d4816e778f4776984cb196eb7b]
class ServicoBootstrapper--><polygon fill="#F8F8F8" points="420,115,420,115.2102,429.875,114.5857,439.75,115.1933,449.625,115.3997,459.5,114.2866,469.375,114.9223,479.25,114.5735,489.125,114.6165,499,114.9318,508.875,114.3086,518.75,115.5536,528.625,114.3697,538.5,114.8022,548.375,115.4319,558.25,114.9142,568.125,115.0682,578,115,577.9681,115,578.1785,125.5156,578.2391,136.0313,578.5857,146.5469,578.6711,157.0625,578.6793,167.5781,578.2546,178.0938,578,188.6094,578,189.073,568.125,189.3116,558.25,187.8882,548.375,189.2879,538.5,188.3129,528.625,189.1432,518.75,188.1144,508.875,188.5409,499,189.351,489.125,188.5606,479.25,188.7147,469.375,188.948,459.5,189.0256,449.625,188.6055,439.75,188.8966,429.875,188.037,420,188.6094,420.2844,188.6094,420.5482,178.0938,420.4445,167.5781,420.613,157.0625,419.5169,146.5469,419.3478,136.0313,419.3786,125.5156,420,115" style="stroke:#383838;stroke-width:1.5;"/><polygon fill="#C2C2C2" points="446.0608,133.6756,444.4484,135.8788,442.5412,139.1057,439.8136,141.2804,436.9474,142.4696,434.662,142.5728,431.7247,141.0855,428.9532,140.1139,426.8495,138.1412,425.7461,135.8828,425.0917,134.0845,424.4506,131.7357,423.41,129.7145,424.2096,127.741,424.9102,125.5792,427.5393,123.8695,429.389,121.6511,431.6784,120.9144,434.4001,120.2801,437.8904,120.657,439.8021,121.5585,442.0247,121.9672,444.7272,124.736,445.6693,127.659,446.0786,129.6534,445.615,132.9399" style="stroke:#383838;stroke-width:1.0;"/><path d="M437.3438,126.6719 C436.4063,126.2344 435.8125,126.0938 434.9375,126.0938 C432.3125,126.0938 430.3125,128.1719 430.3125,130.8906 L430.3125,132.0156 C430.3125,134.5938 432.4219,136.4844 435.3125,136.4844 C436.5313,136.4844 437.6875,136.1875 438.4375,135.6406 C439.0156,135.2344 439.3438,134.7813 439.3438,134.3906 C439.3438,133.9375 438.9531,133.5469 438.4844,133.5469 C438.2656,133.5469 438.0625,133.625 437.875,133.8125 C437.4219,134.2969 437.4219,134.2969 437.2344,134.3906 C436.8125,134.6563 436.125,134.7813 435.3594,134.7813 C433.3125,134.7813 432.0156,133.6875 432.0156,131.9844 L432.0156,130.8906 C432.0156,129.1094 433.2656,127.7969 435,127.7969 C435.5781,127.7969 436.1875,127.9531 436.6563,128.2031 C437.1406,128.4844 437.3125,128.7031 437.4063,129.1094 C437.4688,129.5156 437.5,129.6406 437.6406,129.7656 C437.7813,129.9063 438.0156,130.0156 438.2344,130.0156 C438.5,130.0156 438.7656,129.875 438.9375,129.6563 C439.0469,129.5 439.0781,129.3125 439.0781,128.8906 L439.0781,127.4688 C439.0781,127.0313 439.0625,126.9063 438.9688,126.75 C438.8125,126.4844 438.5313,126.3438 438.2344,126.3438 C437.9375,126.3438 437.7344,126.4375 437.5156,126.75 L437.3438,126.6719 Z " fill="#000000"/><text fill="#000000" font-family="FG Virgil" font-size="12" lengthAdjust="spacing" textLength="126" x="449" y="135.1543">ServicoBootstrapper</text><path d="M421,147 L421,147.2802 L430.75,146.4476 L440.5,147.2577 L450.25,147.5329 L460,146.0488 L469.75,146.8964 L479.5,146.4313 L489.25,146.4887 L499,146.9091 L508.75,146.0782 L518.5,147.7382 L528.25,146.1596 L538,146.7363 L547.75,147.5759 L557.5,146.8856 L567.25,147.091 L577,147 " fill="#F8F8F8" style="stroke:#383838;stroke-width:1.5;"/><path d="M421,155 L421,155.2802 L430.75,154.4476 L440.5,155.2577 L450.25,155.5329 L460,154.0488 L469.75,154.8964 L479.5,154.4313 L489.25,154.4887 L499,154.9091 L508.75,154.0782 L518.5,155.7382 L528.25,154.1596 L538,154.7363 L547.75,155.5759 L557.5,154.8856 L567.25,155.091 L577,155 " fill="#F8F8F8" style="stroke:#383838;stroke-width:1.5;"/><text fill="#000000" font-family="FG Virgil" font-size="11" lengthAdjust="spacing" textLength="56" x="426" y="169.2104">execute()</text><text fill="#000000" font-family="FG Virgil" font-size="11" lengthAdjust="spacing" textLength="52" x="426" y="182.0151">register()</text><!--MD5=[2d3184c806c3f64baa12a46caa287f2a]
class NovoCatalogoController--><polygon fill="#F8F8F8" points="194.5,249,194.5,249.2102,204.2222,248.5857,213.9444,249.1933,223.6667,249.3997,233.3889,248.2866,243.1111,248.9223,252.8333,248.5735,262.5556,248.6165,272.2778,248.9318,282,248.3086,291.7222,249.5536,301.4444,248.3697,311.1667,248.8022,320.8889,249.4319,330.6111,248.9142,340.3333,249.0682,350.0556,248.9681,359.7778,249.1785,369.5,249,369.7391,249,370.0857,259.1341,370.1711,269.2682,370.1793,279.4023,369.7546,289.5365,369.9636,299.6706,369.5,309.8047,369.5,310.5069,359.7778,309.0835,350.0556,310.4832,340.3333,309.5082,330.6111,310.3385,320.8889,309.3097,311.1667,309.7362,301.4444,310.5463,291.7222,309.756,282,309.91,272.2778,310.1433,262.5556,310.2209,252.8333,309.8008,243.1111,310.0919,233.3889,309.2323,223.6667,310.0891,213.9444,310.3529,204.2222,310.2492,194.5,309.8047,195.113,309.8047,194.0169,299.6706,193.8478,289.5365,193.8786,279.4023,194.4411,269.2682,194.3035,259.1341,194.5,249" style="stroke:#383838;stroke-width:1.5;"/><polygon fill="#C2C2C2" points="220.5608,267.6756,218.9484,269.8788,217.0412,273.1057,214.3136,275.2804,211.4474,276.4696,209.162,276.5728,206.2247,275.0855,203.4532,274.1139,201.3495,272.1412,200.2461,269.8828,199.5917,268.0845,198.9506,265.7357,197.91,263.7145,198.7096,261.741,199.4102,259.5792,202.0393,257.8695,203.889,255.6511,206.1784,254.9144,208.9001,254.2801,212.3904,254.657,214.3021,255.5585,216.5247,255.9672,219.2272,258.736,220.1693,261.659,220.5786,263.6534,220.115,266.9399" style="stroke:#383838;stroke-width:1.0;"/><path d="M211.8438,260.6719 C210.9063,260.2344 210.3125,260.0938 209.4375,260.0938 C206.8125,260.0938 204.8125,262.1719 204.8125,264.8906 L204.8125,266.0156 C204.8125,268.5938 206.9219,270.4844 209.8125,270.4844 C211.0313,270.4844 212.1875,270.1875 212.9375,269.6406 C213.5156,269.2344 213.8438,268.7813 213.8438,268.3906 C213.8438,267.9375 213.4531,267.5469 212.9844,267.5469 C212.7656,267.5469 212.5625,267.625 212.375,267.8125 C211.9219,268.2969 211.9219,268.2969 211.7344,268.3906 C211.3125,268.6563 210.625,268.7813 209.8594,268.7813 C207.8125,268.7813 206.5156,267.6875 206.5156,265.9844 L206.5156,264.8906 C206.5156,263.1094 207.7656,261.7969 209.5,261.7969 C210.0781,261.7969 210.6875,261.9531 211.1563,262.2031 C211.6406,262.4844 211.8125,262.7031 211.9063,263.1094 C211.9688,263.5156 212,263.6406 212.1406,263.7656 C212.2813,263.9063 212.5156,264.0156 212.7344,264.0156 C213,264.0156 213.2656,263.875 213.4375,263.6563 C213.5469,263.5 213.5781,263.3125 213.5781,262.8906 L213.5781,261.4688 C213.5781,261.0313 213.5625,260.9063 213.4688,260.75 C213.3125,260.4844 213.0313,260.3438 212.7344,260.3438 C212.4375,260.3438 212.2344,260.4375 212.0156,260.75 L211.8438,260.6719 Z " fill="#000000"/><text fill="#000000" font-family="FG Virgil" font-size="12" lengthAdjust="spacing" textLength="143" x="223.5" y="269.1543">NovoCatalogoController</text><path d="M195.5,281 L195.5,281.2802 L205.6765,280.4476 L215.8529,281.2577 L226.0294,281.5329 L236.2059,280.0488 L246.3824,280.8964 L256.5588,280.4313 L266.7353,280.4887 L276.9118,280.9091 L287.0882,280.0782 L297.2647,281.7382 L307.4412,280.1596 L317.6176,280.7363 L327.7941,281.5759 L337.9706,280.8856 L348.1471,281.091 L358.3235,280.9574 L368.5,281 " fill="#F8F8F8" style="stroke:#383838;stroke-width:1.5;"/><path d="M195.5,289 L195.5,289.2802 L205.6765,288.4476 L215.8529,289.2577 L226.0294,289.5329 L236.2059,288.0488 L246.3824,288.8964 L256.5588,288.4313 L266.7353,288.4887 L276.9118,288.9091 L287.0882,288.0782 L297.2647,289.7382 L307.4412,288.1596 L317.6176,288.7363 L327.7941,289.5759 L337.9706,288.8856 L348.1471,289.091 L358.3235,288.9574 L368.5,289 " fill="#F8F8F8" style="stroke:#383838;stroke-width:1.5;"/><text fill="#000000" font-family="FG Virgil" font-size="11" lengthAdjust="spacing" textLength="52" x="200.5" y="303.2104">register()</text><!--MD5=[e8c189551b7885b999ad7cefb30fc2a3]
class PersistenceContext--><polygon fill="#F8F8F8" points="388,376.5,388,376.7102,397.8667,376.0857,407.7333,376.6933,417.6,376.8997,427.4667,375.7866,437.3333,376.4223,447.2,376.0735,457.0667,376.1165,466.9333,376.4318,476.8,375.8086,486.6667,377.0536,496.5333,375.8697,506.4,376.3022,516.2667,376.9319,526.1333,376.4142,536,376.5,536.0682,376.5,535.9681,386.6341,536.1785,396.7682,536.2391,406.9023,536.5857,417.0365,536.6711,427.1706,536,437.3047,536,437.9839,526.1333,437.5593,516.2667,437.7683,506.4,438.0069,496.5333,436.5835,486.6667,437.9832,476.8,437.0082,466.9333,437.8385,457.0667,436.8097,447.2,437.2362,437.3333,438.0463,427.4667,437.256,417.6,437.41,407.7333,437.6433,397.8667,437.7209,388,437.3047,387.9961,437.3047,388.2872,427.1706,387.4276,417.0365,388.2844,406.9023,388.5482,396.7682,388.4445,386.6341,388,376.5" style="stroke:#383838;stroke-width:1.5;"/><polygon fill="#C2C2C2" points="414.0608,395.1756,412.4484,397.3788,410.5412,400.6057,407.8136,402.7804,404.9474,403.9696,402.662,404.0728,399.7247,402.5855,396.9532,401.6139,394.8495,399.6412,393.7461,397.3828,393.0917,395.5845,392.4506,393.2357,391.41,391.2145,392.2096,389.241,392.9102,387.0792,395.5393,385.3695,397.389,383.1511,399.6784,382.4144,402.4001,381.7801,405.8904,382.157,407.8021,383.0585,410.0247,383.4672,412.7272,386.236,413.6693,389.159,414.0786,391.1534,413.615,394.4399" style="stroke:#383838;stroke-width:1.0;"/><path d="M405.3438,388.1719 C404.4063,387.7344 403.8125,387.5938 402.9375,387.5938 C400.3125,387.5938 398.3125,389.6719 398.3125,392.3906 L398.3125,393.5156 C398.3125,396.0938 400.4219,397.9844 403.3125,397.9844 C404.5313,397.9844 405.6875,397.6875 406.4375,397.1406 C407.0156,396.7344 407.3438,396.2813 407.3438,395.8906 C407.3438,395.4375 406.9531,395.0469 406.4844,395.0469 C406.2656,395.0469 406.0625,395.125 405.875,395.3125 C405.4219,395.7969 405.4219,395.7969 405.2344,395.8906 C404.8125,396.1563 404.125,396.2813 403.3594,396.2813 C401.3125,396.2813 400.0156,395.1875 400.0156,393.4844 L400.0156,392.3906 C400.0156,390.6094 401.2656,389.2969 403,389.2969 C403.5781,389.2969 404.1875,389.4531 404.6563,389.7031 C405.1406,389.9844 405.3125,390.2031 405.4063,390.6094 C405.4688,391.0156 405.5,391.1406 405.6406,391.2656 C405.7813,391.4063 406.0156,391.5156 406.2344,391.5156 C406.5,391.5156 406.7656,391.375 406.9375,391.1563 C407.0469,391 407.0781,390.8125 407.0781,390.3906 L407.0781,388.9688 C407.0781,388.5313 407.0625,388.4063 406.9688,388.25 C406.8125,387.9844 406.5313,387.8438 406.2344,387.8438 C405.9375,387.8438 405.7344,387.9375 405.5156,388.25 L405.3438,388.1719 Z " fill="#000000"/><text fill="#000000" font-family="FG Virgil" font-size="12" lengthAdjust="spacing" textLength="116" x="417" y="396.6543">PersistenceContext</text><path d="M389,408.5 L389,408.7802 L398.7333,407.9476 L408.4667,408.7577 L418.2,409.0329 L427.9333,407.5488 L437.6667,408.3964 L447.4,407.9313 L457.1333,407.9887 L466.8667,408.4091 L476.6,407.5782 L486.3333,409.2382 L496.0667,407.6596 L505.8,408.2363 L515.5333,409.0759 L525.2667,408.3856 L535,408.5 " fill="#F8F8F8" style="stroke:#383838;stroke-width:1.5;"/><path d="M389,416.5 L389,416.7802 L398.7333,415.9476 L408.4667,416.7577 L418.2,417.0329 L427.9333,415.5488 L437.6667,416.3964 L447.4,415.9313 L457.1333,415.9887 L466.8667,416.4091 L476.6,415.5782 L486.3333,417.2382 L496.0667,415.6596 L505.8,416.2363 L515.5333,417.0759 L525.2667,416.3856 L535,416.5 " fill="#F8F8F8" style="stroke:#383838;stroke-width:1.5;"/><text fill="#000000" font-family="FG Virgil" font-size="11" lengthAdjust="spacing" textLength="75" x="394" y="430.7104">repositories()</text><!--MD5=[48590afff58a68e2fcba47824d6f8a11]
class RepositoryFactory--><polygon fill="#F8F8F8" points="211,370,211,370.2102,221.1429,369.5857,231.2857,370.1933,241.4286,370.3997,251.5714,369.2866,261.7143,369.9223,271.8571,369.5735,282,369.6165,292.1429,369.9318,302.2857,369.3086,312.4286,370.5536,322.5714,369.3697,332.7143,369.8022,342.8571,370.4319,353,370,352.9142,370,353.0682,380.5156,352.9681,391.0313,353.1785,401.5469,353.2391,412.0625,353.5857,422.5781,353.6711,433.0938,353,443.6094,353,444.2886,342.8571,443.864,332.7143,444.073,322.5714,444.3116,312.4286,442.8882,302.2857,444.2879,292.1429,443.3129,282,444.1432,271.8571,443.1144,261.7143,443.5409,251.5714,444.351,241.4286,443.5606,231.2857,443.7147,221.1429,443.948,211,443.6094,211.4162,443.6094,210.9961,433.0938,211.2872,422.5781,210.4276,412.0625,211.2844,401.5469,211.5482,391.0313,211.4445,380.5156,211,370" style="stroke:#383838;stroke-width:1.5;"/><polygon fill="#C2C2C2" points="237.0608,388.6756,235.4484,390.8788,233.5412,394.1057,230.8136,396.2804,227.9474,397.4696,225.662,397.5728,222.7247,396.0855,219.9532,395.1139,217.8495,393.1412,216.7461,390.8828,216.0917,389.0845,215.4506,386.7357,214.41,384.7145,215.2096,382.741,215.9102,380.5792,218.5393,378.8695,220.389,376.6511,222.6784,375.9144,225.4001,375.2801,228.8904,375.657,230.8021,376.5585,233.0247,376.9672,235.7272,379.736,236.6693,382.659,237.0786,384.6534,236.615,387.9399" style="stroke:#383838;stroke-width:1.0;"/><path d="M228.3438,381.6719 C227.4063,381.2344 226.8125,381.0938 225.9375,381.0938 C223.3125,381.0938 221.3125,383.1719 221.3125,385.8906 L221.3125,387.0156 C221.3125,389.5938 223.4219,391.4844 226.3125,391.4844 C227.5313,391.4844 228.6875,391.1875 229.4375,390.6406 C230.0156,390.2344 230.3438,389.7813 230.3438,389.3906 C230.3438,388.9375 229.9531,388.5469 229.4844,388.5469 C229.2656,388.5469 229.0625,388.625 228.875,388.8125 C228.4219,389.2969 228.4219,389.2969 228.2344,389.3906 C227.8125,389.6563 227.125,389.7813 226.3594,389.7813 C224.3125,389.7813 223.0156,388.6875 223.0156,386.9844 L223.0156,385.8906 C223.0156,384.1094 224.2656,382.7969 226,382.7969 C226.5781,382.7969 227.1875,382.9531 227.6563,383.2031 C228.1406,383.4844 228.3125,383.7031 228.4063,384.1094 C228.4688,384.5156 228.5,384.6406 228.6406,384.7656 C228.7813,384.9063 229.0156,385.0156 229.2344,385.0156 C229.5,385.0156 229.7656,384.875 229.9375,384.6563 C230.0469,384.5 230.0781,384.3125 230.0781,383.8906 L230.0781,382.4688 C230.0781,382.0313 230.0625,381.9063 229.9688,381.75 C229.8125,381.4844 229.5313,381.3438 229.2344,381.3438 C228.9375,381.3438 228.7344,381.4375 228.5156,381.75 L228.3438,381.6719 Z " fill="#000000"/><text fill="#000000" font-family="FG Virgil" font-size="12" lengthAdjust="spacing" textLength="110" x="240" y="390.1543">RepositoryFactory</text><path d="M212,402 L212,402.2802 L222,401.4476 L232,402.2577 L242,402.5329 L252,401.0488 L262,401.8964 L272,401.4313 L282,401.4887 L292,401.9091 L302,401.0782 L312,402.7382 L322,401.1596 L332,401.7363 L342,402.5759 L352,402 " fill="#F8F8F8" style="stroke:#383838;stroke-width:1.5;"/><path d="M212,410 L212,410.2802 L222,409.4476 L232,410.2577 L242,410.5329 L252,409.0488 L262,409.8964 L272,409.4313 L282,409.4887 L292,409.9091 L302,409.0782 L312,410.7382 L322,409.1596 L332,409.7363 L342,410.5759 L352,410 " fill="#F8F8F8" style="stroke:#383838;stroke-width:1.5;"/><text fill="#000000" font-family="FG Virgil" font-size="11" lengthAdjust="spacing" textLength="62" x="217" y="424.2104">catalogos()</text><text fill="#000000" font-family="FG Virgil" font-size="11" lengthAdjust="spacing" textLength="55" x="217" y="437.0151">servicos()</text><!--MD5=[37de35b2239f3e75f2a4e341603fb23d]
class CatalogoRepository--><polygon fill="#F8F8F8" points="110,504,110,504.2102,120,503.5857,130,504.1933,140,504.3997,150,503.2866,160,503.9223,170,503.5735,180,503.6165,190,503.9318,200,503.3086,210,504.5536,220,503.3697,230,503.8022,240,504.4319,250,503.9142,260,504,260.0682,504,259.9681,514.1341,260.1785,524.2682,260.2391,534.4023,260.5857,544.5365,260.6711,554.6706,260,564.8047,260,565.4839,250,565.0593,240,565.2683,230,565.5069,220,564.0835,210,565.4832,200,564.5082,190,565.3385,180,564.3097,170,564.7362,160,565.5463,150,564.756,140,564.91,130,565.1433,120,565.2209,110,564.8047,109.9961,564.8047,110.2872,554.6706,109.4276,544.5365,110.2844,534.4023,110.5482,524.2682,110.4445,514.1341,110,504" style="stroke:#383838;stroke-width:1.5;"/><polygon fill="#C2C2C2" points="136.0608,522.6756,134.4484,524.8788,132.5412,528.1057,129.8136,530.2804,126.9474,531.4696,124.662,531.5728,121.7247,530.0855,118.9532,529.1139,116.8495,527.1412,115.7461,524.8828,115.0917,523.0845,114.4506,520.7357,113.41,518.7145,114.2096,516.741,114.9102,514.5792,117.5393,512.8695,119.389,510.6511,121.6784,509.9144,124.4001,509.2801,127.8904,509.657,129.8021,510.5585,132.0247,510.9672,134.7272,513.736,135.6693,516.659,136.0786,518.6534,135.615,521.9399" style="stroke:#383838;stroke-width:1.0;"/><path d="M127.3438,515.6719 C126.4063,515.2344 125.8125,515.0938 124.9375,515.0938 C122.3125,515.0938 120.3125,517.1719 120.3125,519.8906 L120.3125,521.0156 C120.3125,523.5938 122.4219,525.4844 125.3125,525.4844 C126.5313,525.4844 127.6875,525.1875 128.4375,524.6406 C129.0156,524.2344 129.3438,523.7813 129.3438,523.3906 C129.3438,522.9375 128.9531,522.5469 128.4844,522.5469 C128.2656,522.5469 128.0625,522.625 127.875,522.8125 C127.4219,523.2969 127.4219,523.2969 127.2344,523.3906 C126.8125,523.6563 126.125,523.7813 125.3594,523.7813 C123.3125,523.7813 122.0156,522.6875 122.0156,520.9844 L122.0156,519.8906 C122.0156,518.1094 123.2656,516.7969 125,516.7969 C125.5781,516.7969 126.1875,516.9531 126.6563,517.2031 C127.1406,517.4844 127.3125,517.7031 127.4063,518.1094 C127.4688,518.5156 127.5,518.6406 127.6406,518.7656 C127.7813,518.9063 128.0156,519.0156 128.2344,519.0156 C128.5,519.0156 128.7656,518.875 128.9375,518.6563 C129.0469,518.5 129.0781,518.3125 129.0781,517.8906 L129.0781,516.4688 C129.0781,516.0313 129.0625,515.9063 128.9688,515.75 C128.8125,515.4844 128.5313,515.3438 128.2344,515.3438 C127.9375,515.3438 127.7344,515.4375 127.5156,515.75 L127.3438,515.6719 Z " fill="#000000"/><text fill="#000000" font-family="FG Virgil" font-size="12" lengthAdjust="spacing" textLength="118" x="139" y="524.1543">CatalogoRepository</text><path d="M111,536 L111,536.2802 L120.8667,535.4476 L130.7333,536.2577 L140.6,536.5329 L150.4667,535.0488 L160.3333,535.8964 L170.2,535.4313 L180.0667,535.4887 L189.9333,535.9091 L199.8,535.0782 L209.6667,536.7382 L219.5333,535.1596 L229.4,535.7363 L239.2667,536.5759 L249.1333,535.8856 L259,536 " fill="#F8F8F8" style="stroke:#383838;stroke-width:1.5;"/><path d="M111,544 L111,544.2802 L120.8667,543.4476 L130.7333,544.2577 L140.6,544.5329 L150.4667,543.0488 L160.3333,543.8964 L170.2,543.4313 L180.0667,543.4887 L189.9333,543.9091 L199.8,543.0782 L209.6667,544.7382 L219.5333,543.1596 L229.4,543.7363 L239.2667,544.5759 L249.1333,543.8856 L259,544 " fill="#F8F8F8" style="stroke:#383838;stroke-width:1.5;"/><text fill="#000000" font-family="FG Virgil" font-size="11" lengthAdjust="spacing" textLength="110" x="116" y="558.2104">save(newCatalogo)</text><!--MD5=[51865f8cbfe0824679c335d6e733f291]
class ServicoRepository--><polygon fill="#F8F8F8" points="517.5,504,517.5,504.2102,527.7143,503.5857,537.9286,504.1933,548.1429,504.3997,558.3571,503.2866,568.5714,503.9223,578.7857,503.5735,589,503.6165,599.2143,503.9318,609.4286,503.3086,619.6429,504.5536,629.8571,503.3697,640.0714,503.8022,650.2857,504.4319,660.5,504,660.4142,504,660.5682,514.1341,660.4681,524.2682,660.6785,534.4023,660.7391,544.5365,661.0857,554.6706,660.5,564.8047,660.5,565.4757,650.2857,565.4839,640.0714,565.0593,629.8571,565.2683,619.6429,565.5069,609.4286,564.0835,599.2143,565.4832,589,564.5082,578.7857,565.3385,568.5714,564.3097,558.3571,564.7362,548.1429,565.5463,537.9286,564.756,527.7143,564.91,517.5,564.8047,517.8386,564.8047,517.9162,554.6706,517.4961,544.5365,517.7872,534.4023,516.9276,524.2682,517.7844,514.1341,517.5,504" style="stroke:#383838;stroke-width:1.5;"/><polygon fill="#C2C2C2" points="543.5608,522.6756,541.9484,524.8788,540.0412,528.1057,537.3136,530.2804,534.4474,531.4696,532.162,531.5728,529.2247,530.0855,526.4532,529.1139,524.3495,527.1412,523.2461,524.8828,522.5917,523.0845,521.9506,520.7357,520.91,518.7145,521.7096,516.741,522.4102,514.5792,525.0393,512.8695,526.889,510.6511,529.1784,509.9144,531.9001,509.2801,535.3904,509.657,537.3021,510.5585,539.5247,510.9672,542.2272,513.736,543.1693,516.659,543.5786,518.6534,543.115,521.9399" style="stroke:#383838;stroke-width:1.0;"/><path d="M534.8438,515.6719 C533.9063,515.2344 533.3125,515.0938 532.4375,515.0938 C529.8125,515.0938 527.8125,517.1719 527.8125,519.8906 L527.8125,521.0156 C527.8125,523.5938 529.9219,525.4844 532.8125,525.4844 C534.0313,525.4844 535.1875,525.1875 535.9375,524.6406 C536.5156,524.2344 536.8438,523.7813 536.8438,523.3906 C536.8438,522.9375 536.4531,522.5469 535.9844,522.5469 C535.7656,522.5469 535.5625,522.625 535.375,522.8125 C534.9219,523.2969 534.9219,523.2969 534.7344,523.3906 C534.3125,523.6563 533.625,523.7813 532.8594,523.7813 C530.8125,523.7813 529.5156,522.6875 529.5156,520.9844 L529.5156,519.8906 C529.5156,518.1094 530.7656,516.7969 532.5,516.7969 C533.0781,516.7969 533.6875,516.9531 534.1563,517.2031 C534.6406,517.4844 534.8125,517.7031 534.9063,518.1094 C534.9688,518.5156 535,518.6406 535.1406,518.7656 C535.2813,518.9063 535.5156,519.0156 535.7344,519.0156 C536,519.0156 536.2656,518.875 536.4375,518.6563 C536.5469,518.5 536.5781,518.3125 536.5781,517.8906 L536.5781,516.4688 C536.5781,516.0313 536.5625,515.9063 536.4688,515.75 C536.3125,515.4844 536.0313,515.3438 535.7344,515.3438 C535.4375,515.3438 535.2344,515.4375 535.0156,515.75 L534.8438,515.6719 Z " fill="#000000"/><text fill="#000000" font-family="FG Virgil" font-size="12" lengthAdjust="spacing" textLength="111" x="546.5" y="524.1543">ServicoRepository</text><path d="M518.5,536 L518.5,536.2802 L528.5714,535.4476 L538.6429,536.2577 L548.7143,536.5329 L558.7857,535.0488 L568.8571,535.8964 L578.9286,535.4313 L589,535.4887 L599.0714,535.9091 L609.1429,535.0782 L619.2143,536.7382 L629.2857,535.1596 L639.3571,535.7363 L649.4286,536.5759 L659.5,536 " fill="#F8F8F8" style="stroke:#383838;stroke-width:1.5;"/><path d="M518.5,544 L518.5,544.2802 L528.5714,543.4476 L538.6429,544.2577 L548.7143,544.5329 L558.7857,543.0488 L568.8571,543.8964 L578.9286,543.4313 L589,543.4887 L599.0714,543.9091 L609.1429,543.0782 L619.2143,544.7382 L629.2857,543.1596 L639.3571,543.7363 L649.4286,544.5759 L659.5,544 " fill="#F8F8F8" style="stroke:#383838;stroke-width:1.5;"/><text fill="#000000" font-family="FG Virgil" font-size="11" lengthAdjust="spacing" textLength="103" x="523.5" y="558.2104">save(newServico)</text><!--MD5=[28183b5fe251cf9d4adbbaa3c2129d6e]
class Catalogo--><polygon fill="#F8F8F8" points="7,376.5,7,376.7102,16.8,376.0857,26.6,376.6933,36.4,376.8997,46.2,375.7866,56,376.4223,65.8,376.0735,75.6,376.1165,85.4,376.4318,95.2,375.8086,105,376.5,105.5536,376.5,104.3697,386.6341,104.8022,396.7682,105.4319,406.9023,104.9142,417.0365,105.0682,427.1706,105,437.3047,105,437.2727,95.2,437.4832,85.4,437.5438,75.6,437.8904,65.8,437.9757,56,437.9839,46.2,437.5593,36.4,437.7683,26.6,438.0069,16.8,436.5835,7,437.3047,7.6785,437.3047,6.7035,427.1706,7.5338,417.0365,6.505,406.9023,6.9315,396.7682,7.7416,386.6341,7,376.5" style="stroke:#383838;stroke-width:1.5;"/><polygon fill="#C2C2C2" points="38.9108,395.1756,37.2984,397.3788,35.3912,400.6057,32.6636,402.7804,29.7974,403.9696,27.512,404.0728,24.5747,402.5855,21.8032,401.6139,19.6995,399.6412,18.5961,397.3828,17.9417,395.5845,17.3006,393.2357,16.26,391.2145,17.0596,389.241,17.7602,387.0792,20.3893,385.3695,22.239,383.1511,24.5284,382.4144,27.2501,381.7801,30.7404,382.157,32.6521,383.0585,34.8747,383.4672,37.5772,386.236,38.5193,389.159,38.9286,391.1534,38.465,394.4399" style="stroke:#383838;stroke-width:1.0;"/><path d="M30.1938,388.1719 C29.2563,387.7344 28.6625,387.5938 27.7875,387.5938 C25.1625,387.5938 23.1625,389.6719 23.1625,392.3906 L23.1625,393.5156 C23.1625,396.0938 25.2719,397.9844 28.1625,397.9844 C29.3813,397.9844 30.5375,397.6875 31.2875,397.1406 C31.8656,396.7344 32.1938,396.2813 32.1938,395.8906 C32.1938,395.4375 31.8031,395.0469 31.3344,395.0469 C31.1156,395.0469 30.9125,395.125 30.725,395.3125 C30.2719,395.7969 30.2719,395.7969 30.0844,395.8906 C29.6625,396.1563 28.975,396.2813 28.2094,396.2813 C26.1625,396.2813 24.8656,395.1875 24.8656,393.4844 L24.8656,392.3906 C24.8656,390.6094 26.1156,389.2969 27.85,389.2969 C28.4281,389.2969 29.0375,389.4531 29.5063,389.7031 C29.9906,389.9844 30.1625,390.2031 30.2563,390.6094 C30.3188,391.0156 30.35,391.1406 30.4906,391.2656 C30.6313,391.4063 30.8656,391.5156 31.0844,391.5156 C31.35,391.5156 31.6156,391.375 31.7875,391.1563 C31.8969,391 31.9281,390.8125 31.9281,390.3906 L31.9281,388.9688 C31.9281,388.5313 31.9125,388.4063 31.8188,388.25 C31.6625,387.9844 31.3813,387.8438 31.0844,387.8438 C30.7875,387.8438 30.5844,387.9375 30.3656,388.25 L30.1938,388.1719 Z " fill="#000000"/><text fill="#000000" font-family="FG Virgil" font-size="12" lengthAdjust="spacing" textLength="53" x="43.15" y="396.6543">Catalogo</text><path d="M8,408.5 L8,408.7802 L17.6,407.9476 L27.2,408.7577 L36.8,409.0329 L46.4,407.5488 L56,408.3964 L65.6,407.9313 L75.2,407.9887 L84.8,408.4091 L94.4,407.5782 L104,408.5 " fill="#F8F8F8" style="stroke:#383838;stroke-width:1.5;"/><path d="M8,416.5 L8,416.7802 L17.6,415.9476 L27.2,416.7577 L36.8,417.0329 L46.4,415.5488 L56,416.3964 L65.6,415.9313 L75.2,415.9887 L84.8,416.4091 L94.4,415.5782 L104,416.5 " fill="#F8F8F8" style="stroke:#383838;stroke-width:1.5;"/><text fill="#000000" font-family="FG Virgil" font-size="11" lengthAdjust="spacing" textLength="86" x="13" y="430.7104">novoCatalogo()</text><!--MD5=[faf4d635eea35b16677487bac6ad9bf5]
class Servico--><polygon fill="#F8F8F8" points="642.5,376.5,642.5,376.7102,652.6111,376.0857,662.7222,376.6933,672.8333,376.8997,682.9444,375.7866,693.0556,376.4223,703.1667,376.0735,713.2778,376.1165,723.3889,376.4318,733.5,376.5,732.8086,376.5,734.0536,386.6341,732.8697,396.7682,733.3022,406.9023,733.9319,417.0365,733.4142,427.1706,733.5,437.3047,733.5,437.3729,723.3889,437.2727,713.2778,437.4832,703.1667,437.5438,693.0556,437.8904,682.9444,437.9757,672.8333,437.9839,662.7222,437.5593,652.6111,437.7683,642.5,437.3047,643.2022,437.3047,641.7788,427.1706,643.1785,417.0365,642.2035,406.9023,643.0338,396.7682,642.005,386.6341,642.5,376.5" style="stroke:#383838;stroke-width:1.5;"/><polygon fill="#C2C2C2" points="674.4108,395.1756,672.7984,397.3788,670.8912,400.6057,668.1636,402.7804,665.2974,403.9696,663.012,404.0728,660.0747,402.5855,657.3032,401.6139,655.1995,399.6412,654.0961,397.3828,653.4417,395.5845,652.8006,393.2357,651.76,391.2145,652.5596,389.241,653.2602,387.0792,655.8893,385.3695,657.739,383.1511,660.0284,382.4144,662.7501,381.7801,666.2404,382.157,668.1521,383.0585,670.3747,383.4672,673.0772,386.236,674.0193,389.159,674.4286,391.1534,673.965,394.4399" style="stroke:#383838;stroke-width:1.0;"/><path d="M665.6938,388.1719 C664.7563,387.7344 664.1625,387.5938 663.2875,387.5938 C660.6625,387.5938 658.6625,389.6719 658.6625,392.3906 L658.6625,393.5156 C658.6625,396.0938 660.7719,397.9844 663.6625,397.9844 C664.8813,397.9844 666.0375,397.6875 666.7875,397.1406 C667.3656,396.7344 667.6938,396.2813 667.6938,395.8906 C667.6938,395.4375 667.3031,395.0469 666.8344,395.0469 C666.6156,395.0469 666.4125,395.125 666.225,395.3125 C665.7719,395.7969 665.7719,395.7969 665.5844,395.8906 C665.1625,396.1563 664.475,396.2813 663.7094,396.2813 C661.6625,396.2813 660.3656,395.1875 660.3656,393.4844 L660.3656,392.3906 C660.3656,390.6094 661.6156,389.2969 663.35,389.2969 C663.9281,389.2969 664.5375,389.4531 665.0063,389.7031 C665.4906,389.9844 665.6625,390.2031 665.7563,390.6094 C665.8188,391.0156 665.85,391.1406 665.9906,391.2656 C666.1313,391.4063 666.3656,391.5156 666.5844,391.5156 C666.85,391.5156 667.1156,391.375 667.2875,391.1563 C667.3969,391 667.4281,390.8125 667.4281,390.3906 L667.4281,388.9688 C667.4281,388.5313 667.4125,388.4063 667.3188,388.25 C667.1625,387.9844 666.8813,387.8438 666.5844,387.8438 C666.2875,387.8438 666.0844,387.9375 665.8656,388.25 L665.6938,388.1719 Z " fill="#000000"/><text fill="#000000" font-family="FG Virgil" font-size="12" lengthAdjust="spacing" textLength="46" x="678.65" y="396.6543">Servico</text><path d="M643.5,408.5 L643.5,408.7802 L653.3889,407.9476 L663.2778,408.7577 L673.1667,409.0329 L683.0556,407.5488 L692.9444,408.3964 L702.8333,407.9313 L712.7222,407.9887 L722.6111,408.4091 L732.5,408.5 " fill="#F8F8F8" style="stroke:#383838;stroke-width:1.5;"/><path d="M643.5,416.5 L643.5,416.7802 L653.3889,415.9476 L663.2778,416.7577 L673.1667,417.0329 L683.0556,415.5488 L692.9444,416.3964 L702.8333,415.9313 L712.7222,415.9887 L722.6111,416.4091 L732.5,416.5 " fill="#F8F8F8" style="stroke:#383838;stroke-width:1.5;"/><text fill="#000000" font-family="FG Virgil" font-size="11" lengthAdjust="spacing" textLength="79" x="648.5" y="430.7104">novoServico()</text><!--MD5=[571dfd84f94b451ef35da58f48b34c72]
class FormularioRepository--><polygon fill="#F8F8F8" points="321.5,504,321.5,504.2102,331.5625,503.5857,341.625,504.1933,351.6875,504.3997,361.75,503.2866,371.8125,503.9223,381.875,503.5735,391.9375,503.6165,402,503.9318,412.0625,503.3086,422.125,504.5536,432.1875,503.3697,442.25,503.8022,452.3125,504.4319,462.375,503.9142,472.4375,504.0682,482.5,504,482.4681,504,482.6785,514.1341,482.7391,524.2682,483.0857,534.4023,483.1711,544.5365,483.1793,554.6706,482.5,564.8047,482.5,565.0593,472.4375,565.2683,462.375,565.5069,452.3125,564.0835,442.25,565.4832,432.1875,564.5082,422.125,565.3385,412.0625,564.3097,402,564.7362,391.9375,565.5463,381.875,564.756,371.8125,564.91,361.75,565.1433,351.6875,565.2209,341.625,564.8008,331.5625,565.0919,321.5,564.8047,320.9276,564.8047,321.7844,554.6706,322.0482,544.5365,321.9445,534.4023,322.113,524.2682,321.0169,514.1341,321.5,504" style="stroke:#383838;stroke-width:1.5;"/><polygon fill="#C2C2C2" points="347.5608,522.6756,345.9484,524.8788,344.0412,528.1057,341.3136,530.2804,338.4474,531.4696,336.162,531.5728,333.2247,530.0855,330.4532,529.1139,328.3495,527.1412,327.2461,524.8828,326.5917,523.0845,325.9506,520.7357,324.91,518.7145,325.7096,516.741,326.4102,514.5792,329.0393,512.8695,330.889,510.6511,333.1784,509.9144,335.9001,509.2801,339.3904,509.657,341.3021,510.5585,343.5247,510.9672,346.2272,513.736,347.1693,516.659,347.5786,518.6534,347.115,521.9399" style="stroke:#383838;stroke-width:1.0;"/><path d="M338.8438,515.6719 C337.9063,515.2344 337.3125,515.0938 336.4375,515.0938 C333.8125,515.0938 331.8125,517.1719 331.8125,519.8906 L331.8125,521.0156 C331.8125,523.5938 333.9219,525.4844 336.8125,525.4844 C338.0313,525.4844 339.1875,525.1875 339.9375,524.6406 C340.5156,524.2344 340.8438,523.7813 340.8438,523.3906 C340.8438,522.9375 340.4531,522.5469 339.9844,522.5469 C339.7656,522.5469 339.5625,522.625 339.375,522.8125 C338.9219,523.2969 338.9219,523.2969 338.7344,523.3906 C338.3125,523.6563 337.625,523.7813 336.8594,523.7813 C334.8125,523.7813 333.5156,522.6875 333.5156,520.9844 L333.5156,519.8906 C333.5156,518.1094 334.7656,516.7969 336.5,516.7969 C337.0781,516.7969 337.6875,516.9531 338.1563,517.2031 C338.6406,517.4844 338.8125,517.7031 338.9063,518.1094 C338.9688,518.5156 339,518.6406 339.1406,518.7656 C339.2813,518.9063 339.5156,519.0156 339.7344,519.0156 C340,519.0156 340.2656,518.875 340.4375,518.6563 C340.5469,518.5 340.5781,518.3125 340.5781,517.8906 L340.5781,516.4688 C340.5781,516.0313 340.5625,515.9063 340.4688,515.75 C340.3125,515.4844 340.0313,515.3438 339.7344,515.3438 C339.4375,515.3438 339.2344,515.4375 339.0156,515.75 L338.8438,515.6719 Z " fill="#000000"/><text fill="#000000" font-family="FG Virgil" font-size="12" lengthAdjust="spacing" textLength="129" x="350.5" y="524.1543">FormularioRepository</text><path d="M322.5,536 L322.5,536.2802 L332.4375,535.4476 L342.375,536.2577 L352.3125,536.5329 L362.25,535.0488 L372.1875,535.8964 L382.125,535.4313 L392.0625,535.4887 L402,535.9091 L411.9375,535.0782 L421.875,536.7382 L431.8125,535.1596 L441.75,535.7363 L451.6875,536.5759 L461.625,535.8856 L471.5625,536.091 L481.5,536 " fill="#F8F8F8" style="stroke:#383838;stroke-width:1.5;"/><path d="M322.5,544 L322.5,544.2802 L332.4375,543.4476 L342.375,544.2577 L352.3125,544.5329 L362.25,543.0488 L372.1875,543.8964 L382.125,543.4313 L392.0625,543.4887 L402,543.9091 L411.9375,543.0782 L421.875,544.7382 L431.8125,543.1596 L441.75,543.7363 L451.6875,544.5759 L461.625,543.8856 L471.5625,544.091 L481.5,544 " fill="#F8F8F8" style="stroke:#383838;stroke-width:1.5;"/><text fill="#000000" font-family="FG Virgil" font-size="11" lengthAdjust="spacing" textLength="119" x="327.5" y="558.2104">save(newFormulario)</text><!--MD5=[76acc874f09693b2f2def29d0cdf8ced]
class Formulario--><polygon fill="#F8F8F8" points="768.5,376.5,768.5,376.7102,778.2273,376.0857,787.9545,376.6933,797.6818,376.8997,807.4091,375.7866,817.1364,376.4223,826.8636,376.0735,836.5909,376.1165,846.3182,376.4318,856.0455,375.8086,865.7727,377.0536,875.5,376.5,874.8697,376.5,875.3022,386.6341,875.9319,396.7682,875.4142,406.9023,875.5682,417.0365,875.4681,427.1706,875.5,437.3047,875.5,437.4832,865.7727,437.5438,856.0455,437.8904,846.3182,437.9757,836.5909,437.9839,826.8636,437.5593,817.1364,437.7683,807.4091,438.0069,797.6818,436.5835,787.9545,437.9832,778.2273,437.0082,768.5,437.3047,769.0338,437.3047,768.005,427.1706,768.4315,417.0365,769.2416,406.9023,768.4513,396.7682,768.6053,386.6341,768.5,376.5" style="stroke:#383838;stroke-width:1.5;"/><polygon fill="#C2C2C2" points="799.5108,395.1756,797.8984,397.3788,795.9912,400.6057,793.2636,402.7804,790.3974,403.9696,788.112,404.0728,785.1747,402.5855,782.4032,401.6139,780.2995,399.6412,779.1961,397.3828,778.5417,395.5845,777.9006,393.2357,776.86,391.2145,777.6596,389.241,778.3602,387.0792,780.9893,385.3695,782.839,383.1511,785.1284,382.4144,787.8501,381.7801,791.3404,382.157,793.2521,383.0585,795.4747,383.4672,798.1772,386.236,799.1193,389.159,799.5286,391.1534,799.065,394.4399" style="stroke:#383838;stroke-width:1.0;"/><path d="M790.7938,388.1719 C789.8563,387.7344 789.2625,387.5938 788.3875,387.5938 C785.7625,387.5938 783.7625,389.6719 783.7625,392.3906 L783.7625,393.5156 C783.7625,396.0938 785.8719,397.9844 788.7625,397.9844 C789.9813,397.9844 791.1375,397.6875 791.8875,397.1406 C792.4656,396.7344 792.7938,396.2813 792.7938,395.8906 C792.7938,395.4375 792.4031,395.0469 791.9344,395.0469 C791.7156,395.0469 791.5125,395.125 791.325,395.3125 C790.8719,395.7969 790.8719,395.7969 790.6844,395.8906 C790.2625,396.1563 789.575,396.2813 788.8094,396.2813 C786.7625,396.2813 785.4656,395.1875 785.4656,393.4844 L785.4656,392.3906 C785.4656,390.6094 786.7156,389.2969 788.45,389.2969 C789.0281,389.2969 789.6375,389.4531 790.1063,389.7031 C790.5906,389.9844 790.7625,390.2031 790.8563,390.6094 C790.9188,391.0156 790.95,391.1406 791.0906,391.2656 C791.2313,391.4063 791.4656,391.5156 791.6844,391.5156 C791.95,391.5156 792.2156,391.375 792.3875,391.1563 C792.4969,391 792.5281,390.8125 792.5281,390.3906 L792.5281,388.9688 C792.5281,388.5313 792.5125,388.4063 792.4188,388.25 C792.2625,387.9844 791.9813,387.8438 791.6844,387.8438 C791.3875,387.8438 791.1844,387.9375 790.9656,388.25 L790.7938,388.1719 Z " fill="#000000"/><text fill="#000000" font-family="FG Virgil" font-size="12" lengthAdjust="spacing" textLength="64" x="803.55" y="396.6543">Formulario</text><path d="M769.5,408.5 L769.5,408.7802 L779.0455,407.9476 L788.5909,408.7577 L798.1364,409.0329 L807.6818,407.5488 L817.2273,408.3964 L826.7727,407.9313 L836.3182,407.9887 L845.8636,408.4091 L855.4091,407.5782 L864.9545,409.2382 L874.5,408.5 " fill="#F8F8F8" style="stroke:#383838;stroke-width:1.5;"/><path d="M769.5,416.5 L769.5,416.7802 L779.0455,415.9476 L788.5909,416.7577 L798.1364,417.0329 L807.6818,415.5488 L817.2273,416.3964 L826.7727,415.9313 L836.3182,415.9887 L845.8636,416.4091 L855.4091,415.5782 L864.9545,417.2382 L874.5,416.5 " fill="#F8F8F8" style="stroke:#383838;stroke-width:1.5;"/><text fill="#000000" font-family="FG Virgil" font-size="11" lengthAdjust="spacing" textLength="95" x="774.5" y="430.7104">novoFormulario()</text><!--MD5=[0d4e5460865fab64524af805768c65c5]
class EspecificarServicoController--><polygon fill="#F8F8F8" points="445.5,249,445.5,249.2102,455.65,248.5857,465.8,249.1933,475.95,249.3997,486.1,248.2866,496.25,248.9223,506.4,248.5735,516.55,248.6165,526.7,248.9318,536.85,248.3086,547,249.5536,557.15,248.3697,567.3,248.8022,577.45,249.4319,587.6,248.9142,597.75,249.0682,607.9,248.9681,618.05,249.1785,628.2,249.2391,638.35,249.5857,648.5,249,649.1711,249,649.1793,259.1341,648.7546,269.2682,648.9636,279.4023,649.2022,289.5365,647.7788,299.6706,648.5,309.8047,648.5,310.4832,638.35,309.5082,628.2,310.3385,618.05,309.3097,607.9,309.7362,597.75,310.5463,587.6,309.756,577.45,309.91,567.3,310.1433,557.15,310.2209,547,309.8008,536.85,310.0919,526.7,309.2323,516.55,310.0891,506.4,310.3529,496.25,310.2492,486.1,310.4177,475.95,309.3216,465.8,309.1525,455.65,309.1833,445.5,309.8047,445.4411,309.8047,445.3035,299.6706,446.1814,289.5365,445.3253,279.4023,445.1569,269.2682,445.7283,259.1341,445.5,249" style="stroke:#383838;stroke-width:1.5;"/><polygon fill="#C2C2C2" points="471.5608,267.6756,469.9484,269.8788,468.0412,273.1057,465.3136,275.2804,462.4474,276.4696,460.162,276.5728,457.2247,275.0855,454.4532,274.1139,452.3495,272.1412,451.2461,269.8828,450.5917,268.0845,449.9506,265.7357,448.91,263.7145,449.7096,261.741,450.4102,259.5792,453.0393,257.8695,454.889,255.6511,457.1784,254.9144,459.9001,254.2801,463.3904,254.657,465.3021,255.5585,467.5247,255.9672,470.2272,258.736,471.1693,261.659,471.5786,263.6534,471.115,266.9399" style="stroke:#383838;stroke-width:1.0;"/><path d="M462.8438,260.6719 C461.9063,260.2344 461.3125,260.0938 460.4375,260.0938 C457.8125,260.0938 455.8125,262.1719 455.8125,264.8906 L455.8125,266.0156 C455.8125,268.5938 457.9219,270.4844 460.8125,270.4844 C462.0313,270.4844 463.1875,270.1875 463.9375,269.6406 C464.5156,269.2344 464.8438,268.7813 464.8438,268.3906 C464.8438,267.9375 464.4531,267.5469 463.9844,267.5469 C463.7656,267.5469 463.5625,267.625 463.375,267.8125 C462.9219,268.2969 462.9219,268.2969 462.7344,268.3906 C462.3125,268.6563 461.625,268.7813 460.8594,268.7813 C458.8125,268.7813 457.5156,267.6875 457.5156,265.9844 L457.5156,264.8906 C457.5156,263.1094 458.7656,261.7969 460.5,261.7969 C461.0781,261.7969 461.6875,261.9531 462.1563,262.2031 C462.6406,262.4844 462.8125,262.7031 462.9063,263.1094 C462.9688,263.5156 463,263.6406 463.1406,263.7656 C463.2813,263.9063 463.5156,264.0156 463.7344,264.0156 C464,264.0156 464.2656,263.875 464.4375,263.6563 C464.5469,263.5 464.5781,263.3125 464.5781,262.8906 L464.5781,261.4688 C464.5781,261.0313 464.5625,260.9063 464.4688,260.75 C464.3125,260.4844 464.0313,260.3438 463.7344,260.3438 C463.4375,260.3438 463.2344,260.4375 463.0156,260.75 L462.8438,260.6719 Z " fill="#000000"/><text fill="#000000" font-family="FG Virgil" font-size="12" lengthAdjust="spacing" textLength="171" x="474.5" y="269.1543">EspecificarServicoController</text><path d="M446.5,281 L446.5,281.2802 L456.55,280.4476 L466.6,281.2577 L476.65,281.5329 L486.7,280.0488 L496.75,280.8964 L506.8,280.4313 L516.85,280.4887 L526.9,280.9091 L536.95,280.0782 L547,281.7382 L557.05,280.1596 L567.1,280.7363 L577.15,281.5759 L587.2,280.8856 L597.25,281.091 L607.3,280.9574 L617.35,281.238 L627.4,281.3188 L637.45,281.7809 L647.5,281 " fill="#F8F8F8" style="stroke:#383838;stroke-width:1.5;"/><path d="M446.5,289 L446.5,289.2802 L456.55,288.4476 L466.6,289.2577 L476.65,289.5329 L486.7,288.0488 L496.75,288.8964 L506.8,288.4313 L516.85,288.4887 L526.9,288.9091 L536.95,288.0782 L547,289.7382 L557.05,288.1596 L567.1,288.7363 L577.15,289.5759 L587.2,288.8856 L597.25,289.091 L607.3,288.9574 L617.35,289.238 L627.4,289.3188 L637.45,289.7809 L647.5,289 " fill="#F8F8F8" style="stroke:#383838;stroke-width:1.5;"/><text fill="#000000" font-family="FG Virgil" font-size="11" lengthAdjust="spacing" textLength="52" x="451.5" y="303.2104">register()</text><!--MD5=[44cf78e804e51bf20c0c3fdda77f64ec]
link FactoryBootstrapper to CatalogoBootstrapper--><path d="M373.506,55.227 L373.7161,55.4124 L366.1146,62.7689 L359.745,71.2124 L352.9742,79.3019 L344.8842,86.2274 L338.5426,94.6956 L331.2167,102.2953 L324.666,110.579 " fill="none" style="stroke:#383838;stroke-width:1.0;"/><polygon fill="#383838" points="321.017,114.714,321.0462,114.7777,322.7504,113.7683,324.6257,113.1323,326.4452,112.3747,328.0816,111.2172,329.9716,110.6133,329.97,110.5874,328.8335,110.5418,327.7053,110.6265,326.5826,110.8018,325.4405,110.6649,324.3257,110.9653,324.5099,110.9768,324.0456,109.8231,324.1191,108.7029,324.2582,107.5867,324.0155,106.4468,323.9737,105.3194,323.9954,105.3262,323.3722,107.1951,322.8478,109.0951,322.2757,110.9801,321.7946,112.8937,321.017,114.714" style="stroke:#383838;stroke-width:1.0;"/><!--MD5=[28e8fbcadbc316d09c8e46268eb1f727]
link FactoryBootstrapper to ServicoBootstrapper--><path d="M414.494,55.227 L414.7041,55.4124 L421.0569,62.7689 L428.6415,71.2124 L435.825,79.3019 L441.6893,86.2274 L449.302,94.6956 L455.9305,102.2953 L463.334,110.579 " fill="none" style="stroke:#383838;stroke-width:1.0;"/><polygon fill="#383838" points="466.983,114.714,467.0498,114.735,466.2599,112.7936,465.8618,110.9755,465.3361,109.1172,464.3908,107.1269,464.0263,105.3194,464.0005,105.3178,463.814,106.4398,463.7579,107.5698,463.7925,108.7055,463.5147,109.8218,463.6743,110.9653,463.6858,111.1495,462.5321,110.6852,461.4119,110.7587,460.2957,110.8978,459.1558,110.6552,458.0284,110.6133,458.0379,110.634,459.8149,111.4238,461.635,112.3077,463.4344,113.1462,465.2734,114.0714,466.983,114.714" style="stroke:#383838;stroke-width:1.0;"/><!--MD5=[c78613763c1ff6a387f89bef7794d09b]
link CatalogoBootstrapper to NovoCatalogoController--><path d="M286.975,189.3 L287.2548,189.3156 L285.8188,200.1086 L286.0231,210.9932 L285.6933,221.8479 L283.6069,232.6046 L283.952,243.497 " fill="none" style="stroke:#383838;stroke-width:1.0;"/><polygon fill="#383838" points="283.666,248.624,283.7283,248.656,284.4422,246.8083,285.5214,245.1482,286.4817,243.4269,287.0507,241.505,288.1613,239.8609,288.144,239.8416,287.2232,240.5091,286.3894,241.2739,285.6161,242.1065,284.6343,242.7058,283.9446,243.6318,284.0822,243.7548,283.0338,242.6484,282.3871,241.9012,281.7894,241.1977,280.9066,240.2394,280.1737,239.4151,280.195,239.4232,280.8622,241.2531,281.6263,243.1198,282.3436,244.9687,283.1501,246.8514,283.666,248.624" style="stroke:#383838;stroke-width:1.0;"/><!--MD5=[89b6f6eab4714cbc1842106a59892fbf]
link NovoCatalogoController to CatalogoRepository--><path d="M240.936,310.26 L240.9993,310.3287 L238.077,312.6461 L235.526,315.3661 L232.8541,317.955 L229.7846,320.1127 L227.2654,322.8673 L227.24,322.8439 L224.4856,325.6004 L221.8591,328.4751 L219.3216,331.4318 L216.4775,334.1057 L214.0629,337.1758 L214.2603,337.3227 L211.4882,340.1656 L209.2924,343.4375 L207.1669,346.7617 L204.6323,349.7815 L202.3129,352.9613 L202.3395,352.9759 L200.4379,356.3623 L198.6574,359.8149 L196.8184,363.2355 L195.091,366.7171 L193,370 L193.2795,370.1042 L192.0941,373.2939 L190.7285,376.4163 L189.6268,379.6372 L188.5374,382.8626 L187.0562,385.942 L186.7459,385.8616 L186.4841,389.3536 L185.2007,392.5809 L184.694,396.0094 L183.3874,399.2308 L182.7364,402.622 L182.7064,402.6169 L182.482,406.0899 L181.5564,409.4438 L181.0446,412.868 L180.5676,416.2981 L179.8399,419.6857 L180.024,419.7037 L179.5034,423.1041 L179.2974,426.5354 L178.5824,429.9168 L178.6266,433.3725 L178.166,436.7789 L178.4095,436.7883 L178.233,440.1402 L178.1774,443.4968 L177.5603,446.8316 L177.3547,450.1823 L177.514,453.5473 L177.2378,453.5443 L177.5216,456.7648 L177.4943,459.9821 L177.9183,463.204 L177.5717,466.4179 L177.6831,469.6366 L177.5309,469.6286 L177.9424,472.6531 L177.703,475.6434 L177.9265,478.6581 L178.6028,481.6965 L178.4727,484.6925 L178.6656,484.7096 L179.0397,487.455 L178.814,490.1473 L179.3396,492.9061 L179.7015,495.6504 L179.682,498.3609 " fill="none" style="stroke:#383838;stroke-width:1.0;"/><polygon fill="#383838" points="180.278,503.6991,180.3448,503.7203,180.7416,501.7797,181.5299,499.9632,182.1907,498.1063,182.4323,496.1165,183.2542,494.3107,183.2339,494.2945,182.4369,495.1058,181.7418,495.9986,181.1177,496.9481,180.2491,497.7023,179.7229,498.73,179.8381,498.8742,178.7079,497.8596,177.9141,497.266,177.1612,496.7238,176.1696,495.8827,175.3036,495.1988,175.3232,495.2103,176.2893,496.8935,177.3447,498.629,178.357,500.3392,179.4516,502.0976,180.278,503.6991" style="stroke:#383838;stroke-width:1.0;"/><!--MD5=[fe825eb86532b76a54912bd5e28c28b1]
link NovoCatalogoController to PersistenceContext--><path d="M324.657,310.242 L324.8173,310.4719 L332.5741,315.529 L341.2704,321.9338 L349.6608,327.8997 L357.045,332.4225 L365.7627,338.8579 L373.7298,344.2166 L381.9956,350.0038 L390.469,356.0889 L398.2268,361.1475 L407.4092,368.2494 L415.22,373.384 " fill="none" style="stroke:#383838;stroke-width:1.0;"/><polygon fill="#383838" points="419.649,376.472,419.709,376.5082,418.5119,374.7148,417.6664,373.1338,416.7064,371.4836,415.3699,369.6059,414.5546,368.0431,414.5291,368.0385,414.6132,369.1319,414.826,370.2482,415.1281,371.3805,415.1222,372.4578,415.5477,373.6121,415.5801,373.7938,414.397,373.6039,413.3085,373.9444,412.2316,374.3497,411.0875,374.3784,409.9787,374.6052,409.983,374.6275,411.9107,374.9681,413.8581,375.4103,415.796,375.8035,417.7519,376.2903,419.649,376.472" style="stroke:#383838;stroke-width:1.0;"/><!--MD5=[0f9571f384c28894d761562ab25c5ea9]
link NovoCatalogoController to Catalogo--><path d="M228.727,310.083 L228.8631,310.328 L219.9661,314.3161 L211.8667,319.7405 L203.5076,324.6971 L194.2944,328.1157 L186.2131,333.5728 L177.4946,337.8823 L169.0298,342.6485 L160.7412,347.7321 L151.845,351.7217 L144.1582,357.8891 L134.8992,361.2251 L126.6864,366.4453 L118.6013,371.8954 L109.829,376.108 " fill="none" style="stroke:#383838;stroke-width:1.0;"/><polygon fill="#383838" points="105.0544,378.76,105.0606,378.8298,107.0042,378.4481,108.9842,378.4755,110.9523,378.3697,112.8815,377.8258,114.8646,377.8883,114.8575,377.8634,113.7378,377.4405,112.6539,377.1432,111.5951,376.9332,110.4502,376.4224,109.4258,376.3329,109.6032,376.3836,109.5349,375.1873,109.9846,374.1392,110.4975,373.1092,110.6426,371.974,110.9812,370.8941,110.9994,370.9078,109.7873,372.4608,108.658,374.0762,107.4888,375.6616,106.3957,377.3043,105.0544,378.76" style="stroke:#383838;stroke-width:1.0;"/><!--MD5=[21c9edc8db2d728f908a62e60f651f62]
link NovoCatalogoController to RepositoryFactory--><path d="M282,310.242 L282.2802,310.242 L281.4476,321.0634 L282.2577,331.8848 L282.5329,342.7062 L281.0488,353.5276 L282,364.349 " fill="none" style="stroke:#383838;stroke-width:1.0;"/><polygon fill="#383838" points="282,369.755,282.064,369.7835,282.6738,367.8989,283.6589,366.1812,284.5217,364.4091,284.9827,362.4584,286,360.755,285.9817,360.7367,285.0995,361.4545,284.3096,362.2646,283.5839,363.1389,282.637,363.792,282,364.755,282.1305,364.8855,281.0514,363.8064,280.3534,363.1084,279.7018,362.4568,278.7798,361.5348,278,360.755,278.0208,360.7642,278.7903,362.5507,279.6544,364.3792,280.4728,366.1874,281.3784,368.0343,282,369.755" style="stroke:#383838;stroke-width:1.0;"/><!--MD5=[59df0b78ff33e094c8d75273997a7b63]
link ServicoBootstrapper to EspecificarServicoController--><path d="M512.884,189.3 L513.1458,189.4001 L515.8505,198.2082 L520.0897,207.6031 L523.8292,216.8069 L525.9256,225.3822 L530.1997,234.7905 L533.779,243.933 " fill="none" style="stroke:#383838;stroke-width:1.0;"/><polygon fill="#383838" points="535.573,248.624,535.643,248.6277,535.5394,246.6497,535.846,244.6934,536.0191,242.73,535.7529,240.7434,536.0947,238.789,536.0711,238.7784,535.5034,239.7639,535.055,240.8028,534.6895,241.8786,534.0383,242.8268,533.7872,243.9538,533.8625,244.1223,532.6685,243.3005,531.6944,242.9706,530.747,242.7007,529.6437,242.0816,528.6224,241.6462,528.6385,241.6623,530.005,243.0343,531.4448,244.4793,532.8492,245.8892,534.3212,247.3662,535.573,248.624" style="stroke:#383838;stroke-width:1.0;"/><!--MD5=[940c857166f2eb81e7b5e98b55ae5065]
link EspecificarServicoController to ServicoRepository--><path d="M551.9,310.017 L552.1765,310.0629 L553.0042,319.8609 L555.4526,329.9279 L557.3732,339.9073 L557.5583,349.5985 L560.0436,359.6717 L561.234,369.5298 L562.9397,379.4735 L565.0036,389.4767 L565.833,399.275 L569.1198,409.4812 L569.2117,419.157 L571.4298,429.1857 L573.9072,439.2576 L574.8754,449.0788 L576.7271,459.0468 L578.2445,468.9592 L580.1705,478.9395 L581.8994,488.8871 L583.234,498.7692 " fill="none" style="stroke:#383838;stroke-width:1.0;"/><polygon fill="#383838" points="584.066,503.7795,584.1338,503.7971,584.4267,501.8381,585.1171,499.9822,585.6781,498.0928,585.8133,496.0929,586.5379,494.2459,586.5168,494.2308,585.7641,495.0834,585.1176,496.012,584.5449,496.9934,583.7178,497.7927,583.2471,498.847,583.3544,498.9971,582.2046,498.018,581.3683,497.4771,580.5701,496.9896,579.5495,496.1911,578.6459,495.5562,578.6649,495.5687,579.7211,497.195,580.8636,498.8783,581.9645,500.534,583.145,502.2423,584.066,503.7795" style="stroke:#383838;stroke-width:1.0;"/><!--MD5=[f445eaf63a95a027fd666edc240d9caa]
link EspecificarServicoController to PersistenceContext--><path d="M526.856,310.242 L527.088,310.3992 L520.4065,318.7794 L515.0851,328.0808 L509.3208,337.0823 L502.0999,345.0972 L496.8095,354.4196 L490.4323,363.006 L484.911,372.172 " fill="none" style="stroke:#383838;stroke-width:1.0;"/><polygon fill="#383838" points="481.999,376.472,482.0361,376.5315,483.5975,375.3128,485.3762,374.4426,487.0842,373.459,488.5595,372.1021,490.3569,371.2618,490.352,371.2364,489.219,371.3362,488.1108,371.5642,487.0197,371.8814,485.8695,371.8914,484.8021,372.3316,484.9833,372.3665,484.3818,371.1809,484.3094,370.0973,484.3016,369.026,483.9182,367.8824,483.7323,366.7769,483.7547,366.7809,483.3752,368.714,483.0976,370.6654,482.7708,372.608,482.5378,374.5673,481.999,376.472" style="stroke:#383838;stroke-width:1.0;"/><!--MD5=[3b4e9fec8f9a906b2809fbf725460666]
link EspecificarServicoController to Servico--><path d="M580.415,310.242 L580.6013,310.4513 L587.8998,316.8182 L596.2906,324.4123 L604.3256,331.6067 L611.191,337.487 L619.6067,345.109 L627.1496,351.7506 L635.0398,358.7823 L643.1715,366.0852 L651.084,373.142 " fill="none" style="stroke:#383838;stroke-width:1.0;"/><polygon fill="#383838" points="654.825,376.472,654.8888,376.5009,653.8863,374.6208,653.258,372.9101,652.5078,371.1443,651.3569,369.197,650.7607,367.5009,650.7348,367.4994,650.6846,368.6221,650.7647,369.7523,650.9354,370.8879,650.7939,372.0053,651.0898,373.1481,651.1005,373.3324,649.9481,373.0042,648.827,373.214,647.7098,373.4893,646.5703,373.3829,645.4425,373.4772,645.4494,373.4989,647.3158,374.066,649.2136,374.7318,651.0962,375.35,653.0079,376.059,654.825,376.472" style="stroke:#383838;stroke-width:1.0;"/><!--MD5=[85743cb2e7a0b92205e08eae6da0b835]
link EspecificarServicoController to Formulario--><path d="M617.304,310.195 L617.3411,310.2807 L623.5048,312.7424 L629.8861,315.7066 L636.1965,318.5072 L642.2739,320.7696 L648.6738,323.777 L648.6599,323.7454 L655.353,326.5802 L662.1164,329.5743 L668.9286,332.6791 L675.5726,335.4023 L682.4521,338.6601 L682.5532,338.8845 L689.2627,341.5251 L696.2673,344.8207 L703.3079,348.1963 L710.1391,351.1068 L717.0804,354.262 L717.0932,354.2895 L723.8583,357.3967 L730.6816,360.6291 L737.4769,363.8012 L744.3256,367.0885 L751,370 L751.1293,370.2687 L753.6591,371.4888 L756.1055,372.5356 L758.674,373.8361 L761.2482,375.1484 L763.641,376.084 " fill="none" style="stroke:#383838;stroke-width:1.0;"/><polygon fill="#383838" points="768.27,378.36,768.3238,378.4049,766.9015,376.7595,765.7945,375.3773,764.5849,373.9094,763.0376,372.1595,761.9577,370.7999,761.9331,370.7916,762.1881,371.8249,762.5667,372.9004,763.0313,374.0052,763.1997,375.009,763.7828,376.1543,763.8424,376.3289,762.6442,376.3204,761.6198,376.8219,760.6167,377.3856,759.4901,377.5873,758.4285,377.9794,758.4294,378.0022,760.3964,378.0449,762.3674,378.1911,764.3365,378.2874,766.3092,378.479,768.27,378.36" style="stroke:#383838;stroke-width:1.0;"/><!--MD5=[376c25fa8cb974739bb625004c9da3ec]
link PersistenceContext to ServicoRepository--><path d="M492.097,437.742 L492.294,437.9413 L498.7268,444.2842 L506.3144,451.7956 L513.5259,458.9265 L519.5009,464.806 L527.1147,472.344 L533.806,478.9484 L540.8644,485.9243 L548.178,493.1585 L555.26,500.1583 " fill="none" style="stroke:#383838;stroke-width:1.0;"/><polygon fill="#383838" points="559.119,503.9717,559.1842,503.9972,558.2723,502.0871,557.7429,500.3267,557.0889,498.5176,556.0254,496.5481,555.5287,494.8005,555.5028,494.8004,555.3933,495.9311,555.4144,497.0625,555.5263,498.1945,555.3253,499.3246,555.5625,500.4573,555.5636,500.6418,554.4299,500.254,553.2994,500.4049,552.1693,500.6215,551.0369,500.4557,549.9057,500.491,549.9137,500.5123,551.7446,501.1772,553.6121,501.939,555.4619,502.654,557.3453,503.4582,559.119,503.9717" style="stroke:#383838;stroke-width:1.0;"/><!--MD5=[c1819b64bd5645251942512eab852b79]
link PersistenceContext to CatalogoRepository--><path d="M396.706,437.583 L396.8217,437.8383 L387.6241,441.0912 L379.1045,445.8406 L370.3641,450.1027 L360.8977,452.7623 L352.3936,457.5457 L343.3477,461.1336 L334.5174,465.1972 L325.837,469.5916 L316.6401,472.8462 L308.4713,478.3696 L298.9659,480.9432 L290.3499,485.4799 L281.8425,490.2561 L272.7037,493.6388 L263.9345,497.8373 L255.043,501.7658 " fill="none" style="stroke:#383838;stroke-width:1.0;"/><polygon fill="#383838" points="250.335,503.8986,250.3355,503.9687,252.3037,503.7466,254.2749,503.9352,256.2451,503.9901,258.2122,503.6051,260.1836,503.829,260.1745,503.8048,259.0747,503.2973,258.021,502.912,256.9992,502.6117,255.8672,502.0187,254.8896,501.8357,255.0623,501.9007,255.0916,500.7028,255.6252,499.6948,256.2203,498.71,256.4575,497.5904,256.8829,496.5416,256.8999,496.5568,255.5654,498.006,254.3082,499.524,253.0137,501.0088,251.7904,502.557,250.335,503.8986" style="stroke:#383838;stroke-width:1.0;"/><!--MD5=[6ac7ba3d89e0c052f5805c0436b93a46]
link PersistenceContext to FormularioRepository--><path d="M447.781,437.742 L448.0338,437.8629 L443.0862,446.2811 L439.6207,455.408 L435.6725,464.3041 L430.1371,472.4414 L426.7054,481.5844 L422.0894,490.1613 L418.406,499.184 " fill="none" style="stroke:#383838;stroke-width:1.0;"/><polygon fill="#383838" points="416.117,503.9717,416.1625,504.025,417.5254,502.5877,419.1551,501.4628,420.6978,500.2362,421.9551,498.6751,423.6076,497.5771,423.5989,497.5526,422.4934,497.8197,421.4314,498.21,420.3996,498.6858,419.2636,498.8666,418.2735,499.4607,418.4475,499.5221,417.6987,498.3239,417.4579,497.3051,417.2791,496.3082,416.7397,495.1839,416.3899,494.1266,416.4127,494.1273,416.3247,496.0953,416.3402,498.0663,416.3058,500.0359,416.3667,502.0081,416.117,503.9717" style="stroke:#383838;stroke-width:1.0;"/><!--MD5=[7cd1aaa6c33f72b9a3b8415b315b362e]
link EspecificarServicoController to RepositoryFactory--><path d="M484.534,310.083 L484.6539,310.3363 L475.2772,313.8556 L466.6036,318.8596 L457.701,323.3802 L448.0455,326.3108 L439.3879,331.3486 L430.1685,335.2002 L421.1726,339.5239 L412.3322,344.1757 L402.9562,347.6966 L394.6464,353.4687 L384.9504,356.3139 L376.1769,361.107 L367.5159,366.1377 L358.249,369.889 " fill="none" style="stroke:#383838;stroke-width:1.0;"/><polygon fill="#383838" points="353.409,372.182,353.4107,372.252,355.3749,371.9965,357.349,372.1515,359.3198,372.1729,361.2801,371.7545,363.255,371.9448,363.2463,371.9204,362.1417,371.4304,361.0811,371.0633,360.0511,370.7817,358.9157,370.2054,357.9278,370.0419,358.1016,370.104,358.1106,368.9058,358.6269,367.8888,359.2052,366.894,359.4233,365.7705,359.8308,364.7147,359.848,364.7295,358.5384,366.2012,357.3072,367.7404,356.0382,369.2471,354.8414,370.8158,353.409,372.182" style="stroke:#383838;stroke-width:1.0;"/><!--MD5=[8884983a3b957df3aa01268588baa1a4]
@startuml
'http://plantuml.com/skinparam.html
skinparam handwritten true
skinparam monochrome true
skinparam packageStyle rect
skinparam defaultFontName FG Virgil
skinparam shadowing false

class FactoryBootstrapper
class CatalogoBootstrapper 
class ServicoBootstrapper 
class NovoCatalogoController
class PersistenceContext
class RepositoryFactory 
class CatalogoRepository
class ServicoRepository
class Catalogo
class Servico
class FormularioRepository
class Formulario

FactoryBootstrapper - -> CatalogoBootstrapper
FactoryBootstrapper - -> ServicoBootstrapper

CatalogoBootstrapper : execute()
CatalogoBootstrapper : register()

ServicoBootstrapper : execute()
ServicoBootstrapper : register()

NovoCatalogoController : register()
EspecificarServicoController : register()


CatalogoBootstrapper - -> NovoCatalogoController

NovoCatalogoController - -> CatalogoRepository
NovoCatalogoController - -> PersistenceContext
NovoCatalogoController - -> Catalogo


PersistenceContext : repositories()
NovoCatalogoController - -> RepositoryFactory
RepositoryFactory : catalogos()
RepositoryFactory : servicos()
Catalogo : novoCatalogo()
CatalogoRepository : save(newCatalogo)


ServicoBootstrapper - -> EspecificarServicoController

EspecificarServicoController - -> ServicoRepository
EspecificarServicoController - -> PersistenceContext
EspecificarServicoController - -> Servico
EspecificarServicoController - -> Formulario
PersistenceContext - -> ServicoRepository
PersistenceContext - -> CatalogoRepository
PersistenceContext - -> FormularioRepository

EspecificarServicoController - -> RepositoryFactory
Servico : novoServico()
ServicoRepository : save(newServico)

Formulario : novoFormulario()
FormularioRepository : save(newFormulario)
@enduml

@startuml
skinparam handwritten true
skinparam monochrome true
skinparam packageStyle rect
skinparam defaultFontName FG Virgil
skinparam shadowing false

class FactoryBootstrapper
class CatalogoBootstrapper 
class ServicoBootstrapper 
class NovoCatalogoController
class PersistenceContext
class RepositoryFactory 
class CatalogoRepository
class ServicoRepository
class Catalogo
class Servico
class FormularioRepository
class Formulario

FactoryBootstrapper - -> CatalogoBootstrapper
FactoryBootstrapper - -> ServicoBootstrapper

CatalogoBootstrapper : execute()
CatalogoBootstrapper : register()

ServicoBootstrapper : execute()
ServicoBootstrapper : register()

NovoCatalogoController : register()
EspecificarServicoController : register()


CatalogoBootstrapper - -> NovoCatalogoController

NovoCatalogoController - -> CatalogoRepository
NovoCatalogoController - -> PersistenceContext
NovoCatalogoController - -> Catalogo


PersistenceContext : repositories()
NovoCatalogoController - -> RepositoryFactory
RepositoryFactory : catalogos()
RepositoryFactory : servicos()
Catalogo : novoCatalogo()
CatalogoRepository : save(newCatalogo)


ServicoBootstrapper - -> EspecificarServicoController

EspecificarServicoController - -> ServicoRepository
EspecificarServicoController - -> PersistenceContext
EspecificarServicoController - -> Servico
EspecificarServicoController - -> Formulario
PersistenceContext - -> ServicoRepository
PersistenceContext - -> CatalogoRepository
PersistenceContext - -> FormularioRepository

EspecificarServicoController - -> RepositoryFactory
Servico : novoServico()
ServicoRepository : save(newServico)

Formulario : novoFormulario()
FormularioRepository : save(newFormulario)
@enduml

PlantUML version 1.2021.6beta6(Unknown compile time)
(GPL source distribution)
Java Runtime: Java(TM) SE Runtime Environment
JVM: Java HotSpot(TM) 64-Bit Server VM
Default Encoding: UTF-8
Language: en
Country: US
--></g></svg>