<?xml version="1.0" encoding="UTF-8" standalone="no"?><svg xmlns="http://www.w3.org/2000/svg" xmlns:xlink="http://www.w3.org/1999/xlink" contentScriptType="application/ecmascript" contentStyleType="text/css" height="563px" preserveAspectRatio="none" style="width:862px;height:563px;" version="1.1" viewBox="0 0 862 563" width="862px" zoomAndPan="magnify"><defs/><g><polygon fill="#FFFFFF" points="61,93.5938,61,93.6638,63,93.4556,65,93.6582,67,93.727,69,93.356,71,93.5938,70.9223,93.5938,70.5735,103.612,70.6165,113.6302,70.9318,123.6484,70.3086,133.6667,71.5536,143.6849,70.3697,153.7031,70.8022,163.7214,71.4319,173.7396,70.9142,183.7578,71.0682,193.776,70.9681,203.7943,71.1785,213.8125,71.2391,223.8307,71.5857,233.849,71.6711,243.8672,71.6793,253.8854,71.2546,263.9036,71.4636,273.9219,71.7022,283.9401,70.2788,293.9583,71.6785,303.9766,70.7035,313.9948,71.5338,324.013,70.505,334.0313,70.9315,344.0495,71.7416,354.0677,70.9513,364.0859,71.1053,374.1042,71.3386,384.1224,71.4162,394.1406,70.9961,404.1589,71.2872,414.1771,70.4276,424.1953,71.2844,434.2135,71.5482,444.2318,71,454.25,71,454.3982,69,454.4543,67,454.089,65,454.0326,63,454.0429,61,454.25,60.9411,454.25,60.8035,444.2318,61.6814,434.2135,60.8253,424.1953,60.6569,414.1771,61.2283,404.1589,60.3332,394.1406,60.4809,384.1224,61.649,374.1042,61.4357,364.0859,61.7345,354.0677,60.6782,344.0495,61.3192,334.0313,61.5904,324.013,60.5276,313.9948,60.9041,303.9766,61.126,293.9583,61.6518,283.9401,60.9958,273.9219,61.4626,263.9036,60.4462,253.8854,60.3227,243.8672,61.5036,233.849,60.2831,223.8307,61.509,213.8125,61.2066,203.7943,60.7321,193.776,60.6462,183.7578,61.4588,173.7396,60.7007,163.7214,61.5919,153.7031,60.4473,143.6849,61.6174,133.6667,61.4843,123.6484,61.245,113.6302,61.0472,103.612,61,93.5938" style="stroke:#383838;stroke-width:1.0;"/><polygon fill="#FFFFFF" points="212.5,114.7266,212.5,114.7966,214.5,114.5885,216.5,114.791,218.5,114.8598,220.5,114.4888,222.5,114.7266,222.4223,114.7266,222.0735,124.9262,222.1165,135.1258,222.4318,145.3254,221.8086,155.525,223.0536,165.7246,221.8697,175.9242,222.3022,186.1238,222.9319,196.3234,222.4142,206.523,222.5682,216.7227,222.4681,226.9223,222.6785,237.1219,222.7391,247.3215,223.0857,257.5211,223.1711,267.7207,223.1793,277.9203,222.7546,288.1199,222.9636,298.3195,223.2022,308.5191,222.5,318.7188,222.5,318.4784,220.5,318.9449,218.5,318.6199,216.5,318.8967,214.5,318.5537,212.5,318.7188,212.4315,318.7188,213.2416,308.5191,212.4513,298.3195,212.6053,288.1199,212.8386,277.9203,212.9162,267.7207,212.4961,257.5211,212.7872,247.3215,211.9276,237.1219,212.7844,226.9223,213.0482,216.7227,212.9445,206.523,213.113,196.3234,212.0169,186.1238,211.8478,175.9242,211.8786,165.7246,212.4411,155.525,212.3035,145.3254,213.1814,135.1258,212.3253,124.9262,212.5,114.7266" style="stroke:#383838;stroke-width:1.0;"/><polygon fill="#FFFFFF" points="212.5,347.8516,212.5,347.9216,214.5,347.7135,216.5,347.916,218.5,347.9848,220.5,347.6138,222.5,347.8516,222.4223,347.8516,222.0735,357.5241,222.1165,367.1967,222.4318,376.8693,221.8086,386.5419,223.0536,396.2145,221.8697,405.8871,222.3022,415.5597,222.9319,425.2322,222.4142,434.9048,222.5682,444.5774,222.5,454.25,222.5,454.2394,220.5,454.3095,218.5,454.3297,216.5,454.4452,214.5,454.4737,212.5,454.25,213.1793,454.25,212.7546,444.5774,212.9636,434.9048,213.2022,425.2322,211.7788,415.5597,213.1785,405.8871,212.2035,396.2145,213.0338,386.5419,212.005,376.8693,212.4315,367.1967,213.2416,357.5241,212.5,347.8516" style="stroke:#383838;stroke-width:1.0;"/><polygon fill="#FFFFFF" points="381.5,218.4531,381.5,218.5232,383.5,218.315,385.5,218.5176,387.5,218.5864,389.5,218.2153,391.5,218.4531,391.4223,218.4531,391.0735,227.9753,391.1165,237.4974,391.4318,247.0195,390.8086,256.5417,392.0536,266.0638,391.5,275.5859,391.5,275.3758,389.5,275.52,387.5,275.7299,385.5,275.5573,383.5,275.6087,381.5,275.5859,381.4681,275.5859,381.6785,266.0638,381.7391,256.5417,382.0857,247.0195,382.1711,237.4974,382.1793,227.9753,381.5,218.4531" style="stroke:#383838;stroke-width:1.0;"/><polygon fill="#FFFFFF" points="543.5,247.5859,543.5,247.656,545.5,247.4478,547.5,247.6504,549.5,247.7192,551.5,247.3481,553.5,247.5859,553.4223,247.5859,553.0735,257.1081,553.1165,266.6302,553.4318,276.1523,552.8086,285.6745,554.0536,295.1966,553.5,304.7188,553.5,304.5087,551.5,304.6528,549.5,304.8627,547.5,304.6902,545.5,304.7415,543.5,304.7188,543.4681,304.7188,543.6785,295.1966,543.7391,285.6745,544.0857,276.1523,544.1711,266.6302,544.1793,257.1081,543.5,247.5859" style="stroke:#383838;stroke-width:1.0;"/><polygon fill="#FFFFFF" points="693.5,304.7188,693.5,304.7888,695.5,304.5806,697.5,304.7832,699.5,304.852,701.5,304.481,703.5,304.7188,703.4741,304.7188,703.3578,307.5188,703.3722,310.3188,703.4773,313.1188,703.2695,315.9188,703.5,318.7188,703.5,318.9033,701.5,318.5087,699.5,318.6528,697.5,318.8627,695.5,318.6902,693.5,318.7188,693.5227,318.7188,693.4894,315.9188,693.5595,313.1188,693.5797,310.3188,693.6952,307.5188,693.5,304.7188" style="stroke:#383838;stroke-width:1.0;"/><polygon fill="#FFFFFF" points="693.5,376.9844,693.5,377.0544,695.5,376.8463,697.5,377.0488,699.5,377.1176,701.5,376.7466,703.5,376.9844,703.4223,376.9844,703.0735,386.6426,703.1165,396.3008,703.4318,405.959,702.8086,415.6172,704.0536,425.2754,702.8697,434.9336,703.3022,444.5918,703.5,454.25,703.5,454.394,701.5,454.2214,699.5,454.2727,697.5,454.2394,695.5,454.3095,693.5,454.25,693.7391,454.25,694.0857,444.5918,694.1711,434.9336,694.1793,425.2754,693.7546,415.6172,693.9636,405.959,694.2022,396.3008,692.7788,386.6426,693.5,376.9844" style="stroke:#383838;stroke-width:1.0;"/><path d="M66,83.5938 L66.2802,83.5938 L65.4476,93.4852 L66.2577,103.3766 L66.5329,113.268 L65.0488,123.1594 L65.8964,133.0508 L65.4313,142.9422 L65.4887,152.8336 L65.9091,162.725 L65.0782,172.6164 L66.7382,182.5078 L65.1596,192.3992 L65.7363,202.2906 L66.5759,212.182 L65.8856,222.0734 L66.091,231.9648 L65.9574,241.8563 L66.238,251.7477 L66.3188,261.6391 L66.7809,271.5305 L66.8947,281.4219 L66.9057,291.3133 L66.3395,301.2047 L66.6181,311.0961 L66.9363,320.9875 L65.0384,330.8789 L66.9047,340.7703 L65.6047,350.6617 L66.7117,360.5531 L65.34,370.4445 L65.9087,380.3359 L66.9888,390.2273 L65.935,400.1188 L66.1404,410.0102 L66.4515,419.9016 L66.555,429.793 L65.9948,439.6844 L66.383,449.5758 L65.2368,459.4672 L66.3792,469.3586 L66,479.25 " fill="none" style="stroke:#383838;stroke-width:1.0;stroke-dasharray:5.0,5.0;"/><path d="M217,83.5938 L217.2802,83.5938 L216.4476,93.4852 L217.2577,103.3766 L217.5329,113.268 L216.0488,123.1594 L216.8964,133.0508 L216.4313,142.9422 L216.4887,152.8336 L216.9091,162.725 L216.0782,172.6164 L217.7382,182.5078 L216.1596,192.3992 L216.7363,202.2906 L217.5759,212.182 L216.8856,222.0734 L217.091,231.9648 L216.9574,241.8563 L217.238,251.7477 L217.3188,261.6391 L217.7809,271.5305 L217.8947,281.4219 L217.9057,291.3133 L217.3395,301.2047 L217.6181,311.0961 L217.9363,320.9875 L216.0384,330.8789 L217.9047,340.7703 L216.6047,350.6617 L217.7117,360.5531 L216.34,370.4445 L216.9087,380.3359 L217.9888,390.2273 L216.935,400.1188 L217.1404,410.0102 L217.4515,419.9016 L217.555,429.793 L216.9948,439.6844 L217.383,449.5758 L216.2368,459.4672 L217.3792,469.3586 L217,479.25 " fill="none" style="stroke:#383838;stroke-width:1.0;stroke-dasharray:5.0,5.0;"/><path d="M386,83.5938 L386.2802,83.5938 L385.4476,93.4852 L386.2577,103.3766 L386.5329,113.268 L385.0488,123.1594 L385.8964,133.0508 L385.4313,142.9422 L385.4887,152.8336 L385.9091,162.725 L385.0782,172.6164 L386.7382,182.5078 L385.1596,192.3992 L385.7363,202.2906 L386.5759,212.182 L385.8856,222.0734 L386.091,231.9648 L385.9574,241.8563 L386.238,251.7477 L386.3188,261.6391 L386.7809,271.5305 L386.8947,281.4219 L386.9057,291.3133 L386.3395,301.2047 L386.6181,311.0961 L386.9363,320.9875 L385.0384,330.8789 L386.9047,340.7703 L385.6047,350.6617 L386.7117,360.5531 L385.34,370.4445 L385.9087,380.3359 L386.9888,390.2273 L385.935,400.1188 L386.1404,410.0102 L386.4515,419.9016 L386.555,429.793 L385.9948,439.6844 L386.383,449.5758 L385.2368,459.4672 L386.3792,469.3586 L386,479.25 " fill="none" style="stroke:#383838;stroke-width:1.0;stroke-dasharray:5.0,5.0;"/><path d="M548,83.5938 L548.2802,83.5938 L547.4476,93.4852 L548.2577,103.3766 L548.5329,113.268 L547.0488,123.1594 L547.8964,133.0508 L547.4313,142.9422 L547.4887,152.8336 L547.9091,162.725 L547.0782,172.6164 L548.7382,182.5078 L547.1596,192.3992 L547.7363,202.2906 L548.5759,212.182 L547.8856,222.0734 L548.091,231.9648 L547.9574,241.8563 L548.238,251.7477 L548.3188,261.6391 L548.7809,271.5305 L548.8947,281.4219 L548.9057,291.3133 L548.3395,301.2047 L548.6181,311.0961 L548.9363,320.9875 L547.0384,330.8789 L548.9047,340.7703 L547.6047,350.6617 L548.7117,360.5531 L547.34,370.4445 L547.9087,380.3359 L548.9888,390.2273 L547.935,400.1188 L548.1404,410.0102 L548.4515,419.9016 L548.555,429.793 L547.9948,439.6844 L548.383,449.5758 L547.2368,459.4672 L548.3792,469.3586 L548,479.25 " fill="none" style="stroke:#383838;stroke-width:1.0;stroke-dasharray:5.0,5.0;"/><path d="M698,83.5938 L698.2802,83.5938 L697.4476,93.4852 L698.2577,103.3766 L698.5329,113.268 L697.0488,123.1594 L697.8964,133.0508 L697.4313,142.9422 L697.4887,152.8336 L697.9091,162.725 L697.0782,172.6164 L698.7382,182.5078 L697.1596,192.3992 L697.7363,202.2906 L698.5759,212.182 L697.8856,222.0734 L698.091,231.9648 L697.9574,241.8563 L698.238,251.7477 L698.3188,261.6391 L698.7809,271.5305 L698.8947,281.4219 L698.9057,291.3133 L698.3395,301.2047 L698.6181,311.0961 L698.9363,320.9875 L697.0384,330.8789 L698.9047,340.7703 L697.6047,350.6617 L698.7117,360.5531 L697.34,370.4445 L697.9087,380.3359 L698.9888,390.2273 L697.935,400.1188 L698.1404,410.0102 L698.4515,419.9016 L698.555,429.793 L697.9948,439.6844 L698.383,449.5758 L697.2368,459.4672 L698.3792,469.3586 L698,479.25 " fill="none" style="stroke:#383838;stroke-width:1.0;stroke-dasharray:5.0,5.0;"/><path d="M829.5,170.0234 L829.7802,170.0234 L828.9476,179.9985 L829.7577,189.9735 L830.0329,199.9486 L828.5488,209.9236 L829.3964,219.8987 L828.9313,229.8737 L828.9887,239.8488 L829.4091,249.8238 L828.5782,259.7989 L830.2382,269.7739 L828.6596,279.749 L829.2363,289.724 L830.0759,299.6991 L829.3856,309.6741 L829.591,319.6492 L829.4574,329.6242 L829.738,339.5993 L829.8188,349.5743 L830.2809,359.5494 L830.3947,369.5244 L830.4057,379.4995 L829.8395,389.4745 L830.1181,399.4496 L830.4363,409.4246 L828.5384,419.3997 L830.4047,429.3747 L829.1047,439.3498 L830.2117,449.3248 L828.84,459.2999 L829.4087,469.2749 L829.5,479.25 " fill="none" style="stroke:#383838;stroke-width:1.0;stroke-dasharray:5.0,5.0;"/><polygon fill="#F8F8F8" points="5,36,5,36.2102,15.1667,35.5857,25.3333,36.1933,35.5,36.3997,45.6667,35.2866,55.8333,35.9223,66,35.5735,76.1667,35.6165,86.3333,35.9318,96.5,35.3086,106.6667,36.5536,116.8333,35.3697,127,36,126.8022,36,127.4319,45.3188,126.9142,54.6375,127.0682,63.9563,126.9681,73.275,127,82.5938,127,82.7723,116.8333,82.8329,106.6667,83.1794,96.5,83.2648,86.3333,83.273,76.1667,82.8484,66,83.0573,55.8333,83.296,45.6667,81.8726,35.5,83.2723,25.3333,82.2972,15.1667,83.1276,5,82.5938,4.505,82.5938,4.9315,73.275,5.7416,63.9563,4.9513,54.6375,5.1053,45.3188,5,36" style="stroke:#383838;stroke-width:1.5;"/><text fill="#000000" font-family="FG Virgil" font-size="14" font-style="italic" lengthAdjust="spacing" textLength="108" x="12" y="55.9951">«presentation»</text><text fill="#000000" font-family="FG Virgil" font-size="14" lengthAdjust="spacing" textLength="95" x="18.5" y="72.292">CriarEquipaUI</text><polygon fill="#F8F8F8" points="5,478.25,5,478.4602,15.1667,477.8357,25.3333,478.4433,35.5,478.6497,45.6667,477.5366,55.8333,478.1723,66,477.8235,76.1667,477.8665,86.3333,478.1818,96.5,477.5586,106.6667,478.8036,116.8333,477.6197,127,478.25,126.8022,478.25,127.4319,487.5688,126.9142,496.8875,127.0682,506.2063,126.9681,515.525,127,524.8438,127,525.0223,116.8333,525.0829,106.6667,525.4294,96.5,525.5148,86.3333,525.523,76.1667,525.0984,66,525.3073,55.8333,525.546,45.6667,524.1226,35.5,525.5223,25.3333,524.5472,15.1667,525.3776,5,524.8438,4.505,524.8438,4.9315,515.525,5.7416,506.2063,4.9513,496.8875,5.1053,487.5688,5,478.25" style="stroke:#383838;stroke-width:1.5;"/><text fill="#000000" font-family="FG Virgil" font-size="14" font-style="italic" lengthAdjust="spacing" textLength="108" x="12" y="498.2451">«presentation»</text><text fill="#000000" font-family="FG Virgil" font-size="14" lengthAdjust="spacing" textLength="95" x="18.5" y="514.542">CriarEquipaUI</text><text fill="#000000" font-family="FG Virgil" font-size="14" font-style="italic" lengthAdjust="spacing" textLength="97" x="166" y="63.9951">«application»</text><text fill="#000000" font-family="FG Virgil" font-size="14" lengthAdjust="spacing" textLength="155" x="137" y="80.292">CriarEquipaController</text><polygon fill="#F8F8F8" points="229.5663,37.9189,227.8073,40.3223,225.7268,43.8426,222.7512,46.215,219.6244,47.5123,217.1313,47.6249,213.9269,46.0024,210.9035,44.9425,208.6086,42.7904,207.4048,40.3267,206.6909,38.3649,205.9915,35.8026,204.8564,33.5976,205.7287,31.4447,206.4929,29.0864,209.3611,27.2212,211.3789,24.8012,213.8764,23.9976,216.8456,23.3055,220.6532,23.7167,222.7386,24.7002,225.1633,25.146,228.1115,28.1665,229.1392,31.3552,229.5857,33.5309,229.08,37.1162" style="stroke:#383838;stroke-width:2.0;"/><polygon fill="#383838" points="213.5,23,213.5449,23.0538,214.6116,21.8939,215.9412,21.0495,217.1853,20.1023,218.1478,18.8173,219.5,18,219.4759,17.9904,218.968,18.9472,218.5813,19.9525,218.2789,20.9916,217.686,21.9144,217.5,23,217.6713,23.0685,217.7049,23.922,218.2388,24.9755,218.8337,26.0535,219.0735,26.9894,219.5,28,219.5146,28.0175,218.2932,26.9918,217.1381,26.0457,215.951,25.0612,214.825,24.15,213.5,23" style="stroke:#383838;stroke-width:1.0;"/><text fill="#000000" font-family="FG Virgil" font-size="14" font-style="italic" lengthAdjust="spacing" textLength="97" x="166" y="491.2451">«application»</text><text fill="#000000" font-family="FG Virgil" font-size="14" lengthAdjust="spacing" textLength="155" x="137" y="507.542">CriarEquipaController</text><polygon fill="#F8F8F8" points="229.5663,529.7626,227.8073,532.1661,225.7268,535.6863,222.7512,538.0587,219.6244,539.3561,217.1313,539.4686,213.9269,537.8462,210.9035,536.7862,208.6086,534.6341,207.4048,532.1704,206.6909,530.2087,205.9915,527.6463,204.8564,525.4414,205.7287,523.2885,206.4929,520.9302,209.3611,519.065,211.3789,516.6449,213.8764,515.8413,216.8456,515.1493,220.6532,515.5604,222.7386,516.544,225.1633,516.9898,228.1115,520.0103,229.1392,523.199,229.5857,525.3747,229.08,528.96" style="stroke:#383838;stroke-width:2.0;"/><polygon fill="#383838" points="213.5,514.8438,213.5449,514.8976,214.6116,513.7377,215.9412,512.8932,217.1853,511.9461,218.1478,510.6611,219.5,509.8438,219.4759,509.8341,218.968,510.791,218.5813,511.7963,218.2789,512.8353,217.686,513.7582,217.5,514.8438,217.6713,514.9123,217.7049,515.7657,218.2388,516.8193,218.8337,517.8972,219.0735,518.8331,219.5,519.8438,219.5146,519.8612,218.2932,518.8356,217.1381,517.8895,215.951,516.905,214.825,515.9937,213.5,514.8438" style="stroke:#383838;stroke-width:1.0;"/><polygon fill="#F8F8F8" points="308,36,308,36.2102,317.8125,35.5857,327.625,36.1933,337.4375,36.3997,347.25,35.2866,357.0625,35.9223,366.875,35.5735,376.6875,35.6165,386.5,35.9318,396.3125,35.3086,406.125,36.5536,415.9375,35.3697,425.75,35.8022,435.5625,36.4319,445.375,35.9142,455.1875,36.0682,465,36,464.9681,36,465.1785,45.3188,465.2391,54.6375,465.5857,63.9563,465.6711,73.275,465,82.5938,465,83.273,455.1875,82.8484,445.375,83.0573,435.5625,83.296,425.75,81.8726,415.9375,83.2723,406.125,82.2972,396.3125,83.1276,386.5,82.0987,376.6875,82.5253,366.875,83.3354,357.0625,82.545,347.25,82.6991,337.4375,82.9324,327.625,83.01,317.8125,82.5898,308,82.5938,308.2872,82.5938,307.4276,73.275,308.2844,63.9563,308.5482,54.6375,308.4445,45.3188,308,36" style="stroke:#383838;stroke-width:1.5;"/><text fill="#000000" font-family="FG Virgil" font-size="14" font-style="italic" lengthAdjust="spacing" textLength="100" x="336.5" y="55.9951">«persistence»</text><text fill="#000000" font-family="FG Virgil" font-size="14" lengthAdjust="spacing" textLength="143" x="315" y="72.292">PersistenceContext</text><polygon fill="#F8F8F8" points="308,478.25,308,478.4602,317.8125,477.8357,327.625,478.4433,337.4375,478.6497,347.25,477.5366,357.0625,478.1723,366.875,477.8235,376.6875,477.8665,386.5,478.1818,396.3125,477.5586,406.125,478.8036,415.9375,477.6197,425.75,478.0522,435.5625,478.6819,445.375,478.1642,455.1875,478.3182,465,478.25,464.9681,478.25,465.1785,487.5688,465.2391,496.8875,465.5857,506.2063,465.6711,515.525,465,524.8438,465,525.523,455.1875,525.0984,445.375,525.3073,435.5625,525.546,425.75,524.1226,415.9375,525.5223,406.125,524.5472,396.3125,525.3776,386.5,524.3487,376.6875,524.7753,366.875,525.5854,357.0625,524.795,347.25,524.9491,337.4375,525.1824,327.625,525.26,317.8125,524.8398,308,524.8438,308.2872,524.8438,307.4276,515.525,308.2844,506.2063,308.5482,496.8875,308.4445,487.5688,308,478.25" style="stroke:#383838;stroke-width:1.5;"/><text fill="#000000" font-family="FG Virgil" font-size="14" font-style="italic" lengthAdjust="spacing" textLength="100" x="336.5" y="498.2451">«persistence»</text><text fill="#000000" font-family="FG Virgil" font-size="14" lengthAdjust="spacing" textLength="143" x="315" y="514.542">PersistenceContext</text><polygon fill="#F8F8F8" points="475,36,475,36.2102,484.8,35.5857,494.6,36.1933,504.4,36.3997,514.2,35.2866,524,35.9223,533.8,35.5735,543.6,35.6165,553.4,35.9318,563.2,35.3086,573,36.5536,582.8,35.3697,592.6,35.8022,602.4,36.4319,612.2,35.9142,622,36,622.0682,36,621.9681,45.3188,622.1785,54.6375,622.2391,63.9563,622.5857,73.275,622,82.5938,622,83.2648,612.2,83.273,602.4,82.8484,592.6,83.0573,582.8,83.296,573,81.8726,563.2,83.2723,553.4,82.2972,543.6,83.1276,533.8,82.0987,524,82.5253,514.2,83.3354,504.4,82.545,494.6,82.6991,484.8,82.9324,475,82.5938,475.4162,82.5938,474.9961,73.275,475.2872,63.9563,474.4276,54.6375,475.2844,45.3188,475,36" style="stroke:#383838;stroke-width:1.5;"/><text fill="#000000" font-family="FG Virgil" font-size="14" font-style="italic" lengthAdjust="spacing" textLength="68" x="514.5" y="55.9951">«factory»</text><text fill="#000000" font-family="FG Virgil" font-size="14" lengthAdjust="spacing" textLength="133" x="482" y="72.292">RepositoryFactory</text><polygon fill="#F8F8F8" points="475,478.25,475,478.4602,484.8,477.8357,494.6,478.4433,504.4,478.6497,514.2,477.5366,524,478.1723,533.8,477.8235,543.6,477.8665,553.4,478.1818,563.2,477.5586,573,478.8036,582.8,477.6197,592.6,478.0522,602.4,478.6819,612.2,478.1642,622,478.25,622.0682,478.25,621.9681,487.5688,622.1785,496.8875,622.2391,506.2063,622.5857,515.525,622,524.8438,622,525.5148,612.2,525.523,602.4,525.0984,592.6,525.3073,582.8,525.546,573,524.1226,563.2,525.5223,553.4,524.5472,543.6,525.3776,533.8,524.3487,524,524.7753,514.2,525.5854,504.4,524.795,494.6,524.9491,484.8,525.1824,475,524.8438,475.4162,524.8438,474.9961,515.525,475.2872,506.2063,474.4276,496.8875,475.2844,487.5688,475,478.25" style="stroke:#383838;stroke-width:1.5;"/><text fill="#000000" font-family="FG Virgil" font-size="14" font-style="italic" lengthAdjust="spacing" textLength="68" x="514.5" y="498.2451">«factory»</text><text fill="#000000" font-family="FG Virgil" font-size="14" lengthAdjust="spacing" textLength="133" x="482" y="514.542">RepositoryFactory</text><text fill="#000000" font-family="FG Virgil" font-size="14" font-style="italic" lengthAdjust="spacing" textLength="90" x="650.5" y="63.9951">«repository»</text><text fill="#000000" font-family="FG Virgil" font-size="14" lengthAdjust="spacing" textLength="127" x="632" y="80.292">EquipaRepository</text><path d="M680.5,15 L680.5,15 L680.5651,15.067 L682.1716,13.118 L684.1599,11.5616 L686.0238,9.8774 L687.479,7.7727 L689.5,6.25 L689.4952,6.2158 L691.2739,5.8122 L693.0766,5.5812 L694.8958,5.47 L696.6577,4.9456 L698.5,5 L698.5,5 L698.5339,5.2437 L700.2615,4.9725 L702.0879,5.4129 L703.9264,5.9402 L705.6948,5.9622 L707.5,6.25 L707.5211,6.2717 L709.2901,7.9898 L711.1553,9.8069 L712.9741,11.5762 L714.8815,13.4366 L716.5,15 L717.0965,15 L717.1038,20.2 L716.7263,25.4 L716.9121,30.6 L717.1242,35.8 L716.5,41 L716.5,41 L716.2766,40.7702 L714.9102,42.9662 L712.8081,44.4055 L711.2654,46.4201 L709.1466,47.8423 L707.5,49.75 L707.4958,49.7198 L705.7453,50.3265 L703.897,50.2285 L702.1064,50.5464 L700.3207,50.8991 L698.5,51 L698.5,51 L698.5254,51.1832 L696.6998,50.7483 L694.9176,50.6264 L693.065,49.998 L691.3174,50.1252 L689.5,49.75 L689.6698,49.9247 L687.8377,48.1417 L686.0899,46.4453 L683.9503,44.3461 L682.0979,42.5422 L680.5,41 L679.9476,41 L680.4477,35.8 L680.3253,30.6 L681.1057,25.4 L680.3447,20.2 L680.5,15 " fill="#F8F8F8" style="stroke:#000000;stroke-width:1.5;"/><path d="M680.5,15 L680.5,15 L680.5651,15.067 L682.1716,16.618 L684.1599,18.5616 L686.0238,20.3774 L687.479,21.7727 L689.5,23.75 L689.4952,23.7158 L691.2739,23.8122 L693.0766,24.0812 L694.8958,24.47 L696.6577,24.4456 L698.5,25 L698.5,25 L698.5339,25.2437 L700.2615,24.4725 L702.0879,24.4129 L703.9264,24.4402 L705.6948,23.9622 L707.5,23.75 L707.5211,23.7717 L709.2901,21.9898 L711.1553,20.3069 L712.9741,18.5762 L714.8815,16.9366 L716.5,15 " fill="none" style="stroke:#000000;stroke-width:1.5;"/><text fill="#000000" font-family="FG Virgil" font-size="14" font-style="italic" lengthAdjust="spacing" textLength="90" x="650.5" y="491.2451">«repository»</text><text fill="#000000" font-family="FG Virgil" font-size="14" lengthAdjust="spacing" textLength="127" x="632" y="507.542">EquipaRepository</text><path d="M680.5,520.8438 L680.5,520.8438 L680.5651,520.9107 L682.1716,518.9617 L684.1599,517.4053 L686.0238,515.7211 L687.479,513.6164 L689.5,512.0938 L689.4952,512.0595 L691.2739,511.656 L693.0766,511.4249 L694.8958,511.3137 L696.6577,510.7894 L698.5,510.8438 L698.5,510.8438 L698.5339,511.0875 L700.2615,510.8163 L702.0879,511.2567 L703.9264,511.7839 L705.6948,511.806 L707.5,512.0938 L707.5211,512.1155 L709.2901,513.8336 L711.1553,515.6506 L712.9741,517.42 L714.8815,519.2804 L716.5,520.8438 L717.0965,520.8438 L717.1038,526.0438 L716.7263,531.2438 L716.9121,536.4438 L717.1242,541.6438 L716.5,546.8438 L716.5,546.8438 L716.2766,546.6139 L714.9102,548.81 L712.8081,550.2493 L711.2654,552.2639 L709.1466,553.686 L707.5,555.5938 L707.4958,555.5636 L705.7453,556.1702 L703.897,556.0723 L702.1064,556.3901 L700.3207,556.7428 L698.5,556.8438 L698.5,556.8438 L698.5254,557.027 L696.6998,556.592 L694.9176,556.4702 L693.065,555.8418 L691.3174,555.9689 L689.5,555.5938 L689.6698,555.7684 L687.8377,553.9854 L686.0899,552.2891 L683.9503,550.1898 L682.0979,548.3859 L680.5,546.8438 L679.9476,546.8438 L680.4477,541.6438 L680.3253,536.4438 L681.1057,531.2438 L680.3447,526.0438 L680.5,520.8438 " fill="#F8F8F8" style="stroke:#000000;stroke-width:1.5;"/><path d="M680.5,520.8438 L680.5,520.8438 L680.5651,520.9107 L682.1716,522.4617 L684.1599,524.4053 L686.0238,526.2211 L687.479,527.6164 L689.5,529.5938 L689.4952,529.5595 L691.2739,529.656 L693.0766,529.9249 L694.8958,530.3137 L696.6577,530.2894 L698.5,530.8438 L698.5,530.8438 L698.5339,531.0875 L700.2615,530.3163 L702.0879,530.2567 L703.9264,530.2839 L705.6948,529.806 L707.5,529.5938 L707.5211,529.6155 L709.2901,527.8336 L711.1553,526.1506 L712.9741,524.42 L714.8815,522.7804 L716.5,520.8438 " fill="none" style="stroke:#000000;stroke-width:1.5;"/><text fill="#000000" font-family="FG Virgil" font-size="14" font-style="italic" lengthAdjust="spacing" textLength="58" x="797.5" y="491.2451">«entity»</text><text fill="#000000" font-family="FG Virgil" font-size="14" lengthAdjust="spacing" textLength="48" x="802.5" y="507.542">Equipa</text><polygon fill="#F8F8F8" points="841.5663,529.7626,839.8073,532.1661,837.7268,535.6863,834.7512,538.0587,831.6244,539.3561,829.1313,539.4686,825.9269,537.8462,822.9035,536.7862,820.6086,534.6341,819.4048,532.1704,818.6909,530.2087,817.9915,527.6463,816.8564,525.4414,817.7287,523.2885,818.4929,520.9302,821.3611,519.065,823.3789,516.6449,825.8764,515.8413,828.8456,515.1493,832.6532,515.5604,834.7386,516.544,837.1633,516.9898,840.1115,520.0103,841.1392,523.199,841.5857,525.3747,841.08,528.96" style="stroke:#383838;stroke-width:2.0;"/><path d="M817.5,540.8438 L817.5,540.9372 L822.3,540.6596 L827.1,540.9297 L831.9,541.0214 L836.7,540.5267 L841.5,540.8438 " fill="#F8F8F8" style="stroke:#383838;stroke-width:2.0;"/><polygon fill="#FFFFFF" points="61,93.5938,61,93.6638,63,93.4556,65,93.6582,67,93.727,69,93.356,71,93.5938,70.9223,93.5938,70.5735,103.612,70.6165,113.6302,70.9318,123.6484,70.3086,133.6667,71.5536,143.6849,70.3697,153.7031,70.8022,163.7214,71.4319,173.7396,70.9142,183.7578,71.0682,193.776,70.9681,203.7943,71.1785,213.8125,71.2391,223.8307,71.5857,233.849,71.6711,243.8672,71.6793,253.8854,71.2546,263.9036,71.4636,273.9219,71.7022,283.9401,70.2788,293.9583,71.6785,303.9766,70.7035,313.9948,71.5338,324.013,70.505,334.0313,70.9315,344.0495,71.7416,354.0677,70.9513,364.0859,71.1053,374.1042,71.3386,384.1224,71.4162,394.1406,70.9961,404.1589,71.2872,414.1771,70.4276,424.1953,71.2844,434.2135,71.5482,444.2318,71,454.25,71,454.3982,69,454.4543,67,454.089,65,454.0326,63,454.0429,61,454.25,60.9411,454.25,60.8035,444.2318,61.6814,434.2135,60.8253,424.1953,60.6569,414.1771,61.2283,404.1589,60.3332,394.1406,60.4809,384.1224,61.649,374.1042,61.4357,364.0859,61.7345,354.0677,60.6782,344.0495,61.3192,334.0313,61.5904,324.013,60.5276,313.9948,60.9041,303.9766,61.126,293.9583,61.6518,283.9401,60.9958,273.9219,61.4626,263.9036,60.4462,253.8854,60.3227,243.8672,61.5036,233.849,60.2831,223.8307,61.509,213.8125,61.2066,203.7943,60.7321,193.776,60.6462,183.7578,61.4588,173.7396,60.7007,163.7214,61.5919,153.7031,60.4473,143.6849,61.6174,133.6667,61.4843,123.6484,61.245,113.6302,61.0472,103.612,61,93.5938" style="stroke:#383838;stroke-width:1.0;"/><polygon fill="#FFFFFF" points="212.5,114.7266,212.5,114.7966,214.5,114.5885,216.5,114.791,218.5,114.8598,220.5,114.4888,222.5,114.7266,222.4223,114.7266,222.0735,124.9262,222.1165,135.1258,222.4318,145.3254,221.8086,155.525,223.0536,165.7246,221.8697,175.9242,222.3022,186.1238,222.9319,196.3234,222.4142,206.523,222.5682,216.7227,222.4681,226.9223,222.6785,237.1219,222.7391,247.3215,223.0857,257.5211,223.1711,267.7207,223.1793,277.9203,222.7546,288.1199,222.9636,298.3195,223.2022,308.5191,222.5,318.7188,222.5,318.4784,220.5,318.9449,218.5,318.6199,216.5,318.8967,214.5,318.5537,212.5,318.7188,212.4315,318.7188,213.2416,308.5191,212.4513,298.3195,212.6053,288.1199,212.8386,277.9203,212.9162,267.7207,212.4961,257.5211,212.7872,247.3215,211.9276,237.1219,212.7844,226.9223,213.0482,216.7227,212.9445,206.523,213.113,196.3234,212.0169,186.1238,211.8478,175.9242,211.8786,165.7246,212.4411,155.525,212.3035,145.3254,213.1814,135.1258,212.3253,124.9262,212.5,114.7266" style="stroke:#383838;stroke-width:1.0;"/><polygon fill="#FFFFFF" points="212.5,347.8516,212.5,347.9216,214.5,347.7135,216.5,347.916,218.5,347.9848,220.5,347.6138,222.5,347.8516,222.4223,347.8516,222.0735,357.5241,222.1165,367.1967,222.4318,376.8693,221.8086,386.5419,223.0536,396.2145,221.8697,405.8871,222.3022,415.5597,222.9319,425.2322,222.4142,434.9048,222.5682,444.5774,222.5,454.25,222.5,454.2394,220.5,454.3095,218.5,454.3297,216.5,454.4452,214.5,454.4737,212.5,454.25,213.1793,454.25,212.7546,444.5774,212.9636,434.9048,213.2022,425.2322,211.7788,415.5597,213.1785,405.8871,212.2035,396.2145,213.0338,386.5419,212.005,376.8693,212.4315,367.1967,213.2416,357.5241,212.5,347.8516" style="stroke:#383838;stroke-width:1.0;"/><polygon fill="#FFFFFF" points="381.5,218.4531,381.5,218.5232,383.5,218.315,385.5,218.5176,387.5,218.5864,389.5,218.2153,391.5,218.4531,391.4223,218.4531,391.0735,227.9753,391.1165,237.4974,391.4318,247.0195,390.8086,256.5417,392.0536,266.0638,391.5,275.5859,391.5,275.3758,389.5,275.52,387.5,275.7299,385.5,275.5573,383.5,275.6087,381.5,275.5859,381.4681,275.5859,381.6785,266.0638,381.7391,256.5417,382.0857,247.0195,382.1711,237.4974,382.1793,227.9753,381.5,218.4531" style="stroke:#383838;stroke-width:1.0;"/><polygon fill="#FFFFFF" points="543.5,247.5859,543.5,247.656,545.5,247.4478,547.5,247.6504,549.5,247.7192,551.5,247.3481,553.5,247.5859,553.4223,247.5859,553.0735,257.1081,553.1165,266.6302,553.4318,276.1523,552.8086,285.6745,554.0536,295.1966,553.5,304.7188,553.5,304.5087,551.5,304.6528,549.5,304.8627,547.5,304.6902,545.5,304.7415,543.5,304.7188,543.4681,304.7188,543.6785,295.1966,543.7391,285.6745,544.0857,276.1523,544.1711,266.6302,544.1793,257.1081,543.5,247.5859" style="stroke:#383838;stroke-width:1.0;"/><polygon fill="#FFFFFF" points="693.5,304.7188,693.5,304.7888,695.5,304.5806,697.5,304.7832,699.5,304.852,701.5,304.481,703.5,304.7188,703.4741,304.7188,703.3578,307.5188,703.3722,310.3188,703.4773,313.1188,703.2695,315.9188,703.5,318.7188,703.5,318.9033,701.5,318.5087,699.5,318.6528,697.5,318.8627,695.5,318.6902,693.5,318.7188,693.5227,318.7188,693.4894,315.9188,693.5595,313.1188,693.5797,310.3188,693.6952,307.5188,693.5,304.7188" style="stroke:#383838;stroke-width:1.0;"/><polygon fill="#FFFFFF" points="693.5,376.9844,693.5,377.0544,695.5,376.8463,697.5,377.0488,699.5,377.1176,701.5,376.7466,703.5,376.9844,703.4223,376.9844,703.0735,386.6426,703.1165,396.3008,703.4318,405.959,702.8086,415.6172,704.0536,425.2754,702.8697,434.9336,703.3022,444.5918,703.5,454.25,703.5,454.394,701.5,454.2214,699.5,454.2727,697.5,454.2394,695.5,454.3095,693.5,454.25,693.7391,454.25,694.0857,444.5918,694.1711,434.9336,694.1793,425.2754,693.7546,415.6172,693.9636,405.959,694.2022,396.3008,692.7788,386.6426,693.5,376.9844" style="stroke:#383838;stroke-width:1.0;"/><polygon fill="#383838" points="200.5,110.7266,200.526,110.7916,202.4487,111.3983,204.5239,112.3864,206.5495,113.2503,208.4117,113.7058,210.5,114.7266,210.4904,114.7025,208.4472,115.3946,206.4525,116.2079,204.4916,117.1055,202.4144,117.7126,200.5,118.7266,200.6305,118.8571,201.1514,117.778,202.0534,117.0799,203.0018,116.4284,203.6798,115.5063,204.5,114.7266,204.5161,114.7426,203.6925,113.919,202.9421,113.1686,202.1564,112.3829,201.438,111.6646,200.5,110.7266" style="stroke:#383838;stroke-width:1.0;"/><path d="M71,114.7266 L71,115.0068 L80.6786,114.1741 L90.3571,114.9843 L100.0357,115.2595 L109.7143,113.7754 L119.3929,114.6229 L129.0714,114.1579 L138.75,114.2152 L148.4286,114.6357 L158.1071,113.8047 L167.7857,115.4648 L177.4643,113.8862 L187.1429,114.4629 L196.8214,115.3025 L206.5,114.7266 " fill="none" style="stroke:#383838;stroke-width:1.0;"/><text fill="#000000" font-family="FG Virgil" font-size="13" lengthAdjust="spacing" textLength="85" x="78" y="109.6606">novaEquipa()</text><polygon fill="#383838" points="785.5,139.8594,785.526,139.9244,787.4487,140.5311,789.5239,141.5192,791.5495,142.3831,793.4117,142.8386,795.5,143.8594,795.4904,143.8353,793.4472,144.5274,791.4525,145.3407,789.4916,146.2383,787.4144,146.8454,785.5,147.8594,785.6305,147.9899,786.1514,146.9108,787.0534,146.2128,788.0018,145.5612,788.6798,144.6392,789.5,143.8594,789.5161,143.8755,788.6925,143.0518,787.9421,142.3015,787.1564,141.5157,786.438,140.7974,785.5,139.8594" style="stroke:#383838;stroke-width:1.0;"/><path d="M222.5,143.8594 L222.5,144.1396 L232.4825,143.3069 L242.4649,144.1171 L252.4474,144.3923 L262.4298,142.9082 L272.4123,143.7558 L282.3947,143.2907 L292.3772,143.348 L302.3596,143.7685 L312.3421,142.9375 L322.3246,144.5976 L332.307,143.019 L342.2895,143.5957 L352.2719,144.4353 L362.2544,143.745 L372.2368,143.9504 L382.2193,143.8168 L392.2018,144.0974 L402.1842,144.1782 L412.1667,144.6403 L422.1491,144.7541 L432.1316,144.7651 L442.114,144.1989 L452.0965,144.4775 L462.0789,144.7957 L472.0614,142.8978 L482.0439,144.7641 L492.0263,143.464 L502.0088,144.5711 L511.9912,143.1993 L521.9737,143.768 L531.9561,144.8482 L541.9386,143.7944 L551.9211,143.9998 L561.9035,144.3109 L571.886,144.4144 L581.8684,143.8542 L591.8509,144.2423 L601.8333,143.0962 L611.8158,144.2386 L621.7982,144.5903 L631.7807,144.4521 L641.7632,144.6767 L651.7456,143.2153 L661.7281,142.9898 L671.7105,143.0308 L681.693,143.7809 L691.6754,143.5973 L701.6579,144.7679 L711.6404,143.6265 L721.6228,143.402 L731.6053,144.1637 L741.5877,142.9703 L751.5702,143.1672 L761.5526,144.7246 L771.5351,144.4403 L781.5175,144.8387 L791.5,143.8594 " fill="none" style="stroke:#383838;stroke-width:1.0;stroke-dasharray:2.0,2.0;"/><text fill="#000000" font-family="FG Virgil" font-size="13" lengthAdjust="spacing" textLength="144" x="229.5" y="138.7935">novaEquipa = create()</text><text fill="#000000" font-family="FG Virgil" font-size="14" font-style="italic" lengthAdjust="spacing" textLength="58" x="797.5" y="167.7217">«entity»</text><text fill="#000000" font-family="FG Virgil" font-size="14" lengthAdjust="spacing" textLength="48" x="802.5" y="184.0186">Equipa</text><polygon fill="#F8F8F8" points="841.5663,141.6454,839.8073,144.0489,837.7268,147.5692,834.7512,149.9415,831.6244,151.2389,829.1313,151.3515,825.9269,149.729,822.9035,148.669,820.6086,146.5169,819.4048,144.0532,818.6909,142.0915,817.9915,139.5291,816.8564,137.3242,817.7287,135.1713,818.4929,132.813,821.3611,130.9478,823.3789,128.5278,825.8764,127.7241,828.8456,127.0321,832.6532,127.4433,834.7386,128.4268,837.1633,128.8726,840.1115,131.8931,841.1392,135.0818,841.5857,137.2575,841.08,140.8428" style="stroke:#383838;stroke-width:2.0;"/><path d="M817.5,152.7266 L817.5,152.82 L822.3,152.5424 L827.1,152.8125 L831.9,152.9042 L836.7,152.4095 L841.5,152.7266 " fill="#F8F8F8" style="stroke:#383838;stroke-width:2.0;"/><polygon fill="#383838" points="369.5,214.4531,369.526,214.5182,371.4487,215.1249,373.5239,216.1129,375.5495,216.9768,377.4117,217.4323,379.5,218.4531,379.4904,218.4291,377.4472,219.1211,375.4525,219.9344,373.4916,220.832,371.4144,221.4392,369.5,222.4531,369.6305,222.5836,370.1514,221.5046,371.0534,220.8065,372.0018,220.1549,372.6798,219.2329,373.5,218.4531,373.5161,218.4692,372.6925,217.6456,371.9421,216.8952,371.1564,216.1095,370.438,215.3912,369.5,214.4531" style="stroke:#383838;stroke-width:1.0;"/><path d="M222.5,218.4531 L222.5,218.7334 L232.7,217.9007 L242.9,218.7108 L253.1,218.986 L263.3,217.5019 L273.5,218.3495 L283.7,217.8845 L293.9,217.9418 L304.1,218.3622 L314.3,217.5313 L324.5,219.1913 L334.7,217.6128 L344.9,218.1894 L355.1,219.0291 L365.3,218.3388 L375.5,218.4531 " fill="none" style="stroke:#383838;stroke-width:1.0;"/><text fill="#000000" font-family="FG Virgil" font-size="13" lengthAdjust="spacing" textLength="85" x="229.5" y="213.3872">repositories()</text><polygon fill="#383838" points="531.5,243.5859,531.526,243.651,533.4487,244.2577,535.5239,245.2458,537.5495,246.1096,539.4117,246.5651,541.5,247.5859,541.4904,247.5619,539.4472,248.2539,537.4525,249.0672,535.4916,249.9648,533.4144,250.572,531.5,251.5859,531.6305,251.7164,532.1514,250.6374,533.0534,249.9393,534.0018,249.2877,534.6798,248.3657,535.5,247.5859,535.5161,247.602,534.6925,246.7784,533.9421,246.028,533.1564,245.2423,532.438,244.524,531.5,243.5859" style="stroke:#383838;stroke-width:1.0;"/><path d="M391.5,247.5859 L391.5,247.8662 L401.2333,247.0335 L410.9667,247.8437 L420.7,248.1188 L430.4333,246.6347 L440.1667,247.4823 L449.9,247.0173 L459.6333,247.0746 L469.3667,247.4951 L479.1,246.6641 L488.8333,248.3241 L498.5667,246.7456 L508.3,247.3222 L518.0333,248.1619 L527.7667,247.4716 L537.5,247.5859 " fill="none" style="stroke:#383838;stroke-width:1.0;stroke-dasharray:2.0,2.0;"/><text fill="#000000" font-family="FG Virgil" font-size="13" lengthAdjust="spacing" textLength="51" x="398.5" y="242.52">create()</text><polygon fill="#383838" points="402.5,257.5859,402.526,257.651,400.4487,258.2577,398.5239,259.2458,396.5495,260.1096,394.4117,260.5651,392.5,261.5859,392.4904,261.5619,394.4472,262.2539,396.4525,263.0672,398.4916,263.9648,400.4144,264.572,402.5,265.5859,402.6305,265.7164,401.5514,264.6374,400.8534,263.9393,400.2018,263.2877,399.2798,262.3657,398.5,261.5859,398.5161,261.602,399.2925,260.7784,400.1421,260.028,400.9564,259.2423,401.838,258.524,402.5,257.5859" style="stroke:#383838;stroke-width:1.0;"/><path d="M396.5,261.5859 L396.5,261.8662 L406.2333,261.0335 L415.9667,261.8437 L425.7,262.1188 L435.4333,260.6347 L445.1667,261.4823 L454.9,261.0173 L464.6333,261.0746 L474.3667,261.4951 L484.1,260.6641 L493.8333,262.3241 L503.5667,260.7456 L513.3,261.3222 L523.0333,262.1619 L532.7667,261.4716 L542.5,261.5859 " fill="none" style="stroke:#383838;stroke-width:1.0;stroke-dasharray:2.0,2.0;"/><polygon fill="#383838" points="233.5,271.5859,233.526,271.651,231.4487,272.2577,229.5239,273.2458,227.5495,274.1096,225.4117,274.5651,223.5,275.5859,223.4904,275.5619,225.4472,276.2539,227.4525,277.0672,229.4916,277.9648,231.4144,278.572,233.5,279.5859,233.6305,279.7164,232.5514,278.6374,231.8534,277.9393,231.2018,277.2877,230.2798,276.3657,229.5,275.5859,229.5161,275.602,230.2925,274.7784,231.1421,274.028,231.9564,273.2423,232.838,272.524,233.5,271.5859" style="stroke:#383838;stroke-width:1.0;"/><path d="M227.5,275.5859 L227.5,275.8662 L237.375,275.0335 L247.25,275.8437 L257.125,276.1188 L267,274.6347 L276.875,275.4823 L286.75,275.0173 L296.625,275.0746 L306.5,275.4951 L316.375,274.6641 L326.25,276.3241 L336.125,274.7456 L346,275.3222 L355.875,276.1619 L365.75,275.4716 L375.625,275.6769 L385.5,275.5859 " fill="none" style="stroke:#383838;stroke-width:1.0;stroke-dasharray:2.0,2.0;"/><polygon fill="#383838" points="681.5,300.7188,681.526,300.7838,683.4487,301.3905,685.5239,302.3786,687.5495,303.2424,689.4117,303.698,691.5,304.7188,691.4904,304.6947,689.4472,305.3868,687.4525,306.2001,685.4916,307.0977,683.4144,307.7048,681.5,308.7188,681.6305,308.8492,682.1514,307.7702,683.0534,307.0721,684.0018,306.4206,684.6798,305.4985,685.5,304.7188,685.5161,304.7348,684.6925,303.9112,683.9421,303.1608,683.1564,302.3751,682.438,301.6568,681.5,300.7188" style="stroke:#383838;stroke-width:1.0;"/><path d="M548.5,304.7188 L548.5,304.999 L558.4286,304.1663 L568.3571,304.9765 L578.2857,305.2517 L588.2143,303.7676 L598.1429,304.6151 L608.0714,304.1501 L618,304.2074 L627.9286,304.6279 L637.8571,303.7969 L647.7857,305.4569 L657.7143,303.8784 L667.6429,304.4551 L677.5714,305.2947 L687.5,304.7188 " fill="none" style="stroke:#383838;stroke-width:1.0;stroke-dasharray:2.0,2.0;"/><text fill="#000000" font-family="FG Virgil" font-size="13" lengthAdjust="spacing" textLength="51" x="555.5" y="299.6528">create()</text><polygon fill="#383838" points="559.5,314.7188,559.526,314.7838,557.4487,315.3905,555.5239,316.3786,553.5495,317.2424,551.4117,317.698,549.5,318.7188,549.4904,318.6947,551.4472,319.3868,553.4525,320.2001,555.4916,321.0977,557.4144,321.7048,559.5,322.7188,559.6305,322.8492,558.5514,321.7702,557.8534,321.0721,557.2018,320.4206,556.2798,319.4985,555.5,318.7188,555.5161,318.7348,556.2925,317.9112,557.1421,317.1608,557.9564,316.3751,558.838,315.6568,559.5,314.7188" style="stroke:#383838;stroke-width:1.0;"/><path d="M553.5,318.7188 L553.5,318.999 L563.7857,318.1663 L574.0714,318.9765 L584.3571,319.2517 L594.6429,317.7676 L604.9286,318.6151 L615.2143,318.1501 L625.5,318.2074 L635.7857,318.6279 L646.0714,317.7969 L656.3571,319.4569 L666.6429,317.8784 L676.9286,318.4551 L687.2143,319.2947 L697.5,318.7188 " fill="none" style="stroke:#383838;stroke-width:1.0;stroke-dasharray:2.0,2.0;"/><polygon fill="#383838" points="200.5,343.8516,200.526,343.9166,202.4487,344.5233,204.5239,345.5114,206.5495,346.3753,208.4117,346.8308,210.5,347.8516,210.4904,347.8275,208.4472,348.5196,206.4525,349.3329,204.4916,350.2305,202.4144,350.8376,200.5,351.8516,200.6305,351.9821,201.1514,350.903,202.0534,350.2049,203.0018,349.5534,203.6798,348.6313,204.5,347.8516,204.5161,347.8676,203.6925,347.044,202.9421,346.2936,202.1564,345.5079,201.438,344.7896,200.5,343.8516" style="stroke:#383838;stroke-width:1.0;"/><path d="M71,347.8516 L71,348.1318 L80.6786,347.2991 L90.3571,348.1093 L100.0357,348.3845 L109.7143,346.9004 L119.3929,347.7479 L129.0714,347.2829 L138.75,347.3402 L148.4286,347.7607 L158.1071,346.9297 L167.7857,348.5898 L177.4643,347.0112 L187.1429,347.5879 L196.8214,348.4275 L206.5,347.8516 " fill="none" style="stroke:#383838;stroke-width:1.0;"/><text fill="#000000" font-family="FG Virgil" font-size="13" lengthAdjust="spacing" textLength="113" x="78" y="342.7856">registaEquipa(eq)</text><polygon fill="#383838" points="681.5,372.9844,681.526,373.0494,683.4487,373.6561,685.5239,374.6442,687.5495,375.5081,689.4117,375.9636,691.5,376.9844,691.4904,376.9603,689.4472,377.6524,687.4525,378.4657,685.4916,379.3633,683.4144,379.9704,681.5,380.9844,681.6305,381.1149,682.1514,380.0358,683.0534,379.3378,684.0018,378.6862,684.6798,377.7642,685.5,376.9844,685.5161,377.0005,684.6925,376.1768,683.9421,375.4265,683.1564,374.6407,682.438,373.9224,681.5,372.9844" style="stroke:#383838;stroke-width:1.0;"/><path d="M222.5,376.9844 L222.5,377.2646 L232.3936,376.4319 L242.2872,377.2421 L252.1809,377.5173 L262.0745,376.0332 L271.9681,376.8808 L281.8617,376.4157 L291.7553,376.473 L301.6489,376.8935 L311.5426,376.0625 L321.4362,377.7226 L331.3298,376.144 L341.2234,376.7207 L351.117,377.5603 L361.0106,376.87 L370.9043,377.0754 L380.7979,376.9418 L390.6915,377.2224 L400.5851,377.3032 L410.4787,377.7653 L420.3723,377.8791 L430.266,377.8901 L440.1596,377.3239 L450.0532,377.6025 L459.9468,377.9207 L469.8404,376.0228 L479.734,377.8891 L489.6277,376.589 L499.5213,377.6961 L509.4149,376.3243 L519.3085,376.893 L529.2021,377.9732 L539.0957,376.9194 L548.9894,377.1248 L558.883,377.4359 L568.7766,377.5394 L578.6702,376.9792 L588.5638,377.3673 L598.4574,376.2212 L608.3511,377.3636 L618.2447,377.7153 L628.1383,377.5771 L638.0319,377.8017 L647.9255,376.3403 L657.8191,376.1148 L667.7128,376.1558 L677.6064,376.9059 L687.5,376.9844 " fill="none" style="stroke:#383838;stroke-width:1.0;"/><text fill="#000000" font-family="FG Virgil" font-size="13" lengthAdjust="spacing" textLength="113" x="229.5" y="371.9185">registaEquipa(eq)</text><path d="M703.5,406.1172 L703.5,406.2106 L711.9,405.933 L720.3,406.2031 L728.7,406.2948 L737.1,405.8001 L745.5,406.1172 " fill="none" style="stroke:#383838;stroke-width:1.0;"/><path d="M745.5,406.1172 L745.5934,406.1172 L745.3159,408.7172 L745.5859,411.3172 L745.6776,413.9172 L745.1829,416.5172 L745.5,419.1172 " fill="none" style="stroke:#383838;stroke-width:1.0;"/><path d="M704.5,419.1172 L704.5,419.2106 L712.7,418.933 L720.9,419.2031 L729.1,419.2948 L737.3,418.8001 L745.5,419.1172 " fill="none" style="stroke:#383838;stroke-width:1.0;"/><polygon fill="#383838" points="714.5,415.1172,714.526,415.1822,712.4487,415.789,710.5239,416.777,708.5495,417.6409,706.4117,418.0964,704.5,419.1172,704.4904,419.0931,706.4472,419.7852,708.4525,420.5985,710.4916,421.4961,712.4144,422.1032,714.5,423.1172,714.6305,423.2477,713.5514,422.1686,712.8534,421.4706,712.2018,420.819,711.2798,419.897,710.5,419.1172,710.5161,419.1333,711.2925,418.3097,712.1421,417.5593,712.9564,416.7736,713.838,416.0552,714.5,415.1172" style="stroke:#383838;stroke-width:1.0;"/><text fill="#000000" font-family="FG Virgil" font-size="13" lengthAdjust="spacing" textLength="107" x="710.5" y="401.0513">validaEquipa(eq)</text><path d="M703.5,453.25 L703.5,453.3434 L711.9,453.0659 L720.3,453.3359 L728.7,453.4276 L737.1,452.9329 L745.5,453.25 " fill="none" style="stroke:#383838;stroke-width:1.0;"/><path d="M745.5,453.25 L745.5934,453.25 L745.3159,455.85 L745.5859,458.45 L745.6776,461.05 L745.1829,463.65 L745.5,466.25 " fill="none" style="stroke:#383838;stroke-width:1.0;"/><path d="M698.5,466.25 L698.5,466.5302 L707.9,465.6976 L717.3,466.5077 L726.7,466.7829 L736.1,465.2988 L745.5,466.25 " fill="none" style="stroke:#383838;stroke-width:1.0;"/><polygon fill="#383838" points="708.5,462.25,708.526,462.315,706.4487,462.9218,704.5239,463.9098,702.5495,464.7737,700.4117,465.2292,698.5,466.25,698.4904,466.2259,700.4472,466.918,702.4525,467.7313,704.4916,468.6289,706.4144,469.236,708.5,470.25,708.6305,470.3805,707.5514,469.3014,706.8534,468.6034,706.2018,467.9518,705.2798,467.0298,704.5,466.25,704.5161,466.2661,705.2925,465.4425,706.1421,464.6921,706.9564,463.9064,707.838,463.188,708.5,462.25" style="stroke:#383838;stroke-width:1.0;"/><text fill="#000000" font-family="FG Virgil" font-size="13" lengthAdjust="spacing" textLength="93" x="710.5" y="448.1841">addEquipa(eq)</text><!--MD5=[399e2772133472567e662dcf85c2b41c]
@startuml
'http://plantuml.com/skinparam.html
skinparam handwritten true
skinparam monochrome true
skinparam packageStyle rect
skinparam defaultFontName FG Virgil
skinparam shadowing false

participant CriarEquipaUI as UI <<presentation>>
control CriarEquipaController as CTRL <<application>>
participant PersistenceContext as Persistence <<persistence>>
participant RepositoryFactory as Factory <<factory>>
database EquipaRepository as ERepository <<repository>>
entity Equipa as EQ <<entity>>

activate UI

UI -> CTRL : novaEquipa()
activate CTRL

CTRL - -> EQ ** : novaEquipa = create()

CTRL -> Persistence: repositories()
        activate Persistence
            Persistence - -> Factory: create()
            activate Factory
                Factory - -> Persistence:
            
            Persistence - -> CTRL:
        deactivate Persistence

            Factory - -> ERepository : create()
            deactivate Factory
            
        activate ERepository
            ERepository - -> Factory : 
        deactivate ERepository
deactivate CTRL

UI -> CTRL: registaEquipa(eq)
activate CTRL
CTRL -> ERepository: registaEquipa(eq)
activate ERepository

ERepository -> ERepository: validaEquipa(eq)

ERepository -> ERepository: addEquipa(eq)

deactivate ERepository
deactivate CTRL
deactivate UI
@enduml

@startuml
skinparam handwritten true
skinparam monochrome true
skinparam packageStyle rect
skinparam defaultFontName FG Virgil
skinparam shadowing false

participant CriarEquipaUI as UI <<presentation>>
control CriarEquipaController as CTRL <<application>>
participant PersistenceContext as Persistence <<persistence>>
participant RepositoryFactory as Factory <<factory>>
database EquipaRepository as ERepository <<repository>>
entity Equipa as EQ <<entity>>

activate UI

UI -> CTRL : novaEquipa()
activate CTRL

CTRL - -> EQ ** : novaEquipa = create()

CTRL -> Persistence: repositories()
        activate Persistence
            Persistence - -> Factory: create()
            activate Factory
                Factory - -> Persistence:
            
            Persistence - -> CTRL:
        deactivate Persistence

            Factory - -> ERepository : create()
            deactivate Factory
            
        activate ERepository
            ERepository - -> Factory : 
        deactivate ERepository
deactivate CTRL

UI -> CTRL: registaEquipa(eq)
activate CTRL
CTRL -> ERepository: registaEquipa(eq)
activate ERepository

ERepository -> ERepository: validaEquipa(eq)

ERepository -> ERepository: addEquipa(eq)

deactivate ERepository
deactivate CTRL
deactivate UI
@enduml

PlantUML version 1.2021.5(Sun Apr 25 11:20:28 UTC 2021)
(GPL source distribution)
Java Runtime: Java(TM) SE Runtime Environment
JVM: Java HotSpot(TM) 64-Bit Server VM
Default Encoding: UTF-8
Language: en
Country: US
--></g></svg>