<?xml version="1.0" encoding="UTF-8" standalone="no"?><svg xmlns="http://www.w3.org/2000/svg" xmlns:xlink="http://www.w3.org/1999/xlink" contentScriptType="application/ecmascript" contentStyleType="text/css" height="600px" preserveAspectRatio="none" style="width:270px;height:600px;" version="1.1" viewBox="0 0 270 600" width="270px" zoomAndPan="magnify"><defs/><g><!--MD5=[b2fc5e602213dd4a6c2260d65fee8179]
class CriarEquipaUI--><polygon fill="#F8F8F8" points="24.5,7,24.5,7.2102,34.4583,6.5857,44.4167,7.1933,54.375,7.3997,64.3333,6.2866,74.2917,6.9223,84.25,6.5735,94.2083,6.6165,104.1667,6.9318,114.125,6.3086,124.0833,7.5536,134.0417,6.3697,144,6.8022,153.9583,7.4319,163.9167,6.9142,173.875,7.0682,183.8333,6.9681,193.7917,7.1785,203.75,7.2391,213.7083,7.5857,223.6667,7.6711,233.625,7.6793,243.5833,7.2546,253.5417,7.4636,263.5,7,264.2022,7,262.7788,16.5346,264.1785,26.0692,263.2035,35.6038,264.0338,45.1384,263.005,54.673,263.4315,64.2076,263.5,73.7422,263.5,74.4838,253.5417,73.6935,243.5833,73.8475,233.625,74.0808,223.6667,74.1584,213.7083,73.7383,203.75,74.0294,193.7917,73.1698,183.8333,74.0266,173.875,74.2904,163.9167,74.1867,153.9583,74.3552,144,73.2591,134.0417,73.09,124.0833,73.1208,114.125,73.6833,104.1667,73.5457,94.2083,74.4236,84.25,73.5675,74.2917,73.3991,64.3333,73.9705,54.375,73.0753,44.4167,73.2231,34.4583,74.3911,24.5,73.7422,24.9357,73.7422,25.2345,64.2076,24.1782,54.673,24.8192,45.1384,25.0904,35.6038,24.0276,26.0692,24.4041,16.5346,24.5,7" style="stroke:#383838;stroke-width:1.5;"/><polygon fill="#C2C2C2" points="107.8108,28.6444,106.1984,30.8475,104.2912,34.0745,101.5636,36.2491,98.6974,37.4384,96.412,37.5416,93.4747,36.0543,90.7032,35.0827,88.5995,33.1099,87.4961,30.8515,86.8417,29.0533,86.2006,26.7045,85.16,24.6832,85.9596,22.7098,86.6602,20.548,89.2893,18.8382,91.139,16.6198,93.4284,15.8832,96.1501,15.2488,99.6404,15.6257,101.5521,16.5273,103.7747,16.9359,106.4772,19.7047,107.4193,22.6277,107.8286,24.6221,107.365,27.9086" style="stroke:#383838;stroke-width:1.0;"/><path d="M99.0938,21.6406 C98.1563,21.2031 97.5625,21.0625 96.6875,21.0625 C94.0625,21.0625 92.0625,23.1406 92.0625,25.8594 L92.0625,26.9844 C92.0625,29.5625 94.1719,31.4531 97.0625,31.4531 C98.2813,31.4531 99.4375,31.1563 100.1875,30.6094 C100.7656,30.2031 101.0938,29.75 101.0938,29.3594 C101.0938,28.9063 100.7031,28.5156 100.2344,28.5156 C100.0156,28.5156 99.8125,28.5938 99.625,28.7813 C99.1719,29.2656 99.1719,29.2656 98.9844,29.3594 C98.5625,29.625 97.875,29.75 97.1094,29.75 C95.0625,29.75 93.7656,28.6563 93.7656,26.9531 L93.7656,25.8594 C93.7656,24.0781 95.0156,22.7656 96.75,22.7656 C97.3281,22.7656 97.9375,22.9219 98.4063,23.1719 C98.8906,23.4531 99.0625,23.6719 99.1563,24.0781 C99.2188,24.4844 99.25,24.6094 99.3906,24.7344 C99.5313,24.875 99.7656,24.9844 99.9844,24.9844 C100.25,24.9844 100.5156,24.8438 100.6875,24.625 C100.7969,24.4688 100.8281,24.2813 100.8281,23.8594 L100.8281,22.4375 C100.8281,22 100.8125,21.875 100.7188,21.7188 C100.5625,21.4531 100.2813,21.3125 99.9844,21.3125 C99.6875,21.3125 99.4844,21.4063 99.2656,21.7188 L99.0938,21.6406 Z " fill="#000000"/><text fill="#000000" font-family="FG Virgil" font-size="12" font-style="italic" lengthAdjust="spacing" textLength="90" x="115.25" y="23.1387">«presentation»</text><text fill="#000000" font-family="FG Virgil" font-size="12" lengthAdjust="spacing" textLength="80" x="120.25" y="37.1074">CriarEquipaUI</text><path d="M25.5,44.9375 L25.5,45.2177 L35.375,44.3851 L45.25,45.1952 L55.125,45.4704 L65,43.9863 L74.875,44.8339 L84.75,44.3688 L94.625,44.4262 L104.5,44.8466 L114.375,44.0157 L124.25,45.6757 L134.125,44.0971 L144,44.6738 L153.875,45.5134 L163.75,44.8231 L173.625,45.0285 L183.5,44.8949 L193.375,45.1755 L203.25,45.2563 L213.125,45.7184 L223,45.8322 L232.875,45.8432 L242.75,45.277 L252.625,45.5556 L262.5,44.9375 " fill="#F8F8F8" style="stroke:#383838;stroke-width:1.5;"/><path d="M25.5,52.9375 L25.5,53.2177 L35.375,52.3851 L45.25,53.1952 L55.125,53.4704 L65,51.9863 L74.875,52.8339 L84.75,52.3688 L94.625,52.4262 L104.5,52.8466 L114.375,52.0157 L124.25,53.6757 L134.125,52.0971 L144,52.6738 L153.875,53.5134 L163.75,52.8231 L173.625,53.0285 L183.5,52.8949 L193.375,53.1755 L203.25,53.2563 L213.125,53.7184 L223,53.8322 L232.875,53.8432 L242.75,53.277 L252.625,53.5556 L262.5,52.9375 " fill="#F8F8F8" style="stroke:#383838;stroke-width:1.5;"/><text fill="#000000" font-family="FG Virgil" font-size="11" lengthAdjust="spacing" textLength="227" x="30.5" y="67.1479">novaEquipa(nome,listaColab,tipoEquipa)</text><!--MD5=[ce96b3a97af628d6ebe090b2bbef2caa]
class CriarEquipaController--><polygon fill="#F8F8F8" points="39,134,39,134.2102,49,133.5857,59,134.1933,69,134.3997,79,133.2866,89,133.9223,99,133.5735,109,133.6165,119,133.9318,129,133.3086,139,134.5536,149,133.3697,159,133.8022,169,134.4319,179,133.9142,189,134.0682,199,133.9681,209,134.1785,219,134.2391,229,134.5857,239,134.6711,249,134,249.6793,134,249.2546,144.2613,249.4636,154.5226,249.7022,164.7839,248.2788,175.0451,249.6785,185.3064,248.7035,195.5677,249.5338,205.829,248.505,216.0903,249,226.3516,249,226.2831,239,227.0932,229,226.3028,219,226.4569,209,226.6902,199,226.7678,189,226.3477,179,226.6388,169,225.7791,159,226.6359,149,226.8998,139,226.7961,129,226.9646,119,225.8685,109,225.6994,99,225.7302,89,226.2927,79,226.155,69,227.033,59,226.1769,49,226.0085,39,226.3516,39.2283,226.3516,38.3332,216.0903,38.4809,205.829,39.649,195.5677,39.4357,185.3064,39.7345,175.0451,38.6782,164.7839,39.3192,154.5226,39.5904,144.2613,39,134" style="stroke:#383838;stroke-width:1.5;"/><polygon fill="#C2C2C2" points="88.0108,155.6444,86.3984,157.8475,84.4912,161.0745,81.7636,163.2491,78.8974,164.4384,76.612,164.5416,73.6747,163.0543,70.9032,162.0827,68.7995,160.1099,67.6961,157.8515,67.0417,156.0533,66.4006,153.7045,65.36,151.6832,66.1596,149.7098,66.8602,147.548,69.4893,145.8382,71.339,143.6198,73.6284,142.8832,76.3501,142.2488,79.8404,142.6257,81.7521,143.5273,83.9747,143.9359,86.6772,146.7047,87.6193,149.6277,88.0286,151.6221,87.565,154.9086" style="stroke:#383838;stroke-width:1.0;"/><path d="M79.2938,148.6406 C78.3563,148.2031 77.7625,148.0625 76.8875,148.0625 C74.2625,148.0625 72.2625,150.1406 72.2625,152.8594 L72.2625,153.9844 C72.2625,156.5625 74.3719,158.4531 77.2625,158.4531 C78.4813,158.4531 79.6375,158.1563 80.3875,157.6094 C80.9656,157.2031 81.2938,156.75 81.2938,156.3594 C81.2938,155.9063 80.9031,155.5156 80.4344,155.5156 C80.2156,155.5156 80.0125,155.5938 79.825,155.7813 C79.3719,156.2656 79.3719,156.2656 79.1844,156.3594 C78.7625,156.625 78.075,156.75 77.3094,156.75 C75.2625,156.75 73.9656,155.6563 73.9656,153.9531 L73.9656,152.8594 C73.9656,151.0781 75.2156,149.7656 76.95,149.7656 C77.5281,149.7656 78.1375,149.9219 78.6063,150.1719 C79.0906,150.4531 79.2625,150.6719 79.3563,151.0781 C79.4188,151.4844 79.45,151.6094 79.5906,151.7344 C79.7313,151.875 79.9656,151.9844 80.1844,151.9844 C80.45,151.9844 80.7156,151.8438 80.8875,151.625 C80.9969,151.4688 81.0281,151.2813 81.0281,150.8594 L81.0281,149.4375 C81.0281,149 81.0125,148.875 80.9188,148.7188 C80.7625,148.4531 80.4813,148.3125 80.1844,148.3125 C79.8875,148.3125 79.6844,148.4063 79.4656,148.7188 L79.2938,148.6406 Z " fill="#000000"/><text fill="#000000" font-family="FG Virgil" font-size="12" font-style="italic" lengthAdjust="spacing" textLength="80" x="119.55" y="150.1387">«application»</text><text fill="#000000" font-family="FG Virgil" font-size="12" lengthAdjust="spacing" textLength="127" x="96.05" y="164.1074">CriarEquipaController</text><path d="M40,171.9375 L40,172.2177 L49.9048,171.3851 L59.8095,172.1952 L69.7143,172.4704 L79.619,170.9863 L89.5238,171.8339 L99.4286,171.3688 L109.3333,171.4262 L119.2381,171.8466 L129.1429,171.0157 L139.0476,172.6757 L148.9524,171.0971 L158.8571,171.6738 L168.7619,172.5134 L178.6667,171.8231 L188.5714,172.0285 L198.4762,171.8949 L208.381,172.1755 L218.2857,172.2563 L228.1905,172.7184 L238.0952,172.8322 L248,171.9375 " fill="#F8F8F8" style="stroke:#383838;stroke-width:1.5;"/><path d="M40,179.9375 L40,180.2177 L49.9048,179.3851 L59.8095,180.1952 L69.7143,180.4704 L79.619,178.9863 L89.5238,179.8339 L99.4286,179.3688 L109.3333,179.4262 L119.2381,179.8466 L129.1429,179.0157 L139.0476,180.6757 L148.9524,179.0971 L158.8571,179.6738 L168.7619,180.5134 L178.6667,179.8231 L188.5714,180.0285 L198.4762,179.8949 L208.381,180.1755 L218.2857,180.2563 L228.1905,180.7184 L238.0952,180.8322 L248,179.9375 " fill="#F8F8F8" style="stroke:#383838;stroke-width:1.5;"/><text fill="#000000" font-family="FG Virgil" font-size="11" lengthAdjust="spacing" textLength="75" x="45" y="194.1479">repositories()</text><text fill="#000000" font-family="FG Virgil" font-size="11" lengthAdjust="spacing" textLength="198" x="45" y="206.9526">create(nome,listaColab,tipoEquipa)</text><text fill="#000000" font-family="FG Virgil" font-size="11" lengthAdjust="spacing" textLength="102" x="45" y="219.7573">save(novaEquipa)</text><!--MD5=[e8c189551b7885b999ad7cefb30fc2a3]
class PersistenceContext--><polygon fill="#F8F8F8" points="7,286,7,286.2102,16.8667,285.5857,26.7333,286.1933,36.6,286.3997,46.4667,285.2866,56.3333,285.9223,66.2,285.5735,76.0667,285.6165,85.9333,285.9318,95.8,285.3086,105.6667,286.5536,115.5333,285.3697,125.4,285.8022,135.2667,286.4319,145.1333,285.9142,155,286,155.0682,286,154.9681,295.5346,155.1785,305.0692,155.2391,314.6038,155.5857,324.1384,155.6711,333.673,155.6793,343.2076,155,352.7422,155,352.9968,145.1333,353.2058,135.2667,353.4444,125.4,352.021,115.5333,353.4207,105.6667,352.4457,95.8,353.276,85.9333,352.2472,76.0667,352.6737,66.2,353.4838,56.3333,352.6935,46.4667,352.8475,36.6,353.0808,26.7333,353.1584,16.8667,352.7383,7,352.7422,7.2872,352.7422,6.4276,343.2076,7.2844,333.673,7.5482,324.1384,7.4445,314.6038,7.613,305.0692,6.5169,295.5346,7,286" style="stroke:#383838;stroke-width:1.5;"/><polygon fill="#C2C2C2" points="33.0608,307.6444,31.4484,309.8475,29.5412,313.0745,26.8136,315.2491,23.9474,316.4384,21.662,316.5416,18.7247,315.0543,15.9532,314.0827,13.8495,312.1099,12.7461,309.8515,12.0917,308.0533,11.4506,305.7045,10.41,303.6832,11.2096,301.7098,11.9102,299.548,14.5393,297.8382,16.389,295.6198,18.6784,294.8832,21.4001,294.2488,24.8904,294.6257,26.8021,295.5273,29.0247,295.9359,31.7272,298.7047,32.6693,301.6277,33.0786,303.6221,32.615,306.9086" style="stroke:#383838;stroke-width:1.0;"/><path d="M24.3438,300.6406 C23.4063,300.2031 22.8125,300.0625 21.9375,300.0625 C19.3125,300.0625 17.3125,302.1406 17.3125,304.8594 L17.3125,305.9844 C17.3125,308.5625 19.4219,310.4531 22.3125,310.4531 C23.5313,310.4531 24.6875,310.1563 25.4375,309.6094 C26.0156,309.2031 26.3438,308.75 26.3438,308.3594 C26.3438,307.9063 25.9531,307.5156 25.4844,307.5156 C25.2656,307.5156 25.0625,307.5938 24.875,307.7813 C24.4219,308.2656 24.4219,308.2656 24.2344,308.3594 C23.8125,308.625 23.125,308.75 22.3594,308.75 C20.3125,308.75 19.0156,307.6563 19.0156,305.9531 L19.0156,304.8594 C19.0156,303.0781 20.2656,301.7656 22,301.7656 C22.5781,301.7656 23.1875,301.9219 23.6563,302.1719 C24.1406,302.4531 24.3125,302.6719 24.4063,303.0781 C24.4688,303.4844 24.5,303.6094 24.6406,303.7344 C24.7813,303.875 25.0156,303.9844 25.2344,303.9844 C25.5,303.9844 25.7656,303.8438 25.9375,303.625 C26.0469,303.4688 26.0781,303.2813 26.0781,302.8594 L26.0781,301.4375 C26.0781,301 26.0625,300.875 25.9688,300.7188 C25.8125,300.4531 25.5313,300.3125 25.2344,300.3125 C24.9375,300.3125 24.7344,300.4063 24.5156,300.7188 L24.3438,300.6406 Z " fill="#000000"/><text fill="#000000" font-family="FG Virgil" font-size="12" font-style="italic" lengthAdjust="spacing" textLength="83" x="52.5" y="302.1387">«persistence»</text><text fill="#000000" font-family="FG Virgil" font-size="12" lengthAdjust="spacing" textLength="116" x="36" y="316.1074">PersistenceContext</text><path d="M8,323.9375 L8,324.2177 L17.7333,323.3851 L27.4667,324.1952 L37.2,324.4704 L46.9333,322.9863 L56.6667,323.8339 L66.4,323.3688 L76.1333,323.4262 L85.8667,323.8466 L95.6,323.0157 L105.3333,324.6757 L115.0667,323.0971 L124.8,323.6738 L134.5333,324.5134 L144.2667,323.8231 L154,323.9375 " fill="#F8F8F8" style="stroke:#383838;stroke-width:1.5;"/><path d="M8,331.9375 L8,332.2177 L17.7333,331.3851 L27.4667,332.1952 L37.2,332.4704 L46.9333,330.9863 L56.6667,331.8339 L66.4,331.3688 L76.1333,331.4262 L85.8667,331.8466 L95.6,331.0157 L105.3333,332.6757 L115.0667,331.0971 L124.8,331.6738 L134.5333,332.5134 L144.2667,331.8231 L154,331.9375 " fill="#F8F8F8" style="stroke:#383838;stroke-width:1.5;"/><text fill="#000000" font-family="FG Virgil" font-size="11" lengthAdjust="spacing" textLength="45" x="13" y="346.1479">create()</text><!--MD5=[48590afff58a68e2fcba47824d6f8a11]
class RepositoryFactory--><polygon fill="#F8F8F8" points="11,413,11,413.2102,21.1429,412.5857,31.2857,413.1933,41.4286,413.3997,51.5714,412.2866,61.7143,412.9223,71.8571,412.5735,82,412.6165,92.1429,412.9318,102.2857,412.3086,112.4286,413.5536,122.5714,412.3697,132.7143,412.8022,142.8571,413.4319,153,413,152.9142,413,153.0682,422.5346,152.9681,432.0692,153.1785,441.6038,153.2391,451.1384,153.5857,460.673,153.6711,470.2076,153,479.7422,153,480.4214,142.8571,479.9968,132.7143,480.2058,122.5714,480.4444,112.4286,479.021,102.2857,480.4207,92.1429,479.4457,82,480.276,71.8571,479.2472,61.7143,479.6737,51.5714,480.4838,41.4286,479.6935,31.2857,479.8475,21.1429,480.0808,11,479.7422,11.4162,479.7422,10.9961,470.2076,11.2872,460.673,10.4276,451.1384,11.2844,441.6038,11.5482,432.0692,11.4445,422.5346,11,413" style="stroke:#383838;stroke-width:1.5;"/><polygon fill="#C2C2C2" points="37.0608,434.6444,35.4484,436.8475,33.5412,440.0745,30.8136,442.2491,27.9474,443.4384,25.662,443.5416,22.7247,442.0543,19.9532,441.0827,17.8495,439.1099,16.7461,436.8515,16.0917,435.0533,15.4506,432.7045,14.41,430.6832,15.2096,428.7098,15.9102,426.548,18.5393,424.8382,20.389,422.6198,22.6784,421.8832,25.4001,421.2488,28.8904,421.6257,30.8021,422.5273,33.0247,422.9359,35.7272,425.7047,36.6693,428.6277,37.0786,430.6221,36.615,433.9086" style="stroke:#383838;stroke-width:1.0;"/><path d="M28.3438,427.6406 C27.4063,427.2031 26.8125,427.0625 25.9375,427.0625 C23.3125,427.0625 21.3125,429.1406 21.3125,431.8594 L21.3125,432.9844 C21.3125,435.5625 23.4219,437.4531 26.3125,437.4531 C27.5313,437.4531 28.6875,437.1563 29.4375,436.6094 C30.0156,436.2031 30.3438,435.75 30.3438,435.3594 C30.3438,434.9063 29.9531,434.5156 29.4844,434.5156 C29.2656,434.5156 29.0625,434.5938 28.875,434.7813 C28.4219,435.2656 28.4219,435.2656 28.2344,435.3594 C27.8125,435.625 27.125,435.75 26.3594,435.75 C24.3125,435.75 23.0156,434.6563 23.0156,432.9531 L23.0156,431.8594 C23.0156,430.0781 24.2656,428.7656 26,428.7656 C26.5781,428.7656 27.1875,428.9219 27.6563,429.1719 C28.1406,429.4531 28.3125,429.6719 28.4063,430.0781 C28.4688,430.4844 28.5,430.6094 28.6406,430.7344 C28.7813,430.875 29.0156,430.9844 29.2344,430.9844 C29.5,430.9844 29.7656,430.8438 29.9375,430.625 C30.0469,430.4688 30.0781,430.2813 30.0781,429.8594 L30.0781,428.4375 C30.0781,428 30.0625,427.875 29.9688,427.7188 C29.8125,427.4531 29.5313,427.3125 29.2344,427.3125 C28.9375,427.3125 28.7344,427.4063 28.5156,427.7188 L28.3438,427.6406 Z " fill="#000000"/><text fill="#000000" font-family="FG Virgil" font-size="12" font-style="italic" lengthAdjust="spacing" textLength="56" x="67" y="429.1387">«factory»</text><text fill="#000000" font-family="FG Virgil" font-size="12" lengthAdjust="spacing" textLength="110" x="40" y="443.1074">RepositoryFactory</text><path d="M12,450.9375 L12,451.2177 L22,450.3851 L32,451.1952 L42,451.4704 L52,449.9863 L62,450.8339 L72,450.3688 L82,450.4262 L92,450.8466 L102,450.0157 L112,451.6757 L122,450.0971 L132,450.6738 L142,451.5134 L152,450.9375 " fill="#F8F8F8" style="stroke:#383838;stroke-width:1.5;"/><path d="M12,458.9375 L12,459.2177 L22,458.3851 L32,459.1952 L42,459.4704 L52,457.9863 L62,458.8339 L72,458.3688 L82,458.4262 L92,458.8466 L102,458.0157 L112,459.6757 L122,458.0971 L132,458.6738 L142,459.5134 L152,458.9375 " fill="#F8F8F8" style="stroke:#383838;stroke-width:1.5;"/><text fill="#000000" font-family="FG Virgil" font-size="11" lengthAdjust="spacing" textLength="45" x="17" y="473.1479">create()</text><!--MD5=[e3d99162b7328c3f1201e3bd1b8bcde6]
class EquipaRepository--><polygon fill="#F8F8F8" points="76.5,540,76.5,540.2102,86.2857,539.5857,96.0714,540.1933,105.8571,540.3997,115.6429,539.2866,125.4286,539.9223,135.2143,539.5735,145,539.6165,154.7857,539.9318,164.5714,539.3086,174.3571,540.5536,184.1429,539.3697,193.9286,539.8022,203.7143,540.4319,213.5,540,213.4142,540,213.5682,550.7875,213.4681,561.575,213.6785,572.3625,213.7391,583.15,213.5,593.9375,213.5,594.5232,203.7143,594.6086,193.9286,594.6168,184.1429,594.1921,174.3571,594.4011,164.5714,594.6397,154.7857,593.2163,145,594.616,135.2143,593.641,125.4286,594.4713,115.6429,593.4425,105.8571,593.869,96.0714,594.6791,86.2857,593.8888,76.5,593.9375,76.6053,593.9375,76.8386,583.15,76.9162,572.3625,76.4961,561.575,76.7872,550.7875,76.5,540" style="stroke:#383838;stroke-width:1.5;"/><polygon fill="#C2C2C2" points="102.5608,561.6444,100.9484,563.8475,99.0412,567.0745,96.3136,569.2491,93.4474,570.4384,91.162,570.5416,88.2247,569.0543,85.4532,568.0827,83.3495,566.1099,82.2461,563.8515,81.5917,562.0533,80.9506,559.7045,79.91,557.6832,80.7096,555.7098,81.4102,553.548,84.0393,551.8382,85.889,549.6198,88.1784,548.8832,90.9001,548.2488,94.3904,548.6257,96.3021,549.5273,98.5247,549.9359,101.2272,552.7047,102.1693,555.6277,102.5786,557.6221,102.115,560.9086" style="stroke:#383838;stroke-width:1.0;"/><path d="M93.8438,554.6406 C92.9063,554.2031 92.3125,554.0625 91.4375,554.0625 C88.8125,554.0625 86.8125,556.1406 86.8125,558.8594 L86.8125,559.9844 C86.8125,562.5625 88.9219,564.4531 91.8125,564.4531 C93.0313,564.4531 94.1875,564.1563 94.9375,563.6094 C95.5156,563.2031 95.8438,562.75 95.8438,562.3594 C95.8438,561.9063 95.4531,561.5156 94.9844,561.5156 C94.7656,561.5156 94.5625,561.5938 94.375,561.7813 C93.9219,562.2656 93.9219,562.2656 93.7344,562.3594 C93.3125,562.625 92.625,562.75 91.8594,562.75 C89.8125,562.75 88.5156,561.6563 88.5156,559.9531 L88.5156,558.8594 C88.5156,557.0781 89.7656,555.7656 91.5,555.7656 C92.0781,555.7656 92.6875,555.9219 93.1563,556.1719 C93.6406,556.4531 93.8125,556.6719 93.9063,557.0781 C93.9688,557.4844 94,557.6094 94.1406,557.7344 C94.2813,557.875 94.5156,557.9844 94.7344,557.9844 C95,557.9844 95.2656,557.8438 95.4375,557.625 C95.5469,557.4688 95.5781,557.2813 95.5781,556.8594 L95.5781,555.4375 C95.5781,555 95.5625,554.875 95.4688,554.7188 C95.3125,554.4531 95.0313,554.3125 94.7344,554.3125 C94.4375,554.3125 94.2344,554.4063 94.0156,554.7188 L93.8438,554.6406 Z " fill="#000000"/><text fill="#000000" font-family="FG Virgil" font-size="12" font-style="italic" lengthAdjust="spacing" textLength="74" x="121" y="556.1387">«repository»</text><text fill="#000000" font-family="FG Virgil" font-size="12" lengthAdjust="spacing" textLength="105" x="105.5" y="570.1074">EquipaRepository</text><path d="M77.5,577.9375 L77.5,578.2177 L87.1429,577.3851 L96.7857,578.1952 L106.4286,578.4704 L116.0714,576.9863 L125.7143,577.8339 L135.3571,577.3688 L145,577.4262 L154.6429,577.8466 L164.2857,577.0157 L173.9286,578.6757 L183.5714,577.0971 L193.2143,577.6738 L202.8571,578.5134 L212.5,577.9375 " fill="#F8F8F8" style="stroke:#383838;stroke-width:1.5;"/><path d="M77.5,585.9375 L77.5,586.2177 L87.1429,585.3851 L96.7857,586.1952 L106.4286,586.4704 L116.0714,584.9863 L125.7143,585.8339 L135.3571,585.3688 L145,585.4262 L154.6429,585.8466 L164.2857,585.0157 L173.9286,586.6757 L183.5714,585.0971 L193.2143,585.6738 L202.8571,586.5134 L212.5,585.9375 " fill="#F8F8F8" style="stroke:#383838;stroke-width:1.5;"/><!--MD5=[df2642184b5a8c35330a65fd73d5bebf]
link CriarEquipaUI to CriarEquipaController--><path d="M144,74.086 L144.2802,74.086 L143.4476,85.031 L144.2577,95.976 L144.5329,106.921 L143.0488,117.866 L144,128.811 " fill="none" style="stroke:#383838;stroke-width:1.0;"/><polygon fill="#383838" points="144,133.904,144.064,133.9325,144.6738,132.0479,145.6589,130.3302,146.5217,128.5581,146.9827,126.6074,148,124.904,147.9817,124.8857,147.0995,125.6035,146.3096,126.4136,145.5839,127.2879,144.637,127.941,144,128.904,144.1305,129.0345,143.0514,127.9554,142.3534,127.2574,141.7018,126.6058,140.7798,125.6838,140,124.904,140.0208,124.9132,140.7903,126.6997,141.6544,128.5282,142.4728,130.3364,143.3784,132.1833,144,133.904" style="stroke:#383838;stroke-width:1.0;"/><!--MD5=[d3111215554d8369be01ac5161f4d857]
link CriarEquipaController to EquipaRepository--><path d="M159.351,226.183 L159.4409,226.2086 L159.9858,228.9875 L161.0575,231.9163 L161.9577,234.7963 L162.2939,237.5158 L163.4108,240.4575 L163.3773,240.449 L163.9873,243.416 L164.766,246.4257 L165.6621,249.4651 L166.1539,252.4021 L167.212,255.4825 L167.4526,255.534 L167.5947,258.4897 L168.4392,261.5959 L169.3695,264.7204 L169.8011,267.7381 L170.495,270.812 L170.5249,270.817 L170.982,273.8473 L171.5753,276.9001 L172.1029,279.9421 L172.7558,283.0048 L173,286 L173.2974,286.0224 L173.5299,289.0611 L173.5707,292.0853 L173.8922,295.1306 L174.2268,298.177 L174.1445,301.1919 L173.8242,301.1803 L174.524,303.3542 L174.169,305.4898 L174.6159,307.6546 L174.237,309.7894 L174.535,311.9487 L174.5046,311.948 L174.9197,314.439 L174.6237,316.9141 L174.7474,319.3986 L174.9062,321.8838 L174.8109,324.3634 L174.9959,324.3649 L174.8548,330.0545 L175.0298,335.7466 L174.6934,341.4346 L175.1198,347.1287 L175.0391,352.8188 L175.2827,352.8201 L175.2026,359.0285 L175.2434,365.2376 L174.7222,371.4436 L174.613,377.6519 L174.8688,383.8621 L174.5926,383.8574 L174.7368,390.0488 L174.5699,396.2349 L174.8542,402.4287 L174.368,408.6093 L174.3398,414.7977 L174.1874,414.7931 L174.2717,420.4272 L173.7045,426.0416 L173.6006,431.67 L173.95,437.312 L173.4922,442.9298 L173.6856,442.9382 L173.7121,445.3784 L173.1369,447.7924 L173.3154,450.2393 L173.3296,452.679 L172.9613,455.102 L172.7517,455.0901 L172.7996,457.1917 L172.7789,459.2894 L172.8931,461.3947 L172.4829,463.4703 L172.3656,465.5625 L172.5703,465.5818 L171.8475,468.4268 L171.5197,471.3091 L171.7691,474.2461 L170.9559,477.0825 L171,480 L171.2222,480.0422 L170.5529,482.845 L169.8083,485.6335 L169.2335,488.4542 L169.0509,491.3495 L168.3133,494.1393 L168.1841,494.1075 L167.8692,497.043 L166.6758,499.7622 L166.4814,502.7273 L165.7245,505.5539 L164.816,508.3433 L164.9206,508.3736 L164.0403,511.0979 L163.5344,513.9306 L162.6902,516.6654 L161.7046,519.3593 L160.8365,522.0871 L160.9499,522.1239 L159.9547,524.6211 L159.486,527.2888 L158.4219,529.7637 L157.6027,532.3179 L156.703,534.846 " fill="none" style="stroke:#383838;stroke-width:1.0;"/><polygon fill="#383838" points="155.025,539.7139,155.0763,539.7617,156.2669,538.1787,157.758,536.8758,159.1513,535.4817,160.2228,533.7878,161.7398,532.5089,161.7284,532.4856,160.6604,532.8767,159.6497,533.3852,158.6787,533.9753,157.5706,534.2841,156.6545,534.9869,156.8204,535.0677,155.9701,533.8778,155.6041,532.9239,155.2972,531.9988,154.6464,530.9062,154.1765,529.9017,154.1992,529.9036,154.3356,531.8632,154.5752,533.8317,154.765,535.7959,155.0498,537.7683,155.025,539.7139" style="stroke:#383838;stroke-width:1.0;"/><!--MD5=[79bd67021e09c8818cf7c4a583c20881]
link CriarEquipaController to PersistenceContext--><path d="M123.371,226.023 L123.6258,226.1397 L118.6786,234.9381 L115.225,244.4207 L111.2851,253.6805 L105.7457,262.2075 L102.3261,271.7057 L98.2302,280.894 " fill="none" style="stroke:#383838;stroke-width:1.0;"/><polygon fill="#383838" points="96.0801,285.587,96.1264,285.6395,97.4658,284.1803,99.0769,283.029,100.5996,281.7775,101.8312,280.1961,103.4656,279.0713,103.4566,279.047,102.3556,279.3321,101.3,279.7396,100.2761,280.2321,99.1432,280.4314,98.1629,281.0415,98.3359,281.1057,97.572,279.9078,97.3131,278.8974,97.1158,277.91,96.56,276.7894,96.1928,275.7388,96.2155,275.739,96.1596,277.7083,96.2072,279.6788,96.2049,281.6486,96.2979,283.6196,96.0801,285.587" style="stroke:#383838;stroke-width:1.0;"/><!--MD5=[754b775031405e096442b27febffa290]
link PersistenceContext to RepositoryFactory--><path d="M81.2601,353.016 L81.5403,353.0182 L80.7948,363.8928 L81.6919,374.7805 L82.0542,385.6639 L80.6572,396.5332 L81.6954,407.422 " fill="none" style="stroke:#383838;stroke-width:1.0;"/><polygon fill="#383838" points="81.7377,412.713,81.8019,412.7409,82.3966,410.8516,83.3679,409.126,84.2166,407.3471,84.6619,405.3928,85.6656,403.6813,85.6471,403.6631,84.7707,404.3879,83.9873,405.2044,83.2687,406.0845,82.327,406.7451,81.6977,407.7132,81.8271,407.8447,80.744,406.7698,80.0387,406.079,79.3796,405.4351,78.4521,404.5185,77.6658,403.7453,77.6865,403.7547,78.4705,405.5344,79.3488,407.357,80.1815,409.1589,81.1011,411.0002,81.7377,412.713" style="stroke:#383838;stroke-width:1.0;"/><!--MD5=[2778d99b3c12bc11ad4233191bb1c898]
link RepositoryFactory to EquipaRepository--><path d="M99.3818,480.194 L99.6292,480.3256 L103.7622,489.0915 L109.3458,498.6286 L114.4569,507.9146 L118.0147,516.3747 L123.6313,525.9294 L128.591,535.1349 " fill="none" style="stroke:#383838;stroke-width:1.0;"/><polygon fill="#383838" points="131.062,539.7826,131.1319,539.7875,130.7858,537.808,130.8494,535.8573,130.7796,533.8973,130.271,531.9063,130.3698,529.9581,130.345,529.9505,129.903,530.9984,129.5857,532.0845,129.3553,533.1971,128.8258,534.2183,128.7152,535.3676,128.7692,535.544,127.5719,534.8357,126.5321,534.6427,125.5117,534.5125,124.3793,534.0165,123.3058,533.713,123.3198,533.7309,124.8504,534.9185,126.4449,536.1877,128.0086,537.4175,129.6311,538.7224,131.062,539.7826" style="stroke:#383838;stroke-width:1.0;"/><!--MD5=[21bbd89f524e76d806783242407db5e8]
@startuml
'http://plantuml.com/skinparam.html
skinparam handwritten true
skinparam monochrome true
skinparam packageStyle rect
skinparam defaultFontName FG Virgil
skinparam shadowing false

class CriarEquipaUI <<presentation>>
class CriarEquipaController <<application>>
class PersistenceContext <<persistence>>
class RepositoryFactory <<factory>>
class EquipaRepository <<repository>>


CriarEquipaUI - -> CriarEquipaController
CriarEquipaUI : novaEquipa(nome,listaColab,tipoEquipa)

CriarEquipaController : repositories()
CriarEquipaController : create(nome,listaColab,tipoEquipa)
CriarEquipaController : save(novaEquipa)

CriarEquipaController - -> EquipaRepository
CriarEquipaController - -> PersistenceContext
PersistenceContext - -> RepositoryFactory

RepositoryFactory - -> EquipaRepository
RepositoryFactory : create()

PersistenceContext : create()
@enduml

@startuml
skinparam handwritten true
skinparam monochrome true
skinparam packageStyle rect
skinparam defaultFontName FG Virgil
skinparam shadowing false

class CriarEquipaUI <<presentation>>
class CriarEquipaController <<application>>
class PersistenceContext <<persistence>>
class RepositoryFactory <<factory>>
class EquipaRepository <<repository>>


CriarEquipaUI - -> CriarEquipaController
CriarEquipaUI : novaEquipa(nome,listaColab,tipoEquipa)

CriarEquipaController : repositories()
CriarEquipaController : create(nome,listaColab,tipoEquipa)
CriarEquipaController : save(novaEquipa)

CriarEquipaController - -> EquipaRepository
CriarEquipaController - -> PersistenceContext
PersistenceContext - -> RepositoryFactory

RepositoryFactory - -> EquipaRepository
RepositoryFactory : create()

PersistenceContext : create()
@enduml

PlantUML version 1.2021.6beta4(Unknown compile time)
(GPL source distribution)
Java Runtime: Java(TM) SE Runtime Environment
JVM: Java HotSpot(TM) 64-Bit Server VM
Default Encoding: UTF-8
Language: en
Country: US
--></g></svg>