<?xml version="1.0" encoding="UTF-8" standalone="no"?><svg xmlns="http://www.w3.org/2000/svg" xmlns:xlink="http://www.w3.org/1999/xlink" contentScriptType="application/ecmascript" contentStyleType="text/css" height="362px" preserveAspectRatio="none" style="width:286px;height:362px;" version="1.1" viewBox="0 0 286 362" width="286px" zoomAndPan="magnify"><defs><filter height="300%" id="f16dwzrcnzk92i" width="300%" x="-1" y="-1"><feGaussianBlur result="blurOut" stdDeviation="2.0"/><feColorMatrix in="blurOut" result="blurOut2" type="matrix" values="0 0 0 0 0 0 0 0 0 0 0 0 0 0 0 0 0 0 .4 0"/><feOffset dx="4.0" dy="4.0" in="blurOut2" result="blurOut3"/><feBlend in="SourceGraphic" in2="blurOut3" mode="normal"/></filter></defs><g><!--MD5=[d34c3374e9f1ea92600999ba19e06c1c]
class Equipa--><rect codeLine="3" fill="#FEFECE" filter="url(#f16dwzrcnzk92i)" height="60.8047" id="Equipa" style="stroke:#A80036;stroke-width:1.5;" width="72" x="7" y="281.5"/><ellipse cx="22" cy="297.5" fill="#ADD1B2" rx="11" ry="11" style="stroke:#A80036;stroke-width:1.0;"/><path d="M24.3438,293.1719 C23.4063,292.7344 22.8125,292.5938 21.9375,292.5938 C19.3125,292.5938 17.3125,294.6719 17.3125,297.3906 L17.3125,298.5156 C17.3125,301.0938 19.4219,302.9844 22.3125,302.9844 C23.5313,302.9844 24.6875,302.6875 25.4375,302.1406 C26.0156,301.7344 26.3438,301.2813 26.3438,300.8906 C26.3438,300.4375 25.9531,300.0469 25.4844,300.0469 C25.2656,300.0469 25.0625,300.125 24.875,300.3125 C24.4219,300.7969 24.4219,300.7969 24.2344,300.8906 C23.8125,301.1563 23.125,301.2813 22.3594,301.2813 C20.3125,301.2813 19.0156,300.1875 19.0156,298.4844 L19.0156,297.3906 C19.0156,295.6094 20.2656,294.2969 22,294.2969 C22.5781,294.2969 23.1875,294.4531 23.6563,294.7031 C24.1406,294.9844 24.3125,295.2031 24.4063,295.6094 C24.4688,296.0156 24.5,296.1406 24.6406,296.2656 C24.7813,296.4063 25.0156,296.5156 25.2344,296.5156 C25.5,296.5156 25.7656,296.375 25.9375,296.1563 C26.0469,296 26.0781,295.8125 26.0781,295.3906 L26.0781,293.9688 C26.0781,293.5313 26.0625,293.4063 25.9688,293.25 C25.8125,292.9844 25.5313,292.8438 25.2344,292.8438 C24.9375,292.8438 24.7344,292.9375 24.5156,293.25 L24.3438,293.1719 Z " fill="#000000"/><text fill="#000000" font-family="sans-serif" font-size="12" lengthAdjust="spacing" textLength="40" x="36" y="301.6543">Equipa</text><line style="stroke:#A80036;stroke-width:1.5;" x1="8" x2="78" y1="313.5" y2="313.5"/><line style="stroke:#A80036;stroke-width:1.5;" x1="8" x2="78" y1="321.5" y2="321.5"/><text fill="#000000" font-family="sans-serif" font-size="11" lengthAdjust="spacing" textLength="55" x="13" y="335.7104">+Equipa()</text><!--MD5=[e3d99162b7328c3f1201e3bd1b8bcde6]
class EquipaRepository--><rect codeLine="7" fill="#FEFECE" filter="url(#f16dwzrcnzk92i)" height="73.6094" id="EquipaRepository" style="stroke:#A80036;stroke-width:1.5;" width="158" x="114" y="275"/><ellipse cx="138.45" cy="291" fill="#ADD1B2" rx="11" ry="11" style="stroke:#A80036;stroke-width:1.0;"/><path d="M140.7938,286.6719 C139.8563,286.2344 139.2625,286.0938 138.3875,286.0938 C135.7625,286.0938 133.7625,288.1719 133.7625,290.8906 L133.7625,292.0156 C133.7625,294.5938 135.8719,296.4844 138.7625,296.4844 C139.9813,296.4844 141.1375,296.1875 141.8875,295.6406 C142.4656,295.2344 142.7938,294.7813 142.7938,294.3906 C142.7938,293.9375 142.4031,293.5469 141.9344,293.5469 C141.7156,293.5469 141.5125,293.625 141.325,293.8125 C140.8719,294.2969 140.8719,294.2969 140.6844,294.3906 C140.2625,294.6563 139.575,294.7813 138.8094,294.7813 C136.7625,294.7813 135.4656,293.6875 135.4656,291.9844 L135.4656,290.8906 C135.4656,289.1094 136.7156,287.7969 138.45,287.7969 C139.0281,287.7969 139.6375,287.9531 140.1063,288.2031 C140.5906,288.4844 140.7625,288.7031 140.8563,289.1094 C140.9188,289.5156 140.95,289.6406 141.0906,289.7656 C141.2313,289.9063 141.4656,290.0156 141.6844,290.0156 C141.95,290.0156 142.2156,289.875 142.3875,289.6563 C142.4969,289.5 142.5281,289.3125 142.5281,288.8906 L142.5281,287.4688 C142.5281,287.0313 142.5125,286.9063 142.4188,286.75 C142.2625,286.4844 141.9813,286.3438 141.6844,286.3438 C141.3875,286.3438 141.1844,286.4375 140.9656,286.75 L140.7938,286.6719 Z " fill="#000000"/><text fill="#000000" font-family="sans-serif" font-size="12" lengthAdjust="spacing" textLength="105" x="154.55" y="295.1543">EquipaRepository</text><line style="stroke:#A80036;stroke-width:1.5;" x1="115" x2="271" y1="307" y2="307"/><line style="stroke:#A80036;stroke-width:1.5;" x1="115" x2="271" y1="315" y2="315"/><text fill="#000000" font-family="sans-serif" font-size="11" lengthAdjust="spacing" textLength="146" x="120" y="329.2104">+validaEquipa(Equipa eq)</text><text fill="#000000" font-family="sans-serif" font-size="11" lengthAdjust="spacing" textLength="128" x="120" y="342.0151">-addEquipa(Equipa eq)</text><!--MD5=[ce96b3a97af628d6ebe090b2bbef2caa]
class CriarEquipaController--><rect codeLine="12" fill="#FEFECE" filter="url(#f16dwzrcnzk92i)" height="73.6094" id="CriarEquipaController" style="stroke:#A80036;stroke-width:1.5;" width="159" x="96.5" y="141"/><ellipse cx="111.5" cy="157" fill="#ADD1B2" rx="11" ry="11" style="stroke:#A80036;stroke-width:1.0;"/><path d="M113.8438,152.6719 C112.9063,152.2344 112.3125,152.0938 111.4375,152.0938 C108.8125,152.0938 106.8125,154.1719 106.8125,156.8906 L106.8125,158.0156 C106.8125,160.5938 108.9219,162.4844 111.8125,162.4844 C113.0313,162.4844 114.1875,162.1875 114.9375,161.6406 C115.5156,161.2344 115.8438,160.7813 115.8438,160.3906 C115.8438,159.9375 115.4531,159.5469 114.9844,159.5469 C114.7656,159.5469 114.5625,159.625 114.375,159.8125 C113.9219,160.2969 113.9219,160.2969 113.7344,160.3906 C113.3125,160.6563 112.625,160.7813 111.8594,160.7813 C109.8125,160.7813 108.5156,159.6875 108.5156,157.9844 L108.5156,156.8906 C108.5156,155.1094 109.7656,153.7969 111.5,153.7969 C112.0781,153.7969 112.6875,153.9531 113.1563,154.2031 C113.6406,154.4844 113.8125,154.7031 113.9063,155.1094 C113.9688,155.5156 114,155.6406 114.1406,155.7656 C114.2813,155.9063 114.5156,156.0156 114.7344,156.0156 C115,156.0156 115.2656,155.875 115.4375,155.6563 C115.5469,155.5 115.5781,155.3125 115.5781,154.8906 L115.5781,153.4688 C115.5781,153.0313 115.5625,152.9063 115.4688,152.75 C115.3125,152.4844 115.0313,152.3438 114.7344,152.3438 C114.4375,152.3438 114.2344,152.4375 114.0156,152.75 L113.8438,152.6719 Z " fill="#000000"/><text fill="#000000" font-family="sans-serif" font-size="12" lengthAdjust="spacing" textLength="127" x="125.5" y="161.1543">CriarEquipaController</text><line style="stroke:#A80036;stroke-width:1.5;" x1="97.5" x2="254.5" y1="173" y2="173"/><line style="stroke:#A80036;stroke-width:1.5;" x1="97.5" x2="254.5" y1="181" y2="181"/><text fill="#000000" font-family="sans-serif" font-size="11" lengthAdjust="spacing" textLength="54" x="102.5" y="195.2104">+create()</text><text fill="#000000" font-family="sans-serif" font-size="11" lengthAdjust="spacing" textLength="109" x="102.5" y="208.0151">+registaEquipa(eq)</text><!--MD5=[b2fc5e602213dd4a6c2260d65fee8179]
class CriarEquipaUI--><rect codeLine="17" fill="#FEFECE" filter="url(#f16dwzrcnzk92i)" height="73.6094" id="CriarEquipaUI" style="stroke:#A80036;stroke-width:1.5;" width="121" x="48.5" y="7"/><ellipse cx="67.55" cy="23" fill="#ADD1B2" rx="11" ry="11" style="stroke:#A80036;stroke-width:1.0;"/><path d="M69.8938,18.6719 C68.9563,18.2344 68.3625,18.0938 67.4875,18.0938 C64.8625,18.0938 62.8625,20.1719 62.8625,22.8906 L62.8625,24.0156 C62.8625,26.5938 64.9719,28.4844 67.8625,28.4844 C69.0813,28.4844 70.2375,28.1875 70.9875,27.6406 C71.5656,27.2344 71.8938,26.7813 71.8938,26.3906 C71.8938,25.9375 71.5031,25.5469 71.0344,25.5469 C70.8156,25.5469 70.6125,25.625 70.425,25.8125 C69.9719,26.2969 69.9719,26.2969 69.7844,26.3906 C69.3625,26.6563 68.675,26.7813 67.9094,26.7813 C65.8625,26.7813 64.5656,25.6875 64.5656,23.9844 L64.5656,22.8906 C64.5656,21.1094 65.8156,19.7969 67.55,19.7969 C68.1281,19.7969 68.7375,19.9531 69.2063,20.2031 C69.6906,20.4844 69.8625,20.7031 69.9563,21.1094 C70.0188,21.5156 70.05,21.6406 70.1906,21.7656 C70.3313,21.9063 70.5656,22.0156 70.7844,22.0156 C71.05,22.0156 71.3156,21.875 71.4875,21.6563 C71.5969,21.5 71.6281,21.3125 71.6281,20.8906 L71.6281,19.4688 C71.6281,19.0313 71.6125,18.9063 71.5188,18.75 C71.3625,18.4844 71.0813,18.3438 70.7844,18.3438 C70.4875,18.3438 70.2844,18.4375 70.0656,18.75 L69.8938,18.6719 Z " fill="#000000"/><text fill="#000000" font-family="sans-serif" font-size="12" lengthAdjust="spacing" textLength="80" x="82.45" y="27.1543">CriarEquipaUI</text><line style="stroke:#A80036;stroke-width:1.5;" x1="49.5" x2="168.5" y1="39" y2="39"/><line style="stroke:#A80036;stroke-width:1.5;" x1="49.5" x2="168.5" y1="47" y2="47"/><text fill="#000000" font-family="sans-serif" font-size="11" lengthAdjust="spacing" textLength="83" x="54.5" y="61.2104">+novaEquipa()</text><text fill="#000000" font-family="sans-serif" font-size="11" lengthAdjust="spacing" textLength="109" x="54.5" y="74.0151">+registaEquipa(eq)</text><!--MD5=[df2642184b5a8c35330a65fd73d5bebf]
link CriarEquipaUI to CriarEquipaController--><path codeLine="22" d="M127.308,81.07 C135.949,98.094 146.302,118.49 155.235,136.089 " fill="none" id="CriarEquipaUI-to-CriarEquipaController" style="stroke:#A80036;stroke-width:1.0;"/><polygon fill="#A80036" points="157.714,140.974,157.2052,131.1383,155.45,136.516,150.0723,134.7607,157.714,140.974" style="stroke:#A80036;stroke-width:1.0;"/><!--MD5=[d3111215554d8369be01ac5161f4d857]
link CriarEquipaController to EquipaRepository--><path codeLine="23" d="M180.645,215.07 C182.819,231.949 185.42,252.1417 187.673,269.6375 " fill="none" id="CriarEquipaController-to-EquipaRepository" style="stroke:#A80036;stroke-width:1.0;"/><polygon fill="#A80036" points="188.36,274.974,191.1774,265.5367,187.7212,270.015,183.243,266.5588,188.36,274.974" style="stroke:#A80036;stroke-width:1.0;"/><!--MD5=[5623a528ead61961fc472a83e75226dc]
link CriarEquipaController to Equipa--><path codeLine="24" d="M139.657,215.07 C120.045,234.535 95.9922,258.4063 76.7872,277.4668 " fill="none" id="CriarEquipaController-to-Equipa" style="stroke:#A80036;stroke-width:1.0;"/><polygon fill="#A80036" points="73.0136,281.212,82.2192,277.711,76.5624,277.6898,76.5837,272.033,73.0136,281.212" style="stroke:#A80036;stroke-width:1.0;"/><!--MD5=[ce7925c7edc7cd431b7d03b1b4807216]
link CriarEquipaUI to Equipa--><path codeLine="25" d="M96.7903,81.236 C90.9942,99.112 84.213,121.066 79,141 C66.8509,187.457 55.8923,241.864 49.3405,276.3751 " fill="none" id="CriarEquipaUI-to-Equipa" style="stroke:#A80036;stroke-width:1.0;stroke-dasharray:7.0,7.0;"/><polygon fill="#A80036" points="48.4062,281.3191,54.008,273.2185,49.3348,276.4061,46.1472,271.7328,48.4062,281.3191" style="stroke:#A80036;stroke-width:1.0;"/><!--MD5=[e44206197f7783b5f502eb28a392d56a]
@startuml
skinparam classAttributeIconSize 0

class Equipa {
  +Equipa()
}

class EquipaRepository {
  +validaEquipa(Equipa eq)
  -addEquipa(Equipa eq)
}

class CriarEquipaController {
    +create()
    +registaEquipa(eq)
}

class CriarEquipaUI {
    +novaEquipa()
    +registaEquipa(eq)
}

CriarEquipaUI - -> CriarEquipaController
CriarEquipaController - -> EquipaRepository
CriarEquipaController - -> Equipa
CriarEquipaUI ..> Equipa
@enduml

PlantUML version 1.2021.5(Sun Apr 25 11:20:28 UTC 2021)
(GPL source distribution)
Java Runtime: Java(TM) SE Runtime Environment
JVM: Java HotSpot(TM) 64-Bit Server VM
Default Encoding: UTF-8
Language: en
Country: US
--></g></svg>