<?xml version="1.0" encoding="UTF-8" standalone="no"?><svg xmlns="http://www.w3.org/2000/svg" xmlns:xlink="http://www.w3.org/1999/xlink" contentScriptType="application/ecmascript" contentStyleType="text/css" height="480px" preserveAspectRatio="none" style="width:984px;height:480px;" version="1.1" viewBox="0 0 984 480" width="984px" zoomAndPan="magnify"><defs/><g><polygon fill="#FFFFFF" points="61,93.5938,61,93.6638,63,93.4556,65,93.6582,67,93.727,69,93.356,71,93.5938,70.9223,93.5938,70.5735,103.7458,70.6165,113.8979,70.9318,124.0499,70.3086,134.202,71.5536,144.3541,70.3697,154.5061,70.8022,164.6582,71.4319,174.8103,70.9142,184.9623,71.0682,195.1144,70.9681,205.2665,71.1785,215.4185,71.2391,225.5706,71.5857,235.7227,71.6711,245.8747,71.6793,256.0268,71.2546,266.1789,71.4636,276.3309,71.7022,286.483,70.2788,296.635,71.6785,306.7871,70.7035,316.9392,71.5338,327.0912,70.505,337.2433,70.9315,347.3954,71.7416,357.5474,70.9513,367.6995,71,377.8516,71,377.8867,69,377.9644,67,377.9903,65,377.8503,63,377.9473,61,377.8516,60.4276,377.8516,61.2844,367.6995,61.5482,357.5474,61.4445,347.3954,61.613,337.2433,60.5169,327.0912,60.3478,316.9392,60.3786,306.7871,60.9411,296.635,60.8035,286.483,61.6814,276.3309,60.8253,266.1789,60.6569,256.0268,61.2283,245.8747,60.3332,235.7227,60.4809,225.5706,61.649,215.4185,61.4357,205.2665,61.7345,195.1144,60.6782,184.9623,61.3192,174.8103,61.5904,164.6582,60.5276,154.5061,60.9041,144.3541,61.126,134.202,61.6518,124.0499,60.9958,113.8979,61.4626,103.7458,61,93.5938" style="stroke:#383838;stroke-width:1.0;"/><polygon fill="#FFFFFF" points="357,114.7266,357,114.7966,359,114.5885,361,114.791,363,114.8598,365,114.4888,367,114.7266,366.9223,114.7266,366.5735,124.8468,366.6165,134.9669,366.9318,145.0871,366.3086,155.2073,367.5536,165.3275,366.3697,175.4477,366.8022,185.5679,367.4319,195.6881,366.9142,205.8083,367.0682,215.9285,366.9681,226.0487,367.1785,236.1689,367.2391,246.2891,367.5857,256.4093,367.6711,266.5294,367.6793,276.6496,367.2546,286.7698,367.4636,296.89,367.7022,307.0102,366.2788,317.1304,367.6785,327.2506,366.7035,337.3708,367.5338,347.491,366.505,357.6112,366.9315,367.7314,367,377.8516,367,378.0988,365,377.8353,363,377.8867,361,377.9644,359,377.9903,357,377.8516,356.9961,377.8516,357.2872,367.7314,356.4276,357.6112,357.2844,347.491,357.5482,337.3708,357.4445,327.2506,357.613,317.1304,356.5169,307.0102,356.3478,296.89,356.3786,286.7698,356.9411,276.6496,356.8035,266.5294,357.6814,256.4093,356.8253,246.2891,356.6569,236.1689,357.2283,226.0487,356.3332,215.9285,356.4809,205.8083,357.649,195.6881,357.4357,185.5679,357.7345,175.4477,356.6782,165.3275,357.3192,155.2073,357.5904,145.0871,356.5276,134.9669,356.9041,124.8468,357,114.7266" style="stroke:#383838;stroke-width:1.0;"/><polygon fill="#FFFFFF" points="526,143.8594,526,143.9294,528,143.7213,530,143.9238,532,143.9926,534,143.6216,536,143.8594,535.9223,143.8594,535.5735,153.3815,535.6165,162.9036,535.9318,172.4258,535.3086,181.9479,536.5536,191.4701,536,200.9922,536,200.7821,534,200.9263,532,201.1362,530,200.9636,528,201.0149,526,200.9922,525.9681,200.9922,526.1785,191.4701,526.2391,181.9479,526.5857,172.4258,526.6711,162.9036,526.6793,153.3815,526,143.8594" style="stroke:#383838;stroke-width:1.0;"/><polygon fill="#FFFFFF" points="688,172.9922,688,173.0622,690,172.8541,692,173.0566,694,173.1254,696,172.7544,698,172.9922,697.9223,172.9922,697.5735,182.5143,697.6165,192.0365,697.9318,201.5586,697.3086,211.0807,698.5536,220.6029,698,230.125,698,229.9149,696,230.0591,694,230.269,692,230.0964,690,230.1477,688,230.125,687.9681,230.125,688.1785,220.6029,688.2391,211.0807,688.5857,201.5586,688.6711,192.0365,688.6793,182.5143,688,172.9922" style="stroke:#383838;stroke-width:1.0;"/><polygon fill="#FFFFFF" points="838,230.125,838,230.1951,840,229.9869,842,230.1894,844,230.2582,846,229.8872,848,230.125,847.9741,230.125,847.8578,232.925,847.8722,235.725,847.9773,238.525,847.7695,241.325,848,244.125,848,244.3095,846,243.9149,844,244.0591,842,244.269,840,244.0964,838,244.125,838.0227,244.125,837.9894,241.325,838.0595,238.525,838.0797,235.725,838.1952,232.925,838,230.125" style="stroke:#383838;stroke-width:1.0;"/><polygon fill="#FFFFFF" points="838,347.8516,838,347.9216,840,347.7135,842,347.916,844,347.9848,846,347.6138,848,347.8516,847.9741,347.8516,847.8578,353.8516,847.8722,359.8516,847.9773,365.8516,847.7695,371.8516,848,377.8516,848,378.0361,846,377.6415,844,377.7856,842,377.9955,840,377.823,838,377.8516,838.0227,377.8516,837.9894,371.8516,838.0595,365.8516,838.0797,359.8516,838.1952,353.8516,838,347.8516" style="stroke:#383838;stroke-width:1.0;"/><path d="M66,83.5938 L66.2802,83.5938 L65.4476,93.6666 L66.2577,103.7394 L66.5329,113.8122 L65.0488,123.8851 L65.8964,133.9579 L65.4313,144.0307 L65.4887,154.1036 L65.9091,164.1764 L65.0782,174.2492 L66.7382,184.3221 L65.1596,194.3949 L65.7363,204.4677 L66.5759,214.5406 L65.8856,224.6134 L66.091,234.6862 L65.9574,244.7591 L66.238,254.8319 L66.3188,264.9047 L66.7809,274.9776 L66.8947,285.0504 L66.9057,295.1232 L66.3395,305.1961 L66.6181,315.2689 L66.9363,325.3417 L65.0384,335.4146 L66.9047,345.4874 L65.6047,355.5602 L66.7117,365.6331 L65.34,375.7059 L65.9087,385.7787 L66,395.8516 " fill="none" style="stroke:#383838;stroke-width:1.0;stroke-dasharray:5.0,5.0;"/><path d="M361.5,83.5938 L361.7802,83.5938 L360.9476,93.6666 L361.7577,103.7394 L362.0329,113.8122 L360.5488,123.8851 L361.3964,133.9579 L360.9313,144.0307 L360.9887,154.1036 L361.4091,164.1764 L360.5782,174.2492 L362.2382,184.3221 L360.6596,194.3949 L361.2363,204.4677 L362.0759,214.5406 L361.3856,224.6134 L361.591,234.6862 L361.4574,244.7591 L361.738,254.8319 L361.8188,264.9047 L362.2809,274.9776 L362.3947,285.0504 L362.4057,295.1232 L361.8395,305.1961 L362.1181,315.2689 L362.4363,325.3417 L360.5384,335.4146 L362.4047,345.4874 L361.1047,355.5602 L362.2117,365.6331 L360.84,375.7059 L361.4087,385.7787 L361.5,395.8516 " fill="none" style="stroke:#383838;stroke-width:1.0;stroke-dasharray:5.0,5.0;"/><path d="M530.5,83.5938 L530.7802,83.5938 L529.9476,93.6666 L530.7577,103.7394 L531.0329,113.8122 L529.5488,123.8851 L530.3964,133.9579 L529.9313,144.0307 L529.9887,154.1036 L530.4091,164.1764 L529.5782,174.2492 L531.2382,184.3221 L529.6596,194.3949 L530.2363,204.4677 L531.0759,214.5406 L530.3856,224.6134 L530.591,234.6862 L530.4574,244.7591 L530.738,254.8319 L530.8188,264.9047 L531.2809,274.9776 L531.3947,285.0504 L531.4057,295.1232 L530.8395,305.1961 L531.1181,315.2689 L531.4363,325.3417 L529.5384,335.4146 L531.4047,345.4874 L530.1047,355.5602 L531.2117,365.6331 L529.84,375.7059 L530.4087,385.7787 L530.5,395.8516 " fill="none" style="stroke:#383838;stroke-width:1.0;stroke-dasharray:5.0,5.0;"/><path d="M692.5,83.5938 L692.7802,83.5938 L691.9476,93.6666 L692.7577,103.7394 L693.0329,113.8122 L691.5488,123.8851 L692.3964,133.9579 L691.9313,144.0307 L691.9887,154.1036 L692.4091,164.1764 L691.5782,174.2492 L693.2382,184.3221 L691.6596,194.3949 L692.2363,204.4677 L693.0759,214.5406 L692.3856,224.6134 L692.591,234.6862 L692.4574,244.7591 L692.738,254.8319 L692.8188,264.9047 L693.2809,274.9776 L693.3947,285.0504 L693.4057,295.1232 L692.8395,305.1961 L693.1181,315.2689 L693.4363,325.3417 L691.5384,335.4146 L693.4047,345.4874 L692.1047,355.5602 L693.2117,365.6331 L691.84,375.7059 L692.4087,385.7787 L692.5,395.8516 " fill="none" style="stroke:#383838;stroke-width:1.0;stroke-dasharray:5.0,5.0;"/><path d="M842.5,83.5938 L842.7802,83.5938 L841.9476,93.6666 L842.7577,103.7394 L843.0329,113.8122 L841.5488,123.8851 L842.3964,133.9579 L841.9313,144.0307 L841.9887,154.1036 L842.4091,164.1764 L841.5782,174.2492 L843.2382,184.3221 L841.6596,194.3949 L842.2363,204.4677 L843.0759,214.5406 L842.3856,224.6134 L842.591,234.6862 L842.4574,244.7591 L842.738,254.8319 L842.8188,264.9047 L843.2809,274.9776 L843.3947,285.0504 L843.4057,295.1232 L842.8395,305.1961 L843.1181,315.2689 L843.4363,325.3417 L841.5384,335.4146 L843.4047,345.4874 L842.1047,355.5602 L843.2117,365.6331 L841.84,375.7059 L842.4087,385.7787 L842.5,395.8516 " fill="none" style="stroke:#383838;stroke-width:1.0;stroke-dasharray:5.0,5.0;"/><path d="M951.5,299.4219 L951.7802,299.4219 L950.9476,309.0648 L951.7577,318.7078 L952.0329,328.3508 L950.5488,337.9938 L951.3964,347.6367 L950.9313,357.2797 L950.9887,366.9227 L951.4091,376.5656 L950.5782,386.2086 L951.5,395.8516 " fill="none" style="stroke:#383838;stroke-width:1.0;stroke-dasharray:5.0,5.0;"/><polygon fill="#F8F8F8" points="5,36,5,36.2102,15.1667,35.5857,25.3333,36.1933,35.5,36.3997,45.6667,35.2866,55.8333,35.9223,66,35.5735,76.1667,35.6165,86.3333,35.9318,96.5,35.3086,106.6667,36.5536,116.8333,35.3697,127,36,126.8022,36,127.4319,45.3188,126.9142,54.6375,127.0682,63.9563,126.9681,73.275,127,82.5938,127,82.7723,116.8333,82.8329,106.6667,83.1794,96.5,83.2648,86.3333,83.273,76.1667,82.8484,66,83.0573,55.8333,83.296,45.6667,81.8726,35.5,83.2723,25.3333,82.2972,15.1667,83.1276,5,82.5938,4.505,82.5938,4.9315,73.275,5.7416,63.9563,4.9513,54.6375,5.1053,45.3188,5,36" style="stroke:#383838;stroke-width:1.5;"/><text fill="#000000" font-family="FG Virgil" font-size="14" font-style="italic" lengthAdjust="spacing" textLength="108" x="12" y="55.9951">«presentation»</text><text fill="#000000" font-family="FG Virgil" font-size="14" lengthAdjust="spacing" textLength="95" x="18.5" y="72.292">CriarEquipaUI</text><polygon fill="#F8F8F8" points="5,394.8516,5,395.0617,15.1667,394.4372,25.3333,395.0448,35.5,395.2512,45.6667,394.1382,55.8333,394.7738,66,394.4251,76.1667,394.4681,86.3333,394.7834,96.5,394.1602,106.6667,395.4052,116.8333,394.2213,127,394.8516,126.8022,394.8516,127.4319,404.1703,126.9142,413.4891,127.0682,422.8078,126.9681,432.1266,127,441.4453,127,441.6238,116.8333,441.6844,106.6667,442.031,96.5,442.1164,86.3333,442.1246,76.1667,441.6999,66,441.9089,55.8333,442.1475,45.6667,440.7241,35.5,442.1238,25.3333,441.1488,15.1667,441.9791,5,441.4453,4.505,441.4453,4.9315,432.1266,5.7416,422.8078,4.9513,413.4891,5.1053,404.1703,5,394.8516" style="stroke:#383838;stroke-width:1.5;"/><text fill="#000000" font-family="FG Virgil" font-size="14" font-style="italic" lengthAdjust="spacing" textLength="108" x="12" y="414.8467">«presentation»</text><text fill="#000000" font-family="FG Virgil" font-size="14" lengthAdjust="spacing" textLength="95" x="18.5" y="431.1436">CriarEquipaUI</text><text fill="#000000" font-family="FG Virgil" font-size="14" font-style="italic" lengthAdjust="spacing" textLength="97" x="310.5" y="63.9951">«application»</text><text fill="#000000" font-family="FG Virgil" font-size="14" lengthAdjust="spacing" textLength="155" x="281.5" y="80.292">CriarEquipaController</text><polygon fill="#F8F8F8" points="374.0663,37.9189,372.3073,40.3223,370.2268,43.8426,367.2512,46.215,364.1244,47.5123,361.6313,47.6249,358.4269,46.0024,355.4035,44.9425,353.1086,42.7904,351.9048,40.3267,351.1909,38.3649,350.4915,35.8026,349.3564,33.5976,350.2287,31.4447,350.9929,29.0864,353.8611,27.2212,355.8789,24.8012,358.3764,23.9976,361.3456,23.3055,365.1532,23.7167,367.2386,24.7002,369.6633,25.146,372.6115,28.1665,373.6392,31.3552,374.0857,33.5309,373.58,37.1162" style="stroke:#383838;stroke-width:2.0;"/><polygon fill="#383838" points="358,23,358.0449,23.0538,359.1116,21.8939,360.4412,21.0495,361.6853,20.1023,362.6478,18.8173,364,18,363.9759,17.9904,363.468,18.9472,363.0813,19.9525,362.7789,20.9916,362.186,21.9144,362,23,362.1713,23.0685,362.2049,23.922,362.7388,24.9755,363.3337,26.0535,363.5735,26.9894,364,28,364.0146,28.0175,362.7932,26.9918,361.6381,26.0457,360.451,25.0612,359.325,24.15,358,23" style="stroke:#383838;stroke-width:1.0;"/><text fill="#000000" font-family="FG Virgil" font-size="14" font-style="italic" lengthAdjust="spacing" textLength="97" x="310.5" y="407.8467">«application»</text><text fill="#000000" font-family="FG Virgil" font-size="14" lengthAdjust="spacing" textLength="155" x="281.5" y="424.1436">CriarEquipaController</text><polygon fill="#F8F8F8" points="374.0663,446.3642,372.3073,448.7676,370.2268,452.2879,367.2512,454.6603,364.1244,455.9576,361.6313,456.0702,358.4269,454.4477,355.4035,453.3878,353.1086,451.2357,351.9048,448.772,351.1909,446.8103,350.4915,444.2479,349.3564,442.0429,350.2287,439.89,350.9929,437.5317,353.8611,435.6666,355.8789,433.2465,358.3764,432.4429,361.3456,431.7508,365.1532,432.162,367.2386,433.1455,369.6633,433.5913,372.6115,436.6118,373.6392,439.8005,374.0857,441.9762,373.58,445.5615" style="stroke:#383838;stroke-width:2.0;"/><polygon fill="#383838" points="358,431.4453,358.0449,431.4991,359.1116,430.3392,360.4412,429.4948,361.6853,428.5477,362.6478,427.2626,364,426.4453,363.9759,426.4357,363.468,427.3925,363.0813,428.3978,362.7789,429.4369,362.186,430.3597,362,431.4453,362.1713,431.5139,362.2049,432.3673,362.7388,433.4208,363.3337,434.4988,363.5735,435.4347,364,436.4453,364.0146,436.4628,362.7932,435.4371,361.6381,434.491,360.451,433.5065,359.325,432.5953,358,431.4453" style="stroke:#383838;stroke-width:1.0;"/><polygon fill="#F8F8F8" points="452.5,36,452.5,36.2102,462.3125,35.5857,472.125,36.1933,481.9375,36.3997,491.75,35.2866,501.5625,35.9223,511.375,35.5735,521.1875,35.6165,531,35.9318,540.8125,35.3086,550.625,36.5536,560.4375,35.3697,570.25,35.8022,580.0625,36.4319,589.875,35.9142,599.6875,36.0682,609.5,36,609.4681,36,609.6785,45.3188,609.7391,54.6375,610.0857,63.9563,610.1711,73.275,609.5,82.5938,609.5,83.273,599.6875,82.8484,589.875,83.0573,580.0625,83.296,570.25,81.8726,560.4375,83.2723,550.625,82.2972,540.8125,83.1276,531,82.0987,521.1875,82.5253,511.375,83.3354,501.5625,82.545,491.75,82.6991,481.9375,82.9324,472.125,83.01,462.3125,82.5898,452.5,82.5938,452.7872,82.5938,451.9276,73.275,452.7844,63.9563,453.0482,54.6375,452.9445,45.3188,452.5,36" style="stroke:#383838;stroke-width:1.5;"/><text fill="#000000" font-family="FG Virgil" font-size="14" font-style="italic" lengthAdjust="spacing" textLength="100" x="481" y="55.9951">«persistence»</text><text fill="#000000" font-family="FG Virgil" font-size="14" lengthAdjust="spacing" textLength="143" x="459.5" y="72.292">PersistenceContext</text><polygon fill="#F8F8F8" points="452.5,394.8516,452.5,395.0617,462.3125,394.4372,472.125,395.0448,481.9375,395.2512,491.75,394.1382,501.5625,394.7738,511.375,394.4251,521.1875,394.4681,531,394.7834,540.8125,394.1602,550.625,395.4052,560.4375,394.2213,570.25,394.6538,580.0625,395.2835,589.875,394.7658,599.6875,394.9198,609.5,394.8516,609.4681,394.8516,609.6785,404.1703,609.7391,413.4891,610.0857,422.8078,610.1711,432.1266,609.5,441.4453,609.5,442.1246,599.6875,441.6999,589.875,441.9089,580.0625,442.1475,570.25,440.7241,560.4375,442.1238,550.625,441.1488,540.8125,441.9791,531,440.9503,521.1875,441.3768,511.375,442.1869,501.5625,441.3966,491.75,441.5506,481.9375,441.7839,472.125,441.8615,462.3125,441.4414,452.5,441.4453,452.7872,441.4453,451.9276,432.1266,452.7844,422.8078,453.0482,413.4891,452.9445,404.1703,452.5,394.8516" style="stroke:#383838;stroke-width:1.5;"/><text fill="#000000" font-family="FG Virgil" font-size="14" font-style="italic" lengthAdjust="spacing" textLength="100" x="481" y="414.8467">«persistence»</text><text fill="#000000" font-family="FG Virgil" font-size="14" lengthAdjust="spacing" textLength="143" x="459.5" y="431.1436">PersistenceContext</text><polygon fill="#F8F8F8" points="619.5,36,619.5,36.2102,629.3,35.5857,639.1,36.1933,648.9,36.3997,658.7,35.2866,668.5,35.9223,678.3,35.5735,688.1,35.6165,697.9,35.9318,707.7,35.3086,717.5,36.5536,727.3,35.3697,737.1,35.8022,746.9,36.4319,756.7,35.9142,766.5,36,766.5682,36,766.4681,45.3188,766.6785,54.6375,766.7391,63.9563,767.0857,73.275,766.5,82.5938,766.5,83.2648,756.7,83.273,746.9,82.8484,737.1,83.0573,727.3,83.296,717.5,81.8726,707.7,83.2723,697.9,82.2972,688.1,83.1276,678.3,82.0987,668.5,82.5253,658.7,83.3354,648.9,82.545,639.1,82.6991,629.3,82.9324,619.5,82.5938,619.9162,82.5938,619.4961,73.275,619.7872,63.9563,618.9276,54.6375,619.7844,45.3188,619.5,36" style="stroke:#383838;stroke-width:1.5;"/><text fill="#000000" font-family="FG Virgil" font-size="14" font-style="italic" lengthAdjust="spacing" textLength="68" x="659" y="55.9951">«factory»</text><text fill="#000000" font-family="FG Virgil" font-size="14" lengthAdjust="spacing" textLength="133" x="626.5" y="72.292">RepositoryFactory</text><polygon fill="#F8F8F8" points="619.5,394.8516,619.5,395.0617,629.3,394.4372,639.1,395.0448,648.9,395.2512,658.7,394.1382,668.5,394.7738,678.3,394.4251,688.1,394.4681,697.9,394.7834,707.7,394.1602,717.5,395.4052,727.3,394.2213,737.1,394.6538,746.9,395.2835,756.7,394.7658,766.5,394.8516,766.5682,394.8516,766.4681,404.1703,766.6785,413.4891,766.7391,422.8078,767.0857,432.1266,766.5,441.4453,766.5,442.1164,756.7,442.1246,746.9,441.6999,737.1,441.9089,727.3,442.1475,717.5,440.7241,707.7,442.1238,697.9,441.1488,688.1,441.9791,678.3,440.9503,668.5,441.3768,658.7,442.1869,648.9,441.3966,639.1,441.5506,629.3,441.7839,619.5,441.4453,619.9162,441.4453,619.4961,432.1266,619.7872,422.8078,618.9276,413.4891,619.7844,404.1703,619.5,394.8516" style="stroke:#383838;stroke-width:1.5;"/><text fill="#000000" font-family="FG Virgil" font-size="14" font-style="italic" lengthAdjust="spacing" textLength="68" x="659" y="414.8467">«factory»</text><text fill="#000000" font-family="FG Virgil" font-size="14" lengthAdjust="spacing" textLength="133" x="626.5" y="431.1436">RepositoryFactory</text><text fill="#000000" font-family="FG Virgil" font-size="14" font-style="italic" lengthAdjust="spacing" textLength="90" x="795" y="63.9951">«repository»</text><text fill="#000000" font-family="FG Virgil" font-size="14" lengthAdjust="spacing" textLength="127" x="776.5" y="80.292">EquipaRepository</text><path d="M825,15 L825,15 L825.0651,15.067 L826.6716,13.118 L828.6599,11.5616 L830.5238,9.8774 L831.979,7.7727 L834,6.25 L833.9952,6.2158 L835.7739,5.8122 L837.5766,5.5812 L839.3958,5.47 L841.1577,4.9456 L843,5 L843,5 L843.0339,5.2437 L844.7615,4.9725 L846.5879,5.4129 L848.4264,5.9402 L850.1948,5.9622 L852,6.25 L852.0211,6.2717 L853.7901,7.9898 L855.6553,9.8069 L857.4741,11.5762 L859.3815,13.4366 L861,15 L861.5965,15 L861.6038,20.2 L861.2263,25.4 L861.4121,30.6 L861.6242,35.8 L861,41 L861,41 L860.7766,40.7702 L859.4102,42.9662 L857.3081,44.4055 L855.7654,46.4201 L853.6466,47.8423 L852,49.75 L851.9958,49.7198 L850.2453,50.3265 L848.397,50.2285 L846.6064,50.5464 L844.8207,50.8991 L843,51 L843,51 L843.0254,51.1832 L841.1998,50.7483 L839.4176,50.6264 L837.565,49.998 L835.8174,50.1252 L834,49.75 L834.1698,49.9247 L832.3377,48.1417 L830.5899,46.4453 L828.4503,44.3461 L826.5979,42.5422 L825,41 L824.4476,41 L824.9477,35.8 L824.8253,30.6 L825.6057,25.4 L824.8447,20.2 L825,15 " fill="#F8F8F8" style="stroke:#000000;stroke-width:1.5;"/><path d="M825,15 L825,15 L825.0651,15.067 L826.6716,16.618 L828.6599,18.5616 L830.5238,20.3774 L831.979,21.7727 L834,23.75 L833.9952,23.7158 L835.7739,23.8122 L837.5766,24.0812 L839.3958,24.47 L841.1577,24.4456 L843,25 L843,25 L843.0339,25.2437 L844.7615,24.4725 L846.5879,24.4129 L848.4264,24.4402 L850.1948,23.9622 L852,23.75 L852.0211,23.7717 L853.7901,21.9898 L855.6553,20.3069 L857.4741,18.5762 L859.3815,16.9366 L861,15 " fill="none" style="stroke:#000000;stroke-width:1.5;"/><text fill="#000000" font-family="FG Virgil" font-size="14" font-style="italic" lengthAdjust="spacing" textLength="90" x="795" y="407.8467">«repository»</text><text fill="#000000" font-family="FG Virgil" font-size="14" lengthAdjust="spacing" textLength="127" x="776.5" y="424.1436">EquipaRepository</text><path d="M825,437.4453 L825,437.4453 L825.0651,437.5123 L826.6716,435.5633 L828.6599,434.0069 L830.5238,432.3227 L831.979,430.218 L834,428.6953 L833.9952,428.6611 L835.7739,428.2576 L837.5766,428.0265 L839.3958,427.9153 L841.1577,427.391 L843,427.4453 L843,427.4453 L843.0339,427.689 L844.7615,427.4179 L846.5879,427.8583 L848.4264,428.3855 L850.1948,428.4076 L852,428.6953 L852.0211,428.7171 L853.7901,430.4351 L855.6553,432.2522 L857.4741,434.0215 L859.3815,435.882 L861,437.4453 L861.5965,437.4453 L861.6038,442.6453 L861.2263,447.8453 L861.4121,453.0453 L861.6242,458.2453 L861,463.4453 L861,463.4453 L860.7766,463.2155 L859.4102,465.4115 L857.3081,466.8508 L855.7654,468.8654 L853.6466,470.2876 L852,472.1953 L851.9958,472.1652 L850.2453,472.7718 L848.397,472.6739 L846.6064,472.9917 L844.8207,473.3444 L843,473.4453 L843,473.4453 L843.0254,473.6285 L841.1998,473.1936 L839.4176,473.0717 L837.565,472.4433 L835.8174,472.5705 L834,472.1953 L834.1698,472.37 L832.3377,470.587 L830.5899,468.8907 L828.4503,466.7914 L826.5979,464.9875 L825,463.4453 L824.4476,463.4453 L824.9477,458.2453 L824.8253,453.0453 L825.6057,447.8453 L824.8447,442.6453 L825,437.4453 " fill="#F8F8F8" style="stroke:#000000;stroke-width:1.5;"/><path d="M825,437.4453 L825,437.4453 L825.0651,437.5123 L826.6716,439.0633 L828.6599,441.0069 L830.5238,442.8227 L831.979,444.218 L834,446.1953 L833.9952,446.1611 L835.7739,446.2576 L837.5766,446.5265 L839.3958,446.9153 L841.1577,446.891 L843,447.4453 L843,447.4453 L843.0339,447.689 L844.7615,446.9179 L846.5879,446.8583 L848.4264,446.8855 L850.1948,446.4076 L852,446.1953 L852.0211,446.2171 L853.7901,444.4351 L855.6553,442.7522 L857.4741,441.0215 L859.3815,439.382 L861,437.4453 " fill="none" style="stroke:#000000;stroke-width:1.5;"/><text fill="#000000" font-family="FG Virgil" font-size="14" font-style="italic" lengthAdjust="spacing" textLength="58" x="919.5" y="407.8467">«entity»</text><text fill="#000000" font-family="FG Virgil" font-size="14" lengthAdjust="spacing" textLength="48" x="924.5" y="424.1436">Equipa</text><polygon fill="#F8F8F8" points="963.5663,446.3642,961.8073,448.7676,959.7268,452.2879,956.7512,454.6603,953.6244,455.9576,951.1313,456.0702,947.9269,454.4477,944.9035,453.3878,942.6086,451.2357,941.4048,448.772,940.6909,446.8103,939.9915,444.2479,938.8564,442.0429,939.7287,439.89,940.4929,437.5317,943.3611,435.6666,945.3789,433.2465,947.8764,432.4429,950.8456,431.7508,954.6532,432.162,956.7386,433.1455,959.1633,433.5913,962.1115,436.6118,963.1392,439.8005,963.5857,441.9762,963.08,445.5615" style="stroke:#383838;stroke-width:2.0;"/><path d="M939.5,457.4453 L939.5,457.5387 L944.3,457.2612 L949.1,457.5312 L953.9,457.6229 L958.7,457.1282 L963.5,457.4453 " fill="#F8F8F8" style="stroke:#383838;stroke-width:2.0;"/><polygon fill="#FFFFFF" points="61,93.5938,61,93.6638,63,93.4556,65,93.6582,67,93.727,69,93.356,71,93.5938,70.9223,93.5938,70.5735,103.7458,70.6165,113.8979,70.9318,124.0499,70.3086,134.202,71.5536,144.3541,70.3697,154.5061,70.8022,164.6582,71.4319,174.8103,70.9142,184.9623,71.0682,195.1144,70.9681,205.2665,71.1785,215.4185,71.2391,225.5706,71.5857,235.7227,71.6711,245.8747,71.6793,256.0268,71.2546,266.1789,71.4636,276.3309,71.7022,286.483,70.2788,296.635,71.6785,306.7871,70.7035,316.9392,71.5338,327.0912,70.505,337.2433,70.9315,347.3954,71.7416,357.5474,70.9513,367.6995,71,377.8516,71,377.8867,69,377.9644,67,377.9903,65,377.8503,63,377.9473,61,377.8516,60.4276,377.8516,61.2844,367.6995,61.5482,357.5474,61.4445,347.3954,61.613,337.2433,60.5169,327.0912,60.3478,316.9392,60.3786,306.7871,60.9411,296.635,60.8035,286.483,61.6814,276.3309,60.8253,266.1789,60.6569,256.0268,61.2283,245.8747,60.3332,235.7227,60.4809,225.5706,61.649,215.4185,61.4357,205.2665,61.7345,195.1144,60.6782,184.9623,61.3192,174.8103,61.5904,164.6582,60.5276,154.5061,60.9041,144.3541,61.126,134.202,61.6518,124.0499,60.9958,113.8979,61.4626,103.7458,61,93.5938" style="stroke:#383838;stroke-width:1.0;"/><polygon fill="#FFFFFF" points="357,114.7266,357,114.7966,359,114.5885,361,114.791,363,114.8598,365,114.4888,367,114.7266,366.9223,114.7266,366.5735,124.8468,366.6165,134.9669,366.9318,145.0871,366.3086,155.2073,367.5536,165.3275,366.3697,175.4477,366.8022,185.5679,367.4319,195.6881,366.9142,205.8083,367.0682,215.9285,366.9681,226.0487,367.1785,236.1689,367.2391,246.2891,367.5857,256.4093,367.6711,266.5294,367.6793,276.6496,367.2546,286.7698,367.4636,296.89,367.7022,307.0102,366.2788,317.1304,367.6785,327.2506,366.7035,337.3708,367.5338,347.491,366.505,357.6112,366.9315,367.7314,367,377.8516,367,378.0988,365,377.8353,363,377.8867,361,377.9644,359,377.9903,357,377.8516,356.9961,377.8516,357.2872,367.7314,356.4276,357.6112,357.2844,347.491,357.5482,337.3708,357.4445,327.2506,357.613,317.1304,356.5169,307.0102,356.3478,296.89,356.3786,286.7698,356.9411,276.6496,356.8035,266.5294,357.6814,256.4093,356.8253,246.2891,356.6569,236.1689,357.2283,226.0487,356.3332,215.9285,356.4809,205.8083,357.649,195.6881,357.4357,185.5679,357.7345,175.4477,356.6782,165.3275,357.3192,155.2073,357.5904,145.0871,356.5276,134.9669,356.9041,124.8468,357,114.7266" style="stroke:#383838;stroke-width:1.0;"/><polygon fill="#FFFFFF" points="526,143.8594,526,143.9294,528,143.7213,530,143.9238,532,143.9926,534,143.6216,536,143.8594,535.9223,143.8594,535.5735,153.3815,535.6165,162.9036,535.9318,172.4258,535.3086,181.9479,536.5536,191.4701,536,200.9922,536,200.7821,534,200.9263,532,201.1362,530,200.9636,528,201.0149,526,200.9922,525.9681,200.9922,526.1785,191.4701,526.2391,181.9479,526.5857,172.4258,526.6711,162.9036,526.6793,153.3815,526,143.8594" style="stroke:#383838;stroke-width:1.0;"/><polygon fill="#FFFFFF" points="688,172.9922,688,173.0622,690,172.8541,692,173.0566,694,173.1254,696,172.7544,698,172.9922,697.9223,172.9922,697.5735,182.5143,697.6165,192.0365,697.9318,201.5586,697.3086,211.0807,698.5536,220.6029,698,230.125,698,229.9149,696,230.0591,694,230.269,692,230.0964,690,230.1477,688,230.125,687.9681,230.125,688.1785,220.6029,688.2391,211.0807,688.5857,201.5586,688.6711,192.0365,688.6793,182.5143,688,172.9922" style="stroke:#383838;stroke-width:1.0;"/><polygon fill="#FFFFFF" points="838,230.125,838,230.1951,840,229.9869,842,230.1894,844,230.2582,846,229.8872,848,230.125,847.9741,230.125,847.8578,232.925,847.8722,235.725,847.9773,238.525,847.7695,241.325,848,244.125,848,244.3095,846,243.9149,844,244.0591,842,244.269,840,244.0964,838,244.125,838.0227,244.125,837.9894,241.325,838.0595,238.525,838.0797,235.725,838.1952,232.925,838,230.125" style="stroke:#383838;stroke-width:1.0;"/><polygon fill="#FFFFFF" points="838,347.8516,838,347.9216,840,347.7135,842,347.916,844,347.9848,846,347.6138,848,347.8516,847.9741,347.8516,847.8578,353.8516,847.8722,359.8516,847.9773,365.8516,847.7695,371.8516,848,377.8516,848,378.0361,846,377.6415,844,377.7856,842,377.9955,840,377.823,838,377.8516,838.0227,377.8516,837.9894,371.8516,838.0595,365.8516,838.0797,359.8516,838.1952,353.8516,838,347.8516" style="stroke:#383838;stroke-width:1.0;"/><polygon fill="#383838" points="345,110.7266,345.026,110.7916,346.9487,111.3983,349.0239,112.3864,351.0495,113.2503,352.9117,113.7058,355,114.7266,354.9904,114.7025,352.9472,115.3946,350.9525,116.2079,348.9916,117.1055,346.9144,117.7126,345,118.7266,345.1305,118.8571,345.6514,117.778,346.5534,117.0799,347.5018,116.4284,348.1798,115.5063,349,114.7266,349.0161,114.7426,348.1925,113.919,347.4421,113.1686,346.6564,112.3829,345.938,111.6646,345,110.7266" style="stroke:#383838;stroke-width:1.0;"/><path d="M71,114.7266 L71,115.0068 L81,114.1741 L91,114.9843 L101,115.2595 L111,113.7754 L121,114.6229 L131,114.1579 L141,114.2152 L151,114.6357 L161,113.8047 L171,115.4648 L181,113.8862 L191,114.4629 L201,115.3025 L211,114.6122 L221,114.8175 L231,114.684 L241,114.9646 L251,115.0454 L261,115.5075 L271,115.6213 L281,115.6322 L291,115.0661 L301,115.3447 L311,115.6629 L321,113.765 L331,115.6312 L341,114.3312 L351,114.7266 " fill="none" style="stroke:#383838;stroke-width:1.0;"/><text fill="#000000" font-family="FG Virgil" font-size="13" lengthAdjust="spacing" textLength="267" x="78" y="109.6606">novaEquipa(nome, listaColab, tipoEquipa)</text><polygon fill="#383838" points="514,139.8594,514.026,139.9244,515.9487,140.5311,518.0239,141.5192,520.0495,142.3831,521.9117,142.8386,524,143.8594,523.9904,143.8353,521.9472,144.5274,519.9525,145.3407,517.9916,146.2383,515.9144,146.8454,514,147.8594,514.1305,147.9899,514.6514,146.9108,515.5534,146.2128,516.5018,145.5612,517.1798,144.6392,518,143.8594,518.0161,143.8755,517.1925,143.0518,516.4421,142.3015,515.6564,141.5157,514.938,140.7974,514,139.8594" style="stroke:#383838;stroke-width:1.0;"/><path d="M367,143.8594 L367,144.1396 L377.2,143.3069 L387.4,144.1171 L397.6,144.3923 L407.8,142.9082 L418,143.7558 L428.2,143.2907 L438.4,143.348 L448.6,143.7685 L458.8,142.9375 L469,144.5976 L479.2,143.019 L489.4,143.5957 L499.6,144.4353 L509.8,143.745 L520,143.8594 " fill="none" style="stroke:#383838;stroke-width:1.0;"/><text fill="#000000" font-family="FG Virgil" font-size="13" lengthAdjust="spacing" textLength="85" x="374" y="138.7935">repositories()</text><polygon fill="#383838" points="676,168.9922,676.026,169.0572,677.9487,169.664,680.0239,170.652,682.0495,171.5159,683.9117,171.9714,686,172.9922,685.9904,172.9681,683.9472,173.6602,681.9525,174.4735,679.9916,175.3711,677.9144,175.9782,676,176.9922,676.1305,177.1227,676.6514,176.0436,677.5534,175.3456,678.5018,174.694,679.1798,173.772,680,172.9922,680.0161,173.0083,679.1925,172.1847,678.4421,171.4343,677.6564,170.6486,676.938,169.9302,676,168.9922" style="stroke:#383838;stroke-width:1.0;"/><path d="M536,172.9922 L536,173.2724 L545.7333,172.4398 L555.4667,173.2499 L565.2,173.5251 L574.9333,172.041 L584.6667,172.8886 L594.4,172.4235 L604.1333,172.4809 L613.8667,172.9013 L623.6,172.0704 L633.3333,173.7304 L643.0667,172.1518 L652.8,172.7285 L662.5333,173.5681 L672.2667,172.8778 L682,172.9922 " fill="none" style="stroke:#383838;stroke-width:1.0;stroke-dasharray:2.0,2.0;"/><text fill="#000000" font-family="FG Virgil" font-size="13" lengthAdjust="spacing" textLength="51" x="543" y="167.9263">create()</text><polygon fill="#383838" points="547,182.9922,547.026,183.0572,544.9487,183.664,543.0239,184.652,541.0495,185.5159,538.9117,185.9714,537,186.9922,536.9904,186.9681,538.9472,187.6602,540.9525,188.4735,542.9916,189.3711,544.9144,189.9782,547,190.9922,547.1305,191.1227,546.0514,190.0436,545.3534,189.3456,544.7018,188.694,543.7798,187.772,543,186.9922,543.0161,187.0083,543.7925,186.1847,544.6421,185.4343,545.4564,184.6486,546.338,183.9302,547,182.9922" style="stroke:#383838;stroke-width:1.0;"/><path d="M541,186.9922 L541,187.2724 L550.7333,186.4398 L560.4667,187.2499 L570.2,187.5251 L579.9333,186.041 L589.6667,186.8886 L599.4,186.4235 L609.1333,186.4809 L618.8667,186.9013 L628.6,186.0704 L638.3333,187.7304 L648.0667,186.1518 L657.8,186.7285 L667.5333,187.5681 L677.2667,186.8778 L687,186.9922 " fill="none" style="stroke:#383838;stroke-width:1.0;stroke-dasharray:2.0,2.0;"/><polygon fill="#383838" points="378,196.9922,378.026,197.0572,375.9487,197.664,374.0239,198.652,372.0495,199.5159,369.9117,199.9714,368,200.9922,367.9904,200.9681,369.9472,201.6602,371.9525,202.4735,373.9916,203.3711,375.9144,203.9782,378,204.9922,378.1305,205.1227,377.0514,204.0436,376.3534,203.3456,375.7018,202.694,374.7798,201.772,374,200.9922,374.0161,201.0083,374.7925,200.1847,375.6421,199.4343,376.4564,198.6486,377.338,197.9302,378,196.9922" style="stroke:#383838;stroke-width:1.0;"/><path d="M372,200.9922 L372,201.2724 L381.875,200.4398 L391.75,201.2499 L401.625,201.5251 L411.5,200.041 L421.375,200.8886 L431.25,200.4235 L441.125,200.4809 L451,200.9013 L460.875,200.0704 L470.75,201.7304 L480.625,200.1518 L490.5,200.7285 L500.375,201.5681 L510.25,200.8778 L520.125,201.0832 L530,200.9922 " fill="none" style="stroke:#383838;stroke-width:1.0;stroke-dasharray:2.0,2.0;"/><polygon fill="#383838" points="826,226.125,826.026,226.19,827.9487,226.7968,830.0239,227.7848,832.0495,228.6487,833.9117,229.1042,836,230.125,835.9904,230.1009,833.9472,230.793,831.9525,231.6063,829.9916,232.5039,827.9144,233.111,826,234.125,826.1305,234.2555,826.6514,233.1764,827.5534,232.4784,828.5018,231.8268,829.1798,230.9048,830,230.125,830.0161,230.1411,829.1925,229.3175,828.4421,228.5671,827.6564,227.7814,826.938,227.063,826,226.125" style="stroke:#383838;stroke-width:1.0;"/><path d="M693,230.125 L693,230.4052 L702.9286,229.5726 L712.8571,230.3827 L722.7857,230.6579 L732.7143,229.1738 L742.6429,230.0214 L752.5714,229.5563 L762.5,229.6137 L772.4286,230.0341 L782.3571,229.2032 L792.2857,230.8632 L802.2143,229.2846 L812.1429,229.8613 L822.0714,230.7009 L832,230.125 " fill="none" style="stroke:#383838;stroke-width:1.0;stroke-dasharray:2.0,2.0;"/><text fill="#000000" font-family="FG Virgil" font-size="13" lengthAdjust="spacing" textLength="51" x="700" y="225.0591">create()</text><polygon fill="#383838" points="704,240.125,704.026,240.19,701.9487,240.7968,700.0239,241.7848,698.0495,242.6487,695.9117,243.1042,694,244.125,693.9904,244.1009,695.9472,244.793,697.9525,245.6063,699.9916,246.5039,701.9144,247.111,704,248.125,704.1305,248.2555,703.0514,247.1764,702.3534,246.4784,701.7018,245.8268,700.7798,244.9048,700,244.125,700.0161,244.1411,700.7925,243.3175,701.6421,242.5671,702.4564,241.7814,703.338,241.063,704,240.125" style="stroke:#383838;stroke-width:1.0;"/><path d="M698,244.125 L698,244.4052 L708.2857,243.5726 L718.5714,244.3827 L728.8571,244.6579 L739.1429,243.1738 L749.4286,244.0214 L759.7143,243.5563 L770,243.6137 L780.2857,244.0341 L790.5714,243.2032 L800.8571,244.8632 L811.1429,243.2846 L821.4286,243.8613 L831.7143,244.7009 L842,244.125 " fill="none" style="stroke:#383838;stroke-width:1.0;stroke-dasharray:2.0,2.0;"/><polygon fill="#383838" points="907.5,269.2578,907.526,269.3229,909.4487,269.9296,911.5239,270.9176,913.5495,271.7815,915.4117,272.237,917.5,273.2578,917.4904,273.2338,915.4472,273.9258,913.4525,274.7391,911.4916,275.6367,909.4144,276.2438,907.5,277.2578,907.6305,277.3883,908.1514,276.3093,909.0534,275.6112,910.0018,274.9596,910.6798,274.0376,911.5,273.2578,911.5161,273.2739,910.6925,272.4503,909.9421,271.6999,909.1564,270.9142,908.438,270.1959,907.5,269.2578" style="stroke:#383838;stroke-width:1.0;"/><path d="M367,273.2578 L367,273.5381 L376.9364,272.7054 L386.8727,273.5155 L396.8091,273.7907 L406.7455,272.3066 L416.6818,273.1542 L426.6182,272.6892 L436.5545,272.7465 L446.4909,273.1669 L456.4273,272.336 L466.3636,273.996 L476.3,272.4174 L486.2364,272.9941 L496.1727,273.8337 L506.1091,273.1434 L516.0455,273.3488 L525.9818,273.2152 L535.9182,273.4958 L545.8545,273.5767 L555.7909,274.0387 L565.7273,274.1526 L575.6636,274.1635 L585.6,273.5973 L595.5364,273.8759 L605.4727,274.1941 L615.4091,272.2962 L625.3455,274.1625 L635.2818,272.8625 L645.2182,273.9696 L655.1545,272.5978 L665.0909,273.1665 L675.0273,274.2466 L684.9636,273.1928 L694.9,273.3982 L704.8364,273.7093 L714.7727,273.8128 L724.7091,273.2526 L734.6455,273.6408 L744.5818,272.4946 L754.5182,273.637 L764.4545,273.9887 L774.3909,273.8505 L784.3273,274.0752 L794.2636,272.6137 L804.2,272.3882 L814.1364,272.4293 L824.0727,273.1793 L834.0091,272.9958 L843.9455,274.1664 L853.8818,273.0249 L863.8182,272.8004 L873.7545,273.5622 L883.6909,272.3687 L893.6273,272.5656 L903.5636,274.1231 L913.5,273.2578 " fill="none" style="stroke:#383838;stroke-width:1.0;stroke-dasharray:2.0,2.0;"/><text fill="#000000" font-family="FG Virgil" font-size="13" lengthAdjust="spacing" textLength="326" x="374" y="268.1919">novaEquipa = create(nome, listaColab, tipoEquipa)</text><text fill="#000000" font-family="FG Virgil" font-size="14" font-style="italic" lengthAdjust="spacing" textLength="58" x="919.5" y="297.1201">«entity»</text><text fill="#000000" font-family="FG Virgil" font-size="14" lengthAdjust="spacing" textLength="48" x="924.5" y="313.417">Equipa</text><polygon fill="#F8F8F8" points="963.5663,271.0439,961.8073,273.4473,959.7268,276.9676,956.7512,279.34,953.6244,280.6373,951.1313,280.7499,947.9269,279.1274,944.9035,278.0675,942.6086,275.9154,941.4048,273.4517,940.6909,271.4899,939.9915,268.9276,938.8564,266.7226,939.7287,264.5697,940.4929,262.2114,943.3611,260.3462,945.3789,257.9262,947.8764,257.1226,950.8456,256.4305,954.6532,256.8417,956.7386,257.8252,959.1633,258.271,962.1115,261.2915,963.1392,264.4802,963.5857,266.6559,963.08,270.2412" style="stroke:#383838;stroke-width:2.0;"/><path d="M939.5,282.125 L939.5,282.2184 L944.3,281.9409 L949.1,282.2109 L953.9,282.3026 L958.7,281.8079 L963.5,282.125 " fill="#F8F8F8" style="stroke:#383838;stroke-width:2.0;"/><polygon fill="#383838" points="826,343.8516,826.026,343.9166,827.9487,344.5233,830.0239,345.5114,832.0495,346.3753,833.9117,346.8308,836,347.8516,835.9904,347.8275,833.9472,348.5196,831.9525,349.3329,829.9916,350.2305,827.9144,350.8376,826,351.8516,826.1305,351.9821,826.6514,350.903,827.5534,350.2049,828.5018,349.5534,829.1798,348.6313,830,347.8516,830.0161,347.8676,829.1925,347.044,828.4421,346.2936,827.6564,345.5079,826.938,344.7896,826,343.8516" style="stroke:#383838;stroke-width:1.0;"/><path d="M367,347.8516 L367,348.1318 L376.8936,347.2991 L386.7872,348.1093 L396.6809,348.3845 L406.5745,346.9004 L416.4681,347.7479 L426.3617,347.2829 L436.2553,347.3402 L446.1489,347.7607 L456.0426,346.9297 L465.9362,348.5898 L475.8298,347.0112 L485.7234,347.5879 L495.617,348.4275 L505.5106,347.7372 L515.4043,347.9425 L525.2979,347.809 L535.1915,348.0896 L545.0851,348.1704 L554.9787,348.6325 L564.8723,348.7463 L574.766,348.7572 L584.6596,348.1911 L594.5532,348.4697 L604.4468,348.7879 L614.3404,346.89 L624.234,348.7562 L634.1277,347.4562 L644.0213,348.5633 L653.9149,347.1915 L663.8085,347.7602 L673.7021,348.8404 L683.5957,347.7866 L693.4894,347.992 L703.383,348.3031 L713.2766,348.4065 L723.1702,347.8464 L733.0638,348.2345 L742.9574,347.0883 L752.8511,348.2307 L762.7447,348.5825 L772.6383,348.4443 L782.5319,348.6689 L792.4255,347.2075 L802.3191,346.982 L812.2128,347.023 L822.1064,347.7731 L832,347.8516 " fill="none" style="stroke:#383838;stroke-width:1.0;"/><text fill="#000000" font-family="FG Virgil" font-size="13" lengthAdjust="spacing" textLength="116" x="374" y="342.7856">save(novaEquipa)</text><!--MD5=[3b85a979959bd7caa73caccb81604eb2]
@startuml
'http://plantuml.com/skinparam.html
skinparam handwritten true
skinparam monochrome true
skinparam packageStyle rect
skinparam defaultFontName FG Virgil
skinparam shadowing false

participant CriarEquipaUI as UI <<presentation>>
control CriarEquipaController as CTRL <<application>>
participant PersistenceContext as Persistence <<persistence>>
participant RepositoryFactory as Factory <<factory>>
database EquipaRepository as ERepository <<repository>>
entity Equipa as EQ <<entity>>

activate UI

UI -> CTRL : novaEquipa(nome, listaColab, tipoEquipa)
activate CTRL

CTRL -> Persistence: repositories()
        activate Persistence
            Persistence - -> Factory: create()
            activate Factory
                Factory - -> Persistence:
            
            Persistence - -> CTRL:
        deactivate Persistence

            Factory - -> ERepository : create()
            deactivate Factory
            
        activate ERepository
            ERepository - -> Factory : 
        deactivate ERepository
        
CTRL - -> EQ ** : novaEquipa = create(nome, listaColab, tipoEquipa)

        CTRL -> ERepository: save(novaEquipa)
        activate ERepository
        deactivate ERepository
        
deactivate CTRL
deactivate UI
@enduml

@startuml
skinparam handwritten true
skinparam monochrome true
skinparam packageStyle rect
skinparam defaultFontName FG Virgil
skinparam shadowing false

participant CriarEquipaUI as UI <<presentation>>
control CriarEquipaController as CTRL <<application>>
participant PersistenceContext as Persistence <<persistence>>
participant RepositoryFactory as Factory <<factory>>
database EquipaRepository as ERepository <<repository>>
entity Equipa as EQ <<entity>>

activate UI

UI -> CTRL : novaEquipa(nome, listaColab, tipoEquipa)
activate CTRL

CTRL -> Persistence: repositories()
        activate Persistence
            Persistence - -> Factory: create()
            activate Factory
                Factory - -> Persistence:
            
            Persistence - -> CTRL:
        deactivate Persistence

            Factory - -> ERepository : create()
            deactivate Factory
            
        activate ERepository
            ERepository - -> Factory : 
        deactivate ERepository
        
CTRL - -> EQ ** : novaEquipa = create(nome, listaColab, tipoEquipa)

        CTRL -> ERepository: save(novaEquipa)
        activate ERepository
        deactivate ERepository
        
deactivate CTRL
deactivate UI
@enduml

PlantUML version 1.2021.6beta4(Unknown compile time)
(GPL source distribution)
Java Runtime: Java(TM) SE Runtime Environment
JVM: Java HotSpot(TM) 64-Bit Server VM
Default Encoding: UTF-8
Language: en
Country: US
--></g></svg>