<?xml version="1.0" encoding="UTF-8" standalone="no"?><svg xmlns="http://www.w3.org/2000/svg" xmlns:xlink="http://www.w3.org/1999/xlink" contentScriptType="application/ecmascript" contentStyleType="text/css" height="224px" preserveAspectRatio="none" style="width:1458px;height:224px;" version="1.1" viewBox="0 0 1458 224" width="1458px" zoomAndPan="magnify"><defs/><g><!--MD5=[f9bd503d3928501ed3f084703009b21a]
class NovoCatalogoUI--><polygon fill="#F8F8F8" points="156.5,7,156.5,7.2102,166.5769,6.5857,176.6538,7.1933,186.7308,7.3997,196.8077,6.2866,206.8846,6.9223,216.9615,6.5735,227.0385,6.6165,237.1154,6.9318,247.1923,6.3086,257.2692,7.5536,267.3462,6.3697,277.4231,6.8022,287.5,7,287.9319,7,287.4142,17.7875,287.5682,28.575,287.4681,39.3625,287.6785,50.15,287.5,60.9375,287.5,61.1766,277.4231,61.5232,267.3462,61.6086,257.2692,61.6168,247.1923,61.1921,237.1154,61.4011,227.0385,61.6397,216.9615,60.2163,206.8846,61.616,196.8077,60.641,186.7308,61.4713,176.6538,60.4425,166.5769,60.869,156.5,60.9375,157.2416,60.9375,156.4513,50.15,156.6053,39.3625,156.8386,28.575,156.9162,17.7875,156.5,7" style="stroke:#383838;stroke-width:1.5;"/><polygon fill="#C2C2C2" points="182.5608,28.6444,180.9484,30.8475,179.0412,34.0745,176.3136,36.2491,173.4474,37.4384,171.162,37.5416,168.2247,36.0543,165.4532,35.0827,163.3495,33.1099,162.2461,30.8515,161.5917,29.0533,160.9506,26.7045,159.91,24.6832,160.7096,22.7098,161.4102,20.548,164.0393,18.8382,165.889,16.6198,168.1784,15.8832,170.9001,15.2488,174.3904,15.6257,176.3021,16.5273,178.5247,16.9359,181.2272,19.7047,182.1693,22.6277,182.5786,24.6221,182.115,27.9086" style="stroke:#383838;stroke-width:1.0;"/><path d="M174.4688,31.6094 Q173.8906,31.9063 173.25,32.0469 Q172.6094,32.2031 171.9063,32.2031 Q169.4063,32.2031 168.0781,30.5625 Q166.7656,28.9063 166.7656,25.7813 Q166.7656,22.6563 168.0781,21 Q169.4063,19.3438 171.9063,19.3438 Q172.6094,19.3438 173.25,19.5 Q173.9063,19.6563 174.4688,19.9531 L174.4688,22.6719 Q173.8438,22.0938 173.25,21.8281 Q172.6563,21.5469 172.0313,21.5469 Q170.6875,21.5469 170,22.625 Q169.3125,23.6875 169.3125,25.7813 Q169.3125,27.875 170,28.9531 Q170.6875,30.0156 172.0313,30.0156 Q172.6563,30.0156 173.25,29.75 Q173.8438,29.4688 174.4688,28.8906 L174.4688,31.6094 Z " fill="#000000"/><text fill="#000000" font-family="FG Virgil" font-size="12" font-style="italic" lengthAdjust="spacingAndGlyphs" textLength="95" x="187.5" y="23.1387">«presentation»</text><text fill="#000000" font-family="FG Virgil" font-size="12" lengthAdjust="spacingAndGlyphs" textLength="99" x="185.5" y="37.1074">NovoCatalogoUI</text><path d="M157.5,44.9375 L157.5,45.2177 L167.4231,44.3851 L177.3462,45.1952 L187.2692,45.4704 L197.1923,43.9863 L207.1154,44.8339 L217.0385,44.3688 L226.9615,44.4262 L236.8846,44.8466 L246.8077,44.0157 L256.7308,45.6757 L266.6538,44.0971 L276.5769,44.6738 L286.5,44.9375 " fill="#F8F8F8" style="stroke:#383838;stroke-width:1.5;"/><path d="M157.5,52.9375 L157.5,53.2177 L167.4231,52.3851 L177.3462,53.1952 L187.2692,53.4704 L197.1923,51.9863 L207.1154,52.8339 L217.0385,52.3688 L226.9615,52.4262 L236.8846,52.8466 L246.8077,52.0157 L256.7308,53.6757 L266.6538,52.0971 L276.5769,52.6738 L286.5,52.9375 " fill="#F8F8F8" style="stroke:#383838;stroke-width:1.5;"/><!--MD5=[2d3184c806c3f64baa12a46caa287f2a]
class NovoCatalogoController--><polygon fill="#F8F8F8" points="7,138,7,138.2102,17,137.5857,27,138.1933,37,138.3997,47,137.2866,57,137.9223,67,137.5735,77,137.6165,87,137.9318,97,137.3086,107,138.5536,117,137.3697,127,137.8022,137,138.4319,147,137.9142,157,138.0682,167,137.9681,177,138.1785,187,138.2391,197,138.5857,207,138.6711,217,138.6793,227,138.2546,237,138.4636,247,138.7022,257,137.2788,267,138.6785,277,137.7035,287,138.5338,297,137.505,307,137.9315,317,138.7416,327,137.9513,337,138.1053,347,138.3386,357,138.4162,367,137.9961,377,138.2872,387,137.4276,397,138.2844,407,138.5482,417,138.4445,427,138.613,437,138,436.5169,138,436.3478,147.9434,436.3786,157.8867,436.9411,167.8301,436.8035,177.7734,437.6814,187.7168,436.8253,197.6602,436.6569,207.6035,437,217.5469,437,217.7751,427,216.88,417,217.0277,407,218.1958,397,217.9825,387,218.2814,377,217.2251,367,217.8661,357,218.1373,347,217.0745,337,217.451,327,217.6729,317,218.1986,307,217.5427,297,218.0094,287,216.9931,277,216.8696,267,218.0505,257,216.8299,247,218.0558,237,217.7535,227,217.279,217,217.1931,207,218.0056,197,217.2475,187,218.1387,177,216.9941,167,218.1643,157,218.0312,147,217.7918,137,217.5941,127,218.2735,117,218.1605,107,217.7161,97,217.8151,87,217.4166,77,218.2633,67,217.7017,57,217.7194,47,216.9385,37,217.1417,27,218.0776,17,217.9766,7,217.5469,6.9571,217.5469,6.6778,207.6035,6.7811,197.6602,6.3138,187.7168,7.4147,177.7734,7.7396,167.8301,7.5264,157.8867,7.6949,147.9434,7,138" style="stroke:#383838;stroke-width:1.5;"/><polygon fill="#C2C2C2" points="154.8108,159.6444,153.1984,161.8475,151.2912,165.0745,148.5636,167.2491,145.6974,168.4384,143.412,168.5416,140.4747,167.0543,137.7032,166.0827,135.5995,164.1099,134.4961,161.8515,133.8417,160.0533,133.2006,157.7045,132.16,155.6832,132.9596,153.7098,133.6602,151.548,136.2893,149.8382,138.139,147.6198,140.4284,146.8832,143.1501,146.2488,146.6404,146.6257,148.5521,147.5273,150.7747,147.9359,153.4772,150.7047,154.4193,153.6277,154.8286,155.6221,154.365,158.9086" style="stroke:#383838;stroke-width:1.0;"/><path d="M146.7188,162.6094 Q146.1406,162.9063 145.5,163.0469 Q144.8594,163.2031 144.1563,163.2031 Q141.6563,163.2031 140.3281,161.5625 Q139.0156,159.9063 139.0156,156.7813 Q139.0156,153.6563 140.3281,152 Q141.6563,150.3438 144.1563,150.3438 Q144.8594,150.3438 145.5,150.5 Q146.1563,150.6563 146.7188,150.9531 L146.7188,153.6719 Q146.0938,153.0938 145.5,152.8281 Q144.9063,152.5469 144.2813,152.5469 Q142.9375,152.5469 142.25,153.625 Q141.5625,154.6875 141.5625,156.7813 Q141.5625,158.875 142.25,159.9531 Q142.9375,161.0156 144.2813,161.0156 Q144.9063,161.0156 145.5,160.75 Q146.0938,160.4688 146.7188,159.8906 L146.7188,162.6094 Z " fill="#000000"/><text fill="#000000" font-family="FG Virgil" font-size="12" font-style="italic" lengthAdjust="spacingAndGlyphs" textLength="83" x="196.75" y="154.1387">«application»</text><text fill="#000000" font-family="FG Virgil" font-size="12" lengthAdjust="spacingAndGlyphs" textLength="148" x="164.25" y="168.1074">NovoCatalogoController</text><path d="M8,175.9375 L8,176.2177 L17.9535,175.3851 L27.907,176.1952 L37.8605,176.4704 L47.814,174.9863 L57.7674,175.8339 L67.7209,175.3688 L77.6744,175.4262 L87.6279,175.8466 L97.5814,175.0157 L107.5349,176.6757 L117.4884,175.0971 L127.4419,175.6738 L137.3953,176.5134 L147.3488,175.8231 L157.3023,176.0285 L167.2558,175.8949 L177.2093,176.1755 L187.1628,176.2563 L197.1163,176.7184 L207.0698,176.8322 L217.0233,176.8432 L226.9767,176.277 L236.9302,176.5556 L246.8837,176.8738 L256.8372,174.9759 L266.7907,176.8422 L276.7442,175.5422 L286.6977,176.6492 L296.6512,175.2775 L306.6047,175.8462 L316.5581,176.9263 L326.5116,175.8725 L336.4651,176.0779 L346.4186,176.389 L356.3721,176.4925 L366.3256,175.9323 L376.2791,176.3205 L386.2326,175.1743 L396.186,176.3167 L406.1395,176.6684 L416.093,176.5302 L426.0465,176.7549 L436,175.9375 " fill="#F8F8F8" style="stroke:#383838;stroke-width:1.5;"/><path d="M8,183.9375 L8,184.2177 L17.9535,183.3851 L27.907,184.1952 L37.8605,184.4704 L47.814,182.9863 L57.7674,183.8339 L67.7209,183.3688 L77.6744,183.4262 L87.6279,183.8466 L97.5814,183.0157 L107.5349,184.6757 L117.4884,183.0971 L127.4419,183.6738 L137.3953,184.5134 L147.3488,183.8231 L157.3023,184.0285 L167.2558,183.8949 L177.2093,184.1755 L187.1628,184.2563 L197.1163,184.7184 L207.0698,184.8322 L217.0233,184.8432 L226.9767,184.277 L236.9302,184.5556 L246.8837,184.8738 L256.8372,182.9759 L266.7907,184.8422 L276.7442,183.5422 L286.6977,184.6492 L296.6512,183.2775 L306.6047,183.8462 L316.5581,184.9263 L326.5116,183.8725 L336.4651,184.0779 L346.4186,184.389 L356.3721,184.4925 L366.3256,183.9323 L376.2791,184.3205 L386.2326,183.1743 L396.186,184.3167 L406.1395,184.6684 L416.093,184.5302 L426.0465,184.7549 L436,183.9375 " fill="#F8F8F8" style="stroke:#383838;stroke-width:1.5;"/><text fill="#000000" font-family="FG Virgil" font-size="11" lengthAdjust="spacingAndGlyphs" textLength="71" x="13" y="198.1479">getEquipas()</text><text fill="#000000" font-family="FG Virgil" font-size="11" lengthAdjust="spacingAndGlyphs" textLength="418" x="13" y="210.9526">novoCatalogo(titulo,descricaoBreve,descricaoCompleta,icone,listEquipas)</text><!--MD5=[28183b5fe251cf9d4adbbaa3c2129d6e]
class Catalogo--><polygon fill="#F8F8F8" points="472.5,144.5,472.5,144.7102,482.575,144.0857,492.65,144.6933,502.725,144.8997,512.8,143.7866,522.875,144.4223,532.95,144.0735,543.025,144.1165,553.1,144.4318,563.175,143.8086,573.25,145.0536,583.325,143.8697,593.4,144.3022,603.475,144.9319,613.55,144.4142,623.625,144.5682,633.7,144.4681,643.775,144.6785,653.85,144.7391,663.925,145.0857,674,145.1711,684.075,145.1793,694.15,144.7546,704.225,144.9636,714.3,145.2022,724.375,143.7788,734.45,145.1785,744.525,144.2035,754.6,145.0338,764.675,144.005,774.75,144.4315,784.825,145.2416,794.9,144.4513,804.975,144.6053,815.05,144.8386,825.125,144.9162,835.2,144.4961,845.275,144.7872,855.35,143.9276,865.425,144.7844,875.5,144.5,876.0482,144.5,875.9445,154.0346,876.113,163.5692,875.0169,173.1038,874.8478,182.6384,874.8786,192.173,875.4411,201.7076,875.5,211.2422,875.5,211.0457,865.425,211.9236,855.35,211.0675,845.275,210.8991,835.2,211.4705,825.125,210.5753,815.05,210.7231,804.975,211.8911,794.9,211.6779,784.825,211.9767,774.75,210.9204,764.675,211.5614,754.6,211.8326,744.525,210.7698,734.45,211.1463,724.375,211.3682,714.3,211.8939,704.225,211.238,694.15,211.7048,684.075,210.6884,674,210.5649,663.925,211.7458,653.85,210.5252,643.775,211.7511,633.7,211.4488,623.625,210.9743,613.55,210.8884,603.475,211.7009,593.4,210.9429,583.325,211.834,573.25,210.6894,563.175,211.8596,553.1,211.7265,543.025,211.4872,532.95,211.2894,522.875,211.9688,512.8,211.8558,502.725,211.4114,492.65,211.5104,482.575,211.1119,472.5,211.2422,473.2165,211.2422,472.6549,201.7076,472.6726,192.173,471.8916,182.6384,472.0948,173.1038,473.0307,163.5692,472.9298,154.0346,472.5,144.5" style="stroke:#383838;stroke-width:1.5;"/><polygon fill="#C2C2C2" points="652.8108,166.1444,651.1984,168.3475,649.2912,171.5745,646.5636,173.7491,643.6974,174.9384,641.412,175.0416,638.4747,173.5543,635.7032,172.5827,633.5995,170.6099,632.4961,168.3515,631.8417,166.5533,631.2006,164.2045,630.16,162.1832,630.9596,160.2098,631.6602,158.048,634.2893,156.3382,636.139,154.1198,638.4284,153.3832,641.1501,152.7488,644.6404,153.1257,646.5521,154.0273,648.7747,154.4359,651.4772,157.2047,652.4193,160.1277,652.8286,162.1221,652.365,165.4086" style="stroke:#383838;stroke-width:1.0;"/><path d="M644.7188,169.1094 Q644.1406,169.4063 643.5,169.5469 Q642.8594,169.7031 642.1563,169.7031 Q639.6563,169.7031 638.3281,168.0625 Q637.0156,166.4063 637.0156,163.2813 Q637.0156,160.1563 638.3281,158.5 Q639.6563,156.8438 642.1563,156.8438 Q642.8594,156.8438 643.5,157 Q644.1563,157.1563 644.7188,157.4531 L644.7188,160.1719 Q644.0938,159.5938 643.5,159.3281 Q642.9063,159.0469 642.2813,159.0469 Q640.9375,159.0469 640.25,160.125 Q639.5625,161.1875 639.5625,163.2813 Q639.5625,165.375 640.25,166.4531 Q640.9375,167.5156 642.2813,167.5156 Q642.9063,167.5156 643.5,167.25 Q644.0938,166.9688 644.7188,166.3906 L644.7188,169.1094 Z " fill="#000000"/><text fill="#000000" font-family="FG Virgil" font-size="12" font-style="italic" lengthAdjust="spacingAndGlyphs" textLength="60" x="660.25" y="160.6387">«domain»</text><text fill="#000000" font-family="FG Virgil" font-size="12" lengthAdjust="spacingAndGlyphs" textLength="56" x="662.25" y="174.6074">Catalogo</text><path d="M473.5,182.4375 L473.5,182.7177 L483.525,181.8851 L493.55,182.6952 L503.575,182.9704 L513.6,181.4863 L523.625,182.3339 L533.65,181.8688 L543.675,181.9262 L553.7,182.3466 L563.725,181.5157 L573.75,183.1757 L583.775,181.5971 L593.8,182.1738 L603.825,183.0134 L613.85,182.3231 L623.875,182.5285 L633.9,182.3949 L643.925,182.6755 L653.95,182.7563 L663.975,183.2184 L674,183.3322 L684.025,183.3432 L694.05,182.777 L704.075,183.0556 L714.1,183.3738 L724.125,181.4759 L734.15,183.3422 L744.175,182.0422 L754.2,183.1492 L764.225,181.7775 L774.25,182.3462 L784.275,183.4263 L794.3,182.3725 L804.325,182.5779 L814.35,182.889 L824.375,182.9925 L834.4,182.4323 L844.425,182.8205 L854.45,181.6743 L864.475,182.8167 L874.5,182.4375 " fill="#F8F8F8" style="stroke:#383838;stroke-width:1.5;"/><path d="M473.5,190.4375 L473.5,190.7177 L483.525,189.8851 L493.55,190.6952 L503.575,190.9704 L513.6,189.4863 L523.625,190.3339 L533.65,189.8688 L543.675,189.9262 L553.7,190.3466 L563.725,189.5157 L573.75,191.1757 L583.775,189.5971 L593.8,190.1738 L603.825,191.0134 L613.85,190.3231 L623.875,190.5285 L633.9,190.3949 L643.925,190.6755 L653.95,190.7563 L663.975,191.2184 L674,191.3322 L684.025,191.3432 L694.05,190.777 L704.075,191.0556 L714.1,191.3738 L724.125,189.4759 L734.15,191.3422 L744.175,190.0422 L754.2,191.1492 L764.225,189.7775 L774.25,190.3462 L784.275,191.4263 L794.3,190.3725 L804.325,190.5779 L814.35,190.889 L824.375,190.9925 L834.4,190.4323 L844.425,190.8205 L854.45,189.6743 L864.475,190.8167 L874.5,190.4375 " fill="#F8F8F8" style="stroke:#383838;stroke-width:1.5;"/><text fill="#000000" font-family="FG Virgil" font-size="11" lengthAdjust="spacingAndGlyphs" textLength="391" x="478.5" y="204.6479">Catalogo(titulo,descricaoBreve,descricaoCompleta,icone,listEquipas)</text><!--MD5=[37de35b2239f3e75f2a4e341603fb23d]
class CatalogoRepository--><polygon fill="#F8F8F8" points="1087,144.5,1087,144.7102,1097.2667,144.0857,1107.5333,144.6933,1117.8,144.8997,1128.0667,143.7866,1138.3333,144.4223,1148.6,144.0735,1158.8667,144.1165,1169.1333,144.4318,1179.4,143.8086,1189.6667,145.0536,1199.9333,143.8697,1210.2,144.3022,1220.4667,144.9319,1230.7333,144.4142,1241,144.5,1241.0682,144.5,1240.9681,154.0346,1241.1785,163.5692,1241.2391,173.1038,1241.5857,182.6384,1241.6711,192.173,1241.6793,201.7076,1241,211.2422,1241,211.4968,1230.7333,211.7058,1220.4667,211.9444,1210.2,210.521,1199.9333,211.9207,1189.6667,210.9457,1179.4,211.776,1169.1333,210.7472,1158.8667,211.1737,1148.6,211.9838,1138.3333,211.1935,1128.0667,211.3475,1117.8,211.5808,1107.5333,211.6584,1097.2667,211.2383,1087,211.2422,1087.2872,211.2422,1086.4276,201.7076,1087.2844,192.173,1087.5482,182.6384,1087.4445,173.1038,1087.613,163.5692,1086.5169,154.0346,1087,144.5" style="stroke:#383838;stroke-width:1.5;"/><polygon fill="#C2C2C2" points="1113.0608,166.1444,1111.4484,168.3475,1109.5412,171.5745,1106.8136,173.7491,1103.9474,174.9384,1101.662,175.0416,1098.7247,173.5543,1095.9532,172.5827,1093.8495,170.6099,1092.7461,168.3515,1092.0917,166.5533,1091.4506,164.2045,1090.41,162.1832,1091.2096,160.2098,1091.9102,158.048,1094.5393,156.3382,1096.389,154.1198,1098.6784,153.3832,1101.4001,152.7488,1104.8904,153.1257,1106.8021,154.0273,1109.0247,154.4359,1111.7272,157.2047,1112.6693,160.1277,1113.0786,162.1221,1112.615,165.4086" style="stroke:#383838;stroke-width:1.0;"/><path d="M1104.9688,169.1094 Q1104.3906,169.4063 1103.75,169.5469 Q1103.1094,169.7031 1102.4063,169.7031 Q1099.9063,169.7031 1098.5781,168.0625 Q1097.2656,166.4063 1097.2656,163.2813 Q1097.2656,160.1563 1098.5781,158.5 Q1099.9063,156.8438 1102.4063,156.8438 Q1103.1094,156.8438 1103.75,157 Q1104.4063,157.1563 1104.9688,157.4531 L1104.9688,160.1719 Q1104.3438,159.5938 1103.75,159.3281 Q1103.1563,159.0469 1102.5313,159.0469 Q1101.1875,159.0469 1100.5,160.125 Q1099.8125,161.1875 1099.8125,163.2813 Q1099.8125,165.375 1100.5,166.4531 Q1101.1875,167.5156 1102.5313,167.5156 Q1103.1563,167.5156 1103.75,167.25 Q1104.3438,166.9688 1104.9688,166.3906 L1104.9688,169.1094 Z " fill="#000000"/><text fill="#000000" font-family="FG Virgil" font-size="12" font-style="italic" lengthAdjust="spacingAndGlyphs" textLength="77" x="1138.5" y="160.6387">«repository»</text><text fill="#000000" font-family="FG Virgil" font-size="12" lengthAdjust="spacingAndGlyphs" textLength="122" x="1116" y="174.6074">CatalogoRepository</text><path d="M1088,182.4375 L1088,182.7177 L1098.1333,181.8851 L1108.2667,182.6952 L1118.4,182.9704 L1128.5333,181.4863 L1138.6667,182.3339 L1148.8,181.8688 L1158.9333,181.9262 L1169.0667,182.3466 L1179.2,181.5157 L1189.3333,183.1757 L1199.4667,181.5971 L1209.6,182.1738 L1219.7333,183.0134 L1229.8667,182.3231 L1240,182.4375 " fill="#F8F8F8" style="stroke:#383838;stroke-width:1.5;"/><path d="M1088,190.4375 L1088,190.7177 L1098.1333,189.8851 L1108.2667,190.6952 L1118.4,190.9704 L1128.5333,189.4863 L1138.6667,190.3339 L1148.8,189.8688 L1158.9333,189.9262 L1169.0667,190.3466 L1179.2,189.5157 L1189.3333,191.1757 L1199.4667,189.5971 L1209.6,190.1738 L1219.7333,191.0134 L1229.8667,190.3231 L1240,190.4375 " fill="#F8F8F8" style="stroke:#383838;stroke-width:1.5;"/><text fill="#000000" font-family="FG Virgil" font-size="11" lengthAdjust="spacingAndGlyphs" textLength="52" x="1093" y="204.6479">save(cat)</text><!--MD5=[c19bbd5e5c2f4d9234b09f570bb44089]
class UtilizadorRepository--><polygon fill="#F8F8F8" points="322.5,7,322.5,7.2102,332.1875,6.5857,341.875,7.1933,351.5625,7.3997,361.25,6.2866,370.9375,6.9223,380.625,6.5735,390.3125,6.6165,400,6.9318,409.6875,6.3086,419.375,7.5536,429.0625,6.3697,438.75,6.8022,448.4375,7.4319,458.125,6.9142,467.8125,7.0682,477.5,7,477.4681,7,477.6785,17.7875,477.7391,28.575,478.0857,39.3625,478.1711,50.15,477.5,60.9375,477.5,61.6168,467.8125,61.1921,458.125,61.4011,448.4375,61.6397,438.75,60.2163,429.0625,61.616,419.375,60.641,409.6875,61.4713,400,60.4425,390.3125,60.869,380.625,61.6791,370.9375,60.8888,361.25,61.0428,351.5625,61.2761,341.875,61.3537,332.1875,60.9336,322.5,60.9375,322.7872,60.9375,321.9276,50.15,322.7844,39.3625,323.0482,28.575,322.9445,17.7875,322.5,7" style="stroke:#383838;stroke-width:1.5;"/><polygon fill="#C2C2C2" points="348.5608,28.6444,346.9484,30.8475,345.0412,34.0745,342.3136,36.2491,339.4474,37.4384,337.162,37.5416,334.2247,36.0543,331.4532,35.0827,329.3495,33.1099,328.2461,30.8515,327.5917,29.0533,326.9506,26.7045,325.91,24.6832,326.7096,22.7098,327.4102,20.548,330.0393,18.8382,331.889,16.6198,334.1784,15.8832,336.9001,15.2488,340.3904,15.6257,342.3021,16.5273,344.5247,16.9359,347.2272,19.7047,348.1693,22.6277,348.5786,24.6221,348.115,27.9086" style="stroke:#383838;stroke-width:1.0;"/><path d="M340.4688,31.6094 Q339.8906,31.9063 339.25,32.0469 Q338.6094,32.2031 337.9063,32.2031 Q335.4063,32.2031 334.0781,30.5625 Q332.7656,28.9063 332.7656,25.7813 Q332.7656,22.6563 334.0781,21 Q335.4063,19.3438 337.9063,19.3438 Q338.6094,19.3438 339.25,19.5 Q339.9063,19.6563 340.4688,19.9531 L340.4688,22.6719 Q339.8438,22.0938 339.25,21.8281 Q338.6563,21.5469 338.0313,21.5469 Q336.6875,21.5469 336,22.625 Q335.3125,23.6875 335.3125,25.7813 Q335.3125,27.875 336,28.9531 Q336.6875,30.0156 338.0313,30.0156 Q338.6563,30.0156 339.25,29.75 Q339.8438,29.4688 340.4688,28.8906 L340.4688,31.6094 Z " fill="#000000"/><text fill="#000000" font-family="FG Virgil" font-size="12" font-style="italic" lengthAdjust="spacingAndGlyphs" textLength="77" x="374.5" y="23.1387">«repository»</text><text fill="#000000" font-family="FG Virgil" font-size="12" lengthAdjust="spacingAndGlyphs" textLength="123" x="351.5" y="37.1074">UtilizadorRepository</text><path d="M323.5,44.9375 L323.5,45.2177 L333.7,44.3851 L343.9,45.1952 L354.1,45.4704 L364.3,43.9863 L374.5,44.8339 L384.7,44.3688 L394.9,44.4262 L405.1,44.8466 L415.3,44.0157 L425.5,45.6757 L435.7,44.0971 L445.9,44.6738 L456.1,45.5134 L466.3,44.8231 L476.5,44.9375 " fill="#F8F8F8" style="stroke:#383838;stroke-width:1.5;"/><path d="M323.5,52.9375 L323.5,53.2177 L333.7,52.3851 L343.9,53.1952 L354.1,53.4704 L364.3,51.9863 L374.5,52.8339 L384.7,52.3688 L394.9,52.4262 L405.1,52.8466 L415.3,52.0157 L425.5,53.6757 L435.7,52.0971 L445.9,52.6738 L456.1,53.5134 L466.3,52.8231 L476.5,52.9375 " fill="#F8F8F8" style="stroke:#383838;stroke-width:1.5;"/><!--MD5=[e3d99162b7328c3f1201e3bd1b8bcde6]
class EquipaRepository--><polygon fill="#F8F8F8" points="910.5,144.5,910.5,144.7102,920.5714,144.0857,930.6429,144.6933,940.7143,144.8997,950.7857,143.7866,960.8571,144.4223,970.9286,144.0735,981,144.1165,991.0714,144.4318,1001.1429,143.8086,1011.2143,145.0536,1021.2857,143.8697,1031.3571,144.3022,1041.4286,144.9319,1051.5,144.5,1051.4142,144.5,1051.5682,154.0346,1051.4681,163.5692,1051.6785,173.1038,1051.7391,182.6384,1052.0857,192.173,1052.1711,201.7076,1051.5,211.2422,1051.5,211.9214,1041.4286,211.4968,1031.3571,211.7058,1021.2857,211.9444,1011.2143,210.521,1001.1429,211.9207,991.0714,210.9457,981,211.776,970.9286,210.7472,960.8571,211.1737,950.7857,211.9838,940.7143,211.1935,930.6429,211.3475,920.5714,211.5808,910.5,211.2422,910.9162,211.2422,910.4961,201.7076,910.7872,192.173,909.9276,182.6384,910.7844,173.1038,911.0482,163.5692,910.9445,154.0346,910.5,144.5" style="stroke:#383838;stroke-width:1.5;"/><polygon fill="#C2C2C2" points="936.5608,166.1444,934.9484,168.3475,933.0412,171.5745,930.3136,173.7491,927.4474,174.9384,925.162,175.0416,922.2247,173.5543,919.4532,172.5827,917.3495,170.6099,916.2461,168.3515,915.5917,166.5533,914.9506,164.2045,913.91,162.1832,914.7096,160.2098,915.4102,158.048,918.0393,156.3382,919.889,154.1198,922.1784,153.3832,924.9001,152.7488,928.3904,153.1257,930.3021,154.0273,932.5247,154.4359,935.2272,157.2047,936.1693,160.1277,936.5786,162.1221,936.115,165.4086" style="stroke:#383838;stroke-width:1.0;"/><path d="M928.4688,169.1094 Q927.8906,169.4063 927.25,169.5469 Q926.6094,169.7031 925.9063,169.7031 Q923.4063,169.7031 922.0781,168.0625 Q920.7656,166.4063 920.7656,163.2813 Q920.7656,160.1563 922.0781,158.5 Q923.4063,156.8438 925.9063,156.8438 Q926.6094,156.8438 927.25,157 Q927.9063,157.1563 928.4688,157.4531 L928.4688,160.1719 Q927.8438,159.5938 927.25,159.3281 Q926.6563,159.0469 926.0313,159.0469 Q924.6875,159.0469 924,160.125 Q923.3125,161.1875 923.3125,163.2813 Q923.3125,165.375 924,166.4531 Q924.6875,167.5156 926.0313,167.5156 Q926.6563,167.5156 927.25,167.25 Q927.8438,166.9688 928.4688,166.3906 L928.4688,169.1094 Z " fill="#000000"/><text fill="#000000" font-family="FG Virgil" font-size="12" font-style="italic" lengthAdjust="spacingAndGlyphs" textLength="77" x="955.5" y="160.6387">«repository»</text><text fill="#000000" font-family="FG Virgil" font-size="12" lengthAdjust="spacingAndGlyphs" textLength="109" x="939.5" y="174.6074">EquipaRepository</text><path d="M911.5,182.4375 L911.5,182.7177 L921.4286,181.8851 L931.3571,182.6952 L941.2857,182.9704 L951.2143,181.4863 L961.1429,182.3339 L971.0714,181.8688 L981,181.9262 L990.9286,182.3466 L1000.8571,181.5157 L1010.7857,183.1757 L1020.7143,181.5971 L1030.6429,182.1738 L1040.5714,183.0134 L1050.5,182.4375 " fill="#F8F8F8" style="stroke:#383838;stroke-width:1.5;"/><path d="M911.5,190.4375 L911.5,190.7177 L921.4286,189.8851 L931.3571,190.6952 L941.2857,190.9704 L951.2143,189.4863 L961.1429,190.3339 L971.0714,189.8688 L981,189.9262 L990.9286,190.3466 L1000.8571,189.5157 L1010.7857,191.1757 L1020.7143,189.5971 L1030.6429,190.1738 L1040.5714,191.0134 L1050.5,190.4375 " fill="#F8F8F8" style="stroke:#383838;stroke-width:1.5;"/><text fill="#000000" font-family="FG Virgil" font-size="11" lengthAdjust="spacingAndGlyphs" textLength="70" x="916.5" y="204.6479">listEquipas()</text><!--MD5=[9a0e8f7957502662f95e783c1c3d84fe]
class ColaboradorRepository--><polygon fill="#F8F8F8" points="1276.5,147.5,1276.5,147.7102,1286.2222,147.0857,1295.9444,147.6933,1305.6667,147.8997,1315.3889,146.7866,1325.1111,147.4223,1334.8333,147.0735,1344.5556,147.1165,1354.2778,147.4318,1364,146.8086,1373.7222,148.0536,1383.4444,146.8697,1393.1667,147.3022,1402.8889,147.9319,1412.6111,147.4142,1422.3333,147.5682,1432.0556,147.4681,1441.7778,147.6785,1451.5,147.5,1451.7391,147.5,1452.0857,157.6341,1452.1711,167.7682,1452.1793,177.9023,1451.7546,188.0365,1451.9636,198.1706,1451.5,208.3047,1451.5,209.0069,1441.7778,207.5835,1432.0556,208.9832,1422.3333,208.0082,1412.6111,208.8385,1402.8889,207.8097,1393.1667,208.2362,1383.4444,209.0463,1373.7222,208.256,1364,208.41,1354.2778,208.6433,1344.5556,208.7209,1334.8333,208.3008,1325.1111,208.5919,1315.3889,207.7323,1305.6667,208.5891,1295.9444,208.8529,1286.2222,208.7492,1276.5,208.3047,1277.113,208.3047,1276.0169,198.1706,1275.8478,188.0365,1275.8786,177.9023,1276.4411,167.7682,1276.3035,157.6341,1276.5,147.5" style="stroke:#383838;stroke-width:1.5;"/><polygon fill="#C2C2C2" points="1302.5608,166.1756,1300.9484,168.3788,1299.0412,171.6057,1296.3136,173.7804,1293.4474,174.9696,1291.162,175.0728,1288.2247,173.5855,1285.4532,172.6139,1283.3495,170.6412,1282.2461,168.3828,1281.5917,166.5845,1280.9506,164.2357,1279.91,162.2145,1280.7096,160.241,1281.4102,158.0792,1284.0393,156.3695,1285.889,154.1511,1288.1784,153.4144,1290.9001,152.7801,1294.3904,153.157,1296.3021,154.0585,1298.5247,154.4672,1301.2272,157.236,1302.1693,160.159,1302.5786,162.1534,1302.115,165.4399" style="stroke:#383838;stroke-width:1.0;"/><path d="M1294.4688,169.1406 Q1293.8906,169.4375 1293.25,169.5781 Q1292.6094,169.7344 1291.9063,169.7344 Q1289.4063,169.7344 1288.0781,168.0938 Q1286.7656,166.4375 1286.7656,163.3125 Q1286.7656,160.1875 1288.0781,158.5313 Q1289.4063,156.875 1291.9063,156.875 Q1292.6094,156.875 1293.25,157.0313 Q1293.9063,157.1875 1294.4688,157.4844 L1294.4688,160.2031 Q1293.8438,159.625 1293.25,159.3594 Q1292.6563,159.0781 1292.0313,159.0781 Q1290.6875,159.0781 1290,160.1563 Q1289.3125,161.2188 1289.3125,163.3125 Q1289.3125,165.4063 1290,166.4844 Q1290.6875,167.5469 1292.0313,167.5469 Q1292.6563,167.5469 1293.25,167.2813 Q1293.8438,167 1294.4688,166.4219 L1294.4688,169.1406 Z " fill="#000000"/><text fill="#000000" font-family="FG Virgil" font-size="12" lengthAdjust="spacingAndGlyphs" textLength="143" x="1305.5" y="167.6543">ColaboradorRepository</text><path d="M1277.5,179.5 L1277.5,179.7802 L1287.6765,178.9476 L1297.8529,179.7577 L1308.0294,180.0329 L1318.2059,178.5488 L1328.3824,179.3964 L1338.5588,178.9313 L1348.7353,178.9887 L1358.9118,179.4091 L1369.0882,178.5782 L1379.2647,180.2382 L1389.4412,178.6596 L1399.6176,179.2363 L1409.7941,180.0759 L1419.9706,179.3856 L1430.1471,179.591 L1440.3235,179.4574 L1450.5,179.5 " fill="#F8F8F8" style="stroke:#383838;stroke-width:1.5;"/><path d="M1277.5,187.5 L1277.5,187.7802 L1287.6765,186.9476 L1297.8529,187.7577 L1308.0294,188.0329 L1318.2059,186.5488 L1328.3824,187.3964 L1338.5588,186.9313 L1348.7353,186.9887 L1358.9118,187.4091 L1369.0882,186.5782 L1379.2647,188.2382 L1389.4412,186.6596 L1399.6176,187.2363 L1409.7941,188.0759 L1419.9706,187.3856 L1430.1471,187.591 L1440.3235,187.4574 L1450.5,187.5 " fill="#F8F8F8" style="stroke:#383838;stroke-width:1.5;"/><text fill="#000000" font-family="FG Virgil" font-size="11" lengthAdjust="spacingAndGlyphs" textLength="42" x="1282.5" y="201.7104">findAll()</text><!--MD5=[a594f6240f6df84ced6c22f6f65865d0]
link NovoCatalogoUI to NovoCatalogoController--><path d="M222,61.0853 L222.2802,61.0853 L221.4476,71.3186 L222.2577,81.5519 L222.5329,91.7852 L221.0488,102.0185 L221.8964,112.2518 L221.4313,122.4851 L222,132.7184 " fill="none" style="stroke:#383838;stroke-width:1.0;"/><polygon fill="#383838" points="222,137.9747,222.064,138.0032,222.6738,136.1186,223.6589,134.4009,224.5217,132.6288,224.9827,130.6781,226,128.9747,225.9817,128.9564,225.0995,129.6742,224.3096,130.4843,223.5839,131.3586,222.637,132.0117,222,132.9747,222.1305,133.1052,221.0514,132.0261,220.3534,131.3281,219.7018,130.6765,218.7798,129.7545,218,128.9747,218.0208,128.9839,218.7903,130.7704,219.6544,132.5989,220.4728,134.4071,221.3784,136.254,222,137.9747" style="stroke:#383838;stroke-width:1.0;"/><text fill="#000000" font-family="FG Virgil" font-size="13" lengthAdjust="spacingAndGlyphs" textLength="83" x="223" y="104.0669">theController</text><!--MD5=[7413daf2e540ac46a8a75fe5878e5ad5]
link NovoCatalogoController to ColaboradorRepository--><path d="M325.1409,137.9244 L325.1706,138.013 L328.5024,136.6043 L332.0081,135.7148 L335.4573,134.6563 L338.7201,133.0417 L342.2408,132.1969 L342.2303,132.164 L345.7363,130.8849 L349.2952,129.7717 L352.8908,128.7739 L356.3598,127.3786 L360.0061,126.54 L360.0768,126.7757 L363.5828,125.1738 L367.2954,124.26 L371.0332,123.4302 L374.6243,122.1119 L378.2926,121.0505 L378.3008,121.0797 L382.0215,119.9918 L385.7794,119.0368 L389.5194,118.0177 L393.2937,117.1209 L396.9562,115.8252 L397.0306,116.114 L400.8108,115.1447 L404.5431,113.989 L408.3456,113.106 L412.1514,112.2359 L415.8529,110.9607 L415.7805,110.6485 L419.7182,110.3731 L423.4174,109.0696 L427.2979,108.5477 L430.9917,107.2209 L434.8385,106.5539 L434.8325,106.524 L438.6903,106.1064 L442.4064,104.9917 L446.2061,104.2882 L450.0129,103.6194 L453.7689,102.7014 L453.8001,102.8837 L457.5148,102.0594 L461.2829,101.5467 L464.9647,100.5298 L468.7751,100.2649 L472.5,99.5 L472.535,99.7411 L475.8489,99.2134 L479.1802,98.8054 L482.4308,97.8412 L485.7405,97.2847 L489.1027,97.0895 L489.0667,96.8157 L492.7132,96.5882 L496.3191,96.0521 L499.9838,95.9636 L503.5481,95.111 L507.1721,94.7126 L507.1539,94.5612 L511.0716,94.3471 L514.9117,93.4859 L518.807,93.0849 L522.7562,93.1341 L526.6094,92.3815 L526.6305,92.574 L530.7863,92.2514 L534.8763,91.3301 L539.0487,91.1587 L543.2031,90.8239 L547.3158,90.1084 L547.2947,89.8995 L551.6869,89.6255 L556.0721,89.283 L560.4709,89.0749 L564.8171,88.3443 L569.1926,87.9056 L569.2115,88.1103 L573.7597,87.2364 L578.3443,86.7576 L582.9823,86.8561 L587.5221,85.8919 L592.1411,85.7851 L592.1602,86.0105 L596.9332,85.4714 L601.6997,84.856 L606.4807,84.4128 L611.2955,84.3675 L616.0626,83.7591 L616.0523,83.6265 L621.042,83.6376 L625.9619,82.7465 L630.9612,82.8812 L635.9158,82.4384 L640.8583,81.84 L640.8659,81.9486 L645.974,81.5009 L651.1094,81.442 L656.2201,81.0319 L661.3205,80.4748 L666.4294,80.0398 L666.437,80.1587 L671.6753,79.6482 L676.9488,79.6899 L682.1825,79.107 L687.4326,78.781 L692.6773,78.3707 L692.662,78.1007 L698.0323,77.8857 L703.4211,77.9959 L708.7837,77.6459 L714.1369,77.131 L719.5032,76.8449 L719.496,76.7019 L724.9593,76.4737 L730.41,75.9923 L735.8955,76.2069 L741.3638,76.077 L746.8083,75.4747 L746.8185,75.7084 L752.3589,75.5428 L757.88,74.933 L763.4214,74.7919 L768.9494,74.3406 L774.494,74.2722 L774.4986,74.3983 L780.0915,74.1773 L785.6899,74.1085 L791.2707,73.5566 L796.8658,73.3944 L802.4614,73.2496 L802.4672,73.4466 L808.099,73.3355 L813.7149,72.6897 L819.3492,72.6651 L824.9838,72.6514 L830.6119,72.419 L830.6059,72.1476 L836.2624,72.4508 L841.9084,72.2831 L847.5518,71.9985 L853.2012,71.9812 L858.8467,71.7928 L858.8514,72.1166 L864.4888,71.5717 L870.1369,71.7688 L875.7808,71.6738 L881.4238,71.5164 L887.0671,71.3829 L887.0675,71.4456 L892.6889,71.3971 L898.3082,71.0331 L903.9303,71.0961 L909.5515,71.0329 L915.1743,71.2018 L915.1744,71.2302 L920.7535,71.2529 L926.3326,71.2976 L931.9112,71.1083 L937.4905,71.2195 L943.0696,71.2615 L943.069,71.2081 L948.5895,71.5804 L954.1056,71.5761 L959.618,71.2333 L965.137,71.4792 L970.6543,71.5742 L970.6488,71.3177 L976.0921,71.8179 L981.5301,72.0757 L986.9646,72.1629 L992.3904,71.843 L997.8296,72.1521 L997.8362,72.3582 L1003.1524,71.9932 L1008.4993,72.5832 L1013.8256,72.5324 L1019.1647,72.8794 L1024.4967,73.0075 L1024.5014,73.1142 L1029.718,73.4461 L1034.9068,73.1458 L1040.1422,73.9056 L1045.3485,74.0025 L1050.5571,74.1524 L1050.5661,74.3101 L1055.647,74.7736 L1060.6991,74.7335 L1065.7743,75.0982 L1070.8463,75.4045 L1075.9118,75.5992 L1075.9181,75.6866 L1080.8219,75.9509 L1085.7546,76.6185 L1090.6227,76.3853 L1095.5701,77.2583 L1100.4622,77.3599 L1100.4378,77.0836 L1105.1706,77.538 L1109.9227,78.2123 L1114.6517,78.6245 L1119.3608,78.8112 L1124.1096,79.4467 L1124.1291,79.6296 L1128.6438,79.9799 L1133.2022,80.7379 L1137.7285,81.1967 L1142.2048,81.1888 L1146.7551,81.8719 L1146.7325,81.6965 L1151.0568,82.3702 L1155.3933,83.139 L1159.705,83.715 L1164.0082,84.2253 L1168.3001,84.6477 L1168.2769,84.4975 L1172.4124,85.5549 L1176.4813,86.1815 L1180.5043,86.51 L1184.5605,87.0535 L1188.6458,87.7862 L1188.6135,87.6108 L1192.4381,88.3951 L1196.276,89.2516 L1200.069,89.8644 L1203.8503,90.4143 L1207.6936,91.2996 L1207.7403,91.5111 L1211.1797,91.8806 L1214.8021,93.0779 L1218.3251,93.8254 L1221.85,94.5814 L1225.3445,95.2002 L1225.4237,95.4976 L1228.5475,95.9545 L1231.7723,96.791 L1235.0971,98.0029 L1238.2007,98.3837 L1241.5,99.5 L1241.4671,99.4013 L1243.7778,100.3021 L1246.0327,101.0359 L1248.2342,101.6092 L1250.5401,102.4957 L1252.8077,103.2672 L1252.9327,103.5737 L1255.155,104.4474 L1257.1844,104.8484 L1259.5361,106.0394 L1261.675,106.7089 L1263.9997,107.8336 L1263.9947,107.8231 L1266.2549,108.9966 L1268.4784,110.0928 L1270.4708,110.7028 L1272.8734,112.1757 L1274.9963,113.0602 L1274.9981,113.0635 L1277.024,113.9923 L1279.186,115.1749 L1281.4978,116.6369 L1283.626,117.7565 L1285.7178,118.8082 L1285.7141,118.8019 L1287.639,119.7771 L1290.0133,121.5121 L1291.8672,122.3671 L1293.8916,123.5104 L1296.0843,124.9385 L1296.0682,124.9133 L1298.2123,126.4339 L1300.2048,127.7183 L1302.0519,128.776 L1303.9936,129.9811 L1306.0162,131.3124 L1306.059,131.3746 L1307.9466,132.6763 L1309.6553,133.7178 L1311.771,135.351 L1313.691,136.6998 L1315.4337,137.7908 L1315.3771,137.7134 L1317.0859,138.9256 L1319.1399,140.6106 L1320.7332,141.6649 L1322.4923,142.9461 L1324.257,144.235 " fill="none" style="stroke:#383838;stroke-width:1.0;"/><polygon fill="#383838" points="1328.404,147.3877,1328.4654,147.4214,1327.3342,145.5949,1326.563,143.9663,1325.6745,142.2732,1324.4006,140.3682,1323.6603,138.7565,1323.6346,138.753,1323.6721,139.8584,1323.839,140.9813,1324.0958,142.1165,1324.0426,143.2095,1324.4237,144.3616,1324.4486,144.5445,1323.2743,144.3061,1322.1727,144.6017,1321.08,144.9623,1319.9357,144.944,1318.8186,145.125,1318.8238,145.1472,1320.7332,145.5672,1322.6664,146.088,1324.5881,146.5602,1326.5318,147.1252,1328.404,147.3877" style="stroke:#383838;stroke-width:1.0;"/><!--MD5=[89b6f6eab4714cbc1842106a59892fbf]
link NovoCatalogoController to CatalogoRepository--><path d="M325.1409,137.9244 L325.1706,138.013 L328.5024,136.6043 L332.0081,135.7148 L335.4573,134.6563 L338.7201,133.0417 L342.2408,132.1969 L342.2303,132.164 L345.7363,130.8849 L349.2952,129.7717 L352.8908,128.7739 L356.3598,127.3786 L360.0061,126.54 L360.0768,126.7757 L363.5828,125.1738 L367.2954,124.26 L371.0332,123.4302 L374.6243,122.1119 L378.2926,121.0505 L378.3008,121.0797 L382.0215,119.9918 L385.7794,119.0368 L389.5194,118.0177 L393.2937,117.1209 L396.9562,115.8252 L397.0306,116.114 L400.8108,115.1447 L404.5431,113.989 L408.3456,113.106 L412.1514,112.2359 L415.8529,110.9607 L415.7805,110.6485 L419.7182,110.3731 L423.4174,109.0696 L427.2979,108.5477 L430.9917,107.2209 L434.8385,106.5539 L434.8325,106.524 L438.6903,106.1064 L442.4064,104.9917 L446.2061,104.2882 L450.0129,103.6194 L453.7689,102.7014 L453.8001,102.8837 L457.5148,102.0594 L461.2829,101.5467 L464.9647,100.5298 L468.7751,100.2649 L472.5,99.5 L472.5351,99.7411 L475.029,99.3311 L477.5404,99.0409 L479.9707,98.1945 L482.4604,97.7557 L485.0027,97.6782 L484.9663,97.4044 L487.7214,97.2904 L490.4356,96.8679 L493.2092,96.8928 L495.8812,96.1537 L498.6136,95.8688 L498.5959,95.7174 L504.6749,95.2617 L510.6781,94.1587 L516.7352,93.5161 L522.845,93.3238 L528.8609,92.3295 L528.8801,92.5222 L535.6498,91.9817 L542.3599,90.8418 L549.1448,90.4527 L555.9133,89.8999 L562.6439,88.9661 L562.6262,88.7569 L569.9845,88.303 L577.337,87.7806 L584.7008,87.3927 L592.0204,86.4816 L599.3647,85.8627 L599.3792,86.0678 L607.1595,85.0654 L614.9677,84.4587 L622.8168,84.4304 L630.5907,83.3374 L638.4253,83.1034 L638.4382,83.3292 L646.591,82.7288 L654.7395,82.052 L662.8978,81.5477 L671.0789,81.442 L679.2277,80.7722 L679.222,80.6393 L687.6284,80.6712 L695.9956,79.7991 L704.4074,79.9549 L712.7941,79.532 L721.174,78.9531 L721.1776,79.0619 L725.4177,78.8359 L729.6706,78.9994 L733.912,78.811 L738.1486,78.4754 L742.3892,78.2619 L742.3922,78.3811 L746.6432,78.0977 L750.908,78.3676 L755.1571,78.0118 L759.4127,77.9133 L763.6662,77.7303 L763.6616,77.46 L767.9159,77.4779 L772.1758,77.8215 L776.4278,77.7044 L780.677,77.422 L784.9301,77.3688 L784.9289,77.2256 L789.1645,77.2353 L793.398,76.9914 L797.6374,77.4445 L801.8739,77.5527 L806.1063,77.1878 L806.1064,77.4218 L810.3092,77.4987 L814.5118,77.1311 L818.7145,77.2326 L822.9172,77.0236 L827.12,77.1979 L827.1213,77.3242 L831.2764,77.35 L835.433,77.5281 L839.5848,77.2229 L843.7405,77.3076 L847.8964,77.4097 L847.9005,77.6067 L851.9945,77.7465 L856.0774,77.3515 L860.1733,77.5778 L864.2693,77.8151 L868.3608,77.8335 L868.3521,77.5622 L872.3814,78.1198 L876.3956,78.2067 L880.406,78.1766 L884.425,78.4139 L888.4385,78.48 L888.453,78.8035 L892.3555,78.517 L896.2912,78.9716 L900.2139,79.1345 L904.1337,79.235 L908.0546,79.3595 L908.0583,79.4221 L911.8736,79.6345 L915.6703,79.5319 L919.4921,79.8556 L923.3065,80.0533 L927.1346,80.4827 L927.1367,80.511 L930.8313,80.7973 L934.5275,81.1054 L938.2063,81.1802 L941.9075,81.5547 L945.6035,81.8601 L945.5986,81.8069 L949.1837,82.4438 L952.7342,82.7057 L956.2536,82.6304 L959.8271,83.1414 L963.3868,83.5021 L963.358,83.2471 L966.8056,84.0129 L970.2261,84.5377 L973.6275,84.8929 L976.9833,84.8434 L980.4095,85.4192 L980.4373,85.6235 L983.6025,85.5326 L986.8965,86.3885 L990.1041,86.6091 L993.3653,87.224 L996.597,87.622 L996.6143,87.7274 L999.6864,88.3289 L1002.6564,88.3058 L1005.7977,89.3299 L1008.8319,89.6993 L1011.8746,90.121 L1011.905,90.276 L1014.7972,91.0082 L1017.5922,91.2456 L1020.4653,91.8808 L1023.3271,92.4586 L1026.1674,92.9266 L1026.1876,93.012 L1028.814,93.5509 L1031.5333,94.4832 L1034.0452,94.5366 L1036.8118,95.6694 L1039.4008,96.0495 L1039.3248,95.7828 L1041.7548,96.5086 L1044.2454,97.4468 L1046.6638,98.1319 L1049.0201,98.5993 L1051.5,99.5 L1051.5616,99.6733 L1053.5036,100.2519 L1055.583,101.217 L1057.5616,101.8984 L1059.383,102.1377 L1061.4372,103.0317 L1061.367,102.8694 L1063.3755,103.8272 L1065.422,104.873 L1067.3914,105.7405 L1069.3345,106.5471 L1071.2425,107.2723 L1071.1742,107.1366 L1073.2928,108.492 L1075.2156,109.4579 L1077.003,110.1544 L1078.888,111.0451 L1080.859,112.107 L1080.771,111.9518 L1082.6862,113.0868 L1084.6376,114.2857 L1086.4667,115.2689 L1088.2643,116.1965 L1090.2301,117.4208 L1090.3451,117.6044 L1091.9356,118.3836 L1093.9761,119.8814 L1095.7722,120.9887 L1097.5729,122.1035 L1099.2989,123.0991 L1099.4721,123.3535 L1100.9794,124.1943 L1102.7077,125.3598 L1104.6546,126.8464 L1106.1175,127.6221 L1108.0087,129.0269 L1107.9473,128.943 L1109.6978,130.2809 L1111.3443,131.4766 L1112.8911,132.5359 L1114.6326,133.8616 L1116.3027,135.0895 L1116.5058,135.3508 L1118.0439,136.5336 L1119.2685,137.3134 L1121.0169,138.7666 L1122.4195,139.7753 L1124.124,141.1721 " fill="none" style="stroke:#383838;stroke-width:1.0;"/><polygon fill="#383838" points="1128.0826,144.3846,1128.145,144.4164,1127.066,142.5665,1126.353,140.9029,1125.5208,139.1787,1124.2966,137.2549,1123.615,135.6073,1123.5893,135.6046,1123.5907,136.7179,1123.722,137.8447,1123.9436,138.9809,1123.854,140.0847,1124.2003,141.2338,1124.2194,141.4174,1123.0532,141.1419,1121.9428,141.4023,1120.8393,141.7282,1119.6961,141.6736,1118.5738,141.8191,1118.5797,141.841,1120.4728,142.3219,1122.3928,142.9027,1124.2998,143.4353,1126.2317,144.06,1128.0826,144.3846" style="stroke:#383838;stroke-width:1.0;"/><!--MD5=[89559deed986340f5bd3f762282de5ac]
link NovoCatalogoController to EquipaRepository--><path d="M325.1409,137.9244 L325.1706,138.013 L328.5024,136.6043 L332.0081,135.7148 L335.4573,134.6563 L338.7201,133.0417 L342.2408,132.1969 L342.2303,132.164 L345.7363,130.8849 L349.2952,129.7717 L352.8908,128.7739 L356.3598,127.3786 L360.0061,126.54 L360.0768,126.7757 L363.5828,125.1738 L367.2954,124.26 L371.0332,123.4302 L374.6243,122.1119 L378.2926,121.0505 L378.3008,121.0797 L382.0215,119.9918 L385.7794,119.0368 L389.5194,118.0177 L393.2937,117.1209 L396.9562,115.8252 L397.0306,116.114 L400.8108,115.1447 L404.5431,113.989 L408.3456,113.106 L412.1514,112.2359 L415.8529,110.9607 L415.7805,110.6485 L419.7182,110.3731 L423.4174,109.0696 L427.2979,108.5477 L430.9917,107.2209 L434.8385,106.5539 L434.8325,106.524 L438.6903,106.1064 L442.4064,104.9917 L446.2061,104.2882 L450.0129,103.6194 L453.7689,102.7014 L453.8001,102.8837 L457.5148,102.0594 L461.2829,101.5467 L464.9647,100.5298 L468.7751,100.2649 L472.5,99.5 L472.5384,99.7406 L478.8981,98.6784 L485.2769,97.7357 L491.5671,96.238 L497.9222,95.1471 L504.3349,94.4167 L504.2885,94.1444 L510.1986,93.3899 L516.0564,92.3286 L521.9901,91.7123 L527.7943,90.3362 L533.6754,89.4118 L533.5961,88.9613 L544.2435,87.8594 L554.5517,84.8319 L565.1012,83.1737 L575.8866,82.8554 L586.2518,80.1511 L586.2837,80.342 L591.0906,79.6732 L595.7982,78.4104 L600.6301,77.8916 L605.435,77.2107 L610.1767,76.1521 L610.1457,75.9444 L614.7322,75.4286 L619.3086,74.8447 L623.9049,74.3945 L628.4236,73.4247 L632.9857,72.7452 L633.0121,72.9491 L635.1727,72.2129 L637.3843,71.8702 L639.6707,72.1025 L641.8195,71.2763 L644.0793,71.304 L644.1049,71.5288 L646.2784,71.1462 L648.4434,70.6877 L650.6278,70.4008 L652.8574,70.5106 L655.0231,70.059 L655.0105,69.9265 L657.2155,70.1143 L659.3347,69.4013 L661.5514,69.7125 L663.7132,69.447 L665.8602,69.0262 L665.8683,69.1348 L668.0165,68.8862 L670.1937,69.0265 L672.3446,68.8155 L674.4846,68.4576 L676.6337,68.2217 L676.6399,68.3408 L678.7813,68.0519 L680.9514,68.3157 L683.089,67.9544 L685.24,67.8503 L687.3866,67.6616 L687.3791,67.3914 L689.5367,67.4217 L691.7033,67.7776 L693.8571,67.6728 L696.0064,67.4028 L698.162,67.3619 L698.1617,67.2188 L700.33,67.26 L702.4977,67.0477 L704.6669,67.5323 L706.8354,67.6721 L709.0029,67.3387 L709.0087,67.5726 L711.2004,67.7014 L713.3813,67.3857 L715.5736,67.5391 L717.7584,67.382 L719.9525,67.608 L719.9591,67.7341 L722.1785,67.8331 L724.4058,68.0844 L726.608,67.8528 L728.8305,68.0107 L731.0538,68.1859 L731.0695,68.3824 L733.3331,68.6178 L735.5541,68.3199 L737.8246,68.6415 L740.096,68.9741 L742.3499,69.0884 L742.3208,68.8185 L744.6736,69.4932 L746.9758,69.6997 L749.2655,69.7898 L751.5839,70.1458 L753.8839,70.3316 L753.9273,70.6525 L756.2282,70.5138 L758.6286,71.1103 L760.9898,71.4174 L763.3427,71.6626 L765.6988,71.9316 L765.7088,71.9934 L768.1346,72.3759 L770.5098,72.4468 L772.9535,72.9394 L775.377,73.3073 L777.8377,73.9043 L777.8429,73.9321 L780.3461,74.4151 L782.8534,74.9195 L785.3172,75.1941 L787.8369,75.764 L790.3436,76.2658 L790.3324,76.2136 L792.9805,77.0698 L795.5498,77.5578 L798.0481,77.7147 L800.6697,78.4473 L803.2597,79.0323 L803.2002,78.7828 L805.9633,79.7945 L808.6702,80.5703 L811.3374,81.1802 L813.9103,81.3939 L816.629,82.2197 L816.6812,82.4192 L819.3187,82.6252 L822.1978,83.7556 L824.9148,84.2657 L827.7324,85.1609 L830.4947,85.8442 L830.5238,85.9469 L833.4328,86.8615 L836.1695,87.1673 L839.1952,88.494 L842.0402,89.1823 L844.8997,89.9216 L844.9455,90.0728 L847.9936,91.149 L850.8953,91.7426 L853.9147,92.7241 L856.9171,93.6497 L859.8871,94.4682 L859.914,94.5517 L863.0095,95.4742 L866.2291,96.7816 L869.1717,97.2294 L872.4545,98.7328 L875.5,99.5 L875.4028,99.2403 L877.2925,99.9777 L879.2597,100.9218 L881.1346,101.6195 L882.9301,102.1052 L884.8836,103.0129 L884.9599,103.1802 L886.7496,103.8985 L888.7093,104.9898 L890.5442,105.8073 L892.1844,106.1978 L894.1129,107.2206 L894.03,107.0644 L895.8912,108.1281 L897.7974,109.2766 L899.6125,110.2534 L901.3965,111.1716 L903.139,112.0115 L903.0608,111.8812 L905.0393,113.3065 L906.7935,114.358 L908.3926,115.1509 L910.1036,116.1303 L911.913,117.2739 L911.8144,117.1253 L913.5549,118.3189 L915.3361,119.5737 L916.9801,120.6219 L918.5889,121.6169 L920.3862,122.8961 L920.513,123.0717 L921.8914,123.9048 L923.7663,125.4252 L925.3714,126.5722 L926.9817,127.7263 L928.5096,128.7664 L928.7022,129.0065 L931.4416,131.0889 L934.4268,133.4776 L937.6552,136.1693 L940.3453,138.1902 L943.5118,140.8048 " fill="none" style="stroke:#383838;stroke-width:1.0;"/><polygon fill="#383838" points="947.677,144.4192,947.7405,144.4489,946.7167,142.5767,946.0649,140.8787,945.292,139.1239,944.1207,137.1827,943.5009,135.4996,943.475,135.4977,943.439,136.6181,943.5332,137.7476,943.718,138.8836,943.5907,139.9975,943.9005,141.1423,943.9136,141.3264,942.7571,141.0126,941.6388,141.2364,940.5251,141.5257,939.3843,141.4335,938.2578,141.5419,938.2644,141.5637,940.1385,142.1072,942.0429,142.7497,943.9326,143.3445,945.8502,144.0305,947.677,144.4192" style="stroke:#383838;stroke-width:1.0;"/><!--MD5=[0f9571f384c28894d761562ab25c5ea9]
link NovoCatalogoController to Catalogo--><path d="M437.4063,178 L437.4063,178.0934 L443.3089,177.8159 L449.2114,178.0859 L455.114,178.1776 L461.0165,177.6829 L466.9191,178 " fill="none" style="stroke:#383838;stroke-width:1.0;"/><polygon fill="#383838" points="472.0635,178,472.092,178.064,470.2074,177.0738,468.4897,176.4589,466.7176,175.7217,464.7669,174.5827,463.0635,174,463.0452,173.9817,463.763,174.6995,464.5731,175.5096,465.4474,176.3839,466.1005,177.037,467.0635,178,467.194,178.1305,466.1149,178.6514,465.4169,179.5534,464.7653,180.5018,463.8433,181.1798,463.0635,182,463.0727,182.0208,464.8592,181.1903,466.6877,180.4544,468.4959,179.6728,470.3428,178.9784,472.0635,178" style="stroke:#383838;stroke-width:1.0;"/><!--MD5=[834ca10a6b7640e73911f318e4ca0b1e]
@startuml
'http://plantuml.com/skinparam.html
skinparam handwritten true
skinparam monochrome true
skinparam packageStyle rect
skinparam defaultFontName FG Virgil
skinparam shadowing false

class NovoCatalogoUI <<presentation>>
class NovoCatalogoController <<application>>
class Catalogo <<domain>>
class CatalogoRepository <<repository>>
class UtilizadorRepository <<repository>>
class EquipaRepository <<repository>>


NovoCatalogoUI - -> NovoCatalogoController : theController

NovoCatalogoController -> ColaboradorRepository
NovoCatalogoController -> CatalogoRepository
NovoCatalogoController -> EquipaRepository
NovoCatalogoController -> Catalogo

NovoCatalogoController : getEquipas()
NovoCatalogoController : novoCatalogo(titulo,descricaoBreve,descricaoCompleta,icone,listEquipas)

Catalogo : Catalogo(titulo,descricaoBreve,descricaoCompleta,icone,listEquipas)

CatalogoRepository : save(cat)

ColaboradorRepository : findAll()

EquipaRepository : listEquipas()
@enduml

@startuml
skinparam handwritten true
skinparam monochrome true
skinparam packageStyle rect
skinparam defaultFontName FG Virgil
skinparam shadowing false

class NovoCatalogoUI <<presentation>>
class NovoCatalogoController <<application>>
class Catalogo <<domain>>
class CatalogoRepository <<repository>>
class UtilizadorRepository <<repository>>
class EquipaRepository <<repository>>


NovoCatalogoUI - -> NovoCatalogoController : theController

NovoCatalogoController -> ColaboradorRepository
NovoCatalogoController -> CatalogoRepository
NovoCatalogoController -> EquipaRepository
NovoCatalogoController -> Catalogo

NovoCatalogoController : getEquipas()
NovoCatalogoController : novoCatalogo(titulo,descricaoBreve,descricaoCompleta,icone,listEquipas)

Catalogo : Catalogo(titulo,descricaoBreve,descricaoCompleta,icone,listEquipas)

CatalogoRepository : save(cat)

ColaboradorRepository : findAll()

EquipaRepository : listEquipas()
@enduml

PlantUML version 1.2020.22(Sun Dec 06 09:36:27 UTC 2020)
(GPL source distribution)
Java Runtime: OpenJDK Runtime Environment
JVM: OpenJDK 64-Bit Server VM
Default Encoding: UTF-8
Language: en
Country: US
--></g></svg>