<?xml version="1.0" encoding="UTF-8" standalone="no"?><svg xmlns="http://www.w3.org/2000/svg" xmlns:xlink="http://www.w3.org/1999/xlink" contentScriptType="application/ecmascript" contentStyleType="text/css" height="639px" preserveAspectRatio="none" style="width:395px;height:639px;" version="1.1" viewBox="0 0 395 639" width="395px" zoomAndPan="magnify"><defs/><g><!--MD5=[6250fd8aad69164749c4148272cf33ee]
class DefinirCriticidadeUI--><polygon fill="#F8F8F8" points="135.5,7,135.5,7.2102,145.3,6.5857,155.1,7.1933,164.9,7.3997,174.7,6.2866,184.5,6.9223,194.3,6.5735,204.1,6.6165,213.9,6.9318,223.7,6.3086,233.5,7.5536,243.3,6.3697,253.1,6.8022,262.9,7.4319,272.7,6.9142,282.5,7,282.5682,7,282.4681,17.7875,282.6785,28.575,282.7391,39.3625,283.0857,50.15,282.5,60.9375,282.5,61.6086,272.7,61.6168,262.9,61.1921,253.1,61.4011,243.3,61.6397,233.5,60.2163,223.7,61.616,213.9,60.641,204.1,61.4713,194.3,60.4425,184.5,60.869,174.7,61.6791,164.9,60.8888,155.1,61.0428,145.3,61.2761,135.5,60.9375,135.9162,60.9375,135.4961,50.15,135.7872,39.3625,134.9276,28.575,135.7844,17.7875,135.5,7" style="stroke:#383838;stroke-width:1.5;"/><polygon fill="#C2C2C2" points="161.5608,28.6444,159.9484,30.8475,158.0412,34.0745,155.3136,36.2491,152.4474,37.4384,150.162,37.5416,147.2247,36.0543,144.4532,35.0827,142.3495,33.1099,141.2461,30.8515,140.5917,29.0533,139.9506,26.7045,138.91,24.6832,139.7096,22.7098,140.4102,20.548,143.0393,18.8382,144.889,16.6198,147.1784,15.8832,149.9001,15.2488,153.3904,15.6257,155.3021,16.5273,157.5247,16.9359,160.2272,19.7047,161.1693,22.6277,161.5786,24.6221,161.115,27.9086" style="stroke:#383838;stroke-width:1.0;"/><path d="M152.8438,21.6406 C151.9063,21.2031 151.3125,21.0625 150.4375,21.0625 C147.8125,21.0625 145.8125,23.1406 145.8125,25.8594 L145.8125,26.9844 C145.8125,29.5625 147.9219,31.4531 150.8125,31.4531 C152.0313,31.4531 153.1875,31.1563 153.9375,30.6094 C154.5156,30.2031 154.8438,29.75 154.8438,29.3594 C154.8438,28.9063 154.4531,28.5156 153.9844,28.5156 C153.7656,28.5156 153.5625,28.5938 153.375,28.7813 C152.9219,29.2656 152.9219,29.2656 152.7344,29.3594 C152.3125,29.625 151.625,29.75 150.8594,29.75 C148.8125,29.75 147.5156,28.6563 147.5156,26.9531 L147.5156,25.8594 C147.5156,24.0781 148.7656,22.7656 150.5,22.7656 C151.0781,22.7656 151.6875,22.9219 152.1563,23.1719 C152.6406,23.4531 152.8125,23.6719 152.9063,24.0781 C152.9688,24.4844 153,24.6094 153.1406,24.7344 C153.2813,24.875 153.5156,24.9844 153.7344,24.9844 C154,24.9844 154.2656,24.8438 154.4375,24.625 C154.5469,24.4688 154.5781,24.2813 154.5781,23.8594 L154.5781,22.4375 C154.5781,22 154.5625,21.875 154.4688,21.7188 C154.3125,21.4531 154.0313,21.3125 153.7344,21.3125 C153.4375,21.3125 153.2344,21.4063 153.0156,21.7188 L152.8438,21.6406 Z " fill="#000000"/><text fill="#000000" font-family="FG Virgil" font-size="12" font-style="italic" lengthAdjust="spacing" textLength="90" x="177" y="23.1387">«presentation»</text><text fill="#000000" font-family="FG Virgil" font-size="12" lengthAdjust="spacing" textLength="115" x="164.5" y="37.1074">DefinirCriticidadeUI</text><path d="M136.5,44.9375 L136.5,45.2177 L146.1667,44.3851 L155.8333,45.1952 L165.5,45.4704 L175.1667,43.9863 L184.8333,44.8339 L194.5,44.3688 L204.1667,44.4262 L213.8333,44.8466 L223.5,44.0157 L233.1667,45.6757 L242.8333,44.0971 L252.5,44.6738 L262.1667,45.5134 L271.8333,44.8231 L281.5,44.9375 " fill="#F8F8F8" style="stroke:#383838;stroke-width:1.5;"/><path d="M136.5,52.9375 L136.5,53.2177 L146.1667,52.3851 L155.8333,53.1952 L165.5,53.4704 L175.1667,51.9863 L184.8333,52.8339 L194.5,52.3688 L204.1667,52.4262 L213.8333,52.8466 L223.5,52.0157 L233.1667,53.6757 L242.8333,52.0971 L252.5,52.6738 L262.1667,53.5134 L271.8333,52.8231 L281.5,52.9375 " fill="#F8F8F8" style="stroke:#383838;stroke-width:1.5;"/><!--MD5=[0e7000bc9f25e264d5902aeb009ffa17]
class DefinirCriticidadeController--><polygon fill="#F8F8F8" points="44.5,121,44.5,121.2102,54.4697,120.5857,64.4394,121.1933,74.4091,121.3997,84.3788,120.2866,94.3485,120.9223,104.3182,120.5735,114.2879,120.6165,124.2576,120.9318,134.2273,120.3086,144.197,121.5536,154.1667,120.3697,164.1364,120.8022,174.1061,121.4319,184.0758,120.9142,194.0455,121.0682,204.0152,120.9681,213.9848,121.1785,223.9545,121.2391,233.9242,121.5857,243.8939,121.6711,253.8636,121.6793,263.8333,121.2546,273.803,121.4636,283.7727,121.7022,293.7424,120.2788,303.7121,121.6785,313.6818,120.7035,323.6515,121.5338,333.6212,120.505,343.5909,120.9315,353.5606,121.7416,363.5303,120.9513,373.5,121,373.6053,121,373.8386,130.5597,373.9162,140.1193,373.4961,149.679,373.7872,159.2386,372.9276,168.7983,373.7844,178.358,374.0482,187.9176,373.9445,197.4773,374.113,207.0369,373.0169,216.5966,373.5,226.1563,373.5,225.5041,363.5303,225.5348,353.5606,226.0974,343.5909,225.9597,333.6212,226.8377,323.6515,225.9816,313.6818,225.8132,303.7121,226.3845,293.7424,225.4894,283.7727,225.6371,273.803,226.8052,263.8333,226.5919,253.8636,226.8907,243.8939,225.8345,233.9242,226.4754,223.9545,226.7467,213.9848,225.6838,204.0152,226.0604,194.0455,226.2822,184.0758,226.808,174.1061,226.1521,164.1364,226.6188,154.1667,225.6025,144.197,225.479,134.2273,226.6599,124.2576,225.4393,114.2879,226.6652,104.3182,226.3629,94.3485,225.8883,84.3788,225.8025,74.4091,226.615,64.4394,225.8569,54.4697,226.7481,44.5,226.1563,43.9473,226.1563,45.1174,216.5966,44.9843,207.0369,44.745,197.4773,44.5472,187.9176,45.2266,178.358,45.1136,168.7983,44.6693,159.2386,44.7682,149.679,44.3697,140.1193,45.2165,130.5597,44.5,121" style="stroke:#383838;stroke-width:1.5;"/><polygon fill="#C2C2C2" points="134.8108,142.6444,133.1984,144.8475,131.2912,148.0745,128.5636,150.2491,125.6974,151.4384,123.412,151.5416,120.4747,150.0543,117.7032,149.0827,115.5995,147.1099,114.4961,144.8515,113.8417,143.0533,113.2006,140.7045,112.16,138.6832,112.9596,136.7098,113.6602,134.548,116.2893,132.8382,118.139,130.6198,120.4284,129.8832,123.1501,129.2488,126.6404,129.6257,128.5521,130.5273,130.7747,130.9359,133.4772,133.7047,134.4193,136.6277,134.8286,138.6221,134.365,141.9086" style="stroke:#383838;stroke-width:1.0;"/><path d="M126.0938,135.6406 C125.1563,135.2031 124.5625,135.0625 123.6875,135.0625 C121.0625,135.0625 119.0625,137.1406 119.0625,139.8594 L119.0625,140.9844 C119.0625,143.5625 121.1719,145.4531 124.0625,145.4531 C125.2813,145.4531 126.4375,145.1563 127.1875,144.6094 C127.7656,144.2031 128.0938,143.75 128.0938,143.3594 C128.0938,142.9063 127.7031,142.5156 127.2344,142.5156 C127.0156,142.5156 126.8125,142.5938 126.625,142.7813 C126.1719,143.2656 126.1719,143.2656 125.9844,143.3594 C125.5625,143.625 124.875,143.75 124.1094,143.75 C122.0625,143.75 120.7656,142.6563 120.7656,140.9531 L120.7656,139.8594 C120.7656,138.0781 122.0156,136.7656 123.75,136.7656 C124.3281,136.7656 124.9375,136.9219 125.4063,137.1719 C125.8906,137.4531 126.0625,137.6719 126.1563,138.0781 C126.2188,138.4844 126.25,138.6094 126.3906,138.7344 C126.5313,138.875 126.7656,138.9844 126.9844,138.9844 C127.25,138.9844 127.5156,138.8438 127.6875,138.625 C127.7969,138.4688 127.8281,138.2813 127.8281,137.8594 L127.8281,136.4375 C127.8281,136 127.8125,135.875 127.7188,135.7188 C127.5625,135.4531 127.2813,135.3125 126.9844,135.3125 C126.6875,135.3125 126.4844,135.4063 126.2656,135.7188 L126.0938,135.6406 Z " fill="#000000"/><text fill="#000000" font-family="FG Virgil" font-size="12" font-style="italic" lengthAdjust="spacing" textLength="80" x="185.25" y="137.1387">«application»</text><text fill="#000000" font-family="FG Virgil" font-size="12" lengthAdjust="spacing" textLength="162" x="144.25" y="151.1074">DefinirCriticidadeController</text><path d="M45.5,158.9375 L45.5,159.2177 L55.4091,158.3851 L65.3182,159.1952 L75.2273,159.4704 L85.1364,157.9863 L95.0455,158.8339 L104.9545,158.3688 L114.8636,158.4262 L124.7727,158.8466 L134.6818,158.0157 L144.5909,159.6757 L154.5,158.0971 L164.4091,158.6738 L174.3182,159.5134 L184.2273,158.8231 L194.1364,159.0285 L204.0455,158.8949 L213.9545,159.1755 L223.8636,159.2563 L233.7727,159.7184 L243.6818,159.8322 L253.5909,159.8432 L263.5,159.277 L273.4091,159.5556 L283.3182,159.8738 L293.2273,157.9759 L303.1364,159.8422 L313.0455,158.5422 L322.9545,159.6492 L332.8636,158.2775 L342.7727,158.8462 L352.6818,159.9263 L362.5909,158.8725 L372.5,158.9375 " fill="#F8F8F8" style="stroke:#383838;stroke-width:1.5;"/><path d="M45.5,166.9375 L45.5,167.2177 L55.4091,166.3851 L65.3182,167.1952 L75.2273,167.4704 L85.1364,165.9863 L95.0455,166.8339 L104.9545,166.3688 L114.8636,166.4262 L124.7727,166.8466 L134.6818,166.0157 L144.5909,167.6757 L154.5,166.0971 L164.4091,166.6738 L174.3182,167.5134 L184.2273,166.8231 L194.1364,167.0285 L204.0455,166.8949 L213.9545,167.1755 L223.8636,167.2563 L233.7727,167.7184 L243.6818,167.8322 L253.5909,167.8432 L263.5,167.277 L273.4091,167.5556 L283.3182,167.8738 L293.2273,165.9759 L303.1364,167.8422 L313.0455,166.5422 L322.9545,167.6492 L332.8636,166.2775 L342.7727,166.8462 L352.6818,167.9263 L362.5909,166.8725 L372.5,166.9375 " fill="#F8F8F8" style="stroke:#383838;stroke-width:1.5;"/><text fill="#000000" font-family="FG Virgil" font-size="11" lengthAdjust="spacing" textLength="74" x="50.5" y="181.1479">listCatalogo()</text><text fill="#000000" font-family="FG Virgil" font-size="11" lengthAdjust="spacing" textLength="84" x="50.5" y="193.9526">listCriticidade()</text><text fill="#000000" font-family="FG Virgil" font-size="11" lengthAdjust="spacing" textLength="317" x="50.5" y="206.7573">defineCriticidade(obj, etiqueta, escala, cor, designacao)</text><text fill="#000000" font-family="FG Virgil" font-size="11" lengthAdjust="spacing" textLength="158" x="50.5" y="219.562">defineContrato(designacao)</text><!--MD5=[e8c189551b7885b999ad7cefb30fc2a3]
class PersistenceContext--><polygon fill="#F8F8F8" points="72,286,72,286.2102,81.8667,285.5857,91.7333,286.1933,101.6,286.3997,111.4667,285.2866,121.3333,285.9223,131.2,285.5735,141.0667,285.6165,150.9333,285.9318,160.8,285.3086,170.6667,286.5536,180.5333,285.3697,190.4,285.8022,200.2667,286.4319,210.1333,285.9142,220,286,220.0682,286,219.9681,295.5346,220.1785,305.0692,220.2391,314.6038,220.5857,324.1384,220.6711,333.673,220.6793,343.2076,220,352.7422,220,352.9968,210.1333,353.2058,200.2667,353.4444,190.4,352.021,180.5333,353.4207,170.6667,352.4457,160.8,353.276,150.9333,352.2472,141.0667,352.6737,131.2,353.4838,121.3333,352.6935,111.4667,352.8475,101.6,353.0808,91.7333,353.1584,81.8667,352.7383,72,352.7422,72.2872,352.7422,71.4276,343.2076,72.2844,333.673,72.5482,324.1384,72.4445,314.6038,72.613,305.0692,71.5169,295.5346,72,286" style="stroke:#383838;stroke-width:1.5;"/><polygon fill="#C2C2C2" points="98.0608,307.6444,96.4484,309.8475,94.5412,313.0745,91.8136,315.2491,88.9474,316.4384,86.662,316.5416,83.7247,315.0543,80.9532,314.0827,78.8495,312.1099,77.7461,309.8515,77.0917,308.0533,76.4506,305.7045,75.41,303.6832,76.2096,301.7098,76.9102,299.548,79.5393,297.8382,81.389,295.6198,83.6784,294.8832,86.4001,294.2488,89.8904,294.6257,91.8021,295.5273,94.0247,295.9359,96.7272,298.7047,97.6693,301.6277,98.0786,303.6221,97.615,306.9086" style="stroke:#383838;stroke-width:1.0;"/><path d="M89.3438,300.6406 C88.4063,300.2031 87.8125,300.0625 86.9375,300.0625 C84.3125,300.0625 82.3125,302.1406 82.3125,304.8594 L82.3125,305.9844 C82.3125,308.5625 84.4219,310.4531 87.3125,310.4531 C88.5313,310.4531 89.6875,310.1563 90.4375,309.6094 C91.0156,309.2031 91.3438,308.75 91.3438,308.3594 C91.3438,307.9063 90.9531,307.5156 90.4844,307.5156 C90.2656,307.5156 90.0625,307.5938 89.875,307.7813 C89.4219,308.2656 89.4219,308.2656 89.2344,308.3594 C88.8125,308.625 88.125,308.75 87.3594,308.75 C85.3125,308.75 84.0156,307.6563 84.0156,305.9531 L84.0156,304.8594 C84.0156,303.0781 85.2656,301.7656 87,301.7656 C87.5781,301.7656 88.1875,301.9219 88.6563,302.1719 C89.1406,302.4531 89.3125,302.6719 89.4063,303.0781 C89.4688,303.4844 89.5,303.6094 89.6406,303.7344 C89.7813,303.875 90.0156,303.9844 90.2344,303.9844 C90.5,303.9844 90.7656,303.8438 90.9375,303.625 C91.0469,303.4688 91.0781,303.2813 91.0781,302.8594 L91.0781,301.4375 C91.0781,301 91.0625,300.875 90.9688,300.7188 C90.8125,300.4531 90.5313,300.3125 90.2344,300.3125 C89.9375,300.3125 89.7344,300.4063 89.5156,300.7188 L89.3438,300.6406 Z " fill="#000000"/><text fill="#000000" font-family="FG Virgil" font-size="12" font-style="italic" lengthAdjust="spacing" textLength="83" x="117.5" y="302.1387">«persistence»</text><text fill="#000000" font-family="FG Virgil" font-size="12" lengthAdjust="spacing" textLength="116" x="101" y="316.1074">PersistenceContext</text><path d="M73,323.9375 L73,324.2177 L82.7333,323.3851 L92.4667,324.1952 L102.2,324.4704 L111.9333,322.9863 L121.6667,323.8339 L131.4,323.3688 L141.1333,323.4262 L150.8667,323.8466 L160.6,323.0157 L170.3333,324.6757 L180.0667,323.0971 L189.8,323.6738 L199.5333,324.5134 L209.2667,323.8231 L219,323.9375 " fill="#F8F8F8" style="stroke:#383838;stroke-width:1.5;"/><path d="M73,331.9375 L73,332.2177 L82.7333,331.3851 L92.4667,332.1952 L102.2,332.4704 L111.9333,330.9863 L121.6667,331.8339 L131.4,331.3688 L141.1333,331.4262 L150.8667,331.8466 L160.6,331.0157 L170.3333,332.6757 L180.0667,331.0971 L189.8,331.6738 L199.5333,332.5134 L209.2667,331.8231 L219,331.9375 " fill="#F8F8F8" style="stroke:#383838;stroke-width:1.5;"/><text fill="#000000" font-family="FG Virgil" font-size="11" lengthAdjust="spacing" textLength="75" x="78" y="346.1479">repositories()</text><!--MD5=[48590afff58a68e2fcba47824d6f8a11]
class RepositoryFactory--><polygon fill="#F8F8F8" points="112,413,112,413.2102,122.1429,412.5857,132.2857,413.1933,142.4286,413.3997,152.5714,412.2866,162.7143,412.9223,172.8571,412.5735,183,412.6165,193.1429,412.9318,203.2857,412.3086,213.4286,413.5536,223.5714,412.3697,233.7143,412.8022,243.8571,413.4319,254,413,253.9142,413,254.0682,422.9434,253.9681,432.8867,254.1785,442.8301,254.2391,452.7734,254.5857,462.7168,254.6711,472.6602,254.6793,482.6035,254,492.5469,254,492.8015,243.8571,493.0105,233.7143,493.2491,223.5714,491.8257,213.4286,493.2254,203.2857,492.2504,193.1429,493.0807,183,492.0519,172.8571,492.4784,162.7143,493.2885,152.5714,492.4981,142.4286,492.6522,132.2857,492.8855,122.1429,492.9631,112,492.5469,111.9961,492.5469,112.2872,482.6035,111.4276,472.6602,112.2844,462.7168,112.5482,452.7734,112.4445,442.8301,112.613,432.8867,111.5169,422.9434,112,413" style="stroke:#383838;stroke-width:1.5;"/><polygon fill="#C2C2C2" points="138.0608,434.6444,136.4484,436.8475,134.5412,440.0745,131.8136,442.2491,128.9474,443.4384,126.662,443.5416,123.7247,442.0543,120.9532,441.0827,118.8495,439.1099,117.7461,436.8515,117.0917,435.0533,116.4506,432.7045,115.41,430.6832,116.2096,428.7098,116.9102,426.548,119.5393,424.8382,121.389,422.6198,123.6784,421.8832,126.4001,421.2488,129.8904,421.6257,131.8021,422.5273,134.0247,422.9359,136.7272,425.7047,137.6693,428.6277,138.0786,430.6221,137.615,433.9086" style="stroke:#383838;stroke-width:1.0;"/><path d="M129.3438,427.6406 C128.4063,427.2031 127.8125,427.0625 126.9375,427.0625 C124.3125,427.0625 122.3125,429.1406 122.3125,431.8594 L122.3125,432.9844 C122.3125,435.5625 124.4219,437.4531 127.3125,437.4531 C128.5313,437.4531 129.6875,437.1563 130.4375,436.6094 C131.0156,436.2031 131.3438,435.75 131.3438,435.3594 C131.3438,434.9063 130.9531,434.5156 130.4844,434.5156 C130.2656,434.5156 130.0625,434.5938 129.875,434.7813 C129.4219,435.2656 129.4219,435.2656 129.2344,435.3594 C128.8125,435.625 128.125,435.75 127.3594,435.75 C125.3125,435.75 124.0156,434.6563 124.0156,432.9531 L124.0156,431.8594 C124.0156,430.0781 125.2656,428.7656 127,428.7656 C127.5781,428.7656 128.1875,428.9219 128.6563,429.1719 C129.1406,429.4531 129.3125,429.6719 129.4063,430.0781 C129.4688,430.4844 129.5,430.6094 129.6406,430.7344 C129.7813,430.875 130.0156,430.9844 130.2344,430.9844 C130.5,430.9844 130.7656,430.8438 130.9375,430.625 C131.0469,430.4688 131.0781,430.2813 131.0781,429.8594 L131.0781,428.4375 C131.0781,428 131.0625,427.875 130.9688,427.7188 C130.8125,427.4531 130.5313,427.3125 130.2344,427.3125 C129.9375,427.3125 129.7344,427.4063 129.5156,427.7188 L129.3438,427.6406 Z " fill="#000000"/><text fill="#000000" font-family="FG Virgil" font-size="12" font-style="italic" lengthAdjust="spacing" textLength="56" x="168" y="429.1387">«factory»</text><text fill="#000000" font-family="FG Virgil" font-size="12" lengthAdjust="spacing" textLength="110" x="141" y="443.1074">RepositoryFactory</text><path d="M113,450.9375 L113,451.2177 L123,450.3851 L133,451.1952 L143,451.4704 L153,449.9863 L163,450.8339 L173,450.3688 L183,450.4262 L193,450.8466 L203,450.0157 L213,451.6757 L223,450.0971 L233,450.6738 L243,451.5134 L253,450.9375 " fill="#F8F8F8" style="stroke:#383838;stroke-width:1.5;"/><path d="M113,458.9375 L113,459.2177 L123,458.3851 L133,459.1952 L143,459.4704 L153,457.9863 L163,458.8339 L173,458.3688 L183,458.4262 L193,458.8466 L203,458.0157 L213,459.6757 L223,458.0971 L233,458.6738 L243,459.5134 L253,458.9375 " fill="#F8F8F8" style="stroke:#383838;stroke-width:1.5;"/><text fill="#000000" font-family="FG Virgil" font-size="11" lengthAdjust="spacing" textLength="56" x="118" y="473.1479">catalogo()</text><text fill="#000000" font-family="FG Virgil" font-size="11" lengthAdjust="spacing" textLength="66" x="118" y="485.9526">criticidade()</text><!--MD5=[37de35b2239f3e75f2a4e341603fb23d]
class CatalogoRepository--><polygon fill="#F8F8F8" points="7,559.5,7,559.7102,17,559.0857,27,559.6933,37,559.8997,47,558.7866,57,559.4223,67,559.0735,77,559.1165,87,559.4318,97,558.8086,107,560.0536,117,558.8697,127,559.3022,137,559.9319,147,559.4142,157,559.5,157.0682,559.5,156.9681,569.0346,157.1785,578.5692,157.2391,588.1038,157.5857,597.6384,157.6711,607.173,157.6793,616.7076,157,626.2422,157,626.4968,147,626.7058,137,626.9444,127,625.521,117,626.9207,107,625.9457,97,626.776,87,625.7472,77,626.1737,67,626.9838,57,626.1935,47,626.3475,37,626.5808,27,626.6584,17,626.2383,7,626.2422,7.2872,626.2422,6.4276,616.7076,7.2844,607.173,7.5482,597.6384,7.4445,588.1038,7.613,578.5692,6.5169,569.0346,7,559.5" style="stroke:#383838;stroke-width:1.5;"/><polygon fill="#C2C2C2" points="33.0608,581.1444,31.4484,583.3475,29.5412,586.5745,26.8136,588.7491,23.9474,589.9384,21.662,590.0416,18.7247,588.5543,15.9532,587.5827,13.8495,585.6099,12.7461,583.3515,12.0917,581.5533,11.4506,579.2045,10.41,577.1832,11.2096,575.2098,11.9102,573.048,14.5393,571.3382,16.389,569.1198,18.6784,568.3832,21.4001,567.7488,24.8904,568.1257,26.8021,569.0273,29.0247,569.4359,31.7272,572.2047,32.6693,575.1277,33.0786,577.1221,32.615,580.4086" style="stroke:#383838;stroke-width:1.0;"/><path d="M24.3438,574.1406 C23.4063,573.7031 22.8125,573.5625 21.9375,573.5625 C19.3125,573.5625 17.3125,575.6406 17.3125,578.3594 L17.3125,579.4844 C17.3125,582.0625 19.4219,583.9531 22.3125,583.9531 C23.5313,583.9531 24.6875,583.6563 25.4375,583.1094 C26.0156,582.7031 26.3438,582.25 26.3438,581.8594 C26.3438,581.4063 25.9531,581.0156 25.4844,581.0156 C25.2656,581.0156 25.0625,581.0938 24.875,581.2813 C24.4219,581.7656 24.4219,581.7656 24.2344,581.8594 C23.8125,582.125 23.125,582.25 22.3594,582.25 C20.3125,582.25 19.0156,581.1563 19.0156,579.4531 L19.0156,578.3594 C19.0156,576.5781 20.2656,575.2656 22,575.2656 C22.5781,575.2656 23.1875,575.4219 23.6563,575.6719 C24.1406,575.9531 24.3125,576.1719 24.4063,576.5781 C24.4688,576.9844 24.5,577.1094 24.6406,577.2344 C24.7813,577.375 25.0156,577.4844 25.2344,577.4844 C25.5,577.4844 25.7656,577.3438 25.9375,577.125 C26.0469,576.9688 26.0781,576.7813 26.0781,576.3594 L26.0781,574.9375 C26.0781,574.5 26.0625,574.375 25.9688,574.2188 C25.8125,573.9531 25.5313,573.8125 25.2344,573.8125 C24.9375,573.8125 24.7344,573.9063 24.5156,574.2188 L24.3438,574.1406 Z " fill="#000000"/><text fill="#000000" font-family="FG Virgil" font-size="12" font-style="italic" lengthAdjust="spacing" textLength="74" x="58" y="575.6387">«repository»</text><text fill="#000000" font-family="FG Virgil" font-size="12" lengthAdjust="spacing" textLength="118" x="36" y="589.6074">CatalogoRepository</text><path d="M8,597.4375 L8,597.7177 L17.8667,596.8851 L27.7333,597.6952 L37.6,597.9704 L47.4667,596.4863 L57.3333,597.3339 L67.2,596.8688 L77.0667,596.9262 L86.9333,597.3466 L96.8,596.5157 L106.6667,598.1757 L116.5333,596.5971 L126.4,597.1738 L136.2667,598.0134 L146.1333,597.3231 L156,597.4375 " fill="#F8F8F8" style="stroke:#383838;stroke-width:1.5;"/><path d="M8,605.4375 L8,605.7177 L17.8667,604.8851 L27.7333,605.6952 L37.6,605.9704 L47.4667,604.4863 L57.3333,605.3339 L67.2,604.8688 L77.0667,604.9262 L86.9333,605.3466 L96.8,604.5157 L106.6667,606.1757 L116.5333,604.5971 L126.4,605.1738 L136.2667,606.0134 L146.1333,605.3231 L156,605.4375 " fill="#F8F8F8" style="stroke:#383838;stroke-width:1.5;"/><text fill="#000000" font-family="FG Virgil" font-size="11" lengthAdjust="spacing" textLength="60" x="13" y="619.6479">save(cont)</text><!--MD5=[8d7eeae0097fa08648b7bd23f47a8d11]
class CriticidadeRepository--><polygon fill="#F8F8F8" points="227.5,553,227.5,553.2102,237.5625,552.5857,247.625,553.1933,257.6875,553.3997,267.75,552.2866,277.8125,552.9223,287.875,552.5735,297.9375,552.6165,308,552.9318,318.0625,552.3086,328.125,553.5536,338.1875,552.3697,348.25,552.8022,358.3125,553.4319,368.375,552.9142,378.4375,553.0682,388.5,553,388.4681,553,388.6785,562.9434,388.7391,572.8867,389.0857,582.8301,389.1711,592.7734,389.1793,602.7168,388.7546,612.6602,388.9636,622.6035,388.5,632.5469,388.5,633.2491,378.4375,631.8257,368.375,633.2254,358.3125,632.2504,348.25,633.0807,338.1875,632.0519,328.125,632.4784,318.0625,633.2885,308,632.4981,297.9375,632.6522,287.875,632.8855,277.8125,632.9631,267.75,632.543,257.6875,632.8341,247.625,631.9745,237.5625,632.8313,227.5,632.5469,228.0482,632.5469,227.9445,622.6035,228.113,612.6602,227.0169,602.7168,226.8478,592.7734,226.8786,582.8301,227.4411,572.8867,227.3035,562.9434,227.5,553" style="stroke:#383838;stroke-width:1.5;"/><polygon fill="#C2C2C2" points="253.5608,574.6444,251.9484,576.8475,250.0412,580.0745,247.3136,582.2491,244.4474,583.4384,242.162,583.5416,239.2247,582.0543,236.4532,581.0827,234.3495,579.1099,233.2461,576.8515,232.5917,575.0533,231.9506,572.7045,230.91,570.6832,231.7096,568.7098,232.4102,566.548,235.0393,564.8382,236.889,562.6198,239.1784,561.8832,241.9001,561.2488,245.3904,561.6257,247.3021,562.5273,249.5247,562.9359,252.2272,565.7047,253.1693,568.6277,253.5786,570.6221,253.115,573.9086" style="stroke:#383838;stroke-width:1.0;"/><path d="M244.8438,567.6406 C243.9063,567.2031 243.3125,567.0625 242.4375,567.0625 C239.8125,567.0625 237.8125,569.1406 237.8125,571.8594 L237.8125,572.9844 C237.8125,575.5625 239.9219,577.4531 242.8125,577.4531 C244.0313,577.4531 245.1875,577.1563 245.9375,576.6094 C246.5156,576.2031 246.8438,575.75 246.8438,575.3594 C246.8438,574.9063 246.4531,574.5156 245.9844,574.5156 C245.7656,574.5156 245.5625,574.5938 245.375,574.7813 C244.9219,575.2656 244.9219,575.2656 244.7344,575.3594 C244.3125,575.625 243.625,575.75 242.8594,575.75 C240.8125,575.75 239.5156,574.6563 239.5156,572.9531 L239.5156,571.8594 C239.5156,570.0781 240.7656,568.7656 242.5,568.7656 C243.0781,568.7656 243.6875,568.9219 244.1563,569.1719 C244.6406,569.4531 244.8125,569.6719 244.9063,570.0781 C244.9688,570.4844 245,570.6094 245.1406,570.7344 C245.2813,570.875 245.5156,570.9844 245.7344,570.9844 C246,570.9844 246.2656,570.8438 246.4375,570.625 C246.5469,570.4688 246.5781,570.2813 246.5781,569.8594 L246.5781,568.4375 C246.5781,568 246.5625,567.875 246.4688,567.7188 C246.3125,567.4531 246.0313,567.3125 245.7344,567.3125 C245.4375,567.3125 245.2344,567.4063 245.0156,567.7188 L244.8438,567.6406 Z " fill="#000000"/><text fill="#000000" font-family="FG Virgil" font-size="12" font-style="italic" lengthAdjust="spacing" textLength="74" x="284" y="569.1387">«repository»</text><text fill="#000000" font-family="FG Virgil" font-size="12" lengthAdjust="spacing" textLength="129" x="256.5" y="583.1074">CriticidadeRepository</text><path d="M228.5,590.9375 L228.5,591.2177 L238.4375,590.3851 L248.375,591.1952 L258.3125,591.4704 L268.25,589.9863 L278.1875,590.8339 L288.125,590.3688 L298.0625,590.4262 L308,590.8466 L317.9375,590.0157 L327.875,591.6757 L337.8125,590.0971 L347.75,590.6738 L357.6875,591.5134 L367.625,590.8231 L377.5625,591.0285 L387.5,590.9375 " fill="#F8F8F8" style="stroke:#383838;stroke-width:1.5;"/><path d="M228.5,598.9375 L228.5,599.2177 L238.4375,598.3851 L248.375,599.1952 L258.3125,599.4704 L268.25,597.9863 L278.1875,598.8339 L288.125,598.3688 L298.0625,598.4262 L308,598.8466 L317.9375,598.0157 L327.875,599.6757 L337.8125,598.0971 L347.75,598.6738 L357.6875,599.5134 L367.625,598.8231 L377.5625,599.0285 L387.5,598.9375 " fill="#F8F8F8" style="stroke:#383838;stroke-width:1.5;"/><text fill="#000000" font-family="FG Virgil" font-size="11" lengthAdjust="spacing" textLength="124" x="233.5" y="613.1479">save(nivelCriticidade)</text><text fill="#000000" font-family="FG Virgil" font-size="11" lengthAdjust="spacing" textLength="103" x="233.5" y="625.9526">findAllCriticidade()</text><!--MD5=[38352e39b307b86db7f27cee04d00103]
link DefinirCriticidadeUI to DefinirCriticidadeController--><path d="M209,61.186 L209.2802,61.186 L208.4476,72.0486 L209.2577,82.9112 L209.5329,93.7738 L208.0488,104.6364 L209,115.499 " fill="none" style="stroke:#383838;stroke-width:1.0;"/><polygon fill="#383838" points="209,120.78,209.064,120.8085,209.6738,118.9239,210.6589,117.2062,211.5217,115.4341,211.9827,113.4834,213,111.78,212.9817,111.7617,212.0995,112.4795,211.3096,113.2896,210.5839,114.1639,209.637,114.817,209,115.78,209.1305,115.9105,208.0514,114.8314,207.3534,114.1334,206.7018,113.4818,205.7798,112.5598,205,111.78,205.0208,111.7892,205.7903,113.5757,206.6544,115.4042,207.4728,117.2124,208.3784,119.0593,209,120.78" style="stroke:#383838;stroke-width:1.0;"/><!--MD5=[80f00f63b73713e2f6a7d39e42ed488b]
link DefinirCriticidadeController to CriticidadeRepository--><path d="M240.037,226.263 L240.1202,226.3055 L241.3253,229.019 L243.0179,231.9818 L244.5518,234.8634 L245.5636,237.478 L247.2981,240.4622 L247.2669,240.4476 L248.5208,243.3645 L249.9324,246.3551 L251.4537,249.3969 L252.5972,252.2621 L254.2699,255.3747 L254.4971,255.4691 L255.2804,258.3255 L256.7271,261.4574 L258.2548,264.6229 L259.3115,267.5928 L260.6159,270.6656 L260.6445,270.6757 L261.6793,273.7278 L262.8444,276.8257 L263.9466,279.9015 L265.1688,283.0194 L266,286 L266.2859,286.085 L267.3074,289.5113 L268.1445,292.8828 L269.2516,296.3345 L270.3713,299.79 L271.0901,303.1264 L270.7804,303.0439 L272.3139,306.7062 L272.8274,310.0969 L274.1163,313.6941 L274.6067,317.0787 L275.7516,320.6375 L275.722,320.6304 L276.9226,324.2723 L277.4313,327.7489 L278.3482,331.323 L279.2994,334.9054 L280.0033,338.4286 L280.1842,338.4675 L280.7738,342.0216 L281.6724,345.6421 L282.0711,349.1551 L283.2155,352.8284 L283.8641,356.3952 L284.1033,356.4415 L284.7558,360.0402 L285.527,363.6619 L285.7465,367.1768 L286.3704,370.77 L287.3527,374.4326 L287.0806,374.3852 L287.954,378.0288 L288.5208,381.619 L289.5323,385.2866 L289.7845,388.8221 L290.4881,392.4361 L290.3374,392.4125 L291.1485,396.0248 L291.3156,399.5362 L291.9407,403.1194 L293.0138,406.7729 L293.289,410.3012 L293.4807,410.3283 L294.1093,413.8712 L294.1415,417.3301 L294.9207,420.8942 L295.5371,424.4355 L295.7744,427.9233 L295.5661,427.8969 L296.1698,431.3728 L296.7054,434.84 L297.3749,438.3243 L297.5234,441.7425 L297.963,445.1976 L298.1673,445.2208 L298.1006,448.5342 L298.4282,451.8924 L299.3319,455.3161 L299.175,458.6192 L299.8738,462.0196 L300.0988,462.0425 L300.2955,465.2819 L300.416,468.5136 L300.7084,471.7628 L301.398,475.0523 L301.5255,478.2847 L301.393,478.2727 L302.0698,481.4291 L301.8454,484.504 L302.6457,487.6715 L302.8691,490.7869 L302.937,493.8882 L303.0455,493.8964 L303.3935,499.6505 L304.1301,505.4341 L304.5156,511.191 L304.7543,516.9369 L305.1148,522.692 L305.2338,522.6989 L305.3456,527.669 L306.01,532.6712 L306.0494,537.6372 L306.3459,542.618 L306.558,547.594 " fill="none" style="stroke:#383838;stroke-width:1.0;"/><polygon fill="#383838" points="306.813,552.9281,306.8783,552.9535,307.3973,551.0419,308.299,549.279,309.0762,547.4677,309.4433,545.4972,310.378,543.7471,310.3588,543.7297,309.5119,544.4888,308.7617,545.3358,308.0787,546.2438,307.1641,546.9415,306.5739,547.9338,306.698,548.0704,305.5952,547.0175,304.8548,546.3634,304.1586,545.7579,303.2052,544.8694,302.3871,544.1297,302.4074,544.1399,303.2628,545.8846,304.2106,547.6758,305.1139,549.4446,306.1022,551.2562,306.813,552.9281" style="stroke:#383838;stroke-width:1.0;"/><!--MD5=[38b5dc2ffc10ddaa8829ebfe0812cf3a]
link DefinirCriticidadeController to CatalogoRepository--><path d="M107.901,226.077 L107.9582,226.1509 L106.1829,227.1743 L104.7428,228.6308 L103.1936,229.9462 L101.2854,230.798 L99.8741,232.2916 L99.8518,232.2652 L98.1914,233.462 L96.6432,234.7919 L95.1731,236.2144 L93.434,237.3179 L92.0716,238.8681 L92.2386,239.0488 L90.3802,240.0504 L89.0095,241.5795 L87.6982,243.1729 L86.0408,244.3919 L84.5655,245.8078 L84.5872,245.829 L83.1278,247.2587 L81.7671,248.7849 L80.3589,250.2646 L79.0415,251.8331 L77.4278,253.112 L77.6524,253.3082 L76.3157,254.8446 L74.834,256.2544 L73.5645,257.8495 L72.3049,259.4533 L70.7304,260.782 L70.4764,260.5865 L69.7323,262.5733 L68.1519,263.9165 L67.2073,265.749 L65.608,267.0775 L64.5453,268.8191 L64.52,268.8022 L63.6994,270.683 L62.287,272.1693 L61.2238,273.8884 L60.1899,275.627 L58.9445,277.2247 L59.1057,277.3155 L57.9541,278.9789 L57.0779,280.7975 L55.7562,282.365 L55.099,284.307 L54,286 L54.2224,286.0995 L52.676,289.4431 L51.2401,292.8361 L49.2911,295.9996 L47.7182,299.3313 L46.4785,302.8121 L46.2164,302.7251 L45.2953,306.2927 L44.0789,309.7623 L43.2909,313.3741 L41.7714,316.7431 L40.6868,320.2564 L40.5383,320.2217 L39.9464,323.8676 L38.7198,327.3651 L37.9446,330.9681 L37.6109,334.6744 L36.4909,338.1967 L36.6824,338.2254 L36.267,341.905 L35.2559,345.4956 L34.9909,349.1977 L34.5633,352.8754 L33.7571,356.4967 L33.5477,356.4808 L33.4334,360.1981 L33.2506,363.9102 L33.2025,367.6325 L32.6307,371.3151 L32.3514,375.0199 L32.557,375.0222 L32.0631,378.7391 L31.966,382.4605 L32.4485,386.1885 L31.8638,389.9043 L32.1402,393.63 L32.3662,393.6403 L32.4018,397.3463 L32.361,401.0488 L32.4927,404.7593 L33.0233,408.4879 L32.9895,412.1907 L32.8571,412.1779 L33.6065,415.8911 L33.4554,419.5171 L34.3282,423.2422 L34.6245,426.9115 L34.7655,430.5658 L34.8733,430.5811 L35.3,434.1793 L36.1127,437.8325 L36.5768,441.436 L36.895,445.0188 L37.3343,448.6188 L37.4516,448.6403 L37.923,452.1272 L38.9387,455.7141 L39.3388,459.1879 L39.9921,462.7083 L40.5622,466.2133 L40.2982,466.1551 L41.137,469.5745 L42.2938,473.0642 L43.0006,476.4545 L43.5461,479.8091 L44.3153,483.2132 L44.1766,483.1779 L45.0499,486.443 L45.6776,489.6455 L46.9806,493.02 L47.9494,496.3094 L48.4598,499.4821 L48.6847,499.5463 L49.6372,502.6472 L50.1622,505.6259 L51.1382,508.7336 L51.8157,511.7559 L52.8618,514.8835 L52.9822,514.9214 L53.8715,517.7959 L54.9062,520.7162 L55.4798,523.4915 L56.4253,526.3838 L57.3874,529.2812 L57.574,529.3448 L58.5292,532.0141 L58.978,534.5109 L60.0152,537.208 L61.0627,539.9088 L61.903,542.5389 L61.6479,542.4458 L62.9248,544.989 L63.7593,547.3707 L64.4838,549.7123 L65.4596,552.1456 L66.2745,554.5202 " fill="none" style="stroke:#383838;stroke-width:1.0;"/><polygon fill="#383838" points="68.1582,559.4569,68.2282,559.4607,68.126,557.4826,68.4339,555.5265,68.6083,553.5632,68.3436,551.5764,68.6867,549.6222,68.6631,549.6117,68.0947,550.5968,67.6456,551.6353,67.2793,552.7109,66.6275,553.6587,66.3756,554.7855,66.451,554.9539,65.2571,554.1315,64.2834,553.8008,63.3365,553.5302,62.2334,552.9105,61.2124,552.4744,61.2285,552.4904,62.594,553.8634,64.0329,555.3093,65.4364,556.7201,66.9075,558.1981,68.1582,559.4569" style="stroke:#383838;stroke-width:1.0;"/><!--MD5=[239ff202fba46dfbd687583717a2ac41]
link DefinirCriticidadeController to PersistenceContext--><path d="M186.433,226.081 L186.6897,226.1933 L181.9207,235.0166 L178.6568,244.4983 L174.9027,253.7656 L169.5369,262.3277 L166.3072,271.8245 L162.396,281.023 " fill="none" style="stroke:#383838;stroke-width:1.0;"/><polygon fill="#383838" points="160.368,285.659,160.4152,285.7107,161.7294,284.2287,163.3205,283.05,164.8214,281.7725,166.0258,280.1703,167.6407,279.0176,167.6312,278.9934,166.5352,279.2973,165.4868,279.7229,164.4715,280.2329,163.3422,280.4516,162.3725,281.0784,162.5444,281.1456,161.7647,279.9482,161.4868,278.9472,161.2701,277.97,160.6972,276.8535,160.3117,275.8103,160.3345,275.8104,160.3123,277.78,160.3937,279.7501,160.4252,281.72,160.552,283.6904,160.368,285.659" style="stroke:#383838;stroke-width:1.0;"/><!--MD5=[70b83d8e693714e4b487010cd4296fcf]
link DefinirCriticidadeController to RepositoryFactory--><path d="M228.066,226.187 L228.1561,226.2118 L228.6616,228.9452 L229.695,231.824 L230.5566,234.6555 L230.8527,237.3313 L231.9315,240.2226 L231.8979,240.2147 L232.4487,243.1821 L233.1691,246.189 L234.0074,249.2235 L234.4395,252.1631 L235.4405,255.2357 L235.6824,255.2808 L235.7527,258.3366 L236.5292,261.5241 L237.392,264.7276 L237.7534,267.8377 L238.3784,270.997 L238.4085,271.0009 L238.7949,274.2511 L239.3181,277.5194 L239.7753,280.779 L240.3585,284.0552 L240.531,287.2771 L240.8285,287.2978 L241.0627,290.612 L241.105,293.9129 L241.4282,297.2333 L241.7646,300.5546 L241.6838,303.8468 L241.3633,303.8457 L241.9731,307.1739 L241.5275,310.4983 L241.8843,313.8257 L241.4148,317.15 L241.6225,320.4768 L241.5922,320.474 L241.6528,323.7986 L241.005,327.0591 L240.7753,330.3575 L240.5806,333.659 L240.1327,336.9376 L240.3143,336.973 L239.5045,340.1497 L239.0049,343.387 L238.0034,346.5263 L237.7506,349.8117 L237,353 L237.2327,353.0721 L236.2941,355.9465 L235.471,358.8567 L234.1111,361.6006 L233.1447,364.4664 L232.5269,367.4402 L232.271,367.3364 L231.3464,370.2794 L230.1334,373.1054 L229.3386,376.1012 L227.8297,378.8072 L226.7454,381.6854 L226.6082,381.6188 L225.5013,384.4786 L223.8082,387.0538 L222.532,389.8314 L221.6636,392.8072 L220.0689,395.4301 L220.2383,395.5238 L218.923,398.1759 L217.0806,400.5364 L215.8983,403.2621 L214.5722,405.9082 L212.911,408.369 " fill="none" style="stroke:#383838;stroke-width:1.0;"/><polygon fill="#383838" points="210.179,412.964,210.2195,413.0212,211.7064,411.7126,213.4307,410.7391,215.0778,409.6564,216.4705,408.215,218.2152,407.2702,218.2088,407.2451,217.0838,407.4115,215.9909,407.7045,214.9204,408.0854,213.7727,408.1632,212.7332,408.6656,212.912,408.7111,212.2505,407.5174,212.1111,406.4565,212.0355,405.4119,211.5892,404.2729,211.3378,403.1836,211.3604,403.1862,211.0955,405.1384,210.9334,407.1027,210.7217,409.0612,210.6046,411.0309,210.179,412.964" style="stroke:#383838;stroke-width:1.0;"/><!--MD5=[754b775031405e096442b27febffa290]
link PersistenceContext to RepositoryFactory--><path d="M155.146,353.006 L155.4158,353.0819 L157.1862,361.9974 L160.5381,371.3578 L163.375,380.5733 L164.5184,389.3124 L167.9063,398.6829 L170.578,407.852 " fill="none" style="stroke:#383838;stroke-width:1.0;"/><polygon fill="#383838" points="171.983,412.843,172.0523,412.853,172.1288,410.8738,172.6118,408.9534,172.9624,407.0139,172.8778,405.0113,173.3956,403.096,173.373,403.0833,172.7182,404.0132,172.1773,405.007,171.7156,406.0452,170.981,406.9304,170.6287,408.0299,170.7189,408.1909,169.5391,407.2933,168.6228,406.8656,167.7387,406.4953,166.6675,405.7914,165.6947,405.2629,165.7122,405.2775,166.9442,406.7721,168.2558,408.333,169.529,409.8619,170.8756,411.4516,171.983,412.843" style="stroke:#383838;stroke-width:1.0;"/><!--MD5=[c2c0504e9c5e789a9a7c44975a41f14c]
link RepositoryFactory to CriticidadeRepository--><path d="M218.486,493.176 L218.6937,493.3641 L225.2664,500.7428 L233.0567,509.2243 L240.4505,517.3466 L246.5404,524.2879 L254.3585,532.7946 L261.2037,540.42 L268.815,548.7394 " fill="none" style="stroke:#383838;stroke-width:1.0;"/><polygon fill="#383838" points="272.426,552.7259,272.4926,552.7478,271.6793,550.8116,271.2562,549.0038,270.706,547.1541,269.7381,545.167,269.3485,543.3702,269.3226,543.3689,269.1506,544.4932,269.1091,545.6239,269.1583,546.7591,268.8949,547.8788,269.0693,549.0202,269.0784,549.2045,267.9289,548.7545,266.806,548.8427,265.6864,548.9965,264.5479,548.7683,263.4193,548.741,263.4285,548.7618,265.2163,549.5282,267.0461,550.3894,268.8556,551.2048,270.7037,552.1075,272.426,552.7259" style="stroke:#383838;stroke-width:1.0;"/><!--MD5=[1c7e7a1fe085f3cc90df717ea11f1cec]
link RepositoryFactory to CatalogoRepository--><path d="M154.328,493.176 L154.5541,493.3415 L148.2263,500.5776 L143.2242,508.7839 L137.7904,516.6742 L130.9369,523.5255 L125.965,531.7539 L119.9339,539.2071 L114.3242,546.9688 L109.081,554.9986 " fill="none" style="stroke:#383838;stroke-width:1.0;"/><polygon fill="#383838" points="105.9636,559.2577,105.9985,559.3185,107.6034,558.1577,109.4128,557.3531,111.1555,556.4326,112.6795,555.1305,114.5063,554.3565,114.5024,554.3309,113.3665,554.3892,112.2507,554.5766,111.1488,554.8537,109.9989,554.8216,108.9162,555.2226,109.0985,555.2508,108.5353,554.0724,108.5046,552.9764,108.5388,551.8905,108.1951,550.7461,108.0501,549.6324,108.0724,549.6372,107.6224,551.5552,107.2737,553.4951,106.8761,555.4245,106.5717,557.374,105.9636,559.2577" style="stroke:#383838;stroke-width:1.0;"/><!--MD5=[8c6fbe354da9b92440a407a61ad511d9]
@startuml
'http://plantuml.com/skinparam.html
skinparam handwritten true
skinparam monochrome true
skinparam packageStyle rect
skinparam defaultFontName FG Virgil
skinparam shadowing false

class DefinirCriticidadeUI <<presentation>>
class DefinirCriticidadeController <<application>>
class PersistenceContext <<persistence>>
class RepositoryFactory <<factory>>
class CatalogoRepository <<repository>>
class CriticidadeRepository <<repository>>



DefinirCriticidadeUI - -> DefinirCriticidadeController
DefinirCriticidadeController : listCatalogo()
DefinirCriticidadeController : listCriticidade()
DefinirCriticidadeController : defineCriticidade(obj, etiqueta, escala, cor, designacao)
DefinirCriticidadeController : defineContrato(designacao)

DefinirCriticidadeController - -> CriticidadeRepository
DefinirCriticidadeController - -> CatalogoRepository
DefinirCriticidadeController - -> PersistenceContext
PersistenceContext : repositories()
DefinirCriticidadeController - -> RepositoryFactory
RepositoryFactory : catalogo()
RepositoryFactory : criticidade()

PersistenceContext - -> RepositoryFactory
RepositoryFactory - -> CriticidadeRepository
RepositoryFactory - -> CatalogoRepository

CriticidadeRepository : save(nivelCriticidade)
CriticidadeRepository : findAllCriticidade()

CatalogoRepository : save(cont)
@enduml

@startuml
skinparam handwritten true
skinparam monochrome true
skinparam packageStyle rect
skinparam defaultFontName FG Virgil
skinparam shadowing false

class DefinirCriticidadeUI <<presentation>>
class DefinirCriticidadeController <<application>>
class PersistenceContext <<persistence>>
class RepositoryFactory <<factory>>
class CatalogoRepository <<repository>>
class CriticidadeRepository <<repository>>



DefinirCriticidadeUI - -> DefinirCriticidadeController
DefinirCriticidadeController : listCatalogo()
DefinirCriticidadeController : listCriticidade()
DefinirCriticidadeController : defineCriticidade(obj, etiqueta, escala, cor, designacao)
DefinirCriticidadeController : defineContrato(designacao)

DefinirCriticidadeController - -> CriticidadeRepository
DefinirCriticidadeController - -> CatalogoRepository
DefinirCriticidadeController - -> PersistenceContext
PersistenceContext : repositories()
DefinirCriticidadeController - -> RepositoryFactory
RepositoryFactory : catalogo()
RepositoryFactory : criticidade()

PersistenceContext - -> RepositoryFactory
RepositoryFactory - -> CriticidadeRepository
RepositoryFactory - -> CatalogoRepository

CriticidadeRepository : save(nivelCriticidade)
CriticidadeRepository : findAllCriticidade()

CatalogoRepository : save(cont)
@enduml

PlantUML version 1.2021.6beta4(Unknown compile time)
(GPL source distribution)
Java Runtime: Java(TM) SE Runtime Environment
JVM: Java HotSpot(TM) 64-Bit Server VM
Default Encoding: UTF-8
Language: en
Country: US
--></g></svg>