<?xml version="1.0" encoding="UTF-8" standalone="no"?><svg xmlns="http://www.w3.org/2000/svg" xmlns:xlink="http://www.w3.org/1999/xlink" contentScriptType="application/ecmascript" contentStyleType="text/css" height="639px" preserveAspectRatio="none" style="width:485px;height:639px;" version="1.1" viewBox="0 0 485 639" width="485px" zoomAndPan="magnify"><defs/><g><!--MD5=[6250fd8aad69164749c4148272cf33ee]
class DefinirCriticidadeUI--><polygon fill="#F8F8F8" points="169,7,169,7.2102,178.8,6.5857,188.6,7.1933,198.4,7.3997,208.2,6.2866,218,6.9223,227.8,6.5735,237.6,6.6165,247.4,6.9318,257.2,6.3086,267,7.5536,276.8,6.3697,286.6,6.8022,296.4,7.4319,306.2,6.9142,316,7,316.0682,7,315.9681,17.7875,316.1785,28.575,316.2391,39.3625,316.5857,50.15,316,60.9375,316,61.6086,306.2,61.6168,296.4,61.1921,286.6,61.4011,276.8,61.6397,267,60.2163,257.2,61.616,247.4,60.641,237.6,61.4713,227.8,60.4425,218,60.869,208.2,61.6791,198.4,60.8888,188.6,61.0428,178.8,61.2761,169,60.9375,169.4162,60.9375,168.9961,50.15,169.2872,39.3625,168.4276,28.575,169.2844,17.7875,169,7" style="stroke:#383838;stroke-width:1.5;"/><polygon fill="#C2C2C2" points="195.0608,28.6444,193.4484,30.8475,191.5412,34.0745,188.8136,36.2491,185.9474,37.4384,183.662,37.5416,180.7247,36.0543,177.9532,35.0827,175.8495,33.1099,174.7461,30.8515,174.0917,29.0533,173.4506,26.7045,172.41,24.6832,173.2096,22.7098,173.9102,20.548,176.5393,18.8382,178.389,16.6198,180.6784,15.8832,183.4001,15.2488,186.8904,15.6257,188.8021,16.5273,191.0247,16.9359,193.7272,19.7047,194.6693,22.6277,195.0786,24.6221,194.615,27.9086" style="stroke:#383838;stroke-width:1.0;"/><path d="M186.3438,21.6406 C185.4063,21.2031 184.8125,21.0625 183.9375,21.0625 C181.3125,21.0625 179.3125,23.1406 179.3125,25.8594 L179.3125,26.9844 C179.3125,29.5625 181.4219,31.4531 184.3125,31.4531 C185.5313,31.4531 186.6875,31.1563 187.4375,30.6094 C188.0156,30.2031 188.3438,29.75 188.3438,29.3594 C188.3438,28.9063 187.9531,28.5156 187.4844,28.5156 C187.2656,28.5156 187.0625,28.5938 186.875,28.7813 C186.4219,29.2656 186.4219,29.2656 186.2344,29.3594 C185.8125,29.625 185.125,29.75 184.3594,29.75 C182.3125,29.75 181.0156,28.6563 181.0156,26.9531 L181.0156,25.8594 C181.0156,24.0781 182.2656,22.7656 184,22.7656 C184.5781,22.7656 185.1875,22.9219 185.6563,23.1719 C186.1406,23.4531 186.3125,23.6719 186.4063,24.0781 C186.4688,24.4844 186.5,24.6094 186.6406,24.7344 C186.7813,24.875 187.0156,24.9844 187.2344,24.9844 C187.5,24.9844 187.7656,24.8438 187.9375,24.625 C188.0469,24.4688 188.0781,24.2813 188.0781,23.8594 L188.0781,22.4375 C188.0781,22 188.0625,21.875 187.9688,21.7188 C187.8125,21.4531 187.5313,21.3125 187.2344,21.3125 C186.9375,21.3125 186.7344,21.4063 186.5156,21.7188 L186.3438,21.6406 Z " fill="#000000"/><text fill="#000000" font-family="FG Virgil" font-size="12" font-style="italic" lengthAdjust="spacing" textLength="90" x="210.5" y="23.1387">«presentation»</text><text fill="#000000" font-family="FG Virgil" font-size="12" lengthAdjust="spacing" textLength="115" x="198" y="37.1074">DefinirCriticidadeUI</text><path d="M170,44.9375 L170,45.2177 L179.6667,44.3851 L189.3333,45.1952 L199,45.4704 L208.6667,43.9863 L218.3333,44.8339 L228,44.3688 L237.6667,44.4262 L247.3333,44.8466 L257,44.0157 L266.6667,45.6757 L276.3333,44.0971 L286,44.6738 L295.6667,45.5134 L305.3333,44.8231 L315,44.9375 " fill="#F8F8F8" style="stroke:#383838;stroke-width:1.5;"/><path d="M170,52.9375 L170,53.2177 L179.6667,52.3851 L189.3333,53.1952 L199,53.4704 L208.6667,51.9863 L218.3333,52.8339 L228,52.3688 L237.6667,52.4262 L247.3333,52.8466 L257,52.0157 L266.6667,53.6757 L276.3333,52.0971 L286,52.6738 L295.6667,53.5134 L305.3333,52.8231 L315,52.9375 " fill="#F8F8F8" style="stroke:#383838;stroke-width:1.5;"/><!--MD5=[0e7000bc9f25e264d5902aeb009ffa17]
class DefinirCriticidadeController--><polygon fill="#F8F8F8" points="7,121,7,121.2102,17.0213,120.5857,27.0426,121.1933,37.0638,121.3997,47.0851,120.2866,57.1064,120.9223,67.1277,120.5735,77.1489,120.6165,87.1702,120.9318,97.1915,120.3086,107.2128,121.5536,117.234,120.3697,127.2553,120.8022,137.2766,121.4319,147.2979,120.9142,157.3191,121.0682,167.3404,120.9681,177.3617,121.1785,187.383,121.2391,197.4043,121.5857,207.4255,121.6711,217.4468,121.6793,227.4681,121.2546,237.4894,121.4636,247.5106,121.7022,257.5319,120.2788,267.5532,121.6785,277.5745,120.7035,287.5957,121.5338,297.617,120.505,307.6383,120.9315,317.6596,121.7416,327.6809,120.9513,337.7021,121.1053,347.7234,121.3386,357.7447,121.4162,367.766,120.9961,377.7872,121.2872,387.8085,120.4276,397.8298,121.2844,407.8511,121.5482,417.8723,121.4445,427.8936,121.613,437.9149,120.5169,447.9362,120.3478,457.9574,120.3786,467.9787,120.9411,478,121,477.8035,121,478.6814,130.5597,477.8253,140.1193,477.6569,149.679,478.2283,159.2386,477.3332,168.7983,477.4809,178.358,478.649,187.9176,478.4357,197.4773,478.7345,207.0369,477.6782,216.5966,478,226.1563,478,226.4754,467.9787,226.7467,457.9574,225.6838,447.9362,226.0604,437.9149,226.2822,427.8936,226.808,417.8723,226.1521,407.8511,226.6188,397.8298,225.6025,387.8085,225.479,377.7872,226.6599,367.766,225.4393,357.7447,226.6652,347.7234,226.3629,337.7021,225.8883,327.6809,225.8025,317.6596,226.615,307.6383,225.8569,297.617,226.7481,287.5957,225.6035,277.5745,226.7737,267.5532,226.6406,257.5319,226.4012,247.5106,226.2035,237.4894,226.8829,227.4681,226.7698,217.4468,226.3255,207.4255,226.4244,197.4043,226.026,187.383,226.8727,177.3617,226.3111,167.3404,226.3288,157.3191,225.5479,147.2979,225.751,137.2766,226.687,127.2553,226.586,117.234,226.1133,107.2128,225.8341,97.1915,225.9373,87.1702,225.4701,77.1489,226.571,67.1277,226.8958,57.1064,226.6826,47.0851,226.8512,37.0638,226.0195,27.0426,226.2435,17.0213,225.7687,7,226.1563,7.284,226.1563,7.2468,216.5966,7.5524,207.0369,6.7703,197.4773,6.8656,187.9176,7.4435,178.358,7.5673,168.7983,6.4875,159.2386,6.8061,149.679,7.1493,140.1193,6.3892,130.5597,7,121" style="stroke:#383838;stroke-width:1.5;"/><polygon fill="#C2C2C2" points="168.3108,142.6444,166.6984,144.8475,164.7912,148.0745,162.0636,150.2491,159.1974,151.4384,156.912,151.5416,153.9747,150.0543,151.2032,149.0827,149.0995,147.1099,147.9961,144.8515,147.3417,143.0533,146.7006,140.7045,145.66,138.6832,146.4596,136.7098,147.1602,134.548,149.7893,132.8382,151.639,130.6198,153.9284,129.8832,156.6501,129.2488,160.1404,129.6257,162.0521,130.5273,164.2747,130.9359,166.9772,133.7047,167.9193,136.6277,168.3286,138.6221,167.865,141.9086" style="stroke:#383838;stroke-width:1.0;"/><path d="M159.5938,135.6406 C158.6563,135.2031 158.0625,135.0625 157.1875,135.0625 C154.5625,135.0625 152.5625,137.1406 152.5625,139.8594 L152.5625,140.9844 C152.5625,143.5625 154.6719,145.4531 157.5625,145.4531 C158.7813,145.4531 159.9375,145.1563 160.6875,144.6094 C161.2656,144.2031 161.5938,143.75 161.5938,143.3594 C161.5938,142.9063 161.2031,142.5156 160.7344,142.5156 C160.5156,142.5156 160.3125,142.5938 160.125,142.7813 C159.6719,143.2656 159.6719,143.2656 159.4844,143.3594 C159.0625,143.625 158.375,143.75 157.6094,143.75 C155.5625,143.75 154.2656,142.6563 154.2656,140.9531 L154.2656,139.8594 C154.2656,138.0781 155.5156,136.7656 157.25,136.7656 C157.8281,136.7656 158.4375,136.9219 158.9063,137.1719 C159.3906,137.4531 159.5625,137.6719 159.6563,138.0781 C159.7188,138.4844 159.75,138.6094 159.8906,138.7344 C160.0313,138.875 160.2656,138.9844 160.4844,138.9844 C160.75,138.9844 161.0156,138.8438 161.1875,138.625 C161.2969,138.4688 161.3281,138.2813 161.3281,137.8594 L161.3281,136.4375 C161.3281,136 161.3125,135.875 161.2188,135.7188 C161.0625,135.4531 160.7813,135.3125 160.4844,135.3125 C160.1875,135.3125 159.9844,135.4063 159.7656,135.7188 L159.5938,135.6406 Z " fill="#000000"/><text fill="#000000" font-family="FG Virgil" font-size="12" font-style="italic" lengthAdjust="spacing" textLength="80" x="218.75" y="137.1387">«application»</text><text fill="#000000" font-family="FG Virgil" font-size="12" lengthAdjust="spacing" textLength="162" x="177.75" y="151.1074">DefinirCriticidadeController</text><path d="M8,158.9375 L8,159.2177 L17.9787,158.3851 L27.9574,159.1952 L37.9362,159.4704 L47.9149,157.9863 L57.8936,158.8339 L67.8723,158.3688 L77.8511,158.4262 L87.8298,158.8466 L97.8085,158.0157 L107.7872,159.6757 L117.766,158.0971 L127.7447,158.6738 L137.7234,159.5134 L147.7021,158.8231 L157.6809,159.0285 L167.6596,158.8949 L177.6383,159.1755 L187.617,159.2563 L197.5957,159.7184 L207.5745,159.8322 L217.5532,159.8432 L227.5319,159.277 L237.5106,159.5556 L247.4894,159.8738 L257.4681,157.9759 L267.4468,159.8422 L277.4255,158.5422 L287.4043,159.6492 L297.383,158.2775 L307.3617,158.8462 L317.3404,159.9263 L327.3191,158.8725 L337.2979,159.0779 L347.2766,159.389 L357.2553,159.4925 L367.234,158.9323 L377.2128,159.3205 L387.1915,158.1743 L397.1702,159.3167 L407.1489,159.6684 L417.1277,159.5302 L427.1064,159.7549 L437.0851,158.2934 L447.0638,158.0679 L457.0426,158.109 L467.0213,158.859 L477,158.9375 " fill="#F8F8F8" style="stroke:#383838;stroke-width:1.5;"/><path d="M8,166.9375 L8,167.2177 L17.9787,166.3851 L27.9574,167.1952 L37.9362,167.4704 L47.9149,165.9863 L57.8936,166.8339 L67.8723,166.3688 L77.8511,166.4262 L87.8298,166.8466 L97.8085,166.0157 L107.7872,167.6757 L117.766,166.0971 L127.7447,166.6738 L137.7234,167.5134 L147.7021,166.8231 L157.6809,167.0285 L167.6596,166.8949 L177.6383,167.1755 L187.617,167.2563 L197.5957,167.7184 L207.5745,167.8322 L217.5532,167.8432 L227.5319,167.277 L237.5106,167.5556 L247.4894,167.8738 L257.4681,165.9759 L267.4468,167.8422 L277.4255,166.5422 L287.4043,167.6492 L297.383,166.2775 L307.3617,166.8462 L317.3404,167.9263 L327.3191,166.8725 L337.2979,167.0779 L347.2766,167.389 L357.2553,167.4925 L367.234,166.9323 L377.2128,167.3205 L387.1915,166.1743 L397.1702,167.3167 L407.1489,167.6684 L417.1277,167.5302 L427.1064,167.7549 L437.0851,166.2934 L447.0638,166.0679 L457.0426,166.109 L467.0213,166.859 L477,166.9375 " fill="#F8F8F8" style="stroke:#383838;stroke-width:1.5;"/><text fill="#000000" font-family="FG Virgil" font-size="11" lengthAdjust="spacing" textLength="74" x="13" y="181.1479">listCatalogo()</text><text fill="#000000" font-family="FG Virgil" font-size="11" lengthAdjust="spacing" textLength="84" x="13" y="193.9526">listCriticidade()</text><text fill="#000000" font-family="FG Virgil" font-size="11" lengthAdjust="spacing" textLength="459" x="13" y="206.7573">defineCriticidade(tempoMaximo, tempoMedio, etiqueta, escala, cor, designacao)</text><text fill="#000000" font-family="FG Virgil" font-size="11" lengthAdjust="spacing" textLength="93" x="13" y="219.562">defineContrato()</text><!--MD5=[e8c189551b7885b999ad7cefb30fc2a3]
class PersistenceContext--><polygon fill="#F8F8F8" points="105.5,286,105.5,286.2102,115.3667,285.5857,125.2333,286.1933,135.1,286.3997,144.9667,285.2866,154.8333,285.9223,164.7,285.5735,174.5667,285.6165,184.4333,285.9318,194.3,285.3086,204.1667,286.5536,214.0333,285.3697,223.9,285.8022,233.7667,286.4319,243.6333,285.9142,253.5,286,253.5682,286,253.4681,295.5346,253.6785,305.0692,253.7391,314.6038,254.0857,324.1384,254.1711,333.673,254.1793,343.2076,253.5,352.7422,253.5,352.9968,243.6333,353.2058,233.7667,353.4444,223.9,352.021,214.0333,353.4207,204.1667,352.4457,194.3,353.276,184.4333,352.2472,174.5667,352.6737,164.7,353.4838,154.8333,352.6935,144.9667,352.8475,135.1,353.0808,125.2333,353.1584,115.3667,352.7383,105.5,352.7422,105.7872,352.7422,104.9276,343.2076,105.7844,333.673,106.0482,324.1384,105.9445,314.6038,106.113,305.0692,105.0169,295.5346,105.5,286" style="stroke:#383838;stroke-width:1.5;"/><polygon fill="#C2C2C2" points="131.5608,307.6444,129.9484,309.8475,128.0412,313.0745,125.3136,315.2491,122.4474,316.4384,120.162,316.5416,117.2247,315.0543,114.4532,314.0827,112.3495,312.1099,111.2461,309.8515,110.5917,308.0533,109.9506,305.7045,108.91,303.6832,109.7096,301.7098,110.4102,299.548,113.0393,297.8382,114.889,295.6198,117.1784,294.8832,119.9001,294.2488,123.3904,294.6257,125.3021,295.5273,127.5247,295.9359,130.2272,298.7047,131.1693,301.6277,131.5786,303.6221,131.115,306.9086" style="stroke:#383838;stroke-width:1.0;"/><path d="M122.8438,300.6406 C121.9063,300.2031 121.3125,300.0625 120.4375,300.0625 C117.8125,300.0625 115.8125,302.1406 115.8125,304.8594 L115.8125,305.9844 C115.8125,308.5625 117.9219,310.4531 120.8125,310.4531 C122.0313,310.4531 123.1875,310.1563 123.9375,309.6094 C124.5156,309.2031 124.8438,308.75 124.8438,308.3594 C124.8438,307.9063 124.4531,307.5156 123.9844,307.5156 C123.7656,307.5156 123.5625,307.5938 123.375,307.7813 C122.9219,308.2656 122.9219,308.2656 122.7344,308.3594 C122.3125,308.625 121.625,308.75 120.8594,308.75 C118.8125,308.75 117.5156,307.6563 117.5156,305.9531 L117.5156,304.8594 C117.5156,303.0781 118.7656,301.7656 120.5,301.7656 C121.0781,301.7656 121.6875,301.9219 122.1563,302.1719 C122.6406,302.4531 122.8125,302.6719 122.9063,303.0781 C122.9688,303.4844 123,303.6094 123.1406,303.7344 C123.2813,303.875 123.5156,303.9844 123.7344,303.9844 C124,303.9844 124.2656,303.8438 124.4375,303.625 C124.5469,303.4688 124.5781,303.2813 124.5781,302.8594 L124.5781,301.4375 C124.5781,301 124.5625,300.875 124.4688,300.7188 C124.3125,300.4531 124.0313,300.3125 123.7344,300.3125 C123.4375,300.3125 123.2344,300.4063 123.0156,300.7188 L122.8438,300.6406 Z " fill="#000000"/><text fill="#000000" font-family="FG Virgil" font-size="12" font-style="italic" lengthAdjust="spacing" textLength="83" x="151" y="302.1387">«persistence»</text><text fill="#000000" font-family="FG Virgil" font-size="12" lengthAdjust="spacing" textLength="116" x="134.5" y="316.1074">PersistenceContext</text><path d="M106.5,323.9375 L106.5,324.2177 L116.2333,323.3851 L125.9667,324.1952 L135.7,324.4704 L145.4333,322.9863 L155.1667,323.8339 L164.9,323.3688 L174.6333,323.4262 L184.3667,323.8466 L194.1,323.0157 L203.8333,324.6757 L213.5667,323.0971 L223.3,323.6738 L233.0333,324.5134 L242.7667,323.8231 L252.5,323.9375 " fill="#F8F8F8" style="stroke:#383838;stroke-width:1.5;"/><path d="M106.5,331.9375 L106.5,332.2177 L116.2333,331.3851 L125.9667,332.1952 L135.7,332.4704 L145.4333,330.9863 L155.1667,331.8339 L164.9,331.3688 L174.6333,331.4262 L184.3667,331.8466 L194.1,331.0157 L203.8333,332.6757 L213.5667,331.0971 L223.3,331.6738 L233.0333,332.5134 L242.7667,331.8231 L252.5,331.9375 " fill="#F8F8F8" style="stroke:#383838;stroke-width:1.5;"/><text fill="#000000" font-family="FG Virgil" font-size="11" lengthAdjust="spacing" textLength="75" x="111.5" y="346.1479">repositories()</text><!--MD5=[48590afff58a68e2fcba47824d6f8a11]
class RepositoryFactory--><polygon fill="#F8F8F8" points="145.5,413,145.5,413.2102,155.6429,412.5857,165.7857,413.1933,175.9286,413.3997,186.0714,412.2866,196.2143,412.9223,206.3571,412.5735,216.5,412.6165,226.6429,412.9318,236.7857,412.3086,246.9286,413.5536,257.0714,412.3697,267.2143,412.8022,277.3571,413.4319,287.5,413,287.4142,413,287.5682,422.9434,287.4681,432.8867,287.6785,442.8301,287.7391,452.7734,288.0857,462.7168,288.1711,472.6602,288.1793,482.6035,287.5,492.5469,287.5,492.8015,277.3571,493.0105,267.2143,493.2491,257.0714,491.8257,246.9286,493.2254,236.7857,492.2504,226.6429,493.0807,216.5,492.0519,206.3571,492.4784,196.2143,493.2885,186.0714,492.4981,175.9286,492.6522,165.7857,492.8855,155.6429,492.9631,145.5,492.5469,145.4961,492.5469,145.7872,482.6035,144.9276,472.6602,145.7844,462.7168,146.0482,452.7734,145.9445,442.8301,146.113,432.8867,145.0169,422.9434,145.5,413" style="stroke:#383838;stroke-width:1.5;"/><polygon fill="#C2C2C2" points="171.5608,434.6444,169.9484,436.8475,168.0412,440.0745,165.3136,442.2491,162.4474,443.4384,160.162,443.5416,157.2247,442.0543,154.4532,441.0827,152.3495,439.1099,151.2461,436.8515,150.5917,435.0533,149.9506,432.7045,148.91,430.6832,149.7096,428.7098,150.4102,426.548,153.0393,424.8382,154.889,422.6198,157.1784,421.8832,159.9001,421.2488,163.3904,421.6257,165.3021,422.5273,167.5247,422.9359,170.2272,425.7047,171.1693,428.6277,171.5786,430.6221,171.115,433.9086" style="stroke:#383838;stroke-width:1.0;"/><path d="M162.8438,427.6406 C161.9063,427.2031 161.3125,427.0625 160.4375,427.0625 C157.8125,427.0625 155.8125,429.1406 155.8125,431.8594 L155.8125,432.9844 C155.8125,435.5625 157.9219,437.4531 160.8125,437.4531 C162.0313,437.4531 163.1875,437.1563 163.9375,436.6094 C164.5156,436.2031 164.8438,435.75 164.8438,435.3594 C164.8438,434.9063 164.4531,434.5156 163.9844,434.5156 C163.7656,434.5156 163.5625,434.5938 163.375,434.7813 C162.9219,435.2656 162.9219,435.2656 162.7344,435.3594 C162.3125,435.625 161.625,435.75 160.8594,435.75 C158.8125,435.75 157.5156,434.6563 157.5156,432.9531 L157.5156,431.8594 C157.5156,430.0781 158.7656,428.7656 160.5,428.7656 C161.0781,428.7656 161.6875,428.9219 162.1563,429.1719 C162.6406,429.4531 162.8125,429.6719 162.9063,430.0781 C162.9688,430.4844 163,430.6094 163.1406,430.7344 C163.2813,430.875 163.5156,430.9844 163.7344,430.9844 C164,430.9844 164.2656,430.8438 164.4375,430.625 C164.5469,430.4688 164.5781,430.2813 164.5781,429.8594 L164.5781,428.4375 C164.5781,428 164.5625,427.875 164.4688,427.7188 C164.3125,427.4531 164.0313,427.3125 163.7344,427.3125 C163.4375,427.3125 163.2344,427.4063 163.0156,427.7188 L162.8438,427.6406 Z " fill="#000000"/><text fill="#000000" font-family="FG Virgil" font-size="12" font-style="italic" lengthAdjust="spacing" textLength="56" x="201.5" y="429.1387">«factory»</text><text fill="#000000" font-family="FG Virgil" font-size="12" lengthAdjust="spacing" textLength="110" x="174.5" y="443.1074">RepositoryFactory</text><path d="M146.5,450.9375 L146.5,451.2177 L156.5,450.3851 L166.5,451.1952 L176.5,451.4704 L186.5,449.9863 L196.5,450.8339 L206.5,450.3688 L216.5,450.4262 L226.5,450.8466 L236.5,450.0157 L246.5,451.6757 L256.5,450.0971 L266.5,450.6738 L276.5,451.5134 L286.5,450.9375 " fill="#F8F8F8" style="stroke:#383838;stroke-width:1.5;"/><path d="M146.5,458.9375 L146.5,459.2177 L156.5,458.3851 L166.5,459.1952 L176.5,459.4704 L186.5,457.9863 L196.5,458.8339 L206.5,458.3688 L216.5,458.4262 L226.5,458.8466 L236.5,458.0157 L246.5,459.6757 L256.5,458.0971 L266.5,458.6738 L276.5,459.5134 L286.5,458.9375 " fill="#F8F8F8" style="stroke:#383838;stroke-width:1.5;"/><text fill="#000000" font-family="FG Virgil" font-size="11" lengthAdjust="spacing" textLength="56" x="151.5" y="473.1479">catalogo()</text><text fill="#000000" font-family="FG Virgil" font-size="11" lengthAdjust="spacing" textLength="66" x="151.5" y="485.9526">criticidade()</text><!--MD5=[37de35b2239f3e75f2a4e341603fb23d]
class CatalogoRepository--><polygon fill="#F8F8F8" points="40.5,559.5,40.5,559.7102,50.5,559.0857,60.5,559.6933,70.5,559.8997,80.5,558.7866,90.5,559.4223,100.5,559.0735,110.5,559.1165,120.5,559.4318,130.5,558.8086,140.5,560.0536,150.5,558.8697,160.5,559.3022,170.5,559.9319,180.5,559.4142,190.5,559.5,190.5682,559.5,190.4681,569.0346,190.6785,578.5692,190.7391,588.1038,191.0857,597.6384,191.1711,607.173,191.1793,616.7076,190.5,626.2422,190.5,626.4968,180.5,626.7058,170.5,626.9444,160.5,625.521,150.5,626.9207,140.5,625.9457,130.5,626.776,120.5,625.7472,110.5,626.1737,100.5,626.9838,90.5,626.1935,80.5,626.3475,70.5,626.5808,60.5,626.6584,50.5,626.2383,40.5,626.2422,40.7872,626.2422,39.9276,616.7076,40.7844,607.173,41.0482,597.6384,40.9445,588.1038,41.113,578.5692,40.0169,569.0346,40.5,559.5" style="stroke:#383838;stroke-width:1.5;"/><polygon fill="#C2C2C2" points="66.5608,581.1444,64.9484,583.3475,63.0412,586.5745,60.3136,588.7491,57.4474,589.9384,55.162,590.0416,52.2247,588.5543,49.4532,587.5827,47.3495,585.6099,46.2461,583.3515,45.5917,581.5533,44.9506,579.2045,43.91,577.1832,44.7096,575.2098,45.4102,573.048,48.0393,571.3382,49.889,569.1198,52.1784,568.3832,54.9001,567.7488,58.3904,568.1257,60.3021,569.0273,62.5247,569.4359,65.2272,572.2047,66.1693,575.1277,66.5786,577.1221,66.115,580.4086" style="stroke:#383838;stroke-width:1.0;"/><path d="M57.8438,574.1406 C56.9063,573.7031 56.3125,573.5625 55.4375,573.5625 C52.8125,573.5625 50.8125,575.6406 50.8125,578.3594 L50.8125,579.4844 C50.8125,582.0625 52.9219,583.9531 55.8125,583.9531 C57.0313,583.9531 58.1875,583.6563 58.9375,583.1094 C59.5156,582.7031 59.8438,582.25 59.8438,581.8594 C59.8438,581.4063 59.4531,581.0156 58.9844,581.0156 C58.7656,581.0156 58.5625,581.0938 58.375,581.2813 C57.9219,581.7656 57.9219,581.7656 57.7344,581.8594 C57.3125,582.125 56.625,582.25 55.8594,582.25 C53.8125,582.25 52.5156,581.1563 52.5156,579.4531 L52.5156,578.3594 C52.5156,576.5781 53.7656,575.2656 55.5,575.2656 C56.0781,575.2656 56.6875,575.4219 57.1563,575.6719 C57.6406,575.9531 57.8125,576.1719 57.9063,576.5781 C57.9688,576.9844 58,577.1094 58.1406,577.2344 C58.2813,577.375 58.5156,577.4844 58.7344,577.4844 C59,577.4844 59.2656,577.3438 59.4375,577.125 C59.5469,576.9688 59.5781,576.7813 59.5781,576.3594 L59.5781,574.9375 C59.5781,574.5 59.5625,574.375 59.4688,574.2188 C59.3125,573.9531 59.0313,573.8125 58.7344,573.8125 C58.4375,573.8125 58.2344,573.9063 58.0156,574.2188 L57.8438,574.1406 Z " fill="#000000"/><text fill="#000000" font-family="FG Virgil" font-size="12" font-style="italic" lengthAdjust="spacing" textLength="74" x="91.5" y="575.6387">«repository»</text><text fill="#000000" font-family="FG Virgil" font-size="12" lengthAdjust="spacing" textLength="118" x="69.5" y="589.6074">CatalogoRepository</text><path d="M41.5,597.4375 L41.5,597.7177 L51.3667,596.8851 L61.2333,597.6952 L71.1,597.9704 L80.9667,596.4863 L90.8333,597.3339 L100.7,596.8688 L110.5667,596.9262 L120.4333,597.3466 L130.3,596.5157 L140.1667,598.1757 L150.0333,596.5971 L159.9,597.1738 L169.7667,598.0134 L179.6333,597.3231 L189.5,597.4375 " fill="#F8F8F8" style="stroke:#383838;stroke-width:1.5;"/><path d="M41.5,605.4375 L41.5,605.7177 L51.3667,604.8851 L61.2333,605.6952 L71.1,605.9704 L80.9667,604.4863 L90.8333,605.3339 L100.7,604.8688 L110.5667,604.9262 L120.4333,605.3466 L130.3,604.5157 L140.1667,606.1757 L150.0333,604.5971 L159.9,605.1738 L169.7667,606.0134 L179.6333,605.3231 L189.5,605.4375 " fill="#F8F8F8" style="stroke:#383838;stroke-width:1.5;"/><text fill="#000000" font-family="FG Virgil" font-size="11" lengthAdjust="spacing" textLength="60" x="46.5" y="619.6479">save(cont)</text><!--MD5=[8d7eeae0097fa08648b7bd23f47a8d11]
class CriticidadeRepository--><polygon fill="#F8F8F8" points="261,553,261,553.2102,271.0625,552.5857,281.125,553.1933,291.1875,553.3997,301.25,552.2866,311.3125,552.9223,321.375,552.5735,331.4375,552.6165,341.5,552.9318,351.5625,552.3086,361.625,553.5536,371.6875,552.3697,381.75,552.8022,391.8125,553.4319,401.875,552.9142,411.9375,553.0682,422,553,421.9681,553,422.1785,562.9434,422.2391,572.8867,422.5857,582.8301,422.6711,592.7734,422.6793,602.7168,422.2546,612.6602,422.4636,622.6035,422,632.5469,422,633.2491,411.9375,631.8257,401.875,633.2254,391.8125,632.2504,381.75,633.0807,371.6875,632.0519,361.625,632.4784,351.5625,633.2885,341.5,632.4981,331.4375,632.6522,321.375,632.8855,311.3125,632.9631,301.25,632.543,291.1875,632.8341,281.125,631.9745,271.0625,632.8313,261,632.5469,261.5482,632.5469,261.4445,622.6035,261.613,612.6602,260.5169,602.7168,260.3478,592.7734,260.3786,582.8301,260.9411,572.8867,260.8035,562.9434,261,553" style="stroke:#383838;stroke-width:1.5;"/><polygon fill="#C2C2C2" points="287.0608,574.6444,285.4484,576.8475,283.5412,580.0745,280.8136,582.2491,277.9474,583.4384,275.662,583.5416,272.7247,582.0543,269.9532,581.0827,267.8495,579.1099,266.7461,576.8515,266.0917,575.0533,265.4506,572.7045,264.41,570.6832,265.2096,568.7098,265.9102,566.548,268.5393,564.8382,270.389,562.6198,272.6784,561.8832,275.4001,561.2488,278.8904,561.6257,280.8021,562.5273,283.0247,562.9359,285.7272,565.7047,286.6693,568.6277,287.0786,570.6221,286.615,573.9086" style="stroke:#383838;stroke-width:1.0;"/><path d="M278.3438,567.6406 C277.4063,567.2031 276.8125,567.0625 275.9375,567.0625 C273.3125,567.0625 271.3125,569.1406 271.3125,571.8594 L271.3125,572.9844 C271.3125,575.5625 273.4219,577.4531 276.3125,577.4531 C277.5313,577.4531 278.6875,577.1563 279.4375,576.6094 C280.0156,576.2031 280.3438,575.75 280.3438,575.3594 C280.3438,574.9063 279.9531,574.5156 279.4844,574.5156 C279.2656,574.5156 279.0625,574.5938 278.875,574.7813 C278.4219,575.2656 278.4219,575.2656 278.2344,575.3594 C277.8125,575.625 277.125,575.75 276.3594,575.75 C274.3125,575.75 273.0156,574.6563 273.0156,572.9531 L273.0156,571.8594 C273.0156,570.0781 274.2656,568.7656 276,568.7656 C276.5781,568.7656 277.1875,568.9219 277.6563,569.1719 C278.1406,569.4531 278.3125,569.6719 278.4063,570.0781 C278.4688,570.4844 278.5,570.6094 278.6406,570.7344 C278.7813,570.875 279.0156,570.9844 279.2344,570.9844 C279.5,570.9844 279.7656,570.8438 279.9375,570.625 C280.0469,570.4688 280.0781,570.2813 280.0781,569.8594 L280.0781,568.4375 C280.0781,568 280.0625,567.875 279.9688,567.7188 C279.8125,567.4531 279.5313,567.3125 279.2344,567.3125 C278.9375,567.3125 278.7344,567.4063 278.5156,567.7188 L278.3438,567.6406 Z " fill="#000000"/><text fill="#000000" font-family="FG Virgil" font-size="12" font-style="italic" lengthAdjust="spacing" textLength="74" x="317.5" y="569.1387">«repository»</text><text fill="#000000" font-family="FG Virgil" font-size="12" lengthAdjust="spacing" textLength="129" x="290" y="583.1074">CriticidadeRepository</text><path d="M262,590.9375 L262,591.2177 L271.9375,590.3851 L281.875,591.1952 L291.8125,591.4704 L301.75,589.9863 L311.6875,590.8339 L321.625,590.3688 L331.5625,590.4262 L341.5,590.8466 L351.4375,590.0157 L361.375,591.6757 L371.3125,590.0971 L381.25,590.6738 L391.1875,591.5134 L401.125,590.8231 L411.0625,591.0285 L421,590.9375 " fill="#F8F8F8" style="stroke:#383838;stroke-width:1.5;"/><path d="M262,598.9375 L262,599.2177 L271.9375,598.3851 L281.875,599.1952 L291.8125,599.4704 L301.75,597.9863 L311.6875,598.8339 L321.625,598.3688 L331.5625,598.4262 L341.5,598.8466 L351.4375,598.0157 L361.375,599.6757 L371.3125,598.0971 L381.25,598.6738 L391.1875,599.5134 L401.125,598.8231 L411.0625,599.0285 L421,598.9375 " fill="#F8F8F8" style="stroke:#383838;stroke-width:1.5;"/><text fill="#000000" font-family="FG Virgil" font-size="11" lengthAdjust="spacing" textLength="124" x="267" y="613.1479">save(nivelCriticidade)</text><text fill="#000000" font-family="FG Virgil" font-size="11" lengthAdjust="spacing" textLength="103" x="267" y="625.9526">findAllCriticidade()</text><!--MD5=[38352e39b307b86db7f27cee04d00103]
link DefinirCriticidadeUI to DefinirCriticidadeController--><path d="M242.5,61.186 L242.7802,61.186 L241.9476,72.0486 L242.7577,82.9112 L243.0329,93.7738 L241.5488,104.6364 L242.5,115.499 " fill="none" style="stroke:#383838;stroke-width:1.0;"/><polygon fill="#383838" points="242.5,120.78,242.564,120.8085,243.1738,118.9239,244.1589,117.2062,245.0217,115.4341,245.4827,113.4834,246.5,111.78,246.4817,111.7617,245.5995,112.4795,244.8096,113.2896,244.0839,114.1639,243.137,114.817,242.5,115.78,242.6305,115.9105,241.5514,114.8314,240.8534,114.1334,240.2018,113.4818,239.2798,112.5598,238.5,111.78,238.5208,111.7892,239.2903,113.5757,240.1544,115.4042,240.9728,117.2124,241.8784,119.0593,242.5,120.78" style="stroke:#383838;stroke-width:1.0;"/><!--MD5=[80f00f63b73713e2f6a7d39e42ed488b]
link DefinirCriticidadeController to CriticidadeRepository--><path d="M273.537,226.263 L273.6202,226.3055 L274.8253,229.019 L276.5179,231.9818 L278.0518,234.8634 L279.0636,237.478 L280.7981,240.4622 L280.7669,240.4476 L282.0208,243.3645 L283.4324,246.3551 L284.9537,249.3969 L286.0972,252.2621 L287.7699,255.3747 L287.9971,255.4691 L288.7804,258.3255 L290.2271,261.4574 L291.7548,264.6229 L292.8115,267.5928 L294.1159,270.6656 L294.1445,270.6757 L295.1793,273.7278 L296.3444,276.8257 L297.4466,279.9015 L298.6688,283.0194 L299.5,286 L299.7859,286.085 L300.8074,289.5113 L301.6445,292.8828 L302.7516,296.3345 L303.8713,299.79 L304.5901,303.1264 L304.2804,303.0439 L305.8139,306.7062 L306.3274,310.0969 L307.6163,313.6941 L308.1067,317.0787 L309.2516,320.6375 L309.222,320.6304 L310.4226,324.2723 L310.9313,327.7489 L311.8482,331.323 L312.7994,334.9054 L313.5033,338.4286 L313.6842,338.4675 L314.2738,342.0216 L315.1724,345.6421 L315.5711,349.1551 L316.7155,352.8284 L317.3641,356.3952 L317.6033,356.4415 L318.2558,360.0402 L319.027,363.6619 L319.2465,367.1768 L319.8704,370.77 L320.8527,374.4326 L320.5806,374.3852 L321.454,378.0288 L322.0208,381.619 L323.0323,385.2866 L323.2845,388.8221 L323.9881,392.4361 L323.8374,392.4125 L324.6485,396.0248 L324.8156,399.5362 L325.4407,403.1194 L326.5138,406.7729 L326.789,410.3012 L326.9807,410.3283 L327.6093,413.8712 L327.6415,417.3301 L328.4207,420.8942 L329.0371,424.4355 L329.2744,427.9233 L329.0661,427.8969 L329.6698,431.3728 L330.2054,434.84 L330.8749,438.3243 L331.0234,441.7425 L331.463,445.1976 L331.6673,445.2208 L331.6006,448.5342 L331.9282,451.8924 L332.8319,455.3161 L332.675,458.6192 L333.3738,462.0196 L333.5988,462.0425 L333.7955,465.2819 L333.916,468.5136 L334.2084,471.7628 L334.898,475.0523 L335.0255,478.2847 L334.893,478.2727 L335.5698,481.4291 L335.3454,484.504 L336.1457,487.6715 L336.3691,490.7869 L336.437,493.8882 L336.5455,493.8964 L336.8935,499.6505 L337.6301,505.4341 L338.0156,511.191 L338.2543,516.9369 L338.6148,522.692 L338.7338,522.6989 L338.8456,527.669 L339.51,532.6712 L339.5494,537.6372 L339.8459,542.618 L340.058,547.594 " fill="none" style="stroke:#383838;stroke-width:1.0;"/><polygon fill="#383838" points="340.313,552.9281,340.3783,552.9535,340.8973,551.0419,341.799,549.279,342.5762,547.4677,342.9433,545.4972,343.878,543.7471,343.8588,543.7297,343.0119,544.4888,342.2617,545.3358,341.5787,546.2438,340.6641,546.9415,340.0739,547.9338,340.198,548.0704,339.0952,547.0175,338.3548,546.3634,337.6586,545.7579,336.7052,544.8694,335.8871,544.1297,335.9074,544.1399,336.7628,545.8846,337.7106,547.6758,338.6139,549.4446,339.6022,551.2562,340.313,552.9281" style="stroke:#383838;stroke-width:1.0;"/><!--MD5=[38b5dc2ffc10ddaa8829ebfe0812cf3a]
link DefinirCriticidadeController to CatalogoRepository--><path d="M141.401,226.077 L141.4582,226.1509 L139.6829,227.1743 L138.2429,228.6308 L136.6937,229.9462 L134.7854,230.798 L133.3742,232.2916 L133.3519,232.2652 L131.6915,233.462 L130.1434,234.7919 L128.6732,236.2144 L126.9342,237.3179 L125.5717,238.8681 L125.7388,239.0488 L123.8804,240.0504 L122.5096,241.5795 L121.1984,243.1729 L119.541,244.3919 L118.0657,245.8078 L118.0873,245.829 L116.6279,247.2587 L115.2673,248.7849 L113.859,250.2646 L112.5416,251.8331 L110.9279,253.112 L111.1526,253.3082 L109.8158,254.8446 L108.3342,256.2544 L107.0646,257.8495 L105.805,259.4533 L104.2305,260.782 L103.9765,260.5865 L103.2324,262.5733 L101.652,263.9165 L100.7074,265.749 L99.108,267.0775 L98.0454,268.8191 L98.02,268.8022 L97.1995,270.683 L95.787,272.1693 L94.7238,273.8884 L93.6899,275.627 L92.4445,277.2247 L92.6057,277.3155 L91.4541,278.9789 L90.5779,280.7975 L89.2562,282.365 L88.599,284.307 L87.5,286 L87.7224,286.0995 L86.176,289.4431 L84.7401,292.8361 L82.7911,295.9996 L81.2182,299.3313 L79.9785,302.8121 L79.7164,302.7251 L78.7953,306.2927 L77.5789,309.7623 L76.7909,313.3741 L75.2714,316.7431 L74.1868,320.2564 L74.0383,320.2217 L73.4464,323.8676 L72.2198,327.3651 L71.4446,330.9681 L71.1109,334.6744 L69.9909,338.1967 L70.1824,338.2254 L69.767,341.905 L68.7559,345.4956 L68.4909,349.1977 L68.0633,352.8754 L67.257,356.4967 L67.0477,356.4808 L66.9334,360.1981 L66.7506,363.9102 L66.7025,367.6325 L66.1307,371.3151 L65.8514,375.0199 L66.057,375.0222 L65.5631,378.7391 L65.4659,382.4605 L65.9485,386.1885 L65.3638,389.9043 L65.6402,393.63 L65.8661,393.6403 L65.9018,397.3463 L65.8609,401.0488 L65.9927,404.7593 L66.5233,408.4879 L66.4895,412.1907 L66.357,412.1779 L67.1065,415.8911 L66.9553,419.5171 L67.8282,423.2422 L68.1245,426.9115 L68.2655,430.5658 L68.3733,430.5811 L68.8,434.1793 L69.6127,437.8325 L70.0768,441.436 L70.395,445.0188 L70.8343,448.6188 L70.9516,448.6403 L71.423,452.1272 L72.4387,455.7141 L72.8388,459.1879 L73.4921,462.7083 L74.0622,466.2133 L73.7982,466.1551 L74.637,469.5745 L75.7938,473.0642 L76.5006,476.4545 L77.0461,479.8091 L77.8153,483.2132 L77.6766,483.1779 L78.5499,486.443 L79.1776,489.6455 L80.4806,493.02 L81.4494,496.3094 L81.9598,499.4821 L82.1847,499.5463 L83.1371,502.6472 L83.6621,505.6259 L84.6382,508.7336 L85.3157,511.7559 L86.3618,514.8835 L86.4822,514.9214 L87.3715,517.7959 L88.4062,520.7162 L88.9798,523.4915 L89.9253,526.3838 L90.8874,529.2812 L91.074,529.3448 L92.0292,532.0141 L92.478,534.5109 L93.5152,537.208 L94.5627,539.9088 L95.403,542.5389 L95.1479,542.4458 L96.4248,544.989 L97.2593,547.3707 L97.9838,549.7123 L98.9596,552.1456 L99.7745,554.5202 " fill="none" style="stroke:#383838;stroke-width:1.0;"/><polygon fill="#383838" points="101.6582,559.4569,101.7282,559.4607,101.626,557.4826,101.9339,555.5265,102.1083,553.5632,101.8436,551.5764,102.1867,549.6222,102.1631,549.6117,101.5947,550.5968,101.1456,551.6353,100.7793,552.7109,100.1275,553.6587,99.8756,554.7855,99.951,554.9539,98.7571,554.1315,97.7834,553.8008,96.8365,553.5302,95.7334,552.9105,94.7124,552.4744,94.7285,552.4904,96.094,553.8634,97.5329,555.3093,98.9364,556.7201,100.4075,558.1981,101.6582,559.4569" style="stroke:#383838;stroke-width:1.0;"/><!--MD5=[239ff202fba46dfbd687583717a2ac41]
link DefinirCriticidadeController to PersistenceContext--><path d="M219.933,226.081 L220.1897,226.1933 L215.4207,235.0166 L212.1568,244.4983 L208.4027,253.7656 L203.0369,262.3277 L199.8072,271.8245 L195.896,281.023 " fill="none" style="stroke:#383838;stroke-width:1.0;"/><polygon fill="#383838" points="193.868,285.659,193.9152,285.7107,195.2294,284.2287,196.8205,283.05,198.3214,281.7725,199.5258,280.1703,201.1407,279.0176,201.1312,278.9934,200.0352,279.2973,198.9868,279.7229,197.9715,280.2329,196.8422,280.4516,195.8725,281.0784,196.0444,281.1456,195.2647,279.9482,194.9868,278.9472,194.7701,277.97,194.1972,276.8535,193.8117,275.8103,193.8345,275.8104,193.8123,277.78,193.8937,279.7501,193.9252,281.72,194.052,283.6904,193.868,285.659" style="stroke:#383838;stroke-width:1.0;"/><!--MD5=[70b83d8e693714e4b487010cd4296fcf]
link DefinirCriticidadeController to RepositoryFactory--><path d="M261.566,226.187 L261.6561,226.2118 L262.1616,228.9452 L263.195,231.824 L264.0566,234.6555 L264.3527,237.3313 L265.4315,240.2226 L265.3979,240.2147 L265.9487,243.1821 L266.6691,246.189 L267.5074,249.2235 L267.9395,252.1631 L268.9405,255.2357 L269.1824,255.2808 L269.2527,258.3366 L270.0292,261.5241 L270.892,264.7276 L271.2534,267.8377 L271.8784,270.997 L271.9085,271.0009 L272.2949,274.2511 L272.8181,277.5194 L273.2753,280.779 L273.8585,284.0552 L274.031,287.2771 L274.3285,287.2978 L274.5627,290.612 L274.605,293.9129 L274.9282,297.2333 L275.2646,300.5546 L275.1838,303.8468 L274.8633,303.8457 L275.4731,307.1739 L275.0275,310.4983 L275.3843,313.8257 L274.9148,317.15 L275.1225,320.4768 L275.0922,320.474 L275.1528,323.7986 L274.505,327.0591 L274.2753,330.3575 L274.0806,333.659 L273.6327,336.9376 L273.8143,336.973 L273.0045,340.1497 L272.5049,343.387 L271.5034,346.5263 L271.2506,349.8117 L270.5,353 L270.7327,353.0721 L269.7941,355.9465 L268.971,358.8567 L267.6111,361.6006 L266.6447,364.4664 L266.0269,367.4402 L265.771,367.3364 L264.8464,370.2794 L263.6334,373.1054 L262.8386,376.1012 L261.3297,378.8072 L260.2454,381.6854 L260.1082,381.6188 L259.0013,384.4786 L257.3082,387.0538 L256.032,389.8314 L255.1636,392.8072 L253.5689,395.4301 L253.7383,395.5238 L252.423,398.1759 L250.5806,400.5364 L249.3983,403.2621 L248.0722,405.9082 L246.411,408.369 " fill="none" style="stroke:#383838;stroke-width:1.0;"/><polygon fill="#383838" points="243.679,412.964,243.7195,413.0212,245.2064,411.7126,246.9307,410.7391,248.5778,409.6564,249.9705,408.215,251.7152,407.2702,251.7088,407.2451,250.5838,407.4115,249.4909,407.7045,248.4204,408.0854,247.2727,408.1632,246.2332,408.6656,246.412,408.7111,245.7505,407.5174,245.6111,406.4565,245.5355,405.4119,245.0892,404.2729,244.8378,403.1836,244.8604,403.1862,244.5955,405.1384,244.4334,407.1027,244.2217,409.0612,244.1046,411.0309,243.679,412.964" style="stroke:#383838;stroke-width:1.0;"/><!--MD5=[754b775031405e096442b27febffa290]
link PersistenceContext to RepositoryFactory--><path d="M188.646,353.006 L188.9158,353.0819 L190.6862,361.9974 L194.0381,371.3578 L196.875,380.5733 L198.0184,389.3124 L201.4063,398.6829 L204.078,407.852 " fill="none" style="stroke:#383838;stroke-width:1.0;"/><polygon fill="#383838" points="205.483,412.843,205.5523,412.853,205.6288,410.8738,206.1118,408.9534,206.4624,407.0139,206.3778,405.0113,206.8956,403.096,206.873,403.0833,206.2182,404.0132,205.6773,405.007,205.2156,406.0452,204.481,406.9304,204.1287,408.0299,204.2189,408.1909,203.0391,407.2933,202.1228,406.8656,201.2387,406.4953,200.1675,405.7914,199.1947,405.2629,199.2122,405.2775,200.4442,406.7721,201.7558,408.333,203.029,409.8619,204.3756,411.4516,205.483,412.843" style="stroke:#383838;stroke-width:1.0;"/><!--MD5=[c2c0504e9c5e789a9a7c44975a41f14c]
link RepositoryFactory to CriticidadeRepository--><path d="M251.986,493.176 L252.1937,493.3641 L258.7664,500.7428 L266.5567,509.2243 L273.9505,517.3466 L280.0404,524.2879 L287.8585,532.7946 L294.7037,540.42 L302.315,548.7394 " fill="none" style="stroke:#383838;stroke-width:1.0;"/><polygon fill="#383838" points="305.926,552.7259,305.9926,552.7478,305.1793,550.8116,304.7562,549.0038,304.206,547.1541,303.2381,545.167,302.8485,543.3702,302.8226,543.3689,302.6506,544.4932,302.6091,545.6239,302.6583,546.7591,302.3949,547.8788,302.5693,549.0202,302.5784,549.2045,301.4289,548.7545,300.306,548.8427,299.1864,548.9965,298.0479,548.7683,296.9193,548.741,296.9285,548.7618,298.7163,549.5282,300.5461,550.3894,302.3556,551.2048,304.2037,552.1075,305.926,552.7259" style="stroke:#383838;stroke-width:1.0;"/><!--MD5=[1c7e7a1fe085f3cc90df717ea11f1cec]
link RepositoryFactory to CatalogoRepository--><path d="M187.828,493.176 L188.0541,493.3415 L181.7263,500.5776 L176.7242,508.7839 L171.2904,516.6742 L164.4369,523.5255 L159.465,531.7539 L153.4339,539.2071 L147.8242,546.9688 L142.581,554.9986 " fill="none" style="stroke:#383838;stroke-width:1.0;"/><polygon fill="#383838" points="139.464,559.2577,139.4989,559.3185,141.1038,558.1577,142.9132,557.3531,144.6559,556.4326,146.1799,555.1305,148.0067,554.3565,148.0028,554.3309,146.8669,554.3892,145.7511,554.5766,144.6492,554.8537,143.4993,554.8216,142.4166,555.2226,142.5989,555.2508,142.0357,554.0724,142.005,552.9764,142.0392,551.8905,141.6955,550.7461,141.5505,549.6324,141.5728,549.6372,141.1228,551.5552,140.7741,553.4951,140.3765,555.4245,140.0721,557.374,139.464,559.2577" style="stroke:#383838;stroke-width:1.0;"/><!--MD5=[5d5b13aaa8634b7ae56859e8816ae5c5]
@startuml
'http://plantuml.com/skinparam.html
skinparam handwritten true
skinparam monochrome true
skinparam packageStyle rect
skinparam defaultFontName FG Virgil
skinparam shadowing false

class DefinirCriticidadeUI <<presentation>>
class DefinirCriticidadeController <<application>>
class PersistenceContext <<persistence>>
class RepositoryFactory <<factory>>
class CatalogoRepository <<repository>>
class CriticidadeRepository <<repository>>



DefinirCriticidadeUI - -> DefinirCriticidadeController
DefinirCriticidadeController : listCatalogo()
DefinirCriticidadeController : listCriticidade()
DefinirCriticidadeController : defineCriticidade(tempoMaximo, tempoMedio, etiqueta, escala, cor, designacao)
DefinirCriticidadeController : defineContrato()

DefinirCriticidadeController - -> CriticidadeRepository
DefinirCriticidadeController - -> CatalogoRepository
DefinirCriticidadeController - -> PersistenceContext
PersistenceContext : repositories()
DefinirCriticidadeController - -> RepositoryFactory
RepositoryFactory : catalogo()
RepositoryFactory : criticidade()

PersistenceContext - -> RepositoryFactory
RepositoryFactory - -> CriticidadeRepository
RepositoryFactory - -> CatalogoRepository

CriticidadeRepository : save(nivelCriticidade)
CriticidadeRepository : findAllCriticidade()

CatalogoRepository : save(cont)
@enduml

@startuml
skinparam handwritten true
skinparam monochrome true
skinparam packageStyle rect
skinparam defaultFontName FG Virgil
skinparam shadowing false

class DefinirCriticidadeUI <<presentation>>
class DefinirCriticidadeController <<application>>
class PersistenceContext <<persistence>>
class RepositoryFactory <<factory>>
class CatalogoRepository <<repository>>
class CriticidadeRepository <<repository>>



DefinirCriticidadeUI - -> DefinirCriticidadeController
DefinirCriticidadeController : listCatalogo()
DefinirCriticidadeController : listCriticidade()
DefinirCriticidadeController : defineCriticidade(tempoMaximo, tempoMedio, etiqueta, escala, cor, designacao)
DefinirCriticidadeController : defineContrato()

DefinirCriticidadeController - -> CriticidadeRepository
DefinirCriticidadeController - -> CatalogoRepository
DefinirCriticidadeController - -> PersistenceContext
PersistenceContext : repositories()
DefinirCriticidadeController - -> RepositoryFactory
RepositoryFactory : catalogo()
RepositoryFactory : criticidade()

PersistenceContext - -> RepositoryFactory
RepositoryFactory - -> CriticidadeRepository
RepositoryFactory - -> CatalogoRepository

CriticidadeRepository : save(nivelCriticidade)
CriticidadeRepository : findAllCriticidade()

CatalogoRepository : save(cont)
@enduml

PlantUML version 1.2021.6beta4(Unknown compile time)
(GPL source distribution)
Java Runtime: Java(TM) SE Runtime Environment
JVM: Java HotSpot(TM) 64-Bit Server VM
Default Encoding: UTF-8
Language: en
Country: US
--></g></svg>