<?xml version="1.0" encoding="UTF-8" standalone="no"?><svg xmlns="http://www.w3.org/2000/svg" xmlns:xlink="http://www.w3.org/1999/xlink" contentScriptType="application/ecmascript" contentStyleType="text/css" height="639px" preserveAspectRatio="none" style="width:394px;height:639px;background:#FFFFFF;" version="1.1" viewBox="0 0 394 639" width="394px" zoomAndPan="magnify"><defs/><g><!--MD5=[6250fd8aad69164749c4148272cf33ee]
class DefinirCriticidadeUI--><polygon fill="#F8F8F8" points="134.5,7,134.5,7.2102,144.3,6.5857,154.1,7.1933,163.9,7.3997,173.7,6.2866,183.5,6.9223,193.3,6.5735,203.1,6.6165,212.9,6.9318,222.7,6.3086,232.5,7.5536,242.3,6.3697,252.1,6.8022,261.9,7.4319,271.7,6.9142,281.5,7,281.5682,7,281.4681,17.7875,281.6785,28.575,281.7391,39.3625,282.0857,50.15,281.5,60.9375,281.5,61.6086,271.7,61.6168,261.9,61.1921,252.1,61.4011,242.3,61.6397,232.5,60.2163,222.7,61.616,212.9,60.641,203.1,61.4713,193.3,60.4425,183.5,60.869,173.7,61.6791,163.9,60.8888,154.1,61.0428,144.3,61.2761,134.5,60.9375,134.9162,60.9375,134.4961,50.15,134.7872,39.3625,133.9276,28.575,134.7844,17.7875,134.5,7" style="stroke:#383838;stroke-width:1.5;"/><polygon fill="#C2C2C2" points="160.5608,28.6444,158.9484,30.8475,157.0412,34.0745,154.3136,36.2491,151.4474,37.4384,149.162,37.5416,146.2247,36.0543,143.4532,35.0827,141.3495,33.1099,140.2461,30.8515,139.5917,29.0533,138.9506,26.7045,137.91,24.6832,138.7096,22.7098,139.4102,20.548,142.0393,18.8382,143.889,16.6198,146.1784,15.8832,148.9001,15.2488,152.3904,15.6257,154.3021,16.5273,156.5247,16.9359,159.2272,19.7047,160.1693,22.6277,160.5786,24.6221,160.115,27.9086" style="stroke:#383838;stroke-width:1.0;"/><path d="M151.8438,21.6406 C150.9063,21.2031 150.3125,21.0625 149.4375,21.0625 C146.8125,21.0625 144.8125,23.1406 144.8125,25.8594 L144.8125,26.9844 C144.8125,29.5625 146.9219,31.4531 149.8125,31.4531 C151.0313,31.4531 152.1875,31.1563 152.9375,30.6094 C153.5156,30.2031 153.8438,29.75 153.8438,29.3594 C153.8438,28.9063 153.4531,28.5156 152.9844,28.5156 C152.7656,28.5156 152.5625,28.5938 152.375,28.7813 C151.9219,29.2656 151.9219,29.2656 151.7344,29.3594 C151.3125,29.625 150.625,29.75 149.8594,29.75 C147.8125,29.75 146.5156,28.6563 146.5156,26.9531 L146.5156,25.8594 C146.5156,24.0781 147.7656,22.7656 149.5,22.7656 C150.0781,22.7656 150.6875,22.9219 151.1563,23.1719 C151.6406,23.4531 151.8125,23.6719 151.9063,24.0781 C151.9688,24.4844 152,24.6094 152.1406,24.7344 C152.2813,24.875 152.5156,24.9844 152.7344,24.9844 C153,24.9844 153.2656,24.8438 153.4375,24.625 C153.5469,24.4688 153.5781,24.2813 153.5781,23.8594 L153.5781,22.4375 C153.5781,22 153.5625,21.875 153.4688,21.7188 C153.3125,21.4531 153.0313,21.3125 152.7344,21.3125 C152.4375,21.3125 152.2344,21.4063 152.0156,21.7188 L151.8438,21.6406 Z " fill="#000000"/><text fill="#000000" font-family="FG Virgil" font-size="12" font-style="italic" lengthAdjust="spacing" textLength="90" x="176" y="23.1387">«presentation»</text><text fill="#000000" font-family="FG Virgil" font-size="12" lengthAdjust="spacing" textLength="115" x="163.5" y="37.1074">DefinirCriticidadeUI</text><path d="M135.5,44.9375 L135.5,45.2177 L145.1667,44.3851 L154.8333,45.1952 L164.5,45.4704 L174.1667,43.9863 L183.8333,44.8339 L193.5,44.3688 L203.1667,44.4262 L212.8333,44.8466 L222.5,44.0157 L232.1667,45.6757 L241.8333,44.0971 L251.5,44.6738 L261.1667,45.5134 L270.8333,44.8231 L280.5,44.9375 " fill="#F8F8F8" style="stroke:#383838;stroke-width:1.5;"/><path d="M135.5,52.9375 L135.5,53.2177 L145.1667,52.3851 L154.8333,53.1952 L164.5,53.4704 L174.1667,51.9863 L183.8333,52.8339 L193.5,52.3688 L203.1667,52.4262 L212.8333,52.8466 L222.5,52.0157 L232.1667,53.6757 L241.8333,52.0971 L251.5,52.6738 L261.1667,53.5134 L270.8333,52.8231 L280.5,52.9375 " fill="#F8F8F8" style="stroke:#383838;stroke-width:1.5;"/><!--MD5=[0e7000bc9f25e264d5902aeb009ffa17]
class DefinirCriticidadeController--><polygon fill="#F8F8F8" points="43.5,121,43.5,121.2102,53.4697,120.5857,63.4394,121.1933,73.4091,121.3997,83.3788,120.2866,93.3485,120.9223,103.3182,120.5735,113.2879,120.6165,123.2576,120.9318,133.2273,120.3086,143.197,121.5536,153.1667,120.3697,163.1364,120.8022,173.1061,121.4319,183.0758,120.9142,193.0455,121.0682,203.0152,120.9681,212.9848,121.1785,222.9545,121.2391,232.9242,121.5857,242.8939,121.6711,252.8636,121.6793,262.8333,121.2546,272.803,121.4636,282.7727,121.7022,292.7424,120.2788,302.7121,121.6785,312.6818,120.7035,322.6515,121.5338,332.6212,120.505,342.5909,120.9315,352.5606,121.7416,362.5303,120.9513,372.5,121,372.6053,121,372.8386,130.5597,372.9162,140.1193,372.4961,149.679,372.7872,159.2386,371.9276,168.7983,372.7844,178.358,373.0482,187.9176,372.9445,197.4773,373.113,207.0369,372.0169,216.5966,372.5,226.1563,372.5,225.5041,362.5303,225.5348,352.5606,226.0974,342.5909,225.9597,332.6212,226.8377,322.6515,225.9816,312.6818,225.8132,302.7121,226.3845,292.7424,225.4894,282.7727,225.6371,272.803,226.8052,262.8333,226.5919,252.8636,226.8907,242.8939,225.8345,232.9242,226.4754,222.9545,226.7467,212.9848,225.6838,203.0152,226.0604,193.0455,226.2822,183.0758,226.808,173.1061,226.1521,163.1364,226.6188,153.1667,225.6025,143.197,225.479,133.2273,226.6599,123.2576,225.4393,113.2879,226.6652,103.3182,226.3629,93.3485,225.8883,83.3788,225.8025,73.4091,226.615,63.4394,225.8569,53.4697,226.7481,43.5,226.1563,42.9473,226.1563,44.1174,216.5966,43.9843,207.0369,43.745,197.4773,43.5472,187.9176,44.2266,178.358,44.1136,168.7983,43.6693,159.2386,43.7682,149.679,43.3697,140.1193,44.2165,130.5597,43.5,121" style="stroke:#383838;stroke-width:1.5;"/><polygon fill="#C2C2C2" points="133.8108,142.6444,132.1984,144.8475,130.2912,148.0745,127.5636,150.2491,124.6974,151.4384,122.412,151.5416,119.4747,150.0543,116.7032,149.0827,114.5995,147.1099,113.4961,144.8515,112.8417,143.0533,112.2006,140.7045,111.16,138.6832,111.9596,136.7098,112.6602,134.548,115.2893,132.8382,117.139,130.6198,119.4284,129.8832,122.1501,129.2488,125.6404,129.6257,127.5521,130.5273,129.7747,130.9359,132.4772,133.7047,133.4193,136.6277,133.8286,138.6221,133.365,141.9086" style="stroke:#383838;stroke-width:1.0;"/><path d="M125.0938,135.6406 C124.1563,135.2031 123.5625,135.0625 122.6875,135.0625 C120.0625,135.0625 118.0625,137.1406 118.0625,139.8594 L118.0625,140.9844 C118.0625,143.5625 120.1719,145.4531 123.0625,145.4531 C124.2813,145.4531 125.4375,145.1563 126.1875,144.6094 C126.7656,144.2031 127.0938,143.75 127.0938,143.3594 C127.0938,142.9063 126.7031,142.5156 126.2344,142.5156 C126.0156,142.5156 125.8125,142.5938 125.625,142.7813 C125.1719,143.2656 125.1719,143.2656 124.9844,143.3594 C124.5625,143.625 123.875,143.75 123.1094,143.75 C121.0625,143.75 119.7656,142.6563 119.7656,140.9531 L119.7656,139.8594 C119.7656,138.0781 121.0156,136.7656 122.75,136.7656 C123.3281,136.7656 123.9375,136.9219 124.4063,137.1719 C124.8906,137.4531 125.0625,137.6719 125.1563,138.0781 C125.2188,138.4844 125.25,138.6094 125.3906,138.7344 C125.5313,138.875 125.7656,138.9844 125.9844,138.9844 C126.25,138.9844 126.5156,138.8438 126.6875,138.625 C126.7969,138.4688 126.8281,138.2813 126.8281,137.8594 L126.8281,136.4375 C126.8281,136 126.8125,135.875 126.7188,135.7188 C126.5625,135.4531 126.2813,135.3125 125.9844,135.3125 C125.6875,135.3125 125.4844,135.4063 125.2656,135.7188 L125.0938,135.6406 Z " fill="#000000"/><text fill="#000000" font-family="FG Virgil" font-size="12" font-style="italic" lengthAdjust="spacing" textLength="80" x="184.25" y="137.1387">«application»</text><text fill="#000000" font-family="FG Virgil" font-size="12" lengthAdjust="spacing" textLength="162" x="143.25" y="151.1074">DefinirCriticidadeController</text><path d="M44.5,158.9375 L44.5,159.2177 L54.4091,158.3851 L64.3182,159.1952 L74.2273,159.4704 L84.1364,157.9863 L94.0455,158.8339 L103.9545,158.3688 L113.8636,158.4262 L123.7727,158.8466 L133.6818,158.0157 L143.5909,159.6757 L153.5,158.0971 L163.4091,158.6738 L173.3182,159.5134 L183.2273,158.8231 L193.1364,159.0285 L203.0455,158.8949 L212.9545,159.1755 L222.8636,159.2563 L232.7727,159.7184 L242.6818,159.8322 L252.5909,159.8432 L262.5,159.277 L272.4091,159.5556 L282.3182,159.8738 L292.2273,157.9759 L302.1364,159.8422 L312.0455,158.5422 L321.9545,159.6492 L331.8636,158.2775 L341.7727,158.8462 L351.6818,159.9263 L361.5909,158.8725 L371.5,158.9375 " fill="#F8F8F8" style="stroke:#383838;stroke-width:1.5;"/><path d="M44.5,166.9375 L44.5,167.2177 L54.4091,166.3851 L64.3182,167.1952 L74.2273,167.4704 L84.1364,165.9863 L94.0455,166.8339 L103.9545,166.3688 L113.8636,166.4262 L123.7727,166.8466 L133.6818,166.0157 L143.5909,167.6757 L153.5,166.0971 L163.4091,166.6738 L173.3182,167.5134 L183.2273,166.8231 L193.1364,167.0285 L203.0455,166.8949 L212.9545,167.1755 L222.8636,167.2563 L232.7727,167.7184 L242.6818,167.8322 L252.5909,167.8432 L262.5,167.277 L272.4091,167.5556 L282.3182,167.8738 L292.2273,165.9759 L302.1364,167.8422 L312.0455,166.5422 L321.9545,167.6492 L331.8636,166.2775 L341.7727,166.8462 L351.6818,167.9263 L361.5909,166.8725 L371.5,166.9375 " fill="#F8F8F8" style="stroke:#383838;stroke-width:1.5;"/><text fill="#000000" font-family="FG Virgil" font-size="11" lengthAdjust="spacing" textLength="74" x="49.5" y="181.1479">listCatalogo()</text><text fill="#000000" font-family="FG Virgil" font-size="11" lengthAdjust="spacing" textLength="84" x="49.5" y="193.9526">listCriticidade()</text><text fill="#000000" font-family="FG Virgil" font-size="11" lengthAdjust="spacing" textLength="317" x="49.5" y="206.7573">defineCriticidade(obj, etiqueta, escala, cor, designacao)</text><text fill="#000000" font-family="FG Virgil" font-size="11" lengthAdjust="spacing" textLength="158" x="49.5" y="219.562">defineContrato(designacao)</text><!--MD5=[e8c189551b7885b999ad7cefb30fc2a3]
class PersistenceContext--><polygon fill="#F8F8F8" points="71,286,71,286.2102,80.8667,285.5857,90.7333,286.1933,100.6,286.3997,110.4667,285.2866,120.3333,285.9223,130.2,285.5735,140.0667,285.6165,149.9333,285.9318,159.8,285.3086,169.6667,286.5536,179.5333,285.3697,189.4,285.8022,199.2667,286.4319,209.1333,285.9142,219,286,219.0682,286,218.9681,295.5346,219.1785,305.0692,219.2391,314.6038,219.5857,324.1384,219.6711,333.673,219.6793,343.2076,219,352.7422,219,352.9968,209.1333,353.2058,199.2667,353.4444,189.4,352.021,179.5333,353.4207,169.6667,352.4457,159.8,353.276,149.9333,352.2472,140.0667,352.6737,130.2,353.4838,120.3333,352.6935,110.4667,352.8475,100.6,353.0808,90.7333,353.1584,80.8667,352.7383,71,352.7422,71.2872,352.7422,70.4276,343.2076,71.2844,333.673,71.5482,324.1384,71.4445,314.6038,71.613,305.0692,70.5169,295.5346,71,286" style="stroke:#383838;stroke-width:1.5;"/><polygon fill="#C2C2C2" points="97.0608,307.6444,95.4484,309.8475,93.5412,313.0745,90.8136,315.2491,87.9474,316.4384,85.662,316.5416,82.7247,315.0543,79.9532,314.0827,77.8495,312.1099,76.7461,309.8515,76.0917,308.0533,75.4506,305.7045,74.41,303.6832,75.2096,301.7098,75.9102,299.548,78.5393,297.8382,80.389,295.6198,82.6784,294.8832,85.4001,294.2488,88.8904,294.6257,90.8021,295.5273,93.0247,295.9359,95.7272,298.7047,96.6693,301.6277,97.0786,303.6221,96.615,306.9086" style="stroke:#383838;stroke-width:1.0;"/><path d="M88.3438,300.6406 C87.4063,300.2031 86.8125,300.0625 85.9375,300.0625 C83.3125,300.0625 81.3125,302.1406 81.3125,304.8594 L81.3125,305.9844 C81.3125,308.5625 83.4219,310.4531 86.3125,310.4531 C87.5313,310.4531 88.6875,310.1563 89.4375,309.6094 C90.0156,309.2031 90.3438,308.75 90.3438,308.3594 C90.3438,307.9063 89.9531,307.5156 89.4844,307.5156 C89.2656,307.5156 89.0625,307.5938 88.875,307.7813 C88.4219,308.2656 88.4219,308.2656 88.2344,308.3594 C87.8125,308.625 87.125,308.75 86.3594,308.75 C84.3125,308.75 83.0156,307.6563 83.0156,305.9531 L83.0156,304.8594 C83.0156,303.0781 84.2656,301.7656 86,301.7656 C86.5781,301.7656 87.1875,301.9219 87.6563,302.1719 C88.1406,302.4531 88.3125,302.6719 88.4063,303.0781 C88.4688,303.4844 88.5,303.6094 88.6406,303.7344 C88.7813,303.875 89.0156,303.9844 89.2344,303.9844 C89.5,303.9844 89.7656,303.8438 89.9375,303.625 C90.0469,303.4688 90.0781,303.2813 90.0781,302.8594 L90.0781,301.4375 C90.0781,301 90.0625,300.875 89.9688,300.7188 C89.8125,300.4531 89.5313,300.3125 89.2344,300.3125 C88.9375,300.3125 88.7344,300.4063 88.5156,300.7188 L88.3438,300.6406 Z " fill="#000000"/><text fill="#000000" font-family="FG Virgil" font-size="12" font-style="italic" lengthAdjust="spacing" textLength="83" x="116.5" y="302.1387">«persistence»</text><text fill="#000000" font-family="FG Virgil" font-size="12" lengthAdjust="spacing" textLength="116" x="100" y="316.1074">PersistenceContext</text><path d="M72,323.9375 L72,324.2177 L81.7333,323.3851 L91.4667,324.1952 L101.2,324.4704 L110.9333,322.9863 L120.6667,323.8339 L130.4,323.3688 L140.1333,323.4262 L149.8667,323.8466 L159.6,323.0157 L169.3333,324.6757 L179.0667,323.0971 L188.8,323.6738 L198.5333,324.5134 L208.2667,323.8231 L218,323.9375 " fill="#F8F8F8" style="stroke:#383838;stroke-width:1.5;"/><path d="M72,331.9375 L72,332.2177 L81.7333,331.3851 L91.4667,332.1952 L101.2,332.4704 L110.9333,330.9863 L120.6667,331.8339 L130.4,331.3688 L140.1333,331.4262 L149.8667,331.8466 L159.6,331.0157 L169.3333,332.6757 L179.0667,331.0971 L188.8,331.6738 L198.5333,332.5134 L208.2667,331.8231 L218,331.9375 " fill="#F8F8F8" style="stroke:#383838;stroke-width:1.5;"/><text fill="#000000" font-family="FG Virgil" font-size="11" lengthAdjust="spacing" textLength="75" x="77" y="346.1479">repositories()</text><!--MD5=[48590afff58a68e2fcba47824d6f8a11]
class RepositoryFactory--><polygon fill="#F8F8F8" points="111,413,111,413.2102,121.1429,412.5857,131.2857,413.1933,141.4286,413.3997,151.5714,412.2866,161.7143,412.9223,171.8571,412.5735,182,412.6165,192.1429,412.9318,202.2857,412.3086,212.4286,413.5536,222.5714,412.3697,232.7143,412.8022,242.8571,413.4319,253,413,252.9142,413,253.0682,422.9434,252.9681,432.8867,253.1785,442.8301,253.2391,452.7734,253.5857,462.7168,253.6711,472.6602,253.6793,482.6035,253,492.5469,253,492.8015,242.8571,493.0105,232.7143,493.2491,222.5714,491.8257,212.4286,493.2254,202.2857,492.2504,192.1429,493.0807,182,492.0519,171.8571,492.4784,161.7143,493.2885,151.5714,492.4981,141.4286,492.6522,131.2857,492.8855,121.1429,492.9631,111,492.5469,110.9961,492.5469,111.2872,482.6035,110.4276,472.6602,111.2844,462.7168,111.5482,452.7734,111.4445,442.8301,111.613,432.8867,110.5169,422.9434,111,413" style="stroke:#383838;stroke-width:1.5;"/><polygon fill="#C2C2C2" points="137.0608,434.6444,135.4484,436.8475,133.5412,440.0745,130.8136,442.2491,127.9474,443.4384,125.662,443.5416,122.7247,442.0543,119.9532,441.0827,117.8495,439.1099,116.7461,436.8515,116.0917,435.0533,115.4506,432.7045,114.41,430.6832,115.2096,428.7098,115.9102,426.548,118.5393,424.8382,120.389,422.6198,122.6784,421.8832,125.4001,421.2488,128.8904,421.6257,130.8021,422.5273,133.0247,422.9359,135.7272,425.7047,136.6693,428.6277,137.0786,430.6221,136.615,433.9086" style="stroke:#383838;stroke-width:1.0;"/><path d="M128.3438,427.6406 C127.4063,427.2031 126.8125,427.0625 125.9375,427.0625 C123.3125,427.0625 121.3125,429.1406 121.3125,431.8594 L121.3125,432.9844 C121.3125,435.5625 123.4219,437.4531 126.3125,437.4531 C127.5313,437.4531 128.6875,437.1563 129.4375,436.6094 C130.0156,436.2031 130.3438,435.75 130.3438,435.3594 C130.3438,434.9063 129.9531,434.5156 129.4844,434.5156 C129.2656,434.5156 129.0625,434.5938 128.875,434.7813 C128.4219,435.2656 128.4219,435.2656 128.2344,435.3594 C127.8125,435.625 127.125,435.75 126.3594,435.75 C124.3125,435.75 123.0156,434.6563 123.0156,432.9531 L123.0156,431.8594 C123.0156,430.0781 124.2656,428.7656 126,428.7656 C126.5781,428.7656 127.1875,428.9219 127.6563,429.1719 C128.1406,429.4531 128.3125,429.6719 128.4063,430.0781 C128.4688,430.4844 128.5,430.6094 128.6406,430.7344 C128.7813,430.875 129.0156,430.9844 129.2344,430.9844 C129.5,430.9844 129.7656,430.8438 129.9375,430.625 C130.0469,430.4688 130.0781,430.2813 130.0781,429.8594 L130.0781,428.4375 C130.0781,428 130.0625,427.875 129.9688,427.7188 C129.8125,427.4531 129.5313,427.3125 129.2344,427.3125 C128.9375,427.3125 128.7344,427.4063 128.5156,427.7188 L128.3438,427.6406 Z " fill="#000000"/><text fill="#000000" font-family="FG Virgil" font-size="12" font-style="italic" lengthAdjust="spacing" textLength="56" x="167" y="429.1387">«factory»</text><text fill="#000000" font-family="FG Virgil" font-size="12" lengthAdjust="spacing" textLength="110" x="140" y="443.1074">RepositoryFactory</text><path d="M112,450.9375 L112,451.2177 L122,450.3851 L132,451.1952 L142,451.4704 L152,449.9863 L162,450.8339 L172,450.3688 L182,450.4262 L192,450.8466 L202,450.0157 L212,451.6757 L222,450.0971 L232,450.6738 L242,451.5134 L252,450.9375 " fill="#F8F8F8" style="stroke:#383838;stroke-width:1.5;"/><path d="M112,458.9375 L112,459.2177 L122,458.3851 L132,459.1952 L142,459.4704 L152,457.9863 L162,458.8339 L172,458.3688 L182,458.4262 L192,458.8466 L202,458.0157 L212,459.6757 L222,458.0971 L232,458.6738 L242,459.5134 L252,458.9375 " fill="#F8F8F8" style="stroke:#383838;stroke-width:1.5;"/><text fill="#000000" font-family="FG Virgil" font-size="11" lengthAdjust="spacing" textLength="56" x="117" y="473.1479">catalogo()</text><text fill="#000000" font-family="FG Virgil" font-size="11" lengthAdjust="spacing" textLength="66" x="117" y="485.9526">criticidade()</text><!--MD5=[2eaa00136fcc32f782652a415b139e63]
class ContratoRepository--><polygon fill="#F8F8F8" points="7,559.5,7,559.7102,16.8667,559.0857,26.7333,559.6933,36.6,559.8997,46.4667,558.7866,56.3333,559.4223,66.2,559.0735,76.0667,559.1165,85.9333,559.4318,95.8,558.8086,105.6667,560.0536,115.5333,558.8697,125.4,559.3022,135.2667,559.9319,145.1333,559.4142,155,559.5,155.0682,559.5,154.9681,569.0346,155.1785,578.5692,155.2391,588.1038,155.5857,597.6384,155.6711,607.173,155.6793,616.7076,155,626.2422,155,626.4968,145.1333,626.7058,135.2667,626.9444,125.4,625.521,115.5333,626.9207,105.6667,625.9457,95.8,626.776,85.9333,625.7472,76.0667,626.1737,66.2,626.9838,56.3333,626.1935,46.4667,626.3475,36.6,626.5808,26.7333,626.6584,16.8667,626.2383,7,626.2422,7.2872,626.2422,6.4276,616.7076,7.2844,607.173,7.5482,597.6384,7.4445,588.1038,7.613,578.5692,6.5169,569.0346,7,559.5" style="stroke:#383838;stroke-width:1.5;"/><polygon fill="#C2C2C2" points="33.0608,581.1444,31.4484,583.3475,29.5412,586.5745,26.8136,588.7491,23.9474,589.9384,21.662,590.0416,18.7247,588.5543,15.9532,587.5827,13.8495,585.6099,12.7461,583.3515,12.0917,581.5533,11.4506,579.2045,10.41,577.1832,11.2096,575.2098,11.9102,573.048,14.5393,571.3382,16.389,569.1198,18.6784,568.3832,21.4001,567.7488,24.8904,568.1257,26.8021,569.0273,29.0247,569.4359,31.7272,572.2047,32.6693,575.1277,33.0786,577.1221,32.615,580.4086" style="stroke:#383838;stroke-width:1.0;"/><path d="M24.3438,574.1406 C23.4063,573.7031 22.8125,573.5625 21.9375,573.5625 C19.3125,573.5625 17.3125,575.6406 17.3125,578.3594 L17.3125,579.4844 C17.3125,582.0625 19.4219,583.9531 22.3125,583.9531 C23.5313,583.9531 24.6875,583.6563 25.4375,583.1094 C26.0156,582.7031 26.3438,582.25 26.3438,581.8594 C26.3438,581.4063 25.9531,581.0156 25.4844,581.0156 C25.2656,581.0156 25.0625,581.0938 24.875,581.2813 C24.4219,581.7656 24.4219,581.7656 24.2344,581.8594 C23.8125,582.125 23.125,582.25 22.3594,582.25 C20.3125,582.25 19.0156,581.1563 19.0156,579.4531 L19.0156,578.3594 C19.0156,576.5781 20.2656,575.2656 22,575.2656 C22.5781,575.2656 23.1875,575.4219 23.6563,575.6719 C24.1406,575.9531 24.3125,576.1719 24.4063,576.5781 C24.4688,576.9844 24.5,577.1094 24.6406,577.2344 C24.7813,577.375 25.0156,577.4844 25.2344,577.4844 C25.5,577.4844 25.7656,577.3438 25.9375,577.125 C26.0469,576.9688 26.0781,576.7813 26.0781,576.3594 L26.0781,574.9375 C26.0781,574.5 26.0625,574.375 25.9688,574.2188 C25.8125,573.9531 25.5313,573.8125 25.2344,573.8125 C24.9375,573.8125 24.7344,573.9063 24.5156,574.2188 L24.3438,574.1406 Z " fill="#000000"/><text fill="#000000" font-family="FG Virgil" font-size="12" font-style="italic" lengthAdjust="spacing" textLength="74" x="57" y="575.6387">«repository»</text><text fill="#000000" font-family="FG Virgil" font-size="12" lengthAdjust="spacing" textLength="116" x="36" y="589.6074">ContratoRepository</text><path d="M8,597.4375 L8,597.7177 L17.7333,596.8851 L27.4667,597.6952 L37.2,597.9704 L46.9333,596.4863 L56.6667,597.3339 L66.4,596.8688 L76.1333,596.9262 L85.8667,597.3466 L95.6,596.5157 L105.3333,598.1757 L115.0667,596.5971 L124.8,597.1738 L134.5333,598.0134 L144.2667,597.3231 L154,597.4375 " fill="#F8F8F8" style="stroke:#383838;stroke-width:1.5;"/><path d="M8,605.4375 L8,605.7177 L17.7333,604.8851 L27.4667,605.6952 L37.2,605.9704 L46.9333,604.4863 L56.6667,605.3339 L66.4,604.8688 L76.1333,604.9262 L85.8667,605.3466 L95.6,604.5157 L105.3333,606.1757 L115.0667,604.5971 L124.8,605.1738 L134.5333,606.0134 L144.2667,605.3231 L154,605.4375 " fill="#F8F8F8" style="stroke:#383838;stroke-width:1.5;"/><text fill="#000000" font-family="FG Virgil" font-size="11" lengthAdjust="spacing" textLength="60" x="13" y="619.6479">save(cont)</text><!--MD5=[8d7eeae0097fa08648b7bd23f47a8d11]
class CriticidadeRepository--><polygon fill="#F8F8F8" points="226.5,553,226.5,553.2102,236.5625,552.5857,246.625,553.1933,256.6875,553.3997,266.75,552.2866,276.8125,552.9223,286.875,552.5735,296.9375,552.6165,307,552.9318,317.0625,552.3086,327.125,553.5536,337.1875,552.3697,347.25,552.8022,357.3125,553.4319,367.375,552.9142,377.4375,553.0682,387.5,553,387.4681,553,387.6785,562.9434,387.7391,572.8867,388.0857,582.8301,388.1711,592.7734,388.1793,602.7168,387.7546,612.6602,387.9636,622.6035,387.5,632.5469,387.5,633.2491,377.4375,631.8257,367.375,633.2254,357.3125,632.2504,347.25,633.0807,337.1875,632.0519,327.125,632.4784,317.0625,633.2885,307,632.4981,296.9375,632.6522,286.875,632.8855,276.8125,632.9631,266.75,632.543,256.6875,632.8341,246.625,631.9745,236.5625,632.8313,226.5,632.5469,227.0482,632.5469,226.9445,622.6035,227.113,612.6602,226.0169,602.7168,225.8478,592.7734,225.8786,582.8301,226.4411,572.8867,226.3035,562.9434,226.5,553" style="stroke:#383838;stroke-width:1.5;"/><polygon fill="#C2C2C2" points="252.5608,574.6444,250.9484,576.8475,249.0412,580.0745,246.3136,582.2491,243.4474,583.4384,241.162,583.5416,238.2247,582.0543,235.4532,581.0827,233.3495,579.1099,232.2461,576.8515,231.5917,575.0533,230.9506,572.7045,229.91,570.6832,230.7096,568.7098,231.4102,566.548,234.0393,564.8382,235.889,562.6198,238.1784,561.8832,240.9001,561.2488,244.3904,561.6257,246.3021,562.5273,248.5247,562.9359,251.2272,565.7047,252.1693,568.6277,252.5786,570.6221,252.115,573.9086" style="stroke:#383838;stroke-width:1.0;"/><path d="M243.8438,567.6406 C242.9063,567.2031 242.3125,567.0625 241.4375,567.0625 C238.8125,567.0625 236.8125,569.1406 236.8125,571.8594 L236.8125,572.9844 C236.8125,575.5625 238.9219,577.4531 241.8125,577.4531 C243.0313,577.4531 244.1875,577.1563 244.9375,576.6094 C245.5156,576.2031 245.8438,575.75 245.8438,575.3594 C245.8438,574.9063 245.4531,574.5156 244.9844,574.5156 C244.7656,574.5156 244.5625,574.5938 244.375,574.7813 C243.9219,575.2656 243.9219,575.2656 243.7344,575.3594 C243.3125,575.625 242.625,575.75 241.8594,575.75 C239.8125,575.75 238.5156,574.6563 238.5156,572.9531 L238.5156,571.8594 C238.5156,570.0781 239.7656,568.7656 241.5,568.7656 C242.0781,568.7656 242.6875,568.9219 243.1563,569.1719 C243.6406,569.4531 243.8125,569.6719 243.9063,570.0781 C243.9688,570.4844 244,570.6094 244.1406,570.7344 C244.2813,570.875 244.5156,570.9844 244.7344,570.9844 C245,570.9844 245.2656,570.8438 245.4375,570.625 C245.5469,570.4688 245.5781,570.2813 245.5781,569.8594 L245.5781,568.4375 C245.5781,568 245.5625,567.875 245.4688,567.7188 C245.3125,567.4531 245.0313,567.3125 244.7344,567.3125 C244.4375,567.3125 244.2344,567.4063 244.0156,567.7188 L243.8438,567.6406 Z " fill="#000000"/><text fill="#000000" font-family="FG Virgil" font-size="12" font-style="italic" lengthAdjust="spacing" textLength="74" x="283" y="569.1387">«repository»</text><text fill="#000000" font-family="FG Virgil" font-size="12" lengthAdjust="spacing" textLength="129" x="255.5" y="583.1074">CriticidadeRepository</text><path d="M227.5,590.9375 L227.5,591.2177 L237.4375,590.3851 L247.375,591.1952 L257.3125,591.4704 L267.25,589.9863 L277.1875,590.8339 L287.125,590.3688 L297.0625,590.4262 L307,590.8466 L316.9375,590.0157 L326.875,591.6757 L336.8125,590.0971 L346.75,590.6738 L356.6875,591.5134 L366.625,590.8231 L376.5625,591.0285 L386.5,590.9375 " fill="#F8F8F8" style="stroke:#383838;stroke-width:1.5;"/><path d="M227.5,598.9375 L227.5,599.2177 L237.4375,598.3851 L247.375,599.1952 L257.3125,599.4704 L267.25,597.9863 L277.1875,598.8339 L287.125,598.3688 L297.0625,598.4262 L307,598.8466 L316.9375,598.0157 L326.875,599.6757 L336.8125,598.0971 L346.75,598.6738 L356.6875,599.5134 L366.625,598.8231 L376.5625,599.0285 L386.5,598.9375 " fill="#F8F8F8" style="stroke:#383838;stroke-width:1.5;"/><text fill="#000000" font-family="FG Virgil" font-size="11" lengthAdjust="spacing" textLength="124" x="232.5" y="613.1479">save(nivelCriticidade)</text><text fill="#000000" font-family="FG Virgil" font-size="11" lengthAdjust="spacing" textLength="103" x="232.5" y="625.9526">findAllCriticidade()</text><!--MD5=[38352e39b307b86db7f27cee04d00103]
link DefinirCriticidadeUI to DefinirCriticidadeController--><path d="M208,61.186 L208.2802,61.186 L207.4476,72.0486 L208.2577,82.9112 L208.5329,93.7738 L207.0488,104.6364 L208,115.499 " fill="none" style="stroke:#383838;stroke-width:1.0;"/><polygon fill="#383838" points="208,120.78,208.064,120.8085,208.6738,118.9239,209.6589,117.2062,210.5217,115.4341,210.9827,113.4834,212,111.78,211.9817,111.7617,211.0995,112.4795,210.3096,113.2896,209.5839,114.1639,208.637,114.817,208,115.78,208.1305,115.9105,207.0514,114.8314,206.3534,114.1334,205.7018,113.4818,204.7798,112.5598,204,111.78,204.0208,111.7892,204.7903,113.5757,205.6544,115.4042,206.4728,117.2124,207.3784,119.0593,208,120.78" style="stroke:#383838;stroke-width:1.0;"/><!--MD5=[80f00f63b73713e2f6a7d39e42ed488b]
link DefinirCriticidadeController to CriticidadeRepository--><path d="M239.037,226.263 L239.1202,226.3055 L240.3253,229.019 L242.0179,231.9818 L243.5518,234.8634 L244.5636,237.478 L246.2981,240.4622 L246.2669,240.4476 L247.5208,243.3645 L248.9324,246.3551 L250.4537,249.3969 L251.5972,252.2621 L253.2699,255.3747 L253.4971,255.4691 L254.2804,258.3255 L255.7271,261.4574 L257.2548,264.6229 L258.3115,267.5928 L259.6159,270.6656 L259.6445,270.6757 L260.6793,273.7278 L261.8444,276.8257 L262.9466,279.9015 L264.1688,283.0194 L265,286 L265.2859,286.085 L266.3074,289.5113 L267.1445,292.8828 L268.2516,296.3345 L269.3713,299.79 L270.0901,303.1264 L269.7804,303.0439 L271.3139,306.7062 L271.8274,310.0969 L273.1163,313.6941 L273.6067,317.0787 L274.7516,320.6375 L274.722,320.6304 L275.9226,324.2723 L276.4313,327.7489 L277.3482,331.323 L278.2994,334.9054 L279.0033,338.4286 L279.1842,338.4675 L279.7738,342.0216 L280.6724,345.6421 L281.0711,349.1551 L282.2155,352.8284 L282.8641,356.3952 L283.1033,356.4415 L283.7558,360.0402 L284.527,363.6619 L284.7465,367.1768 L285.3704,370.77 L286.3527,374.4326 L286.0806,374.3852 L286.954,378.0288 L287.5208,381.619 L288.5323,385.2866 L288.7845,388.8221 L289.4881,392.4361 L289.3374,392.4125 L290.1485,396.0248 L290.3156,399.5362 L290.9407,403.1194 L292.0138,406.7729 L292.289,410.3012 L292.4807,410.3283 L293.1093,413.8712 L293.1415,417.3301 L293.9207,420.8942 L294.5371,424.4355 L294.7744,427.9233 L294.5661,427.8969 L295.1698,431.3728 L295.7054,434.84 L296.3749,438.3243 L296.5234,441.7425 L296.963,445.1976 L297.1673,445.2208 L297.1006,448.5342 L297.4282,451.8924 L298.3319,455.3161 L298.175,458.6192 L298.8738,462.0196 L299.0988,462.0425 L299.2955,465.2819 L299.416,468.5136 L299.7084,471.7628 L300.398,475.0523 L300.5255,478.2847 L300.393,478.2727 L301.0698,481.4291 L300.8454,484.504 L301.6457,487.6715 L301.8691,490.7869 L301.937,493.8882 L302.0455,493.8964 L302.3935,499.6505 L303.1301,505.4341 L303.5156,511.191 L303.7543,516.9369 L304.1148,522.692 L304.2338,522.6989 L304.3456,527.669 L305.01,532.6712 L305.0494,537.6372 L305.3459,542.618 L305.558,547.594 " fill="none" style="stroke:#383838;stroke-width:1.0;"/><polygon fill="#383838" points="305.813,552.9281,305.8783,552.9535,306.3973,551.0419,307.299,549.279,308.0762,547.4677,308.4433,545.4972,309.378,543.7471,309.3588,543.7297,308.5119,544.4888,307.7617,545.3358,307.0787,546.2438,306.1641,546.9415,305.5739,547.9338,305.698,548.0704,304.5952,547.0175,303.8548,546.3634,303.1586,545.7579,302.2052,544.8694,301.3871,544.1297,301.4074,544.1399,302.2628,545.8846,303.2106,547.6758,304.1139,549.4446,305.1022,551.2562,305.813,552.9281" style="stroke:#383838;stroke-width:1.0;"/><!--MD5=[9fd8dcfca8bc8ec2faec27c37628db6e]
link DefinirCriticidadeController to ContratoRepository--><path d="M106.901,226.077 L106.9582,226.1509 L105.1829,227.1743 L103.7428,228.6308 L102.1936,229.9462 L100.2854,230.798 L98.8741,232.2916 L98.8518,232.2652 L97.1914,233.462 L95.6432,234.7919 L94.1731,236.2144 L92.434,237.3179 L91.0716,238.8681 L91.2386,239.0488 L89.3802,240.0504 L88.0095,241.5795 L86.6982,243.1729 L85.0408,244.3919 L83.5655,245.8078 L83.5872,245.829 L82.1278,247.2587 L80.7671,248.7849 L79.3589,250.2646 L78.0415,251.8331 L76.4278,253.112 L76.6524,253.3082 L75.3157,254.8446 L73.834,256.2544 L72.5645,257.8495 L71.3049,259.4533 L69.7304,260.782 L69.4764,260.5865 L68.7323,262.5733 L67.1519,263.9165 L66.2073,265.749 L64.608,267.0775 L63.5453,268.8191 L63.52,268.8022 L62.6994,270.683 L61.287,272.1693 L60.2238,273.8884 L59.1899,275.627 L57.9445,277.2247 L58.1057,277.3155 L56.9541,278.9789 L56.0779,280.7975 L54.7562,282.365 L54.099,284.307 L53,286 L53.2224,286.0995 L51.676,289.4431 L50.2401,292.8361 L48.2911,295.9996 L46.7182,299.3313 L45.4785,302.8121 L45.2164,302.7251 L44.2953,306.2927 L43.0789,309.7623 L42.2909,313.3741 L40.7714,316.7431 L39.6868,320.2564 L39.5383,320.2217 L38.9464,323.8676 L37.7198,327.3651 L36.9446,330.9681 L36.6109,334.6744 L35.4909,338.1967 L35.6824,338.2254 L35.267,341.905 L34.2559,345.4956 L33.9909,349.1977 L33.5633,352.8754 L32.7571,356.4967 L32.5477,356.4808 L32.4334,360.1981 L32.2506,363.9102 L32.2025,367.6325 L31.6307,371.3151 L31.3514,375.0199 L31.557,375.0222 L31.0631,378.7391 L30.966,382.4605 L31.4485,386.1885 L30.8638,389.9043 L31.1402,393.63 L31.3662,393.6403 L31.4018,397.3463 L31.361,401.0488 L31.4927,404.7593 L32.0233,408.4879 L31.9895,412.1907 L31.8571,412.1779 L32.6065,415.8911 L32.4554,419.5171 L33.3282,423.2422 L33.6245,426.9115 L33.7655,430.5658 L33.8733,430.5811 L34.3,434.1793 L35.1127,437.8325 L35.5768,441.436 L35.895,445.0188 L36.3343,448.6188 L36.4516,448.6403 L36.923,452.1272 L37.9387,455.7141 L38.3388,459.1879 L38.9921,462.7083 L39.5622,466.2133 L39.2982,466.1551 L40.137,469.5745 L41.2938,473.0642 L42.0006,476.4545 L42.5461,479.8091 L43.3153,483.2132 L43.1766,483.1779 L44.0499,486.443 L44.6776,489.6455 L45.9806,493.02 L46.9494,496.3094 L47.4598,499.4821 L47.6847,499.5463 L48.6372,502.6472 L49.1622,505.6259 L50.1382,508.7336 L50.8157,511.7559 L51.8618,514.8835 L51.9822,514.9214 L52.8715,517.7959 L53.9062,520.7162 L54.4798,523.4915 L55.4253,526.3838 L56.3874,529.2812 L56.574,529.3448 L57.5292,532.0141 L57.978,534.5109 L59.0152,537.208 L60.0627,539.9088 L60.903,542.5389 L60.6479,542.4458 L61.9248,544.989 L62.7593,547.3707 L63.4838,549.7123 L64.4596,552.1456 L65.2745,554.5202 " fill="none" style="stroke:#383838;stroke-width:1.0;"/><polygon fill="#383838" points="67.1582,559.4569,67.2282,559.4607,67.126,557.4826,67.4339,555.5265,67.6083,553.5632,67.3436,551.5764,67.6867,549.6222,67.6631,549.6117,67.0947,550.5968,66.6456,551.6353,66.2793,552.7109,65.6275,553.6587,65.3756,554.7855,65.451,554.9539,64.2571,554.1315,63.2834,553.8008,62.3365,553.5302,61.2334,552.9105,60.2124,552.4744,60.2285,552.4904,61.594,553.8634,63.0329,555.3093,64.4364,556.7201,65.9075,558.1981,67.1582,559.4569" style="stroke:#383838;stroke-width:1.0;"/><!--MD5=[239ff202fba46dfbd687583717a2ac41]
link DefinirCriticidadeController to PersistenceContext--><path d="M185.433,226.081 L185.6897,226.1933 L180.9207,235.0166 L177.6568,244.4983 L173.9027,253.7656 L168.5369,262.3277 L165.3072,271.8245 L161.396,281.023 " fill="none" style="stroke:#383838;stroke-width:1.0;"/><polygon fill="#383838" points="159.368,285.659,159.4152,285.7107,160.7294,284.2287,162.3205,283.05,163.8214,281.7725,165.0258,280.1703,166.6407,279.0176,166.6312,278.9934,165.5352,279.2973,164.4868,279.7229,163.4715,280.2329,162.3422,280.4516,161.3725,281.0784,161.5444,281.1456,160.7647,279.9482,160.4868,278.9472,160.2701,277.97,159.6972,276.8535,159.3117,275.8103,159.3345,275.8104,159.3123,277.78,159.3937,279.7501,159.4252,281.72,159.552,283.6904,159.368,285.659" style="stroke:#383838;stroke-width:1.0;"/><!--MD5=[70b83d8e693714e4b487010cd4296fcf]
link DefinirCriticidadeController to RepositoryFactory--><path d="M227.066,226.187 L227.1561,226.2118 L227.6616,228.9452 L228.695,231.824 L229.5566,234.6555 L229.8527,237.3313 L230.9315,240.2226 L230.8979,240.2147 L231.4487,243.1821 L232.1691,246.189 L233.0074,249.2235 L233.4395,252.1631 L234.4405,255.2357 L234.6824,255.2808 L234.7527,258.3366 L235.5292,261.5241 L236.392,264.7276 L236.7534,267.8377 L237.3784,270.997 L237.4085,271.0009 L237.7949,274.2511 L238.3181,277.5194 L238.7753,280.779 L239.3585,284.0552 L239.531,287.2771 L239.8285,287.2978 L240.0627,290.612 L240.105,293.9129 L240.4282,297.2333 L240.7646,300.5546 L240.6838,303.8468 L240.3633,303.8457 L240.9731,307.1739 L240.5275,310.4983 L240.8843,313.8257 L240.4148,317.15 L240.6225,320.4768 L240.5922,320.474 L240.6528,323.7986 L240.005,327.0591 L239.7753,330.3575 L239.5806,333.659 L239.1327,336.9376 L239.3143,336.973 L238.5045,340.1497 L238.0049,343.387 L237.0034,346.5263 L236.7506,349.8117 L236,353 L236.2327,353.0721 L235.2941,355.9465 L234.471,358.8567 L233.1111,361.6006 L232.1447,364.4664 L231.5269,367.4402 L231.271,367.3364 L230.3464,370.2794 L229.1334,373.1054 L228.3386,376.1012 L226.8297,378.8072 L225.7454,381.6854 L225.6082,381.6188 L224.5013,384.4786 L222.8082,387.0538 L221.532,389.8314 L220.6636,392.8072 L219.0689,395.4301 L219.2383,395.5238 L217.923,398.1759 L216.0806,400.5364 L214.8983,403.2621 L213.5722,405.9082 L211.911,408.369 " fill="none" style="stroke:#383838;stroke-width:1.0;"/><polygon fill="#383838" points="209.179,412.964,209.2195,413.0212,210.7064,411.7126,212.4307,410.7391,214.0778,409.6564,215.4705,408.215,217.2152,407.2702,217.2088,407.2451,216.0838,407.4115,214.9909,407.7045,213.9204,408.0854,212.7727,408.1632,211.7332,408.6656,211.912,408.7111,211.2505,407.5174,211.1111,406.4565,211.0355,405.4119,210.5892,404.2729,210.3378,403.1836,210.3604,403.1862,210.0955,405.1384,209.9334,407.1027,209.7217,409.0612,209.6046,411.0309,209.179,412.964" style="stroke:#383838;stroke-width:1.0;"/><!--MD5=[754b775031405e096442b27febffa290]
link PersistenceContext to RepositoryFactory--><path d="M154.146,353.006 L154.4158,353.0819 L156.1862,361.9974 L159.5381,371.3578 L162.375,380.5733 L163.5184,389.3124 L166.9063,398.6829 L169.578,407.852 " fill="none" style="stroke:#383838;stroke-width:1.0;"/><polygon fill="#383838" points="170.983,412.843,171.0523,412.853,171.1288,410.8738,171.6118,408.9534,171.9624,407.0139,171.8778,405.0113,172.3956,403.096,172.373,403.0833,171.7182,404.0132,171.1773,405.007,170.7156,406.0452,169.981,406.9304,169.6287,408.0299,169.7189,408.1909,168.5391,407.2933,167.6228,406.8656,166.7387,406.4953,165.6675,405.7914,164.6947,405.2629,164.7122,405.2775,165.9442,406.7721,167.2558,408.333,168.529,409.8619,169.8756,411.4516,170.983,412.843" style="stroke:#383838;stroke-width:1.0;"/><!--MD5=[c2c0504e9c5e789a9a7c44975a41f14c]
link RepositoryFactory to CriticidadeRepository--><path d="M217.486,493.176 L217.6937,493.3641 L224.2664,500.7428 L232.0567,509.2243 L239.4505,517.3466 L245.5404,524.2879 L253.3585,532.7946 L260.2037,540.42 L267.815,548.7394 " fill="none" style="stroke:#383838;stroke-width:1.0;"/><polygon fill="#383838" points="271.426,552.7259,271.4926,552.7478,270.6793,550.8116,270.2562,549.0038,269.706,547.1541,268.7381,545.167,268.3485,543.3702,268.3226,543.3689,268.1506,544.4932,268.1091,545.6239,268.1583,546.7591,267.8949,547.8788,268.0693,549.0202,268.0784,549.2045,266.9289,548.7545,265.806,548.8427,264.6864,548.9965,263.5479,548.7683,262.4193,548.741,262.4285,548.7618,264.2163,549.5282,266.0461,550.3894,267.8556,551.2048,269.7037,552.1075,271.426,552.7259" style="stroke:#383838;stroke-width:1.0;"/><!--MD5=[0e76b4e0a18208ba3641d36109478662]
link RepositoryFactory to ContratoRepository--><path d="M153.328,493.176 L153.5541,493.3415 L147.2263,500.5776 L142.2242,508.7839 L136.7904,516.6742 L129.9369,523.5255 L124.965,531.7539 L118.9339,539.2071 L113.3242,546.9688 L108.081,554.9986 " fill="none" style="stroke:#383838;stroke-width:1.0;"/><polygon fill="#383838" points="104.9636,559.2577,104.9985,559.3185,106.6035,558.1578,108.4129,557.3534,110.1558,556.433,111.6798,555.1311,113.5068,554.3572,113.5028,554.3316,112.367,554.3899,111.2511,554.5771,110.1491,554.8541,108.9993,554.822,107.9165,555.2228,108.0989,555.2511,107.5358,554.0726,107.5051,552.9766,107.5395,551.8907,107.1958,550.7462,107.0509,549.6326,107.0732,549.6374,106.6231,551.5553,106.2742,553.4952,105.8764,555.4245,105.5719,557.3741,104.9636,559.2577" style="stroke:#383838;stroke-width:1.0;"/><!--MD5=[c726e5e6bbb853a28ef838d6c0d62017]
@startuml
'http://plantuml.com/skinparam.html
skinparam handwritten true
skinparam monochrome true
skinparam packageStyle rect
skinparam defaultFontName FG Virgil
skinparam shadowing false

class DefinirCriticidadeUI <<presentation>>
class DefinirCriticidadeController <<application>>
class PersistenceContext <<persistence>>
class RepositoryFactory <<factory>>
class ContratoRepository <<repository>>
class CriticidadeRepository <<repository>>



DefinirCriticidadeUI - -> DefinirCriticidadeController
DefinirCriticidadeController : listCatalogo()
DefinirCriticidadeController : listCriticidade()
DefinirCriticidadeController : defineCriticidade(obj, etiqueta, escala, cor, designacao)
DefinirCriticidadeController : defineContrato(designacao)

DefinirCriticidadeController - -> CriticidadeRepository
DefinirCriticidadeController - -> ContratoRepository
DefinirCriticidadeController - -> PersistenceContext
PersistenceContext : repositories()
DefinirCriticidadeController - -> RepositoryFactory
RepositoryFactory : catalogo()
RepositoryFactory : criticidade()

PersistenceContext - -> RepositoryFactory
RepositoryFactory - -> CriticidadeRepository
RepositoryFactory - -> ContratoRepository

CriticidadeRepository : save(nivelCriticidade)
CriticidadeRepository : findAllCriticidade()

ContratoRepository : save(cont)
@enduml

@startuml
skinparam handwritten true
skinparam monochrome true
skinparam packageStyle rect
skinparam defaultFontName FG Virgil
skinparam shadowing false

class DefinirCriticidadeUI <<presentation>>
class DefinirCriticidadeController <<application>>
class PersistenceContext <<persistence>>
class RepositoryFactory <<factory>>
class ContratoRepository <<repository>>
class CriticidadeRepository <<repository>>



DefinirCriticidadeUI - -> DefinirCriticidadeController
DefinirCriticidadeController : listCatalogo()
DefinirCriticidadeController : listCriticidade()
DefinirCriticidadeController : defineCriticidade(obj, etiqueta, escala, cor, designacao)
DefinirCriticidadeController : defineContrato(designacao)

DefinirCriticidadeController - -> CriticidadeRepository
DefinirCriticidadeController - -> ContratoRepository
DefinirCriticidadeController - -> PersistenceContext
PersistenceContext : repositories()
DefinirCriticidadeController - -> RepositoryFactory
RepositoryFactory : catalogo()
RepositoryFactory : criticidade()

PersistenceContext - -> RepositoryFactory
RepositoryFactory - -> CriticidadeRepository
RepositoryFactory - -> ContratoRepository

CriticidadeRepository : save(nivelCriticidade)
CriticidadeRepository : findAllCriticidade()

ContratoRepository : save(cont)
@enduml

PlantUML version 1.2021.6beta6(Unknown compile time)
(GPL source distribution)
Java Runtime: Java(TM) SE Runtime Environment
JVM: Java HotSpot(TM) 64-Bit Server VM
Default Encoding: UTF-8
Language: en
Country: US
--></g></svg>