<?xml version="1.0" encoding="UTF-8" standalone="no"?><svg xmlns="http://www.w3.org/2000/svg" xmlns:xlink="http://www.w3.org/1999/xlink" contentScriptType="application/ecmascript" contentStyleType="text/css" height="361px" preserveAspectRatio="none" style="width:598px;height:361px;" version="1.1" viewBox="0 0 598 361" width="598px" zoomAndPan="magnify"><defs/><g><polygon fill="#FFFFFF" points="18,94.2969,18,94.3669,20,94.1588,22,94.3613,24,94.4301,26,94.0591,28,94.2969,27.9223,94.2969,27.5735,104.1085,27.6165,113.92,27.9318,123.7316,27.3086,133.5432,28.5536,143.3548,27.3697,153.1664,27.8022,162.9779,28.4319,172.7895,27.9142,182.6011,28.0682,192.4127,27.9681,202.2243,28.1785,212.0358,28.2391,221.8474,28.5857,231.659,28.6711,241.4706,28.6793,251.2822,28,261.0938,28,261.1786,26,261.2483,24,261.3278,22,260.8534,20,261.3199,18,261.0938,17.7035,261.0938,18.5338,251.2822,17.505,241.4706,17.9315,231.659,18.7416,221.8474,17.9513,212.0358,18.1053,202.2243,18.3386,192.4127,18.4162,182.6011,17.9961,172.7895,18.2872,162.9779,17.4276,153.1664,18.2844,143.3548,18.5482,133.5432,18.4445,123.7316,18.613,113.92,17.5169,104.1085,18,94.2969" style="stroke:#383838;stroke-width:1.0;"/><polygon fill="#FFFFFF" points="553,115.4297,553,115.4997,555,115.2916,557,115.4941,559,115.5629,561,115.1919,563,115.4297,562.9741,115.4297,562.8578,121.2563,562.8722,127.0828,562.9773,132.9094,562.7695,138.7359,563,144.5625,563,144.747,561,144.3524,559,144.4966,557,144.7065,555,144.5339,553,144.5625,553.0227,144.5625,552.9894,138.7359,553.0595,132.9094,553.0797,127.0828,553.1952,121.2563,553,115.4297" style="stroke:#383838;stroke-width:1.0;"/><polygon fill="#FFFFFF" points="553,173.6953,553,173.7654,555,173.5572,557,173.7597,559,173.8285,561,173.4575,563,173.6953,562.9741,173.6953,562.8578,179.5219,562.8722,185.3484,562.9773,191.175,562.7695,197.0016,563,202.8281,563,203.0127,561,202.618,559,202.7622,557,202.9721,555,202.7995,553,202.8281,553.0227,202.8281,552.9894,197.0016,553.0595,191.175,553.0797,185.3484,553.1952,179.5219,553,173.6953" style="stroke:#383838;stroke-width:1.0;"/><polygon fill="#FFFFFF" points="553,231.9609,553,232.031,555,231.8228,557,232.0254,559,232.0942,561,231.7231,563,231.9609,562.9741,231.9609,562.8578,237.7875,562.8722,243.6141,562.9773,249.4406,562.7695,255.2672,563,261.0938,563,261.2783,561,260.8837,559,261.0278,557,261.2377,555,261.0652,553,261.0938,553.0227,261.0938,552.9894,255.2672,553.0595,249.4406,553.0797,243.6141,553.1952,237.7875,553,231.9609" style="stroke:#383838;stroke-width:1.0;"/><path d="M23,84.2969 L23.2802,84.2969 L22.4476,94.5493 L23.2577,104.8018 L23.5329,115.0543 L22.0488,125.3067 L22.8964,135.5592 L22.4313,145.8117 L22.4887,156.0641 L22.9091,166.3166 L22.0782,176.5691 L23.7382,186.8215 L22.1596,197.074 L22.7363,207.3265 L23.5759,217.5789 L22.8856,227.8314 L23.091,238.0839 L22.9574,248.3363 L23.238,258.5888 L23.3188,268.8413 L23,279.0938 " fill="none" style="stroke:#383838;stroke-width:1.0;stroke-dasharray:5.0,5.0;"/><path d="M558,84.2969 L558.2802,84.2969 L557.4476,94.5493 L558.2577,104.8018 L558.5329,115.0543 L557.0488,125.3067 L557.8964,135.5592 L557.4313,145.8117 L557.4887,156.0641 L557.9091,166.3166 L557.0782,176.5691 L558.7382,186.8215 L557.1596,197.074 L557.7363,207.3265 L558.5759,217.5789 L557.8856,227.8314 L558.091,238.0839 L557.9574,248.3363 L558.238,258.5888 L558.3188,268.8413 L558,279.0938 " fill="none" style="stroke:#383838;stroke-width:1.0;stroke-dasharray:5.0,5.0;"/><text fill="#000000" font-family="FG Virgil" font-size="14" lengthAdjust="spacing" textLength="30" x="5" y="80.9951">GSH</text><polygon fill="#F8F8F8" points="31.0442,16.9459,29.8715,18.5482,28.4845,20.8951,26.5008,22.4767,24.4163,23.3415,22.7542,23.4166,20.618,22.3349,18.6023,21.6283,17.0724,20.1936,16.2699,18.5511,15.7939,17.2433,15.3277,15.5351,14.5709,14.0651,15.1525,12.6298,15.662,11.0576,17.574,9.8142,18.9192,8.2008,20.5843,7.665,22.5637,7.2037,25.1021,7.4778,26.4924,8.1335,28.1089,8.4307,30.0743,10.4443,30.7595,12.5701,31.0571,14.0206,30.72,16.4108" style="stroke:#383838;stroke-width:2.0;"/><path d="M23,23 L23.1868,23 L22.6317,28.4 L23.1718,33.8 L23.3553,39.2 L22.3659,44.6 L23,50 M10,31 L10,30.9309 L15.2,30.6209 L20.4,30.6591 L25.6,30.9394 L30.8,30.3854 L36,31 M23,50 L23.3719,50.3223 L19.9766,52.6331 L17.6672,55.8849 L15.4901,59.2515 L12.5424,61.9501 L10,65 M23,50 L23.0458,50.0397 L25.5785,52.9814 L28.3199,56.1039 L30.9606,59.1392 L33.7934,62.341 L36,65 " fill="none" style="stroke:#383838;stroke-width:2.0;"/><text fill="#000000" font-family="FG Virgil" font-size="14" lengthAdjust="spacing" textLength="30" x="5" y="291.0889">GSH</text><polygon fill="#F8F8F8" points="31.0442,306.3365,29.8715,307.9388,28.4845,310.2857,26.5008,311.8673,24.4163,312.7322,22.7542,312.8072,20.618,311.7256,18.6023,311.0189,17.0724,309.5842,16.2699,307.9417,15.7939,306.6339,15.3277,304.9257,14.5709,303.4557,15.1525,302.0204,15.662,300.4482,17.574,299.2048,18.9192,297.5914,20.5843,297.0557,22.5637,296.5943,25.1021,296.8684,26.4924,297.5241,28.1089,297.8213,30.0743,299.835,30.7595,301.9608,31.0571,303.4112,30.72,305.8014" style="stroke:#383838;stroke-width:2.0;"/><path d="M23,312.3906 L23.1868,312.3906 L22.6317,317.7906 L23.1718,323.1906 L23.3553,328.5906 L22.3659,333.9906 L23,339.3906 M10,320.3906 L10,320.3215 L15.2,320.0115 L20.4,320.0497 L25.6,320.33 L30.8,319.7761 L36,320.3906 M23,339.3906 L23.3719,339.7129 L19.9766,342.0237 L17.6672,345.2755 L15.4901,348.6421 L12.5424,351.3407 L10,354.3906 M23,339.3906 L23.0458,339.4304 L25.5785,342.372 L28.3199,345.4946 L30.9606,348.5298 L33.7934,351.7316 L36,354.3906 " fill="none" style="stroke:#383838;stroke-width:2.0;"/><polygon fill="#F8F8F8" points="524,53,524,53.2102,533.7143,52.5857,543.4286,53.1933,553.1429,53.3997,562.8571,52.2866,572.5714,52.9223,582.2857,52.5735,592,53,591.8722,53,591.9773,59.0594,591.7695,65.1188,592.1845,71.1781,591.7899,77.2375,592,83.2969,592,83.0991,582.2857,83.7288,572.5714,83.2111,562.8571,83.3651,553.1429,83.2649,543.4286,83.4754,533.7143,83.536,524,83.2969,524.1952,83.2969,524.2237,77.2375,524.2264,71.1781,524.0849,65.1188,524.1545,59.0594,524,53" style="stroke:#383838;stroke-width:1.5;"/><text fill="#000000" font-family="FG Virgil" font-size="14" lengthAdjust="spacing" textLength="54" x="531" y="72.9951">System</text><polygon fill="#F8F8F8" points="524,278.0938,524,278.3039,533.7143,277.6794,543.4286,278.287,553.1429,278.4934,562.8571,277.3804,572.5714,278.016,582.2857,277.6673,592,278.0938,591.8722,278.0938,591.9773,284.1531,591.7695,290.2125,592.1845,296.2719,591.7899,302.3313,592,308.3906,592,308.1929,582.2857,308.8226,572.5714,308.3048,562.8571,308.4589,553.1429,308.3587,543.4286,308.5692,533.7143,308.6298,524,308.3906,524.1952,308.3906,524.2237,302.3313,524.2264,296.2719,524.0849,290.2125,524.1545,284.1531,524,278.0938" style="stroke:#383838;stroke-width:1.5;"/><text fill="#000000" font-family="FG Virgil" font-size="14" lengthAdjust="spacing" textLength="54" x="531" y="298.0889">System</text><polygon fill="#FFFFFF" points="18,94.2969,18,94.3669,20,94.1588,22,94.3613,24,94.4301,26,94.0591,28,94.2969,27.9223,94.2969,27.5735,104.1085,27.6165,113.92,27.9318,123.7316,27.3086,133.5432,28.5536,143.3548,27.3697,153.1664,27.8022,162.9779,28.4319,172.7895,27.9142,182.6011,28.0682,192.4127,27.9681,202.2243,28.1785,212.0358,28.2391,221.8474,28.5857,231.659,28.6711,241.4706,28.6793,251.2822,28,261.0938,28,261.1786,26,261.2483,24,261.3278,22,260.8534,20,261.3199,18,261.0938,17.7035,261.0938,18.5338,251.2822,17.505,241.4706,17.9315,231.659,18.7416,221.8474,17.9513,212.0358,18.1053,202.2243,18.3386,192.4127,18.4162,182.6011,17.9961,172.7895,18.2872,162.9779,17.4276,153.1664,18.2844,143.3548,18.5482,133.5432,18.4445,123.7316,18.613,113.92,17.5169,104.1085,18,94.2969" style="stroke:#383838;stroke-width:1.0;"/><polygon fill="#FFFFFF" points="553,115.4297,553,115.4997,555,115.2916,557,115.4941,559,115.5629,561,115.1919,563,115.4297,562.9741,115.4297,562.8578,121.2563,562.8722,127.0828,562.9773,132.9094,562.7695,138.7359,563,144.5625,563,144.747,561,144.3524,559,144.4966,557,144.7065,555,144.5339,553,144.5625,553.0227,144.5625,552.9894,138.7359,553.0595,132.9094,553.0797,127.0828,553.1952,121.2563,553,115.4297" style="stroke:#383838;stroke-width:1.0;"/><polygon fill="#FFFFFF" points="553,173.6953,553,173.7654,555,173.5572,557,173.7597,559,173.8285,561,173.4575,563,173.6953,562.9741,173.6953,562.8578,179.5219,562.8722,185.3484,562.9773,191.175,562.7695,197.0016,563,202.8281,563,203.0127,561,202.618,559,202.7622,557,202.9721,555,202.7995,553,202.8281,553.0227,202.8281,552.9894,197.0016,553.0595,191.175,553.0797,185.3484,553.1952,179.5219,553,173.6953" style="stroke:#383838;stroke-width:1.0;"/><polygon fill="#FFFFFF" points="553,231.9609,553,232.031,555,231.8228,557,232.0254,559,232.0942,561,231.7231,563,231.9609,562.9741,231.9609,562.8578,237.7875,562.8722,243.6141,562.9773,249.4406,562.7695,255.2672,563,261.0938,563,261.2783,561,260.8837,559,261.0278,557,261.2377,555,261.0652,553,261.0938,553.0227,261.0938,552.9894,255.2672,553.0595,249.4406,553.0797,243.6141,553.1952,237.7875,553,231.9609" style="stroke:#383838;stroke-width:1.0;"/><polygon fill="#383838" points="541,111.4297,541.026,111.4947,542.9487,112.1015,545.0239,113.0895,547.0495,113.9534,548.9117,114.4089,551,115.4297,550.9904,115.4056,548.9472,116.0977,546.9525,116.911,544.9916,117.8086,542.9144,118.4157,541,119.4297,541.1305,119.5602,541.6514,118.4811,542.5534,117.7831,543.5018,117.1315,544.1798,116.2095,545,115.4297,545.0161,115.4458,544.1925,114.6222,543.4421,113.8718,542.6564,113.0861,541.938,112.3677,541,111.4297" style="stroke:#383838;stroke-width:1.0;"/><path d="M28,115.4297 L28,115.7099 L37.9808,114.8773 L47.9615,115.6874 L57.9423,115.9626 L67.9231,114.4785 L77.9038,115.3261 L87.8846,114.861 L97.8654,114.9184 L107.8462,115.3388 L117.8269,114.5079 L127.8077,116.1679 L137.7885,114.5893 L147.7692,115.166 L157.75,116.0056 L167.7308,115.3153 L177.7115,115.5207 L187.6923,115.3871 L197.6731,115.6677 L207.6538,115.7485 L217.6346,116.2106 L227.6154,116.3244 L237.5962,116.3354 L247.5769,115.7692 L257.5577,116.0478 L267.5385,116.366 L277.5192,114.4681 L287.5,116.3344 L297.4808,115.0343 L307.4615,116.1414 L317.4423,114.7697 L327.4231,115.3384 L337.4038,116.4185 L347.3846,115.3647 L357.3654,115.5701 L367.3462,115.8812 L377.3269,115.9847 L387.3077,115.4245 L397.2885,115.8126 L407.2692,114.6665 L417.25,115.8089 L427.2308,116.1606 L437.2115,116.0224 L447.1923,116.2471 L457.1731,114.7856 L467.1538,114.5601 L477.1346,114.6012 L487.1154,115.3512 L497.0962,115.1676 L507.0769,116.3382 L517.0577,115.1968 L527.0385,114.9723 L537.0192,115.734 L547,115.4297 " fill="none" style="stroke:#383838;stroke-width:1.0;"/><text fill="#000000" font-family="FG Virgil" font-size="13" lengthAdjust="spacing" textLength="396" x="35" y="110.3638">pretende definir os niveis de criticidade e respetivos objetivos</text><polygon fill="#383838" points="39,140.5625,39.026,140.6275,36.9487,141.2343,35.0239,142.2223,33.0495,143.0862,30.9117,143.5417,29,144.5625,28.9904,144.5384,30.9472,145.2305,32.9525,146.0438,34.9916,146.9414,36.9144,147.5485,39,148.5625,39.1305,148.693,38.0514,147.6139,37.3534,146.9159,36.7018,146.2643,35.7798,145.3423,35,144.5625,35.0161,144.5786,35.7925,143.755,36.6421,143.0046,37.4564,142.2189,38.338,141.5005,39,140.5625" style="stroke:#383838;stroke-width:1.0;"/><path d="M33,144.5625 L33,144.8427 L43.0769,144.0101 L53.1538,144.8202 L63.2308,145.0954 L73.3077,143.6113 L83.3846,144.4589 L93.4615,143.9938 L103.5385,144.0512 L113.6154,144.4716 L123.6923,143.6407 L133.7692,145.3007 L143.8462,143.7221 L153.9231,144.2988 L164,145.1384 L174.0769,144.4481 L184.1538,144.6535 L194.2308,144.5199 L204.3077,144.8005 L214.3846,144.8813 L224.4615,145.3434 L234.5385,145.4572 L244.6154,145.4682 L254.6923,144.902 L264.7692,145.1806 L274.8462,145.4988 L284.9231,143.6009 L295,145.4672 L305.0769,144.1672 L315.1538,145.2742 L325.2308,143.9025 L335.3077,144.4712 L345.3846,145.5513 L355.4615,144.4975 L365.5385,144.7029 L375.6154,145.014 L385.6923,145.1175 L395.7692,144.5573 L405.8462,144.9455 L415.9231,143.7993 L426,144.9417 L436.0769,145.2934 L446.1538,145.1552 L456.2308,145.3799 L466.3077,143.9184 L476.3846,143.6929 L486.4615,143.734 L496.5385,144.484 L506.6154,144.3005 L516.6923,145.471 L526.7692,144.3296 L536.8462,144.1051 L546.9231,144.8669 L557,144.5625 " fill="none" style="stroke:#383838;stroke-width:1.0;stroke-dasharray:2.0,2.0;"/><text fill="#000000" font-family="FG Virgil" font-size="13" lengthAdjust="spacing" textLength="185" x="45" y="139.4966">requisita niveis de criticidade</text><polygon fill="#383838" points="541,169.6953,541.026,169.7604,542.9487,170.3671,545.0239,171.3551,547.0495,172.219,548.9117,172.6745,551,173.6953,550.9904,173.6713,548.9472,174.3633,546.9525,175.1766,544.9916,176.0742,542.9144,176.6813,541,177.6953,541.1305,177.8258,541.6514,176.7468,542.5534,176.0487,543.5018,175.3971,544.1798,174.4751,545,173.6953,545.0161,173.7114,544.1925,172.8878,543.4421,172.1374,542.6564,171.3517,541.938,170.6334,541,169.6953" style="stroke:#383838;stroke-width:1.0;"/><path d="M28,173.6953 L28,173.9756 L37.9808,173.1429 L47.9615,173.953 L57.9423,174.2282 L67.9231,172.7441 L77.9038,173.5917 L87.8846,173.1267 L97.8654,173.184 L107.8462,173.6044 L117.8269,172.7735 L127.8077,174.4335 L137.7885,172.8549 L147.7692,173.4316 L157.75,174.2712 L167.7308,173.5809 L177.7115,173.7863 L187.6923,173.6527 L197.6731,173.9333 L207.6538,174.0142 L217.6346,174.4762 L227.6154,174.5901 L237.5962,174.601 L247.5769,174.0348 L257.5577,174.3134 L267.5385,174.6316 L277.5192,172.7337 L287.5,174.6 L297.4808,173.3 L307.4615,174.4071 L317.4423,173.0353 L327.4231,173.604 L337.4038,174.6841 L347.3846,173.6303 L357.3654,173.8357 L367.3462,174.1468 L377.3269,174.2503 L387.3077,173.6901 L397.2885,174.0783 L407.2692,172.9321 L417.25,174.0745 L427.2308,174.4262 L437.2115,174.288 L447.1923,174.5127 L457.1731,173.0512 L467.1538,172.8257 L477.1346,172.8668 L487.1154,173.6168 L497.0962,173.4333 L507.0769,174.6039 L517.0577,173.4624 L527.0385,173.2379 L537.0192,173.9997 L547,173.6953 " fill="none" style="stroke:#383838;stroke-width:1.0;"/><text fill="#000000" font-family="FG Virgil" font-size="13" lengthAdjust="spacing" textLength="172" x="35" y="168.6294">insere os dados solicitados</text><polygon fill="#383838" points="39,198.8281,39.026,198.8932,36.9487,199.4999,35.0239,200.4879,33.0495,201.3518,30.9117,201.8073,29,202.8281,28.9904,202.8041,30.9472,203.4961,32.9525,204.3094,34.9916,205.207,36.9144,205.8142,39,206.8281,39.1305,206.9586,38.0514,205.8796,37.3534,205.1815,36.7018,204.5299,35.7798,203.6079,35,202.8281,35.0161,202.8442,35.7925,202.0206,36.6421,201.2702,37.4564,200.4845,38.338,199.7662,39,198.8281" style="stroke:#383838;stroke-width:1.0;"/><path d="M33,202.8281 L33,203.1084 L43.0769,202.2757 L53.1538,203.0858 L63.2308,203.361 L73.3077,201.8769 L83.3846,202.7245 L93.4615,202.2595 L103.5385,202.3168 L113.6154,202.7372 L123.6923,201.9063 L133.7692,203.5663 L143.8462,201.9878 L153.9231,202.5644 L164,203.4041 L174.0769,202.7138 L184.1538,202.9191 L194.2308,202.7855 L204.3077,203.0662 L214.3846,203.147 L224.4615,203.609 L234.5385,203.7229 L244.6154,203.7338 L254.6923,203.1676 L264.7692,203.4462 L274.8462,203.7644 L284.9231,201.8665 L295,203.7328 L305.0769,202.4328 L315.1538,203.5399 L325.2308,202.1681 L335.3077,202.7368 L345.3846,203.8169 L355.4615,202.7631 L365.5385,202.9685 L375.6154,203.2796 L385.6923,203.3831 L395.7692,202.8229 L405.8462,203.2111 L415.9231,202.0649 L426,203.2073 L436.0769,203.5591 L446.1538,203.4208 L456.2308,203.6455 L466.3077,202.184 L476.3846,201.9585 L486.4615,201.9996 L496.5385,202.7496 L506.6154,202.5661 L516.6923,203.7367 L526.7692,202.5952 L536.8462,202.3707 L546.9231,203.1325 L557,202.8281 " fill="none" style="stroke:#383838;stroke-width:1.0;stroke-dasharray:2.0,2.0;"/><text fill="#000000" font-family="FG Virgil" font-size="13" lengthAdjust="spacing" textLength="501" x="45" y="197.7622">apresenta o conjunto de niveis de criticidade e solicita designacao do contrato</text><polygon fill="#383838" points="541,227.9609,541.026,228.026,542.9487,228.6327,545.0239,229.6208,547.0495,230.4846,548.9117,230.9401,551,231.9609,550.9904,231.9369,548.9472,232.6289,546.9525,233.4422,544.9916,234.3398,542.9144,234.947,541,235.9609,541.1305,236.0914,541.6514,235.0124,542.5534,234.3143,543.5018,233.6627,544.1798,232.7407,545,231.9609,545.0161,231.977,544.1925,231.1534,543.4421,230.403,542.6564,229.6173,541.938,228.899,541,227.9609" style="stroke:#383838;stroke-width:1.0;"/><path d="M28,231.9609 L28,232.2412 L37.9808,231.4085 L47.9615,232.2187 L57.9423,232.4938 L67.9231,231.0097 L77.9038,231.8573 L87.8846,231.3923 L97.8654,231.4496 L107.8462,231.8701 L117.8269,231.0391 L127.8077,232.6991 L137.7885,231.1206 L147.7692,231.6972 L157.75,232.5369 L167.7308,231.8466 L177.7115,232.0519 L187.6923,231.9183 L197.6731,232.199 L207.6538,232.2798 L217.6346,232.7419 L227.6154,232.8557 L237.5962,232.8666 L247.5769,232.3004 L257.5577,232.5791 L267.5385,232.8972 L277.5192,230.9994 L287.5,232.8656 L297.4808,231.5656 L307.4615,232.6727 L317.4423,231.3009 L327.4231,231.8696 L337.4038,232.9497 L347.3846,231.896 L357.3654,232.1013 L367.3462,232.4124 L377.3269,232.5159 L387.3077,231.9557 L397.2885,232.3439 L407.2692,231.1977 L417.25,232.3401 L427.2308,232.6919 L437.2115,232.5536 L447.1923,232.7783 L457.1731,231.3168 L467.1538,231.0914 L477.1346,231.1324 L487.1154,231.8824 L497.0962,231.6989 L507.0769,232.8695 L517.0577,231.728 L527.0385,231.5035 L537.0192,232.2653 L547,231.9609 " fill="none" style="stroke:#383838;stroke-width:1.0;"/><text fill="#000000" font-family="FG Virgil" font-size="13" lengthAdjust="spacing" textLength="185" x="35" y="226.895">introduz os dados solicitados</text><polygon fill="#383838" points="34,257.0938,34.026,257.1588,31.9487,257.7655,30.0239,258.7536,28.0495,259.6174,25.9117,260.073,24,261.0938,23.9904,261.0697,25.9472,261.7618,27.9525,262.5751,29.9916,263.4727,31.9144,264.0798,34,265.0938,34.1305,265.2242,33.0514,264.1452,32.3534,263.4471,31.7018,262.7956,30.7798,261.8735,30,261.0938,30.0161,261.1098,30.7925,260.2862,31.6421,259.5358,32.4564,258.7501,33.338,258.0318,34,257.0938" style="stroke:#383838;stroke-width:1.0;"/><path d="M28,261.0938 L28,261.374 L37.9811,260.5413 L47.9623,261.3515 L57.9434,261.6267 L67.9245,260.1426 L77.9057,260.9901 L87.8868,260.5251 L97.8679,260.5824 L107.8491,261.0029 L117.8302,260.1719 L127.8113,261.8319 L137.7925,260.2534 L147.7736,260.8301 L157.7547,261.6697 L167.7358,260.9794 L177.717,261.1847 L187.6981,261.0512 L197.6792,261.3318 L207.6604,261.4126 L217.6415,261.8747 L227.6226,261.9885 L237.6038,261.9994 L247.5849,261.4333 L257.566,261.7119 L267.5472,262.0301 L277.5283,260.1322 L287.5094,261.9984 L297.4906,260.6984 L307.4717,261.8055 L317.4528,260.4337 L327.434,261.0024 L337.4151,262.0826 L347.3962,261.0288 L357.3774,261.2342 L367.3585,261.5453 L377.3396,261.6487 L387.3208,261.0885 L397.3019,261.4767 L407.283,260.3305 L417.2642,261.4729 L427.2453,261.8247 L437.2264,261.6865 L447.2075,261.9111 L457.1887,260.4496 L467.1698,260.2242 L477.1509,260.2652 L487.1321,261.0152 L497.1132,260.8317 L507.0943,262.0023 L517.0755,260.8608 L527.0566,260.6363 L537.0377,261.3981 L547.0189,260.2046 L557,261.0938 " fill="none" style="stroke:#383838;stroke-width:1.0;stroke-dasharray:2.0,2.0;"/><text fill="#000000" font-family="FG Virgil" font-size="13" lengthAdjust="spacing" textLength="190" x="40" y="256.0278">informa sucesso da operação</text><!--MD5=[3379c9bb21c6cdad7be9d9935fbf4934]
@startuml
'http://plantuml.com/skinparam.html
skinparam handwritten true
skinparam monochrome true
skinparam packageStyle rect
skinparam defaultFontName FG Virgil
skinparam shadowing false

actor GSH as Actor
participant System as System
activate Actor
Actor -> System: pretende definir os niveis de criticidade e respetivos objetivos
activate System
System - -> Actor: requisita niveis de criticidade
deactivate System
Actor -> System: insere os dados solicitados
activate System
System - -> Actor: apresenta o conjunto de niveis de criticidade e solicita designacao do contrato
deactivate System
Actor -> System: introduz os dados solicitados
activate System
System - -> Actor: informa sucesso da operação
deactivate System
deactivate Actor
@enduml

@startuml
skinparam handwritten true
skinparam monochrome true
skinparam packageStyle rect
skinparam defaultFontName FG Virgil
skinparam shadowing false

actor GSH as Actor
participant System as System
activate Actor
Actor -> System: pretende definir os niveis de criticidade e respetivos objetivos
activate System
System - -> Actor: requisita niveis de criticidade
deactivate System
Actor -> System: insere os dados solicitados
activate System
System - -> Actor: apresenta o conjunto de niveis de criticidade e solicita designacao do contrato
deactivate System
Actor -> System: introduz os dados solicitados
activate System
System - -> Actor: informa sucesso da operação
deactivate System
deactivate Actor
@enduml

PlantUML version 1.2021.6beta4(Unknown compile time)
(GPL source distribution)
Java Runtime: Java(TM) SE Runtime Environment
JVM: Java HotSpot(TM) 64-Bit Server VM
Default Encoding: UTF-8
Language: en
Country: US
--></g></svg>