<?xml version="1.0" encoding="UTF-8" standalone="no"?><svg xmlns="http://www.w3.org/2000/svg" xmlns:xlink="http://www.w3.org/1999/xlink" contentScriptType="application/ecmascript" contentStyleType="text/css" height="361px" preserveAspectRatio="none" style="width:527px;height:361px;" version="1.1" viewBox="0 0 527 361" width="527px" zoomAndPan="magnify"><defs/><g><polygon fill="#FFFFFF" points="18,94.2969,18,94.3669,20,94.1588,22,94.3613,24,94.4301,26,94.0591,28,94.2969,27.9223,94.2969,27.5735,104.1085,27.6165,113.92,27.9318,123.7316,27.3086,133.5432,28.5536,143.3548,27.3697,153.1664,27.8022,162.9779,28.4319,172.7895,27.9142,182.6011,28.0682,192.4127,27.9681,202.2243,28.1785,212.0358,28.2391,221.8474,28.5857,231.659,28.6711,241.4706,28.6793,251.2822,28,261.0938,28,261.1786,26,261.2483,24,261.3278,22,260.8534,20,261.3199,18,261.0938,17.7035,261.0938,18.5338,251.2822,17.505,241.4706,17.9315,231.659,18.7416,221.8474,17.9513,212.0358,18.1053,202.2243,18.3386,192.4127,18.4162,182.6011,17.9961,172.7895,18.2872,162.9779,17.4276,153.1664,18.2844,143.3548,18.5482,133.5432,18.4445,123.7316,18.613,113.92,17.5169,104.1085,18,94.2969" style="stroke:#383838;stroke-width:1.0;"/><polygon fill="#FFFFFF" points="482,115.4297,482,115.4997,484,115.2916,486,115.4941,488,115.5629,490,115.1919,492,115.4297,491.9741,115.4297,491.8578,121.2563,491.8722,127.0828,491.9773,132.9094,491.7695,138.7359,492,144.5625,492,144.747,490,144.3524,488,144.4966,486,144.7065,484,144.5339,482,144.5625,482.0227,144.5625,481.9894,138.7359,482.0595,132.9094,482.0797,127.0828,482.1952,121.2563,482,115.4297" style="stroke:#383838;stroke-width:1.0;"/><polygon fill="#FFFFFF" points="482,173.6953,482,173.7654,484,173.5572,486,173.7597,488,173.8285,490,173.4575,492,173.6953,491.9741,173.6953,491.8578,179.5219,491.8722,185.3484,491.9773,191.175,491.7695,197.0016,492,202.8281,492,203.0127,490,202.618,488,202.7622,486,202.9721,484,202.7995,482,202.8281,482.0227,202.8281,481.9894,197.0016,482.0595,191.175,482.0797,185.3484,482.1952,179.5219,482,173.6953" style="stroke:#383838;stroke-width:1.0;"/><polygon fill="#FFFFFF" points="482,231.9609,482,232.031,484,231.8228,486,232.0254,488,232.0942,490,231.7231,492,231.9609,491.9741,231.9609,491.8578,237.7875,491.8722,243.6141,491.9773,249.4406,491.7695,255.2672,492,261.0938,492,261.2783,490,260.8837,488,261.0278,486,261.2377,484,261.0652,482,261.0938,482.0227,261.0938,481.9894,255.2672,482.0595,249.4406,482.0797,243.6141,482.1952,237.7875,482,231.9609" style="stroke:#383838;stroke-width:1.0;"/><path d="M23,84.2969 L23.2802,84.2969 L22.4476,94.5493 L23.2577,104.8018 L23.5329,115.0543 L22.0488,125.3067 L22.8964,135.5592 L22.4313,145.8117 L22.4887,156.0641 L22.9091,166.3166 L22.0782,176.5691 L23.7382,186.8215 L22.1596,197.074 L22.7363,207.3265 L23.5759,217.5789 L22.8856,227.8314 L23.091,238.0839 L22.9574,248.3363 L23.238,258.5888 L23.3188,268.8413 L23,279.0938 " fill="none" style="stroke:#383838;stroke-width:1.0;stroke-dasharray:5.0,5.0;"/><path d="M487,84.2969 L487.2802,84.2969 L486.4476,94.5493 L487.2577,104.8018 L487.5329,115.0543 L486.0488,125.3067 L486.8964,135.5592 L486.4313,145.8117 L486.4887,156.0641 L486.9091,166.3166 L486.0782,176.5691 L487.7382,186.8215 L486.1596,197.074 L486.7363,207.3265 L487.5759,217.5789 L486.8856,227.8314 L487.091,238.0839 L486.9574,248.3363 L487.238,258.5888 L487.3188,268.8413 L487,279.0938 " fill="none" style="stroke:#383838;stroke-width:1.0;stroke-dasharray:5.0,5.0;"/><text fill="#000000" font-family="FG Virgil" font-size="14" lengthAdjust="spacing" textLength="30" x="5" y="80.9951">GSH</text><polygon fill="#F8F8F8" points="31.0442,16.9459,29.8715,18.5482,28.4845,20.8951,26.5008,22.4767,24.4163,23.3415,22.7542,23.4166,20.618,22.3349,18.6023,21.6283,17.0724,20.1936,16.2699,18.5511,15.7939,17.2433,15.3277,15.5351,14.5709,14.0651,15.1525,12.6298,15.662,11.0576,17.574,9.8142,18.9192,8.2008,20.5843,7.665,22.5637,7.2037,25.1021,7.4778,26.4924,8.1335,28.1089,8.4307,30.0743,10.4443,30.7595,12.5701,31.0571,14.0206,30.72,16.4108" style="stroke:#383838;stroke-width:2.0;"/><path d="M23,23 L23.1868,23 L22.6317,28.4 L23.1718,33.8 L23.3553,39.2 L22.3659,44.6 L23,50 M10,31 L10,30.9309 L15.2,30.6209 L20.4,30.6591 L25.6,30.9394 L30.8,30.3854 L36,31 M23,50 L23.3719,50.3223 L19.9766,52.6331 L17.6672,55.8849 L15.4901,59.2515 L12.5424,61.9501 L10,65 M23,50 L23.0458,50.0397 L25.5785,52.9814 L28.3199,56.1039 L30.9606,59.1392 L33.7934,62.341 L36,65 " fill="none" style="stroke:#383838;stroke-width:2.0;"/><text fill="#000000" font-family="FG Virgil" font-size="14" lengthAdjust="spacing" textLength="30" x="5" y="291.0889">GSH</text><polygon fill="#F8F8F8" points="31.0442,306.3365,29.8715,307.9388,28.4845,310.2857,26.5008,311.8673,24.4163,312.7322,22.7542,312.8072,20.618,311.7256,18.6023,311.0189,17.0724,309.5842,16.2699,307.9417,15.7939,306.6339,15.3277,304.9257,14.5709,303.4557,15.1525,302.0204,15.662,300.4482,17.574,299.2048,18.9192,297.5914,20.5843,297.0557,22.5637,296.5943,25.1021,296.8684,26.4924,297.5241,28.1089,297.8213,30.0743,299.835,30.7595,301.9608,31.0571,303.4112,30.72,305.8014" style="stroke:#383838;stroke-width:2.0;"/><path d="M23,312.3906 L23.1868,312.3906 L22.6317,317.7906 L23.1718,323.1906 L23.3553,328.5906 L22.3659,333.9906 L23,339.3906 M10,320.3906 L10,320.3215 L15.2,320.0115 L20.4,320.0497 L25.6,320.33 L30.8,319.7761 L36,320.3906 M23,339.3906 L23.3719,339.7129 L19.9766,342.0237 L17.6672,345.2755 L15.4901,348.6421 L12.5424,351.3407 L10,354.3906 M23,339.3906 L23.0458,339.4304 L25.5785,342.372 L28.3199,345.4946 L30.9606,348.5298 L33.7934,351.7316 L36,354.3906 " fill="none" style="stroke:#383838;stroke-width:2.0;"/><polygon fill="#F8F8F8" points="453,53,453,53.2102,462.7143,52.5857,472.4286,53.1933,482.1429,53.3997,491.8571,52.2866,501.5714,52.9223,511.2857,52.5735,521,53,520.8722,53,520.9773,59.0594,520.7695,65.1188,521.1845,71.1781,520.7899,77.2375,521,83.2969,521,83.0991,511.2857,83.7288,501.5714,83.2111,491.8571,83.3651,482.1429,83.2649,472.4286,83.4754,462.7143,83.536,453,83.2969,453.1952,83.2969,453.2237,77.2375,453.2264,71.1781,453.0849,65.1188,453.1545,59.0594,453,53" style="stroke:#383838;stroke-width:1.5;"/><text fill="#000000" font-family="FG Virgil" font-size="14" lengthAdjust="spacing" textLength="54" x="460" y="72.9951">System</text><polygon fill="#F8F8F8" points="453,278.0938,453,278.3039,462.7143,277.6794,472.4286,278.287,482.1429,278.4934,491.8571,277.3804,501.5714,278.016,511.2857,277.6673,521,278.0938,520.8722,278.0938,520.9773,284.1531,520.7695,290.2125,521.1845,296.2719,520.7899,302.3313,521,308.3906,521,308.1929,511.2857,308.8226,501.5714,308.3048,491.8571,308.4589,482.1429,308.3587,472.4286,308.5692,462.7143,308.6298,453,308.3906,453.1952,308.3906,453.2237,302.3313,453.2264,296.2719,453.0849,290.2125,453.1545,284.1531,453,278.0938" style="stroke:#383838;stroke-width:1.5;"/><text fill="#000000" font-family="FG Virgil" font-size="14" lengthAdjust="spacing" textLength="54" x="460" y="298.0889">System</text><polygon fill="#FFFFFF" points="18,94.2969,18,94.3669,20,94.1588,22,94.3613,24,94.4301,26,94.0591,28,94.2969,27.9223,94.2969,27.5735,104.1085,27.6165,113.92,27.9318,123.7316,27.3086,133.5432,28.5536,143.3548,27.3697,153.1664,27.8022,162.9779,28.4319,172.7895,27.9142,182.6011,28.0682,192.4127,27.9681,202.2243,28.1785,212.0358,28.2391,221.8474,28.5857,231.659,28.6711,241.4706,28.6793,251.2822,28,261.0938,28,261.1786,26,261.2483,24,261.3278,22,260.8534,20,261.3199,18,261.0938,17.7035,261.0938,18.5338,251.2822,17.505,241.4706,17.9315,231.659,18.7416,221.8474,17.9513,212.0358,18.1053,202.2243,18.3386,192.4127,18.4162,182.6011,17.9961,172.7895,18.2872,162.9779,17.4276,153.1664,18.2844,143.3548,18.5482,133.5432,18.4445,123.7316,18.613,113.92,17.5169,104.1085,18,94.2969" style="stroke:#383838;stroke-width:1.0;"/><polygon fill="#FFFFFF" points="482,115.4297,482,115.4997,484,115.2916,486,115.4941,488,115.5629,490,115.1919,492,115.4297,491.9741,115.4297,491.8578,121.2563,491.8722,127.0828,491.9773,132.9094,491.7695,138.7359,492,144.5625,492,144.747,490,144.3524,488,144.4966,486,144.7065,484,144.5339,482,144.5625,482.0227,144.5625,481.9894,138.7359,482.0595,132.9094,482.0797,127.0828,482.1952,121.2563,482,115.4297" style="stroke:#383838;stroke-width:1.0;"/><polygon fill="#FFFFFF" points="482,173.6953,482,173.7654,484,173.5572,486,173.7597,488,173.8285,490,173.4575,492,173.6953,491.9741,173.6953,491.8578,179.5219,491.8722,185.3484,491.9773,191.175,491.7695,197.0016,492,202.8281,492,203.0127,490,202.618,488,202.7622,486,202.9721,484,202.7995,482,202.8281,482.0227,202.8281,481.9894,197.0016,482.0595,191.175,482.0797,185.3484,482.1952,179.5219,482,173.6953" style="stroke:#383838;stroke-width:1.0;"/><polygon fill="#FFFFFF" points="482,231.9609,482,232.031,484,231.8228,486,232.0254,488,232.0942,490,231.7231,492,231.9609,491.9741,231.9609,491.8578,237.7875,491.8722,243.6141,491.9773,249.4406,491.7695,255.2672,492,261.0938,492,261.2783,490,260.8837,488,261.0278,486,261.2377,484,261.0652,482,261.0938,482.0227,261.0938,481.9894,255.2672,482.0595,249.4406,482.0797,243.6141,482.1952,237.7875,482,231.9609" style="stroke:#383838;stroke-width:1.0;"/><polygon fill="#383838" points="470,111.4297,470.026,111.4947,471.9487,112.1015,474.0239,113.0895,476.0495,113.9534,477.9117,114.4089,480,115.4297,479.9904,115.4056,477.9472,116.0977,475.9525,116.911,473.9916,117.8086,471.9144,118.4157,470,119.4297,470.1305,119.5602,470.6514,118.4811,471.5534,117.7831,472.5018,117.1315,473.1798,116.2095,474,115.4297,474.0161,115.4458,473.1925,114.6222,472.4421,113.8718,471.6564,113.0861,470.938,112.3677,470,111.4297" style="stroke:#383838;stroke-width:1.0;"/><path d="M28,115.4297 L28,115.7099 L37.9556,114.8773 L47.9111,115.6874 L57.8667,115.9626 L67.8222,114.4785 L77.7778,115.3261 L87.7333,114.861 L97.6889,114.9184 L107.6444,115.3388 L117.6,114.5079 L127.5556,116.1679 L137.5111,114.5893 L147.4667,115.166 L157.4222,116.0056 L167.3778,115.3153 L177.3333,115.5207 L187.2889,115.3871 L197.2444,115.6677 L207.2,115.7485 L217.1556,116.2106 L227.1111,116.3244 L237.0667,116.3354 L247.0222,115.7692 L256.9778,116.0478 L266.9333,116.366 L276.8889,114.4681 L286.8444,116.3344 L296.8,115.0343 L306.7556,116.1414 L316.7111,114.7697 L326.6667,115.3384 L336.6222,116.4185 L346.5778,115.3647 L356.5333,115.5701 L366.4889,115.8812 L376.4444,115.9847 L386.4,115.4245 L396.3556,115.8126 L406.3111,114.6665 L416.2667,115.8089 L426.2222,116.1606 L436.1778,116.0224 L446.1333,116.2471 L456.0889,114.7856 L466.0444,114.5601 L476,115.4297 " fill="none" style="stroke:#383838;stroke-width:1.0;"/><text fill="#000000" font-family="FG Virgil" font-size="13" lengthAdjust="spacing" textLength="396" x="35" y="110.3638">pretende definir os niveis de criticidade e respetivos objetivos</text><polygon fill="#383838" points="39,140.5625,39.026,140.6275,36.9487,141.2343,35.0239,142.2223,33.0495,143.0862,30.9117,143.5417,29,144.5625,28.9904,144.5384,30.9472,145.2305,32.9525,146.0438,34.9916,146.9414,36.9144,147.5485,39,148.5625,39.1305,148.693,38.0514,147.6139,37.3534,146.9159,36.7018,146.2643,35.7798,145.3423,35,144.5625,35.0161,144.5786,35.7925,143.755,36.6421,143.0046,37.4564,142.2189,38.338,141.5005,39,140.5625" style="stroke:#383838;stroke-width:1.0;"/><path d="M33,144.5625 L33,144.8427 L43.0667,144.0101 L53.1333,144.8202 L63.2,145.0954 L73.2667,143.6113 L83.3333,144.4589 L93.4,143.9938 L103.4667,144.0512 L113.5333,144.4716 L123.6,143.6407 L133.6667,145.3007 L143.7333,143.7221 L153.8,144.2988 L163.8667,145.1384 L173.9333,144.4481 L184,144.6535 L194.0667,144.5199 L204.1333,144.8005 L214.2,144.8813 L224.2667,145.3434 L234.3333,145.4572 L244.4,145.4682 L254.4667,144.902 L264.5333,145.1806 L274.6,145.4988 L284.6667,143.6009 L294.7333,145.4672 L304.8,144.1672 L314.8667,145.2742 L324.9333,143.9025 L335,144.4712 L345.0667,145.5513 L355.1333,144.4975 L365.2,144.7029 L375.2667,145.014 L385.3333,145.1175 L395.4,144.5573 L405.4667,144.9455 L415.5333,143.7993 L425.6,144.9417 L435.6667,145.2934 L445.7333,145.1552 L455.8,145.3799 L465.8667,143.9184 L475.9333,143.6929 L486,144.5625 " fill="none" style="stroke:#383838;stroke-width:1.0;stroke-dasharray:2.0,2.0;"/><text fill="#000000" font-family="FG Virgil" font-size="13" lengthAdjust="spacing" textLength="185" x="45" y="139.4966">requisita niveis de criticidade</text><polygon fill="#383838" points="470,169.6953,470.026,169.7604,471.9487,170.3671,474.0239,171.3551,476.0495,172.219,477.9117,172.6745,480,173.6953,479.9904,173.6713,477.9472,174.3633,475.9525,175.1766,473.9916,176.0742,471.9144,176.6813,470,177.6953,470.1305,177.8258,470.6514,176.7468,471.5534,176.0487,472.5018,175.3971,473.1798,174.4751,474,173.6953,474.0161,173.7114,473.1925,172.8878,472.4421,172.1374,471.6564,171.3517,470.938,170.6334,470,169.6953" style="stroke:#383838;stroke-width:1.0;"/><path d="M28,173.6953 L28,173.9756 L37.9556,173.1429 L47.9111,173.953 L57.8667,174.2282 L67.8222,172.7441 L77.7778,173.5917 L87.7333,173.1267 L97.6889,173.184 L107.6444,173.6044 L117.6,172.7735 L127.5556,174.4335 L137.5111,172.8549 L147.4667,173.4316 L157.4222,174.2712 L167.3778,173.5809 L177.3333,173.7863 L187.2889,173.6527 L197.2444,173.9333 L207.2,174.0142 L217.1556,174.4762 L227.1111,174.5901 L237.0667,174.601 L247.0222,174.0348 L256.9778,174.3134 L266.9333,174.6316 L276.8889,172.7337 L286.8444,174.6 L296.8,173.3 L306.7556,174.4071 L316.7111,173.0353 L326.6667,173.604 L336.6222,174.6841 L346.5778,173.6303 L356.5333,173.8357 L366.4889,174.1468 L376.4444,174.2503 L386.4,173.6901 L396.3556,174.0783 L406.3111,172.9321 L416.2667,174.0745 L426.2222,174.4262 L436.1778,174.288 L446.1333,174.5127 L456.0889,173.0512 L466.0444,172.8257 L476,173.6953 " fill="none" style="stroke:#383838;stroke-width:1.0;"/><text fill="#000000" font-family="FG Virgil" font-size="13" lengthAdjust="spacing" textLength="172" x="35" y="168.6294">insere os dados solicitados</text><polygon fill="#383838" points="39,198.8281,39.026,198.8932,36.9487,199.4999,35.0239,200.4879,33.0495,201.3518,30.9117,201.8073,29,202.8281,28.9904,202.8041,30.9472,203.4961,32.9525,204.3094,34.9916,205.207,36.9144,205.8142,39,206.8281,39.1305,206.9586,38.0514,205.8796,37.3534,205.1815,36.7018,204.5299,35.7798,203.6079,35,202.8281,35.0161,202.8442,35.7925,202.0206,36.6421,201.2702,37.4564,200.4845,38.338,199.7662,39,198.8281" style="stroke:#383838;stroke-width:1.0;"/><path d="M33,202.8281 L33,203.1084 L43.0667,202.2757 L53.1333,203.0858 L63.2,203.361 L73.2667,201.8769 L83.3333,202.7245 L93.4,202.2595 L103.4667,202.3168 L113.5333,202.7372 L123.6,201.9063 L133.6667,203.5663 L143.7333,201.9878 L153.8,202.5644 L163.8667,203.4041 L173.9333,202.7138 L184,202.9191 L194.0667,202.7855 L204.1333,203.0662 L214.2,203.147 L224.2667,203.609 L234.3333,203.7229 L244.4,203.7338 L254.4667,203.1676 L264.5333,203.4462 L274.6,203.7644 L284.6667,201.8665 L294.7333,203.7328 L304.8,202.4328 L314.8667,203.5399 L324.9333,202.1681 L335,202.7368 L345.0667,203.8169 L355.1333,202.7631 L365.2,202.9685 L375.2667,203.2796 L385.3333,203.3831 L395.4,202.8229 L405.4667,203.2111 L415.5333,202.0649 L425.6,203.2073 L435.6667,203.5591 L445.7333,203.4208 L455.8,203.6455 L465.8667,202.184 L475.9333,201.9585 L486,202.8281 " fill="none" style="stroke:#383838;stroke-width:1.0;stroke-dasharray:2.0,2.0;"/><text fill="#000000" font-family="FG Virgil" font-size="13" lengthAdjust="spacing" textLength="430" x="45" y="197.7622">apresenta o conjunto de niveis de criticidade e solicita confirmação</text><polygon fill="#383838" points="470,227.9609,470.026,228.026,471.9487,228.6327,474.0239,229.6208,476.0495,230.4846,477.9117,230.9401,480,231.9609,479.9904,231.9369,477.9472,232.6289,475.9525,233.4422,473.9916,234.3398,471.9144,234.947,470,235.9609,470.1305,236.0914,470.6514,235.0124,471.5534,234.3143,472.5018,233.6627,473.1798,232.7407,474,231.9609,474.0161,231.977,473.1925,231.1534,472.4421,230.403,471.6564,229.6173,470.938,228.899,470,227.9609" style="stroke:#383838;stroke-width:1.0;"/><path d="M28,231.9609 L28,232.2412 L37.9556,231.4085 L47.9111,232.2187 L57.8667,232.4938 L67.8222,231.0097 L77.7778,231.8573 L87.7333,231.3923 L97.6889,231.4496 L107.6444,231.8701 L117.6,231.0391 L127.5556,232.6991 L137.5111,231.1206 L147.4667,231.6972 L157.4222,232.5369 L167.3778,231.8466 L177.3333,232.0519 L187.2889,231.9183 L197.2444,232.199 L207.2,232.2798 L217.1556,232.7419 L227.1111,232.8557 L237.0667,232.8666 L247.0222,232.3004 L256.9778,232.5791 L266.9333,232.8972 L276.8889,230.9994 L286.8444,232.8656 L296.8,231.5656 L306.7556,232.6727 L316.7111,231.3009 L326.6667,231.8696 L336.6222,232.9497 L346.5778,231.896 L356.5333,232.1013 L366.4889,232.4124 L376.4444,232.5159 L386.4,231.9557 L396.3556,232.3439 L406.3111,231.1977 L416.2667,232.3401 L426.2222,232.6919 L436.1778,232.5536 L446.1333,232.7783 L456.0889,231.3168 L466.0444,231.0914 L476,231.9609 " fill="none" style="stroke:#383838;stroke-width:1.0;"/><text fill="#000000" font-family="FG Virgil" font-size="13" lengthAdjust="spacing" textLength="121" x="35" y="226.895">confirma operação</text><polygon fill="#383838" points="34,257.0938,34.026,257.1588,31.9487,257.7655,30.0239,258.7536,28.0495,259.6174,25.9117,260.073,24,261.0938,23.9904,261.0697,25.9472,261.7618,27.9525,262.5751,29.9916,263.4727,31.9144,264.0798,34,265.0938,34.1305,265.2242,33.0514,264.1452,32.3534,263.4471,31.7018,262.7956,30.7798,261.8735,30,261.0938,30.0161,261.1098,30.7925,260.2862,31.6421,259.5358,32.4564,258.7501,33.338,258.0318,34,257.0938" style="stroke:#383838;stroke-width:1.0;"/><path d="M28,261.0938 L28,261.374 L37.9565,260.5413 L47.913,261.3515 L57.8696,261.6267 L67.8261,260.1426 L77.7826,260.9901 L87.7391,260.5251 L97.6957,260.5824 L107.6522,261.0029 L117.6087,260.1719 L127.5652,261.8319 L137.5217,260.2534 L147.4783,260.8301 L157.4348,261.6697 L167.3913,260.9794 L177.3478,261.1847 L187.3043,261.0512 L197.2609,261.3318 L207.2174,261.4126 L217.1739,261.8747 L227.1304,261.9885 L237.087,261.9994 L247.0435,261.4333 L257,261.7119 L266.9565,262.0301 L276.913,260.1322 L286.8696,261.9984 L296.8261,260.6984 L306.7826,261.8055 L316.7391,260.4337 L326.6957,261.0024 L336.6522,262.0826 L346.6087,261.0288 L356.5652,261.2342 L366.5217,261.5453 L376.4783,261.6487 L386.4348,261.0885 L396.3913,261.4767 L406.3478,260.3305 L416.3043,261.4729 L426.2609,261.8247 L436.2174,261.6865 L446.1739,261.9111 L456.1304,260.4496 L466.087,260.2242 L476.0435,260.2652 L486,261.0938 " fill="none" style="stroke:#383838;stroke-width:1.0;stroke-dasharray:2.0,2.0;"/><text fill="#000000" font-family="FG Virgil" font-size="13" lengthAdjust="spacing" textLength="190" x="40" y="256.0278">informa sucesso da operação</text><!--MD5=[3c07947540a6904503d03c25f4875808]
@startuml
'http://plantuml.com/skinparam.html
skinparam handwritten true
skinparam monochrome true
skinparam packageStyle rect
skinparam defaultFontName FG Virgil
skinparam shadowing false

actor GSH as Actor
participant System as System
activate Actor
Actor -> System: pretende definir os niveis de criticidade e respetivos objetivos
activate System
System - -> Actor: requisita niveis de criticidade
deactivate System
Actor -> System: insere os dados solicitados
activate System
System - -> Actor: apresenta o conjunto de niveis de criticidade e solicita confirmação
deactivate System
Actor -> System: confirma operação
activate System
System - -> Actor: informa sucesso da operação
deactivate System
deactivate Actor
@enduml

@startuml
skinparam handwritten true
skinparam monochrome true
skinparam packageStyle rect
skinparam defaultFontName FG Virgil
skinparam shadowing false

actor GSH as Actor
participant System as System
activate Actor
Actor -> System: pretende definir os niveis de criticidade e respetivos objetivos
activate System
System - -> Actor: requisita niveis de criticidade
deactivate System
Actor -> System: insere os dados solicitados
activate System
System - -> Actor: apresenta o conjunto de niveis de criticidade e solicita confirmação
deactivate System
Actor -> System: confirma operação
activate System
System - -> Actor: informa sucesso da operação
deactivate System
deactivate Actor
@enduml

PlantUML version 1.2021.6beta4(Unknown compile time)
(GPL source distribution)
Java Runtime: Java(TM) SE Runtime Environment
JVM: Java HotSpot(TM) 64-Bit Server VM
Default Encoding: UTF-8
Language: en
Country: US
--></g></svg>