<?xml version="1.0" encoding="UTF-8" standalone="no"?><svg xmlns="http://www.w3.org/2000/svg" xmlns:xlink="http://www.w3.org/1999/xlink" contentScriptType="application/ecmascript" contentStyleType="text/css" height="436px" preserveAspectRatio="none" style="width:278px;height:436px;background:#FFFFFF;" version="1.1" viewBox="0 0 278 436" width="278px" zoomAndPan="magnify"><defs/><g><!--MD5=[361faed531b494408a689e3055967198]
class CumprimentoSlaUI--><polygon fill="#F8F8F8" points="66,7,66,7.2102,75.7333,6.5857,85.4667,7.1933,95.2,7.3997,104.9333,6.2866,114.6667,6.9223,124.4,6.5735,134.1333,6.6165,143.8667,6.9318,153.6,6.3086,163.3333,7.5536,173.0667,6.3697,182.8,6.8022,192.5333,7.4319,202.2667,6.9142,212,7,212.0682,7,211.9681,16.5346,212.1785,26.0692,212.2391,35.6038,212.5857,45.1384,212.6711,54.673,212.6793,64.2076,212,73.7422,212,73.9968,202.2667,74.2058,192.5333,74.4444,182.8,73.021,173.0667,74.4207,163.3333,73.4457,153.6,74.276,143.8667,73.2472,134.1333,73.6737,124.4,74.4838,114.6667,73.6935,104.9333,73.8475,95.2,74.0808,85.4667,74.1584,75.7333,73.7383,66,73.7422,66.2872,73.7422,65.4276,64.2076,66.2844,54.673,66.5482,45.1384,66.4445,35.6038,66.613,26.0692,65.5169,16.5346,66,7" style="stroke:#383838;stroke-width:1.5;"/><polygon fill="#C2C2C2" points="92.0608,28.6444,90.4484,30.8475,88.5412,34.0745,85.8136,36.2491,82.9474,37.4384,80.662,37.5416,77.7247,36.0543,74.9532,35.0827,72.8495,33.1099,71.7461,30.8515,71.0917,29.0533,70.4506,26.7045,69.41,24.6832,70.2096,22.7098,70.9102,20.548,73.5393,18.8382,75.389,16.6198,77.6784,15.8832,80.4001,15.2488,83.8904,15.6257,85.8021,16.5273,88.0247,16.9359,90.7272,19.7047,91.6693,22.6277,92.0786,24.6221,91.615,27.9086" style="stroke:#383838;stroke-width:1.0;"/><path d="M83.9688,31.6094 Q83.3906,31.9063 82.75,32.0469 Q82.1094,32.2031 81.4063,32.2031 Q78.9063,32.2031 77.5781,30.5625 Q76.2656,28.9063 76.2656,25.7813 Q76.2656,22.6563 77.5781,21 Q78.9063,19.3438 81.4063,19.3438 Q82.1094,19.3438 82.75,19.5 Q83.4063,19.6563 83.9688,19.9531 L83.9688,22.6719 Q83.3438,22.0938 82.75,21.8281 Q82.1563,21.5469 81.5313,21.5469 Q80.1875,21.5469 79.5,22.625 Q78.8125,23.6875 78.8125,25.7813 Q78.8125,27.875 79.5,28.9531 Q80.1875,30.0156 81.5313,30.0156 Q82.1563,30.0156 82.75,29.75 Q83.3438,29.4688 83.9688,28.8906 L83.9688,31.6094 Z " fill="#000000"/><text fill="#000000" font-family="FG Virgil" font-size="12" font-style="italic" lengthAdjust="spacing" textLength="95" x="104.5" y="23.1387">«presentation»</text><text fill="#000000" font-family="FG Virgil" font-size="12" lengthAdjust="spacing" textLength="114" x="95" y="37.1074">CumprimentoSlaUI</text><path d="M67,44.9375 L67,45.2177 L77.2857,44.3851 L87.5714,45.1952 L97.8571,45.4704 L108.1429,43.9863 L118.4286,44.8339 L128.7143,44.3688 L139,44.4262 L149.2857,44.8466 L159.5714,44.0157 L169.8571,45.6757 L180.1429,44.0971 L190.4286,44.6738 L200.7143,45.5134 L211,44.9375 " fill="#F8F8F8" style="stroke:#383838;stroke-width:1.5;"/><path d="M67,52.9375 L67,53.2177 L77.2857,52.3851 L87.5714,53.1952 L97.8571,53.4704 L108.1429,51.9863 L118.4286,52.8339 L128.7143,52.3688 L139,52.4262 L149.2857,52.8466 L159.5714,52.0157 L169.8571,53.6757 L180.1429,52.0971 L190.4286,52.6738 L200.7143,53.5134 L211,52.9375 " fill="#F8F8F8" style="stroke:#383838;stroke-width:1.5;"/><text fill="#000000" font-family="FG Virgil" font-size="11" lengthAdjust="spacing" textLength="53" x="72" y="67.1479">doShow()</text><!--MD5=[454523666d8b727ce261ba78c78c05aa]
class CumprimentoSlaController--><polygon fill="#F8F8F8" points="7,134,7,134.2102,17.1538,133.5857,27.3077,134.1933,37.4615,134.3997,47.6154,133.2866,57.7692,133.9223,67.9231,133.5735,78.0769,133.6165,88.2308,133.9318,98.3846,133.3086,108.5385,134.5536,118.6923,133.3697,128.8462,133.8022,139,134.4319,149.1538,133.9142,159.3077,134.0682,169.4615,133.9681,179.6154,134.1785,189.7692,134.2391,199.9231,134.5857,210.0769,134.6711,220.2308,134.6793,230.3846,134.2546,240.5385,134.4636,250.6923,134.7022,260.8462,133.2788,271,134,271.6785,134,270.7035,143.8301,271.5338,153.6602,270.505,163.4902,270.9315,173.3203,271.7416,183.1504,270.9513,192.9805,271.1053,202.8105,271.3386,212.6406,271.4162,222.4707,270.9961,232.3008,271.2872,242.1309,271,251.9609,271,251.3885,260.8462,252.2453,250.6923,252.5091,240.5385,252.4055,230.3846,252.574,220.2308,251.4779,210.0769,251.3088,199.9231,251.3395,189.7692,251.9021,179.6154,251.7644,169.4615,252.6423,159.3077,251.7863,149.1538,251.6179,139,252.1892,128.8462,251.2941,118.6923,251.4418,108.5385,252.6099,98.3846,252.3966,88.2308,252.6954,78.0769,251.6391,67.9231,252.2801,57.7692,252.5514,47.6154,251.4885,37.4615,251.8651,27.3077,252.0869,17.1538,252.6127,7,251.9609,6.9958,251.9609,7.4626,242.1309,6.4462,232.3008,6.3227,222.4707,7.5036,212.6406,6.2831,202.8105,7.509,192.9805,7.2066,183.1504,6.7321,173.3203,6.6462,163.4902,7.4588,153.6602,6.7007,143.8301,7,134" style="stroke:#383838;stroke-width:1.5;"/><polygon fill="#C2C2C2" points="64.3108,155.6444,62.6984,157.8475,60.7912,161.0745,58.0636,163.2491,55.1974,164.4384,52.912,164.5416,49.9747,163.0543,47.2032,162.0827,45.0995,160.1099,43.9961,157.8515,43.3417,156.0533,42.7006,153.7045,41.66,151.6832,42.4596,149.7098,43.1602,147.548,45.7893,145.8382,47.639,143.6198,49.9284,142.8832,52.6501,142.2488,56.1404,142.6257,58.0521,143.5273,60.2747,143.9359,62.9772,146.7047,63.9193,149.6277,64.3286,151.6221,63.865,154.9086" style="stroke:#383838;stroke-width:1.0;"/><path d="M56.2188,158.6094 Q55.6406,158.9063 55,159.0469 Q54.3594,159.2031 53.6563,159.2031 Q51.1563,159.2031 49.8281,157.5625 Q48.5156,155.9063 48.5156,152.7813 Q48.5156,149.6563 49.8281,148 Q51.1563,146.3438 53.6563,146.3438 Q54.3594,146.3438 55,146.5 Q55.6563,146.6563 56.2188,146.9531 L56.2188,149.6719 Q55.5938,149.0938 55,148.8281 Q54.4063,148.5469 53.7813,148.5469 Q52.4375,148.5469 51.75,149.625 Q51.0625,150.6875 51.0625,152.7813 Q51.0625,154.875 51.75,155.9531 Q52.4375,157.0156 53.7813,157.0156 Q54.4063,157.0156 55,156.75 Q55.5938,156.4688 56.2188,155.8906 L56.2188,158.6094 Z " fill="#000000"/><text fill="#000000" font-family="FG Virgil" font-size="12" font-style="italic" lengthAdjust="spacing" textLength="83" x="113.75" y="150.1387">«application»</text><text fill="#000000" font-family="FG Virgil" font-size="12" lengthAdjust="spacing" textLength="163" x="73.75" y="164.1074">CumprimentoSlaController</text><path d="M8,171.9375 L8,172.2177 L18.0769,171.3851 L28.1538,172.1952 L38.2308,172.4704 L48.3077,170.9863 L58.3846,171.8339 L68.4615,171.3688 L78.5385,171.4262 L88.6154,171.8466 L98.6923,171.0157 L108.7692,172.6757 L118.8462,171.0971 L128.9231,171.6738 L139,172.5134 L149.0769,171.8231 L159.1538,172.0285 L169.2308,171.8949 L179.3077,172.1755 L189.3846,172.2563 L199.4615,172.7184 L209.5385,172.8322 L219.6154,172.8432 L229.6923,172.277 L239.7692,172.5556 L249.8462,172.8738 L259.9231,170.9759 L270,171.9375 " fill="#F8F8F8" style="stroke:#383838;stroke-width:1.5;"/><path d="M8,179.9375 L8,180.2177 L18.0769,179.3851 L28.1538,180.1952 L38.2308,180.4704 L48.3077,178.9863 L58.3846,179.8339 L68.4615,179.3688 L78.5385,179.4262 L88.6154,179.8466 L98.6923,179.0157 L108.7692,180.6757 L118.8462,179.0971 L128.9231,179.6738 L139,180.5134 L149.0769,179.8231 L159.1538,180.0285 L169.2308,179.8949 L179.3077,180.1755 L189.3846,180.2563 L199.4615,180.7184 L209.5385,180.8322 L219.6154,180.8432 L229.6923,180.277 L239.7692,180.5556 L249.8462,180.8738 L259.9231,178.9759 L270,179.9375 " fill="#F8F8F8" style="stroke:#383838;stroke-width:1.5;"/><text fill="#000000" font-family="FG Virgil" font-size="11" lengthAdjust="spacing" textLength="252" x="13" y="194.1479">getAllPedidoConcluido(calendar1, calendar2)</text><text fill="#000000" font-family="FG Virgil" font-size="11" lengthAdjust="spacing" textLength="178" x="13" y="206.9526">getTempoMaximoAprov(pedido)</text><text fill="#000000" font-family="FG Virgil" font-size="11" lengthAdjust="spacing" textLength="167" x="13" y="219.7573">getTempoMaximoRes(pedido)</text><text fill="#000000" font-family="FG Virgil" font-size="11" lengthAdjust="spacing" textLength="161" x="13" y="232.562">getTarefasDoPedido(pedido)</text><text fill="#000000" font-family="FG Virgil" font-size="11" lengthAdjust="spacing" textLength="168" x="13" y="245.3667">getTempoDaTarefa(atividade)</text><!--MD5=[9d9dca655b7d777fd61537967bcfba5b]
class PedidoRepository--><polygon fill="#F8F8F8" points="7,312,7,312.2102,17.1538,311.5857,27.3077,312.1933,37.4615,312.3997,47.6154,311.2866,57.7692,311.9223,67.9231,311.5735,78.0769,311.6165,88.2308,311.9318,98.3846,311.3086,108.5385,312.5536,118.6923,311.3697,128.8462,311.8022,139,312.4319,149.1538,311.9142,159.3077,312.0682,169.4615,311.9681,179.6154,312.1785,189.7692,312.2391,199.9231,312.5857,210.0769,312.6711,220.2308,312.6793,230.3846,312.2546,240.5385,312.4636,250.6923,312.7022,260.8462,311.2788,271,312,271.6785,312,270.7035,321.8301,271.5338,331.6602,270.505,341.4902,270.9315,351.3203,271.7416,361.1504,270.9513,370.9805,271.1053,380.8105,271.3386,390.6406,271.4162,400.4707,270.9961,410.3008,271.2872,420.1309,271,429.9609,271,429.3885,260.8462,430.2453,250.6923,430.5091,240.5385,430.4055,230.3846,430.574,220.2308,429.4779,210.0769,429.3088,199.9231,429.3395,189.7692,429.9021,179.6154,429.7644,169.4615,430.6423,159.3077,429.7863,149.1538,429.6179,139,430.1892,128.8462,429.2941,118.6923,429.4418,108.5385,430.6099,98.3846,430.3966,88.2308,430.6954,78.0769,429.6391,67.9231,430.2801,57.7692,430.5514,47.6154,429.4885,37.4615,429.8651,27.3077,430.0869,17.1538,430.6127,7,429.9609,6.9958,429.9609,7.4626,420.1309,6.4462,410.3008,6.3227,400.4707,7.5036,390.6406,6.2831,380.8105,7.509,370.9805,7.2066,361.1504,6.7321,351.3203,6.6462,341.4902,7.4588,331.6602,6.7007,321.8301,7,312" style="stroke:#383838;stroke-width:1.5;"/><polygon fill="#C2C2C2" points="91.3108,333.6444,89.6984,335.8475,87.7912,339.0745,85.0636,341.2491,82.1974,342.4384,79.912,342.5416,76.9747,341.0543,74.2032,340.0827,72.0995,338.1099,70.9961,335.8515,70.3417,334.0533,69.7006,331.7045,68.66,329.6832,69.4596,327.7098,70.1602,325.548,72.7893,323.8382,74.639,321.6198,76.9284,320.8832,79.6501,320.2488,83.1404,320.6257,85.0521,321.5273,87.2747,321.9359,89.9772,324.7047,90.9193,327.6277,91.3286,329.6221,90.865,332.9086" style="stroke:#383838;stroke-width:1.0;"/><path d="M83.2188,336.6094 Q82.6406,336.9063 82,337.0469 Q81.3594,337.2031 80.6563,337.2031 Q78.1563,337.2031 76.8281,335.5625 Q75.5156,333.9063 75.5156,330.7813 Q75.5156,327.6563 76.8281,326 Q78.1563,324.3438 80.6563,324.3438 Q81.3594,324.3438 82,324.5 Q82.6563,324.6563 83.2188,324.9531 L83.2188,327.6719 Q82.5938,327.0938 82,326.8281 Q81.4063,326.5469 80.7813,326.5469 Q79.4375,326.5469 78.75,327.625 Q78.0625,328.6875 78.0625,330.7813 Q78.0625,332.875 78.75,333.9531 Q79.4375,335.0156 80.7813,335.0156 Q81.4063,335.0156 82,334.75 Q82.5938,334.4688 83.2188,333.8906 L83.2188,336.6094 Z " fill="#000000"/><text fill="#000000" font-family="FG Virgil" font-size="12" font-style="italic" lengthAdjust="spacing" textLength="77" x="116.75" y="328.1387">«repository»</text><text fill="#000000" font-family="FG Virgil" font-size="12" lengthAdjust="spacing" textLength="109" x="100.75" y="342.1074">PedidoRepository</text><path d="M8,349.9375 L8,350.2177 L18.0769,349.3851 L28.1538,350.1952 L38.2308,350.4704 L48.3077,348.9863 L58.3846,349.8339 L68.4615,349.3688 L78.5385,349.4262 L88.6154,349.8466 L98.6923,349.0157 L108.7692,350.6757 L118.8462,349.0971 L128.9231,349.6738 L139,350.5134 L149.0769,349.8231 L159.1538,350.0285 L169.2308,349.8949 L179.3077,350.1755 L189.3846,350.2563 L199.4615,350.7184 L209.5385,350.8322 L219.6154,350.8432 L229.6923,350.277 L239.7692,350.5556 L249.8462,350.8738 L259.9231,348.9759 L270,349.9375 " fill="#F8F8F8" style="stroke:#383838;stroke-width:1.5;"/><path d="M8,357.9375 L8,358.2177 L18.0769,357.3851 L28.1538,358.1952 L38.2308,358.4704 L48.3077,356.9863 L58.3846,357.8339 L68.4615,357.3688 L78.5385,357.4262 L88.6154,357.8466 L98.6923,357.0157 L108.7692,358.6757 L118.8462,357.0971 L128.9231,357.6738 L139,358.5134 L149.0769,357.8231 L159.1538,358.0285 L169.2308,357.8949 L179.3077,358.1755 L189.3846,358.2563 L199.4615,358.7184 L209.5385,358.8322 L219.6154,358.8432 L229.6923,358.277 L239.7692,358.5556 L249.8462,358.8738 L259.9231,356.9759 L270,357.9375 " fill="#F8F8F8" style="stroke:#383838;stroke-width:1.5;"/><text fill="#000000" font-family="FG Virgil" font-size="11" lengthAdjust="spacing" textLength="252" x="13" y="372.1479">getAllPedidoConcluido(calendar1, calendar2)</text><text fill="#000000" font-family="FG Virgil" font-size="11" lengthAdjust="spacing" textLength="178" x="13" y="384.9526">getTempoMaximoAprov(pedido)</text><text fill="#000000" font-family="FG Virgil" font-size="11" lengthAdjust="spacing" textLength="167" x="13" y="397.7573">getTempoMaximoRes(pedido)</text><text fill="#000000" font-family="FG Virgil" font-size="11" lengthAdjust="spacing" textLength="161" x="13" y="410.562">getTarefasDoPedido(pedido)</text><text fill="#000000" font-family="FG Virgil" font-size="11" lengthAdjust="spacing" textLength="168" x="13" y="423.3667">getTempoDaTarefa(atividade)</text><!--MD5=[7caae71c68527f9d2e5b12bea6e1d892]
link CumprimentoSlaUI to CumprimentoSlaController--><path d="M139,74.3447 L139.2802,74.3447 L138.4476,85.1831 L139.2577,96.0215 L139.5329,106.86 L138.0488,117.6984 L139,128.5368 " fill="none" style="stroke:#383838;stroke-width:1.0;"/><polygon fill="#383838" points="139,133.7632,139.064,133.7917,139.6738,131.9071,140.6589,130.1894,141.5217,128.4173,141.9827,126.4666,143,124.7632,142.9817,124.7449,142.0995,125.4627,141.3096,126.2728,140.5839,127.1471,139.637,127.8002,139,128.7632,139.1305,128.8937,138.0514,127.8146,137.3534,127.1166,136.7018,126.465,135.7798,125.543,135,124.7632,135.0208,124.7724,135.7903,126.5589,136.6544,128.3874,137.4728,130.1956,138.3784,132.0425,139,133.7632" style="stroke:#383838;stroke-width:1.0;"/><!--MD5=[c039f80278fd4111893536527bb2b05a]
link CumprimentoSlaController to PedidoRepository--><path d="M139,252.2714 L139.2802,252.2714 L138.4476,263.1244 L139.2577,273.9774 L139.5329,284.8303 L138.0488,295.6833 L139,306.5363 " fill="none" style="stroke:#383838;stroke-width:1.0;"/><polygon fill="#383838" points="139,311.9874,139.064,312.0159,139.6738,310.1313,140.6589,308.4136,141.5217,306.6415,141.9827,304.6908,143,302.9874,142.9817,302.9691,142.0995,303.6869,141.3096,304.497,140.5839,305.3713,139.637,306.0244,139,306.9874,139.1305,307.1179,138.0514,306.0388,137.3534,305.3408,136.7018,304.6892,135.7798,303.7672,135,302.9874,135.0208,302.9966,135.7903,304.7831,136.6544,306.6116,137.4728,308.4198,138.3784,310.2667,139,311.9874" style="stroke:#383838;stroke-width:1.0;"/><!--MD5=[22774af53d9e767c3bda5186a993840f]
@startuml
'http://plantuml.com/skinparam.html
skinparam handwritten true
skinparam monochrome true
skinparam packageStyle rect
skinparam defaultFontName FG Virgil
skinparam shadowing false

class CumprimentoSlaUI <<presentation>>
class CumprimentoSlaController <<application>>
class PedidoRepository <<repository>>

CumprimentoSlaUI - -> CumprimentoSlaController
CumprimentoSlaUI : doShow()

CumprimentoSlaController : getAllPedidoConcluido(calendar1, calendar2)
CumprimentoSlaController : getTempoMaximoAprov(pedido)
CumprimentoSlaController : getTempoMaximoRes(pedido)
CumprimentoSlaController : getTarefasDoPedido(pedido)
CumprimentoSlaController : getTempoDaTarefa(atividade)

CumprimentoSlaController - -> PedidoRepository

PedidoRepository : getAllPedidoConcluido(calendar1, calendar2)
PedidoRepository : getTempoMaximoAprov(pedido)
PedidoRepository : getTempoMaximoRes(pedido)
PedidoRepository : getTarefasDoPedido(pedido)
PedidoRepository : getTempoDaTarefa(atividade)
@enduml

@startuml
skinparam handwritten true
skinparam monochrome true
skinparam packageStyle rect
skinparam defaultFontName FG Virgil
skinparam shadowing false

class CumprimentoSlaUI <<presentation>>
class CumprimentoSlaController <<application>>
class PedidoRepository <<repository>>

CumprimentoSlaUI - -> CumprimentoSlaController
CumprimentoSlaUI : doShow()

CumprimentoSlaController : getAllPedidoConcluido(calendar1, calendar2)
CumprimentoSlaController : getTempoMaximoAprov(pedido)
CumprimentoSlaController : getTempoMaximoRes(pedido)
CumprimentoSlaController : getTarefasDoPedido(pedido)
CumprimentoSlaController : getTempoDaTarefa(atividade)

CumprimentoSlaController - -> PedidoRepository

PedidoRepository : getAllPedidoConcluido(calendar1, calendar2)
PedidoRepository : getTempoMaximoAprov(pedido)
PedidoRepository : getTempoMaximoRes(pedido)
PedidoRepository : getTarefasDoPedido(pedido)
PedidoRepository : getTempoDaTarefa(atividade)
@enduml

PlantUML version 1.2021.7(Sun May 23 12:40:07 UTC 2021)
(GPL source distribution)
Java Runtime: OpenJDK Runtime Environment
JVM: OpenJDK 64-Bit Server VM
Default Encoding: UTF-8
Language: en
Country: US
--></g></svg>