<?xml version="1.0" encoding="UTF-8" standalone="no"?><svg xmlns="http://www.w3.org/2000/svg" xmlns:xlink="http://www.w3.org/1999/xlink" contentScriptType="application/ecmascript" contentStyleType="text/css" height="436px" preserveAspectRatio="none" style="width:209px;height:436px;background:#FFFFFF;" version="1.1" viewBox="0 0 209 436" width="209px" zoomAndPan="magnify"><defs/><g><!--MD5=[361faed531b494408a689e3055967198]
class CumprimentoSlaUI--><polygon fill="#F8F8F8" points="31.5,7,31.5,7.2102,41.2333,6.5857,50.9667,7.1933,60.7,7.3997,70.4333,6.2866,80.1667,6.9223,89.9,6.5735,99.6333,6.6165,109.3667,6.9318,119.1,6.3086,128.8333,7.5536,138.5667,6.3697,148.3,6.8022,158.0333,7.4319,167.7667,6.9142,177.5,7,177.5682,7,177.4681,16.5346,177.6785,26.0692,177.7391,35.6038,178.0857,45.1384,178.1711,54.673,178.1793,64.2076,177.5,73.7422,177.5,73.9968,167.7667,74.2058,158.0333,74.4444,148.3,73.021,138.5667,74.4207,128.8333,73.4457,119.1,74.276,109.3667,73.2472,99.6333,73.6737,89.9,74.4838,80.1667,73.6935,70.4333,73.8475,60.7,74.0808,50.9667,74.1584,41.2333,73.7383,31.5,73.7422,31.7872,73.7422,30.9276,64.2076,31.7844,54.673,32.0482,45.1384,31.9445,35.6038,32.113,26.0692,31.0169,16.5346,31.5,7" style="stroke:#383838;stroke-width:1.5;"/><polygon fill="#C2C2C2" points="57.5608,28.6444,55.9484,30.8475,54.0412,34.0745,51.3136,36.2491,48.4474,37.4384,46.162,37.5416,43.2247,36.0543,40.4532,35.0827,38.3495,33.1099,37.2461,30.8515,36.5917,29.0533,35.9506,26.7045,34.91,24.6832,35.7096,22.7098,36.4102,20.548,39.0393,18.8382,40.889,16.6198,43.1784,15.8832,45.9001,15.2488,49.3904,15.6257,51.3021,16.5273,53.5247,16.9359,56.2272,19.7047,57.1693,22.6277,57.5786,24.6221,57.115,27.9086" style="stroke:#383838;stroke-width:1.0;"/><path d="M49.4688,31.6094 Q48.8906,31.9063 48.25,32.0469 Q47.6094,32.2031 46.9063,32.2031 Q44.4063,32.2031 43.0781,30.5625 Q41.7656,28.9063 41.7656,25.7813 Q41.7656,22.6563 43.0781,21 Q44.4063,19.3438 46.9063,19.3438 Q47.6094,19.3438 48.25,19.5 Q48.9063,19.6563 49.4688,19.9531 L49.4688,22.6719 Q48.8438,22.0938 48.25,21.8281 Q47.6563,21.5469 47.0313,21.5469 Q45.6875,21.5469 45,22.625 Q44.3125,23.6875 44.3125,25.7813 Q44.3125,27.875 45,28.9531 Q45.6875,30.0156 47.0313,30.0156 Q47.6563,30.0156 48.25,29.75 Q48.8438,29.4688 49.4688,28.8906 L49.4688,31.6094 Z " fill="#000000"/><text fill="#000000" font-family="FG Virgil" font-size="12" font-style="italic" lengthAdjust="spacing" textLength="95" x="70" y="23.1387">«presentation»</text><text fill="#000000" font-family="FG Virgil" font-size="12" lengthAdjust="spacing" textLength="114" x="60.5" y="37.1074">CumprimentoSlaUI</text><path d="M32.5,44.9375 L32.5,45.2177 L42.7857,44.3851 L53.0714,45.1952 L63.3571,45.4704 L73.6429,43.9863 L83.9286,44.8339 L94.2143,44.3688 L104.5,44.4262 L114.7857,44.8466 L125.0714,44.0157 L135.3571,45.6757 L145.6429,44.0971 L155.9286,44.6738 L166.2143,45.5134 L176.5,44.9375 " fill="#F8F8F8" style="stroke:#383838;stroke-width:1.5;"/><path d="M32.5,52.9375 L32.5,53.2177 L42.7857,52.3851 L53.0714,53.1952 L63.3571,53.4704 L73.6429,51.9863 L83.9286,52.8339 L94.2143,52.3688 L104.5,52.4262 L114.7857,52.8466 L125.0714,52.0157 L135.3571,53.6757 L145.6429,52.0971 L155.9286,52.6738 L166.2143,53.5134 L176.5,52.9375 " fill="#F8F8F8" style="stroke:#383838;stroke-width:1.5;"/><text fill="#000000" font-family="FG Virgil" font-size="11" lengthAdjust="spacing" textLength="53" x="37.5" y="67.1479">doShow()</text><!--MD5=[454523666d8b727ce261ba78c78c05aa]
class CumprimentoSlaController--><polygon fill="#F8F8F8" points="7,134,7,134.2102,16.75,133.5857,26.5,134.1933,36.25,134.3997,46,133.2866,55.75,133.9223,65.5,133.5735,75.25,133.6165,85,133.9318,94.75,133.3086,104.5,134.5536,114.25,133.3697,124,133.8022,133.75,134.4319,143.5,133.9142,153.25,134.0682,163,133.9681,172.75,134.1785,182.5,134.2391,192.25,134.5857,202,134,202.6711,134,202.6793,143.8301,202.2546,153.6602,202.4636,163.4902,202.7022,173.3203,201.2788,183.1504,202.6785,192.9805,201.7035,202.8105,202.5338,212.6406,201.505,222.4707,201.9315,232.3008,202.7416,242.1309,202,251.9609,202,251.9122,192.25,252.0662,182.5,252.2996,172.75,252.3772,163,251.957,153.25,252.2482,143.5,251.3885,133.75,252.2453,124,252.5091,114.25,252.4055,104.5,252.574,94.75,251.4779,85,251.3088,75.25,251.3395,65.5,251.9021,55.75,251.7644,46,252.6423,36.25,251.7863,26.5,251.6179,16.75,252.1892,7,251.9609,6.3332,251.9609,6.4809,242.1309,7.649,232.3008,7.4357,222.4707,7.7345,212.6406,6.6782,202.8105,7.3192,192.9805,7.5904,183.1504,6.5276,173.3203,6.9041,163.4902,7.126,153.6602,7.6518,143.8301,7,134" style="stroke:#383838;stroke-width:1.5;"/><polygon fill="#C2C2C2" points="33.0608,155.6444,31.4484,157.8475,29.5412,161.0745,26.8136,163.2491,23.9474,164.4384,21.662,164.5416,18.7247,163.0543,15.9532,162.0827,13.8495,160.1099,12.7461,157.8515,12.0917,156.0533,11.4506,153.7045,10.41,151.6832,11.2096,149.7098,11.9102,147.548,14.5393,145.8382,16.389,143.6198,18.6784,142.8832,21.4001,142.2488,24.8904,142.6257,26.8021,143.5273,29.0247,143.9359,31.7272,146.7047,32.6693,149.6277,33.0786,151.6221,32.615,154.9086" style="stroke:#383838;stroke-width:1.0;"/><path d="M24.9688,158.6094 Q24.3906,158.9063 23.75,159.0469 Q23.1094,159.2031 22.4063,159.2031 Q19.9063,159.2031 18.5781,157.5625 Q17.2656,155.9063 17.2656,152.7813 Q17.2656,149.6563 18.5781,148 Q19.9063,146.3438 22.4063,146.3438 Q23.1094,146.3438 23.75,146.5 Q24.4063,146.6563 24.9688,146.9531 L24.9688,149.6719 Q24.3438,149.0938 23.75,148.8281 Q23.1563,148.5469 22.5313,148.5469 Q21.1875,148.5469 20.5,149.625 Q19.8125,150.6875 19.8125,152.7813 Q19.8125,154.875 20.5,155.9531 Q21.1875,157.0156 22.5313,157.0156 Q23.1563,157.0156 23.75,156.75 Q24.3438,156.4688 24.9688,155.8906 L24.9688,158.6094 Z " fill="#000000"/><text fill="#000000" font-family="FG Virgil" font-size="12" font-style="italic" lengthAdjust="spacing" textLength="83" x="76" y="150.1387">«application»</text><text fill="#000000" font-family="FG Virgil" font-size="12" lengthAdjust="spacing" textLength="163" x="36" y="164.1074">CumprimentoSlaController</text><path d="M8,171.9375 L8,172.2177 L18.1579,171.3851 L28.3158,172.1952 L38.4737,172.4704 L48.6316,170.9863 L58.7895,171.8339 L68.9474,171.3688 L79.1053,171.4262 L89.2632,171.8466 L99.4211,171.0157 L109.5789,172.6757 L119.7368,171.0971 L129.8947,171.6738 L140.0526,172.5134 L150.2105,171.8231 L160.3684,172.0285 L170.5263,171.8949 L180.6842,172.1755 L190.8421,172.2563 L201,171.9375 " fill="#F8F8F8" style="stroke:#383838;stroke-width:1.5;"/><path d="M8,179.9375 L8,180.2177 L18.1579,179.3851 L28.3158,180.1952 L38.4737,180.4704 L48.6316,178.9863 L58.7895,179.8339 L68.9474,179.3688 L79.1053,179.4262 L89.2632,179.8466 L99.4211,179.0157 L109.5789,180.6757 L119.7368,179.0971 L129.8947,179.6738 L140.0526,180.5134 L150.2105,179.8231 L160.3684,180.0285 L170.5263,179.8949 L180.6842,180.1755 L190.8421,180.2563 L201,179.9375 " fill="#F8F8F8" style="stroke:#383838;stroke-width:1.5;"/><text fill="#000000" font-family="FG Virgil" font-size="11" lengthAdjust="spacing" textLength="132" x="13" y="194.1479">getAllPedidoConcluido()</text><text fill="#000000" font-family="FG Virgil" font-size="11" lengthAdjust="spacing" textLength="178" x="13" y="206.9526">getTempoMaximoAprov(pedido)</text><text fill="#000000" font-family="FG Virgil" font-size="11" lengthAdjust="spacing" textLength="167" x="13" y="219.7573">getTempoMaximoRes(pedido)</text><text fill="#000000" font-family="FG Virgil" font-size="11" lengthAdjust="spacing" textLength="161" x="13" y="232.562">getTarefasDoPedido(pedido)</text><text fill="#000000" font-family="FG Virgil" font-size="11" lengthAdjust="spacing" textLength="168" x="13" y="245.3667">getTempoDaTarefa(atividade)</text><!--MD5=[9d9dca655b7d777fd61537967bcfba5b]
class PedidoRepository--><polygon fill="#F8F8F8" points="9.5,312,9.5,312.2102,19.5,311.5857,29.5,312.1933,39.5,312.3997,49.5,311.2866,59.5,311.9223,69.5,311.5735,79.5,311.6165,89.5,311.9318,99.5,311.3086,109.5,312.5536,119.5,311.3697,129.5,311.8022,139.5,312.4319,149.5,311.9142,159.5,312.0682,169.5,311.9681,179.5,312.1785,189.5,312.2391,199.5,312,200.0857,312,200.1711,321.8301,200.1793,331.6602,199.7546,341.4902,199.9636,351.3203,200.2022,361.1504,198.7788,370.9805,200.1785,380.8105,199.2035,390.6406,200.0338,400.4707,199.005,410.3008,199.4315,420.1309,199.5,429.9609,199.5,430.7025,189.5,429.9122,179.5,430.0662,169.5,430.2996,159.5,430.3772,149.5,429.957,139.5,430.2482,129.5,429.3885,119.5,430.2453,109.5,430.5091,99.5,430.4055,89.5,430.574,79.5,429.4779,69.5,429.3088,59.5,429.3395,49.5,429.9021,39.5,429.7644,29.5,430.6423,19.5,429.7863,9.5,429.9609,9.1569,429.9609,9.7283,420.1309,8.8332,410.3008,8.9809,400.4707,10.149,390.6406,9.9357,380.8105,10.2345,370.9805,9.1782,361.1504,9.8192,351.3203,10.0904,341.4902,9.0276,331.6602,9.4041,321.8301,9.5,312" style="stroke:#383838;stroke-width:1.5;"/><polygon fill="#C2C2C2" points="57.6108,333.6444,55.9984,335.8475,54.0912,339.0745,51.3636,341.2491,48.4974,342.4384,46.212,342.5416,43.2747,341.0543,40.5032,340.0827,38.3995,338.1099,37.2961,335.8515,36.6417,334.0533,36.0006,331.7045,34.96,329.6832,35.7596,327.7098,36.4602,325.548,39.0893,323.8382,40.939,321.6198,43.2284,320.8832,45.9501,320.2488,49.4404,320.6257,51.3521,321.5273,53.5747,321.9359,56.2772,324.7047,57.2193,327.6277,57.6286,329.6221,57.165,332.9086" style="stroke:#383838;stroke-width:1.0;"/><path d="M49.5188,336.6094 Q48.9406,336.9063 48.3,337.0469 Q47.6594,337.2031 46.9563,337.2031 Q44.4563,337.2031 43.1281,335.5625 Q41.8156,333.9063 41.8156,330.7813 Q41.8156,327.6563 43.1281,326 Q44.4563,324.3438 46.9563,324.3438 Q47.6594,324.3438 48.3,324.5 Q48.9563,324.6563 49.5188,324.9531 L49.5188,327.6719 Q48.8938,327.0938 48.3,326.8281 Q47.7063,326.5469 47.0813,326.5469 Q45.7375,326.5469 45.05,327.625 Q44.3625,328.6875 44.3625,330.7813 Q44.3625,332.875 45.05,333.9531 Q45.7375,335.0156 47.0813,335.0156 Q47.7063,335.0156 48.3,334.75 Q48.8938,334.4688 49.5188,333.8906 L49.5188,336.6094 Z " fill="#000000"/><text fill="#000000" font-family="FG Virgil" font-size="12" font-style="italic" lengthAdjust="spacing" textLength="77" x="81.45" y="328.1387">«repository»</text><text fill="#000000" font-family="FG Virgil" font-size="12" lengthAdjust="spacing" textLength="109" x="65.45" y="342.1074">PedidoRepository</text><path d="M10.5,349.9375 L10.5,350.2177 L20.3947,349.3851 L30.2895,350.1952 L40.1842,350.4704 L50.0789,348.9863 L59.9737,349.8339 L69.8684,349.3688 L79.7632,349.4262 L89.6579,349.8466 L99.5526,349.0157 L109.4474,350.6757 L119.3421,349.0971 L129.2368,349.6738 L139.1316,350.5134 L149.0263,349.8231 L158.9211,350.0285 L168.8158,349.8949 L178.7105,350.1755 L188.6053,350.2563 L198.5,349.9375 " fill="#F8F8F8" style="stroke:#383838;stroke-width:1.5;"/><path d="M10.5,357.9375 L10.5,358.2177 L20.3947,357.3851 L30.2895,358.1952 L40.1842,358.4704 L50.0789,356.9863 L59.9737,357.8339 L69.8684,357.3688 L79.7632,357.4262 L89.6579,357.8466 L99.5526,357.0157 L109.4474,358.6757 L119.3421,357.0971 L129.2368,357.6738 L139.1316,358.5134 L149.0263,357.8231 L158.9211,358.0285 L168.8158,357.8949 L178.7105,358.1755 L188.6053,358.2563 L198.5,357.9375 " fill="#F8F8F8" style="stroke:#383838;stroke-width:1.5;"/><text fill="#000000" font-family="FG Virgil" font-size="11" lengthAdjust="spacing" textLength="132" x="15.5" y="372.1479">getAllPedidoConcluido()</text><text fill="#000000" font-family="FG Virgil" font-size="11" lengthAdjust="spacing" textLength="178" x="15.5" y="384.9526">getTempoMaximoAprov(pedido)</text><text fill="#000000" font-family="FG Virgil" font-size="11" lengthAdjust="spacing" textLength="167" x="15.5" y="397.7573">getTempoMaximoRes(pedido)</text><text fill="#000000" font-family="FG Virgil" font-size="11" lengthAdjust="spacing" textLength="161" x="15.5" y="410.562">getTarefasDoPedido(pedido)</text><text fill="#000000" font-family="FG Virgil" font-size="11" lengthAdjust="spacing" textLength="168" x="15.5" y="423.3667">getTempoDaTarefa(atividade)</text><!--MD5=[7caae71c68527f9d2e5b12bea6e1d892]
link CumprimentoSlaUI to CumprimentoSlaController--><path d="M104.5,74.3447 L104.7802,74.3447 L103.9476,85.1831 L104.7577,96.0215 L105.0329,106.86 L103.5488,117.6984 L104.5,128.5368 " fill="none" style="stroke:#383838;stroke-width:1.0;"/><polygon fill="#383838" points="104.5,133.7632,104.564,133.7917,105.1738,131.9071,106.1589,130.1894,107.0217,128.4173,107.4827,126.4666,108.5,124.7632,108.4817,124.7449,107.5995,125.4627,106.8096,126.2728,106.0839,127.1471,105.137,127.8002,104.5,128.7632,104.6305,128.8937,103.5514,127.8146,102.8534,127.1166,102.2018,126.465,101.2798,125.543,100.5,124.7632,100.5208,124.7724,101.2903,126.5589,102.1544,128.3874,102.9728,130.1956,103.8784,132.0425,104.5,133.7632" style="stroke:#383838;stroke-width:1.0;"/><!--MD5=[c039f80278fd4111893536527bb2b05a]
link CumprimentoSlaController to PedidoRepository--><path d="M104.5,252.2714 L104.7802,252.2714 L103.9476,263.1244 L104.7577,273.9774 L105.0329,284.8303 L103.5488,295.6833 L104.5,306.5363 " fill="none" style="stroke:#383838;stroke-width:1.0;"/><polygon fill="#383838" points="104.5,311.9874,104.564,312.0159,105.1738,310.1313,106.1589,308.4136,107.0217,306.6415,107.4827,304.6908,108.5,302.9874,108.4817,302.9691,107.5995,303.6869,106.8096,304.497,106.0839,305.3713,105.137,306.0244,104.5,306.9874,104.6305,307.1179,103.5514,306.0388,102.8534,305.3408,102.2018,304.6892,101.2798,303.7672,100.5,302.9874,100.5208,302.9966,101.2903,304.7831,102.1544,306.6116,102.9728,308.4198,103.8784,310.2667,104.5,311.9874" style="stroke:#383838;stroke-width:1.0;"/><!--MD5=[be173f3073a8b335234c1b07abb74b45]
@startuml
'http://plantuml.com/skinparam.html
skinparam handwritten true
skinparam monochrome true
skinparam packageStyle rect
skinparam defaultFontName FG Virgil
skinparam shadowing false

class CumprimentoSlaUI <<presentation>>
class CumprimentoSlaController <<application>>
class PedidoRepository <<repository>>

CumprimentoSlaUI - -> CumprimentoSlaController
CumprimentoSlaUI : doShow()

CumprimentoSlaController : getAllPedidoConcluido()
CumprimentoSlaController : getTempoMaximoAprov(pedido)
CumprimentoSlaController : getTempoMaximoRes(pedido)
CumprimentoSlaController : getTarefasDoPedido(pedido)
CumprimentoSlaController : getTempoDaTarefa(atividade)

CumprimentoSlaController - -> PedidoRepository

PedidoRepository : getAllPedidoConcluido()
PedidoRepository : getTempoMaximoAprov(pedido)
PedidoRepository : getTempoMaximoRes(pedido)
PedidoRepository : getTarefasDoPedido(pedido)
PedidoRepository : getTempoDaTarefa(atividade)
@enduml

@startuml
skinparam handwritten true
skinparam monochrome true
skinparam packageStyle rect
skinparam defaultFontName FG Virgil
skinparam shadowing false

class CumprimentoSlaUI <<presentation>>
class CumprimentoSlaController <<application>>
class PedidoRepository <<repository>>

CumprimentoSlaUI - -> CumprimentoSlaController
CumprimentoSlaUI : doShow()

CumprimentoSlaController : getAllPedidoConcluido()
CumprimentoSlaController : getTempoMaximoAprov(pedido)
CumprimentoSlaController : getTempoMaximoRes(pedido)
CumprimentoSlaController : getTarefasDoPedido(pedido)
CumprimentoSlaController : getTempoDaTarefa(atividade)

CumprimentoSlaController - -> PedidoRepository

PedidoRepository : getAllPedidoConcluido()
PedidoRepository : getTempoMaximoAprov(pedido)
PedidoRepository : getTempoMaximoRes(pedido)
PedidoRepository : getTarefasDoPedido(pedido)
PedidoRepository : getTempoDaTarefa(atividade)
@enduml

PlantUML version 1.2021.7(Sun May 23 12:40:07 UTC 2021)
(GPL source distribution)
Java Runtime: OpenJDK Runtime Environment
JVM: OpenJDK 64-Bit Server VM
Default Encoding: UTF-8
Language: en
Country: US
--></g></svg>