<?xml version="1.0" encoding="UTF-8" standalone="no"?><svg xmlns="http://www.w3.org/2000/svg" xmlns:xlink="http://www.w3.org/1999/xlink" contentScriptType="application/ecmascript" contentStyleType="text/css" height="784px" preserveAspectRatio="none" style="width:800px;height:784px;background:#FFFFFF;" version="1.1" viewBox="0 0 800 784" width="800px" zoomAndPan="magnify"><defs/><g><polygon fill="#FFFFFF" points="113.5,93.5938,113.5,93.6638,115.5,93.4556,117.5,93.6582,119.5,93.727,121.5,93.356,123.5,93.5938,123.4223,93.5938,123.0735,103.527,123.1165,113.4602,123.4318,123.3934,122.8086,133.3266,124.0536,143.2598,122.8697,153.193,123.3022,163.1262,123.9319,173.0594,123.4142,182.9926,123.5682,192.9258,123.4681,202.859,123.6785,212.7922,123.7391,222.7254,124.0857,232.6586,124.1711,242.5918,124.1793,252.525,123.7546,262.4582,123.9636,272.3914,124.2022,282.3246,122.7788,292.2578,124.1785,302.191,123.2035,312.1242,124.0338,322.0574,123.005,331.9906,123.4315,341.9238,124.2416,351.857,123.4513,361.7902,123.6053,371.7234,123.8386,381.6566,123.9162,391.5898,123.4961,401.523,123.7872,411.4563,122.9276,421.3895,123.7844,431.3227,124.0482,441.2559,123.9445,451.1891,124.113,461.1223,123.0169,471.0555,122.8478,480.9887,122.8786,490.9219,123.4411,500.8551,123.3035,510.7883,124.1814,520.7215,123.3253,530.6547,123.1569,540.5879,123.7283,550.5211,122.8332,560.4543,122.9809,570.3875,124.149,580.3207,123.9357,590.2539,124.2345,600.1871,123.1782,610.1203,123.8192,620.0535,124.0904,629.9867,123.0276,639.9199,123.4041,649.8531,123.626,659.7863,124.1518,669.7195,123.4958,679.6527,123.5,689.5859,123.5,689.7401,121.5,689.4013,119.5,689.3602,117.5,689.7538,115.5,689.347,113.5,689.5859,114.009,689.5859,113.7066,679.6527,113.2321,669.7195,113.1462,659.7863,113.9588,649.8531,113.2007,639.9199,114.0919,629.9867,112.9473,620.0535,114.1174,610.1203,113.9843,600.1871,113.745,590.2539,113.5472,580.3207,114.2266,570.3875,114.1136,560.4543,113.6693,550.5211,113.7682,540.5879,113.3697,530.6547,114.2165,520.7215,113.6549,510.7883,113.6726,500.8551,112.8916,490.9219,113.0948,480.9887,114.0307,471.0555,113.9298,461.1223,113.4571,451.1891,113.1778,441.2559,113.2811,431.3227,112.8138,421.3895,113.9147,411.4563,114.2396,401.523,114.0264,391.5898,114.1949,381.6566,113.3633,371.7234,113.5872,361.7902,113.1124,351.857,113.784,341.9238,113.7468,331.9906,114.0524,322.0574,113.2703,312.1242,113.3656,302.191,113.9435,292.2578,114.0673,282.3246,112.9875,272.3914,113.3061,262.4582,113.6493,252.525,112.8892,242.5918,113.8534,232.6586,113.758,222.7254,113.3992,212.7922,113.6422,202.859,114.2287,192.9258,113.1871,182.9926,113.815,173.0594,113.7856,163.1262,113.6158,153.193,113.6409,143.2598,113.6135,133.3266,112.8758,123.3934,113.0992,113.4602,113.0385,103.527,113.5,93.5938" style="stroke:#383838;stroke-width:1.0;"/><polygon fill="#FFFFFF" points="347.5,207.125,347.5,207.1951,349.5,206.9869,351.5,207.1894,353.5,207.2582,355.5,206.8872,357.5,207.125,357.4223,207.125,357.0735,216.9805,357.1165,226.8359,357.4318,236.6914,356.8086,246.5469,358.0536,256.4023,357.5,266.2578,357.5,266.0477,355.5,266.1919,353.5,266.4018,351.5,266.2292,349.5,266.2806,347.5,266.2578,347.4681,266.2578,347.6785,256.4023,347.7391,246.5469,348.0857,236.6914,348.1711,226.8359,348.1793,216.9805,347.5,207.125" style="stroke:#383838;stroke-width:1.0;"/><polygon fill="#FFFFFF" points="347.5,319.5234,347.5,319.5935,349.5,319.3853,351.5,319.5879,353.5,319.6567,355.5,319.2856,357.5,319.5234,357.4223,319.5234,357.0735,329.3789,357.1165,339.2344,357.4318,349.0898,356.8086,358.9453,358.0536,368.8008,357.5,378.6563,357.5,378.4462,355.5,378.5903,353.5,378.8002,351.5,378.6277,349.5,378.679,347.5,378.6563,347.4681,378.6563,347.6785,368.8008,347.7391,358.9453,348.0857,349.0898,348.1711,339.2344,348.1793,329.3789,347.5,319.5234" style="stroke:#383838;stroke-width:1.0;"/><polygon fill="#FFFFFF" points="347.5,407.7891,347.5,407.8591,349.5,407.651,351.5,407.8535,353.5,407.9223,355.5,407.5513,357.5,407.7891,357.4223,407.7891,357.0735,417.6445,357.1165,427.5,357.4318,437.3555,356.8086,447.2109,358.0536,457.0664,357.5,466.9219,357.5,466.7118,355.5,466.856,353.5,467.0659,351.5,466.8933,349.5,466.9446,347.5,466.9219,347.4681,466.9219,347.6785,457.0664,347.7391,447.2109,348.0857,437.3555,348.1711,427.5,348.1793,417.6445,347.5,407.7891" style="stroke:#383838;stroke-width:1.0;"/><polygon fill="#FFFFFF" points="347.5,496.0547,347.5,496.1247,349.5,495.9166,351.5,496.1191,353.5,496.1879,355.5,495.8169,357.5,496.0547,357.4223,496.0547,357.0735,505.9102,357.1165,515.7656,357.4318,525.6211,356.8086,535.4766,358.0536,545.332,357.5,555.1875,357.5,554.9774,355.5,555.1216,353.5,555.3315,351.5,555.1589,349.5,555.2102,347.5,555.1875,347.4681,555.1875,347.6785,545.332,347.7391,535.4766,348.0857,525.6211,348.1711,515.7656,348.1793,505.9102,347.5,496.0547" style="stroke:#383838;stroke-width:1.0;"/><polygon fill="#FFFFFF" points="347.5,608.4531,347.5,608.5232,349.5,608.315,351.5,608.5176,353.5,608.5864,355.5,608.2153,357.5,608.4531,357.4223,608.4531,357.0735,618.3086,357.1165,628.1641,357.4318,638.0195,356.8086,647.875,358.0536,657.7305,357.5,667.5859,357.5,667.3758,355.5,667.52,353.5,667.7299,351.5,667.5573,349.5,667.6087,347.5,667.5859,347.4681,667.5859,347.6785,657.7305,347.7391,647.875,348.0857,638.0195,348.1711,628.1641,348.1793,618.3086,347.5,608.4531" style="stroke:#383838;stroke-width:1.0;"/><polygon fill="#FFFFFF" points="705.5,236.2578,705.5,236.3279,707.5,236.1197,709.5,236.3222,711.5,236.391,713.5,236.02,715.5,236.2578,715.4741,236.2578,715.3578,242.2578,715.3722,248.2578,715.4773,254.2578,715.2695,260.2578,715.5,266.2578,715.5,266.4424,713.5,266.0477,711.5,266.1919,709.5,266.4018,707.5,266.2292,705.5,266.2578,705.5227,266.2578,705.4894,260.2578,705.5595,254.2578,705.5797,248.2578,705.6952,242.2578,705.5,236.2578" style="stroke:#383838;stroke-width:1.0;"/><polygon fill="#FFFFFF" points="705.5,348.6563,705.5,348.7263,707.5,348.5181,709.5,348.7207,711.5,348.7895,713.5,348.4185,715.5,348.6563,715.4741,348.6563,715.3578,354.6563,715.3722,360.6563,715.4773,366.6563,715.2695,372.6563,715.5,378.6563,715.5,378.8408,713.5,378.4462,711.5,378.5903,709.5,378.8002,707.5,378.6277,705.5,378.6563,705.5227,378.6563,705.4894,372.6563,705.5595,366.6563,705.5797,360.6563,705.6952,354.6563,705.5,348.6563" style="stroke:#383838;stroke-width:1.0;"/><polygon fill="#FFFFFF" points="705.5,436.9219,705.5,436.9919,707.5,436.7838,709.5,436.9863,711.5,437.0551,713.5,436.6841,715.5,436.9219,715.4741,436.9219,715.3578,442.9219,715.3722,448.9219,715.4773,454.9219,715.2695,460.9219,715.5,466.9219,715.5,467.1064,713.5,466.7118,711.5,466.856,709.5,467.0659,707.5,466.8933,705.5,466.9219,705.5227,466.9219,705.4894,460.9219,705.5595,454.9219,705.5797,448.9219,705.6952,442.9219,705.5,436.9219" style="stroke:#383838;stroke-width:1.0;"/><polygon fill="#FFFFFF" points="705.5,525.1875,705.5,525.2576,707.5,525.0494,709.5,525.2519,711.5,525.3207,713.5,524.9497,715.5,525.1875,715.4741,525.1875,715.3578,531.1875,715.3722,537.1875,715.4773,543.1875,715.2695,549.1875,715.5,555.1875,715.5,555.372,713.5,554.9774,711.5,555.1216,709.5,555.3315,707.5,555.1589,705.5,555.1875,705.5227,555.1875,705.4894,549.1875,705.5595,543.1875,705.5797,537.1875,705.6952,531.1875,705.5,525.1875" style="stroke:#383838;stroke-width:1.0;"/><polygon fill="#FFFFFF" points="705.5,637.5859,705.5,637.656,707.5,637.4478,709.5,637.6504,711.5,637.7192,713.5,637.3481,715.5,637.5859,715.4741,637.5859,715.3578,643.5859,715.3722,649.5859,715.4773,655.5859,715.2695,661.5859,715.5,667.5859,715.5,667.7705,713.5,667.3758,711.5,667.52,709.5,667.7299,707.5,667.5573,705.5,667.5859,705.5227,667.5859,705.4894,661.5859,705.5595,655.5859,705.5797,649.5859,705.6952,643.5859,705.5,637.5859" style="stroke:#383838;stroke-width:1.0;"/><polygon fill="#FFFFFF" points="28,281.2578,28,281.468,37.9545,280.8435,47.9091,281.4511,57.8636,281.6575,67.8182,280.5444,77.7727,281.1801,87.7273,280.8313,97.6818,280.8743,107.6364,281.1897,117.5909,280.5664,127.5455,281.8115,137.5,280.6275,147.4545,281.06,157.4091,281.6898,167.3636,281.172,177.3182,281.3261,187.2727,281.2259,197.2273,281.4363,207.1818,281.4969,217.1364,281.8435,227.0909,281.9289,237.0455,281.9371,247,281.5124,256.9545,281.7214,266.9091,281.96,276.8636,280.5366,286.8182,281.9363,296.7727,280.9613,306.7273,281.7916,316.6818,280.7628,326.6364,281.1893,336.5909,281.9994,346.5455,281.2091,356.5,281.3631,366.4545,281.5964,376.4091,281.674,386.3636,281.2539,396.3182,281.545,406.2727,280.6854,416.2273,281.5422,426.1818,281.806,436.1364,281.7023,446.0909,281.8708,456.0455,280.7747,466,280.6056,475.9545,280.6364,485.9091,281.1989,495.8636,281.0613,505.8182,281.9392,515.7727,281.0831,525.7273,280.9148,535.6818,281.4861,545.6364,280.591,555.5909,280.7387,565.5455,281.9068,575.5,281.6935,585.4545,281.9923,595.4091,280.936,605.3636,281.577,615.3182,281.8482,625.2727,280.7854,635.2273,281.162,645.1818,281.3838,655.1364,281.9096,665.0909,281.2536,675.0455,281.7204,685,280.704,694.9545,280.5806,704.9091,281.7614,714.8636,280.5409,724.8182,281.7668,734.7727,281.4644,744.7273,280.9899,754.6818,280.904,764.6364,281.7166,774.5909,280.9585,784.5455,281.8497,794.5,281.2578,793.9473,281.2578,795.1174,291.291,794.9843,301.3242,794.745,311.3574,794.5472,321.3906,795.2266,331.4238,795.1136,341.457,794.6693,351.4902,794.7682,361.5234,794.3697,371.5566,795.2165,381.5898,794.6549,391.623,794.6726,401.6563,793.8916,411.6895,794.0948,421.7227,795.0307,431.7559,794.9298,441.7891,794.4571,451.8223,794.1778,461.8555,794.2811,471.8887,793.8138,481.9219,794.9147,491.9551,795.2396,501.9883,795.0264,512.0215,795.1949,522.0547,794.3633,532.0879,794.5872,542.1211,794.1124,552.1543,794.784,562.1875,794.7468,572.2207,795.0524,582.2539,794.2703,592.2871,794.3656,602.3203,794.9435,612.3535,795.0673,622.3867,793.9875,632.4199,794.3061,642.4531,794.6493,652.4863,793.8892,662.5195,794.8534,672.5527,794.5,682.5859,794.5,682.8439,784.5455,682.4852,774.5909,682.7282,764.6364,683.3146,754.6818,682.2731,744.7273,682.9009,734.7727,682.8716,724.8182,682.7017,714.8636,682.7269,704.9091,682.6994,694.9545,681.9618,685,682.1851,675.0455,682.1244,665.0909,682.6498,655.1364,682.6741,645.1818,682.7477,635.2273,682.295,625.2727,682.5184,615.3182,682.4657,605.3636,683.1628,595.4091,683.0125,585.4545,682.1004,575.5,682.513,565.5455,682.0087,555.5909,682.8743,545.6364,683.1944,535.6818,683.1305,525.7273,682.1504,515.7727,683.0499,505.8182,681.8431,495.8636,682.7861,485.9091,682.2866,475.9545,682.6827,466,682.8263,456.0455,683.058,446.0909,681.866,436.1364,683.0614,426.1818,682.7641,416.2273,682.9413,406.2727,683.3337,396.3182,682.5914,386.3636,682.7612,376.4091,682.7994,366.4545,682.7832,356.5,682.5851,346.5455,683.2966,336.5909,681.9762,326.6364,683.1512,316.6818,681.9619,306.7273,682.0456,296.7727,682.6259,286.8182,682.6142,276.8636,682.0931,266.9091,682.9997,256.9545,682.6948,247,683.3126,237.0455,683.253,227.0909,682.1377,217.1364,682.188,207.1818,682.4568,197.2273,682.9415,187.2727,682.9889,177.3182,682.8871,167.3636,682.244,157.4091,683.2223,147.4545,683.2197,137.5,682.5387,127.5455,682.3469,117.5909,682.1846,107.6364,682.3714,97.6818,682.7234,87.7273,682.5175,77.7727,682.1681,67.8182,683.0733,57.8636,682.127,47.9091,683.0883,37.9545,683.0132,28,682.5859,28.3719,682.5859,28.6925,672.5527,27.7541,662.5195,27.6994,652.4863,28.5189,642.4531,27.4031,632.4199,27.766,622.3867,28.1155,612.3535,28.0687,602.3203,27.6415,592.2871,27.957,582.2539,28.7446,572.2207,28.6485,562.1875,27.4037,552.1543,28.0785,542.1211,27.4861,532.0879,27.9737,522.0547,28.293,512.0215,28.4199,501.9883,27.3353,491.9551,28.4005,481.9219,28.0084,471.8887,27.4447,461.8555,27.5289,451.8223,28.3266,441.7891,28.2499,431.7559,27.9836,421.7227,27.3279,411.6895,28.6581,401.6563,27.6882,391.623,27.4719,381.5898,27.9327,371.5566,28.5897,361.5234,28.6154,351.4902,28.0351,341.457,27.8488,331.4238,28.1698,321.3906,28.1862,311.3574,27.4922,301.3242,28.414,291.291,28,281.2578" style="stroke:#000000;stroke-width:2.0;"/><polygon fill="#FFFFFF" points="38,570.1875,38,570.3977,47.9533,569.7732,57.9067,570.3808,67.86,570.5872,77.8133,569.4741,87.7667,570.1098,97.72,569.761,107.6733,569.804,117.6267,570.1193,127.58,569.4961,137.5333,570.7411,147.4867,569.5572,157.44,569.9897,167.3933,570.6194,177.3467,570.1017,187.3,570.2557,197.2533,570.1556,207.2067,570.366,217.16,570.4266,227.1133,570.7732,237.0667,570.8586,247.02,570.8668,256.9733,570.4421,266.9267,570.6511,276.88,570.8897,286.8333,569.4663,296.7867,570.866,306.74,569.891,316.6933,570.7213,326.6467,569.6925,336.6,570.119,346.5533,570.9291,356.5067,570.1388,366.46,570.2928,376.4133,570.5261,386.3667,570.6037,396.32,570.1836,406.2733,570.4747,416.2267,569.6151,426.18,570.4719,436.1333,570.7357,446.0867,570.632,456.04,570.8005,465.9933,569.7044,475.9467,569.5353,485.9,569.5661,495.8533,570.1286,505.8067,569.991,515.76,570.8689,525.7133,570.0128,535.6667,569.8444,545.62,570.4158,555.5733,569.5207,565.5267,569.6684,575.48,570.8365,585.4333,570.6232,595.3867,570.922,605.34,569.8657,615.2933,570.5067,625.2467,570.7779,635.2,569.7151,645.1533,570.0916,655.1067,570.3135,665.06,570.8393,675.0133,570.1833,684.9667,570.6501,694.92,569.6337,704.8733,569.5102,714.8267,570.6911,724.78,569.4706,734.7333,570.6965,744.6867,570.3941,754.64,569.9196,764.5933,569.8337,774.5467,570.6463,784.5,570.1875,784.2007,570.1875,785.0919,579.7692,783.9473,589.3509,785.1174,598.9325,784.9843,608.5142,784.745,618.0959,784.5472,627.6776,785.2266,637.2592,785.1136,646.8409,784.6693,656.4226,784.7682,666.0043,784.5,675.5859,784.5,675.4557,774.5467,676.3024,764.5933,675.7408,754.64,675.7585,744.6867,674.9776,734.7333,675.1807,724.78,676.1167,714.8267,676.0157,704.8733,675.543,694.92,675.2638,684.9667,675.367,675.0133,674.8998,665.06,676.0007,655.1067,676.3255,645.1533,676.1123,635.2,676.2809,625.2467,675.4492,615.2933,675.6732,605.34,675.1983,595.3867,675.87,585.4333,675.8327,575.48,676.1383,565.5267,675.3563,555.5733,675.4515,545.62,676.0294,535.6667,676.1533,525.7133,675.0734,515.76,675.3921,505.8067,675.7352,495.8533,674.9751,485.9,675.9393,475.9467,675.8439,465.9933,675.4852,456.04,675.7282,446.0867,676.3146,436.1333,675.2731,426.18,675.9009,416.2267,675.8716,406.2733,675.7017,396.32,675.7269,386.3667,675.6994,376.4133,674.9618,366.46,675.1851,356.5067,675.1244,346.5533,675.6498,336.6,675.6741,326.6467,675.7477,316.6933,675.295,306.74,675.5184,296.7867,675.4657,286.8333,676.1628,276.88,676.0125,266.9267,675.1004,256.9733,675.513,247.02,675.0087,237.0667,675.8743,227.1133,676.1944,217.16,676.1305,207.2067,675.1504,197.2533,676.0499,187.3,674.8431,177.3467,675.7861,167.3933,675.2866,157.44,675.6827,147.4867,675.8263,137.5333,676.058,127.58,674.866,117.6267,676.0614,107.6733,675.7641,97.72,675.9413,87.7667,676.3337,77.8133,675.5914,67.86,675.7612,57.9067,675.7994,47.9533,675.7832,38,675.5859,37.9992,675.5859,38.7107,666.0043,37.3903,656.4226,38.5653,646.8409,37.376,637.2592,37.4597,627.6776,38.04,618.0959,38.0283,608.5142,37.5072,598.9325,38.4137,589.3509,38.1089,579.7692,38,570.1875" style="stroke:#000000;stroke-width:2.0;"/><path d="M118,83.5938 L118.2802,83.5938 L117.4476,93.5291 L118.2577,103.4645 L118.5329,113.3998 L117.0488,123.3352 L117.8964,133.2705 L117.4313,143.2059 L117.4887,153.1413 L117.9091,163.0766 L117.0782,173.012 L118.7382,182.9473 L117.1596,192.8827 L117.7363,202.818 L118.5759,212.7534 L117.8856,222.6888 L118.091,232.6241 L117.9574,242.5595 L118.238,252.4948 L118.3188,262.4302 L118.7809,272.3655 L118.8947,282.3009 L118.9057,292.2363 L118.3395,302.1716 L118.6181,312.107 L118.9363,322.0423 L117.0384,331.9777 L118.9047,341.9131 L117.6047,351.8484 L118.7117,361.7838 L117.34,371.7191 L117.9087,381.6545 L118.9888,391.5898 L117.935,401.5252 L118.1404,411.4606 L118.4515,421.3959 L118.555,431.3313 L117.9948,441.2666 L118.383,451.202 L117.2368,461.1373 L118.3792,471.0727 L118.7309,481.0081 L118.5927,490.9434 L118.8174,500.8788 L117.3559,510.8141 L117.1304,520.7495 L117.1715,530.6849 L117.9215,540.6202 L117.738,550.5556 L118.9085,560.4909 L117.7671,570.4263 L117.5426,580.3616 L118.3044,590.297 L117.1109,600.2324 L117.3078,610.1677 L118.8653,620.1031 L118.5809,630.0384 L118.9793,639.9738 L117.5709,649.9091 L118.4256,659.8445 L118.7872,669.7799 L117.3701,679.7152 L117.8722,689.6506 L118,699.5859 " fill="none" style="stroke:#383838;stroke-width:1.0;stroke-dasharray:5.0,5.0;"/><path d="M352,83.5938 L352.2802,83.5938 L351.4476,93.5291 L352.2577,103.4645 L352.5329,113.3998 L351.0488,123.3352 L351.8964,133.2705 L351.4313,143.2059 L351.4887,153.1413 L351.9091,163.0766 L351.0782,173.012 L352.7382,182.9473 L351.1596,192.8827 L351.7363,202.818 L352.5759,212.7534 L351.8856,222.6888 L352.091,232.6241 L351.9574,242.5595 L352.238,252.4948 L352.3188,262.4302 L352.7809,272.3655 L352.8947,282.3009 L352.9057,292.2363 L352.3395,302.1716 L352.6181,312.107 L352.9363,322.0423 L351.0384,331.9777 L352.9047,341.9131 L351.6047,351.8484 L352.7117,361.7838 L351.34,371.7191 L351.9087,381.6545 L352.9888,391.5898 L351.935,401.5252 L352.1404,411.4606 L352.4515,421.3959 L352.555,431.3313 L351.9948,441.2666 L352.383,451.202 L351.2368,461.1373 L352.3792,471.0727 L352.7309,481.0081 L352.5927,490.9434 L352.8174,500.8788 L351.3559,510.8141 L351.1304,520.7495 L351.1715,530.6849 L351.9215,540.6202 L351.738,550.5556 L352.9085,560.4909 L351.7671,570.4263 L351.5426,580.3616 L352.3044,590.297 L351.1109,600.2324 L351.3078,610.1677 L352.8653,620.1031 L352.5809,630.0384 L352.9793,639.9738 L351.5709,649.9091 L352.4256,659.8445 L352.7872,669.7799 L351.3701,679.7152 L351.8722,689.6506 L352,699.5859 " fill="none" style="stroke:#383838;stroke-width:1.0;stroke-dasharray:5.0,5.0;"/><path d="M710.5,83.5938 L710.7802,83.5938 L709.9476,93.5291 L710.7577,103.4645 L711.0329,113.3998 L709.5488,123.3352 L710.3964,133.2705 L709.9313,143.2059 L709.9887,153.1413 L710.4091,163.0766 L709.5782,173.012 L711.2382,182.9473 L709.6596,192.8827 L710.2363,202.818 L711.0759,212.7534 L710.3856,222.6888 L710.591,232.6241 L710.4574,242.5595 L710.738,252.4948 L710.8188,262.4302 L711.2809,272.3655 L711.3947,282.3009 L711.4057,292.2363 L710.8395,302.1716 L711.1181,312.107 L711.4363,322.0423 L709.5384,331.9777 L711.4047,341.9131 L710.1047,351.8484 L711.2117,361.7838 L709.84,371.7191 L710.4087,381.6545 L711.4888,391.5898 L710.435,401.5252 L710.6404,411.4606 L710.9515,421.3959 L711.055,431.3313 L710.4948,441.2666 L710.883,451.202 L709.7368,461.1373 L710.8792,471.0727 L711.2309,481.0081 L711.0927,490.9434 L711.3174,500.8788 L709.8559,510.8141 L709.6304,520.7495 L709.6715,530.6849 L710.4215,540.6202 L710.238,550.5556 L711.4085,560.4909 L710.2671,570.4263 L710.0426,580.3616 L710.8044,590.297 L709.6109,600.2324 L709.8078,610.1677 L711.3653,620.1031 L711.0809,630.0384 L711.4793,639.9738 L710.0709,649.9091 L710.9256,659.8445 L711.2872,669.7799 L709.8701,679.7152 L710.3722,689.6506 L710.5,699.5859 " fill="none" style="stroke:#383838;stroke-width:1.0;stroke-dasharray:5.0,5.0;"/><polygon fill="#F8F8F8" points="48,36,48,36.2102,58.0714,35.5857,68.1429,36.1933,78.2143,36.3997,88.2857,35.2866,98.3571,35.9223,108.4286,35.5735,118.5,35.6165,128.5714,35.9318,138.6429,35.3086,148.7143,36.5536,158.7857,35.3697,168.8571,35.8022,178.9286,36.4319,189,36,188.9142,36,189.0682,45.3188,188.9681,54.6375,189.1785,63.9563,189.2391,73.275,189,82.5938,189,83.1794,178.9286,83.2648,168.8571,83.273,158.7857,82.8484,148.7143,83.0573,138.6429,83.296,128.5714,81.8726,118.5,83.2723,108.4286,82.2972,98.3571,83.1276,88.2857,82.0987,78.2143,82.5253,68.1429,83.3354,58.0714,82.545,48,82.5938,48.1053,82.5938,48.3386,73.275,48.4162,63.9563,47.9961,54.6375,48.2872,45.3188,48,36" style="stroke:#383838;stroke-width:1.5;"/><text fill="#000000" font-family="FG Virgil" font-size="14" font-style="italic" lengthAdjust="spacing" textLength="106" x="65.5" y="55.9951">«presentation»</text><text fill="#000000" font-family="FG Virgil" font-size="14" lengthAdjust="spacing" textLength="127" x="55" y="72.292">CumprimentoSlaUI</text><polygon fill="#F8F8F8" points="48,698.5859,48,698.7961,58.0714,698.1716,68.1429,698.7792,78.2143,698.9856,88.2857,697.8725,98.3571,698.5082,108.4286,698.1594,118.5,698.2024,128.5714,698.5178,138.6429,697.8946,148.7143,699.1396,158.7857,697.9557,168.8571,698.3882,178.9286,699.0179,189,698.5859,188.9142,698.5859,189.0682,707.9047,188.9681,717.2234,189.1785,726.5422,189.2391,735.8609,189,745.1797,189,745.7654,178.9286,745.8507,168.8571,745.8589,158.7857,745.4343,148.7143,745.6433,138.6429,745.8819,128.5714,744.4585,118.5,745.8582,108.4286,744.8832,98.3571,745.7135,88.2857,744.6847,78.2143,745.1112,68.1429,745.9213,58.0714,745.131,48,745.1797,48.1053,745.1797,48.3386,735.8609,48.4162,726.5422,47.9961,717.2234,48.2872,707.9047,48,698.5859" style="stroke:#383838;stroke-width:1.5;"/><text fill="#000000" font-family="FG Virgil" font-size="14" font-style="italic" lengthAdjust="spacing" textLength="106" x="65.5" y="718.5811">«presentation»</text><text fill="#000000" font-family="FG Virgil" font-size="14" lengthAdjust="spacing" textLength="127" x="55" y="734.8779">CumprimentoSlaUI</text><text fill="#000000" font-family="FG Virgil" font-size="14" font-style="italic" lengthAdjust="spacing" textLength="92" x="303.5" y="63.9951">«application»</text><text fill="#000000" font-family="FG Virgil" font-size="14" lengthAdjust="spacing" textLength="181" x="259" y="80.292">CumprimentoSlaController</text><polygon fill="#F8F8F8" points="364.5663,37.9189,362.8073,40.3223,360.7268,43.8426,357.7512,46.215,354.6244,47.5123,352.1313,47.6249,348.9269,46.0024,345.9035,44.9425,343.6086,42.7904,342.4048,40.3267,341.6909,38.3649,340.9915,35.8026,339.8564,33.5976,340.7287,31.4447,341.4929,29.0864,344.3611,27.2212,346.3789,24.8012,348.8764,23.9976,351.8456,23.3055,355.6532,23.7167,357.7386,24.7002,360.1633,25.146,363.1115,28.1665,364.1392,31.3552,364.5857,33.5309,364.08,37.1162" style="stroke:#383838;stroke-width:2.0;"/><polygon fill="#383838" points="348.5,23,348.5449,23.0538,349.6116,21.8939,350.9412,21.0495,352.1853,20.1023,353.1478,18.8173,354.5,18,354.4759,17.9904,353.968,18.9472,353.5813,19.9525,353.2789,20.9916,352.686,21.9144,352.5,23,352.6713,23.0685,352.7049,23.922,353.2388,24.9755,353.8337,26.0535,354.0735,26.9894,354.5,28,354.5146,28.0175,353.2932,26.9918,352.1381,26.0457,350.951,25.0612,349.825,24.15,348.5,23" style="stroke:#383838;stroke-width:1.0;"/><text fill="#000000" font-family="FG Virgil" font-size="14" font-style="italic" lengthAdjust="spacing" textLength="92" x="303.5" y="711.5811">«application»</text><text fill="#000000" font-family="FG Virgil" font-size="14" lengthAdjust="spacing" textLength="181" x="259" y="727.8779">CumprimentoSlaController</text><polygon fill="#F8F8F8" points="364.5663,750.0986,362.8073,752.502,360.7268,756.0223,357.7512,758.3947,354.6244,759.692,352.1313,759.8046,348.9269,758.1821,345.9035,757.1221,343.6086,754.9701,342.4048,752.5064,341.6909,750.5446,340.9915,747.9823,339.8564,745.7773,340.7287,743.6244,341.4929,741.2661,344.3611,739.4009,346.3789,736.9809,348.8764,736.1773,351.8456,735.4852,355.6532,735.8964,357.7386,736.8799,360.1633,737.3257,363.1115,740.3462,364.1392,743.5349,364.5857,745.7106,364.08,749.2959" style="stroke:#383838;stroke-width:2.0;"/><polygon fill="#383838" points="348.5,735.1797,348.5449,735.2335,349.6116,734.0736,350.9412,733.2292,352.1853,732.282,353.1478,730.997,354.5,730.1797,354.4759,730.1701,353.968,731.1269,353.5813,732.1322,353.2789,733.1712,352.686,734.0941,352.5,735.1797,352.6713,735.2482,352.7049,736.1017,353.2388,737.1552,353.8337,738.2332,354.0735,739.1691,354.5,740.1797,354.5146,740.1972,353.2932,739.1715,352.1381,738.2254,350.951,737.2409,349.825,736.3297,348.5,735.1797" style="stroke:#383838;stroke-width:1.0;"/><text fill="#000000" font-family="FG Virgil" font-size="14" font-style="italic" lengthAdjust="spacing" textLength="87" x="664" y="63.9951">«repository»</text><text fill="#000000" font-family="FG Virgil" font-size="14" lengthAdjust="spacing" textLength="122" x="646.5" y="80.292">PedidoRepository</text><path d="M692.5,15 L692.5,15 L692.5651,15.067 L694.1716,13.118 L696.1599,11.5616 L698.0238,9.8774 L699.479,7.7727 L701.5,6.25 L701.4952,6.2158 L703.2739,5.8122 L705.0766,5.5812 L706.8958,5.47 L708.6577,4.9456 L710.5,5 L710.5,5 L710.5339,5.2437 L712.2615,4.9725 L714.0879,5.4129 L715.9264,5.9402 L717.6948,5.9622 L719.5,6.25 L719.5211,6.2717 L721.2901,7.9898 L723.1553,9.8069 L724.9741,11.5762 L726.8815,13.4366 L728.5,15 L729.0965,15 L729.1038,20.2 L728.7263,25.4 L728.9121,30.6 L729.1242,35.8 L728.5,41 L728.5,41 L728.2766,40.7702 L726.9102,42.9662 L724.8081,44.4055 L723.2654,46.4201 L721.1466,47.8423 L719.5,49.75 L719.4958,49.7198 L717.7453,50.3265 L715.897,50.2285 L714.1064,50.5464 L712.3207,50.8991 L710.5,51 L710.5,51 L710.5254,51.1832 L708.6998,50.7483 L706.9176,50.6264 L705.065,49.998 L703.3174,50.1252 L701.5,49.75 L701.6698,49.9247 L699.8377,48.1417 L698.0899,46.4453 L695.9503,44.3461 L694.0979,42.5422 L692.5,41 L691.9476,41 L692.4477,35.8 L692.3253,30.6 L693.1057,25.4 L692.3447,20.2 L692.5,15 " fill="#F8F8F8" style="stroke:#000000;stroke-width:1.5;"/><path d="M692.5,15 L692.5,15 L692.5651,15.067 L694.1716,16.618 L696.1599,18.5616 L698.0238,20.3774 L699.479,21.7727 L701.5,23.75 L701.4952,23.7158 L703.2739,23.8122 L705.0766,24.0812 L706.8958,24.47 L708.6577,24.4456 L710.5,25 L710.5,25 L710.5339,25.2437 L712.2615,24.4725 L714.0879,24.4129 L715.9264,24.4402 L717.6948,23.9622 L719.5,23.75 L719.5211,23.7717 L721.2901,21.9898 L723.1553,20.3069 L724.9741,18.5762 L726.8815,16.9366 L728.5,15 " fill="none" style="stroke:#000000;stroke-width:1.5;"/><text fill="#000000" font-family="FG Virgil" font-size="14" font-style="italic" lengthAdjust="spacing" textLength="87" x="664" y="711.5811">«repository»</text><text fill="#000000" font-family="FG Virgil" font-size="14" lengthAdjust="spacing" textLength="122" x="646.5" y="727.8779">PedidoRepository</text><path d="M692.5,741.1797 L692.5,741.1797 L692.5651,741.2467 L694.1716,739.2977 L696.1599,737.7413 L698.0238,736.0571 L699.479,733.9524 L701.5,732.4297 L701.4952,732.3955 L703.2739,731.9919 L705.0766,731.7609 L706.8958,731.6497 L708.6577,731.1253 L710.5,731.1797 L710.5,731.1797 L710.5339,731.4234 L712.2615,731.1522 L714.0879,731.5926 L715.9264,732.1198 L717.6948,732.1419 L719.5,732.4297 L719.5211,732.4514 L721.2901,734.1695 L723.1553,735.9866 L724.9741,737.7559 L726.8815,739.6163 L728.5,741.1797 L729.0965,741.1797 L729.1038,746.3797 L728.7263,751.5797 L728.9121,756.7797 L729.1242,761.9797 L728.5,767.1797 L728.5,767.1797 L728.2766,766.9499 L726.9102,769.1459 L724.8081,770.5852 L723.2654,772.5998 L721.1466,774.0219 L719.5,775.9297 L719.4958,775.8995 L717.7453,776.5062 L715.897,776.4082 L714.1064,776.726 L712.3207,777.0788 L710.5,777.1797 L710.5,777.1797 L710.5254,777.3629 L708.6998,776.928 L706.9176,776.8061 L705.065,776.1777 L703.3174,776.3049 L701.5,775.9297 L701.6698,776.1044 L699.8377,774.3213 L698.0899,772.625 L695.9503,770.5257 L694.0979,768.7219 L692.5,767.1797 L691.9476,767.1797 L692.4477,761.9797 L692.3253,756.7797 L693.1057,751.5797 L692.3447,746.3797 L692.5,741.1797 " fill="#F8F8F8" style="stroke:#000000;stroke-width:1.5;"/><path d="M692.5,741.1797 L692.5,741.1797 L692.5651,741.2467 L694.1716,742.7977 L696.1599,744.7413 L698.0238,746.5571 L699.479,747.9524 L701.5,749.9297 L701.4952,749.8955 L703.2739,749.9919 L705.0766,750.2609 L706.8958,750.6497 L708.6577,750.6253 L710.5,751.1797 L710.5,751.1797 L710.5339,751.4234 L712.2615,750.6522 L714.0879,750.5926 L715.9264,750.6198 L717.6948,750.1419 L719.5,749.9297 L719.5211,749.9514 L721.2901,748.1695 L723.1553,746.4866 L724.9741,744.7559 L726.8815,743.1163 L728.5,741.1797 " fill="none" style="stroke:#000000;stroke-width:1.5;"/><polygon fill="#FFFFFF" points="113.5,93.5938,113.5,93.6638,115.5,93.4556,117.5,93.6582,119.5,93.727,121.5,93.356,123.5,93.5938,123.4223,93.5938,123.0735,103.527,123.1165,113.4602,123.4318,123.3934,122.8086,133.3266,124.0536,143.2598,122.8697,153.193,123.3022,163.1262,123.9319,173.0594,123.4142,182.9926,123.5682,192.9258,123.4681,202.859,123.6785,212.7922,123.7391,222.7254,124.0857,232.6586,124.1711,242.5918,124.1793,252.525,123.7546,262.4582,123.9636,272.3914,124.2022,282.3246,122.7788,292.2578,124.1785,302.191,123.2035,312.1242,124.0338,322.0574,123.005,331.9906,123.4315,341.9238,124.2416,351.857,123.4513,361.7902,123.6053,371.7234,123.8386,381.6566,123.9162,391.5898,123.4961,401.523,123.7872,411.4563,122.9276,421.3895,123.7844,431.3227,124.0482,441.2559,123.9445,451.1891,124.113,461.1223,123.0169,471.0555,122.8478,480.9887,122.8786,490.9219,123.4411,500.8551,123.3035,510.7883,124.1814,520.7215,123.3253,530.6547,123.1569,540.5879,123.7283,550.5211,122.8332,560.4543,122.9809,570.3875,124.149,580.3207,123.9357,590.2539,124.2345,600.1871,123.1782,610.1203,123.8192,620.0535,124.0904,629.9867,123.0276,639.9199,123.4041,649.8531,123.626,659.7863,124.1518,669.7195,123.4958,679.6527,123.5,689.5859,123.5,689.7401,121.5,689.4013,119.5,689.3602,117.5,689.7538,115.5,689.347,113.5,689.5859,114.009,689.5859,113.7066,679.6527,113.2321,669.7195,113.1462,659.7863,113.9588,649.8531,113.2007,639.9199,114.0919,629.9867,112.9473,620.0535,114.1174,610.1203,113.9843,600.1871,113.745,590.2539,113.5472,580.3207,114.2266,570.3875,114.1136,560.4543,113.6693,550.5211,113.7682,540.5879,113.3697,530.6547,114.2165,520.7215,113.6549,510.7883,113.6726,500.8551,112.8916,490.9219,113.0948,480.9887,114.0307,471.0555,113.9298,461.1223,113.4571,451.1891,113.1778,441.2559,113.2811,431.3227,112.8138,421.3895,113.9147,411.4563,114.2396,401.523,114.0264,391.5898,114.1949,381.6566,113.3633,371.7234,113.5872,361.7902,113.1124,351.857,113.784,341.9238,113.7468,331.9906,114.0524,322.0574,113.2703,312.1242,113.3656,302.191,113.9435,292.2578,114.0673,282.3246,112.9875,272.3914,113.3061,262.4582,113.6493,252.525,112.8892,242.5918,113.8534,232.6586,113.758,222.7254,113.3992,212.7922,113.6422,202.859,114.2287,192.9258,113.1871,182.9926,113.815,173.0594,113.7856,163.1262,113.6158,153.193,113.6409,143.2598,113.6135,133.3266,112.8758,123.3934,113.0992,113.4602,113.0385,103.527,113.5,93.5938" style="stroke:#383838;stroke-width:1.0;"/><polygon fill="#FFFFFF" points="347.5,207.125,347.5,207.1951,349.5,206.9869,351.5,207.1894,353.5,207.2582,355.5,206.8872,357.5,207.125,357.4223,207.125,357.0735,216.9805,357.1165,226.8359,357.4318,236.6914,356.8086,246.5469,358.0536,256.4023,357.5,266.2578,357.5,266.0477,355.5,266.1919,353.5,266.4018,351.5,266.2292,349.5,266.2806,347.5,266.2578,347.4681,266.2578,347.6785,256.4023,347.7391,246.5469,348.0857,236.6914,348.1711,226.8359,348.1793,216.9805,347.5,207.125" style="stroke:#383838;stroke-width:1.0;"/><polygon fill="#FFFFFF" points="347.5,319.5234,347.5,319.5935,349.5,319.3853,351.5,319.5879,353.5,319.6567,355.5,319.2856,357.5,319.5234,357.4223,319.5234,357.0735,329.3789,357.1165,339.2344,357.4318,349.0898,356.8086,358.9453,358.0536,368.8008,357.5,378.6563,357.5,378.4462,355.5,378.5903,353.5,378.8002,351.5,378.6277,349.5,378.679,347.5,378.6563,347.4681,378.6563,347.6785,368.8008,347.7391,358.9453,348.0857,349.0898,348.1711,339.2344,348.1793,329.3789,347.5,319.5234" style="stroke:#383838;stroke-width:1.0;"/><polygon fill="#FFFFFF" points="347.5,407.7891,347.5,407.8591,349.5,407.651,351.5,407.8535,353.5,407.9223,355.5,407.5513,357.5,407.7891,357.4223,407.7891,357.0735,417.6445,357.1165,427.5,357.4318,437.3555,356.8086,447.2109,358.0536,457.0664,357.5,466.9219,357.5,466.7118,355.5,466.856,353.5,467.0659,351.5,466.8933,349.5,466.9446,347.5,466.9219,347.4681,466.9219,347.6785,457.0664,347.7391,447.2109,348.0857,437.3555,348.1711,427.5,348.1793,417.6445,347.5,407.7891" style="stroke:#383838;stroke-width:1.0;"/><polygon fill="#FFFFFF" points="347.5,496.0547,347.5,496.1247,349.5,495.9166,351.5,496.1191,353.5,496.1879,355.5,495.8169,357.5,496.0547,357.4223,496.0547,357.0735,505.9102,357.1165,515.7656,357.4318,525.6211,356.8086,535.4766,358.0536,545.332,357.5,555.1875,357.5,554.9774,355.5,555.1216,353.5,555.3315,351.5,555.1589,349.5,555.2102,347.5,555.1875,347.4681,555.1875,347.6785,545.332,347.7391,535.4766,348.0857,525.6211,348.1711,515.7656,348.1793,505.9102,347.5,496.0547" style="stroke:#383838;stroke-width:1.0;"/><polygon fill="#FFFFFF" points="347.5,608.4531,347.5,608.5232,349.5,608.315,351.5,608.5176,353.5,608.5864,355.5,608.2153,357.5,608.4531,357.4223,608.4531,357.0735,618.3086,357.1165,628.1641,357.4318,638.0195,356.8086,647.875,358.0536,657.7305,357.5,667.5859,357.5,667.3758,355.5,667.52,353.5,667.7299,351.5,667.5573,349.5,667.6087,347.5,667.5859,347.4681,667.5859,347.6785,657.7305,347.7391,647.875,348.0857,638.0195,348.1711,628.1641,348.1793,618.3086,347.5,608.4531" style="stroke:#383838;stroke-width:1.0;"/><polygon fill="#FFFFFF" points="705.5,236.2578,705.5,236.3279,707.5,236.1197,709.5,236.3222,711.5,236.391,713.5,236.02,715.5,236.2578,715.4741,236.2578,715.3578,242.2578,715.3722,248.2578,715.4773,254.2578,715.2695,260.2578,715.5,266.2578,715.5,266.4424,713.5,266.0477,711.5,266.1919,709.5,266.4018,707.5,266.2292,705.5,266.2578,705.5227,266.2578,705.4894,260.2578,705.5595,254.2578,705.5797,248.2578,705.6952,242.2578,705.5,236.2578" style="stroke:#383838;stroke-width:1.0;"/><polygon fill="#FFFFFF" points="705.5,348.6563,705.5,348.7263,707.5,348.5181,709.5,348.7207,711.5,348.7895,713.5,348.4185,715.5,348.6563,715.4741,348.6563,715.3578,354.6563,715.3722,360.6563,715.4773,366.6563,715.2695,372.6563,715.5,378.6563,715.5,378.8408,713.5,378.4462,711.5,378.5903,709.5,378.8002,707.5,378.6277,705.5,378.6563,705.5227,378.6563,705.4894,372.6563,705.5595,366.6563,705.5797,360.6563,705.6952,354.6563,705.5,348.6563" style="stroke:#383838;stroke-width:1.0;"/><polygon fill="#FFFFFF" points="705.5,436.9219,705.5,436.9919,707.5,436.7838,709.5,436.9863,711.5,437.0551,713.5,436.6841,715.5,436.9219,715.4741,436.9219,715.3578,442.9219,715.3722,448.9219,715.4773,454.9219,715.2695,460.9219,715.5,466.9219,715.5,467.1064,713.5,466.7118,711.5,466.856,709.5,467.0659,707.5,466.8933,705.5,466.9219,705.5227,466.9219,705.4894,460.9219,705.5595,454.9219,705.5797,448.9219,705.6952,442.9219,705.5,436.9219" style="stroke:#383838;stroke-width:1.0;"/><polygon fill="#FFFFFF" points="705.5,525.1875,705.5,525.2576,707.5,525.0494,709.5,525.2519,711.5,525.3207,713.5,524.9497,715.5,525.1875,715.4741,525.1875,715.3578,531.1875,715.3722,537.1875,715.4773,543.1875,715.2695,549.1875,715.5,555.1875,715.5,555.372,713.5,554.9774,711.5,555.1216,709.5,555.3315,707.5,555.1589,705.5,555.1875,705.5227,555.1875,705.4894,549.1875,705.5595,543.1875,705.5797,537.1875,705.6952,531.1875,705.5,525.1875" style="stroke:#383838;stroke-width:1.0;"/><polygon fill="#FFFFFF" points="705.5,637.5859,705.5,637.656,707.5,637.4478,709.5,637.6504,711.5,637.7192,713.5,637.3481,715.5,637.5859,715.4741,637.5859,715.3578,643.5859,715.3722,649.5859,715.4773,655.5859,715.2695,661.5859,715.5,667.5859,715.5,667.7705,713.5,667.3758,711.5,667.52,709.5,667.7299,707.5,667.5573,705.5,667.5859,705.5227,667.5859,705.4894,661.5859,705.5595,655.5859,705.5797,649.5859,705.6952,643.5859,705.5,637.5859" style="stroke:#383838;stroke-width:1.0;"/><path d="M123.5,114.7266 L123.5,114.82 L131.9,114.5424 L140.3,114.8125 L148.7,114.9042 L157.1,114.4095 L165.5,114.7266 " fill="none" style="stroke:#383838;stroke-width:1.0;"/><path d="M165.5,114.7266 L165.5934,114.7266 L165.3159,117.3266 L165.5859,119.9266 L165.6776,122.5266 L165.1829,125.1266 L165.5,127.7266 " fill="none" style="stroke:#383838;stroke-width:1.0;"/><path d="M124.5,127.7266 L124.5,127.82 L132.7,127.5424 L140.9,127.8125 L149.1,127.9042 L157.3,127.4095 L165.5,127.7266 " fill="none" style="stroke:#383838;stroke-width:1.0;"/><polygon fill="#383838" points="134.5,123.7266,134.526,123.7916,132.4487,124.3983,130.5239,125.3864,128.5495,126.2503,126.4117,126.7058,124.5,127.7266,124.4904,127.7025,126.4472,128.3946,128.4525,129.2079,130.4916,130.1055,132.4144,130.7126,134.5,131.7266,134.6305,131.8571,133.5514,130.778,132.8534,130.0799,132.2018,129.4284,131.2798,128.5063,130.5,127.7266,130.5161,127.7426,131.2925,126.919,132.1421,126.1686,132.9564,125.3829,133.838,124.6646,134.5,123.7266" style="stroke:#383838;stroke-width:1.0;"/><text fill="#000000" font-family="FG Virgil" font-size="13" lengthAdjust="spacing" textLength="60" x="130.5" y="109.6606">doShow()</text><path d="M5,140.7266 L5.1868,140.7266 L4.6317,148.7266 L5.1718,156.7266 L5.3553,164.7266 L4.3659,172.7266 L5,180.7266 L5,180.5193 L14.9429,179.5892 L24.8857,179.7039 L34.8286,180.5448 L44.7714,178.8829 L54.7143,182.2029 L64.6571,179.0458 L74.6,180.1992 L84.5429,181.8784 L94.4857,180.4978 L104.4286,180.9085 L114.3714,180.6414 L124.3143,181.2026 L134.2571,181.3643 L144.2,182.2884 L154.1429,182.516 L164.0857,182.5379 L174.0286,181.4056 L183.9714,181.9628 L193.9143,182.5992 L203.8571,178.8034 L213.8,182.5359 L223.7429,179.9359 L233.6857,182.1501 L243.6286,179.4065 L253.5714,180.5439 L263.5143,182.7042 L273.4571,180.5966 L283.4,181.0074 L293.3429,181.6296 L303.2857,181.8365 L313.2286,180.7161 L323.1714,181.4925 L333.1143,179.2001 L343.0571,181.4849 L353,182.1884 L362.9429,181.912 L372.8857,182.3613 L382.8286,179.4383 L392.7714,178.9874 L402.7143,179.0695 L412.6571,180.5695 L422.6,180.2025 L432.5429,182.5437 L442.4857,180.2608 L452.4286,179.8118 L462.3714,181.3353 L472.3143,178.9483 L482.2571,179.3422 L492.2,182.4571 L502.1429,181.8883 L512.0857,182.6852 L522.0286,179.8684 L531.9714,181.5778 L541.9143,182.301 L551.8571,179.4668 L561.8,180.4709 L571.7429,181.0625 L581.6857,182.4646 L591.6286,180.7154 L601.5714,181.9601 L611.5143,179.2498 L621.4571,178.9205 L631.4,182.0695 L641.3429,178.8147 L651.2857,182.0838 L661.2286,181.2776 L671.1714,180.0121 L681.1143,179.7832 L691.0571,181.9499 L701,180.7266 L700.7339,180.7266 L701.5261,174.7266 L700.5087,168.7266 L701.5488,162.7266 L701.4305,156.7266 L701,150.7266 L701.154,150.8805 L699.0297,148.7562 L697.4567,147.1833 L695.3857,145.1122 L693.1064,142.8329 L691,140.7266 L691,141.4417 L681.058,140.3792 L671.1159,142.6371 L661.1739,141.1395 L651.2319,141.1868 L641.2899,139.1043 L631.3478,139.646 L621.4058,142.1419 L611.4638,141.8726 L601.5217,140.6121 L591.5797,139.8674 L581.6377,140.1428 L571.6957,138.8968 L561.7536,141.8325 L551.8116,142.6987 L541.8696,142.1303 L531.9275,142.5797 L521.9855,140.362 L512.0435,140.9592 L502.1014,139.693 L492.1594,141.484 L482.2174,141.3846 L472.2754,142.1996 L462.3333,140.1141 L452.3913,140.3681 L442.4493,141.9091 L432.5072,142.2395 L422.5652,139.3598 L412.6232,140.2095 L402.6812,141.1246 L392.7391,139.0976 L382.7971,141.6689 L372.8551,141.4145 L362.913,140.4579 L352.971,141.1059 L343.029,142.6697 L333.087,139.8922 L323.1449,141.5665 L313.2029,141.4883 L303.2609,141.0353 L293.3188,141.1024 L283.3768,141.0292 L273.4348,139.0621 L263.4928,139.6577 L253.5507,139.4958 L243.6087,140.8968 L233.6667,140.9616 L223.7246,141.1579 L213.7826,139.9506 L203.8406,140.5465 L193.8986,140.406 L183.9565,142.2648 L174.0145,141.8641 L164.0725,139.4318 L154.1304,140.5321 L144.1884,139.1873 L134.2464,141.4956 L124.3043,142.3492 L114.3623,142.1787 L104.4203,139.5651 L94.4783,141.9638 L84.5362,138.7457 L74.5942,141.2603 L64.6522,139.9284 L54.7101,140.9845 L44.7681,141.3675 L34.8261,141.9855 L24.8841,138.8068 L14.942,141.9945 L5,140.7266 " fill="#EBEBEB" style="stroke:#383838;stroke-width:1.0;"/><path d="M691,140.7266 L691.1584,140.7266 L691.3158,142.7266 L691.6647,144.7266 L691.0049,146.7266 L691.1558,148.7266 L691,150.7266 L691,150.9163 L693,150.9019 L695,150.7258 L697,151.3583 L699,150.1846 L701,150.7266 L701.3553,151.0819 L698.6078,148.3344 L696.6604,146.387 L695.0251,144.7517 L693.0178,142.7443 L691,140.7266 " fill="#EBEBEB" style="stroke:#383838;stroke-width:1.0;"/><text fill="#000000" font-family="FG Virgil" font-size="13" lengthAdjust="spacing" textLength="620" x="11" y="157.7935">Para efeitos de simplificação do diagrama, não foram representadas todas as classes repository,</text><text fill="#000000" font-family="FG Virgil" font-size="13" lengthAdjust="spacing" textLength="671" x="15" y="172.9263">a classe persistence e a classe factory, tendo sido utilizado o procedimento dos casos de uso do sprint B</text><polygon fill="#383838" points="335.5,203.125,335.526,203.19,337.4487,203.7968,339.5239,204.7848,341.5495,205.6487,343.4117,206.1042,345.5,207.125,345.4904,207.1009,343.4472,207.793,341.4525,208.6063,339.4916,209.5039,337.4144,210.111,335.5,211.125,335.6305,211.2555,336.1514,210.1764,337.0534,209.4784,338.0018,208.8268,338.6798,207.9048,339.5,207.125,339.5161,207.1411,338.6925,206.3175,337.9421,205.5671,337.1564,204.7814,336.438,204.063,335.5,203.125" style="stroke:#383838;stroke-width:1.0;"/><path d="M123.5,207.125 L123.5,207.4052 L133.4091,206.5726 L143.3182,207.3827 L153.2273,207.6579 L163.1364,206.1738 L173.0455,207.0214 L182.9545,206.5563 L192.8636,206.6137 L202.7727,207.0341 L212.6818,206.2032 L222.5909,207.8632 L232.5,206.2846 L242.4091,206.8613 L252.3182,207.7009 L262.2273,207.0106 L272.1364,207.216 L282.0455,207.0824 L291.9545,207.363 L301.8636,207.4438 L311.7727,207.9059 L321.6818,208.0197 L331.5909,208.0307 L341.5,207.125 " fill="none" style="stroke:#383838;stroke-width:1.0;"/><text fill="#000000" font-family="FG Virgil" font-size="13" lengthAdjust="spacing" textLength="151" x="130.5" y="202.0591">getAllPedidoConcluido()</text><polygon fill="#383838" points="693.5,232.2578,693.526,232.3229,695.4487,232.9296,697.5239,233.9176,699.5495,234.7815,701.4117,235.237,703.5,236.2578,703.4904,236.2338,701.4472,236.9258,699.4525,237.7391,697.4916,238.6367,695.4144,239.2438,693.5,240.2578,693.6305,240.3883,694.1514,239.3093,695.0534,238.6112,696.0018,237.9596,696.6798,237.0376,697.5,236.2578,697.5161,236.2739,696.6925,235.4503,695.9421,234.6999,695.1564,233.9142,694.438,233.1959,693.5,232.2578" style="stroke:#383838;stroke-width:1.0;"/><path d="M357.5,236.2578 L357.5,236.5381 L367.5588,235.7054 L377.6176,236.5155 L387.6765,236.7907 L397.7353,235.3066 L407.7941,236.1542 L417.8529,235.6892 L427.9118,235.7465 L437.9706,236.1669 L448.0294,235.336 L458.0882,236.996 L468.1471,235.4174 L478.2059,235.9941 L488.2647,236.8337 L498.3235,236.1434 L508.3824,236.3488 L518.4412,236.2152 L528.5,236.4958 L538.5588,236.5767 L548.6176,237.0387 L558.6765,237.1526 L568.7353,237.1635 L578.7941,236.5973 L588.8529,236.8759 L598.9118,237.1941 L608.9706,235.2962 L619.0294,237.1625 L629.0882,235.8625 L639.1471,236.9696 L649.2059,235.5978 L659.2647,236.1665 L669.3235,237.2466 L679.3824,236.1928 L689.4412,236.3982 L699.5,236.2578 " fill="none" style="stroke:#383838;stroke-width:1.0;"/><text fill="#000000" font-family="FG Virgil" font-size="13" lengthAdjust="spacing" textLength="246" x="364.5" y="231.1919">listaPedidos = getAllPedidoConcluido()</text><path d="M28,281.2578 L28,281.8183 L37.625,280.153 L47.25,281.7732 L56.875,282.3236 L66.5,279.3554 L76.125,281.0506 L85.75,280.1205 L95.375,280.2351 L105,281.2578 L104.9394,281.2578 L104.3854,282.6578 L105.4921,284.0578 L104.4398,285.4578 L104.8242,286.8578 L105,288.2578 L105.2715,288.5293 L102.9461,290.2039 L101.0429,292.3007 L98.9799,294.2377 L97.1122,296.37 L95,298.2578 L95,298.8955 L85.4286,299.8197 L75.8571,300.0473 L66.2857,300.0692 L56.7143,298.9368 L47.1429,299.494 L37.5714,300.1304 L28,298.2578 L27.3589,298.2578 L28.6031,294.8578 L27.7364,291.4578 L28.4745,288.0578 L27.56,284.6578 L28,281.2578 " fill="#EEEEEE" style="stroke:#000000;stroke-width:1.0;"/><polygon fill="none" points="28,281.2578,28,281.468,37.9545,280.8435,47.9091,281.4511,57.8636,281.6575,67.8182,280.5444,77.7727,281.1801,87.7273,280.8313,97.6818,280.8743,107.6364,281.1897,117.5909,280.5664,127.5455,281.8115,137.5,280.6275,147.4545,281.06,157.4091,281.6898,167.3636,281.172,177.3182,281.3261,187.2727,281.2259,197.2273,281.4363,207.1818,281.4969,217.1364,281.8435,227.0909,281.9289,237.0455,281.9371,247,281.5124,256.9545,281.7214,266.9091,281.96,276.8636,280.5366,286.8182,281.9363,296.7727,280.9613,306.7273,281.7916,316.6818,280.7628,326.6364,281.1893,336.5909,281.9994,346.5455,281.2091,356.5,281.3631,366.4545,281.5964,376.4091,281.674,386.3636,281.2539,396.3182,281.545,406.2727,280.6854,416.2273,281.5422,426.1818,281.806,436.1364,281.7023,446.0909,281.8708,456.0455,280.7747,466,280.6056,475.9545,280.6364,485.9091,281.1989,495.8636,281.0613,505.8182,281.9392,515.7727,281.0831,525.7273,280.9148,535.6818,281.4861,545.6364,280.591,555.5909,280.7387,565.5455,281.9068,575.5,281.6935,585.4545,281.9923,595.4091,280.936,605.3636,281.577,615.3182,281.8482,625.2727,280.7854,635.2273,281.162,645.1818,281.3838,655.1364,281.9096,665.0909,281.2536,675.0455,281.7204,685,280.704,694.9545,280.5806,704.9091,281.7614,714.8636,280.5409,724.8182,281.7668,734.7727,281.4644,744.7273,280.9899,754.6818,280.904,764.6364,281.7166,774.5909,280.9585,784.5455,281.8497,794.5,281.2578,793.9473,281.2578,795.1174,291.291,794.9843,301.3242,794.745,311.3574,794.5472,321.3906,795.2266,331.4238,795.1136,341.457,794.6693,351.4902,794.7682,361.5234,794.3697,371.5566,795.2165,381.5898,794.6549,391.623,794.6726,401.6563,793.8916,411.6895,794.0948,421.7227,795.0307,431.7559,794.9298,441.7891,794.4571,451.8223,794.1778,461.8555,794.2811,471.8887,793.8138,481.9219,794.9147,491.9551,795.2396,501.9883,795.0264,512.0215,795.1949,522.0547,794.3633,532.0879,794.5872,542.1211,794.1124,552.1543,794.784,562.1875,794.7468,572.2207,795.0524,582.2539,794.2703,592.2871,794.3656,602.3203,794.9435,612.3535,795.0673,622.3867,793.9875,632.4199,794.3061,642.4531,794.6493,652.4863,793.8892,662.5195,794.8534,672.5527,794.5,682.5859,794.5,682.8439,784.5455,682.4852,774.5909,682.7282,764.6364,683.3146,754.6818,682.2731,744.7273,682.9009,734.7727,682.8716,724.8182,682.7017,714.8636,682.7269,704.9091,682.6994,694.9545,681.9618,685,682.1851,675.0455,682.1244,665.0909,682.6498,655.1364,682.6741,645.1818,682.7477,635.2273,682.295,625.2727,682.5184,615.3182,682.4657,605.3636,683.1628,595.4091,683.0125,585.4545,682.1004,575.5,682.513,565.5455,682.0087,555.5909,682.8743,545.6364,683.1944,535.6818,683.1305,525.7273,682.1504,515.7727,683.0499,505.8182,681.8431,495.8636,682.7861,485.9091,682.2866,475.9545,682.6827,466,682.8263,456.0455,683.058,446.0909,681.866,436.1364,683.0614,426.1818,682.7641,416.2273,682.9413,406.2727,683.3337,396.3182,682.5914,386.3636,682.7612,376.4091,682.7994,366.4545,682.7832,356.5,682.5851,346.5455,683.2966,336.5909,681.9762,326.6364,683.1512,316.6818,681.9619,306.7273,682.0456,296.7727,682.6259,286.8182,682.6142,276.8636,682.0931,266.9091,682.9997,256.9545,682.6948,247,683.3126,237.0455,683.253,227.0909,682.1377,217.1364,682.188,207.1818,682.4568,197.2273,682.9415,187.2727,682.9889,177.3182,682.8871,167.3636,682.244,157.4091,683.2223,147.4545,683.2197,137.5,682.5387,127.5455,682.3469,117.5909,682.1846,107.6364,682.3714,97.6818,682.7234,87.7273,682.5175,77.7727,682.1681,67.8182,683.0733,57.8636,682.127,47.9091,683.0883,37.9545,683.0132,28,682.5859,28.3719,682.5859,28.6925,672.5527,27.7541,662.5195,27.6994,652.4863,28.5189,642.4531,27.4031,632.4199,27.766,622.3867,28.1155,612.3535,28.0687,602.3203,27.6415,592.2871,27.957,582.2539,28.7446,572.2207,28.6485,562.1875,27.4037,552.1543,28.0785,542.1211,27.4861,532.0879,27.9737,522.0547,28.293,512.0215,28.4199,501.9883,27.3353,491.9551,28.4005,481.9219,28.0084,471.8887,27.4447,461.8555,27.5289,451.8223,28.3266,441.7891,28.2499,431.7559,27.9836,421.7227,27.3279,411.6895,28.6581,401.6563,27.6882,391.623,27.4719,381.5898,27.9327,371.5566,28.5897,361.5234,28.6154,351.4902,28.0351,341.457,27.8488,331.4238,28.1698,321.3906,28.1862,311.3574,27.4922,301.3242,28.414,291.291,28,281.2578" style="stroke:#000000;stroke-width:2.0;"/><text fill="#000000" font-family="FG Virgil" font-size="13" font-weight="bold" lengthAdjust="spacing" textLength="32" x="43" y="294.3247">loop</text><text fill="#000000" font-family="FG Virgil" font-size="11" font-weight="bold" lengthAdjust="spacing" textLength="134" x="120" y="293.4683">[para a listaPedidos]</text><polygon fill="#383838" points="335.5,315.5234,335.526,315.5885,337.4487,316.1952,339.5239,317.1833,341.5495,318.0471,343.4117,318.5026,345.5,319.5234,345.4904,319.4994,343.4472,320.1914,341.4525,321.0047,339.4916,321.9023,337.4144,322.5095,335.5,323.5234,335.6305,323.6539,336.1514,322.5749,337.0534,321.8768,338.0018,321.2252,338.6798,320.3032,339.5,319.5234,339.5161,319.5395,338.6925,318.7159,337.9421,317.9655,337.1564,317.1798,336.438,316.4615,335.5,315.5234" style="stroke:#383838;stroke-width:1.0;"/><path d="M123.5,319.5234 L123.5,319.8037 L133.4091,318.971 L143.3182,319.7812 L153.2273,320.0563 L163.1364,318.5722 L173.0455,319.4198 L182.9545,318.9548 L192.8636,319.0121 L202.7727,319.4326 L212.6818,318.6016 L222.5909,320.2616 L232.5,318.6831 L242.4091,319.2597 L252.3182,320.0994 L262.2273,319.4091 L272.1364,319.6144 L282.0455,319.4808 L291.9545,319.7615 L301.8636,319.8423 L311.7727,320.3044 L321.6818,320.4182 L331.5909,320.4291 L341.5,319.5234 " fill="none" style="stroke:#383838;stroke-width:1.0;"/><text fill="#000000" font-family="FG Virgil" font-size="13" lengthAdjust="spacing" textLength="205" x="130.5" y="314.4575">getTempoMaximoAprov(pedido)</text><polygon fill="#383838" points="693.5,344.6563,693.526,344.7213,695.4487,345.328,697.5239,346.3161,699.5495,347.1799,701.4117,347.6355,703.5,348.6563,703.4904,348.6322,701.4472,349.3243,699.4525,350.1376,697.4916,351.0352,695.4144,351.6423,693.5,352.6563,693.6305,352.7867,694.1514,351.7077,695.0534,351.0096,696.0018,350.3581,696.6798,349.436,697.5,348.6563,697.5161,348.6723,696.6925,347.8487,695.9421,347.0983,695.1564,346.3126,694.438,345.5943,693.5,344.6563" style="stroke:#383838;stroke-width:1.0;"/><path d="M357.5,348.6563 L357.5,348.9365 L367.5588,348.1038 L377.6176,348.914 L387.6765,349.1892 L397.7353,347.7051 L407.7941,348.5526 L417.8529,348.0876 L427.9118,348.1449 L437.9706,348.5654 L448.0294,347.7344 L458.0882,349.3944 L468.1471,347.8159 L478.2059,348.3926 L488.2647,349.2322 L498.3235,348.5419 L508.3824,348.7472 L518.4412,348.6137 L528.5,348.8943 L538.5588,348.9751 L548.6176,349.4372 L558.6765,349.551 L568.7353,349.5619 L578.7941,348.9958 L588.8529,349.2744 L598.9118,349.5926 L608.9706,347.6947 L619.0294,349.5609 L629.0882,348.2609 L639.1471,349.368 L649.2059,347.9962 L659.2647,348.5649 L669.3235,349.6451 L679.3824,348.5913 L689.4412,348.7967 L699.5,348.6563 " fill="none" style="stroke:#383838;stroke-width:1.0;"/><text fill="#000000" font-family="FG Virgil" font-size="13" lengthAdjust="spacing" textLength="329" x="364.5" y="343.5903">tempoMaxAprov = getTempoMaximoAprov(pedido)</text><polygon fill="#383838" points="335.5,403.7891,335.526,403.8541,337.4487,404.4608,339.5239,405.4489,341.5495,406.3128,343.4117,406.7683,345.5,407.7891,345.4904,407.765,343.4472,408.4571,341.4525,409.2704,339.4916,410.168,337.4144,410.7751,335.5,411.7891,335.6305,411.9196,336.1514,410.8405,337.0534,410.1424,338.0018,409.4909,338.6798,408.5688,339.5,407.7891,339.5161,407.8051,338.6925,406.9815,337.9421,406.2311,337.1564,405.4454,336.438,404.7271,335.5,403.7891" style="stroke:#383838;stroke-width:1.0;"/><path d="M123.5,407.7891 L123.5,408.0693 L133.4091,407.2366 L143.3182,408.0468 L153.2273,408.322 L163.1364,406.8379 L173.0455,407.6854 L182.9545,407.2204 L192.8636,407.2777 L202.7727,407.6982 L212.6818,406.8672 L222.5909,408.5273 L232.5,406.9487 L242.4091,407.5254 L252.3182,408.365 L262.2273,407.6747 L272.1364,407.88 L282.0455,407.7465 L291.9545,408.0271 L301.8636,408.1079 L311.7727,408.57 L321.6818,408.6838 L331.5909,408.6947 L341.5,407.7891 " fill="none" style="stroke:#383838;stroke-width:1.0;"/><text fill="#000000" font-family="FG Virgil" font-size="13" lengthAdjust="spacing" textLength="191" x="130.5" y="402.7231">getTempoMaximoRes(pedido)</text><polygon fill="#383838" points="693.5,432.9219,693.526,432.9869,695.4487,433.5936,697.5239,434.5817,699.5495,435.4456,701.4117,435.9011,703.5,436.9219,703.4904,436.8978,701.4472,437.5899,699.4525,438.4032,697.4916,439.3008,695.4144,439.9079,693.5,440.9219,693.6305,441.0524,694.1514,439.9733,695.0534,439.2753,696.0018,438.6237,696.6798,437.7017,697.5,436.9219,697.5161,436.938,696.6925,436.1143,695.9421,435.364,695.1564,434.5782,694.438,433.8599,693.5,432.9219" style="stroke:#383838;stroke-width:1.0;"/><path d="M357.5,436.9219 L357.5,437.2021 L367.5588,436.3694 L377.6176,437.1796 L387.6765,437.4548 L397.7353,435.9707 L407.7941,436.8183 L417.8529,436.3532 L427.9118,436.4105 L437.9706,436.831 L448.0294,436 L458.0882,437.6601 L468.1471,436.0815 L478.2059,436.6582 L488.2647,437.4978 L498.3235,436.8075 L508.3824,437.0129 L518.4412,436.8793 L528.5,437.1599 L538.5588,437.2407 L548.6176,437.7028 L558.6765,437.8166 L568.7353,437.8276 L578.7941,437.2614 L588.8529,437.54 L598.9118,437.8582 L608.9706,435.9603 L619.0294,437.8266 L629.0882,436.5265 L639.1471,437.6336 L649.2059,436.2618 L659.2647,436.8305 L669.3235,437.9107 L679.3824,436.8569 L689.4412,437.0623 L699.5,436.9219 " fill="none" style="stroke:#383838;stroke-width:1.0;"/><text fill="#000000" font-family="FG Virgil" font-size="13" lengthAdjust="spacing" textLength="301" x="364.5" y="431.856">tempoMaxRes = getTempoMaximoRes(pedido)</text><polygon fill="#383838" points="335.5,492.0547,335.526,492.1197,337.4487,492.7265,339.5239,493.7145,341.5495,494.5784,343.4117,495.0339,345.5,496.0547,345.4904,496.0306,343.4472,496.7227,341.4525,497.536,339.4916,498.4336,337.4144,499.0407,335.5,500.0547,335.6305,500.1852,336.1514,499.1061,337.0534,498.4081,338.0018,497.7565,338.6798,496.8345,339.5,496.0547,339.5161,496.0708,338.6925,495.2472,337.9421,494.4968,337.1564,493.7111,336.438,492.9927,335.5,492.0547" style="stroke:#383838;stroke-width:1.0;"/><path d="M123.5,496.0547 L123.5,496.3349 L133.4091,495.5023 L143.3182,496.3124 L153.2273,496.5876 L163.1364,495.1035 L173.0455,495.9511 L182.9545,495.486 L192.8636,495.5434 L202.7727,495.9638 L212.6818,495.1329 L222.5909,496.7929 L232.5,495.2143 L242.4091,495.791 L252.3182,496.6306 L262.2273,495.9403 L272.1364,496.1457 L282.0455,496.0121 L291.9545,496.2927 L301.8636,496.3735 L311.7727,496.8356 L321.6818,496.9494 L331.5909,496.9604 L341.5,496.0547 " fill="none" style="stroke:#383838;stroke-width:1.0;"/><text fill="#000000" font-family="FG Virgil" font-size="13" lengthAdjust="spacing" textLength="182" x="130.5" y="490.9888">getTarefasDoPedido(pedido)</text><polygon fill="#383838" points="693.5,521.1875,693.526,521.2525,695.4487,521.8593,697.5239,522.8473,699.5495,523.7112,701.4117,524.1667,703.5,525.1875,703.4904,525.1634,701.4472,525.8555,699.4525,526.6688,697.4916,527.5664,695.4144,528.1735,693.5,529.1875,693.6305,529.318,694.1514,528.2389,695.0534,527.5409,696.0018,526.8893,696.6798,525.9673,697.5,525.1875,697.5161,525.2036,696.6925,524.38,695.9421,523.6296,695.1564,522.8439,694.438,522.1255,693.5,521.1875" style="stroke:#383838;stroke-width:1.0;"/><path d="M357.5,525.1875 L357.5,525.4677 L367.5588,524.6351 L377.6176,525.4452 L387.6765,525.7204 L397.7353,524.2363 L407.7941,525.0839 L417.8529,524.6188 L427.9118,524.6762 L437.9706,525.0966 L448.0294,524.2657 L458.0882,525.9257 L468.1471,524.3471 L478.2059,524.9238 L488.2647,525.7634 L498.3235,525.0731 L508.3824,525.2785 L518.4412,525.1449 L528.5,525.4255 L538.5588,525.5063 L548.6176,525.9684 L558.6765,526.0822 L568.7353,526.0932 L578.7941,525.527 L588.8529,525.8056 L598.9118,526.1238 L608.9706,524.2259 L619.0294,526.0922 L629.0882,524.7922 L639.1471,525.8992 L649.2059,524.5275 L659.2647,525.0962 L669.3235,526.1763 L679.3824,525.1225 L689.4412,525.3279 L699.5,525.1875 " fill="none" style="stroke:#383838;stroke-width:1.0;"/><text fill="#000000" font-family="FG Virgil" font-size="13" lengthAdjust="spacing" textLength="293" x="364.5" y="520.1216">listaAtividades = getTarefasDoPedido(pedido)</text><path d="M38,570.1875 L38,570.748 L47.625,569.0826 L57.25,570.7029 L66.875,571.2533 L76.5,568.2851 L86.125,569.9803 L95.75,569.0502 L105.375,569.1648 L115,570.1875 L114.9394,570.1875 L114.3854,571.5875 L115.4921,572.9875 L114.4398,574.3875 L114.8242,575.7875 L115,577.1875 L115.2715,577.459 L112.9461,579.1336 L111.0429,581.2304 L108.9799,583.1674 L107.1122,585.2997 L105,587.1875 L105,587.8252 L95.4286,588.7493 L85.8571,588.977 L76.2857,588.9989 L66.7143,587.8665 L57.1429,588.4237 L47.5714,589.0601 L38,587.1875 L37.3589,587.1875 L38.6031,583.7875 L37.7364,580.3875 L38.4745,576.9875 L37.56,573.5875 L38,570.1875 " fill="#EEEEEE" style="stroke:#000000;stroke-width:1.0;"/><polygon fill="none" points="38,570.1875,38,570.3977,47.9533,569.7732,57.9067,570.3808,67.86,570.5872,77.8133,569.4741,87.7667,570.1098,97.72,569.761,107.6733,569.804,117.6267,570.1193,127.58,569.4961,137.5333,570.7411,147.4867,569.5572,157.44,569.9897,167.3933,570.6194,177.3467,570.1017,187.3,570.2557,197.2533,570.1556,207.2067,570.366,217.16,570.4266,227.1133,570.7732,237.0667,570.8586,247.02,570.8668,256.9733,570.4421,266.9267,570.6511,276.88,570.8897,286.8333,569.4663,296.7867,570.866,306.74,569.891,316.6933,570.7213,326.6467,569.6925,336.6,570.119,346.5533,570.9291,356.5067,570.1388,366.46,570.2928,376.4133,570.5261,386.3667,570.6037,396.32,570.1836,406.2733,570.4747,416.2267,569.6151,426.18,570.4719,436.1333,570.7357,446.0867,570.632,456.04,570.8005,465.9933,569.7044,475.9467,569.5353,485.9,569.5661,495.8533,570.1286,505.8067,569.991,515.76,570.8689,525.7133,570.0128,535.6667,569.8444,545.62,570.4158,555.5733,569.5207,565.5267,569.6684,575.48,570.8365,585.4333,570.6232,595.3867,570.922,605.34,569.8657,615.2933,570.5067,625.2467,570.7779,635.2,569.7151,645.1533,570.0916,655.1067,570.3135,665.06,570.8393,675.0133,570.1833,684.9667,570.6501,694.92,569.6337,704.8733,569.5102,714.8267,570.6911,724.78,569.4706,734.7333,570.6965,744.6867,570.3941,754.64,569.9196,764.5933,569.8337,774.5467,570.6463,784.5,570.1875,784.2007,570.1875,785.0919,579.7692,783.9473,589.3509,785.1174,598.9325,784.9843,608.5142,784.745,618.0959,784.5472,627.6776,785.2266,637.2592,785.1136,646.8409,784.6693,656.4226,784.7682,666.0043,784.5,675.5859,784.5,675.4557,774.5467,676.3024,764.5933,675.7408,754.64,675.7585,744.6867,674.9776,734.7333,675.1807,724.78,676.1167,714.8267,676.0157,704.8733,675.543,694.92,675.2638,684.9667,675.367,675.0133,674.8998,665.06,676.0007,655.1067,676.3255,645.1533,676.1123,635.2,676.2809,625.2467,675.4492,615.2933,675.6732,605.34,675.1983,595.3867,675.87,585.4333,675.8327,575.48,676.1383,565.5267,675.3563,555.5733,675.4515,545.62,676.0294,535.6667,676.1533,525.7133,675.0734,515.76,675.3921,505.8067,675.7352,495.8533,674.9751,485.9,675.9393,475.9467,675.8439,465.9933,675.4852,456.04,675.7282,446.0867,676.3146,436.1333,675.2731,426.18,675.9009,416.2267,675.8716,406.2733,675.7017,396.32,675.7269,386.3667,675.6994,376.4133,674.9618,366.46,675.1851,356.5067,675.1244,346.5533,675.6498,336.6,675.6741,326.6467,675.7477,316.6933,675.295,306.74,675.5184,296.7867,675.4657,286.8333,676.1628,276.88,676.0125,266.9267,675.1004,256.9733,675.513,247.02,675.0087,237.0667,675.8743,227.1133,676.1944,217.16,676.1305,207.2067,675.1504,197.2533,676.0499,187.3,674.8431,177.3467,675.7861,167.3933,675.2866,157.44,675.6827,147.4867,675.8263,137.5333,676.058,127.58,674.866,117.6267,676.0614,107.6733,675.7641,97.72,675.9413,87.7667,676.3337,77.8133,675.5914,67.86,675.7612,57.9067,675.7994,47.9533,675.7832,38,675.5859,37.9992,675.5859,38.7107,666.0043,37.3903,656.4226,38.5653,646.8409,37.376,637.2592,37.4597,627.6776,38.04,618.0959,38.0283,608.5142,37.5072,598.9325,38.4137,589.3509,38.1089,579.7692,38,570.1875" style="stroke:#000000;stroke-width:2.0;"/><text fill="#000000" font-family="FG Virgil" font-size="13" font-weight="bold" lengthAdjust="spacing" textLength="32" x="53" y="583.2544">loop</text><text fill="#000000" font-family="FG Virgil" font-size="11" font-weight="bold" lengthAdjust="spacing" textLength="150" x="130" y="582.3979">[para a listaAtividades]</text><polygon fill="#383838" points="335.5,604.4531,335.526,604.5182,337.4487,605.1249,339.5239,606.1129,341.5495,606.9768,343.4117,607.4323,345.5,608.4531,345.4904,608.4291,343.4472,609.1211,341.4525,609.9344,339.4916,610.832,337.4144,611.4392,335.5,612.4531,335.6305,612.5836,336.1514,611.5046,337.0534,610.8065,338.0018,610.1549,338.6798,609.2329,339.5,608.4531,339.5161,608.4692,338.6925,607.6456,337.9421,606.8952,337.1564,606.1095,336.438,605.3912,335.5,604.4531" style="stroke:#383838;stroke-width:1.0;"/><path d="M123.5,608.4531 L123.5,608.7334 L133.4091,607.9007 L143.3182,608.7108 L153.2273,608.986 L163.1364,607.5019 L173.0455,608.3495 L182.9545,607.8845 L192.8636,607.9418 L202.7727,608.3622 L212.6818,607.5313 L222.5909,609.1913 L232.5,607.6128 L242.4091,608.1894 L252.3182,609.0291 L262.2273,608.3388 L272.1364,608.5441 L282.0455,608.4105 L291.9545,608.6912 L301.8636,608.772 L311.7727,609.234 L321.6818,609.3479 L331.5909,609.3588 L341.5,608.4531 " fill="none" style="stroke:#383838;stroke-width:1.0;"/><text fill="#000000" font-family="FG Virgil" font-size="13" lengthAdjust="spacing" textLength="191" x="130.5" y="603.3872">getTempoDaTarefa(atividade)</text><polygon fill="#383838" points="693.5,633.5859,693.526,633.651,695.4487,634.2577,697.5239,635.2458,699.5495,636.1096,701.4117,636.5651,703.5,637.5859,703.4904,637.5619,701.4472,638.2539,699.4525,639.0672,697.4916,639.9648,695.4144,640.572,693.5,641.5859,693.6305,641.7164,694.1514,640.6374,695.0534,639.9393,696.0018,639.2877,696.6798,638.3657,697.5,637.5859,697.5161,637.602,696.6925,636.7784,695.9421,636.028,695.1564,635.2423,694.438,634.524,693.5,633.5859" style="stroke:#383838;stroke-width:1.0;"/><path d="M357.5,637.5859 L357.5,637.8662 L367.5588,637.0335 L377.6176,637.8437 L387.6765,638.1188 L397.7353,636.6347 L407.7941,637.4823 L417.8529,637.0173 L427.9118,637.0746 L437.9706,637.4951 L448.0294,636.6641 L458.0882,638.3241 L468.1471,636.7456 L478.2059,637.3222 L488.2647,638.1619 L498.3235,637.4716 L508.3824,637.6769 L518.4412,637.5433 L528.5,637.824 L538.5588,637.9048 L548.6176,638.3669 L558.6765,638.4807 L568.7353,638.4916 L578.7941,637.9254 L588.8529,638.2041 L598.9118,638.5222 L608.9706,636.6244 L619.0294,638.4906 L629.0882,637.1906 L639.1471,638.2977 L649.2059,636.9259 L659.2647,637.4946 L669.3235,638.5747 L679.3824,637.521 L689.4412,637.7263 L699.5,637.5859 " fill="none" style="stroke:#383838;stroke-width:1.0;"/><text fill="#000000" font-family="FG Virgil" font-size="13" lengthAdjust="spacing" textLength="292" x="364.5" y="632.52">tempoTarefa = getTempoDaTarefa(atividade)</text><!--MD5=[7efbeb71682cfa13678cb63b2d6771a1]
@startuml
'http://plantuml.com/skinparam.html
skinparam handwritten true
skinparam monochrome true
skinparam packageStyle rect
skinparam defaultFontName FG Virgil
skinparam shadowing false

participant CumprimentoSlaUI as UI <<presentation>>
control CumprimentoSlaController as CTRL <<application>>
database PedidoRepository as PRepository <<repository>>

activate UI

UI -> UI : doShow()
 note over CTRL: Para efeitos de simplificação do diagrama, não foram representadas todas as classes repository,\n a classe persistence e a classe factory, tendo sido utilizado o procedimento dos casos de uso do sprint B
UI -> CTRL: getAllPedidoConcluido()
    activate CTRL
    CTRL -> PRepository: listaPedidos = getAllPedidoConcluido()
      activate PRepository
      deactivate PRepository
    deactivate CTRL
    
loop para a listaPedidos
UI -> CTRL: getTempoMaximoAprov(pedido)
    activate CTRL
    CTRL -> PRepository: tempoMaxAprov = getTempoMaximoAprov(pedido)
      activate PRepository
      deactivate PRepository
    deactivate CTRL

UI -> CTRL: getTempoMaximoRes(pedido)
    activate CTRL
    CTRL -> PRepository: tempoMaxRes = getTempoMaximoRes(pedido)
      activate PRepository
      deactivate PRepository
    deactivate CTRL

UI -> CTRL: getTarefasDoPedido(pedido)
    activate CTRL
    CTRL -> PRepository: listaAtividades = getTarefasDoPedido(pedido)
      activate PRepository
      deactivate PRepository
    deactivate CTRL

loop para a listaAtividades
UI -> CTRL: getTempoDaTarefa(atividade)
    activate CTRL
    CTRL -> PRepository: tempoTarefa = getTempoDaTarefa(atividade)
      activate PRepository
      deactivate PRepository
    deactivate CTRL
end
end

deactivate UI
@enduml

@startuml
skinparam handwritten true
skinparam monochrome true
skinparam packageStyle rect
skinparam defaultFontName FG Virgil
skinparam shadowing false

participant CumprimentoSlaUI as UI <<presentation>>
control CumprimentoSlaController as CTRL <<application>>
database PedidoRepository as PRepository <<repository>>

activate UI

UI -> UI : doShow()
 note over CTRL: Para efeitos de simplificação do diagrama, não foram representadas todas as classes repository,\n a classe persistence e a classe factory, tendo sido utilizado o procedimento dos casos de uso do sprint B
UI -> CTRL: getAllPedidoConcluido()
    activate CTRL
    CTRL -> PRepository: listaPedidos = getAllPedidoConcluido()
      activate PRepository
      deactivate PRepository
    deactivate CTRL
    
loop para a listaPedidos
UI -> CTRL: getTempoMaximoAprov(pedido)
    activate CTRL
    CTRL -> PRepository: tempoMaxAprov = getTempoMaximoAprov(pedido)
      activate PRepository
      deactivate PRepository
    deactivate CTRL

UI -> CTRL: getTempoMaximoRes(pedido)
    activate CTRL
    CTRL -> PRepository: tempoMaxRes = getTempoMaximoRes(pedido)
      activate PRepository
      deactivate PRepository
    deactivate CTRL

UI -> CTRL: getTarefasDoPedido(pedido)
    activate CTRL
    CTRL -> PRepository: listaAtividades = getTarefasDoPedido(pedido)
      activate PRepository
      deactivate PRepository
    deactivate CTRL

loop para a listaAtividades
UI -> CTRL: getTempoDaTarefa(atividade)
    activate CTRL
    CTRL -> PRepository: tempoTarefa = getTempoDaTarefa(atividade)
      activate PRepository
      deactivate PRepository
    deactivate CTRL
end
end

deactivate UI
@enduml

PlantUML version 1.2021.7(Sun May 23 12:40:07 UTC 2021)
(GPL source distribution)
Java Runtime: OpenJDK Runtime Environment
JVM: OpenJDK 64-Bit Server VM
Default Encoding: UTF-8
Language: en
Country: US
--></g></svg>