<?xml version="1.0" encoding="UTF-8" standalone="no"?><svg xmlns="http://www.w3.org/2000/svg" xmlns:xlink="http://www.w3.org/1999/xlink" contentScriptType="application/ecmascript" contentStyleType="text/css" height="784px" preserveAspectRatio="none" style="width:913px;height:784px;background:#FFFFFF;" version="1.1" viewBox="0 0 913 784" width="913px" zoomAndPan="magnify"><defs/><g><polygon fill="#FFFFFF" points="95.5,93.5938,95.5,93.6638,97.5,93.4556,99.5,93.6582,101.5,93.727,103.5,93.356,105.5,93.5938,105.4223,93.5938,105.0735,103.527,105.1165,113.4602,105.4318,123.3934,104.8086,133.3266,106.0536,143.2598,104.8697,153.193,105.3022,163.1262,105.9319,173.0594,105.4142,182.9926,105.5682,192.9258,105.4681,202.859,105.6785,212.7922,105.7391,222.7254,106.0857,232.6586,106.1711,242.5918,106.1793,252.525,105.7546,262.4582,105.9636,272.3914,106.2022,282.3246,104.7788,292.2578,106.1785,302.191,105.2035,312.1242,106.0338,322.0574,105.005,331.9906,105.4315,341.9238,106.2416,351.857,105.4513,361.7902,105.6053,371.7234,105.8386,381.6566,105.9162,391.5898,105.4961,401.523,105.7872,411.4563,104.9276,421.3895,105.7844,431.3227,106.0482,441.2559,105.9445,451.1891,106.113,461.1223,105.0169,471.0555,104.8478,480.9887,104.8786,490.9219,105.4411,500.8551,105.3035,510.7883,106.1814,520.7215,105.3253,530.6547,105.1569,540.5879,105.7283,550.5211,104.8332,560.4543,104.9809,570.3875,106.149,580.3207,105.9357,590.2539,106.2345,600.1871,105.1782,610.1203,105.8192,620.0535,106.0904,629.9867,105.0276,639.9199,105.4041,649.8531,105.626,659.7863,106.1518,669.7195,105.4958,679.6527,105.5,689.5859,105.5,689.7401,103.5,689.4013,101.5,689.3602,99.5,689.7538,97.5,689.347,95.5,689.5859,96.009,689.5859,95.7066,679.6527,95.2321,669.7195,95.1462,659.7863,95.9588,649.8531,95.2007,639.9199,96.0919,629.9867,94.9473,620.0535,96.1174,610.1203,95.9843,600.1871,95.745,590.2539,95.5472,580.3207,96.2266,570.3875,96.1136,560.4543,95.6693,550.5211,95.7682,540.5879,95.3697,530.6547,96.2165,520.7215,95.6549,510.7883,95.6726,500.8551,94.8916,490.9219,95.0948,480.9887,96.0307,471.0555,95.9298,461.1223,95.4571,451.1891,95.1778,441.2559,95.2811,431.3227,94.8138,421.3895,95.9147,411.4563,96.2396,401.523,96.0264,391.5898,96.1949,381.6566,95.3633,371.7234,95.5872,361.7902,95.1124,351.857,95.784,341.9238,95.7468,331.9906,96.0524,322.0574,95.2703,312.1242,95.3656,302.191,95.9435,292.2578,96.0673,282.3246,94.9875,272.3914,95.3061,262.4582,95.6493,252.525,94.8892,242.5918,95.8534,232.6586,95.758,222.7254,95.3992,212.7922,95.6422,202.859,96.2287,192.9258,95.1871,182.9926,95.815,173.0594,95.7856,163.1262,95.6158,153.193,95.6409,143.2598,95.6135,133.3266,94.8758,123.3934,95.0992,113.4602,95.0385,103.527,95.5,93.5938" style="stroke:#383838;stroke-width:1.0;"/><polygon fill="#FFFFFF" points="409.5,207.125,409.5,207.1951,411.5,206.9869,413.5,207.1894,415.5,207.2582,417.5,206.8872,419.5,207.125,419.4223,207.125,419.0735,216.9805,419.1165,226.8359,419.4318,236.6914,418.8086,246.5469,420.0536,256.4023,419.5,266.2578,419.5,266.0477,417.5,266.1919,415.5,266.4018,413.5,266.2292,411.5,266.2806,409.5,266.2578,409.4681,266.2578,409.6785,256.4023,409.7391,246.5469,410.0857,236.6914,410.1711,226.8359,410.1793,216.9805,409.5,207.125" style="stroke:#383838;stroke-width:1.0;"/><polygon fill="#FFFFFF" points="409.5,319.5234,409.5,319.5935,411.5,319.3853,413.5,319.5879,415.5,319.6567,417.5,319.2856,419.5,319.5234,419.4223,319.5234,419.0735,329.3789,419.1165,339.2344,419.4318,349.0898,418.8086,358.9453,420.0536,368.8008,419.5,378.6563,419.5,378.4462,417.5,378.5903,415.5,378.8002,413.5,378.6277,411.5,378.679,409.5,378.6563,409.4681,378.6563,409.6785,368.8008,409.7391,358.9453,410.0857,349.0898,410.1711,339.2344,410.1793,329.3789,409.5,319.5234" style="stroke:#383838;stroke-width:1.0;"/><polygon fill="#FFFFFF" points="409.5,407.7891,409.5,407.8591,411.5,407.651,413.5,407.8535,415.5,407.9223,417.5,407.5513,419.5,407.7891,419.4223,407.7891,419.0735,417.6445,419.1165,427.5,419.4318,437.3555,418.8086,447.2109,420.0536,457.0664,419.5,466.9219,419.5,466.7118,417.5,466.856,415.5,467.0659,413.5,466.8933,411.5,466.9446,409.5,466.9219,409.4681,466.9219,409.6785,457.0664,409.7391,447.2109,410.0857,437.3555,410.1711,427.5,410.1793,417.6445,409.5,407.7891" style="stroke:#383838;stroke-width:1.0;"/><polygon fill="#FFFFFF" points="409.5,496.0547,409.5,496.1247,411.5,495.9166,413.5,496.1191,415.5,496.1879,417.5,495.8169,419.5,496.0547,419.4223,496.0547,419.0735,505.9102,419.1165,515.7656,419.4318,525.6211,418.8086,535.4766,420.0536,545.332,419.5,555.1875,419.5,554.9774,417.5,555.1216,415.5,555.3315,413.5,555.1589,411.5,555.2102,409.5,555.1875,409.4681,555.1875,409.6785,545.332,409.7391,535.4766,410.0857,525.6211,410.1711,515.7656,410.1793,505.9102,409.5,496.0547" style="stroke:#383838;stroke-width:1.0;"/><polygon fill="#FFFFFF" points="409.5,608.4531,409.5,608.5232,411.5,608.315,413.5,608.5176,415.5,608.5864,417.5,608.2153,419.5,608.4531,419.4223,608.4531,419.0735,618.3086,419.1165,628.1641,419.4318,638.0195,418.8086,647.875,420.0536,657.7305,419.5,667.5859,419.5,667.3758,417.5,667.52,415.5,667.7299,413.5,667.5573,411.5,667.6087,409.5,667.5859,409.4681,667.5859,409.6785,657.7305,409.7391,647.875,410.0857,638.0195,410.1711,628.1641,410.1793,618.3086,409.5,608.4531" style="stroke:#383838;stroke-width:1.0;"/><polygon fill="#FFFFFF" points="818.5,236.2578,818.5,236.3279,820.5,236.1197,822.5,236.3222,824.5,236.391,826.5,236.02,828.5,236.2578,828.4741,236.2578,828.3578,242.2578,828.3722,248.2578,828.4773,254.2578,828.2695,260.2578,828.5,266.2578,828.5,266.4424,826.5,266.0477,824.5,266.1919,822.5,266.4018,820.5,266.2292,818.5,266.2578,818.5227,266.2578,818.4894,260.2578,818.5595,254.2578,818.5797,248.2578,818.6952,242.2578,818.5,236.2578" style="stroke:#383838;stroke-width:1.0;"/><polygon fill="#FFFFFF" points="818.5,348.6563,818.5,348.7263,820.5,348.5181,822.5,348.7207,824.5,348.7895,826.5,348.4185,828.5,348.6563,828.4741,348.6563,828.3578,354.6563,828.3722,360.6563,828.4773,366.6563,828.2695,372.6563,828.5,378.6563,828.5,378.8408,826.5,378.4462,824.5,378.5903,822.5,378.8002,820.5,378.6277,818.5,378.6563,818.5227,378.6563,818.4894,372.6563,818.5595,366.6563,818.5797,360.6563,818.6952,354.6563,818.5,348.6563" style="stroke:#383838;stroke-width:1.0;"/><polygon fill="#FFFFFF" points="818.5,436.9219,818.5,436.9919,820.5,436.7838,822.5,436.9863,824.5,437.0551,826.5,436.6841,828.5,436.9219,828.4741,436.9219,828.3578,442.9219,828.3722,448.9219,828.4773,454.9219,828.2695,460.9219,828.5,466.9219,828.5,467.1064,826.5,466.7118,824.5,466.856,822.5,467.0659,820.5,466.8933,818.5,466.9219,818.5227,466.9219,818.4894,460.9219,818.5595,454.9219,818.5797,448.9219,818.6952,442.9219,818.5,436.9219" style="stroke:#383838;stroke-width:1.0;"/><polygon fill="#FFFFFF" points="818.5,525.1875,818.5,525.2576,820.5,525.0494,822.5,525.2519,824.5,525.3207,826.5,524.9497,828.5,525.1875,828.4741,525.1875,828.3578,531.1875,828.3722,537.1875,828.4773,543.1875,828.2695,549.1875,828.5,555.1875,828.5,555.372,826.5,554.9774,824.5,555.1216,822.5,555.3315,820.5,555.1589,818.5,555.1875,818.5227,555.1875,818.4894,549.1875,818.5595,543.1875,818.5797,537.1875,818.6952,531.1875,818.5,525.1875" style="stroke:#383838;stroke-width:1.0;"/><polygon fill="#FFFFFF" points="818.5,637.5859,818.5,637.656,820.5,637.4478,822.5,637.6504,824.5,637.7192,826.5,637.3481,828.5,637.5859,828.4741,637.5859,828.3578,643.5859,828.3722,649.5859,828.4773,655.5859,828.2695,661.5859,828.5,667.5859,828.5,667.7705,826.5,667.3758,824.5,667.52,822.5,667.7299,820.5,667.5573,818.5,667.5859,818.5227,667.5859,818.4894,661.5859,818.5595,655.5859,818.5797,649.5859,818.6952,643.5859,818.5,637.5859" style="stroke:#383838;stroke-width:1.0;"/><polygon fill="#FFFFFF" points="10,281.2578,10,281.468,19.9722,280.8435,29.9444,281.4511,39.9167,281.6575,49.8889,280.5444,59.8611,281.1801,69.8333,280.8313,79.8056,280.8743,89.7778,281.1897,99.75,280.5664,109.7222,281.8115,119.6944,280.6275,129.6667,281.06,139.6389,281.6898,149.6111,281.172,159.5833,281.3261,169.5556,281.2259,179.5278,281.4363,189.5,281.4969,199.4722,281.8435,209.4444,281.9289,219.4167,281.9371,229.3889,281.5124,239.3611,281.7214,249.3333,281.96,259.3056,280.5366,269.2778,281.9363,279.25,280.9613,289.2222,281.7916,299.1944,280.7628,309.1667,281.1893,319.1389,281.9994,329.1111,281.2091,339.0833,281.3631,349.0556,281.5964,359.0278,281.674,369,281.2539,378.9722,281.545,388.9444,280.6854,398.9167,281.5422,408.8889,281.806,418.8611,281.7023,428.8333,281.8708,438.8056,280.7747,448.7778,280.6056,458.75,280.6364,468.7222,281.1989,478.6944,281.0613,488.6667,281.9392,498.6389,281.0831,508.6111,280.9148,518.5833,281.4861,528.5556,280.591,538.5278,280.7387,548.5,281.9068,558.4722,281.6935,568.4444,281.9923,578.4167,280.936,588.3889,281.577,598.3611,281.8482,608.3333,280.7854,618.3056,281.162,628.2778,281.3838,638.25,281.9096,648.2222,281.2536,658.1944,281.7204,668.1667,280.704,678.1389,280.5806,688.1111,281.7614,698.0833,280.5409,708.0556,281.7668,718.0278,281.4644,728,280.9899,737.9722,280.904,747.9444,281.7166,757.9167,280.9585,767.8889,281.8497,777.8611,280.7051,787.8333,281.8752,797.8056,281.7421,807.7778,281.5028,817.75,281.305,827.7222,281.9844,837.6944,281.8714,847.6667,281.4271,857.6389,281.526,867.6111,281.1275,877.5833,281.9743,887.5556,281.4127,897.5278,281.4304,907.5,281.2578,906.8916,281.2578,907.0948,291.291,908.0307,301.3242,907.9298,311.3574,907.4571,321.3906,907.1778,331.4238,907.2811,341.457,906.8138,351.4902,907.9147,361.5234,908.2396,371.5566,908.0264,381.5898,908.1949,391.623,907.3633,401.6563,907.5872,411.6895,907.1124,421.7227,907.784,431.7559,907.7468,441.7891,908.0524,451.8223,907.2703,461.8555,907.3656,471.8887,907.9435,481.9219,908.0673,491.9551,906.9875,501.9883,907.3061,512.0215,907.6493,522.0547,906.8892,532.0879,907.8534,542.1211,907.758,552.1543,907.3992,562.1875,907.6422,572.2207,908.2287,582.2539,907.1871,592.2871,907.815,602.3203,907.7856,612.3535,907.6158,622.3867,907.6409,632.4199,907.6135,642.4531,906.8758,652.4863,907.0992,662.5195,907.0385,672.5527,907.5,682.5859,907.5,682.6498,897.5278,682.6741,887.5556,682.7477,877.5833,682.295,867.6111,682.5184,857.6389,682.4657,847.6667,683.1628,837.6944,683.0125,827.7222,682.1004,817.75,682.513,807.7778,682.0087,797.8056,682.8743,787.8333,683.1944,777.8611,683.1305,767.8889,682.1504,757.9167,683.0499,747.9444,681.8431,737.9722,682.7861,728,682.2866,718.0278,682.6827,708.0556,682.8263,698.0833,683.058,688.1111,681.866,678.1389,683.0614,668.1667,682.7641,658.1944,682.9413,648.2222,683.3337,638.25,682.5914,628.2778,682.7612,618.3056,682.7994,608.3333,682.7832,598.3611,682.5851,588.3889,683.2966,578.4167,681.9762,568.4444,683.1512,558.4722,681.9619,548.5,682.0456,538.5278,682.6259,528.5556,682.6142,518.5833,682.0931,508.6111,682.9997,498.6389,682.6948,488.6667,683.3126,478.6944,683.253,468.7222,682.1377,458.75,682.188,448.7778,682.4568,438.8056,682.9415,428.8333,682.9889,418.8611,682.8871,408.8889,682.244,398.9167,683.2223,388.9444,683.2197,378.9722,682.5387,369,682.3469,359.0278,682.1846,349.0556,682.3714,339.0833,682.7234,329.1111,682.5175,319.1389,682.1681,309.1667,683.0733,299.1944,682.127,289.2222,683.0883,279.25,683.0132,269.2778,682.9578,259.3056,683.2784,249.3333,682.3401,239.3611,682.2853,229.3889,683.1048,219.4167,681.989,209.4444,682.3519,199.4722,682.7014,189.5,682.6546,179.5278,682.2275,169.5556,682.543,159.5833,683.3305,149.6111,683.2344,139.6389,681.9897,129.6667,682.6645,119.6944,682.072,109.7222,682.5596,99.75,682.8789,89.7778,683.0058,79.8056,681.9212,69.8333,682.9865,59.8611,682.5943,49.8889,682.0306,39.9167,682.1149,29.9444,682.9125,19.9722,682.8358,10,682.5859,9.9836,682.5859,9.3279,672.5527,10.6581,662.5195,9.6882,652.4863,9.4719,642.4531,9.9327,632.4199,10.5897,622.3867,10.6154,612.3535,10.0351,602.3203,9.8488,592.2871,10.1698,582.2539,10.1862,572.2207,9.4922,562.1875,10.414,552.1543,10.5588,542.1211,9.7842,532.0879,9.5708,522.0547,10.6746,512.0215,10.021,501.9883,9.9998,491.9551,10.299,481.9219,9.3543,471.8887,10.53,461.8555,9.9846,451.8223,10.6688,441.7891,9.7841,431.7559,10.409,421.7227,9.556,411.6895,10.245,401.6563,10.3793,391.623,9.6727,381.5898,10.363,371.5566,9.4286,361.5234,9.5295,351.4902,10.6828,341.457,10.6844,331.4238,10.5685,321.3906,9.6396,311.3574,10.3842,301.3242,9.5279,291.291,10,281.2578" style="stroke:#000000;stroke-width:2.0;"/><polygon fill="#FFFFFF" points="20,570.1875,20,570.3977,29.9716,569.7732,39.9432,570.3808,49.9148,570.5872,59.8864,569.4741,69.858,570.1098,79.8295,569.761,89.8011,569.804,99.7727,570.1193,109.7443,569.4961,119.7159,570.7411,129.6875,569.5572,139.6591,569.9897,149.6307,570.6194,159.6023,570.1017,169.5739,570.2557,179.5455,570.1556,189.517,570.366,199.4886,570.4266,209.4602,570.7732,219.4318,570.8586,229.4034,570.8668,239.375,570.4421,249.3466,570.6511,259.3182,570.8897,269.2898,569.4663,279.2614,570.866,289.233,569.891,299.2045,570.7213,309.1761,569.6925,319.1477,570.119,329.1193,570.9291,339.0909,570.1388,349.0625,570.2928,359.0341,570.5261,369.0057,570.6037,378.9773,570.1836,388.9489,570.4747,398.9205,569.6151,408.892,570.4719,418.8636,570.7357,428.8352,570.632,438.8068,570.8005,448.7784,569.7044,458.75,569.5353,468.7216,569.5661,478.6932,570.1286,488.6648,569.991,498.6364,570.8689,508.608,570.0128,518.5795,569.8444,528.5511,570.4158,538.5227,569.5207,548.4943,569.6684,558.4659,570.8365,568.4375,570.6232,578.4091,570.922,588.3807,569.8657,598.3523,570.5067,608.3239,570.7779,618.2955,569.7151,628.267,570.0916,638.2386,570.3135,648.2102,570.8393,658.1818,570.1833,668.1534,570.6501,678.125,569.6337,688.0966,569.5102,698.0682,570.6911,708.0398,569.4706,718.0114,570.6965,727.983,570.3941,737.9545,569.9196,747.9261,569.8337,757.8977,570.6463,767.8693,569.8882,777.8409,570.7794,787.8125,569.6348,797.7841,570.8049,807.7557,570.6718,817.7273,570.4325,827.6989,570.2347,837.6705,570.9141,847.642,570.8011,857.6136,570.3568,867.5852,570.4557,877.5568,570.0572,887.5284,570.904,897.5,570.1875,897.6549,570.1875,897.6726,579.7692,896.8916,589.3509,897.0948,598.9325,898.0307,608.5142,897.9298,618.0959,897.4571,627.6776,897.1778,637.2592,897.2811,646.8409,896.8138,656.4226,897.9147,666.0043,897.5,675.5859,897.5,676.3255,887.5284,676.1123,877.5568,676.2809,867.5852,675.4492,857.6136,675.6732,847.642,675.1983,837.6705,675.87,827.6989,675.8327,817.7273,676.1383,807.7557,675.3563,797.7841,675.4515,787.8125,676.0294,777.8409,676.1533,767.8693,675.0734,757.8977,675.3921,747.9261,675.7352,737.9545,674.9751,727.983,675.9393,718.0114,675.8439,708.0398,675.4852,698.0682,675.7282,688.0966,676.3146,678.125,675.2731,668.1534,675.9009,658.1818,675.8716,648.2102,675.7017,638.2386,675.7269,628.267,675.6994,618.2955,674.9618,608.3239,675.1851,598.3523,675.1244,588.3807,675.6498,578.4091,675.6741,568.4375,675.7477,558.4659,675.295,548.4943,675.5184,538.5227,675.4657,528.5511,676.1628,518.5795,676.0125,508.608,675.1004,498.6364,675.513,488.6648,675.0087,478.6932,675.8743,468.7216,676.1944,458.75,676.1305,448.7784,675.1504,438.8068,676.0499,428.8352,674.8431,418.8636,675.7861,408.892,675.2866,398.9205,675.6827,388.9489,675.8263,378.9773,676.058,369.0057,674.866,359.0341,676.0614,349.0625,675.7641,339.0909,675.9413,329.1193,676.3337,319.1477,675.5914,309.1761,675.7612,299.2045,675.7994,289.233,675.7832,279.2614,675.5851,269.2898,676.2966,259.3182,674.9762,249.3466,676.1512,239.375,674.9619,229.4034,675.0456,219.4318,675.6259,209.4602,675.6142,199.4886,675.0931,189.517,675.9997,179.5455,675.6948,169.5739,676.3126,159.6023,676.253,149.6307,675.1377,139.6591,675.188,129.6875,675.4568,119.7159,675.9415,109.7443,675.9889,99.7727,675.8871,89.8011,675.244,79.8295,676.2223,69.858,676.2197,59.8864,675.5387,49.9148,675.3469,39.9432,675.1846,29.9716,675.3714,20,675.5859,20.1374,675.5859,19.9316,666.0043,19.5822,656.4226,20.4874,646.8409,19.5411,637.2592,20.5024,627.6776,20.4272,618.0959,20.3719,608.5142,20.6925,598.9325,19.7541,589.3509,19.6994,579.7692,20,570.1875" style="stroke:#000000;stroke-width:2.0;"/><path d="M100,83.5938 L100.2802,83.5938 L99.4476,93.5291 L100.2577,103.4645 L100.5329,113.3998 L99.0488,123.3352 L99.8964,133.2705 L99.4313,143.2059 L99.4887,153.1413 L99.9091,163.0766 L99.0782,173.012 L100.7382,182.9473 L99.1596,192.8827 L99.7363,202.818 L100.5759,212.7534 L99.8856,222.6888 L100.091,232.6241 L99.9574,242.5595 L100.238,252.4948 L100.3188,262.4302 L100.7809,272.3655 L100.8947,282.3009 L100.9057,292.2363 L100.3395,302.1716 L100.6181,312.107 L100.9363,322.0423 L99.0384,331.9777 L100.9047,341.9131 L99.6047,351.8484 L100.7117,361.7838 L99.34,371.7191 L99.9087,381.6545 L100.9888,391.5898 L99.935,401.5252 L100.1404,411.4606 L100.4515,421.3959 L100.555,431.3313 L99.9948,441.2666 L100.383,451.202 L99.2368,461.1373 L100.3792,471.0727 L100.7309,481.0081 L100.5927,490.9434 L100.8174,500.8788 L99.3559,510.8141 L99.1304,520.7495 L99.1715,530.6849 L99.9215,540.6202 L99.738,550.5556 L100.9085,560.4909 L99.7671,570.4263 L99.5426,580.3616 L100.3044,590.297 L99.1109,600.2324 L99.3078,610.1677 L100.8653,620.1031 L100.5809,630.0384 L100.9793,639.9738 L99.5709,649.9091 L100.4256,659.8445 L100.7872,669.7799 L99.3701,679.7152 L99.8722,689.6506 L100,699.5859 " fill="none" style="stroke:#383838;stroke-width:1.0;stroke-dasharray:5.0,5.0;"/><path d="M414,83.5938 L414.2802,83.5938 L413.4476,93.5291 L414.2577,103.4645 L414.5329,113.3998 L413.0488,123.3352 L413.8964,133.2705 L413.4313,143.2059 L413.4887,153.1413 L413.9091,163.0766 L413.0782,173.012 L414.7382,182.9473 L413.1596,192.8827 L413.7363,202.818 L414.5759,212.7534 L413.8856,222.6888 L414.091,232.6241 L413.9574,242.5595 L414.238,252.4948 L414.3188,262.4302 L414.7809,272.3655 L414.8947,282.3009 L414.9057,292.2363 L414.3395,302.1716 L414.6181,312.107 L414.9363,322.0423 L413.0384,331.9777 L414.9047,341.9131 L413.6047,351.8484 L414.7117,361.7838 L413.34,371.7191 L413.9087,381.6545 L414.9888,391.5898 L413.935,401.5252 L414.1404,411.4606 L414.4515,421.3959 L414.555,431.3313 L413.9948,441.2666 L414.383,451.202 L413.2368,461.1373 L414.3792,471.0727 L414.7309,481.0081 L414.5927,490.9434 L414.8174,500.8788 L413.3559,510.8141 L413.1304,520.7495 L413.1715,530.6849 L413.9215,540.6202 L413.738,550.5556 L414.9085,560.4909 L413.7671,570.4263 L413.5426,580.3616 L414.3044,590.297 L413.1109,600.2324 L413.3078,610.1677 L414.8653,620.1031 L414.5809,630.0384 L414.9793,639.9738 L413.5709,649.9091 L414.4256,659.8445 L414.7872,669.7799 L413.3701,679.7152 L413.8722,689.6506 L414,699.5859 " fill="none" style="stroke:#383838;stroke-width:1.0;stroke-dasharray:5.0,5.0;"/><path d="M823.5,83.5938 L823.7802,83.5938 L822.9476,93.5291 L823.7577,103.4645 L824.0329,113.3998 L822.5488,123.3352 L823.3964,133.2705 L822.9313,143.2059 L822.9887,153.1413 L823.4091,163.0766 L822.5782,173.012 L824.2382,182.9473 L822.6596,192.8827 L823.2363,202.818 L824.0759,212.7534 L823.3856,222.6888 L823.591,232.6241 L823.4574,242.5595 L823.738,252.4948 L823.8188,262.4302 L824.2809,272.3655 L824.3947,282.3009 L824.4057,292.2363 L823.8395,302.1716 L824.1181,312.107 L824.4363,322.0423 L822.5384,331.9777 L824.4047,341.9131 L823.1047,351.8484 L824.2117,361.7838 L822.84,371.7191 L823.4087,381.6545 L824.4888,391.5898 L823.435,401.5252 L823.6404,411.4606 L823.9515,421.3959 L824.055,431.3313 L823.4948,441.2666 L823.883,451.202 L822.7368,461.1373 L823.8792,471.0727 L824.2309,481.0081 L824.0927,490.9434 L824.3174,500.8788 L822.8559,510.8141 L822.6304,520.7495 L822.6715,530.6849 L823.4215,540.6202 L823.238,550.5556 L824.4085,560.4909 L823.2671,570.4263 L823.0426,580.3616 L823.8044,590.297 L822.6109,600.2324 L822.8078,610.1677 L824.3653,620.1031 L824.0809,630.0384 L824.4793,639.9738 L823.0709,649.9091 L823.9256,659.8445 L824.2872,669.7799 L822.8701,679.7152 L823.3722,689.6506 L823.5,699.5859 " fill="none" style="stroke:#383838;stroke-width:1.0;stroke-dasharray:5.0,5.0;"/><polygon fill="#F8F8F8" points="30,36,30,36.2102,40.0714,35.5857,50.1429,36.1933,60.2143,36.3997,70.2857,35.2866,80.3571,35.9223,90.4286,35.5735,100.5,35.6165,110.5714,35.9318,120.6429,35.3086,130.7143,36.5536,140.7857,35.3697,150.8571,35.8022,160.9286,36.4319,171,36,170.9142,36,171.0682,45.3188,170.9681,54.6375,171.1785,63.9563,171.2391,73.275,171,82.5938,171,83.1794,160.9286,83.2648,150.8571,83.273,140.7857,82.8484,130.7143,83.0573,120.6429,83.296,110.5714,81.8726,100.5,83.2723,90.4286,82.2972,80.3571,83.1276,70.2857,82.0987,60.2143,82.5253,50.1429,83.3354,40.0714,82.545,30,82.5938,30.1053,82.5938,30.3386,73.275,30.4162,63.9563,29.9961,54.6375,30.2872,45.3188,30,36" style="stroke:#383838;stroke-width:1.5;"/><text fill="#000000" font-family="FG Virgil" font-size="14" font-style="italic" lengthAdjust="spacing" textLength="106" x="47.5" y="55.9951">«presentation»</text><text fill="#000000" font-family="FG Virgil" font-size="14" lengthAdjust="spacing" textLength="127" x="37" y="72.292">CumprimentoSlaUI</text><polygon fill="#F8F8F8" points="30,698.5859,30,698.7961,40.0714,698.1716,50.1429,698.7792,60.2143,698.9856,70.2857,697.8725,80.3571,698.5082,90.4286,698.1594,100.5,698.2024,110.5714,698.5178,120.6429,697.8946,130.7143,699.1396,140.7857,697.9557,150.8571,698.3882,160.9286,699.0179,171,698.5859,170.9142,698.5859,171.0682,707.9047,170.9681,717.2234,171.1785,726.5422,171.2391,735.8609,171,745.1797,171,745.7654,160.9286,745.8507,150.8571,745.8589,140.7857,745.4343,130.7143,745.6433,120.6429,745.8819,110.5714,744.4585,100.5,745.8582,90.4286,744.8832,80.3571,745.7135,70.2857,744.6847,60.2143,745.1112,50.1429,745.9213,40.0714,745.131,30,745.1797,30.1053,745.1797,30.3386,735.8609,30.4162,726.5422,29.9961,717.2234,30.2872,707.9047,30,698.5859" style="stroke:#383838;stroke-width:1.5;"/><text fill="#000000" font-family="FG Virgil" font-size="14" font-style="italic" lengthAdjust="spacing" textLength="106" x="47.5" y="718.5811">«presentation»</text><text fill="#000000" font-family="FG Virgil" font-size="14" lengthAdjust="spacing" textLength="127" x="37" y="734.8779">CumprimentoSlaUI</text><text fill="#000000" font-family="FG Virgil" font-size="14" font-style="italic" lengthAdjust="spacing" textLength="92" x="365.5" y="63.9951">«application»</text><text fill="#000000" font-family="FG Virgil" font-size="14" lengthAdjust="spacing" textLength="181" x="321" y="80.292">CumprimentoSlaController</text><polygon fill="#F8F8F8" points="426.5663,37.9189,424.8073,40.3223,422.7268,43.8426,419.7512,46.215,416.6244,47.5123,414.1313,47.6249,410.9269,46.0024,407.9035,44.9425,405.6086,42.7904,404.4048,40.3267,403.6909,38.3649,402.9915,35.8026,401.8564,33.5976,402.7287,31.4447,403.4929,29.0864,406.3611,27.2212,408.3789,24.8012,410.8764,23.9976,413.8456,23.3055,417.6532,23.7167,419.7386,24.7002,422.1633,25.146,425.1115,28.1665,426.1392,31.3552,426.5857,33.5309,426.08,37.1162" style="stroke:#383838;stroke-width:2.0;"/><polygon fill="#383838" points="410.5,23,410.5449,23.0538,411.6116,21.8939,412.9412,21.0495,414.1853,20.1023,415.1478,18.8173,416.5,18,416.4759,17.9904,415.968,18.9472,415.5813,19.9525,415.2789,20.9916,414.686,21.9144,414.5,23,414.6713,23.0685,414.7049,23.922,415.2388,24.9755,415.8337,26.0535,416.0735,26.9894,416.5,28,416.5146,28.0175,415.2932,26.9918,414.1381,26.0457,412.951,25.0612,411.825,24.15,410.5,23" style="stroke:#383838;stroke-width:1.0;"/><text fill="#000000" font-family="FG Virgil" font-size="14" font-style="italic" lengthAdjust="spacing" textLength="92" x="365.5" y="711.5811">«application»</text><text fill="#000000" font-family="FG Virgil" font-size="14" lengthAdjust="spacing" textLength="181" x="321" y="727.8779">CumprimentoSlaController</text><polygon fill="#F8F8F8" points="426.5663,750.0986,424.8073,752.502,422.7268,756.0223,419.7512,758.3947,416.6244,759.692,414.1313,759.8046,410.9269,758.1821,407.9035,757.1221,405.6086,754.9701,404.4048,752.5064,403.6909,750.5446,402.9915,747.9823,401.8564,745.7773,402.7287,743.6244,403.4929,741.2661,406.3611,739.4009,408.3789,736.9809,410.8764,736.1773,413.8456,735.4852,417.6532,735.8964,419.7386,736.8799,422.1633,737.3257,425.1115,740.3462,426.1392,743.5349,426.5857,745.7106,426.08,749.2959" style="stroke:#383838;stroke-width:2.0;"/><polygon fill="#383838" points="410.5,735.1797,410.5449,735.2335,411.6116,734.0736,412.9412,733.2292,414.1853,732.282,415.1478,730.997,416.5,730.1797,416.4759,730.1701,415.968,731.1269,415.5813,732.1322,415.2789,733.1712,414.686,734.0941,414.5,735.1797,414.6713,735.2482,414.7049,736.1017,415.2388,737.1552,415.8337,738.2332,416.0735,739.1691,416.5,740.1797,416.5146,740.1972,415.2932,739.1715,414.1381,738.2254,412.951,737.2409,411.825,736.3297,410.5,735.1797" style="stroke:#383838;stroke-width:1.0;"/><text fill="#000000" font-family="FG Virgil" font-size="14" font-style="italic" lengthAdjust="spacing" textLength="87" x="777" y="63.9951">«repository»</text><text fill="#000000" font-family="FG Virgil" font-size="14" lengthAdjust="spacing" textLength="122" x="759.5" y="80.292">PedidoRepository</text><path d="M805.5,15 L805.5,15 L805.5651,15.067 L807.1716,13.118 L809.1599,11.5616 L811.0238,9.8774 L812.479,7.7727 L814.5,6.25 L814.4952,6.2158 L816.2739,5.8122 L818.0766,5.5812 L819.8958,5.47 L821.6577,4.9456 L823.5,5 L823.5,5 L823.5339,5.2437 L825.2615,4.9725 L827.0879,5.4129 L828.9264,5.9402 L830.6948,5.9622 L832.5,6.25 L832.5211,6.2717 L834.2901,7.9898 L836.1553,9.8069 L837.9741,11.5762 L839.8815,13.4366 L841.5,15 L842.0965,15 L842.1038,20.2 L841.7263,25.4 L841.9121,30.6 L842.1242,35.8 L841.5,41 L841.5,41 L841.2766,40.7702 L839.9102,42.9662 L837.8081,44.4055 L836.2654,46.4201 L834.1466,47.8423 L832.5,49.75 L832.4958,49.7198 L830.7453,50.3265 L828.897,50.2285 L827.1064,50.5464 L825.3207,50.8991 L823.5,51 L823.5,51 L823.5254,51.1832 L821.6998,50.7483 L819.9176,50.6264 L818.065,49.998 L816.3174,50.1252 L814.5,49.75 L814.6698,49.9247 L812.8377,48.1417 L811.0899,46.4453 L808.9503,44.3461 L807.0979,42.5422 L805.5,41 L804.9476,41 L805.4477,35.8 L805.3253,30.6 L806.1057,25.4 L805.3447,20.2 L805.5,15 " fill="#F8F8F8" style="stroke:#000000;stroke-width:1.5;"/><path d="M805.5,15 L805.5,15 L805.5651,15.067 L807.1716,16.618 L809.1599,18.5616 L811.0238,20.3774 L812.479,21.7727 L814.5,23.75 L814.4952,23.7158 L816.2739,23.8122 L818.0766,24.0812 L819.8958,24.47 L821.6577,24.4456 L823.5,25 L823.5,25 L823.5339,25.2437 L825.2615,24.4725 L827.0879,24.4129 L828.9264,24.4402 L830.6948,23.9622 L832.5,23.75 L832.5211,23.7717 L834.2901,21.9898 L836.1553,20.3069 L837.9741,18.5762 L839.8815,16.9366 L841.5,15 " fill="none" style="stroke:#000000;stroke-width:1.5;"/><text fill="#000000" font-family="FG Virgil" font-size="14" font-style="italic" lengthAdjust="spacing" textLength="87" x="777" y="711.5811">«repository»</text><text fill="#000000" font-family="FG Virgil" font-size="14" lengthAdjust="spacing" textLength="122" x="759.5" y="727.8779">PedidoRepository</text><path d="M805.5,741.1797 L805.5,741.1797 L805.5651,741.2467 L807.1716,739.2977 L809.1599,737.7413 L811.0238,736.0571 L812.479,733.9524 L814.5,732.4297 L814.4952,732.3955 L816.2739,731.9919 L818.0766,731.7609 L819.8958,731.6497 L821.6577,731.1253 L823.5,731.1797 L823.5,731.1797 L823.5339,731.4234 L825.2615,731.1522 L827.0879,731.5926 L828.9264,732.1198 L830.6948,732.1419 L832.5,732.4297 L832.5211,732.4514 L834.2901,734.1695 L836.1553,735.9866 L837.9741,737.7559 L839.8815,739.6163 L841.5,741.1797 L842.0965,741.1797 L842.1038,746.3797 L841.7263,751.5797 L841.9121,756.7797 L842.1242,761.9797 L841.5,767.1797 L841.5,767.1797 L841.2766,766.9499 L839.9102,769.1459 L837.8081,770.5852 L836.2654,772.5998 L834.1466,774.0219 L832.5,775.9297 L832.4958,775.8995 L830.7453,776.5062 L828.897,776.4082 L827.1064,776.726 L825.3207,777.0788 L823.5,777.1797 L823.5,777.1797 L823.5254,777.3629 L821.6998,776.928 L819.9176,776.8061 L818.065,776.1777 L816.3174,776.3049 L814.5,775.9297 L814.6698,776.1044 L812.8377,774.3213 L811.0899,772.625 L808.9503,770.5257 L807.0979,768.7219 L805.5,767.1797 L804.9476,767.1797 L805.4477,761.9797 L805.3253,756.7797 L806.1057,751.5797 L805.3447,746.3797 L805.5,741.1797 " fill="#F8F8F8" style="stroke:#000000;stroke-width:1.5;"/><path d="M805.5,741.1797 L805.5,741.1797 L805.5651,741.2467 L807.1716,742.7977 L809.1599,744.7413 L811.0238,746.5571 L812.479,747.9524 L814.5,749.9297 L814.4952,749.8955 L816.2739,749.9919 L818.0766,750.2609 L819.8958,750.6497 L821.6577,750.6253 L823.5,751.1797 L823.5,751.1797 L823.5339,751.4234 L825.2615,750.6522 L827.0879,750.5926 L828.9264,750.6198 L830.6948,750.1419 L832.5,749.9297 L832.5211,749.9514 L834.2901,748.1695 L836.1553,746.4866 L837.9741,744.7559 L839.8815,743.1163 L841.5,741.1797 " fill="none" style="stroke:#000000;stroke-width:1.5;"/><polygon fill="#FFFFFF" points="95.5,93.5938,95.5,93.6638,97.5,93.4556,99.5,93.6582,101.5,93.727,103.5,93.356,105.5,93.5938,105.4223,93.5938,105.0735,103.527,105.1165,113.4602,105.4318,123.3934,104.8086,133.3266,106.0536,143.2598,104.8697,153.193,105.3022,163.1262,105.9319,173.0594,105.4142,182.9926,105.5682,192.9258,105.4681,202.859,105.6785,212.7922,105.7391,222.7254,106.0857,232.6586,106.1711,242.5918,106.1793,252.525,105.7546,262.4582,105.9636,272.3914,106.2022,282.3246,104.7788,292.2578,106.1785,302.191,105.2035,312.1242,106.0338,322.0574,105.005,331.9906,105.4315,341.9238,106.2416,351.857,105.4513,361.7902,105.6053,371.7234,105.8386,381.6566,105.9162,391.5898,105.4961,401.523,105.7872,411.4563,104.9276,421.3895,105.7844,431.3227,106.0482,441.2559,105.9445,451.1891,106.113,461.1223,105.0169,471.0555,104.8478,480.9887,104.8786,490.9219,105.4411,500.8551,105.3035,510.7883,106.1814,520.7215,105.3253,530.6547,105.1569,540.5879,105.7283,550.5211,104.8332,560.4543,104.9809,570.3875,106.149,580.3207,105.9357,590.2539,106.2345,600.1871,105.1782,610.1203,105.8192,620.0535,106.0904,629.9867,105.0276,639.9199,105.4041,649.8531,105.626,659.7863,106.1518,669.7195,105.4958,679.6527,105.5,689.5859,105.5,689.7401,103.5,689.4013,101.5,689.3602,99.5,689.7538,97.5,689.347,95.5,689.5859,96.009,689.5859,95.7066,679.6527,95.2321,669.7195,95.1462,659.7863,95.9588,649.8531,95.2007,639.9199,96.0919,629.9867,94.9473,620.0535,96.1174,610.1203,95.9843,600.1871,95.745,590.2539,95.5472,580.3207,96.2266,570.3875,96.1136,560.4543,95.6693,550.5211,95.7682,540.5879,95.3697,530.6547,96.2165,520.7215,95.6549,510.7883,95.6726,500.8551,94.8916,490.9219,95.0948,480.9887,96.0307,471.0555,95.9298,461.1223,95.4571,451.1891,95.1778,441.2559,95.2811,431.3227,94.8138,421.3895,95.9147,411.4563,96.2396,401.523,96.0264,391.5898,96.1949,381.6566,95.3633,371.7234,95.5872,361.7902,95.1124,351.857,95.784,341.9238,95.7468,331.9906,96.0524,322.0574,95.2703,312.1242,95.3656,302.191,95.9435,292.2578,96.0673,282.3246,94.9875,272.3914,95.3061,262.4582,95.6493,252.525,94.8892,242.5918,95.8534,232.6586,95.758,222.7254,95.3992,212.7922,95.6422,202.859,96.2287,192.9258,95.1871,182.9926,95.815,173.0594,95.7856,163.1262,95.6158,153.193,95.6409,143.2598,95.6135,133.3266,94.8758,123.3934,95.0992,113.4602,95.0385,103.527,95.5,93.5938" style="stroke:#383838;stroke-width:1.0;"/><polygon fill="#FFFFFF" points="409.5,207.125,409.5,207.1951,411.5,206.9869,413.5,207.1894,415.5,207.2582,417.5,206.8872,419.5,207.125,419.4223,207.125,419.0735,216.9805,419.1165,226.8359,419.4318,236.6914,418.8086,246.5469,420.0536,256.4023,419.5,266.2578,419.5,266.0477,417.5,266.1919,415.5,266.4018,413.5,266.2292,411.5,266.2806,409.5,266.2578,409.4681,266.2578,409.6785,256.4023,409.7391,246.5469,410.0857,236.6914,410.1711,226.8359,410.1793,216.9805,409.5,207.125" style="stroke:#383838;stroke-width:1.0;"/><polygon fill="#FFFFFF" points="409.5,319.5234,409.5,319.5935,411.5,319.3853,413.5,319.5879,415.5,319.6567,417.5,319.2856,419.5,319.5234,419.4223,319.5234,419.0735,329.3789,419.1165,339.2344,419.4318,349.0898,418.8086,358.9453,420.0536,368.8008,419.5,378.6563,419.5,378.4462,417.5,378.5903,415.5,378.8002,413.5,378.6277,411.5,378.679,409.5,378.6563,409.4681,378.6563,409.6785,368.8008,409.7391,358.9453,410.0857,349.0898,410.1711,339.2344,410.1793,329.3789,409.5,319.5234" style="stroke:#383838;stroke-width:1.0;"/><polygon fill="#FFFFFF" points="409.5,407.7891,409.5,407.8591,411.5,407.651,413.5,407.8535,415.5,407.9223,417.5,407.5513,419.5,407.7891,419.4223,407.7891,419.0735,417.6445,419.1165,427.5,419.4318,437.3555,418.8086,447.2109,420.0536,457.0664,419.5,466.9219,419.5,466.7118,417.5,466.856,415.5,467.0659,413.5,466.8933,411.5,466.9446,409.5,466.9219,409.4681,466.9219,409.6785,457.0664,409.7391,447.2109,410.0857,437.3555,410.1711,427.5,410.1793,417.6445,409.5,407.7891" style="stroke:#383838;stroke-width:1.0;"/><polygon fill="#FFFFFF" points="409.5,496.0547,409.5,496.1247,411.5,495.9166,413.5,496.1191,415.5,496.1879,417.5,495.8169,419.5,496.0547,419.4223,496.0547,419.0735,505.9102,419.1165,515.7656,419.4318,525.6211,418.8086,535.4766,420.0536,545.332,419.5,555.1875,419.5,554.9774,417.5,555.1216,415.5,555.3315,413.5,555.1589,411.5,555.2102,409.5,555.1875,409.4681,555.1875,409.6785,545.332,409.7391,535.4766,410.0857,525.6211,410.1711,515.7656,410.1793,505.9102,409.5,496.0547" style="stroke:#383838;stroke-width:1.0;"/><polygon fill="#FFFFFF" points="409.5,608.4531,409.5,608.5232,411.5,608.315,413.5,608.5176,415.5,608.5864,417.5,608.2153,419.5,608.4531,419.4223,608.4531,419.0735,618.3086,419.1165,628.1641,419.4318,638.0195,418.8086,647.875,420.0536,657.7305,419.5,667.5859,419.5,667.3758,417.5,667.52,415.5,667.7299,413.5,667.5573,411.5,667.6087,409.5,667.5859,409.4681,667.5859,409.6785,657.7305,409.7391,647.875,410.0857,638.0195,410.1711,628.1641,410.1793,618.3086,409.5,608.4531" style="stroke:#383838;stroke-width:1.0;"/><polygon fill="#FFFFFF" points="818.5,236.2578,818.5,236.3279,820.5,236.1197,822.5,236.3222,824.5,236.391,826.5,236.02,828.5,236.2578,828.4741,236.2578,828.3578,242.2578,828.3722,248.2578,828.4773,254.2578,828.2695,260.2578,828.5,266.2578,828.5,266.4424,826.5,266.0477,824.5,266.1919,822.5,266.4018,820.5,266.2292,818.5,266.2578,818.5227,266.2578,818.4894,260.2578,818.5595,254.2578,818.5797,248.2578,818.6952,242.2578,818.5,236.2578" style="stroke:#383838;stroke-width:1.0;"/><polygon fill="#FFFFFF" points="818.5,348.6563,818.5,348.7263,820.5,348.5181,822.5,348.7207,824.5,348.7895,826.5,348.4185,828.5,348.6563,828.4741,348.6563,828.3578,354.6563,828.3722,360.6563,828.4773,366.6563,828.2695,372.6563,828.5,378.6563,828.5,378.8408,826.5,378.4462,824.5,378.5903,822.5,378.8002,820.5,378.6277,818.5,378.6563,818.5227,378.6563,818.4894,372.6563,818.5595,366.6563,818.5797,360.6563,818.6952,354.6563,818.5,348.6563" style="stroke:#383838;stroke-width:1.0;"/><polygon fill="#FFFFFF" points="818.5,436.9219,818.5,436.9919,820.5,436.7838,822.5,436.9863,824.5,437.0551,826.5,436.6841,828.5,436.9219,828.4741,436.9219,828.3578,442.9219,828.3722,448.9219,828.4773,454.9219,828.2695,460.9219,828.5,466.9219,828.5,467.1064,826.5,466.7118,824.5,466.856,822.5,467.0659,820.5,466.8933,818.5,466.9219,818.5227,466.9219,818.4894,460.9219,818.5595,454.9219,818.5797,448.9219,818.6952,442.9219,818.5,436.9219" style="stroke:#383838;stroke-width:1.0;"/><polygon fill="#FFFFFF" points="818.5,525.1875,818.5,525.2576,820.5,525.0494,822.5,525.2519,824.5,525.3207,826.5,524.9497,828.5,525.1875,828.4741,525.1875,828.3578,531.1875,828.3722,537.1875,828.4773,543.1875,828.2695,549.1875,828.5,555.1875,828.5,555.372,826.5,554.9774,824.5,555.1216,822.5,555.3315,820.5,555.1589,818.5,555.1875,818.5227,555.1875,818.4894,549.1875,818.5595,543.1875,818.5797,537.1875,818.6952,531.1875,818.5,525.1875" style="stroke:#383838;stroke-width:1.0;"/><polygon fill="#FFFFFF" points="818.5,637.5859,818.5,637.656,820.5,637.4478,822.5,637.6504,824.5,637.7192,826.5,637.3481,828.5,637.5859,828.4741,637.5859,828.3578,643.5859,828.3722,649.5859,828.4773,655.5859,828.2695,661.5859,828.5,667.5859,828.5,667.7705,826.5,667.3758,824.5,667.52,822.5,667.7299,820.5,667.5573,818.5,667.5859,818.5227,667.5859,818.4894,661.5859,818.5595,655.5859,818.5797,649.5859,818.6952,643.5859,818.5,637.5859" style="stroke:#383838;stroke-width:1.0;"/><path d="M105.5,114.7266 L105.5,114.82 L113.9,114.5424 L122.3,114.8125 L130.7,114.9042 L139.1,114.4095 L147.5,114.7266 " fill="none" style="stroke:#383838;stroke-width:1.0;"/><path d="M147.5,114.7266 L147.5934,114.7266 L147.3159,117.3266 L147.5859,119.9266 L147.6776,122.5266 L147.1829,125.1266 L147.5,127.7266 " fill="none" style="stroke:#383838;stroke-width:1.0;"/><path d="M106.5,127.7266 L106.5,127.82 L114.7,127.5424 L122.9,127.8125 L131.1,127.9042 L139.3,127.4095 L147.5,127.7266 " fill="none" style="stroke:#383838;stroke-width:1.0;"/><polygon fill="#383838" points="116.5,123.7266,116.526,123.7916,114.4487,124.3983,112.5239,125.3864,110.5495,126.2503,108.4117,126.7058,106.5,127.7266,106.4904,127.7025,108.4472,128.3946,110.4525,129.2079,112.4916,130.1055,114.4144,130.7126,116.5,131.7266,116.6305,131.8571,115.5514,130.778,114.8534,130.0799,114.2018,129.4284,113.2798,128.5063,112.5,127.7266,112.5161,127.7426,113.2925,126.919,114.1421,126.1686,114.9564,125.3829,115.838,124.6646,116.5,123.7266" style="stroke:#383838;stroke-width:1.0;"/><text fill="#000000" font-family="FG Virgil" font-size="13" lengthAdjust="spacing" textLength="60" x="112.5" y="109.6606">doShow()</text><path d="M66,140.7266 L66.1868,140.7266 L65.6317,148.7266 L66.1718,156.7266 L66.3553,164.7266 L65.3659,172.7266 L66,180.7266 L66,180.5193 L75.9429,179.5892 L85.8857,179.7039 L95.8286,180.5448 L105.7714,178.8829 L115.7143,182.2029 L125.6571,179.0458 L135.6,180.1992 L145.5429,181.8784 L155.4857,180.4978 L165.4286,180.9085 L175.3714,180.6414 L185.3143,181.2026 L195.2571,181.3643 L205.2,182.2884 L215.1429,182.516 L225.0857,182.5379 L235.0286,181.4056 L244.9714,181.9628 L254.9143,182.5992 L264.8571,178.8034 L274.8,182.5359 L284.7429,179.9359 L294.6857,182.1501 L304.6286,179.4065 L314.5714,180.5439 L324.5143,182.7042 L334.4571,180.5966 L344.4,181.0074 L354.3429,181.6296 L364.2857,181.8365 L374.2286,180.7161 L384.1714,181.4925 L394.1143,179.2001 L404.0571,181.4849 L414,182.1884 L423.9429,181.912 L433.8857,182.3613 L443.8286,179.4383 L453.7714,178.9874 L463.7143,179.0695 L473.6571,180.5695 L483.6,180.2025 L493.5429,182.5437 L503.4857,180.2608 L513.4286,179.8118 L523.3714,181.3353 L533.3143,178.9483 L543.2571,179.3422 L553.2,182.4571 L563.1429,181.8883 L573.0857,182.6852 L583.0286,179.8684 L592.9714,181.5778 L602.9143,182.301 L612.8571,179.4668 L622.8,180.4709 L632.7429,181.0625 L642.6857,182.4646 L652.6286,180.7154 L662.5714,181.9601 L672.5143,179.2498 L682.4571,178.9205 L692.4,182.0695 L702.3429,178.8147 L712.2857,182.0838 L722.2286,181.2776 L732.1714,180.0121 L742.1143,179.7832 L752.0571,181.9499 L762,180.7266 L761.7339,180.7266 L762.5261,174.7266 L761.5087,168.7266 L762.5488,162.7266 L762.4305,156.7266 L762,150.7266 L762.154,150.8805 L760.0297,148.7562 L758.4567,147.1833 L756.3857,145.1122 L754.1064,142.8329 L752,140.7266 L752,141.4417 L742.058,140.3792 L732.1159,142.6371 L722.1739,141.1395 L712.2319,141.1868 L702.2899,139.1043 L692.3478,139.646 L682.4058,142.1419 L672.4638,141.8726 L662.5217,140.6121 L652.5797,139.8674 L642.6377,140.1428 L632.6957,138.8968 L622.7536,141.8325 L612.8116,142.6987 L602.8696,142.1303 L592.9275,142.5797 L582.9855,140.362 L573.0435,140.9592 L563.1014,139.693 L553.1594,141.484 L543.2174,141.3846 L533.2754,142.1996 L523.3333,140.1141 L513.3913,140.3681 L503.4493,141.9091 L493.5072,142.2395 L483.5652,139.3598 L473.6232,140.2095 L463.6812,141.1246 L453.7391,139.0976 L443.7971,141.6689 L433.8551,141.4145 L423.913,140.4579 L413.971,141.1059 L404.029,142.6697 L394.087,139.8922 L384.1449,141.5665 L374.2029,141.4883 L364.2609,141.0353 L354.3188,141.1024 L344.3768,141.0292 L334.4348,139.0621 L324.4928,139.6577 L314.5507,139.4958 L304.6087,140.8968 L294.6667,140.9616 L284.7246,141.1579 L274.7826,139.9506 L264.8406,140.5465 L254.8986,140.406 L244.9565,142.2648 L235.0145,141.8641 L225.0725,139.4318 L215.1304,140.5321 L205.1884,139.1873 L195.2464,141.4956 L185.3043,142.3492 L175.3623,142.1787 L165.4203,139.5651 L155.4783,141.9638 L145.5362,138.7457 L135.5942,141.2603 L125.6522,139.9284 L115.7101,140.9845 L105.7681,141.3675 L95.8261,141.9855 L85.8841,138.8068 L75.942,141.9945 L66,140.7266 " fill="#EBEBEB" style="stroke:#383838;stroke-width:1.0;"/><path d="M752,140.7266 L752.1584,140.7266 L752.3158,142.7266 L752.6647,144.7266 L752.0049,146.7266 L752.1558,148.7266 L752,150.7266 L752,150.9163 L754,150.9019 L756,150.7258 L758,151.3583 L760,150.1846 L762,150.7266 L762.3553,151.0819 L759.6078,148.3344 L757.6604,146.387 L756.0251,144.7517 L754.0178,142.7443 L752,140.7266 " fill="#EBEBEB" style="stroke:#383838;stroke-width:1.0;"/><text fill="#000000" font-family="FG Virgil" font-size="13" lengthAdjust="spacing" textLength="620" x="72" y="157.7935">Para efeitos de simplificação do diagrama, não foram representadas todas as classes repository,</text><text fill="#000000" font-family="FG Virgil" font-size="13" lengthAdjust="spacing" textLength="671" x="76" y="172.9263">a classe persistence e a classe factory, tendo sido utilizado o procedimento dos casos de uso do sprint B</text><polygon fill="#383838" points="397.5,203.125,397.526,203.19,399.4487,203.7968,401.5239,204.7848,403.5495,205.6487,405.4117,206.1042,407.5,207.125,407.4904,207.1009,405.4472,207.793,403.4525,208.6063,401.4916,209.5039,399.4144,210.111,397.5,211.125,397.6305,211.2555,398.1514,210.1764,399.0534,209.4784,400.0018,208.8268,400.6798,207.9048,401.5,207.125,401.5161,207.1411,400.6925,206.3175,399.9421,205.5671,399.1564,204.7814,398.438,204.063,397.5,203.125" style="stroke:#383838;stroke-width:1.0;"/><path d="M105.5,207.125 L105.5,207.4052 L115.4333,206.5726 L125.3667,207.3827 L135.3,207.6579 L145.2333,206.1738 L155.1667,207.0214 L165.1,206.5563 L175.0333,206.6137 L184.9667,207.0341 L194.9,206.2032 L204.8333,207.8632 L214.7667,206.2846 L224.7,206.8613 L234.6333,207.7009 L244.5667,207.0106 L254.5,207.216 L264.4333,207.0824 L274.3667,207.363 L284.3,207.4438 L294.2333,207.9059 L304.1667,208.0197 L314.1,208.0307 L324.0333,207.4645 L333.9667,207.7431 L343.9,208.0613 L353.8333,206.1634 L363.7667,208.0297 L373.7,206.7297 L383.6333,207.8367 L393.5667,206.465 L403.5,207.125 " fill="none" style="stroke:#383838;stroke-width:1.0;"/><text fill="#000000" font-family="FG Virgil" font-size="13" lengthAdjust="spacing" textLength="285" x="112.5" y="202.0591">getAllPedidoConcluido(calendar1, calendar2)</text><polygon fill="#383838" points="806.5,232.2578,806.526,232.3229,808.4487,232.9296,810.5239,233.9176,812.5495,234.7815,814.4117,235.237,816.5,236.2578,816.4904,236.2338,814.4472,236.9258,812.4525,237.7391,810.4916,238.6367,808.4144,239.2438,806.5,240.2578,806.6305,240.3883,807.1514,239.3093,808.0534,238.6112,809.0018,237.9596,809.6798,237.0376,810.5,236.2578,810.5161,236.2739,809.6925,235.4503,808.9421,234.6999,808.1564,233.9142,807.438,233.1959,806.5,232.2578" style="stroke:#383838;stroke-width:1.0;"/><path d="M419.5,236.2578 L419.5,236.5381 L429.5769,235.7054 L439.6538,236.5155 L449.7308,236.7907 L459.8077,235.3066 L469.8846,236.1542 L479.9615,235.6892 L490.0385,235.7465 L500.1154,236.1669 L510.1923,235.336 L520.2692,236.996 L530.3462,235.4174 L540.4231,235.9941 L550.5,236.8337 L560.5769,236.1434 L570.6538,236.3488 L580.7308,236.2152 L590.8077,236.4958 L600.8846,236.5767 L610.9615,237.0387 L621.0385,237.1526 L631.1154,237.1635 L641.1923,236.5973 L651.2692,236.8759 L661.3462,237.1941 L671.4231,235.2962 L681.5,237.1625 L691.5769,235.8625 L701.6538,236.9696 L711.7308,235.5978 L721.8077,236.1665 L731.8846,237.2466 L741.9615,236.1928 L752.0385,236.3982 L762.1154,236.7093 L772.1923,236.8128 L782.2692,236.2526 L792.3462,236.6408 L802.4231,235.4946 L812.5,236.2578 " fill="none" style="stroke:#383838;stroke-width:1.0;"/><text fill="#000000" font-family="FG Virgil" font-size="13" lengthAdjust="spacing" textLength="380" x="426.5" y="231.1919">listaPedidos = getAllPedidoConcluido(calendar1, calendar2)</text><path d="M10,281.2578 L10,281.8183 L19.625,280.153 L29.25,281.7732 L38.875,282.3236 L48.5,279.3554 L58.125,281.0506 L67.75,280.1205 L77.375,280.2351 L87,281.2578 L86.9394,281.2578 L86.3854,282.6578 L87.4921,284.0578 L86.4398,285.4578 L86.8242,286.8578 L87,288.2578 L87.2715,288.5293 L84.9461,290.2039 L83.0429,292.3007 L80.9799,294.2377 L79.1122,296.37 L77,298.2578 L77,298.8955 L67.4286,299.8197 L57.8571,300.0473 L48.2857,300.0692 L38.7143,298.9368 L29.1429,299.494 L19.5714,300.1304 L10,298.2578 L9.3589,298.2578 L10.6031,294.8578 L9.7364,291.4578 L10.4745,288.0578 L9.56,284.6578 L10,281.2578 " fill="#EEEEEE" style="stroke:#000000;stroke-width:1.0;"/><polygon fill="none" points="10,281.2578,10,281.468,19.9722,280.8435,29.9444,281.4511,39.9167,281.6575,49.8889,280.5444,59.8611,281.1801,69.8333,280.8313,79.8056,280.8743,89.7778,281.1897,99.75,280.5664,109.7222,281.8115,119.6944,280.6275,129.6667,281.06,139.6389,281.6898,149.6111,281.172,159.5833,281.3261,169.5556,281.2259,179.5278,281.4363,189.5,281.4969,199.4722,281.8435,209.4444,281.9289,219.4167,281.9371,229.3889,281.5124,239.3611,281.7214,249.3333,281.96,259.3056,280.5366,269.2778,281.9363,279.25,280.9613,289.2222,281.7916,299.1944,280.7628,309.1667,281.1893,319.1389,281.9994,329.1111,281.2091,339.0833,281.3631,349.0556,281.5964,359.0278,281.674,369,281.2539,378.9722,281.545,388.9444,280.6854,398.9167,281.5422,408.8889,281.806,418.8611,281.7023,428.8333,281.8708,438.8056,280.7747,448.7778,280.6056,458.75,280.6364,468.7222,281.1989,478.6944,281.0613,488.6667,281.9392,498.6389,281.0831,508.6111,280.9148,518.5833,281.4861,528.5556,280.591,538.5278,280.7387,548.5,281.9068,558.4722,281.6935,568.4444,281.9923,578.4167,280.936,588.3889,281.577,598.3611,281.8482,608.3333,280.7854,618.3056,281.162,628.2778,281.3838,638.25,281.9096,648.2222,281.2536,658.1944,281.7204,668.1667,280.704,678.1389,280.5806,688.1111,281.7614,698.0833,280.5409,708.0556,281.7668,718.0278,281.4644,728,280.9899,737.9722,280.904,747.9444,281.7166,757.9167,280.9585,767.8889,281.8497,777.8611,280.7051,787.8333,281.8752,797.8056,281.7421,807.7778,281.5028,817.75,281.305,827.7222,281.9844,837.6944,281.8714,847.6667,281.4271,857.6389,281.526,867.6111,281.1275,877.5833,281.9743,887.5556,281.4127,897.5278,281.4304,907.5,281.2578,906.8916,281.2578,907.0948,291.291,908.0307,301.3242,907.9298,311.3574,907.4571,321.3906,907.1778,331.4238,907.2811,341.457,906.8138,351.4902,907.9147,361.5234,908.2396,371.5566,908.0264,381.5898,908.1949,391.623,907.3633,401.6563,907.5872,411.6895,907.1124,421.7227,907.784,431.7559,907.7468,441.7891,908.0524,451.8223,907.2703,461.8555,907.3656,471.8887,907.9435,481.9219,908.0673,491.9551,906.9875,501.9883,907.3061,512.0215,907.6493,522.0547,906.8892,532.0879,907.8534,542.1211,907.758,552.1543,907.3992,562.1875,907.6422,572.2207,908.2287,582.2539,907.1871,592.2871,907.815,602.3203,907.7856,612.3535,907.6158,622.3867,907.6409,632.4199,907.6135,642.4531,906.8758,652.4863,907.0992,662.5195,907.0385,672.5527,907.5,682.5859,907.5,682.6498,897.5278,682.6741,887.5556,682.7477,877.5833,682.295,867.6111,682.5184,857.6389,682.4657,847.6667,683.1628,837.6944,683.0125,827.7222,682.1004,817.75,682.513,807.7778,682.0087,797.8056,682.8743,787.8333,683.1944,777.8611,683.1305,767.8889,682.1504,757.9167,683.0499,747.9444,681.8431,737.9722,682.7861,728,682.2866,718.0278,682.6827,708.0556,682.8263,698.0833,683.058,688.1111,681.866,678.1389,683.0614,668.1667,682.7641,658.1944,682.9413,648.2222,683.3337,638.25,682.5914,628.2778,682.7612,618.3056,682.7994,608.3333,682.7832,598.3611,682.5851,588.3889,683.2966,578.4167,681.9762,568.4444,683.1512,558.4722,681.9619,548.5,682.0456,538.5278,682.6259,528.5556,682.6142,518.5833,682.0931,508.6111,682.9997,498.6389,682.6948,488.6667,683.3126,478.6944,683.253,468.7222,682.1377,458.75,682.188,448.7778,682.4568,438.8056,682.9415,428.8333,682.9889,418.8611,682.8871,408.8889,682.244,398.9167,683.2223,388.9444,683.2197,378.9722,682.5387,369,682.3469,359.0278,682.1846,349.0556,682.3714,339.0833,682.7234,329.1111,682.5175,319.1389,682.1681,309.1667,683.0733,299.1944,682.127,289.2222,683.0883,279.25,683.0132,269.2778,682.9578,259.3056,683.2784,249.3333,682.3401,239.3611,682.2853,229.3889,683.1048,219.4167,681.989,209.4444,682.3519,199.4722,682.7014,189.5,682.6546,179.5278,682.2275,169.5556,682.543,159.5833,683.3305,149.6111,683.2344,139.6389,681.9897,129.6667,682.6645,119.6944,682.072,109.7222,682.5596,99.75,682.8789,89.7778,683.0058,79.8056,681.9212,69.8333,682.9865,59.8611,682.5943,49.8889,682.0306,39.9167,682.1149,29.9444,682.9125,19.9722,682.8358,10,682.5859,9.9836,682.5859,9.3279,672.5527,10.6581,662.5195,9.6882,652.4863,9.4719,642.4531,9.9327,632.4199,10.5897,622.3867,10.6154,612.3535,10.0351,602.3203,9.8488,592.2871,10.1698,582.2539,10.1862,572.2207,9.4922,562.1875,10.414,552.1543,10.5588,542.1211,9.7842,532.0879,9.5708,522.0547,10.6746,512.0215,10.021,501.9883,9.9998,491.9551,10.299,481.9219,9.3543,471.8887,10.53,461.8555,9.9846,451.8223,10.6688,441.7891,9.7841,431.7559,10.409,421.7227,9.556,411.6895,10.245,401.6563,10.3793,391.623,9.6727,381.5898,10.363,371.5566,9.4286,361.5234,9.5295,351.4902,10.6828,341.457,10.6844,331.4238,10.5685,321.3906,9.6396,311.3574,10.3842,301.3242,9.5279,291.291,10,281.2578" style="stroke:#000000;stroke-width:2.0;"/><text fill="#000000" font-family="FG Virgil" font-size="13" font-weight="bold" lengthAdjust="spacing" textLength="32" x="25" y="294.3247">loop</text><text fill="#000000" font-family="FG Virgil" font-size="11" font-weight="bold" lengthAdjust="spacing" textLength="134" x="102" y="293.4683">[para a listaPedidos]</text><polygon fill="#383838" points="397.5,315.5234,397.526,315.5885,399.4487,316.1952,401.5239,317.1833,403.5495,318.0471,405.4117,318.5026,407.5,319.5234,407.4904,319.4994,405.4472,320.1914,403.4525,321.0047,401.4916,321.9023,399.4144,322.5095,397.5,323.5234,397.6305,323.6539,398.1514,322.5749,399.0534,321.8768,400.0018,321.2252,400.6798,320.3032,401.5,319.5234,401.5161,319.5395,400.6925,318.7159,399.9421,317.9655,399.1564,317.1798,398.438,316.4615,397.5,315.5234" style="stroke:#383838;stroke-width:1.0;"/><path d="M105.5,319.5234 L105.5,319.8037 L115.4333,318.971 L125.3667,319.7812 L135.3,320.0563 L145.2333,318.5722 L155.1667,319.4198 L165.1,318.9548 L175.0333,319.0121 L184.9667,319.4326 L194.9,318.6016 L204.8333,320.2616 L214.7667,318.6831 L224.7,319.2597 L234.6333,320.0994 L244.5667,319.4091 L254.5,319.6144 L264.4333,319.4808 L274.3667,319.7615 L284.3,319.8423 L294.2333,320.3044 L304.1667,320.4182 L314.1,320.4291 L324.0333,319.8629 L333.9667,320.1416 L343.9,320.4597 L353.8333,318.5619 L363.7667,320.4281 L373.7,319.1281 L383.6333,320.2352 L393.5667,318.8634 L403.5,319.5234 " fill="none" style="stroke:#383838;stroke-width:1.0;"/><text fill="#000000" font-family="FG Virgil" font-size="13" lengthAdjust="spacing" textLength="205" x="112.5" y="314.4575">getTempoMaximoAprov(pedido)</text><polygon fill="#383838" points="806.5,344.6563,806.526,344.7213,808.4487,345.328,810.5239,346.3161,812.5495,347.1799,814.4117,347.6355,816.5,348.6563,816.4904,348.6322,814.4472,349.3243,812.4525,350.1376,810.4916,351.0352,808.4144,351.6423,806.5,352.6563,806.6305,352.7867,807.1514,351.7077,808.0534,351.0096,809.0018,350.3581,809.6798,349.436,810.5,348.6563,810.5161,348.6723,809.6925,347.8487,808.9421,347.0983,808.1564,346.3126,807.438,345.5943,806.5,344.6563" style="stroke:#383838;stroke-width:1.0;"/><path d="M419.5,348.6563 L419.5,348.9365 L429.5769,348.1038 L439.6538,348.914 L449.7308,349.1892 L459.8077,347.7051 L469.8846,348.5526 L479.9615,348.0876 L490.0385,348.1449 L500.1154,348.5654 L510.1923,347.7344 L520.2692,349.3944 L530.3462,347.8159 L540.4231,348.3926 L550.5,349.2322 L560.5769,348.5419 L570.6538,348.7472 L580.7308,348.6137 L590.8077,348.8943 L600.8846,348.9751 L610.9615,349.4372 L621.0385,349.551 L631.1154,349.5619 L641.1923,348.9958 L651.2692,349.2744 L661.3462,349.5926 L671.4231,347.6947 L681.5,349.5609 L691.5769,348.2609 L701.6538,349.368 L711.7308,347.9962 L721.8077,348.5649 L731.8846,349.6451 L741.9615,348.5913 L752.0385,348.7967 L762.1154,349.1078 L772.1923,349.2112 L782.2692,348.651 L792.3462,349.0392 L802.4231,347.893 L812.5,348.6563 " fill="none" style="stroke:#383838;stroke-width:1.0;"/><text fill="#000000" font-family="FG Virgil" font-size="13" lengthAdjust="spacing" textLength="329" x="426.5" y="343.5903">tempoMaxAprov = getTempoMaximoAprov(pedido)</text><polygon fill="#383838" points="397.5,403.7891,397.526,403.8541,399.4487,404.4608,401.5239,405.4489,403.5495,406.3128,405.4117,406.7683,407.5,407.7891,407.4904,407.765,405.4472,408.4571,403.4525,409.2704,401.4916,410.168,399.4144,410.7751,397.5,411.7891,397.6305,411.9196,398.1514,410.8405,399.0534,410.1424,400.0018,409.4909,400.6798,408.5688,401.5,407.7891,401.5161,407.8051,400.6925,406.9815,399.9421,406.2311,399.1564,405.4454,398.438,404.7271,397.5,403.7891" style="stroke:#383838;stroke-width:1.0;"/><path d="M105.5,407.7891 L105.5,408.0693 L115.4333,407.2366 L125.3667,408.0468 L135.3,408.322 L145.2333,406.8379 L155.1667,407.6854 L165.1,407.2204 L175.0333,407.2777 L184.9667,407.6982 L194.9,406.8672 L204.8333,408.5273 L214.7667,406.9487 L224.7,407.5254 L234.6333,408.365 L244.5667,407.6747 L254.5,407.88 L264.4333,407.7465 L274.3667,408.0271 L284.3,408.1079 L294.2333,408.57 L304.1667,408.6838 L314.1,408.6947 L324.0333,408.1286 L333.9667,408.4072 L343.9,408.7254 L353.8333,406.8275 L363.7667,408.6937 L373.7,407.3937 L383.6333,408.5008 L393.5667,407.129 L403.5,407.7891 " fill="none" style="stroke:#383838;stroke-width:1.0;"/><text fill="#000000" font-family="FG Virgil" font-size="13" lengthAdjust="spacing" textLength="191" x="112.5" y="402.7231">getTempoMaximoRes(pedido)</text><polygon fill="#383838" points="806.5,432.9219,806.526,432.9869,808.4487,433.5936,810.5239,434.5817,812.5495,435.4456,814.4117,435.9011,816.5,436.9219,816.4904,436.8978,814.4472,437.5899,812.4525,438.4032,810.4916,439.3008,808.4144,439.9079,806.5,440.9219,806.6305,441.0524,807.1514,439.9733,808.0534,439.2753,809.0018,438.6237,809.6798,437.7017,810.5,436.9219,810.5161,436.938,809.6925,436.1143,808.9421,435.364,808.1564,434.5782,807.438,433.8599,806.5,432.9219" style="stroke:#383838;stroke-width:1.0;"/><path d="M419.5,436.9219 L419.5,437.2021 L429.5769,436.3694 L439.6538,437.1796 L449.7308,437.4548 L459.8077,435.9707 L469.8846,436.8183 L479.9615,436.3532 L490.0385,436.4105 L500.1154,436.831 L510.1923,436 L520.2692,437.6601 L530.3462,436.0815 L540.4231,436.6582 L550.5,437.4978 L560.5769,436.8075 L570.6538,437.0129 L580.7308,436.8793 L590.8077,437.1599 L600.8846,437.2407 L610.9615,437.7028 L621.0385,437.8166 L631.1154,437.8276 L641.1923,437.2614 L651.2692,437.54 L661.3462,437.8582 L671.4231,435.9603 L681.5,437.8266 L691.5769,436.5265 L701.6538,437.6336 L711.7308,436.2618 L721.8077,436.8305 L731.8846,437.9107 L741.9615,436.8569 L752.0385,437.0623 L762.1154,437.3734 L772.1923,437.4769 L782.2692,436.9167 L792.3462,437.3048 L802.4231,436.1587 L812.5,436.9219 " fill="none" style="stroke:#383838;stroke-width:1.0;"/><text fill="#000000" font-family="FG Virgil" font-size="13" lengthAdjust="spacing" textLength="301" x="426.5" y="431.856">tempoMaxRes = getTempoMaximoRes(pedido)</text><polygon fill="#383838" points="397.5,492.0547,397.526,492.1197,399.4487,492.7265,401.5239,493.7145,403.5495,494.5784,405.4117,495.0339,407.5,496.0547,407.4904,496.0306,405.4472,496.7227,403.4525,497.536,401.4916,498.4336,399.4144,499.0407,397.5,500.0547,397.6305,500.1852,398.1514,499.1061,399.0534,498.4081,400.0018,497.7565,400.6798,496.8345,401.5,496.0547,401.5161,496.0708,400.6925,495.2472,399.9421,494.4968,399.1564,493.7111,398.438,492.9927,397.5,492.0547" style="stroke:#383838;stroke-width:1.0;"/><path d="M105.5,496.0547 L105.5,496.3349 L115.4333,495.5023 L125.3667,496.3124 L135.3,496.5876 L145.2333,495.1035 L155.1667,495.9511 L165.1,495.486 L175.0333,495.5434 L184.9667,495.9638 L194.9,495.1329 L204.8333,496.7929 L214.7667,495.2143 L224.7,495.791 L234.6333,496.6306 L244.5667,495.9403 L254.5,496.1457 L264.4333,496.0121 L274.3667,496.2927 L284.3,496.3735 L294.2333,496.8356 L304.1667,496.9494 L314.1,496.9604 L324.0333,496.3942 L333.9667,496.6728 L343.9,496.991 L353.8333,495.0931 L363.7667,496.9594 L373.7,495.6593 L383.6333,496.7664 L393.5667,495.3947 L403.5,496.0547 " fill="none" style="stroke:#383838;stroke-width:1.0;"/><text fill="#000000" font-family="FG Virgil" font-size="13" lengthAdjust="spacing" textLength="182" x="112.5" y="490.9888">getTarefasDoPedido(pedido)</text><polygon fill="#383838" points="806.5,521.1875,806.526,521.2525,808.4487,521.8593,810.5239,522.8473,812.5495,523.7112,814.4117,524.1667,816.5,525.1875,816.4904,525.1634,814.4472,525.8555,812.4525,526.6688,810.4916,527.5664,808.4144,528.1735,806.5,529.1875,806.6305,529.318,807.1514,528.2389,808.0534,527.5409,809.0018,526.8893,809.6798,525.9673,810.5,525.1875,810.5161,525.2036,809.6925,524.38,808.9421,523.6296,808.1564,522.8439,807.438,522.1255,806.5,521.1875" style="stroke:#383838;stroke-width:1.0;"/><path d="M419.5,525.1875 L419.5,525.4677 L429.5769,524.6351 L439.6538,525.4452 L449.7308,525.7204 L459.8077,524.2363 L469.8846,525.0839 L479.9615,524.6188 L490.0385,524.6762 L500.1154,525.0966 L510.1923,524.2657 L520.2692,525.9257 L530.3462,524.3471 L540.4231,524.9238 L550.5,525.7634 L560.5769,525.0731 L570.6538,525.2785 L580.7308,525.1449 L590.8077,525.4255 L600.8846,525.5063 L610.9615,525.9684 L621.0385,526.0822 L631.1154,526.0932 L641.1923,525.527 L651.2692,525.8056 L661.3462,526.1238 L671.4231,524.2259 L681.5,526.0922 L691.5769,524.7922 L701.6538,525.8992 L711.7308,524.5275 L721.8077,525.0962 L731.8846,526.1763 L741.9615,525.1225 L752.0385,525.3279 L762.1154,525.639 L772.1923,525.7425 L782.2692,525.1823 L792.3462,525.5705 L802.4231,524.4243 L812.5,525.1875 " fill="none" style="stroke:#383838;stroke-width:1.0;"/><text fill="#000000" font-family="FG Virgil" font-size="13" lengthAdjust="spacing" textLength="293" x="426.5" y="520.1216">listaAtividades = getTarefasDoPedido(pedido)</text><path d="M20,570.1875 L20,570.748 L29.625,569.0826 L39.25,570.7029 L48.875,571.2533 L58.5,568.2851 L68.125,569.9803 L77.75,569.0502 L87.375,569.1648 L97,570.1875 L96.9394,570.1875 L96.3854,571.5875 L97.4921,572.9875 L96.4398,574.3875 L96.8242,575.7875 L97,577.1875 L97.2715,577.459 L94.9461,579.1336 L93.0429,581.2304 L90.9799,583.1674 L89.1122,585.2997 L87,587.1875 L87,587.8252 L77.4286,588.7493 L67.8571,588.977 L58.2857,588.9989 L48.7143,587.8665 L39.1429,588.4237 L29.5714,589.0601 L20,587.1875 L19.3589,587.1875 L20.6031,583.7875 L19.7364,580.3875 L20.4745,576.9875 L19.56,573.5875 L20,570.1875 " fill="#EEEEEE" style="stroke:#000000;stroke-width:1.0;"/><polygon fill="none" points="20,570.1875,20,570.3977,29.9716,569.7732,39.9432,570.3808,49.9148,570.5872,59.8864,569.4741,69.858,570.1098,79.8295,569.761,89.8011,569.804,99.7727,570.1193,109.7443,569.4961,119.7159,570.7411,129.6875,569.5572,139.6591,569.9897,149.6307,570.6194,159.6023,570.1017,169.5739,570.2557,179.5455,570.1556,189.517,570.366,199.4886,570.4266,209.4602,570.7732,219.4318,570.8586,229.4034,570.8668,239.375,570.4421,249.3466,570.6511,259.3182,570.8897,269.2898,569.4663,279.2614,570.866,289.233,569.891,299.2045,570.7213,309.1761,569.6925,319.1477,570.119,329.1193,570.9291,339.0909,570.1388,349.0625,570.2928,359.0341,570.5261,369.0057,570.6037,378.9773,570.1836,388.9489,570.4747,398.9205,569.6151,408.892,570.4719,418.8636,570.7357,428.8352,570.632,438.8068,570.8005,448.7784,569.7044,458.75,569.5353,468.7216,569.5661,478.6932,570.1286,488.6648,569.991,498.6364,570.8689,508.608,570.0128,518.5795,569.8444,528.5511,570.4158,538.5227,569.5207,548.4943,569.6684,558.4659,570.8365,568.4375,570.6232,578.4091,570.922,588.3807,569.8657,598.3523,570.5067,608.3239,570.7779,618.2955,569.7151,628.267,570.0916,638.2386,570.3135,648.2102,570.8393,658.1818,570.1833,668.1534,570.6501,678.125,569.6337,688.0966,569.5102,698.0682,570.6911,708.0398,569.4706,718.0114,570.6965,727.983,570.3941,737.9545,569.9196,747.9261,569.8337,757.8977,570.6463,767.8693,569.8882,777.8409,570.7794,787.8125,569.6348,797.7841,570.8049,807.7557,570.6718,817.7273,570.4325,827.6989,570.2347,837.6705,570.9141,847.642,570.8011,857.6136,570.3568,867.5852,570.4557,877.5568,570.0572,887.5284,570.904,897.5,570.1875,897.6549,570.1875,897.6726,579.7692,896.8916,589.3509,897.0948,598.9325,898.0307,608.5142,897.9298,618.0959,897.4571,627.6776,897.1778,637.2592,897.2811,646.8409,896.8138,656.4226,897.9147,666.0043,897.5,675.5859,897.5,676.3255,887.5284,676.1123,877.5568,676.2809,867.5852,675.4492,857.6136,675.6732,847.642,675.1983,837.6705,675.87,827.6989,675.8327,817.7273,676.1383,807.7557,675.3563,797.7841,675.4515,787.8125,676.0294,777.8409,676.1533,767.8693,675.0734,757.8977,675.3921,747.9261,675.7352,737.9545,674.9751,727.983,675.9393,718.0114,675.8439,708.0398,675.4852,698.0682,675.7282,688.0966,676.3146,678.125,675.2731,668.1534,675.9009,658.1818,675.8716,648.2102,675.7017,638.2386,675.7269,628.267,675.6994,618.2955,674.9618,608.3239,675.1851,598.3523,675.1244,588.3807,675.6498,578.4091,675.6741,568.4375,675.7477,558.4659,675.295,548.4943,675.5184,538.5227,675.4657,528.5511,676.1628,518.5795,676.0125,508.608,675.1004,498.6364,675.513,488.6648,675.0087,478.6932,675.8743,468.7216,676.1944,458.75,676.1305,448.7784,675.1504,438.8068,676.0499,428.8352,674.8431,418.8636,675.7861,408.892,675.2866,398.9205,675.6827,388.9489,675.8263,378.9773,676.058,369.0057,674.866,359.0341,676.0614,349.0625,675.7641,339.0909,675.9413,329.1193,676.3337,319.1477,675.5914,309.1761,675.7612,299.2045,675.7994,289.233,675.7832,279.2614,675.5851,269.2898,676.2966,259.3182,674.9762,249.3466,676.1512,239.375,674.9619,229.4034,675.0456,219.4318,675.6259,209.4602,675.6142,199.4886,675.0931,189.517,675.9997,179.5455,675.6948,169.5739,676.3126,159.6023,676.253,149.6307,675.1377,139.6591,675.188,129.6875,675.4568,119.7159,675.9415,109.7443,675.9889,99.7727,675.8871,89.8011,675.244,79.8295,676.2223,69.858,676.2197,59.8864,675.5387,49.9148,675.3469,39.9432,675.1846,29.9716,675.3714,20,675.5859,20.1374,675.5859,19.9316,666.0043,19.5822,656.4226,20.4874,646.8409,19.5411,637.2592,20.5024,627.6776,20.4272,618.0959,20.3719,608.5142,20.6925,598.9325,19.7541,589.3509,19.6994,579.7692,20,570.1875" style="stroke:#000000;stroke-width:2.0;"/><text fill="#000000" font-family="FG Virgil" font-size="13" font-weight="bold" lengthAdjust="spacing" textLength="32" x="35" y="583.2544">loop</text><text fill="#000000" font-family="FG Virgil" font-size="11" font-weight="bold" lengthAdjust="spacing" textLength="150" x="112" y="582.3979">[para a listaAtividades]</text><polygon fill="#383838" points="397.5,604.4531,397.526,604.5182,399.4487,605.1249,401.5239,606.1129,403.5495,606.9768,405.4117,607.4323,407.5,608.4531,407.4904,608.4291,405.4472,609.1211,403.4525,609.9344,401.4916,610.832,399.4144,611.4392,397.5,612.4531,397.6305,612.5836,398.1514,611.5046,399.0534,610.8065,400.0018,610.1549,400.6798,609.2329,401.5,608.4531,401.5161,608.4692,400.6925,607.6456,399.9421,606.8952,399.1564,606.1095,398.438,605.3912,397.5,604.4531" style="stroke:#383838;stroke-width:1.0;"/><path d="M105.5,608.4531 L105.5,608.7334 L115.4333,607.9007 L125.3667,608.7108 L135.3,608.986 L145.2333,607.5019 L155.1667,608.3495 L165.1,607.8845 L175.0333,607.9418 L184.9667,608.3622 L194.9,607.5313 L204.8333,609.1913 L214.7667,607.6128 L224.7,608.1894 L234.6333,609.0291 L244.5667,608.3388 L254.5,608.5441 L264.4333,608.4105 L274.3667,608.6912 L284.3,608.772 L294.2333,609.234 L304.1667,609.3479 L314.1,609.3588 L324.0333,608.7926 L333.9667,609.0712 L343.9,609.3894 L353.8333,607.4915 L363.7667,609.3578 L373.7,608.0578 L383.6333,609.1649 L393.5667,607.7931 L403.5,608.4531 " fill="none" style="stroke:#383838;stroke-width:1.0;"/><text fill="#000000" font-family="FG Virgil" font-size="13" lengthAdjust="spacing" textLength="191" x="112.5" y="603.3872">getTempoDaTarefa(atividade)</text><polygon fill="#383838" points="806.5,633.5859,806.526,633.651,808.4487,634.2577,810.5239,635.2458,812.5495,636.1096,814.4117,636.5651,816.5,637.5859,816.4904,637.5619,814.4472,638.2539,812.4525,639.0672,810.4916,639.9648,808.4144,640.572,806.5,641.5859,806.6305,641.7164,807.1514,640.6374,808.0534,639.9393,809.0018,639.2877,809.6798,638.3657,810.5,637.5859,810.5161,637.602,809.6925,636.7784,808.9421,636.028,808.1564,635.2423,807.438,634.524,806.5,633.5859" style="stroke:#383838;stroke-width:1.0;"/><path d="M419.5,637.5859 L419.5,637.8662 L429.5769,637.0335 L439.6538,637.8437 L449.7308,638.1188 L459.8077,636.6347 L469.8846,637.4823 L479.9615,637.0173 L490.0385,637.0746 L500.1154,637.4951 L510.1923,636.6641 L520.2692,638.3241 L530.3462,636.7456 L540.4231,637.3222 L550.5,638.1619 L560.5769,637.4716 L570.6538,637.6769 L580.7308,637.5433 L590.8077,637.824 L600.8846,637.9048 L610.9615,638.3669 L621.0385,638.4807 L631.1154,638.4916 L641.1923,637.9254 L651.2692,638.2041 L661.3462,638.5222 L671.4231,636.6244 L681.5,638.4906 L691.5769,637.1906 L701.6538,638.2977 L711.7308,636.9259 L721.8077,637.4946 L731.8846,638.5747 L741.9615,637.521 L752.0385,637.7263 L762.1154,638.0374 L772.1923,638.1409 L782.2692,637.5807 L792.3462,637.9689 L802.4231,636.8227 L812.5,637.5859 " fill="none" style="stroke:#383838;stroke-width:1.0;"/><text fill="#000000" font-family="FG Virgil" font-size="13" lengthAdjust="spacing" textLength="292" x="426.5" y="632.52">tempoTarefa = getTempoDaTarefa(atividade)</text><!--MD5=[7ae5e637962d0d9bf98984f201e6e72e]
@startuml
'http://plantuml.com/skinparam.html
skinparam handwritten true
skinparam monochrome true
skinparam packageStyle rect
skinparam defaultFontName FG Virgil
skinparam shadowing false

participant CumprimentoSlaUI as UI <<presentation>>
control CumprimentoSlaController as CTRL <<application>>
database PedidoRepository as PRepository <<repository>>

activate UI

UI -> UI : doShow()
 note over CTRL: Para efeitos de simplificação do diagrama, não foram representadas todas as classes repository,\n a classe persistence e a classe factory, tendo sido utilizado o procedimento dos casos de uso do sprint B
UI -> CTRL: getAllPedidoConcluido(calendar1, calendar2)
    activate CTRL
    CTRL -> PRepository: listaPedidos = getAllPedidoConcluido(calendar1, calendar2)
      activate PRepository
      deactivate PRepository
    deactivate CTRL
    
loop para a listaPedidos
UI -> CTRL: getTempoMaximoAprov(pedido)
    activate CTRL
    CTRL -> PRepository: tempoMaxAprov = getTempoMaximoAprov(pedido)
      activate PRepository
      deactivate PRepository
    deactivate CTRL

UI -> CTRL: getTempoMaximoRes(pedido)
    activate CTRL
    CTRL -> PRepository: tempoMaxRes = getTempoMaximoRes(pedido)
      activate PRepository
      deactivate PRepository
    deactivate CTRL

UI -> CTRL: getTarefasDoPedido(pedido)
    activate CTRL
    CTRL -> PRepository: listaAtividades = getTarefasDoPedido(pedido)
      activate PRepository
      deactivate PRepository
    deactivate CTRL

loop para a listaAtividades
UI -> CTRL: getTempoDaTarefa(atividade)
    activate CTRL
    CTRL -> PRepository: tempoTarefa = getTempoDaTarefa(atividade)
      activate PRepository
      deactivate PRepository
    deactivate CTRL
end
end

deactivate UI
@enduml

@startuml
skinparam handwritten true
skinparam monochrome true
skinparam packageStyle rect
skinparam defaultFontName FG Virgil
skinparam shadowing false

participant CumprimentoSlaUI as UI <<presentation>>
control CumprimentoSlaController as CTRL <<application>>
database PedidoRepository as PRepository <<repository>>

activate UI

UI -> UI : doShow()
 note over CTRL: Para efeitos de simplificação do diagrama, não foram representadas todas as classes repository,\n a classe persistence e a classe factory, tendo sido utilizado o procedimento dos casos de uso do sprint B
UI -> CTRL: getAllPedidoConcluido(calendar1, calendar2)
    activate CTRL
    CTRL -> PRepository: listaPedidos = getAllPedidoConcluido(calendar1, calendar2)
      activate PRepository
      deactivate PRepository
    deactivate CTRL
    
loop para a listaPedidos
UI -> CTRL: getTempoMaximoAprov(pedido)
    activate CTRL
    CTRL -> PRepository: tempoMaxAprov = getTempoMaximoAprov(pedido)
      activate PRepository
      deactivate PRepository
    deactivate CTRL

UI -> CTRL: getTempoMaximoRes(pedido)
    activate CTRL
    CTRL -> PRepository: tempoMaxRes = getTempoMaximoRes(pedido)
      activate PRepository
      deactivate PRepository
    deactivate CTRL

UI -> CTRL: getTarefasDoPedido(pedido)
    activate CTRL
    CTRL -> PRepository: listaAtividades = getTarefasDoPedido(pedido)
      activate PRepository
      deactivate PRepository
    deactivate CTRL

loop para a listaAtividades
UI -> CTRL: getTempoDaTarefa(atividade)
    activate CTRL
    CTRL -> PRepository: tempoTarefa = getTempoDaTarefa(atividade)
      activate PRepository
      deactivate PRepository
    deactivate CTRL
end
end

deactivate UI
@enduml

PlantUML version 1.2021.7(Sun May 23 12:40:07 UTC 2021)
(GPL source distribution)
Java Runtime: OpenJDK Runtime Environment
JVM: OpenJDK 64-Bit Server VM
Default Encoding: UTF-8
Language: en
Country: US
--></g></svg>