<?xml version="1.0" encoding="UTF-8" standalone="no"?><svg xmlns="http://www.w3.org/2000/svg" xmlns:xlink="http://www.w3.org/1999/xlink" contentScriptType="application/ecmascript" contentStyleType="text/css" height="318px" preserveAspectRatio="none" style="width:661px;height:318px;" version="1.1" viewBox="0 0 661 318" width="661px" zoomAndPan="magnify"><defs/><g><polygon fill="#FFFFFF" points="18,94.2969,18,94.3669,20,94.1588,22,94.3613,24,94.4301,26,94.0591,28,94.2969,27.9223,94.2969,27.5735,104.6022,27.6165,114.9076,27.9318,125.2129,27.3086,135.5182,28.5536,145.8236,27.3697,156.1289,27.8022,166.4342,28.4319,176.7396,27.9142,187.0449,28.0682,197.3503,27.9681,207.6556,28,217.9609,28,218.0204,26,218.0406,24,218.1562,22,218.1846,20,218.1874,18,217.9609,18.2546,217.9609,18.4636,207.6556,18.7022,197.3503,17.2788,187.0449,18.6785,176.7396,17.7035,166.4342,18.5338,156.1289,17.505,145.8236,17.9315,135.5182,18.7416,125.2129,17.9513,114.9076,18.1053,104.6022,18,94.2969" style="stroke:#383838;stroke-width:1.0;"/><polygon fill="#FFFFFF" points="618,130.5625,618,130.6326,620,130.4244,622,130.6269,624,130.6957,626,130.3247,628,130.5625,627.9741,130.5625,627.8578,136.3891,627.8722,142.2156,627.9773,148.0422,627.7695,153.8688,628,159.6953,628,159.8799,626,159.4852,624,159.6294,622,159.8393,620,159.6667,618,159.6953,618.0227,159.6953,617.9894,153.8688,618.0595,148.0422,618.0797,142.2156,618.1952,136.3891,618,130.5625" style="stroke:#383838;stroke-width:1.0;"/><polygon fill="#FFFFFF" points="618,188.8281,618,188.8982,620,188.69,622,188.8926,624,188.9614,626,188.5903,628,188.8281,627.9741,188.8281,627.8578,194.6547,627.8722,200.4813,627.9773,206.3078,627.7695,212.1344,628,217.9609,628,218.1455,626,217.7508,624,217.895,622,218.1049,620,217.9323,618,217.9609,618.0227,217.9609,617.9894,212.1344,618.0595,206.3078,618.0797,200.4813,618.1952,194.6547,618,188.8281" style="stroke:#383838;stroke-width:1.0;"/><path d="M23,84.2969 L23.2802,84.2969 L22.4476,94.4078 L23.2577,104.5188 L23.5329,114.6297 L22.0488,124.7406 L22.8964,134.8516 L22.4313,144.9625 L22.4887,155.0734 L22.9091,165.1844 L22.0782,175.2953 L23.7382,185.4063 L22.1596,195.5172 L22.7363,205.6281 L23.5759,215.7391 L22.8856,225.85 L23,235.9609 " fill="none" style="stroke:#383838;stroke-width:1.0;stroke-dasharray:5.0,5.0;"/><path d="M622.5,84.2969 L622.7802,84.2969 L621.9476,94.4078 L622.7577,104.5188 L623.0329,114.6297 L621.5488,124.7406 L622.3964,134.8516 L621.9313,144.9625 L621.9887,155.0734 L622.4091,165.1844 L621.5782,175.2953 L623.2382,185.4063 L621.6596,195.5172 L622.2363,205.6281 L623.0759,215.7391 L622.3856,225.85 L622.5,235.9609 " fill="none" style="stroke:#383838;stroke-width:1.0;stroke-dasharray:5.0,5.0;"/><text fill="#000000" font-family="FG Virgil" font-size="14" lengthAdjust="spacingAndGlyphs" textLength="30" x="5" y="80.9951">GSH</text><polygon fill="#F8F8F8" points="31.0442,16.9459,29.8715,18.5482,28.4845,20.8951,26.5008,22.4767,24.4163,23.3415,22.7542,23.4166,20.618,22.3349,18.6023,21.6283,17.0724,20.1936,16.2699,18.5511,15.7939,17.2433,15.3277,15.5351,14.5709,14.0651,15.1525,12.6298,15.662,11.0576,17.574,9.8142,18.9192,8.2008,20.5843,7.665,22.5637,7.2037,25.1021,7.4778,26.4924,8.1335,28.1089,8.4307,30.0743,10.4443,30.7595,12.5701,31.0571,14.0206,30.72,16.4108" style="stroke:#383838;stroke-width:2.0;"/><path d="M23,23 L23.1868,23 L22.6317,28.4 L23.1718,33.8 L23.3553,39.2 L22.3659,44.6 L23,50 M10,31 L10,30.9309 L15.2,30.6209 L20.4,30.6591 L25.6,30.9394 L30.8,30.3854 L36,31 M23,50 L23.3719,50.3223 L19.9766,52.6331 L17.6672,55.8849 L15.4901,59.2515 L12.5424,61.9501 L10,65 M23,50 L23.0458,50.0397 L25.5785,52.9814 L28.3199,56.1039 L30.9606,59.1392 L33.7934,62.341 L36,65 " fill="none" style="stroke:#383838;stroke-width:2.0;"/><text fill="#000000" font-family="FG Virgil" font-size="14" lengthAdjust="spacingAndGlyphs" textLength="30" x="5" y="247.9561">GSH</text><polygon fill="#F8F8F8" points="31.0442,263.2037,29.8715,264.806,28.4845,267.1529,26.5008,268.7345,24.4163,269.5993,22.7542,269.6744,20.618,268.5928,18.6023,267.8861,17.0724,266.4514,16.2699,264.8089,15.7939,263.5011,15.3277,261.7929,14.5709,260.3229,15.1525,258.8876,15.662,257.3154,17.574,256.072,18.9192,254.4586,20.5843,253.9229,22.5637,253.4615,25.1021,253.7356,26.4924,254.3913,28.1089,254.6885,30.0743,256.7022,30.7595,258.828,31.0571,260.2784,30.72,262.6686" style="stroke:#383838;stroke-width:2.0;"/><path d="M23,269.2578 L23.1868,269.2578 L22.6317,274.6578 L23.1718,280.0578 L23.3553,285.4578 L22.3659,290.8578 L23,296.2578 M10,277.2578 L10,277.1887 L15.2,276.8787 L20.4,276.9169 L25.6,277.1972 L30.8,276.6433 L36,277.2578 M23,296.2578 L23.3719,296.5801 L19.9766,298.8909 L17.6672,302.1427 L15.4901,305.5093 L12.5424,308.2079 L10,311.2578 M23,296.2578 L23.0458,296.2975 L25.5785,299.2392 L28.3199,302.3617 L30.9606,305.397 L33.7934,308.5988 L36,311.2578 " fill="none" style="stroke:#383838;stroke-width:2.0;"/><polygon fill="#F8F8F8" points="590.5,53,590.5,53.2102,599.7857,52.5857,609.0714,53.1933,618.3571,53.3997,627.6429,52.2866,636.9286,52.9223,646.2143,52.5735,655.5,53,655.3722,53,655.4773,59.0594,655.2695,65.1188,655.6845,71.1781,655.2899,77.2375,655.5,83.2969,655.5,83.0991,646.2143,83.7288,636.9286,83.2111,627.6429,83.3651,618.3571,83.2649,609.0714,83.4754,599.7857,83.536,590.5,83.2969,590.6952,83.2969,590.7237,77.2375,590.7264,71.1781,590.5849,65.1188,590.6545,59.0594,590.5,53" style="stroke:#383838;stroke-width:1.5;"/><text fill="#000000" font-family="FG Virgil" font-size="14" lengthAdjust="spacingAndGlyphs" textLength="51" x="597.5" y="72.9951">System</text><polygon fill="#F8F8F8" points="590.5,234.9609,590.5,235.1711,599.7857,234.5466,609.0714,235.1542,618.3571,235.3606,627.6429,234.2475,636.9286,234.8832,646.2143,234.5344,655.5,234.9609,655.3722,234.9609,655.4773,241.0203,655.2695,247.0797,655.6845,253.1391,655.2899,259.1984,655.5,265.2578,655.5,265.06,646.2143,265.6898,636.9286,265.172,627.6429,265.3261,618.3571,265.2259,609.0714,265.4363,599.7857,265.4969,590.5,265.2578,590.6952,265.2578,590.7237,259.1984,590.7264,253.1391,590.5849,247.0797,590.6545,241.0203,590.5,234.9609" style="stroke:#383838;stroke-width:1.5;"/><text fill="#000000" font-family="FG Virgil" font-size="14" lengthAdjust="spacingAndGlyphs" textLength="51" x="597.5" y="254.9561">System</text><polygon fill="#FFFFFF" points="18,94.2969,18,94.3669,20,94.1588,22,94.3613,24,94.4301,26,94.0591,28,94.2969,27.9223,94.2969,27.5735,104.6022,27.6165,114.9076,27.9318,125.2129,27.3086,135.5182,28.5536,145.8236,27.3697,156.1289,27.8022,166.4342,28.4319,176.7396,27.9142,187.0449,28.0682,197.3503,27.9681,207.6556,28,217.9609,28,218.0204,26,218.0406,24,218.1562,22,218.1846,20,218.1874,18,217.9609,18.2546,217.9609,18.4636,207.6556,18.7022,197.3503,17.2788,187.0449,18.6785,176.7396,17.7035,166.4342,18.5338,156.1289,17.505,145.8236,17.9315,135.5182,18.7416,125.2129,17.9513,114.9076,18.1053,104.6022,18,94.2969" style="stroke:#383838;stroke-width:1.0;"/><polygon fill="#FFFFFF" points="618,130.5625,618,130.6326,620,130.4244,622,130.6269,624,130.6957,626,130.3247,628,130.5625,627.9741,130.5625,627.8578,136.3891,627.8722,142.2156,627.9773,148.0422,627.7695,153.8688,628,159.6953,628,159.8799,626,159.4852,624,159.6294,622,159.8393,620,159.6667,618,159.6953,618.0227,159.6953,617.9894,153.8688,618.0595,148.0422,618.0797,142.2156,618.1952,136.3891,618,130.5625" style="stroke:#383838;stroke-width:1.0;"/><polygon fill="#FFFFFF" points="618,188.8281,618,188.8982,620,188.69,622,188.8926,624,188.9614,626,188.5903,628,188.8281,627.9741,188.8281,627.8578,194.6547,627.8722,200.4813,627.9773,206.3078,627.7695,212.1344,628,217.9609,628,218.1455,626,217.7508,624,217.895,622,218.1049,620,217.9323,618,217.9609,618.0227,217.9609,617.9894,212.1344,618.0595,206.3078,618.0797,200.4813,618.1952,194.6547,618,188.8281" style="stroke:#383838;stroke-width:1.0;"/><polygon fill="#383838" points="606,126.5625,606.026,126.6275,607.9487,127.2343,610.0239,128.2223,612.0495,129.0862,613.9117,129.5417,616,130.5625,615.9904,130.5384,613.9472,131.2305,611.9525,132.0438,609.9916,132.9414,607.9144,133.5485,606,134.5625,606.1305,134.693,606.6514,133.6139,607.5534,132.9159,608.5018,132.2643,609.1798,131.3423,610,130.5625,610.0161,130.5786,609.1925,129.755,608.4421,129.0046,607.6564,128.2189,606.938,127.5005,606,126.5625" style="stroke:#383838;stroke-width:1.0;"/><path d="M28,130.5625 L28,130.8427 L38.069,130.0101 L48.1379,130.8202 L58.2069,131.0954 L68.2759,129.6113 L78.3448,130.4589 L88.4138,129.9938 L98.4828,130.0512 L108.5517,130.4716 L118.6207,129.6407 L128.6897,131.3007 L138.7586,129.7221 L148.8276,130.2988 L158.8966,131.1384 L168.9655,130.4481 L179.0345,130.6535 L189.1034,130.5199 L199.1724,130.8005 L209.2414,130.8813 L219.3103,131.3434 L229.3793,131.4572 L239.4483,131.4682 L249.5172,130.902 L259.5862,131.1806 L269.6552,131.4988 L279.7241,129.6009 L289.7931,131.4672 L299.8621,130.1672 L309.931,131.2742 L320,129.9025 L330.069,130.4712 L340.1379,131.5513 L350.2069,130.4975 L360.2759,130.7029 L370.3448,131.014 L380.4138,131.1175 L390.4828,130.5573 L400.5517,130.9455 L410.6207,129.7993 L420.6897,130.9417 L430.7586,131.2934 L440.8276,131.1552 L450.8966,131.3799 L460.9655,129.9184 L471.0345,129.6929 L481.1034,129.734 L491.1724,130.484 L501.2414,130.3005 L511.3103,131.471 L521.3793,130.3296 L531.4483,130.1051 L541.5172,130.8669 L551.5862,129.6734 L561.6552,129.8703 L571.7241,131.4278 L581.7931,131.1434 L591.8621,131.5418 L601.931,130.1334 L612,130.5625 " fill="none" style="stroke:#383838;stroke-width:1.0;"/><text fill="#000000" font-family="FG Virgil" font-size="13" lengthAdjust="spacingAndGlyphs" textLength="571" x="35" y="110.3638">pretende obter uma listagem sobre o (in)cumprimento do SLA das solicitações recebidas</text><text fill="#000000" font-family="FG Virgil" font-size="13" lengthAdjust="spacingAndGlyphs" textLength="338" x="39" y="125.4966">e já concluídas num determinado intervalo de tempo</text><polygon fill="#383838" points="39,155.6953,39.026,155.7604,36.9487,156.3671,35.0239,157.3551,33.0495,158.219,30.9117,158.6745,29,159.6953,28.9904,159.6713,30.9472,160.3633,32.9525,161.1766,34.9916,162.0742,36.9144,162.6813,39,163.6953,39.1305,163.8258,38.0514,162.7468,37.3534,162.0487,36.7018,161.3971,35.7798,160.4751,35,159.6953,35.0161,159.7114,35.7925,158.8878,36.6421,158.1374,37.4564,157.3517,38.338,156.6334,39,155.6953" style="stroke:#383838;stroke-width:1.0;"/><path d="M33,159.6953 L33,159.9756 L42.9831,159.1429 L52.9661,159.953 L62.9492,160.2282 L72.9322,158.7441 L82.9153,159.5917 L92.8983,159.1267 L102.8814,159.184 L112.8644,159.6044 L122.8475,158.7735 L132.8305,160.4335 L142.8136,158.8549 L152.7966,159.4316 L162.7797,160.2712 L172.7627,159.5809 L182.7458,159.7863 L192.7288,159.6527 L202.7119,159.9333 L212.6949,160.0142 L222.678,160.4762 L232.661,160.5901 L242.6441,160.601 L252.6271,160.0348 L262.6102,160.3134 L272.5932,160.6316 L282.5763,158.7337 L292.5593,160.6 L302.5424,159.3 L312.5254,160.4071 L322.5085,159.0353 L332.4915,159.604 L342.4746,160.6841 L352.4576,159.6303 L362.4407,159.8357 L372.4237,160.1468 L382.4068,160.2503 L392.3898,159.6901 L402.3729,160.0783 L412.3559,158.9321 L422.339,160.0745 L432.322,160.4262 L442.3051,160.288 L452.2881,160.5127 L462.2712,159.0512 L472.2542,158.8257 L482.2373,158.8668 L492.2203,159.6168 L502.2034,159.4333 L512.1864,160.6039 L522.1695,159.4624 L532.1525,159.2379 L542.1356,159.9997 L552.1186,158.8062 L562.1017,159.0031 L572.0847,160.5606 L582.0678,160.2762 L592.0508,160.6746 L602.0339,159.2663 L612.0169,160.1209 L622,159.6953 " fill="none" style="stroke:#383838;stroke-width:1.0;stroke-dasharray:2.0,2.0;"/><text fill="#000000" font-family="FG Virgil" font-size="13" lengthAdjust="spacingAndGlyphs" textLength="408" x="45" y="154.6294">solicita um intervalo de tempo para filtrar solicitações recebidas</text><polygon fill="#383838" points="606,184.8281,606.026,184.8932,607.9487,185.4999,610.0239,186.4879,612.0495,187.3518,613.9117,187.8073,616,188.8281,615.9904,188.8041,613.9472,189.4961,611.9525,190.3094,609.9916,191.207,607.9144,191.8142,606,192.8281,606.1305,192.9586,606.6514,191.8796,607.5534,191.1815,608.5018,190.5299,609.1798,189.6079,610,188.8281,610.0161,188.8442,609.1925,188.0206,608.4421,187.2702,607.6564,186.4845,606.938,185.7662,606,184.8281" style="stroke:#383838;stroke-width:1.0;"/><path d="M28,188.8281 L28,189.1084 L38.069,188.2757 L48.1379,189.0858 L58.2069,189.361 L68.2759,187.8769 L78.3448,188.7245 L88.4138,188.2595 L98.4828,188.3168 L108.5517,188.7372 L118.6207,187.9063 L128.6897,189.5663 L138.7586,187.9878 L148.8276,188.5644 L158.8966,189.4041 L168.9655,188.7138 L179.0345,188.9191 L189.1034,188.7855 L199.1724,189.0662 L209.2414,189.147 L219.3103,189.609 L229.3793,189.7229 L239.4483,189.7338 L249.5172,189.1676 L259.5862,189.4462 L269.6552,189.7644 L279.7241,187.8665 L289.7931,189.7328 L299.8621,188.4328 L309.931,189.5399 L320,188.1681 L330.069,188.7368 L340.1379,189.8169 L350.2069,188.7631 L360.2759,188.9685 L370.3448,189.2796 L380.4138,189.3831 L390.4828,188.8229 L400.5517,189.2111 L410.6207,188.0649 L420.6897,189.2073 L430.7586,189.5591 L440.8276,189.4208 L450.8966,189.6455 L460.9655,188.184 L471.0345,187.9585 L481.1034,187.9996 L491.1724,188.7496 L501.2414,188.5661 L511.3103,189.7367 L521.3793,188.5952 L531.4483,188.3707 L541.5172,189.1325 L551.5862,187.939 L561.6552,188.136 L571.7241,189.6934 L581.7931,189.409 L591.8621,189.8074 L601.931,188.3991 L612,188.8281 " fill="none" style="stroke:#383838;stroke-width:1.0;"/><text fill="#000000" font-family="FG Virgil" font-size="13" lengthAdjust="spacingAndGlyphs" textLength="172" x="35" y="183.7622">insere os dados solicitados</text><polygon fill="#383838" points="34,213.9609,34.026,214.026,31.9487,214.6327,30.0239,215.6208,28.0495,216.4846,25.9117,216.9401,24,217.9609,23.9904,217.9369,25.9472,218.6289,27.9525,219.4422,29.9916,220.3398,31.9144,220.947,34,221.9609,34.1305,222.0914,33.0514,221.0124,32.3534,220.3143,31.7018,219.6627,30.7798,218.7407,30,217.9609,30.0161,217.977,30.7925,217.1534,31.6421,216.403,32.4564,215.6173,33.338,214.899,34,213.9609" style="stroke:#383838;stroke-width:1.0;"/><path d="M28,217.9609 L28,218.2412 L38.0678,217.4085 L48.1356,218.2187 L58.2034,218.4938 L68.2712,217.0097 L78.339,217.8573 L88.4068,217.3923 L98.4746,217.4496 L108.5424,217.8701 L118.6102,217.0391 L128.678,218.6991 L138.7458,217.1206 L148.8136,217.6972 L158.8814,218.5369 L168.9492,217.8466 L179.0169,218.0519 L189.0847,217.9183 L199.1525,218.199 L209.2203,218.2798 L219.2881,218.7419 L229.3559,218.8557 L239.4237,218.8666 L249.4915,218.3004 L259.5593,218.5791 L269.6271,218.8972 L279.6949,216.9994 L289.7627,218.8656 L299.8305,217.5656 L309.8983,218.6727 L319.9661,217.3009 L330.0339,217.8696 L340.1017,218.9497 L350.1695,217.896 L360.2373,218.1013 L370.3051,218.4124 L380.3729,218.5159 L390.4407,217.9557 L400.5085,218.3439 L410.5763,217.1977 L420.6441,218.3401 L430.7119,218.6919 L440.7797,218.5536 L450.8475,218.7783 L460.9153,217.3168 L470.9831,217.0914 L481.0508,217.1324 L491.1186,217.8824 L501.1864,217.6989 L511.2542,218.8695 L521.322,217.728 L531.3898,217.5035 L541.4576,218.2653 L551.5254,217.0718 L561.5932,217.2688 L571.661,218.8262 L581.7288,218.5418 L591.7966,218.9403 L601.8644,217.5319 L611.9322,218.3865 L622,217.9609 " fill="none" style="stroke:#383838;stroke-width:1.0;stroke-dasharray:2.0,2.0;"/><text fill="#000000" font-family="FG Virgil" font-size="13" lengthAdjust="spacingAndGlyphs" textLength="322" x="40" y="212.895">mostra a listagem e informa sucesso da operação</text><!--MD5=[84fbd2e447abb99e2ffa3b3754c14da6]
@startuml
'http://plantuml.com/skinparam.html
skinparam handwritten true
skinparam monochrome true
skinparam packageStyle rect
skinparam defaultFontName FG Virgil
skinparam shadowing false

actor GSH as Actor
participant System as System
activate Actor
Actor -> System: pretende obter uma listagem sobre o (in)cumprimento do SLA das solicitações recebidas\n e já concluídas num determinado intervalo de tempo
activate System
System - -> Actor: solicita um intervalo de tempo para filtrar solicitações recebidas
deactivate System

Actor -> System: insere os dados solicitados
activate System
System - -> Actor: mostra a listagem e informa sucesso da operação
deactivate System
deactivate Actor
@enduml

@startuml
skinparam handwritten true
skinparam monochrome true
skinparam packageStyle rect
skinparam defaultFontName FG Virgil
skinparam shadowing false

actor GSH as Actor
participant System as System
activate Actor
Actor -> System: pretende obter uma listagem sobre o (in)cumprimento do SLA das solicitações recebidas\n e já concluídas num determinado intervalo de tempo
activate System
System - -> Actor: solicita um intervalo de tempo para filtrar solicitações recebidas
deactivate System

Actor -> System: insere os dados solicitados
activate System
System - -> Actor: mostra a listagem e informa sucesso da operação
deactivate System
deactivate Actor
@enduml

PlantUML version 1.2020.22(Sun Dec 06 09:36:27 UTC 2020)
(GPL source distribution)
Java Runtime: OpenJDK Runtime Environment
JVM: OpenJDK 64-Bit Server VM
Default Encoding: UTF-8
Language: en
Country: US
--></g></svg>