<?xml version="1.0" encoding="UTF-8" standalone="no"?><svg xmlns="http://www.w3.org/2000/svg" xmlns:xlink="http://www.w3.org/1999/xlink" contentScriptType="application/ecmascript" contentStyleType="text/css" height="676px" preserveAspectRatio="none" style="width:1020px;height:676px;background:#FFFFFF;" version="1.1" viewBox="0 0 1020 676" width="1020px" zoomAndPan="magnify"><defs><filter height="300%" id="fnk4zbp8ars9l" width="300%" x="-1" y="-1"><feGaussianBlur result="blurOut" stdDeviation="2.0"/><feColorMatrix in="blurOut" result="blurOut2" type="matrix" values="0 0 0 0 0 0 0 0 0 0 0 0 0 0 0 0 0 0 .4 0"/><feOffset dx="4.0" dy="4.0" in="blurOut2" result="blurOut3"/><feBlend in="SourceGraphic" in2="blurOut3" mode="normal"/></filter></defs><g><ellipse cx="834.2363" cy="16" fill="#000000" filter="url(#fnk4zbp8ars9l)" rx="10" ry="10" style="stroke:none;stroke-width:1.0;"/><g id="ExecutorTarefaAutomaticaDaemon"><rect fill="#F8F8F8" filter="url(#fnk4zbp8ars9l)" height="50" rx="12.5" ry="12.5" style="stroke:#383838;stroke-width:1.5;" width="273" x="697.7363" y="103"/><line style="stroke:#383838;stroke-width:1.5;" x1="697.7363" x2="970.7363" y1="129.2969" y2="129.2969"/><text fill="#000000" font-family="sans-serif" font-size="14" lengthAdjust="spacing" textLength="253" x="707.7363" y="120.9951">ExecutorTarefaAutomaticaDaemon</text></g><g id="ExecutorServer"><rect fill="#F8F8F8" filter="url(#fnk4zbp8ars9l)" height="50" rx="12.5" ry="12.5" style="stroke:#383838;stroke-width:1.5;" width="131" x="768.7363" y="230"/><line style="stroke:#383838;stroke-width:1.5;" x1="768.7363" x2="899.7363" y1="256.2969" y2="256.2969"/><text fill="#000000" font-family="sans-serif" font-size="14" lengthAdjust="spacing" textLength="111" x="778.7363" y="247.9951">ExecutorServer</text></g><g id="ServerSocket"><rect fill="#F8F8F8" filter="url(#fnk4zbp8ars9l)" height="50" rx="12.5" ry="12.5" style="stroke:#383838;stroke-width:1.5;" width="118" x="887.2363" y="357"/><line style="stroke:#383838;stroke-width:1.5;" x1="887.2363" x2="1005.2363" y1="383.2969" y2="383.2969"/><text fill="#000000" font-family="sans-serif" font-size="14" lengthAdjust="spacing" textLength="98" x="897.2363" y="374.9951">ServerSocket</text></g><ellipse cx="571.2363" cy="654" filter="url(#fnk4zbp8ars9l)" rx="10" ry="10" style="stroke:#000000;stroke-width:1.0;fill:none;"/><ellipse cx="571.7363" cy="654.5" fill="#000000" rx="6" ry="6" style="stroke:none;stroke-width:1.0;"/><g id="ClientHandler"><rect fill="#F8F8F8" filter="url(#fnk4zbp8ars9l)" height="50" rx="12.5" ry="12.5" style="stroke:#383838;stroke-width:1.5;" width="118" x="607.2363" y="357"/><line style="stroke:#383838;stroke-width:1.5;" x1="607.2363" x2="725.2363" y1="383.2969" y2="383.2969"/><text fill="#000000" font-family="sans-serif" font-size="14" lengthAdjust="spacing" textLength="98" x="617.2363" y="374.9951">ClientHandler</text></g><g id="ExecutorProtocolMessageParser"><rect fill="#F8F8F8" filter="url(#fnk4zbp8ars9l)" height="50" rx="12.5" ry="12.5" style="stroke:#383838;stroke-width:1.5;" width="251" x="332.7363" y="517"/><line style="stroke:#383838;stroke-width:1.5;" x1="332.7363" x2="583.7363" y1="543.2969" y2="543.2969"/><text fill="#000000" font-family="sans-serif" font-size="14" lengthAdjust="spacing" textLength="231" x="342.7363" y="534.9951">ExecutorProtocolMessageParser</text></g><g id="ExecutorTarefaAutomatica"><rect fill="#F8F8F8" filter="url(#fnk4zbp8ars9l)" height="50" rx="12.5" ry="12.5" style="stroke:#383838;stroke-width:1.5;" width="213" x="210.7363" y="230"/><line style="stroke:#383838;stroke-width:1.5;" x1="210.7363" x2="423.7363" y1="256.2969" y2="256.2969"/><text fill="#000000" font-family="sans-serif" font-size="14" lengthAdjust="spacing" textLength="193" x="220.7363" y="247.9951">ExecutorTarefaAutomatica</text></g><g id="TcpChatCliConn"><rect fill="#F8F8F8" filter="url(#fnk4zbp8ars9l)" height="50" rx="12.5" ry="12.5" style="stroke:#383838;stroke-width:1.5;" width="136" x="598.2363" y="437"/><line style="stroke:#383838;stroke-width:1.5;" x1="598.2363" x2="734.2363" y1="463.2969" y2="463.2969"/><text fill="#000000" font-family="sans-serif" font-size="14" lengthAdjust="spacing" textLength="116" x="608.2363" y="454.9951">TcpChatCliConn</text></g><!--MD5=[4bb9b0990c5a337b17e139623f346a40]
link *start to ExecutorTarefaAutomaticaDaemon--><path d="M834.2363,26.002 C834.2363,41.458 834.2363,73.685 834.2363,97.6 " fill="none" id="*start-to-ExecutorTarefaAutomaticaDaemon" style="stroke:#383838;stroke-width:1.0;"/><polygon fill="#383838" points="834.2363,102.873,838.2363,93.873,834.2363,97.873,830.2363,93.873,834.2363,102.873" style="stroke:#383838;stroke-width:1.0;"/><text fill="#000000" font-family="sans-serif" font-size="13" lengthAdjust="spacing" textLength="177" x="835.2363" y="69.0669">encontra tarefa automatica</text><!--MD5=[6fb0f4ea81bf063163274fcb005f5c12]
link ExecutorTarefaAutomaticaDaemon to ExecutorServer--><path d="M834.2363,153.101 C834.2363,173.593 834.2363,203.076 834.2363,224.884 " fill="none" id="ExecutorTarefaAutomaticaDaemon-to-ExecutorServer" style="stroke:#383838;stroke-width:1.0;"/><polygon fill="#383838" points="834.2363,229.973,838.2363,220.973,834.2363,224.973,830.2363,220.973,834.2363,229.973" style="stroke:#383838;stroke-width:1.0;"/><text fill="#000000" font-family="sans-serif" font-size="13" lengthAdjust="spacing" textLength="41" x="835.2363" y="196.0669">create</text><!--MD5=[683470f686c60c1afc169bf542560567]
link ExecutorServer to ServerSocket--><path d="M855.8313,280.101 C874.5023,300.939 901.5033,331.074 921.1323,352.982 " fill="none" id="ExecutorServer-to-ServerSocket" style="stroke:#383838;stroke-width:1.0;"/><polygon fill="#383838" points="924.7083,356.973,921.6813,347.6009,921.3716,353.2492,915.7232,352.9396,924.7083,356.973" style="stroke:#383838;stroke-width:1.0;"/><text fill="#000000" font-family="sans-serif" font-size="13" lengthAdjust="spacing" textLength="68" x="898.2363" y="323.0669">port valida</text><!--MD5=[b096fe4f941cf624b372004779a5f933]
link ExecutorServer to *end--><path d="M829.8443,280.432 C816.8263,345.468 772.2013,523.974 661.2363,614 C638.1493,632.7309 604.6933,644.0523 585.7493,649.3589 " fill="none" id="ExecutorServer-to-*end" style="stroke:#383838;stroke-width:1.0;"/><polygon fill="#383838" points="580.8113,650.6972,590.5445,652.2024,585.637,649.3887,588.4508,644.4812,580.8113,650.6972" style="stroke:#383838;stroke-width:1.0;"/><text fill="#000000" font-family="sans-serif" font-size="13" lengthAdjust="spacing" textLength="104" x="783.2363" y="466.5669">porta nao valida</text><!--MD5=[2dcd008559184777ef6bc2cd413c4ab2]
link ExecutorServer to ClientHandler--><path d="M768.3083,258.132 C730.1433,263.18 684.9063,276.513 660.2363,310 C651.5453,321.797 652.1813,337.878 655.3743,351.753 " fill="none" id="ExecutorServer-to-ClientHandler" style="stroke:#383838;stroke-width:1.0;"/><polygon fill="#383838" points="656.6543,356.753,658.2969,347.0421,655.4141,351.9093,650.5469,349.0264,656.6543,356.753" style="stroke:#383838;stroke-width:1.0;"/><text fill="#000000" font-family="sans-serif" font-size="13" lengthAdjust="spacing" textLength="146" x="661.2363" y="323.0669">aceita um novo cliente</text><!--MD5=[5b6332c454d8ef6b4d57dd1db6ecee23]
link ClientHandler to ExecutorProtocolMessageParser--><path d="M607.1303,399.942 C598.1413,402.389 588.9573,404.816 580.2363,407 C520.6143,421.933 483.6963,389.056 445.2363,437 C428.4413,457.937 435.3173,489.275 444.1613,512.077 " fill="none" id="ClientHandler-to-ExecutorProtocolMessageParser" style="stroke:#383838;stroke-width:1.0;"/><polygon fill="#383838" points="446.0713,516.806,446.4087,506.9629,444.1983,512.17,438.9912,509.9596,446.0713,516.806" style="stroke:#383838;stroke-width:1.0;"/><text fill="#000000" font-family="sans-serif" font-size="13" lengthAdjust="spacing" textLength="133" x="446.2363" y="466.5669">parse da mensagem</text><!--MD5=[9d09f18a78577b68d08f4eb44aa63fc5]
link ExecutorProtocolMessageParser to ExecutorTarefaAutomatica--><path d="M426.5213,516.911 C397.1653,492.65 355.0193,452.39 334.2363,407 C316.2753,367.773 314.3243,317.042 315.2583,285.513 " fill="none" id="ExecutorProtocolMessageParser-to-ExecutorTarefaAutomatica" style="stroke:#383838;stroke-width:1.0;"/><polygon fill="#383838" points="315.4473,280.24,311.1284,289.0914,315.2687,285.2368,319.1233,289.3771,315.4473,280.24" style="stroke:#383838;stroke-width:1.0;"/><text fill="#000000" font-family="sans-serif" font-size="13" lengthAdjust="spacing" textLength="253" x="335.2363" y="386.5669">codigo equivalente a tarefa automatica</text><!--MD5=[451d9aab583c9730d442022b0ab9341c]
link ExecutorProtocolMessageParser to *end--><path d="M477.2283,567.0965 C488.9673,581.3719 504.7123,599.4536 520.2363,614 C532.6203,625.6036 548.3123,637.1996 558.9983,644.6928 " fill="none" id="ExecutorProtocolMessageParser-to-*end" style="stroke:#383838;stroke-width:1.0;"/><polygon fill="#383838" points="563.2473,647.641,558.1327,639.2243,559.1391,644.7909,553.5725,645.7973,563.2473,647.641" style="stroke:#383838;stroke-width:1.0;"/><text fill="#000000" font-family="sans-serif" font-size="13" lengthAdjust="spacing" textLength="104" x="521.2363" y="610.0669">codigo diferente</text><!--MD5=[45b361b17eed2ad2ef0fed0fe8f55916]
link ExecutorTarefaAutomatica to ClientHandler--><path d="M340.9883,280.213 C357.9633,296.048 382.1573,315.806 407.2363,327 C478.4963,358.807 504.1143,339.824 580.2363,357 C587.3623,358.608 594.7783,360.437 602.1373,362.352 " fill="none" id="ExecutorTarefaAutomatica-to-ClientHandler" style="stroke:#383838;stroke-width:1.0;"/><polygon fill="#383838" points="607.2183,363.689,599.533,357.5298,602.383,362.4163,597.4966,365.2663,607.2183,363.689" style="stroke:#383838;stroke-width:1.0;"/><text fill="#000000" font-family="sans-serif" font-size="13" lengthAdjust="spacing" textLength="237" x="408.2363" y="323.0669">se script for encontrado e executado</text><!--MD5=[4969e00b6fca3ec98d58bdf077d3bbd1]
link ExecutorTarefaAutomatica to *end--><path d="M253.6153,280.03 C160.8403,318.744 6,399.485 69.2365,487 C130.4013,571.648 479.4213,636.9631 556.2703,650.4397 " fill="none" id="ExecutorTarefaAutomatica-to-*end" style="stroke:#383838;stroke-width:1.0;"/><polygon fill="#383838" points="561.3253,651.32,553.1442,645.8364,556.3993,650.4629,551.7728,653.7179,561.3253,651.32" style="stroke:#383838;stroke-width:1.0;"/><text fill="#000000" font-family="sans-serif" font-size="13" lengthAdjust="spacing" textLength="273" x="70.2365" y="466.5669">se script nao for encontrado ou executado</text><!--MD5=[cae80414c814102cc049283b84f2b8f0]
link ClientHandler to TcpChatCliConn--><path d="M666.2363,407.252 C666.2363,414.883 666.2363,423.396 666.2363,431.357 " fill="none" id="ClientHandler-to-TcpChatCliConn" style="stroke:#383838;stroke-width:1.0;"/><polygon fill="#383838" points="666.2363,436.763,670.2363,427.763,666.2363,431.763,662.2363,427.763,666.2363,436.763" style="stroke:#383838;stroke-width:1.0;"/><!--MD5=[06d886a753a952d47e9573463f639363]
link TcpChatCliConn to *end--><path d="M665.8243,487.178 C664.1663,518.982 657.2693,575.3536 630.2363,614 C618.9543,630.1298 598.6653,641.3519 585.0743,647.4876 " fill="none" id="TcpChatCliConn-to-*end" style="stroke:#383838;stroke-width:1.0;"/><polygon fill="#383838" points="580.3993,649.5176,590.2478,649.6021,584.9856,647.5262,587.0615,642.264,580.3993,649.5176" style="stroke:#383838;stroke-width:1.0;"/><!--MD5=[667d829f687dd7244c762fd2d252a456]
@startuml
'scale 350 width
skinparam monochrome true

[*] - -> ExecutorTarefaAutomaticaDaemon : encontra tarefa automatica

ExecutorTarefaAutomaticaDaemon - -> ExecutorServer : create
ExecutorServer - -> ServerSocket : port valida
ExecutorServer - -> [*] : porta nao valida
ExecutorServer - -> ClientHandler : aceita um novo cliente
ClientHandler - -> ExecutorProtocolMessageParser : parse da mensagem
ExecutorProtocolMessageParser - -> ExecutorTarefaAutomatica : codigo equivalente a tarefa automatica
ExecutorProtocolMessageParser - -> [*] : codigo diferente
ExecutorTarefaAutomatica - -> ClientHandler : se script for encontrado e executado
ExecutorTarefaAutomatica -> [*] : se script nao for encontrado ou executado
ClientHandler -> TcpChatCliConn : envia mensagem que acabou a execucao
TcpChatCliConn - -> [*]
@enduml

@startuml
skinparam monochrome true

[*] - -> ExecutorTarefaAutomaticaDaemon : encontra tarefa automatica

ExecutorTarefaAutomaticaDaemon - -> ExecutorServer : create
ExecutorServer - -> ServerSocket : port valida
ExecutorServer - -> [*] : porta nao valida
ExecutorServer - -> ClientHandler : aceita um novo cliente
ClientHandler - -> ExecutorProtocolMessageParser : parse da mensagem
ExecutorProtocolMessageParser - -> ExecutorTarefaAutomatica : codigo equivalente a tarefa automatica
ExecutorProtocolMessageParser - -> [*] : codigo diferente
ExecutorTarefaAutomatica - -> ClientHandler : se script for encontrado e executado
ExecutorTarefaAutomatica -> [*] : se script nao for encontrado ou executado
ClientHandler -> TcpChatCliConn : envia mensagem que acabou a execucao
TcpChatCliConn - -> [*]
@enduml

PlantUML version 1.2021.7(Sun May 23 12:40:07 UTC 2021)
(GPL source distribution)
Java Runtime: Java(TM) SE Runtime Environment
JVM: Java HotSpot(TM) 64-Bit Server VM
Default Encoding: UTF-8
Language: en
Country: US
--></g></svg>