<?xml version="1.0" encoding="UTF-8" standalone="no"?><svg xmlns="http://www.w3.org/2000/svg" xmlns:xlink="http://www.w3.org/1999/xlink" contentScriptType="application/ecmascript" contentStyleType="text/css" height="250px" preserveAspectRatio="none" style="width:529px;height:250px;background:#FFFFFF;" version="1.1" viewBox="0 0 529 250" width="529px" zoomAndPan="magnify"><defs><filter height="300%" id="f1pv4srxle5j45" width="300%" x="-1" y="-1"><feGaussianBlur result="blurOut" stdDeviation="2.0"/><feColorMatrix in="blurOut" result="blurOut2" type="matrix" values="0 0 0 0 0 0 0 0 0 0 0 0 0 0 0 0 0 0 .4 0"/><feOffset dx="4.0" dy="4.0" in="blurOut2" result="blurOut3"/><feBlend in="SourceGraphic" in2="blurOut3" mode="normal"/></filter></defs><g><rect fill="#FFFFFF" filter="url(#f1pv4srxle5j45)" height="50.2656" style="stroke:#A80036;stroke-width:1.0;" width="10" x="67" y="98.2969"/><rect fill="#FFFFFF" filter="url(#f1pv4srxle5j45)" height="29.1328" style="stroke:#A80036;stroke-width:1.0;" width="10" x="476" y="119.4297"/><line style="stroke:#A80036;stroke-width:1.0;stroke-dasharray:5.0,5.0;" x1="72" x2="72" y1="88.2969" y2="166.5625"/><line style="stroke:#A80036;stroke-width:1.0;stroke-dasharray:5.0,5.0;" x1="480.5" x2="480.5" y1="88.2969" y2="166.5625"/><text fill="#000000" font-family="sans-serif" font-size="14" lengthAdjust="spacing" textLength="128" x="5" y="84.9951">Gestor de Projeto</text><ellipse cx="72" cy="15" fill="#FEFECE" filter="url(#f1pv4srxle5j45)" rx="8" ry="8" style="stroke:#A80036;stroke-width:2.0;"/><path d="M72,23 L72,50 M59,31 L85,31 M72,50 L59,65 M72,50 L85,65 " fill="none" filter="url(#f1pv4srxle5j45)" style="stroke:#A80036;stroke-width:2.0;"/><text fill="#000000" font-family="sans-serif" font-size="14" lengthAdjust="spacing" textLength="128" x="5" y="178.5576">Gestor de Projeto</text><ellipse cx="72" cy="191.8594" fill="#FEFECE" filter="url(#f1pv4srxle5j45)" rx="8" ry="8" style="stroke:#A80036;stroke-width:2.0;"/><path d="M72,199.8594 L72,226.8594 M59,207.8594 L85,207.8594 M72,226.8594 L59,241.8594 M72,226.8594 L85,241.8594 " fill="none" filter="url(#f1pv4srxle5j45)" style="stroke:#A80036;stroke-width:2.0;"/><rect fill="#FEFECE" filter="url(#f1pv4srxle5j45)" height="30.2969" style="stroke:#A80036;stroke-width:1.5;" width="73" x="442.5" y="53"/><text fill="#000000" font-family="sans-serif" font-size="14" lengthAdjust="spacing" textLength="59" x="449.5" y="72.9951">:System</text><rect fill="#FEFECE" filter="url(#f1pv4srxle5j45)" height="30.2969" style="stroke:#A80036;stroke-width:1.5;" width="73" x="442.5" y="165.5625"/><text fill="#000000" font-family="sans-serif" font-size="14" lengthAdjust="spacing" textLength="59" x="449.5" y="185.5576">:System</text><rect fill="#FFFFFF" filter="url(#f1pv4srxle5j45)" height="50.2656" style="stroke:#A80036;stroke-width:1.0;" width="10" x="67" y="98.2969"/><rect fill="#FFFFFF" filter="url(#f1pv4srxle5j45)" height="29.1328" style="stroke:#A80036;stroke-width:1.0;" width="10" x="476" y="119.4297"/><polygon fill="#A80036" points="464,115.4297,474,119.4297,464,123.4297,468,119.4297" style="stroke:#A80036;stroke-width:1.0;"/><line style="stroke:#A80036;stroke-width:1.0;" x1="77" x2="470" y1="119.4297" y2="119.4297"/><text fill="#000000" font-family="sans-serif" font-size="13" font-weight="bold" lengthAdjust="spacing" textLength="9" x="84" y="114.3638">1</text><text fill="#000000" font-family="sans-serif" font-size="13" lengthAdjust="spacing" textLength="367" x="97" y="114.3638">pretende garantir que as comunicações estão protegidas</text><polygon fill="#A80036" points="83,144.5625,73,148.5625,83,152.5625,79,148.5625" style="stroke:#A80036;stroke-width:1.0;"/><line style="stroke:#A80036;stroke-width:1.0;stroke-dasharray:2.0,2.0;" x1="77" x2="480" y1="148.5625" y2="148.5625"/><text fill="#000000" font-family="sans-serif" font-size="13" font-weight="bold" lengthAdjust="spacing" textLength="9" x="89" y="143.4966">2</text><text fill="#000000" font-family="sans-serif" font-size="13" lengthAdjust="spacing" textLength="304" x="102" y="143.4966">proteção garantida com a aplicação de SSL/TLS</text><!--MD5=[c14a204207c30c2406a6352bfe9d2208]
@startuml
autonumber
actor "Gestor de Projeto" as USR

activate USR
USR -> ":System" : pretende garantir que as comunicações estão protegidas
activate ":System"
":System" - -> USR : proteção garantida com a aplicação de SSL/TLS
deactivate ":System"

deactivate USR
@enduml

PlantUML version 1.2021.7(Sun May 23 12:40:07 UTC 2021)
(GPL source distribution)
Java Runtime: Java(TM) SE Runtime Environment
JVM: Java HotSpot(TM) 64-Bit Server VM
Default Encoding: UTF-8
Language: en
Country: US
--></g></svg>