<?xml version="1.0" encoding="UTF-8" standalone="no"?><svg xmlns="http://www.w3.org/2000/svg" xmlns:xlink="http://www.w3.org/1999/xlink" contentScriptType="application/ecmascript" contentStyleType="text/css" height="406px" preserveAspectRatio="none" style="width:572px;height:406px;" version="1.1" viewBox="0 0 572 406" width="572px" zoomAndPan="magnify"><defs><filter height="300%" id="f1rtay4buqankk" width="300%" x="-1" y="-1"><feGaussianBlur result="blurOut" stdDeviation="2.0"/><feColorMatrix in="blurOut" result="blurOut2" type="matrix" values="0 0 0 0 0 0 0 0 0 0 0 0 0 0 0 0 0 0 .4 0"/><feOffset dx="4.0" dy="4.0" in="blurOut2" result="blurOut3"/><feBlend in="SourceGraphic" in2="blurOut3" mode="normal"/></filter></defs><g><rect fill="#FFFFFF" filter="url(#f1rtay4buqankk)" height="262.1953" style="stroke:#A80036;stroke-width:1.0;" width="10" x="18" y="119.4297"/><rect fill="#FFFFFF" filter="url(#f1rtay4buqankk)" height="29.1328" style="stroke:#A80036;stroke-width:1.0;" width="10" x="521" y="119.4297"/><rect fill="#FFFFFF" filter="url(#f1rtay4buqankk)" height="29.1328" style="stroke:#A80036;stroke-width:1.0;" width="10" x="521" y="177.6953"/><rect fill="#FFFFFF" filter="url(#f1rtay4buqankk)" height="29.1328" style="stroke:#A80036;stroke-width:1.0;" width="10" x="521" y="235.9609"/><rect fill="#FFFFFF" filter="url(#f1rtay4buqankk)" height="29.1328" style="stroke:#A80036;stroke-width:1.0;" width="10" x="521" y="294.2266"/><rect fill="#FFFFFF" filter="url(#f1rtay4buqankk)" height="29.1328" style="stroke:#A80036;stroke-width:1.0;" width="10" x="521" y="352.4922"/><line style="stroke:#A80036;stroke-width:1.0;stroke-dasharray:5.0,5.0;" x1="23" x2="23" y1="88.2969" y2="399.625"/><line style="stroke:#A80036;stroke-width:1.0;stroke-dasharray:5.0,5.0;" x1="526" x2="526" y1="88.2969" y2="399.625"/><text fill="#000000" font-family="sans-serif" font-size="14" lengthAdjust="spacing" textLength="30" x="5" y="84.9951">RRH</text><ellipse cx="23" cy="15" fill="#FEFECE" filter="url(#f1rtay4buqankk)" rx="8" ry="8" style="stroke:#A80036;stroke-width:2.0;"/><path d="M23,23 L23,50 M10,31 L36,31 M23,50 L10,65 M23,50 L36,65 " fill="none" filter="url(#f1rtay4buqankk)" style="stroke:#A80036;stroke-width:2.0;"/><rect fill="#FEFECE" filter="url(#f1rtay4buqankk)" height="30.2969" style="stroke:#A80036;stroke-width:1.5;" width="68" x="490" y="53"/><text fill="#000000" font-family="sans-serif" font-size="14" lengthAdjust="spacing" textLength="54" x="497" y="72.9951">System</text><rect fill="#FFFFFF" filter="url(#f1rtay4buqankk)" height="262.1953" style="stroke:#A80036;stroke-width:1.0;" width="10" x="18" y="119.4297"/><rect fill="#FFFFFF" filter="url(#f1rtay4buqankk)" height="29.1328" style="stroke:#A80036;stroke-width:1.0;" width="10" x="521" y="119.4297"/><rect fill="#FFFFFF" filter="url(#f1rtay4buqankk)" height="29.1328" style="stroke:#A80036;stroke-width:1.0;" width="10" x="521" y="177.6953"/><rect fill="#FFFFFF" filter="url(#f1rtay4buqankk)" height="29.1328" style="stroke:#A80036;stroke-width:1.0;" width="10" x="521" y="235.9609"/><rect fill="#FFFFFF" filter="url(#f1rtay4buqankk)" height="29.1328" style="stroke:#A80036;stroke-width:1.0;" width="10" x="521" y="294.2266"/><rect fill="#FFFFFF" filter="url(#f1rtay4buqankk)" height="29.1328" style="stroke:#A80036;stroke-width:1.0;" width="10" x="521" y="352.4922"/><polygon fill="#A80036" points="509,115.4297,519,119.4297,509,123.4297,513,119.4297" style="stroke:#A80036;stroke-width:1.0;"/><line style="stroke:#A80036;stroke-width:1.0;" x1="28" x2="515" y1="119.4297" y2="119.4297"/><text fill="#000000" font-family="sans-serif" font-size="13" lengthAdjust="spacing" textLength="479" x="35" y="114.3638">Inicia o processo de remoção/associação de um colaborador a uma equipa</text><polygon fill="#A80036" points="39,144.5625,29,148.5625,39,152.5625,35,148.5625" style="stroke:#A80036;stroke-width:1.0;"/><line style="stroke:#A80036;stroke-width:1.0;" x1="33" x2="525" y1="148.5625" y2="148.5625"/><text fill="#000000" font-family="sans-serif" font-size="13" lengthAdjust="spacing" textLength="157" x="45" y="143.4966">Pede nome/ID de equipa</text><polygon fill="#A80036" points="509,173.6953,519,177.6953,509,181.6953,513,177.6953" style="stroke:#A80036;stroke-width:1.0;"/><line style="stroke:#A80036;stroke-width:1.0;" x1="28" x2="515" y1="177.6953" y2="177.6953"/><text fill="#000000" font-family="sans-serif" font-size="13" lengthAdjust="spacing" textLength="177" x="35" y="172.6294">Introduz nome/ID de equipa</text><polygon fill="#A80036" points="39,202.8281,29,206.8281,39,210.8281,35,206.8281" style="stroke:#A80036;stroke-width:1.0;"/><line style="stroke:#A80036;stroke-width:1.0;" x1="33" x2="525" y1="206.8281" y2="206.8281"/><text fill="#000000" font-family="sans-serif" font-size="13" lengthAdjust="spacing" textLength="187" x="45" y="201.7622">Mostra informação da equipa</text><polygon fill="#A80036" points="509,231.9609,519,235.9609,509,239.9609,513,235.9609" style="stroke:#A80036;stroke-width:1.0;"/><line style="stroke:#A80036;stroke-width:1.0;" x1="28" x2="515" y1="235.9609" y2="235.9609"/><text fill="#000000" font-family="sans-serif" font-size="13" lengthAdjust="spacing" textLength="263" x="35" y="230.895">Seleciona a opção de "Gestão de Equipa"</text><polygon fill="#A80036" points="39,261.0938,29,265.0938,39,269.0938,35,265.0938" style="stroke:#A80036;stroke-width:1.0;"/><line style="stroke:#A80036;stroke-width:1.0;" x1="33" x2="525" y1="265.0938" y2="265.0938"/><text fill="#000000" font-family="sans-serif" font-size="13" lengthAdjust="spacing" textLength="227" x="45" y="260.0278">Mostra composição atual da equipa</text><polygon fill="#A80036" points="509,290.2266,519,294.2266,509,298.2266,513,294.2266" style="stroke:#A80036;stroke-width:1.0;"/><line style="stroke:#A80036;stroke-width:1.0;" x1="28" x2="515" y1="294.2266" y2="294.2266"/><text fill="#000000" font-family="sans-serif" font-size="13" lengthAdjust="spacing" textLength="322" x="35" y="289.1606">Seleciona a opção de adição/remoção de membro</text><polygon fill="#A80036" points="39,319.3594,29,323.3594,39,327.3594,35,323.3594" style="stroke:#A80036;stroke-width:1.0;"/><line style="stroke:#A80036;stroke-width:1.0;" x1="33" x2="525" y1="323.3594" y2="323.3594"/><text fill="#000000" font-family="sans-serif" font-size="13" lengthAdjust="spacing" textLength="336" x="45" y="318.2935">Solicita nome/ID do colaborador a adicionar/remover</text><polygon fill="#A80036" points="509,348.4922,519,352.4922,509,356.4922,513,352.4922" style="stroke:#A80036;stroke-width:1.0;"/><line style="stroke:#A80036;stroke-width:1.0;" x1="28" x2="515" y1="352.4922" y2="352.4922"/><text fill="#000000" font-family="sans-serif" font-size="13" lengthAdjust="spacing" textLength="343" x="35" y="347.4263">Introduz nome/ID do colaborador a adicionar/remover</text><polygon fill="#A80036" points="34,377.625,24,381.625,34,385.625,30,381.625" style="stroke:#A80036;stroke-width:1.0;"/><line style="stroke:#A80036;stroke-width:1.0;" x1="28" x2="525" y1="381.625" y2="381.625"/><text fill="#000000" font-family="sans-serif" font-size="13" lengthAdjust="spacing" textLength="156" x="40" y="376.5591">Operação bem sucedida</text><!--MD5=[f09a53da890d9bf2841d5973e2e4f8b1]
@startuml
hide footbox

actor RRH as ACT

participant "System" as SYS

ACT->SYS: Inicia o processo de remoção/associação de um colaborador a uma equipa
activate ACT
activate SYS
SYS->ACT: Pede nome/ID de equipa
deactivate SYS
ACT->SYS: Introduz nome/ID de equipa
activate SYS
SYS->ACT: Mostra informação da equipa
deactivate SYS
ACT->SYS: Seleciona a opção de "Gestão de Equipa"
activate SYS
SYS->ACT: Mostra composição atual da equipa
deactivate SYS
ACT->SYS: Seleciona a opção de adição/remoção de membro
activate SYS
SYS->ACT: Solicita nome/ID do colaborador a adicionar/remover
deactivate SYS
ACT->SYS: Introduz nome/ID do colaborador a adicionar/remover
activate SYS
SYS->ACT: Operação bem sucedida
deactivate SYS
deactivate ACT
@enduml

PlantUML version 1.2021.5(Sun Apr 25 11:20:28 UTC 2021)
(GPL source distribution)
Java Runtime: Java(TM) SE Runtime Environment
JVM: Java HotSpot(TM) 64-Bit Server VM
Default Encoding: UTF-8
Language: en
Country: US
--></g></svg>