<?xml version="1.0" encoding="UTF-8" standalone="no"?><svg xmlns="http://www.w3.org/2000/svg" xmlns:xlink="http://www.w3.org/1999/xlink" contentScriptType="application/ecmascript" contentStyleType="text/css" height="265px" preserveAspectRatio="none" style="width:352px;height:265px;background:#FFFFFF;" version="1.1" viewBox="0 0 352 265" width="352px" zoomAndPan="magnify"><defs><filter height="300%" id="fsxgxgjsm2pff" width="300%" x="-1" y="-1"><feGaussianBlur result="blurOut" stdDeviation="2.0"/><feColorMatrix in="blurOut" result="blurOut2" type="matrix" values="0 0 0 0 0 0 0 0 0 0 0 0 0 0 0 0 0 0 .4 0"/><feOffset dx="4.0" dy="4.0" in="blurOut2" result="blurOut3"/><feBlend in="SourceGraphic" in2="blurOut3" mode="normal"/></filter></defs><g><rect fill="#FFFFFF" filter="url(#fsxgxgjsm2pff)" height="65.3984" style="stroke:#A80036;stroke-width:1.0;" width="10" x="18" y="98.2969"/><rect fill="#FFFFFF" filter="url(#fsxgxgjsm2pff)" height="29.1328" style="stroke:#A80036;stroke-width:1.0;" width="10" x="297" y="134.5625"/><line style="stroke:#A80036;stroke-width:1.0;stroke-dasharray:5.0,5.0;" x1="23" x2="23" y1="88.2969" y2="181.6953"/><line style="stroke:#A80036;stroke-width:1.0;stroke-dasharray:5.0,5.0;" x1="301.5" x2="301.5" y1="88.2969" y2="181.6953"/><text fill="#000000" font-family="sans-serif" font-size="14" lengthAdjust="spacing" textLength="30" x="5" y="84.9951">GSH</text><ellipse cx="23" cy="15" fill="#FEFECE" filter="url(#fsxgxgjsm2pff)" rx="8" ry="8" style="stroke:#A80036;stroke-width:2.0;"/><path d="M23,23 L23,50 M10,31 L36,31 M23,50 L10,65 M23,50 L36,65 " fill="none" filter="url(#fsxgxgjsm2pff)" style="stroke:#A80036;stroke-width:2.0;"/><text fill="#000000" font-family="sans-serif" font-size="14" lengthAdjust="spacing" textLength="30" x="5" y="193.6904">GSH</text><ellipse cx="23" cy="206.9922" fill="#FEFECE" filter="url(#fsxgxgjsm2pff)" rx="8" ry="8" style="stroke:#A80036;stroke-width:2.0;"/><path d="M23,214.9922 L23,241.9922 M10,222.9922 L36,222.9922 M23,241.9922 L10,256.9922 M23,241.9922 L36,256.9922 " fill="none" filter="url(#fsxgxgjsm2pff)" style="stroke:#A80036;stroke-width:2.0;"/><rect fill="#FEFECE" filter="url(#fsxgxgjsm2pff)" height="30.2969" style="stroke:#A80036;stroke-width:1.5;" width="77" x="261.5" y="53"/><text fill="#000000" font-family="sans-serif" font-size="14" lengthAdjust="spacing" textLength="63" x="268.5" y="72.9951">:Sistema</text><rect fill="#FEFECE" filter="url(#fsxgxgjsm2pff)" height="30.2969" style="stroke:#A80036;stroke-width:1.5;" width="77" x="261.5" y="180.6953"/><text fill="#000000" font-family="sans-serif" font-size="14" lengthAdjust="spacing" textLength="63" x="268.5" y="200.6904">:Sistema</text><rect fill="#FFFFFF" filter="url(#fsxgxgjsm2pff)" height="65.3984" style="stroke:#A80036;stroke-width:1.0;" width="10" x="18" y="98.2969"/><rect fill="#FFFFFF" filter="url(#fsxgxgjsm2pff)" height="29.1328" style="stroke:#A80036;stroke-width:1.0;" width="10" x="297" y="134.5625"/><polygon fill="#A80036" points="285,130.5625,295,134.5625,285,138.5625,289,134.5625" style="stroke:#A80036;stroke-width:1.0;"/><line style="stroke:#A80036;stroke-width:1.0;" x1="28" x2="291" y1="134.5625" y2="134.5625"/><text fill="#000000" font-family="sans-serif" font-size="13" font-weight="bold" lengthAdjust="spacing" textLength="9" x="35" y="121.9302">1</text><text fill="#000000" font-family="sans-serif" font-size="13" lengthAdjust="spacing" textLength="237" x="48" y="114.3638">pretende conhecer o estado atual do</text><text fill="#000000" font-family="sans-serif" font-size="13" lengthAdjust="spacing" textLength="185" x="52" y="129.4966">motor de fluxos de atividade</text><polygon fill="#A80036" points="34,159.6953,24,163.6953,34,167.6953,30,163.6953" style="stroke:#A80036;stroke-width:1.0;"/><line style="stroke:#A80036;stroke-width:1.0;stroke-dasharray:2.0,2.0;" x1="28" x2="301" y1="163.6953" y2="163.6953"/><text fill="#000000" font-family="sans-serif" font-size="13" font-weight="bold" lengthAdjust="spacing" textLength="9" x="40" y="158.6294">2</text><text fill="#000000" font-family="sans-serif" font-size="13" lengthAdjust="spacing" textLength="197" x="53" y="158.6294">informa o GSH do estado atual</text><!--MD5=[08353e3b7f035fabdfffb8bb7cc3e0c0]
@startuml
autonumber
actor "GSH" as USR

activate USR
USR -> ":Sistema" : pretende conhecer o estado atual do\n motor de fluxos de atividade
activate ":Sistema"
":Sistema" - -> USR : informa o GSH do estado atual
deactivate ":Sistema"

deactivate USR
@enduml

PlantUML version 1.2021.7beta4(Unknown compile time)
(GPL source distribution)
Java Runtime: Java(TM) SE Runtime Environment
JVM: Java HotSpot(TM) 64-Bit Server VM
Default Encoding: UTF-8
Language: en
Country: US
--></g></svg>