<?xml version="1.0" encoding="UTF-8" standalone="no"?><svg xmlns="http://www.w3.org/2000/svg" xmlns:xlink="http://www.w3.org/1999/xlink" contentScriptType="application/ecmascript" contentStyleType="text/css" height="250px" preserveAspectRatio="none" style="width:1629px;height:250px;" version="1.1" viewBox="0 0 1629 250" width="1629px" zoomAndPan="magnify"><defs/><g><!--MD5=[f9bd503d3928501ed3f084703009b21a]
class NovoCatalogoUI--><polygon fill="#F8F8F8" points="204,7,204,7.2102,214.0769,6.5857,224.1538,7.1933,234.2308,7.3997,244.3077,6.2866,254.3846,6.9223,264.4615,6.5735,274.5385,6.6165,284.6154,6.9318,294.6923,6.3086,304.7692,7.5536,314.8462,6.3697,324.9231,6.8022,335,7,335.4319,7,334.9142,17.7875,335.0682,28.575,334.9681,39.3625,335.1785,50.15,335,60.9375,335,61.1766,324.9231,61.5232,314.8462,61.6086,304.7692,61.6168,294.6923,61.1921,284.6154,61.4011,274.5385,61.6397,264.4615,60.2163,254.3846,61.616,244.3077,60.641,234.2308,61.4713,224.1538,60.4425,214.0769,60.869,204,60.9375,204.7416,60.9375,203.9513,50.15,204.1053,39.3625,204.3386,28.575,204.4162,17.7875,204,7" style="stroke:#383838;stroke-width:1.5;"/><polygon fill="#C2C2C2" points="230.0608,28.6444,228.4484,30.8475,226.5412,34.0745,223.8136,36.2491,220.9474,37.4384,218.662,37.5416,215.7247,36.0543,212.9532,35.0827,210.8495,33.1099,209.7461,30.8515,209.0917,29.0533,208.4506,26.7045,207.41,24.6832,208.2096,22.7098,208.9102,20.548,211.5393,18.8382,213.389,16.6198,215.6784,15.8832,218.4001,15.2488,221.8904,15.6257,223.8021,16.5273,226.0247,16.9359,228.7272,19.7047,229.6693,22.6277,230.0786,24.6221,229.615,27.9086" style="stroke:#383838;stroke-width:1.0;"/><path d="M221.9688,31.6094 Q221.3906,31.9063 220.75,32.0469 Q220.1094,32.2031 219.4063,32.2031 Q216.9063,32.2031 215.5781,30.5625 Q214.2656,28.9063 214.2656,25.7813 Q214.2656,22.6563 215.5781,21 Q216.9063,19.3438 219.4063,19.3438 Q220.1094,19.3438 220.75,19.5 Q221.4063,19.6563 221.9688,19.9531 L221.9688,22.6719 Q221.3438,22.0938 220.75,21.8281 Q220.1563,21.5469 219.5313,21.5469 Q218.1875,21.5469 217.5,22.625 Q216.8125,23.6875 216.8125,25.7813 Q216.8125,27.875 217.5,28.9531 Q218.1875,30.0156 219.5313,30.0156 Q220.1563,30.0156 220.75,29.75 Q221.3438,29.4688 221.9688,28.8906 L221.9688,31.6094 Z " fill="#000000"/><text fill="#000000" font-family="FG Virgil" font-size="12" font-style="italic" lengthAdjust="spacingAndGlyphs" textLength="95" x="235" y="23.1387">«presentation»</text><text fill="#000000" font-family="FG Virgil" font-size="12" lengthAdjust="spacingAndGlyphs" textLength="99" x="233" y="37.1074">NovoCatalogoUI</text><path d="M205,44.9375 L205,45.2177 L214.9231,44.3851 L224.8462,45.1952 L234.7692,45.4704 L244.6923,43.9863 L254.6154,44.8339 L264.5385,44.3688 L274.4615,44.4262 L284.3846,44.8466 L294.3077,44.0157 L304.2308,45.6757 L314.1538,44.0971 L324.0769,44.6738 L334,44.9375 " fill="#F8F8F8" style="stroke:#383838;stroke-width:1.5;"/><path d="M205,52.9375 L205,53.2177 L214.9231,52.3851 L224.8462,53.1952 L234.7692,53.4704 L244.6923,51.9863 L254.6154,52.8339 L264.5385,52.3688 L274.4615,52.4262 L284.3846,52.8466 L294.3077,52.0157 L304.2308,53.6757 L314.1538,52.0971 L324.0769,52.6738 L334,52.9375 " fill="#F8F8F8" style="stroke:#383838;stroke-width:1.5;"/><!--MD5=[2d3184c806c3f64baa12a46caa287f2a]
class NovoCatalogoController--><polygon fill="#F8F8F8" points="7,138,7,138.2102,16.9057,137.5857,26.8113,138.1933,36.717,138.3997,46.6226,137.2866,56.5283,137.9223,66.434,137.5735,76.3396,137.6165,86.2453,137.9318,96.1509,137.3086,106.0566,138.5536,115.9623,137.3697,125.8679,137.8022,135.7736,138.4319,145.6792,137.9142,155.5849,138.0682,165.4906,137.9681,175.3962,138.1785,185.3019,138.2391,195.2075,138.5857,205.1132,138.6711,215.0189,138.6793,224.9245,138.2546,234.8302,138.4636,244.7358,138.7022,254.6415,137.2788,264.5472,138.6785,274.4528,137.7035,284.3585,138.5338,294.2642,137.505,304.1698,137.9315,314.0755,138.7416,323.9811,137.9513,333.8868,138.1053,343.7925,138.3386,353.6981,138.4162,363.6038,137.9961,373.5094,138.2872,383.4151,137.4276,393.3208,138.2844,403.2264,138.5482,413.1321,138.4445,423.0377,138.613,432.9434,137.5169,442.8491,137.3478,452.7547,137.3786,462.6604,137.9411,472.566,137.8035,482.4717,138.6814,492.3774,137.8253,502.283,137.6569,512.1887,138.2283,522.0943,137.3332,532,138,531.4809,138,532.649,147.5597,532.4357,157.1193,532.7345,166.679,531.6782,176.2386,532.3192,185.7983,532.5904,195.358,531.5276,204.9176,531.9041,214.4773,532.126,224.0369,532.6518,233.5966,532,243.1563,532,243.1521,522.0943,243.6188,512.1887,242.6025,502.283,242.479,492.3774,243.6599,482.4717,242.4393,472.566,243.6652,462.6604,243.3629,452.7547,242.8883,442.8491,242.8025,432.9434,243.615,423.0377,242.8569,413.1321,243.7481,403.2264,242.6035,393.3208,243.7737,383.4151,243.6406,373.5094,243.4012,363.6038,243.2035,353.6981,243.8829,343.7925,243.7698,333.8868,243.3255,323.9811,243.4244,314.0755,243.026,304.1698,243.8727,294.2642,243.3111,284.3585,243.3288,274.4528,242.5479,264.5472,242.751,254.6415,243.687,244.7358,243.586,234.8302,243.1133,224.9245,242.8341,215.0189,242.9373,205.1132,242.4701,195.2075,243.571,185.3019,243.8958,175.3962,243.6826,165.4906,243.8512,155.5849,243.0195,145.6792,243.2435,135.7736,242.7687,125.8679,243.4403,115.9623,243.403,106.0566,243.7086,96.1509,242.9266,86.2453,243.0218,76.3396,243.5997,66.434,243.7236,56.5283,242.6437,46.6226,242.9624,36.717,243.3055,26.8113,242.5454,16.9057,243.5096,7,243.1563,7.258,243.1563,6.8992,233.5966,7.1422,224.0369,7.7287,214.4773,6.6871,204.9176,7.315,195.358,7.2856,185.7983,7.1158,176.2386,7.1409,166.679,7.1135,157.1193,6.3758,147.5597,7,138" style="stroke:#383838;stroke-width:1.5;"/><polygon fill="#C2C2C2" points="202.3108,159.6444,200.6984,161.8475,198.7912,165.0745,196.0636,167.2491,193.1974,168.4384,190.912,168.5416,187.9747,167.0543,185.2032,166.0827,183.0995,164.1099,181.9961,161.8515,181.3417,160.0533,180.7006,157.7045,179.66,155.6832,180.4596,153.7098,181.1602,151.548,183.7893,149.8382,185.639,147.6198,187.9284,146.8832,190.6501,146.2488,194.1404,146.6257,196.0521,147.5273,198.2747,147.9359,200.9772,150.7047,201.9193,153.6277,202.3286,155.6221,201.865,158.9086" style="stroke:#383838;stroke-width:1.0;"/><path d="M194.2188,162.6094 Q193.6406,162.9063 193,163.0469 Q192.3594,163.2031 191.6563,163.2031 Q189.1563,163.2031 187.8281,161.5625 Q186.5156,159.9063 186.5156,156.7813 Q186.5156,153.6563 187.8281,152 Q189.1563,150.3438 191.6563,150.3438 Q192.3594,150.3438 193,150.5 Q193.6563,150.6563 194.2188,150.9531 L194.2188,153.6719 Q193.5938,153.0938 193,152.8281 Q192.4063,152.5469 191.7813,152.5469 Q190.4375,152.5469 189.75,153.625 Q189.0625,154.6875 189.0625,156.7813 Q189.0625,158.875 189.75,159.9531 Q190.4375,161.0156 191.7813,161.0156 Q192.4063,161.0156 193,160.75 Q193.5938,160.4688 194.2188,159.8906 L194.2188,162.6094 Z " fill="#000000"/><text fill="#000000" font-family="FG Virgil" font-size="12" font-style="italic" lengthAdjust="spacingAndGlyphs" textLength="83" x="244.25" y="154.1387">«application»</text><text fill="#000000" font-family="FG Virgil" font-size="12" lengthAdjust="spacingAndGlyphs" textLength="148" x="211.75" y="168.1074">NovoCatalogoController</text><path d="M8,175.9375 L8,176.2177 L18.0577,175.3851 L28.1154,176.1952 L38.1731,176.4704 L48.2308,174.9863 L58.2885,175.8339 L68.3462,175.3688 L78.4038,175.4262 L88.4615,175.8466 L98.5192,175.0157 L108.5769,176.6757 L118.6346,175.0971 L128.6923,175.6738 L138.75,176.5134 L148.8077,175.8231 L158.8654,176.0285 L168.9231,175.8949 L178.9808,176.1755 L189.0385,176.2563 L199.0962,176.7184 L209.1538,176.8322 L219.2115,176.8432 L229.2692,176.277 L239.3269,176.5556 L249.3846,176.8738 L259.4423,174.9759 L269.5,176.8422 L279.5577,175.5422 L289.6154,176.6492 L299.6731,175.2775 L309.7308,175.8462 L319.7885,176.9263 L329.8462,175.8725 L339.9038,176.0779 L349.9615,176.389 L360.0192,176.4925 L370.0769,175.9323 L380.1346,176.3205 L390.1923,175.1743 L400.25,176.3167 L410.3077,176.6684 L420.3654,176.5302 L430.4231,176.7549 L440.4808,175.2934 L450.5385,175.0679 L460.5962,175.109 L470.6538,175.859 L480.7115,175.6755 L490.7692,176.846 L500.8269,175.7046 L510.8846,175.4801 L520.9423,176.2419 L531,175.9375 " fill="#F8F8F8" style="stroke:#383838;stroke-width:1.5;"/><path d="M8,183.9375 L8,184.2177 L18.0577,183.3851 L28.1154,184.1952 L38.1731,184.4704 L48.2308,182.9863 L58.2885,183.8339 L68.3462,183.3688 L78.4038,183.4262 L88.4615,183.8466 L98.5192,183.0157 L108.5769,184.6757 L118.6346,183.0971 L128.6923,183.6738 L138.75,184.5134 L148.8077,183.8231 L158.8654,184.0285 L168.9231,183.8949 L178.9808,184.1755 L189.0385,184.2563 L199.0962,184.7184 L209.1538,184.8322 L219.2115,184.8432 L229.2692,184.277 L239.3269,184.5556 L249.3846,184.8738 L259.4423,182.9759 L269.5,184.8422 L279.5577,183.5422 L289.6154,184.6492 L299.6731,183.2775 L309.7308,183.8462 L319.7885,184.9263 L329.8462,183.8725 L339.9038,184.0779 L349.9615,184.389 L360.0192,184.4925 L370.0769,183.9323 L380.1346,184.3205 L390.1923,183.1743 L400.25,184.3167 L410.3077,184.6684 L420.3654,184.5302 L430.4231,184.7549 L440.4808,183.2934 L450.5385,183.0679 L460.5962,183.109 L470.6538,183.859 L480.7115,183.6755 L490.7692,184.846 L500.8269,183.7046 L510.8846,183.4801 L520.9423,184.2419 L531,183.9375 " fill="#F8F8F8" style="stroke:#383838;stroke-width:1.5;"/><text fill="#000000" font-family="FG Virgil" font-size="11" lengthAdjust="spacingAndGlyphs" textLength="75" x="13" y="198.1479">getEquipas ()</text><text fill="#000000" font-family="FG Virgil" font-size="11" lengthAdjust="spacingAndGlyphs" textLength="212" x="13" y="210.9526">novoObjetivo(tempoMax,tempoMedio)</text><text fill="#000000" font-family="FG Virgil" font-size="11" lengthAdjust="spacingAndGlyphs" textLength="513" x="13" y="223.7573">novoCatalogo(identificador,titulo,descricaoBreve,descricaoCompleta,icone,listEquipas,obj)</text><text fill="#000000" font-family="FG Virgil" font-size="11" lengthAdjust="spacingAndGlyphs" textLength="492" x="13" y="236.562">novoCatalogo(identificador,titulo,descricaoBreve,descricaoCompleta,icone,listEquipas)</text><!--MD5=[28183b5fe251cf9d4adbbaa3c2129d6e]
class Catalogo--><polygon fill="#F8F8F8" points="567.5,150.5,567.5,150.7102,577.46,150.0857,587.42,150.6933,597.38,150.8997,607.34,149.7866,617.3,150.4223,627.26,150.0735,637.22,150.1165,647.18,150.4318,657.14,149.8086,667.1,151.0536,677.06,149.8697,687.02,150.3022,696.98,150.9319,706.94,150.4142,716.9,150.5682,726.86,150.4681,736.82,150.6785,746.78,150.7391,756.74,151.0857,766.7,151.1711,776.66,151.1793,786.62,150.7546,796.58,150.9636,806.54,151.2022,816.5,149.7788,826.46,151.1785,836.42,150.2035,846.38,151.0338,856.34,150.005,866.3,150.4315,876.26,151.2416,886.22,150.4513,896.18,150.6053,906.14,150.8386,916.1,150.9162,926.06,150.4961,936.02,150.7872,945.98,149.9276,955.94,150.7844,965.9,151.0482,975.86,150.9445,985.82,151.113,995.78,150.0169,1005.74,149.8478,1015.7,149.8786,1025.66,150.4411,1035.62,150.3035,1045.58,151.1814,1055.54,150.3253,1065.5,150.5,1065.1569,150.5,1065.7283,160.4434,1064.8332,170.3867,1064.9809,180.3301,1066.149,190.2734,1065.9357,200.2168,1066.2345,210.1602,1065.1782,220.1035,1065.5,230.0469,1065.5,230.3661,1055.54,230.6373,1045.58,229.5745,1035.62,229.951,1025.66,230.1729,1015.7,230.6986,1005.74,230.0427,995.78,230.5094,985.82,229.4931,975.86,229.3696,965.9,230.5505,955.94,229.3299,945.98,230.5558,936.02,230.2535,926.06,229.779,916.1,229.6931,906.14,230.5056,896.18,229.7475,886.22,230.6387,876.26,229.4941,866.3,230.6643,856.34,230.5312,846.38,230.2918,836.42,230.0941,826.46,230.7735,816.5,230.6605,806.54,230.2161,796.58,230.3151,786.62,229.9166,776.66,230.7633,766.7,230.2017,756.74,230.2194,746.78,229.4385,736.82,229.6417,726.86,230.5776,716.9,230.4766,706.94,230.0039,696.98,229.7247,687.02,229.8279,677.06,229.3607,667.1,230.4616,657.14,230.7864,647.18,230.5733,637.22,230.7418,627.26,229.9101,617.3,230.1341,607.34,229.6593,597.38,230.3309,587.42,230.2936,577.46,230.5993,567.5,230.0469,567.2703,230.0469,567.3656,220.1035,567.9435,210.1602,568.0673,200.2168,566.9875,190.2734,567.3061,180.3301,567.6493,170.3867,566.8892,160.4434,567.5,150.5" style="stroke:#383838;stroke-width:1.5;"/><polygon fill="#C2C2C2" points="795.3108,172.1444,793.6984,174.3475,791.7912,177.5745,789.0636,179.7491,786.1974,180.9384,783.912,181.0416,780.9747,179.5543,778.2032,178.5827,776.0995,176.6099,774.9961,174.3515,774.3417,172.5533,773.7006,170.2045,772.66,168.1832,773.4596,166.2098,774.1602,164.048,776.7893,162.3382,778.639,160.1198,780.9284,159.3832,783.6501,158.7488,787.1404,159.1257,789.0521,160.0273,791.2747,160.4359,793.9772,163.2047,794.9193,166.1277,795.3286,168.1221,794.865,171.4086" style="stroke:#383838;stroke-width:1.0;"/><path d="M787.2188,175.1094 Q786.6406,175.4063 786,175.5469 Q785.3594,175.7031 784.6563,175.7031 Q782.1563,175.7031 780.8281,174.0625 Q779.5156,172.4063 779.5156,169.2813 Q779.5156,166.1563 780.8281,164.5 Q782.1563,162.8438 784.6563,162.8438 Q785.3594,162.8438 786,163 Q786.6563,163.1563 787.2188,163.4531 L787.2188,166.1719 Q786.5938,165.5938 786,165.3281 Q785.4063,165.0469 784.7813,165.0469 Q783.4375,165.0469 782.75,166.125 Q782.0625,167.1875 782.0625,169.2813 Q782.0625,171.375 782.75,172.4531 Q783.4375,173.5156 784.7813,173.5156 Q785.4063,173.5156 786,173.25 Q786.5938,172.9688 787.2188,172.3906 L787.2188,175.1094 Z " fill="#000000"/><text fill="#000000" font-family="FG Virgil" font-size="12" font-style="italic" lengthAdjust="spacingAndGlyphs" textLength="60" x="802.75" y="166.6387">«domain»</text><text fill="#000000" font-family="FG Virgil" font-size="12" lengthAdjust="spacingAndGlyphs" textLength="56" x="804.75" y="180.6074">Catalogo</text><path d="M568.5,188.4375 L568.5,188.7177 L578.42,187.8851 L588.34,188.6952 L598.26,188.9704 L608.18,187.4863 L618.1,188.3339 L628.02,187.8688 L637.94,187.9262 L647.86,188.3466 L657.78,187.5157 L667.7,189.1757 L677.62,187.5971 L687.54,188.1738 L697.46,189.0134 L707.38,188.3231 L717.3,188.5285 L727.22,188.3949 L737.14,188.6755 L747.06,188.7563 L756.98,189.2184 L766.9,189.3322 L776.82,189.3432 L786.74,188.777 L796.66,189.0556 L806.58,189.3738 L816.5,187.4759 L826.42,189.3422 L836.34,188.0422 L846.26,189.1492 L856.18,187.7775 L866.1,188.3462 L876.02,189.4263 L885.94,188.3725 L895.86,188.5779 L905.78,188.889 L915.7,188.9925 L925.62,188.4323 L935.54,188.8205 L945.46,187.6743 L955.38,188.8167 L965.3,189.1684 L975.22,189.0302 L985.14,189.2549 L995.06,187.7934 L1004.98,187.5679 L1014.9,187.609 L1024.82,188.359 L1034.74,188.1755 L1044.66,189.346 L1054.58,188.2046 L1064.5,188.4375 " fill="#F8F8F8" style="stroke:#383838;stroke-width:1.5;"/><path d="M568.5,196.4375 L568.5,196.7177 L578.42,195.8851 L588.34,196.6952 L598.26,196.9704 L608.18,195.4863 L618.1,196.3339 L628.02,195.8688 L637.94,195.9262 L647.86,196.3466 L657.78,195.5157 L667.7,197.1757 L677.62,195.5971 L687.54,196.1738 L697.46,197.0134 L707.38,196.3231 L717.3,196.5285 L727.22,196.3949 L737.14,196.6755 L747.06,196.7563 L756.98,197.2184 L766.9,197.3322 L776.82,197.3432 L786.74,196.777 L796.66,197.0556 L806.58,197.3738 L816.5,195.4759 L826.42,197.3422 L836.34,196.0422 L846.26,197.1492 L856.18,195.7775 L866.1,196.3462 L876.02,197.4263 L885.94,196.3725 L895.86,196.5779 L905.78,196.889 L915.7,196.9925 L925.62,196.4323 L935.54,196.8205 L945.46,195.6743 L955.38,196.8167 L965.3,197.1684 L975.22,197.0302 L985.14,197.2549 L995.06,195.7934 L1004.98,195.5679 L1014.9,195.609 L1024.82,196.359 L1034.74,196.1755 L1044.66,197.346 L1054.58,196.2046 L1064.5,196.4375 " fill="#F8F8F8" style="stroke:#383838;stroke-width:1.5;"/><text fill="#000000" font-family="FG Virgil" font-size="11" lengthAdjust="spacingAndGlyphs" textLength="465" x="573.5" y="210.6479">Catalogo(identificador,titulo,descricaoBreve,descricaoCompleta,icone,listEquipas)</text><text fill="#000000" font-family="FG Virgil" font-size="11" lengthAdjust="spacingAndGlyphs" textLength="486" x="573.5" y="223.4526">Catalogo(identificador,titulo,descricaoBreve,descricaoCompleta,icone,listEquipas,obj)</text><!--MD5=[37de35b2239f3e75f2a4e341603fb23d]
class CatalogoRepository--><polygon fill="#F8F8F8" points="1277.5,157,1277.5,157.2102,1287.7667,156.5857,1298.0333,157.1933,1308.3,157.3997,1318.5667,156.2866,1328.8333,156.9223,1339.1,156.5735,1349.3667,156.6165,1359.6333,156.9318,1369.9,156.3086,1380.1667,157.5536,1390.4333,156.3697,1400.7,156.8022,1410.9667,157.4319,1421.2333,156.9142,1431.5,157,1431.5682,157,1431.4681,166.5346,1431.6785,176.0692,1431.7391,185.6038,1432.0857,195.1384,1432.1711,204.673,1432.1793,214.2076,1431.5,223.7422,1431.5,223.9968,1421.2333,224.2058,1410.9667,224.4444,1400.7,223.021,1390.4333,224.4207,1380.1667,223.4457,1369.9,224.276,1359.6333,223.2472,1349.3667,223.6737,1339.1,224.4838,1328.8333,223.6935,1318.5667,223.8475,1308.3,224.0808,1298.0333,224.1584,1287.7667,223.7383,1277.5,223.7422,1277.7872,223.7422,1276.9276,214.2076,1277.7844,204.673,1278.0482,195.1384,1277.9445,185.6038,1278.113,176.0692,1277.0169,166.5346,1277.5,157" style="stroke:#383838;stroke-width:1.5;"/><polygon fill="#C2C2C2" points="1303.5608,178.6444,1301.9484,180.8475,1300.0412,184.0745,1297.3136,186.2491,1294.4474,187.4384,1292.162,187.5416,1289.2247,186.0543,1286.4532,185.0827,1284.3495,183.1099,1283.2461,180.8515,1282.5917,179.0533,1281.9506,176.7045,1280.91,174.6832,1281.7096,172.7098,1282.4102,170.548,1285.0393,168.8382,1286.889,166.6198,1289.1784,165.8832,1291.9001,165.2488,1295.3904,165.6257,1297.3021,166.5273,1299.5247,166.9359,1302.2272,169.7047,1303.1693,172.6277,1303.5786,174.6221,1303.115,177.9086" style="stroke:#383838;stroke-width:1.0;"/><path d="M1295.4688,181.6094 Q1294.8906,181.9063 1294.25,182.0469 Q1293.6094,182.2031 1292.9063,182.2031 Q1290.4063,182.2031 1289.0781,180.5625 Q1287.7656,178.9063 1287.7656,175.7813 Q1287.7656,172.6563 1289.0781,171 Q1290.4063,169.3438 1292.9063,169.3438 Q1293.6094,169.3438 1294.25,169.5 Q1294.9063,169.6563 1295.4688,169.9531 L1295.4688,172.6719 Q1294.8438,172.0938 1294.25,171.8281 Q1293.6563,171.5469 1293.0313,171.5469 Q1291.6875,171.5469 1291,172.625 Q1290.3125,173.6875 1290.3125,175.7813 Q1290.3125,177.875 1291,178.9531 Q1291.6875,180.0156 1293.0313,180.0156 Q1293.6563,180.0156 1294.25,179.75 Q1294.8438,179.4688 1295.4688,178.8906 L1295.4688,181.6094 Z " fill="#000000"/><text fill="#000000" font-family="FG Virgil" font-size="12" font-style="italic" lengthAdjust="spacingAndGlyphs" textLength="77" x="1329" y="173.1387">«repository»</text><text fill="#000000" font-family="FG Virgil" font-size="12" lengthAdjust="spacingAndGlyphs" textLength="122" x="1306.5" y="187.1074">CatalogoRepository</text><path d="M1278.5,194.9375 L1278.5,195.2177 L1288.6333,194.3851 L1298.7667,195.1952 L1308.9,195.4704 L1319.0333,193.9863 L1329.1667,194.8339 L1339.3,194.3688 L1349.4333,194.4262 L1359.5667,194.8466 L1369.7,194.0157 L1379.8333,195.6757 L1389.9667,194.0971 L1400.1,194.6738 L1410.2333,195.5134 L1420.3667,194.8231 L1430.5,194.9375 " fill="#F8F8F8" style="stroke:#383838;stroke-width:1.5;"/><path d="M1278.5,202.9375 L1278.5,203.2177 L1288.6333,202.3851 L1298.7667,203.1952 L1308.9,203.4704 L1319.0333,201.9863 L1329.1667,202.8339 L1339.3,202.3688 L1349.4333,202.4262 L1359.5667,202.8466 L1369.7,202.0157 L1379.8333,203.6757 L1389.9667,202.0971 L1400.1,202.6738 L1410.2333,203.5134 L1420.3667,202.8231 L1430.5,202.9375 " fill="#F8F8F8" style="stroke:#383838;stroke-width:1.5;"/><text fill="#000000" font-family="FG Virgil" font-size="11" lengthAdjust="spacingAndGlyphs" textLength="52" x="1283.5" y="217.1479">save(cat)</text><!--MD5=[c19bbd5e5c2f4d9234b09f570bb44089]
class UtilizadorRepository--><polygon fill="#F8F8F8" points="1467,157,1467,157.2102,1476.6875,156.5857,1486.375,157.1933,1496.0625,157.3997,1505.75,156.2866,1515.4375,156.9223,1525.125,156.5735,1534.8125,156.6165,1544.5,156.9318,1554.1875,156.3086,1563.875,157.5536,1573.5625,156.3697,1583.25,156.8022,1592.9375,157.4319,1602.625,156.9142,1612.3125,157.0682,1622,157,1621.9681,157,1622.1785,166.5346,1622.2391,176.0692,1622.5857,185.6038,1622.6711,195.1384,1622.6793,204.673,1622.2546,214.2076,1622,223.7422,1622,224.2058,1612.3125,224.4444,1602.625,223.021,1592.9375,224.4207,1583.25,223.4457,1573.5625,224.276,1563.875,223.2472,1554.1875,223.6737,1544.5,224.4838,1534.8125,223.6935,1525.125,223.8475,1515.4375,224.0808,1505.75,224.1584,1496.0625,223.7383,1486.375,224.0294,1476.6875,223.1698,1467,223.7422,1467.2844,223.7422,1467.5482,214.2076,1467.4445,204.673,1467.613,195.1384,1466.5169,185.6038,1466.3478,176.0692,1466.3786,166.5346,1467,157" style="stroke:#383838;stroke-width:1.5;"/><polygon fill="#C2C2C2" points="1493.0608,178.6444,1491.4484,180.8475,1489.5412,184.0745,1486.8136,186.2491,1483.9474,187.4384,1481.662,187.5416,1478.7247,186.0543,1475.9532,185.0827,1473.8495,183.1099,1472.7461,180.8515,1472.0917,179.0533,1471.4506,176.7045,1470.41,174.6832,1471.2096,172.7098,1471.9102,170.548,1474.5393,168.8382,1476.389,166.6198,1478.6784,165.8832,1481.4001,165.2488,1484.8904,165.6257,1486.8021,166.5273,1489.0247,166.9359,1491.7272,169.7047,1492.6693,172.6277,1493.0786,174.6221,1492.615,177.9086" style="stroke:#383838;stroke-width:1.0;"/><path d="M1484.9688,181.6094 Q1484.3906,181.9063 1483.75,182.0469 Q1483.1094,182.2031 1482.4063,182.2031 Q1479.9063,182.2031 1478.5781,180.5625 Q1477.2656,178.9063 1477.2656,175.7813 Q1477.2656,172.6563 1478.5781,171 Q1479.9063,169.3438 1482.4063,169.3438 Q1483.1094,169.3438 1483.75,169.5 Q1484.4063,169.6563 1484.9688,169.9531 L1484.9688,172.6719 Q1484.3438,172.0938 1483.75,171.8281 Q1483.1563,171.5469 1482.5313,171.5469 Q1481.1875,171.5469 1480.5,172.625 Q1479.8125,173.6875 1479.8125,175.7813 Q1479.8125,177.875 1480.5,178.9531 Q1481.1875,180.0156 1482.5313,180.0156 Q1483.1563,180.0156 1483.75,179.75 Q1484.3438,179.4688 1484.9688,178.8906 L1484.9688,181.6094 Z " fill="#000000"/><text fill="#000000" font-family="FG Virgil" font-size="12" font-style="italic" lengthAdjust="spacingAndGlyphs" textLength="77" x="1519" y="173.1387">«repository»</text><text fill="#000000" font-family="FG Virgil" font-size="12" lengthAdjust="spacingAndGlyphs" textLength="123" x="1496" y="187.1074">UtilizadorRepository</text><path d="M1468,194.9375 L1468,195.2177 L1478.2,194.3851 L1488.4,195.1952 L1498.6,195.4704 L1508.8,193.9863 L1519,194.8339 L1529.2,194.3688 L1539.4,194.4262 L1549.6,194.8466 L1559.8,194.0157 L1570,195.6757 L1580.2,194.0971 L1590.4,194.6738 L1600.6,195.5134 L1610.8,194.8231 L1621,194.9375 " fill="#F8F8F8" style="stroke:#383838;stroke-width:1.5;"/><path d="M1468,202.9375 L1468,203.2177 L1478.2,202.3851 L1488.4,203.1952 L1498.6,203.4704 L1508.8,201.9863 L1519,202.8339 L1529.2,202.3688 L1539.4,202.4262 L1549.6,202.8466 L1559.8,202.0157 L1570,203.6757 L1580.2,202.0971 L1590.4,202.6738 L1600.6,203.5134 L1610.8,202.8231 L1621,202.9375 " fill="#F8F8F8" style="stroke:#383838;stroke-width:1.5;"/><text fill="#000000" font-family="FG Virgil" font-size="11" lengthAdjust="spacingAndGlyphs" textLength="109" x="1473" y="217.1479">listColaboradores()</text><!--MD5=[e3d99162b7328c3f1201e3bd1b8bcde6]
class EquipaRepository--><polygon fill="#F8F8F8" points="1101,157,1101,157.2102,1111.0714,156.5857,1121.1429,157.1933,1131.2143,157.3997,1141.2857,156.2866,1151.3571,156.9223,1161.4286,156.5735,1171.5,156.6165,1181.5714,156.9318,1191.6429,156.3086,1201.7143,157.5536,1211.7857,156.3697,1221.8571,156.8022,1231.9286,157.4319,1242,157,1241.9142,157,1242.0682,166.5346,1241.9681,176.0692,1242.1785,185.6038,1242.2391,195.1384,1242.5857,204.673,1242.6711,214.2076,1242,223.7422,1242,224.4214,1231.9286,223.9968,1221.8571,224.2058,1211.7857,224.4444,1201.7143,223.021,1191.6429,224.4207,1181.5714,223.4457,1171.5,224.276,1161.4286,223.2472,1151.3571,223.6737,1141.2857,224.4838,1131.2143,223.6935,1121.1429,223.8475,1111.0714,224.0808,1101,223.7422,1101.4162,223.7422,1100.9961,214.2076,1101.2872,204.673,1100.4276,195.1384,1101.2844,185.6038,1101.5482,176.0692,1101.4445,166.5346,1101,157" style="stroke:#383838;stroke-width:1.5;"/><polygon fill="#C2C2C2" points="1127.0608,178.6444,1125.4484,180.8475,1123.5412,184.0745,1120.8136,186.2491,1117.9474,187.4384,1115.662,187.5416,1112.7247,186.0543,1109.9532,185.0827,1107.8495,183.1099,1106.7461,180.8515,1106.0917,179.0533,1105.4506,176.7045,1104.41,174.6832,1105.2096,172.7098,1105.9102,170.548,1108.5393,168.8382,1110.389,166.6198,1112.6784,165.8832,1115.4001,165.2488,1118.8904,165.6257,1120.8021,166.5273,1123.0247,166.9359,1125.7272,169.7047,1126.6693,172.6277,1127.0786,174.6221,1126.615,177.9086" style="stroke:#383838;stroke-width:1.0;"/><path d="M1118.9688,181.6094 Q1118.3906,181.9063 1117.75,182.0469 Q1117.1094,182.2031 1116.4063,182.2031 Q1113.9063,182.2031 1112.5781,180.5625 Q1111.2656,178.9063 1111.2656,175.7813 Q1111.2656,172.6563 1112.5781,171 Q1113.9063,169.3438 1116.4063,169.3438 Q1117.1094,169.3438 1117.75,169.5 Q1118.4063,169.6563 1118.9688,169.9531 L1118.9688,172.6719 Q1118.3438,172.0938 1117.75,171.8281 Q1117.1563,171.5469 1116.5313,171.5469 Q1115.1875,171.5469 1114.5,172.625 Q1113.8125,173.6875 1113.8125,175.7813 Q1113.8125,177.875 1114.5,178.9531 Q1115.1875,180.0156 1116.5313,180.0156 Q1117.1563,180.0156 1117.75,179.75 Q1118.3438,179.4688 1118.9688,178.8906 L1118.9688,181.6094 Z " fill="#000000"/><text fill="#000000" font-family="FG Virgil" font-size="12" font-style="italic" lengthAdjust="spacingAndGlyphs" textLength="77" x="1146" y="173.1387">«repository»</text><text fill="#000000" font-family="FG Virgil" font-size="12" lengthAdjust="spacingAndGlyphs" textLength="109" x="1130" y="187.1074">EquipaRepository</text><path d="M1102,194.9375 L1102,195.2177 L1111.9286,194.3851 L1121.8571,195.1952 L1131.7857,195.4704 L1141.7143,193.9863 L1151.6429,194.8339 L1161.5714,194.3688 L1171.5,194.4262 L1181.4286,194.8466 L1191.3571,194.0157 L1201.2857,195.6757 L1211.2143,194.0971 L1221.1429,194.6738 L1231.0714,195.5134 L1241,194.9375 " fill="#F8F8F8" style="stroke:#383838;stroke-width:1.5;"/><path d="M1102,202.9375 L1102,203.2177 L1111.9286,202.3851 L1121.8571,203.1952 L1131.7857,203.4704 L1141.7143,201.9863 L1151.6429,202.8339 L1161.5714,202.3688 L1171.5,202.4262 L1181.4286,202.8466 L1191.3571,202.0157 L1201.2857,203.6757 L1211.2143,202.0971 L1221.1429,202.6738 L1231.0714,203.5134 L1241,202.9375 " fill="#F8F8F8" style="stroke:#383838;stroke-width:1.5;"/><text fill="#000000" font-family="FG Virgil" font-size="11" lengthAdjust="spacingAndGlyphs" textLength="70" x="1107" y="217.1479">listEquipas()</text><!--MD5=[a594f6240f6df84ced6c22f6f65865d0]
link NovoCatalogoUI to NovoCatalogoController--><path d="M269.5,61.2602 L269.7802,61.2602 L268.9476,71.4763 L269.7577,81.6923 L270.0329,91.9084 L268.5488,102.1245 L269.3964,112.3406 L268.9313,122.5566 L269.5,132.7727 " fill="none" style="stroke:#383838;stroke-width:1.0;"/><polygon fill="#383838" points="269.5,137.9456,269.564,137.9741,270.1738,136.0895,271.1589,134.3718,272.0217,132.5997,272.4827,130.649,273.5,128.9456,273.4817,128.9273,272.5995,129.6451,271.8096,130.4552,271.0839,131.3295,270.137,131.9826,269.5,132.9456,269.6305,133.0761,268.5514,131.997,267.8534,131.299,267.2018,130.6474,266.2798,129.7254,265.5,128.9456,265.5208,128.9548,266.2903,130.7413,267.1544,132.5698,267.9728,134.378,268.8784,136.2249,269.5,137.9456" style="stroke:#383838;stroke-width:1.0;"/><text fill="#000000" font-family="FG Virgil" font-size="13" lengthAdjust="spacingAndGlyphs" textLength="83" x="270.5" y="104.0669">theController</text><!--MD5=[0ddeb544a08ce83726aedd9d40a6bcb1]
link NovoCatalogoController to UtilizadorRepository--><path d="M411.3795,137.8796 L411.4073,137.9688 L415.0518,136.5411 L418.8593,135.6362 L422.6138,134.561 L426.1936,132.926 L430.0151,132.066 L430.0053,132.0329 L433.7898,130.7486 L437.6239,129.6312 L441.4923,128.6299 L445.2422,127.2287 L449.1582,126.3876 L449.2245,126.6246 L452.9889,125.0248 L456.947,124.1168 L460.9287,123.2932 L464.7729,121.9785 L468.6895,120.9221 L468.6971,120.9515 L472.646,119.8734 L476.6297,118.9288 L480.5966,117.9198 L484.5956,117.0338 L488.4899,115.747 L488.5598,116.0369 L492.5507,115.079 L496.4966,113.934 L500.5084,113.0629 L504.5233,112.2045 L508.4403,110.9396 L508.372,110.6265 L512.5009,110.3619 L516.4047,109.0661 L520.4797,108.5543 L524.3784,107.2351 L528.4216,106.5777 L528.4158,106.5478 L532.4626,106.1335 L536.3746,105.0208 L540.3662,104.3202 L544.3644,103.6542 L548.3145,102.7386 L548.3445,102.9212 L552.2513,102.0892 L556.2094,101.5691 L560.0845,100.5444 L564.0834,100.2724 L568,99.5 L568.0345,99.7412 L571.7626,99.1612 L575.5077,98.7009 L579.1733,97.6843 L582.8972,97.0755 L586.6728,96.828 L586.6365,96.5542 L590.7367,96.2629 L594.796,95.6631 L598.9146,95.5107 L602.932,94.5943 L607.0095,94.1321 L606.9908,93.9808 L611.3995,93.6928 L615.7284,92.7579 L620.114,92.283 L624.5551,92.2582 L628.8974,91.4319 L628.9195,91.6243 L633.6,91.2192 L638.2116,90.2159 L642.9094,89.9619 L647.5885,89.5447 L652.2237,88.747 L652.2013,88.5383 L657.1496,88.1747 L662.0906,87.7428 L667.0461,87.4451 L671.9453,86.6253 L676.876,86.0971 L676.8965,86.3017 L682.0245,85.3332 L687.1921,84.7595 L692.4176,84.7627 L697.5365,83.7038 L702.7414,83.5018 L702.7625,83.7271 L708.1432,83.089 L713.5168,82.3748 L718.9064,81.8326 L724.3332,81.688 L729.7074,80.9807 L729.6959,80.8482 L735.321,80.7574 L740.8677,79.7651 L746.5035,79.7978 L752.0892,79.2534 L757.6613,78.5535 L757.67,78.662 L763.4288,78.1117 L769.2188,77.9499 L774.9806,77.4371 L780.7306,76.7775 L786.4904,76.2398 L786.4992,76.3586 L792.4045,75.7459 L798.3505,75.6851 L804.2505,75 L810.1694,74.5718 L816.0821,74.0592 L816.064,73.7894 L822.1183,73.4739 L828.1945,73.4834 L834.2398,73.033 L840.274,72.4178 L846.3236,72.0313 L846.315,71.8884 L852.4735,71.5631 L858.6168,70.9847 L864.802,71.102 L870.9664,70.875 L877.1024,70.1758 L877.1149,70.4094 L883.3595,70.1515 L889.5805,69.4498 L895.8265,69.2165 L902.0559,68.673 L908.3058,68.5124 L908.3116,68.6385 L914.6139,68.3316 L920.9232,68.1769 L927.2102,67.5393 L933.5152,67.2912 L939.8211,67.0605 L939.8286,67.2575 L946.1737,67.0684 L952.4981,66.3447 L958.8465,66.2421 L965.1952,66.1504 L971.5356,65.84 L971.5273,65.5687 L977.9006,65.8031 L984.2595,65.5668 L990.6149,65.2135 L996.9784,65.1275 L1003.3367,64.8704 L1003.3438,65.1942 L1009.6887,64.5916 L1016.0498,64.7307 L1022.4045,64.5779 L1028.7579,64.3626 L1035.1118,64.1713 L1035.1126,64.234 L1041.4397,64.14 L1047.7627,63.7304 L1054.0913,63.7479 L1060.4182,63.6391 L1066.7481,63.7624 L1066.7482,63.7908 L1073.0252,63.7818 L1079.3023,63.7947 L1085.5787,63.5736 L1091.856,63.6531 L1098.133,63.6633 L1098.1326,63.6099 L1104.3391,63.9658 L1110.5428,63.9451 L1116.744,63.5858 L1122.9495,63.8152 L1129.1539,63.8937 L1129.1491,63.6372 L1135.2652,64.1377 L1141.3767,64.3958 L1147.485,64.4833 L1153.5856,64.1637 L1159.6981,64.4731 L1159.7046,64.6792 L1165.6786,64.3327 L1171.6828,64.9413 L1177.6668,64.909 L1183.6633,65.2746 L1189.6529,65.4212 L1189.6578,65.5279 L1195.513,65.8981 L1201.3394,65.6362 L1207.2142,66.4342 L1213.0587,66.5695 L1218.9057,66.7577 L1218.9153,66.9153 L1224.6136,67.4383 L1230.2811,67.4579 L1235.9733,67.8821 L1241.6619,68.2479 L1247.3438,68.5021 L1247.3507,68.5895 L1252.8459,68.9361 L1258.3729,69.6858 L1263.8289,69.5351 L1269.3721,70.4902 L1274.8545,70.6741 L1274.8272,70.3981 L1280.125,70.959 L1285.4445,71.7395 L1290.7381,72.2582 L1296.0095,72.5515 L1301.3252,73.2933 L1301.3463,73.476 L1303.8928,73.6381 L1306.4864,74.2076 L1309.0454,74.478 L1311.5504,74.2822 L1314.1353,74.7768 L1314.1128,74.6014 L1316.6296,75.0404 L1319.1585,75.5746 L1321.6628,75.916 L1324.1586,76.1917 L1326.6432,76.3795 L1326.6219,76.229 L1329.1211,77.0043 L1331.5593,77.3481 L1333.9552,77.3932 L1336.3816,77.6537 L1338.8347,78.1037 L1338.8073,77.9274 L1341.1923,78.3792 L1343.5886,78.9034 L1345.9467,79.1827 L1348.2951,79.3989 L1350.6959,79.9521 L1350.7325,80.1655 L1352.9647,80.146 L1355.3403,80.9621 L1357.6379,81.3241 L1359.9371,81.6948 L1362.2125,81.9269 L1362.2695,82.2294 L1364.4239,82.2403 L1366.651,82.6372 L1368.9501,83.4159 L1371.0898,83.3493 L1373.3706,84.0308 L1373.3495,83.9289 L1375.5381,84.5281 L1377.6909,84.9548 L1379.8095,85.216 L1381.995,85.8003 L1384.1559,86.2661 L1384.2295,86.5887 L1386.2997,87.0209 L1388.2565,86.9553 L1390.4029,87.7216 L1392.4241,87.9387 L1394.5546,88.6353 L1394.5517,88.6239 L1396.5858,89.2627 L1398.5991,89.8185 L1400.4814,89.852 L1402.5961,90.8124 L1404.5524,91.1408 L1404.5534,91.1444 L1406.4033,91.4317 L1408.3299,91.9967 L1410.3407,92.8673 L1412.2482,93.3633 L1414.1353,93.7851 L1414.1331,93.7782 L1417.6172,94.6436 L1421.3703,96.3497 L1424.8119,97.082 L1428.3555,98.1335 L1432,99.5 L1431.9888,99.4723 L1434.3498,100.6546 L1436.6055,101.5768 L1438.7602,102.2494 L1440.9805,103.0843 L1443.2572,104.0582 L1443.291,104.1256 L1445.492,105.2349 L1447.5514,106.0619 L1449.9329,107.5308 L1452.1595,108.691 L1454.2458,109.5718 L1454.1971,109.4892 L1456.2802,110.6668 L1458.6612,112.3485 L1460.6448,113.3577 L1462.7714,114.6089 L1464.9028,115.8683 L1464.977,115.9785 L1466.795,117.0116 L1469.1392,118.8265 L1471.0563,120.0068 L1473.2785,121.6404 L1475.1649,122.7752 L1475.1074,122.6985 L1477.2347,124.3897 L1478.9682,125.5553 L1481.1126,127.2694 L1483.1092,128.7861 L1484.9689,130.1202 L1484.8767,130.0077 L1486.9277,131.7671 L1488.5209,132.968 L1490.4059,134.5249 L1492.5874,136.4434 L1494.2516,137.7308 L1494.4532,137.9585 L1496.1587,139.4607 L1497.6246,140.6923 L1499.5837,142.4808 L1501.071,143.7366 L1502.9497,145.4344 L1502.9675,145.4532 L1504.5594,146.9589 L1506.0897,148.3994 L1507.9682,150.2077 L1509.5255,151.6769 L1511.0001,153.0587 " fill="none" style="stroke:#383838;stroke-width:1.0;"/><polygon fill="#383838" points="1514.7475,156.7719,1514.8128,156.7973,1513.9033,154.8865,1513.3765,153.1249,1512.725,151.3146,1511.6638,149.3447,1511.1698,147.5958,1511.1439,147.5957,1511.0329,148.7265,1511.0524,149.858,1511.1627,150.9898,1510.9601,152.1202,1511.1958,153.2526,1511.1966,153.4372,1510.0635,153.0477,1508.9328,153.1971,1507.8024,153.4122,1506.6702,153.2448,1505.539,153.2786,1505.5471,153.2998,1507.3769,153.9673,1509.2435,154.7315,1511.0924,155.4491,1512.975,156.2558,1514.7475,156.7719" style="stroke:#383838;stroke-width:1.0;"/><!--MD5=[89b6f6eab4714cbc1842106a59892fbf]
link NovoCatalogoController to CatalogoRepository--><path d="M411.3795,137.8796 L411.4073,137.9688 L415.0518,136.5411 L418.8593,135.6362 L422.6138,134.561 L426.1936,132.926 L430.0151,132.066 L430.0053,132.0329 L433.7898,130.7486 L437.6239,129.6312 L441.4923,128.6299 L445.2422,127.2287 L449.1582,126.3876 L449.2245,126.6246 L452.9889,125.0248 L456.947,124.1168 L460.9287,123.2932 L464.7729,121.9785 L468.6895,120.9221 L468.6971,120.9515 L472.646,119.8734 L476.6297,118.9288 L480.5966,117.9198 L484.5956,117.0338 L488.4899,115.747 L488.5598,116.0369 L492.5507,115.079 L496.4966,113.934 L500.5084,113.0629 L504.5233,112.2045 L508.4403,110.9396 L508.372,110.6265 L512.5009,110.3619 L516.4047,109.0661 L520.4797,108.5543 L524.3784,107.2351 L528.4216,106.5777 L528.4158,106.5478 L532.4626,106.1335 L536.3746,105.0208 L540.3662,104.3202 L544.3644,103.6542 L548.3145,102.7386 L548.3445,102.9212 L552.2513,102.0892 L556.2094,101.5691 L560.0845,100.5444 L564.0834,100.2724 L568,99.5 L568.0345,99.7412 L570.9413,99.2787 L573.8652,98.936 L576.7095,98.0368 L579.6122,97.5456 L582.5665,97.4156 L582.5302,97.1418 L585.736,96.9691 L588.9008,96.4878 L592.125,96.454 L595.2479,95.6562 L598.431,95.3126 L598.413,95.1612 L605.4973,94.5731 L612.5045,93.3379 L619.5665,92.5629 L626.6822,92.2383 L633.7023,91.1117 L633.7223,91.3043 L641.6177,90.6181 L649.4509,89.3328 L657.362,88.7978 L665.2562,88.0993 L673.1108,87.02 L673.0919,86.8108 L681.6755,86.2055 L690.2528,85.5317 L698.8423,84.9924 L707.3847,83.93 L715.9534,83.1598 L715.9698,83.3647 L720.4315,82.5535 L724.925,82.1378 L729.4649,82.3 L733.9194,81.3982 L738.4427,81.3549 L738.4593,81.5805 L743.0663,81.1063 L747.6677,80.5557 L752.2817,80.1774 L756.9251,80.1974 L761.527,79.6538 L761.5181,79.5211 L766.2628,79.5999 L770.947,78.7759 L775.7,78.9784 L780.4143,78.603 L785.1182,78.0719 L785.1247,78.1806 L789.9215,77.8033 L794.7417,77.8153 L799.5408,77.4756 L804.3309,76.989 L809.1285,76.6244 L809.1348,76.7435 L813.9937,76.3071 L818.882,76.4233 L823.737,75.9146 L828.6058,75.6629 L833.47,75.3268 L833.4575,75.0567 L838.3787,74.9204 L843.3148,75.1094 L848.2297,74.8381 L853.137,74.4017 L858.0548,74.1942 L858.0493,74.0512 L862.9991,73.9066 L867.9392,73.5086 L872.9061,73.8071 L877.8597,73.761 L882.7951,73.2421 L882.8022,73.476 L887.7661,73.3995 L892.7164,72.8788 L897.681,72.827 L902.6361,72.4648 L907.6029,72.4857 L907.6057,72.6119 L912.5628,72.4863 L917.5233,72.513 L922.4732,72.0565 L927.4316,71.9897 L932.3904,71.9404 L932.3929,72.1374 L937.3295,72.1287 L942.2592,71.585 L947.1968,71.6628 L952.1347,71.7515 L957.0697,71.6214 L957.0688,71.3499 L961.9668,71.763 L966.8633,71.7051 L971.7594,71.5302 L976.6564,71.6228 L981.5528,71.5441 L981.5552,71.8679 L986.3916,71.441 L991.2335,71.756 L996.0733,71.7789 L1000.9125,71.7393 L1005.752,71.7238 L1005.7532,71.7864 L1010.5184,71.8646 L1015.2776,71.6272 L1020.045,71.8169 L1024.8099,71.8803 L1029.5793,72.1758 L1029.5802,72.2041 L1034.254,72.3628 L1038.9286,72.5435 L1043.5957,72.4903 L1048.2724,72.7375 L1052.9468,72.9154 L1052.9444,72.862 L1057.5225,73.38 L1062.0834,73.5218 L1066.6289,73.3254 L1071.2012,73.7171 L1075.7667,73.958 L1075.751,73.7019 L1080.2114,74.358 L1084.657,74.7722 L1089.0921,75.016 L1093.5023,74.8534 L1097.951,75.3188 L1097.9672,75.5243 L1102.2172,75.3285 L1106.5424,76.0852 L1110.8171,76.2028 L1115.1231,76.7171 L1119.4119,77.0131 L1119.4224,77.1194 L1123.5625,77.6306 L1127.6403,77.512 L1131.8225,78.4494 L1135.9394,78.7265 L1140.0615,79.0564 L1140.0806,79.2131 L1144.0518,79.8678 L1147.962,80.0218 L1151.9212,80.5782 L1155.8733,81.0765 L1159.8119,81.4638 L1159.8248,81.5505 L1163.5645,82.0209 L1167.3637,82.8911 L1171.0301,82.8679 L1174.8595,83.9419 L1178.5752,84.2508 L1178.5261,83.9778 L1182.0704,84.6508 L1185.6537,85.541 L1189.1905,86.1722 L1192.6872,86.5806 L1196.2636,87.4326 L1196.3027,87.6122 L1199.579,88.1982 L1202.9424,89.1849 L1206.2419,89.8774 L1209.4417,90.1114 L1212.7891,91.0245 L1212.7441,90.8534 L1215.8295,91.7724 L1218.9392,92.7843 L1221.9995,93.6081 L1225.043,94.3678 L1228.0639,95.0419 L1228.0176,94.8971 L1230.9373,96.2029 L1233.7241,97.0934 L1236.4191,97.6967 L1239.1804,98.5072 L1242,99.5 L1241.933,99.3346 L1244.2156,100.3232 L1246.5258,101.3799 L1248.7429,102.2067 L1250.936,102.9744 L1253.2572,104.0582 L1253.3543,104.2518 L1255.3634,104.9786 L1257.7528,106.4632 L1259.9355,107.536 L1262.1222,108.6168 L1264.2458,109.5718 L1264.4024,109.8367 L1266.3217,110.737 L1268.4407,111.9753 L1270.7573,113.5482 L1272.6365,114.3806 L1274.9028,115.8683 L1274.8448,115.782 L1276.9839,117.2922 L1279.0247,118.6564 L1280.9711,119.8803 L1283.1018,121.378 L1285.1649,122.7752 L1285.3633,123.0401 L1287.2985,124.4749 L1288.9276,125.5011 L1291.0682,127.2102 L1292.8712,128.4684 L1294.9689,130.1202 L1294.9615,130.1112 L1296.908,131.743 L1298.8003,133.3088 L1300.3512,134.4581 L1302.5079,136.3463 L1304.2516,137.7308 L1304.254,137.7336 L1305.8275,139.0867 L1307.592,140.6555 L1309.5667,142.4616 L1311.2837,143.9768 L1312.9497,145.4344 L1312.9447,145.4291 L1314.3544,146.7424 L1316.371,148.6965 L1317.6846,149.9084 L1319.2286,151.3634 L1321.0001,153.0587 " fill="none" style="stroke:#383838;stroke-width:1.0;"/><polygon fill="#383838" points="1324.7475,156.7719,1324.8128,156.7973,1323.9033,154.8865,1323.3765,153.1249,1322.725,151.3146,1321.6638,149.3447,1321.1698,147.5958,1321.1439,147.5957,1321.0329,148.7265,1321.0524,149.858,1321.1627,150.9898,1320.9601,152.1202,1321.1958,153.2526,1321.1966,153.4372,1320.0635,153.0477,1318.9328,153.1971,1317.8024,153.4122,1316.6702,153.2448,1315.539,153.2786,1315.5471,153.2998,1317.3769,153.9673,1319.2435,154.7315,1321.0924,155.4491,1322.975,156.2558,1324.7475,156.7719" style="stroke:#383838;stroke-width:1.0;"/><!--MD5=[89559deed986340f5bd3f762282de5ac]
link NovoCatalogoController to EquipaRepository--><path d="M411.3795,137.8796 L411.4073,137.9688 L415.0518,136.5411 L418.8593,135.6362 L422.6138,134.561 L426.1936,132.926 L430.0151,132.066 L430.0053,132.0329 L433.7898,130.7486 L437.6239,129.6312 L441.4923,128.6299 L445.2422,127.2287 L449.1582,126.3876 L449.2245,126.6246 L452.9889,125.0248 L456.947,124.1168 L460.9287,123.2932 L464.7729,121.9785 L468.6895,120.9221 L468.6971,120.9515 L472.646,119.8734 L476.6297,118.9288 L480.5966,117.9198 L484.5956,117.0338 L488.4899,115.747 L488.5598,116.0369 L492.5507,115.079 L496.4966,113.934 L500.5084,113.0629 L504.5233,112.2045 L508.4403,110.9396 L508.372,110.6265 L512.5009,110.3619 L516.4047,109.0661 L520.4797,108.5543 L524.3784,107.2351 L528.4216,106.5777 L528.4158,106.5478 L532.4626,106.1335 L536.3746,105.0208 L540.3662,104.3202 L544.3644,103.6542 L548.3145,102.7386 L548.3445,102.9212 L552.2513,102.0892 L556.2094,101.5691 L560.0845,100.5444 L564.0834,100.2724 L568,99.5 L568.0334,99.7413 L572.5253,99.0733 L577.0338,98.5251 L581.4653,97.4201 L585.9532,96.7232 L590.4912,96.388 L590.458,96.1138 L595.7038,95.7313 L600.9123,95.0399 L606.1749,94.7967 L611.345,93.7883 L616.5701,93.2347 L616.554,93.0831 L622.4097,92.7162 L628.1966,91.7013 L634.0324,91.1472 L639.9161,91.0441 L645.7146,90.138 L645.7325,90.3308 L652.0823,89.8745 L658.3765,88.8186 L664.7404,88.5137 L671.0892,88.0453 L677.4025,87.1955 L677.3858,86.9862 L684.141,86.615 L690.8907,86.1752 L697.6512,85.87 L704.3698,85.0413 L711.1118,84.5051 L711.1255,84.7102 L718.1372,83.7914 L725.1753,83.2685 L732.2518,83.324 L739.2576,82.3146 L746.3204,82.1644 L746.3322,82.3903 L753.5623,81.8775 L760.7885,81.2883 L768.0236,80.8715 L775.2796,80.8535 L782.5061,80.2713 L782.5007,80.1384 L786.1761,80.3845 L789.8145,79.7266 L793.495,80.0966 L797.1518,79.8878 L800.8022,79.5231 L800.8058,79.6319 L804.4718,79.4242 L808.1506,79.606 L811.8179,79.4359 L815.4804,79.1186 L819.1468,78.9235 L819.1497,79.0426 L822.811,78.7778 L826.4856,79.0662 L830.1452,78.7289 L833.8109,78.649 L837.4747,78.4845 L837.4707,78.2142 L841.1212,78.2513 L844.7764,78.614 L848.4249,78.516 L852.071,78.2527 L855.7205,78.2186 L855.7198,78.0754 L859.3397,78.1052 L862.9585,77.8813 L866.5804,78.3545 L870.2007,78.4827 L873.819,78.1379 L873.8205,78.3718 L877.3982,78.4701 L880.973,78.1238 L884.5508,78.2466 L888.1266,78.0589 L891.7049,78.2545 L891.7073,78.3808 L895.2286,78.4294 L898.7527,78.6305 L902.2679,78.3483 L905.7903,78.4558 L909.313,78.5808 L909.3193,78.7778 L912.774,78.9425 L916.2118,78.5724 L919.6693,78.8236 L923.1271,79.0856 L926.578,79.129 L926.5655,78.8578 L929.9567,79.4423 L933.326,79.5564 L936.69,79.5536 L940.0663,79.8179 L943.4347,79.9112 L943.455,80.2344 L946.7026,79.9781 L949.9967,80.4623 L953.2725,80.655 L956.5444,80.7853 L959.8177,80.9397 L959.8228,81.0021 L962.9907,81.2473 L966.1329,81.178 L969.3098,81.5343 L972.4765,81.7648 L975.6619,82.2267 L975.6648,82.2549 L978.7139,82.5772 L981.7652,82.9213 L984.7927,83.0326 L987.8508,83.443 L990.9019,83.7844 L990.8952,83.7314 L993.8481,84.4069 L996.7539,84.7087 L999.6172,84.6747 L1002.5543,85.2247 L1005.4725,85.625 L1005.4334,85.3715 L1008.2592,86.1789 L1011.0481,86.7466 L1013.811,87.1457 L1016.5117,87.1424 L1019.3084,87.7608 L1019.3464,87.9635 L1021.8548,87.925 L1024.5392,88.8255 L1027.1055,89.096 L1029.7451,89.7576 L1032.3444,90.204 L1032.368,90.3082 L1034.825,90.9612 L1037.1419,90.9971 L1039.6936,92.0678 L1042.0985,92.4915 L1044.5151,92.9668 L1044.5571,93.119 L1046.8514,93.9061 L1049.0119,94.207 L1051.28,94.8986 L1053.5326,95.5339 L1055.7554,96.0614 L1055.7833,96.1445 L1057.8042,96.7488 L1059.9538,97.7363 L1061.8159,97.8676 L1064.031,99.0505 L1066,99.5 L1065.8914,99.2448 L1068.0476,100.1905 L1070.2903,101.3393 L1072.43,102.246 L1074.481,102.9444 L1076.7084,104.0574 L1076.7943,104.22 L1078.8128,105.2003 L1081.0229,106.5431 L1083.0923,107.6198 L1084.9425,108.2816 L1087.1173,109.5578 L1087.0237,109.4078 L1089.0981,110.7638 L1091.2234,112.2013 L1093.2457,113.4739 L1095.233,114.6903 L1097.1733,115.8314 L1097.0851,115.7077 L1099.2674,117.4371 L1101.1967,118.8116 L1102.951,119.9405 L1104.8315,121.2465 L1106.8231,122.7085 L1106.712,122.5689 L1108.6017,124.096 L1110.5371,125.6805 L1112.3182,127.0711 L1114.0595,128.4117 L1116.0131,130.0191 L1116.1556,130.1823 L1117.6144,131.3804 L1119.6307,133.2172 L1121.3442,134.7069 L1123.0634,136.2033 L1124.6901,137.5937 L1124.9016,137.8173 L1126.2371,139.048 L1127.8425,140.564 L1129.7149,142.3624 L1130.9963,143.5358 L1132.8007,145.2622 L1132.7266,145.1892 L1134.3354,146.8169 L1135.8187,148.3208 L1137.1817,149.7061 L1138.7797,151.3231 L1140.2914,152.8551 " fill="none" style="stroke:#383838;stroke-width:1.0;"/><polygon fill="#383838" points="1144.0146,156.815,1144.0807,156.8381,1143.2341,154.91,1142.7752,153.1175,1142.19,151.2808,1141.1896,149.299,1140.764,147.518,1140.7381,147.5173,1140.587,148.6445,1140.5665,149.7758,1140.6367,150.9099,1140.3942,152.0343,1140.5897,153.1722,1140.5954,153.3567,1139.4524,152.9274,1138.326,153.0366,1137.2016,153.2116,1136.0655,153.0042,1134.9355,152.9979,1134.9443,153.0189,1136.7472,153.7515,1138.5902,154.5796,1140.4139,155.3617,1142.2744,156.2316,1144.0146,156.815" style="stroke:#383838;stroke-width:1.0;"/><!--MD5=[0f9571f384c28894d761562ab25c5ea9]
link NovoCatalogoController to Catalogo--><path d="M532.0493,190.5 L532.0493,190.5934 L538.0577,190.3159 L544.0661,190.5859 L550.0744,190.6776 L556.0828,190.1829 L562.0912,190.5 " fill="none" style="stroke:#383838;stroke-width:1.0;"/><polygon fill="#383838" points="567.3279,190.5,567.3564,190.564,565.4718,189.5738,563.7541,188.9589,561.982,188.2217,560.0313,187.0827,558.3279,186.5,558.3096,186.4817,559.0274,187.1995,559.8375,188.0096,560.7118,188.8839,561.3649,189.537,562.3279,190.5,562.4584,190.6305,561.3793,191.1514,560.6813,192.0534,560.0297,193.0018,559.1077,193.6798,558.3279,194.5,558.3371,194.5208,560.1236,193.6903,561.9521,192.9544,563.7603,192.1728,565.6072,191.4784,567.3279,190.5" style="stroke:#383838;stroke-width:1.0;"/><!--MD5=[e973b89da3168ed3ebe017cc5850cba7]
@startuml
'http://plantuml.com/skinparam.html
skinparam handwritten true
skinparam monochrome true
skinparam packageStyle rect
skinparam defaultFontName FG Virgil
skinparam shadowing false

class NovoCatalogoUI <<presentation>>
class NovoCatalogoController <<application>>
class Catalogo <<domain>>
class CatalogoRepository <<repository>>
class UtilizadorRepository <<repository>>
class EquipaRepository <<repository>>


NovoCatalogoUI - -> NovoCatalogoController : theController

NovoCatalogoController -> UtilizadorRepository
NovoCatalogoController -> CatalogoRepository
NovoCatalogoController -> EquipaRepository
NovoCatalogoController -> Catalogo

NovoCatalogoController : getEquipas ()
NovoCatalogoController : novoObjetivo(tempoMax,tempoMedio)
NovoCatalogoController : novoCatalogo(identificador,titulo,descricaoBreve,descricaoCompleta,icone,listEquipas,obj)
NovoCatalogoController : novoCatalogo(identificador,titulo,descricaoBreve,descricaoCompleta,icone,listEquipas)

Catalogo : Catalogo(identificador,titulo,descricaoBreve,descricaoCompleta,icone,listEquipas)
Catalogo : Catalogo(identificador,titulo,descricaoBreve,descricaoCompleta,icone,listEquipas,obj) 

CatalogoRepository : save(cat)

UtilizadorRepository : listColaboradores()

EquipaRepository : listEquipas()
@enduml

@startuml
skinparam handwritten true
skinparam monochrome true
skinparam packageStyle rect
skinparam defaultFontName FG Virgil
skinparam shadowing false

class NovoCatalogoUI <<presentation>>
class NovoCatalogoController <<application>>
class Catalogo <<domain>>
class CatalogoRepository <<repository>>
class UtilizadorRepository <<repository>>
class EquipaRepository <<repository>>


NovoCatalogoUI - -> NovoCatalogoController : theController

NovoCatalogoController -> UtilizadorRepository
NovoCatalogoController -> CatalogoRepository
NovoCatalogoController -> EquipaRepository
NovoCatalogoController -> Catalogo

NovoCatalogoController : getEquipas ()
NovoCatalogoController : novoObjetivo(tempoMax,tempoMedio)
NovoCatalogoController : novoCatalogo(identificador,titulo,descricaoBreve,descricaoCompleta,icone,listEquipas,obj)
NovoCatalogoController : novoCatalogo(identificador,titulo,descricaoBreve,descricaoCompleta,icone,listEquipas)

Catalogo : Catalogo(identificador,titulo,descricaoBreve,descricaoCompleta,icone,listEquipas)
Catalogo : Catalogo(identificador,titulo,descricaoBreve,descricaoCompleta,icone,listEquipas,obj) 

CatalogoRepository : save(cat)

UtilizadorRepository : listColaboradores()

EquipaRepository : listEquipas()
@enduml

PlantUML version 1.2020.22(Sun Dec 06 09:36:27 UTC 2020)
(GPL source distribution)
Java Runtime: OpenJDK Runtime Environment
JVM: OpenJDK 64-Bit Server VM
Default Encoding: UTF-8
Language: en
Country: US
--></g></svg>